<svg xmlns="http://www.w3.org/2000/svg" viewBox="0 0 200 200">
	<style>
		.belonging_0 {
			fill: #666
		}

		.belonging_1 {
			fill: #e7f4df
		}
	</style>
	<path class="belonging_0"
		d="M50.9 119.7c-3.3-.9-5.4-3.1-7.3-5.9-1.9-2.8-3.4-5.9-5.8-8.4-2.3-2.4-5.4-4.1-8.7-4.8-1.8-.4-3.6-.4-5.3.1-3.4 1.1-5.7 4.4-6 8-.3 3.5 1.3 7 3.8 9.5s4.1 3.6 8 5.3c-1.3.5-2.7 3.5-2.6 3.8.2.6 1.6-.1 2.1-.1 3.9-.2 7.4 1.9 11 3.5s6.8 1.2 10.6.5" />
	<path class="belonging_1"
		d="M51.3 118.3c-4.7-1.4-6.8-5.8-9.3-9.7-2.7-4.2-6.2-7.5-11-8.9-4.7-1.4-9.6-.7-12.7 3.3-2.8 3.8-2.8 8.8-.6 12.8 2.3 4.3 6.6 7.2 11 9.1v-2.6c-1 .5-1.8 1.5-2.4 2.5-.4.7-1 1.6-1 2.5 0 1.4 1.4 1.9 2.6 1.7.4-.1.9-.2 1.3-.3.8-.1 1.7.1 2.5.3 3.3.8 6.1 2.8 9.3 3.7 3.3 1 6.6.5 9.9-.1 1.9-.4 1.1-3.2-.8-2.9-2.6.5-5.3.9-7.9.2-2.6-.7-4.9-2.2-7.5-3.2-2.1-.8-4.6-1.4-6.9-.9 0 0-.5.1-.6.1-.3 0-.2.3.5.8.3.8.5 1 .6.6.1-.1.3-.7.4-.8.4-.7.8-1.5 1.5-1.8.9-.5 1-2.2 0-2.6-3.4-1.4-6.6-3.3-8.8-6.3-2.5-3.2-3.2-7.8-.7-11.2 2.7-3.6 7.5-3.3 11.2-1.6 4.1 1.9 6.5 5.3 8.8 9.1 2.4 3.9 5.1 7.5 9.7 8.9 1.9.7 2.7-2.2.9-2.7z" />
	<path class="belonging_1"
		d="M24.5 100.9c-1.3 3.2-2 6.6-2.2 10-.1 1.7-.1 3.5.1 5.2.1.8.2 1.6.3 2.3.1.5.3.8.8.8s.5-.7 0-.8c-.3 0-.5-4-.5-4.5-.1-1.4 0-2.8.1-4.2.3-3 1-5.9 2.1-8.7.2-.3-.5-.5-.7-.1zM28.4 100.7c-.8 1-.8 2.6-1 3.8-.3 2.2-.3 4.5-.3 6.7 0 2.3.1 4.7.4 7 .1.9.2 1.8.4 2.6.1.5.2 1.6.8 1.8.1.1.3.1.5-.1.1-.2.2-.3.1-.5 0-.2-.2-.3-.4-.3h-.1c-.5 0-.5.7 0 .8h.1c-.1-.1-.2-.2-.4-.3 0-.1 0-.2.1-.2.2 0 .3 0 .5-.1-.4-.1-.5-1.6-.6-1.9-.2-.9-.3-1.9-.4-2.8-.2-2.2-.3-4.3-.3-6.5 0-2.1.1-4.1.3-6.1.1-1.1.2-2.7.9-3.6.4-.3-.3-.7-.6-.3z" />
	<path class="belonging_1"
		d="M26.7 101c-1.1 1.2-1.2 2.9-1.4 4.4-.3 1.8-.4 3.6-.5 5.5-.1 1.9 0 3.8.2 5.8.1.9.2 1.8.4 2.7.1.6.1 1.4.5 1.8.1.1.2.1.4.1h.1c.2-.1.3-.2.3-.4v-.1c0-.5-.8-.5-.8 0v.1c.1-.1.2-.2.3-.4.3.2.3.1.1-.3 0-.2-.1-.4-.1-.5-.1-.4-.2-.9-.2-1.3-.1-.8-.2-1.6-.3-2.5-.1-1.6-.2-3.2-.1-4.8 0-1.6.2-3.2.4-4.8.2-1.5.2-3.5 1.3-4.7.2-.4-.3-.9-.6-.6zM30.1 100.8c-1.3 5.8-.9 12.1-.5 18 .1.7.1 1.5.2 2.2 0 .4.1.8.1 1.2 0 .2.2.5.2.7 0 .3-.1.7 0 1.1.1.6.1 2.7.8 2.9.5.2.6-.6.2-.7.3.1.1 0 .1-.3s-.1-.6-.2-.9c-.1-.6-.2-1.2-.2-1.7 0-.2 0 .3-.1.1 0 0 .1-.1.1-.2 0-.6-.1-1.2-.2-1.8-.1-1.4-.3-2.8-.3-4.2-.3-5.4-.6-11 .5-16.3.1-.3-.6-.5-.7-.1zM31.7 102.7c-.9 4.2-.3 8.5 0 12.7.4 4.4.8 8.7 2.1 12.9.1.4.6.3.7 0 0-.1.1-.2.1-.4.2-.5-.5-.6-.7-.2 0 .1-.1.2-.1.4h.7c-1.2-4.1-1.7-8.4-2.1-12.7-.3-4.2-1-8.4-.1-12.5.2-.4-.5-.6-.6-.2zM33.5 103.1c-.2 4.8-.1 9.7.4 14.5.2 2.2.5 4.5.9 6.7.2 1 .4 2.1.8 3.1.2.5.3 1.5.8 1.7.2.1.4 0 .5-.1.1-.1.1-.3.1-.4-.1-.2-.2-.3-.5-.3h-.1c-.5.1-.3.8.2.7h.1c-.2-.1-.3-.2-.5-.3v-.1c.2 0 .3-.1.5-.1-.5-.2-.9-2.6-1-3-.2-.9-.4-1.8-.5-2.7-.4-2.3-.6-4.5-.8-6.8-.4-4.3-.4-8.6-.3-12.8.1-.6-.6-.6-.6-.1zM35.8 104.4c-.6 8.7 1 17.3 2.7 25.8.1.3.5.4.7.1.1-.1.2-.3.3-.4.2-.4-.4-.8-.6-.4-.1.1-.2.3-.3.4.2 0 .5.1.7.1-1.7-8.4-3.3-16.9-2.7-25.6-.1-.5-.8-.5-.8 0z" />
	<path class="belonging_1"
		d="M37.5 107c-.2 4.1.4 8.3 1.1 12.3.4 2.1.8 4.2 1.1 6.3.3 1.9.6 3.8 1.5 5.5.1.2.5.2.6 0 .1-.1.1-.3.2-.4.2-.4-.4-.8-.6-.4-.1.1-.1.3-.2.4h.6c-.9-1.8-1.1-3.8-1.5-5.8-.3-2-.7-3.9-1.1-5.9-.7-4-1.3-8.1-1.1-12.1.2-.4-.5-.4-.6.1z" />
	<path class="belonging_1"
		d="M39.7 109.7c.1 4 .2 7.9.6 11.9.2 1.8.5 3.6.9 5.3.2.9.5 1.9.8 2.8.2.5.2 1.4.8 1.7.1.1.3.1.5-.1s.2-.3.1-.5c0-.1-.2-.3-.4-.3h-.1c-.5 0-.5.8 0 .8h.1c-.1-.1-.2-.2-.4-.3 0-.1 0-.1.1-.2.2 0 .3 0 .5-.1-.4-.2-.7-2.2-.9-2.6-.2-.9-.5-1.7-.6-2.6-.4-1.8-.6-3.6-.8-5.4-.3-3.5-.4-7-.5-10.5.1-.4-.7-.4-.7.1z" />
	<path class="belonging_1"
		d="M41.9 113c0 3.6 0 7.2.4 10.8.2 1.5.5 3 1 4.4l.9 2.1c.2.4.5 1.1.9 1.2.1 0 .4 0 .4-.2.1-.2.1-.3 0-.5s-.3-.2-.5-.1c-.4.2-.1.8.4.6-.2 0-.3-.1-.5-.1V130.9v.1c.1-.1.3-.1.4-.2-.3-.1-.8-1.5-1-1.8-.3-.7-.6-1.4-.8-2.1-.4-1.5-.7-3-.8-4.5-.3-3.1-.3-6.3-.3-9.4.2-.5-.5-.5-.5 0z" />
	<path class="belonging_1"
		d="M43.6 115.3c.3 2.9.1 5.8.5 8.7.4 2.7 1.3 5.2 2.6 7.6.2.4.9 0 .6-.4-1.2-2.3-2.1-4.8-2.5-7.4-.4-2.8-.2-5.6-.5-8.5 0-.5-.8-.5-.7 0z" />
	<path class="belonging_1"
		d="M45 116.8c.1 2.5.1 5 .4 7.4.2 2.2.9 4.3 1.9 6.3.2.4.9 0 .6-.4-1-2-1.7-4.1-1.9-6.4-.2-2.3-.2-4.6-.3-6.9 0-.5-.8-.5-.7 0z" />
	<path class="belonging_1"
		d="M47.4 119.1c-.3 2.6-.5 5.2-.3 7.8.1 1.2.3 2.4.6 3.6.1.3.2.9.6.9.3 0 .5-.2.5-.5 0-.5-.7-.5-.8 0 .4 0 .5-.1.4-.4 0-.1-.1-.2-.1-.3-.1-.2-.1-.5-.2-.8-.1-.4-.2-.9-.2-1.3-.1-1-.2-2.1-.2-3.1 0-2 .2-4 .4-5.9.1-.5-.7-.5-.7 0z" />
	<path class="belonging_1"
		d="M49.4 120c-.2 2-.5 4-.7 6.1-.1 1-.1 1.9-.1 2.9 0 .4.1.9.1 1.3.1.4.1.8.4 1 .1.1.3 0 .5-.1.1-.1.2-.2.1-.3 0-.2-.1-.3-.3-.4-.5-.1-.7.6-.2.7-.1-.1-.2-.2-.3-.4v.1c0-.1.1-.2.1-.3.2 0 .3 0 .5-.1.1.2.1.1 0-.1 0-.1 0-.2-.1-.3 0-.3-.1-.5-.1-.8 0-.4-.1-.8-.1-1.2 0-.9.1-1.8.2-2.7.2-1.8.5-3.6.7-5.4.1-.5-.7-.5-.7 0zM22.8 101.4c-2.1 4.6-3.2 9.7-3.1 14.8 0 .2.2.4.4.4s.5 0 .7-.1c.5 0 .5-.8 0-.8-.2 0-.5 0-.7.1l.4.4c-.1-5 1-9.9 3-14.4.1-.4-.5-.8-.7-.4z" />
	<path
		d="M178.9 40.3c-.1-1.2-.2-2.3-.4-3.5-.2-1-.3-2.1-1.3-2.4-.9-.3-2.2.4-3.1.6-1.2.3-2.4.6-3.6 1-2.4.7-4.9 1.3-7.3 2-.2.1-.4.2-.5.3-.2 0-.3.1-.5.1-1.2.2-2.4.5-3.6.7-2.2.4-4.3.8-6.3 1.8-4 1.9-8.1 3.3-12.6 3.6H138.8c-1.8.4-4.4 1.4-4.4 3.5 0 1.2.2 2.4.3 3.5l.3 3.9c.1.7.5 1.2 1.3 1.3.6 0 1.1-.1 1.6-.4.2-.1.9-.7 1-.7.2 0 .8 1.5 1 1.8.3.7.6 1.4.8 2.1.5 1.4.8 2.8 1 4.3.2 1.4 1.1 2.5 2.7 2.2.7-.1 1.1-.9.9-1.6-.8-2.7-1.3-5.4-1.7-8.1-.1-.7-.1-1.3-.2-2 0-.5-.2-1.3 0-1.8.4-.9 2.2-1.3 3-1.5.4-.1 1.1-.5 1.4-.3.3.2.4 1.6.5 2 .3 1.3.5 2.7.6 4 .2 2.7.3 5.3 1.2 7.9.2.5.6.9 1.2.9 1.1 0 2.3.1 2.9-.9.6-.9.3-1.9.1-2.8-.5-2.5.6-5 1.7-7.2.1-.1.1-.3.2-.4 0 .1.3 0 .5 0 .5.1 1 .2 1.4.4.8.4 1.4 1 1.5 2 .3 2.1-.3 4 1.1 5.8.3.3.8.4 1.2.3 1.5-.4 3.1-.7 4.7-.8.9 0 1.3-.8 1.2-1.6-.5-3.2-1.2-6.4-2.2-9.5-.3-.8-.5-1.6-.8-2.5-.1-.4-.3-.7-.4-1.1 0-.1-.1-.2-.1-.3 1.2-.3 3.7-.9 4-1 .4-.1.8-.1 1.2-.2.2 0 .4 0 .6-.1h.1c.4.5.4 1.6.4 2.2.2 1.5.3 3.1.5 4.6.3 1.6.7 3.1 1.2 4.6.4 1.5.8 2.9 1.6 4.3.6 1 2.5.7 2.4-.6-.2-2.8-.7-5.6-1.5-8.3l-.6-1.8c-.1-.2-.4-1.1-.2-1.3.2-.2 1.2-.1 1.4-.1.8-.1 1.5-.1 2.3-.2.7-.1 1.2-.5 1.3-1.3.1-2.6.1-5-.1-7.4z"
		fill="#79a2d8" />
	<path class="belonging_1"
		d="M133.4 47.1c1.6 16.2 3.3 32.3 4.9 48.5.2 1.9 3.2 1.9 3 0-1.6-16.2-3.3-32.3-4.9-48.5-.2-1.9-3.2-1.9-3 0z" />
	<path class="belonging_1"
		d="M135.5 47.7c14.1-4.8 28.5-8.8 43.1-11.8 1.9-.4 1.1-3.3-.8-2.9-14.6 3.1-29 7-43.1 11.8-1.8.6-1 3.5.8 2.9z" />
	<path class="belonging_1"
		d="M177.3 33.8c.7 12.4 2.8 24.6 6.4 36.5.5-.6 1-1.3 1.4-1.9-15.7-1-31.5.7-46.6 5.1-1.8.5-1.1 3.4.8 2.9 14.9-4.3 30.4-6 45.8-5 1 .1 1.7-1 1.4-1.9-3.5-11.6-5.6-23.6-6.3-35.7 0-1.9-3-1.9-2.9 0z" />
	<path class="belonging_1"
		d="M136.9 57.9c.5-.3.9-.5 1.4-.8l.6-.3c.1-.1.3-.1.4-.2.2-.1.2-.1-.1-.1 0 .5.3 1.2.5 1.7.2.6.3 1.1.5 1.7.6 2.3 1.2 4.5 1.8 6.8.1.4.5.6.9.5.8-.3 1.6-.5 2.4-.8.5-.2.9-.3 1.2-.7.3-.5.1-1.2 0-1.7-.1-.7-.3-1.5-.4-2.2-.6-3.1-1.3-6.3-1.9-9.4-.1.3-.2.6-.3.8 1.6-1 3.2-1.7 5-2.1-.3-.2-.6-.5-.9-.7.5 4.9 1.1 9.7 1.6 14.6.1.9 1.6 1 1.5 0-.5-4.9-1.1-9.7-1.6-14.6-.1-.5-.4-.8-.9-.7-1.9.4-3.7 1.2-5.4 2.2-.3.2-.4.5-.3.8.5 2.6 1 5.1 1.6 7.7.3 1.3.5 2.5.8 3.8 0 .2.1.3.1.5 0 .3 0 .4.1.3 0-.1-.6.2-.7.2-.7.2-1.3.4-2 .6.3.2.6.3.9.5-.8-2.8-1.5-5.7-2.3-8.5-.2-.9-.4-2.6-1.5-2.8-.6-.1-1.2.4-1.7.6-.6.3-1.2.6-1.8 1-1.1.4-.4 1.7.5 1.3z" />
	<path class="belonging_1" d="M150.4 66h4.2c.4 0 .8-.3.8-.8 0-.4-.3-.8-.8-.8h-4.2c-.4 0-.8.3-.8.8.1.5.4.8.8.8z" />
	<path class="belonging_1"
		d="M155.5 65.6c.3-1.1.2-2.2-.1-3.3-.3-1.1-.7-2-.4-3.1.5-1.8 1.9-3.3 2.4-5.2-.4.1-.7.3-1.1.4.7.4 1.5.7 2.2 1.1.3.1.6.2.9.4.3.2.2.5.2.8-.1 1.6-.1 3.2.1 4.8.1.6.1 1.2.5 1.7.5.5 1.2.3 1.9.2 1.6-.3 3.3-.6 4.9-.9.9-.2.5-1.6-.4-1.4-1.5.3-3 .6-4.4.8-.2 0-.4.1-.6.1 0 0-.5.1-.3.1.1.1.1.1 0-.1v-.2-.5c-.1-.8-.1-1.6-.1-2.3 0-.7 0-1.5.1-2.2 0-.6 0-1.2-.4-1.7-.4-.4-1-.7-1.5-.9-.7-.3-1.4-.7-2.1-1-.4-.2-1 0-1.1.4-.5 1.8-1.9 3.3-2.4 5.2-.3 1-.2 1.9.1 2.9.4 1.2.7 2.3.4 3.5-.4.9 1 1.3 1.2.4z" />
	<path class="belonging_1"
		d="M168.6 61.5c-.6-2.5-.8-5.1-1.4-7.7-.6-2.5-1.4-5-2.4-7.4-.2.3-.3.6-.5.9 1.9-.4 3.8-.8 5.7-1.3.6-.2.2-.2.3.1.1.2 0 .5.1.6.1.5.1.9.2 1.4.1 1 .3 1.9.4 2.8.7 3.8 1.7 7.5 2.9 11.1.1.4.5.6.9.5.9-.2 1.7-.6 2.4-1.2.3-.2.4-.5.3-.8-1.1-3.9-1.9-7.8-2.7-11.7l-.9.9c.9.2 1.9.3 2.8.1.4-.1.9-.2 1.3-.4.3-.1 1-.7 1.4-.6-.2-.1-.4-.1-.5-.2V48c.2-.1.4-.1.5-.2h-.1c-1-.1-.9 1.4 0 1.5 1.3.2 1.2-2.1-.2-1.9-.7.1-1.4.7-2.1.9-.9.2-1.8.2-2.7 0-.6-.1-1 .4-.9.9.7 4 1.6 7.9 2.7 11.7.1-.3.2-.6.3-.8-.6.5-1.3.8-2 1 .3.2.6.3.9.5-1.5-4.2-2.6-8.5-3.2-12.8-.2-1-.2-2.1-.4-3.1-.1-.7-.5-1.3-1.3-1.3-1 0-2.1.4-3 .7-1.2.3-2.3.5-3.5.8-.4.1-.7.6-.5.9 1 2.4 1.8 4.9 2.4 7.4.6 2.5.8 5.1 1.4 7.7.2.9 1.6.5 1.4-.4zM139.4 55.8c-.3.9-.6 1.9-.8 2.8-.1.5-.3.9-.4 1.4-.1.2-.1.4-.2.7 0 .1-.1.2-.1.3 0 .1 0 .1-.1.2s0 .1 0 .1c-.4.2 0 .9.4.6.2-.1.2-.3.3-.5.1-.3.1-.5.2-.8.2-.5.3-1.1.5-1.6.3-1 .6-2.1.9-3.1.1-.4-.6-.6-.7-.1zM140.2 58c-.8 2.7-1.6 5.4-2.5 8.1-.1.5.6.7.7.2.8-2.7 1.6-5.4 2.5-8.1.2-.5-.5-.7-.7-.2zM141.1 62.7c-1.2 2.6-2.2 5.2-3 7.9-.1.5.6.7.7.2.8-2.6 1.7-5.2 2.9-7.7.2-.4-.4-.8-.6-.4zM142.3 65.5c-.3 2.1-1.1 4.2-2.2 6-.3.4.4.8.6.4 1.1-1.9 1.9-4 2.2-6.2.2-.4-.5-.6-.6-.2zM144.9 52.5l-1.2 4.8c-.1.5.6.7.7.2l1.2-4.8c.2-.5-.6-.7-.7-.2zM146.3 52.8c-.6 2.3-1.1 4.7-1.7 7-.1.5.6.7.7.2.6-2.3 1.1-4.7 1.7-7 .2-.5-.5-.7-.7-.2zM148.1 53.5l-2.4 8.4c-.1.5.6.7.7.2l2.4-8.4c.2-.5-.5-.7-.7-.2zM148.4 58.6c-1 2.4-1.9 4.8-2.9 7.2-.2.4.5.6.7.2 1-2.4 1.9-4.8 2.9-7.2.2-.4-.5-.6-.7-.2zM149.8 61.8c-1.4 2.9-2.8 5.9-4.2 8.8-.2.4.4.8.6.4 1.4-2.9 2.8-5.9 4.2-8.8.3-.4-.4-.8-.6-.4z" />
	<path class="belonging_1"
		d="M145.6 65.8c-.5 2-1.2 4-1.9 6-.2.5.6.6.7.2.7-2 1.4-4 1.9-6 .1-.4-.6-.6-.7-.2zM150.1 65.5c-.4 1.4-.9 2.8-1.3 4.2-.1.5.6.7.7.2.4-1.4.9-2.8 1.3-4.2.2-.4-.6-.6-.7-.2zM157 55.5c.1-.1.1-.1.1-.2s.1-.2.1-.2v-.2-.2c0-.1 0-.2-.1-.2 0-.1-.1-.1-.1-.1h-.1-.1c-.1 0-.1 0-.2.1l-.1.1c-.1.1-.1.1-.1.2s-.1.2-.1.2v.4s0 .1.1.1c.1.1.2.1.3.1.1 0 .2 0 .3-.1 0 0 0-.1.1-.1 0-.1.1-.1.1-.2v-.1.1c0-.1 0-.1.1-.2v.1c0-.1.1-.1.1-.2 0 0 0 .1-.1.1l.1-.1c-.2 0-.4-.1-.6-.1v-.1 0s0 .1-.1.1c0 0 0-.1.1-.1-.1.1-.1.2-.1.3 0 .1 0 .2.1.3.1.1.2.1.3.1l-.1.1zM158.2 55.9c.2-.2.3-.4.3-.7 0-.4-.5-.5-.7-.2-1 1.7-1.9 3.6-2.8 5.4-.2.4.5.8.6.4.8-1.9 1.7-3.7 2.8-5.4-.2-.1-.5-.1-.7-.2v.1c-.4.4.2.9.5.6zM159.4 55.3c-1.4 2.6-2.7 5.3-4.1 7.9-.2.4.4.8.6.4 1.4-2.6 2.7-5.3 4.1-7.9.3-.4-.4-.8-.6-.4zM159.9 58.6c-2 3.6-4.1 7.2-6.3 10.7-.3.4.4.8.6.4 2.2-3.5 4.3-7 6.3-10.7.3-.4-.4-.8-.6-.4zM153.9 65.8c-.8 1.4-1.6 2.9-2.4 4.3-.2.4.4.8.6.4.8-1.4 1.6-2.9 2.4-4.3.3-.5-.3-.9-.6-.4zM160.3 62.4c-.7 1.6-1.5 3.1-2.4 4.6-.4.7-.9 1.4-1.4 2.1-.2.3-.5.6-.2.9.2.2.5.2.8 0 .4-.3 0-.9-.4-.6-.1 0-.1.1.1 0l.2.2v-.1.3c1.6-2.2 2.9-4.6 4.1-7.1 0-.4-.6-.8-.8-.3zM163.6 62.3c-1.1 2.6-3.2 4.6-4.3 7.3-.2.4.4.6.6.4.2-.1.3-.3.5-.4.4-.3-.2-.8-.5-.5-.2.1-.3.3-.5.4.2.1.4.2.6.4 1.1-2.5 3.1-4.6 4.2-7.1.3-.6-.4-1-.6-.5zM165.2 62.9l-3 5.1c-.2.4.4.8.6.4l3-5.1c.3-.5-.3-.9-.6-.4zM167.8 61.1c-.5 2.7-2.9 4.5-3.8 7-.2.5.6.7.7.2.9-2.6 3.3-4.3 3.8-7 .1-.5-.6-.7-.7-.2zM167.9 45.9c-.6 1.8-1.4 3.6-2.5 5.2-.3.4.4.8.6.4 1.1-1.6 2-3.4 2.6-5.3.2-.6-.5-.8-.7-.3zM170.1 45.7c-.8 2-1.7 4-2.9 5.8-.3.4.4.8.6.4 1.2-1.9 2.1-3.9 2.9-6 .3-.5-.4-.7-.6-.2zM170.7 48.9c-1.1 2.3-2.2 4.6-3.3 7-.2.4.4.8.6.4 1.1-2.3 2.2-4.6 3.3-7 .2-.4-.4-.8-.6-.4zM170.8 51.8c-1.1 2.3-2.1 4.5-3.2 6.8-.2.4.4.8.6.4 1.1-2.3 2.1-4.5 3.2-6.8.2-.5-.4-.8-.6-.4z" />
	<path class="belonging_1"
		d="M171.9 54.2c-1.4 2.1-2.7 4.3-3.9 6.4-.2.4.4.8.6.4 1.3-2.2 2.6-4.3 3.9-6.4.3-.4-.4-.8-.6-.4zM172.2 59.2c-1.3 2.5-2.7 4.9-4 7.4-.2.4.4.8.6.4 1.3-2.5 2.7-4.9 4-7.4.2-.4-.4-.8-.6-.4zM173.1 60.7c-.9 1.3-1.7 2.6-2.6 4-.4.6-.9 1.3-1.2 1.9-.2.3-.2.7.2.8.2.1.5-.1.6-.3 0-.2 0-.3-.2-.4-.4-.3-.8.4-.4.6-.1-.1-.1-.3-.2-.4l.1-.1h.3l.3.3c0 .1 0 .1.1-.1 0-.1.1-.1.1-.2.1-.1.2-.3.3-.4.2-.2.3-.5.5-.7.3-.5.6-1 1-1.5.6-1 1.3-2 1.9-3 .1-.6-.6-.9-.8-.5zM174.4 60.6c-1.2 2-2.3 4.1-3.5 6.1-.2.4.4.8.6.4 1.2-2 2.3-4.1 3.5-6.1.2-.4-.4-.8-.6-.4zM176.4 61.2c-1.1 2.1-2.2 4.2-3.4 6.3-.2.4.4.8.6.4 1.1-2.1 2.2-4.2 3.4-6.3.3-.5-.4-.8-.6-.4zM181 56.8c-1.9 3-3.5 6.2-4.8 9.4-.2.4.5.6.7.2 1.3-3.2 2.9-6.3 4.7-9.3.3-.4-.3-.7-.6-.3zM181.2 60.7c-1 1.4-1.9 2.9-2.6 4.4-.2.4-.4.7-.5 1.1-.2.3-.4.7-.5 1.1-.1.3.2.7.5.6.3-.1.5-.4.3-.7-.2-.4-.9 0-.6.4v-.4l.1-.1h.3l.2.2c0-.1.1-.3.2-.4.1-.1.1-.3.2-.4.1-.3.2-.5.4-.8.3-.5.6-1.1.9-1.6.6-1.1 1.3-2.1 1.9-3.1.1-.3-.5-.7-.8-.3zM182 63c-.8 1.8-1.7 3.4-2.7 5.1-.3.4.4.8.6.4 1-1.6 1.9-3.3 2.7-5.1.1-.2.1-.4-.1-.5-.1-.1-.4-.1-.5.1zM182.4 65.6c-.1.9-.3 1.7-.8 2.5-.1.2 0 .4.1.5.2.1.4 0 .5-.1.5-.9.8-1.9.9-2.9 0-.2-.2-.4-.4-.4s-.3.2-.3.4zM179.8 53.8c-.9 1.6-1.8 3.2-2.7 4.9-.2.4.4.8.6.4.8-1.7 1.7-3.3 2.7-4.9.3-.4-.3-.8-.6-.4zM179 51.2c-.8 1.5-1.6 2.9-2.3 4.4-.2.4.4.8.6.4.8-1.5 1.6-2.9 2.3-4.4.3-.4-.4-.8-.6-.4zM178.4 49.1L176 53c-.2.4.4.8.6.4.7-1.3 1.5-2.6 2.4-3.9.3-.4-.4-.8-.6-.4z" />
	<g>
		<path class="belonging_0"
			d="M143.2 93.6c.1-1.1-.3-2.3-1.1-3.1-.9-.8-2.1-1-3.2-1.1-1.7-.1-3.5-.1-5.2-.1v-.2c-.8-3.9-2.3-7.5-3.8-11.2.6-2.6 1.3-5.2 1.7-7.9.4-3 1.2-6.6-.4-9.4-.6-1.2-1.7-2.1-2.9-2.5-1.6-.5-3.3 0-4.8.7-3 1.4-5.8 3.2-8.6 5-13-6.5-28.4-7.7-42.2-3.1-1.2-1-2.4-2-3.7-2.9-1.3-.9-2.7-1.7-4.1-2.4-1.5-.8-3.2-1.5-5-1-1.1.3-2.1 1.1-2.4 2.3-.2.6-.2 1.2-.3 1.8-.3 2.3-.6 4.5-.7 6.8-.1 1.7-.2 3.5-.1 5.3l-.3.3c-3 4.6-6.7 8.9-8.6 14-.2.1-1.2-.1-1.3-.1-.6-.1-1.2-.1-1.9-.1-1.3 0-2.6.2-3.9.6-2.2.4-4.4 1.9-4.4 4.7 0 2.5 1.6 4.7 2.9 6.7 1.4 2.2 3 4.3 4 6.7.1.3.3.5.5.7-1 12.2-1 25.4 6.5 35.6-.1.2-.1.5-.2.7-.4 1.3-1 2.6-1.2 4-.3 1.4-.5 3-.3 4.5s1.3 2.3 2.6 2.5c2.9.6 5.7-.5 8.2-1.9.8-.4 1.5-.9 2.3-1.4 13.7 5.9 30.5 9.5 44.7 3.5.1 0 .2-.1.4-.2.7-.4 1.8-.1 2.6.1 1.1.3 2 1 2.9 1.6 2.3 1.4 5.1 3.5 7.9 2.4 2.6-1.1 3.4-4.2 3.2-6.7 0-.9-.2-1.7-.3-2.6 1.9-2.2 4.1-4.3 5.9-6.7 1.9-2.7 3.5-5.8 4.9-8.8 2.3-5.2 3.9-10.7 3.7-16.4-.1-3.1-.6-6.1-1.3-9 1.5-1.6 3-3.2 4.3-5 1.3-1.9 2.9-4.3 3-6.7z" />
	</g>
	<g>
		<path class="belonging_1"
			d="M60.8 148.2c14 6.1 31.2 9.9 45.8 3.5 1.8-.8.2-3.4-1.5-2.6-6.6 2.9-14 3.3-21.1 2.5-7.4-.8-14.8-3-21.6-6-1.9-.8-3.4 1.8-1.6 2.6z" />
	</g>
	<g>
		<path class="belonging_1"
			d="M50.3 136.7c-.1-.3-.1-.3 0 0v.6c0 .3-.1.6-.1 1l-.6 2.1c-.4 1.3-1 2.6-1.2 4-.3 1.5-.5 3.1-.3 4.6.2 1.6 1.3 2.5 2.8 2.8 2.9.6 5.8-.5 8.3-1.9 2.6-1.5 5.1-3.3 7.3-5.3 1.4-1.3-.7-3.4-2.1-2.1-1.9 1.7-4 3.3-6.2 4.6-1.9 1.1-4.5 2.5-6.8 1.8-.1 0-.4-.1-.5-.2.2.3.1-.3.1-.4 0-.6 0-1.2.1-1.8.1-1.3.4-2.6.9-3.8.4-1.1.8-2.3 1.1-3.5.3-1.2.5-2.7-.1-3.8-1.1-2-3.7-.4-2.7 1.3z" />
	</g>
	<g>
		<path class="belonging_1"
			d="M106.5 151.7c.2-.1.5-.2.9-.2.5 0 1 .1 1.4.3 1 .3 1.9.9 2.9 1.5 2.3 1.5 5.2 3.6 8.1 2.4 2.7-1.1 3.5-4.3 3.4-6.9-.2-3.1-1.1-6.1-1.7-9.1-.4-1.9-3.3-1.1-2.9.8.3 1.5.6 3 1 4.5.3 1.2.6 2.4.6 3.7.1 1.7-.2 4.8-2.6 4.4-1.2-.2-2.3-1-3.3-1.6-1-.6-2-1.4-3.1-1.9-1.8-.8-4.4-1.5-6.2-.4-1.6.9-.1 3.5 1.5 2.5z" />
	</g>
	<g>
		<path class="belonging_1"
			d="M122.4 146.8c2.6-3.1 5.6-5.8 7.7-9.4 2.1-3.6 4-7.3 5.3-11.3 2.4-7.1 2.3-14.4.4-21.6-.5-1.9-3.4-1.1-2.9.8 1.8 6.7 1.9 13.4-.4 20-1.3 3.7-3.1 7.2-5 10.6-1.9 3.3-4.8 5.8-7.2 8.8-1.2 1.5.9 3.6 2.1 2.1z" />
	</g>
	<g>
		<path class="belonging_1"
			d="M135.5 106c1.7-1.8 3.4-3.6 4.8-5.6 1.4-1.9 3-4.4 3.2-6.8.1-1.2-.3-2.4-1.2-3.3-.9-.9-2.2-1.1-3.4-1.2-2.8-.2-5.5-.2-8.3 0-1.9.1-1.9 3.1 0 3 2.4-.1 4.7-.1 7.1 0 .7 0 1.9-.1 2.5.3.5.4.4 1.2.2 1.7-.5 1.9-1.8 3.6-2.9 5.2-1.2 1.6-2.6 3.1-4.1 4.6-1.4 1.4.7 3.5 2.1 2.1z" />
	</g>
	<g>
		<path class="belonging_1"
			d="M52.4 138.4c-7.7-10.5-7.2-24-6-36.4.2-1.9-2.8-1.9-3 0-1.2 12.8-1.6 27 6.4 37.9 1.1 1.6 3.7.1 2.6-1.5z" />
	</g>
	<g>
		<path class="belonging_1"
			d="M45.6 102.7c-.9-2.2-2.2-4.2-3.5-6.3-1.2-1.8-2.9-3.8-3.2-6-.4-2.3 2.5-2.8 4.2-3.1 1.2-.2 2.3-.1 3.5 0 1.2.2 2.2.1 3.2-.7 1.5-1.3-.7-3.4-2.1-2.1.2-.2-.1-.1-.3-.1-.3 0-.6-.1-.9-.1-.6-.1-1.2-.1-1.9-.1-1.3 0-2.7.2-3.9.6-2.5.7-4.8 2.3-4.8 5.2 0 2.5 1.6 4.8 2.9 6.8 1.4 2.2 3 4.3 4 6.7.3.7 1 1.3 1.8 1 .7-.1 1.3-1 1-1.8z" />
	</g>
	<g>
		<path class="belonging_1"
			d="M49.3 89.1c1.2-6.6 5.8-11.6 9.4-17.1 1.1-1.6-1.5-3.1-2.6-1.5-3.7 5.6-8.4 10.9-9.7 17.8-.1.8.2 1.6 1 1.8.8.3 1.8-.2 1.9-1z" />
	</g>
	<g>
		<path class="belonging_1"
			d="M133.9 88.9c-.8-4-2.4-7.7-3.9-11.4-.3-.8-1-1.3-1.8-1-.7.2-1.3 1.1-1 1.8 1.4 3.8 3 7.5 3.9 11.4.2.8 1.1 1.3 1.8 1 .8-.1 1.2-1 1-1.8z" />
	</g>
	<g>
		<path class="belonging_1"
			d="M73.5 63.2c13.2-4.4 27.9-3.4 40.2 2.9 1.7.9 3.2-1.7 1.5-2.6-13.1-6.7-28.6-7.9-42.5-3.2-1.8.6-1 3.5.8 2.9z" />
	</g>
	<g>
		<path class="belonging_1"
			d="M59.7 72.3c-.4-1.8-.4-3.8-.3-5.8.1-2.2.3-4.3.6-6.5.1-.5.2-1.3.3-2 0-.2.1-.4.1-.7 0-.2.2-.3 0-.2.8-1 2.4-.1 3.3.3 1.3.7 2.5 1.4 3.7 2.2 2.6 1.7 4.8 3.8 6.9 6.1 1.3 1.4 3.4-.7 2.1-2.1-2.1-2.4-4.4-4.5-7.1-6.3-1.3-.9-2.7-1.7-4.1-2.4-1.6-.8-3.4-1.6-5.1-1-1.2.4-2.2 1.2-2.6 2.5-.2.6-.2 1.2-.3 1.8-.3 2.3-.6 4.6-.7 6.9-.2 2.6-.3 5.4.4 8 .3 1.9 3.2 1.1 2.8-.8zM130.1 78.3c.7-2.8 1.4-5.5 1.8-8.3.4-3.1 1.2-6.7-.4-9.6-.7-1.2-1.8-2.2-3.1-2.7-1.7-.5-3.4 0-5 .7-3.1 1.4-6.1 3.3-9 5.3-1.2.8-.8 2.7.8 2.8.7 0 1.2-.2 1.7-.7 1.5-1.2-.6-3.3-2.1-2.1-.1 0-.1.1-.2.1.2-.1.4-.3.7-.4h-.1c.3.9.5 1.9.8 2.8 2.4-1.6 4.9-3.1 7.5-4.5 1.1-.6 2.5-1.5 3.8-1.3 1 .2 1.6 1.1 1.9 2 .4 1.4.2 2.9.1 4.3-.1 1.2-.3 2.4-.5 3.6-.4 2.4-1 4.7-1.6 7.1-.5 2 2.4 2.8 2.9.9z" />
		<path class="belonging_1"
			d="M114.5 66.2c.6 1.4 1 3 2.3 3.9 1.8 1.3 4.6.4 5.8-1.2l2.1-2.7c.4-.4.7-.8 1.1-1.2.3-.3.8-.8 1.2-.8.9 0 .3 2.2.2 2.6-.2 1.3-.2 2.7-.3 4.1-.1 1.4-.2 2.9-.1 4.4.1 1.1.3 2.3 1.1 3.1.7.7 1.7-.4 1.1-1.1-.6-.7-.7-1.8-.7-2.6-.1-1.3 0-2.7.1-4 .1-1.3.1-2.6.3-3.9.2-1 .5-2.3-.1-3.2-.6-.9-1.8-1-2.7-.6-1 .5-1.8 1.5-2.5 2.3-.8.9-1.4 1.8-2.1 2.7-.7.8-1.9 1.3-3 1.2-1.7-.2-2.1-2.4-2.7-3.7-.2-.9-1.4-.2-1.1.7zM75 64.7c-.9.4-1.9 1.8-2.9 1.7-1.3-.2-2.6-1.7-3.5-2.5-1.1-1-2.3-2-3.4-3-.8-.6-1.8-1.4-2.8-1.4-2.2-.1-2.2 2.8-2.4 4.3-.4 2.9-1.4 5.7-1.8 8.6-.1.9 1.3 1.4 1.4.4.4-2.7 1.3-5.4 1.8-8.1.2-1 .1-2.1.4-3 .1-.3.2-.6.5-.7.4-.1 1.1.5 1.4.7 2.3 1.6 4.1 3.8 6.4 5.4.9.6 2 1.1 3 .7 1-.4 1.7-1.3 2.7-1.8.9-.4.1-1.7-.8-1.3z" />
		<path class="belonging_1"
			d="M62.5 59.7c-.8-1.1-1.3-2.4-1.4-3.8 0-.2-.2-.4-.4-.4s-.4.2-.4.4c.1 1.5.7 2.9 1.5 4.2.1.2.3.2.5.1s.3-.3.2-.5zM64 60.7c-.3-1.6-.7-3.1-1-4.7-.1-.5-.8-.3-.7.2.3 1.6.7 3.1 1 4.7.1.4.8.2.7-.2zM65.5 61.4c-.3-1.3-.4-2.7-.3-4.1 0-.2-.2-.4-.4-.4s-.4.2-.4.4c-.1 1.4 0 2.9.3 4.3.2.5.9.3.8-.2zM67 63c-.2-1.6-.3-3.3-.3-4.9 0-.5-.7-.5-.8 0 0 1.7.1 3.4.3 5.1 0 .2.3.3.5.3.2-.1.3-.3.3-.5zM68.4 64.3c-.3-1.5-.2-3 .1-4.5.1-.5-.6-.7-.7-.2-.4 1.6-.4 3.3-.1 4.9 0 .2.3.3.5.3.2-.1.3-.3.2-.5zM69.7 65.4c-.2-1.4-.1-2.9.3-4.2.1-.5-.6-.7-.7-.2-.5 1.5-.6 3.1-.3 4.6 0 .2.3.3.5.3.2-.1.3-.3.2-.5zM70.9 66.5c0-1.3.2-2.7.7-3.9.1-.2-.1-.4-.3-.5-.2-.1-.4.1-.5.3-.5 1.3-.7 2.7-.7 4.1.1.5.8.5.8 0zM72 66.6c.1-1.3.4-2.5 1-3.6.1-.2.1-.4-.1-.5-.2-.1-.4-.1-.5.1-.6 1.3-.9 2.6-1.1 4 0 .2.2.4.4.4.1 0 .3-.2.3-.4zM61.2 61.1c-.9-1.1-1.8-2.2-2.6-3.3-.1-.2-.4-.1-.5 0-.2.2-.1.4 0 .5.9 1.1 1.8 2.2 2.6 3.3.1.2.4.1.5 0 .2-.1.2-.4 0-.5zM60.8 63.3c-.4-.3-.7-.7-1-1-.3-.4-.6-.7-.9-1.1-.1-.2-.3-.3-.5-.1-.2.1-.3.3-.1.5.6.8 1.2 1.6 2 2.3.1.1.4.2.5 0 .2-.2.2-.5 0-.6zM60.8 65.7c-.6-.7-1.3-1.5-1.9-2.2-.1-.1-.4-.1-.5 0-.1.2-.1.4 0 .5.6.7 1.3 1.5 1.9 2.2.1.1.4.1.5 0 .1-.2.1-.4 0-.5zM60.2 67.4c-1.1-.8-2.1-1.8-3-2.8-.1-.2-.4-.1-.5 0-.2.2-.1.4 0 .5.9 1 1.9 1.9 3 2.8.2.1.4.2.5 0 .2-.1.2-.4 0-.5zM127.9 63.8c.6-1.6.9-3.3 1-5 0-.5-.7-.5-.8 0-.1 1.6-.4 3.2-1 4.8-.1.5.6.7.8.2zM126.9 64c0-1.5.1-2.9.1-4.4 0-.5-.7-.5-.8 0 0 1.5-.1 2.9-.1 4.4 0 .5.8.5.8 0zM125.6 64.6c.1-1.7 0-3.4-.3-5.1-.1-.5-.8-.3-.7.2.3 1.6.3 3.3.2 4.9 0 .5.8.5.8 0zM124.3 65.8c0-1.7-.1-3.3-.3-5 0-.2-.2-.4-.4-.4s-.4.2-.4.4c.2 1.7.3 3.3.3 5 .1.4.8.4.8 0zM123.4 67.4c-.2-2-.4-4-.8-6-.1-.5-.8-.3-.7.2.3 1.9.6 3.8.7 5.8 0 .4.8.5.8 0zM122.4 68.6c-.4-2.2-.7-4.3-1.1-6.5-.1-.5-.8-.3-.7.2.4 2.2.7 4.3 1.1 6.5.1.5.8.3.7-.2zM121.4 69c-.3-1.8-.7-3.5-1-5.3-.1-.5-.8-.3-.7.2.3 1.8.7 3.5 1 5.3 0 .5.8.3.7-.2zM119.9 69.4c-.5-1.7-.9-3.3-1.2-5-.1-.5-.8-.3-.7.2.3 1.7.7 3.4 1.2 5 .1.4.8.2.7-.2zM117.9 68.5c-.6-.9-.8-2-.6-3.1 0-.2-.2-.4-.4-.4s-.3.2-.4.4c-.2 1.2.1 2.4.7 3.4.3.5 1 .1.7-.3zM128.8 65.4c.3-.6.7-1.3 1-1.9.1-.2 0-.4-.1-.5-.2-.1-.4 0-.5.1-.3.6-.7 1.3-1 1.9-.1.2 0 .4.1.5.2.1.4 0 .5-.1zM128.6 67.7c.2-.5.5-.9.8-1.2.2-.2.3-.4.5-.5l.1-.1s.1 0 .1-.1c.1-.1.2-.2.3-.2.2-.1.2-.3.1-.5s-.3-.2-.5-.1c-.9.6-1.7 1.4-2.2 2.4-.1.2-.1.4.1.5.4 0 .6 0 .7-.2zM128.4 70.9c.3-1.1 1-2 1.9-2.5.2-.1.2-.3.1-.5s-.3-.2-.5-.1c-1.1.6-2 1.7-2.3 3-.1.2.1.4.3.5.2-.1.4-.2.5-.4zM128.4 73.3c.6-1 1.3-2 2.1-2.9.1-.1.1-.4 0-.5-.1-.1-.4-.2-.5 0-.8.9-1.6 1.9-2.3 3-.2.5.5.8.7.4zM73.1 66.4c.2-.8.5-1.6.9-2.4.1-.2 0-.4-.1-.5-.2-.1-.4 0-.5.1-.4.8-.7 1.7-.9 2.6 0 .2.1.4.3.5.1.1.3 0 .3-.3z" />
	</g>
	<g>
		<path class="belonging_1"
			d="M103.5 89.1c-.1-.2-.4-.3-.7-.3-.2.1-.4.3-.6.5-.1.2-.2.5 0 .7.1.2.4.3.6.3.6 0 .8-.6.9-1.1.1-.5-.1-.9-.6-1 .1.2.1.5.2.7.1-.1.3-.2.4-.2.1-.1.3-.1.4-.1.1 0 .1 0 .2.1 0 .1 0 .1.1.1v.4s-.1 0 0 0h-.1-.1s-.1 0-.1-.1c0 0 0-.1-.1-.1v-.1-.1c-.2 0-.5.1-.7.1 0 .2.1.5.1.7 0 .2.1.4.3.6.3.3 1 .3 1.1-.2.1-.3-.1-.4-.4-.5-.4 0-1.1 0-1.2.5-.1.2 0 .5.2.6.2.2.4.2.7.2.4 0 .9-.1 1-.5.2-.4 0-.9-.4-1.1-.2-.1-.4-.2-.6-.2-.1 0-.3-.1-.4-.1-.2 0-.3.1-.4.1.1 0 .1 0 .2-.1.1 0 .1.1.2.1 0 .1 0 .2.1.3 0 0 0-.1.1-.1v-.3c0-.2-.1-.3-.2-.4-.1-.1-.3-.1-.4-.2h-.4c.1.2.2.3.3.5 0-.1.1-.3.1-.4 0 0 0-.1.1-.1 0 0 .1-.1 0-.1l.1-.1c.1-.1.1-.1.2 0 .1 0 .2.2.3.3.1.1.4.1.5 0 .1-.1.1-.4 0-.5-.2-.2-.4-.4-.6-.5-.3-.1-.5-.1-.8 0-.5.2-.7.7-.8 1.2 0 .2.1.4.3.5h.5V89v-.1s-.1.1-.1.2v.4c.1.2.3.3.5.2.1 0 .1-.1.2-.1.2 0 .4.1.6.2l.1.1c0-.1.1.1 0 0v.1s-.1 0 0 0c0 0-.1.1 0 0h-.2-.1-.1s-.1 0 0 0c-.1 0 0 0 0 0 0 .1.1.1 0 .2 0 0 0 .1-.1.1h.5c-.1-.2-.2-.3-.4-.5 0-.1.1-.1.1-.1.1 0 0 0 0 0 0-.1 0 0 0 0v-.1c-.1-.3-.1-.6-.1-.9 0-.2-.2-.3-.4-.3s-.3.2-.3.4c0 .5.4 1.1 1 1.1s1-.4 1-1c0-.5-.2-1.1-.7-1.2-.5-.1-1.1.1-1.5.4-.1.1-.2.3-.2.4 0 .2.2.3.4.3-.1 0-.1 0-.1-.1v.2c0 .1 0 .2-.1.3 0 .1 0 .1-.1.1.1 0-.1 0 0 0 0 0 .1.1 0 0v.1l.1-.1h-.1s-.1 0-.1-.1c.1.2.3.2.5.1.1.2.2 0 .1-.2z" />
	</g>
	<g>
		<path class="belonging_1"
			d="M75 86.7c-.3.4-.3 1.1.2 1.4.5.3 1.1-.1 1.4-.5.1-.2.3-.5.2-.8-.1-.3-.4-.4-.7-.5-.3-.1-.6-.1-.9 0-.2.1-.4.4-.4.7 0 .2.1.3.3.4.2 0 .3 0 .4-.2.1-.2.3-.5.3-.8 0-.3-.2-.6-.4-.7-.3-.1-.6-.1-.9.2-.2.2-.3.4-.4.7-.1.3 0 .6.2.8.2.2.4.3.7.3.5.1 1-.2 1.3-.6.2-.2-.1-.6-.3-.6-.3 0-.6.2-.9.4-.1.1-.2.3 0 .5.1.1.3.2.5.1.3-.2.6-.6.7-1v-.6-.1c-.3.2-.4.3-.3.2h.2c.1 0 .2.1.2.1s.1 0 .1.1l.1.1v.1l-.1.1c-.1.1-.1.1-.2.1h-.1-.1c.1 0 0 0 0 0v-.1c0 .2 0 .3.1.5.1-.1 0 0 0 0s.1 0 0 0h.1s-.1 0 0 0h.1s-.1 0 0 0c0 0 .1.1 0 0v.1c0-.1 0 0 0 0s0-.1 0 0c0 0 0 .1 0 0v.1c0-.1 0 0 0 0s0 .1 0 0l-.1.1s.1 0 0 0c0 0-.1 0 0 0h-.1-.1-.1-.1l-.1-.1s-.1-.1 0 0c-.1-.2-.2-.3-.5-.3-.2 0-.3.3-.3.5.2.4.6.8 1.1.8.5 0 .9-.3 1-.8.1-.5-.1-.9-.6-1.1-.4-.1-.9 0-1.1.4-.1.2 0 .3.1.5.3.4.9.3 1.2 0 .4-.3.8-.7.6-1.2-.1-.4-.6-.7-1-.8-.3-.1-.5-.1-.8 0-.1 0-.2.1-.3.2-.1.1-.1.3 0 .5 0 0 0 .1 0 0v.4s0 .1 0 0v.1l-.1.1-.1.1-.1.1s-.1.1 0 0c.2.2.3.4.5.6.1-.1.1-.1.2-.1h.2l-.3-.6-.1.1s-.1 0-.1.1c-.1 0-.2.1-.3.1h-.1c-.1 0 .1 0 0 0h-.1-.1s-.1-.1 0 0c0-.1.1-.3.1-.4 0 0 0-.1 0 0 0 0 .1-.1 0 0 0 0 .1 0 0 0 .1 0 0 0 0 0 0-.1 0 0 0 0v.1c0 .1-.1.2-.1.2.2.1.5.1.7.2 0-.1 0 0 0 0s0-.1 0 0c.1 0 .2 0 .4.1h.1s0 .1 0 0v.1c0 .1-.1.1-.1.2l-.2.2s-.1 0 0 0c-.1 0 0 0 0 0 0-.1 0 .1 0 0s0-.1.1-.2c0 0 0-.1.1-.1.1-.2 0-.4-.1-.5-.4-.3-.6-.2-.7-.1z" />
	</g>
	<g>
		<path class="belonging_1"
			d="M75.2 86.3s0-.1 0 0v-.1.1c0-.1.1-.2.1-.2s0 .1-.1.1c0-.1.1-.1.1-.1s-.1 0-.1.1c.1 0 .1-.1.2-.1h-.1c.1 0 .1 0 .2-.1h-.1.1c.1 0 .1 0 .2.1h-.1s.1 0 .1.1c.2.1.4 0 .5-.1.1-.2 0-.4-.1-.5-.3-.2-.8-.2-1.2 0-.3.2-.6.6-.6.9 0 .1 0 .2.1.3.1.1.2.1.3.1.3-.3.5-.4.5-.6z" />
	</g>
	<g>
		<path class="belonging_1"
			d="M74.6 86.7c-.3.3-.3.8-.1 1.1.1.2.2.3.4.4.1.1.2.1.4.1h.3c.2 0 .4-.1.6-.2.1 0 .1-.1.2-.2v-.3c-.1-.1-.1-.2-.2-.2h-.3s-.1 0-.1.1h.1c-.1.1-.3.1-.4.1h.1-.2.1-.2.1s-.1 0-.1-.1c0 0 .1 0 .1.1l-.1-.1s0 .1.1.1l-.1-.1v-.1-.1-.1.1s0-.1.1-.1c0 0 0 .1-.1.1.1-.1.2-.4 0-.5-.3-.2-.5-.3-.7-.1z" />
	</g>
	<g>
		<path class="belonging_1"
			d="M76.4 86.7c.1-.1.1-.2.2-.3v-.1-.1s0-.1-.1-.1l-.1-.1H76.1 76c-.1 0-.1.1-.1.1-.1.1-.1.2-.2.3v.2s0 .1.1.1l.1.1h.4l.1-.1z" />
	</g>
	<g>
		<path class="belonging_1"
			d="M103.3 88.9c.1 0 .1-.1.2-.1h.1c.1 0-.1 0 0 0s.3-.1.4-.1c-.1 0 0 0 0 0h.2s-.1 0 0 0H104.5c.1 0-.1-.1 0 0l.1.1v.1c0-.1 0-.1 0 0v.1c0 .1 0-.1 0 0v.2c-.1.1 0 0 0 0s.1 0 0 0 .1 0 0 0 .1 0 0 0c-.2 0-.4.2-.4.4s.2.4.4.4c.3 0 .5-.2.7-.4.1-.2.2-.5.1-.8-.2-.6-.8-.8-1.4-.7-.4 0-.7.2-1 .4-.2.1-.2.4-.1.5 0 0 .2 0 .4-.1z" />
	</g>
	<g>
		<path class="belonging_1"
			d="M78.6 95c.4 1.2.8 2.3 1.2 3.5.4.9.9 1.7 1.8 2.1 2.3 1.1 4.1-1.5 5.4-3-.4-.1-.8-.1-1.2-.2 1.1 1.6 2.5 4.6 4.9 4.3 2.4-.2 3.7-3.2 4.8-5 .5-.8-.8-1.6-1.3-.8l-1.5 2.4c-.5.7-1 1.6-1.9 1.8-.9.2-1.5-.6-2-1.2-.6-.8-1.1-1.6-1.6-2.4-.3-.4-.8-.5-1.2-.2-.8.9-2.6 3.6-3.9 2.5-.5-.4-.8-1.2-1-1.8l-.9-2.7c-.5-.6-1.9-.2-1.6.7z" />
	</g>
	<g>
		<path class="belonging_1"
			d="M109.5 94.1c3.8-.7 7.6-.9 11.4-.7 1 .1 1-1.4 0-1.5-4-.2-7.9 0-11.8.7-.9.2-.5 1.7.4 1.5z" />
	</g>
	<g>
		<path class="belonging_1"
			d="M110.6 97.3c2.9.5 5.8.9 8.7 1.4.4.1.8-.1.9-.5.1-.4-.1-.9-.5-.9-2.9-.5-5.8-.9-8.7-1.4-.4-.1-.8.1-.9.5-.1.3.1.8.5.9z" />
	</g>
	<g>
		<path class="belonging_1"
			d="M69.2 91.3c-4-1.7-8.1-3-12.4-3.8-.1.5-.1 1-.2 1.5.1 0 .3 0 .4.1 1 .1.9-1.4 0-1.5-.1 0-.3 0-.4-.1-.8-.1-1 1.3-.2 1.5 4.1.7 8.2 1.9 12.1 3.6.8.3 1.6-1 .7-1.3z" />
	</g>
	<g>
		<path class="belonging_1" d="M67.1 94.4h-7.5c-1 0-1 1.5 0 1.5h7.5c1 0 1-1.5 0-1.5z" />
	</g>
</svg>