<svg xmlns="http://www.w3.org/2000/svg" viewBox="0 0 200 200">
	<style>
		.doomed_sundays_1 {
			fill: #fd1015
		}

		.doomed_sundays_2 {
			fill: #e7f4df
		}

		.doomed_sundays_3 {
			fill: none;
			stroke: #e7f4df;
			stroke-miterlimit: 10
		}

		.doomed_sundays_4 {
			fill: #666
		}

		.doomed_sundays_5,
		.doomed_sundays_6 {
			fill: #fff
		}

		.doomed_sundays_6 {
			opacity: .25
		}

		.doomed_sundays_7 {
			fill: #fc9
		}
	</style>
	<path
		d="M67.5 123.8c.7-3.9 1.4-7.4 2.2-11.3.1-.4.3-.8.4-1.3.1-.5.1-1 .1-1.4h.4v-.2c.8-3.7 2.3-7.3 3.6-10.8-.6-2.5 2.1.8 1.7-1.7-.4-2.9 3.1-2.4 4.6-5.1.6-1.1 1.6-2.1 2.8-2.5 1.6-.5 2.7-1.2 2.7-1.2s.7-4.7 3.4-2.9c12.5-6.3 26-6.2 39.3-1.8 1.1-1 6.1 3.1 7.4 2.3 1.3-.9 1.9-.5 6.4-.7 1.6 0 4.4.1 6 .6 1.1.3 2 1.1 2.3 2.2.2.6.2 1.1.3 1.7.3 2.2-2.3 1.3-2.2 3.5.1 1.7-.3.6-.4 2.3.1.1 3.2 4.9 5.1 9.9h.5c.1.3.2.6.4.9.1.2.2.4.2.6.4.6 2 2.9 2.1 3.6 0 0 0 0 0 0s0 0 0 0c0 3.1 4.9 18.1 4.8 18.3-.1.3-3 19.8-10.2 29.7 0 0 0 0 0 0 .5 1.5 1.1 3 1.4 4.5.2 1.4.4 2.9.3 4.3-.2 1.4-1.2 2.2-2.5 2.5-2.8.6-5.5-.5-7.9-1.8-.8-.4-1.5-.9-2.2-1.4-13.2 5.7-29.5 9.2-43.2 3.4-.1 0-.2-.1-.4-.1-.7-.4-1.7-.1-2.5.1-1 .3-1.9.9-2.8 1.5-2.2 1.4-4.9 3.4-7.6 2.3-2.5-1-3.3-4-3.1-6.5 0-.8.2-1.7.3-2.5-1.9-2.2-4-4.1-5.7-6.4-1.9-2.6-3.4-5.6-4.7-8.5-2.3-5-5.4-18.4-4.8-20.8.5-.5 1.3-4.5 1.5-5.3z"
		fill="#666" stroke="#666" stroke-width=".5" stroke-miterlimit="10" />
	<path class="doomed_sundays_1"
		d="M114.7 112.4c-1.2-2.8-3.5-4.8-6-6.5-2.7-1.8-5.5-3.8-8.4-5.1-.9-.4-1.9-.7-2.9-.8-.1-.3-.4-.6-.8-.5-.9.2-1.6.7-2.1 1.3-.4.4-.8.8-1.1 1.5-.1.2 0 .3 0 .4-.4 1.3-.5 2.9-.5 4.3 0 .3.3.7.7.7 1.3-.1 2.5-.5 3.8-.6 1.4-.1 2.8.1 4.1.5 2.4.7 4.9 1.6 7 3 2 1.3 3.5 3.3 4.1 5.6.4 1.6 0 4.1 1.8 4.9.4.2.8.1 1-.4.6-2.8.4-5.7-.7-8.3zM111.4 131.5c-2.3-1.7-5.5-1.1-7.8.3-2.8 1.7-4.5 4.7-7 6.8-2.9 2.4-6.8 3.7-10.3 4.9-3.5 1.2-7.1 2.1-10.8 2.7l-.1-.1c-.4-.7-1.5-.1-1.1.7 1.3 2.4 4.3 2.6 6.7 2.6 2.9 0 5.9-.4 8.7-1.1 5.7-1.4 11-4.3 15.4-8.1 2.5-2.2 4.7-4.8 6.5-7.7.2-.4 0-.8-.2-1z" />
	<path class="doomed_sundays_2"
		d="M162.4 134.6c2.6-2.6 5.8-4.5 8.4-7.1.5-.5 1-1 1-1.8.1-1.3-.5-2.7-1.6-3.5-1.1-.8-2.6-1.3-3.8-1.7-1.9-.7-4.1-1.6-6.2-1.5-1.9.1-1.9 3.1 0 3h.9c-.3 0 .2 0 .3.1.2 0 .5.1.7.2.8.2 1.7.5 2.5.8.4.1.8.3 1.2.4.2.1.4.1.6.2 0 0 .3.1.2.1l.2.1c.6.2 1.1.5 1.6.8.1 0 .1.1.2.1.1.1.1.1 0 0 .2.3.2.5.3.9 0 .3.1-.3.1-.4 0-.1.1-.2 0-.1-.1.3.2-.2.1-.1l-.5.5c-1.2 1.1-2.4 2-3.7 3-1.6 1.2-3.1 2.5-4.5 3.9-1.5 1.3.6 3.5 2 2.1zM145.8 161.5c-5.6 3.4-11.3 7.2-17.6 9.1-6.1 1.9-13.1 2.6-19.3 1.4-3.8-.7-7.4-2.2-10.8-4-1.7-.9-3.2 1.7-1.5 2.6 6.2 3.3 12.9 5.2 20 4.9 3.6-.2 7.3-.8 10.8-1.6 3.3-.8 6.5-2.2 9.6-3.8 3.6-1.8 7-3.9 10.5-6 1.5-1 0-3.6-1.7-2.6z" />
	<path class="doomed_sundays_2"
		d="M149.2 159.9c-.3.8.3 1.5.6 2.2 0 .1.1.2.1.3.1.2 0 .1-.1-.2 0-.2-.1-.2 0 0 0 .6.1 1.1.3 1.7.2.9.6 1.8.9 2.7.3.9.3 1.8.4 2.7v.3c0-.2.1-.4.3-.5-.2.1-.2.1 0 0-.1 0-.2.1-.3.1-.3.1-.7.1-1.1 0-.7-.1-1.6-.4-2.3-.8-1.7-.9-3.3-2-4.8-3.3-.6-.5-1.5-.6-2.1 0-.5.5-.6 1.6 0 2.1 1.4 1.2 2.8 2.3 4.4 3.2 1.6.9 3.3 1.7 5.2 1.8.9 0 1.8-.1 2.6-.5 1-.6 1.2-1.6 1.2-2.7 0-1-.1-1.9-.4-2.9-.2-.8-.5-1.6-.8-2.4-.1-.4-.3-.9-.4-1.4 0-.3 0-.8-.2-1.2-.1-.3-.2-.5-.4-.8-.1-.1-.1-.3-.2-.4-.1-.2 0 0 0 0 0 .1.1.1 0 .1-.1-.2-.1 0 0 .6.3-.8-.3-1.6-1-1.8-.9-.2-1.7.3-1.9 1.1zM97.9 168.1c-1.8-1.1-4.2-.5-6 .4-2.1 1-3.8 2.9-6.1 3.4-1.8.4-2.3-1.3-2.5-2.7-.3-1.5-.4-3.2-.4-4.9v-2.7-1-.4 0c.2-.8-.2-1.6-1-1.8-.7-.2-1.7.2-1.8 1-.3 1.4-.2 2.9-.2 4.4 0 1.9.2 3.8.5 5.7.3 1.9.9 3.8 2.6 4.9 2.5 1.6 5.4.1 7.6-1.3 1.1-.7 2.2-1.6 3.4-2 .5-.2 1-.3 1.4-.3h.8c.2 0 .3.1.4.1 1.5.8 3-1.8 1.3-2.8zM148.8 95c1.5-1.6 3.1-3.4 4.2-5.4.5-.9.6-1.9 0-2.8-.6-1-1.7-1.4-2.6-2.1-.9-.7-1.7-1.2-2.8-1.5-1.4-.4-2.9-.6-4.3-.6-2.6-.1-5.3.4-7.8 1.1-1.8.5-1.1 3.4.8 2.9 2-.6 4-1 6-1 1.1 0 2.2.1 3.3.3 1.2.2 1.7.3 2.6.9.6.4 1.3.8 1.9 1.3.1 0 .2.3.3.3l.1-.4c0-.2 0 0-.1.1s-.1.2-.2.4c-1 1.6-2.2 3.1-3.5 4.5-1.4 1.3.7 3.4 2.1 2zM132.7 110.9l-.1.1h-.1l.1.1c.1-.1.1-.1.1-.2 0 .1 0 .1 0 0 0 .1.1.1 0 0 0 0-.1 0 0 0 0 0-.1-.1 0 0-.1-.1-.1-.2-.1-.3v-.1-.1l-.1.1c.2 0 .3-.1.4-.3 0-.2 0-.3-.2-.4-.4-.2-1-.5-1.4-.4-.5.1-.7.7-.7 1.2s.4 1 1 1 .9-.5 1-1c0-.2-.1-.3-.3-.4-.2 0-.4.1-.4.3 0 .3-.1.6-.1.8v.1s0 .1 0 0c0 0 0 .1 0 0 0 0 .1 0 0 0 .1 0 .1.1.1.1-.1.2-.2.3-.4.5h.5s-.1 0-.1-.1v-.2s.1 0 0 0h-.1-.1-.1-.1c.1 0 0 0 0 0v-.1c0 .1.1-.1 0 0l.1-.1c.1-.1.3-.1.5-.2.1 0 0 0 0 0 .1 0 .1.1.2.1.2 0 .4 0 .5-.2.1-.1.1-.3.1-.4 0-.1 0-.1-.1-.2v.1c-.1.1-.1.1 0 .1h.5c.2 0 .3-.3.3-.5-.1-.5-.3-1-.8-1.2-.2-.1-.5-.1-.7-.1-.2.1-.4.3-.6.5-.1.1-.1.4 0 .5.1.1.4.1.5 0l.2-.2s.1 0 .1-.1h.1.1c-.1 0 0 0 0 0h.1c.1 0 .1 0 .1.1v.1s0 .1.1.1c0 .1.1.3.1.4.1-.2.2-.3.3-.5h-.3c-.2 0-.3.1-.4.1-.1.1-.2.2-.2.4v.3s0 .1.1.1c.1.2 0-.1.1-.2.1 0 .1-.1.2-.1s.1 0 .2.1c-.1 0-.2-.1-.3-.1h-.4c-.2 0-.4.1-.6.2-.4.2-.6.6-.6 1 .1.4.5.6.9.7.2 0 .4 0 .6-.1.2-.1.4-.3.5-.6 0-.6-.7-.7-1.2-.7-.2 0-.4.2-.4.5.1.5.8.6 1.1.2.1-.2.2-.4.2-.6 0-.2.1-.5.1-.7-.2 0-.5-.1-.7-.1v.2l-.1.1c0 .1 0 0 0 0h-.1c.1 0 0 0 0 0 .1 0 0 0 0 0s-.1 0 0 0c0 0-.1 0 0 0 0 0 0-.1 0 0v-.1-.2c0-.1.1-.2.1-.3 0 .1 0 0 0 0h.2c-.1 0 0 0 0 0h.2c.1 0 .2 0 .2.1.1.1.3.1.4.2.1-.2.1-.5.2-.7-.5.1-.6.5-.6 1 .1.5.3 1 .8 1 .2 0 .5-.1.6-.3.1-.2.1-.5 0-.7-.1-.2-.3-.4-.6-.4-.3-.1-.5 0-.7.3-.1.2 0 .4.1.5-.4.1-.2 0-.1-.1z" />
	<path class="doomed_sundays_2"
		d="M132.7 109.7c-.5-.2-1.1-.5-1.6-.3-.3.1-.5.3-.6.5-.1.2-.1.5 0 .8.1.3.4.5.7.5.2 0 .4-.2.4-.4s-.2-.4-.4-.4c-.1 0 .1 0 0 0s.1 0 0 0c0 0 0 .1 0 0v-.1s0 .1 0 0v-.1c0-.1 0 .1 0 0v-.1-.1c0-.1-.1.1 0 0l.1-.1c.1 0-.1 0 0 0h.1c.1 0 0 0 0 0h.4s.1 0 0 0c.1 0 .3.1.4.1.1 0-.1 0 0 0h.1c.1 0 .1.1.2.1.2.1.4.1.5-.1-.1 0-.1-.2-.3-.3zM129 115c-3.8-.7-7.6-.9-11.4-.7-1 .1-1 1.6 0 1.5 3.7-.2 7.4 0 11 .7.9.2 1.3-1.3.4-1.5zM128 119c-2.8.5-5.6.9-8.4 1.4-.4.1-.6.6-.5.9.1.4.5.6.9.5 2.8-.5 5.6-.9 8.4-1.4.4-.1.6-.6.5-.9-.1-.4-.5-.6-.9-.5z" />
	<path class="doomed_sundays_4"
		d="M157.7 130.8c-1.1-2.5-1.9-5.1-2.2-7.8-.1-.6 0-1.3.4-1.8.5-.6 1.3-.7 2-.4 1 .3 2 .5 3.1.6 2.2.2 4.6.2 6.5 1.5 1.1.7 2 1.8 1.6 3.2-.4 1.2-1.5 2-2.4 2.7-2.2 1.7-4.7 3-7.4 3.7-.5.1-.9 0-1.2-.3l-.6.3c-.3.2-.7-.3-.3-.5l.6-.3c-.1-.2-.1-.4 0-.5 0-.1-.1-.2-.1-.4z" />
	<path class="doomed_sundays_2"
		d="M148 163.6c3.5-1.8 6.1-4.9 8.1-8.2 2.1-3.6 3.9-7.5 5-11.5 1.2-4.1 1.9-8.5 1.9-12.8v-2.8c0-.5-.1-1-.1-1.5 0-.2-.1-1.2-.1-.7-.1-.8-.2-1.7-.4-2.5-1.2-4.6-2.8-9-4.4-13.5-.9-2.4-1.6-4.9-2.7-7.3-1.5-3.1-3.4-6-5.7-8.7-3.3-3.9-7.4-7.1-12-9.4-1.7-.9-3.2 1.7-1.5 2.6 3.5 1.8 6.8 4.1 9.6 7 2.2 2.2 4 4.6 5.6 7.3 1.6 2.7 2.6 5.6 3.6 8.6 1.3 3.9 2.8 7.8 4 11.8.3 1 .6 2 .8 3 0 .2.2 1 .1.7 0 .4.1.8.1 1.2.3 4 0 8.1-.7 12-.9 4.5-2.4 8.7-4.5 12.7-2 3.8-4.3 7.4-8.2 9.4-1.8.9-.2 3.5 1.5 2.6zM105.1 132.3c.8-.2 1.7-.4 2.5-.5.4-.1.9-.1 1.3-.2.2 0 .5-.1.7-.1h.3s.5-.1.2 0c1.8-.2 3.6-.4 5.3-.8.5-.1 1.1-.2 1.6-.5.9-.6 1.4-1.9 1.4-3 0-1.3-1.1-2.6-1.8-3.7-.6-.9-1.2-1.7-1.8-2.6-1-1.3-2.3-2.3-3.7-3.1-.7-.4-1.6-.2-2.1.5-.4.7-.2 1.7.5 2.1l1.5.9c-.3-.2 0 0 .1.1l.3.3c.2.2.5.4.7.7.1.1.2.2.3.4l.2.2c.1.2-.1-.2 0 0 .3.4.5.7.8 1.1.6.9 1.2 1.8 1.7 2.7 0 0 .3.5.2.3 0 .2 0 .3-.1.5l-.1.2c-.2.4 0 0 .1-.1.2-.2.3-.2.2-.2-.2.1 0-.1.2-.1-.1 0-.5.1-.5.2-.3.1-.5.1-.8.2l-2.1.3h-.3c-.2 0-.4.1-.6.1-.5.1-.9.1-1.4.2-1.9.3-3.8.5-5.7 1-1.7.5-.9 3.4.9 2.9z" />
	<path class="doomed_sundays_2"
		d="M137 84.5c-3.6-3.1-8.6-3.8-13.1-4.5-2.6-.4-5.3-1-8-1.2-3-.2-6-.1-9.1.2-5.8.6-11.6 1.3-17 3.6-5.1 2.2-9.6 5.6-13.6 9.3-1.6 1.5-2.6 2.9-3.5 4.8-.8 1.6-1.5 3.2-2.3 4.8-1.1 2.3-1.6 5-2.1 7.4-.9 3.6-1.7 7.3-2.3 11-.6 3.3-1.1 6.6-.9 9.9.3 6.6 1.9 13 4.4 19 2.6 6.1 5.7 11.8 11.2 15.7 1.6 1.1 3.1-1.5 1.5-2.6-4.6-3.2-7.2-8-9.4-13-2.3-5-3.9-10.5-4.5-16-.4-3.5-.4-6.8.2-10.2.6-3.5 1.3-7 2.1-10.4.6-2.8 1.3-5.6 2.1-8.4.1-.3.2-.7.3-1-.2.5.1-.1.1-.2.2-.4.4-.7.5-1.1.8-1.7 1.5-3.5 2.5-5.2 1.1-1.8 2.9-3.2 4.5-4.5 2-1.7 4.1-3.2 6.4-4.6 2.2-1.3 4.6-2.4 7-3.2 2.6-.8 5.3-1.2 8-1.6 3.2-.5 6.4-.8 9.6-.9 3.2-.1 6.2.4 9.3.9 2.5.4 5 .7 7.4 1.3 2.2.5 4.6 1.2 6.4 2.8 1.6 1.3 3.8-.8 2.3-2.1zM148.3 119.8l-.6 2.4c-.2.6-.3 1.3-.7 1.8 0 0-.1.2-.2.2s-.4-.4-.4-.5c-.4-.7-.7-1.4-1.1-2.1-.2-.5-1.1-.5-1.3 0-.4.7-.7 1.5-1.1 2.2-.1.3-.3.6-.5.9l-.3.3c-.1 0 0 .1-.1 0-.5-.3-.7-1.2-.9-1.7-.3-.8-.5-1.5-.8-2.3-.3-.9-1.8-.5-1.4.4.3 1 .6 2 1 3 .3.8.8 1.8 1.8 2.1.9.3 1.7-.4 2.1-1.2.6-.9 1-1.9 1.4-2.9h-1.3c.6 1.2 1.8 4.4 3.6 3.1.7-.5 1-1.4 1.2-2.1.3-1 .6-2.1.8-3.1.5-1-1-1.4-1.2-.5zM152 110.6c-.1-.2-.4-.4-.7-.3-.2.1-.4.3-.6.5-.1.2-.2.5 0 .7.1.2.4.3.6.3.6 0 .8-.6.9-1.1.1-.5-.1-1-.6-1 .1.2.1.5.2.7.1-.1.3-.2.5-.2.1-.1.3-.1.4-.1h.2c0 .1 0 .1.1.1v.4s-.1 0 0 0h-.1-.1s-.1 0-.1-.1c-.1-.1-.1-.2-.1-.3-.2 0-.5.1-.7.1 0 .3.1.5.1.8 0 .2.1.4.3.6.3.3 1 .3 1.1-.2.1-.3-.1-.4-.4-.5-.4 0-1.1 0-1.2.5-.1.2 0 .5.2.6.2.2.4.2.7.2.4 0 .9-.1 1.1-.5.2-.4 0-.9-.4-1.2l-.6-.3c-.1 0-.3-.1-.4-.1-.2 0-.3.1-.4.1.1 0 .1 0 .2-.1.1 0 .1.1.2.1 0 .1 0 .2.1.3 0 0 0-.1.1-.1v-.3c0-.2-.1-.3-.2-.4-.1-.1-.3-.1-.4-.2-.1 0-.3.1-.4 0 .1.2.2.3.3.5 0-.1.1-.3.1-.4.1-.1.1-.2.2-.3.1-.1.2-.1.3 0l.3.3c.1.1.4.1.5 0 .1-.1.1-.4 0-.5-.2-.2-.4-.4-.6-.5-.3-.1-.5-.1-.8 0-.5.2-.7.8-.8 1.3 0 .2.1.4.3.5h.7v-.1-.1s-.1.1-.1.2v.4c.1.2.3.3.5.2 0 0 .1-.1.2-.1.2.1.4.1.6.2l.1.1c0-.1.1.1 0 0v.1s-.1 0 0 0c0 0-.1.1 0 0h-.2-.4c-.1 0 0 0 0 0 0 .1.1 0 0 .2 0 0 0 .1-.1.1H153.3c-.1-.2-.2-.3-.4-.5 0-.1.1-.1.1-.1v-.1c-.1-.3-.1-.6-.1-.9 0-.2-.2-.3-.4-.3s-.3.2-.3.4c0 .6.4 1.1 1 1.1s1-.4 1-1c0-.5-.2-1.1-.8-1.3-.5-.1-1.1.1-1.5.4-.1.1-.2.3-.2.4 0 .2.2.3.4.3-.1 0-.1 0-.1-.1V110.3c0 .1 0 .2-.1.3 0 .1 0 .1-.1.1 0 0-.1 0 0 0 0 0-.1 0 0 0 0 0 0 .1 0 0v.1s.1-.1.1-.2c0 0-.1 0-.1-.1-.2.9.5.5.2.1z" />
	<path class="doomed_sundays_2"
		d="M151.8 110.3c.1 0 .1-.1.2-.1h.1c.1 0-.1 0 0 0 .1-.1.3-.1.4-.1-.1 0 0 0 0 0h.6c.1 0-.1-.1 0 0l.1.1v.1c0-.1 0-.1 0 0v.1c0 .1 0-.1 0 0v.2c-.1.1 0 0 0 0s.1 0 0 0 .1 0 0 0 .1 0 0 0c-.2 0-.4.2-.4.4s.2.4.4.4c.3 0 .5-.2.7-.4.1-.2.2-.5.1-.8-.2-.6-.8-.8-1.4-.8-.4 0-.7.2-1 .4-.2.1-.2.4-.1.5-.1.1.1.1.3 0zM156.5 115.7c3.9-.7 7.9-1 11.9-.7 1 .1 1-1.4 0-1.5-4.1-.3-8.3 0-12.3.8-1 .1-.5 1.6.4 1.4zM157.6 119c3 .5 6 1 9.1 1.5.4.1.8-.1.9-.5.1-.4-.1-.9-.5-.9-3-.5-6-1-9.1-1.5-.4-.1-.8.1-.9.5-.1.3.1.8.5.9z" />
	<path class="doomed_sundays_5"
		d="M105.4 81.3c.2-2.4-.8-4.7-2.2-6.7-3.4-4.6-8.3-7.8-12.8-11.1-2.2-1.6-3.9-3.5-4.8-6.1-1-2.9-1.7-5.9-2.5-8.9-1.5-5.9-2.7-11.9-3.7-18-.2-1.5-.5-3-.7-4.5-.2-1.3-.1-3-.9-4.2-1.4-2.3-4-1.3-5.5.3-.9 1-1.4 2.3-2.1 3.4-.8 1.5-1.6 3-2.3 4.4-1.5 2.9-3 5.8-4.6 8.7L59 47.1c-1.3 2.5-2.4 5.4-5.2 6.6-2.8 1.1-5.8 1.7-8.7 2.5-3.1.8-6.2 1.7-9.3 2.5-2.4.7-4.8 1.4-6.6 3.2-1.5 1.6-2.1 3.7-1.5 5.8.1.2.2.4.2.7-.1.3 0 .6.2 1 5.9 9.4 1.8 21.2.8 31.4-.3 2.8-.4 5.6-.1 8.4.3 2.9 1.1 5.6 2.1 8.3.9 2.5 1.9 5.1 2.1 7.8.1 2.6-.3 5.1-.3 7.7 0 2.6.6 5.2 2.1 7.3 1.4 1.9 3.4 3.4 5.5 4.5 4.9 2.5 10.5 3.6 16 3.9 2.8.1 5.6 0 8.3-.5 2.6-.4 5.4-1 7.8-2.1 2.4-1.1 4-2.9 4.4-5.6.2-1.3.3-2.6.8-3.8.5-1.1 1.1-2.1 1.9-3 1.6-2 3.6-3.7 5.3-5.7 1.8-2.1 3.1-4.5 4-7.1 2-5.5 3-11.4 4.9-16.9 1.9-5.4 4.4-10.7 7.8-15.3 1.6-2.4 3.6-4.5 3.9-7.4z" />
	<path class="doomed_sundays_6"
		d="M104.4 79.3c.5-4.4-3.4-7.8-6.3-10.5-1.8-1.7-3.7-3.3-5.9-4.6-2.3-1.4-4.9-2.3-7.4-3.1-5.3-1.7-10.9-2.7-16.4-3.3-5.9-.7-12-1.2-17.9-1.3-5.2-.2-10.4.3-15.1 2.7-.3.2-.5.4-.6.7-2.7 1.7-5.5 4-5 7.5.2 1.7 1.4 3.1 2.4 4.5.5.7 1 1.3 1.5 2-.1.3 0 .7.2 1 2.9 4.6 7.9 6 12.7 7.8 5.2 1.9 10.4 4 15.9 5 2.8.6 5.6.9 8.4 1.3 2.8.3 5.5.7 8.3.8 5.2.1 10.3-.9 15.3-2.3 4-1.3 9.4-3.2 9.9-8.2z" />
	<path class="doomed_sundays_1"
		d="M39.3 90.2c-.3-1.3-1.6-2.1-2.6-2.8-1.1-.7-2.2-1.5-3.3-2.2-.2-.4-.5-.7-.9-.8-.7-.1-1.4.3-1.5 1-.2.9-.4 1.8-.5 2.7-.1.6 0 1.2.4 1.7s.9.8 1.5.9c.4.1.8.1 1.2.2.5.1.9.1 1.4.2 1 .2 1.9.4 2.8.7.4.1 1-.1 1.2-.4.4-.3.4-.8.3-1.2zM77.8 96.5c-2.3-1.1-4.5-2-6.5-3.6-.5-.4-1.1-.8-1.7-1-.1-.2-.3-.4-.6-.5-.6-.4-1.4-.4-2-.1-.9-.6-1.8-1.1-2.9-1.4-.3-.1-.8 0-1.1.3-2.5-1-5.1-2-7.7-2.8-.3-.1-.6 0-.9.1-.3-.2-.7-.2-1 0L51 86c-1.1-.7-2.5.9-1.7 1.9 1.4 1.7 2.8 3.5 4.2 5.2.7.9 1.6 1.5 2.6 1.8-1 .1-1.9.1-2.5-.7-.7-.9-1.3-1.9-2.4-2.4-.1-.1-.3-.1-.4-.1-.6-.9-1.1-1.9-1.6-2.9-.2-.4-.6-.6-1-.6 0-.2-.1-.3-.1-.5-.1-.7-.6-1.1-1.1-1.1-.4-.7-.9-1.3-1.4-2-1-1.3-3.1 0-2.2 1.5.7 1.2 1.5 2.4 2.2 3.6.2.6.3 1.2.4 1.8.3 2.1.8 4.2 2.8 5.3.2.1.4.1.7.1 2.3 1.7 5.5 1.9 8 .4.9-.5.6-1.9-.2-2.3h.3c.9-.1 1.7-.6 2.2-1.3.4.3.8.5 1.2.8.3.2.6.3.9.4l.6.9c.4.7 1.2.7 1.8.3.4.3.8.6 1.3.7v.1c0 .4-.4.7-.6.9-.7.7-1.4 1.3-1.6 2.3-.3 1.1.1 2.2.8 3 1.3 1.6 3.5 2.5 5.4 2.8 2 .3 4.2.2 6.1-.6 1.9-.7 4-2.1 4.8-4 .7-2.3-.9-4-2.7-4.8zM95.3 96.5c-2.2-2.7-5-4.8-8.2-6.1-.5-.2-1-.1-1.3.1-3.3-2.4-7.1-3.5-11-4.7-1.9-.6-3.8-1.2-5.6-2-1.8-.8-3.5-2.4-5.5-2.8h-.6c-.5-.7-.8-1.4-1.2-2.1-.2-.4-.5-.6-.9-.6 0-3.5-.4-6.9-1.3-10.3-.1-.4-.4-.6-.7-.8 0-1.2-.4-2.4-1.1-3.5 1.4-2.2 2.7-4.4 4.1-6.5.1-.1.1-.2.1-.3.7-.7 1.4-1.5 2.1-2.3.9-1 1.7-2 2.2-3.2.1-.1.1-.3.1-.4 1.3-2.4 2.2-5 2.6-7.7V43c.1-.1.2-.3.2-.5.2-.8.3-1.6.3-2.4.2-.2.3-.5.3-.8v-5.6c0-1.7.3-3.8-1.3-4.8-.6-.4-1.5 0-1.8.6-.3.6-.1 1.2.4 1.6 0 .2 0 .1 0 0v7.8c-.2.3-.3.6-.3.9v.9c0 .4-.1.9-.2 1.3v.2c-.1.1-.2.3-.2.5-.5 3-1.6 5.8-3.2 8.3-.6.8-1.2 1.6-1.8 2.3-.5.5-1 .9-1.5 1.4-.6.5-1.1 1.1-1.6 1.6-.4-.1-.9-.1-1.3.4-1.1 1.2-2.3 1.8-3.8 2.4-1.2.5-2 1.2-2.1 2.3H51c-.7 0-1.3 0-1.9.3-1.2.7-1.1 2.1-.4 3.1-.7-.3-1.7-.1-1.9.9-.4 1.6-1.4 3-2.9 3.9-1.3.7-2.8 1-3.7 2.1-.8 1-.9 2.4-.3 3.5-.2-.2-.3-.4-.5-.6-.3-.3-1-.9-1.5-1.5.2-.2.3-.5.3-.8v-.4c.2-.1.4-.3.5-.5.2-.5.4-.9.4-1.4.4-1.2 1-2.2 1.9-3.1 1.1-1.2 2.5-1.9 3.9-2.8 2.8-1.8 4.7-4.2 5.7-7.4.5-1.6-2.1-2.1-2.6-.5s-1.4 3-2.5 4.1c-1.1 1.1-2.6 1.9-3.9 2.8-1.8 1.2-3.2 2.7-4.2 4.5-.3.1-.5.3-.7.6-.2.3-.4.6-.5 1l-.6.3c-1.7 1.6-.9 4 .4 5.5 1.6 1.7 3 3.3 4.1 5.4.8 1.5 3 0 2.2-1.5-.4-.8-.9-1.5-1.4-2.3.6.6 1.2 1.1 1.5 1.8l.5.5c0 .1.1.2.2.3.5.9 1.5 1.4 2.3 2 1 .7 2.1 1.3 3.2 1.9.2.1.3.1.5.2.1 0 .1.1.2.1 1.8.8 3.6 1.5 5.4 2.3.4.2.7.2 1 0 1.8.7 3.6 1.5 5.4 2.4 1.3.6 2.7-1.2 1.5-2.2-.5-.4-1.1-.8-1.6-1.2h.4c.5-.1.8-.2 1.1-.5 1 .8 2.1 1.3 3.5 1.3.3 0 .5-.1.6-.2.4.2.9.4 1.3.6 1.7.7 3.4 1.3 5.2 1.9 2.6.8 5.3 1.6 7.8 2.7-.1.4 0 .9.4 1.2 2.3 1.9 4.8 3.4 7.6 4.5.4.1.8.1 1.2-.1l3 1.8c1.6 1.1 3-.4 2.2-1.4zm-44-17.8c-.3-.4-.5-.9-.8-1.3-.3-.6-.9-.7-1.4-.5.3-.6.5-1.3.7-1.9.4-1.3.6-2.7.6-4.1 0-.5-.4-1-.9-1.1.2-.5.3-1 .3-1.5.1-.6.1-1.3 0-1.9 0-.1 0-.2-.1-.3.7.7 1.5 1.3 2.3 1.9.3.6.7 1.1 1.2 1.5 0 0 .1 0 .1.1.6.7 1.2 1.3 1.9 1.8.4.3.8.3 1.2.2.5.5 1.1 1.1 1.5 1.7.1.5.1.9.2 1.4-.3.9-1.5 1.2-2.1 1.9-.8.9-1.1 2.2-.4 3.3.2.3.4.5.6.6v.5c-1-.8-2-1.5-3.1-2.3-.7-.5-1.4-.3-1.8 0z" />
	<path class="doomed_sundays_1"
		d="M95.8 85.1c-.2-.1-.5-.2-.7-.2-.5-.5-1.1-.9-1.7-1.2h.1c.8-.4 1.4-1 2-1.6.1 0 .1-.1.1-.1.8-.4 1.4-1.1 1.7-2 .2-.6.2-1.1.1-1.7.2-.8.2-1.7.1-2.5 0-.3-.2-.6-.4-.8.1-2.1-.7-4.1-2-5.7-1.9-2.3-4.6-3.5-7.3-4.4-.2-.1-.4 0-.6 0-2-1.3-3.9-2.7-5.7-4.2-.4-.3-.8-.4-1.2-.3v-.9c0-.5-.2-.8-.5-1v-.3c.1-1.6-2.3-2.2-2.6-.5-.4 2.4.1 4.7 1.2 6.6.5 1.3 1.2 2.6 2 3.7.6.8 1.8.7 2.2 0 .7.3 1.4.5 2.1.7.2.3.4.6.8.7.9.3 1.9.3 2.8.2.7.1 1.4.3 2.1.5.5.2 1 .5 1.6.6.1 0 .2.1.3.1.2.1.4.1.6 0 .7.8 1.2 1.7 1.4 2.7-.6.2-1 .8-.9 1.6 0 .2.2.5.3.8l.3.6c.2.5.5 1 .6 1.5-.2.7-.5 1.3-1 1.9-.4.2-.8.3-1.1.5-.6.4-1 1-1.2 1.7-.1.3-.1.6 0 .8-1.1-.2-2.3-.3-3.4-.5-.5-.1-.9-.3-1.4-.4l-3-.9c.1-.6-.2-1.3-1-1.5-.1 0-.2-.2-.2-.4v-.1c1.6-.9 1-2.7 0-3.9-.3-.4-.6-.7-.9-1.1l-.2-.2s-.1 0-.1-.1c-1.1-1.2-2.2-2.5-3.4-3.6-.1-.1-.2-.2-.4-.2-.1-.3-.3-.6-.6-.8-3-1.2-5.1-4.3-4.9-7.6 2.6-4.5 3-9.8 3.2-14.9 0-.3-.1-.6-.2-.8.2-3.8.2-7.6-.2-11.4-.2-2.1-.5-4.1-.1-6.1.1-.8.4-1.6.6-2.3.1-.1.3-.3.3-.5.4-1.2.9-2.3 1.3-3.5.6-1.6-1.6-2.8-2.4-1.2-.9 2-1.8 4-2.3 6.2-.5 2.1-.5 4.3-.2 6.4.5 4.4.7 8.8.3 13.3 0 .2 0 .4.1.6L70.7 54c-.1.3-.1.5 0 .7-.7 1.4-1.6 2.6-2.7 3.8-1.4 1.4-3 2.7-3.4 4.8v.1c-.2.1-.5.3-.6.6-1.7 2.3 1.4 5.3 3.2 6.4 1.3.8 2.8 1.2 4.3 1.5 1.1.7 2.3 1.3 3.6 1.7h.1c.1 0 .2.1.3.1.2.1.3.1.5.1.7.6 1.5 1.2 2.1 1.8 0 .8.2 1.6.5 2.4-.6.4-1 1.2-.9 2-2.5 0-3.6 4.2-1.2 5.3.8.4 1.7.4 2.6.3.1 0 .3.1.4.1 1.3.4 2.7.7 4 .9 1.2.2 2.6.2 3.8.5 1.1.3 1.7 1.3 2.7 1.8 2 1 4.7 0 6.4-1.3.8-.8.4-2.1-.6-2.5z" />
	<path class="doomed_sundays_6"
		d="M98.8 87.2c-3.4 2.2-7.5 2.7-11.5 3-4.7.4-9.4.6-14.1.3-9.7-.8-19-3.6-28-7-4.2-1.6-9.4-3.1-12.2-6.8-.2-.2-.3-.3-.5-.4-.9-.6-2.5.2-2 1.5 3.7 9.6-1.5 19.9-.9 29.7.1 2.5.7 5 1.7 7.4 1.1 2.5 2.7 4.9 3 7.7.7 4.9-1.4 10.1.6 14.8 1 2.5 3 4.5 5.2 6.1 2.2 1.6 4.5 3 7.1 4 5.1 2 10.7 2.8 16.2 2.1 5.2-.7 10.9-2.5 13.2-7.7 1.2-2.7 1.6-5.6 2.8-8.3 1.2-2.8 3.1-4.9 5.2-7 2.3-2.4 3.7-5.1 4.7-8.3 1-3.4 1.7-6.8 2.8-10.2 2.1-6.7 5.1-13.1 8.8-19.1.6-1.3-1-2.5-2.1-1.8z" />
	<path class="doomed_sundays_2"
		d="M26 66.1c.8 3.2 1.4 6.4 2 9.6.6 3.2 1.2 6.5 1.2 9.9 0 3.2-.8 6.2-1.4 9.3-.6 3.1-.7 6.2-.5 9.4.2 3.2.6 6.4 1.2 9.5.2 1.4.6 2.7 1.1 4 .5 1.4 1.3 2.6 2 3.9 1.3 2.7-.2 5.8-.4 8.6-.2 2.5.4 5.1 1.5 7.3 2.3 4.9 6.8 8.1 11.8 10 5.3 2 11.4 3 17 3 5.4 0 11-1.4 14.8-5.6 1.6-1.8 2.8-3.9 3.2-6.3.2-1.3.1-2.6.5-3.8.4-1.4 1.7-2.3 2.8-3.2 9.4-7.7 8.5-20.5 13-30.8 2.4-5.5 6.3-9.9 9.3-15 1.4-2.4 2.3-5.1 1.7-7.9-.5-2.5-2.1-4.7-3.8-6.6-1.9-2.1-4-3.9-6.2-5.7-2.3-1.9-4.7-3.3-7.2-4.8-2.4-1.5-3.5-3.7-4.3-6.3-.8-2.9-1.4-5.9-2.1-8.8-1.4-6.3-3.4-12.7-3.6-19.1-.1-2.4.8-5.8-1.6-7.4-2.1-1.4-4.8-.1-6.3 1.5-3.7 3.6-5.5 8.8-7.4 13.4-1 2.4-2.1 4.7-3.4 6.9-1.4 2.2-3.5 4-4.1 6.6-.3 1.2-.3 2.6-1 3.7-.8.8-1.8 1.3-2.8 1.7-2.3.7-4.8.8-7.2 1.2-4.9.9-9.8 2.3-14 5-2.1 1.3-3.9 3-5.4 4.9-1.2 1.5.9 3.6 2.1 2.1 2.9-3.7 7-6.1 11.5-7.5 2.3-.8 4.8-1.3 7.2-1.7 2.3-.4 4.6-.5 6.8-1.2s4-2.1 4.8-4.3c.4-1.2.5-2.4.8-3.6.4-1.3 1.3-2.1 2.1-3.1 3.1-3.9 4.8-8.7 6.8-13.2 1-2.2 2-4.4 3.4-6.4.5-.8 3.6-5 4.7-3.2.5.9 0 2.7 0 3.6 0 1.6.1 3.2.3 4.8.4 3 1.1 6 1.7 8.9.7 3 1.4 6 2.1 9.1.6 2.7 1.1 5.4 2 8.1.8 2.3 2 4.5 4 6.1 2.1 1.7 4.7 2.7 6.9 4.4 2.2 1.7 4.2 3.5 6.2 5.4 1.7 1.7 3.5 3.7 4 6.1.7 2.7-.8 5.2-2.3 7.4-1.6 2.3-3.2 4.6-4.7 6.9-3.2 4.9-5.2 10-6.5 15.7-1.3 5.3-2.2 10.8-5 15.6-1.2 2.2-2.8 4-4.8 5.6-2.1 1.7-3.4 3.4-3.7 6.2-.3 2.5-.6 4.6-2.2 6.6-1.5 1.8-3.5 3.2-5.7 4-5.3 1.9-11.4 1.1-16.8.1-5.1-1-10.3-2.7-14-6.5-1.7-1.7-2.9-3.9-3.5-6.2-.7-2.7.1-5.1.5-7.7.2-1.3.3-2.6 0-3.8-.3-1.4-1-2.5-1.7-3.7-1.4-2.5-1.8-5.3-2.2-8-.4-3-.8-6.1-.8-9.1s.5-5.9 1.1-8.9c.6-3 1-5.9.8-8.9-.2-3.1-.8-6.1-1.3-9.2-.6-3.1-1.2-6.1-1.9-9.1-.6-2.2-3.5-1.4-3.1.5z" />
	<path class="doomed_sundays_2"
		d="M31.5 84.5c2 .7 3.6 2.6 5.2 3.8 1.7 1.3 3.5 2.4 5.3 3.4 3.5 2 7.3 3.5 11.2 4.7C61.9 99 71 99.7 80 99.2c5.4-.3 10.8-1 16.1-2 .9-.2.5-1.6-.4-1.4-17.5 3.1-36.4 3.7-52.5-5.1-2-1.1-3.9-2.3-5.7-3.6-1.8-1.4-3.4-3.2-5.6-4-.9-.4-1.3 1.1-.4 1.4zM33.2 121.9c2 3 4.5 6.1 7.6 7.9 3.5 2.1 7.6 2.7 11.7 2.8 2.4.1 4.3 1.2 6.5 2 2.1.7 4.2 1 6.4 1.1 2.2.1 4.3-.2 6.4-.7 2.3-.6 4.7-1.9 7.2-1.1.9.3 1.3-1.2.4-1.4-2-.6-3.9-.1-5.9.5-2.2.7-4.3 1.2-6.6 1.3-2.2.1-4.5-.2-6.6-.8-2-.6-3.8-1.7-5.8-2.1-2-.4-4.1-.1-6.1-.5-2-.3-4-.9-5.8-1.8-3.4-1.7-6-4.9-8.1-7.9-.6-.9-1.9-.1-1.3.7z" />
	<path class="doomed_sundays_2"
		d="M61.8 97.7c-3.1 10.9-5.5 22.1-7.1 33.3-.1.9 1.3 1.4 1.4.4 1.6-11.3 4-22.4 7.1-33.3.3-1-1.2-1.4-1.4-.4zM75.3 133.9c2.1-1.2 3-3.3 3.7-5.5 1-3.2 1.7-6.4 2.3-9.7 1.2-6.5 1.9-13.2 1.9-19.8 0-1-1.5-1-1.5 0-.1 6.2-.6 12.4-1.7 18.5-.5 3-1.2 5.9-2 8.8-.6 2.3-1.2 5.1-3.5 6.4-.8.5-.1 1.8.8 1.3zM37.6 125.2c1.2-6.1 1.8-12.3 2.2-18.5.2-3.1.4-6.1.6-9.2.2-2.6.4-5.2.4-7.8 0-1-1.5-1-1.5 0 0 2.5-.2 5.1-.4 7.6-.2 3-.3 6-.6 9-.4 6.2-1 12.5-2.2 18.6-.1.9 1.3 1.3 1.5.3zM26.5 68.4c1.5 2.9 2.9 6 4.8 8.7 1.7 2.4 4.2 3.8 6.8 5 5.6 2.7 11.4 4.9 17.4 6.6 11.9 3.3 24.6 4.4 36.8 1.7 5.5-1.2 14.7-3.4 14.4-10.6-.1-1.9-3.1-1.9-3 0 .1 2.9-2.4 4.6-4.8 5.6-2.5 1-5.2 1.7-7.8 2.3-5.5 1.2-11.2 1.5-16.8 1.2-11.3-.6-22.4-3.7-32.7-8.4-2.7-1.2-5.9-2.4-7.7-4.9-.9-1.2-1.6-2.7-2.4-4.1-.8-1.5-1.6-3.1-2.5-4.6-.9-1.7-3.5-.2-2.5 1.5z" />
	<g>
		<path class="doomed_sundays_2"
			d="M67.2 33.3c.6 12.7-7.3 24.4-19.3 28.5.3.4.6.7.8 1.1 1-2.3 2.3-4.5 3.8-6.6.6-.8-.7-1.5-1.3-.8-1.5 2.1-2.8 4.3-3.8 6.6-.2.5.2 1.3.8 1.1C61 58.9 69.4 46.7 68.7 33.3c0-1-1.5-1-1.5 0z" />
		<path class="doomed_sundays_2"
			d="M47.9 56.4c-.9 4.7-6.3 6.2-9.6 8.8-1.6 1.3-3.5 3.3-4.3 5.3-.8 2 .6 3.6 1.8 5.1 2.9 3.8 5.7 7.8 7.5 12.2.9 2.1 1.3 4.3 2.2 6.3.8 1.8 2.1 3.1 3.9 3.9 1.8.8 4.4 1.6 6.3.9 1.9-.7 2.9-2.8 4.7-3.4.8-.3.6-1.4-.2-1.5-1.9-.2-3.9.7-5.5-.6-1.3-1.1-2.5-2.5-3.6-3.8-2.6-3-5-6.2-7.4-9.4-2.2-3-5.4-6.1-3.7-10 1.4-3.5 5-5.2 8.2-6.8-.4-.3-.7-.6-1.1-.8-.3 2.4-.7 5.1-2.7 6.7-1.7 1.4-3.9 1.9-5.4 3.6-.6.7.5 1.8 1.1 1.1 1.6-1.9 4.2-2.4 6-4.2 1.7-1.8 2.2-4.4 2.5-6.8.1-.7-.5-1.2-1.1-.8-3.5 1.7-7.2 3.7-8.8 7.4-.7 1.6-.9 3.5-.4 5.2.7 2.1 2.2 3.8 3.5 5.5 2.7 3.6 5.4 7.3 8.4 10.7 1.3 1.5 2.7 3.3 4.4 4.3 1.8 1.1 3.8.2 5.7.4-.1-.5-.1-1-.2-1.5-1.5.5-2.4 1.6-3.6 2.6-1.7 1.5-3.7 1-5.7.3-2.1-.7-3.5-2.1-4.3-4.1-.7-1.9-1.1-3.8-1.9-5.7-1.7-3.9-4-7.5-6.5-10.9-.6-.8-1.2-1.6-1.8-2.5-.4-.5-.8-1-1-1.6-.2-.8.2-1.5.6-2.1 1.3-1.9 2.8-3.5 4.8-4.8 3.4-2.2 7.8-4.1 8.7-8.6.1-.9-1.4-1.3-1.5-.4z" />
		<path class="doomed_sundays_2"
			d="M50.2 76.1c-.2-1 .8-2 1.1-2.9.4-1.1.3-2.2 0-3.3-.5-2.2-2-4.1-2.4-6.4-.1-1-1.6-.5-1.4.4.3 2.3 1.8 4.2 2.4 6.4.3 1.2.2 2.2-.4 3.2-.5.9-1 1.9-.7 2.9.2 1 1.7.6 1.4-.3z" />
		<path class="doomed_sundays_2"
			d="M48.8 75.3c0 1.8 1.1 3.1 2.4 4.2 1.7 1.4 3.7 2.5 5.5 3.8 2.1 1.4 4.2 2.8 6.2 4.2 2.1 1.4 4.1 2.6 5.7 4.6 1.3 1.6 3 2.7 4.8 3.6 1.7.9 3.8 1.3 5.4 2.4 2.5 1.7.7 4.2-1.3 5.4-1.8 1-4 1.5-6.1 1.4-2.4-.1-5-.8-6.8-2.4-1-.9-1.9-2.3-1.1-3.6.6-.9 1.9-1.3 2.9-1.6.6-.2.8-1.3 0-1.4-2.4-.4-4.6-1.3-6.6-2.7-.8-.6-1.5.7-.8 1.3 2.1 1.5 4.4 2.4 6.9 2.9V96c-1.8.6-3.8 1.4-4.2 3.4-.5 2.1 1.2 4.1 2.9 5.1 3.9 2.6 9.2 2.7 13.3.6 1.8-.9 3.7-2.7 3.7-4.9 0-2.1-1.8-3.3-3.5-4.1-2.5-1-5.1-1.9-7.2-3.7-.9-.8-1.6-1.9-2.5-2.8-.9-.9-2.1-1.6-3.1-2.3l-8.4-5.7c-1.4-.9-2.8-1.8-4.2-2.8-1.2-.8-2.4-1.9-2.4-3.5 0-1-1.5-1-1.5 0zM30.3 90c1.4 1.6 3.3 2.2 5.3 2.1 1 0 2.1 0 3-.5.9-.4 1.5-1.4 1.2-2.4-.2-.9-1.7-.5-1.4.4.1.6-.7.8-1.1.9-.8.1-1.6.1-2.3.1-1.4 0-2.7-.6-3.7-1.7-.5-.7-1.6.3-1 1.1z" />
		<path class="doomed_sundays_2"
			d="M87.6 95.1c-2.2-.4-4.3-2.1-6.2-3.3-2-1.3-4.1-2.6-6.2-3.8-1.8-1-3.8-1.8-5.8-2.4-1-.3-1.9-.5-2.9-.6-.3 0-3.4-.2-3.3-.5.4-.9-.9-1.6-1.3-.8-.3.7-.3 1.4.3 2 .7.7 1.7.6 2.6.7 2.8.1 5.6 1 8.2 2.2 2.5 1.2 4.8 2.7 7.2 4.2 2.2 1.4 4.6 3.3 7.1 3.8.8.2 1.2-1.3.3-1.5zM55.7 78.9c-.1-.8-.3-1.9.4-2.4.6-.5 1.4-.5 1.9-1.2 1.1-1.6-.5-3.2-1.8-4-3.4-2-6-4.9-7.6-8.5-.4-.9-1.7-.1-1.3.8 1.4 3.3 3.8 6.2 6.9 8.3.7.5 1.6.8 2.2 1.4.3.3.6.7.4 1.1-.2.3-.7.4-1 .6-1.6.7-1.8 2.3-1.6 3.9.1 1 1.6 1 1.5 0zM62.5 77.7c-.1-2-.4-3.9-.8-5.8-.4-2-1.1-3.9-1.6-5.9-.5-2.3 0-4 1.5-5.7 1.1-1.3 2.3-2.4 3.4-3.7 2.1-2.8 3.7-6 4.4-9.4.9-4 .7-8.2.8-12.2.1-4.2.6-8.6 3.1-12.1.5-.8-.8-1.6-1.3-.8-4.6 6.8-2.6 15.3-3.7 22.9-.5 3.7-2 7.3-4.2 10.3-2 2.7-5.4 4.8-5.7 8.4-.2 2.2.8 4.4 1.4 6.5.6 2.5 1 5 1.2 7.5 0 1 1.5 1 1.5 0z" />
		<path class="doomed_sundays_2"
			d="M73.6 21.8c-4 4.5-3.2 10.6-2.3 16.1.5 3.3.9 6.6.3 9.9-.5 3-1.7 5.8-3.3 8.4-1.5 2.3-3.8 4.3-4.7 7.1-.7 2.3-.3 4.8 1.7 6.4 1 .8 2.2 1.3 3.4 1.9 1.5.8 3.1 1.6 4.6 2.4 1.2.6 2.9 1.2 3.8 2.3 1.2 1.5-.5 3.1-1.4 4.2-1.3 1.7-2.1 4.4.3 5.6 1 .5 2.4.5 3.5.6 1.9.2 3.7.5 5.6.8l4.8.9c1.5.3 3.1.9 4.7 1 2.2.1 4.4-1.8 3-4-1.3-2.1-4.3-3-6.5-3.4-1.4-.3-2.7-.5-4.1-.8-.6-.1-1.3-.3-1.9-.5-.4-.1-.9-.3-1.1-.7-.3-.5.2-1.4.2-1.9.4-2.7-1.8-5-3.6-6.6-1-.9-2.1-1.8-3.2-2.6s-3.1-1.5-3.7-2.8c-.9-1.6-.2-4.1.3-5.7.5-1.7 1.1-3.3 1.6-5 .9-3.4 1.3-6.9 1.1-10.4-.2-3.8-1.2-7.5-1-11.4.2-3.9 1.2-7.7 2.2-11.5.2-.9-1.2-1.3-1.4-.4-1.6 6.1-2.8 12-1.8 18.3.5 3.2.8 6.3.5 9.6-.3 3.1-1.1 6-2.1 8.9-.8 2.4-1.8 5.4-.8 7.9.4 1 1.1 1.6 2 2.2 1.3.8 2.5 1.6 3.7 2.6 2.1 1.7 5.4 4.1 4.8 7.2-.2 1-.5 1.8.2 2.7.7.9 1.9 1.2 2.9 1.4 2.5.6 5.1.7 7.5 1.6 1 .4 4.6 2.1 2.7 3.5-1.2.9-3.5-.1-4.8-.4-3.2-.7-6.3-1.3-9.6-1.7-1.4-.2-2.8-.3-4.2-.6-2.3-.5-1.3-2.6-.3-3.8 1.3-1.6 2.7-3.5 1.3-5.6-.6-.8-1.5-1.4-2.4-1.9-1.4-.7-2.7-1.4-4.1-2.1-1.4-.7-2.8-1.4-4.1-2.1-1.3-.7-2.5-1.4-2.9-2.9-.8-3 1.7-5.6 3.3-7.7 3.8-4.8 5.6-10.7 5.2-16.8-.5-6.1-3.3-13.8 1.4-19.1.4-.8-.7-1.8-1.3-1.1z" />
		<path class="doomed_sundays_2"
			d="M74.7 28.4c-1.2 5.1 2.1 9.3 3 14.2.5 2.7.5 5.4 0 8-.5 2.5-1.3 4.9-1.6 7.4-.5 3.5 0 7.8 3 10.1 1.8 1.5 4.1 1.6 6.3 1.9 1.3.2 2.5.4 3.8.5 1.2.2 2.9.2 3.6 1.3.8 1.1-.5 1.9-.6 3-.2 1.2.5 2.2.9 3.3.3.7.5 1.5-.1 2-.4.3-.9.3-1.3.5-.8.3-1.3.7-1.6 1.5-.3.9 1.1 1.3 1.4.4.2-.6 1.6-.7 2.1-1 .7-.4 1.1-1 1.3-1.8.1-.8-.1-1.6-.4-2.3-.2-.6-.6-1.1-.7-1.7-.2-.9.3-1.4.6-2.1.7-1.6-.3-3.2-1.7-3.9-.9-.5-2-.6-3-.7-1.4-.2-2.7-.4-4.1-.6-2.3-.3-4.8-.5-6.3-2.4-1.3-1.6-1.8-3.7-1.8-5.7 0-2.5.7-5 1.3-7.4.6-2.4 1-4.9.9-7.4-.1-2.8-.8-5.5-1.8-8-1.2-2.9-2.4-5.6-1.6-8.8.1-.9-1.3-1.3-1.6-.3z" />
		<path class="doomed_sundays_2"
			d="M93.6 82.6c1.2.5 2.5.3 3.5-.5 1.3-1.1 1.6-2.8 1.4-4.5-.4-3.2-1.4-6.8-3.4-9.4-2.3-2.9-6-3.6-9.2-5.1-1.7-.8-3.2-1.8-4.6-3.1-1.4-1.3-3-3.3-2.9-5.3.1-1-1.4-1-1.5 0-.2 2.8 2.3 5.6 4.3 7.3 2.3 1.9 5 3 7.8 4.1 1.6.6 3.1 1.3 4.3 2.6 1.1 1.1 1.8 2.6 2.3 4.1.5 1.5 1 3.1 1.2 4.7.2 1 .2 2.2-.4 3.1-.5.7-1.4 1.3-2.2.9-.7-.6-1.5.7-.6 1.1zM60.8 77.9c.8 2.8 3.3 4.4 5.7 5.6 3.2 1.6 6.6 2.7 10.1 3.7 6.6 2 13.6 4 18.5 9.2.7.7 1.7-.4 1.1-1.1-4.4-4.7-10.5-7-16.5-8.8-3.3-1-6.6-1.9-9.8-3.2-2.8-1.1-6.5-2.7-7.5-5.8-.4-.9-1.9-.5-1.6.4zM94.1 98c-2-.9-3.9-1.9-5.9-2.8-.4-.2-.8-.1-1 .3-.2.3-.1.8.3 1 2 .9 3.9 1.9 5.9 2.8.4.2.8.1 1-.3.2-.3.1-.8-.3-1z" />
	</g>
	<g>
		<path class="doomed_sundays_7"
			d="M40.3 61.4c-.3-.6-.7-1.2-1.3-1.5-.3-.2-.7-.3-1.1-.3-.4 0-.8.2-1.1.5-.2.2-.3.4-.4.6l-.3.3c-.1.1-.1.2-.2.4v.5c.2.7.8 1.3 1.4 1.6.6.3 1.2.4 1.9.5.3 0 .5 0 .7-.1.2-.1.4-.4.4-.6.3-.7.3-1.3 0-1.9zM37.2 65.8c.1-.3.1-.6 0-.8.1-.1.2-.2.2-.4s0-.5-.1-.7c-.2-.2-.4-.4-.6-.4-.2 0-.5 0-.7.1l-.2.2c-.8 0-1.4.6-1.8 1.3-.2.4-.3.8-.2 1.3.1.4.4.8.8 1 .2.1.3.1.5.1.2.1.4.1.6 0h.2c.1 0 .2-.1.3-.2.2-.1.3-.2.4-.3.2-.4.5-.8.6-1.2zM47.8 63.7c-.3-.3-.4-.7-.6-1.1-.2-.5-.4-.9-.8-1.2-.2-.2-.4-.3-.5-.4-.5-.5-1.3-.6-2-.4-1.7.6-2.4 3.8-.8 4.7-.7.6-1.2 1.3-1.6 2.1-.3-.3-.5-.5-.7-.8-.6-.7-1.7-.3-1.8.4-.4.1-.7.3-1 .5-.4.2-.7.4-1 .6-1.1.9-1.9 2.2-2 3.7 0 1.3.7 3.4 2.3 3.2.7-.1 1.2-.6 1.4-1.2 0-.1.1-.3.1-.5.1-.2.2-.4.3-.5.1-.1.3-.2.4-.3.3-.2.7-.5.9-.9.3 0 .7 0 1-.2.6-.4.8-.9.8-1.5.2-.1.4-.2.6-.4 0 .1.1.3.2.4.3.5 1.2.6 1.6.1 1.2-1.6 2.3-3.3 3.5-4.9.1-.5.2-1.1-.3-1.4zM53.3 77.7c-1.3-.2-2.5-.9-3.8-1.2-.3-.1-.6-.1-.9-.1h-.1c-.3-.2-.8-.1-1.1.2-.6.1-1.1.4-1.4 1-.5 0-1 .4-1.3.9-.3.6-.2 1.4.2 1.9s1 .8 1.7.9c.3.6.8 1 1.5.9.1 0 .3 0 .4-.1.4.4.9.6 1.5.5.7-.1 1.1-.8 1-1.5l.3-.3c.2 0 .3 0 .4-.1.2-.1.3-.3.4-.5.4-.2.9-.4 1.3-.5 1-.4.9-1.9-.1-2zM58.9 84.6L57 82.7v-.4c0-.8-.2-1.6-1-2-.5-.2-1-.1-1.3.1l-.1-.1c-.3-.3-.9-.3-1.3 0s-.4.9-.2 1.3l.6.9c.1.4.3.9.4 1.3.1.4.6.7 1.1.6.2.2.3.4.5.6l.2.2c.2.3.7.3 1 .2l.7.7c.4.4 1.1.3 1.4-.1.3-.5.3-1-.1-1.4zM61.4 56.6c0-.1.1-.1.1-.2.2-.5.1-1.1-.4-1.3-.5-.2-1.1-.1-1.3.4-.6 1.2-1.2 2.5-1.7 3.7 0 .1-.1.1-.1.2-.5-.7-1.3-1-2.1-1s-1.6.5-2.1 1.2c-.6.8-.5 1.9 0 2.7.1.2.3.3.4.5-.1.1-.2.1-.3.2-.4.3-.7.6-1.1.9-.1 0-.2.1-.3.1-.5.3-.6.9-.5 1.4 0 .2-.1.4 0 .6 0 .2.1.5.2.7.2.3.6.5 1 .5.2 0 .5-.1.7-.2l.9.3c.6.1 1.2-.2 1.4-.7.1-.3.2-.7.3-1.1.2-.7.2-1.4.2-2.2 0-.1 0-.3-.1-.4.7-.1 1.3-.6 1.6-1.2.2-.4.3-.8.2-1.2.1.1.2.1.3.1.8.1 1.6-.2 2.1-.8.5-.6.7-1.3.8-2.1 0-.3 0-.8-.2-1.1zM67 47.4c-.2-.6-.5-1.2-1-1.6-.6-.5-1.3-.7-2.1-.4-.1 0-.1-.1-.2-.1-.4-.2-.8-.3-1.2-.2-.4.1-.7.4-.8.7-.3.6-.1 1.3.3 1.8.3.4.6.9 1 1.3.3.5.6.9 1 1.3.5.5 1.3.7 1.9.4.6-.3 1.1-.8 1.3-1.5.1-.5 0-1.1-.2-1.7zm-2.3.6c.1-.1.2-.1.4-.2.1.1.1.3.1.4v.5c0-.1-.1-.1-.1-.2l-.4-.5zM65 65.4c0-.4 0-.9-.2-1.3s-.4-.7-.7-1c-.4-.3-.8-.5-1.2-.7-.5-.1-.9-.1-1.4 0-.1 0-.2.1-.2.1l-.3.3c-.1.2-.2.4-.2.6 0 .5.1.9.2 1.4v.1c.1.6.3 1 .7 1.4.2.2.4.4.7.6h.1c.2.2.5.3.7.2.1 0 .3-.1.4-.1.3-.1.6-.2.9-.5.3-.3.5-.7.5-1.1zM70.9 68c-.3-.4-.6-.7-.9-1.1-.2-.2-.4-.4-.6-.4h-.3c-.1-.2-.2-.3-.3-.4 0-.1 0-.1-.1-.2-.2-.5-.7-.7-1.2-.8-.4 0-.8.2-1.1.4-.5.3-1 .8-1.4 1.3-.2.3-.3.7-.1 1.1.2.3.6.6.9.5h.1c.1.1.3.2.4.3 1.2.4 2.3.6 3.5.7.4 0 .8-.1 1-.4.3-.2.4-.7.1-1zM61.3 76.3c-.1-.3-.2-.6-.4-.9v-.2c.1-.7 0-1.4-.4-1.9-.2-.3-.5-.6-.9-.7-.2-.3-.5-.5-.9-.5-.4-.1-.7 0-1 .2-.2.1-.3.3-.4.5-.1.2-.1.3-.1.4 0 .3.1.4.2.7 0-.1-.1-.2-.1-.2.1.2.2.5.2.7v.6c-.1.6-.1 1.3.3 1.8.3.3.6.6 1 .7.3.1.6 0 .9-.1.1 0 .1.1.2.1.2.1.5.1.8.1.5-.2.8-.8.6-1.3zM70.5 76.8c-.1-.8-.3-1.6-.4-2.5-.1-.4-.2-.8-.5-1.1-.5-.4-1.1-.3-1.6 0-.1 0-.3.1-.4.2l-.1.1c-.8.3-1.6.9-2.2 1.6-.2.2-.3.5-.2.8-.2.2-.3.4-.5.5-.2.2-.2.4-.2.6l-1.2-.3c-.4-.1-.9.2-1.1.5-.2.4-.1.9.2 1.2.8.5 1.6 1 2.5 1.1.8.1 1.7 0 2.4-.4.7-.3 1.4-.8 1.9-1.5.2.1.5.2.8.1.3 0 .6-.4.6-.9z" />
		<path class="doomed_sundays_7"
			d="M73.7 83.4c.1-.8.3-1.6.4-2.4.2-.9.4-1.9-.3-2.6-.3-.3-.8-.5-1.3-.4-.3-.3-.6-.5-1-.6-.7-.1-1.3.2-1.7.6-.3 0-.6.1-.8.3-.1.1-.1.1-.1.2-.5.8-.8 1.7-1.1 2.6-.2.5-.2 1.1.1 1.6.2.4.6.6 1 .7.3.1.6.2.9.2h.1l.1.1.2.2c.3.3.5.5.9.7.6.2 1.3.1 1.7-.4.1-.1.1-.2.2-.3.3.1.6-.1.7-.5zM87.2 90.1c-.1-.1-.2-.2-.2-.3l-.1-.1c-.2-.2-.3-.4-.5-.6-.3-.4-.6-.8-.8-1.2-.1-.1-.1-.2-.2-.3 0-.2-.2-.5-.3-.6 0-.1-.1-.1-.1-.2-.2-.4-.4-.9-.6-1.4-.1-.4-.6-.7-1-.7-1.1.1-1.7 1.3-1.4 2.3.2.8.9 1.2 1.6 1.5.6 1.1 1.4 2.1 2.2 3 .4.4 1.1.3 1.4-.1.5-.4.4-.9 0-1.3zM92.1 88.1c-.1-.3-.2-.5-.4-.7.3-.2.4-.5.4-.9.1-.3.1-.6 0-.9.2-.5-.2-1.2-.8-1.3-.5-.1-.9 0-1.3.3h-.1c-.5.1-1 .5-.9 1.1.2 1.6.7 3.3 1.4 4.8.2.4.4.6.9.7.4 0 .7-.2.9-.5.4-1 .2-1.9-.1-2.6zM92.2 77.1c.9-.3 1.4-1.4 1-2.2-.2-.5-.6-.7-1.1-.6-.1-.2-.1-.4-.3-.6-.3-.3-.7-.6-1.1-.4-.4.2-.6.5-.7 1 0 .2 0 .4.1.6-.1.3-.1.7-.1 1v.3c-.3-.1-.6-.2-.9-.1-.6.1-1.1.6-.9 1.3.2.5.3 1 .5 1.5.2.6.4 1.1.9 1.4 1.1.6 2.4-.2 2.7-1.3.1-.6 0-1.1-.1-1.7v-.2zM101 82c0-.1-.1-.2-.2-.3 0-.4-.1-.8-.3-1.2-.2-.4-.7-.8-1.2-.8-.3 0-.7 0-1 .2-.3.2-.4.5-.5.8-.1.3-.2.6-.2.8-.1.2-.2.3-.2.5v.1c-.1.3-.1.6 0 .9.1.2.2.4.4.6.4.7 1.2 1.3 2.1 1 .6-.2 1-.7 1.1-1.2.2-.5.1-.9 0-1.4zM91 71.3c-.1-.1-.1-.2-.2-.3.5-1.5.1-3.1-1-4.2-.2-.2-.6-.3-.9-.2-.1-.2-.3-.3-.6-.3s-.6 0-.9.1c-.3.1-.5.3-.7.5-.1.2-.2.4-.2.6 0 .2 0 .5.2.6.3.4.6.7.9 1.1-.1.3 0 .5.1.8.5.8 1 1.6 1.6 2.4.3.4.9.6 1.4.3.5-.3.6-.9.3-1.4zM86.1 68.8c0-.5-.1-1-.1-1.6 0-.5-.4-.8-.8-.9h.3c.7-.2 1.3-.8 1.5-1.5v-.6c.1-.6-.1-1.2-.5-1.7-.2-.2-.3-.4-.6-.4-.2 0-.5 0-.7.1-.1 0-.1.1-.1.1-.6 0-1.2.3-1.6.8-.4.4-.5.9-.5 1.3s.1.7.3 1c.2.3.5.6.8.7.2.1.4.1.5.2h.2c-.3.1-.6.3-.7.6-.7-.1-1.4.1-2 .6-.5.1-.9.4-1.1.8-.3.7-.1 1.4.4 2 .4.4.9.6 1.3.9.5.3 1 .6 1.5.8.5.3 1.3-.1 1.4-.7.1-.6.1-1.2.2-1.7.2-.2.3-.5.3-.8zm-2.9.4l.1-.1h.5c0 .2 0 .4-.1.6-.1-.3-.3-.4-.5-.5zM83.4 69.1c-.1 0-.1 0 0 0-.1 0-.1 0 0 0zM76.2 60.6c-.6-1-1.3-2-2.2-2.8-.4-.3-1.1-.3-1.4.1-.1.1-.1.2-.1.3-.3.1-.6.2-.9.5-.6.6-.4 1.6.3 2 .1 0 .1.1.2.1h.2c.1.1.1.1.2.1 0 0 .1.1.2.1l.2.2c.3.4.5.8.7 1.2.2.5.5 1 .9 1.3.6.5 1.4.6 2.1.2 1-.6.1-2.3-.4-3.3zM82.5 51.8c.1-.1.1-.2.2-.2.1-.2.1-.5.1-.8-.1-.2-.3-.5-.5-.6-.5-.2-1-.4-1.5-.5-.3-.1-.6-.1-.9 0-.5.2-.7.6-.9 1 0 .1-.1.3-.1.4-.2.3-.3.7-.4 1.1 0 .3-.1.5 0 .8 0 .3.1.6.3.9.3.6 1.1 1 1.7.8.1 0 .2-.1.3-.1h.1c.5-.1 1-.6 1.2-1 .3-.4.4-.9.4-1.4.1-.1.1-.3 0-.4z" />
	</g>
	<g>
		<path class="doomed_sundays_2"
			d="M44.1 78.5c0 1.2.6 2.3 1.5 3 1.1.9 2.5 1.2 3.8 1.4.3.1.6-.3.4-.6-.6-.9-1.2-1.8-2-2.5-.4-.3-.8-.7-1.2-1-.2-.2-.4-.3-.7-.4-.1 0-.7-.3-.7-.4v.3c.4-.6 1.3-1 2-1.2.7-.2 1.5-.3 2.2-.3 1.8.1 3.5.8 5 1.6-.1-.1-.1-.3-.2-.4-.2.5-.9.7-1.4 1-.5.3-.9.7-1.2 1.1-.4.4-.6.9-.9 1.4-.2.3-1 1-1.4.4-.3-.4-.9 0-.6.4.4.5 1 .7 1.6.5.7-.2 1-.9 1.4-1.5.4-.7 1-1.4 1.7-1.8.6-.4 1.3-.7 1.6-1.4.1-.1 0-.4-.2-.4-2.8-1.4-6.1-2.5-9-.8-.4.2-1.3.7-1.3 1.3 0 .3.2.4.5.6.3.2.7.4 1 .6 1.3.9 2.4 2 3.2 3.4.1-.2.3-.4.4-.6-1.9-.4-4.9-1.1-4.8-3.7.1-.5-.6-.5-.7 0z" />
		<path class="doomed_sundays_2"
			d="M52.6 79.4c-.6 1.1 0 2.5.5 3.6.6 1.1 1.4 2 2.4 2.8.4.3 1.1.7 1.5.2.2-.2.2-.6.3-.9 0-.4.1-.8.1-1.2 0-.7 0-1.5-.1-2.2-.1-.6-.2-1.2-.5-1.7-.7-1-2.3-.9-2.8.2-.2.4.4.8.6.4.3-.7 1.2-.7 1.6-.1.2.4.3.8.3 1.3.1.6.1 1.1.1 1.7 0 .6 0 1.2-.1 1.7 0 .1 0 .2-.1.2s-.2-.1-.3-.1c-.2-.1-.4-.3-.6-.4-.7-.6-1.3-1.3-1.8-2.1-.3-.5-.5-.9-.6-1.5-.2-.5-.3-1.1 0-1.6.4-.3-.3-.7-.5-.3z" />
		<path class="doomed_sundays_2"
			d="M56.7 86c.5.6 1.4 1.2 2.3 1 .4-.1.7-.3.7-.7.1-.4-.1-1-.2-1.4-.6-1.9-1.6-3.6-2.9-5.1-.3-.4-.9.2-.5.5 1 1.2 1.9 2.5 2.4 3.9.1.3.2.7.4 1 .1.2.3.7.1.9-.2.2-.5.1-.7 0-.4-.1-.7-.4-1-.7-.4-.3-.9.3-.6.6zM64.2 79.1c-.6-.1-1.4-.5-1.6-1.1-.1-.2-.1-.5 0-.7.1-.2.5-.1.7 0 .7.2 1-.1 1.3-.7.3-.6.7-1.2 1.2-1.8.5-.5 1-1 1.5-1.4.3-.2.5-.4.8-.5.1-.1.3-.2.5-.2 0-.1 0 0 .1.1s.1.2.2.4c.4.8.8 1.5 1.1 2.3.2.3.5.8.3 1.1-.2.3-.6.5-.9.6-.9.5-1.7 1-2.6 1.5-.4.2-.8.5-1.2.6-.3.1-.8.1-1-.3-.2-.4-.9-.3-.7.2.3.8 1.2 1.1 2 .8.4-.1.8-.4 1.2-.6.5-.3 1-.6 1.6-.9l1.5-.9c.3-.2.7-.4.9-.8.2-.4.1-.9-.1-1.3-.2-.5-.5-1-.8-1.5-.2-.5-.5-.9-.7-1.4-.2-.4-.4-.7-.8-.6-.4.1-.9.4-1.2.6-.4.2-.8.5-1.1.8-.7.6-1.3 1.2-1.7 2-.2.4-.4.8-.7 1.2-.2.2-.3.1-.5 0s-.4-.1-.7-.1c-.8.1-1 1-.8 1.7.3.9 1.3 1.5 2.2 1.7.3 0 .5-.7 0-.8z" />
		<path class="doomed_sundays_2"
			d="M64.2 77.2c1.1.7 2.4.6 3.6.1 1.1-.5 2.1-1.3 2.8-2.3.3-.4-.4-.8-.6-.4-.6.9-1.4 1.6-2.3 2-.9.4-2.1.5-3-.1-.6-.2-.9.4-.5.7zM68.7 77.9c-.5.7-.9 1.5-1.1 2.4-.2.8-.4 1.7-.1 2.4.3.6.9 1 1.5 1.3l2.4.9c.8.2 1.6.3 2.2-.4.4-.5.6-1.2.7-1.8.3-1.4.5-3-.3-4.3-.8-1.4-2.8-1.9-4.1-1-.4.3 0 .9.4.6 1-.6 2.3-.4 3 .5.7 1 .6 2.3.4 3.4-.1.5-.2 1.1-.4 1.6-.3.7-.8.8-1.5.6-.7-.2-1.4-.5-2.1-.7-.5-.2-1-.4-1.4-.8-.5-.6-.2-1.5 0-2.2.2-.8.6-1.5 1-2.2.3-.3-.3-.7-.6-.3zM89 86.3c.3-.8.8-1.9 1.8-1.8.5 0 .8.3.9.7.1.6.1 1.2.1 1.8 0 .6.1 1.2.1 1.8 0 .5.2 1.3-.1 1.7-.1.2-.3.3-.5.3-.3 0-.4-.2-.6-.4-.3-.5-.6-1-.8-1.6-.2-.6-.5-1.2-.7-1.7-.2-.6-.3-1.3-.1-1.8.2-.4-.4-.8-.6-.4-.6 1.4.1 2.9.7 4.2.4 1 1.2 3.2 2.6 2.4.6-.3.8-1 .8-1.7 0-.8-.1-1.7-.1-2.5 0-.7 0-1.5-.2-2.3-.1-.6-.6-1.1-1.2-1.2-1.6-.4-2.5 1.1-3 2.3 0 .4.8.6.9.2zM81.5 87.3c-.3-1.3 1-2.3 2.2-1.7.5.3.8.8 1 1.4.2.6.3 1.1.6 1.7.3.6.7 1 1.1 1.4.2.2.4.4.5.7.1.1.1.2.1.4s-.1.2-.3.1c-1.1-.3-1.8-1.3-2.5-2-.8-.9-1.7-1.9-2.9-2.3.1.1.2.2.3.4V87c.1-.5-.7-.5-.8 0v.4c0 .2.1.3.3.4 1.2.5 2.1 1.6 2.9 2.6.4.5.9 1 1.5 1.3.5.3 1.4.9 2 .3.6-.5.1-1.4-.3-1.9-.5-.6-1.1-1-1.4-1.7-.6-1.3-.6-2.9-2.1-3.5-.8-.3-1.7-.1-2.3.4-.6.6-.9 1.4-.7 2.2.2.4.9.2.8-.2zM99.9 78.9c-1.8.7-4.3 2.9-2.7 4.9.4.4.8.7 1.4.9.5.2 1.2.4 1.7.2s.8-.7 1-1.2c.2-.5.4-1.1.4-1.7 0-.6-.3-1.2-.6-1.7-.3-.4-.7-.8-.8-1.3 0-.5-.8-.5-.8 0 0 .9.7 1.4 1.1 2.1.5.8.2 1.8-.2 2.6-.1.2-.2.4-.4.5-.2.1-.5 0-.7 0-.5-.1-.9-.2-1.3-.5-.3-.2-.6-.6-.7-1-.1-.5.2-.9.4-1.2.5-.8 1.4-1.5 2.3-1.8.5-.2.3-.9-.1-.8z" />
		<path class="doomed_sundays_2"
			d="M98.1 74.5c.8 0 1.3.8 1.5 1.5.2.7.1 1.5-.2 2.2-.1.2-.2.4-.3.5 0 .1-.3.4-.3.3-.1 0-.2-.4-.3-.5-.1-.2-.1-.4-.2-.6-.2-.9-.2-1.9 0-2.8.1-.5-.6-.7-.7-.2-.2.9-.3 1.9-.1 2.8.1.6.5 2.3 1.4 2 .4-.1.7-.6.9-.9.2-.3.4-.7.5-1.1.2-.8.1-1.6-.2-2.4-.4-.9-1.1-1.6-2.1-1.6-.4.1-.4.8.1.8zM88.8 76.6c.8-.2 1.6.3 2.2.8.5.4 1.2.9.9 1.6-.3.6-.8 1.1-1.5 1.2-.7.1-1-.5-1.1-1.1-.1-.4-.2-.9-.2-1.4-.1-.6-.2-1.1-.2-1.7l-.5.5c.5.2.9.1 1.4-.1.2-.1.2-.4.1-.5-.1-.2-.3-.2-.5-.1-.3.1-.5.1-.8 0-.3-.1-.5.2-.5.5l.3 1.8c.1.5.1 1 .3 1.4.2.8.9 1.6 1.8 1.5.9-.1 1.7-.8 2.1-1.5.2-.4.3-.9.1-1.4-.2-.4-.5-.8-.9-1.1-.9-.7-2-1.4-3.2-1.1-.4.1-.2.9.2.7zM84.9 65.8c-.7.3-1.4.6-2.2 1-.6.3-1.2.6-1.7 1.1-.4.5-.7 1.1-.6 1.8.1.5.4 1 .8 1.3.4.3 1 .5 1.5.7.6.2 1.3.4 1.9.5.7.1 1.2-.2 1.4-.8.2-.8.4-1.5.6-2.3.2-.7.3-1.5-.1-2.2-.4-.6-1-.9-1.6-1.2-.4-.2-.8.4-.4.6.4.2.8.4 1.2.8.4.4.4 1 .2 1.5-.2.6-.3 1.2-.5 1.9-.1.3-.1.6-.3.9-.1.2-.3.2-.5.2-.5-.1-1.1-.3-1.6-.4-.4-.1-.8-.3-1.2-.5-.3-.2-.7-.5-.8-.9-.1-.5.1-1 .5-1.3.4-.4 1.1-.7 1.6-.9.7-.3 1.3-.6 2-.9.6-.5.2-1.1-.2-.9z" />
		<path class="doomed_sundays_2"
			d="M86.9 67.2c1.2-.9 2.8-.2 3.4 1 .8 1.5.5 3.2.1 4.8l.2-.2c-.2.2-.9-.6-1-.8-.3-.3-.7-.6-1-1-.6-.6-1.1-1.5-.6-2.3.2-.4-.4-.8-.6-.4-.7 1.1-.1 2.3.7 3.2.4.5.9.9 1.4 1.4.4.4.9.9 1.5.6.3-.2.3-.5.4-.8.1-.4.2-.7.2-1.1.1-.7.1-1.3 0-2-.2-1.1-.7-2.2-1.6-2.9-1-.7-2.4-.9-3.4-.1-.5.3-.1.9.3.6zM83.2 62.7c-.9.4-1.2 1.5-1 2.4.3 1.1 1.3 1.7 2.3 1.7 1.1 0 2.4-.6 2.7-1.7.2-.6.1-1.2-.2-1.8-.2-.3-.4-.5-.6-.8-.2-.2-.4-.5-.6-.6-1.4-1.1-2.6.8-3.4 1.7-.1.2-.2.4 0 .5.1.1.4.2.5 0 .3-.4.7-.9 1.1-1.3.3-.3.6-.6 1-.5.2 0 .4.2.5.4.2.2.3.4.5.6.3.4.5.8.5 1.3 0 .9-1 1.4-1.8 1.5-.7.1-1.5-.2-1.8-.9-.3-.6-.1-1.5.5-1.8.6-.3.2-.9-.2-.7zM72.7 57.1c-.3.3-.7.6-1 .8-.3.3-.7.5-.9.8-.4.6 0 1.3.4 1.7.5.6 1 1.1 1.4 1.8.3.6.5 1.2.8 1.7.3.5.8.9 1.3 1 .6.1 1.3-.2 1.7-.6 1-1 .7-2.8 0-3.8-.7-1.1-2.3-1.8-2.5-3.2 0-.1-.1-.2-.3-.3-.1 0-.3-.1-.4-.1-.5-.1-.7.6-.2.7.1 0 .3.1.4.1l-.3-.3c.2 1 .9 1.7 1.6 2.4.8.8 1.6 1.7 1.5 3-.1 1.1-1.4 1.9-2.2.8-.3-.4-.5-.9-.7-1.3-.2-.6-.5-1.1-.9-1.6-.2-.3-.5-.6-.7-.8-.2-.2-.6-.5-.4-.8.1-.3.6-.5.8-.8.3-.3.7-.6 1-.8.5-.2 0-.7-.4-.4zM64.9 67.5c.5-.6.9-1.2 1.6-1.6.6-.3 1.4-.3 1.8.2.2.3.4.6.6.8.2.3.5.5.8.7.3.2.7.4.9.7.2.2.4.6.2.8.1 0 .2-.1.3-.1-1.7.1-3.4-.1-5.1-.6-.5-.1-.7.6-.2.7 1.2.3 2.4.6 3.7.6h.9c.3 0 .7.1.9-.1.4-.2.4-.8.3-1.2-.3-1.1-1.6-1.3-2.1-2.1-.3-.4-.5-.8-.9-1.1-.4-.3-.9-.4-1.3-.3-1.3.1-2.1 1.1-2.8 2-.4.4.1 1 .4.6z" />
		<path class="doomed_sundays_2"
			d="M61 63.8c0-.9 1.1-1.3 1.9-1.1 1 .3 1.8 1.2 2.1 2.2.3.9-.1 1.9-1 2.3-.9.4-1.9-.1-2.4-.9-.3-.5-.4-1.2-.5-1.8-.1-.7-.3-1.5-.4-2.2-.1-.5-.8-.3-.7.2.1.8.3 1.6.4 2.4.1.7.3 1.4.7 2 .7 1 2.1 1.5 3.3 1 1.2-.5 1.8-1.8 1.5-3-.3-1.2-1.3-2.5-2.6-2.9-1.2-.4-2.8.4-2.8 1.8-.3.5.5.5.5 0zM51.8 65.3c.7-.7 1.5-1.4 2.3-1.9.5-.3 1.6-.9 2-.1.2.4.1.9 0 1.4-.1.6-.1 1.1-.2 1.7 0 .2-.1.3-.2.4-.2.1-.5.1-.7.2-.5 0-1.1 0-1.6-.2-.3-.1-.6-.2-.9-.2-.1 0-.3-.1-.4-.1-.1-.2-.1-.2-.1-.4 0-.6.2-1.2.3-1.8.1-.5-.6-.7-.7-.2-.2.6-.3 1.4-.3 2 0 .3.1.6.4.8.2.2.6.2.9.3.7.2 1.3.3 2 .4.6 0 1.3 0 1.8-.4s.4-1.2.5-1.8c.1-.6.2-1.3.2-1.9-.1-.6-.3-1.1-.9-1.3-.5-.2-1-.1-1.5.1-.6.2-1.2.6-1.7 1-.6.4-1.1.9-1.6 1.4-.5.4.1.9.4.6z" />
		<path class="doomed_sundays_2"
			d="M52.5 61.2c-.1 1.1.8 2 1.9 2.3.6.2 1.3.1 1.9.1.6-.1 1.1-.2 1.6-.6.8-.7.7-1.8.5-2.8-.1-.5-.3-1.1-.7-1.4-.5-.3-1.1-.2-1.6 0-1.2.3-2.3 1.1-3 2.1-.1.2 0 .4.1.5.2.1.4 0 .5-.1.5-.7 1.2-1.2 2-1.6.4-.2.8-.3 1.2-.3.2 0 .3 0 .4.2.1.2.2.4.2.6.2.6.4 1.5 0 2.1-.2.3-.6.5-1 .5-.5.1-.9.1-1.4.1-.9-.1-1.9-.6-1.8-1.6 0-.2-.2-.4-.4-.4-.2-.1-.4.1-.4.3z" />
		<path class="doomed_sundays_2"
			d="M60.2 56.1c-1.2.9-3.9 3.4-1.8 4.8.8.6 1.9.3 2.6-.4.7-.7 1-1.8 1.1-2.8.1-1.1-.4-2.4-1.6-2.7-.5-.1-.7.6-.2.7.7.2 1 1 1 1.7 0 .8-.2 1.7-.6 2.3-.4.5-1.1 1-1.8.7-.3-.1-.5-.4-.6-.7-.1-.4.1-.7.3-1 .5-.8 1.1-1.4 1.9-2 .4-.2.1-.9-.3-.6zM62.7 44.7c-.6-.1-1.1.4-1.4.9-.3.6-.2 1.3.1 1.9.3.6.6 1.3 1 1.9.4.5.8 1 1.3 1.4 1.1.7 2.5.6 3.3-.4.9-1.2.4-2.7 0-3.9-.1-.3-.3-.7-.5-.9-.3-.2-.7-.3-1-.4-.9-.3-1.9-.4-2.8-.5-.1 0-.3.1-.4.3-.1.2.1.4.3.5.6.1 1.2.2 1.9.3.3.1.6.1.9.2.2 0 .5.1.7.2.2.2.3.4.3.6l.3.9c.1.5.2 1.1.1 1.6-.1.4-.3.9-.8 1.1-.4.2-.9.2-1.3.1-1-.3-1.6-1.3-2.1-2.2-.3-.5-.7-1.1-.7-1.8 0-.5.3-1 .8-.9.4-.2.4-.9 0-.9zM38.4 58.4c-.4.5-1 .7-1.5.9-.6.2-1.1.5-1.5 1-.4.5-.5 1.1-.2 1.7.2.3.4.5.6.8l.7.7c.9.8 2.1 1.4 3.4 1 1.2-.4 1.7-1.7 1.3-2.9-.2-.7-.7-1.3-1.2-1.8-.3-.2-.6-.5-.8-.7-.3-.2-.6-.5-1-.6-.5-.1-.7.6-.2.7.5.1 1 .6 1.4.9.4.4.8.7 1.1 1.2.4.8.4 2-.6 2.3-.9.4-1.9-.1-2.6-.7-.4-.3-.8-.7-1.2-1.2-.3-.4-.3-.9.1-1.2.8-.8 2.1-.8 2.8-1.7.1-.2.2-.4 0-.5-.2 0-.5-.1-.6.1z" />
		<path class="doomed_sundays_2"
			d="M35.3 62.5c-.7.7-1.2 1.5-1.6 2.4-.3.8-.9 2.1.2 2.6.8.3 1.7.1 2.4-.3s1.3-1.1 1.5-1.9c.2-.9 0-1.9-.9-2.2-.2-.1-.4.1-.5.3-.1.2.1.4.3.5.5.2.5.9.4 1.3-.1.6-.5 1.1-1 1.4-.5.3-1.1.5-1.7.4-.1 0-.3-.1-.3-.2-.1-.1 0-.3 0-.4.1-.4.2-.7.4-1 .4-.8.8-1.5 1.4-2.1.3-.6-.3-1.2-.6-.8zM33.7 73.2c.6.5 1.3 1.1 1.9 1.6.5.4 1.1.7 1.8.5.7-.2 1.3-.7 1.8-1.2.6-.6 1.3-1.1 1.9-1.7.5-.5 1-.9 1.1-1.6.1-.7-.1-1.4-.3-2.1-.4-1.2-.6-3.1-2.3-2.7-1.5.3-2.9 1.5-3.7 2.7-.3.4.4.8.6.4.4-.6 1-1.1 1.6-1.5.5-.3 1.3-.8 1.9-.8.4 0 .5.3.6.7.1.4.3.8.4 1.2.2.7.6 1.5.4 2.2-.2.7-.9 1.2-1.4 1.6-.6.5-1.2 1.1-1.8 1.6-.6.5-1.3.8-2 .3s-1.4-1.1-2-1.6c-.3-.4-.8.1-.5.4z" />
		<path class="doomed_sundays_2"
			d="M35.9 70.3c1.2.5 2.5.7 3.8.7.6 0 1.3-.1 1.9-.2.5-.1.9-.4.9-.9s-.7-.5-.8 0c0 .2-.9.3-1 .3-.5.1-1.1.1-1.6.1-1 0-2.1-.3-3-.7-.5-.2-.7.5-.2.7z" />
		<path class="doomed_sundays_2"
			d="M41.8 63.8c.5-1.3 1.7-2.7 3-3.2.9-.3 1.5.4 1.7 1.2.3.8.4 1.7.2 2.5-.2 1.7-1.1 3.1-2.1 4.5-.3.4-.9 1.6-1.6 1.2-.7-.4-.6-1.4-.6-2.1 0-.9.2-1.8 0-2.6-.2-.9-.7-1.8-.7-2.7 0-.5-.7-.5-.8 0 0 1.1.5 2 .7 3 .2 1.1-.1 2.3 0 3.4.1.7.4 1.6 1.2 1.9.8.3 1.4-.2 1.8-.8 1.2-1.7 2.4-3.5 2.7-5.6.2-1.5-.2-4.2-2.1-4.5-1-.1-2 .6-2.6 1.3-.8.7-1.4 1.6-1.8 2.6.1.2.8.4 1-.1zM81.3 49.3c-1 0-2.5.1-3.2 1-.4.5-.4 1.2-.3 1.8.1.4.1.7.2 1.1.1.4.1.7.2 1.1.2.6.6 1 1.3 1.2.6.1 1.2-.1 1.7-.5 1.1-.8 1.6-2.2 1.7-3.5 0-.7-.1-1.4-.6-1.9-.5-.4-1.3-.5-1.8 0-.3.3.2.9.5.5.3-.3.7-.1.9.2.3.4.2.9.2 1.3-.1 1-.5 2-1.2 2.6-.3.3-.7.5-1.2.4-.5-.1-.7-.4-.8-.8-.1-.6-.2-1.1-.3-1.7-.1-.5-.2-1 .1-1.4.3-.3.7-.5 1.1-.6.5-.1 1-.2 1.5-.2.5.2.5-.6 0-.6zM61.2 72.5c-.7-.2-1.4-.4-2.1-.5-.3-.1-.7-.1-1-.2-.3 0-.6 0-.9.1-.5.3-.6 1.1-.6 1.7 0 .7.3 1.4.5 2 .5 1.1 1.3 2.3 2.6 2.4 1.2.1 2.1-.9 2.2-2 .1-.7 0-1.5-.3-2.2-.2-.5-.4-1.6-1.2-1.4-.5.1-.3.9.2.7-.1 0-.1-.1 0 0l.1.1c.1.1.1.2.1.3.1.2.2.5.3.8.1.5.2 1 .1 1.5-.1.7-.7 1.5-1.5 1.4-1-.1-1.5-1-1.9-1.8-.2-.5-.4-1-.5-1.5v-.7c0-.2.1-.5.2-.6.2-.1.5 0 .7 0 .3 0 .6.1.9.1.6.1 1.2.3 1.8.5.6.2.8-.5.3-.7zM90.1 73.3c-.6.7-.8 1.5-.6 2.4.1.8.7 1.6 1.4 2 .4.2.9.2 1.3 0s.7-.5 1-.9c.3-.4.5-.8.6-1.2.1-.5-.1-1-.5-1.3-.4-.4-.9-.7-1.3-1-.5-.3-1-.6-1.5-.8-.2-.1-.4-.1-.5.1-.1.2-.1.4.1.5.7.3 1.5.7 2.1 1.2.3.2.6.4.8.7.2.3 0 .6-.2.9-.3.5-.7 1.2-1.4 1.1-.6-.1-1-.7-1.2-1.3-.2-.7-.1-1.4.4-2 .1-.2.2-.4 0-.5-.1 0-.4-.1-.5.1z" />
	</g>
	<g>
		<path class="doomed_sundays_2"
			d="M113.4 120.3c1-2.1-.1-4.3-.9-6.2-.9-2.2-2.3-3.9-4.3-5.1-4.4-2.5-9.9-3.3-14.9-2.7-.9.1-1 1.6 0 1.5 4.4-.5 8.9.1 13 2 1.9.9 3.4 2 4.4 3.9.5.9.8 1.8 1.1 2.7.4 1 .9 2.2.4 3.3-.5.7.8 1.5 1.2.6z" />
	</g>
	<g>
		<path class="doomed_sundays_2"
			d="M94.4 100.8c2.9 0 5.6 1 8.1 2.4 2.4 1.4 4.8 3 6.8 4.9 4.1 3.8 5.9 9.4 4.6 14.8-.2.9 1.2 1.3 1.4.4 1.4-5.8-.4-11.9-4.7-16-2.2-2.1-4.9-4-7.6-5.5-2.7-1.5-5.6-2.6-8.7-2.5-.8 0-.8 1.5.1 1.5z" />
	</g>
	<g>
		<path class="doomed_sundays_2"
			d="M137.4 124.9c-.2-1.3-.4-2.6-.6-4-.1-.8-1.5-.6-1.5.2.1 4.6 4 8.8 8.8 8.8 4.7 0 8.7-4.3 8.7-8.9-.4.2-.8.4-1.1.6 2 1.1 2.9 3.4 2.3 5.6-.1.4.1.9.5.9 1.1.2 1.5 1.3 1.2 2.2-.2 1.1-1.1 2-1.9 2.7-.3.3-.3.8 0 1.1 3.5 3.2 1.4 8.9-3.4 8.9-.6 0-.9.6-.6 1.1.8 1.5-.4 3.4-2 3.6-.6.1-.7.9-.3 1.3.5.5.6 1.2.4 1.9-.3.7-.9.7-1.2 1.3-.3.5-.1 1.5-.3 2.1-.2.9-.7 1.8-1.7 1.9-1 .1-1-.7-1.5-1.2-.4-.4-.8-.5-1.3-.6-.9-.1-1.6-.1-2.3-.7-.7-.6-.9-1.6-.1-2.2.5-.4.2-1.1-.3-1.3-.9-.3-1.9-.7-2.4-1.5s0-2.8 1.3-2.3c.1-.5.3-.9.4-1.4-1.2-.1-2.3-.7-3-1.6-.4-.5-1.6-3.1-.2-2.8.8.1 1.4-.9.6-1.4-1.3-.7-2.8-1.5-3.4-2.9-.5-1.1-.2-3.1 1.3-3.1.7 0 1.1-1.1.4-1.4-1.1-.6-2.4-1.3-2.8-2.6-.4-1.1.2-2.7 1.6-2.6.7 0 1.1-1.1.4-1.4-1.1-.5-1.8-2-1.2-3.1.7-1.3 2.6-1.3 3.6-.3.7.7 1.7-.4 1.1-1.1-1.6-1.6-4.5-1.6-5.8.4-1.2 1.8-.4 4.5 1.6 5.4.1-.5.3-.9.4-1.4-1.8 0-3.1 1.6-3.2 3.3-.1 2.2 1.9 3.8 3.7 4.7.1-.5.3-.9.4-1.4-2 0-3.2 1.9-3.1 3.8.1 2.4 2.5 3.9 4.4 5 .2-.5.4-.9.6-1.4-.9-.2-2.1-.2-2.4.9-.3 1-.1 2.2.3 3.1.9 2 2.7 3.3 4.9 3.4.7 0 1.1-1.1.4-1.4-1.7-.7-3.6.5-3.8 2.4-.2 2.2 1.9 3.6 3.7 4.2-.1-.4-.2-.8-.3-1.3-1.1.9-1.2 2.6-.5 3.8.4.7 1.1 1.1 1.9 1.4.4.1.8.2 1.3.3.8.1.9.3 1.4.9.9 1.1 2.4 1.3 3.6.5 1.6-.9 1.9-3 1.9-4.7-.1.2-.2.4-.4.6 2-1 2.4-3.7.8-5.3-.1.4-.2.8-.3 1.3 2.6-.4 4-3.5 2.9-5.8-.2.4-.4.8-.6 1.1 2.7 0 5.2-1.6 6.2-4.2 1-2.5.2-5.5-1.8-7.3v1.1c1.2-1.3 2.5-2.7 2.4-4.6-.1-1.4-1-2.7-2.4-2.9.2.3.3.6.5.9.8-2.8-.4-5.9-3-7.3-.5-.3-1.1.1-1.1.6 0 3.8-3.3 7.4-7.2 7.4-3.9 0-7.2-3.5-7.3-7.3-.5.1-1 .1-1.5.2.2 1.3.4 2.6.6 4 0 1.1 1.4.7 1.3-.2z" />
	</g>
	<path class="doomed_sundays_5"
		d="M156.9 131.3c.2-.5.3-1 .1-1.5-.2-.7-.8-1.1-1.1-1.7-.7-1.2-.2-2.9-.5-4.2-.3-1.1-.8-1.9-1.9-2.3-.3-.1-.7.1-.8.5-.9 3.8-4.5 6.7-8.4 6.6-3.9-.1-7.3-3.3-8-7.1-.1-.4-.4-.5-.7-.5-.9-.7-2.2-.5-3 .2-1.3 1.2-.9 3-.1 4.4-1.1.6-1.7 1.8-1.6 3.2.1 1.5 1.1 2.6 2.2 3.5-.5.1-.9.3-1.1.8-.4.7-.5 1.7-.3 2.5.3 1.6 1.6 2.7 2.9 3.6-.7.7-1 1.8-.6 2.7.6 1.8 2.5 2.2 3.8 3.3-.6.1-1.1.4-1.5.8-.7.7-1 1.8-.5 2.6.4.8 1.3 1 2 1.2.8.3 1.2.7 1.1 1.6 0 .6-.2 1.2-.1 1.8.1.8.4 1.6 1.2 1.9.5.2 1.2-.1 1.7.2.4.2.6.7.9 1.1.4.5.8 1.1 1.5 1.2.9.1 1.5-.6 1.7-1.3.1-.4.2-.9.3-1.3.2-.6.6-1 1-1.5.6-.8 1.2-1.5 1-2.6-.1-.4-.4-1-.4-1.4.1-.7 1.1-.6 1.6-.9.8-.5.9-1.4 1-2.2.1-.5.1-.9.2-1.4.2-.8.8-1 1.6-1.3 1-.4 1.9-.8 2.7-1.6 1.7-1.8 1.9-4 1.3-6.3-.3-1-.5-1.9 0-2.9.2-.6.6-1.1.8-1.7z" />
	<g>
		<path class="doomed_sundays_1"
			d="M150 39.9c-12.8 11.6-24.8 24.2-35.7 37.6-.6.8-.2 1.7.4 2.1 0 .4.2.8.6 1 4.4 3.3 8.8 6.7 13.3 9.9 2 1.4 4.1 2.7 6.5 3.2 2.7.6 5.5.1 8.2.6.9.2 1.6-.4 1.7-1.3.8-8.9 1.5-17.9 2.3-26.8.8-8.5 1.9-17.1 4.9-25.2.5-1.2-1.3-1.9-2.2-1.1z" />
		<path class="doomed_sundays_2"
			d="M117.4 75.7c.2-2.2 1.8-3.9 3.2-5.5l4.5-5.1c3.1-3.4 6.2-6.6 9.5-9.8 6.6-6.5 13.6-12.5 20.9-18.2-.8-.5-1.7-1-2.5-1.5-2.6 10.5-5.2 21.1-6.9 31.8-.8 5.3-1.5 10.6-1.8 16-.1 2.6-.1 5.3-.2 7.9-.1 1.1-.6 1.2-1.6 1.2-1.1.1-2.1.1-3.2.1-4 0-9-.4-11.6-3.9-1.1-1.5-3.7 0-2.6 1.5 2.6 3.6 6.7 4.9 11 5.3 2.2.2 4.5.2 6.7 0 2.4-.2 4.1-1.3 4.3-3.8.2-3 .1-6 .3-9 .2-2.9.5-5.8.8-8.7.7-6 1.8-11.9 3.1-17.7 1.4-6.7 3-13.3 4.7-19.9.4-1.6-1.4-2.3-2.5-1.5-7.6 5.9-14.9 12.3-21.8 19.2-3.4 3.4-6.8 6.9-10 10.5-2.9 3.2-6.6 6.6-7.1 11-.4 2 2.6 2 2.8.1z" />
		<path class="doomed_sundays_5"
			d="M159.6 32c-.4-.1-1.1 0-1.5.2 0-.2-.2-.4-.4-.5h-.1c-.1-.1-.1-.2-.2-.3-.7-.8-1.9-1-2.9-.6-.8-.2-1.7-.6-2.4-.3-1.1.5-1.2 1.6-.9 2.6-1-.3-2.2 0-2.9 1-.8 1.1-.5 2.4.4 3.1-.7.7-1 1.7-.7 2.7.3 1.1 1.3 1.8 2.3 1.9-.4 1.5.6 3.1 2.3 3.4.9.1 1.8-.2 2.1-1.1.1-.4.1-.8.1-1.3v-.3c.7.7 1.7.9 2.7.4.6-.3 1.1-.9 1.2-1.6.2-.7 0-1.5 0-2.2.4 0 .9 0 1.3-.1.5 0 .7-.4.6-.8-.2-.8-.4-1.6-.8-2.3.9 0 1.7-.3 2-1.3.3-1.4-1.1-2.4-2.2-2.6zM149.9 96.9c-.2-.8-.4-1.6-.7-2.3-.3-1.3-.4-2.5.2-3.7.2-.4-.1-.9-.5-1 .1-.5 0-1-.4-1.5-.5-.8-1.6-1.1-2.4-.8-.8-.9-1.7-1.7-2.7-2.4-.5-.3-1 .1-1 .6-.9-.3-1.9-.2-2.8.3l-.1-.1c-.4-.9-1.1-1.7-2.2-2.1-.3-.1-.6.1-.8.4-.3 0-.5.2-.6.5h-.5c-.4 0-1 .1-1.4-.1-.4-.2-.5-.6-.7-1-.3-.6-.8-1-1.5-.8-.3.1-.5.4-.5.7 0-.1.1-.2.1-.3 0-.6-.8-.9-1.1-.5l-.3.3c-.3 0-.6-.1-.8-.1-.1 0-.3.1-.4.2-.8-1.3-1.9-2.3-3.2-3-.3-.2-.6-.4-.9-.5-1-1.2-1.9-2.4-2.9-3.6-.4-.5-1.1-.1-1.1.4-.9-.8-1.9-1.3-3.1-1.7-.4-.1-.7.1-.8.5-.6-.1-1.3-.1-1.9 0-1.2-1.5-3-3-4.9-3.2-1.5-.2-3.4 1.3-2.3 2.9.1.1.2.2.3.2-1.3.2-2.5.8-2.8 2.2-.2.7 0 1.5.4 2.1.2.3.5.5.8.6.4.1 1.7-.1 1.8.3.2.5-.7 1.1-.9 1.3-.4.4-.9.8-1.1 1.3-.5.8-.5 2 0 2.8.4.7 1.2 1.1 2 1.1.4 0 .8-.1 1.2-.3l.5-.5c-.1 1.1.4 2.3 1.4 3 1.6 1.1 3.5.7 5.1-.2 0 1.6.2 3.3 1.7 4.2 1 .6 2.5.7 3.4-.1.4.7.3 2 .7 2.6.4.8 1.1 1.3 1.9 1.6 1.1.5 2.5.5 3.5 0 .2 1.4 1.3 2.7 2.8 2.9 1.5.3 2.9-.6 3.6-1.9.7 1.1 1.6 2.1 3 2.3.9.1 1.9-.1 2.6-.7.6.7 1.6 1.1 2.6 1 1.6-.2 2.5-1.6 3-3 1.2.7 2.6.9 3.9.4.3-.1.5-.5.4-.8.2.3.5 0 .4-.5zm-1.5-.5c.1.3.2.5.3.8h-.7l.1-.1c.1-.2.2-.4.3-.7z" />
		<path class="doomed_sundays_2"
			d="M158 30.1c-2-1-4.9-1.3-6.8.1-.8.6-1.3 1.6-.9 2.6.3.9 1.3 1.5 2.2 1.2.5-.2.8-1.1.2-1.4-2-.9-4.6-.8-5.6 1.5-.8 2 .9 4.3 3.1 3.7 1-.3.5-1.6-.4-1.4-2.2.3-3.8 2.7-2.7 4.8 1 1.9 4 2 4.9 0 .3-.6-.3-1.5-1-1-2.1 1.4-2 4.6.4 5.6s4.7-1.2 4.2-3.6c-.1-.7-1.3-.7-1.4 0-.3 2.1 2.3 2.4 3.6 1.5 1.5-1 2-3 1.3-4.6-.4.3-.9.5-1.3.8.7 1.1 2.3 1.1 3.2.2 1.2-1.3.3-3.1-.8-4.1l-.9 1.2c.9.6 2.1.6 2.9 0 1-.7 1.3-1.9 1-3.1-.6-2.4-3.7-3.5-5.9-2.4-.9.4-.1 1.7.8 1.3 1.1-.6 2.9 0 3.5 1.1.6 1.1-.3 2.7-1.6 1.8-.7-.5-1.6.6-.9 1.2.5.4 1.3 1.2.9 1.9-.1.2-.7.5-.9.2-.5-.8-1.7-.1-1.3.8.3.7.1 1.6-.3 2.2-.2.3-.5.5-.9.7-.2 0-.9 0-.9-.1h-1.4c.3 1.3-1 2.4-2.2 1.9-1.2-.5-1.3-2.2-.2-2.9l-1-1c-.5 1.1-2 1-2.4-.1-.5-1.3.7-2.3 1.9-2.5-.1-.5-.3-1-.4-1.4-1.3.3-1.7-1.2-1.1-2 .7-1.1 2.2-.9 3.2-.5.1-.5.1-.9.2-1.4-.6.2-.4-.7-.2-.9.4-.4 1-.6 1.5-.7 1.3-.3 2.6 0 3.8.5.7.1 1.5-1.2.6-1.7zM115.8 75c-1.7-2.1-5.5-5.7-8.4-3.6-1.7 1.2-1.3 4.2.9 4.5-.1-.5-.1-1-.2-1.5-1.9.6-3.8 2.4-3.4 4.6.4 2 2.5 3.2 4.4 2.3.9-.4.1-1.7-.8-1.3-2.5 1.1-4.2 4.3-2.3 6.7 1.6 2.1 5.2 1.5 5.7-1.2.1-.8-.9-1.3-1.4-.6-1.2 1.7-.6 4.1 1 5.3 2 1.5 4.7.7 6.4-.9l-1.1-1.1c-1.2 1.5-1.4 3.7-.1 5.2 1.3 1.5 3.6 1.7 5.2.7-.4-.3-.7-.6-1.1-.8-1.2 4.3 3.8 7.3 7.1 4.4-.4-.2-.9-.4-1.3-.5-.1 2 1.4 4 3.4 4.3 2 .3 3.9-1 4.5-2.9-.5.1-.9.1-1.4.2.9 1.4 2.1 3 3.9 3.1 1.4.1 2.8-.7 3.1-2.1-.5.1-.9.1-1.4.2 1.7 3.5 7 2.1 6.8-1.8-.4.2-.9.4-1.3.5 1.7 1.6 4.8 1.5 6.2-.5 1.4-2 .5-5-1.8-6v1.3c1.6-1.1 2.4-3.3 1.3-5.1-1-1.8-3.4-2.2-5.1-1.3.3.1.7.2 1 .3-.9-1.3-1.9-2.8-3.7-3.1-1.4-.2-2.8.5-3.1 1.9h1.4c-.7-2.9-4.6-4.1-6.8-2 .4.1.8.2 1.3.3-.5-2.7-4.1-3.8-6.1-1.9.4.1.8.1 1.2.2-1.3-2.6-4-4.1-6.9-4 .1.5.1 1 .2 1.5 1.1-.2 1.6-1.4 1.2-2.3-.6-1.5-2.8-2.1-4.1-2.7-1.4-.7-3.1-1.8-4.7-1.8-1.3 0-2.3.9-2.4 2.2-.1 1 1.4 1 1.5 0 .1-.7 1.1-.7 1.5-.6l.9.3c.7.3 1.4.7 2.1 1 .6.3 1.3.6 1.9.9.3.1.6.3.8.4 0 0 1.9 1 .9 1.2-.8.1-.6 1.5.2 1.5 2.4-.1 4.5 1.1 5.6 3.2.2.4.8.5 1.2.2 1.2-1.1 3.3-.3 3.6 1.3.1.6.9.7 1.3.3 1.4-1.3 3.9-.4 4.3 1.4.2.7 1.3.7 1.4 0 .3-1 1.5-1 2.3-.5.8.5 1.3 1.3 1.8 2 .2.3.7.5 1 .3 2.5-1.3 4.6 2.2 2.3 3.8-.4.3-.6 1.1 0 1.3 1.4.6 2.2 2.3 1.4 3.7-.8 1.4-2.9 1.5-4 .5-.4-.4-1.3-.2-1.3.5.1 2.4-2.9 3.3-4 1-.3-.6-1.2-.4-1.4.2-.2.9-1.2 1.2-2.1.9-1-.3-1.7-1.4-2.2-2.2-.4-.6-1.2-.4-1.4.2-1 2.9-5.1 2-5-1 0-.7-.8-.9-1.3-.5-2.2 1.9-5.4-.2-4.6-3 .2-.6-.5-1.2-1.1-.8-2.3 1.5-5.1-1.2-3.3-3.5.6-.7-.3-1.7-1.1-1.1-1.1 1.1-3 1.7-4.4.8-1.2-.7-1.5-2.3-.7-3.4-.5-.2-.9-.4-1.4-.6-.3 2-2.8 1.7-3.4 0-.6-1.7.8-3.2 2.2-3.8-.3-.4-.5-.9-.8-1.3-1.2.6-2.3-.9-2.1-2 .2-1.1 1.3-1.9 2.3-2.2.8-.3.6-1.4-.2-1.5-.6-.1-.5-1.1-.3-1.5.5-.9 1.7-.7 2.5-.4 1.7.6 3.1 2.1 4.3 3.5 1.1.6 2.1-.5 1.5-1.2z" />
	</g>
	<path class="doomed_sundays_4"
		d="M118.3 88c-.4-1.6-2.1-2.1-3.5-1.5-.6.3-1 .6-1.7.7-.7.1-1.4.1-2 .4-1.3.5-2.1 1.6-3.1 2.5-1.1 1-2.4 1.7-3.2 3-.9 1.4-.9 3.2.1 4.5l.2.2v.5c.5 1.5 1.9 1.8 3.3 1.6 1.4-.2 2.7-.8 4.1-1.2 1.5-.4 3-.8 3.9-2.1.8-1.2 1.2-2.8 1.5-4.2.2-.8.3-1.6.4-2.4.2-.8.2-1.4 0-2z" />
	<g>
		<path class="doomed_sundays_2"
			d="M118.9 98.5c.2-3.1 1-6 1.5-9 .2-1.5 0-2.9-1.4-3.7-1.1-.6-2.7-.4-3.9-.2-2.5.4-5 1.4-7 3.1-2 1.6-3.5 4-4.5 6.4-.3.7-.6 1.5-.9 2.2-.2.7-.6 1.5-.6 2.2 0 1 .8 1.8 1.8 1.7 1-.1 1.5-1.1 1.3-2-.2-.8-1.1-1.2-1.8-1h-.1c-.8.1-1.2 1.1-1 1.8.2.8 1 1.2 1.8 1h.1c-.6-.3-1.2-.7-1.8-1V99.3v.1l1-1h-.1c.5.1 1 .3 1.5.4l-.1-.1c.1.4.3.7.4 1.1-.1.2-.1.2 0-.1 0-.2.1-.3.1-.5.1-.3.2-.6.3-1 .2-.6.4-1.1.6-1.6.5-1.1 1.1-2.2 1.7-3.2 1.3-1.9 3.1-3.3 5.2-4.1 1.1-.4 2.2-.7 3.3-.7.2 0 .9-.1 1 0 .1.1-.2.9-.2 1.1-.5 3-1.3 5.9-1.4 9 .1 1.7 3.1 1.7 3.2-.2z" />
		<path class="doomed_sundays_2" d="M115.9 88.2c1 0 1-1.5 0-1.5s-1 1.5 0 1.5z" />
		<path class="doomed_sundays_2"
			d="M116.1 88.3c.6-.2 1.1.3 1.2.9.1.7-.4 1.3-.9 1.6-1.2 1-3 1.2-4.3 2.1-2.4 1.6-3.1 4.7-3.5 7.4-.1.8.9 1.4 1.4.6.1-.1.1-.2.2-.3.5-.8-.8-1.6-1.3-.8-.1.1-.1.2-.2.3.5.2.9.4 1.4.6.3-1.7.5-3.4 1.4-4.9.4-.7.9-1.3 1.6-1.7.8-.5 1.8-.8 2.6-1.1 1.4-.6 3-1.8 3.1-3.5 0-1.5-1.5-3.1-3.1-2.5-.9.2-.5 1.6.4 1.3z" />
		<path class="doomed_sundays_2"
			d="M108.7 99.8c0 .1 0 .1.1.2 0 .1 0 .2 0 0v.2c0 .2 0-.1 0 0s0 .1-.1.2c0-.1 0 0 0 0 0 .1-.1.1-.1.2-.1.2.1-.1 0 .1l-.3.3c.1-.1 0 0-.1 0s-.1.1-.2.1c-.2.1.1 0-.1 0-.1 0-.1 0-.2.1h-.5-.1c-.1 0-.3-.1-.4-.1h-.1c-.1 0-.1-.1-.2-.1s-.1-.1-.2-.1c0 0-.2-.1-.1-.1l-.6-.6c0-.1-.1-.1-.1-.2 0 0 0-.1-.1-.1-.1-.1-.2-.3-.3-.4-.2-.3-.7-.5-1-.3-.3.2-.5.7-.3 1 .8 1.3 2.1 2.6 3.7 2.4 1.5-.1 3.1-1.7 2.4-3.3-.2-.4-.5-.7-.9-.5 0 .2-.4.6-.2 1zM114.1 87.1c.2 1.7.9 3.4 1.9 4.8.1.2.3.2.5.1s.3-.3.1-.5c-1-1.3-1.6-2.8-1.8-4.4 0-.2-.2-.4-.4-.4-.1.1-.3.2-.3.4zM113 88.4c0 1.4.3 2.7 1 3.9.2.4.9 0 .6-.4-.6-1.1-.9-2.3-.9-3.5 0-.4-.7-.4-.7 0zM111.1 89.7c.3.7.6 1.4.9 2 .2.3.3.6.5 1 .1.2.3.4.4.7l.5-.5s.1.2.1.1l-.1-.1s0-.1-.1-.1c0 0-.1-.1 0 0v.2c-.2.1-.3.2-.5.3.2.1.4-.1.5-.3.1-.2-.1-.4-.3-.5-.2-.1-.4.1-.5.3 0 .2 0 .3.2.5.1.1.2.3.3.3.3.2.7-.2.5-.5-.1-.2-.3-.4-.4-.6-.2-.3-.3-.7-.5-1-.3-.7-.6-1.3-.9-2-.1-.2-.4-.2-.5-.1-.2-.1-.2.1-.1.3zM109.4 90.5c.7 1.3 1.5 2.6 2.4 3.8.1.2.3.2.5.1s.3-.3.1-.5c-.9-1.2-1.7-2.5-2.4-3.8-.2-.4-.9-.1-.6.4zM107.3 91.5c.9 1.3 1.9 2.4 3 3.5.3.3.9-.2.5-.5-1-1-2-2.2-2.9-3.4-.1-.2-.3-.2-.5-.1s-.2.4-.1.5zM105.6 94.7c1.1.9 2.2 1.8 3.2 2.7.1.1.4.1.5 0 .1-.1.2-.4 0-.5-1-.9-2.1-1.8-3.2-2.7-.2-.1-.4-.2-.5 0-.1.1-.2.4 0 .5z" />
		<path class="doomed_sundays_2"
			d="M105.4 97.2c1 .8 2.1 1.5 3.2 2.2.4.3.8-.4.4-.6-1.1-.7-2.2-1.4-3.2-2.2-.2-.1-.4 0-.5.1-.1.2-.1.4.1.5zM104.7 98.6c1.1 1 2.4 1.8 3.7 2.5.4.2.8-.4.4-.6-1.3-.7-2.4-1.5-3.5-2.4-.2-.1-.4-.2-.5 0-.2.1-.2.4-.1.5z" />
	</g>
	<path class="doomed_sundays_1"
		d="M95.5 100.2c-1.2-.2-2.3-.4-3.5-.4-1.9-.1-4.6-.3-6.1 1.2-1.3 1.4-1.2 3.6.2 4.8.9.8 2 .9 3.1.9 1.4 0 2.8 0 4.2.1.2 0 .3-.1.4-.1.1 0 .3 0 .4-.1 1.6-1.1 2.9-2.8 3.2-4.7.1-1.3-.9-1.5-1.9-1.7z" />
	<path class="doomed_sundays_7"
		d="M75.6 146.5c-1.3-.5-2.5-1-3.7-1.6-.6-.3-1.2-.6-1.8-1-.5-.3-1.1-.7-1.7-.9-.5-.2-1.2-.2-1.6.2-.5.3-.8.9-.7 1.5.1.6.7 1 1.1 1.3.4.3.9.6 1.4.8 1.2.5 2.5.6 3.8.4.2 0 .4-.2.4-.3.7.3 1.5.6 2.2.9 1 .2 1.3-1 .6-1.3z" />
	<g>
		<path class="doomed_sundays_1"
			d="M72.6 147.1c-1.9-.3-3.8-.7-5.7-1.2-.5-.2-1.1-.4-1.1-1 0-.3.2-.6.5-.8.7-.5 1.6-.5 2.5-.2.8.2 1.6.7 2.3 1.1 1.3.6 2.7 1.1 4.2 1.3" />
		<path class="doomed_sundays_2"
			d="M72.6 146.4c-1.4-.2-2.8-.5-4.2-.8-.4-.1-.7-.2-1-.3-.2-.1-.6-.1-.7-.3-.1-.1 0-.1-.1 0l.1-.1c.2-.2.5-.3.8-.3 1.3-.1 2.5.8 3.6 1.3 1.3.6 2.6 1 4 1.2.4.1.8-.1.9-.5.1-.4-.1-.9-.5-.9-1.8-.3-3.3-.9-4.9-1.7-1.4-.7-3.2-1.3-4.7-.3-.7.5-1.1 1.3-.6 2.1.4.7 1.1.9 1.8 1.1 1.8.5 3.6.9 5.5 1.1.4.1.8-.4.8-.8 0-.5-.4-.8-.8-.8z" />
	</g>
	<g>
		<path class="doomed_sundays_2"
			d="M71.5 147.7c8.3 2.5 17.4 1.9 25.3-1.7 7-3.2 12.8-8.8 16.4-15.5.5-.8-.8-1.6-1.3-.8-3.5 6.4-8.9 11.7-15.6 14.8-7.6 3.6-16.5 4.1-24.5 1.7-.8-.2-1.2 1.2-.3 1.5z" />
	</g>
	<g>
		<path class="doomed_sundays_2"
			d="M73.2 146.8c12.7 2 23.2-6.7 32-14.7.7-.6-.3-1.7-1.1-1.1-8.3 7.5-18.4 16.2-30.5 14.3-1-.1-1.4 1.4-.4 1.5z" />
	</g>
	<g>
		<path class="doomed_sundays_2"
			d="M96.2 106l-3.9.3c-1.5.1-3.2.4-4.6-.1-1.7-.6-2.5-2.6-1.6-4.2 1-1.6 3.3-1.8 5-1.8 2.2 0 4.3.4 6.4.9.9.2 1.3-1.2.4-1.4-2.2-.6-4.5-1-6.7-1-2.1 0-4.7.3-6 2-1.3 1.6-1.3 4 0 5.6 1.4 1.7 3.8 1.7 5.8 1.6 1.7-.1 3.5-.2 5.2-.3.9-.1.9-1.6 0-1.6z" />
	</g>
</svg>