<svg xmlns="http://www.w3.org/2000/svg" viewBox="0 0 200 200">
	<style>
		.fan_1 {
			fill: #e7f4df
		}

		.fan_3 {
			fill: #666
		}
	</style>
	<path
		d="M156.7 67.3c-1.2-4.1-3.3-7.8-5.5-11.4-2.1-3.6-4.4-7.1-7.2-10.2-5.5-6.1-13.3-10-20.9-12.9-7.7-3-15.9-4.7-24.2-5.1-7.8-.4-15.9.3-23.5 2.4-6.7 1.9-13.3 5.2-18 10.6-.7.9-1.4 1.8-2 2.7-.3.1-.5.2-.8.5-3.3 4.1-4.2 9.6-5.3 14.6-1.3 5.7-2.3 11.4-2.8 17.2-.4 5.7-.2 11.5 1 17.2 1.1 5.3 3.1 10.4 5.6 15.2 1.3 2.6 3 5.1 4.3 7.7 1.1 2.2 2 4.9 1.3 7.4-.2.2-.3.5-.4.9v.1c0 .1-.1.2-.1.2-.2.4-.2.9-.1 1.2-1 7.9-3.6 15.5-7.7 22.4-1.1 1.8-2.2 3.5-3.5 5.2-1.2 1.6-2.6 3.5-4.3 4.6-1.8 1.1-4 1.1-6 1.6-1.7.5-3.2 1.5-4.1 3.1-.8 1.4-1 3.2 0 4.6 1.2 1.6 3.2 1.8 5 2 4.2.5 8.5.8 12.4-1.1 7.1-3.3 8.7-12.4 10.6-19.2 2-7.3 4.3-15.6 10.4-20.6 1.5 1.5 2 3.7 2.2 5.8.4 3.2.4 6.5.5 9.7.3 6.5.4 13.1.5 19.6-3.6.1-6.9 1.5-9.7 3.9-.8.7-.4 2.3.7 2.5 3.8.9 7.8 1.5 11.7 1.8 1.4.1 3.2.4 4.5-.4 1.5-.9 1.6-2.6 1.5-4.2-.2-8.2-.1-16.3.1-24.5.1-1.8.1-3.6.2-5.4 0-.8 0-1.8.4-2.5.2-.5.9-1.4 1.6-1 .9.6.5 3.1.5 3.9 0 2.1.1 4.2.2 6.2.5 7.6 1.5 15.6 3.8 22.9.5 1.6 1.3 3 2.9 3.8 1.7.9 3.9 1.1 5.8 1.4 4.2.5 8.4 0 12.4-1.4 1.2-.4 1.5-2.1.4-2.7l-6.8-3.8c-1.6-.9-4.1-1.8-4.5-3.8-.4-2.3-.1-4.8-.1-7.1 0-2.6 0-5.1-.1-7.7 0-2.6 0-5.1-.1-7.7 0-1.1-.2-1.4 1-1.4 1.3 0 2.5.2 3.8.3 4.7.3 9.5.7 14.2 1 2.8 7.2 5.7 14.4 8.8 21.5.8 1.8 1.6 3.7 2.5 5.5.8 1.7 1.5 3.5 2.5 5.1 1.8 2.7 4.4 4.3 7.6 4.6 3.6.4 7.3-.8 10.7-2.1.6-.2 1.1-.7 1.1-1.4 0-1.6-1.1-2.6-2.5-3.1l-1.8-.6c-1-.3-1.8-1-2.6-1.7-3-2.5-5.8-5.4-8.2-8.6-2.4-3.2-4.4-6.6-6-10.2-1.6-3.6-2.8-8-1.5-11.9 1.3-3.9 5-6.5 7.8-9.2 3.2-3 6.2-6.3 9.1-9.6 2.7-3.2 5.5-6.5 7.5-10.2 2-3.7 3.1-7.7 3.6-11.9.5-4.3.6-8.6.7-12.9.3-4.6.1-9.2-1.1-13.4z"
		fill="#fd5a5c" />
	<path class="fan_1"
		d="M100.2 136.9c0 .4-.3.1 0 0 .3.1.5 0 .7 0 .7-.1 1.5.1 2.2.2l5.4.6c1.6.2 3.3.4 4.9.5 1.6.2 3.3.2 4.8.6 1.6.5 1.7 1.8 2 3.2.4 1.6.7 3.1 1.1 4.7.7 3 1.5 5.9 2.4 8.8 1.8 5.7 4.1 11.7 7.9 16.3 2.1 2.5 4.7 3.1 7.8 3.1 3.1 0 6.4.1 9.5-.4 2.5-.4 5.3-1.8 5.2-4.7-.1-3.9-4.6-4.6-7.6-4.3-1.9.2-1.9 3.2 0 3 1.3-.1 3-.4 4.1.5 1 .8.4 1.7-.6 2.1-.9.4-1.9.5-2.9.5-1.8.1-3.5.2-5.3.2-2.8.1-5.8.5-7.8-1.9-1.9-2.2-3.3-5-4.5-7.6-2.4-5.3-3.9-10.9-5.3-16.5-.3-1.4-.7-2.8-1-4.2-.3-1.4-.6-2.9-1.5-4.1-1.7-2.1-4.9-2-7.3-2.3-3.8-.4-7.5-.8-11.3-1.2-2.2-.2-6-.3-5.9 2.8 0 2 3 2 3 .1z" />
	<path class="fan_1"
		d="M147.2 166.2c-5.1-3-8.6-8-10.9-13.4-1.3-3.1-2.3-6.4-3.2-9.7-.4-1.5-.8-3-1.1-4.4-.4-1.8-.9-3.6-.5-5.4.6-2.8 3.1-4.5 5.1-6.2 1.4-1.1 2.6-2.4 3.8-3.7 2.4-2.4 4.7-4.8 7.2-7.1 3.6-3.2 6.9-7.1 8.9-11.5 2-4.2 3.3-8.7 3.9-13.3 1.3-9.8-.3-19.8-4.1-28.9-3.9-9.3-10-17.7-17.9-23.9-1.1-.8-2.1-1.7-3.3-2.3-1-.5-2-1-3-1.4-3.7-1.7-7.4-3.3-11.2-4.6-4.6-1.6-9.3-3.1-14.1-3.7-4.3-.6-8.7-.3-13.1 0-9.9.9-20.1 2.7-29.1 7.1C60.2 36 56.5 39 53.5 43c-1.9 2.6-3.1 5.6-4.2 8.6-1.2 3.2-2.3 6.4-3.3 9.7-1 3.3-1.8 6.6-2.3 10-.4 2.8-.4 5.6-.5 8.5.1 5-.2 10.2.5 15.3.6 4.7 2.7 8.9 5.2 12.9 2.1 3.5 4.6 6.8 7.2 9.9.3.3.5.7.8 1 .1.1.1.2.2.3.5.5 1.1.3.1 0-.2 0-.1-.3-.1-.1 0 .1.2.3.2.4.1.3.2.6.4.9.4 1.1.7 2.1.9 3.2.4 2.4-.7 4.9-1.3 7.2-.8 3-1.7 6-2.8 8.8-2.2 5.7-5.6 10.9-10.4 14.8-2.3 1.9-5 3.4-7.7 4.5-2.1.8-4.7 1.7-5.7 3.9-1.1 2.6 1 5 3.1 6.2 2.3 1.3 5 1.5 7.6 1.3 5.5-.4 11.8-1.5 14.6-6.8 1.5-2.9 2.5-6.1 3.6-9.1 1.3-3.3 2.5-6.7 3.8-10 1.3-3.4 2.6-6.8 3.8-10.3.3-.8.8-3.4 1.9-3.5 1.3-.2 2.3 1.7 2.8 2.6 1.3 2.7 1.4 5.9 1.5 8.8.1 3.6.2 7.2.2 10.8v4.9c0 1.3.1 2.9-.5 4.1-.7 1.2-2.1 1.3-3.3 1.4-1.3.1-2.6.1-3.9.6-2.4.9-4.2 3.4-2.9 6 1.4 2.6 4.5 3.2 7.3 3.3 3.5.1 7.1.1 10.6 0 1.3 0 2.5-.4 3.1-1.6.7-1.4.5-3.5.6-5 .2-6.9-.7-13.8-.9-20.7-.1-1.8-.1-3.5-.1-5.3 0-1.6-.1-3.4.4-5 .4-1.4 1.7-.4 2.1.5.6 1.4.4 3.3.5 4.8.3 7.3.5 14.6.9 21.9.1 2.5.4 5.4 2.5 7.1 2.3 2 6 2 8.9 2.2 3.4.3 7 .4 10.3-.2 2.5-.4 4.8-2.7 3.4-5.3-.6-1-1.5-1.8-2.7-2.2-1.6-.6-3.4-.4-4.9-1.2-2.6-1.3-3.9-4.2-4.4-6.9-.6-3.2-.3-6.5-.3-9.8v-10.5c0-1.9-3-1.9-3 0 0 3.6 0 7.2-.1 10.8 0 3.3-.2 6.6.3 9.8.4 2.7 1.5 5.4 3.5 7.4.9 1 2.1 1.7 3.3 2.2 1.4.5 3.2.3 4.6 1 1.1.6 1.2 1.3 0 1.7-1.5.4-3.3.3-4.8.4-3.3.1-6.8 0-10-.7-1.4-.3-2.6-.8-3.1-2.3-.5-1.3-.5-2.7-.5-4-.1-3.5-.3-7-.4-10.5-.1-3.5-.3-7-.4-10.5-.1-2.8.2-6.5-2.2-8.5-2-1.6-5-1.3-6 1.2-.5 1.2-.5 2.7-.6 4-.1 1.8-.1 3.7-.1 5.5.1 6.8 1 13.6 1 20.5 0 1.6 0 3.2-.2 4.8-.1.9.2 1.2-.8 1.2h-8.2c-1.5 0-3 .1-4.5-.2-.9-.2-2.7-.9-2.4-2.1.2-1 1.8-1.3 2.6-1.4 2.7-.4 5.6-.1 7.3-2.7 1.6-2.4 1.1-5.7 1.1-8.3 0-3.4-.1-6.9-.2-10.3-.1-5.3.3-13.1-4.7-16.5-2.3-1.6-5.1-.9-6.3 1.6-1.5 3-2.4 6.4-3.6 9.5-2.5 6.6-4.9 13.2-7.4 19.7-1.1 2.8-2.3 5.2-5.2 6.4-2.4 1-5.3 1.4-7.9 1.6-2.3.2-5 .1-6.9-1.4-.8-.6-1.6-1.4-.7-2.3.8-.9 2.1-1.3 3.2-1.7 5.4-2.1 10.2-5.5 13.9-10 3.8-4.6 6.3-10.2 8.1-15.9.9-2.8 1.6-5.7 2.3-8.6.6-2.3.4-4.3-.2-6.6-.4-1.3-.8-3.3-2-4.2-.8-.6.6.8 0-.1-.3-.4-.6-.7-.9-1.1-2.5-3.1-4.9-6.3-7-9.7-2.4-3.9-4.2-7.9-4.6-12.5-.4-5-.2-9.9-.1-14.9.1-3.1.2-6.1.8-9.2.6-3.2 1.5-6.4 2.6-9.5 2-6.2 3.8-12.7 8.4-17.6 6.3-6.8 16.1-9.4 25-11.1 4.7-.9 9.5-1.5 14.3-1.7 4.2-.2 8.3-.1 12.4.8 7.9 1.7 15.6 4.8 22.9 8.3 2.7 1.3 4.9 3.3 7.1 5.3 3.6 3.4 6.8 7.2 9.4 11.4 5.1 8.2 8.2 17.6 8.6 27.2.4 9.4-1.7 19.6-7.8 27-2 2.5-4.4 4.5-6.7 6.7-2.9 2.8-5.4 5.9-8.4 8.5-1.9 1.7-3.9 3-5.2 5.2-1.7 2.7-1.5 5.8-.8 8.8 1.4 6.2 3.1 12.6 6 18.3 2.5 4.8 6 9.2 10.8 11.9 1.4 1.3 2.9-1.3 1.3-2.3z" />
	<path class="fan_1"
		d="M113.1 71.1c.1 0 .2-.1.2-.1h.1c.1-.1-.1 0 .1 0 .2-.1.3-.1.5-.1H114.3c-.1 0 0 0 0 0 .1 0 .1 0 .2.1h.2c.1 0 0 0 0 0l.1.1.1.1s0-.1 0 0v.1c0 .1 0-.1 0 0v.2s0 .1-.1.1c0 0 .1-.1 0 0-.1 0 .1 0 0 0-.2 0-.4.2-.4.4s.2.4.4.4c.3 0 .6-.2.7-.5.1-.3.2-.6.1-.9-.2-.6-.9-.9-1.6-.8-.4.1-.8.2-1.2.4-.2.1-.2.4-.1.5 0 .1.2.1.4 0z" />
	<path class="fan_3"
		d="M132.2 60.1c-6-4.7-13.9-5.9-21.2-6.9-9.3-1.2-18.7-1.2-28.1-1.4-.8 0-1.5.1-2.2.4-.7-.4-1.5-.6-2.4-.6-5.8-.1-12.1.5-16.2 5.1-4.5 5-4.5 13.8-4.8 20.1-.3 6.3 2 13.3 8.5 15.5 3.2 1 6.5.4 9.8 1.1 4 .9 7.3 2.5 11.5 2.4 7.9-.1 15.4 1 23.2 1.4 6.6.4 15.7.2 21.5-3.6 5-3.3 6.6-10.7 7.3-16.3.6-6.6-1.5-12.9-6.9-17.2z" />
	<path class="fan_1"
		d="M102.4 51.4c-8.8.1-17.7-1.6-26.5-.8-7.1.6-16.1 2.8-19.2 10.1-1.6 3.8-1.8 8.2-1.6 12.3.2 4.4.8 9 2.3 13.2.6 1.8 1.5 3.5 3 4.8 1.5 1.3 3.4 2.1 5.3 2.8 4.1 1.6 8.3 2.7 12.5 3.5 8.5 1.6 17.2 2 25.9 1.9 4.3 0 8.6-.2 12.9-.4 4-.2 8-.4 11.7-2 6.7-2.8 10-9.6 10.9-16.5.5-3.6.6-7.5-.4-11.1-.9-3.5-3.5-6.4-6-8.9-2.2-2.2-4.7-3.5-7.7-4.5-2.8-.9-5.6-1.6-8.4-2.1-4.6-.9-9.3-1.6-14.1-2.1 0-.1-.3-.2-.6-.2-1.9-.2-1.9 2.8 0 3 3 .3 6 .7 9 1.2 5.2.8 10.6 1.8 15.5 3.7 2.8 1.1 4.8 3.2 6.6 5.5 1.1 1.3 2.1 2.6 2.7 4.2.6 1.7.8 3.4.9 5.2.2 6.1-.9 13.1-5.6 17.4-2.6 2.4-6.1 3.4-9.6 3.8-3.8.4-7.7.4-11.6.6-8 .2-16.1.3-24.1-.6-4-.4-7.9-1.1-11.8-2.1-3.6-.9-7.6-1.9-10.9-3.8-3.4-1.9-4.1-6.6-4.7-10.1-.7-4.1-1-8.3-.6-12.4.3-3.5 1.4-6.9 4.4-9.2 2.7-2 6.2-3.1 9.5-3.7 8-1.6 16.3-.3 24.3.1 2 .1 4 .2 6 .2 1.9 0 1.9-3 0-3z" />
	<path class="fan_1"
		d="M113.3 71.4c-.1-.3-.4-.4-.7-.3-.3.1-.5.3-.6.5-.2.2-.2.5 0 .8.1.2.4.4.7.4.6 0 .9-.7 1-1.2.1-.5 0-1.1-.6-1.1.1.2.1.5.2.7.3-.2.7-.4 1-.4.1 0 .2 0 .3.1.1.1.1.3.1.4v.4c0 .1-.1.1-.2.1-.2 0-.4-.2-.4-.5-.2 0-.5.1-.7.1 0 .3.1.6.1.9 0 .2.1.5.3.7.3.4 1 .3 1.2-.2.1-.3-.1-.4-.4-.5-.4-.1-1.2 0-1.4.5-.1.2 0 .5.2.7.2.2.5.2.8.2.5 0 1-.1 1.2-.6.2-.5-.1-1-.4-1.3-.2-.1-.5-.2-.7-.3-.1 0-.3-.1-.4-.1-.2 0-.3.1-.5.1.1 0 .1 0 .2-.1.1 0 .1.1.2.1 0 .1 0 .2.1.3l.1-.1v-.3c0-.2-.1-.3-.3-.4-.1-.1-.3-.2-.5-.2s-.3.1-.5 0c.1.2.2.3.3.5.1-.3.2-.7.5-.9.3-.2.5.1.7.3.3.4.9-.2.5-.5-.2-.2-.4-.4-.7-.5-.3-.1-.6-.1-.9 0-.5.3-.8.9-.9 1.4 0 .2.1.4.3.5h.7c-.1 0 .1 0 0 0v-.1s-.1.1-.1.2v.4c.1.2.3.3.5.2.1 0 .1-.1.3-.1.2.1.5.1.7.2.1 0 .1.1.1.1v.1s-.1.1-.1 0h-.6c-.1 0 0 0-.1.1v.1H114.6c-.1-.2-.2-.3-.4-.5l.1-.1s0 .1 0 0c0 0-.1-.1 0 0 0 0 0-.1-.1-.2-.1-.3-.1-.7-.1-1 0-.2-.2-.3-.4-.3s-.3.2-.3.4c0 .6.5 1.2 1.1 1.2.6 0 1.1-.5 1.1-1.1 0-.6-.2-1.3-.8-1.4-.6-.2-1.2.2-1.7.4-.1.1-.2.3-.2.4 0 .2.2.3.4.3h-.1V71.2c0 .2 0 .4-.2.5 0 0-.1 0 0 0 0 0-.1 0 0 0 0 0 .1 0 0 0l.2-.2s.1 0 0 0c0 0-.1 0-.1-.1-.2.8.5.4.2 0zM79.6 68.7c-.3.5-.4 1.2.2 1.5.6.3 1.2-.1 1.5-.6.2-.3.3-.6.2-.9-.1-.3-.4-.5-.7-.6-.3-.1-.7-.2-1 0-.3.1-.5.4-.5.8 0 .2.1.3.3.4.2 0 .3 0 .4-.2.2-.3.3-.6.3-.9 0-.3-.2-.6-.5-.7-.3-.1-.7-.1-.9.2-.2.2-.3.5-.4.8-.1.3-.1.7.2.9.2.2.5.3.8.4.6.1 1.1-.2 1.5-.7.2-.2-.1-.6-.3-.6-.4 0-.7.2-1 .5-.1.1-.2.3 0 .5.1.1.3.2.5.1.4-.3.7-.7.8-1.1 0-.2.1-.5 0-.7v-.1c-.1.2-.2.2-.1.2h.1c.1 0 .2 0 .3.1.2.1.4.2.5.3l.1.1v.1l-.1.1-.4.4c-.1 0-.1.1-.2.1 0 0-.1 0-.1-.1 0 .2 0 .3.1.5.1-.1 0 0 0 0s.1 0 0 0c0 0 .1 0 0 0H81.5c.1 0-.1 0 0 0 0 0 .1.1 0 0V69.8c0 .2-.2.3-.3.3-.2 0-.4-.1-.5-.3-.1-.2-.2-.3-.5-.3-.2 0-.3.3-.3.5.2.5.7.9 1.2.9s1-.4 1.1-.9c.1-.5-.1-1-.6-1.2-.4-.2-1 0-1.2.4-.1.2 0 .3.1.5.4.4 1 .3 1.4 0 .4-.3.9-.8.7-1.3-.1-.5-.7-.8-1.1-1-.3-.1-.6-.1-.9 0-.1.1-.2.1-.3.2-.1.2-.1.3 0 .5.1.4-.1.8-.4 1.1.2.2.3.4.5.6.1-.1.3-.2.4-.2l-.3-.6c-.1.2-.4.3-.7.3-.1 0-.2 0-.3-.1-.1 0-.1-.1-.1-.2 0-.2.1-.3.2-.5 0-.1.1-.2.2-.2v.1c0 .2-.1.3-.2.4.2.1.5.1.7.2v-.1h.1c.1 0 .3 0 .5.1 0 0 .1 0 .1.1 0 0 0-.1 0 0s-.1.3-.2.4c-.1.1-.1.2-.2.2h-.2c0-.1 0 .1 0 0 0 0 0-.1 0 0 0-.1.1-.2.1-.4 0-.7-.7-1.1-.9-.6z" />
	<path class="fan_1"
		d="M79.1 68.6c-.3.3-.4.8-.2 1.3.1.2.3.4.5.4.3.1.5.1.8.1.2 0 .5-.1.7-.2.2-.1.2-.4.1-.5-.1-.2-.3-.2-.5-.1h-.1s-.1 0-.2.1c-.1 0-.2.1-.3.1h.1-.3-.1s.1 0 0 0c0 0-.1 0-.1-.1.1 0 .1.1 0 0 0 0 0-.1 0 0v-.1c0-.1 0 .1 0 0v-.1-.1 0s0-.1 0 0v-.1c.1-.1.2-.4 0-.5 0-.3-.2-.4-.4-.2zM83.9 78.3c.5 1.4.9 2.8 1.5 4.1.4 1 1 2 2 2.5 2.6 1.2 4.8-1.8 6.3-3.5-.4-.1-.8-.1-1.2-.2 1.3 1.9 2.9 5.4 5.7 5.1 2.8-.3 4.3-3.8 5.6-5.8.5-.8-.8-1.6-1.3-.8-.6 1-1.2 1.9-1.8 2.9-.6.9-1.3 2-2.4 2.2-1.1.3-2-.7-2.6-1.5-.7-.9-1.3-1.9-1.9-2.8-.3-.4-.8-.5-1.2-.2-1 1.1-3.1 4.4-4.9 3-.7-.5-1-1.4-1.3-2.2-.4-1.1-.7-2.1-1.1-3.2-.2-.9-1.7-.5-1.4.4zM120.5 77.2c4.5-.8 9.1-1.1 13.6-.8 1 .1 1-1.4 0-1.5-4.7-.3-9.4 0-14 .9-.9.1-.5 1.6.4 1.4zM121.9 81c3.4.6 6.9 1.1 10.3 1.7.9.2 1.4-1.3.4-1.4-3.4-.6-6.9-1.1-10.3-1.7-1-.2-1.4 1.2-.4 1.4zM72.6 74.1c-4.7-2-9.7-3.5-14.7-4.4-.1.5-.1 1-.2 1.5.2 0 .3 0 .5.1 1 .1.9-1.4 0-1.5-.2 0-.3 0-.5-.1-.8-.1-1 1.3-.2 1.5 4.9.9 9.8 2.3 14.4 4.3.8.3 1.5-1 .7-1.4zM70.2 77.8h-8.9c-1 0-1 1.5 0 1.5h8.9c1 0 1-1.5 0-1.5z" />
	<path class="fan_3"
		d="M84.2 32.4c-.4-1.6-1.7-2.7-3.2-2.9-1.2-.2-2.4.2-3.6.4-.4-2.3-2.2-4.1-4.4-5.1-1.5-.7-3.1-1-4.6-1.6-1.4-.6-2.5-1.8-4-2.2-3.9-1-4.6 4.1-5.1 6.8-.6 3.5-.8 7-.4 10.5-.3.2-.5.6-.4 1.1.2 3.1 2.2 5.6 5.1 6.8 3.2 1.4 7 1.1 10.3.2 3.3-.9 5.9-2.8 7.8-5.6 1.4-2.3 3.2-5.6 2.5-8.4zM145.4 27.4c-2-3.8-6.5-.8-9 .7-1.6.9-3 1.9-4.5 3-1.4.9-2.9 1.8-4.6 1.9-.1 0-.3 0-.4.1-.3-.1-.6-.1-.9 0-2.4.7-3 3.7-2.8 5.9.2 2.4 1.3 4.6 3 6.4 3.7 4 9.6 4.6 14.8 4.6.5 0 1.1-.3 1.3-.7 1.5-3.5 3-7 3.8-10.7.6-3.5.9-7.9-.7-11.2z" />
	<g>
		<path class="fan_1"
			d="M61.6 41.4c-.6-2.2-.5-4.6-.4-6.9.1-2.6.3-5.1.7-7.7.1-.8.2-1.6.4-2.4 0-.3.1-.5.1-.8 0-.1.2-.4.1-.3.9-1.5 3.3-.3 4.3.3 1.5.8 3 1.6 4.4 2.6 3.1 2 5.8 4.5 8.2 7.3 1.3 1.4 3.4-.7 2.1-2.1-2.5-2.8-5.2-5.3-8.3-7.4-1.6-1.1-3.2-2-4.9-2.9-1.8-.9-3.9-1.8-5.9-1.1-1.3.4-2.5 1.4-2.9 2.7-.2.7-.3 1.4-.4 2.1-.4 2.7-.7 5.4-.9 8.1-.2 3.1-.3 6.4.4 9.4.6 1.7 3.5.9 3-.9zM145.3 48.3c.8-3.3 1.6-6.5 2.1-9.9.5-3.6 1.4-7.9-.4-11.2-.7-1.4-2-2.6-3.5-3-1.9-.6-3.9 0-5.7.8-3.7 1.7-7.3 4-10.7 6.2-1.2.8-.8 2.7.8 2.8.7 0 1.3-.2 1.8-.7 1.5-1.2-.6-3.3-2.1-2.1.1-.1.2-.1.3-.2.3.9.5 1.9.8 2.8 2.9-1.9 5.8-3.7 8.9-5.3 1.4-.7 3.1-1.8 4.8-1.5 1.2.2 2.1 1.4 2.4 2.6.5 1.7.3 3.5.1 5.2-.1 1.5-.3 2.9-.6 4.4-.5 2.8-1.2 5.6-1.9 8.4-.4 1.8 2.5 2.6 2.9.7z" />
		<path class="fan_1"
			d="M127.3 34c.7 1.6 1.1 3.5 2.7 4.6 2.1 1.5 5.3.5 6.8-1.4.8-1.1 1.6-2.2 2.5-3.2.4-.5.9-1 1.3-1.4.4-.4 1-1 1.5-1 1.3 0 .5 2.6.4 3.3-.2 1.6-.3 3.2-.4 4.8-.1 1.7-.2 3.5-.1 5.2.1 1.3.4 2.7 1.3 3.6.7.7 1.7-.4 1.1-1.1-.8-.8-.9-2.2-.9-3.2-.1-1.6 0-3.2.1-4.8.1-1.6.2-3.2.4-4.7.2-1.2.6-2.6-.1-3.7-1.7-2.7-4.7.7-5.9 2.1-.9 1-1.6 2.2-2.5 3.2-.8 1-2.3 1.6-3.7 1.4-2.1-.3-2.6-2.9-3.3-4.5-.3-.8-1.6-.1-1.2.8zM80.3 32.4c-1.1.6-2.3 2.2-3.6 2-1.6-.2-3.1-2-4.2-3-1.4-1.2-2.7-2.4-4.1-3.5-.9-.7-2.1-1.6-3.3-1.7-2.5-.1-2.5 3.3-2.7 5-.4 3.5-1.7 6.8-2.2 10.3-.1.9 1.3 1.4 1.4.4.5-3.3 1.6-6.4 2.1-9.6.2-1.2.2-2.4.5-3.6.1-.4.3-.9.7-.9.6-.1 1.3.5 1.8.8 2.7 1.9 4.9 4.5 7.6 6.4 1 .7 2.3 1.3 3.5.8 1.2-.4 2-1.5 3.2-2.1.9-.4.1-1.7-.7-1.3z" />
		<path class="fan_1"
			d="M65.2 26.4c-.9-1.4-1.5-2.9-1.7-4.6 0-.2-.2-.4-.4-.4s-.4.2-.4.4c.2 1.8.8 3.5 1.8 4.9.3.4 1 .1.7-.3zM67 27.5c-.4-1.9-.8-3.7-1.2-5.6-.1-.5-.8-.3-.7.2.4 1.9.8 3.7 1.2 5.6.1.4.8.2.7-.2zM68.8 28.4c-.4-1.6-.5-3.2-.4-4.8 0-.5-.7-.5-.8 0-.1 1.7 0 3.4.4 5 .2.4.9.2.8-.2zM70.5 30.3c-.3-1.9-.4-3.9-.3-5.9 0-.5-.7-.5-.8 0 0 2 .1 4 .4 6.1 0 .2.3.3.5.3.2-.1.3-.3.2-.5zM72.3 31.8c-.3-1.8-.3-3.6.1-5.4.1-.5-.6-.7-.7-.2-.4 1.9-.5 3.9-.1 5.8 0 .5.8.3.7-.2zM73.8 33.1c-.3-1.7-.1-3.4.4-5.1.1-.5-.6-.7-.7-.2-.6 1.8-.7 3.6-.4 5.5 0 .2.3.3.5.3.2-.1.3-.3.2-.5zM75.2 34.4c0-1.6.3-3.2.8-4.7.2-.5-.6-.6-.7-.2-.6 1.6-.8 3.2-.8 4.9 0 .5.8.5.7 0zM76.5 34.6c.1-1.5.5-3 1.2-4.4.1-.2.1-.4-.1-.5-.2-.1-.4-.1-.5.1-.7 1.5-1.1 3.1-1.3 4.7-.1.6.7.6.7.1zM63.8 28c-1-1.3-2.1-2.6-3.1-3.9-.1-.2-.4-.1-.5 0-.2.2-.1.4 0 .5 1 1.3 2.1 2.6 3.1 3.9.1.2.4.1.5 0 .1-.1.1-.3 0-.5zM63.3 30.6c-.8-.8-1.6-1.6-2.2-2.5-.1-.2-.3-.2-.5-.1s-.3.3-.1.5c.7 1 1.5 1.9 2.3 2.7.1.1.4.1.5 0 .1-.2.1-.4 0-.6zM63.2 33.4c-.8-.9-1.5-1.8-2.3-2.6-.1-.2-.4-.1-.5 0-.2.2-.1.4 0 .5.8.9 1.5 1.8 2.3 2.6.1.2.4.1.5 0 .2-.1.2-.3 0-.5zM62.5 35.5c-1.3-1-2.4-2.1-3.5-3.3-.3-.4-.9.2-.5.5 1.1 1.2 2.3 2.3 3.5 3.3.2.1.4.2.5 0 .2-.1.2-.3 0-.5zM142.9 31.2c.7-1.9 1.1-3.9 1.2-5.9 0-.5-.7-.5-.8 0-.1 1.9-.5 3.9-1.2 5.7-.1.4.7.6.8.2zM141.7 31.4c0-1.8.1-3.5.1-5.3 0-.5-.7-.5-.8 0 0 1.8-.1 3.5-.1 5.3.1.5.8.5.8 0zM140.2 32.1c.1-2 0-4.1-.3-6.1-.1-.5-.8-.3-.7.2.3 1.9.4 3.9.3 5.9-.1.5.7.5.7 0zM138.7 33.5c0-2-.2-4-.4-6 0-.2-.2-.4-.4-.4s-.4.2-.4.4c.3 2 .4 4 .4 6 .1.5.8.5.8 0zM137.5 35.4c-.2-2.4-.5-4.7-.9-7.1-.1-.5-.8-.3-.7.2.4 2.3.7 4.6.9 6.9 0 .5.8.5.7 0zM136.4 36.9c-.4-2.6-.9-5.1-1.3-7.7-.1-.5-.8-.3-.7.2.4 2.6.9 5.1 1.3 7.7.1.5.8.3.7-.2zM135.2 37.4l-1.2-6.3c-.1-.5-.8-.3-.7.2l1.2 6.3c0 .5.8.3.7-.2zM133.4 37.8c-.6-2-1.1-4-1.4-6-.1-.5-.8-.3-.7.2.4 2 .8 4 1.4 6 .1.5.8.3.7-.2zM131.1 36.9c-.7-1.1-.9-2.4-.8-3.7 0-.2-.2-.4-.4-.4s-.3.2-.4.4c-.2 1.4.1 2.9.9 4.1.3.3.9 0 .7-.4zM144.1 33c.4-.8.8-1.5 1.2-2.3.1-.2 0-.4-.1-.5-.2-.1-.4 0-.5.1-.4.8-.8 1.5-1.2 2.3-.1.2 0 .4.1.5.1.1.4.1.5-.1zM143.8 35.8c.5-1.1 1.3-1.9 2.3-2.6.2-.1.2-.3.1-.5s-.3-.2-.5-.1c-1.1.7-2 1.7-2.5 2.8-.1.2 0 .4.1.5.1.1.4 0 .5-.1zM143.5 39.6c.3-1.3 1.2-2.4 2.3-3 .4-.2 0-.9-.4-.6-1.3.8-2.3 2-2.7 3.5 0 .3.7.5.8.1zM143.6 42.5c.7-1.2 1.6-2.4 2.6-3.4.3-.4-.2-.9-.5-.5-1 1.1-1.9 2.3-2.7 3.6-.3.3.3.7.6.3zM77.9 34.3c.2-1 .6-2 1-2.9.1-.2 0-.4-.1-.5-.2-.1-.4 0-.5.1-.5 1-.8 2-1.1 3.1-.2.5.6.7.7.2z" />
	</g>
	<g>
		<path class="fan_1"
			d="M122.8 33.4c-2.5 3.1-1.4 6.9.1 10.2 1.5 3.4 3.8 6.1 7.3 7.5 3.2 1.3 6.8 1.8 10.2 1.5 1.7-.1 3.5-.5 5-1.2s3.4-2.2 2.4-4c-.3-.6-1.1-.9-1.7-.7h-.1c-1.8.6-1.1 3.5.8 2.9h.1c-.6-.2-1.1-.5-1.7-.7.2-.9.2-1.2-.1-.9-.1.1-.2.2-.4.3-.3.2-.6.4-.9.5-.5.3-1.1.4-1.7.6-1.2.3-2.5.3-3.7.3-2.5 0-5.1-.4-7.4-1.4-2.5-1.2-4.1-3-5.3-5.5-.9-2-2.5-5.3-.9-7.3 1.3-1.5-.8-3.6-2-2.1z" />
	</g>
	<g>
		<path class="fan_1"
			d="M79.9 30.7c1.7 2.2 3.6 5.6 2.2 8.3-1.4 2.7-4.8 4.5-7.6 5.4-3.3 1.1-6.9 1.9-10.3.7-2.4-.8-4.7-2.1-4.4-5 .2-1.9-2.8-1.9-3 0-.4 3.8 2.4 6.1 5.6 7.5 4.2 1.7 8.8 1.1 13-.3 3.6-1.3 7.8-3.5 9.5-7.1 1.8-3.7 0-8-2.3-11-.5-.6-1.3-1-2.1-.5-.7.3-1.1 1.3-.6 2z" />
	</g>
</svg>