<svg xmlns="http://www.w3.org/2000/svg" viewBox="0 0 200 200">
	<style>
		.influencer_0 {
			fill: #10101a
		}

		.influencer_1 {
			fill: #e7f4df
		}

		.influencer_2 {
			fill: #ccc
		}

		.influencer_3 {
			fill: #fc9
		}

		.influencer_4 {
			fill: #79a2d8
		}

		.influencer_5 {
			fill: #fd5a5c
		}

		.influencer_7 {
			fill: #ffc
		}
	</style>
	<path class="influencer_0"
		d="M39.7 93.4c-2.4.5-4.1 1.9-5.7 3.8-1.5 1.9-2.9 4.1-4.7 5.7-1.8 1.6-4.2 2.6-6.6 2.9-1.3.1-2.6.1-3.9-.4-2.4-1-3.9-3.6-3.9-6.1 0-2.6 1.4-5 3.3-6.7s3.2-2.3 6.1-3.3c-.9-.5-1.7-2.7-1.7-2.9.1-.4 1.1.2 1.5.2 2.8.4 5.5-.9 8.2-1.9s5-.4 7.7.3" />
	<path class="influencer_1"
		d="M39.3 92c-3.9.9-6.1 3.9-8.4 6.9-2.4 3.1-5.7 5.9-9.9 5.5-3.8-.3-5.3-4.4-3.9-7.7 1.4-3.2 4.7-4.9 7.8-5.9 1.2-.4 1.5-2 .4-2.7-.3-.2-.5-.7-.7-1-.1-.2-.1-.3-.2-.5s0-.6-.1-.1c-.1.4-.3.7-.4 1.1l.1-.1c-.4.1-.7.3-1.1.4.3 0 .7.2 1 .3.8.2 1.6.1 2.4.1 1.6-.2 3-.6 4.5-1.1 1.4-.5 2.8-1.1 4.3-1.2 1.6-.1 3.2.3 4.7.8 1.9.5 2.7-2.4.8-2.9-2.4-.7-4.9-1.2-7.4-.6-2.6.5-4.9 2.1-7.5 2.2-1.4.1-4.3-1.3-4.3 1.3 0 1.5 1.2 3.3 2.4 4.1.1-.9.2-1.8.4-2.7-2.9 1-5.8 2.4-7.9 4.8-2.2 2.5-3.4 6.2-2.2 9.4 2.9 7.8 12.9 5.8 17.5.8 2.7-2.9 4.4-7.1 8.6-8 1.8-.7 1-3.6-.9-3.2z" />
	<path class="influencer_1"
		d="M20.2 105.2c-.6-2-.9-4.1-1-6.3 0-1 0-2.1.2-3.1.1-.5.2-1 .3-1.6 0-.2.3-1.6.3-1.6.5 0 .5-.7 0-.8-.4 0-.5.2-.7.5-.2.6-.3 1.3-.4 1.9-.2 1.2-.4 2.4-.4 3.7-.1 2.5.3 5 1 7.4.1.6.8.4.7-.1zM22.9 105.5c-.4-.7-.4-1.8-.4-2.6 0-1.5 0-3 .1-4.5.1-1.6.3-3.2.6-4.7.1-.6.3-1.3.4-1.9.1-.2.1-.5.2-.7 0-.1.1-.2.1-.3 0-.1.2-.3.1-.2-.1-.1-.3-.1-.4-.2v-.2c.1-.1.2-.2.4-.3-.5 0-.5.7 0 .8.2 0 .3-.1.4-.3 0-.1 0-.3-.1-.4-.1-.1-.3-.2-.4-.2-.5.2-.6.8-.8 1.3-.2.6-.4 1.3-.5 1.9-.3 1.7-.6 3.4-.7 5-.1 1.7-.2 3.3-.2 5 0 .9 0 2.1.5 2.9.3.4 1 0 .7-.4z" />
	<path class="influencer_1"
		d="M21.6 105.1c-.7-.9-.6-2.1-.6-3.2-.1-1.2-.1-2.4 0-3.6.1-1.2.2-2.4.4-3.6.1-.6.2-1.1.3-1.7.1-.3.1-.5.2-.8.1-.2.1-.8.3-1-.2 0-.3 0-.5.1h.1c-.1-.1-.1-.2-.2-.3v.1c0 .5.7.5.8 0V91c0-.1-.1-.3-.2-.3h-.1c-.2-.1-.3-.1-.5.1-.3.3-.4.9-.5 1.3-.2.7-.3 1.4-.5 2.1-.2 1.3-.4 2.6-.5 3.9-.1 1.4-.1 2.7 0 4.1.1 1.1 0 2.4.7 3.3.5.4 1.1 0 .8-.4zM24.2 105.8c-.5-4 0-8.1.6-12 .1-.9.3-1.9.5-2.8.1-.4.2-.9.2-1.3 0-.1-.1-.2 0-.2v.1c.1-.3.2-.7.2-1.1.1-.2.2-.5.2-.7.1-.3.2-.3-.1-.2.5-.1.3-.9-.2-.7-.4.1-.6 1.1-.7 1.4-.1.4-.5 1.2-.2 1.6 0-.1-.1-.2-.1-.4-.5 2.7-.9 5.3-1.2 8.1-.3 2.7-.5 5.5-.2 8.2.3.4 1 .4 1 0z" />
	<path class="influencer_1"
		d="M25.4 104.4c-.4-3.1.4-6.2.9-9.3.5-3 1.1-6 2.2-8.8h-.7c0 .1.1.2.1.3.1.5.9.3.7-.2 0-.1-.1-.2-.1-.3-.1-.4-.6-.3-.7 0-1.2 3.1-1.8 6.2-2.4 9.5-.5 3-1.2 6-.8 9 .2.4.9.2.8-.2z" />
	<path class="influencer_1"
		d="M26.8 104.4c.2-3.2.5-6.4 1-9.5.3-1.5.6-3 .9-4.4l.6-2.1.3-.9c.1-.2.4-1.1.4-1.1-.1-.1-.3-.1-.4-.2V85.9v.1c.1-.1.3-.1.4-.2-.5-.1-.7.6-.2.7.1 0 .4 0 .4-.2.1-.2.1-.3 0-.5-.1-.1-.3-.2-.4-.2-.4.1-.5.6-.7 1-.3.7-.6 1.4-.8 2.2-.5 1.7-.9 3.4-1.2 5.2-.6 3.4-1 6.9-1.2 10.4.1.5.9.5.9 0z" />
	<path class="influencer_1"
		d="M28.5 103.6c.1-6.3 1.8-12.3 3.5-18.3-.2 0-.5.1-.7.1.1.1.1.2.2.3.2.4.9.1.6-.4 0-.1-.1-.2-.1-.3-.1-.3-.6-.2-.7.1-1.7 6-3.5 12.2-3.5 18.5 0 .5.7.5.7 0z" />
	<path class="influencer_1"
		d="M30 101.9c.1-3 .8-5.9 1.6-8.8.4-1.4.8-2.7 1.1-4.1.4-1.4.7-2.8 1.4-4.1-.2 0-.5-.1-.7-.1 0 .1.1.2.1.3.2.4.9.3.7-.2 0-.1-.1-.2-.1-.3-.1-.3-.5-.4-.7-.1-.7 1.2-1.1 2.6-1.4 3.9-.4 1.5-.8 2.9-1.2 4.4-.8 2.9-1.5 5.9-1.6 9 0 .5.7.5.8.1z" />
	<path class="influencer_1"
		d="M31.7 100c.3-2.6.6-5.2 1.1-7.8.2-1.2.5-2.4.9-3.6.2-.6.4-1.2.6-1.9.1-.3.2-.5.3-.8 0-.1.3-.9.3-.9-.1-.1-.3-.1-.4-.2v-.2c.2-.1.3-.2.5-.3-.5-.1-.7.6-.2.7.2 0 .4-.1.5-.3.1-.2 0-.3-.1-.4-.1-.1-.3-.2-.4-.2-.4.2-.5.5-.7.9-.3.7-.5 1.4-.8 2-.5 1.3-.8 2.7-1.1 4.1-.6 2.8-.9 5.7-1.2 8.6-.1.8.7.8.7.3z" />
	<path class="influencer_1"
		d="M33.5 97.8c.2-2.3.4-4.6.8-6.8.2-1 .4-2 .8-3 .2-.5.4-1 .6-1.4.1-.2.3-.5.4-.7 0-.1.4-.6.3-.6-.1-.1-.2-.2-.4-.3 0-.1.1-.2.1-.4.2 0 .3 0 .5-.1-.4-.2-.8.4-.4.6.1.1.3.1.5-.1.1-.1.2-.3.1-.4-.1-.1-.2-.3-.4-.3-.4 0-.6.4-.8.7l-.9 1.5c-.5 1.1-.9 2.2-1.1 3.4-.5 2.5-.7 5.1-.9 7.7 0 .6.7.6.8.2z" />
	<path class="influencer_1"
		d="M34.8 96.3c.4-2 .4-4.1.9-6.1.4-1.9 1.2-3.6 2.3-5.2.3-.4-.4-.8-.6-.4-1 1.6-1.8 3.4-2.3 5.2-.5 2.1-.5 4.2-.9 6.3-.2.5.5.7.6.2z" />
	<path class="influencer_1"
		d="M35.9 95.2c.2-1.7.4-3.4.7-5.1.3-1.6.9-3 1.7-4.4.3-.4-.4-.8-.6-.4-.9 1.4-1.5 2.9-1.8 4.6-.3 1.7-.5 3.5-.7 5.3-.1.5.7.5.7 0z" />
	<path class="influencer_1"
		d="M37.8 93.7c0-1.4 0-2.8.1-4.2l.3-2.1c.1-.4.2-.7.3-1 .1-.3.2-.8.4-1-.1 0-.2.1-.3.1h.1c-.1 0-.2-.1-.3-.1 0-.1-.1-.2-.1-.3v.1c0 .5.7.5.8 0 0-.3-.2-.5-.5-.5-.4 0-.5.4-.6.7-.3.9-.5 1.8-.7 2.7-.3 1.8-.3 3.7-.2 5.6 0 .5.7.5.7 0z" />
	<path class="influencer_1"
		d="M39.4 93.2c0-1.3-.1-2.6-.1-3.9v-1.9c0-.3.1-.7.1-1 0-.1.1-.3.1-.4 0-.1.1-.5.1-.4-.2 0-.3 0-.5-.1 0-.1-.1-.2-.1-.4.1-.1.2-.2.4-.3-.5 0-.5.8 0 .8.2 0 .3-.1.4-.3 0-.2 0-.3-.1-.4-.1-.1-.3-.1-.5-.1-.3.1-.3.5-.4.7-.1.3-.1.7-.2 1-.1.7-.1 1.4-.1 2.1 0 1.5.2 2.9.1 4.4 0 .7.8.7.8.2z" />
	<g>
		<path class="influencer_1"
			d="M18.9 104.7c-1.2-3.4-1.7-7-1.3-10.6-.2.1-.3.2-.5.4.2 0 .3.1.5.1.5.1.7-.6.2-.7-.2 0-.3-.1-.5-.1-.3 0-.4.1-.5.4-.4 3.7.1 7.4 1.3 10.8.3.4 1 .2.8-.3z" />
	</g>
	<g>
		<path class="influencer_0"
			d="M31.4 66.8c0-.8.4-1.6 1-2.2.7-.6 1.5-.6 2.4-.6 1.3 0 1.2-5.4 2.4-5.3v-.2c.8-2.8 2.1-5.3 3.3-7.9-.3-1.9-.6-3.9-.8-5.8-.2-2.2-.5-4.8.8-6.8.5-.8 1.3-1.5 2.3-1.7 1.2-.3 2.4.2 3.4.7 2.1 1.2 4 2.6 5.9 4.1 9.7-4 21-4.1 30.7 0 .9-.7 1.8-1.3 2.8-1.9 1-.6 2-1.1 3.1-1.5 1.1-.5 2.4-.9 3.6-.4.8.3 1.5.9 1.6 1.8.1.4.1.9.1 1.3.1 1.7.2 3.3.2 5 0 1.3-.1 2.5-.2 3.8l.2.2c1.9 3.5 4.4 6.8 5.5 10.6.2.1 1.4 7.2 2.3 7.5 1.7.6 3.2 1.8 3.1 3.8-.2 1.8-1.4 3.3-2.5 4.7-1.2 1.5.4-3.9-.4-2.2-.1.2-.2.3-.4.4.1 8.9-.7 18.4-6.6 25.4 0 .2.1.3.1.5.3 1 .5 2 .6 3 .1 1.1.2 2.2 0 3.3-.2 1-1 1.6-2 1.7-2.1.3-4.1-.7-5.8-1.8-.5-.4-1.1-.8-1.6-1.2-10.2 3.6-22.6 5.3-32.6.1-.1 0-.2-.1-.3-.1-.5-.3-1.3-.2-1.9-.1-.8.2-1.5.6-2.2 1-1.7.9-3.8 2.3-5.8 1.3-1.8-.9-2.2-3.2-2-5 .1-.6.2-1.2.4-1.8-1.3-1.7-2.7-3.3-3.9-5.1-1.3-2.1-2.2-4.4-3-6.6-1.4-3.9-2.2-7.9-1.8-12.1.2-2.2.8-3.5-.1-4.8-.9-1.5-1.9-3.3-1.9-5.1z" />
	</g>
	<g>
		<path class="influencer_1"
			d="M84.7 104.9c-9.7 3.3-21.7 5-31.1-.1-1.7-.9-3.2 1.7-1.5 2.6 10.1 5.5 22.9 3.9 33.4.4 1.8-.7 1-3.6-.8-2.9z" />
	</g>
	<g>
		<path class="influencer_1"
			d="M92.4 96.6c-.6.9-.4 2.1-.3 3.1.1.9.4 1.8.6 2.8.2.9.3 1.7.3 2.6 0 .5 0 .9-.1 1.4v.1c0-.1.1-.2.2-.3.1-.1.1-.1-.1 0h-.1c-1.5.2-3.1-.8-4.4-1.7-1.5-1.1-2.9-2.3-4.2-3.7-.6-.6-1.6-.6-2.1 0-.6.6-.6 1.5 0 2.1 1.5 1.6 3.2 3.1 5 4.3 1.8 1.2 3.9 2.2 6.1 1.9 1.2-.2 2.3-.8 2.6-2 .3-1 .2-2.3.1-3.3-.1-1.2-.4-2.3-.7-3.4-.1-.5-.2-.9-.3-1.4v-.8-.4.2c.4-.7.1-1.7-.5-2.1-.7-.4-1.6-.1-2.1.6z" />
	</g>
	<g>
		<path class="influencer_1"
			d="M44.3 99.5c-1.6-2.2-3.5-4.1-4.7-6.5-1.2-2.5-2.4-5-3.1-7.7-1.3-4.7-.6-9.2 1-13.7.6-1.8-2.3-2.6-2.9-.8-1.7 4.9-2.4 9.9-1.1 15 .7 2.7 1.8 5.4 3.1 7.9 1.3 2.8 3.3 4.9 5.1 7.4 1.2 1.5 3.8 0 2.6-1.6z" />
	</g>
	<g>
		<path class="influencer_1"
			d="M35.5 58.7c-1.2 1.4-2.4 2.9-3.3 4.5-.5.7-.8 1.5-1.2 2.3-.4 1-.8 2-.8 3 0 .9.4 1.9 1.1 2.5.8.7 1.8.9 2.9.8 2 0 4-.2 5.9-.4.8-.1 1.5-.6 1.5-1.5 0-.7-.7-1.6-1.5-1.5-1.6.2-3.3.3-4.9.4h-1.7c.2 0-.3-.1-.1 0-.2-.1-.1-.1 0 0l-.1-.2c0-.1-.1-.4 0-.2V68c.2-1.4 1.1-2.7 1.8-3.9.8-1.2 1.6-2.3 2.6-3.4.5-.6.6-1.5 0-2.1-.6-.4-1.7-.5-2.2.1z" />
	</g>
	<g>
		<path class="influencer_1"
			d="M94.9 100.8c6.4-6.8 7-16.1 6.9-25 0-1.9-3-1.9-3 0 .1 8-.2 16.7-6 22.8-1.3 1.5.8 3.6 2.1 2.2z" />
	</g>
	<g>
		<path class="influencer_1"
			d="M97.7 64.1c1 1.9 2.4 3.5 3.7 5.1.6.8 1.2 1.5 1.6 2.4.3.6.5 1.3-.1 1.7-.2.1-.4.2-.6.4-.5.3.3 0-.2.1-.3.1-.6.2-.9.2-.3.1-.7.1-1 .2-.4.1-.6.1-.8.1-1.1.1-2.8.1-3.7.9-1.4 1.4.7 3.5 2.1 2.1-.3.2-.3.2-.2.2-.3.1-.3.1-.2.1.1 0 .2-.1.3-.1.3-.1.6-.1.9-.1h.3c.2 0 .3 0 .5-.1.5-.1 1-.1 1.5-.2 1.8-.3 3.6-.8 4.7-2.4 1.5-2.2 0-4.8-1.4-6.6-1.4-1.8-2.9-3.5-4-5.5-.8-1.8-3.4-.3-2.5 1.5z" />
	</g>
	<g>
		<path class="influencer_1"
			d="M100.4 63.3c-.5-5.1-3.2-9.4-5.6-13.8-.9-1.7-3.5-.2-2.6 1.5 2.1 3.9 4.8 7.7 5.2 12.3.1.8.6 1.5 1.5 1.5.8 0 1.6-.7 1.5-1.5z" />
	</g>
	<g>
		<path class="influencer_1"
			d="M38.8 59.3c.1-.4.2-.7.4-1 0-.1.1-.2 0 0 0-.1.1-.2.1-.3.1-.2.2-.3.2-.5.3-.7.7-1.4 1.1-2.1.8-1.3 1.6-2.6 2.3-4 .3-.7.2-1.7-.5-2.1-.7-.4-1.7-.2-2.1.5-1.4 2.9-3.5 5.5-4.5 8.6-.2.8.3 1.7 1 1.8.9.3 1.7-.1 2-.9z" />
	</g>
	<g>
		<path class="influencer_1"
			d="M83.5 41.1c-9.9-4.3-21.2-4.6-31.3-.5-1.8.7-1 3.6.8 2.9 9.2-3.7 19.8-3.8 29 .2 1.7.8 3.3-1.8 1.5-2.6z" />
	</g>
	<g>
		<path class="influencer_1"
			d="M94.3 51.6c.6-1.6.7-3.4.7-5.1.1-1.7 0-3.4 0-5.1-.1-1.4-.1-2.8-1.4-3.8-2.2-1.6-5.2 0-7.3 1.1-2.3 1.2-4.4 2.8-6.3 4.6-1.4 1.3.7 3.4 2.1 2.1 1.4-1.4 2.9-2.6 4.6-3.6.9-.5 1.8-1 2.7-1.4.5-.2.9-.4 1.4-.5.2.1.4.1.6.1.1 0 .3.1.4.1.3.1 0 .1.1 0V40v.3c0 .5.1 1 .1 1.5.1 1.5.1 3 0 4.6 0 .9-.1 1.8-.2 2.6 0 .3 0 .1 0 0 0 .1 0 .2-.1.3 0 .2-.1.4-.1.6-.1.3-.2.7-.3 1-.3.8.3 1.6 1 1.8 1 .2 1.7-.3 2-1.1zM43.1 50.2c-.2-1.7-.5-3.3-.7-4.9-.1-.9-.1-1.9-.1-2.8 0-.9-.1-1.9.3-2.8.2-.5.6-1 1.1-1.1.8-.1 1.7.5 2.3.9 1.8 1.1 3.5 2.4 5.2 3.7.4-.9.7-1.7 1.1-2.6h-.2c.3.1.5.1.8.2-1.4-1.4-3.5.8-2.1 2.1.4.4.9.6 1.5.6 1.2.1 2.1-1.7 1.1-2.6-2-1.6-4.1-3.2-6.3-4.5-1.2-.7-2.5-1.2-3.8-.9-1.2.2-2.2 1-2.8 2-1.3 2-1 4.7-.9 7 .1 2.2.5 4.3.8 6.4.1.8 1.1 1.2 1.8 1 .7 0 1-.9.9-1.7z" />
		<path class="influencer_1"
			d="M51.4 42.4c-.4.8-.8 2.1-1.7 2.4-.6.2-1.5-.2-2-.7-.3-.3-.5-.7-.7-1.1-.2-.4-.5-.7-.7-1-.8-1.1-2.3-3.4-3.9-2-.6.5-.7 1.4-.6 2.1.1.9.1 1.9.1 2.8 0 1.1 0 2.2-.1 3.3-.1.7-.2 1.5-.7 2-.7.6.3 1.7 1.1 1.1 1.2-1.1 1.2-3.2 1.3-4.7v-3-1.3c0-.3-.1-.8 0-1.1.1-.2.1-.1.2-.1.3.2.6.5.8.8.5.6 1 1.3 1.4 2 .5.9 1 1.6 2 2 .7.3 1.6.5 2.4.3 1.4-.4 1.9-1.8 2.5-3 .4-.9-.9-1.7-1.4-.8zM80.5 45.6c.6.4 1.1 1 1.7 1.4.8.4 1.7.1 2.5-.3 1.8-1 3.2-2.5 5-3.5.2-.1.7-.5.9-.4.1 0 .1.2.2.3.2.6.1 1.4.1 2 .1 2 .7 4 .8 6.1.1 1 1.6 1 1.5 0-.1-1.7-.5-3.3-.7-5-.1-.7-.1-1.4-.1-2.1 0-.6 0-1.2-.2-1.7s-.6-1-1.2-1.1c-.7-.2-1.3.2-1.9.5-1.4.8-2.7 1.9-4.1 2.9-.5.4-1.4 1.2-2.1.9-.3-.1-.6-.4-.8-.7-.3-.3-.6-.5-.9-.7-.8-.4-1.5.9-.7 1.4z" />
		<path class="influencer_1"
			d="M91.1 42c.7-.9 1.2-1.9 1.4-3 0-.2-.1-.4-.3-.5-.2-.1-.4.1-.5.3-.2 1-.6 1.9-1.2 2.6-.1.2-.2.4 0 .5.2.2.4.3.6.1zM90 42.4c.3-1.1.7-2.2 1-3.3.1-.5-.6-.7-.7-.2-.3 1.1-.7 2.2-1 3.3-.1.4.6.6.7.2zM88.9 42.8c.3-1 .5-2 .5-3.1 0-.5-.8-.5-.8 0 0 1-.2 2-.5 2.9-.1.2.1.4.3.5.2 0 .4-.1.5-.3zM87.7 43.9c.3-1.2.5-2.5.5-3.7 0-.2-.2-.4-.4-.4s-.4.2-.4.4c-.1 1.2-.2 2.4-.5 3.5 0 .5.7.7.8.2zM86.6 44.8c.3-1.2.4-2.4.2-3.6 0-.2-.3-.3-.5-.3-.2.1-.3.3-.3.5.1 1.1.1 2.2-.2 3.2 0 .4.7.6.8.2z" />
		<path class="influencer_1"
			d="M85.6 45.4c.3-1.1.3-2.3 0-3.4 0-.2-.3-.3-.5-.3-.2.1-.3.3-.3.5.2 1 .2 2 0 3 0 .5.7.7.8.2zM84.7 46c.1-1 0-2.1-.3-3-.1-.5-.9-.3-.7.2.3.9.3 1.8.2 2.8 0 .2.2.4.4.4s.4-.2.4-.4z" />
		<path class="influencer_1"
			d="M83.9 46c0-1-.2-2-.5-2.9-.1-.2-.3-.3-.5-.3-.2.1-.3.3-.3.5.3.9.5 1.8.5 2.7.1.5.8.5.8 0zM91.8 43.1c.7-.7 1.4-1.5 2.1-2.2.1-.1.2-.4 0-.5-.1-.1-.4-.2-.5 0-.7.7-1.4 1.5-2.1 2.2-.1.1-.2.4 0 .5.1.2.4.2.5 0zM92 44.7c.6-.4 1.1-.9 1.5-1.5.1-.1.1-.2.1-.3 0-.1 0-.2-.1-.3-.1-.1-.4-.2-.5 0l-1.5 1.5c-.1.1-.1.2-.1.3 0 .1 0 .2.1.3.1.1.2.1.3.1 0 .1.1 0 .2-.1zM91.9 46.5l1.5-1.5c.1-.1.1-.4 0-.5-.2-.1-.4-.1-.5 0L91.4 46c-.1.1-.1.4 0 .5.1.1.3.1.5 0zM92.1 47.8c.8-.6 1.6-1.2 2.4-1.9.1-.1.1-.4 0-.5-.2-.1-.4-.1-.5 0-.7.7-1.4 1.2-2.2 1.8-.2.1-.2.3-.1.5 0 .2.2.2.4.1zM43.7 40.4c-.3-1.1-.4-2.3-.4-3.5 0-.5-.7-.5-.8 0 0 1.2.1 2.5.4 3.7.2.4.9.2.8-.2z" />
		<path class="influencer_1"
			d="M44.4 40.7c.1-1.1.1-2.1.2-3.2 0-.2-.2-.4-.4-.4s-.4.2-.4.4c-.1 1.1-.1 2.1-.2 3.2 0 .2.2.4.4.4s.4-.2.4-.4zM45.3 41.2c0-1.2.2-2.4.5-3.5.1-.5-.6-.7-.7-.2-.3 1.2-.5 2.5-.5 3.7-.1.5.7.5.7 0zM46.1 42.2c.1-1.2.3-2.3.5-3.5.1-.5-.6-.7-.7-.2-.3 1.2-.5 2.5-.6 3.7 0 .2.2.4.4.4.3-.1.4-.2.4-.4zM46.7 43.5c.2-1.4.5-2.8.9-4.2.1-.5-.6-.7-.7-.2-.4 1.4-.7 2.8-.9 4.2 0 .2.1.4.3.5.1 0 .4-.1.4-.3zM47.3 44.5c.4-1.5.8-3.1 1.2-4.6.1-.5-.6-.7-.7-.2-.4 1.5-.8 3.1-1.2 4.6-.1.5.6.7.7.2zM48 44.9c.4-1.3.7-2.5 1.1-3.8.1-.5-.6-.7-.7-.2-.4 1.3-.7 2.5-1.1 3.8-.1.5.6.7.7.2zM49.1 45.2c.5-1.2.9-2.4 1.2-3.6.1-.5-.6-.7-.7-.2-.3 1.2-.7 2.4-1.2 3.6-.1.2.1.4.3.5.2 0 .3-.1.4-.3zM50.5 44.9c.5-.7.8-1.6.8-2.5 0-.2-.2-.4-.4-.4s-.4.2-.4.4v.6s0 .1 0 0V43.3c0 .1 0 .2-.1.3-.1.2-.1.3-.2.5s-.2.4-.3.5c-.1.2 0 .4.1.5.2 0 .4 0 .5-.2zM42.8 41.3c-.2-.5-.4-1-.6-1.4 0-.1-.1-.2-.2-.2h-.3c-.1.1-.2.1-.2.2v.3c.2.5.4 1 .6 1.4 0 .1.1.2.2.2h.3c.1-.1.2-.1.2-.2.1-.2.1-.2 0-.3z" />
		<path class="influencer_1"
			d="M42.9 43c-.3-.8-.8-1.4-1.4-1.9-.1-.1-.2-.1-.3-.1-.1 0-.2 0-.3.1-.1.1-.2.4 0 .5.1.1.3.2.4.4l.2.2.1.1s.1.1 0 0c.1.1.2.3.3.4 0 .1.1.2.1.2s0 .1.1.1v.1c.1.2.3.3.5.3s.4-.2.3-.4zM42.8 45.4c-.2-1-.7-1.8-1.5-2.3-.2-.1-.4 0-.5.1-.1.2 0 .4.1.5h.1s.1.1 0 0l.1.1c.1.1.2.1.2.2.1.1.1.2.2.2 0 0 0-.1 0 0v.1l.1.1c.1.1.1.2.1.3 0 0 0 .1.1.1v.1c0-.1 0 0 0 0 .1.2.1.4.2.6 0 .2.3.3.5.3.3 0 .4-.2.3-.4zM42.6 47.1c-.4-.8-.9-1.6-1.4-2.3-.1-.2-.3-.3-.5-.1-.2.1-.3.3-.1.5.5.7 1 1.5 1.4 2.3.1.2.4.2.5.1.2-.2.2-.4.1-.5zM83.1 45.7c-.1-.6-.3-1.3-.5-1.9-.1-.2-.3-.3-.5-.3-.2.1-.3.3-.3.5.2.6.4 1.2.5 1.9 0 .2.3.3.5.3.2-.2.3-.3.3-.5z" />
	</g>
	<g>
		<path class="influencer_0"
			d="M91.3 51.4c-.4-.1-.7-.1-1.1 0-.1-.1-.2-.1-.3-.1-.4-.1-.9.1-1 .5-.1.4-.2.8-.4 1.2-.1.5-.3 1-.1 1.4.1.2.2.4.5.5.3.1.7.1 1 0 .2-.1.4-.3.6-.4.3-.3.6-.6.8-.9.3-.4.5-.8.6-1.2.1-.5-.2-.9-.6-1z" />
		<path class="influencer_2"
			d="M89.4 52.2c0-.4-.6-.8-1.1-.7l-9.3 3h-.1c-.4 0-.9.2-.9.7-.3 3.3-.3 6.6-.1 9.9 0 .5.9 1 1.4.5 1-1 2.3-1.7 3.5-2.5 1.3-.8 2.4-1.7 3.3-2.8 1-1.2 1.9-2.6 2.7-3.9.4-.6.6-1.3.7-2 0-.7-.2-1.5-.1-2.2z" />
		<path class="influencer_0"
			d="M46 52.3h-.2c-.8-.4-1.7-.7-2.6-.8-.5-.1-1.1.2-1.1.7 0 .7 0 1.5.3 2.1.3.7.9 1.3 1.2 1.9.2.3.2.8.5 1 .4.4 1.1.5 1.6.1.4-.3.4-.8.4-1.3 0-.4.1-.8.1-1.1 0-.4.1-.9.1-1.3.2-.4.3-1.1-.3-1.3z" />
		<path class="influencer_2"
			d="M54.4 54.8c-2.5-.5-4.7-1.3-6.8-2.4-.2-.1-.3-.1-.5-.1-.5-.3-1.3-.1-1.3.5 0 1.4-.1 2.8-.1 4.3 0 .6 0 1.2.4 1.8.3.5.8 1 1.3 1.5 1.7 1.9 3.6 3.7 6.2 4.7.6.2 1.2 0 1.3-.6.1-3 .3-6 .4-9-.3-.3-.6-.6-.9-.7z" />
		<path class="influencer_0"
			d="M78.6 61.7c-.1-1.9-.3-3.9-.6-5.8-.1-.4-.3-.7-.8-.7-3.7-.2-7.3.7-11 .8-1.9.1-3.7-.1-5.5-.5-1.1-.2-2.7-.9-3.9-.6-.5-.2-1.3-.1-1.4.6l-.6 5.7c-.1 1.4-.9 3.2.7 4.2 1.7 1 3.6 1.9 5.5 2.8 1.4.6 3.4 1.7 5.1 1.5.8-.1 1.5-.5 2.3-.8 1.1-.4 2.3-.7 3.4-1l3.3-.9c.9-.3 2.1-.4 2.9-.8.7-.3.7-.9.7-1.4-.1-1.2-.1-2.1-.1-3.1z" />
		<path class="influencer_2"
			d="M91.1 48.7c-.9.1-1.7.4-2.5.6-.9.3-1.8.5-2.7.8-2.8.8-6 1.5-7.9 3.6-.6.7.7 1.4 1.4.8.1 0 .3 0 .5-.1 2.1-.9 4.2-1.7 6.4-2.5 2.1-.8 4.3-1.6 6.6-.7.5.2 1.3 0 1.3-.6-.2-1.4-1.6-2.1-3.1-1.9zM92.2 52.8c-3.1 4.5-6.9 8.6-11.4 12.2-.6.5 0 1.3.8 1.2 2.5-.4 4.4-1.9 5.9-3.6 1.7-1.8 3.2-3.8 4.1-6 .1-.2 0-.3 0-.4.7-.9 1.4-1.8 2-2.8.6-.7-.9-1.4-1.4-.6zM54.1 65c-4.5-1.1-7.5-4.3-10.1-7.4-.1-.1-.2-.2-.3-.2-.2-.4-.4-.9-.6-1.3-.3-.8-2-.5-1.6.4 1 2.5 2.5 4.9 4.5 7 .9 1 1.9 1.8 3.3 2.3 1.4.5 3 .6 4.5.6 1-.1 1.2-1.2.3-1.4zM53.5 52.4c-.1 0-.1 0 0 0-.3-.4-.7-.8-1.2-1.1-.9-.5-1.9-.9-2.8-1.3-1-.5-1.9-.9-2.9-1.4-.7-.3-1.4-.8-2.2-.8-.2-.2-.6-.3-1-.1-1.2.6-1.9 1.6-2 2.8 0 .5.8.9 1.3.6.7-.5 1.6-.3 2.5-.2 1 .2 2 .5 2.9.8 0 .3.1.5.4.6 1.2.6 2.5 1 3.8 1.3.1 0 .2.1.4.1.1 0 .3.1.4.1h.2c.9.1 1.1-1.2.2-1.4z" />
		<path class="influencer_0"
			d="M81 51.6c-.2.1-.4.3-.7.4-.2.1-.2.3-.2.4 0 .1-.1.1 0 .2.2.4.4.7.8 1.1.1.1.3.1.5.1.2-.1.3-.2.3-.3V52c-.1-.4-.5-.6-.7-.4zM83.7 51.3c0-.1-.1-.2-.2-.3-.1-.1-.2-.1-.4-.1-.2.1-.3.1-.5.2-.1 0-.2.1-.3.2-.1.1-.1.2 0 .3v.1c.1.4.3.7.7 1 .1.1.3.1.5.1.1-.1.3-.2.3-.3 0-.5-.1-.8-.1-1.2zM86 51.1c0-.2 0-.3-.1-.5 0-.1 0-.2-.1-.2-.1-.1-.2-.1-.3-.1h-.6c-.2 0-.4.2-.4.3 0 .1.1.2.2.3.1.2.1.3.2.5v.2c0 .1 0 .2.1.3.1.1.2.1.3.2h.5l.3-.3c0-.4-.1-.6-.1-.7zM88 50.8s0-.1 0 0c0-.2-.1-.4-.2-.6 0 0 0-.1-.1-.1 0-.1-.1-.2-.2-.2s-.2-.1-.3 0c-.2.1-.4.2-.3.4.1.2.2.5.2.7.1.2.3.3.5.2.1 0 .2 0 .2-.1.1-.1.2-.2.2-.3zM89.5 49.8l-.3-.6c-.1-.2-.3-.3-.5-.2-.1 0-.2.1-.2.1-.2.1-.3.2-.2.4l.2.6c0 .1.1.2.1.3 0 .1.1.2.1.3.1.2.4.2.6.2.2 0 .3-.2.4-.3 0-.4-.1-.6-.2-.8zM90.6 48.5c-.1-.2-.3-.3-.5-.2-.2.1-.3.2-.3.4s.1.3.1.5v1.3c0 .2.2.4.4.3.2 0 .4-.2.4-.3.2-.7.1-1.3-.1-2zM91.9 48.4c-.1-.2-.3-.3-.5-.2-.2.1-.3.2-.3.4 0 .1 0 .2.1.2V49.7c0 .1 0 .2-.1.2 0 .2-.1.3-.2.5s.1.4.3.4c.2 0 .4-.1.5-.2.3-.7.4-1.5.2-2.2z" />
		<path class="influencer_0"
			d="M92.6 48.2c-.2 0-.4.2-.4.3 0 .7-.2 1.3-.4 2-.1.2.1.4.3.4.2 0 .4-.1.5-.2.3-.7.4-1.4.5-2.2 0-.1-.3-.3-.5-.3zM93.5 49.2c-.2 0-.4.2-.4.3V49.8c0 .1-.1.3-.1.4v.1c0 .1-.1.1-.1.2-.1.1-.2.2-.3.4-.1.2 0 .4.2.5.2.1.4 0 .6-.1.4-.5.7-1.1.8-1.7-.3-.2-.5-.4-.7-.4zM86.2 63.1c-.1-.3-.2-.6-.2-.8v-.2c0-.1-.1-.2-.2-.3 0-.2-.3-.3-.5-.2-.2.1-.3.2-.3.4 0 .1.1.2.1.4-.1.6-.2 1.2-.2 1.7 0 .1.1.3.3.3.2.1.3 0 .5-.1.1-.1.2-.1.3-.2.1-.1.2-.1.3-.2.1-.3 0-.6-.1-.8zM88.1 61.2c-.2-.6 0-1.3-.3-1.9-.1-.2-.3-.3-.5-.2-.2 0-.4.3-.3.4v.2c0 .9-.1 1.8-.1 2.7 0 .2.2.3.4.3.4 0 .7-.2.9-.6.2-.3 0-.6-.1-.9zM89.7 57.7c0-.1 0-.1 0 0v-.2-.1c0-.2-.3-.3-.5-.2-.2.1-.3.2-.3.4v.1c0 .6 0 1.3-.1 1.9 0 .3-.1.7.3.9.2.1.4.1.5 0 .1 0 .1 0 .2-.1.3 0 .4-.2.4-.4-.2-.8-.3-1.6-.5-2.3zM49.2 64.8c-.3-1-.5-1.9-.6-2.9 0-.2-.3-.4-.5-.3-.1 0-.1.1-.2.2-.2.1-.3.2-.3.4 0 .6.1 1.3.1 1.9 0 .3 0 .7.2 1 .1.1.3.1.4.2.2 0 .3.1.5.1s.3 0 .4-.1v-.5zM46.6 59.8c-.1-.3-.3-.4-.5-.4s-.4.2-.4.5c.1.8.1 1.6 0 2.4 0 .4 0 .8.2 1.2.2.4.6.5 1 .3.1-.1.2-.3.2-.4-.2-1.3-.3-2.5-.5-3.6zM44.8 58.2c-.1-.2-.3-.4-.5-.3-.2.1-.3.3-.3.5 0 .1-.1.1-.1.2l-.1 1.7c0 .3-.1.6.1.9.1.3.4.4.7.4.3-.1.4-.5.4-.8V60c0-.7-.1-1.3-.2-1.8zM44.8 48.1c-.2 0-.4.2-.4.3 0 .3 0 .6-.1.9 0 0 0 .1 0 0V49.6c0 .1-.1.3-.1.4-.1.2.1.4.3.4.2 0 .5-.1.5-.2.2-.6.3-1.2.3-1.8-.1-.1-.3-.3-.5-.3zM46.9 49.1c.1-.2-.1-.4-.3-.4-.2 0-.4.1-.5.2-.2.5-.5 1.1-.7 1.6v.3c.1.1.1.1.2.1.2.1.4 0 .5-.1l.8-1.3c.2-.2.1-.3 0-.4zM48.9 49.5h-.3c0-.1-.1-.2-.3-.2-.2 0-.5.1-.5.2-.1.6-.2 1.3-.3 1.9 0 .2 0 .3.2.4.2.1.4 0 .5-.1.3-.6.7-1.2 1-1.8.1-.2-.1-.4-.3-.4zM50.8 50.2c-.2 0-.3 0-.4.1 0-.1-.1-.2-.3-.2-.2 0-.5.1-.5.2-.1.5-.2 1.1-.3 1.6 0 .2 0 .3.2.4.2.1.4 0 .5-.1.4-.5.8-1.1 1.1-1.6 0-.1-.1-.3-.3-.4zM52.9 51.8c.1-.2-.1-.4-.3-.4-.2 0-.4.1-.5.2-.2.4-.3.9-.4 1.4 0 .1 0 .1.1.2 0 .1.1.1.2.1.2.1.3 0 .5-.1.4-.3.6-.7.7-1.2-.1 0-.2-.1-.3-.2zM43.8 47.8c-.2 0-.5.1-.5.2-.1.7-.3 1.4-.5 2.1 0 .2.1.4.3.4.2 0 .5-.1.5-.2.2-.7.3-1.4.5-2.1 0-.1-.1-.3-.3-.4zM42.6 48.2c0-.2-.2-.3-.4-.3s-.4.2-.4.3c0 .9.1 1.7.1 2.6 0 .2.2.3.4.3s.4-.2.4-.3c0-.9 0-1.7-.1-2.6z" />
		<path class="influencer_1"
			d="M62.4 67.7c-3.2-1-6.5-1.7-9.8-1.9-.8 0-1.6 0-2.4-.1-.8-.2-1.5-.8-2.1-1.3-1.2-1.1-2.2-2.2-3.2-3.5-.9-1.2-1.6-2.6-2.2-4-.7-1.7-.6-3.4-.8-5.2-.1-.7-.2-1.5 0-2.2.3-1.1 1.5-1.3 2.5-1.2 1.6.3 3.1 1.2 4.6 1.9.8.4 1.7.7 2.5 1.2.8.4 1.4 1 2 1.7 1.1 1.2 2.4 1.9 3.9 2.6.9.4 1.6-.9.8-1.3-.7-.3-1.5-.7-2.1-1.1-.8-.5-1.4-1.3-2.1-2-1.3-1.3-3.1-1.9-4.7-2.6-2.4-1.1-7.2-3.6-8.7.2-.3.7-.3 1.4-.2 2.1.1 1.1.1 2.3.2 3.4.2 1.7.8 3.3 1.6 4.8.8 1.6 1.8 3.1 3 4.4 1.1 1.2 2.4 2.6 3.9 3.3.9.4 1.7.4 2.7.4 1.2 0 2.4.1 3.7.3 2.3.3 4.5.9 6.8 1.6.6.2 1-1.2.1-1.5zM76.2 55.9c1.3-.6 2.2-1.6 3.2-2.5 1.3-1.3 2.6-1.8 4.4-2.1 1.7-.3 3.1-.6 4.6-1.5.9-.5 1.7-.9 2.8-.9.5 0 1 .1 1.4.2.8.3 1 .7.9 1.5-.3 1.7-1 3.5-1.7 5.1-.8 1.9-1.7 3.6-3.1 5.1-1.2 1.3-2.6 2.5-4 3.6-1.6 1.3-3.6.7-5.5 1-1.9.4-3.8 1.3-5.7 1.9-2 .6-4 1.1-6 1.5-.9.2-.5 1.6.4 1.4 2.1-.4 4.2-.9 6.2-1.5 2.1-.6 4.2-1.8 6.3-2 2-.1 3.6 0 5.3-1.3 1.7-1.3 3.4-2.8 4.7-4.5 1.2-1.5 2.1-3.3 2.8-5.1.7-1.8 1.7-4 1.7-6 0-1.7-1.8-2.4-3.3-2.5-.9-.1-1.8 0-2.6.3-1.1.4-1.9 1.2-3 1.5-1.9.9-4.1.7-6 1.9-1.7 1.1-2.7 2.8-4.5 3.6-.9.4-.1 1.7.7 1.3z" />
		<path class="influencer_1"
			d="M42.3 52.5c1.3-1.5 4.5.5 6 1 2.1.7 4.2 1.3 6.3 1.8 4.1.9 8.3 1.4 12.6 1.4 4.2 0 8.6-.3 12.7-1.3s8.4-4.7 12.7-3c-.1-.4-.2-.8-.3-1.3-3.1 3.3-5 7.6-8.4 10.5-3.4 2.9-7.7 4.6-12 6l-3 .9c-.8.2-2 .8-2.7.6-1.2-.2-2.5-.9-3.6-1.3-3.3-1.3-6.8-2.5-9.9-4.3-2.1-1.2-4.1-2.7-5.8-4.4-.8-.8-1.6-1.7-2.3-2.6-.7-1-2.2-2.6-2-3.9.1-.9-1.3-1.4-1.4-.4-.3 2.1 1.3 4 2.6 5.5 1.4 1.8 3 3.3 4.8 4.7 3.4 2.6 7.3 4.2 11.2 5.8 1.6.7 3.3 1.4 4.9 2 .4.2.9.4 1.4.4.9.1 1.9-.3 2.8-.6 4.6-1.4 9.3-2.8 13.4-5.5 2.2-1.4 4-3.1 5.6-5.1 1.9-2.4 3.4-5.1 5.5-7.4.4-.4.2-1-.3-1.3-4.5-1.8-8.5 1.6-12.6 2.7-4.5 1.3-9.4 1.6-14.1 1.5-4.7-.1-9.3-.7-13.8-1.9-2.2-.6-4.4-1.4-6.6-2.2-1.5-.6-3.5-1-4.7.4-.7.9.3 2 1 1.3z" />
	</g>
	<g>
		<path class="influencer_1"
			d="M60.9 71.9c.5 1.1 1 2.8 2.3 3.1 1.5.4 2.4-1.2 3.2-2.2-.4.1-.8.1-1.2.2.8 1 1.8 2.5 3.3 2.2 1.5-.3 2-2.1 2.6-3.2.4-.9-.9-1.6-1.3-.8-.2.5-.5 1-.7 1.5-.2.3-.4.9-.8 1-.4.1-.7-.3-.9-.5-.4-.4-.7-.9-1.1-1.3-.3-.4-.9-.2-1.2.2-.3.4-1 1.8-1.6 1.5-.3-.2-.4-.6-.6-.8-.2-.5-.5-1-.7-1.5-.2-.4-.7-.5-1-.3-.4.1-.5.5-.3.9z" />
	</g>
	<g>
		<path class="influencer_1"
			d="M54.5 104.9c-1.2-.9-3.2-.6-4.6-.2-.9.3-1.7.8-2.5 1.2-.7.4-1.5.8-2.3 1-.5.1-.8 0-1.1-.6-.3-.5-.3-1.4-.2-2.1.1-1 .5-1.9.7-2.8.3-1.1.7-2.1 1-3.2.2-.8-.3-1.6-1-1.8-.8-.2-1.6.3-1.8 1-.7 2.2-1.5 4.3-1.8 6.6-.3 2.2.4 4.9 2.7 5.7 2.2.8 4.4-.6 6.2-1.6.3-.1.5-.3.8-.4 0 0 .5-.2.1-.1.3-.1.7-.2 1.1-.3.2 0 .2 0 0 0H52.7c.2 0 .2 0 0 0 .1 0 .2 0 .2.1.2.1.2.1 0 0 .1 0 .1.1.2.1.7.5 1.7.1 2.1-.5.2-.8-.1-1.6-.7-2.1z" />
	</g>
	<g>
		<path class="influencer_3"
			d="M174.8 75.7c-.8-1.4-2-2.7-3.7-2.9-1.7-.2-3.2.7-4.4 1.8-1.5 1.4-2.5 3.3-3.6 5-1.2 1.9-2.4 3.7-3.6 5.6-.4.6-.3 1.1 0 1.5 0 .1 0 .2.1.4.8 2.5.9 5 .6 7.6-.2 1.3.6 2.6 2.1 2.6 1.4 0 2.2-1.2 2.5-2.5 0-.2.1-.4 0-.5 1.1-.4 2.4-.4 3.5-.9 1.4-.5 2.7-1.5 3.1-3 .2-.8 0-1.4 0-2.2.1-.5.6-.8 1-1.1 1.1-.9 2-2 2.6-3.3 1.3-2.6 1.2-5.6-.2-8.1z" />
		<path class="influencer_3"
			d="M155.2 89.9c2.2-1.2 3.4-3 4.3-5.3s1.5-4.7 2.8-6.8c1.3-2.1 3.2-3.8 5.5-4.7 1.2-.5 2.5-.8 3.8-.7 2.6.2 4.7 2.3 5.5 4.7.7 2.5.2 5.2-1.2 7.3s-2.4 3.2-4.9 5c1 .2 2.4 2.1 2.4 2.3 0 .4-1.1.2-1.5.2-2.8.4-5 2.5-7.3 4.2-2.3 1.7-4.7 1.9-7.5 1.9" />
		<path class="influencer_1"
			d="M155.9 91.2c3.4-1.9 4.7-5.2 5.9-8.6 1.3-3.7 3.4-7.2 7.4-8.4 3.7-1.2 6.9 1.8 6.7 5.5-.1 3.6-3 6.5-5.7 8.4-1 .7-1 2.4.4 2.7.4.1.7.5.9.7.1.1.2.3.3.4.1.1.2.5.1.1.1-.4.1-.8.2-1.2.3-.6 1.3-.5.2-.5-.3 0-.6 0-.9.1-.7.1-1.4.4-2.1.6-1.4.6-2.7 1.5-3.9 2.4-1.2.9-2.3 1.9-3.7 2.3-1.5.5-3.1.6-4.6.6-1.9.1-1.9 3.1 0 3 2.4-.1 4.8-.3 7-1.4 2.2-1.1 3.9-3.1 6.2-4.2 1-.5 1.8-.4 2.8-.5 1.1-.1 2-1 1.7-2.1-.3-1.4-2.1-2.9-3.5-3.3.1.9.2 1.8.4 2.7 2.6-1.9 5-4.1 6.3-7.1 1.4-3.3 1.2-7.1-1.1-9.9-5.1-6.2-13.8-1.2-16.6 4.7-1.7 3.5-2.1 8.1-5.9 10.2-1.7 1.2-.2 3.8 1.5 2.8z" />
		<path class="influencer_1"
			d="M170.4 72.9c1.2 1.8 2.2 3.7 2.8 5.8.3 1 .6 2 .7 3 .1.5.2 1.1.2 1.6 0 .3 0 .6.1.9v.4c-.1.2 0 .3.2.2-.5 0-.5.8 0 .8 1-.1.6-1.8.5-2.4-.1-1.2-.4-2.5-.7-3.7-.7-2.5-1.7-4.8-3.1-6.9-.3-.5-1-.1-.7.3zM167.7 73.5c.7.6.9 1.7 1.2 2.5.5 1.4.8 2.8 1.1 4.2.3 1.5.6 3.1.8 4.6.1.6.1 1.3.2 1.9v1.2c0 .1-.1.3 0 .2.2 0 .3 0 .5.1l-.1-.1v.5c.4-.3-.2-.9-.5-.5-.2.1-.1.4 0 .5l.1.1c.1.1.3.1.5.1.4-.3.4-1 .4-1.4 0-.7 0-1.4-.1-2.1-.2-1.7-.5-3.3-.8-5-.3-1.6-.7-3.2-1.3-4.7-.3-.9-.6-2-1.3-2.7-.5-.3-1.1.2-.7.6z" />
		<path class="influencer_1"
			d="M169.1 73.5c.9.7 1.2 2 1.6 3 .4 1.1.7 2.2 1 3.3.3 1.2.5 2.4.7 3.6.1.6.1 1.2.1 1.8 0 .4.2 1.3 0 1.5.1-.1.2-.1.3-.2h-.1c.1.1.2.2.4.3v-.1c-.1-.5-.8-.3-.7.2v.1c0 .2.2.3.4.3h.1c.1 0 .3-.1.3-.2.2-.4.1-1 .1-1.4 0-.7-.1-1.5-.2-2.2-.2-1.4-.4-2.7-.7-4-.3-1.3-.8-2.7-1.2-4-.4-1-.7-2.1-1.6-2.8-.5-.1-.9.6-.5.8zM166.5 73.7c1.6 3.6 2.3 7.6 2.9 11.5.2 1 .3 2.1.4 3.1 0 .4 0 .8.1 1.2 0 .1.1.1.1.2 0 .2-.1-.1-.1-.1 0 .4.1.8.1 1.2V91.7c.1.2-.3.2.1-.1-.4.3 0 .9.4.6.4-.3.2-1.2.2-1.6 0-.4.1-1.3-.3-1.6.1.1.1.2.2.3-.3-2.8-.7-5.5-1.2-8.2-.5-2.7-1.1-5.3-2.3-7.8-.2-.4-.8-.1-.6.4z" />
		<path class="influencer_1"
			d="M165.6 75.3c1.3 2.7 1.5 5.9 1.8 8.8.4 3.1.7 6.2.5 9.4.2-.1.5-.1.7-.2-.1-.1-.1-.2-.2-.2-.3-.4-.9 0-.6.4.1.1.1.2.2.2.2.3.7.2.7-.2.3-3.4-.1-6.7-.6-10.1-.4-2.9-.6-5.8-1.9-8.5-.1-.4-.8 0-.6.4z" />
		<path class="influencer_1"
			d="M164.3 75.7c.8 3.1 1.4 6.2 1.8 9.3.2 1.5.3 3 .4 4.5 0 .7.1 1.4.1 2.1v1.1c0 .2-.1 1.3-.1 1.3.2 0 .3 0 .5.1 0 .1.1.2.1.4v-.1c-.1.1-.2.2-.4.3.5 0 .5-.8 0-.8-.1 0-.3.1-.4.3 0 .2 0 .3.1.5.1.1.3.2.5.1.4-.3.4-.8.4-1.2.1-.8.1-1.6.1-2.5 0-1.7-.2-3.5-.4-5.2-.4-3.4-1-6.9-1.9-10.2-.2-.7-.9-.5-.8 0z" />
		<path class="influencer_1"
			d="M162.9 76.9c1.8 6 1.9 12.3 2 18.5l.6-.3-.3-.3c-.3-.4-.9.2-.5.5l.3.3c.2.2.6.1.6-.3-.1-6.3-.3-12.6-2-18.7-.1-.3-.8-.1-.7.3z" />
		<path class="influencer_1"
			d="M162 79c.8 2.8 1 5.8 1.1 8.7.1 1.4.1 2.8.1 4.2.1 1.5.2 3-.1 4.5.2-.1.4-.1.6-.2-.1-.1-.1-.2-.2-.3-.3-.4-.8.2-.5.5.1.1.1.2.2.3.2.2.6.1.6-.2.3-1.4.3-2.8.2-4.2-.1-1.6-.1-3.2-.2-4.7-.1-3-.3-6-1.1-8.9-.1-.4-.8-.2-.7.3z" />
		<path class="influencer_1"
			d="M160.9 81.3c.5 2.6 1 5.1 1.3 7.7.1 1.2.2 2.4.2 3.6v1.8c0 .3 0 1.9-.2 2.1.2 0 .3 0 .5-.1h-.1c.1.1.1.2.2.3v-.1l-.4.4c.5-.1.5-.8 0-.8-.2 0-.4.2-.4.4s.1.3.2.4c.1.1.3 0 .5-.1.3-.3.3-.7.3-1.1.1-.7.1-1.4.1-2.1.1-1.5 0-2.9-.2-4.4-.3-2.8-.8-5.6-1.3-8.4-.1-.3-.8-.1-.7.4zM171.7 73c2.2 2.9 3.7 6.2 4.4 9.8.1-.2.2-.3.4-.5-.2 0-.3 0-.5.1-.5.1-.5.8 0 .8.2 0 .3 0 .5-.1.3 0 .4-.2.4-.5-.7-3.6-2.2-7-4.4-10-.4-.3-1 .1-.8.4zM159.4 84.3c.5 2.2 1 4.4 1.2 6.7.1 1 .2 2.1.1 3.1 0 .6-.1 1.1-.2 1.7 0 .2-.2 1.4-.4 1.5.2 0 .3.1.5.1v.2c-.2.1-.3.2-.5.3.5.1.7-.6.2-.7-.2 0-.4.1-.5.3v.4c.1.2.3.2.5.1.3-.1.4-.7.5-1 .2-.6.3-1.1.4-1.7.2-1.2.1-2.4 0-3.6-.2-2.5-.8-5-1.3-7.5.1-.6-.6-.4-.5.1z" />
		<path class="influencer_1"
			d="M160 84.5c-.4 2-.4 4.1-.9 6.1-.4 1.9-1.2 3.6-2.3 5.2-.3.4.4.8.6.4 1-1.6 1.8-3.4 2.3-5.2.5-2.1.5-4.2.9-6.3.2-.5-.6-.7-.6-.2z" />
		<path class="influencer_1"
			d="M158.8 85.5c-.2 1.7-.4 3.4-.7 5.1-.3 1.6-.9 3-1.7 4.4-.3.4.4.8.6.4.9-1.4 1.5-2.9 1.8-4.6.3-1.7.5-3.5.7-5.3.1-.4-.6-.4-.7 0z" />
		<path class="influencer_1"
			d="M156.9 87.1c0 1.4 0 2.8-.1 4.2l-.3 2.1c-.1.4-.2.7-.3 1-.1.3-.2.8-.4 1 .1 0 .2-.1.3-.1h-.1c.1 0 .2.1.3.1 0 .1.1.2.1.3v-.1c0-.5-.7-.5-.8 0 0 .3.2.5.5.5.4 0 .5-.4.6-.7.3-.9.5-1.8.7-2.7.3-1.8.3-3.7.2-5.6.1-.5-.7-.5-.7 0z" />
		<path class="influencer_1"
			d="M155.4 87.6c0 1.3.1 2.6.1 3.9v1.9c0 .3-.1.7-.1 1 0 .1-.1.3-.1.4 0 .1-.1.5-.1.4.2 0 .3 0 .5.1 0 .1.1.2.1.4-.1.1-.2.2-.4.3.5 0 .5-.8 0-.8-.2 0-.3.1-.4.3 0 .2 0 .3.1.4.1.1.3.1.5.1.3-.1.3-.5.4-.7.1-.3.1-.7.2-1 .1-.7.1-1.4.1-2.1 0-1.5-.2-2.9-.1-4.4 0-.7-.8-.7-.8-.2z" />
		<g>
			<path class="influencer_3"
				d="M91.1 68.4c0-.8.4-1.6 1-2.2.7-.6 1.5-.6 2.4-.6 1.3 0 1.2-5.4 2.4-5.3v-.2c.8-2.8 2.1-5.3 3.3-7.9-.3-1.9-.6-3.9-.8-5.8-.2-2.2-.5-4.8.8-6.8.5-.8 1.3-1.5 2.3-1.7 1.2-.3 2.4.2 3.4.7 2.1 1.2 4 2.6 5.9 4.1 9.7-4 21-4.1 30.7 0 .9-.7 1.8-1.3 2.8-1.9 1-.6 2-1.1 3.1-1.5 1.1-.5 2.4-.9 3.6-.4.8.3 1.5.9 1.6 1.8.1.4.1.9.1 1.3.1 1.7.2 3.3.2 5 0 1.3-.1 2.5-.2 3.8l.2.2c1.9 3.5 4.4 6.8 5.5 10.6.2.1 1.4 7.2 2.3 7.5 1.7.6 3.2 1.8 3.1 3.8-.2 1.8-1.4 3.3-2.5 4.7-1.2 1.5.4-3.9-.4-2.2-.1.2-.2.3-.4.4.1 8.9-.7 18.4-6.6 25.4 0 .2.1.3.1.5.3 1 .5 2 .6 3 .1 1.1.2 2.2 0 3.3-.2 1-1 1.6-2 1.7-2.1.3-4.1-.7-5.8-1.8-.5-.4-1.1-.8-1.6-1.2-10.2 3.6-22.6 5.3-32.6.1-.1 0-.2-.1-.3-.1-.5-.3-1.3-.2-1.9-.1-.8.2-1.5.6-2.2 1-1.7.9-3.8 2.3-5.8 1.3-1.8-.9-2.2-3.2-2-5 .1-.6.2-1.2.4-1.8-1.3-1.7-2.7-3.3-3.9-5.1-1.3-2.1-2.2-4.4-3-6.6-1.4-3.9-2.2-7.9-1.8-12.1.2-2.2.8-3.5-.1-4.8-.8-1.5-1.9-3.3-1.9-5.1z" />
		</g>
		<g>
			<path class="influencer_1"
				d="M145.2 104.9c-9.7 3.3-21.7 5-31.1-.1-1.7-.9-3.2 1.7-1.5 2.6 10.1 5.5 22.9 3.9 33.4.4 1.9-.7 1.1-3.6-.8-2.9z" />
		</g>
		<g>
			<path class="influencer_1"
				d="M152.2 98.2c-.6.9-.4 2.1-.3 3.1.1.9.4 1.8.6 2.8.2.9.3 1.7.3 2.6 0 .5 0 .9-.1 1.4v.1c0-.1.1-.2.2-.3.1-.1.1-.1-.1 0h-.1c-1.5.2-3.1-.8-4.4-1.7-1.5-1.1-2.9-2.3-4.2-3.7-.6-.6-1.6-.6-2.1 0-.6.6-.6 1.5 0 2.1 1.5 1.6 3.2 3.1 5 4.3 1.8 1.2 3.9 2.2 6.1 1.9 1.2-.2 2.3-.8 2.6-2 .3-1 .2-2.3.1-3.3-.1-1.2-.4-2.3-.7-3.4-.1-.5-.2-.9-.3-1.4v-.8-.4.2c.4-.7.1-1.7-.5-2.1-.8-.3-1.6-.1-2.1.6z" />
		</g>
		<g>
			<path class="influencer_1"
				d="M104.1 101.2c-1.6-2.2-3.5-4.1-4.7-6.5-1.2-2.5-2.4-5-3.1-7.7-1.3-4.7-.6-9.2 1-13.7.6-1.8-2.3-2.6-2.9-.8-1.7 4.9-2.4 9.9-1.1 15 .7 2.7 1.8 5.4 3.1 7.9 1.3 2.8 3.3 4.9 5.1 7.4 1.2 1.4 3.8-.1 2.6-1.6z" />
		</g>
		<g>
			<path class="influencer_1"
				d="M95.3 60.3c-1.2 1.4-2.4 2.9-3.3 4.5-.5.7-.8 1.5-1.2 2.3-.4 1-.8 2-.8 3 0 .9.4 1.9 1.1 2.5.8.7 1.8.9 2.9.8 2 0 4-.2 5.9-.4.8-.1 1.5-.6 1.5-1.5 0-.7-.7-1.6-1.5-1.5-1.6.2-3.3.3-4.9.4h-1.7c.2 0-.3-.1-.1 0-.2-.1-.1-.1 0 0l-.1-.2c0-.1-.1-.4 0-.2v-.4c.2-1.4 1.1-2.7 1.8-3.9.8-1.2 1.6-2.3 2.6-3.4.5-.6.6-1.5 0-2.1-.7-.4-1.7-.5-2.2.1z" />
		</g>
		<g>
			<path class="influencer_1"
				d="M154.7 102.4c6.4-6.8 7.1-16.1 6.9-25 0-1.9-3-1.9-3 0 .1 8-.2 16.7-6 22.8-1.3 1.5.8 3.6 2.1 2.2z" />
		</g>
		<g>
			<path class="influencer_1"
				d="M157.5 65.7c1 1.9 2.4 3.5 3.7 5.1.6.8 1.2 1.5 1.6 2.4.3.6.5 1.3-.1 1.7-.2.1-.4.2-.6.4-.5.3.3 0-.2.1-.3.1-.6.2-.9.2-.3.1-.7.1-1 .2-.4.1-.6.1-.8.1-1.1.1-2.8.1-3.7.9-1.4 1.4.7 3.5 2.1 2.1-.3.2-.3.2-.2.2-.3.1-.3.1-.2.1.1 0 .2-.1.3-.1.3-.1.6-.1.9-.1h.3c.2 0 .3 0 .5-.1.5-.1 1-.1 1.5-.2 1.8-.3 3.6-.8 4.7-2.4 1.5-2.2 0-4.8-1.4-6.6-1.4-1.8-2.9-3.5-4-5.5-.8-1.8-3.4-.2-2.5 1.5z" />
		</g>
		<g>
			<path class="influencer_1"
				d="M160.2 64.9c-.5-5.1-3.2-9.4-5.6-13.8-.9-1.7-3.5-.2-2.6 1.5 2.1 3.9 4.8 7.7 5.2 12.3.1.8.6 1.5 1.5 1.5.8 0 1.6-.7 1.5-1.5z" />
		</g>
		<g>
			<path class="influencer_1"
				d="M98.5 60.9c.1-.4.2-.7.4-1 0-.1.1-.2 0 0 0-.1.1-.2.1-.3.1-.2.2-.3.2-.5.3-.7.7-1.4 1.1-2.1.8-1.3 1.6-2.6 2.3-4 .3-.7.2-1.7-.5-2.1-.7-.4-1.7-.2-2.1.5-1.4 2.9-3.5 5.5-4.5 8.6-.2.8.3 1.7 1 1.8 1 .3 1.8-.1 2-.9z" />
		</g>
		<g>
			<path class="influencer_1"
				d="M143.3 42.7c-9.9-4.3-21.2-4.6-31.3-.5-1.8.7-1 3.6.8 2.9 9.2-3.7 19.8-3.8 29 .2 1.7.8 3.2-1.8 1.5-2.6z" />
		</g>
		<g>
			<path class="influencer_1"
				d="M154.1 53.3c.6-1.6.7-3.4.7-5.1.1-1.7 0-3.4 0-5.1-.1-1.4-.1-2.8-1.4-3.8-2.2-1.6-5.2 0-7.3 1.1-2.3 1.2-4.4 2.8-6.3 4.6-1.4 1.3.7 3.4 2.1 2.1 1.4-1.4 2.9-2.6 4.6-3.6.9-.5 1.8-1 2.7-1.4.5-.2.9-.4 1.4-.5.2-.1.4-.1.6-.1.1 0 .3.1.4.1.3.1 0 .1.1 0v-.1.3c0 .5.1 1 .1 1.5.1 1.5.1 3 0 4.6 0 .9-.1 1.8-.2 2.6 0 .3 0 .1 0 0 0 .1 0 .2-.1.3 0 .2-.1.4-.1.6-.1.3-.2.7-.3 1-.3.8.3 1.6 1 1.8 1 .3 1.7-.2 2-.9zM102.8 51.9c-.2-1.7-.5-3.3-.7-4.9-.1-.9-.1-1.9-.1-2.8 0-.9-.1-1.9.3-2.8.2-.5.6-1 1.1-1.1.8-.1 1.7.5 2.3.9 1.8 1.1 3.5 2.4 5.2 3.7.4-.9.7-1.7 1.1-2.6h-.2c.3.1.5.1.8.2-1.4-1.4-3.5.8-2.1 2.1.4.4.9.6 1.5.6 1.2.1 2.1-1.7 1.1-2.6-2-1.6-4.1-3.2-6.3-4.5-1.2-.7-2.5-1.2-3.8-.9-1.2.2-2.2 1-2.8 2-1.3 2-1 4.7-.9 7 .1 2.2.5 4.3.8 6.4.1.8 1.1 1.2 1.8 1 .7-.1 1.1-.9.9-1.7z" />
			<path class="influencer_1"
				d="M111.2 44c-.4.8-.8 2.1-1.7 2.4-.6.2-1.5-.2-2-.7-.3-.3-.5-.7-.7-1.1-.2-.4-.5-.7-.7-1-.8-1.1-2.3-3.4-3.9-2-.6.5-.7 1.4-.6 2.1.1.9.1 1.9.1 2.8 0 1.1 0 2.2-.1 3.3-.1.7-.2 1.5-.7 2-.7.6.3 1.7 1.1 1.1 1.2-1.1 1.2-3.2 1.3-4.7v-3-1.3c0-.3-.1-.8 0-1.1.1-.2.1-.1.2-.1.3.2.6.5.8.8.5.6 1 1.3 1.4 2 .5.9 1 1.6 2 2 .7.3 1.6.5 2.4.3 1.4-.4 1.9-1.8 2.5-3 .4-.9-.9-1.6-1.4-.8zM140.3 47.2c.6.4 1.1 1 1.7 1.4.8.4 1.7.1 2.5-.3 1.8-1 3.2-2.5 5-3.5.2-.1.7-.5.9-.4.1 0 .1.2.2.3.2.6.1 1.4.1 2 .1 2 .7 4 .8 6.1.1 1 1.6 1 1.5 0-.1-1.7-.5-3.3-.7-5-.1-.7-.1-1.4-.1-2.1 0-.6 0-1.2-.2-1.7s-.6-1-1.2-1.1c-.7-.2-1.3.2-1.9.5-1.4.8-2.7 1.9-4.1 2.9-.5.4-1.4 1.2-2.1.9-.3-.1-.6-.4-.8-.7-.3-.3-.6-.5-.9-.7-.8-.4-1.6.9-.7 1.4z" />
			<path class="influencer_1"
				d="M150.9 43.6c.7-.9 1.2-1.9 1.4-3 0-.2-.1-.4-.3-.5-.2-.1-.4.1-.5.3-.2 1-.6 1.9-1.2 2.6-.1.2-.2.4 0 .5.2.3.4.3.6.1zM149.8 44c.3-1.1.7-2.2 1-3.3.1-.5-.6-.7-.7-.2-.3 1.1-.7 2.2-1 3.3-.1.5.6.7.7.2zM148.7 44.4c.3-1 .5-2 .5-3.1 0-.5-.8-.5-.8 0 0 1-.2 2-.5 2.9-.1.2.1.4.3.5.2.1.4-.1.5-.3zM147.5 45.5c.3-1.2.5-2.5.5-3.7 0-.2-.2-.4-.4-.4s-.4.2-.4.4c-.1 1.2-.2 2.4-.5 3.5 0 .5.7.7.8.2zM146.4 46.4c.3-1.2.4-2.4.2-3.6 0-.2-.3-.3-.5-.3-.2.1-.3.3-.3.5.1 1.1.1 2.2-.2 3.2-.1.4.7.6.8.2z" />
			<path class="influencer_1"
				d="M145.4 47c.3-1.1.3-2.3 0-3.4 0-.2-.3-.3-.5-.3-.2.1-.3.3-.3.5.2 1 .2 2 0 3-.1.5.7.7.8.2zM144.5 47.6c.1-1 0-2.1-.3-3-.1-.5-.9-.3-.7.2.3.9.3 1.9.2 2.8 0 .2.2.4.4.4s.3-.2.4-.4z" />
			<path class="influencer_1"
				d="M143.7 47.7c0-1-.2-2-.5-2.9-.1-.2-.3-.3-.5-.3-.2.1-.3.3-.3.5.3.9.5 1.8.5 2.7 0 .4.8.4.8 0zM151.6 44.8c.7-.7 1.4-1.5 2.1-2.2.1-.1.2-.4 0-.5-.1-.1-.4-.2-.5 0-.7.7-1.4 1.5-2.1 2.2-.1.1-.2.4 0 .5.1.1.3.1.5 0zM151.8 46.4c.6-.4 1.1-.9 1.5-1.5.1-.1.1-.2.1-.3 0-.1 0-.2-.1-.3-.1-.1-.4-.2-.5 0l-1.5 1.5c-.1.1-.1.2-.1.3 0 .1 0 .2.1.3.1.1.2.1.3.1 0 0 .1-.1.2-.1zM151.6 48.1l1.5-1.5c.1-.1.1-.4 0-.5-.2-.1-.4-.1-.5 0l-1.5 1.5c-.1.1-.1.4 0 .5.2.1.4.1.5 0zM151.9 49.4c.8-.6 1.6-1.2 2.4-1.9.1-.1.1-.4 0-.5-.2-.1-.4-.1-.5 0-.7.7-1.4 1.2-2.2 1.8-.2.1-.2.3-.1.5 0 .2.2.3.4.1zM103.4 42c-.3-1.1-.4-2.3-.4-3.5 0-.5-.7-.5-.8 0 0 1.2.1 2.5.4 3.7.2.4 1 .2.8-.2z" />
			<path class="influencer_1"
				d="M104.2 42.3c.1-1.1.1-2.1.2-3.2 0-.2-.2-.4-.4-.4s-.4.2-.4.4c-.1 1.1-.1 2.1-.2 3.2 0 .2.2.4.4.4s.4-.2.4-.4zM105 42.8c0-1.2.2-2.4.5-3.5.1-.5-.6-.7-.7-.2-.3 1.2-.5 2.5-.5 3.7 0 .5.7.5.7 0zM105.9 43.8c.1-1.2.3-2.3.5-3.5.1-.5-.6-.7-.7-.2-.3 1.2-.5 2.5-.6 3.7 0 .2.2.4.4.4s.4-.2.4-.4zM106.5 45.1c.2-1.4.5-2.8.9-4.2.1-.5-.6-.7-.7-.2-.4 1.4-.7 2.8-.9 4.2 0 .2.1.4.3.5.1 0 .4-.1.4-.3zM107.1 46.1c.4-1.5.8-3.1 1.2-4.6.1-.5-.6-.7-.7-.2-.4 1.5-.8 3.1-1.2 4.6-.2.5.6.7.7.2zM107.8 46.5c.4-1.3.7-2.5 1.1-3.8.1-.5-.6-.7-.7-.2-.4 1.3-.7 2.5-1.1 3.8-.1.5.6.7.7.2zM108.9 46.8c.5-1.2.9-2.4 1.2-3.6.1-.5-.6-.7-.7-.2-.3 1.2-.7 2.4-1.2 3.6-.1.2.1.4.3.5.1 0 .3-.1.4-.3zM110.3 46.5c.5-.7.8-1.6.8-2.5 0-.2-.2-.4-.4-.4s-.4.2-.4.4v.6s0 .1 0 0V44.9c0 .1 0 .2-.1.3-.1.2-.1.3-.2.5s-.2.4-.3.5c-.1.2 0 .4.1.5.2 0 .3 0 .5-.2zM102.6 42.9c-.2-.5-.4-1-.6-1.4 0-.1-.1-.2-.2-.2h-.3c-.1.1-.2.1-.2.2v.3c.2.5.4 1 .6 1.4 0 .1.1.2.2.2h.3c.1-.1.2-.1.2-.2.1-.1 0-.2 0-.3zM102.7 44.7c-.3-.8-.8-1.4-1.4-1.9-.1-.1-.2-.1-.3-.1-.1 0-.2 0-.3.1-.1.1-.2.4 0 .5.1.1.3.2.4.4l.2.2.1.1s.1.1 0 0c.1.1.2.3.3.4 0 .1.1.2.1.2s0 .1.1.1v.1c.1.2.3.3.5.3s.3-.2.3-.4zM102.6 47c-.2-1-.7-1.8-1.5-2.3-.2-.1-.4 0-.5.1-.1.2 0 .4.1.5h.1s.1.1 0 0l.1.1c.1.1.2.1.2.2.1.1.1.2.2.2 0 0 0-.1 0 0v.1l.1.1c.1.1.1.2.1.3 0 0 0 .1.1.1v.1c0-.1 0 0 0 0 .1.2.1.4.2.6 0 .2.3.3.5.3.3 0 .4-.2.3-.4zM102.4 48.7c-.4-.8-.9-1.6-1.4-2.3-.1-.2-.3-.3-.5-.1-.2.1-.3.3-.1.5.5.7 1 1.5 1.4 2.3.1.2.4.2.5.1.1-.1.2-.3.1-.5zM142.8 47.3c-.1-.6-.3-1.3-.5-1.9-.1-.2-.3-.3-.5-.3-.2.1-.3.3-.3.5.2.6.4 1.2.5 1.9 0 .2.3.3.5.3.3-.1.4-.3.3-.5z" />
		</g>
		<g>
			<path class="influencer_0"
				d="M151 53c-.4-.1-.7-.1-1.1 0-.1-.1-.2-.1-.3-.1-.4-.1-.9.1-1 .5-.1.4-.2.8-.4 1.2-.1.5-.3 1-.1 1.4.1.2.2.4.5.5.3.1.7.1 1 0 .2-.1.4-.3.6-.4.3-.3.6-.6.8-.9.3-.4.5-.8.6-1.2.2-.5-.1-.9-.6-1z" />
			<path class="influencer_2"
				d="M149.2 53.8c0-.4-.6-.8-1.1-.7l-9.3 3h-.1c-.4 0-.9.2-.9.7-.3 3.3-.3 6.6-.1 9.9 0 .5.9 1 1.4.5 1-1 2.3-1.7 3.5-2.5 1.3-.8 2.4-1.7 3.3-2.8 1-1.2 1.9-2.6 2.7-3.9.4-.6.6-1.3.7-2 0-.7-.2-1.5-.1-2.2z" />
			<path class="influencer_0"
				d="M105.8 53.9h-.2c-.8-.4-1.7-.7-2.6-.8-.5-.1-1.1.2-1.1.7 0 .7 0 1.5.3 2.1.3.7.9 1.3 1.2 1.9.2.3.2.8.5 1 .4.4 1.1.5 1.6.1.4-.3.4-.8.4-1.3 0-.4.1-.8.1-1.1 0-.4.1-.9.1-1.3.2-.4.3-1-.3-1.3z" />
			<path class="influencer_2"
				d="M114.1 56.4c-2.5-.5-4.7-1.3-6.8-2.4-.2-.1-.3-.1-.5-.1-.5-.3-1.3-.1-1.3.5 0 1.4-.1 2.8-.1 4.3 0 .6 0 1.2.4 1.8.3.5.8 1 1.3 1.5 1.7 1.9 3.6 3.7 6.2 4.7.6.2 1.2 0 1.3-.6.1-3 .3-6 .4-9-.2-.3-.5-.6-.9-.7z" />
			<path class="influencer_0"
				d="M138.3 63.3c-.1-1.9-.3-3.9-.6-5.8-.1-.4-.3-.7-.8-.7-3.7-.2-7.3.7-11 .8-1.9.1-3.7-.1-5.5-.5-1.1-.2-2.7-.9-3.9-.6-.5-.2-1.3-.1-1.4.6l-.6 5.7c-.1 1.4-.9 3.2.7 4.2 1.7 1 3.6 1.9 5.5 2.8 1.4.6 3.4 1.7 5.1 1.5.8-.1 1.5-.5 2.3-.8 1.1-.4 2.3-.7 3.4-1l3.3-.9c.9-.3 2.1-.4 2.9-.8.7-.3.7-.9.7-1.4 0-1.1 0-2.1-.1-3.1z" />
			<path class="influencer_2"
				d="M150.9 50.3c-.9.1-1.7.4-2.5.6-.9.3-1.8.5-2.7.8-2.8.8-6 1.5-7.9 3.6-.6.7.7 1.4 1.4.8.1 0 .3 0 .5-.1 2.1-.9 4.2-1.7 6.4-2.5 2.1-.8 4.3-1.6 6.6-.7.5.2 1.3 0 1.3-.6-.2-1.4-1.6-2.1-3.1-1.9zM152 54.4c-3.1 4.5-6.9 8.6-11.4 12.2-.6.5 0 1.3.8 1.2 2.5-.4 4.4-1.9 5.9-3.6 1.7-1.8 3.2-3.8 4.1-6 .1-.2 0-.3 0-.4.7-.9 1.4-1.8 2-2.8.6-.7-.9-1.4-1.4-.6zM113.9 66.6c-4.5-1.1-7.5-4.3-10.1-7.4-.1-.1-.2-.2-.3-.2-.2-.4-.4-.9-.6-1.3-.3-.8-2-.5-1.6.4 1 2.5 2.5 4.9 4.5 7 .9 1 1.9 1.8 3.3 2.3 1.4.5 3 .6 4.5.6 1 0 1.2-1.1.3-1.4zM113.3 54.1c-.1 0-.1 0 0 0-.3-.4-.7-.8-1.2-1.1-.9-.5-1.9-.9-2.8-1.3-1-.5-1.9-.9-2.9-1.4-.7-.3-1.4-.8-2.2-.8-.2-.2-.6-.3-1-.1-1.2.6-1.9 1.6-2 2.8 0 .5.8.9 1.3.6.7-.5 1.6-.3 2.5-.2 1 .2 2 .5 2.9.8 0 .3.1.5.4.6 1.2.6 2.5 1 3.8 1.3.1 0 .2.1.4.1.1 0 .3.1.4.1h.2c.9 0 1.1-1.3.2-1.4z" />
			<path class="influencer_0"
				d="M140.7 53.2c-.2.1-.4.3-.7.4-.2.1-.2.3-.2.4 0 .1-.1.1 0 .2.2.4.4.7.8 1.1.1.1.3.1.5.1.2-.1.3-.2.3-.3v-1.5c0-.3-.4-.6-.7-.4zM143.5 52.9c0-.1-.1-.2-.2-.3-.1-.1-.2-.1-.4-.1-.2.1-.3.1-.5.2-.1 0-.2.1-.3.2-.1.1-.1.2 0 .3v.1c.1.4.3.7.7 1 .1.1.3.1.5.1.1-.1.3-.2.3-.3-.1-.4-.1-.8-.1-1.2zM145.8 52.7c0-.2 0-.3-.1-.5 0-.1 0-.2-.1-.2-.1-.1-.2-.1-.3-.1h-.6c-.2 0-.4.2-.4.3 0 .1.1.2.2.3.1.2.1.3.2.5v.2c0 .1 0 .2.1.3.1.1.2.1.3.2h.5l.3-.3c0-.3-.1-.5-.1-.7zM147.8 52.4c0-.2-.1-.4-.2-.6 0 0 0-.1-.1-.1 0-.1-.1-.2-.2-.2s-.2-.1-.3 0c-.2.1-.4.2-.3.4.1.2.2.5.2.7.1.2.3.3.5.2.1 0 .2 0 .2-.1.1-.1.2-.1.2-.3zM149.3 51.4l-.3-.6c-.1-.2-.3-.3-.5-.2-.1 0-.2.1-.2.1-.2.1-.3.2-.2.4l.2.6c0 .1.1.2.1.3 0 .1.1.2.1.3.1.2.4.2.6.2.2 0 .3-.2.4-.3 0-.4-.1-.6-.2-.8zM150.4 50.1c-.1-.2-.3-.3-.5-.2-.2.1-.3.2-.3.4s.1.3.1.5v1.3c0 .2.2.4.4.3.2 0 .4-.2.4-.3.1-.7 0-1.3-.1-2zM151.6 50c-.1-.2-.3-.3-.5-.2-.2.1-.3.2-.3.4 0 .1 0 .2.1.2V51.3c0 .1 0 .2-.1.2 0 .2-.1.3-.2.5s.1.4.3.4c.2 0 .4-.1.5-.2.4-.7.5-1.5.2-2.2z" />
			<path class="influencer_0"
				d="M152.4 49.8c-.2 0-.4.2-.4.3 0 .7-.2 1.3-.4 2-.1.2.1.4.3.4.2 0 .4-.1.5-.2.3-.7.4-1.4.5-2.2-.1-.1-.3-.3-.5-.3zM153.3 50.8c-.2 0-.4.2-.4.3V51.4c0 .1-.1.3-.1.4v.1c0 .1-.1.1-.1.2-.1.1-.2.2-.3.4-.1.2 0 .4.2.5.2.1.4 0 .6-.1.4-.5.7-1.1.8-1.7-.3-.2-.5-.4-.7-.4zM146 64.7c-.1-.3-.2-.6-.2-.8v-.2c0-.1-.1-.2-.2-.3 0-.2-.3-.3-.5-.2-.2.1-.3.2-.3.4 0 .1.1.2.1.4-.1.6-.2 1.2-.2 1.7 0 .1.1.3.3.3.2.1.3 0 .5-.1.1-.1.2-.1.3-.2.1-.1.2-.1.3-.2.1-.3 0-.6-.1-.8zM147.9 62.8c-.2-.6 0-1.3-.3-1.9-.1-.2-.3-.3-.5-.2-.2 0-.4.3-.3.4v.2c0 .9-.1 1.8-.1 2.7 0 .2.2.3.4.3.4 0 .7-.2.9-.6.2-.3 0-.6-.1-.9zM149.5 59.3v-.2-.1c0-.2-.3-.3-.5-.2-.2.1-.3.2-.3.4v.1c0 .6 0 1.3-.1 1.9 0 .3-.1.7.3.9.2.1.4.1.5 0 .1 0 .1 0 .2-.1.3 0 .4-.2.4-.4-.2-.8-.4-1.6-.5-2.3zM109 66.4c-.3-1-.5-1.9-.6-2.9 0-.2-.3-.4-.5-.3-.1 0-.1.1-.2.2-.2.1-.3.2-.3.4 0 .6.1 1.3.1 1.9 0 .3 0 .7.2 1 .1.1.3.1.4.2.2 0 .3.1.5.1s.3 0 .4-.1c-.1-.1 0-.3 0-.5zM106.4 61.4c-.1-.3-.3-.4-.5-.4s-.4.2-.4.5c.1.8.1 1.6 0 2.4 0 .4 0 .8.2 1.2.2.4.6.5 1 .3.1-.1.2-.3.2-.4-.2-1.2-.3-2.4-.5-3.6zM104.6 59.8c-.1-.2-.3-.4-.5-.3-.2.1-.3.3-.3.5 0 .1-.1.1-.1.2l-.1 1.7c0 .3-.1.6.1.9.1.3.4.4.7.4.3-.1.4-.5.4-.8v-.8c0-.7-.1-1.3-.2-1.8zM104.5 49.7c-.2 0-.4.2-.4.3 0 .3 0 .6-.1.9 0 0 0 .1 0 0V51.2c0 .1-.1.3-.1.4-.1.2.1.4.3.4.2 0 .5-.1.5-.2.2-.6.3-1.2.3-1.8-.1-.1-.2-.3-.5-.3zM106.7 50.7c.1-.2-.1-.4-.3-.4-.2 0-.4.1-.5.2-.2.5-.5 1.1-.7 1.6v.3c.1.1.1.1.2.1.2.1.4 0 .5-.1l.8-1.3c.1-.1.1-.3 0-.4zM108.7 51.1h-.3c0-.1-.1-.2-.3-.2-.2 0-.5.1-.5.2-.1.6-.2 1.3-.3 1.9 0 .2 0 .3.2.4.2.1.4 0 .5-.1.3-.6.7-1.2 1-1.8 0-.2-.1-.4-.3-.4zM110.5 51.8c-.2 0-.3 0-.4.1 0-.1-.1-.2-.3-.2-.2 0-.5.1-.5.2-.1.5-.2 1.1-.3 1.6 0 .2 0 .3.2.4.2.1.4 0 .5-.1.4-.5.8-1.1 1.1-1.6.1-.1-.1-.3-.3-.4zM112.7 53.4c.1-.2-.1-.4-.3-.4-.2 0-.4.1-.5.2-.2.4-.3.9-.4 1.4 0 .1 0 .1.1.2 0 .1.1.1.2.1.2.1.3 0 .5-.1.4-.3.6-.7.7-1.2-.1 0-.2-.1-.3-.2zM103.6 49.5c-.2 0-.5.1-.5.2-.1.7-.3 1.4-.5 2.1 0 .2.1.4.3.4.2 0 .5-.1.5-.2.2-.7.3-1.4.5-2.1 0-.2-.1-.4-.3-.4zM102.4 49.8c0-.2-.2-.3-.4-.3s-.4.2-.4.3c0 .9.1 1.7.1 2.6 0 .2.2.3.4.3s.4-.2.4-.3c0-.8-.1-1.7-.1-2.6z" />
			<path class="influencer_1"
				d="M122.1 69.3c-3.2-1-6.5-1.7-9.8-1.9-.8 0-1.6 0-2.4-.1-.8-.2-1.5-.8-2.1-1.3-1.2-1.1-2.2-2.2-3.2-3.5-.9-1.2-1.6-2.6-2.2-4-.7-1.7-.6-3.4-.8-5.2-.1-.7-.2-1.5 0-2.2.3-1.1 1.5-1.3 2.5-1.2 1.6.3 3.1 1.2 4.6 1.9.8.4 1.7.7 2.5 1.2.8.4 1.4 1 2 1.7 1.1 1.2 2.4 1.9 3.9 2.6.9.4 1.6-.9.8-1.3-.7-.3-1.5-.7-2.1-1.1-.8-.5-1.4-1.3-2.1-2-1.3-1.3-3.1-1.9-4.7-2.6-2.4-1.1-7.2-3.6-8.7.2-.3.7-.3 1.4-.2 2.1.1 1.1.1 2.3.2 3.4.2 1.7.8 3.3 1.6 4.8.8 1.6 1.8 3.1 3 4.4 1.1 1.2 2.4 2.6 3.9 3.3.9.4 1.7.4 2.7.4 1.2 0 2.4.1 3.7.3 2.3.3 4.5.9 6.8 1.6.7.3 1.1-1.2.1-1.5zM136 57.5c1.3-.6 2.2-1.6 3.2-2.5 1.3-1.3 2.6-1.8 4.4-2.1 1.7-.3 3.1-.6 4.6-1.5.9-.5 1.7-.9 2.8-.9.5 0 1 .1 1.4.2.8.3 1 .7.9 1.5-.3 1.7-1 3.5-1.7 5.1-.8 1.9-1.7 3.6-3.1 5.1-1.2 1.3-2.6 2.5-4 3.6-1.6 1.3-3.6.7-5.5 1-1.9.4-3.8 1.3-5.7 1.9-2 .6-4 1.1-6 1.5-.9.2-.5 1.6.4 1.4 2.1-.4 4.2-.9 6.2-1.5 2.1-.6 4.2-1.8 6.3-2 2-.1 3.6 0 5.3-1.3 1.7-1.3 3.4-2.8 4.7-4.5 1.2-1.5 2.1-3.3 2.8-5.1.7-1.8 1.7-4 1.7-6 0-1.7-1.8-2.4-3.3-2.5-.9-.1-1.8 0-2.6.3-1.1.4-1.9 1.2-3 1.5-2.1.7-4.3.5-6.2 1.8-1.7 1.1-2.7 2.8-4.5 3.6-.7.6 0 1.8.9 1.4z" />
			<path class="influencer_1"
				d="M102 54.1c1.3-1.5 4.5.5 6 1 2.1.7 4.2 1.3 6.3 1.8 4.1.9 8.3 1.4 12.6 1.4 4.2 0 8.6-.3 12.7-1.3s8.4-4.7 12.7-3c-.1-.4-.2-.8-.3-1.3-3.1 3.3-5 7.6-8.4 10.5-3.4 2.9-7.7 4.6-12 6l-3 .9c-.8.2-2 .8-2.7.6-1.2-.2-2.5-.9-3.6-1.3-3.3-1.3-6.8-2.5-9.9-4.3-2.1-1.2-4.1-2.7-5.8-4.4-.8-.8-1.6-1.7-2.3-2.6-.7-1-2.2-2.6-2-3.9.1-.9-1.3-1.4-1.4-.4-.3 2.1 1.3 4 2.6 5.5 1.4 1.8 3 3.3 4.8 4.7 3.4 2.6 7.3 4.2 11.2 5.8 1.6.7 3.3 1.4 4.9 2 .4.2.9.4 1.4.4.9.1 1.9-.3 2.8-.6 4.6-1.4 9.3-2.8 13.4-5.5 2.2-1.4 4-3.1 5.6-5.1 1.9-2.4 3.4-5.1 5.5-7.4.4-.4.2-1-.3-1.3-4.5-1.8-8.5 1.6-12.6 2.7-4.5 1.3-9.4 1.6-14.1 1.5-4.7-.1-9.3-.7-13.8-1.9-2.2-.6-4.4-1.4-6.6-2.2-1.5-.6-3.5-1-4.7.4-.6 1 .4 2 1 1.3z" />
		</g>
		<g>
			<path class="influencer_1"
				d="M120.7 73.5c.5 1.1 1 2.8 2.3 3.1 1.5.4 2.4-1.2 3.2-2.2-.4.1-.8.1-1.2.2.8 1 1.8 2.5 3.3 2.2 1.5-.3 2-2.1 2.6-3.2.4-.9-.9-1.6-1.3-.8-.2.5-.5 1-.7 1.5-.2.3-.4.9-.8 1-.4.1-.7-.3-.9-.5-.4-.4-.7-.9-1.1-1.3-.3-.4-.9-.2-1.2.2-.3.4-1 1.8-1.6 1.5-.3-.2-.4-.6-.6-.8-.2-.5-.5-1-.7-1.5-.2-.4-.7-.5-1-.3-.4.1-.5.5-.3.9z" />
		</g>
		<g>
			<path class="influencer_1"
				d="M115 105.2c-1.2-.9-3.2-.6-4.6-.2-.9.3-1.7.8-2.5 1.2-.7.4-1.5.8-2.3 1-.5.1-.8 0-1.1-.6-.3-.5-.3-1.4-.2-2.1.1-1 .5-1.9.7-2.8.3-1.1.7-2.1 1-3.2.2-.8-.3-1.6-1-1.8-.8-.2-1.6.3-1.8 1-.7 2.2-1.5 4.3-1.8 6.6-.3 2.2.4 4.9 2.7 5.7 2.2.8 4.4-.6 6.2-1.6.3-.1.5-.3.8-.4 0 0 .5-.2.1-.1.3-.1.7-.2 1.1-.3.2 0 .2 0 0 0H113.2c.2 0 .2 0 0 0 .1 0 .2 0 .2.1.2.1.2.1 0 0 .1 0 .1.1.2.1.7.5 1.7.1 2.1-.5.3-.8 0-1.6-.7-2.1z" />
		</g>
	</g>
	<g>
		<path class="influencer_3"
			d="M182.3 148.8c-.3 1.5-1.2 3.2-2.7 3.8-1.5.7-3.3.3-4.7-.4-1.8-.9-3.4-2.4-4.9-3.8-1.7-1.4-3.4-2.9-5-4.3-.5-.4-.6-1-.4-1.4v-.4c0-2.6-.6-5.1-1.6-7.5-.5-1.2-.1-2.6 1.2-3.1 1.4-.4 2.5.5 3.1 1.6.1.2.2.3.2.5 1.2.1 2.5-.3 3.6-.2 1.5.1 3 .6 3.9 1.9.5.7.4 1.4.7 2.1.2.5.8.6 1.2.8 1.3.5 2.5 1.3 3.4 2.4 1.8 2.3 2.7 5.2 2 8z" />
		<path class="influencer_4"
			d="M159.4 140.9c2.4.5 4.1 1.9 5.7 3.8 1.5 1.9 2.9 4.1 4.7 5.7 1.8 1.6 4.2 2.6 6.6 2.9 1.3.1 2.6.1 3.9-.4 2.4-1 3.9-3.6 3.9-6.1 0-2.6-1.4-5-3.3-6.7-2-1.6-3.2-2.3-6.1-3.3.9-.5 1.7-2.7 1.7-2.9-.1-.4-1.1.2-1.5.2-2.8.4-5.5-.9-8.2-1.9s-5-.4-7.7.3" />
		<path class="influencer_1"
			d="M159 142.4c3.7.8 5.4 4.1 7.6 6.9 2.4 3 5.5 5 9.3 5.5 3.5.5 7-.8 8.6-4 1.6-3.1 1.1-6.8-.8-9.5-2.1-3-5.3-4.7-8.7-5.8.1.9.2 1.8.4 2.7 1.2-.8 2.2-2.5 2.4-3.9.1-1-.6-1.8-1.6-1.9-.9-.1-1.8.4-2.7.4-2.6-.1-4.9-1.5-7.3-2.1-2.6-.6-5.1-.1-7.6.6-1.9.5-1.1 3.4.8 2.9 1.5-.4 3-.8 4.5-.8 1.6 0 3 .7 4.5 1.2 1.4.5 2.8 1 4.3 1.1.8.1 1.6.1 2.4 0 .4-.1.9-.3 1.2-.3-.4-.1-.7-.3-1.1-.4l.1.1c-.1-.4-.3-.7-.4-1.1 0-.4-.1.3-.3.6-.2.3-.3.8-.7 1-1.1.7-.9 2.3.4 2.7 3.1 1 6.4 2.8 7.8 5.9 1.4 3.2-.1 7.3-3.9 7.7-4.2.4-7.5-2.3-9.9-5.5-2.3-3-4.5-6.1-8.4-6.9-2-.4-2.8 2.4-.9 2.9z" />
		<path class="influencer_1"
			d="M179.6 152.9c.7-2.4 1.1-4.9 1-7.4 0-1.2-.2-2.5-.4-3.7-.1-.6-.2-1.3-.4-1.9-.1-.3-.3-.5-.7-.5-.5 0-.5.8 0 .8 0 0 .3 1.5.3 1.6.1.5.2 1 .3 1.6.1 1 .2 2.1.2 3.1 0 2.1-.4 4.2-1 6.3-.1.4.6.6.7.1zM176.8 153.4c.5-.8.5-2 .5-2.9.1-1.7 0-3.3-.2-5-.1-1.7-.4-3.4-.7-5-.1-.6-.3-1.3-.5-1.9-.1-.4-.3-1.1-.8-1.3-.2-.1-.3 0-.4.2-.1.1-.1.2-.1.4s.2.3.4.3c.5 0 .5-.8 0-.8.1.1.2.2.4.3v.2c-.1.1-.3.1-.4.2-.2-.1 0 0 0 .2 0 .1.1.2.1.4.1.2.2.5.2.7.2.6.3 1.3.4 1.9.3 1.6.5 3.2.6 4.7.1 1.5.2 3 .1 4.5 0 .8 0 1.9-.4 2.6-.1.3.6.7.8.3z" />
		<path class="influencer_1"
			d="M178.1 152.9c.7-.9.7-2.2.7-3.3.1-1.4.1-2.7 0-4.1-.1-1.3-.2-2.6-.5-3.9-.1-.7-.3-1.4-.5-2.1-.1-.4-.2-1.1-.5-1.3-.1-.1-.3-.1-.5-.1h-.1c-.1 0-.2.2-.2.3v.1c0 .5.8.5.8 0v-.1c-.1.1-.1.2-.2.3h.1c-.2 0-.3 0-.5-.1.2.1.2.7.3.9.1.3.2.6.2.9l.3 1.5c.2 1.2.3 2.5.4 3.7.1 1.1.1 2.3 0 3.4 0 1.1 0 2.4-.7 3.3 0 .7.6 1 .9.6zM175.7 153.2c.3-2.7.1-5.5-.2-8.2-.3-2.7-.7-5.4-1.2-8.1 0 .1-.1.2-.1.4.3-.4-.1-1.2-.2-1.6-.1-.4-.2-1.3-.7-1.4-.5-.1-.7.6-.2.7-.3-.1-.1-.2-.1.1 0 .2.1.5.2.7.1.4.2.8.3 1.1 0 .1 0-.3.1-.1l-.1.2c0 .4.1.8.2 1.2.2 1 .4 2 .5 3 .6 3.9 1.1 8 .6 12 .1.5.8.5.9 0z" />
		<path class="influencer_1"
			d="M174.4 152c.4-3-.3-6-.8-9-.5-3.2-1.2-6.4-2.4-9.5-.1-.3-.6-.4-.7 0 0 .1-.1.2-.1.3-.1.5.6.7.7.2 0-.1.1-.2.1-.3h-.7c1.1 2.8 1.7 5.8 2.2 8.8.5 3 1.3 6.2.9 9.3 0 .5.7.7.8.2z" />
		<path class="influencer_1"
			d="M173.1 151.9c-.2-3.5-.6-7-1.2-10.4-.3-1.7-.7-3.4-1.1-5-.2-.8-.5-1.6-.8-2.3-.2-.4-.3-.9-.7-1-.2-.1-.3 0-.4.2-.1.2-.1.3 0 .5s.3.2.4.2c.5-.1.3-.8-.2-.7.1.1.3.1.4.2v-.1V133.8c-.1.1-.3.1-.4.2 0 0 .3.7.4.9.1.4.3.7.4 1.1.2.6.4 1.3.5 1.9.4 1.5.7 3.1 1 4.6.6 3.1.9 6.3 1 9.5 0 .3.7.3.7-.1zM171.3 151.1c-.1-6.3-1.8-12.4-3.5-18.5-.1-.3-.5-.4-.7-.1-.1.1-.1.2-.2.3-.2.4.4.8.6.4.1-.1.1-.2.2-.3-.2 0-.5-.1-.7-.1 1.7 6 3.4 12 3.5 18.3.1.4.8.4.8 0z" />
		<path class="influencer_1"
			d="M169.9 149.3c-.1-3.1-.8-6-1.6-9-.4-1.5-.8-2.9-1.2-4.4-.3-1.4-.7-2.7-1.4-3.9-.2-.3-.6-.2-.7.1 0 .1-.1.2-.1.3-.2.5.6.6.7.2 0-.1.1-.2.1-.3-.2 0-.5.1-.7.1.7 1.3 1 2.7 1.4 4.1.3 1.4.7 2.7 1.1 4.1.8 2.9 1.5 5.8 1.6 8.8.1.4.8.4.8-.1z" />
		<path class="influencer_1"
			d="M168.1 147.5c-.3-2.9-.6-5.7-1.2-8.6-.3-1.4-.7-2.8-1.1-4.1-.2-.7-.5-1.4-.8-2-.2-.4-.2-.8-.7-.9-.2-.1-.3 0-.4.2-.1.1-.1.3-.1.4.1.2.2.3.5.3.5-.1.3-.8-.2-.7.2.1.3.2.5.3v.2c-.1.1-.3.1-.4.2.1 0 .3.8.3.9.1.3.2.5.3.8.2.6.4 1.2.6 1.9.4 1.2.6 2.4.9 3.6.5 2.6.8 5.2 1.1 7.8 0 .2.8.2.7-.3zM180.9 152.4c1.2-3.5 1.7-7.2 1.3-10.8 0-.3-.2-.4-.5-.4-.2 0-.3.1-.5.1-.5.1-.3.8.2.7.2 0 .3-.1.5-.1-.2-.1-.3-.2-.5-.4.4 3.6-.1 7.2-1.3 10.6-.1.5.6.7.8.3zM165.8 145.1c-.2-2.6-.4-5.2-.9-7.7-.2-1.1-.6-2.2-1.1-3.3-.2-.5-.5-1.1-.9-1.5-.2-.3-.4-.7-.8-.8-.2 0-.3.1-.4.3-.1.2 0 .3.1.4.1.1.3.1.5.1.4-.2 0-.9-.4-.6.2 0 .3 0 .5.1 0 .1.1.2.1.4-.1.1-.2.2-.4.3-.1 0 .3.5.3.6.2.2.3.5.4.7.2.5.5.9.6 1.4.4 1 .6 2 .8 3 .4 2.3.6 4.6.8 6.8.1.3.9.3.8-.2zM163.6 120.1c-1.2-.9-3.2-.6-4.6-.2-.9.3-1.7.8-2.5 1.2-.7.4-1.5.8-2.3 1-.5.1-.8 0-1.1-.6-.3-.5-.3-1.4-.2-2.1.1-1 .5-1.9.7-2.8.3-1.1.7-2.1 1-3.2.2-.8-.3-1.6-1-1.8-.8-.2-1.6.3-1.8 1-.7 2.2-1.5 4.3-1.8 6.6-.3 2.2.4 4.9 2.7 5.7 2.2.8 4.4-.6 6.2-1.6.3-.1.5-.3.8-.4 0 0 .5-.2.1-.1.3-.1.7-.2 1.1-.3.2 0 .2 0 0 0H161.8c.2 0 .2 0 0 0 .1 0 .2 0 .2.1.2.1.2.1 0 0 .1 0 .1.1.2.1.7.5 1.7.1 2.1-.5.3-.8 0-1.6-.7-2.1zM102.9 118.8c6.4-6.8 7-16.1 6.9-25 0-1.9-3-1.9-3 0 .1 8-.2 16.7-6 22.8-1.3 1.5.8 3.6 2.1 2.2z" />
		<path class="influencer_4"
			d="M94.4 121.7c0-.8.4-1.6 1-2.2.7-.6 1.5-.6 2.4-.6 1.3 0 1.2-5.4 2.4-5.3v-.2c.8-2.8 2.1-5.3 3.3-7.9-.3-1.9-.6-3.9-.8-5.8-.2-2.2-.5-4.8.8-6.8.5-.8 1.3-1.5 2.3-1.7 1.2-.3 2.4.2 3.4.7 2.1 1.2 4 2.6 5.9 4.1 9.7-4 21-4.1 30.7 0 .9-.7 1.8-1.3 2.8-1.9 1-.6 2-1.1 3.1-1.5 1.1-.5 2.4-.9 3.6-.4.8.3 1.5.9 1.6 1.8.1.4.1.9.1 1.3.1 1.7.2 3.3.2 5 0 1.3-.1 2.5-.2 3.8l.2.2c1.9 3.5 4.4 6.8 5.5 10.6.2.1 1.4 7.2 2.3 7.5 1.7.6 3.2 1.8 3.1 3.8-.2 1.8-1.4 3.3-2.5 4.7-1.2 1.5.4-3.9-.4-2.2-.1.2-.2.3-.4.4.1 8.9-.7 18.4-6.6 25.4 0 .2.1.3.1.5.3 1 .5 2 .6 3 .1 1.1.2 2.2 0 3.3-.2 1-1 1.6-2 1.7-2.1.3-4.1-.7-5.8-1.8-.5-.4-1.1-.8-1.6-1.2-10.2 3.6-22.6 5.3-32.6.1-.1 0-.2-.1-.3-.1-.5-.3-1.3-.2-1.9-.1-.8.2-1.5.6-2.2 1-1.7.9-3.8 2.3-5.8 1.3-1.8-.9-2.2-3.2-2-5 .1-.6.2-1.2.4-1.8-1.3-1.7-2.7-3.3-3.9-5.1-1.3-2.1-2.2-4.4-3-6.6-1.4-3.9-2.2-7.9-1.8-12.1.2-2.2.8-3.5-.1-4.8-.9-1.6-2-3.4-1.9-5.1z" />
		<g>
			<path class="influencer_1"
				d="M148.4 158.1c-9.7 3.3-21.7 5-31.1-.1-1.7-.9-3.2 1.7-1.5 2.6 10.1 5.5 22.9 3.9 33.4.4 1.9-.6 1.1-3.5-.8-2.9z" />
		</g>
		<g>
			<path class="influencer_1"
				d="M155.4 151.5c-.6.9-.4 2.1-.3 3.1.1.9.4 1.8.6 2.8.2.9.3 1.7.3 2.6 0 .5 0 .9-.1 1.4v.1c0-.1.1-.2.2-.3.1-.1.1-.1-.1 0h-.1c-1.5.2-3.1-.8-4.4-1.7-1.5-1.1-2.9-2.3-4.2-3.7-.6-.6-1.6-.6-2.1 0-.6.6-.6 1.5 0 2.1 1.5 1.6 3.2 3.1 5 4.3 1.8 1.2 3.9 2.2 6.1 1.9 1.2-.2 2.3-.8 2.6-2 .3-1 .2-2.3.1-3.3-.1-1.2-.4-2.3-.7-3.4-.1-.5-.2-.9-.3-1.4v-.8-.4.2c.4-.7.1-1.7-.5-2.1-.7-.4-1.6-.1-2.1.6z" />
		</g>
		<g>
			<path class="influencer_1"
				d="M117.4 158c-1.2-.9-3.2-.6-4.6-.2-.9.3-1.7.8-2.5 1.2-.7.4-1.5.8-2.3 1-.5.1-.8 0-1.1-.6-.3-.5-.3-1.4-.2-2.1.1-1 .5-1.9.7-2.8.3-1.1.7-2.1 1-3.2.2-.8-.3-1.6-1-1.8-.8-.2-1.6.3-1.8 1-.7 2.2-1.5 4.3-1.8 6.6-.3 2.2.4 4.9 2.7 5.7 2.2.8 4.4-.6 6.2-1.6.3-.1.5-.3.8-.4 0 0 .5-.2.1-.1.3-.1.7-.2 1.1-.3.2 0 .2 0 0 0H115.6c.2 0 .2 0 0 0 .1 0 .2 0 .2.1.2.1.2.1 0 0 .1 0 .1.1.2.1.7.5 1.7.1 2.1-.5.3-.8-.1-1.6-.7-2.1z" />
		</g>
		<g>
			<path class="influencer_1"
				d="M107.3 154.4c-1.6-2.2-3.5-4.1-4.7-6.5-1.2-2.5-2.4-5-3.1-7.7-1.3-4.7-.6-9.2 1-13.7.6-1.8-2.3-2.6-2.9-.8-1.7 4.9-2.4 9.9-1.1 15 .7 2.7 1.8 5.4 3.1 7.9 1.3 2.8 3.3 4.9 5.1 7.4 1.2 1.4 3.8-.1 2.6-1.6z" />
		</g>
		<g>
			<path class="influencer_1"
				d="M98.5 113.6c-1.2 1.4-2.4 2.9-3.3 4.5-.5.7-.8 1.5-1.2 2.3-.4 1-.8 2-.8 3 0 .9.4 1.9 1.1 2.5.8.7 1.8.9 2.9.8 2 0 4-.2 5.9-.4.8-.1 1.5-.6 1.5-1.5 0-.7-.7-1.6-1.5-1.5-1.6.2-3.3.3-4.9.4h-1.7c.2 0-.3-.1-.1 0-.2-.1-.1-.1 0 0l-.1-.2c0-.1-.1-.4 0-.2v-.4c.2-1.4 1.1-2.7 1.8-3.9.8-1.2 1.6-2.3 2.6-3.4.5-.6.6-1.5 0-2.1-.6-.5-1.7-.6-2.2.1z" />
		</g>
		<g>
			<path class="influencer_1"
				d="M157.9 155.7c6.4-6.8 7.1-16.1 6.9-25 0-1.9-3-1.9-3 0 .1 8-.2 16.7-6 22.8-1.3 1.5.8 3.6 2.1 2.2z" />
		</g>
		<g>
			<path class="influencer_1"
				d="M160.7 118.9c1 1.9 2.4 3.5 3.7 5.1.6.8 1.2 1.5 1.6 2.4.3.6.5 1.3-.1 1.7-.2.1-.4.2-.6.4-.5.3.3 0-.2.1-.3.1-.6.2-.9.2-.3.1-.7.1-1 .2-.4.1-.6.1-.8.1-1.1.1-2.8.1-3.7.9-1.4 1.4.7 3.5 2.1 2.1-.3.2-.3.2-.2.2-.3.1-.3.1-.2.1.1 0 .2-.1.3-.1.3-.1.6-.1.9-.1h.3c.2 0 .3 0 .5-.1.5-.1 1-.1 1.5-.2 1.8-.3 3.6-.8 4.7-2.4 1.5-2.2 0-4.8-1.4-6.6-1.4-1.8-2.9-3.5-4-5.5-.8-1.7-3.4-.2-2.5 1.5z" />
		</g>
		<g>
			<path class="influencer_1"
				d="M163.4 118.2c-.5-5.1-3.2-9.4-5.6-13.8-.9-1.7-3.5-.2-2.6 1.5 2.1 3.9 4.8 7.7 5.2 12.3.1.8.6 1.5 1.5 1.5.8 0 1.6-.7 1.5-1.5z" />
		</g>
		<g>
			<path class="influencer_1"
				d="M101.7 114.1c.1-.4.2-.7.4-1 0-.1.1-.2 0 0 0-.1.1-.2.1-.3.1-.2.2-.3.2-.5.3-.7.7-1.4 1.1-2.1.8-1.3 1.6-2.6 2.3-4 .3-.7.2-1.7-.5-2.1-.7-.4-1.7-.2-2.1.5-1.4 2.9-3.5 5.5-4.5 8.6-.2.8.3 1.7 1 1.8 1 .3 1.8-.1 2-.9z" />
		</g>
		<g>
			<path class="influencer_1"
				d="M146.5 96c-9.9-4.3-21.2-4.6-31.3-.5-1.8.7-1 3.6.8 2.9 9.2-3.7 19.8-3.8 29 .2 1.7.7 3.2-1.9 1.5-2.6z" />
		</g>
		<g>
			<path class="influencer_1"
				d="M157.3 106.5c.6-1.6.7-3.4.7-5.1.1-1.7 0-3.4 0-5.1-.1-1.4-.1-2.8-1.4-3.8-2.2-1.6-5.2 0-7.3 1.1-2.3 1.2-4.4 2.8-6.3 4.6-1.4 1.3.7 3.4 2.1 2.1 1.4-1.4 2.9-2.6 4.6-3.6.9-.5 1.8-1 2.7-1.4.5-.2.9-.4 1.4-.5.2-.1.4-.1.6-.1.1 0 .3.1.4.1.3.1 0 .1.1 0v-.1.3c0 .5.1 1 .1 1.5.1 1.5.1 3 0 4.6 0 .9-.1 1.8-.2 2.6 0 .3 0 .1 0 0 0 .1 0 .2-.1.3 0 .2-.1.4-.1.6-.1.3-.2.7-.3 1-.3.8.3 1.6 1 1.8 1 .4 1.7-.1 2-.9zM106 105.1c-.2-1.7-.5-3.3-.7-4.9-.1-.9-.1-1.9-.1-2.8 0-.9-.1-1.9.3-2.8.2-.5.6-1 1.1-1.1.8-.1 1.7.5 2.3.9 1.8 1.1 3.5 2.4 5.2 3.7.4-.9.7-1.7 1.1-2.6h-.2c.3.1.5.1.8.2-1.4-1.4-3.5.8-2.1 2.1.4.4.9.6 1.5.6 1.2.1 2.1-1.7 1.1-2.6-2-1.6-4.1-3.2-6.3-4.5-1.2-.7-2.5-1.2-3.8-.9-1.2.2-2.2 1-2.8 2-1.3 2-1 4.7-.9 7 .1 2.2.5 4.3.8 6.4.1.8 1.1 1.2 1.8 1 .8-.1 1.1-.9.9-1.7z" />
			<path class="influencer_1"
				d="M114.4 97.2c-.4.8-.8 2.1-1.7 2.4-.6.2-1.5-.2-2-.7-.3-.3-.5-.7-.7-1.1-.2-.4-.5-.7-.7-1-.8-1.1-2.3-3.4-3.9-2-.6.5-.7 1.4-.6 2.1.1.9.1 1.9.1 2.8 0 1.1 0 2.2-.1 3.3-.1.7-.2 1.5-.7 2-.7.6.3 1.7 1.1 1.1 1.2-1.1 1.2-3.2 1.3-4.7v-3-1.3c0-.3-.1-.8 0-1.1.1-.2.1-.1.2-.1.3.2.6.5.8.8.5.6 1 1.3 1.4 2 .5.9 1 1.6 2 2 .7.3 1.6.5 2.4.3 1.4-.4 1.9-1.8 2.5-3 .4-.9-.9-1.6-1.4-.8zM143.5 100.4c.6.4 1.1 1 1.7 1.4.8.4 1.7.1 2.5-.3 1.8-1 3.2-2.5 5-3.5.2-.1.7-.5.9-.4.1 0 .1.2.2.3.2.6.1 1.4.1 2 .1 2 .7 4 .8 6.1.1 1 1.6 1 1.5 0-.1-1.7-.5-3.3-.7-5-.1-.7-.1-1.4-.1-2.1 0-.6 0-1.2-.2-1.7s-.6-1-1.2-1.1c-.7-.2-1.3.2-1.9.5-1.4.8-2.7 1.9-4.1 2.9-.5.4-1.4 1.2-2.1.9-.3-.1-.6-.4-.8-.7-.3-.3-.6-.5-.9-.7-.8-.4-1.6.9-.7 1.4z" />
			<path class="influencer_1"
				d="M154.1 96.9c.7-.9 1.2-1.9 1.4-3 0-.2-.1-.4-.3-.5-.2-.1-.4.1-.5.3-.2 1-.6 1.9-1.2 2.6-.1.2-.2.4 0 .5.2.2.4.2.6.1zM153 97.2c.3-1.1.7-2.2 1-3.3.1-.5-.6-.7-.7-.2-.3 1.1-.7 2.2-1 3.3-.1.5.6.7.7.2zM151.9 97.7c.3-1 .5-2 .5-3.1 0-.5-.8-.5-.8 0 0 1-.2 2-.5 2.9-.1.2.1.4.3.5.2 0 .4-.1.5-.3zM150.7 98.7c.3-1.2.5-2.5.5-3.7 0-.2-.2-.4-.4-.4s-.4.2-.4.4c-.1 1.2-.2 2.4-.5 3.5 0 .5.7.7.8.2zM149.6 99.6c.3-1.2.4-2.4.2-3.6 0-.2-.3-.3-.5-.3-.2.1-.3.3-.3.5.1 1.1.1 2.2-.2 3.2-.1.5.7.7.8.2z" />
			<path class="influencer_1"
				d="M148.6 100.3c.3-1.1.3-2.3 0-3.4 0-.2-.3-.3-.5-.3-.2.1-.3.3-.3.5.2 1 .2 2 0 3-.1.4.7.6.8.2zM147.7 100.8c.1-1 0-2.1-.3-3-.1-.5-.9-.3-.7.2.3.9.3 1.9.2 2.8 0 .2.2.4.4.4s.3-.1.4-.4z" />
			<path class="influencer_1"
				d="M146.9 100.9c0-1-.2-2-.5-2.9-.1-.2-.3-.3-.5-.3-.2.1-.3.3-.3.5.3.9.5 1.8.5 2.7.1.5.8.5.8 0zM154.8 98c.7-.7 1.4-1.5 2.1-2.2.1-.1.2-.4 0-.5-.1-.1-.4-.2-.5 0-.7.7-1.4 1.5-2.1 2.2-.1.1-.2.4 0 .5.1.1.4.1.5 0zM155 99.6c.6-.4 1.1-.9 1.5-1.5.1-.1.1-.2.1-.3 0-.1 0-.2-.1-.3-.1-.1-.4-.2-.5 0l-1.5 1.5c-.1.1-.1.2-.1.3 0 .1 0 .2.1.3.1.1.2.1.3.1 0 0 .1 0 .2-.1zM154.8 101.3l1.5-1.5c.1-.1.1-.4 0-.5-.2-.1-.4-.1-.5 0l-1.5 1.5c-.1.1-.1.4 0 .5.2.2.4.2.5 0zM155.1 102.7c.8-.6 1.6-1.2 2.4-1.9.1-.1.1-.4 0-.5-.2-.1-.4-.1-.5 0-.7.7-1.4 1.2-2.2 1.8-.2.1-.2.3-.1.5 0 .1.2.2.4.1zM106.6 95.2c-.3-1.1-.4-2.3-.4-3.5 0-.5-.7-.5-.8 0 0 1.2.1 2.5.4 3.7.2.5 1 .3.8-.2z" />
			<path class="influencer_1"
				d="M107.4 95.6c.1-1.1.1-2.1.2-3.2 0-.2-.2-.4-.4-.4s-.4.2-.4.4c-.1 1.1-.1 2.1-.2 3.2 0 .2.2.4.4.4.2-.1.4-.2.4-.4zM108.2 96.1c0-1.2.2-2.4.5-3.5.1-.5-.6-.7-.7-.2-.3 1.2-.5 2.5-.5 3.7 0 .5.7.5.7 0zM109.1 97c.1-1.2.3-2.3.5-3.5.1-.5-.6-.7-.7-.2-.3 1.2-.5 2.5-.6 3.7 0 .2.2.4.4.4.3 0 .4-.2.4-.4zM109.7 98.3c.2-1.4.5-2.8.9-4.2.1-.5-.6-.7-.7-.2-.4 1.4-.7 2.8-.9 4.2 0 .2.1.4.3.5.1 0 .4-.1.4-.3zM110.3 99.4c.4-1.5.8-3.1 1.2-4.6.1-.5-.6-.7-.7-.2-.4 1.5-.8 3.1-1.2 4.6-.1.4.6.6.7.2zM111 99.7c.4-1.3.7-2.5 1.1-3.8.1-.5-.6-.7-.7-.2-.4 1.3-.7 2.5-1.1 3.8-.1.5.6.7.7.2zM112.1 100.1c.5-1.2.9-2.4 1.2-3.6.1-.5-.6-.7-.7-.2-.3 1.2-.7 2.4-1.2 3.6-.1.2.1.4.3.5.1 0 .3-.2.4-.3zM113.5 99.7c.5-.7.8-1.6.8-2.5 0-.2-.2-.4-.4-.4s-.4.2-.4.4v.6s0 .1 0 0V98.1c0 .1 0 .2-.1.3-.1.2-.1.3-.2.5s-.2.4-.3.5c-.1.2 0 .4.1.5.2.1.4 0 .5-.2zM105.8 96.1c-.2-.5-.4-1-.6-1.4 0-.1-.1-.2-.2-.2h-.3c-.1.1-.2.1-.2.2v.3c.2.5.4 1 .6 1.4 0 .1.1.2.2.2h.3c.1-.1.2-.1.2-.2.1-.1 0-.2 0-.3zM105.9 97.9c-.3-.8-.8-1.4-1.4-1.9-.1-.1-.2-.1-.3-.1-.1 0-.2 0-.3.1-.1.1-.2.4 0 .5.1.1.3.2.4.4l.2.2.1.1s.1.1 0 0c.1.1.2.3.3.4 0 .1.1.2.1.2s0 .1.1.1v.1c.1.2.3.3.5.3s.3-.2.3-.4zM105.8 100.3c-.2-1-.7-1.8-1.5-2.3-.2-.1-.4 0-.5.1-.1.2 0 .4.1.5h.1s.1.1 0 0l.1.1c.1.1.2.1.2.2.1.1.1.2.2.2 0 0 0-.1 0 0v.1l.1.1c.1.1.1.2.1.3 0 0 0 .1.1.1v.1c0-.1 0 0 0 0 .1.2.1.4.2.6 0 .2.3.3.5.3.3 0 .4-.2.3-.4zM105.6 101.9c-.4-.8-.9-1.6-1.4-2.3-.1-.2-.3-.3-.5-.1-.2.1-.3.3-.1.5.5.7 1 1.5 1.4 2.3.1.2.4.2.5.1.2-.1.2-.3.1-.5zM146.1 100.5c-.1-.6-.3-1.3-.5-1.9-.1-.2-.3-.3-.5-.3-.2.1-.3.3-.3.5.2.6.4 1.2.5 1.9 0 .2.3.3.5.3.2-.1.3-.3.3-.5z" />
		</g>
		<g>
			<path class="influencer_0"
				d="M154.2 106.3c-.4-.1-.7-.1-1.1 0-.1-.1-.2-.1-.3-.1-.4-.1-.9.1-1 .5-.1.4-.2.8-.4 1.2-.1.5-.3 1-.1 1.4.1.2.2.4.5.5.3.1.7.1 1 0 .2-.1.4-.3.6-.4.3-.3.6-.6.8-.9.3-.4.5-.8.6-1.2.2-.5-.1-1-.6-1z" />
			<path class="influencer_2"
				d="M152.4 107c0-.4-.6-.8-1.1-.7l-9.3 3h-.1c-.4 0-.9.2-.9.7-.3 3.3-.3 6.6-.1 9.9 0 .5.9 1 1.4.5 1-1 2.3-1.7 3.5-2.5 1.3-.8 2.4-1.7 3.3-2.8 1-1.2 1.9-2.6 2.7-3.9.4-.6.6-1.3.7-2 0-.7-.2-1.4-.1-2.2z" />
			<path class="influencer_0"
				d="M109 107.2h-.2c-.8-.4-1.7-.7-2.6-.8-.5-.1-1.1.2-1.1.7 0 .7 0 1.5.3 2.1.3.7.9 1.3 1.2 1.9.2.3.2.8.5 1 .4.4 1.1.5 1.6.1.4-.3.4-.8.4-1.3 0-.4.1-.8.1-1.1 0-.4.1-.9.1-1.3.2-.5.3-1.1-.3-1.3z" />
			<path class="influencer_2"
				d="M117.4 109.6c-2.5-.5-4.7-1.3-6.8-2.4-.2-.1-.3-.1-.5-.1-.5-.3-1.3-.1-1.3.5 0 1.4-.1 2.8-.1 4.3 0 .6 0 1.2.4 1.8.3.5.8 1 1.3 1.5 1.7 1.9 3.6 3.7 6.2 4.7.6.2 1.2 0 1.3-.6.1-3 .3-6 .4-9-.3-.3-.6-.6-.9-.7z" />
			<path class="influencer_0"
				d="M141.5 116.6c-.1-1.9-.3-3.9-.6-5.8-.1-.4-.3-.7-.8-.7-3.7-.2-7.3.7-11 .8-1.9.1-3.7-.1-5.5-.5-1.1-.2-2.7-.9-3.9-.6-.5-.2-1.3-.1-1.4.6l-.6 5.7c-.1 1.4-.9 3.2.7 4.2 1.7 1 3.6 1.9 5.5 2.8 1.4.6 3.4 1.7 5.1 1.5.8-.1 1.5-.5 2.3-.8 1.1-.4 2.3-.7 3.4-1l3.3-.9c.9-.3 2.1-.4 2.9-.8.7-.3.7-.9.7-1.4 0-1.2 0-2.2-.1-3.1z" />
			<path class="influencer_2"
				d="M154.1 103.5c-.9.1-1.7.4-2.5.6-.9.3-1.8.5-2.7.8-2.8.8-6 1.5-7.9 3.6-.6.7.7 1.4 1.4.8.1 0 .3 0 .5-.1 2.1-.9 4.2-1.7 6.4-2.5 2.1-.8 4.3-1.6 6.6-.7.5.2 1.3 0 1.3-.6-.2-1.3-1.6-2-3.1-1.9zM155.2 107.6c-3.1 4.5-6.9 8.6-11.4 12.2-.6.5 0 1.3.8 1.2 2.5-.4 4.4-1.9 5.9-3.6 1.7-1.8 3.2-3.8 4.1-6 .1-.2 0-.3 0-.4.7-.9 1.4-1.8 2-2.8.6-.6-.9-1.3-1.4-.6zM117.1 119.9c-4.5-1.1-7.5-4.3-10.1-7.4-.1-.1-.2-.2-.3-.2-.2-.4-.4-.9-.6-1.3-.3-.8-2-.5-1.6.4 1 2.5 2.5 4.9 4.5 7 .9 1 1.9 1.8 3.3 2.3 1.4.5 3 .6 4.5.6 1-.1 1.2-1.2.3-1.4zM116.5 107.3c-.1 0-.1 0 0 0-.3-.4-.7-.8-1.2-1.1-.9-.5-1.9-.9-2.8-1.3-1-.5-1.9-.9-2.9-1.4-.7-.3-1.4-.8-2.2-.8-.2-.2-.6-.3-1-.1-1.2.6-1.9 1.6-2 2.8 0 .5.8.9 1.3.6.7-.5 1.6-.3 2.5-.2 1 .2 2 .5 2.9.8 0 .3.1.5.4.6 1.2.6 2.5 1 3.8 1.3.1 0 .2.1.4.1.1 0 .3.1.4.1h.2c.9.1 1.1-1.3.2-1.4z" />
			<path class="influencer_0"
				d="M144 106.4c-.2.1-.4.3-.7.4-.2.1-.2.3-.2.4 0 .1-.1.1 0 .2.2.4.4.7.8 1.1.1.1.3.1.5.1.2-.1.3-.2.3-.3v-1.5c-.1-.3-.5-.5-.7-.4zM146.7 106.1c0-.1-.1-.2-.2-.3-.1-.1-.2-.1-.4-.1-.2.1-.3.1-.5.2-.1 0-.2.1-.3.2-.1.1-.1.2 0 .3v.1c.1.4.3.7.7 1 .1.1.3.1.5.1.1-.1.3-.2.3-.3-.1-.4-.1-.8-.1-1.2zM149 105.9c0-.2 0-.3-.1-.5 0-.1 0-.2-.1-.2-.1-.1-.2-.1-.3-.1h-.6c-.2 0-.4.2-.4.3 0 .1.1.2.2.3.1.2.1.3.2.5v.2c0 .1 0 .2.1.3.1.1.2.1.3.2h.5l.3-.3c0-.3-.1-.5-.1-.7zM151 105.6c0-.2-.1-.4-.2-.6 0 0 0-.1-.1-.1 0-.1-.1-.2-.2-.2s-.2-.1-.3 0c-.2.1-.4.2-.3.4.1.2.2.5.2.7.1.2.3.3.5.2.1 0 .2 0 .2-.1.1 0 .2-.1.2-.3 0 .1 0 0 0 0zM152.5 104.6l-.3-.6c-.1-.2-.3-.3-.5-.2-.1 0-.2.1-.2.1-.2.1-.3.2-.2.4l.2.6c0 .1.1.2.1.3 0 .1.1.2.1.3.1.2.4.2.6.2.2 0 .3-.2.4-.3 0-.3-.1-.6-.2-.8zM153.6 103.4c-.1-.2-.3-.3-.5-.2-.2.1-.3.2-.3.4s.1.3.1.5v1.3c0 .2.2.4.4.3.2 0 .4-.2.4-.3.1-.7.1-1.4-.1-2zM154.9 103.2c-.1-.2-.3-.3-.5-.2-.2.1-.3.2-.3.4 0 .1 0 .2.1.2V104.5c0 .1 0 .2-.1.2 0 .2-.1.3-.2.5s.1.4.3.4c.2 0 .4-.1.5-.2.3-.7.4-1.4.2-2.2z" />
			<path class="influencer_0"
				d="M155.6 103c-.2 0-.4.2-.4.3 0 .7-.2 1.3-.4 2-.1.2.1.4.3.4.2 0 .4-.1.5-.2.3-.7.4-1.4.5-2.2-.1-.1-.3-.3-.5-.3zM156.5 104c-.2 0-.4.2-.4.3V104.6c0 .1-.1.3-.1.4v.1c0 .1-.1.1-.1.2-.1.1-.2.2-.3.4-.1.2 0 .4.2.5.2.1.4 0 .6-.1.4-.5.7-1.1.8-1.7-.3-.2-.5-.4-.7-.4zM149.2 117.9c-.1-.3-.2-.6-.2-.8v-.2c0-.1-.1-.2-.2-.3 0-.2-.3-.3-.5-.2-.2.1-.3.2-.3.4 0 .1.1.2.1.4-.1.6-.2 1.2-.2 1.7 0 .1.1.3.3.3.2.1.3 0 .5-.1.1-.1.2-.1.3-.2.1-.1.2-.1.3-.2.1-.3 0-.5-.1-.8zM151.1 116c-.2-.6 0-1.3-.3-1.9-.1-.2-.3-.3-.5-.2-.2 0-.4.3-.3.4v.2c0 .9-.1 1.8-.1 2.7 0 .2.2.3.4.3.4 0 .7-.2.9-.6.2-.2 0-.5-.1-.9zM152.7 112.5v-.2-.1c0-.2-.3-.3-.5-.2-.2.1-.3.2-.3.4v.1c0 .6 0 1.3-.1 1.9 0 .3-.1.7.3.9.2.1.4.1.5 0 .1 0 .1 0 .2-.1.3 0 .4-.2.4-.4-.2-.7-.4-1.5-.5-2.3zM112.2 119.7c-.3-1-.5-1.9-.6-2.9 0-.2-.3-.4-.5-.3-.1 0-.1.1-.2.2-.2.1-.3.2-.3.4 0 .6.1 1.3.1 1.9 0 .3 0 .7.2 1 .1.1.3.1.4.2.2 0 .3.1.5.1s.3 0 .4-.1v-.5zM109.6 114.6c-.1-.3-.3-.4-.5-.4s-.4.2-.4.5c.1.8.1 1.6 0 2.4 0 .4 0 .8.2 1.2.2.4.6.5 1 .3.1-.1.2-.3.2-.4-.2-1.2-.3-2.4-.5-3.6zM107.8 113c-.1-.2-.3-.4-.5-.3-.2.1-.3.3-.3.5 0 .1-.1.1-.1.2l-.1 1.7c0 .3-.1.6.1.9.1.3.4.4.7.4.3-.1.4-.5.4-.8v-.8c0-.7-.1-1.2-.2-1.8zM107.7 103c-.2 0-.4.2-.4.3 0 .3 0 .6-.1.9 0 0 0 .1 0 0V104.5c0 .1-.1.3-.1.4-.1.2.1.4.3.4.2 0 .5-.1.5-.2.2-.6.3-1.2.3-1.8 0-.2-.2-.3-.5-.3zM109.9 103.9c.1-.2-.1-.4-.3-.4-.2 0-.4.1-.5.2-.2.5-.5 1.1-.7 1.6v.3c.1.1.1.1.2.1.2.1.4 0 .5-.1l.8-1.3c.1-.1.1-.2 0-.4zM111.9 104.3h-.3c0-.1-.1-.2-.3-.2-.2 0-.5.1-.5.2-.1.6-.2 1.3-.3 1.9 0 .2 0 .3.2.4.2.1.4 0 .5-.1.3-.6.7-1.2 1-1.8 0-.1-.1-.3-.3-.4zM113.8 105.1c-.2 0-.3 0-.4.1 0-.1-.1-.2-.3-.2-.2 0-.5.1-.5.2-.1.5-.2 1.1-.3 1.6 0 .2 0 .3.2.4.2.1.4 0 .5-.1.4-.5.8-1.1 1.1-1.6 0-.2-.1-.4-.3-.4zM115.9 106.7c.1-.2-.1-.4-.3-.4-.2 0-.4.1-.5.2-.2.4-.3.9-.4 1.4 0 .1 0 .1.1.2 0 .1.1.1.2.1.2.1.3 0 .5-.1.4-.3.6-.7.7-1.2-.1-.1-.2-.2-.3-.2zM106.8 102.7c-.2 0-.5.1-.5.2-.1.7-.3 1.4-.5 2.1 0 .2.1.4.3.4.2 0 .5-.1.5-.2.2-.7.3-1.4.5-2.1 0-.2-.1-.4-.3-.4zM105.6 103.1c0-.2-.2-.3-.4-.3s-.4.2-.4.3c0 .9.1 1.7.1 2.6 0 .2.2.3.4.3s.4-.2.4-.3c0-.9-.1-1.8-.1-2.6z" />
			<path class="influencer_1"
				d="M125.4 122.5c-3.2-1-6.5-1.7-9.8-1.9-.8 0-1.6 0-2.4-.1-.8-.2-1.5-.8-2.1-1.3-1.2-1.1-2.2-2.2-3.2-3.5-.9-1.2-1.6-2.6-2.2-4-.7-1.7-.6-3.4-.8-5.2-.1-.7-.2-1.5 0-2.2.3-1.1 1.5-1.3 2.5-1.2 1.6.3 3.1 1.2 4.6 1.9.8.4 1.7.7 2.5 1.2.8.4 1.4 1 2 1.7 1.1 1.2 2.4 1.9 3.9 2.6.9.4 1.6-.9.8-1.3-.7-.3-1.5-.7-2.1-1.1-.8-.5-1.4-1.3-2.1-2-1.3-1.3-3.1-1.9-4.7-2.6-2.4-1.1-7.2-3.6-8.7.2-.3.7-.3 1.4-.2 2.1.1 1.1.1 2.3.2 3.4.2 1.7.8 3.3 1.6 4.8.8 1.6 1.8 3.1 3 4.4 1.1 1.2 2.4 2.6 3.9 3.3.9.4 1.7.4 2.7.4 1.2 0 2.4.1 3.7.3 2.3.3 4.5.9 6.8 1.6.6.3 1-1.2.1-1.5zM139.2 110.8c1.3-.6 2.2-1.6 3.2-2.5 1.3-1.3 2.6-1.8 4.4-2.1 1.7-.3 3.1-.6 4.6-1.5.9-.5 1.7-.9 2.8-.9.5 0 1 .1 1.4.2.8.3 1 .7.9 1.5-.3 1.7-1 3.5-1.7 5.1-.8 1.9-1.7 3.6-3.1 5.1-1.2 1.3-2.6 2.5-4 3.6-1.6 1.3-3.6.7-5.5 1-1.9.4-3.8 1.3-5.7 1.9-2 .6-4 1.1-6 1.5-.9.2-.5 1.6.4 1.4 2.1-.4 4.2-.9 6.2-1.5 2.1-.6 4.2-1.8 6.3-2 2-.1 3.6 0 5.3-1.3 1.7-1.3 3.4-2.8 4.7-4.5 1.2-1.5 2.1-3.3 2.8-5.1.7-1.8 1.7-4 1.7-6 0-1.7-1.8-2.4-3.3-2.5-.9-.1-1.8 0-2.6.3-1.1.4-1.9 1.2-3 1.5-2.1.7-4.3.5-6.2 1.8-1.7 1.1-2.7 2.8-4.5 3.6-.7.5.1 1.8.9 1.4z" />
			<path class="influencer_1"
				d="M105.2 107.3c1.3-1.5 4.5.5 6 1 2.1.7 4.2 1.3 6.3 1.8 4.1.9 8.3 1.4 12.6 1.4 4.2 0 8.6-.3 12.7-1.3s8.4-4.7 12.7-3c-.1-.4-.2-.8-.3-1.3-3.1 3.3-5 7.6-8.4 10.5-3.4 2.9-7.7 4.6-12 6l-3 .9c-.8.2-2 .8-2.7.6-1.2-.2-2.5-.9-3.6-1.3-3.3-1.3-6.8-2.5-9.9-4.3-2.1-1.2-4.1-2.7-5.8-4.4-.8-.8-1.6-1.7-2.3-2.6-.7-1-2.2-2.6-2-3.9.1-.9-1.3-1.4-1.4-.4-.3 2.1 1.3 4 2.6 5.5 1.4 1.8 3 3.3 4.8 4.7 3.4 2.6 7.3 4.2 11.2 5.8 1.6.7 3.3 1.4 4.9 2 .4.2.9.4 1.4.4.9.1 1.9-.3 2.8-.6 4.6-1.4 9.3-2.8 13.4-5.5 2.2-1.4 4-3.1 5.6-5.1 1.9-2.4 3.4-5.1 5.5-7.4.4-.4.2-1-.3-1.3-4.5-1.8-8.5 1.6-12.6 2.7-4.5 1.3-9.4 1.6-14.1 1.5-4.7-.1-9.3-.7-13.8-1.9-2.2-.6-4.4-1.4-6.6-2.2-1.5-.6-3.5-1-4.7.4-.6 1 .4 2 1 1.3z" />
		</g>
		<g>
			<path class="influencer_1"
				d="M123.9 126.7c.5 1.1 1 2.8 2.3 3.1 1.5.4 2.4-1.2 3.2-2.2-.4.1-.8.1-1.2.2.8 1 1.8 2.5 3.3 2.2 1.5-.3 2-2.1 2.6-3.2.4-.9-.9-1.6-1.3-.8-.2.5-.5 1-.7 1.5-.2.3-.4.9-.8 1-.4.1-.7-.3-.9-.5-.4-.4-.7-.9-1.1-1.3-.3-.4-.9-.2-1.2.2-.3.4-1 1.8-1.6 1.5-.3-.2-.4-.6-.6-.8-.2-.5-.5-1-.7-1.5-.2-.4-.7-.5-1-.3-.4.1-.5.6-.3.9z" />
		</g>
	</g>
	<g>
		<path class="influencer_3"
			d="M20.7 135.1c.3-1.5 1.2-3.2 2.7-3.8 1.5-.7 3.3-.3 4.7.4 1.8.9 3.4 2.4 4.9 3.8 1.7 1.4 3.4 2.9 5 4.3.5.4.6 1 .4 1.4v.4c0 2.6.6 5.1 1.6 7.5.5 1.2.1 2.6-1.2 3.1-1.4.4-2.5-.5-3.1-1.6-.1-.2-.2-.3-.2-.5-1.2-.1-2.5.3-3.6.2-1.5-.1-3-.6-3.9-1.9-.5-.7-.4-1.4-.7-2.1-.2-.5-.8-.6-1.2-.8-1.3-.5-2.5-1.3-3.4-2.4-1.8-2.3-2.6-5.2-2-8z" />
		<path class="influencer_5"
			d="M43.7 143c-2.4-.5-4.1-1.9-5.7-3.8s-2.9-4.1-4.7-5.7c-1.8-1.6-4.2-2.6-6.6-2.9-1.3-.1-2.6-.1-3.9.4-2.4 1-3.9 3.6-3.9 6.1s1.4 5 3.3 6.7c2 1.6 3.2 2.3 6.1 3.3-.9.5-1.7 2.7-1.7 2.9.1.4 1.1-.2 1.5-.2 2.8-.4 5.5.9 8.2 1.9 2.7.9 5 .4 7.7-.3" />
		<path class="influencer_1"
			d="M44.1 141.6c-3.7-.8-5.4-4.1-7.6-6.9-2.4-3-5.5-5-9.3-5.5-3.5-.5-7 .8-8.6 4-1.6 3.1-1.1 6.8.8 9.5 2.1 3 5.3 4.7 8.7 5.8-.1-.9-.2-1.8-.4-2.7-1.2.8-2.2 2.5-2.4 3.9-.1 1 .6 1.8 1.6 1.9.9.1 1.8-.4 2.7-.4 2.6.1 4.9 1.5 7.3 2.1 2.6.6 5.1.1 7.6-.6 1.9-.5 1.1-3.4-.8-2.9-1.5.4-3 .8-4.5.8-1.6 0-3-.7-4.5-1.2-1.4-.5-2.8-1-4.3-1.1-.8-.1-1.6-.1-2.4 0-.4.1-.9.3-1.2.3.4.1.7.3 1.1.4l-.1-.1c.1.4.3.7.4 1.1 0 .4.1-.3.3-.6.2-.3.3-.8.7-1 1.1-.7.9-2.3-.4-2.7-3.1-1-6.4-2.8-7.8-5.9-1.4-3.2.1-7.3 3.9-7.7 4.2-.4 7.5 2.3 9.9 5.5 2.3 3 4.5 6.1 8.4 6.9 2 .4 2.8-2.5.9-2.9z" />
		<path class="influencer_1"
			d="M23.4 131c-.7 2.4-1.1 4.9-1 7.4 0 1.2.2 2.5.4 3.7.1.6.2 1.3.4 1.9.1.3.3.5.7.5.5 0 .5-.8 0-.8 0 0-.3-1.5-.3-1.6-.1-.5-.2-1-.3-1.6-.1-1-.2-2.1-.2-3.1 0-2.1.4-4.2 1-6.3.2-.3-.6-.5-.7-.1zM26.2 130.6c-.5.8-.5 2-.5 2.9-.1 1.7 0 3.3.2 5 .1 1.7.4 3.4.7 5 .1.6.3 1.3.5 1.9.1.4.3 1.1.8 1.3.2.1.3 0 .4-.2.1-.1.1-.2.1-.4s-.2-.3-.4-.3c-.5 0-.5.8 0 .8-.1-.1-.2-.2-.4-.3v-.2c.1-.1.3-.1.4-.2.2.1 0 0 0-.2 0-.1-.1-.2-.1-.4-.1-.2-.2-.5-.2-.7-.2-.6-.3-1.3-.4-1.9-.3-1.6-.5-3.2-.6-4.7-.1-1.5-.2-3-.1-4.5 0-.8 0-1.9.4-2.6.1-.4-.5-.7-.8-.3z" />
		<path class="influencer_1"
			d="M24.9 131c-.7.9-.7 2.2-.7 3.3-.1 1.4-.1 2.7 0 4.1.1 1.3.2 2.6.5 3.9.1.7.3 1.4.5 2.1.1.4.2 1.1.5 1.3.1.1.3.1.5.1h.1c.1 0 .2-.2.2-.3v-.1c0-.5-.8-.5-.8 0v.1c.1-.1.1-.2.2-.3h-.1c.2 0 .3 0 .5.1-.2-.1-.2-.7-.3-.9-.1-.3-.2-.6-.2-.9l-.3-1.5c-.2-1.2-.3-2.5-.4-3.7-.1-1.1-.1-2.3 0-3.4 0-1.1 0-2.4.7-3.3.1-.6-.6-1-.9-.6zM27.4 130.7c-.3 2.7-.1 5.5.2 8.2.3 2.7.7 5.4 1.2 8.1 0-.1.1-.2.1-.4-.3.4.1 1.2.2 1.6.1.4.2 1.3.7 1.4.5.1.7-.6.2-.7.3.1.1.2.1-.1 0-.2-.1-.5-.2-.7-.1-.4-.2-.8-.3-1.1 0-.1 0 .3-.1.1l.1-.2c0-.4-.1-.8-.2-1.2-.2-1-.4-2-.5-3-.6-3.9-1.1-8-.6-12-.1-.5-.9-.5-.9 0z" />
		<path class="influencer_1"
			d="M28.7 131.9c-.4 3 .3 6 .8 9 .5 3.2 1.2 6.4 2.4 9.5.1.3.6.4.7 0 0-.1.1-.2.1-.3.1-.5-.6-.7-.7-.2 0 .1-.1.2-.1.3h.7c-1.1-2.8-1.7-5.8-2.2-8.8-.5-3-1.3-6.2-.9-9.3 0-.5-.8-.7-.8-.2z" />
		<path class="influencer_1"
			d="M30 132.1c.2 3.5.6 7 1.2 10.4.3 1.7.7 3.4 1.1 5 .2.8.5 1.6.8 2.3.2.4.3.9.7 1 .2.1.3 0 .4-.2.1-.2.1-.3 0-.5s-.3-.2-.4-.2c-.5.1-.3.8.2.7-.1-.1-.3-.1-.4-.2V150.1v.1c.1-.1.3-.1.4-.2 0 0-.3-.7-.4-.9-.1-.4-.3-.7-.4-1.1-.2-.6-.4-1.3-.5-1.9-.4-1.5-.7-3.1-1-4.6-.6-3.1-.9-6.3-1-9.5 0-.4-.7-.4-.7.1z" />
		<path class="influencer_1"
			d="M31.7 132.9c.1 6.3 1.8 12.4 3.5 18.5.1.3.5.4.7.1.1-.1.1-.2.2-.3.2-.4-.4-.8-.6-.4-.1.1-.1.2-.2.3.2 0 .5.1.7.1-1.7-6-3.4-12-3.5-18.3 0-.5-.8-.5-.8 0z" />
		<path class="influencer_1"
			d="M33.2 134.6c.1 3.1.8 6 1.6 9 .4 1.5.8 2.9 1.2 4.4.3 1.4.7 2.7 1.4 3.9.2.3.6.2.7-.1 0-.1.1-.2.1-.3.2-.5-.6-.6-.7-.2 0 .1-.1.2-.1.3.2 0 .5-.1.7-.1-.7-1.3-1-2.7-1.4-4.1-.3-1.4-.7-2.7-1.1-4.1-.8-2.9-1.5-5.8-1.6-8.8-.1-.4-.9-.4-.8.1z" />
		<path class="influencer_1"
			d="M34.9 136.4c.3 2.9.6 5.7 1.2 8.6.3 1.4.7 2.8 1.1 4.1.2.7.5 1.4.8 2 .2.4.2.8.7.9.2.1.3 0 .4-.2.1-.1.1-.3.1-.4-.1-.2-.2-.3-.5-.3-.5.1-.3.8.2.7-.2-.1-.3-.2-.5-.3v-.2c.1-.1.3-.1.4-.2-.1 0-.3-.8-.3-.9-.1-.3-.2-.5-.3-.8-.2-.6-.4-1.2-.6-1.9-.4-1.2-.6-2.4-.9-3.6-.5-2.6-.8-5.2-1.1-7.8 0-.1-.7-.1-.7.3zM22.2 131.5c-1.2 3.5-1.7 7.2-1.3 10.8 0 .3.2.4.5.4.2 0 .3-.1.5-.1.5-.1.3-.8-.2-.7-.2 0-.3.1-.5.1.2.1.3.2.5.4-.4-3.6.1-7.2 1.3-10.6 0-.5-.7-.7-.8-.3zM37.2 138.8c.2 2.6.4 5.2.9 7.7.2 1.1.6 2.2 1.1 3.3.2.5.5 1.1.9 1.5.2.3.4.7.8.8.2 0 .3-.1.4-.3.1-.2 0-.3-.1-.4-.1-.1-.3-.1-.5-.1-.4.2 0 .9.4.6-.2 0-.3 0-.5-.1 0-.1-.1-.2-.1-.4.1-.1.2-.2.4-.3.1 0-.3-.5-.3-.6-.2-.2-.3-.5-.4-.7-.2-.5-.5-.9-.6-1.4-.4-1-.6-2-.8-3-.4-2.3-.6-4.6-.8-6.8 0-.3-.8-.3-.8.2zM68.2 108.9c-1.2-.9-3.2-.6-4.6-.2-.9.3-1.7.8-2.5 1.2-.7.4-1.5.8-2.3 1-.5.1-.8 0-1.1-.6-.3-.5-.3-1.4-.2-2.1.1-1 .5-1.9.7-2.8.3-1.1.7-2.1 1-3.2.2-.8-.3-1.6-1-1.8-.8-.2-1.6.3-1.8 1-.7 2.2-1.5 4.3-1.8 6.6-.3 2.2.4 4.9 2.7 5.7 2.2.8 4.4-.6 6.2-1.6.3-.1.5-.3.8-.4 0 0 .5-.2.1-.1.3-.1.7-.2 1.1-.3.2 0 .2 0 0 0H66.4c.2 0 .2 0 0 0 .1 0 .2 0 .2.1.2.1.2.1 0 0 .1 0 .1.1.2.1.7.5 1.7.1 2.1-.5.2-.9-.1-1.7-.7-2.1z" />
		<path class="influencer_5"
			d="M31.8 119.6c0-.8.4-1.6 1-2.2.7-.6 1.5-.6 2.4-.6 1.3 0 1.2-5.4 2.4-5.3v-.2c.8-2.8 2.1-5.3 3.3-7.9-.3-1.9-.6-3.9-.8-5.8-.2-2.2-.5-4.8.8-6.8.5-.8 1.3-1.5 2.3-1.7 1.2-.3 2.4.2 3.4.7 2.1 1.2 4 2.6 5.9 4.1 9.7-4 21-4.1 30.7 0 .9-.7 1.8-1.3 2.8-1.9 1-.6 2-1.1 3.1-1.5 1.1-.5 2.4-.9 3.6-.4.8.3 1.5.9 1.6 1.8.1.4.1.9.1 1.3.1 1.7.2 3.3.2 5 0 1.3-.1 2.5-.2 3.8l.2.2c1.9 3.5 4.4 6.8 5.5 10.6.2.1 1.4 7.2 2.3 7.5 1.7.6 3.2 1.8 3.1 3.8-.2 1.8-1.4 3.3-2.5 4.7-1.2 1.5.4-3.9-.4-2.2-.1.2-.2.3-.4.4.1 8.9-.7 18.4-6.6 25.4 0 .2.1.3.1.5.3 1 .5 2 .6 3 .1 1.1.2 2.2 0 3.3-.2 1-1 1.6-2 1.7-2.1.3-4.1-.7-5.8-1.8-.5-.4-1.1-.8-1.6-1.2-10.2 3.6-22.6 5.3-32.6.1-.1 0-.2-.1-.3-.1-.5-.3-1.3-.2-1.9-.1-.8.2-1.5.6-2.2 1-1.7.9-3.8 2.3-5.8 1.3-1.8-.9-2.2-3.2-2-5 .1-.6.2-1.2.4-1.8-1.3-1.7-2.7-3.3-3.9-5.1-1.3-2.1-2.2-4.4-3-6.6-1.4-3.9-2.2-7.9-1.8-12.1.2-2.2.8-3.5-.1-4.8-.9-1.5-1.9-3.3-1.9-5.1z" />
		<g>
			<path class="influencer_1"
				d="M85.9 156c-9.7 3.3-21.7 5-31.1-.1-1.7-.9-3.2 1.7-1.5 2.6 10.1 5.5 22.9 3.9 33.4.4 1.8-.6 1-3.5-.8-2.9z" />
		</g>
		<g>
			<path class="influencer_1"
				d="M95.3 150.7c-.6.9-.4 2.1-.3 3.1.1.9.4 1.8.6 2.8.2.9.3 1.7.3 2.6 0 .5 0 .9-.1 1.4v.1c0-.1.1-.2.2-.3.1-.1.1-.1-.1 0h-.1c-1.5.2-3.1-.8-4.4-1.7-1.5-1.1-2.9-2.3-4.2-3.7-.6-.6-1.6-.6-2.1 0-.6.6-.6 1.5 0 2.1 1.5 1.6 3.2 3.1 5 4.3 1.8 1.2 3.9 2.2 6.1 1.9 1.2-.2 2.3-.8 2.6-2 .3-1 .2-2.3.1-3.3-.1-1.2-.4-2.3-.7-3.4-.1-.5-.2-.9-.3-1.4v-.8-.4.2c.4-.7.1-1.7-.5-2.1-.8-.3-1.7 0-2.1.6z" />
		</g>
		<g>
			<path class="influencer_1"
				d="M55.7 156.3c-1.2-.9-3.2-.6-4.6-.2-.9.3-1.7.8-2.5 1.2-.7.4-1.5.8-2.3 1-.5.1-.8 0-1.1-.6-.3-.5-.3-1.4-.2-2.1.1-1 .5-1.9.7-2.8.3-1.1.7-2.1 1-3.2.2-.8-.3-1.6-1-1.8-.8-.2-1.6.3-1.8 1-.7 2.2-1.5 4.3-1.8 6.6-.3 2.2.4 4.9 2.7 5.7 2.2.8 4.4-.6 6.2-1.6.3-.1.5-.3.8-.4 0 0 .5-.2.1-.1.3-.1.7-.2 1.1-.3.2 0 .2 0 0 0H53.9c.2 0 .2 0 0 0 .1 0 .2 0 .2.1.2.1.2.1 0 0 .1 0 .1.1.2.1.7.5 1.7.1 2.1-.5.3-.8-.1-1.6-.7-2.1z" />
		</g>
		<g>
			<path class="influencer_1"
				d="M44.5 152c-1.6-2.2-3.6-4.2-4.8-6.6-1.2-2.4-2.3-4.9-3-7.5-1.2-4.6-.6-8.9 1-13.3.7-1.8-2.2-2.6-2.9-.8-1.7 4.8-2.4 9.6-1.1 14.5.7 2.7 1.8 5.2 3 7.7 1.4 2.8 3.4 5 5.3 7.5 1 1.6 3.7.1 2.5-1.5z" />
		</g>
		<g>
			<path class="influencer_1"
				d="M35.9 111.5c-1.2 1.4-2.4 2.9-3.3 4.5-.5.7-.8 1.5-1.2 2.3-.4 1-.8 2-.8 3 0 .9.4 1.9 1.1 2.5.8.7 1.8.9 2.9.8 2 0 4-.2 5.9-.4.8-.1 1.5-.6 1.5-1.5 0-.7-.7-1.6-1.5-1.5-1.6.2-3.3.3-4.9.4h-1.7c.2 0-.3-.1-.1 0-.2-.1-.1-.1 0 0l-.1-.2c0-.1-.1-.4 0-.2v-.4c.2-1.4 1.1-2.7 1.8-3.9.8-1.2 1.6-2.3 2.6-3.4.5-.6.6-1.5 0-2.1-.6-.4-1.7-.5-2.2.1z" />
		</g>
		<g>
			<path class="influencer_1"
				d="M97.9 116.6c1 1.9 2.4 3.5 3.7 5.1.6.8 1.2 1.5 1.6 2.4.3.6.5 1.3-.1 1.7-.2.1-.4.2-.6.4-.5.3.3 0-.2.1-.3.1-.6.2-.9.2-.3.1-.7.1-1 .2-.4.1-.6.1-.8.1-1.1.1-2.8.1-3.7.9-1.4 1.4.7 3.5 2.1 2.1-.3.2-.3.2-.2.2-.3.1-.3.1-.2.1.1 0 .2-.1.3-.1.3-.1.6-.1.9-.1h.3c.2 0 .3 0 .5-.1.5-.1 1-.1 1.5-.2 1.8-.3 3.6-.8 4.7-2.4 1.5-2.2 0-4.8-1.4-6.6-1.4-1.8-2.9-3.5-4-5.5-.8-1.8-3.4-.2-2.5 1.5z" />
		</g>
		<g>
			<path class="influencer_1"
				d="M101 116.1c-.5-5.1-3.3-9.3-5.8-13.7-.9-1.7-3.5-.2-2.6 1.5 2.2 3.9 4.9 7.7 5.4 12.2.1.8.6 1.5 1.5 1.5.7 0 1.6-.7 1.5-1.5z" />
		</g>
		<g>
			<path class="influencer_1"
				d="M39.2 112c.1-.4.2-.7.4-1 0-.1.1-.2 0 0 0-.1.1-.2.1-.3.1-.2.2-.3.2-.5.3-.7.7-1.4 1.1-2.1.8-1.3 1.6-2.6 2.3-4 .3-.7.2-1.7-.5-2.1-.7-.4-1.7-.2-2.1.5-1.4 2.9-3.5 5.5-4.5 8.6-.2.8.3 1.7 1 1.8.9.4 1.7 0 2-.9z" />
		</g>
		<g>
			<path class="influencer_1"
				d="M83.9 93.9c-9.9-4.3-21.2-4.6-31.3-.5-1.8.7-1 3.6.8 2.9 9.2-3.7 19.8-3.8 29 .2 1.8.7 3.3-1.8 1.5-2.6z" />
		</g>
		<g>
			<path class="influencer_1"
				d="M94.7 104.4c.6-1.6.7-3.4.7-5.1.1-1.7 0-3.4 0-5.1-.1-1.4-.1-2.8-1.4-3.8-2.2-1.6-5.2 0-7.3 1.1-2.3 1.2-4.4 2.8-6.3 4.6-1.4 1.3.7 3.4 2.1 2.1 1.4-1.4 2.9-2.6 4.6-3.6.9-.5 1.8-1 2.7-1.4.5-.2.9-.4 1.4-.5.2-.1.4-.1.6-.1.1 0 .3.1.4.1.3.1 0 .1.1 0v-.1.3c0 .5.1 1 .1 1.5.1 1.5.1 3 0 4.6 0 .9-.1 1.8-.2 2.6 0 .3 0 .1 0 0 0 .1 0 .2-.1.3 0 .2-.1.4-.1.6-.1.3-.2.7-.3 1-.3.8.3 1.6 1 1.8 1 .4 1.8-.1 2-.9zM43.5 103c-.2-1.7-.5-3.3-.7-4.9-.1-.9-.1-1.9-.1-2.8 0-.9-.1-1.9.3-2.8.2-.5.6-1 1.1-1.1.8-.1 1.7.5 2.3.9 1.8 1.1 3.5 2.4 5.2 3.7.4-.9.7-1.7 1.1-2.6h-.2c.3.1.5.1.8.2-1.4-1.4-3.5.8-2.1 2.1.4.4.9.6 1.5.6 1.2.1 2.1-1.7 1.1-2.6-2-1.6-4.1-3.2-6.3-4.5-1.2-.7-2.5-1.2-3.8-.9-1.2.2-2.2 1-2.8 2-1.3 2-1 4.7-.9 7 .1 2.2.5 4.3.8 6.4.1.8 1.1 1.2 1.8 1 .7-.1 1-.9.9-1.7z" />
			<path class="influencer_1"
				d="M51.9 95.2c-.4.8-.8 2.1-1.7 2.4-.6.2-1.5-.2-2-.7-.3-.3-.5-.7-.7-1.1-.2-.4-.5-.7-.7-1-.8-1.1-2.3-3.4-3.9-2-.6.5-.7 1.4-.6 2.1.1.9.1 1.9.1 2.8 0 1.1 0 2.2-.1 3.3-.1.7-.2 1.5-.7 2-.7.6.3 1.7 1.1 1.1 1.2-1.1 1.2-3.2 1.3-4.7v-3-1.3c0-.3-.1-.8 0-1.1.1-.2.1-.1.2-.1.3.2.6.5.8.8.5.6 1 1.3 1.4 2 .5.9 1 1.6 2 2 .7.3 1.6.5 2.4.3 1.4-.4 1.9-1.8 2.5-3 .3-.9-1-1.7-1.4-.8zM80.9 98.3c.6.4 1.1 1 1.7 1.4.8.4 1.7.1 2.5-.3 1.8-1 3.2-2.5 5-3.5.2-.1.7-.5.9-.4.1 0 .1.2.2.3.2.6.1 1.4.1 2 .1 2 .7 4 .8 6.1.1 1 1.6 1 1.5 0-.1-1.7-.5-3.3-.7-5-.1-.7-.1-1.4-.1-2.1 0-.6 0-1.2-.2-1.7s-.6-1-1.2-1.1c-.7-.2-1.3.2-1.9.5-1.4.8-2.7 1.9-4.1 2.9-.5.4-1.4 1.2-2.1.9-.3-.1-.6-.4-.8-.7-.3-.3-.6-.5-.9-.7-.8-.4-1.5.9-.7 1.4z" />
			<path class="influencer_1"
				d="M91.5 94.8c.7-.9 1.2-1.9 1.4-3 0-.2-.1-.4-.3-.5-.2-.1-.4.1-.5.3-.2 1-.6 1.9-1.2 2.6-.1.2-.2.4 0 .5.2.2.5.2.6.1zM90.5 95.2c.3-1.1.7-2.2 1-3.3.1-.5-.6-.7-.7-.2-.3 1.1-.7 2.2-1 3.3-.2.4.5.6.7.2zM89.3 95.6c.3-1 .5-2 .5-3.1 0-.5-.8-.5-.8 0 0 1-.2 2-.5 2.9-.1.2.1.4.3.5.3 0 .4-.1.5-.3z" />
			<path class="influencer_1"
				d="M88.2 96.7c.3-1.2.5-2.5.5-3.7 0-.2-.2-.4-.4-.4s-.4.2-.4.4c-.1 1.2-.2 2.4-.5 3.5-.1.4.7.6.8.2zM87 97.5c.3-1.2.4-2.4.2-3.6 0-.2-.3-.3-.5-.3-.2.1-.3.3-.3.5.1 1.1.1 2.2-.2 3.2 0 .5.7.7.8.2z" />
			<path class="influencer_1"
				d="M86 98.2c.3-1.1.3-2.3 0-3.4 0-.2-.3-.3-.5-.3-.2.1-.3.3-.3.5.2 1 .2 2 0 3 0 .5.7.7.8.2zM85.1 98.8c.1-1 0-2.1-.3-3-.1-.5-.9-.3-.7.2.3.9.3 1.9.2 2.8 0 .2.2.4.4.4.3 0 .4-.2.4-.4z" />
			<path class="influencer_1"
				d="M84.3 98.8c0-1-.2-2-.5-2.9-.1-.2-.3-.3-.5-.3-.2.1-.3.3-.3.5.3.9.5 1.8.5 2.7.1.5.8.5.8 0zM92.2 95.9c.7-.7 1.4-1.5 2.1-2.2.1-.1.2-.4 0-.5-.1-.1-.4-.2-.5 0-.7.7-1.4 1.5-2.1 2.2-.1.1-.2.4 0 .5.2.2.4.2.5 0zM92.4 97.5c.6-.4 1.1-.9 1.5-1.5.1 0 .1-.1.1-.2s0-.2-.1-.3c-.1-.1-.4-.2-.5 0L91.9 97c-.1.1-.1.2-.1.3 0 .1 0 .2.1.3.1.1.2.1.3.1l.2-.2zM92.3 99.3l1.5-1.5c.1-.1.1-.4 0-.5-.2-.1-.4-.1-.5 0l-1.5 1.5c-.1.1-.1.4 0 .5.1.1.3.1.5 0zM92.5 100.6c.8-.6 1.6-1.2 2.4-1.9.1-.1.1-.4 0-.5-.2-.1-.4-.1-.5 0-.7.7-1.4 1.2-2.2 1.8-.2.1-.2.3-.1.5 0 .1.2.2.4.1zM44.1 93.1c-.3-1.1-.4-2.3-.4-3.5 0-.5-.7-.5-.8 0 0 1.2.1 2.5.4 3.7.2.5.9.3.8-.2z" />
			<path class="influencer_1"
				d="M44.8 93.5c.1-1.1.1-2.1.2-3.2 0-.2-.2-.4-.4-.4s-.4.2-.4.4c-.1 1.1-.1 2.1-.2 3.2 0 .2.2.4.4.4.3 0 .4-.2.4-.4zM45.7 94c0-1.2.2-2.4.5-3.5.1-.5-.6-.7-.7-.2-.3 1.2-.5 2.5-.5 3.7-.1.5.7.5.7 0zM46.5 94.9c.1-1.2.3-2.3.5-3.5.1-.5-.6-.7-.7-.2-.3 1.2-.5 2.5-.6 3.7 0 .2.2.4.4.4.3 0 .4-.2.4-.4zM47.1 96.3c.2-1.4.5-2.8.9-4.2.1-.5-.6-.7-.7-.2-.4 1.4-.7 2.8-.9 4.2 0 .2.1.4.3.5.2 0 .4-.1.4-.3zM47.7 97.3c.4-1.5.8-3.1 1.2-4.6.1-.5-.6-.7-.7-.2-.4 1.5-.8 3.1-1.2 4.6-.1.5.6.7.7.2zM48.5 97.7c.4-1.3.7-2.5 1.1-3.8.1-.5-.6-.7-.7-.2-.4 1.3-.7 2.5-1.1 3.8-.2.4.5.6.7.2zM49.5 98c.5-1.2.9-2.4 1.2-3.6.1-.5-.6-.7-.7-.2-.3 1.2-.7 2.4-1.2 3.6-.1.2.1.4.3.5.2 0 .4-.1.4-.3zM50.9 97.7c.5-.7.8-1.6.8-2.5 0-.2-.2-.4-.4-.4s-.4.2-.4.4v.6s0 .1 0 0V96.1c0 .1 0 .2-.1.3-.1.2-.1.3-.2.5s-.2.4-.3.5c-.1.2 0 .4.1.5.2 0 .4-.1.5-.2zM43.2 94c-.2-.5-.4-1-.6-1.4 0-.1-.1-.2-.2-.2h-.3c-.1.1-.2.1-.2.2v.3c.2.5.4 1 .6 1.4 0 .1.1.2.2.2h.3c.1-.1.2-.1.2-.2.1-.1.1-.2 0-.3zM43.3 95.8c-.3-.8-.8-1.4-1.4-1.9-.1-.1-.2-.1-.3-.1-.1 0-.2 0-.3.1-.1.1-.2.4 0 .5.1.1.3.2.4.4l.2.2.1.1s.1.1 0 0c.1.1.2.3.3.4 0 .1.1.2.1.2s0 .1.1.1v.1c.1.2.3.3.5.3s.4-.2.3-.4zM43.3 98.2c-.2-1-.7-1.8-1.5-2.3-.2-.1-.4 0-.5.1-.1.2 0 .4.1.5h.1s.1.1 0 0l.1.1c.1.1.2.1.2.2.1.1.1.2.2.2 0 0 0-.1 0 0v.1l.1.1c.1.1.1.2.1.3 0 0 0 .1.1.1v.1c0-.1 0 0 0 0 .1.2.1.4.2.6 0 .2.3.3.5.3s.3-.2.3-.4zM43.1 99.8c-.4-.8-.9-1.6-1.4-2.3-.1-.2-.3-.3-.5-.1-.2.1-.3.3-.1.5.5.7 1 1.5 1.4 2.3.1.2.4.2.5.1.1-.1.1-.3.1-.5zM83.5 98.4c-.1-.6-.3-1.3-.5-1.9-.1-.2-.3-.3-.5-.3-.2.1-.3.3-.3.5.2.6.4 1.2.5 1.9 0 .2.3.3.5.3.2-.1.3-.3.3-.5z" />
		</g>
		<g>
			<path class="influencer_0"
				d="M91.7 104.2c-.4-.1-.7-.1-1.1 0-.1-.1-.2-.1-.3-.1-.4-.1-.9.1-1 .5-.1.4-.2.8-.4 1.2-.1.5-.3 1-.1 1.4.1.2.2.4.5.5.3.1.7.1 1 0 .2-.1.4-.3.6-.4.3-.3.6-.6.8-.9.3-.4.5-.8.6-1.2.1-.5-.2-.9-.6-1z" />
			<path class="influencer_2"
				d="M89.8 105c0-.4-.6-.8-1.1-.7l-9.3 3h-.1c-.4 0-.9.2-.9.7-.3 3.3-.3 6.6-.1 9.9 0 .5.9 1 1.4.5 1-1 2.3-1.7 3.5-2.5 1.3-.8 2.4-1.7 3.3-2.8 1-1.2 1.9-2.6 2.7-3.9.4-.6.6-1.3.7-2 0-.8-.1-1.5-.1-2.2z" />
			<path class="influencer_0"
				d="M46.4 105.1h-.2c-.8-.4-1.7-.7-2.6-.8-.5-.1-1.1.2-1.1.7 0 .7 0 1.5.3 2.1.3.7.9 1.3 1.2 1.9.2.3.2.8.5 1 .4.4 1.1.5 1.6.1.4-.3.4-.8.4-1.3 0-.4.1-.8.1-1.1 0-.4.1-.9.1-1.3.3-.5.3-1.1-.3-1.3z" />
			<path class="influencer_2"
				d="M54.8 107.6c-2.5-.5-4.7-1.3-6.8-2.4-.2-.1-.3-.1-.5-.1-.5-.3-1.3-.1-1.3.5 0 1.4-.1 2.8-.1 4.3 0 .6 0 1.2.4 1.8.3.5.8 1 1.3 1.5 1.7 1.9 3.6 3.7 6.2 4.7.6.2 1.2 0 1.3-.6.1-3 .3-6 .4-9-.3-.3-.6-.7-.9-.7z" />
			<path class="influencer_0"
				d="M79 114.5c-.1-1.9-.3-3.9-.6-5.8-.1-.4-.3-.7-.8-.7-3.7-.2-7.3.7-11 .8-1.9.1-3.7-.1-5.5-.5-1.1-.2-2.7-.9-3.9-.6-.5-.2-1.3-.1-1.4.6l-.6 5.7c-.1 1.4-.9 3.2.7 4.2 1.7 1 3.6 1.9 5.5 2.8 1.4.6 3.4 1.7 5.1 1.5.8-.1 1.5-.5 2.3-.8 1.1-.4 2.3-.7 3.4-1l3.3-.9c.9-.3 2.1-.4 2.9-.8.7-.3.7-.9.7-1.4 0-1.2-.1-2.1-.1-3.1z" />
			<path class="influencer_2"
				d="M91.5 101.5c-.9.1-1.7.4-2.5.6-.9.3-1.8.5-2.7.8-2.8.8-6 1.5-7.9 3.6-.6.7.7 1.4 1.4.8.1 0 .3 0 .5-.1 2.1-.9 4.2-1.7 6.4-2.5 2.1-.8 4.3-1.6 6.6-.7.5.2 1.3 0 1.3-.6-.1-1.4-1.6-2.1-3.1-1.9zM92.6 105.6c-3.1 4.5-6.9 8.6-11.4 12.2-.6.5 0 1.3.8 1.2 2.5-.4 4.4-1.9 5.9-3.6 1.7-1.8 3.2-3.8 4.1-6 .1-.2 0-.3 0-.4.7-.9 1.4-1.8 2-2.8.6-.7-.8-1.4-1.4-.6zM54.5 117.8c-4.5-1.1-7.5-4.3-10.1-7.4-.1-.1-.2-.2-.3-.2-.2-.4-.4-.9-.6-1.3-.3-.8-2-.5-1.6.4 1 2.5 2.5 4.9 4.5 7 .9 1 1.9 1.8 3.3 2.3 1.4.5 3 .6 4.5.6 1-.1 1.2-1.2.3-1.4zM53.9 105.2s-.1 0 0 0c-.3-.4-.7-.8-1.2-1.1-.9-.5-1.9-.9-2.8-1.3-1-.5-1.9-.9-2.9-1.4-.7-.3-1.4-.8-2.2-.8-.2-.2-.6-.3-1-.1-1.2.6-1.9 1.6-2 2.8 0 .5.8.9 1.3.6.7-.5 1.6-.3 2.5-.2 1 .2 2 .5 2.9.8 0 .3.1.5.4.6 1.2.6 2.5 1 3.8 1.3.1 0 .2.1.4.1.1 0 .3.1.4.1h.2c.9.1 1.1-1.3.2-1.4z" />
			<path class="influencer_0"
				d="M81.4 104.4c-.2.1-.4.3-.7.4-.2.1-.2.3-.2.4 0 .1-.1.1 0 .2.2.4.4.7.8 1.1.1.1.3.1.5.1.2-.1.3-.2.3-.3v-1.5c-.1-.4-.4-.6-.7-.4zM84.1 104.1c0-.1-.1-.2-.2-.3-.1-.1-.2-.1-.4-.1-.2.1-.3.1-.5.2-.1 0-.2.1-.3.2-.1.1-.1.2 0 .3v.1c.1.4.3.7.7 1 .1.1.3.1.5.1.1-.1.3-.2.3-.3 0-.5-.1-.8-.1-1.2zM86.4 103.9c0-.2 0-.3-.1-.5 0-.1 0-.2-.1-.2-.1-.1-.2-.1-.3-.1h-.6c-.2 0-.4.2-.4.3 0 .1.1.2.2.3.1.2.1.3.2.5v.2c0 .1 0 .2.1.3.1.1.2.1.3.2h.5l.3-.3c0-.4 0-.6-.1-.7zM88.4 103.5c0-.2-.1-.4-.2-.6 0 0 0-.1-.1-.1 0-.1-.1-.2-.2-.2s-.2-.1-.3 0c-.2.1-.4.2-.3.4.1.2.2.5.2.7.1.2.3.3.5.2.1 0 .2 0 .2-.1.2 0 .2-.1.2-.3 0 .1 0 .1 0 0zM89.9 102.6l-.3-.6c-.1-.2-.3-.3-.5-.2-.1 0-.2.1-.2.1-.2.1-.3.2-.2.4l.2.6c0 .1.1.2.1.3 0 .1.1.2.1.3.1.2.4.2.6.2.2 0 .3-.2.4-.3.1-.4-.1-.6-.2-.8zM91 101.3c-.1-.2-.3-.3-.5-.2-.2.1-.3.2-.3.4s.1.3.1.5v1.3c0 .2.2.4.4.3.2 0 .4-.2.4-.3.2-.7.1-1.4-.1-2zM92.3 101.2c-.1-.2-.3-.3-.5-.2-.2.1-.3.2-.3.4 0 .1 0 .2.1.2V102.5c0 .1 0 .2-.1.2 0 .2-.1.3-.2.5s.1.4.3.4c.2 0 .4-.1.5-.2.3-.7.4-1.5.2-2.2zM93.1 101c-.2 0-.4.2-.4.3 0 .7-.2 1.3-.4 2-.1.2.1.4.3.4.2 0 .4-.1.5-.2.3-.7.4-1.4.5-2.2-.1-.2-.3-.3-.5-.3z" />
			<path class="influencer_0"
				d="M93.9 102c-.2 0-.4.2-.4.3V102.6c0 .1-.1.3-.1.4v.1c0 .1-.1.1-.1.2-.1.1-.2.2-.3.4-.1.2 0 .4.2.5.2.1.4 0 .6-.1.4-.5.7-1.1.8-1.7-.2-.3-.5-.4-.7-.4zM86.7 115.9c-.1-.3-.2-.6-.2-.8v-.2c0-.1-.1-.2-.2-.3 0-.2-.3-.3-.5-.2-.2.1-.3.2-.3.4 0 .1.1.2.1.4-.1.6-.2 1.2-.2 1.7 0 .1.1.3.3.3.2.1.3 0 .5-.1.1-.1.2-.1.3-.2.1-.1.2-.1.3-.2 0-.3-.1-.6-.1-.8zM88.6 114c-.2-.6 0-1.3-.3-1.9-.1-.2-.3-.3-.5-.2-.2 0-.4.3-.3.4v.2c0 .9-.1 1.8-.1 2.7 0 .2.2.3.4.3.4 0 .7-.2.9-.6.2-.3 0-.6-.1-.9zM90.1 110.4v-.2-.1c0-.2-.3-.3-.5-.2-.2.1-.3.2-.3.4v.1c0 .6 0 1.3-.1 1.9 0 .3-.1.7.3.9.2.1.4.1.5 0 .1 0 .1 0 .2-.1.3 0 .4-.2.4-.4-.2-.7-.3-1.5-.5-2.3zM49.6 117.6c-.3-1-.5-1.9-.6-2.9 0-.2-.3-.4-.5-.3-.1 0-.1.1-.2.2-.2.1-.3.2-.3.4 0 .6.1 1.3.1 1.9 0 .3 0 .7.2 1 .1.1.3.1.4.2.2 0 .3.1.5.1s.3 0 .4-.1v-.5zM47 112.5c-.1-.3-.3-.4-.5-.4s-.4.2-.4.5c.1.8.1 1.6 0 2.4 0 .4 0 .8.2 1.2.2.4.6.5 1 .3.1-.1.2-.3.2-.4-.1-1.2-.3-2.4-.5-3.6zM45.2 111c-.1-.2-.3-.4-.5-.3-.2.1-.3.3-.3.5 0 .1-.1.1-.1.2l-.1 1.7c0 .3-.1.6.1.9.1.3.4.4.7.4.3-.1.4-.5.4-.8v-.8c0-.7 0-1.3-.2-1.8zM45.2 100.9c-.2 0-.4.2-.4.3 0 .3 0 .6-.1.9 0 0 0 .1 0 0V102.4c0 .1-.1.3-.1.4-.1.2.1.4.3.4.2 0 .5-.1.5-.2.2-.6.3-1.2.3-1.8-.1-.1-.3-.3-.5-.3zM47.4 101.9c.1-.2-.1-.4-.3-.4-.2 0-.4.1-.5.2-.2.5-.5 1.1-.7 1.6v.3c.1.1.1.1.2.1.2.1.4 0 .5-.1l.8-1.3c.1-.2 0-.3 0-.4zM49.3 102.3H49c0-.1-.1-.2-.3-.2-.2 0-.5.1-.5.2-.1.6-.2 1.3-.3 1.9 0 .2 0 .3.2.4.2.1.4 0 .5-.1.3-.6.7-1.2 1-1.8.1-.2-.1-.4-.3-.4zM51.2 103c-.2 0-.3 0-.4.1 0-.1-.1-.2-.3-.2-.2 0-.5.1-.5.2-.1.5-.2 1.1-.3 1.6 0 .2 0 .3.2.4.2.1.4 0 .5-.1.4-.5.8-1.1 1.1-1.6.1-.1-.1-.4-.3-.4zM53.3 104.6c.1-.2-.1-.4-.3-.4-.2 0-.4.1-.5.2-.2.4-.3.9-.4 1.4 0 .1 0 .1.1.2 0 .1.1.1.2.1.2.1.3 0 .5-.1.4-.3.6-.7.7-1.2-.1 0-.2-.1-.3-.2zM44.2 100.6c-.2 0-.5.1-.5.2-.1.7-.3 1.4-.5 2.1 0 .2.1.4.3.4.2 0 .5-.1.5-.2.2-.7.3-1.4.5-2.1 0-.1 0-.3-.3-.4zM43 101c0-.2-.2-.3-.4-.3s-.4.2-.4.3c0 .9.1 1.7.1 2.6 0 .2.2.3.4.3s.4-.2.4-.3c0-.9 0-1.7-.1-2.6z" />
			<path class="influencer_1"
				d="M62.8 120.5c-3.2-1-6.5-1.7-9.8-1.9-.8 0-1.6 0-2.4-.1-.8-.2-1.5-.8-2.1-1.3-1.2-1.1-2.2-2.2-3.2-3.5-.9-1.2-1.6-2.6-2.2-4-.7-1.7-.6-3.4-.8-5.2-.1-.7-.2-1.5 0-2.2.3-1.1 1.5-1.3 2.5-1.2 1.6.3 3.1 1.2 4.6 1.9.8.4 1.7.7 2.5 1.2.8.4 1.4 1 2 1.7 1.1 1.2 2.4 1.9 3.9 2.6.9.4 1.6-.9.8-1.3-.7-.3-1.5-.7-2.1-1.1-.8-.5-1.4-1.3-2.1-2-1.3-1.3-3.1-1.9-4.7-2.6-2.4-1.1-7.2-3.6-8.7.2-.3.7-.3 1.4-.2 2.1.1 1.1.1 2.3.2 3.4.2 1.7.8 3.3 1.6 4.8.8 1.6 1.8 3.1 3 4.4 1.1 1.2 2.4 2.6 3.9 3.3.9.4 1.7.4 2.7.4 1.2 0 2.4.1 3.7.3 2.3.3 4.5.9 6.8 1.6.6.2 1-1.2.1-1.5zM76.7 108.7c1.3-.6 2.2-1.6 3.2-2.5 1.3-1.3 2.6-1.8 4.4-2.1 1.7-.3 3.1-.6 4.6-1.5.9-.5 1.7-.9 2.8-.9.5 0 1 .1 1.4.2.8.3 1 .7.9 1.5-.3 1.7-1 3.5-1.7 5.1-.8 1.9-1.7 3.6-3.1 5.1-1.2 1.3-2.6 2.5-4 3.6-1.6 1.3-3.6.7-5.5 1-1.9.4-3.8 1.3-5.7 1.9-2 .6-4 1.1-6 1.5-.9.2-.5 1.6.4 1.4 2.1-.4 4.2-.9 6.2-1.5 2.1-.6 4.2-1.8 6.3-2 2-.1 3.6 0 5.3-1.3 1.7-1.3 3.4-2.8 4.7-4.5 1.2-1.5 2.1-3.3 2.8-5.1.7-1.8 1.7-4 1.7-6 0-1.7-1.8-2.4-3.3-2.5-.9-.1-1.8 0-2.6.3-1.1.4-1.9 1.2-3 1.5-2.1.7-4.3.5-6.2 1.8-1.7 1.1-2.7 2.8-4.5 3.6-.8.5 0 1.8.9 1.4z" />
			<path class="influencer_1"
				d="M42.7 105.2c1.3-1.5 4.5.5 6 1 2.1.7 4.2 1.3 6.3 1.8 4.1.9 8.3 1.4 12.6 1.4 4.2 0 8.6-.3 12.7-1.3s8.4-4.7 12.7-3c-.1-.4-.2-.8-.3-1.3-3.1 3.3-5 7.6-8.4 10.5-3.4 2.9-7.7 4.6-12 6l-3 .9c-.8.2-2 .8-2.7.6-1.2-.2-2.5-.9-3.6-1.3-3.3-1.3-6.8-2.5-9.9-4.3-2.1-1.2-4.1-2.7-5.8-4.4-.8-.8-1.6-1.7-2.3-2.6-.7-1-2.2-2.6-2-3.9.1-.9-1.3-1.4-1.4-.4-.3 2.1 1.3 4 2.6 5.5 1.4 1.8 3 3.3 4.8 4.7 3.4 2.6 7.3 4.2 11.2 5.8 1.6.7 3.3 1.4 4.9 2 .4.2.9.4 1.4.4.9.1 1.9-.3 2.8-.6 4.6-1.4 9.3-2.8 13.4-5.5 2.2-1.4 4-3.1 5.6-5.1 1.9-2.4 3.4-5.1 5.5-7.4.4-.4.2-1-.3-1.3-4.5-1.8-8.5 1.6-12.6 2.7-4.5 1.3-9.4 1.6-14.1 1.5-4.7-.1-9.3-.7-13.8-1.9-2.2-.6-4.4-1.4-6.6-2.2-1.5-.6-3.5-1-4.7.4-.7 1 .4 2.1 1 1.3z" />
		</g>
		<g>
			<path class="influencer_1"
				d="M61.3 124.7c.5 1.1 1 2.8 2.3 3.1 1.5.4 2.4-1.2 3.2-2.2-.4.1-.8.1-1.2.2.8 1 1.8 2.5 3.3 2.2 1.5-.3 2-2.1 2.6-3.2.4-.9-.9-1.6-1.3-.8-.2.5-.5 1-.7 1.5-.2.3-.4.9-.8 1-.4.1-.7-.3-.9-.5-.4-.4-.7-.9-1.1-1.3-.3-.4-.9-.2-1.2.2-.3.4-1 1.8-1.6 1.5-.3-.2-.4-.6-.6-.8-.2-.5-.5-1-.7-1.5-.2-.4-.7-.5-1-.3-.4.1-.4.5-.3.9z" />
		</g>
		<g>
			<path class="influencer_1"
				d="M97.2 153.6c6.4-6.8 7-16.1 6.9-25 0-1.9-3-1.9-3 0 .1 8-.2 16.7-6 22.8-1.4 1.5.8 3.6 2.1 2.2z" />
		</g>
	</g>
	<g>
		<path
			d="M110.3 133.2c-.8-1.4-1.5-2.8-2.4-4-.8-1-1.8-1.9-3.1-2-.8-.1-1.5.2-2.1.6-.7.4-1.4.8-2.2.7-.8-.2-1.5-.5-2.3-.4-.7.1-1.4.4-1.7 1v.2c-.2-.1-.3-.1-.6 0-4.1 2.3-5.1 7.1-5.2 11.5-.5-.6-.9-1.3-1-2.1-.1-.5-.9-.5-1 0-1.2 5.5-.2 11.4 2.5 16.3.6 1 1.2 2 1.9 2.9-.2-.1-.4 0-.6.1-1 .9 0 2.4.6 3.3.7 1.3 1.5 2.5 2.4 3.7 1.7 2.2 3.7 4.2 6.2 5.5 1.4.7 2.9 1.2 4.4 1.3.3 0 .6-.3.5-.5-.3-2.3-.6-4.6-.7-6.8-.1-.8-.1-1.6.2-2.3.1-.3.2-.7.5-.9l.3-.3s.1-.1.2-.1c.1.4.8.5 1 .1.1-.2.1-.4.1-.6v-5.1c0-.8-.2-1.7-.2-2.5 0-.1 0-.3.1-.4.1-.1.1 0 .2 0 .3.1.6 0 .9-.2.5-.3.8-.9.9-1.4.2-.8.3-1.6.4-2.4l.8-5.3c.3-1.7 1.2-4.5 1.5-6.3 0-1.8-1.7-2.2-2.5-3.6z"
			fill="#ff6" />
		<path class="influencer_7"
			d="M96.8 128.9c1.7-.1 3.5-.2 5.2-.4.8-.1 1.5-.2 2.3-.3.4-.1.7-.1 1.1-.2.1 0 .4-.2.5-.1-.3-.1-.1.1 0 .3.7 1.5 2 2.8 3.1 4 1.1 1.3 2.1 2.5 3.3 3.7.1-.4.1-.8.2-1.2-1.3.7-2.9.8-4.3.9-1.3.1-2.6.1-3.9.2-.4 0-.7.1-1-.1-.5-.3-.9-.7-1.2-1.1-1-1-2-2.1-2.9-3.3-.5-.6-.9-1.2-1.3-1.8l-.3-.6c0-.1-.1-.2-.1-.3v.1c.3-.9-1.1-1.3-1.4-.4-.3 1 .7 2.3 1.2 3 1 1.4 2.1 2.7 3.2 3.9.8.9 2 2.3 3.4 2.2.1 0 .5-.1.2 0h1.1c.8 0 1.6 0 2.4-.1 1.9-.1 4-.2 5.7-1.1.4-.2.5-.8.2-1.2-1.2-1.3-2.3-2.6-3.4-3.9-.6-.7-1.2-1.4-1.8-2.2-.3-.4-.6-.8-.8-1.2-.2-.4-.2-.7-.5-1-.6-.5-1.2-.2-1.8 0-.8.2-1.7.3-2.5.4-1.9.2-3.7.3-5.6.4-1.2 0-1.2 1.5-.3 1.4z" />
		<path class="influencer_7"
			d="M96.2 127.6c-4.6 2.6-6.7 8.5-6.3 13.6.5-.1.9-.3 1.4-.4-.9-1.4-1.3-3.2-2.7-4.2-.4-.3-1 0-1.1.4-1.6 7.3.5 16.2 6 21.4.2-.4.4-.9.5-1.3h-2.3c-.5 0-.9.5-.7.9 2.4 6.5 8.3 13.3 15.3 14.8.9.2 1.3-1.2.4-1.4-6.5-1.4-12-7.7-14.2-13.7-.2.3-.5.6-.7.9h2.3c.6 0 1-.8.5-1.3-5.2-4.9-7.1-13.1-5.6-20-.4.1-.7.3-1.1.4 1.1.8 1.5 2.6 2.1 3.7.4.6 1.5.4 1.4-.4-.3-4.6 1.4-9.9 5.6-12.3.8-.3 0-1.6-.8-1.1z" />
		<path class="influencer_7"
			d="M107.1 171.7c-4-3.3-6.8-8.8-7.6-13.8-.4.2-.8.5-1.3.7 1.4 1.4 3.1 2.5 4.9 3.6.6.4 1.4-.4 1-1-2.2-3.7-4-7.9-4.2-12.3-.5.1-.9.3-1.4.4.8 1.5 2 2.7 3.6 3.5.6.3 1.2-.2 1.1-.8-.9-4.7-1.4-10.2.3-14.7.3-.9-1.1-1.3-1.4-.4-1.7 4.8-1.2 10.6-.3 15.5.4-.3.7-.6 1.1-.8-1.3-.7-2.3-1.7-3-3-.4-.6-1.4-.4-1.4.4.2 4.7 2.1 9.1 4.4 13l1-1c-1.6-1-3.2-2-4.6-3.4-.6-.6-1.4 0-1.3.7.9 5.3 3.9 11.1 8 14.5.8.6 1.8-.5 1.1-1.1z" />
		<path class="influencer_7"
			d="M102.2 152.5c.6.9 2.6.4 3.4.3 1.5-.2 3-.4 4.5-.5.4 0 .7-.3.8-.8.2-3.8 1.1-7.6 1.9-11.4.3-1.3.6-2.6.7-3.9 0-.4.1-.8-.2-1.1-.4-.4-1-.2-1.3.2-.5.8.8 1.6 1.3.8-.2.2-.9-.4-1.2-.2-.2.1.1-.3 0 0-.1.1 0 .3 0 .3-.1.4-.2.9-.2 1.3l-.9 4.2c-.7 3.2-1.3 6.5-1.6 9.8l.8-.8c-1.3.1-2.6.3-3.9.5-.7.1-1.4.2-2.1.2h-.8c-.5 0-.2-.1 0 .3-.5-.7-1.8 0-1.2.8z" />
		<path class="influencer_7"
			d="M103.4 162.2c1.4-.2 2.8-.3 4.2-.6.6-.1 1.4-.3 1.7-.8.4-.5.1-1.2 0-1.7-.6-2.3-.8-4.8-.6-7.1 0-.4-.4-.8-.8-.8s-.7.3-.8.8c-.1 1.4-.1 2.8.1 4.2.1.7.2 1.5.3 2.2.1.3.1.7.2 1 0 .1.1.3.1.4 0 .1 0 .2.1.3.1.1.1.2 0 .1.1-.1.1-.2.2-.3-.2.2-.7.2-1 .3-.4.1-.8.2-1.3.3-.8.1-1.7.2-2.5.3-.4 0-.8.3-.8.8.1.2.5.7.9.6z" />
		<path class="influencer_7"
			d="M107.6 172.1c-.1-3.4-.6-6.8-.6-10.1 0-1-1.5-1-1.5 0 .1 3.4.6 6.8.6 10.1 0 1 1.5 1 1.5 0z" />
	</g>
</svg>