<svg xmlns="http://www.w3.org/2000/svg" viewBox="0 0 200 200">
	<style>
		.jedi_master_2 {
			fill: #090
		}

		.jedi_master_3 {
			fill: #e7f4df
		}
	</style>
	<path
		d="M111.3 119.2c-.1-.9-.9-1.1-1.5-.9-.1 0-.2-.1-.3-.1-2.4-.3-5.5-.1-5.9 2.9-.2 1.4.3 3 .4 4.4.2 1.8.3 3.6.3 5.4.1 6.7-.6 13.4-.7 20.2 0 3.3.1 6.6.6 9.9.2 1.4.3 3.1 1.8 3.7 1.2.5 2.5-.1 3.2-1.1.9-1.3.7-3.1.7-4.6 0-1.8.1-3.6.1-5.3.1-3.6.1-7.1.2-10.7.1-4 .2-8 .2-12 0-2 0-4.1.3-6.1.4-2 .9-3.8.6-5.7z"
		fill="#99c" />
	<path
		d="M153.8 97.1c1.1-.8 1.6-2.1 1.7-3.4.3-3-1.4-6.2-2.4-8.9-1.2-3.1-2.1-6.4-3.7-9.4-1.2-2.4-3.1-4.6-5.9-5.1-3.2-.6-6.7.9-9.6 2-11.7 4.7-21.3 12.7-28.4 23-.9 1.3-1.9 2.7-3.6 3.1-1.7.4-2.7-1.1-3.9-2.2-2.6-2.4-5.4-4.5-8.3-6.4-2.9-1.9-5.9-3.7-8.8-5.5-3-1.8-6-3.5-9.3-4.6-1.6-.5-3.3-.8-4.9-.9h-.3c-1.1-.6-2.3-.7-3.4 0-1.4.8-2.2 2.2-2.4 3.7-.3 2 .1 4-.4 6-.4 2-1.2 3.9-1.8 5.8-2.4 7.5-3.9 15.4-2.8 23.3 1.8 12.7 10.1 24 21.1 30.4 7.5 4.4 16.3 5.7 24.3 8.9.8.3 1.7-.5 1.7-1.3-.4-6.6-.4-13.3-.2-19.9.1-3.2.2-6.5.3-9.7 0-1.4-.1-3 .3-4.4.4-1.3 1.4-2 2.5-2.5 1.9-.8 4.7-1 5.7 1.3.5 1.1.4 2.5.4 3.6-.1 1.7-.2 3.3-.2 5-.3 6.6-.6 13.1-1 19.7-.1 1.8-.2 3.5-.3 5.3-.1 1.3.1 2.9 1.5 3.4s3.1-.7 4.3-1.3c.5-.2.9-.4 1.4-.7.4.5 1 .8 1.8.4 11.8-5.6 22.3-14.5 29.2-25.6 3.7-5.9 6.2-12.5 6.5-19.5.1-3.4-.3-7-1.3-10.3-.2-.7-.6-1.5-.7-2.2-.1-.6.4-.7.9-1.1z"
		fill="#666" />
	<path class="jedi_master_2"
		d="M85.1 151.4c-.9-.6-1.8-1.3-2.7-1.9-1.1-.7-2.2-1.4-3.4-.4-.1.1-.2.3-.3.5-.4.2-.6.6-.7 1.1-.2 1.9-.1 3.9.3 5.8.2.9.4 1.8.8 2.6.6 1.1 1.8 1.5 2.9.9.7-.4 1.4-1 2.1-1.6.7-.6 1.2-1.3 1.8-2 .5-.7 1.3-1.7 1.3-2.6 0-1.2-1.3-1.8-2.1-2.4zM136.4 155.2c0-.8-.1-1.6-.1-2.5 0-.8 0-1.6-.1-2.4-.1-1-.5-1.9-1.4-2.5-.9-.6-1.9-.4-2.7.1-1.6 1-3 2.2-4.5 3.4-.5.4-.5 1.2-.2 1.7 0 .4.2.9.6 1.1 1.4.9 2.9 1.7 4.3 2.6.8.5 1.7 1.2 2.7.9.6-.1 1.1-.6 1.3-1.2.1-.4.1-.8.1-1.2zM118.4 109.8c-.5-.3-1-.4-1.6-.5h-.3c-.3-.2-.7-.3-1.2-.3-.9.2-1.7.5-2.5.9s-1.7 1-2.1 1.8c-.5 1-.3 2-.1 3 .1.9.3 1.8.6 2.7.2.8.4 2 1.1 2.6.5.5 1.3.5 2 .2.4-.2.7-.6 1.1-.9 1.3-1.3 2.5-2.7 3.1-4.4.4-.9.6-1.9.6-3 0-.8 0-1.7-.7-2.1zM101.1 112.1zM103.3 110.1h-.3c-.1-.1-.1-.1-.2-.1-1.4-.9-3.1-.9-4.5-.2-.7.3-1.4.9-1.8 1.6-.6 1-.3 1.9.1 2.9l.9 2.4c.3.8.6 1.6 1.2 2.2.9.8 2.2.7 3.1 0 .6-.5 1.1-1.3 1.5-2 .9-1.6 1.3-3.5 1.3-5.3 0-.9-.6-1.5-1.3-1.5zM169.2 53.7c-10.3.3-20.7 1.1-30.9 2.6-2.6.4-5.2.8-7.7 1.2-1.2.2-2.4.4-3.6.7-1.2.2-2.6.7-3.8.3-1-.4-1.8-1.3-2.6-2s-1.6-1.2-2.6-1.7c-1.8-.9-3.8-1.5-5.9-1.8-4.5-.7-9-.3-13.5-.2-5 .1-10.1-.1-15 .7-4.8.7-8.8 3.5-13.4 4.8-2.5.7-5.1.9-7.6 1-2.6.1-5.2.3-7.8.4-11.2.6-22.5 1-33.8.5 0-.5-.3-1-.7-1.3-.7-.4-1.4-.1-1.8.5-.3.4-.5.8-.6 1.2-.2.3-.2.7-.2 1-.1 1.8.9 3.7 2.2 4.9 1.8 1.8 4.1 2.9 6.5 3.6 2.6.7 5.2 1 7.9 1.3 2.9.4 5.6 1.1 8.4 2 3.1 1.1 6.2 1.9 9.5 1.9 1.5 0 3-.1 4.4-.4 1.6-.3 3.4-.8 4.9-.1 1.2.6 1 1.8 1.4 2.9.6 1.4 2 1.9 3.4 2 1.4 0 2.6 0 3.9.4 1.6.5 3.1 1.2 4.5 2.1C80.6 86 86.3 90.1 92 93.9c1.4.9 2.7 1.8 4.1 2.7 1.3.9 2.6 1.9 4.3 1.9 2.7.1 4.8-2.1 6.3-4.1 3.6-4.6 7.2-9.2 11.7-13.1 2.2-1.9 4.6-3.6 7.1-5 2.9-1.5 5.9-2.4 8.9-3.6 3.3-1.3 6.2-3.1 9.2-4.8 3.1-1.7 6.2-2.4 9.7-3 3.3-.5 6.5-1.2 9.2-3.2 2.5-1.9 4.5-4.3 7.4-5.7 1.2-.4.6-2.4-.7-2.3z" />
	<path class="jedi_master_3"
		d="M18.1 60.7c16.9-.3 33.9-.2 50.9.2 2 0 1.9-2.8 0-3-.3 0-.5 0-.8-.1-1.9-.2-1.9 2.8 0 3 .3 0 .5 0 .8.1v-3c-17-.3-33.9-.4-50.9-.2-1.9 0-1.9 3 0 3z" />
	<path class="jedi_master_3"
		d="M16.3 59.2c.4 6.5 5.4 11.8 11.8 12.6 1.9.2 3.9.1 5.9.2 2 .1 3.8.6 5.6 1.4 3.4 1.5 6.6 2.9 10.4 3.3 4.2.5 8.6-.1 12.5-1.7 1.8-.7 1-3.6-.8-2.9-4.1 1.6-8.5 2.2-12.8 1.4-2-.4-3.9-1-5.8-1.8-1.9-.9-3.8-1.8-5.9-2.3-4.1-.9-8.6.5-12.4-1.6-3.1-1.7-5.2-4.9-5.5-8.5-.1-2-3.1-2-3-.1z" />
	<path class="jedi_master_3"
		d="M27.1 63.7c4 5.2 11.2 2.4 16.4 5 1.3.7 2.6 1.2 4.1 1.4 1.6.2 3.2.1 4.8 0 3.7-.3 7.3-.6 11-.9 1-.1 1-1.6 0-1.5-3.3.3-6.5.5-9.8.8-1.5.1-3 .3-4.5.2-1.8 0-3.2-.6-4.8-1.4-2.6-1.3-5.3-1.5-8.1-1.6-2.7-.1-5.9-.5-7.7-2.8-.7-.7-2 0-1.4.8z" />
	<path class="jedi_master_3"
		d="M28.3 63.7c12.8.6 25.6.9 38.4.8 1 0 1-1.5 0-1.5-12.8.1-25.6-.2-38.4-.8-.9 0-.9 1.5 0 1.5zM70.6 60.7c4.8-4.6 11.7-5.7 18.1-6.1 3.8-.2 7.6-.3 11.4-.4 4.2-.1 8.6-.5 12.8.3 3.9.8 7.4 2.8 10.2 5.7 1.3 1.4 3.5-.7 2.1-2.1-2.7-2.7-5.9-4.8-9.6-5.9-4.3-1.3-8.8-1.1-13.2-1-7.7.1-15.8-.2-23.4 1.7-3.9 1-7.6 2.8-10.5 5.6-1.4 1.4.7 3.5 2.1 2.2zM140.9 66.7c-.4-.8 4.9-1.2 5.6-1.3 2.3-.3 4.5-.9 6.6-1.7 2.7-.9 6.9-2.8 6-6.4-.1-.3-.4-.6-.7-.6-9.7 1-19.4 2.8-28.6 5.9-.9.3-.5 1.8.4 1.4 9.1-3.1 18.7-4.9 28.2-5.8-.2-.2-.5-.4-.7-.6.5 2.1-2.1 3.4-3.7 4.1-2.2.9-4.5 1.5-6.8 1.9-1.2.2-2.4.4-3.6.5-.8.1-1.6.1-2.4.4-1.2.5-2.1 1.5-1.5 2.8.4 1 1.6.3 1.2-.6z" />
	<path class="jedi_master_3"
		d="M125 60.2c16.2-4.2 32.9-4.7 49.5-5.3-.5-.4-1-.7-1.4-1.1.2.7.3 1.3.5 2l1.8-1.8c-3-1.1-6.2.2-8.6 2-2.6 2-4.9 4-7.8 5.4-2.9 1.4-5.9 2.3-9 3l-4.5.9c-.8.2-1.6.3-2.5.4-.3.1-1.4.4-1.7.2-1.3-1.4-3.4.7-2.1 2.1 1 1.1 2.4 1 3.8.7 1.6-.3 3.3-.6 4.9-.9 3.3-.6 6.5-1.4 9.6-2.6 3.1-1.2 5.9-2.7 8.5-4.8 2.4-1.9 5.2-4.9 8.6-3.7 1.1.4 2.1-.8 1.8-1.8-.2-.7-.3-1.3-.5-2-.2-.6-.8-1.1-1.4-1.1-16.9.5-33.9 1.1-50.3 5.4-1.9.6-1.1 3.5.8 3zM62 75.6c1.9 0 1.9-3 0-3s-1.9 3 0 3z" />
	<path class="jedi_master_3"
		d="M61.6 75.6c-.5 3.8-3.9 6.9-3.2 10.9.3 2.1 1.8 3.7 3.5 4.9 1.9 1.4 4 2.7 6.1 3.9 8.5 5 17.6 8.8 26.8 12.2 2.3.8 4.7 1.7 7 2.5 2.4.8 4.8 1.8 7.2 2.3 2.2.4 4.5.1 6.1-1.6 1.4-1.5 1.7-3.6.6-5.4-1.1-1.7-3.1-2.6-4.8-3.5-2.4-1.2-4.7-2.4-7-3.7-4.5-2.5-8.9-5.1-13.2-8-8.3-5.3-17-13.8-27.7-13.1-1.9.1-1.9 3.1 0 3 8.4-.6 15.4 5.4 22 9.9 7.5 5.2 15.4 9.9 23.6 14.1 1.4.7 3.9 1.5 4.7 2.9 1 2-2.1 2.6-3.4 2.4-2.2-.3-4.5-1.3-6.6-2.1-2.1-.7-4.1-1.4-6.2-2.1-8.3-3-16.5-6.3-24.3-10.5-2.2-1.2-4.3-2.4-6.3-3.8-1.7-1.1-4.3-2.3-4.9-4.4-.6-1.7.5-3.6 1.2-5.1.9-1.9 1.7-3.7 2-5.8.1-1.8-2.9-1.8-3.2.1z" />
	<path class="jedi_master_3"
		d="M105.1 98.7c4.7-6.7 9.7-13.5 16.4-18.5 3.3-2.5 6.9-4.4 10.8-5.7 2.9-1 5.9-2.3 9-2.6 1.2-.2 2.6-.2 3.5.7 1 1.1 1.7 2.5 2.5 3.7 1.9 3.1 3.6 6.4 4.9 9.8 1 2.7 2.2 6.2 1.3 9.1-.3.9-.6 1.5-1.6 1.7-1.1.2-2.2 0-3.3 0-2.3 0-4.6.1-6.9.4-10.5 1.3-20.4 5.4-28.8 11.9-1.5 1.2.6 3.3 2.1 2.1 8-6.2 17.8-10.2 27.9-11.2 2.4-.2 4.9-.3 7.3-.2 2.3.1 4.6-.4 5.7-2.6 1.5-3.1.8-6.8-.2-9.9-1.2-3.9-2.9-7.6-5-11-.9-1.5-1.8-3-2.8-4.4-1-1.3-1.9-2.5-3.6-2.8-3.4-.8-7 .7-10.1 1.8-3.9 1.4-7.7 2.6-11.3 4.9-8.6 5.3-14.7 13.5-20.4 21.6-1.1 1.3 1.5 2.8 2.6 1.2zM59.2 88.2c-4.6 9-6.6 19.8-5.1 29.9 1 6.5 3.8 12.7 8 17.7 2.4 2.8 5 5.5 7.6 8.2 2.6 2.6 5.4 5.1 8.6 6.7 3.7 1.9 7.7 3.4 11.5 4.8 4.1 1.5 8.2 2.9 12.5 3.7 1.9.4 2.7-2.5.8-2.9-7.1-1.3-14-4.1-20.6-7-3.2-1.4-6.1-3.2-8.7-5.5-2.6-2.4-4.9-5-7.3-7.6-4.5-4.8-7.7-10.1-9.1-16.6-1.2-5.3-1.1-11-.1-16.3.8-4.7 2.3-9.3 4.4-13.5.9-1.8-1.7-3.3-2.5-1.6z" />
	<path class="jedi_master_3"
		d="M110.4 159.5c5.2.9 10.2-2 14.6-4.4 2.4-1.3 4.9-2.6 7.1-4.3 2.3-1.7 4.5-3.6 6.5-5.6 8.1-8 15.4-17.8 17.6-29.2.6-3.3.9-6.8.5-10.1-.3-2.8-.7-6.6-2.9-8.6-1.4-1.3-3.6.8-2.1 2.1.9.8 1.2 1.9 1.4 3 .3 1.4.6 2.8.7 4.2.2 2.7.1 5.4-.4 8-.9 5.3-3 10.3-5.8 14.9-2.7 4.5-6.1 8.5-9.8 12.3-3.7 3.8-7.6 7.2-12.3 9.6-2.3 1.2-4.5 2.6-6.9 3.6-2.3 1.1-4.9 2.1-7.5 1.6-1.8-.3-2.6 2.6-.7 2.9zM82.1 55.7c2.4 4.4 4.7 8.9 6.6 13.6.4.9 1.7.1 1.3-.8-2-4.6-4.2-9.2-6.6-13.6-.5-.8-1.8-.1-1.3.8zM96.7 55.2c.7 4.1.8 8.2.5 12.3.4-.2.9-.4 1.3-.5v.1c.3-.9-1.1-1.3-1.4-.4-.2.5 0 1 .4 1.3.5.4 1.2.1 1.3-.5.4-4.2.2-8.5-.5-12.7-.3-.9-1.7-.5-1.6.4zM103 68.9c4.2-4 7.8-8.6 11.5-13.1.3-.3.6-.7.9-1l.3-.3c.2-.2.1 0-.2 0 .9-.2.5-1.7-.4-1.4-.5.1-.9.8-1.2 1.1-.8.9-1.5 1.8-2.3 2.7-2.1 2.5-4.2 5-6.4 7.4-1.1 1.2-2.2 2.4-3.3 3.5-.7.7.4 1.8 1.1 1.1zM87.6 59c.8-.6 1.7-1 2.7-1 .5 0 1 0 1.4.1.3.1.5.1.8.2.1 0 .2.1.2.1h.1c-.1-.1-.1-.2.1-.4 0-.5.2-.6.7-.3.1.1.1.2.2.3v.1c0-.4-.4-.8-.8-.8s-.7.3-.8.8c-.1.6.6 1 1.1.9.5-.1.9-.6.7-1.2-.1-.5-.6-.8-1.1-1-.4-.2-.8-.3-1.2-.3-1.7-.3-3.6.1-5 1.2-.3.2-.5.6-.3 1 .4.4.9.6 1.2.3zM89.3 64.1c1.4-.4 2.8-.5 4.1-.2.4.1.8-.1.9-.5.1-.4-.1-.8-.5-.9-1.6-.3-3.3-.3-4.9.2-.4.1-.6.5-.5.9.1.4.5.6.9.5zM102 57.9c.1 0 .2-.1.2-.1-.1.1 0 0 0 0h.1c.2-.1.4-.1.6-.1h.1c-.1 0-.1 0 0 0H103.9c-.1 0-.1 0 0 0h.1c.1 0 .2 0 .3.1.1 0 .2.1.3.1h.1s.1.1.1 0h.1s.1 0 .1.1c.1 0 .2.1.2.1.1.1.2.1.3.2.1.1-.1-.1 0 0l.1.1c.3.3.8.3 1.1 0 .3-.3.3-.8 0-1.1-1.5-1.3-3.7-1.6-5.5-.7-.3.2-.5.7-.3 1 .3.4.7.5 1.1.3zM100.3 62.7c.2-.1.3-.1.5-.1.1 0 .2 0 .2-.1.1 0 .1 0 0 0H102c-.1 0-.1 0 0 0 .2 0 .3.1.5.1.1 0 .2.1.2.1h.1c.1 0-.1-.1 0 0 .2.1.3.1.4.2.1 0 .1.1.2.1 0 0 .1.1.1 0l.1.1c.3.3.8.3 1.1 0 .3-.3.3-.8 0-1.1-1.3-1.1-3.2-1.5-4.9-.9-.4.1-.7.5-.5.9.2.6.6.9 1 .7zM120.5 92.1c3.5-4.3 7.5-9.1 13-10.7 3-.9 6.4-.8 9.5-.6 3.3.2 6.6.9 9.6 2.4.2-.5.4-.9.6-1.4-1.1-.2-1.9-1.7-3.1-1.9-.9-.2-1.3 1.3-.4 1.4 1.1.2 1.9 1.7 3.1 1.9.8.2 1.4-1 .6-1.4-3-1.5-6.2-2.3-9.5-2.5-3.4-.3-7.1-.4-10.4.5-6 1.6-10.3 6.6-14 11.2-.6.8.4 1.8 1 1.1zM125.5 98.2c4.4-2.7 9.4-4.4 14.6-5.1 2.5-.3 5.1-.4 7.6-.3 1.3.1 2.5.2 3.8.3l2.1.3c.3.1 1.5.1 1.6.3 0-.3.1-.6.1-.9l-.1.1c.2-.1.5-.1.7-.2h-.2c.2.2.4.5.6.7v-.1c0-1-1.5-1-1.5 0v.1c0 .3.2.7.6.7.4.1.7.1 1-.3.2-.2.3-.6.1-.9-.6-1-2.1-.9-3.2-1.1-1.4-.2-2.8-.4-4.2-.5-2.9-.2-5.7-.2-8.6.2-5.6.7-11 2.4-15.8 5.3-.8.6-.1 1.9.8 1.4zM104.2 119.9c2.7-.1 5.4-.1 8 .1.8.1 1.5-.7 1.5-1.5 0-.9-.7-1.4-1.5-1.5-2.7-.2-5.4-.2-8-.1-.8 0-1.5.7-1.5 1.5s.6 1.5 1.5 1.5z" />
	<path class="jedi_master_3"
		d="M102.5 118.2c-.5 12.9-1.1 25.9-.8 38.8 0 1.8-.1 3.8.4 5.6.5 1.9 3.4 1.1 2.9-.8 0-.2-.1-.7-.1-.3 0-.3-.1-.7-.1-1-.1-1-.1-1.9-.1-2.9-.1-2.8 0-5.7 0-8.5.1-7 .3-14 .5-21.1.1-3.3.2-6.6.4-9.9 0-1.8-3-1.8-3.1.1z" />
	<path class="jedi_master_3"
		d="M102.8 164.4c.8.7 1.6 1.4 2.6 1.9.7.4 1.4.6 2.2.6 1.6-.2 2.6-1.5 3.6-2.7.3-.3.4-.6.4-1.1 0-.4-.2-.8-.4-1.1-.5-.5-1.6-.7-2.1 0-.4.5-.8 1-1.3 1.5-.1.1-.2.2-.3.2-.1.1.4-.3.1-.1l-.1.1c-.1 0-.1.1-.2.1-.1.1-.3 0 .2-.1-.1 0-.2.1-.3.1.5-.1.4 0 .2 0h-.2c-.2 0-.2-.1.2 0h-.2c-.1 0-.2-.1-.3-.1.5.1.2.1.1 0-.1 0-.1-.1-.2-.1-.3-.2-.6-.4-1-.6-.3-.2.3.2 0 0l-.3-.3c-.2-.2-.4-.4-.6-.5-.6-.5-1.5-.6-2.1 0-.5.7-.6 1.7 0 2.2z" />
	<path class="jedi_master_3"
		d="M111 118.7c-1.5 13.6-2 27.4-2.5 41.1 0 .9-.1 1.8-.1 2.7 0 .5-.1 1.1.2 1.6.7 1.1 2.4.9 2.7-.4.6-1.8-2.3-2.6-2.9-.8.9-.1 1.8-.2 2.7-.4.5.9.1 1 .2.5v-.7c0-.7 0-1.5.1-2.2.1-2.6.2-5.3.3-7.9.3-7.4.7-14.7 1.2-22.1.3-3.9.6-7.7 1-11.6.3-1.7-2.7-1.7-2.9.2zM78.3 73.3c-.2.3-.3.7-.1 1.1.2.4.8.5 1.1.2.3-.2.6-.7.6-1.1 0-.5-.4-.7-.9-.8-.3 0-.5 0-.8.2-.2.2-.3.4-.3.7.1.3.5.4.7.1.2-.4.3-.9 0-1.2-.3-.3-.8-.3-1.1.1-.3.3-.4.9-.2 1.3.2.3.6.5 1 .5.5 0 .9-.3 1.1-.7.1-.1.1-.3 0-.4-.1-.1-.2-.2-.4-.1-.3 0-.6.2-.8.5-.1.1 0 .4.1.5.2.1.3.1.5 0 .2-.2.4-.5.5-.8 0-.1.1-.3.1-.5v-.2-.1s0-.1 0 0 0 .1-.1.2c0 0-.1.1 0 0-.1 0 0 0 0 0 .1 0 0 0 0 0 .1 0 .2.1.3.1 0 0 .1 0 .1.1h.1c.1.1 0 0 0 0h.1s.1.1 0 0v-.1.1c0-.1-.1.1 0 0l-.2.2c-.1.1-.1.1-.2.1 0 0 0 .1 0 0 0 .2 0 .3.1.5 0 0 .1-.1 0 0 0 0-.1 0 0 0 0 0 .1 0 0 0h.1s.1 0 0 0h.1c.1 0 0 0 0 0s.1.1 0 0v.1c0-.1 0 0 0 0v.1c0-.1 0 0 0 0v.1s-.1.1 0 0l-.1.1s.1 0 0 0c0 0-.1 0 0 0h-.1c.1 0 0 0 0 0s-.1 0 0 0h-.1s-.1 0 0 0h-.1s-.1 0 0 0l-.1-.1s0-.1 0 0c0 0 0-.1-.1-.1-.1-.2-.3-.2-.5-.1s-.2.3-.1.5c.2.4.6.6 1.1.6.4 0 .8-.4.9-.8.1-.4-.1-.9-.6-1-.4-.1-.9 0-1.1.4-.1.2-.1.3.1.5s.4.2.6.2c.3 0 .5-.1.7-.3.3-.3.7-.7.5-1.2-.2-.4-.6-.6-1-.8-.2-.1-.5-.1-.7 0l-.3.3c-.1.1 0 .3 0 .4v.1c0 .1 0-.1 0 0v.1s0 .1 0 0v.1s0 .1 0 0c0 0 0 .1-.1.1l-.1.1c.2.2.4.3.6.5l.1-.1h.4c-.1-.2-.3-.4-.4-.6 0 .1-.1.2-.2.2 0 0-.1 0-.1.1h-.1-.1-.1-.1-.1c-.1 0 0 0 0 0h-.1c.1 0 0 0 0 0s0 .1 0 0v-.2-.1s0-.1 0 0c0-.1 0-.1.1-.1-.1 0 0 0 0 0 0 .1-.1.2-.1.3.2 0 .5.1.7.1v.1s-.1.1 0 0c-.1 0 0 0 0 0h.1c.1 0 .2 0 .2.1h.1s0-.1 0 0 0 .2-.1.3l-.2.2c.1 0 0 0 0 0s0 .1 0 0v-.1c0 .1 0 0 0 0v-.1-.1c0 .1 0 0 0 0 .1-.2 0-.4-.1-.5-.4-.1-.7-.1-.8.1z" />
	<path class="jedi_master_3"
		d="M78.6 72.9s0-.1 0 0c0-.1-.1 0 0 0v-.2.2c0-.2.1-.2.1-.3 0 0 0 .1-.1.1 0-.1.1-.1.1-.1s-.1 0-.1.1c.1 0 .1-.1.2-.1h-.1H78.9c.1 0 .1 0 .2.1H79h.1c.2.1.4 0 .5-.1.1-.2.1-.4-.1-.5-.4-.2-.8-.2-1.1 0-.3.2-.5.6-.5 1 0 .2.2.4.4.4l.3-.6z" />
	<path class="jedi_master_3"
		d="M78 73.3c-.1.1-.1.2-.2.3v.3c0 .2 0 .4.1.5.1.2.3.3.5.4.2.1.4.1.6 0 .2 0 .4-.1.6-.2.2-.1.2-.3.1-.5s-.3-.2-.5-.1H79h.1c-.1 0-.2.1-.3.1h.1-.2.1-.2.1s-.1 0-.1-.1c0 0 .1 0 .1.1l-.1-.1s0 .1.1.1l-.1-.1v-.1-.1.1s0-.1.1-.1c0 0 0 .1-.1.1.1-.1.1-.2.1-.3 0-.1 0-.2-.1-.3-.1-.1-.2-.1-.3-.1-.1 0-.2 0-.3.1zM79.7 73.2c.1-.1.1-.2.2-.3v-.1-.1s0-.1-.1-.1l-.1-.1H79.4h-.1c-.1 0-.1.1-.1.1-.1.1-.1.2-.2.3v.2s0 .1.1.1l.1.1h.4c.1 0 .1 0 .1-.1zM108.2 73.2c-.2-.2-.4-.3-.7-.3-.2.1-.4.3-.5.5-.1.2-.2.5 0 .7.1.2.4.3.6.3.6 0 .8-.6.8-1.1 0-.4-.1-.9-.6-1 .1.2.1.5.2.7.1-.1.3-.2.5-.3 0 0 .1-.1.1 0h.4c.1.1 0-.1 0 .1 0 .1 0 .1.1.2v.2s-.1 0 0 0h-.1c-.1 0 0 0 0 0-.1-.1 0 0 0 0s-.1-.1 0 0v-.1c0-.1 0 0 0 0s0-.1 0 0c-.2 0-.5.1-.7.1 0 .2.1.5.1.7 0 .2.1.4.3.6.3.3 1 .3 1.1-.2 0-.2-.1-.5-.4-.5-.4 0-1.1.1-1.2.5-.1.3.1.5.3.7.2.1.4.1.6.1.4 0 .8-.2 1-.6.1-.4-.1-.9-.5-1.1-.2-.1-.4-.2-.6-.2h-.8c-.1 0-.1.1-.3.2.1-.1.1-.1.3-.2-.1.1-.1.1 0 .1s.1.1.2.1v.3l.1-.1v-.3c0-.2-.1-.3-.3-.4-.1-.1-.3-.1-.4-.1-.2 0-.3.1-.4 0 .1.2.2.3.4.5 0-.2.1-.3.1-.5 0-.1.1-.2.2-.3h.2.1s.1 0 .1.1l.1.1.1.1c.1.1.4.1.5 0 .1-.1.1-.4 0-.5-.2-.2-.4-.3-.6-.4-.3-.1-.5-.1-.8.1-.4.2-.6.7-.7 1.2-.1.3.1.4.4.5h.5c0-.1-.1-.1 0-.2 0 .1-.1.2-.1.3 0 .1 0 .3.1.4.1.1.3.2.5.1h.1s.1 0 0 0c.2 0 .4.1.5.1h.1v.1c0-.1 0 .1 0 0h-.1c.1 0 0 0 0 0h-.4s-.1 0 0 0c0 0-.1 0 0 0 0 .1.1 0 .1.2l-.1.1c.1 0 .1 0 .2-.1h.3c-.1-.2-.2-.3-.4-.5 0 .1 0-.1.1-.1h.1c-.1 0 .1 0 0 0s.1 0 0 0V74c-.1-.3-.1-.5-.2-.8-.1-.4-.8-.3-.7.1 0 .5.4 1 1 1s1-.4 1-1c0-.5-.2-1.1-.8-1.2-.5-.1-1 .2-1.4.4-.3.2-.2.7.2.7-.1 0-.1 0-.1-.1v.6c-.1 0 0 0 0 0h.1v0c0-.1 0-.1.1-.1-.1 0-.1 0-.2-.1.1.2.3.2.5.1-.3 0-.2-.3-.3-.4z" />
	<path class="jedi_master_3"
		d="M107.9 73c.1-.1.2-.1.4-.2h.1c-.1 0 0 0 0 0 .1 0 .1 0 .2-.1h.1c-.1 0 0 0 0 0h.2s-.1 0 0 0H109.2s-.1 0 0 0c0 0 .1.1 0 0v.1c0 .1 0 0 0 0v.1s0-.1 0 0v.1c0-.1 0-.1 0 0v.1c0-.1 0-.1 0 0v.1s0-.1 0 0c0 0 .1 0 0 0h-.1c-.1 0-.2.1-.2.2s-.1.2 0 .3c.1.2.3.3.5.3s.5-.2.6-.4c.1-.3.1-.6 0-.8-.2-.5-.9-.7-1.4-.6-.3.1-.6.2-.9.4-.2.1-.2.3-.1.5-.1 0 .1 0 .3-.1zM86.3 79.5c.5 1.1.9 2.2 1.4 3.3.4.8 1 1.6 1.9 1.8 2.2.7 3.7-1.8 4.9-3.2h-1.1c1.2 1.5 2.7 4.2 5 3.8 2.3-.4 3.3-3.3 4.2-5.1.5-.9-.8-1.6-1.3-.8s-.9 1.7-1.4 2.5c-.4.7-.9 1.6-1.8 1.8-.8.2-1.5-.5-2-1.1-.6-.7-1.2-1.5-1.8-2.3-.2-.3-.8-.3-1.1 0-.7.9-2.2 3.6-3.6 2.7-.6-.3-.9-1.1-1.2-1.7-.4-.9-.7-1.8-1.1-2.6-.1-.8-1.4 0-1 .9zM106.4 80.2c3.6-.9 7.3-1.4 11-1.4 1 0 1-1.5 0-1.5-3.8 0-7.7.5-11.4 1.5-.9.2-.5 1.6.4 1.4zM107.9 83.2c2.8.3 5.7.5 8.5.8.4 0 .8-.4.8-.8s-.3-.7-.8-.8c-2.8-.3-5.7-.5-8.5-.8-.4 0-.8.4-.8.8s.4.7.8.8zM84.9 78.4c-4-1.4-8.1-2.3-12.3-2.8v1.5h.4c1 .1 1-1.4 0-1.5h-.4c-1-.1-.9 1.4 0 1.5 4 .4 8 1.4 11.9 2.7.9.3 1.3-1.1.4-1.4zM83.3 81.5c-2.4.2-4.8.3-7.3.5-.4 0-.8.3-.8.8 0 .4.3.8.8.8 2.4-.2 4.8-.3 7.3-.5.4 0 .8-.3.8-.8 0-.4-.4-.8-.8-.8zM95.1 113.6c.9 1.7 1.7 3.3 2.6 5 .5.9 1.1 1.6 2.1 2 .8.3 1.6.3 2.4 0 1.8-.5 2.8-2 3.4-3.7.2-.7.4-1.5.5-2.3.2-.9.4-1.5.7-2.1.4-.7.2-1.7-.5-2.1-.7-.4-1.6-.2-2.1.5-.8 1.3-1 2.8-1.3 4.2-.1.3-.2.7-.3 1 0 .1-.1.2-.1.3-.1.2-.1.2 0 .1v.1c0 .1-.1.2-.1.3-.1.1-.1.2-.2.4l-.2.2c-.2.2.2-.1-.1.1 0 0-.4.2-.3.2.2-.1-.3.1-.3.1-.3.1.3 0-.1 0h-.2.1c-.1 0-.4-.2-.2 0-.1 0-.3-.2-.1-.1-.1-.1-.1-.1 0 0-.1-.1-.1-.2-.2-.2-.2-.3-.3-.6-.5-.9-.8-1.5-1.6-3-2.3-4.4-.4-.7-1.4-1-2.1-.5-.8.2-1 1-.6 1.8zM117.6 112.4c-.8 1.5-1.5 2.9-2.3 4.4-.2.3-.3.7-.5 1-.1.1-.1.2-.2.2.1-.1.1-.1 0 0s-.1.1 0 0c-.1 0-.1.1-.2.1.3-.2 0 0-.1 0-.2 0-.2 0 0 0h-.2c-.3 0 .2.1-.1 0 0 0-.5-.2-.3-.1s-.2-.1-.3-.2c-.3-.2.1.2-.1-.1l-.2-.2-.1-.1c.1.1 0 0 0-.1-.1-.1-.1-.2-.1-.2-.1-.1-.1-.3-.2-.4.1.2-.1-.3-.1-.3l-.3-.9c-.3-1.5-.5-3-1.3-4.3-.4-.7-1.4-1-2.1-.5-.7.4-1 1.3-.5 2.1.4.6.6 1.3.7 2.1.2.7.3 1.5.5 2.2.5 1.7 1.6 3.2 3.4 3.8.8.2 1.7.2 2.4 0 .9-.4 1.6-1.1 2-1.9.9-1.7 1.8-3.4 2.7-5 .4-.7.2-1.7-.5-2.1-.7-.4-1.6-.3-2 .5zM86 152.6c-1.1 1.2-2.1 2.4-3.2 3.6-.2.3-.5.6-.8.8 0 0-.5.4-.2.2-.1.1-.4.2-.1.1-.1 0-.1 0-.2.1h.1c-.4-.1.2.1-.1 0 0 0-.5-.2-.3-.1s-.2-.1-.2-.2c-.3-.2.1.1-.1-.1l-.2-.2c-.1-.1-.1-.2-.2-.3-.1-.2-.1-.2 0 0 0-.1-.1-.2-.1-.3 0-.1-.1-.3-.1-.4 0-.1 0-.2-.1-.3 0 .2 0 .1 0 0v-1c0-1.5.2-3.1-.3-4.6-.2-.7-1.1-1.3-1.8-1-.7.2-1.3 1-1 1.8.1.2.1.4.2.6V153c0 .8-.1 1.6 0 2.4.1 1.8.8 3.6 2.4 4.5.8.4 1.7.6 2.6.4.9-.2 1.6-.8 2.2-1.5 1.2-1.4 2.4-2.7 3.6-4.1.5-.6.6-1.6 0-2.1-.5-.5-1.5-.6-2.1 0zM126.9 154.7c1.4 1 2.9 2 4.3 3.1.7.5 1.5 1 2.4 1 .9 0 1.7-.3 2.4-.8 1.5-1.2 1.9-3.1 1.6-4.9-.1-.9-.4-1.7-.6-2.5-.2-.9-.4-1.4-.3-2.3.1-.8-.7-1.5-1.5-1.5-.9 0-1.4.7-1.5 1.5-.1 1.5.4 3 .7 4.4.1.2.1.4.1.7V154.8c0 .1-.1.2-.1.3-.1.3.1-.1 0 .1-.1.1-.1.2-.2.3.2-.3-.1.1-.2.1-.1.1-.1.1.1 0-.1.1-.1.1-.2.1-.2.2.2 0-.1.1h-.4.1c-.1 0-.1 0-.2-.1.1.1.1 0 0 0-.1-.1-.2-.2-.4-.2l-.9-.6c-1.3-.9-2.5-1.8-3.8-2.7-.6-.5-1.7-.1-2.1.5-.2.8.1 1.6.8 2zM21.4 58.6c-.1 2.9-.3 5.8-.6 8.7-.1.5.7.5.8 0 .3-2.9.5-5.8.6-8.7 0-.5-.8-.5-.8 0zM23.9 59.8c.2 2.6.2 5.2.1 7.7 0 .5.7.5.8 0 .1-2.6.1-5.2-.1-7.7 0-.4-.8-.4-.8 0zM25.3 60.2c.2 2.9.2 5.8.1 8.7 0 .5.7.5.8 0 .1-2.9.1-5.8-.1-8.7-.1-.5-.9-.5-.8 0zM28.8 65.6c.1 1.3.1 2.6.2 3.9 0 .5.8.5.8 0-.1-1.3-.1-2.6-.2-3.9 0-.4-.8-.4-.8 0zM31 66.3c0 .7 0 1.3.1 2v1c0 .3 0 .5.1.8.1.2.3.4.6.4.2 0 .4-.2.5-.4 0-.2 0-.4-.2-.6-.2-.2-.5-.1-.7.1-.3.4.4.8.6.4.1 0 0 0 0 .1h-.2c-.1 0-.1-.1-.2-.1 0-.1 0-.1 0 0 0-.1 0-.1 0 0 0-.1 0-.1.1-.2s.2-.1.2-.1v-.1c-.1-.3 0-.7 0-1 0-.8-.1-1.5-.1-2.3 0-.5-.8-.5-.8 0zM33.1 66.5c-.1 1-.1 2.1.3 3.1.1.2.3.3.5.3.2-.1.3-.3.3-.5-.3-.9-.4-1.8-.3-2.7 0-.2 0-.4-.3-.5-.2 0-.5.1-.5.3zM35.7 66.9c-.1 1.2-.3 2.4-.4 3.6 0 .1.1.3.2.3.6.4 1.2-.5.8-1-.3-.3-.9.2-.5.5-.1-.1-.1-.1 0-.2h.2c.1.1.1.2.2.3.1-1.2.3-2.4.4-3.6 0-.2-.2-.4-.4-.4-.3.2-.4.3-.5.5zM37.6 66.9v3c0 .2-.1.6.1.8.1.2.4.2.6.2.4-.1.6-.7.3-1-.1-.2-.4-.1-.5 0-.2.2-.1.4 0 .5v-.2s0-.1 0 0c0 0 .2.1.1 0 .1.1.1.2.2.3v-3.6c-.1-.5-.8-.5-.8 0zM39.9 67.2c0 1.5-.1 3.1-.4 4.6-.1.4.5.7.7.3.1-.3.3-.6.4-.8.1-.2.1-.4-.1-.5-.2-.1-.4 0-.5.1-.1.3-.3.6-.4.8.2.1.5.2.7.3.3-1.6.5-3.2.5-4.8-.2-.4-.9-.4-.9 0zM41.2 67.3c.3 1.2.4 2.5.2 3.7 0 .2 0 .4.3.5.2 0 .4-.1.5-.3.2-1.4.1-2.7-.2-4.1-.2-.5-.9-.3-.8.2zM44 68.9c-.1 1.4-.3 2.8-.4 4.2 0 .2.2.4.4.4s.4-.2.4-.4c.1-1.4.3-2.8.4-4.2 0-.2-.2-.4-.4-.4s-.3.2-.4.4zM45.9 68.7v5.9c0 .5.8.5.8 0v-5.9c0-.5-.8-.5-.8 0zM48.8 69.8v5.5c0 .5.8.5.8 0v-5.5c0-.5-.8-.5-.8 0zM51.4 69.5v4.8c0 .5.8.5.8 0v-4.8c-.1-.5-.8-.5-.8 0zM53.4 69.2c-.1 1.8-.2 3.6-.4 5.5 0 .5.7.5.8 0 .1-1.8.2-3.6.4-5.5 0-.5-.7-.5-.8 0zM55.7 68.8c.3 2 .3 4.1.2 6.1 0 .5.7.5.8 0 .2-2 .1-4.1-.2-6.1-.1-.4-.8-.4-.8 0zM58.6 68.5c0 1.9 0 3.9-.2 5.8-.1.5.7.5.8 0 .2-1.9.3-3.9.2-5.8 0-.5-.8-.5-.8 0zM60.2 68.5c.2 1.7.3 3.4.1 5.2 0 .5.7.5.8 0 .1-1.7.1-3.4-.1-5.2 0-.2-.2-.4-.4-.4s-.4.2-.4.4zM62.9 68.6c-.2 1.8-1.1 3.5-1.2 5.3 0 .5.7.5.8 0 .2-1.8 1.1-3.5 1.2-5.3 0-.4-.7-.4-.8 0zM28.3 59.5V63c0 .5.8.5.8 0v-3.5c-.1-.5-.8-.5-.8 0zM33.8 59.4c-.1.9-.1 1.8-.2 2.7 0 .2.2.4.4.4s.4-.2.4-.4c.1-.9.1-1.8.2-2.7 0-.2-.2-.4-.4-.4-.3 0-.4.2-.4.4zM35.5 59.4c0 .9-.1 1.8-.1 2.7 0 .2.2.4.4.4s.4-.2.4-.4c0-.9.1-1.8.1-2.7 0-.2-.2-.4-.4-.4-.2.1-.4.2-.4.4zM37.3 59.1c-.1 1.1-.1 2.2-.2 3.2 0 .2.2.4.4.4s.4-.2.4-.4V62c0-.2-.2-.4-.4-.4s-.4.2-.4.4v.3h.8c.1-1.1.1-2.2.2-3.2 0-.2-.2-.4-.4-.4-.3.1-.4.2-.4.4zM38.8 59c0 1.2-.1 2.4-.1 3.6 0 .4.6.5.7.1 0-.1.1-.3.1-.4.1-.5-.6-.7-.7-.2 0 .1-.1.3-.1.4.2 0 .5.1.7.1 0-1.2.1-2.4.1-3.6.1-.5-.7-.5-.7 0zM40.3 59c-.1 1.2-.1 2.4-.2 3.6 0 .4.6.5.7.1 0-.1.1-.3.1-.4.1-.5-.6-.7-.7-.2 0 .1-.1.3-.1.4.2 0 .5.1.7.1.1-1.2.1-2.4.2-3.6.1-.4-.7-.4-.7 0zM41.7 59.2c-.1 1.3-.1 2.6-.1 3.8 0 .5.7.5.8 0v-.2c0-.2-.2-.4-.4-.4s-.4.2-.4.4v.2h.8c-.1-1.3-.1-2.6.1-3.8 0-.2-.2-.4-.4-.4-.3 0-.4.2-.4.4zM43.6 59c-.1 1.3-.1 2.5-.2 3.8 0 .4.5.5.7.2 0-.1.1-.2.1-.3.1-.2.1-.4-.1-.5-.2-.1-.4-.1-.5.1 0 .1-.1.2-.1.3.2.1.5.1.7.2.1-1.3.1-2.5.2-3.8-.1-.4-.8-.4-.8 0zM44.8 59.5c0 .6-.1 1.3-.1 1.9 0 .3 0 .6-.1.9v.4c0 .1 0 .1.1.2l.1.1c0-.1-.1-.1-.1-.2 0 0 0-.1 0 0V63.5c0 .1 0 0 .1-.1-.4.3.2.9.5.5.2-.2.2-.6.2-.8 0-.3.1-.6-.2-.8l.1.1c.1.1 0 0 0-.1v-.2-.4-.8c0-.5.1-1.1.1-1.6.1-.3-.7-.3-.7.2zM46.6 59c-.1 1.3-.2 2.5-.3 3.8 0 .4.6.5.7.1 0-.1.1-.2.1-.3.1-.5-.6-.7-.7-.2 0 .1-.1.2-.1.3.2 0 .5.1.7.1.1-1.3.2-2.5.3-3.8 0-.2-.2-.4-.4-.4-.2.1-.3.2-.3.4zM48.3 59.8c-.2 1-.3 2-.5 3h.7v.1c.1-.2.2-.4 0-.5-.1-.1-.4-.2-.5 0-.2.2-.2.4-.2.7 0 .2.2.3.4.3s.3-.1.4-.3c.2-1 .3-2 .5-3 0-.2-.1-.4-.3-.5-.2-.1-.4 0-.5.2zM50.7 58.9c-.4 1.4-.7 2.8-.9 4.2-.1.4.4.7.7.3.1-.1.2-.3.2-.4.3-.4-.4-.8-.6-.4-.1.2-.1.3-.2.4.2.1.5.2.7.3.2-1.4.5-2.8.9-4.2.1-.4-.6-.6-.8-.2zM52.4 59.1c-.3.8-.4 1.7-.6 2.6-.1.4-.1.8-.2 1.2 0 .1 0 .3-.1.4v.1c0 .1 0 .1 0 0 .2.1.5.1.7.2v-.1c0-.2-.2-.4-.4-.4s-.4.2-.4.4v.1c0 .4.5.5.7.2.1-.1.1-.4.1-.6.1-.4.1-.8.2-1.2.2-.9.3-1.8.6-2.6.3-.6-.4-.8-.6-.3zM53.9 59.8c-.3.8-.5 1.7-.8 2.5-.1.2-.2.4-.2.6 0 .2 0 .4.1.5 0 .1.1.3.2.4.2.1.4 0 .6-.2.3-.4-.4-.8-.6-.4.1 0 .2-.1.3-.1.1 0 .1 0 .2.1.1.2.2.2.1.1v-.1-.1-.4l.3-.9c.2-.6.4-1.2.6-1.9 0-.3-.7-.5-.8-.1zM55.8 59c-.4 1.1-.8 2.2-1.2 3.4-.1.2-.2.5-.2.7.1.3.4.4.6.2.1-.1.1-.2.2-.4 0-.1 0-.1.1-.2v-.1s0 .1 0 0c.2-.4-.4-.8-.6-.4-.1.1-.1.2-.1.4 0 .1 0 .1-.1.2 0 0-.1.1 0 0l.1-.1h.3l.2.2c.1.2 0 .2.1.1 0-.1.1-.1.1-.2.1-.2.1-.3.2-.5.1-.3.3-.7.4-1 .2-.7.5-1.3.7-2 .1-.2-.1-.4-.3-.5-.2-.1-.4 0-.5.2zM57.5 58.9c-.6 1.2-1.1 2.4-1.5 3.6-.2.4.5.7.7.3l-.1.1c-.2-.1-.4-.2-.6-.4v.2c-.1.1-.1.3-.2.4l-.3.6c-.1.4.4.6.6.4 0 0 0-.1.1-.1.1-.2.1-.4-.1-.5-.2-.1-.4 0-.5.1l.1-.1c.2.1.4.2.6.4v-.1-.1c.1-.1.1-.3.2-.4l.3-.6c.1-.4-.4-.6-.6-.4 0 0 0 .1-.1.1.2.1.5.2.7.3.4-1.2.9-2.3 1.5-3.4.1-.2.1-.4-.1-.5-.3-.1-.6 0-.7.1zM59.2 59.1c-.5 1.3-.9 2.5-1.4 3.8-.1.4.5.7.7.3.1-.2.1-.3.2-.5s.1-.4-.1-.5c-.2-.1-.4-.1-.5.1-.1.2-.1.3-.2.5.2.1.5.2.7.3.5-1.3.9-2.5 1.4-3.8.1-.2-.1-.4-.3-.5-.3-.1-.5.1-.5.3zM60.2 59.9c-.2 1.1-.4 2.2-.7 3.4 0 .2.1.4.3.5.2.1.4-.1.5-.3 0-.1 0-.2.1-.3 0-.2-.1-.4-.3-.5-.2-.1-.4.1-.5.3 0 .1 0 .2-.1.3.2.1.5.1.7.2.2-1.1.4-2.2.7-3.4 0-.2-.1-.4-.3-.5-.1 0-.4.1-.4.3zM62.1 59.8c-.4 1-.8 2.1-1 3.2 0 .2.1.4.3.5.2.1.4-.1.5-.3.1-.2.1-.3.2-.5s-.1-.4-.3-.5c-.2-.1-.4.1-.5.3-.1.2-.1.3-.2.5.2.1.5.1.7.2.3-1.1.6-2.2 1-3.2.1-.2-.1-.4-.3-.5-.1 0-.3.1-.4.3zM63.5 60.2c-.4 1-.7 2-1 3.1 0 .2 0 .3.2.4.1.1.4.1.5-.1.1-.1.2-.2.2-.3.1-.2.2-.4 0-.5-.1-.1-.4-.2-.5 0-.1.1-.2.2-.2.3.2.1.4.2.6.4.3-1.1.6-2.1 1-3.1.1-.2-.1-.4-.3-.5-.2-.1-.4.1-.5.3zM65.2 60.1c-.3 1-.6 2.1-1 3.1-.1.2.1.4.2.4.2.1.4 0 .5-.2 0-.1.1-.1.1-.2.1-.2 0-.4-.1-.5-.2-.1-.4 0-.5.1 0 .1-.1.1-.1.2.2.1.5.2.7.3.3-1 .6-2.1 1-3.1.1-.4-.6-.6-.8-.1zM66.7 60l-1.2 3.3c-.1.4.5.7.7.3.1-.1.1-.2.2-.4.2-.4-.4-.8-.6-.4-.1.1-.1.2-.2.4.2.1.5.2.7.3l1.2-3.3c.1-.2-.1-.4-.3-.5-.2 0-.4.1-.5.3zM68.4 59.7c-.8 1.3-1.3 2.8-1.9 4.2.2 0 .5-.1.7-.1v.3c.1-.5-.6-.7-.7-.2v.3c.2.3.6.2.7-.1.6-1.3 1-2.7 1.8-4 .3-.4-.4-.8-.6-.4zM123.9 60.4c1.2.5 2.3 1.1 3.4 1.8.8.5 1.7.9 2.3 1.6.3.4.8-.2.5-.5-.6-.8-1.5-1.2-2.3-1.7-1.1-.7-2.3-1.4-3.5-1.9-.2-.1-.4-.1-.5.1-.2.3-.1.6.1.6zM125.9 58.7l3.6 2.7c.5.3 1 .7 1.4 1.1.2.2.5.6.8.6.2 0 .3-.1.4-.3.2-.5-.6-.7-.7-.2.1-.1.2-.2.4-.3.1 0 .1.1.1 0l-.1-.1-.2-.2-.3-.3c-.5-.4-1.1-.8-1.6-1.2-1.2-.9-2.3-1.7-3.5-2.6-.3-.1-.7.5-.3.8zM130 58c.6.9 1.2 1.9 1.8 2.8.3.4.5.9.8 1.3.1.1.2.3.3.4l.1.1c.1.1 0-.1 0-.1 0-.1 0-.1.1-.2-.2.4.4.8.6.4.1-.2 0-.5-.1-.7-.2-.3-.4-.6-.5-.9l-1.5-2.4c-.2-.4-.5-.8-.7-1.2-.5-.3-1.1.1-.9.5zM132.4 58.5c.4.7.8 1.5 1.2 2.2.2.3.3.5.5.8.1.1.1.2.2.2.2.2.5.2.6-.1.1-.2.1-.4-.1-.5-.2-.1-.4-.1-.5.1l.1-.1h.3s.2.1.1.1c.1.1 0 0 0 0-.1-.1-.1-.2-.2-.3-.2-.3-.3-.5-.5-.8-.4-.6-.8-1.3-1.1-1.9-.1-.2-.3-.2-.5-.1-.1 0-.1.2-.1.4zM134.2 57.7c.4 1.4.9 2.8 1.4 4.1.1.3.4.4.6.2.2-.2.3-.4.2-.7-.1-.5-.9-.3-.7.2 0 0 .1-.1 0 0 .2.1.4.1.6.2-.5-1.3-1-2.7-1.4-4.1-.1-.5-.8-.3-.7.1zM135.9 57.6c.2.9.3 1.7.5 2.6.1.4.1.8.3 1.2.2.5.9.5.9-.1 0-.2-.2-.4-.4-.4s-.4.2-.4.4c0-.1.1-.2.1-.3.1 0 .1 0 .2-.1.1 0 .1.1.2.1 0 .1 0 0 0 0v-.1c0-.1 0-.2-.1-.3 0-.1-.1-.3-.1-.4-.1-.3-.1-.6-.2-1-.1-.6-.3-1.3-.4-1.9 0-.2-.3-.3-.5-.3-.1.2-.1.4-.1.6zM137.3 57.2c.2 1.4.4 2.7.7 4.1.1.3.4.3.6.2.2-.2.3-.4.3-.7 0-.5-.7-.5-.8 0 0 .1 0 .1-.1.2.2.1.4.1.6.2-.3-1.3-.5-2.6-.6-3.9 0-.2-.2-.4-.4-.4-.1-.1-.3.1-.3.3zM138.8 56.7c.1 1.3.2 2.7.4 4 0 .2.2.4.5.4.4-.1.5-.5.3-.8-.1-.2-.4-.2-.5-.1-.2.1-.2.3-.1.5 0-.1 0-.1-.1-.2 0-.1.1-.1.1-.2.2.1.3.2.5.4-.1-1.3-.2-2.7-.4-4 0-.2-.2-.4-.4-.4-.1.1-.3.2-.3.4zM140.2 56.4c0 .7.1 1.4.1 2.1 0 .3.1.6.1.9 0 .2 0 .4.2.5.1.1.4.1.5 0 .1-.1.1-.2.1-.3 0-.5-.7-.5-.8 0v-.1c0-.1.1-.1.1-.2h.5c.2.2.1.2.1.1v-.1-.3c0-.1 0-.3-.1-.4 0 .1 0 0 0 0v-.1-.3c-.1-.7-.1-1.3-.1-2 .1-.2-.7-.2-.7.2zM141.7 56.9c0 .6 0 1.2.1 1.9 0 .2 0 .5.1.7 0 .1 0 .3.1.5.2.3.5.2.6 0 0-.1 0-.1.1-.2 0-.2-.2-.4-.4-.4s-.4.2-.4.4c0-.1 0-.1.1-.2h.6v-.1c0-.3 0-.5-.1-.8 0-.6-.1-1.2-.1-1.8.1-.4-.7-.4-.7 0zM142.8 56.1c0 .7.1 1.4.1 2.1 0 .3.1.6.1.9v.2c.1.2.3.4.6.2.4-.2 0-.9-.4-.6.1 0 .1 0 .2-.1.1 0 .1 0 .2.1 0 0 .2.1.2.2V59v-.1-.1c0 .1 0 .1 0 0 0-.3-.1-.5-.1-.8-.1-.6-.1-1.2-.1-1.9-.1-.5-.9-.5-.8 0zM144.3 56.1c-.1.9-.1 1.8-.2 2.7 0 .2.2.4.4.4s.4-.2.4-.4c.1-.9.1-1.8.2-2.7 0-.2-.2-.4-.4-.4s-.3.2-.4.4zM146.1 56.4c-.1.9-.1 1.8-.1 2.7 0 .3.3.4.6.3.3-.1.4-.4.5-.7 0-.2-.2-.4-.4-.4s-.4.2-.4.4c0-.1 0 0 0 0 .1 0 0 0 0 0l.6.3c0-.9 0-1.8.1-2.7 0-.2-.2-.4-.4-.4-.3.2-.4.3-.5.5zM147.8 55.7c-.1.6-.1 1.3-.1 1.9v.6c0 .1 0 .2.1.3.1.2.5.3.7 0 .1-.2 0-.4-.1-.5-.2-.1-.4 0-.5.1l.1-.1c.1 0 .1 0 .2-.1.1 0 .1 0 .2.1l.2.2c0-.1 0 0 0 0V58v-.6-.8-.4-.2-.1c0-.1 0 .1 0 0 0-.2 0-.4-.3-.5-.2 0-.4.1-.5.3zM149.6 55.2c-.1.9-.1 1.9-.1 2.8h.8c0-.2-.2-.4-.4-.4s-.4.2-.4.4.2.4.4.4.4-.2.4-.4c0-.9 0-1.9.1-2.8 0-.2-.2-.4-.4-.4-.3.1-.4.2-.4.4zM151.3 55.4c-.1.6-.2 1.2-.2 1.8 0 .2 0 .5-.1.7 0 .2 0 .3.1.5.2.2.6.1.6-.2 0-.2 0-.4-.3-.5-.2 0-.4.1-.5.3.2-.1.4-.1.6-.2 0 .1.1.2.1.3v-.3c0-.2 0-.5.1-.7 0-.3.1-.6.1-.8v-.4-.1-.1-.1-.1c0-.2 0-.4-.3-.5.1.1-.1.2-.2.4zM152.7 54.8l-.3 2.1c0 .3-.1.5-.1.8v.3c.1.2.3.4.6.2.4-.3 0-.9-.4-.6H152.8c.1 0 .1.1.2.1.1.1.1.2.1.1v-.2c0-.3 0-.5.1-.8.1-.6.1-1.1.2-1.7 0-.2-.1-.4-.3-.5-.1-.1-.4 0-.4.2zM154.4 55c-.2.5-.3 1.1-.3 1.6 0 .3-.1.5-.1.8 0 .1-.1.3 0 .4.1.2.3.3.6.2.1 0 .1-.1.2-.2.1-.2-.1-.4-.3-.5-.2-.1-.4.1-.5.3l.2-.2c.2.1.4.1.6.2v-.2-.2-.1s0-.1 0 0c0-.1 0-.3.1-.4l.3-1.5c.1-.2-.1-.4-.3-.5-.3-.1-.5.1-.5.3zM155.9 54.9c-.2.9-.4 1.8-.7 2.6.2 0 .5.1.7.1 0-.1 0 .1-.1.1.2-.1.2-.3.1-.5s-.3-.2-.5-.1-.3.3-.3.5.1.3.3.4c.2 0 .4-.1.4-.3.2-.9.4-1.8.7-2.6 0-.2-.1-.4-.3-.5 0 0-.2.1-.3.3zM157.1 54.6c0 1-.2 1.9-.4 2.8-.1.4.4.6.6.4l.2-.2c.3-.3-.2-.9-.5-.5l-.2.2c.2.1.4.2.6.4.2-1 .4-2 .4-3 0-.2-.2-.4-.4-.4-.1-.1-.3.1-.3.3zM159 54.3c-.3 1.1-.6 2.2-1 3.4-.1.3.2.5.5.5.2 0 .4-.2.4-.4s-.1-.4-.3-.5c-.2 0-.4.1-.5.3l.1-.1.5.5c.3-1.1.6-2.2 1-3.4.2-.5-.5-.7-.7-.3zM160.4 54.1c-.6 2.4-1.2 4.9-1.8 7.4-.1.3.4.7.6.4-.2 0-.3 0-.5.1-.1-.1-.1-.2-.2-.3 0 .1 0 .2-.1.2 0 .2-.1.4-.1.6-.1.3-.2.7.1.9.1.1.3.1.5-.1.3-.4-.2-.9-.5-.5.2 0 .3 0 .5-.1.1.1.1.2.2.3 0-.1 0-.2.1-.2 0-.2.1-.4.1-.6.1-.3.2-.7-.1-.9-.1-.1-.3-.1-.5.1.2.1.4.2.6.4.6-2.5 1.1-4.9 1.8-7.4.1-.6-.6-.8-.7-.3zM162.4 54.6c.5 0 .5-.8 0-.8s-.5.8 0 .8z" />
	<path class="jedi_master_3"
		d="M162 54.5c-.6 2.2-1.1 4.4-1.5 6.6-.1.4.5.7.7.3 0-.1.1-.1.1-.2.2-.4-.4-.8-.6-.4 0 .1-.1.1-.1.2.2.1.5.2.7.3.4-2.2.9-4.5 1.5-6.6 0-.5-.7-.7-.8-.2zM163.6 53.7c-.4 2.2-.9 4.4-1.3 6.7-.1.5.6.7.7.2 0-.1.1-.3.1-.4.1-.5-.6-.7-.7-.2 0 .1-.1.3-.1.4.2.1.5.1.7.2.4-2.2.9-4.4 1.3-6.7.1-.5-.6-.7-.7-.2zM165.2 53.9c-.5 2-1 4.1-1.4 6.2-.1.5.6.7.7.2 0-.1.1-.2.1-.3.2-.5-.6-.7-.7-.2 0 .1-.1.2-.1.3.2.1.5.1.7.2.4-2.1.9-4.1 1.4-6.2.2-.5-.5-.7-.7-.2zM166.4 53.8c-.4 1.6-.8 3.2-1.1 4.8 0 .2.1.4.3.5.2 0 .4-.1.5-.3 0-.1 0-.3.1-.4.1-.5-.6-.7-.7-.2 0 .1 0 .3-.1.4.2.1.5.1.7.2.3-1.6.6-3.2 1.1-4.8.1-.5-.6-.7-.8-.2zM167.8 53.2c-.1 1.2-.3 2.5-.6 3.7.2 0 .5.1.7.1v-.2c0-.5-.7-.5-.8 0v.2c0 .4.6.5.7.1.3-1.3.5-2.6.7-3.9 0-.2-.2-.4-.4-.4-.1 0-.2.2-.3.4zM19.7 59.1V65c0 .5.8.5.8 0v-5.9c0-.5-.8-.5-.8 0zM22.5 58.9c.1 3.1.4 6.1.7 9.2.1.5.8.5.8 0-.3-3-.5-6.1-.7-9.2-.1-.5-.8-.5-.8 0z" />
	<g>
		<path class="jedi_master_3"
			d="M47.4 69.8l-.3 4.5h.8v-.2c0-.5-.8-.5-.8 0v.2c0 .5.7.5.8 0l.3-4.5c0-.5-.8-.4-.8 0z" />
	</g>
	<g>
		<path class="jedi_master_3"
			d="M54.6 69.7c-.1 1.7-.1 3.4 0 5.2 0 .4.5.5.7.2.1-.1.1-.2.1-.3 0-.5-.7-.5-.8 0 .2.1.5.1.7.2v-5.2c.1-.6-.6-.6-.7-.1z" />
	</g>
	<g>
		<path class="jedi_master_3"
			d="M50.3 70.1c-.1 1.9-.2 3.7-.3 5.6 0 .4.4.5.6.3l.1-.1c.4-.3-.2-.8-.5-.5l-.1.1.6.3c0-1.9.1-3.7.3-5.6.1-.6-.7-.6-.7-.1z" />
	</g>
	<g>
		<path class="jedi_master_3"
			d="M57.3 69.2v5.6c0 .5.7.5.8 0 0-.2 0-.3-.1-.5-.2-.4-.9 0-.6.4v.1h.8v-5.6c-.1-.5-.9-.5-.9 0z" />
	</g>
	<g>
		<path class="jedi_master_3"
			d="M26.7 59.7c.1 3.6.4 7.2.9 10.8.2 0 .5-.1.7-.1 0-.1-.1-.3-.1-.4-.2-.5-.9-.3-.7.2 0 .1.1.3.1.4.1.4.8.3.7-.1-.4-3.6-.7-7.2-.9-10.8 0-.5-.7-.5-.7 0z" />
	</g>
	<g>
		<path class="jedi_master_3"
			d="M29.7 59.7L30 63c0 .2.2.4.4.4s.4-.2.4-.4l-.3-3.3c0-.2-.2-.4-.4-.4-.3 0-.5.2-.4.4z" />
	</g>
	<g>
		<path class="jedi_master_3" d="M31.6 59.4c.1 1.2.1 2.4 0 3.6 0 .5.7.5.8 0v-3.6c-.1-.5-.8-.5-.8 0z" />
	</g>
</svg>