<svg xmlns="http://www.w3.org/2000/svg" viewBox="0 0 200 200">
	<style>
		.jeweler_1 {
			fill: #fd1015
		}

		.jeweler_2 {
			fill: #e7f4df
		}
	</style>
	<path
		d="M142.3 91.1c-.1-4.5-1-8.9-2.4-13.1-1.5-4.2-3.4-8.4-6.2-12-5.2-6.6-13.4-8.3-21.2-9.6-1.1-.2-2.1-.4-3.2-.6-.5-.1-1.1-.2-1.6-.3-.4-.1-1-.1-1.3-.3v.1l-.1-.5c-.1-.4 0-1 0-1.3.2-1 .5-1.8 1.1-2.7 2.4-3.8 7.3-4.9 11.4-6 1-.2 1.6-1.3 1.5-2.3-.2-1-.9-1.7-2-1.8l-.1-.1c0-.1-.1-.1-.1-.2s-.1-.2-.1-.3V40v-.1-.3-.1c.1-.2 0-.2.2-.5.3-.5.7-.9 1.1-1.2 1-.8 2.3-1.4 3.4-2.1l4.3-2.5c2.4-1.4 5.1-2.7 6.9-4.9 1.8-2.3 2-5.2.6-7.7-1.2-2.3-3.5-4-6-4.6-3.2-.8-6.5-.1-9.6.9-2.6.8-5.7 1.7-7.5 3.9-1 1.1-1.6 2.5-2 3.9-.4 1.1-.6 2.3-1.2 3.4-1.2 2.3-3.3 4-5.1 5.8-2.1 2-4 4.2-5.1 6.9-.5 1.3-.7 2.8-.6 4.2.2 1.5.6 2.8 1 4.2.2.6.3 1.1.3 1.7 0 .5-.1.9-.3 1.3-.4.8-1.1 1.6-1.8 2.1-2.1 1.6-4.9 1.8-7.5 2.1-2.7.3-5.3.7-7.8 1.6-4.8 1.6-9.2 4.4-12.9 7.8-3.6 3.4-6.6 7.6-8.5 12.1-1.8 4.2-2.8 9-1.5 13.4-.7.4-1.1 1-1.1 1.8.3 6.4 3.4 12.1 7.1 17.2 1.8 2.5 3.6 4.9 5.6 7.2 2 2.2 4.4 4.1 7.3 4.8 1.3.3 2.6.4 3.9.7.3.1.6.1 1 .2.1 0 .3.1.4.1h.1c.1.1.2.1.3.2h.1l.1.1c.3.3.2.1.4.6 1.1 2 4.5.6 3.8-1.6-.2-.7-.1-1.2.4-1.8.6-.8 1.5-1.2 2.5-1.4 1-.2 2.4.1 3.6.3 1.4.4 2.8.9 4.2 1.2 2.9.8 6 1 9.1.6 1.4-.2 2.8-.7 4.2-.9.7-.1.8-.1 1.4.1h.1l.1.1c.1 0 .4.3.5.3.2.2.4.4.6.5l.1.1c.1.1.1.2.2.3.3.5.6 1 .9 1.6.1.2.4 1 .5 1.4.2.6.4 1.2.5 1.9.5 2.3 4.1 1.8 4-.5v-.5l.1-.4c0-.1.1-.3.1-.4v-.1s0-.1.1-.1c.4-.7.6-.9 1.2-1.6 1.1-1.1 2.5-1.9 4-2.7 3.3-1.9 6.3-4 8.8-6.9 5.3-6.1 7.9-14.3 7.7-22.6z"
		fill="#666" />
	<path class="jeweler_1"
		d="M128.2 139.9c-1.1-2.1-2.4-4.4-4-6.2-1.8-2-4.3-2.7-6.9-3-6.1-.6-12.2-.9-18.2-1.3l-10.8-.6c-1.7-.1-3.4-.2-5.2-.2-1.3 0-2.7-.1-3.8.8-1.1.8-1.8 2.2-2.5 3.4-.8 1.3-1.5 2.6-2.1 4-1.2 2.6-2.1 5.3-2.8 8.1h-.4l-.6.3c-.1.1-.1.2-.2.3-.1.2-.2.4-.2.6v.2c-.3.5-.2 1.3.4 1.7 2.1 1.3 3.7 3 4.9 5.1 1.3 2.3 1.4 5 2.9 7.2 1.3 1.9 3.2 3.1 5 4.5 2.1 1.6 3.8 3.5 5.4 5.6 1.6 2 3.2 4.1 5.3 5.6 2.3 1.6 4.8.8 7.2-.2 4.7-2 8.6-5.4 12.1-9 3.9-4.1 7.5-8.5 11.1-12.8 1.7-2 3.5-4 4.4-6.5.9-2.6.2-5.2-1-7.6z" />
	<path class="jeweler_2"
		d="M79.7 127.7c-4.4 6-8.5 12.2-11.9 18.8-.9 1.7 1.7 3.2 2.6 1.5 3.4-6.6 7.5-12.9 11.9-18.8.5-.7.1-1.7-.5-2.1-.8-.3-1.6 0-2.1.6z" />
	<path class="jeweler_2"
		d="M69.1 149c20.2 2.2 40.5 2.6 60.8 1.2 1.9-.1 1.9-3.1 0-3-20.3 1.4-40.6 1-60.8-1.2-1.9-.2-1.9 2.8 0 3z" />
	<path class="jeweler_2"
		d="M68.8 148.9c3.2 4.2 6.8 8.2 10.3 12.2 4.4 4.9 8.8 9.8 13.3 14.7 1.6 1.7 3.2 3.5 4.9 5.2 1.1 1.1 2.8 0 2.5-1.5-1.9-9.6-3.7-19.3-4.9-29-.2-1.9-3.2-1.9-3 0 1.2 10 3 19.9 5 29.8.8-.5 1.7-1 2.5-1.5-3.5-3.5-6.8-7.2-10.2-10.9-4.4-4.9-8.8-9.8-13.1-14.8-.9-1.1-1.9-2.2-2.8-3.3-.4-.4-.7-.9-1.1-1.3-.2-.2-.3-.4-.5-.6-.2-.2-.3-.3-.3-.4-1.1-1.6-3.7-.1-2.6 1.4z" />
	<path class="jeweler_2"
		d="M99.9 178.6c4.7-8.7 8.9-17.7 12.5-26.9.7-1.8-2.2-2.6-2.9-.8-3.5 9-7.6 17.7-12.2 26.2-1 1.7 1.6 3.2 2.6 1.5z" />
	<path class="jeweler_2"
		d="M99.3 180.8c5.4-4.6 10.7-9.3 15.9-14.2 5.1-4.9 10.3-9.8 14.9-15.2.9-1.1 1.6-2.3 1.3-3.8-.3-1.7-1.3-3.4-2-5-1.5-3.5-3-7-4.5-10.6-.6-1.3-1.2-2.5-2.6-3.1-1.5-.5-3.4-.5-5-.7-3.8-.4-7.5-.7-11.3-1-8.4-.5-16.7-.7-25.1-.5-1.9 0-1.9 3 0 3 6.9-.2 13.8-.1 20.7.2 3.4.2 6.9.4 10.3.7 1.6.1 3.3.3 4.9.5l2.4.3c.8.1 1.9 0 2.4.6.4.5.6 1.3.9 1.9.3.8.7 1.5 1 2.3.7 1.6 1.4 3.2 2 4.8.6 1.5 1.2 2.9 1.9 4.4.3.7.8 1.5.9 2.3.2 1-.4 1.5-1 2.2-4.4 4.8-9 9.5-13.8 14-5.3 5.1-10.8 10-16.4 14.7-1.4 1.3.8 3.5 2.2 2.2z" />
	<path class="jeweler_2"
		d="M94.2 149.7c4.2-6.2 5.7-13.8 9.8-20.1h-2.6c4 6.1 4.7 13.8 7.9 20.2.9 1.7 3.5.2 2.6-1.5-3.3-6.5-3.9-14.1-7.9-20.2-.6-1-2-1-2.6 0-4.1 6.3-5.6 13.9-9.8 20.1-1.1 1.6 1.5 3.1 2.6 1.5z" />
	<path class="jeweler_1"
		d="M82.8 136.1c-.1-.2-.1-.3-.3-.4l-.3-.2c-.2-.1-.4-.2-.7-.2h-.3l-.6.3-.2.2c-.1.1-.2.3-.3.4-.1.2-.1.3-.1.5s0 .3.1.5.1.3.3.4l.3.2c.2.1.4.2.7.2h.3l.6-.3.2-.2c.1-.1.2-.3.3-.4.1-.2.1-.3.1-.5s-.1-.4-.1-.5z" />
	<path class="jeweler_2"
		d="M79 122.3c.7 1.4 1.7 2.7 2.8 3.7 1.3 1.2 3 2.6 4.9 1.8 1.6-.7 2.2-2.5 2.7-3.9.6-1.7.9-3.5 1.1-5.2.1-.8-.8-1.5-1.5-1.5-.9 0-1.4.7-1.5 1.5v.3c0-.1 0-.1 0 0 0 .2-.1.4-.1.6-.1.3-.1.6-.2 1-.1.7-.3 1.4-.5 2-.1.4-.2.7-.4 1.1-.1.2-.1.3-.2.5 0 .1-.2.4 0 .1-.1.3-.3.5-.4.7.1-.3 0 0-.1.1l-.2.2c.1-.1.2-.1.1-.1-.1.1-.1 0 .1 0-.1 0-.1 0-.2.1.3-.1-.2-.1.1 0-.3-.1.1.1-.2-.1-.2-.1-.3-.2-.4-.3-.1 0-.1-.1-.2-.1.1.1.1.1 0 0l-.3-.3c-.2-.2-.5-.4-.7-.6-.2-.2-.4-.4-.6-.7l-.3-.3c.2.2-.1-.2-.2-.2-.4-.5-.7-1.1-1-1.7-.4-.7-1.4-1-2.1-.5-.7.2-.9 1-.5 1.8zM113.1 119.3c-.1 3.2 1.1 6.4 3.2 8.8.6.7 1.2 1.4 2 1.6 1.1.4 2-.3 2.8-1 1.2-1.2 2.2-2.5 3-4 .4-.8.8-1.6 1-2.5.2-1.2 0-2.2-.8-3.1-.5-.6-1.6-.5-2.1 0-.6.7-.5 1.5 0 2.1-.1-.1-.1-.1 0 0-.1-.2-.1-.2 0 0 0 .2 0 .2 0 0v.3c0 .2 0 .2 0 0 0 .1 0 .2-.1.3 0 .2-.1.4-.2.5-.1.2-.1.2 0 0 0 .1-.1.2-.1.3-.1.2-.2.4-.3.5-.2.4-.4.7-.6 1.1-.2.4-.5.7-.7 1 .1-.2-.2.2-.2.2-.1.2-.3.3-.4.5l-.9.9-.2.2c.1-.1.3-.2.5-.1.2 0 .3 0 .4.2l-.2-.2-.8-.8s-.4-.5-.2-.3c-.1-.2-.2-.3-.3-.5-.2-.3-.4-.6-.5-.9-.1-.2-.2-.3-.3-.5 0 0-.3-.6-.1-.3-.3-.7-.5-1.5-.7-2.2 0-.1-.1-.6-.1-.3 0-.2 0-.4-.1-.6v-1.2c0-.8-.7-1.5-1.5-1.5-.8.1-1.5.7-1.5 1.5z" />
	<path class="jeweler_2"
		d="M80.5 120.5c-5.8 2.3-10.1-4.3-13.1-8.3-3.8-4.9-7.7-9.6-8.5-16-.5-3.6-.4-7.5.2-11.1.6-3.7 1.9-7 3.6-10.3 1.3-2.6 2.8-4.9 4.9-6.9 2.4-2.2 5.2-3.9 8.1-5.3 11.8-6.1 26-7.7 39-5.3 3 .5 6.2 1.2 9 2.4 2.5 1.1 4.6 3 6.4 4.9 4.5 4.9 7.9 11.2 9.7 17.6.9 3.1 1.2 6 1 9.2-.3 3.6-.8 7.2-1.8 10.6-1 3.4-2.7 6.4-5.1 9-2 2.1-3.6 4.7-5.9 6.6-1.2.9-2.5 1.5-3.9 1.9-1.9.5-1.1 3.4.8 2.9 3.2-.9 5.6-2.8 7.8-5.4 2.3-2.7 4.9-5.3 6.7-8.4 1.9-3.3 3-6.9 3.6-10.6.6-3.6 1.2-7.4.9-11.1-.6-7.1-4-14.3-8.1-20.1-1.9-2.7-4.1-5.4-6.8-7.4-2.5-2-5.2-3-8.2-3.8-13.9-3.8-29.4-2.9-42.7 2.7-6.2 2.6-12.6 6.3-16.2 12.1-1.9 3-3.6 6.4-4.6 9.7-1.2 4-1.6 8.2-1.5 12.3 0 3.5.5 7 1.9 10.3 1.3 3.1 3.2 5.8 5.3 8.5 2.1 2.7 4.2 5.6 6.5 8.1 2 2.2 4.5 4.3 7.6 4.7 1.5.2 3 0 4.5-.6 1.5-.7.7-3.6-1.1-2.9z" />
	<path class="jeweler_2"
		d="M113.4 120.1c-.3.5-1.5.6-2 .7-1 .2-2 .3-3.1.4-1.9.1-3.9.1-5.8-.1-4-.3-8-1.2-12-2-1.9-.4-2.7 2.5-.8 2.9 4.7 1 9.4 2 14.2 2.2 2.3.1 4.6 0 6.9-.3 1.8-.3 4.2-.5 5.2-2.3.9-1.7-1.7-3.2-2.6-1.5zM99.7 53.2c.2.1.3.5.2.2-.1-.3-.2-.6-.3-.8-.3-.9-.5-1.9-.7-2.8-.5-2.2-.8-4.6-.6-6.9.2-2.6 2-4.3 3.9-5.9 2.3-2.1 4.9-4 6.5-6.7 1.7-2.9 2.4-6.1 4.7-8.7 1.9-2.2 4.3-4 7.2-4.7 5.6-1.5 12.3 1.9 13.1 8 .2 1.7-.1 3.5-1.4 4.6-1.6 1.3-3.6 2.3-5.4 3.5-3.9 2.4-7.7 4.9-11.6 7.3-1.3.8-.7 2.7.8 2.8 1.9.2 3.9.4 5.8.6-.4-.8-.9-1.5-1.3-2.3-2 2.9-5.9 3.1-8.9 4.4-3.3 1.4-6.1 4-7.4 7.4-.7 1.8 2.2 2.6 2.9.8 1.3-3.3 4.6-5.1 7.7-6.1 3.2-.9 6.3-2.1 8.3-4.9.7-1-.3-2.2-1.3-2.3-1.9-.2-3.9-.4-5.8-.6.3.9.5 1.9.8 2.8 3.9-2.5 7.9-5 11.8-7.5 3.3-2.1 7.3-3.8 8-8.1 1-7-5.2-13.2-12-13.8-7.1-.6-13.7 4.6-16.4 10.9-.8 1.8-1.4 3.6-2.5 5.2-1.1 1.5-2.4 2.7-3.8 3.8-2.3 2-5.2 4.2-6.1 7.3-.8 2.9-.4 6.1.2 9 .2 1.2.5 2.5.9 3.7.2.6.4 1.6.9 2 1.2 1.1 3.3-1 1.8-2.2zM72.8 95.9c-.5-1.5-.5-2.8-.6-4.6-.1-1.8 0-3.5.1-5.3 0-.6.1-1.3.1-1.9 0-.2 0-.4.1-.6 0 .1-.1.4 0 .2 0-.2.1-.1 0 .1.5-.7 1.5-.2 2.3.1 1.1.5 2.1 1 3.1 1.6 2.2 1.2 4.1 2.8 5.9 4.6 1.4 1.4 3.5-.8 2.1-2.1-1.9-2-4-3.6-6.2-5-1.1-.7-2.3-1.3-3.6-1.8-1.4-.6-2.9-1.1-4.4-.5-1 .4-1.9 1.2-2.1 2.2-.1.6-.2 1.2-.2 1.8-.1 1.8-.2 3.6-.2 5.4 0 2.2.1 4.5.7 6.5.6 1.9 3.5 1.1 2.9-.7zM130.3 97.1c.4-2.3.8-4.7 1-7 .2-2.5.6-5.5-.8-7.8-.6-1.1-1.6-1.9-2.8-2.3-1.5-.4-2.9.1-4.2.8-2.5 1.3-4.8 3-7 4.8-.5.4-.9 1-.7 1.7.2.6.8 1.1 1.4 1.1.6 0 1.1-.2 1.6-.6 1.4-1.3-.7-3.5-2.1-2.1l-.1.1c.2-.1.4-.3.7-.4.3.9.5 1.9.8 2.8 1.9-1.5 3.9-2.9 6-4.1.8-.5 1.9-1.3 2.8-1.2.7.1 1.1.7 1.4 1.3.4 1 .3 2.1.3 3.1s-.1 2.1-.2 3.1c-.2 1.9-.6 3.9-.9 5.8-.1.8.2 1.6 1 1.8.7.3 1.7-.1 1.8-.9z" />
	<path class="jeweler_2"
		d="M116.6 88c.6 1.1 1 2.5 2.2 3.2 1.7.9 3.9 0 4.9-1.5.5-.8 1-1.5 1.6-2.3.3-.4.6-.7.9-1.1.1-.1.5-.5.7-.5.5.1.1 1.8.1 2.1-.1 1.1 0 2.2 0 3.3 0 1.2 0 2.4.2 3.5.1.9.4 1.9 1.1 2.5.7.7 1.8-.4 1.1-1.1-.5-.5-.6-1.3-.7-1.9-.1-1.1-.1-2.1-.1-3.2s0-2.2.1-3.2c.1-.9.3-1.9-.2-2.7-.5-.8-1.5-1-2.3-.6-.8.4-1.4 1.2-2 2-.6.7-1.1 1.4-1.5 2.2-.5.8-1.3 1.3-2.3 1.4-1.4 0-1.9-1.8-2.4-2.8-.5-.9-1.8-.2-1.4.7zM84.5 88.8c-.4.2-.8.6-1.1.9-.3.3-.6.7-1.1.7-.5 0-1.1-.4-1.5-.7-.5-.4-1-.7-1.5-1.1-1-.8-2-1.5-3-2.3-.7-.5-1.6-1-2.4-1-1.9.1-1.7 2.5-1.8 3.9-.2 2.4-.9 4.7-1 7.1-.1 1 1.4 1 1.5 0 .2-2.3.8-4.4 1-6.7.1-.8 0-1.6.2-2.3 0-.2.1-.4.3-.5.3-.1.8.3 1 .4 1.9 1.1 3.5 2.8 5.4 4 .8.5 1.8.9 2.7.5.8-.4 1.3-1.1 2.1-1.6s.1-1.8-.8-1.3z" />
	<path class="jeweler_2"
		d="M74.1 85.4c-.7-.9-1.1-1.9-1.3-3 0-.2-.3-.3-.5-.3-.2.1-.3.3-.3.5.2 1.2.7 2.4 1.5 3.3.1.2.4.1.5 0 .2-.2.2-.4.1-.5zM75.4 86.2c-.4-1.3-.7-2.5-1.1-3.8-.1-.5-.9-.3-.7.2.4 1.3.7 2.5 1.1 3.8.1.4.9.2.7-.2zM76.7 86.7c-.3-1.1-.5-2.2-.5-3.3 0-.5-.7-.5-.8 0 0 1.2.1 2.3.5 3.5.2.5 1 .3.8-.2zM78 87.9c-.3-1.3-.4-2.6-.5-4 0-.5-.8-.5-.8 0 .1 1.4.2 2.8.5 4.2.2.5.9.3.8-.2zM79.2 88.9c-.3-1.2-.4-2.4-.2-3.7 0-.2-.1-.4-.3-.5-.2 0-.4.1-.5.3-.2 1.4-.2 2.7.2 4.1.2.5 1 .3.8-.2zM80.4 89.7c-.3-1.1-.2-2.3 0-3.4.1-.5-.6-.7-.7-.2-.3 1.3-.3 2.6 0 3.8.1.5.8.3.7-.2zM81.4 90.6c-.1-1.1 0-2.2.3-3.2.1-.5-.6-.7-.7-.2-.3 1.1-.4 2.3-.4 3.4 0 .2.2.4.4.4.2-.1.4-.2.4-.4zM82.3 90.6c0-1.1.2-2.1.6-3.1.1-.2-.1-.4-.3-.5-.2-.1-.4.1-.5.3-.4 1-.6 2.2-.6 3.3 0 .5.8.5.8 0zM73.2 86.6c-.8-.8-1.5-1.7-2.3-2.5-.1-.1-.4-.1-.5 0-.1.1-.1.4 0 .5.8.8 1.5 1.7 2.3 2.5.1.1.4.1.5 0 .2-.1.2-.3 0-.5zM73 88.4c-.6-.5-1.2-1.1-1.7-1.7-.1-.2-.4-.1-.5 0-.1.2-.1.4 0 .5.5.6 1.1 1.2 1.7 1.7.2.1.4.2.5 0 .1-.1.2-.3 0-.5zM73.1 90.4l-1.7-1.7c-.1-.1-.4-.1-.5 0-.1.2-.1.4 0 .5l1.7 1.7c.1.1.4.1.5 0 .1-.2.2-.4 0-.5zM72.7 91.8c-.9-.6-1.7-1.3-2.5-2.1-.1-.1-.4-.1-.5 0-.1.1-.1.4 0 .5.8.8 1.7 1.5 2.6 2.2.2.1.4 0 .5-.1.1-.2 0-.4-.1-.5zM127.6 85.3c.4-1.3.6-2.7.6-4.1 0-.5-.8-.5-.8 0 0 1.3-.2 2.6-.5 3.9-.2.5.5.7.7.2z" />
	<path class="jeweler_2"
		d="M126.8 85.5c0-1.2-.1-2.4-.1-3.6 0-.5-.8-.5-.8 0 0 1.2.1 2.4.1 3.6 0 .5.8.5.8 0zM125.8 86c0-1.4-.2-2.8-.5-4.2-.1-.5-.8-.3-.7.2.3 1.3.5 2.6.5 4-.1.5.7.5.7 0zM124.8 87.1c-.1-1.4-.3-2.8-.6-4.2 0-.2-.3-.3-.5-.3-.2.1-.3.3-.3.5.3 1.3.4 2.6.5 4 0 .2.2.4.4.4.3-.1.5-.2.5-.4z" />
	<path class="jeweler_2"
		d="M124.1 88.3c-.2-1.6-.6-3.2-.9-4.7-.1-.5-.8-.3-.7.2.4 1.6.7 3.1.9 4.7 0 .2.3.3.5.3.1-.1.2-.3.2-.5zM123.4 89.5c-.4-1.7-.8-3.5-1.2-5.2-.1-.5-.8-.3-.7.2.4 1.7.8 3.5 1.2 5.2.1.4.8.2.7-.2zM122.6 89.9c-.4-1.4-.7-2.8-1.1-4.3-.1-.5-.8-.3-.7.2.4 1.4.7 2.8 1.1 4.3 0 .5.8.3.7-.2zM121.3 90.2c-.5-1.3-.9-2.7-1.3-4-.1-.5-.8-.3-.7.2.3 1.4.8 2.7 1.3 4 .1.2.3.3.5.3.2-.1.3-.3.2-.5zM119.7 89.6c-.5-.7-.7-1.5-.7-2.4 0-.2-.2-.4-.4-.4s-.4.2-.4.4c-.1 1 .2 2 .8 2.8.1.2.3.2.5.1.2 0 .3-.3.2-.5zM128.4 86.5c.2-.5.5-1.1.7-1.6.1-.2.1-.4-.1-.5-.2-.1-.4-.1-.5.1-.2.5-.5 1.1-.7 1.6-.1.2-.1.4.1.5.2.2.4.1.5-.1zM128.4 88.3s0 .1 0 0c.1-.1.1-.2.1-.2 0-.1.1-.2.1-.3.1-.1.1-.2.2-.3l.1-.1v-.1s.1-.1 0 0c.1-.2.3-.3.4-.4l.2-.2.1-.1c.1-.1-.1 0 0 0 .2-.1.3-.3.1-.5-.1-.2-.3-.3-.5-.1-.8.6-1.3 1.3-1.7 2.2-.1.2.1.4.3.5.3 0 .5-.2.6-.4zM128.4 91c0-.2.1-.4.2-.7 0 .1 0 0 0 0v-.1c0-.1.1-.1.1-.2.1-.1.1-.2.2-.3l.1-.1s.1-.1 0 0c.1-.1.1-.2.2-.3.1-.1.2-.2.3-.2l.1-.1c.1 0-.1 0 0 0l.1-.1c.2-.1.2-.3.1-.5s-.3-.3-.5-.1c-.9.6-1.5 1.5-1.7 2.6 0 .2.1.4.3.5.2-.1.4-.2.5-.4zM128.5 93c.4-.9 1-1.7 1.6-2.4.1-.2.2-.4 0-.5-.1-.1-.4-.2-.5 0-.6.8-1.2 1.7-1.7 2.6-.1.2 0 .4.1.5.1.1.4 0 .5-.2zM83.2 90.4c.1-.7.3-1.4.6-2.1.1-.2-.1-.4-.3-.5-.2 0-.4.1-.5.3-.3.7-.5 1.4-.6 2.1 0 .2.1.4.3.5.2 0 .5-.1.5-.3z" />
	<g>
		<path
			d="M102.2 111.1c-.4-.1-.9.1-1.2.5-.2-.3-.4-.6-.7-.8-.1-.2-.3-.4-.5-.6-.5-.4-1.2-.5-1.7-.1-.3.2-.4.6-.4.9-.1-.5-.7-.8-1.3-.7-.5.2-.9.7-.7 1.3.2.8.4 1.6.7 2.3.3.8.5 1.6 1.1 2.2.6.8 1.7.9 2.6.5.8-.3 1.3-1 1.7-1.7.4-.8.8-1.7 1-2.6.3-.4 0-1-.6-1.2zm-2.9 1.6z"
			fill="#fd5a5c" />
		<path class="jeweler_2"
			d="M113.3 101.9c-.1-.2-.4-.3-.6-.3-.2.1-.4.2-.5.4-.1.2-.1.5 0 .7.1.2.3.3.6.3.2 0 .4-.2.6-.3.1-.2.2-.4.2-.6 0-.4-.1-.8-.5-.9.1.2.1.5.2.7.1 0 .1-.1.2-.1h.1c.1-.1-.1 0 .1 0 .1 0 .1 0 .2-.1h.1c-.1 0 0 0 0 0s.1 0 0 0c0-.1 0 0 0 0v.4c0-.1 0 0 0 0s-.1 0 0 0c0 0-.1 0 0 0-.1-.1 0 .1 0 0v-.1c0 .1 0 0 0 0 0-.1 0 .1 0 0-.2 0-.5.1-.7.1 0 .2.1.4.1.6 0 .2.1.4.2.5.3.3.9.2 1-.2.1-.3-.1-.4-.4-.5-.4 0-.9 0-1 .4-.1.2 0 .4.2.6.2.1.4.2.6.2.4 0 .8-.1.9-.5.2-.4 0-.8-.4-1-.2-.1-.3-.2-.5-.2-.4-.1-.5-.1-.7-.1-.1 0-.2.1-.3.1.1 0 .1 0 .2-.1 0 .1 0 .1.1 0 0 .1 0 .1.1.2 0 .1 0 .2.1.3 0 0 0-.1.1-.1v-.2c0-.2-.1-.3-.2-.4-.1-.1-.3-.1-.4-.1h-.2-.1s-.1 0 0 0c.1.2.2.3.3.5 0-.1 0-.1.1-.2v-.1s0-.1 0 0c0 0 0-.1.1-.1 0 0 .1-.1 0 0l.1-.1s.1 0 0 0c0 0 .1 0 0 0 0 0 .1 0 0 0h.1c.1.1 0 0 0 0 .1 0 .1.1.2.2s.4.1.5 0c.1-.2.1-.4 0-.5-.1-.2-.3-.3-.5-.4-.2-.1-.5-.1-.7 0-.4.2-.6.6-.7 1 0 .2.1.4.3.5h.5c-.1 0-.1 0 0 0h-.1v-.1-.1s-.1.1-.1.2v.4c.1.2.3.2.5.2 0 0 .2-.1.1-.1 0 0-.2 0 0 0 .1 0 .2 0 .2.1 0 0 .1.1.1 0 0 0 .1 0 .1.1v.1s0-.1 0 0c0-.1 0-.1 0 0h.1s-.1 0 0 0h-.1c.1 0 0 0 0 0h-.1-.1c.1.1 0 .2 0 .2l-.1.1h.5c-.1-.2-.2-.3-.4-.5 0-.1.1-.1.1-.1h.1s.1.1 0 0v-.1c0-.2-.1-.5-.1-.7 0-.2-.2-.3-.4-.3s-.3.2-.3.4c0 .5.4.9.9.9s.9-.4.9-.9c0-.4-.2-1-.7-1.1-.4-.1-.9.1-1.3.3-.1.1-.2.3-.2.4.1.2.2.3.4.3-.1 0-.1 0-.2-.1 0 0 0-.1 0 0-.1-.1 0 0 0 0 0-.1 0-.1 0 0v.5c.1 0 .1 0 0 0h.1c0 .1 0 .1.1.1l.1-.1h-.1c-.1 0-.1 0-.1-.1.1.2.3.2.5.1 0-.2 0-.4-.1-.6zM90 100c-.2.4-.3.9.2 1.2.2.1.5.1.7 0 .2-.1.3-.3.5-.5.1-.2.2-.5.1-.7-.1-.3-.3-.4-.6-.5-.2-.1-.5-.1-.8 0-.2.1-.4.4-.4.6 0 .2.1.3.3.4.2 0 .3 0 .4-.2.1-.2.2-.4.2-.7 0-.3-.1-.5-.4-.6-.3-.1-.6-.1-.8.1-.2.2-.3.4-.3.6-.1.3 0 .5.2.7.2.2.4.3.6.3.4.1.9-.2 1.1-.5.2-.2-.1-.6-.3-.6-.3 0-.6.1-.8.4-.1.1-.1.3 0 .5.1.1.3.2.5.1.3-.2.5-.5.6-.9v-.6-.1c-.2.2-.2.3-.1.3-.1 0 0 0 0 0h.1c.1 0 .1.1.2.1 0 0 .1 0 .1.1-.1-.1 0 0 0 0 .1.1 0 0 0 0 0-.1 0-.1 0 0v.1c0-.1 0 0 0 0l-.1.1s-.1.1 0 0c0 0-.1 0-.1.1H91s.1 0 0 0c0 0 .1.1 0 0 0 .2 0 .3.1.5 0-.1 0 0 0 0 0-.1 0 0 0 0 .1 0 0 0 0 0h.1s-.1 0 0 0h.1s-.1 0 0 0c0-.1 0 0 0 0s0-.1 0 0c0 0 0 .1 0 0v.1c0-.1 0 0 0 0s.1 0 0 0c0 0-.1 0 0 0 0 0 .1 0 0 0 0 0-.1 0 0 0-.1 0 0 0 0 0h-.1l-.1-.1s0 .1 0 0c0 0-.1-.1 0 0-.1-.2-.3-.3-.5-.3-.2.1-.3.3-.3.5.2.4.5.7.9.7s.8-.3.9-.7c.1-.4-.1-.8-.5-1-.4-.1-.8 0-1 .3-.1.2 0 .3.1.5.3.3.8.3 1.1 0 .3-.2.7-.6.5-1-.1-.4-.5-.6-.8-.7-.2-.1-.5-.1-.7 0-.1 0-.2.1-.2.2-.1.1-.1.3 0 .4 0 0 0 .1 0 0V99.5s0 .1 0 0v.1s0 .1-.1.1c0-.1 0 0 0 0s-.1.1 0 0c.2.2.3.4.5.6l.1-.1c-.1 0 0 0 0 0 .1 0-.1 0 0 0h.1l-.3-.6c0-.1 0 0 0 0l-.1.1h-.1c-.1 0 0 0 0 0h-.1s-.1 0 0 0h-.1c-.1 0 .1 0 0 0 0 0-.1 0 0 0-.5.5-.6.4-.5.3-.2.1-.1.1 0 0-.1.1-.1 0 0 0-.1 0-.1.1 0 0-.1 0 0 .1-.1.1 0 0 0-.1.1-.1v-.1c0 .1 0 0 0 0 .1 0 0 0 0 0s-.1 0 0 0c0 0-.1-.1 0 0 0 0 0-.1 0 0 0-.1 0 0 0 0 0 .1-.1.1-.1.2.2.1.5.1.7.2 0-.1 0 0 0 0-.1 0 0 0 0 0h.1c.1 0 .1 0 .2.1h.1v-.1s0 .1 0 0c0 .1-.1.1-.1.1v.1c0-.1 0 0 0 0s-.1.1 0 0h-.1c.1 0 0 0 0 0s.1 0 0 0c0-.1 0 .1 0 0v-.1-.1c.1-.2 0-.4-.1-.5-.4 0-.6 0-.7.2z" />
		<path class="jeweler_2"
			d="M90.3 99.7c0-.1 0-.1 0 0 0 0 0-.1 0 0 0-.1 0-.1 0 0 0-.1 0-.1.1-.1-.1-.1-.1 0-.1.1.1-.1.1-.2.1-.2s-.1 0-.1.1l.1-.1h-.1.4c.2.1.4 0 .5-.1.1-.2 0-.4-.1-.5-.3-.2-.7-.2-1 0-.1.1-.3.2-.4.3-.1.1-.1.3-.2.5 0 .1 0 .2.1.3.1.1.2.1.3.1.1 0 .2 0 .3-.1 0-.2.1-.2.1-.3z" />
		<path class="jeweler_2"
			d="M89.7 99.9c-.3.3-.3.7-.1 1 .1.1.2.3.4.3.1.1.2.1.3.1h.3c.2 0 .3-.1.5-.2.1 0 .1-.1.2-.2v-.3c-.1-.1-.1-.2-.2-.2h-.3-.1.1c-.1 0-.2.1-.3.1h.1-.2.1s-.1 0-.1-.1c0 0 .1 0 .1.1 0 0-.1 0-.1-.1 0 0 0 .1.1.1 0 0 0-.1-.1-.1v.1s0-.1.1-.1c0 0 0 .1-.1.1.1-.1.1-.2.1-.3 0-.1 0-.2-.1-.3-.1-.1-.2-.1-.3-.1-.2 0-.4.1-.4.1zM91.3 100c.1-.1.1-.2.2-.3v-.1-.1s0-.1-.1-.1l-.1-.1H91h-.1c-.1 0-.1.1-.1.1-.1.1-.1.2-.2.3v.2s0 .1.1.1l.1.1h.4l.1-.1zM113.1 101.9c.1 0 .1-.1.2-.1h.1c.1 0-.1 0 0 0s.1 0 .2-.1h.2c-.1 0-.1 0 0 0H114.1c.1 0-.1-.1 0 0 0 0 0-.1 0 0v.1c0-.1 0-.1 0 0v.1c0 .1 0-.1 0 0v.1s0 .1 0 0c0 .1.1 0 0 0 0-.1.1 0 0 0s.1 0 0 0 .1 0 0 0c-.2 0-.4.2-.4.4s.2.4.4.4c.3 0 .5-.2.6-.4.1-.2.2-.5.1-.7-.2-.5-.7-.7-1.2-.6-.3 0-.6.2-.8.3-.2.1-.2.4-.1.5 0 0 .2.1.4 0zM92.8 106.8c.3 1 .6 1.9 1 2.9.3.7.7 1.4 1.5 1.8 1.9.9 3.5-1.2 4.6-2.4-.4-.1-.8-.1-1.2-.2 1 1.4 2.1 3.8 4.1 3.6 2-.2 3.1-2.6 4-4.1.5-.8-.8-1.6-1.3-.8-.4.7-.8 1.3-1.2 2-.4.6-.8 1.3-1.5 1.4-.7.1-1.1-.4-1.5-.9-.5-.6-.9-1.3-1.3-1.9-.3-.4-.8-.5-1.2-.2-.6.6-2 2.8-3 2-.4-.3-.6-.9-.8-1.4-.3-.7-.5-1.5-.8-2.2-.2-.9-1.7-.5-1.4.4zM118.2 106.2c3.1-.6 6.2-.7 9.3-.6 1 .1 1-1.4 0-1.5-3.2-.2-6.5 0-9.7.6-1 .2-.6 1.6.4 1.5zM119 108.7c2.4.4 4.7.8 7.1 1.1.4.1.8-.1.9-.5.1-.4-.1-.9-.5-.9-2.4-.4-4.7-.8-7.1-1.1-.4-.1-.8.1-.9.5-.1.4.1.9.5.9zM85.4 103.6c-3.3-1.4-6.7-2.5-10.2-3.1-.1.5-.1 1-.2 1.5h.3c.4.1.8-.4.8-.8s-.3-.7-.8-.8H75c-.8-.1-1 1.3-.2 1.5 3.4.6 6.7 1.6 9.8 2.9.4.2.8.1 1-.3.2-.2.1-.7-.2-.9zM83.6 106.1h-6.1c-1 0-1 1.5 0 1.5h6.1c1 0 1-1.5 0-1.5z" />
	</g>
	<g>
		<path class="jeweler_2"
			d="M110.6 23.7c1.5 3.3 2.9 6.7 4.4 10 .7 1.6 1.4 3.3 2.2 4.9.2.4 1 2.6 1.7 1.4.2-.4-.4-.8-.6-.4 0 0 0 .1-.1.1.1-.1.2-.1.3-.2-.3 0-.8-1.6-.9-1.9l-.9-2.1c-.6-1.3-1.2-2.7-1.8-4-1.2-2.7-2.4-5.5-3.6-8.2-.3-.4-.9 0-.7.4z" />
	</g>
	<g>
		<path class="jeweler_2"
			d="M112.2 20.5c2.2 6.2 4.1 12.6 7.2 18.4.2.4.9.1.6-.4-.1-.2-.2-.5-.3-.7-.2-.4-.9-.1-.6.4.1.2.2.5.3.7.2-.1.4-.3.6-.4-3-5.8-4.9-12.1-7.1-18.3-.1-.4-.9-.2-.7.3z" />
	</g>
	<g>
		<path class="jeweler_2"
			d="M114.6 18.5c1 6.6 3 13.1 5.8 19.2.2.4.8.1.7-.3-.1-.2-.1-.4-.2-.6-.2-.4-.9-.3-.7.2.1.2.1.4.2.6.2-.1.5-.2.7-.3-2.8-6-4.7-12.4-5.7-19-.2-.5-.9-.3-.8.2z" />
	</g>
	<g>
		<path class="jeweler_2"
			d="M117.6 17c1.2 6.6 2.4 13.1 3.7 19.6.1.5.8.3.7-.2-1.3-6.5-2.6-13.1-3.7-19.6-.1-.4-.8-.2-.7.2z" />
	</g>
	<g>
		<path class="jeweler_2"
			d="M120.3 14.9c.3 7.3 1 14.6 2 21.9.1.5.7.3.7-.1 0-.2 0-.5.1-.7 0-.5-.7-.5-.8 0 0 .2 0 .5-.1.7.2 0 .5-.1.7-.1-1-7.2-1.6-14.4-2-21.7.1-.5-.7-.5-.6 0z" />
	</g>
	<g>
		<path class="jeweler_2"
			d="M122.5 14.5c.6 7.1 1.2 14.2 1.7 21.3 0 .4.6.5.7.1 0-.1.1-.3.1-.4.1-.5-.6-.7-.7-.2 0 .1-.1.3-.1.4.2 0 .5.1.7.1-.5-7.1-1.1-14.2-1.7-21.3 0-.5-.7-.5-.7 0z" />
	</g>
	<g>
		<path class="jeweler_2"
			d="M125.2 15.1c.3 6.8.5 13.5.8 20.3 0 .4.7.5.7.1.1-.3.1-.6.2-.9.1-.5-.6-.7-.7-.2-.1.3-.1.6-.2.9.2 0 .5.1.7.1-.3-6.8-.5-13.5-.8-20.3.1-.5-.7-.5-.7 0z" />
	</g>
	<g>
		<path class="jeweler_2"
			d="M127.6 16.4c.2 5.4.4 10.8.5 16.2 0 .5.8.5.8 0-.1-5.4-.3-10.8-.5-16.2-.1-.5-.9-.5-.8 0z" />
	</g>
	<g>
		<path class="jeweler_2"
			d="M130.1 17.5c-.1 3.2 0 6.5.1 9.7 0 .8 0 1.6.1 2.4 0 .6-.1 1.4.1 2 .2.7 1.2.4.9-.3-.1-.2-.3-.2-.4-.2h-.1c-.5.1-.3.8.2.7h.1c-.1-.1-.3-.1-.4-.2 0-.1.1-.2.1-.3h.4c-.1-.1 0-1.6-.1-1.8 0-.6 0-1.1-.1-1.7 0-1.2-.1-2.3-.1-3.5v-6.9c0-.4-.8-.4-.8.1z" />
	</g>
	<g>
		<path class="jeweler_2" d="M132.3 19.7v10c0 .5.8.5.8 0v-10c0-.5-.8-.5-.8 0z" />
	</g>
	<g>
		<path class="jeweler_2"
			d="M109.3 27.4c2 4.5 4.3 8.9 6.8 13.1.2.4.9 0 .6-.4-2.6-4.2-4.8-8.6-6.8-13.1-.1-.4-.8 0-.6.4z" />
	</g>
	<g>
		<path class="jeweler_2"
			d="M107.3 30.8c2.6 3.5 5.4 6.9 8.4 10 .3.3.9-.2.5-.5-3-3.1-5.8-6.4-8.3-9.9-.3-.4-.9 0-.6.4z" />
	</g>
	<g>
		<path class="jeweler_2"
			d="M105.6 33c3.8 4.1 7.7 7.9 11.9 11.6.4.3.9-.2.5-.5-4.2-3.6-8.1-7.5-11.9-11.6-.3-.4-.8.1-.5.5z" />
	</g>
	<g>
		<path class="jeweler_2"
			d="M104.3 34.8c4.1 3.6 8.2 7.1 12.3 10.7.1-.2.2-.4.4-.6-.2-.1-.3-.1-.5-.2-.5-.2-.6.6-.2.7.2.1.3.1.5.2.3.1.6-.4.4-.6-4.1-3.5-8.2-7.1-12.3-10.7-.4-.4-.9.1-.6.5z" />
	</g>
	<g>
		<path class="jeweler_2"
			d="M102.8 36.5c1.9 1.7 3.7 3.3 5.7 4.9.9.8 1.9 1.5 2.8 2.3l1.5 1.2c.2.2.5.4.7.5.2.1.7.4.8.7 0-.1.1-.2.1-.4.1 0 .2 0 .3-.1.1.1.1.3.2.4v-.1c.1-.5-.6-.7-.7-.2v.1c0 .2 0 .3.2.4.3.2.7.1.7-.3.1-.5-.7-.9-1-1.2-1.2-.9-2.4-1.9-3.6-2.9-2.4-1.9-4.7-3.9-6.9-6-.6-.2-1.1.3-.8.7z" />
	</g>
	<g>
		<path class="jeweler_2"
			d="M100.2 36.4c3.7 3.7 7.5 7.3 11.5 10.7.4.3.9-.2.5-.5-4-3.4-7.8-6.9-11.5-10.7-.4-.4-.9.1-.5.5z" />
	</g>
	<g>
		<path class="jeweler_2"
			d="M99.8 37.8c1.5 1.7 3.1 3.4 4.6 5.1.7.8 1.5 1.6 2.2 2.4l1.1 1.1c.2.2 1 1 1.2.8-.4.3 0 .9.4.6 1-.6-.5-1.5-.9-1.9-.9-.8-1.8-1.8-2.6-2.8l-5.4-6c-.4-.2-.9.4-.6.7z" />
	</g>
	<g>
		<path class="jeweler_2"
			d="M98.2 38.5c3.2 3.8 6.6 7.4 10.1 10.9.3.3.9-.2.5-.5-3.6-3.4-6.9-7.1-10.1-10.9-.2-.4-.8.2-.5.5z" />
	</g>
	<g>
		<path class="jeweler_2"
			d="M98.1 41.1c2.9 3 5.9 5.8 9 8.5l.5-.5c-.1-.1-.2-.1-.3-.2-.4-.3-.9.2-.5.5.1.1.2.1.3.2.4.3.9-.2.5-.5-3.1-2.7-6.1-5.6-9-8.5-.4-.3-.9.2-.5.5z" />
	</g>
	<g>
		<path class="jeweler_2"
			d="M97.4 44.1c2.8 2.2 5.8 4.3 8.9 6.1.4.3.8-.4.4-.6-3-1.8-5.9-3.8-8.7-6-.5-.3-1 .2-.6.5z" />
	</g>
	<g>
		<path class="jeweler_2"
			d="M96.5 46.8c1.6.8 3.3 1.6 5 2.4.8.4 1.7.7 2.5 1.1.4.2.7.3 1.1.5.4.2.8.4 1.2.4.5 0 .5-.8 0-.8-.2 0-.5-.2-.7-.3-.2-.1-.3-.1-.5-.2-.4-.2-.8-.4-1.3-.5-.8-.3-1.6-.7-2.3-1-1.6-.7-3.1-1.5-4.6-2.2-.4-.3-.8.4-.4.6z" />
	</g>
	<g>
		<path class="jeweler_2"
			d="M97.4 49.3c1.5.4 2.9.7 4.4 1.1.7.2 1.5.4 2.2.5.3.1.7.2 1 .2.2 0 .3.1.5.1.1 0 .2.1.3.1.2 0 .2.1.1 0 0-.2 0-.3-.1-.5l.2-.2c.1 0 .2.1.4.1-.3-.4-.8.2-.5.5.1.1.2.1.4.1.1 0 .2-.1.3-.2.1-.2.1-.3-.1-.5s-.5-.2-.8-.3l-1.2-.3c-.8-.2-1.5-.4-2.3-.6-1.5-.4-3.1-.8-4.6-1.1-.5.2-.7.9-.2 1z" />
	</g>
	<g>
		<path class="jeweler_2"
			d="M98.8 51.8c1.2.3 2.5.4 3.8.5.6 0 1.2 0 1.9.1.3 0 .7.1 1 .1.2 0 .3 0 .5.1h.4c0-.1-.1-.2-.1-.4l.2-.2h.4c-.4-.2-.8.4-.4.6.1.1.3.1.4 0 .2-.1.3-.4.2-.6-.2-.3-.6-.3-.8-.3-.8-.1-1.5-.2-2.3-.2-1.6-.1-3.2-.1-4.7-.5-.8-.1-1 .6-.5.8z" />
	</g>
	<g>
		<path class="jeweler_2" d="M99.1 53.3c2.3-.1 4.5-.1 6.8 0 .5 0 .5-.7 0-.8h-6.8c-.5.1-.5.8 0 .8z" />
	</g>
</svg>