<svg xmlns="http://www.w3.org/2000/svg" viewBox="0 0 200 200">
	<style>
		.madness_0 {
			fill: #666
		}

		.madness_1 {
			fill: #e7f4df
		}

		.madness_5 {
			fill: #fc9
		}

		.madness_6 {
			fill: #ccc
		}

		.madness_7 {
			fill: none;
			stroke: #e7f4df;
			stroke-width: 2;
			stroke-miterlimit: 10
		}
	</style>
	<path class="madness_0"
		d="M63.8 155.3c-3.5-.6-5.9-2.6-8.1-5.3-2.2-2.7-4.1-5.7-6.8-8-2.6-2.3-6-3.7-9.5-4-1.9-.2-3.8-.1-5.5.7-3.4 1.4-5.4 5.2-5.4 8.8.1 3.6 2.1 7.1 4.9 9.4s4.6 3.3 8.8 4.6c-1.3.7-2.4 3.8-2.3 4.1.2.6 1.6-.2 2.2-.3 4-.6 7.9 1.2 11.7 2.5 3.8 1.2 7.1.5 11-.6" />
	<path class="madness_1"
		d="M64.2 153.9c-5-1-7.6-5.1-10.6-8.9-3.2-4.1-7.3-7.3-12.6-8.2-4.9-.9-9.9.4-12.5 4.9-2.4 4.2-1.8 9.3.9 13.1 2.9 4.2 7.6 6.6 12.3 8.1-.1-.9-.2-1.8-.4-2.7-1.5 1-3 3.5-3 5.3 0 1.3 1.2 1.9 2.4 1.7.5-.1 1-.4 1.5-.5.8-.2 1.6-.1 2.4-.1 3.5.3 6.6 2.1 10 2.9 3.5.8 7 0 10.4-1 1.8-.5 1.1-3.4-.8-2.9-2.1.6-4.3 1.2-6.6 1.2-2.2 0-4.2-.8-6.3-1.6-2-.7-4.1-1.4-6.2-1.6-1-.1-2-.1-3.1 0-.4.1-.7.1-1.1.3-.2.1-.4.1-.5.2-.3.1-.3.1-.1.1.3.2.6.5.9.7.2.3-.1 1.1.2.4.1-.3.2-.6.4-.9.3-.6.6-1.3 1.1-1.7 1.1-.7.9-2.4-.4-2.7-3.6-1.1-7.1-2.8-9.7-5.7-2.7-3-3.9-7.5-1.8-11.2 2.3-4 7.1-4.3 11.1-3.1 4.6 1.4 7.6 4.8 10.4 8.5 2.8 3.7 5.9 7.2 10.7 8.1 2.1.5 2.9-2.4 1-2.7z" />
	<path class="madness_1"
		d="M34.8 138.7c-1 3.4-1.4 7-1.2 10.5.1 1.7.3 3.5.6 5.2.2.9.3 1.8.7 2.6.2.4.4.7.8.6.5 0 .5-.8 0-.8-.4 0-1-4-1-4.4-.2-1.5-.3-3.1-.3-4.7 0-3 .4-6.1 1.3-9 0-.2-.7-.4-.9 0zM38.8 138.1c-.7 1.1-.6 2.7-.6 4-.1 2.4.1 4.8.4 7.1.2 2.4.6 4.7 1.1 7.1.2.9.4 1.9.8 2.8.2.5.4 1.5 1 1.7.2.1.3 0 .4-.2.1-.1.1-.3.1-.4 0-.2-.2-.3-.4-.3h-.1c-.5 0-.5.8 0 .8h.1c-.1-.1-.2-.2-.4-.3v-.1c.1-.1.3-.1.4-.2-.3-.1-.6-1.5-.7-1.8-.3-.9-.5-1.8-.7-2.7-.5-2.3-.8-4.5-1-6.8-.2-2.1-.3-4.2-.3-6.3 0-1.2-.1-2.9.5-3.9.3-.6-.3-.9-.6-.5z" />
	<path class="madness_1"
		d="M37 138.7c-.9 1.3-.9 3.1-1 4.7-.1 1.9-.1 3.9.1 5.8.1 1.8.4 3.7.7 5.5.2 1 .4 2 .7 2.9.2.5.3 1.4.7 1.8.1.1.3.1.5.1 0 0 .1 0 .1-.1.1 0 .2-.2.2-.3v-.1c0-.5-.8-.5-.8 0 0-.1.1-.1.1-.2.2 0 .3 0 .5.1-.5-.4-.7-2-.8-2.6-.2-.7-.4-1.5-.5-2.2-.3-1.8-.6-3.5-.7-5.3-.1-1.6-.1-3.3-.1-4.9 0-1.6-.1-3.5.9-4.8.3-.4-.3-.8-.6-.4zM40.5 138.1c-.7 6.1.3 12.5 1.4 18.6.1.7.3 1.4.4 2.1.1.4.2.8.2 1.2 0 .2.1.5.1.7.1 0 .1.1.2.1 0 .1-.1.3-.1.4 0 .2.1.5.1.7.1.6.4 2.7 1.1 2.9.5.1.7-.6.2-.7.3.1.1 0 0-.4-.1-.3-.2-.6-.3-.8-.2-.6-.3-1.2-.4-1.7 0-.2 0 .3-.1.1 0-.1.1-.1.1-.2l-.3-1.5c-.3-1.4-.6-2.8-.8-4.2-.9-5.6-1.8-11.5-1.2-17.2.2-.5-.6-.5-.6-.1zM42.3 139.9c-.5 4.4.6 8.8 1.4 13 .8 4.4 1.7 8.8 3.5 13 .1.3.6.4.7 0 0-.1.1-.3.1-.4.1-.5-.6-.7-.7-.2 0 .1-.1.3-.1.4h.7c-1.7-4-2.6-8.3-3.4-12.5-.8-4.4-2-8.8-1.4-13.3 0-.4-.7-.4-.8 0zM44.2 140c.3 4.9.9 9.9 1.9 14.7.5 2.4 1 4.8 1.7 7.2.3 1 .7 2 1.1 3 .2.5.4 1.4 1 1.6.2.1.3 0 .4-.2.1-.2.1-.3 0-.5-.1-.1-.3-.2-.4-.2h-.1c-.5.1-.3.8.2.7h.1c-.1-.1-.3-.1-.4-.2v-.2c.1-.1.3-.1.4-.2-.2-.1-.7-1.5-.7-1.5-.2-.4-.3-.8-.5-1.2l-.9-3c-.6-2.1-1-4.3-1.4-6.4-.9-4.5-1.4-9-1.7-13.6 0-.4-.7-.4-.7 0zM46.7 141.1c.2 9 2.8 17.6 5.4 26.2.1.3.5.4.7.1.1-.2.2-.3.2-.5.2-.4-.4-.8-.6-.4-.1.2-.2.3-.2.5.2 0 .5.1.7.1-2.6-8.5-5.1-17.1-5.4-26-.1-.4-.8-.5-.8 0zM48.8 143.6c.2 4.3 1.3 8.6 2.4 12.7l1.8 6.3c.5 1.9 1 3.8 2.1 5.5.2.3.6.2.7-.1.1-.2.1-.3.2-.5.2-.5-.6-.6-.7-.2-.1.2-.1.3-.2.5.2 0 .5-.1.7-.1-1.1-1.8-1.6-3.8-2.1-5.8-.5-1.9-1.1-3.9-1.7-5.8-1.2-4.1-2.2-8.2-2.4-12.5-.1-.5-.8-.5-.8 0z" />
	<path class="madness_1"
		d="M51.3 146.2c.5 4.1 1 8.1 1.9 12.1.4 2 1 3.9 1.7 5.8.3.9.7 1.8 1 2.6.2.6.4 1.2 1 1.5.2.1.3 0 .4-.2.1-.2.1-.3.1-.5-.1-.2-.2-.3-.5-.3h-.1c-.5.1-.3.8.2.7h.1c-.2-.1-.3-.2-.5-.3v-.1c.1-.1.3-.1.4-.2-.2-.1-.6-1.3-.6-1.4-.1-.4-.3-.7-.4-1.1-.3-.9-.7-1.7-.9-2.6-.5-1.7-1-3.4-1.3-5.1-.8-3.7-1.2-7.4-1.7-11.1-.1-.3-.8-.3-.8.2z" />
	<path class="madness_1"
		d="M53.9 149.3c.4 3.6.7 7.3 1.5 10.9.4 1.6.8 3.1 1.5 4.5.4.8.8 1.6 1.3 2.3.3.4.5.9 1.1 1 .2 0 .3-.1.4-.3.1-.2 0-.3-.1-.5-.1-.1-.3-.1-.5-.1-.4.2 0 .9.4.6-.2 0-.3 0-.5-.1v.1c0-.1-.1-.2-.1-.4v.1c.1-.1.2-.2.4-.3.2.1.1-.1-.2-.4-.1-.2-.2-.3-.3-.5-.2-.3-.4-.7-.6-1-.4-.6-.7-1.3-1-2-.5-1.4-.9-2.8-1.2-4.3-.7-3.2-1-6.5-1.3-9.8-.1-.3-.9-.3-.8.2z" />
	<path class="madness_1"
		d="M55.8 151.6c.6 3 .7 6 1.5 8.9.7 2.6 1.8 5.1 3.4 7.3.3.4.9 0 .6-.4-1.5-2.3-2.7-4.8-3.4-7.4-.7-2.8-.8-5.8-1.4-8.7 0-.4-.8-.2-.7.3z" />
	<path class="madness_1"
		d="M57.4 153c.4 2.5.6 5.1 1.2 7.6.5 2.2 1.3 4.3 2.6 6.2.3.4.9 0 .6-.4-1.3-1.9-2.1-4-2.6-6.2-.5-2.4-.7-4.9-1.1-7.4 0-.5-.7-.3-.7.2z" />
	<path class="madness_1"
		d="M60.2 155c0 2.6 0 5.3.4 7.8.2 1.3.5 2.5 1 3.8.1.3.3.9.7 1 .3.1.6-.2.6-.5 0-.5-.8-.5-.8 0 .3-.1.4-.3.2-.6-.1-.1-.1-.3-.2-.4-.1-.2-.1-.4-.2-.6-.2-.5-.3-1-.4-1.5-.2-1-.4-2-.5-3-.2-2-.2-4-.2-6 .1-.5-.6-.5-.6 0z" />
	<path class="madness_1"
		d="M62.3 155.7c0 2.1-.1 4.2-.1 6.3 0 1 .1 2 .2 3 .1.5.2.9.3 1.4.1.3.1.8.5.9.1.1.3.1.5-.1.1-.1.2-.3.1-.4 0-.2-.2-.3-.4-.3-.5 0-.5.7 0 .8-.1-.1-.2-.2-.4-.3v.1c0-.1.1-.2.1-.4.2 0 .3 0 .5-.1 0 0-.1-.5-.1-.6-.1-.2-.1-.5-.2-.7-.1-.4-.2-.9-.2-1.3-.1-.9-.1-1.9-.1-2.8 0-1.8.1-3.7.1-5.5 0-.5-.8-.5-.8 0zM33.1 139.5c-1.7 4.9-2.3 10.2-1.7 15.4 0 .3.2.4.5.4.2 0 .5-.1.7-.1.5-.1.3-.8-.2-.7-.2 0-.5.1-.7.1.2.1.3.2.5.4-.6-5.1 0-10.3 1.6-15.2.1-.6-.6-.8-.7-.3z" />
	<path class="madness_0"
		d="M156 118.9c0-1.2-.6-2.3-1.5-3.1-1-.8-2.2-.8-3.4-.8-1.8.1-3.6.2-5.3.4v-.2c-1.2-3.9-3.2-7.5-5-11.1.4-2.8.8-5.5.9-8.3.1-3.1.5-6.9-1.3-9.6-.8-1.1-1.9-2-3.3-2.3-1.7-.4-3.4.3-4.8 1.2-2.9 1.7-5.7 3.8-8.3 6-14-5.4-30-5-43.6 1.2-1.3-.9-2.6-1.8-4.1-2.6-1.4-.8-3-1.5-4.5-2.1-1.6-.7-3.5-1.2-5.2-.5-1.1.5-2 1.4-2.3 2.6-.1.6-.1 1.2-.1 1.8-.1 2.4-.1 4.7 0 7.1.1 1.8.2 3.6.5 5.4-.1.1-.2.2-.2.3-2.6 5-6 9.8-7.4 15.3-.2.1-1.2 0-1.4 0-.6 0-1.3 0-1.9.1-1.3.2-2.7.5-3.9 1-2.4 1-4.5 2.7-4.2 5.6.3 2.5 2.1 4.7 3.7 6.6 1.7 2.1 3.5 4.1 4.8 6.5.1.3.3.5.6.6.2 12.6 1.6 26.2 10.4 35.9 0 .2-.1.5-.2.7-.3 1.4-.7 2.8-.8 4.3-.1 1.5-.2 3.2.2 4.6.3 1.5 1.5 2.2 3 2.3 3 .3 5.8-1.1 8.2-2.8.8-.5 1.5-1.1 2.2-1.7 14.7 4.7 32.3 6.7 46.3-1 .1 0 .2-.1.4-.2.7-.5 1.8-.3 2.6-.2 1.1.2 2.1.8 3.2 1.3 2.5 1.2 5.6 3.1 8.3 1.6 2.5-1.4 3-4.7 2.6-7.3-.1-.9-.3-1.7-.6-2.6 1.8-2.5 3.8-4.8 5.3-7.5 1.7-3 3-6.3 4.1-9.6 1.9-5.6 2.9-11.4 2.1-17.2-.4-3.1-1.2-6.2-2.3-9.1 1.4-1.8 2.7-3.6 3.9-5.6 1-1.9 2.4-4.5 2.3-7z" />
	<path class="madness_1"
		d="M77.2 183.6c14.8 4.8 32.9 6.8 47-1.1 1.7-.9.2-3.5-1.5-2.6-13.4 7.5-30.7 5.4-44.7.8-1.9-.6-2.7 2.3-.8 2.9z" />
	<path class="madness_1"
		d="M64.9 172.6c.2.4.1 1.3.1 1.7-.1.7-.2 1.4-.4 2.1-.3 1.5-.7 3.1-.9 4.6-.1 1.4-.2 3.2.2 4.6.4 1.6 1.7 2.2 3.2 2.4 3 .3 5.8-1.1 8.1-2.7 2.5-1.8 4.9-3.9 7-6.2 1.3-1.4-.8-3.5-2.1-2.1-1.8 2-3.8 3.8-5.9 5.4-1.9 1.4-4.3 3-6.8 2.7-.2 0-.4 0-.5-.1-.1 0 0 .3-.1-.2-.1-.6-.1-1.2-.1-1.9 0-1.3.1-2.6.4-3.9.3-1.3.6-2.6.8-4 .2-1.2.4-2.9-.4-4-.5-.7-1.3-1-2.1-.5-.6.5-1 1.5-.5 2.1zM124.1 182.5c.6-.4 1.5-.4 2.3-.3 1.2.2 1.9.6 3 1.1 2.4 1.2 5.3 3.1 8.2 2.1 3.1-1 3.9-4.6 3.5-7.5-.4-3.2-1.7-6.3-2.7-9.3-.6-1.8-3.5-1-2.9.8.5 1.5.9 2.9 1.4 4.4.4 1.4.9 2.8 1.2 4.3.3 1.9-.1 5-2.7 4.5-2.5-.4-4.5-2.2-6.8-3-1.7-.6-4.4-1-6 .2-.6.5-1 1.3-.5 2.1.4.7 1.4 1.1 2 .6z" />
	<path class="madness_1"
		d="M140.2 175.6c1.2-1.8 2.6-3.4 3.9-5.2 1.3-1.8 2.3-3.7 3.3-5.8 1.7-3.8 3.2-7.6 4.1-11.6 1.7-7.4.9-14.8-1.8-21.9-.7-1.8-3.6-1-2.9.8 2.6 6.7 3.4 13.6 1.8 20.7-.9 3.9-2.4 7.8-4.1 11.4-1.7 3.7-4.4 6.7-6.7 10-1.3 1.7 1.3 3.2 2.4 1.6z" />
	<path class="madness_1"
		d="M149.2 132.6c1.6-2 3.2-4.1 4.5-6.4.6-1.1 1.2-2.2 1.7-3.4.5-1.3 1-2.6.9-4-.1-1.3-.7-2.5-1.7-3.2-1.1-.7-2.4-.8-3.6-.7-2.9.1-5.7.4-8.5.8-.8.1-1.2 1.1-1 1.8.2.9 1 1.2 1.8 1 2.3-.3 4.6-.6 6.9-.7.7 0 2.1-.3 2.8.1.5.4.5 1.2.4 1.8-.4 2-1.4 3.9-2.5 5.6-1.1 1.8-2.3 3.4-3.6 5.1-.5.6-.6 1.5 0 2.1.3.6 1.4.7 1.9.1zM67.1 174.2c-8.9-9.8-9.7-23.8-9.8-36.4 0-1.9-3-1.9-3 0 .1 13.5 1.2 28.1 10.7 38.6 1.3 1.4 3.4-.7 2.1-2.2z" />
	<path class="madness_1"
		d="M56.5 138.2c-1.2-2.1-2.7-4-4.2-5.9-1.4-1.7-3.3-3.6-3.9-5.8-.6-2.4 2.4-3.3 4.2-3.7 1.1-.3 2.3-.3 3.4-.3s2.2-.1 3-.9c1.3-1.4-.8-3.5-2.1-2.1-.2.2-1 0-1.2 0-.6 0-1.3 0-1.9.1-1.4.2-2.7.5-4 1-2.5 1-4.8 2.8-4.5 5.8.3 2.7 2.2 4.9 3.8 6.9 1.7 2.1 3.5 4.1 4.8 6.5.9 1.6 3.5.1 2.6-1.6z" />
	<path class="madness_1"
		d="M59 123.8c.5-6.7 4.7-12.3 7.8-18.1.9-1.7-1.7-3.2-2.6-1.5-3.3 6.3-7.6 12.3-8.2 19.6-.1 1.9 2.9 1.9 3 0zM146 115.3c-1.3-4.1-3.4-7.9-5.3-11.7-.4-.7-1.4-.9-2.1-.5-.7.4-.9 1.3-.5 2.1 1.8 3.6 3.8 7.1 5 11 .2.8 1 1.3 1.8 1 .8-.3 1.3-1.1 1.1-1.9zM81.4 94.8c13.1-5.9 28.3-6.2 41.7-1 1.8.7 2.6-2.2.8-2.9-14.1-5.5-30.2-4.9-44 1.3-1.7.8-.2 3.4 1.5 2.6z" />
	<path class="madness_1"
		d="M67.9 105.9c-.7-1.9-.8-3.9-1-5.9-.1-2.2-.2-4.5-.1-6.7 0-.8 0-1.6.1-2.4 0-.2 0-.5.1-.7 0-.1.1-.3 0-.1-.2.4 0 0 0 0 .4-.2.5-.5 1-.6.8-.1 1.6.2 2.3.5 1.4.5 2.7 1.2 4.1 1.8 2.9 1.5 5.4 3.4 7.8 5.6 1.4 1.3 3.5-.8 2.1-2.1-2.4-2.2-5-4.2-7.9-5.8-1.5-.8-3.1-1.5-4.7-2.2-1.7-.7-3.6-1.2-5.4-.4-1.1.5-2 1.4-2.2 2.6-.1.7-.1 1.5-.2 2.2-.1 2.3-.1 4.6 0 6.9.1 2.7.2 5.6 1.1 8.1.7 1.8 3.6 1 2.9-.8zM140.9 104.3c.4-2.9.8-5.8 1-8.7.1-3.1.5-6.9-1.4-9.5-.9-1.2-2.1-2.2-3.6-2.4-1.8-.3-3.5.4-5 1.3-3.1 1.9-5.9 4.1-8.7 6.4-1 .8-.2 2.6 1.1 2.6.7 0 1.2-.2 1.7-.7 1.4-1.4-.8-3.5-2.1-2.1h-.1c.3-.1.5-.1.8-.2h-.2c.4.9.7 1.7 1.1 2.6 2.4-1.9 4.8-3.8 7.4-5.4 1-.7 2.4-1.7 3.7-1.5 1.1.2 1.8 1.2 2.1 2.2.5 1.3.4 2.8.4 4.1 0 1.3 0 2.6-.1 3.9-.2 2.5-.6 5.1-.9 7.6-.1.8.8 1.5 1.5 1.5.7-.2 1.2-.9 1.3-1.7z" />
	<path class="madness_1"
		d="M123.7 93.7c.8 1.4 1.4 3.1 2.9 3.9 2.2 1.1 4.8-.3 6-2.2.6-1 1.2-2 2-3 .4-.5 1.3-2 2-1.9.9.1.4 2.3.4 2.9 0 1.4 0 2.8.1 4.2 0 1.5.1 2.9.4 4.4.2 1.1.6 2.3 1.4 3 .7.6 1.8-.4 1.1-1.1-.7-.6-.9-1.7-1.1-2.6-.2-1.3-.3-2.6-.3-3.9 0-1.4-.1-2.8-.1-4.2 0-1 .3-2.2-.2-3.2-.5-.9-1.7-1.2-2.6-.8-1 .5-1.6 1.4-2.3 2.3-.7.9-1.3 1.9-1.9 2.9-.7 1.2-1.6 2-3 2.1-2 .2-2.7-2.1-3.4-3.5-.6-.9-1.9-.1-1.4.7zM83 96.3c-.8.5-1.3 1.2-2 1.7-.9.7-2 .1-2.8-.5-2-1.3-3.9-2.9-6-4.2-1.2-.8-3.3-1.8-4.3-.2-.9 1.3-.5 3.3-.6 4.9-.2 2.7-.8 5.4-.9 8.1 0 1 1.5 1 1.5 0 .1-2.9.8-5.7 1-8.5.1-1-.1-2 .1-3 .2-1.2 1.2-.7 2-.2 2.5 1.4 4.5 3.4 7 4.8 1 .5 2.2 1 3.2.5s1.6-1.5 2.5-2c.9-.6.2-1.9-.7-1.4z" />
	<path class="madness_1"
		d="M69.5 92.4c-.9-1.1-1.5-2.4-1.8-3.8 0-.2-.3-.3-.5-.3-.2.1-.3.3-.3.5.3 1.5 1 2.9 2 4.1.1.2.4.1.5 0 .2-.1.2-.3.1-.5zM71.2 93.3c-.5-1.6-1-3.2-1.5-4.7-.1-.5-.9-.3-.7.2.5 1.6 1 3.2 1.5 4.7.1.5.8.3.7-.2zM72.8 93.9c-.5-1.3-.7-2.7-.7-4.1 0-.5-.8-.5-.8 0 0 1.5.3 2.9.8 4.3.2.5.9.3.7-.2zM74.5 95.4c-.4-1.6-.7-3.3-.8-5 0-.5-.8-.5-.8 0 .1 1.8.4 3.5.8 5.2.2.5.9.3.8-.2zM76.1 96.6c-.4-1.6-.6-3.2-.4-4.8 0-.2-.2-.4-.4-.4s-.4.2-.4.4c-.2 1.7-.1 3.4.4 5 .2.5.9.3.8-.2zM77.6 97.6c-.4-1.4-.4-2.9-.1-4.4.1-.5-.6-.7-.7-.2-.3 1.6-.3 3.2.1 4.8.1.4.8.2.7-.2zM78.9 98.6c-.2-1.4-.1-2.7.3-4.1.1-.5-.6-.7-.7-.2-.4 1.4-.5 2.9-.3 4.3 0 .2.2.4.4.4.1 0 .3-.2.3-.4zM80 98.7c0-1.3.2-2.7.6-3.9.2-.5-.6-.7-.7-.2-.5 1.3-.7 2.7-.7 4.1.1.4.8.4.8 0zM68.4 94c-1-1-2-2-3-3.1-.3-.3-.9.2-.5.5 1 1 2 2 3 3.1.3.4.9-.1.5-.5zM68.1 96.3c-.1 0-.1-.1-.1-.1l-.1-.1c-.1-.1-.2-.2-.3-.2-.2-.2-.4-.3-.6-.5-.4-.3-.7-.7-1-1.1-.1-.1-.4-.1-.5 0-.1.2-.1.4 0 .5.7.8 1.4 1.5 2.3 2.1.2.1.4 0 .5-.1.1-.2 0-.4-.2-.5zM68.4 98.8c-.7-.7-1.5-1.4-2.2-2.1-.1-.1-.4-.2-.5 0-.1.1-.2.4 0 .5.7.7 1.5 1.4 2.2 2.1.1.1.4.2.5 0 .2-.1.2-.4 0-.5zM68 100.6c-1.2-.7-2.2-1.6-3.2-2.5-.4-.3-.9.2-.5.5 1.1 1 2.2 1.8 3.4 2.6.3.3.7-.4.3-.6zM137.1 90c.4-1.7.6-3.5.5-5.2 0-.5-.8-.5-.8 0 .1 1.7-.1 3.4-.5 5 0 .4.7.6.8.2zM136.1 90.3c-.1-1.5-.2-3-.3-4.6 0-.5-.8-.5-.8 0 .1 1.5.2 3 .3 4.6.1.4.8.4.8 0zM134.9 91c0-1.8-.3-3.5-.8-5.2-.1-.5-.9-.3-.7.2.5 1.6.7 3.3.8 5 0 .5.7.5.7 0zM133.7 92.3c-.2-1.8-.5-3.5-.9-5.2-.1-.5-.8-.3-.7.2.4 1.7.7 3.3.9 5 0 .2.2.4.4.4.1 0 .3-.2.3-.4zM132.8 94c-.4-2-.8-4-1.4-6-.1-.5-.8-.3-.7.2.5 2 1 4 1.4 6 .1.5.8.3.7-.2zM132 95.5c-.6-2.2-1.2-4.4-1.8-6.5-.1-.5-.9-.3-.7.2.6 2.2 1.2 4.4 1.8 6.5.1.4.8.2.7-.2zM131 96c-.5-1.8-1.1-3.6-1.6-5.4-.1-.5-.9-.3-.7.2.5 1.8 1.1 3.6 1.6 5.4.1.5.8.3.7-.2zM129.4 96.4c-.7-1.6-1.3-3.3-1.7-5-.1-.5-.9-.3-.7.2.5 1.7 1.1 3.5 1.8 5.1.1.2.4.2.5.1.2 0 .2-.2.1-.4zM127.4 95.8c-.7-.9-1-2-1-3.1 0-.5-.7-.5-.8 0 0 1.2.4 2.5 1.1 3.5.1.2.3.2.5.1.2 0 .3-.3.2-.5zM138.3 91.4l.9-2.1c.1-.2-.1-.4-.3-.5-.2 0-.4.1-.5.3l-.9 2.1c-.1.2.1.4.3.5.2 0 .4-.1.5-.3zM138.3 93.8l.3-.6c.1-.2.3-.5.4-.7.1-.1.1-.1.2-.3l.3-.3c.2-.2.4-.4.6-.5.2-.1.1-.4 0-.5-.2-.2-.4-.1-.5 0-.9.7-1.5 1.7-1.9 2.7-.1.2.1.4.3.5 0 0 .2-.1.3-.3zM138.4 97.2c.2-1.1.8-2.2 1.7-2.8.2-.1.2-.3.1-.5s-.3-.3-.5-.1c-1.1.8-1.8 2-2.1 3.3 0 .2.1.4.3.5.2-.1.5-.2.5-.4zM138.6 99.7c.5-1.1 1.2-2.2 2-3.3.1-.2 0-.4-.1-.5-.2-.1-.4 0-.5.1-.8 1-1.4 2.1-2 3.3-.1.2-.1.4.1.5.2.1.5.1.5-.1zM81.2 98.3c.1-.9.4-1.8.7-2.7.1-.2-.1-.4-.3-.5-.2-.1-.4.1-.5.3-.3.9-.5 1.8-.7 2.7 0 .2 0 .4.3.5.2 0 .4-.1.5-.3z" />
	<g>
		<path class="madness_1"
			d="M114.7 118.5c-.2-.2-.4-.3-.7-.3-.2.1-.4.3-.5.5-.1.2-.2.5 0 .7.2.2.4.3.7.3.6-.1.8-.6.8-1.1 0-.4-.1-1-.7-1 .1.2.1.5.2.7.3-.2.6-.4.9-.4h.2s.1.1 0 .1c0 .1.1.2.1.2v.3s-.1 0 0 0h-.1c.1 0 0 0 0 0s-.1 0-.1-.1l-.1-.1v-.1-.1c-.2 0-.5.1-.7.1.1.2.1.5.2.7.1.2.1.4.3.6.2.2.4.2.7.2.2 0 .4-.2.5-.4 0-.2-.1-.5-.4-.5-.4 0-1.1.1-1.2.6 0 .2.1.5.3.6.2.1.4.1.7.1.4 0 .9-.2 1-.6.1-.4-.1-.9-.5-1.1-.2-.1-.5-.2-.7-.2-.6.3-.7.2-.9.3 0 0-.1 0-.1.1l-.1.1h-.1H114.7c.1 0 .1.1.2.1 0 0 0 .4.1.2 0 0 0-.1.1-.2v-.3c0-.2-.2-.3-.3-.4-.1-.1-.3-.1-.4-.1-.2 0-.3.1-.5.1.1.2.2.3.4.5 0-.2.1-.3.1-.5 0-.1.1-.2.2-.3l.1-.1h.2c.1 0 .2.1.3.2.2.1.4.1.5 0 .1-.1.2-.4 0-.5-.2-.2-.4-.3-.6-.4-.3-.1-.6 0-.8.1-.5.3-.6.8-.7 1.3 0 .3.1.4.4.5h.5s-.2-.2-.1-.2c0 0-.1.1-.1.2 0 .2 0 .4.1.5.1.1.3.2.4.1.1 0 .1-.1.2-.1 0 0-.1 0 0 0s.4 0 .6.1h.1s.1 0 0 0l.1.1v.1s0 .1 0 0h-.1-.1-.2H115.1c0 .1 0 .2-.1.2H115.6c-.1-.2-.2-.3-.4-.5l.1-.1s.1 0 0 0c0-.1 0-.1-.1-.1-.1-.3-.1-.6-.2-.9 0-.2-.2-.3-.4-.3s-.3.2-.3.4c.1.5.5 1 1 1 .6 0 1-.5 1-1s-.3-1.1-.8-1.2c-.5-.1-1.1.2-1.5.5-.1.1-.2.3-.2.4 0 .2.2.3.4.3-.1 0-.1 0-.1-.1v.6c-.1.1.1 0 0 0v.1l.1-.1c-.1 0-.1 0-.2-.1.1.2.3.2.5.1.2 0 .3-.3.2-.4z" />
	</g>
	<g>
		<path class="madness_1"
			d="M85.2 118.9c-.2.3-.3.8 0 1.1.3.4.8.4 1.2.2.2-.1.3-.3.4-.5.1-.2.2-.4.2-.6 0-.5-.5-.7-1-.8-.3 0-.6 0-.8.2-.2.2-.3.5-.2.7.1.3.5.4.7.1.2-.4.3-.9 0-1.3s-.9-.3-1.2.1c-.1.2-.2.4-.2.6-.1.3-.1.5.1.7.2.3.6.5 1 .5.5 0 .9-.3 1.1-.7.1-.1.1-.3 0-.4-.1-.1-.2-.2-.4-.1-.3.1-.6.3-.8.5-.1.2 0 .4.1.5.2.1.3.1.5 0 .3-.3.5-.7.5-1.1 0-.2 0-.4-.1-.6-.1-.2-.1.2-.1.2s.1 0 0 0c.1 0 .1 0 .2.1.1 0 .1.1.2.1 0 0 .1 0 .1.1 0 0 .1.1.1 0 0 0 .1 0 .1.1-.1-.1.1.1 0 0-.1.1-.2.3-.3.4 0 0-.1 0-.1.1.1 0-.1 0 0 0 0 0-.1 0 0 0 0 .2 0 .3.1.5 0 0 0-.1 0 0h.2c-.1 0 0 0 0 0s.1 0 0 0h.1s0 .1 0 0c0 0 0 .1 0 0v.1s0 .1 0 0v.1c0 .1 0-.1 0 0v.1s-.1.1 0 0h-.1-.1-.1-.1s-.1-.1 0 0c0 0 0-.1-.1-.1-.1-.2-.3-.2-.5-.1s-.2.3-.1.5c.2.4.7.7 1.2.6.5-.1.8-.5.8-.9.1-.4-.2-.9-.6-1-.4-.1-.9 0-1.1.4-.1.2-.1.3.1.5.4.4.9.2 1.3-.1.4-.3.7-.8.5-1.3-.2-.4-.7-.6-1-.7-.3-.1-.5-.1-.8.1-.1.1-.2.2-.2.3v.9c0 .1 0 .1-.1.2v.1c0 .1 0 0 0 0l-.1.1c.2.2.4.3.6.5.1-.1.2-.2.4-.2-.1-.2-.3-.4-.4-.6-.1.1-.1.2-.2.2s-.1.1-.1.1H86s-.1 0 0 0h-.2c.1 0 0 0 0 0h-.1c0 .1 0 0 0 0 0-.1 0-.3.1-.4 0 0 0-.1.1-.1 0 0 0 .1 0 0 0 .1-.1.3-.1.4.2 0 .5.1.7.1 0 0 0 .1 0 0 0 0 .1 0 0 0h.5s0-.1 0 0v.1c0 .1 0 .1-.1.1-.1.1-.1.2-.2.2 0 0-.1 0 0 0 0 0-.1 0 0 0 0 0 0-.1 0 0v-.1-.1s0-.1 0 0v-.1-.1c0-.1 0 0 0 0 .1-.2.1-.4-.1-.5-1.1-.2-1.3-.1-1.4 0z" />
	</g>
	<g>
		<path class="madness_1"
			d="M85.3 118.5v-.1-.1.1c0-.1.1-.1.1-.2 0 0 0 .1-.1.1 0-.1.1-.1.1-.1s-.1 0-.1.1c.1 0 .1-.1.2-.1h-.1c.1 0 .1 0 .2-.1h-.1.1c.1 0 .1 0 .2.1h-.1c.1 0 .2.1.3 0 .1 0 .2-.1.2-.2.1-.2.1-.4-.1-.5-.2-.1-.4-.1-.6-.1-.2 0-.4.1-.6.2-.3.2-.5.6-.5 1 0 .2.2.4.4.4.4-.1.5-.3.5-.5z" />
	</g>
	<g>
		<path class="madness_1"
			d="M84.8 119c-.2.3-.2.8 0 1.1.1.2.3.3.5.4.2.1.4.1.7 0 .2 0 .4-.2.6-.3.2-.1.2-.3.1-.5s-.3-.2-.5-.1c-.1.1-.2.1-.3.2h.1c-.1 0-.2.1-.3.1h.1-.2.1-.2.1s-.1 0-.1-.1c-.1 0 .1.1 0 0 .1.1 0 .1 0 0 0 0 0-.1-.1-.1v-.1-.1.1s0-.1.1-.1c.1-.1.1-.2 0-.3 0-.1-.1-.2-.2-.2s-.2-.1-.3 0c-.1-.1-.2-.1-.2 0z" />
	</g>
	<g>
		<path class="madness_1"
			d="M86.6 118.8c.1-.1.1-.2.2-.4v-.1-.1s0-.1-.1-.1l-.1-.1H86.3h-.1c-.1 0-.1.1-.1.1-.1.1-.1.2-.2.4v.2s0 .1.1.1l.1.1h.4l.1-.1z" />
	</g>
	<g>
		<path class="madness_1"
			d="M114.4 118.3c.1-.1.3-.2.4-.2h.1s.1 0 0 0c.1 0 .1-.1.2-.1h.1c.1 0-.1 0 0 0h.2c.1 0-.1 0 0 0h.2s-.1 0 0 0h.1s.1 0 .1.1 0-.1 0 0v.1c0 .1 0-.1 0 0v.1c0 .1 0-.1 0 0v.1s0-.1 0 0v.1s0-.1 0 0c-.1.1.1 0 0 0h-.1c-.2 0-.3.3-.3.5.1.2.3.3.5.3.6-.1.8-.8.6-1.3-.3-.5-.9-.7-1.5-.6-.3.1-.6.3-.9.4-.2.1-.2.3-.1.5 0 0 .2.1.4 0z" />
	</g>
	<g>
		<path class="madness_1"
			d="M89.8 127.1c.5 1.2 1 2.4 1.6 3.5.5.8 1.2 1.7 2.2 1.9 2.4.6 3.9-2.2 5.1-3.8-.4.1-.8.1-1.2.2 1.3 1.6 3 4.4 5.4 3.9 2.4-.5 3.4-3.6 4.3-5.5.4-.9-.9-1.6-1.3-.8-.5.9-.9 1.8-1.4 2.7-.4.8-.9 1.8-1.8 2-.9.3-1.6-.5-2.2-1.1-.7-.8-1.3-1.6-2-2.4-.3-.4-.9-.2-1.2.2-.7.9-2.2 3.9-3.8 2.9-.6-.4-.9-1.1-1.2-1.8-.4-.9-.9-1.8-1.3-2.8-.3-.7-1.6.1-1.2.9z" />
	</g>
	<g>
		<path class="madness_1"
			d="M121.3 122.9c3.8-1.1 7.7-1.8 11.7-1.9 1 0 1-1.5 0-1.5-4.1.2-8.2.8-12.1 2-.9.3-.5 1.7.4 1.4z" />
	</g>
	<g>
		<path class="madness_1" d="M123 126.1c3 .2 6 .4 9.1.6 1 .1 1-1.4 0-1.5-3-.2-6-.4-9.1-.6-1-.1-1 1.4 0 1.5z" />
	</g>
	<g>
		<path class="madness_1"
			d="M79.5 124.2c-4.3-1.4-8.7-2.2-13.2-2.5v1.5h.4c1 0 1-1.5 0-1.5h-.4c-1 0-1 1.4 0 1.5 4.3.3 8.6 1.2 12.8 2.5 1 .2 1.4-1.2.4-1.5z" />
	</g>
	<g>
		<path class="madness_1"
			d="M78 127.6c-2.6.3-5.1.5-7.7.8-.4 0-.8.3-.8.8 0 .4.3.8.8.8 2.6-.3 5.1-.5 7.7-.8.4 0 .8-.3.8-.8-.1-.4-.4-.8-.8-.8z" />
	</g>
	<g>
		<path
			d="M144.8 109.9c-.6-3.4-1.2-6.8-2.8-9.9-1.4-2.7-3.6-4.8-6.2-6.2-5.5-3.1-12-3.5-18-4.9-2.1-.5-4.3-1.1-6.4-1.8-1-.3-2.1-.7-3.1-1.1-.7-.2-1.8-.6-2.2-1.3-.2-.3-.2-.2 0-.5.2-.2.9-.3 1.2-.4.9-.2 1.8-.3 2.7-.3 2 0 3.9.6 5.6 1.6 1 .6 2.3-.4 1.9-1.5-1.2-3.9-5.1-6.4-8.7-8.1-4-1.8-8.3-2.6-12.6-2.7-4.7-.1-9.3.6-13.8 1.8-4.7 1.2-9.4 2.7-13.9 4.5-2.1.8-4.4 2.6-4 4.9.4 2.5 3.3 3.9 5.3 5 .5.3 1.2.2 1.6-.2 4.3-4.3 9.6-7.6 15.4-9.4 2.7-.8 6-.7 8.8-.6 1.4.1 1.8 1.3 2.1 2.4.4 1.2.7 2.4.9 3.7-12.1 2.9-24.1 7.8-33 16.7-1 1-2.4 2.2-3.2 3.6-.6-.1-4.9 14.2-4.6 21 .2 3.3.7 6.7 1.5 9.9.7 2.6 1.8 5.3 4 7 2.4 1.9 5.6 1.8 8.3.7 2.3-1 10.4-1.4 9.8-4.4-.3-1.5-.9-6.5-1.9-7.5-1-1.1-6.5-1.1-7.3-2.3-1.4-2.5-8.9-6.3-8.4-9.1 1.8-11.1 25.6-16 28.6-14.8 3.1 1.2 18.6-.7 23.7-.7 3.5 0 12 1.6 13.1 4.7 1 2.9 8.9 6.5 8.9 9.6 0 2.9-12.5 8.9-14.1 11.5-1.6 2.7-.3 6.3-.7 3.1-.4-3.1-.8 2.8-.3 4.2.2.5.7 1 1.3 1 2-.2 4-.3 6-.5 1.9-.2 4-.1 5.9-.6 3.1-.8 5.5-3.9 6.9-6.6 3.5-6.7 2.9-14.3 1.7-21.5z"
			fill="#ccdbed" />
		<path
			d="M127 78.7c-6.2-6.9-15.3-9.7-24.1-11.3-4.9-.9-10-1.6-15.1-1.7-5.8 0-11.4 1.3-17 2.4-3.2.6-6.5 1.2-9.7 1.9-1 .2-2.2.8-2 2-1.7-.1-3.4 1.3-3.9 3-.8 2.7 3.6 5.2 5.8 6.4 2.3 1.2 3.3 2 5.5.1 2.4-2 4.9-3.3 7.9-4.2 11.7-3.9 26.1-7.6 37.4-.4 1.3.8 2.5 1.8 3.6 2.9 1 1.1 1.8 2.3 3.3 2.8 2.8 1 5.9-.5 8.2-1.9.6-.4.7-1.4.1-2z"
			fill="#fd1015" />
		<path class="madness_1"
			d="M100.7 85.1c.8-3.3-1.7-6.2-4.8-7.1-3.3-.9-7.2-.2-10.4.8-6.4 1.9-12.1 6-15.9 11.5h2.6c-2-3.4-5.6-5.2-8.3-7.9l-.3 2.4c6.5-4.3 13.7-7.5 21.2-9.2 7.7-1.8 16.7-2.2 24 1.2 3.7 1.7 7 4.3 9.1 7.9.2-.7.4-1.4.5-2.1-1 .7-2 1.5-3 2.2.6.1 1.2.2 1.8.2-1.9-2.1-4.5-3.9-7.4-3.9-2.6 0-5.1 1.3-6.3 3.6.6-.2 1.1-.5 1.7-.7-1.7-.5-3.4-.5-5.1-.8-1.9-.4-2.7 2.5-.8 2.9 1.7.3 3.4.3 5.1.8.6.2 1.4-.1 1.7-.7.8-1.5 2.4-2.3 4-2.1 2 .2 3.7 1.5 5 3 .4.4 1.3.6 1.8.2 1-.7 2-1.5 3-2.2.6-.5 1-1.3.5-2.1-4.4-7.4-12.6-10.9-20.8-11.7-8.6-.8-17.3 1-25.2 4.2C70 77.3 65.9 79.4 62 82c-.8.5-1 1.6-.3 2.4 2.5 2.5 6 4.2 7.9 7.3.6 1 2 .9 2.6 0 3-4.3 7.4-7.7 12.3-9.5 2.4-.9 5-1.5 7.6-1.6 2.1-.1 6.4.5 5.7 3.6-.4 2 2.5 2.8 2.9.9z" />
		<path class="madness_1"
			d="M71.5 89.6c-2.9-2.1-5.9-5.1-8.7-7.6-1.7-1.5-3.3-3-5.1-4.4-1.2-1-2.5-2.1-4-2.7l.3 2.4c3.8-3.4 8.6-5.3 13.4-6.7 5.4-1.6 11-2.7 16.6-3.2 10.4-1 21.2.1 30.7 4.6 5 2.3 9.6 5.4 13.4 9.4.2-.8.4-1.7.7-2.5-4.1 1.2-7.7 3.7-11.8 5.1-1.8.6-1 3.5.8 2.9 4-1.4 7.6-4 11.8-5.1 1.1-.3 1.4-1.7.7-2.5-7.2-7.5-17-12.2-27.2-14.1-11.7-2.2-23.8-.9-35.3 2.3-5.8 1.6-11.5 3.7-15.9 7.8-.7.6-.6 2 .3 2.4 1.4.6 2.6 1.6 3.7 2.5 1.8 1.5 3.5 3 5.3 4.5 2.9 2.6 5.7 5.4 8.8 7.6 1.6 1 3.1-1.6 1.5-2.7z" />
		<path class="madness_1"
			d="M99 83.5c-7.5.7-14.6 3.2-21 7-6.2 3.7-12.1 8-15.9 14.3-1.8 3-3.3 6.3-4.4 9.6-1.3 3.8-1.6 7.7-1.3 11.7.4 4 .9 8.3 2.1 12.1 1.1 3.3 3.1 6.4 6.4 7.8 2.1.9 4.1.6 6.3.2 2.4-.5 4.8-1.1 7.1-2 1.7-.7 3.9-1.6 4.4-3.5.6-2.3-.2-5.2-1-7.4-.3-.9-.7-1.9-1.4-2.6-.6-.6-1.5-.7-2.3-.9-2.3-.7-4.4-1.6-6.6-2.6-2.1-1-4.3-2.1-5.9-3.8-.2-.3-.5-.5-.6-.8-.1-.3-.1-.2-.1-.5.1-1.2.6-2.4 1.2-3.4 2.8-4.7 8.9-7.1 13.8-8.7 4.4-1.5 8.9-2.5 13.5-3.1 5.5-.7 11-1 16.5-.9 5.1.1 10.5.5 15.3 2.4 3.9 1.6 7.1 5.2 9.6 8.5 1.2 1.6 2.2 2.8.9 4.6-1.4 1.9-4 2.9-6.1 3.9-2.3 1-4.9 1.8-7 3.2-2.1 1.5-1.9 5.3-1.4 7.6.6 3.3 5 4.6 7.9 4.9 3.2.3 6.6-.6 9.3-2.2 6.2-3.7 8.9-10.9 9.3-17.8.4-7.3-1.6-14.9-5.5-21.1-1.6-2.5-3.4-5-5.9-6.8-2.1-1.5-4.5-2.6-6.9-3.6-5.5-2.2-11.3-3.5-17-4.6-2.3-.4-4.7-.8-7-1.1-1.9-.2-1.9 2.8 0 3 5 .6 10 1.6 14.9 2.9 4.9 1.3 10.3 2.8 14.5 5.9 2.3 1.7 4 4.3 5.4 6.7 1.8 3 3 6.3 3.8 9.8 1.4 6.6 1.1 14.2-2.9 19.9-3.3 4.8-10.8 8.1-16.1 4.4-1.2-.8-1.1-2.2-1.1-3.5 0-.6 0-1.3.2-1.8.2-.4.5-.5.9-.7 2.3-1.2 4.7-2.1 7-3.1 3.6-1.7 9-5.1 6.7-9.9-1-2.1-2.8-4-4.4-5.7-1.4-1.5-2.9-3.1-4.6-4.3-3.6-2.7-8.4-3.5-12.7-4.1-5.4-.7-10.9-.7-16.4-.4-9.7.6-19.6 2.3-28.4 6.6-4.5 2.2-9.3 5.7-10.4 10.9-.5 2.1.1 3.7 1.7 5.2 1.7 1.6 3.8 2.8 5.9 3.8 2.1 1.1 4.3 2 6.6 2.8.1 0 2.3.8 2.4.7-.1.3-.5-.7-.5-.2 0 .2.2.4.3.6.2.4.4.9.5 1.3.4 1.1.7 2.3.8 3.5.1.5 0 1 0 1.5 0 .3.1.1-.2.4-1.2 1.1-3.6 1.7-5.3 2.2-1.9.6-4.1 1.1-6 1.3-2.7.2-5-2-6.2-4.3-1.7-3.3-2.1-7.5-2.6-11.2-.5-3.9-.7-7.8.5-11.6 1.8-6.2 5-12.7 10-17 5.5-4.6 11.7-8.5 18.5-10.9 3.3-1.2 6.8-2 10.3-2.3 2.5 0 2.5-3 .6-2.8zM57.1 73.6c2.8 2.3 5.6 4.7 8.4 7.2.4.3.9-.2.5-.5-2.8-2.5-5.6-4.9-8.4-7.2-.3-.4-.9.2-.5.5zM62.1 71.4c1.9 2.9 3.7 5.7 5.6 8.6.2.4.8.1.7-.3 0-.2-.1-.4-.1-.6-.1-.5-.8-.3-.7.2 0 .2.1.4.1.6.2-.1.5-.2.7-.3-1.9-2.9-3.7-5.7-5.6-8.6-.3-.4-1 0-.7.4zM65.1 70.3c1.4 2.6 2.8 5.2 4.3 7.8.2.4.9 0 .6-.4-1.4-2.6-2.8-5.2-4.3-7.8-.1-.4-.8 0-.6.4zM67.9 69.3c.7 1.7 1.4 3.4 2.2 5.1.4.8.8 1.7 1.2 2.5.1.2.3.5.7.4.3-.1.4-.4.3-.7-.1-.1-.2-.2-.3-.2-.5 0-.5.8 0 .8-.1-.1-.2-.1-.3-.2v-.3.1l.2-.2h.3c.1.1.1 0 0-.1 0-.1-.1-.2-.1-.3-.1-.1-.1-.3-.2-.4-.2-.3-.3-.6-.4-.9-.3-.6-.6-1.3-.9-1.9-.6-1.3-1.1-2.6-1.7-3.9-.5-.5-1.2-.3-1 .2zM71.5 69.7c1.3 2.2 2.3 4.6 3.1 7.1.1.2.3.3.6.2.4-.2.4-.8 0-1-.4-.3-.8.4-.4.6v-.2c.2.1.4.1.6.2-.8-2.5-1.8-5-3.1-7.2-.4-.5-1.1-.1-.8.3zM73.7 68.6c.9 2.3 1.8 4.6 2.6 6.8.1.3.6.4.7 0 0-.2.1-.4.1-.6.1-.5-.6-.7-.7-.2 0 .2-.1.4-.1.6h.7c-.9-2.3-1.8-4.6-2.6-6.8-.2-.4-.9-.2-.7.2zM76.3 68c.6 2.5 1.3 5 2 7.4.1.4.7.3.7-.1v-.4c0-.5-.8-.5-.8 0v.4c.2 0 .5-.1.7-.1-.8-2.5-1.5-4.9-2-7.4 0-.4-.8-.2-.6.2zM78.4 67.6c.5 2.2 1 4.4 1.6 6.6.1.4.6.3.7 0 0-.1.1-.3.1-.4.1-.5-.6-.7-.7-.2 0 .1-.1.3-.1.4h.7c-.5-2.2-1-4.4-1.6-6.6-.1-.5-.9-.3-.7.2zM81 67.6c.4 2.1.8 4.2 1.4 6.2.1.4.7.3.7-.1v-.4c0-.5-.7-.5-.8 0v.4c.2 0 .5-.1.7-.1-.5-2.1-1-4.1-1.4-6.2 0-.5-.7-.3-.6.2zM83.6 67.3c.4 2 .7 4 1.1 6 .1.4.7.3.7-.1v-.6c0-.5-.7-.5-.8 0v.6c.2 0 .5-.1.7-.1-.4-2-.7-4-1.1-6 0-.5-.7-.3-.6.2zM85.8 66.8c0 2.1.3 4.2.8 6.2.1.4.6.4.7 0 .1-.2.1-.4.2-.6.1-.5-.6-.7-.7-.2-.1.2-.1.4-.2.6h.7c-.5-2-.7-4-.8-6 .1-.4-.7-.4-.7 0zM87.6 66.8c.3 1.9.6 3.7.8 5.6.1.4.8.3.7-.1v-.4c0-.5-.8-.5-.8 0v.4c.2 0 .5-.1.7-.1-.3-1.9-.6-3.7-.8-5.6 0-.2-.3-.3-.5-.3 0 .1-.1.3-.1.5zM89.6 66.7c.2 1.9.4 3.7.7 5.6.1.5.7.5.8 0 0-.2 0-.5.1-.7 0-.5-.7-.5-.8 0 0 .2 0 .5-.1.7h.8c-.2-1.9-.4-3.7-.7-5.6 0-.2-.2-.4-.4-.4s-.4.2-.4.4zM91.3 66.5c.1 1.9.3 3.7.4 5.6 0 .5.7.5.8 0 0-.1 0-.3.1-.4 0-.2-.2-.4-.4-.4s-.4.2-.4.4c0 .1 0 .3-.1.4h.8c-.1-1.9-.3-3.7-.4-5.6-.1-.5-.8-.5-.8 0zM93.2 66.5c.1 1.8.3 3.5.4 5.3 0 .5.7.5.8 0v-.4c0-.5-.7-.5-.8 0v.4h.8c-.1-1.8-.3-3.5-.4-5.3-.1-.5-.9-.5-.8 0zM95.2 67c.2 1.5.2 3 .2 4.5 0 .5.7.5.8 0 .1-1.5 0-3-.2-4.5 0-.2-.2-.4-.4-.4-.3 0-.5.2-.4.4zM97.5 66.8c-.1 1.8 0 3.6.3 5.4 0 .2.3.3.5.3.2-.1.3-.3.3-.5-.3-1.7-.3-3.5-.3-5.2 0-.4-.8-.4-.8 0zM99.5 67c.1 1.6.1 3.2.2 4.8 0 .5.8.5.8 0-.1-1.6-.1-3.2-.2-4.8-.1-.5-.8-.5-.8 0zM101.4 67.4c.4 1.1.1 2.3 0 3.4 0 .3 0 .7-.1 1v.7c0 .1 0-.1 0 0l.2-.2c.2 0 .3.1.5.1.1.2 0 .2 0 .1 0-.5-.7-.5-.8 0 0 .1 0 .2.1.3.1.2.4.2.5.1.3-.1.2-.6.2-.9 0-.4.1-.8.1-1.1.1-1.2.4-2.5 0-3.7-.1-.4-.8-.2-.7.2zM103.6 68.4c-.2 1.4-.3 2.8-.5 4.2 0 .2.2.4.4.4s.4-.2.4-.4c.2-1.4.3-2.8.5-4.2 0-.2-.2-.4-.4-.4-.3 0-.4.2-.4.4zM105.5 68.3c-.2 1.6-.5 3.2-.8 4.7-.1.5.6.7.7.2.3-1.6.6-3.3.8-4.9 0-.2-.2-.4-.4-.4s-.3.2-.3.4zM108 68.9c-.4 1-.6 2.1-.9 3.1-.1.3-.1.5-.1.8 0 .2-.1.5 0 .7.1.2.5.3.7.1.2-.2.2-.4 0-.6-.1-.1-.2-.1-.4-.1-.5.1-.3.8.2.7-.1 0-.2-.1-.4-.1 0-.1-.1-.2-.1-.3 0-.1.1-.1.1-.2.1 0 .2-.1.3-.1.1 0 .1 0 .2.1l.1.1c.1.1 0-.1.1-.1 0-.1 0-.2.1-.3 0-.2.1-.3.1-.5.1-.4.2-.7.2-1.1l.6-2.1c0-.3-.7-.5-.8-.1zM110.3 69.7c-.4 1.5-1 2.9-1.7 4.3-.2.4.4.8.6.4.7-1.4 1.3-2.9 1.8-4.5.2-.5-.5-.7-.7-.2zM113 70.6c-.7 1.3-1.4 2.5-2.1 3.8-.2.4.4.8.6.4.7-1.3 1.4-2.5 2.1-3.8.3-.5-.4-.9-.6-.4zM114.8 71.9c-.7 1.1-1.5 2.3-2.2 3.4-.3.4.4.8.6.4.7-1.1 1.5-2.3 2.2-3.4.3-.4-.3-.8-.6-.4zM116.9 73c-.7 1-1.4 1.9-2.1 2.9-.2.2-.3.5-.5.7-.2.2-.5.5-.4.8.1.3.3.4.6.3.3-.1.4-.4.3-.7-.1-.5-.9-.3-.7.2v-.1c.1 0 .1-.1.2-.1h.2l.1.1v.2c0-.1.1-.2.2-.2.1-.1.1-.2.2-.3.1-.2.2-.3.3-.5.2-.3.5-.7.7-1 .5-.7 1-1.3 1.5-2 .1-.2 0-.4-.1-.5-.2 0-.4.1-.5.2zM118.9 74c-1.2 1.5-2.5 2.9-3.7 4.4.2.2.4.3.6.5.1-.1.1-.3.2-.4.2-.4-.4-.8-.6-.4-.1.1-.1.3-.2.4-.1.2-.1.4.1.5.1.1.4.1.5 0 1.2-1.5 2.5-2.9 3.7-4.4.3-.4-.2-1-.6-.6zM120.7 74.9c-1.3 1.3-2.5 2.6-3.8 3.9-.3.3.2.9.5.5 1.3-1.3 2.5-2.6 3.8-3.9.4-.4-.1-.9-.5-.5zM122.6 75.9l-4.2 3.9c-.4.3.2.9.5.5l4.2-3.9c.4-.3-.2-.8-.5-.5zM124.4 77.6c-1.9 1.2-3.9 2.4-5.8 3.6.2.2.3.4.5.6.2-.1.3-.3.5-.4.4-.3-.2-.8-.5-.5-.2.1-.3.3-.5.4-.3.3.1.8.5.6 1.9-1.2 3.9-2.4 5.8-3.6.3-.3-.1-.9-.5-.7z" />
	</g>
	<g>
		<path class="madness_1" d="M33.4 30.1c1.9 0 1.9-3 0-3s-1.9 3 0 3z" />
	</g>
	<g>
		<path class="madness_5"
			d="M56.8 186.7c-.8-1-1.3-2.1-1.7-3.2 0-.3-.1-.6-.2-.9 0-.1-.1-.3-.2-.4-.4-1.7-.5-3.4-.8-5.1-.3-2.2-.6-4.5-.9-6.7.1-.2.2-.4.1-.7-.5-3.1-1-6.2-1.5-9.4 0-.4-.1-.7-.1-1.1.1-.2.1-.4.1-.7-.3-1.3-.5-2.6-.8-3.8-.5-4.1-1.1-8.1-1.6-12.2-1.7-13.1-3.3-26.3-4.7-39.4 1.4-11.1.2-22.4-3.4-33.1l.6-.1c1.6-.4 1.2-2.6-.4-2.2l-4.8 1.2c-.7.2-1.2.6-1.1 1.3 1.8 7.5 2.7 15.1 3.5 22.6l2.4 23.4 4.3 41.7c0 .6 0 1.3-.1 2 0 .4.1.6.4.8l.3 2.4 2.7 26.6c.1.8 1.4 1.1 2.1.7 1.5-1 3.2-1.7 5.1-2 .9-.1 1.2-1.1.7-1.7z" />
		<path class="madness_1"
			d="M33.2 54.5c1.7 17.7 3.6 35.3 5.5 53l5.7 52.8c1.1 10 2.1 20.1 3.1 30.1.1 1 .9 1.6 1.9 1.4 2.4-.5 4.7-.9 7.1-1.4 1.9-.4 1.1-3.3-.8-2.9-2.4.5-4.7.9-7.1 1.4.6.5 1.3 1 1.9 1.4-1.7-17.7-3.6-35.3-5.5-53l-5.7-52.8c-1.1-10-2.1-20.1-3.1-30.1-.2-1.8-3.2-1.8-3 .1z" />
		<path class="madness_1"
			d="M40.3 66c2 20.9 4.3 41.7 6.7 62.5 2 17.2 3.9 34.5 6.8 51.6.4 2.3.8 4.7 1.4 7 .3 1.1.8 3.4 2.3 3.2 1.9-.2 1.9-3.2 0-3 .3 0 .7.2.9.4-.2-.1.3.4.1.2-.3-.4 0 .2-.1-.2-.2-.6-.3-1.1-.5-1.7-.5-2-.8-4.1-1.2-6.2-1.2-6.9-2.1-13.8-3-20.7-2.6-19.9-4.9-39.9-7-59.9C45.6 88.1 44.4 77 43.3 66c-.1-1.9-3.1-2-3 0z" />
		<path class="madness_6"
			d="M29.2 12.1c.3 8.5.7 17 1.3 25.6.1 2.1.3 4.2.4 6.3 0 .5 0 1 .3 1.4.3.4.8.6 1.4.8 1.2.4 2.2.7 2.4 1.5.3 1.6 1.3 3.3-.5 4.7-.7.6-2.4 1.1-2.3 1.9.1.6 1.1.8 2 .9.6.1 1 .2 1.1.6.1.5.1 1.1.1 1.6.1 1.2.1 2.4.1 3.6 0 2.4 0 4.7-.2 7.1 0 .1 0 .2.1.3-.5.4 0 1.1.8.7 2-.8 4.4-1 6.5-.5.9.2 1.5-.5.9-.9-1.1-.5-1.4-1.4-1.5-2.2-.2-.9-.2-1.8-.5-2.7-.3-1-.9-2-1.4-3-.5-1-1.2-2-1.3-3-.1-.8.4-1.8 1.8-2.3 1.1-.4 2.5-.8 2.3-1.7-.1-.4-.6-.7-1.2-.9-.6-.2-1.4-.2-2-.4-.6-.2-.6-.8-.8-1.2l-.9-2.5c-.1-.2-.3-.5-.1-.6.2-.2 1.4-.3 1.8-.4 1.2-.3 1.9-.9 2.2-1.6.3-.7.2-1.5 0-2.1l-1.2-3.3c-1.6-4.4-3.1-8.8-4.6-13.2-1.7-5-3.2-9.9-4.5-15-.1-.3-.4-.4-.9-.4-.3 0-.6.1-.9.1-.4.2-.7.5-.7.8z" />
		<path class="madness_1"
			d="M35.1 70.9c2.9-.7 5.7-1.1 8.7-1 .9 0 1.8-1 1.4-1.9-1-2.3-1.9-4.7-2.9-7-.5-1.1-.9-2.3-1.4-3.4-.1-.4-.4-1.6-.7-1.7 0-.2-.1-.2-.2.2-.2.3-.3.3 0 .3.1 0 .7-.1.8-.1 1.7-.3 3.6-1.6 3.2-3.6-.5-2.1-3.1-2.4-4.9-2.1.6.3 1.2.7 1.8 1-.5-1.6-1-3.2-1.6-4.8-.6-1.8-3.5-1-2.9.8.5 1.6 1 3.2 1.6 4.8.3.8 1 1.2 1.8 1 .4-.1.8.2 1.2.1.3.2.3 0 0-.6l-.1.1c-.1 0-.9.3-1 .3-.3.1-.6.1-.9.2-2 .6-2.1 2.3-1.4 4 1.5 3.8 3.1 7.7 4.6 11.5.5-.6 1-1.3 1.4-1.9-3.2-.1-6.4.3-9.5 1.1-1.7.3-.9 3.2 1 2.7z" />
		<path class="madness_1"
			d="M37.8 48c1.8.5 4.3-.1 5.4-1.8 1.1-1.8.1-3.8-.6-5.6-1.3-3.4-2.4-6.8-3.6-10.2-2.2-6.4-4.2-12.7-6.4-19.1-.4-1.2-1.2-5.2-3.3-3.9-1.6 1-.1 3.6 1.5 2.6-.4.1-.8.1-1.2.2-.3-.1-.8-.5-.8-.6 0 0 0 .1.1.2-.1 0-.1-.4 0 0 0 .1.1.3.1.4.3.7.5 1.4.8 2.2.8 2.3 1.6 4.6 2.3 6.9 2 6.1 4 12.1 6.2 18.1.5 1.5 1.1 3.1 1.7 4.6.2.7.9 1.7.8 2.4-.1.9-1.4 1-2.1.8-1.9-.6-2.7 2.3-.9 2.8zM34.6 53.6c-.2.1-.3.1-.5.1.1 0 .3 0 .5-.1-.4.1-.6.1-.9.1.1 0 .3 0 .4.1-.2 0-.5-.1-.7-.2.1.1.2.1.4.2-.2-.1-.3-.2-.5-.3.1.1.2.2.3.2l-.3-.3c.1.1.2.2.2.3-.1-.1-.1-.1-.1-.2.1.1.1.2.2.4 0-.1 0-.1-.1-.2 0 .1 0 .3.1.4v-.2c0 .1 0 .3-.1.4 0-.1 0-.2.1-.3-.1.1-.1.2-.2.4 0-.1.1-.2.2-.3-.1.1-.2.2-.2.3l.4-.4c-.1.1-.2.2-.3.2.3-.2.6-.4 1-.5-.1.1-.2.1-.4.2.4-.2.9-.3 1.3-.4.4-.1.7-.4.9-.7.2-.3.3-.8.2-1.2-.1-.4-.3-.7-.7-.9-.4-.2-.7-.2-1.2-.2-.7.1-1.4.4-2.1.7-.6.3-1.3.8-1.6 1.5-.4.7-.5 1.7 0 2.5.5.7 1.1 1.1 1.9 1.4.8.3 1.7.3 2.5 0 .4-.1.7-.3.9-.7.2-.3.3-.8.2-1.2-.1-.4-.3-.7-.7-.9-.3-.2-.7-.3-1.1-.2z" />
		<path class="madness_1"
			d="M36.6 51.7c.1-1.2.1-2.3.2-3.5 0-.7.2-1.4-.2-2.1-.3-.5-.8-.8-1.3-1-.7-.2-1.4-.2-2.1-.3h-.4c.6.1.1 0-.1 0h-.1l.2.1.2.2.2.2c-.1-.2.1.5.1.2-.1-.8-1.1-1.3-1.8-1-.8.3-1.2 1-1 1.8.2.9 1.1 1.4 1.9 1.5.4.1.8.1 1.3.1H34.3c-.5-.1-.3 0-.1 0 .1 0 .3.1.4.1.2 0-.3-.2-.2-.1l-.1-.1.1.1c-.1-.1-.2-.2-.3-.4v-.2.2c0 .3 0 .6-.1.9-.1 1.2-.1 2.3-.2 3.5 0 .8.7 1.5 1.5 1.5.6-.3 1.2-.9 1.3-1.7z" />
		<path class="madness_1"
			d="M36.5 69.2c.6-4.6.2-9.4.1-14 0-1.9-3-1.9-3 0 .1 4.7.5 9.4-.1 14-.1.8.8 1.5 1.5 1.5.9 0 1.4-.7 1.5-1.5zM33.1 45.3C31 33.2 30.4 20.7 31 8.4c.1-1.9-2.9-1.9-3 0-.6 12.6.1 25.3 2.3 37.7.3 1.9 3.2 1.1 2.8-.8z" />
	</g>
	<g>
		<path class="madness_6"
			d="M175.4 153.4c1.4-2.7 2.7-5.9 1.7-8.7-.1-.3-.3-.5-.5-.6.4-1.6.6-3.2.2-4.9-.1-.4-.3-.6-.6-.8 0-1.2 0-2.4-.2-3.6-.2-1.1-.4-2.5-1.3-3.3-.4-.3-.8-.4-1.2-.3-.2-.5-.4-1-.7-1.5-.5-1-1.2-1.9-1.8-2.8-2.6-3.6-5.3-6.8-9.1-9.2-3.5-2.2-7.5-3.5-11.7-4-2.2-.3-4.5-.1-6.7 0-2.3.1-4.6.1-6.9.6-2.7.6-5.3 2-7.6 3.5-2.4 1.5-4.7 3.1-7 4.8-.2.2-.4.4-.5.6-.2.1-.3.1-.4.2l-.2.2c-.3 0-.6.1-.8.4-.1.1-.2.2-.2.3-.4 0-.9.2-1.1.6-.3.6-.6 1.2-.8 1.8-.3.1-.5.3-.7.6-.2.4-.4.9-.6 1.3-.1.1-.2.3-.3.5-.2.8-.5 1.6-.8 2.4-.4.8-.8 1.5-.9 2.4-.5.9-.8 1.8-.9 2.8v.7c-.2.8-.4 1.6-.5 2.4-.2 1-.4 2-.3 3 0 .2.1.3.2.5 0 .3.1.7.1 1 0 .1 0 .1.1.1v2.6c0 .4.1.6.3.8v2.3c0 .7.5 1.1 1 1.2 0 .1 0 .1.1.2 0 .1.1.1.1.1 0 .4.1.8.1 1.2-.1.9.2 1.8.5 2.6 0 .1.1.2.1.3.1.3.3.4.5.5.2.9.4 1.7.8 2.6.8 1.7 2.1 3.1 3.3 4.5 2.4 2.6 4.6 5.6 7.7 7.5 1.7 1 3.7 1.5 5.5 2.2 1.8.7 3.6 1.4 5.6 1.7 4 .7 8 1.6 12 .6 1.1 0 2.2 0 3.3-.2 1.3-.2 2.5-.7 3.6-1.2 2.2-1 4.3-2.2 6.2-3.7 3.8-3 6.8-6.9 8.9-11.2 1.3-1.9 2.3-3.7 2.4-5.6zm-12.5 14.2c-.2.2-.5.4-.8.6-.3-.3-.7-.4-1.2-.2-2.1.7-3.9 1.9-6 2.5-.9.3-1.9.4-2.8.8-.8.4-1.4 1-2.3 1.2-.2 0-.4.1-.5.3-.9.1-1.8.2-2.8.2-1.9-.1-3.8-.5-5.7-.8-1.8-.3-3.5-.6-5.2-1.3-1.8-.7-3.7-1.3-5.5-2.1-3-1.4-5.1-4.2-7.3-6.6-1.3-1.4-2.8-2.8-3.6-4.5-.8-1.8-.9-3.8-1.8-5.5-.1-1.1-.2-2.1-.3-3.2 0-.6-.4-1-.9-1.2 0-.1-.1-.2-.1-.3-.1-.8-.2-1.5-.4-2.2 0-.8.1-1.6.1-2.4v-.4c.1-1.1.2-2.1.2-3.2 0-.1.1-.2.1-.3.1-.5.2-1.1.2-1.6v-.3c0-.1 0-.2.1-.4.3-.2.6-.4.7-.7.3-.7.4-1.4.4-2.1v-.1c.1-.1.1-.2.1-.3.1-.4.3-.7.4-1.1.1-.1.1-.3.2-.4.1-.1.2-.2.2-.3 0-.1.1-.2.1-.3.1-.4.2-.7.3-1.1.3-.1.6-.4.8-.8.1-.3.3-.7.4-1 .1 0 .2-.1.3-.1.4 0 .7-.2 1-.6.3-.4.5-.9.7-1.3.1-.1.2-.3.3-.4.1 0 .2-.1.3-.1.2-.1.4-.3.6-.5.2-.2.3-.5.4-.7 3.6-2.6 7.3-5.4 11.5-7 2-.8 4.1-1 6.3-1.1 2.1-.1 4.3-.3 6.5-.2 7.8.2 15.1 4.1 19.7 10.4 1.4 1.9 2.8 3.7 3.6 5.9.5 1.3 1.3 2.6 1.8 4 .4 2.5.7 5.1.6 7.7 0 .2 0 .4.1.5-.4 1.6-.9 3.3-.9 5 0 .5.3.9.8 1.1-.2.6-.5 1.1-.8 1.7-.5.7-.8 1.4-1.2 2.1-.3.5-.2 1 .1 1.4-.2.4-.5.8-.8 1.2-.2.2-.3.4-.5.5-.2.3-.3.6-.3.9-1.7 3.1-4.1 6.2-7.2 8.7z" />
		<path class="madness_5"
			d="M169.8 128.2c-3.3-4.9-8.9-8.1-14.1-10.6-6.3-2.9-13.4-2.2-19.8.1-6.1 2.2-11.6 5.9-15.8 10.8-.2.2-.3.4-.3.7-.2.1-.4.3-.5.5-4.3 10-4.2 22.3 2.2 31.5 1.7 2.5 3.9 4.8 6.2 6.8 2.4 2.2 5.4 3.2 8.5 4.2 6.2 1.9 12.7 2.8 18.8-.1 5.1-2.4 9.8-6.5 13.2-10.9 3.5-4.5 5.9-9.7 6-15.5 0-5.9-1.1-12.6-4.4-17.5z" />
		<ellipse class="madness_7" cx="145.3" cy="144.3" rx="29.2" ry="28.2" />
		<ellipse class="madness_7" cx="145.1" cy="144.1" rx="32.3" ry="31.4" />
		<path class="madness_6"
			d="M149.3 143.6c-.3-1.7-1.2-3.2-2.6-4.1-.3-.2-.6-.2-.9-.1l-.1-.1c-1-.6-2.2-.3-3 .6-.6.7-.9 1.6-1 2.5-.3 1.8-.5 4.2 1.1 5.4.7.5 1.6.6 2.4.7 1 .2 2.2.6 3.1-.3.5-.5.8-1.4.9-2.2.3-.8.3-1.6.1-2.4z" />
		<ellipse transform="rotate(-38.051 145.647 143.793)" class="madness_7" cx="145.7" cy="143.8" rx="4.5"
			ry="4.6" />
		<path class="madness_0"
			d="M129 118.2v.2c0 .2 0 .4.1.6.1.2.2.3.3.5.1.1.3.2.5.3.2.1.4.1.6.1.1 0 .3 0 .4-.1.3-.1.5-.2.7-.4.1-.1.2-.2.2-.3.1-.2.2-.5.2-.8v-.2c0-.2 0-.4-.1-.6-.1-.2-.2-.3-.3-.5-.1-.1-.3-.2-.5-.3-.2-.1-.4-.1-.6-.1-.1 0-.3 0-.4.1-.3.1-.5.2-.7.4-.1.1-.2.2-.2.3-.1.3-.2.6-.2.8zM136.5 115.3v.2c0 .2 0 .4.1.6.1.2.2.3.3.5.1.1.3.2.5.3.2.1.4.1.6.1.1 0 .3 0 .4-.1.3-.1.5-.2.7-.4.1-.1.2-.2.2-.3.1-.2.2-.5.2-.8v-.2c0-.2 0-.4-.1-.6-.1-.2-.2-.3-.3-.5-.1-.1-.3-.2-.5-.3-.2-.1-.4-.1-.6-.1-.1 0-.3 0-.4.1-.3.1-.5.2-.7.4-.1.1-.2.2-.2.3-.1.2-.2.5-.2.8zM145.6 115.6l.2.2c.1.1.3.2.5.3.2.1.4.1.6.1.2 0 .4 0 .6-.1.2-.1.3-.2.5-.3.1-.1.2-.2.2-.3.1-.2.2-.5.2-.8 0-.1 0-.3-.1-.4-.1-.3-.2-.5-.4-.7l-.2-.2c-.1-.1-.3-.2-.5-.3-.2-.1-.4-.1-.6-.1-.2 0-.4 0-.6.1-.2.1-.3.2-.5.3-.1.1-.2.2-.2.3-.1.2-.2.5-.2.8 0 .1 0 .3.1.4 0 .2.2.5.4.7zM153.7 116.6l.2.2c.1.1.3.2.5.3.2.1.4.1.6.1.2 0 .4 0 .6-.1.2-.1.3-.2.5-.3.1-.1.2-.2.2-.3.1-.2.2-.5.2-.8 0-.1 0-.3-.1-.4-.1-.3-.2-.5-.4-.7l-.2-.2c-.1-.1-.3-.2-.5-.3-.2-.1-.4-.1-.6-.1-.2 0-.4 0-.6.1-.2.1-.3.2-.5.3-.1.1-.2.2-.2.3-.1.2-.2.5-.2.8 0 .1 0 .3.1.4.1.3.2.6.4.7zM161 120.2l.2.2c.1.1.3.2.5.3.2.1.4.1.6.1.2 0 .4 0 .6-.1.2-.1.3-.2.5-.3.1-.1.2-.2.2-.3.1-.2.2-.5.2-.8 0-.1 0-.3-.1-.4-.1-.3-.2-.5-.4-.7l-.2-.2c-.1-.1-.3-.2-.5-.3-.2-.1-.4-.1-.6-.1-.2 0-.4 0-.6.1-.2.1-.3.2-.5.3-.1.1-.2.2-.2.3-.1.2-.2.5-.2.8 0 .1 0 .3.1.4.1.3.2.6.4.7zM167.5 125.7h.2c.2 0 .4 0 .6-.1.2-.1.3-.2.5-.3.1-.1.2-.3.3-.5.1-.2.1-.4.1-.6 0-.1 0-.3-.1-.4-.1-.3-.2-.5-.4-.7-.1-.1-.2-.2-.3-.2-.2-.1-.5-.2-.8-.2h-.2c-.2 0-.4 0-.6.1-.2.1-.3.2-.5.3-.1.1-.2.3-.3.5-.1.2-.1.4-.1.6 0 .1 0 .3.1.4.1.3.2.5.4.7.1.1.2.2.3.2.3.1.6.2.8.2zM170.7 129.5v.2c0 .2 0 .4.1.6.1.2.2.3.3.5.1.1.3.2.5.3.2.1.4.1.6.1.1 0 .3 0 .4-.1.3-.1.5-.2.7-.4.1-.1.2-.2.2-.3.1-.2.2-.5.2-.8v-.2c0-.2 0-.4-.1-.6-.1-.2-.2-.3-.3-.5-.1-.1-.3-.2-.5-.3-.2-.1-.4-.1-.6-.1-.1 0-.3 0-.4.1-.3.1-.5.2-.7.4-.1.1-.2.2-.2.3-.1.3-.2.5-.2.8zM174.7 137.6h.2c.2 0 .4 0 .6-.1.2-.1.3-.2.5-.3.1-.1.2-.3.3-.5.1-.2.1-.4.1-.6 0-.1 0-.3-.1-.4-.1-.3-.2-.5-.4-.7-.1-.1-.2-.2-.3-.2-.2-.1-.5-.2-.8-.2h-.2c-.2 0-.4 0-.6.1-.2.1-.3.2-.5.3-.1.1-.2.3-.3.5-.1.2-.1.4-.1.6 0 .1 0 .3.1.4.1.3.2.5.4.7.1.1.2.2.3.2.3.1.6.1.8.2zM174.3 142.9v.2c0 .2 0 .4.1.6.1.2.2.3.3.5.1.1.3.2.5.3.2.1.4.1.6.1.1 0 .3 0 .4-.1.3-.1.5-.2.7-.4.1-.1.2-.2.2-.3.1-.2.2-.5.2-.8v-.2c0-.2 0-.4-.1-.6-.1-.2-.2-.3-.3-.5-.1-.1-.3-.2-.5-.3-.2-.1-.4-.1-.6-.1-.1 0-.3 0-.4.1-.3.1-.5.2-.7.4-.1.1-.2.2-.2.3-.1.3-.2.6-.2.8zM175.4 151.8h.2c.2 0 .4 0 .6-.1.2-.1.3-.2.5-.3.1-.1.2-.3.3-.5.1-.2.1-.4.1-.6 0-.1 0-.3-.1-.4-.1-.3-.2-.5-.4-.7-.1-.1-.2-.2-.3-.2-.2-.1-.5-.2-.8-.2h-.2c-.2 0-.4 0-.6.1-.2.1-.3.2-.5.3-.1.1-.2.3-.3.5-.1.2-.1.4-.1.6 0 .1 0 .3.1.4.1.3.2.5.4.7.1.1.2.2.3.2.2.1.5.2.8.2zM172.7 159.1h.2c.2 0 .4 0 .6-.1.2-.1.3-.2.5-.3.1-.1.2-.3.3-.5.1-.2.1-.4.1-.6 0-.1 0-.3-.1-.4-.1-.3-.2-.5-.4-.7-.1-.1-.2-.2-.3-.2-.2-.1-.5-.2-.8-.2h-.2c-.2 0-.4 0-.6.1-.2.1-.3.2-.5.3-.1.1-.2.3-.3.5-.1.2-.1.4-.1.6 0 .1 0 .3.1.4.1.3.2.5.4.7.1.1.2.2.3.2.3.1.5.2.8.2zM168.5 165.2c1.9 0 1.9-3 0-3s-1.9 3 0 3zM161.5 169.6l.2.2c.1.1.3.2.5.3.2.1.4.1.6.1.2 0 .4 0 .6-.1.2-.1.3-.2.5-.3.1-.1.2-.2.2-.3.1-.2.2-.5.2-.8 0-.1 0-.3-.1-.4-.1-.3-.2-.5-.4-.7l-.2-.2c-.1-.1-.3-.2-.5-.3-.2-.1-.4-.1-.6-.1-.2 0-.4 0-.6.1-.2.1-.3.2-.5.3-.1.1-.2.2-.2.3-.1.2-.2.5-.2.8 0 .1 0 .3.1.4.1.3.2.5.4.7zM155.5 173.8c1.9 0 1.9-3 0-3s-1.9 3 0 3zM145.7 174.2v.2c0 .2 0 .4.1.6.1.2.2.3.3.5.1.1.3.2.5.3.2.1.4.1.6.1.1 0 .3 0 .4-.1.3-.1.5-.2.7-.4.1-.1.2-.2.2-.3.1-.2.2-.5.2-.8v-.2c0-.2 0-.4-.1-.6-.1-.2-.2-.3-.3-.5-.1-.1-.3-.2-.5-.3-.2-.1-.4-.1-.6-.1-.1 0-.3 0-.4.1-.3.1-.5.2-.7.4-.1.1-.2.2-.2.3-.1.2-.2.5-.2.8zM139.9 175.2c1.9 0 1.9-3 0-3s-1.9 3 0 3zM130.4 170.7v.2c0 .2 0 .4.1.6.1.2.2.3.3.5.1.1.3.2.5.3.2.1.4.1.6.1.1 0 .3 0 .4-.1.3-.1.5-.2.7-.4.1-.1.2-.2.2-.3.1-.2.2-.5.2-.8v-.2c0-.2 0-.4-.1-.6-.1-.2-.2-.3-.3-.5-.1-.1-.3-.2-.5-.3-.2-.1-.4-.1-.6-.1-.1 0-.3 0-.4.1-.3.1-.5.2-.7.4-.1.1-.2.2-.2.3-.1.3-.2.6-.2.8zM125.8 168.8h.2c.2 0 .4 0 .6-.1.2-.1.3-.2.5-.3.1-.1.2-.3.3-.5.1-.2.1-.4.1-.6 0-.1 0-.3-.1-.4-.1-.3-.2-.5-.4-.7-.1-.1-.2-.2-.3-.2-.2-.1-.5-.2-.8-.2h-.2c-.2 0-.4 0-.6.1-.2.1-.3.2-.5.3-.1.1-.2.3-.3.5-.1.2-.1.4-.1.6 0 .1 0 .3.1.4.1.3.2.5.4.7.1.1.2.2.3.2.3.1.6.2.8.2zM121 163.8c1.9 0 1.9-3 0-3s-1.9 3 0 3zM116.9 157.2c1.9 0 1.9-3 0-3s-1.9 3 0 3zM115.6 150.5c-.1 0-.3 0-.4.1-.1 0-.3 0-.4-.1-.1-.1-.2-.1-.4-.2-.1-.1-.2-.2-.3-.2-.1-.1-.2-.2-.2-.3-.1-.1-.1-.2-.2-.4 0-.1 0-.3-.1-.4 0-.1 0-.3.1-.4.1-.1.1-.2.2-.4.1-.1.2-.2.2-.3.1-.1.2-.2.3-.2.1-.1.2-.1.4-.2.1 0 .3 0 .4-.1.1 0 .3 0 .4.1-.2-.1-.4-.1-.6 0-.2 0-.4.1-.6.2-.2.1-.3.2-.4.4-.1.1-.2.3-.3.5 0 .1 0 .3-.1.4 0 .3.1.5.2.8.1.1.2.2.2.3.2.2.4.3.7.4l.4.1.4-.1.4-.2c.1-.1.2-.1.3-.2l.2-.3s.1-.4.2-.4l.1-.4c0-.1 0-.3-.1-.4 0 0-.1-.3-.2-.4 0-.1-.2-.2-.1-.2 0-.1-.1-.1-.1-.2l-.3-.2c-.1-.1-.2-.1-.4-.2-.1 0-.3-.1-.4-.1h-.4c-.2 0-.4.1-.5.3-.2.1-.3.2-.4.4-.1.2-.2.4-.2.6v.6c.1.1.1.2.2.4s.3.4.5.5c.1.1.2.1.4.2.4.3.6.3.9.2zM114.9 142.1c1.9 0 1.9-3 0-3s-1.9 3 0 3zM118.4 132.4c0 .1 0 .3.1.4 0 .1 0 .3-.1.4-.1.1-.1.2-.2.4-.1.1-.2.2-.2.3-.1.1-.2.2-.3.2-.1.1-.2.1-.4.2-.1 0-.3 0-.4.1-.1 0-.3 0-.4-.1-.1-.1-.2-.1-.4-.2-.1-.1-.2-.2-.3-.2-.1-.1-.2-.2-.2-.3-.1-.1-.1-.2-.2-.4 0-.1 0-.3-.1-.4 0-.1 0-.3.1-.4-.1.2-.1.4 0 .6 0 .2.1.4.2.6.1.2.2.3.4.4.1.1.3.2.5.3.1 0 .3 0 .4.1.3 0 .5-.1.8-.2.1-.1.2-.2.3-.2.2-.2.3-.4.4-.7l.1-.4-.1-.4-.2-.4c-.1-.1-.1-.2-.2-.3l-.3-.2s-.4-.1-.4-.2l-.4-.1c-.1 0-.3 0-.4.1 0 0-.3.1-.4.2-.1 0-.2.2-.2.1-.1 0-.1.1-.2.1l-.2.3c-.1.1-.1.2-.2.4 0 .1-.1.3-.1.4v.4c0 .2.1.4.3.5.1.2.2.3.4.4.2.1.4.2.6.2h.6c.1-.1.2-.1.4-.2s.4-.3.5-.5c.1-.1.1-.2.2-.4.3-.4.3-.7.2-.9zM120.9 126l.2.2c.1.1.3.2.5.3.2.1.4.1.6.1.2 0 .4 0 .6-.1.2-.1.3-.2.5-.3.1-.1.2-.2.2-.3.1-.2.2-.5.2-.8 0-.1 0-.3-.1-.4-.1-.3-.2-.5-.4-.7l-.2-.2c-.1-.1-.3-.2-.5-.3-.2-.1-.4-.1-.6-.1-.2 0-.4 0-.6.1-.2.1-.3.2-.5.3-.1.1-.2.2-.2.3-.1.2-.2.5-.2.8 0 .1 0 .3.1.4.1.3.2.5.4.7zM143.8 139.6c0 .1-.1.3-.1.4v.4l.2.4.2.3.3.2s.4.1.4.2h.2.2c.1 0 .3 0 .4-.1.1 0 .2-.1.4-.2.1-.1.2-.2.3-.2l.2-.3c0-.1.1-.1.1-.2s.1-.1.1-.2v-.2-.2-.2-.2c0-.2-.1-.4-.3-.5-.1-.2-.2-.3-.4-.4-.2-.1-.4-.2-.6-.2h-.6c-.1.1-.2.1-.4.2s-.4.3-.5.5c-.1.1-.1.2-.2.4-.1.3-.1.5 0 .8 0-.1 0-.3-.1-.4 0-.1 0-.3.1-.4.1-.1.1-.2.2-.4.1-.1.2-.2.2-.3.1-.1.2-.2.3-.2.1-.1.2-.1.4-.2.1 0 .3 0 .4-.1.1 0 .3 0 .4.1.1.1.2.1.4.2.1.1.2.2.3.2.1.1.2.2.2.3.1.1.1.2.2.4 0 .1 0 .3.1.4 0 .1 0 .3-.1.4.1-.2.1-.4 0-.6 0-.2-.1-.4-.2-.6-.1-.2-.2-.3-.4-.4-.1-.1-.3-.2-.5-.3-.1 0-.3 0-.4-.1-.3 0-.5.1-.8.2-.1.1-.2.2-.3.2-.1.4-.2.6-.3.9zM149.9 144.9c1.9 0 1.9-3 0-3s-1.9 3 0 3zM147.1 149h.2c.2 0 .4 0 .6-.1.2-.1.3-.2.5-.3.1-.1.2-.3.3-.5.1-.2.1-.4.1-.6 0-.1 0-.3-.1-.4-.1-.3-.2-.5-.4-.7-.1-.1-.2-.2-.3-.2-.2-.1-.5-.2-.8-.2h-.2c-.2 0-.4 0-.6.1-.2.1-.3.2-.5.3-.1.1-.2.3-.3.5-.1.2-.1.4-.1.6 0 .1 0 .3.1.4.1.3.2.5.4.7.1.1.2.2.3.2.3.1.5.2.8.2zM140.5 145.2c.1.1.1.2.2.3.1.2.2.3.4.4.1.1.3.2.5.3.2.1.4.1.6 0 .2 0 .4-.1.6-.2.1-.1.2-.2.3-.2.2-.2.3-.4.4-.7 0-.1 0-.3.1-.4 0-.3-.1-.5-.2-.8-.1-.1-.1-.2-.2-.3-.1-.2-.2-.3-.4-.4-.1-.1-.3-.2-.5-.3-.2-.1-.4-.1-.6 0-.2 0-.4.1-.6.2-.1.1-.2.2-.3.2-.2.2-.3.4-.4.7 0 .1 0 .3-.1.4 0 .4.1.6.2.8z" />
	</g>
	<g>
		<path class="madness_1"
			d="M84.1 168.2c1.5-.7 3-1.5 4.7-1.5 1.6 0 3.2.7 4.7 1.4 2.4 1.1 4.8 2.4 7.5 2 2.8-.3 4.4-2.8 6.7-4.1 2.6-1.4 5.7-1.9 8.6-1.4.9.2 1.3-1.3.4-1.4-2.8-.5-5.6-.3-8.2.8-1.2.5-2.4 1.1-3.4 2-1.4 1.1-2.5 2.5-4.3 2.7-3.2.4-6-1.8-8.9-2.8-3.1-1.1-5.7-.3-8.5 1.1-.9.3-.1 1.6.7 1.2z" />
	</g>
	<g>
		<path class="madness_1"
			d="M85.9 177.3c3.1-1.6 6.5.2 9.4 1.5 2.6 1.2 5.3 2.1 8.2 1.4 5.6-1.3 10.7-8.3 16.8-5.8.7.3 1.3-.8.7-1.3-.3-.2-.5-.5-.8-.7-.7-.6-1.8.4-1.1 1.1.3.2.5.5.8.7.2-.4.5-.8.7-1.3-6.5-2.7-11.5 4.1-17.2 5.7-6.5 1.8-11.9-6-18.4-2.7-.7.5.1 1.8.9 1.4z" />
	</g>
	<g>
		<path class="madness_1" d="M99.7 161.6v20.2c0 1 1.5 1 1.5 0v-20.2c0-1-1.5-1-1.5 0z" />
	</g>
</svg>