<svg xmlns="http://www.w3.org/2000/svg" viewBox="0 0 200 200">
	<style>
		.mobster_0 {
			fill: #666
		}

		.mobster_1 {
			fill: #333340
		}

		.mobster_2 {
			fill: #fff
		}

		.mobster_3 {
			fill: #e7f4df
		}

		.mobster_4 {
			fill: none;
			stroke: #e7f4df;
			stroke-miterlimit: 10
		}
	</style>
	<path class="mobster_0"
		d="M149.7 106.2c-1-4.9-2-9.2-3.2-14.1-.2-.5-.4-1.1-.5-1.6-.1-.6-1 .9-1 .4-.2 0 .5-2.1.4-2.1 0-.1-1.8-.1-1.8-.2-1.1-4.7-.3-3.5-2.2-7.9.7-3.2 3.9-8.1 4.2-11.3.4-3.7 5.9-6.1 3.9-9.4-.8-1.4-2.1-2.5-3.6-3-2-.6-13.5 3.7-15.2 4.6-3.5 1.8-8.5-5.5-11.7-3.2-15.8-7.5-48.2-1.6-64.6 4.6-1.4-1.2-10.9-1-12.6-1.8-1.8-.9-4-1.7-6-1-1.3.5-2.5 1.5-2.8 2.9-.2.7-.2 1.4-.3 2.2-.3 2.8 11.2 14.9 9.1 21.2h-.6c-.1.4-.2.8-.4 1.1-.1.2-.2.5-.3.7-.4.8-2.4 3.8-2.5 4.6.1 4-5.4 22.9-5.3 23.2.1.3 4.5 24.8 13.9 37-.1.3-.2.6-.2.8-.5 1.6-1 3.2-1.3 4.9-.2 1.7-.4 3.7-.2 5.5.2 1.8 1.6 2.7 3.3 3 3.5.6 6.8-.8 9.8-2.6l2.7-1.8c16.7 6.7 37.1 10.4 54 2.6.1 0 .3-.1.4-.2.8-.5 2.2-.2 3.1 0 1.3.3 2.4 1.1 3.6 1.8 2.8 1.6 6.2 4.1 9.6 2.6 3.1-1.4 3.9-5.2 3.7-8.3-.1-1-.3-2.1-.5-3.1 2.3-2.8 4.8-5.3 6.8-8.3 2.2-3.3 4-7.2 5.5-10.9 2.6-6.4 6-23.3 5.2-26.4-1-.5-2.2-5.5-2.4-6.5z" />
	<path class="mobster_1"
		d="M152.3 111.6c-.5-2.6-1.4-5.3-2.7-7.6-1.4-2.6-3.9-2.5-6.5-2.1-5.9.8-11.4 3.2-16.2 6.8-.5.4-.6.9-.5 1.3-2.3 3.1-4.3 6.4-5.8 10-.4 1-.8 2.1-1.2 3.1-.1.3-.2.8-.5 1-.3.3-1 .2-1.4.4-.9.4-1.5 1.1-2.1 1.8-.9 1-1.7 2-2.6 2.9-6.4 7.4-12.1 15.3-17.2 23.6-2.9 4.7-5.6 9.6-8 14.6-.4.9-.1 2 .9 2.3 8.9 2.5 18.6-.5 27.1-3.1 6.4-2 13.2-5.5 16.1-11.7.7 1 1.4 1.9 2.2 2.8.5.6 1.7.7 2.2 0 6.9-8.5 12.4-18.5 15.3-29.1 1.6-5.5 2.1-11.3.9-17zM83 165.4c-.8-.2-1.5-.4-2.3-.6-1.4-.7-2.6-2.2-3.5-3.5-1.6-2.3-3-4.8-4.4-7.2-2.9-5.2-4.4-10.6-6.6-16.1-2.2-5.4-3.4-11.5-5.1-17.1-1.6-5.5-5.2-10.4-8.5-15.1-3.3-4.7-7.8-8-13.6-9.1h-.6c-.2-.2-.4-.3-.6-.4-.7-.2-1.8.3-1.9 1.1-.8 6.1-3.4 11.7-4 17.8-.3 3 1.2 6.6 1.2 9.6 0 2.7.7 5.2 2.1 7.6 1.3 2.3-.9 9.6 2.1 9.8 2.7.2 4.1 2 4.9 4.6.8 2.6 2.3 3.8 4.9 4.4 2.9.7 5.7 1.5 8.5 2.5 2.5.9 5.6 1.7 7.6 3.6 1.1 1.1 2.2 4.1 0 4.8-1.7.5-1.3 3 .4 3.1 5.5.4 11 1.2 16.4 2.6.8.3 1.7.5 2.6.6 1.8.1 2.1-2.6.4-3z" />
	<path class="mobster_2"
		d="M124.4 106.8c-13.5 4.5-25.8 14.7-28.3 29.3-.7 4.1-.6 8.2.5 12.1.5 1.9 3.5 1.1 3-.8v-.2c.1 0 .3 0 .4-.1.3-.1.5-.2.7-.4l.3-.3s.1 0 .1.1c.8.5 1.6.1 2.1-.6 8.9-11.5 16.6-23.9 23-36.9.5-1-.4-2.6-1.8-2.2zM94.1 152.1c-3.7-2.8-8.3-3.5-12.5-5.1-3.7-1.4-7.6-4-7.7-8.3-.1-2.6.8-5 1.5-7.4.7-2.4 1.5-4.8 2.2-7.3.7-2.3 1.2-4.8.4-7.1-.7-2-2.2-3.4-3.8-4.6-1.8-1.2-3.8-2.2-5.7-3.1-1.9-.9-4.4-2.1-6.6-1.9-2.4.2-3 2.6-3 4.6-.1 2.4.6 4.8 1.5 7.1 3.8 9.8 7.7 19.6 11.8 29.3 1.9 4.4 4 8.7 7.2 12.3.8.9 1.6 1.7 2.5 2.5.8.7 1.8 1.6 2.9 1.7v.1c0 .1 0 .3.1.4.1.3.2.5.4.7l.3.2c.2.1.5.2.8.2h.6c.2 0 .4 0 .6-.1.2-.1.4-.2.5-.3.2-.1.3-.3.3-.5 0-.1.1-.2.1-.2 3-3.2 5.2-7 6.5-11.2 0-.9-.3-1.5-.9-2z" />
	<path class="mobster_3"
		d="M59.7 165.4c13.8 5.4 29.6 8.5 44.3 5.7 4.1-.8 8-2.1 11.7-3.9 1.7-.9.2-3.4-1.5-2.6-8.1 4-17.2 4.9-26.1 4.3-9.4-.7-18.8-3-27.6-6.4-1.8-.7-2.6 2.2-.8 2.9z" />
	<path class="mobster_3"
		d="M45.9 151.7c.3.5 0 1.6 0 2.2-.1.9-.4 1.8-.6 2.7-.5 1.7-1 3.3-1.3 5.1-.3 1.8-.5 4-.1 5.8.3 1.7 1.8 2.5 3.4 2.8 3.6.6 7-.9 10-2.8 3.1-2 5.9-4.3 8.5-6.8 1.4-1.3-.7-3.5-2.1-2.1-2.3 2.3-4.8 4.3-7.5 6.1-2.4 1.6-5.4 3.3-8.4 2.7-.4-.1-.8-.1-1-.5-.2-.6 0-1.8 0-2.4 0-1.7.3-3.3.8-4.9.4-1.5 1-3.1 1.2-4.7.2-1.4.5-3.2-.3-4.5-1-1.9-3.6-.4-2.6 1.3zM115.8 167.2c.9-.6 2.2-.3 3.2-.1 1.4.3 2.5 1.1 3.7 1.8 2.8 1.6 6.2 4 9.6 2.6 3.3-1.3 4.2-5.3 3.8-8.5-.4-3.8-1.6-7.4-2.6-11.1-.5-1.9-3.4-1.1-2.9.8.5 1.8.9 3.6 1.4 5.3.4 1.6.9 3.3 1.1 5 .2 2.4-.3 6.3-3.5 5.8-3-.5-5.4-2.9-8.1-4-2.1-.9-5.2-1.6-7.3-.2-1.6 1.1-.1 3.7 1.6 2.6zM42.2 82c-1.7-1.6-2.9-3.7-4-5.7-1.3-2.3-2.5-4.6-3.6-7-.4-.8-.8-1.8-1.1-2.5-.2-.4-.5-1-.6-1.4-.2-1.2 1.7-1.9 2.7-2.1 1.9-.3 3.8-.3 5.7-.3 4.2 0 8.2.8 12.2 2 1.9.5 2.6-2.3.8-2.9-4-1.2-8.1-2-12.2-2.1-2.2 0-4.3 0-6.5.3-2 .3-4 1-5 2.8-1.2 2.1-.3 3.8.6 5.7 1.1 2.5 2.3 5 3.6 7.4 1.5 2.7 3.1 5.6 5.3 7.7 1.3 1.6 3.4-.6 2.1-1.9zM128.1 62.7c.4 1.7.5 3.6 1.7 5 1.5 1.8 4.7 1.9 6.6.6 1.2-.8 2.2-2 3.4-2.9 1-.8 2.2-1.9 3.5-2.3 1.9-.5.7 2.2.5 3-.6 1.6-.9 3.3-1.4 4.9-.5 1.8-.9 3.6-1.1 5.5-.1 1.3-.2 2.9.6 4 .5.8 1.8.1 1.3-.8-.7-1-.5-2.5-.4-3.6.2-1.7.7-3.4 1.1-5 .4-1.6.8-3.3 1.4-4.9.4-1.2 1.1-2.7.2-3.9-1.8-2.4-5 .6-6.5 1.8-.5.4-1 .8-1.5 1.3-.6.5-1.1 1.1-1.7 1.6-1 .7-2.8.8-3.9.3-1.8-.9-1.8-3.4-2.2-5.1-.4-.9-1.8-.5-1.6.5z" />
	<path class="mobster_3"
		d="M53.8 63.8c-.5.8-.7 1.8-1.1 2.6-.2.4-.4.9-.8 1.1-.6.3-1.4.3-2.1.3-3-.2-5.9-1-8.9-1.4-1.6-.2-4.4-.4-4.9 1.6-.3 1 .2 2.1.6 3 .5 1.1 1.1 2.2 1.5 3.4 1 2.9 1.8 5.8 3 8.6.4.9 1.7.1 1.3-.8-1.4-3.1-2.1-6.4-3.4-9.6-.5-1.2-1.3-2.4-1.6-3.6-.3-1.6 1.7-1.3 2.8-1.2 1.7.2 3.5.5 5.2.8 1.6.3 3.3.7 4.9.6 1.3 0 2.6-.4 3.3-1.5.6-1 .8-2.2 1.4-3.2.6-.8-.7-1.5-1.2-.7z" />
	<path class="mobster_3"
		d="M37.1 66.7c-1.6-.7-3-1.8-4-3.1-.1-.2-.3-.2-.5-.1s-.3.4-.1.5c1.1 1.5 2.6 2.7 4.3 3.4.2.1.4.1.5-.1 0-.3-.1-.5-.2-.6zM39.3 66.7c-1.4-1.4-2.8-2.9-4.2-4.3-.3-.3-.9.2-.5.5 1.4 1.4 2.8 2.9 4.2 4.3.3.4.8-.2.5-.5zM41.4 66.5c-1.2-1.2-2.2-2.6-3-4.1-.2-.4-.9-.1-.6.4.8 1.6 1.8 3 3.1 4.2.3.4.8-.2.5-.5zM43.9 67.2c-1.3-1.6-2.5-3.2-3.5-5-.2-.4-.9 0-.6.4 1.1 1.8 2.3 3.5 3.6 5.2.3.3.8-.2.5-.6zM46.3 67.7c-1.3-1.4-2.3-3.1-2.9-4.9-.2-.5-.9-.3-.7.2.7 1.9 1.7 3.7 3.1 5.2.3.4.9-.2.5-.5zM48.4 67.9c-1.2-1.4-2-3-2.4-4.7-.1-.5-.8-.3-.7.2.5 1.9 1.4 3.6 2.6 5 .3.4.8-.1.5-.5zM50.4 68.3c-.9-1.4-1.5-2.9-1.9-4.6-.1-.5-.8-.3-.7.2.3 1.7 1 3.3 1.9 4.7.3.5.9.1.7-.3zM51.6 67.8c-.7-1.4-1.2-2.9-1.4-4.5 0-.2-.2-.4-.4-.4s-.4.2-.4.4c.2 1.7.7 3.4 1.5 4.9.2.4.9 0 .7-.4zM36.7 68.9c-1.6-.6-3.3-1.1-4.9-1.7-.5-.2-.7.6-.2.7 1.6.6 3.3 1.1 4.9 1.7.5.2.7-.5.2-.7zM37.7 71.5c-1.2-.2-2.3-.6-3.4-1-.2-.1-.4-.1-.5.1-.1.2-.1.4.1.5 1.1.5 2.3.9 3.5 1.1.2 0 .4-.1.5-.3.1-.1 0-.3-.2-.4zM39.2 74c-1.2-.4-2.3-.7-3.5-1.1-.5-.1-.7.6-.2.7 1.2.4 2.3.7 3.5 1.1.5.2.7-.5.2-.7zM39.7 76.2c-1.6-.2-3.2-.5-4.8-1-.5-.1-.7.6-.2.7 1.6.5 3.3.8 5 1 .2 0 .4-.2.4-.4-.1-.1-.2-.2-.4-.3zM139.9 64.4c.4-2.1.6-4.2.7-6.3 0-.5-.7-.5-.8 0-.1 2-.3 4.1-.7 6.1 0 .5.7.7.8.2zM138.3 66.1c.2-2.4.4-4.9.4-7.3 0-.5-.7-.5-.8 0 0 2.4-.2 4.9-.4 7.3 0 .5.8.5.8 0zM136.9 67.5c0-2.7.1-5.4.1-8.1 0-.5-.7-.5-.8 0 0 2.7-.1 5.4-.1 8.1 0 .5.8.5.8 0zM135.5 67.8v-6.7c0-.5-.8-.5-.8 0v6.7c.1.5.8.5.8 0zM133.6 67.8c-.3-2.1-.4-4.3-.4-6.4 0-.5-.7-.5-.8 0 0 2.1.1 4.3.4 6.4.1.5.9.5.8 0zM131.5 66.4c-.5-1.3-.5-2.6-.1-3.9.1-.5-.6-.7-.7-.2-.5 1.4-.4 2.9.1 4.3.1.2.3.3.5.3.1-.1.2-.3.2-.5zM145.5 64.9c.6-.7 1.1-1.4 1.7-2.1.1-.2.2-.4 0-.5-.1-.1-.4-.2-.5 0-.6.7-1.1 1.4-1.7 2.1-.1.2-.2.4 0 .5.1.1.3.2.5 0zM144.7 67.6c.7-.9 1.7-1.7 2.7-2.2.2-.1.3-.2.3-.5 0-.2-.3-.3-.5-.3-1.3.5-2.4 1.4-3.2 2.5-.1.2 0 .4.1.5.3.3.5.2.6 0zM143.7 71.5c.6-1.2 1.7-2.2 3-2.7.2-.1.3-.3.3-.5-.1-.2-.3-.3-.5-.3-1.5.5-2.7 1.6-3.4 3-.1.2-.1.4.1.5.1.3.4.2.5 0zM143.2 74.5c1-1.1 2.1-2.1 3.3-3 .2-.1.2-.3.1-.5s-.4-.3-.5-.1c-1.2.9-2.4 2-3.4 3.2-.1.2-.1.4 0 .5.1.1.3.1.5-.1zM52.6 66.8c-.3-1-.6-2.1-.7-3.1 0-.2-.2-.4-.4-.4s-.4.2-.4.4c.1 1.1.3 2.2.7 3.3.1.2.3.3.5.3.3-.1.4-.3.3-.5zM65.4 85.4c-.2.4-.3 1-.1 1.4.3.5.9.6 1.3.3.2-.2.4-.4.5-.6.1-.2.2-.5.2-.8 0-.6-.5-.9-1-1.1-.3-.1-.7 0-.9.2-.2.2-.3.5-.3.9 0 .3.6.4.7.1.2-.5.4-1 .1-1.6-.3-.5-1-.5-1.3-.1-.2.2-.3.5-.3.8-.1.3-.1.6 0 .9.2.5.6.8 1.1.8.6 0 1.1-.4 1.4-.9.1-.2 0-.6-.3-.6-.4.1-.8.3-1 .7-.2.4.3.7.6.5.4-.4.6-.8.7-1.3v-.9-.1c-.1.1-.1.2 0 .1.1 0 .2 0 .3.1.3.2.8.5.6.9-.1.2-.3.4-.4.5-.1.1-.1.1-.2.1H67v.4c0-.1 0-.1.1-.1H67.4c-.1 0 0 0 0 0 .1 0 0 0 0 0 .2.1.2.3.2.6 0 .1-.1.2-.1.3-.1.1-.1.1-.2.1s-.2 0-.3-.1c-.1-.1-.2-.2-.2-.3-.1-.2-.3-.3-.5-.3s-.3.3-.3.5c.2.5.7 1 1.3 1 .6 0 1-.5 1.1-1 .1-.5-.1-1.1-.6-1.4-.5-.2-1.1-.1-1.3.5-.5-.2-.5 0-.5.1.2.2.4.4.8.4.3 0 .6-.2.8-.4.4-.4.8-1 .6-1.6-.2-.5-.7-.9-1.2-1.1-.3-.1-.6-.1-.9.1-.1.1-.2.3-.3.4 0 .1 0 .3.1.4.1.5-.1 1.1-.5 1.4.2.2.4.3.6.5.1-.1.2-.3.4-.3l-.3-.6c-.2.3-.4.5-.7.5-.1 0-.2 0-.3-.1-.1-.1-.2-.2-.1-.4 0-.2.1-.4.1-.6 0-.1.1-.1.1-.2h.1V84.7c0 .2-.1.4-.2.6.2 0 .5.1.7.1 0-.1.1-.1.1-.1.2 0 .4.1.5.1.1 0 .1.1.1.2 0 .2-.1.3-.2.5-.1.1-.1.3-.3.4-.1 0-.1.1-.2 0s-.1-.2-.1-.3c0-.1.1-.3.1-.4.1-.2.1-.4-.1-.5 0-.1-.2-.1-.3.1z" />
	<path class="mobster_3"
		d="M65.5 84.6v-.1s0 .1 0 0v-.1-.1-.1c0-.1 0 0 0 0 0-.1.1-.1.1-.2s-.1.1 0 0l.1-.1s-.1.1 0 0h.1c.1 0 0 0 0 0h.4c.1 0-.1 0 0 0 0 0 .1 0 .1.1.2.1.4 0 .5-.1.1-.2 0-.4-.1-.5-.4-.3-1-.3-1.4.1-.4.3-.6.8-.6 1.2 0 .2.2.4.4.4.2-.1.4-.3.4-.5zM64.9 85.4c-.2.4-.3.9-.1 1.3.1.2.2.5.5.6.3.2.5.2.8.1.3 0 .5-.2.8-.3.2-.1.2-.3.1-.5s-.3-.2-.5-.1c-.1 0-.1.1-.2.1h-.1-.1c.1 0 .1 0 0 0H66 65.7h-.1-.1s.1 0 0 0c-.1-.1 0 .1 0 0v-.1-.1c0-.1 0 .1 0 0v-.1-.1c0 .1 0 0 0 0V86c0-.1 0 .1 0 0v-.1-.1s.1-.1 0 0c0 0 0-.1.1-.1.1-.2 0-.4-.1-.5-.3 0-.5.1-.6.2zM67 85.1c.1-.2.2-.3.2-.5v-.1-.1s0-.1-.1-.1l-.1-.1c-.1 0-.2-.1-.3 0-.1 0-.2.1-.2.2-.1.2-.2.3-.2.5v.2s0 .1.1.1l.1.1c.1 0 .2.1.3 0l.2-.2zM111.7 85.8c-.2-.3-.5-.4-.8-.3-.3.1-.5.3-.7.5-.2.3-.3.6-.1.9.2.2.5.4.8.4.3 0 .6-.2.7-.4.2-.2.3-.5.3-.9.1-.5-.1-1.1-.7-1.2.1.2.1.5.2.7.4-.2.8-.4 1.2-.5.2 0 .3 0 .5.1.1.1.2.3.2.5v.4c-.1.1-.2.1-.3.2-.3 0-.6-.2-.6-.4h-.7c0 .3 0 .6.1.9.1.3.2.5.4.7.4.3 1.1.2 1.3-.3.1-.2-.1-.5-.4-.5-.3 0-.6 0-.9.1-.3.1-.6.2-.7.5-.1.3.1.6.3.7.2.1.5.1.8.1.5 0 1.1-.1 1.3-.6.2-.5-.1-1.1-.6-1.3-.3-.1-.6-.2-.9-.2-.1 0-.3-.1-.4 0h-.2-.1 0c.1 0 .1.1.2.1.1.1 0 .3.1.2 0 0 0-.1.1-.1.1-.1.1-.2 0-.4 0-.2-.2-.3-.3-.4-.2-.1-.3-.1-.5-.1s-.4.1-.6.1c.1.2.2.3.3.5.1-.4.2-.8.6-1 .4-.2.7.1 1 .3.2.1.4.2.5 0 .1-.1.2-.4 0-.5-.2-.2-.5-.4-.8-.5-.3-.1-.7-.1-1 0-.6.3-.9.9-1.1 1.5 0 .2.1.4.3.5h.9s0-.1-.1-.1v-.1s-.1.1-.1.2c-.1.3 0 .6.4.7.1 0 .3 0 .4-.1h.2c.3 0 .9.1 1.1.5v.1l-.1.1c-.2.1-.4.1-.6.1h-.2-.1v.2l.2-.1h.7c-.1-.2-.2-.3-.4-.5V87s.1 0 0 0c0 0-.1 0 0 0h-.1c.1 0 0 0 0 0s0-.1-.1-.1c-.1-.2-.1-.3-.1-.5s-.1-.4-.1-.6c-.1-.4-.8-.3-.7.1 0 .5.4.9.9 1.1.4.2 1 .1 1.3-.3.4-.4.4-1 .2-1.4-.2-.5-.6-.8-1.2-.8s-1.2.3-1.7.6c-.3.2-.2.7.2.7l-.1-.1v.1s0 .1 0 0v.2c0 .2 0 .5-.2.6h-.2c-.1 0 0 0 0 0s0 .1 0 0c.1-.1.1-.2.2-.2 0 0 .1-.1.1 0 .1 0 0 0 0-.1.1.2.3.2.5.1 0-.1.1-.4 0-.6z" />
	<path class="mobster_3"
		d="M111.4 85.5c.3-.2.7-.3 1-.4H113.3c.1 0 .1.1.2.1-.1 0 0 0 0 0l.1.1c0-.1 0 0 0 0 0 .1 0-.1 0 0 0 0 0 .1 0 0v.1c0 .1 0-.1 0 0v.1c0-.1 0 0 0 0s-.1.1 0 0c0 0-.1.1 0 .1h-.1s-.1 0 0 0c-.2 0-.4.2-.4.4s.2.4.4.4c.4 0 .8-.3.9-.8.1-.5-.1-.9-.5-1.1-.9-.6-1.9-.2-2.8.2-.2.1-.2.3-.1.5 0 .4.2.4.4.3zM78.9 89.1c.4 1.1.8 2.1 1.2 3.2.4 1.1.7 2.3 1.7 2.9 2.5 1.5 5.7-1.4 7.3-3.2-.4-.1-.8-.1-1.2-.2 1.8 2.4 4.2 6.8 7.7 4.4.9-.6 1.5-1.6 2.1-2.5.6-1 1.2-2.1 1.8-3.1.5-.8-.8-1.6-1.3-.8-.9 1.5-1.7 3.3-2.8 4.6-2.4 2.9-4.9-1.7-6.2-3.4-.3-.3-.8-.6-1.2-.2-.6.8-1.4 1.5-2.2 2.1-.6.4-1.2.8-1.9 1-.6.1-1.3 0-1.6-.2l-.1-.1c-.1-.2-.2-.4-.2-.6-.2-.6-.5-1.1-.7-1.7-.3-.8-.7-1.7-1-2.5-.3-.9-1.8-.5-1.4.3zM116.4 95.9c4.6-1.1 9.4-1.6 14.2-1.5 1 0 1-1.5 0-1.5-4.9-.1-9.8.4-14.6 1.5-.9.3-.5 1.8.4 1.5zM118.2 99.8c3.6.4 7.2.8 10.8 1.3.4 0 .7-.4.8-.8 0-.4-.3-.7-.8-.8-3.6-.4-7.2-.8-10.8-1.3-.4 0-.7.4-.8.8.1.5.4.7.8.8zM66.3 94.9c-5-1.9-10.2-3.2-15.5-3.9v1.5h.5c1 .1 1-1.4 0-1.5h-.5c-1-.1-.9 1.4 0 1.5 5.2.7 10.3 2 15.1 3.9.9.3 1.3-1.2.4-1.5zM64.2 98.9c-3.1.1-6.2.3-9.3.4-1 0-1 1.5 0 1.5 3.1-.1 6.2-.3 9.3-.4 1 0 1-1.5 0-1.5zM135.1 160.8c6.7-9.3 13.8-18.6 17.4-29.6 2.2-6.8 2.4-14.1 1.4-21.2-.4-2.6-.8-5.2-1.7-7.7-.9-2.6-1.8-5.2-2.8-7.7-1.2-3-2.4-6.1-3.5-9.1-.4-.9-.7-1.8-.7-2.8 0-1.4-.3-2.6-.9-3.9-.8-1.8-3.3-.2-2.6 1.5.4 1 .5 1.8.5 2.8.1 1.1.4 2.1.8 3.1.9 2.4 1.8 4.8 2.7 7.1 1.8 4.8 3.8 9.5 4.8 14.5 1.3 6.8 1.5 13.9-.2 20.6-1.7 6.5-5.1 12.5-8.7 18.1-2.8 4.5-6 8.7-9.1 12.9-1.1 1.5 1.5 3 2.6 1.4zM47.8 153.6c-4.4-5.4-8.5-11.3-11.2-17.7-2.7-6.3-3.9-13.1-3.8-19.9 0-1.9.1-2.9.5-4.5.5-2.1 1-4.2 1.6-6.3 1.1-3.7 2.2-7.5 3.4-11.2.5-1.7 1.3-3.3 1.9-4.9.1-.3.2-.6.3-.8.1-.4-.1.1.1-.1.1-.1.1-.3.2-.4.6-1.2 1.4-2.4 2.1-3.6 1-1.7-1.6-3.2-2.6-1.5-1 1.7-2.1 3.3-2.8 5.1-.6 1.6-1.3 3.3-1.9 4.9-1.2 3.5-2.2 7.1-3.2 10.6-1 3.6-2.3 7.3-2.4 11-.3 7.1.6 14.2 3.1 20.8 2.9 7.7 7.5 14.4 12.7 20.7 1.1 1.4 3.2-.8 2-2.2zM97.9 153.1c-.6-8.2 0-16.5 3.1-24.2 2.9-6.9 7.8-13 14.4-16.8 3.5-2 7.4-3.2 11.5-3.4-.4-.9-.7-1.7-1.1-2.6-5.2 4.6-8.2 11.2-8.4 18.1 1-.1 2-.3 2.9-.4-1.6-6.7-9.4-9.8-15.1-6-1.6 1.1-.1 3.7 1.5 2.6 4.2-2.7 9.6-.6 10.7 4.2.4 1.7 2.9 1.3 2.9-.4.2-6.1 2.9-11.9 7.5-16 1-.9.2-2.6-1.1-2.6-7.9.4-15.1 4.1-20.6 9.7-5.9 6.1-9.5 14.2-10.9 22.5-.8 5-.9 10.1-.5 15.1.3 2.1 3.3 2.1 3.2.2z" />
	<path class="mobster_3"
		d="M89.5 168c8.1-15.3 17.5-29.8 28.2-43.5 1.2-1.5-.9-3.6-2.1-2.1A297.04 297.04 0 0087 166.5c-1 1.7 1.6 3.2 2.5 1.5z" />
	<path class="mobster_2" d="M126.8 108.1c5.4-4.9 12.8-7.8 20.1-7.7" />
	<path class="mobster_3"
		d="M127.9 109.2c5.2-4.7 12-7.3 19-7.3 1.9 0 1.9-3 0-3-7.8 0-15.4 2.9-21.2 8.1-1.4 1.4.8 3.5 2.2 2.2zM95.3 150.6c-2.7-2.9-6.5-3.7-10.3-4.4-3.3-.5-7.3-1-9.2-4.1-2.9-4.8.4-10.8 1.7-15.5 1.4-5.1 1-10.1-2.7-14.1-4-4.4-10.1-5.5-15.8-4.7-1.3.2-1.3 1.7-.7 2.5 3.5 4.5 6.3 9.5 8.4 14.8.6 1.4 3.1 1.4 2.9-.4-.2-2.7 1.8-5.4 4.6-5.6 1.9-.1 1.9-3.1 0-3-4.3.3-8 4.2-7.6 8.6 1-.1 2-.3 2.9-.4-2.2-5.8-5.3-11.2-9.1-16.1-.2.8-.4 1.7-.7 2.5 4.8-.7 10.2.5 13.3 4.5 3.5 4.4 1.8 9.6.2 14.4-1.5 4.5-2.9 9.8-.1 14.2 2 3.1 5.4 4.3 8.8 5 3.8.7 8.2.9 11 4 1.6 1.3 3.7-.8 2.4-2.2z" />
	<path class="mobster_3"
		d="M37.5 97.9c5.9-.8 11.1 3.4 14.5 7.7 3.9 5 6.5 11 8.6 17 4 11.5 6.4 23.6 12.9 34 3.4 5.4 7.8 10.2 13.4 13.4 1.7.9 3.2-1.6 1.5-2.6C77.9 161.5 72.6 150 69 139c-4-12.2-6.7-25.6-15-35.8C49.7 98 43.6 94 36.7 95c-1.9.2-1.1 3.1.8 2.9zM89.1 125.1c.3-.6.7-1.4 1.4-1.7.7-.3 1.5-.1 2 .4 1.2 1 1.2 3.1 1.2 4.5 0 .8-.2 1.6-.8 2.1-.5.5-1.3.7-2 .5-1.5-.4-2.1-2.6-.7-3.5.6-.4 1.6-.3 2 .3.4.6.1 1.5-.6 1.7-.5.1-.3.9.2.7.8-.3 1.4-1.1 1.3-2-.1-.9-.8-1.6-1.7-1.8-2.2-.4-3.4 2.2-2.4 3.9 1.1 1.8 3.8 1.8 4.9 0 .5-1 .6-2.1.5-3.2-.1-1.1-.2-2.3-.8-3.2-.6-.9-1.6-1.5-2.7-1.4-1.2.2-1.9 1.3-2.4 2.2-.3.5.4.9.6.5zM87.2 140.4c-.2-1.1.9-2.1 2-2.1s2.1 1 2.3 2.1c.2 1.2-.4 2.5-1.4 3.1-.4.2-.9.5-1.4.3-.2-.1-.3-.3-.4-.6-.1-.3-.1-.7 0-1.1.1-.6.4-1.4 1.2-1.4.4 0 .8.6.4.9-.4.3.2.8.5.5.5-.5.4-1.4-.1-1.8-.6-.6-1.6-.4-2.1.2-.7.6-.8 1.6-.7 2.5 0 .4.1.9.5 1.2.3.2.6.4 1 .4 1.6.1 2.9-1.6 3.2-3.1.3-1.6-.6-3.4-2.3-3.9-1.8-.5-3.7 1.1-3.5 3 0 .2.3.3.5.3.2-.1.3-.3.3-.5zM77.8 136.4c.4-.3.7-.7.9-1.2.2-.3.4-.8.8-1 .6-.2 1 .4 1.3.8.4.6.7 1.4.8 2.1.1.6 0 1.3-.4 1.9-.3.4-.8.8-1.4.7-1.3 0-2-2-1.2-2.9.3-.4 1.1-.7 1.5-.3.3.3.3 1-.1 1.2-.4.2 0 .9.4.6.6-.4.8-1.1.6-1.8-.3-.7-1-1.1-1.7-1-.8.1-1.4.7-1.7 1.5-.3.9 0 1.8.5 2.5s1.3 1.1 2.2.9c.8-.2 1.4-.8 1.8-1.5.4-.9.3-1.9.1-2.8-.3-.8-.6-1.7-1.3-2.3-.7-.6-1.6-.6-2.2.1-.5.5-.6 1.4-1.2 1.8-.5.3-.1 1 .3.7zM78.8 127.5c-.2-.4.1-.8.4-1 .4-.3 1-.1 1.4.3.9.8.8 2.4.6 3.5-.1.5-.2 1.1-.6 1.4-.4.3-.8 0-1-.4-.4-.6-.7-1.7-.2-2.4.2-.3.5-.2.6.1.2.4.1.9-.1 1.3-.2.5.6.7.7.2.2-.6.3-1.2 0-1.8-.2-.6-.8-.9-1.4-.7-.6.2-.8.9-.9 1.5-.1.7.1 1.3.4 1.9.3.6.8 1.1 1.4 1.1.8 0 1.3-.7 1.5-1.4.5-1.5.7-3.8-.6-5-.6-.5-1.6-.8-2.3-.3-.7.4-1 1.3-.6 2 .2.6.9.2.7-.3zM91.1 120c.5-.8 1-1.8 1.9-2.2.4-.2.8-.2 1.2-.1.4.2.6.5.8.8.3.7.4 1.8 0 2.5-.2.4-.5.6-1 .7-.3 0-.6-.1-.7-.5-.1-.2 0-.6.3-.6.2 0 .5.3.4.4-.1.2-.2.4 0 .5.1.1.4.2.5 0 .8-1-.7-2.3-1.6-1.4-.4.4-.4 1-.2 1.5s.8.8 1.4.8c1.5-.1 2-1.7 1.9-3-.1-1.2-.8-2.5-2.1-2.6-1.7-.2-2.7 1.4-3.4 2.7-.3.5.4.9.6.5zM84.6 132.4c-.2-.5.5-.9.9-.9.6 0 1.1.7 1.4 1.2.4.6.7 1.5.5 2.2-.1.4-.7 1.1-1.2.7-.2-.1-.3-.4-.2-.6.1-.3.4-.4.7-.2-.1-.1-.1-.2-.2-.3v.8c0 .5.8.5.8 0v-.8c0-.1-.1-.3-.2-.3-1-.5-2.1.3-1.7 1.4.1.4.5.8.9.9.5.1 1-.1 1.4-.4.9-.8.7-2.2.2-3.2-.4-.9-1-1.9-2.1-2.1-1.1-.2-2.2.9-1.7 2 .1.4.7 0 .5-.4zM83.7 119.2c0-.7.6-1.1 1.2-1.1 1 0 1.1 1.2 1 1.9 0 .6-.1 1.2-.1 1.8 0 .5 0 1.1-.2 1.7-.1.4-.4.9-.9.9-.5.1-.7-.4-.8-.8-.1-.5-.2-1.2.3-1.5.1-.1.4-.1.5 0 .1.1.1.3 0 .3-.4.2-.1.9.4.6.6-.3.6-1.1.2-1.5-.4-.5-1.2-.4-1.7 0-.6.5-.6 1.4-.4 2.2.2.7.6 1.3 1.3 1.3.7 0 1.4-.5 1.6-1.1.3-.8.3-1.6.3-2.4.1-1.3.5-3.5-1.1-4.1-1.2-.5-2.7.4-2.7 1.7.3.6 1.1.6 1.1.1zM143.8 80.9c1.4-3.2 2.9-6.5 4.1-9.8 1.2-3.5 2.9-7.8 1.6-11.5-.6-1.6-1.6-3-3.2-3.8-1.8-.8-3.8-.6-5.6-.1-4.2 1.1-8.4 2.8-12.4 4.5-1.2.5-.8 2.5.4 2.7.7.2 1.3.1 2-.3 1.7-.9.2-3.5-1.5-2.6h.3c.1.9.2 1.8.4 2.7 3.4-1.5 6.9-2.7 10.4-3.8 1.4-.4 3.2-1.1 4.7-.5 1.3.5 2 1.9 2.1 3.2.2 1.8-.4 3.6-.9 5.4-.4 1.5-.9 2.9-1.4 4.3-1 2.8-2.3 5.5-3.4 8.2-1 1.7 1.6 3.2 2.4 1.4z" />
	<path class="mobster_3"
		d="M144.6 62.8c1-1.8 1.8-3.8 2.3-5.8.1-.5-.6-.7-.7-.2-.5 2-1.3 3.9-2.3 5.6-.2.5.5.9.7.4zM143.4 62.9c.4-1.8.8-3.6 1.1-5.4.1-.5-.6-.7-.7-.2-.4 1.8-.8 3.6-1.1 5.4-.2.4.6.6.7.2zM141.7 63.3c.5-2 .8-4.1.8-6.3 0-.5-.7-.5-.8 0 0 2-.3 4.1-.8 6.1 0 .5.7.7.8.2z" />
	<path class="mobster_1"
		d="M143.4 43.6c-4.1-1.1-8.4-1.4-12.5-.8-2 .3-4.1.7-6 1.4-1.3.5-3.3 1.6-4.8 1.2-.8-.2-.7-1-.8-1.7-.1-.9-.2-1.8-.4-2.7-.3-1.6-.9-3.2-2-4.5-2.7-3.4-7.3-2.5-11.1-1.6-8.4 2-15.9 6.5-24.3 8.5-4.6 1.1-9.3 1.4-14 1.5-4.9.1-9.8-.1-14.6-.6-2.4-.2-4.8-.5-7.2-.9-.9-.1-2.1.4-2 1.5.4 3.3 1.7 6.2 3.7 8.6-5.3 2.2-18.8 9-12.3 14.2 1.5 1.2 3.4 1.6 5.2 2 2.2.5 4.4.8 6.7.9 4.6.3 9.2.1 13.7-.5 9.3-1.2 18.4-3.9 27.5-6.2 4.5-1.1 9-2.2 13.6-2.9 4.8-.7 9.6-.9 14.4-.9 8.9 0 18.1.5 26.5-2.9 3.2-1.3 7.9-3.2 8.4-7.2.6-4.3-4.5-5.6-7.7-6.4z" />
	<path class="mobster_3"
		d="M51.6 61.7c.1-3-.7-6.1-2.2-8.7-.7-1.1-1.5-2.2-2.3-3.2-.8-.8-2.3-2-1.9-3.3.4-1.2 1.9-1.7 3.1-1.7 1.7 0 3.4.7 5.1 1.2 3.3.9 6.8 1.4 10.2 1.5 6.9.2 13.8-1 20.3-3 6.7-2 13-5.1 19.5-7.5 3.2-1.2 7.1-2.3 10.4-.7 2.6 1.2 4.8 3.9 4 6.9-.5 1.9 2.4 2.7 2.9.8 1.9-6.6-5-11.6-11-11.4-3.9.1-7.5 1.6-11 3.1-3.6 1.5-7.2 3-10.9 4.4-7.2 2.6-14.6 4.5-22.3 4.5-3.9 0-7.8-.4-11.5-1.5-3.3-.9-7-2.3-10.1.1-1.3 1-2.1 2.5-2 4.2.2 1.8 1.4 3 2.6 4.3 2.6 2.7 4 6.3 3.9 10 .1 1.9 3.1 1.9 3.2 0z" />
	<path class="mobster_3"
		d="M48.4 53.6c-3.2.2-6.4.9-9.3 2.4-2.6 1.3-5.3 3.1-6.5 5.9-1.1 2.5-.9 5.8 1.2 7.7 2.2 1.9 5.4 2.3 8.2 2.7 13.9 1.9 27.7-1.9 41-5.4 6.6-1.7 13.3-3.4 20.2-4.1 6.5-.7 12.9-.3 19.4-.2 6 .1 12.2.1 18.1-1.5 5.2-1.4 12.3-4.3 13.2-10.4 1.2-7.6-8.2-9.3-13.7-9.8-7.2-.7-14.4.7-20.9 3.6-1.8.8-.2 3.4 1.5 2.6 5.3-2.4 11-3.5 16.8-3.4 2.8.1 5.5.4 8.2 1.1 2.1.5 4.7 1.5 5.2 3.9 1.1 5.5-7.1 8.4-11.1 9.5-5.2 1.4-10.6 1.5-16 1.4-5.6-.1-11.3-.5-16.9-.2-6 .3-11.9 1.4-17.8 2.8C77.2 65 65.4 69 53 69.6c-3.5.2-7 .1-10.5-.4-2.2-.3-6.5-.5-7.5-3-1.2-2.9 1.7-5.5 3.9-6.8 2.8-1.7 6.1-2.6 9.3-2.8 2.1-.1 2.1-3.1.2-3z" />
	<path class="mobster_3"
		d="M47.8 54.9c.5 1.7 2 2.3 3.6 2.5 2.4.3 4.9.1 7.3 0 5.4-.2 10.8-.6 16.2-1.3 10.7-1.4 21.2-3.7 31.5-7.1 2.9-1 5.9-2 8.7-3.2 1.5-.6 4.9-1.5 3.8-3.8-.4-.9-1.7-.1-1.3.8.3.6-11.8 4.8-13 5.1-4.5 1.4-9.1 2.7-13.7 3.8-9.2 2.1-18.6 3.4-28.1 3.9-2.6.1-5.1.2-7.7.2-1.5 0-5.4.6-6-1.5-.2-.8-1.6-.4-1.3.6z" />
	<path class="mobster_3"
		d="M48.7 59.3c9.6 2.9 19.7 1.1 29.3-.2 9.7-1.3 19.4-2.7 28.8-5.5 2.6-.8 5.1-1.6 7.6-2.6 2.4-.9 4.7-1.9 6.6-3.6.7-.6-.3-1.7-1.1-1.1-1.8 1.6-4 2.5-6.1 3.3-2.2.9-4.5 1.6-6.7 2.3-4.5 1.4-9.1 2.4-13.7 3.3-4.5.9-9.1 1.5-13.7 2.2-4.8.7-9.6 1.4-14.4 1.7-5.4.4-10.9.3-16.2-1.3-1-.3-1.4 1.2-.4 1.5z" />
	<g>
		<path class="mobster_0"
			d="M55.9 124.2c-.1-.5-.6-1-1.1-1.1h-.1c-.8-.2-1.4.1-1.7.7-.1 0-.2.1-.3.1-.3.1-.6.1-1 .2-.5.1-1 .1-1.5.1-1.2.1-2.5 0-3.7-.2-2.5-.4-5-1.1-7.4-1.8-1.2-.4-2.6 1.2-1.8 2.3 2.4 3.4 4.9 6.7 7.3 10.1.7.9 2 1.1 2.7 0 1.5-2.5 3.3-4.9 5.3-7.1.2-.2.3-.3.3-.5 1.6-.3 3.3-.9 3-2.8z" />
	</g>
	<g>
		<path class="mobster_3"
			d="M35.8 124.3c2.7 3.9 4.3 8.4 6.8 12.3.4.7.9 1.4 1.7 1.6 1.4.5 3.3.1 4.4-1 1.3-1.2 2.2-2.9 3.1-4.4 1.4-2.1 2.9-4.6 3.3-7.2.1-.8-.2-1.6-1-1.8-.7-.2-1.7.2-1.8 1-.3 1.9-1.4 3.6-2.3 5.3-.6 1-1.2 1.9-1.8 2.8-.2.4-.5.7-.8 1.1-.1.1-.2.3-.3.4 0 0-.1.2 0 0s-.1.1-.1.1c-.1.1-.2.3-.4.4-.1.1-.3.2-.5.2-.3.1-.8-.1-1 0l.2.1s.4.3.2.1c-.1-.1-.3-.4 0 0-.2-.3-.4-.5-.5-.8-1.1-1.8-1.9-3.6-2.9-5.4-1.1-2.2-2.3-4.5-3.7-6.6-.5-.7-1.3-1-2.1-.5-.7.6-1 1.6-.5 2.3z" />
	</g>
	<g>
		<path class="mobster_0"
			d="M138 122c-.3-.4-1-.6-1.5-.5h-.1c-.8.2-1.1.7-1.2 1.3-.1.1-.2.1-.2.2-.3.2-.5.4-.8.6-.4.3-.9.6-1.3.8-1.1.6-2.2 1.1-3.4 1.4-2.4.8-5 1.2-7.5 1.6-1.3.2-1.8 2.2-.6 2.8 3.7 1.9 7.3 3.9 11 5.8 1 .5 2.3.1 2.4-1.2.3-3 .8-5.9 1.7-8.7.1-.2.1-.4.1-.6 1.3-.7 2.5-2 1.4-3.5z" />
	</g>
	<g>
		<path class="mobster_3"
			d="M136 120.7c-1 4.5-.9 9.1-1.5 13.7v.3c0 .3.1-.3 0 .1 0 .2 0 .3-.1.5 0 .2-.2.5-.2.8l.1-.2c.1-.2.2-.1 0-.1l-.5.2c-.3.1-.5 0-.7 0-.6-.1.2.2-.1 0-1.4-.9-2.8-1.8-4.1-2.9-1-.8-2.1-1.7-3-2.6-.4-.4-.9-.8-1.3-1.3-.1-.2-.4-.4-.4-.4-.2-.2-.3-.4-.4-.6-1-1.7-3.6-.2-2.6 1.5 1.2 2 3.2 3.7 5 5.1 1.6 1.3 3.4 2.7 5.2 3.7 2 1.1 5.2.5 5.8-2 .5-2.1.5-4.4.7-6.6.2-2.8.4-5.6.9-8.3.5-2-2.4-2.8-2.8-.9z" />
	</g>
	<g>
		<path class="mobster_0"
			d="M176.2 79.5c-.2-1.2 1.2-2.7.3-3.6-.4-.4-.9-.7-1.5-.9-.4-.1-.8-.1-1.3-.2-.1 0-.9.1-1 0-.5-.5.1-2.7.2-3.2.1-1.4-.1-2.9-.5-4.3-1.9-6.6-8.9-10.5-15.5-8.7-.7.2-1 .7-1.1 1.2-3.8 1-5.9 4.8-6.2 8.7-.2 2.4-.3 5.4.5 7.8.7 2.2 2.4 3.8 3.6 5.7 2.9 4.2 5 9 6 14 .5 2.4.6 4.8-.1 7.2-.6 2.1-1.6 4-2.5 5.9-2.1 4.2-4.3 8.5-3.2 13.3.2.9 1.4 1.5 2.3 1 9.7-6.3 16.8-16.1 20-27.1 1.5-5.5.7-11.2 0-16.8z" />
		<path class="mobster_3"
			d="M153.6 116.4c4.7-3.5 7.8-8.5 8.5-14.3.5-4.2-.1-8.7-1.7-12.7-2.1-5.3-7.1-8.7-8.8-14.2-1.1-3.6-1.3-8 .6-11.3 1.6-2.9 5-4.2 8.2-3.9 7.8.9 10.6 9.8 11 16.4.1 1.3 1.6 2 2.6 1.1.6-.6 1.7-.7 2.5-.8.3 0 .8 0 1-.1-.6.3-.6-1.8-1.1-1.3-.2.2-.4.6-.5.8-1.6 2.6-1.6 6.2-1.4 9.2.1 1.9.5 3.9.4 5.8 0 .4-.1.6-.2 1.2-.1.7-.3 1.3-.4 2-1.8 7.6-5.1 15.2-10 21.3-3 3.8-6.8 7.1-11.5 8.7-1.8.6-1 3.5.8 2.9 9.4-3.3 15.7-12 19.7-20.8 1.7-3.7 3.1-7.5 4-11.5.3-1.3.6-2.7.7-4 .2-2.4-.4-4.9-.5-7.4 0-1.8 0-4 .9-5.7.6-1.1 1.8-2.5.5-3.7-.8-.8-2.2-.5-3.2-.3-1.3.2-2.8.6-3.8 1.6.9.4 1.7.7 2.6 1.1-.4-6.6-2.5-13.9-8.5-17.6-6.3-3.9-14.8-1.4-17.2 5.8-1.3 3.8-1 8.2.3 12 1.4 3.8 3.9 6.9 6.4 10 2.4 3.1 3.6 6.6 3.9 10.5.6 6.5-1.7 12.7-7.1 16.7-1.8 1-.3 3.6 1.3 2.5z" />
		<path class="mobster_3"
			d="M170.4 104.4c-1.5 1.2-3.4 1.8-5.3 2.1-2.1.3-4.3.4-6.5.4-.5 0-.5.7 0 .8 2.2 0 4.5-.1 6.7-.4 2-.3 3.9-.9 5.5-2.1.4-.5 0-1.1-.4-.8zM157.5 110.6c2.5.9 5 2.1 7.2 3.5.4.3.8-.4.4-.6-2.3-1.5-4.8-2.7-7.4-3.6-.5-.2-.7.5-.2.7zM157 111.5c1.9 2.5 4.1 4.9 6.5 6.9.4.3.9-.2.5-.5-2.4-2-4.5-4.3-6.4-6.8-.3-.4-.9 0-.6.4zM155.4 113.1c.7 1.3 1.5 2.6 2.2 4 .4.7.7 1.3 1.1 2 .2.3.4.7.6 1 .1.1.2.3.2.4.1.1.1.2.2.3.4 0 .5.1.3.4.4-.2.1-.9-.4-.6-.7.3.1 1.3.7.9.3-.3.3-.7.1-1-.2-.5-.6-1-.8-1.5-1.2-2.1-2.3-4.1-3.5-6.2-.3-.5-1-.1-.7.3z" />
		<path class="mobster_3"
			d="M154.7 113.3c.3 1.7.7 3.4 1 5 .3 1.4.7 2.8 1.6 4 .3.3.8-.1.6-.5-.1-.1-.1-.2-.2-.3-.2-.4-.9 0-.6.4.1.1.1.2.2.3.2-.2.4-.3.6-.5-.9-1.1-1.2-2.6-1.5-3.9-.3-1.6-.6-3.2-1-4.7-.1-.5-.8-.3-.7.2zM160 109.1c1.9.2 3.8.4 5.7.3 1.5 0 3-.3 4.2-1.3.4-.3-.2-.8-.5-.5-1.1.9-2.7 1.1-4.1 1.1-1.8 0-3.5-.1-5.3-.3-.5-.1-.5.6 0 .7zM158 109.5l6.3 2.1c1 .3 1.9.7 2.9 1 .6.2 1.4.2 1.8-.4.3-.4-.2-.9-.5-.5-.5.6-1.5.1-2.1-.1l-2.7-.9c-1.8-.6-3.6-1.2-5.5-1.9-.4-.2-.6.6-.2.7zM156.3 112.3c1.1 2.1 2.2 4.2 3.4 6.3.5.8 1.1 1.6 1.9 2 .5.3 1.7.3 1.6-.6 0-.5-.8-.5-.8 0H162.1c-.2 0-.3-.1-.4-.2-.3-.2-.6-.5-.8-.8-.5-.6-.9-1.3-1.2-2l-2.7-5.1c-.3-.4-.9-.1-.7.4zM157.7 111.5c1.4 1 2.9 2.1 4.3 3.1 1.3.9 2.7 1.6 4.3 1.3.5-.1.3-.8-.2-.7-1.5.3-2.9-.7-4.1-1.5-1.3-.9-2.7-1.9-4-2.9-.3-.2-.7.4-.3.7zM160.4 105.9c.8-.9 2.4-.7 3.5-.9 1.3-.2 2.6-.5 3.9-.9 1.2-.4 2.3-.9 3.3-1.6.5-.3 1-.7 1.4-1.1.4-.4.9-.7.9-1.3 0-.1-.1-.3-.2-.3-.2-.1-.3-.1-.5-.1-.1 0-.2.1-.3.3v.1c-.1.5.6.7.7.2v-.1l-.3.3h-.1c-.1-.1-.1-.2-.2-.3 0 .2-.5.5-.7.7-.2.2-.5.4-.8.6-.5.4-1 .7-1.5 1-1.1.6-2.3 1-3.5 1.4-1.2.3-2.4.5-3.6.6-1 .1-2.2.1-2.9 1 0 .2.6.8.9.4z" />
		<path class="mobster_3"
			d="M161.7 103.9c2.9-.8 5.7-2 8.2-3.7 2.3-1.5 4.8-3.3 5.7-5.9.2-.5-.6-.6-.7-.2-1 2.5-3.6 4.3-5.8 5.7-2.4 1.5-4.9 2.6-7.6 3.4-.5.1-.3.8.2.7z" />
		<path class="mobster_3"
			d="M161.4 101.5h.1c0 .2-.1.4-.1.6 1.8-.7 3.5-1.5 5.3-2.2 1.7-.7 3.3-1.4 4.8-2.4 1.4-.9 2.5-2.1 3.6-3.4.3-.3 1-.9.8-1.5-.2-.4-.6-.4-.9-.1-.1.1-.1.3-.1.5v.1c.2.4.9 0 .6-.4v-.1c0 .2 0 .3-.1.5-.3-.1-.6 0-.7.2-.1.1-.2.3-.3.4-.2.3-.4.5-.6.8-.4.5-.9 1-1.4 1.4-1 .9-2.3 1.6-3.5 2.2-2.6 1.2-5.3 2.3-7.9 3.4-.2.1-.3.5-.1.6.4.3.8.3 1.1-.2.3-.4-.3-.8-.6-.4z" />
		<path class="mobster_3"
			d="M160.9 100.5c3.6-.9 7-2.5 10-4.8 1.4-1.1 2.8-2.3 4-3.7.4-.4 1.4-1.3 1.3-2-.1-.5-.6-.5-.9-.2-.1.1-.1.2-.1.4v.1c.1.5.8.3.7-.2V90c0 .1-.1.2-.1.4h-.2c-.1-.1-.1-.2-.2-.3 0 .3-.5.8-.7 1-.2.3-.5.5-.7.8-.5.6-1 1.1-1.6 1.6-1.1 1-2.3 2-3.6 2.8-2.5 1.6-5.3 2.8-8.2 3.6-.3 0-.1.7.3.6z" />
		<path class="mobster_3"
			d="M161.8 99.2C168 96 173 90.9 176 84.7c.2-.4-.4-.8-.6-.4-2.9 6.1-7.8 11.1-13.9 14.2-.5.2-.1.9.3.7z" />
		<path class="mobster_3"
			d="M161.7 97.7c3.4-2.3 6.5-5 9.1-8.1 1.3-1.5 2.4-3.2 3.5-4.9.3-.6 2.3-3.3.5-3.4-.5 0-.5.7 0 .8l-1.1 2.2c-.4.7-.9 1.4-1.4 2.1-1 1.4-2 2.8-3.2 4-2.3 2.5-4.9 4.8-7.8 6.7-.3.2 0 .8.4.6zM161.7 96c5.8-6 10.4-13.1 13.5-20.8.1-.3-.3-.6-.6-.4-.3.1-.5.3-.8.4-.4.2-.1.9.4.6.3-.1.5-.3.8-.4-.2-.1-.4-.3-.6-.4-3.1 7.6-7.6 14.6-13.3 20.5-.3.3.3.8.6.5zM160.2 91.7c1.5-.9 2.6-2.3 3.6-3.6 1.2-1.6 2.3-3.3 3.4-5.1 1-1.7 1.9-3.4 2.8-5.2.4-.9.8-1.7 1.2-2.6.2-.4.3-.8.5-1.3.1-.2.1-.4.2-.6.3-.6.2-.1.1-.4-.1-.5-.8-.3-.7.2.3 1.5 2.6.2 1.5-.7-.4-.3-1.1-.3-1.4.2-.3.4-.5 1.3-.7 1.8-.3.7-.6 1.5-.9 2.2-1.2 2.6-2.6 5.2-4.1 7.7-.8 1.2-1.6 2.4-2.4 3.5-.9 1.3-1.9 2.6-3.3 3.4-.6.1-.2.8.2.5zM159.4 89.5c1.5-1.3 2.7-2.9 3.8-4.5 1.2-1.7 2.4-3.6 3.4-5.4 1-1.8 1.8-3.6 2.5-5.4.4-1 .7-1.9 1.1-2.9.2-.6.7-1.5.4-2.1-.1-.1-.3-.2-.4-.2-.2.1-.3.2-.4.4 0 .1 0 .4.2.4h.1c.4.2.8-.4.4-.6h-.1c.1.1.1.3.2.4l-.1.1c-.1-.1-.3-.1-.4-.2.1.2-.2.8-.3 1-.1.4-.3.9-.4 1.3-.3.9-.6 1.7-1 2.6-.8 1.8-1.6 3.6-2.6 5.4-.9 1.6-1.9 3.2-3 4.7-1.1 1.6-2.3 3.2-3.8 4.5-.5.3.1.8.4.5z" />
		<path class="mobster_3"
			d="M158.8 88.1c5.1-6.7 8.3-14.8 9.2-23.2.1-.5-.7-.5-.8 0-.9 8.3-4 16.2-9.1 22.8-.3.4.4.7.7.4z" />
		<path class="mobster_3"
			d="M157 86.3c1 1.8 2.2-1.5 2.5-2.1 1.1-2.5 2.1-5 3-7.6 1.6-5.1 2.4-10.6 1.3-15.9-.1-.5-.8-.3-.7.2.9 4.4.5 8.9-.7 13.3-.5 2-1.2 4-2 5.9-.4 1.1-.9 2.2-1.4 3.3-.2.4-.4.8-.6 1.3 0 0-.6 1.5-.8 1.2-.2-.4-.9 0-.6.4z" />
		<path class="mobster_3"
			d="M157.4 85.6c4-8 4.8-17.4 2.2-26-.1-.5-.9-.3-.7.2 2.6 8.4 1.8 17.6-2.1 25.4-.2.5.4.9.6.4z" />
		<path class="mobster_3"
			d="M156.2 84.5c2.9-7.9 2.3-16.8-1.8-24.2-.2-.4-.9 0-.6.4 4 7.2 4.6 15.9 1.8 23.6-.3.5.4.7.6.2z" />
		<path class="mobster_3"
			d="M151.8 64.6c1.3.7 1.8 2.1 2.1 3.5.4 1.5.7 3.1.9 4.7.6 3.5.9 7 .3 10.5.2-.1.4-.1.6-.2-.1-.2-.2-.4-.3-.5-.1-.5-.9-.3-.7.2.1.4.2.6.5.9.2.2.6.1.6-.2.7-3.8.3-7.5-.4-11.3-.3-1.7-.6-3.5-1.1-5.2-.4-1.2-1-2.4-2.2-3-.4-.3-.8.4-.3.6z" />
		<path class="mobster_3"
			d="M150.2 67.5c2.5 4.7 3.7 10 3.6 15.4 0 .5.7.5.8 0 .1-5.5-1.2-10.9-3.7-15.8-.3-.4-.9 0-.7.4zM160.2 95c4.5-4 8.2-9 10.6-14.6.6-1.3 1-2.6 1.4-4 .2-.8.5-1.6.7-2.4.1-.3.1-.5-.1-.8-.3-.5-1.1-.7-1.5-.1-.4.7.2 1.4.8 1.4.5 0 .5-.7 0-.8.1 0-1.4 4.7-1.6 5.2-.8 2-1.7 4-2.8 5.8-2.2 3.6-4.9 6.9-8 9.7-.4.4.2.9.5.6z" />
	</g>
</svg>