<svg xmlns="http://www.w3.org/2000/svg" viewBox="0 0 200 200">
	<style>
		.picasso_0 {
			fill: #fd1015
		}

		.picasso_1 {
			fill: #ff6
		}

		.picasso_2 {
			fill: #fff
		}

		.picasso_5 {
			fill: #10101a
		}

		.picasso_6 {
			fill: #e7f4df
		}
	</style>
	<path class="picasso_0"
		d="M105.2 168.8c-.4 1.1 0 2.3.7 3.1.8.9 1.9 1.2 3 1.4 1.4.2 2.8.3 4.2.5 1.3.1 2.6.4 3.9.1 1.2-.3 3.5-1.5 3.9-2.7.4-1.2-.8-2.9-2.2-3.1-1.3-.2-1.5-2.2-2.7-2.9-1.2-.6-2.6-.7-3.8-.1h-.4" />
	<path class="picasso_1"
		d="M88.1 172.8c-.1-3.1-2.2-1.4-2-2.4.3-1.6-.7-1.5-2.3-.3-.3.2-.3-1.4-.7-.7v-.1c-.1-.5-.8-1-1.4-.8-2.1.8-4.5 1.3-6.3 2.7-.9.7-1.8 1.5-1.7 2.7.1 1.1 1 1.8 2 2.2 1 .4 2.3.4 3.4.5 1.2 0 2.4 0 3.6-.2 1.9-.1 5.5-1.4 5.4-3.6z" />
	<path class="picasso_2"
		d="M143.8 105.1c-.1-.1 3.6-5 3.4-7.7-.1-1.1-.4-2.1-1-2.9-.6-.8-1.8-1.7-2.8-1.2-1 .5-2 1.3-2.8 2.1-.9.8-1.7 1.7-2.5 2.7-7.3 9.4-5.7 21.7-5.5 32.8.1 5.7 0 14-6.3 16.6-.1.1-.2.1-.4.2-.5.2-.8.6-.7 1.3.4 1.7.9 3.3 1.3 5 .2.6.8.9 1.4.8 6-1.3 8.8-8.2 9.7-13.6 1-6 .5-12.2.8-18.3.2-3.4.7-6.9 2.1-10 .2-.5.1-.9-.2-1.2.7-1.7 3.5-6.6 3.5-6.6z" />
	<path
		d="M127.5 166c-1.4-6.2-2.7-12.4-4.1-18.6-1.2-5.2-2.7-10.8-6.6-14.7-1.8-1.7-3.9-3.1-6.4-3.8-1.2-.3-2.5-.5-3.7-.4-1.2.1-2.2.5-3.3-.1-2.5-1.4-2.4-4.7-2.5-7.2 0-3.2-.1-6.4-.1-9.7 0-3.6-.1-7.2-.1-10.8 0-1.6-.1-3.3 0-4.9.1-.8.2-1.6.4-2.3.2-.7.7-1.4.7-2.1 0-.2 0-.3-.1-.4.4-.6.1-1.7-.9-1.8l-7.2-.9c-.6-.1-1.1.6-1.1 1.1.2 11.9.5 23.9.7 35.8-14 5.1-25.2 18.1-27.2 33-.4 2.7-.7 7.2.4 9.7 1 2.3 3.3 2.2 4.8 4.1.5.6 1.4.3 1.7-.2 1.6-2.3 4.6-2.8 7.5-2.9 1.4 0 2.5-.8 3.8-.1.6.3 1.3.7 1.8 1.2s.9 1 1.5 1.4c2.4 1.5 6.1.5 8.4-.4 3.1-1.1 5.9-.5 8.6-1 .5-.1 1-.1 1.2-.5 1.7-2.7 4.6-4.4 7.8-4.5 3.2-.1 6.2 1.5 8 4.1.4.6 1.2.7 1.7.2 1-.9 2.1-1.6 3.4-2 .7-.2 1.1-.7.9-1.3z"
		fill="#79a2d8" />
	<path class="picasso_2"
		d="M75.5 72.8c-.5-.7-.8-1.5-1-2.3-.6-1.7-1.1-3.5-2.2-5-.8-1-1.7-1.1-2.9-.8-1.2.3-2.3.7-3.4 1.1-.1 0-.2.1-.3.1-.8-.2-1.8.7-1.3 1.6L71 80.6c.3.6 1 .3 1.7.2 1.6-.1 2.9-3.2 4-2.1 1.3 1.3 1.1-1.6 1.2-2.6.1-1.1-1.8-2.5-2.4-3.3z" />
	<path
		d="M133.1 24.8c-.1-1.2-1.8-1.5-2.2-.3-1.8 5.4-5.8 9.7-9.8 13.6-2.1 2.1-4.2 4.3-6.7 6.1-2.6 1.8-5.6 2.9-8.6 3.7-5.8 1.6-11.9 3.3-17.9 1.7-5.1-1.4-9.7-4.6-12.6-9.1-3.5-5.4-4.4-12.1-2.8-18.3.1-.3 0-.6-.1-.9.3-1.1-1.4-2-2-.8-4.7 9.3-9 10.9-9.6 21.5-.1 2.6-.3 13.3.1 15.9.2 1.3.5 2.6.8 3.8.3 1 .7 1.9 1.6 2.4 1.1.5 2.2.2 3.3-.2 1.1-.4 2.2-.9 3.3-1.4 2.2-1 3.9-1.2 5.9-2.5 1.9-1.4 4-4 5.7-5.6 2.1-1.9 4.5-.8 6.9-.1 4.6 1.4 9.4 1.6 14.1.8 2.3-.4 4.6-1.1 6.8-2.1 1.1-.5 2.1-1.1 3.2-1.6s2-.4 3.1.1c1 .6 1.8 1.3 2.7 2 1 .7 2 1.4 3 1.9 2.1 1.1 4.4 2 6.7 2.4 1.2.2 2.5.3 3-1.1.5-1.3.6-2.9.9-4.3.5-3 .9-6.1 1.2-9.1.4-6.1.5-12.3 0-18.5z"
		fill="#090" />
	<path class="picasso_1"
		d="M131.1 60.3c-.2-2-2.6-1.7-4.3-2.4-2.1-.9-4.3-1.6-6.3-2.8-2.1-1.3-4.1-2.8-5.8-4.6-.4-.4-1.2-.4-1.6 0-2.1 2.4-5 3.7-8.1 3.5-.8 0-1.2.7-1 1.3-.2.2-1.8.3-1.8.7.4 2 2 4.2 2.4 6.1.4 1.7 1 3.3 1.7 4.8 1.3 2.6 3.1 4.8 5.3 6.6-4.3 3.4-7.4 4.5-9 9.8-.3.9-1.2 5.5-.4 5.4 7.5-1.3 16-5.9 20.9-11.6 2.5-2.9 4.4-6.2 5.8-9.7.7-1.6 2.4-5.2 2.2-7.1z" />
	<path class="picasso_0"
		d="M109.8 73.8c-3.5-3.3-6-7.5-7.3-12.2-.3-1.1-.5-2.1-.7-3.2-.2-1.1-.5-2.1-1.5-2.7-.9-.5-2-.5-3-.4-1.3.1-2.7.3-4 .5-1.2.1-2-1-3.2-1.1-1.5-.1-4.3-.9-5.8-1.2-2.5-.4-2.4 3.6-3.9 5.1-.8.9-1.8 1.6-2.8 2.2-.9.5-1.9 1-2.7 1.7-1.8 1.4-2.5 3.5-1.6 5.7 1 2.4 3.5 3.9 4.5 6.3 1.1 2.6-1.9 3.7-2.8 5.7-.3.7-.1 1.3.7 1.6 8.1 3.3 16.7 5.3 25.5 5.9 1.1.1 1.3-1.1.8-1.8.1-.1.1-.2.1-.4.2-2.4.5-5 1.8-7.1 1.1-1.8 3-3.1 5.2-2.8.9.2 1.4-1.2.7-1.8z" />
	<path class="picasso_5"
		d="M125.1 64.8c-.6-1.2-2.1-1.2-3.3-1.7-1.2-.5-2.2-1.2-3-2.1-.3-.4-.8-.4-1.1-.3-.3-.1-.6 0-.9.1-1.1.5-2.1 1.2-3 2-.8.7-1.8 1.7-2.1 2.8-.3 1.3.6 2.5 1.7 3.1.4.2.9.4 1.3.7.3.3.5.7.7 1.1.7 1.2 2 1.5 3.3 1.1 1-.3 2-.8 3-1.3.9-.5 1.8-1.2 2.5-2 .7-1 1.5-2.3.9-3.5zM93.4 67c-1.5-1.8-3.7-2.7-6-2.9-2.4-.2-4.9.5-6.8 2.1-.4-.1-.9 0-1.1.5-1.3 2.6.8 5.2 3.3 5.9 1.3.4 2.7.4 4.1.5 1.4 0 2.9-.1 4.4-.4 1.1-.3 2.3-.8 2.9-1.9.6-1.3 0-2.7-.8-3.8z" />
	<path class="picasso_6"
		d="M67.7 168.1c-.6-7.5-1.2-15.5 2.5-22.3 3.1-5.7 7.7-11.2 13.1-14.8 3.1-2.1 6.5-3.4 10.1-4-.3-1-.5-1.9-.8-2.9-.1 0-.1 0-.2.1-.6.2-1.1.7-1.1 1.4 0 .2 0 .3.1.5.2.5.2.5 0-.2.4-.5.7-1 1.1-1.4-.1 0-.1 0-.2.1-1.8.6-1 3.5.8 2.9.1 0 .1 0 .2-.1.6-.2 1.1-.7 1.1-1.4 0-.2 0-.3-.1-.5-.2-.5-.2-.5 0 .2-.4.5-.7 1-1.1 1.4.1 0 .1 0 .2-.1 1.8-.7 1.1-3.2-.8-2.9-7 1.1-12.9 5.1-17.7 10.2-2.4 2.6-4.7 5.6-6.5 8.7-2.1 3.5-3.3 7.3-3.8 11.3-.6 4.6-.2 9.3.2 13.9 0 1.8 3 1.8 2.9-.1z" />
	<path class="picasso_6"
		d="M91 88.4c.3 12.4 0 24.8.2 37.1 0 1.9 3 1.9 3 0-.3-12.4 0-24.8-.2-37.1 0-1.9-3-1.9-3 0zM100.2 88.5c-1.5 13.2-1.1 26.5 1.2 39.6.3 1.9 3.2 1.1 2.9-.8-2.2-12.8-2.5-25.9-1.1-38.8.2-2-2.8-1.9-3 0z" />
	<path class="picasso_6"
		d="M102.8 129.8c3.4.6 7.2.8 10.4 2.2 3.6 1.7 5.2 5.3 6.6 8.9 3.2 8.4 6.5 17 7 26l1.5-1.5c-2.5-.3-4.6 1.8-6.5 3-1.6 1-.1 3.6 1.5 2.6 1.5-.9 3.2-2.8 5-2.6.8.1 1.5-.8 1.5-1.5-.5-9.7-4-19-7.6-28-1.5-3.7-3.4-7.5-7.2-9.3-3.5-1.8-7.6-2-11.4-2.7-1.9-.3-2.7 2.6-.8 2.9zM88.8 174.9c2.8-.8 5.6-1.6 8.4-2.1 2.4-.4 5.5-.9 7.7.1.7.3 1.6.2 2.1-.5.4-.6.2-1.7-.5-2.1-2.9-1.3-6.2-1-9.3-.5-3.1.5-6.1 1.3-9.2 2.2-1.8.5-1 3.4.8 2.9zM65.2 169.2c1.1.6 2.2 1.3 3.3 2 .5.4 1 .7 1.5 1.1.1.1.1 0 0 0 .1 0 .1.1.2.1.1.1.3.2.4.3.3.2.5.4.8.6.6.5 1.5.6 2.1 0 .5-.6.6-1.6 0-2.1-2.1-1.8-4.3-3.3-6.7-4.6-.7-.4-1.7-.2-2.1.5-.4.8-.2 1.7.5 2.1z" />
	<path class="picasso_6"
		d="M80 167.6c-1.7.3-3.3.9-4.8 1.7-1.6.8-3.6 1.7-3.7 3.7-.2 1.9 1.4 3.5 2.9 4.3 1.6.9 3.4 1.5 5.3 1.7 3.4.3 7.4-.7 9.5-3.6.9-1.2 1.4-2.9.7-4.3-.5-1-1.5-1.8-2.4-2.4-2-1.2-5.6-2.5-7.6-.7-1.4 1.3.7 3.4 2.1 2.1l-.1.1c.1 0 .5-.1.2-.1h.5c.1 0 .6.1.4 0 .8.1 1.7.4 2.3.7.8.4 1.3.7 1.8 1.3.2.2-.1-.1.1.2.2.3 0-.1 0 .1s.1-.2 0 0c-.1.3-.1.5-.2.8-1 2.1-3.7 2.8-5.8 2.9-1.3 0-2.6-.2-3.8-.6-.9-.3-2.5-.9-2.8-1.9-.2-.4.1-.5.5-.7.6-.4 1.3-.7 2-1.1 1.2-.6 2.5-1.1 3.8-1.3.8-.1 1.2-1.1 1-1.8-.3-.9-1.1-1.2-1.9-1.1zM114.7 164.1c-2.7.3-5.4.9-7.9 2-1.7.7-3.4 1.8-3.3 3.8.1 1.9 1.8 3.2 3.3 4 3.3 1.7 7 2.2 10.7 1.6 1.7-.3 3.8-.9 5-2.1 1.2-1.2 1.3-3.2.5-4.6-1.6-2.7-5.5-4.5-8.5-4.6-1.9-.1-1.9 2.9 0 3 1.8.1 3.9 1.1 5.3 2.3.3.3.5.5.7.9-.1-.2.1.4.1.2v.2c0 .1 0 .3-.1.4-.2.4-1 .6-1.3.7-.6.2-1.3.4-1.9.6-2.6.6-5.3.3-7.8-.6-.8-.3-2.5-.9-2.9-1.9-.1-.4-.1-.3.2-.5.4-.3 1-.5 1.5-.7 1.2-.5 2.5-.8 3.8-1.1.5-.1 1.1-.2 1.6-.3.2 0 .5-.1.7-.1.1 0 .7-.1.2 0 .8-.1 1.5-.6 1.5-1.5.1-.9-.6-1.8-1.4-1.7zM124.9 149.6c4.3 0 7.4-3.4 8.7-7.2 1.5-4.4 1.4-9.5 1.4-14.1-.1-4.8-.8-9.5-.8-14.3 0-4.7 1-9 3.6-13 1.2-1.8 2.6-3.8 4.3-5.2 1.3-1.2 4.1-1.9 4.4.5.3 2.1-1.4 4-2.4 5.6-1.2 1.9-2.2 4-3.1 6.1-1.8 4.3-3 8.7-3.5 13.3-.6 4.9-.1 9.8-.2 14.8-.1 4.7-.9 9.4-3.6 13.3-1.1 1.6-2.7 3-4.4 3.9-.8.4-2 .4-2.6 1.1-.2.2-.3.4-.4.6-.4.8-.2.4.2.1.4-.1.8-.1 1.2-.2h-.1c.3.2.6.5.9.7.2.3-.1-.1-.1-.2-.2.3-.5.6-.7.9h-.1c-.4-.1-.8-.1-1.2-.2h.1c-.2-.4-.5-.9-.7-1.3v.1c-.2 1.9 2.8 1.9 3 0v-.1c0-.5-.3-1.1-.7-1.3-2.2-1-3.3 1.7-2.3 3.4.5.8 1.4 1.1 2.2.6.4-.2.9-1.3.9-1.4-.2.1-.8.5-.1.4.2 0 .5-.1.7-.2l1.5-.6c1-.5 1.9-1.1 2.7-1.9 1.5-1.3 2.8-3 3.8-4.8 2.4-4.4 2.9-9.3 2.9-14.2 0-5.7-.4-11.3.8-16.8 1-5.1 3-10.1 5.7-14.6 1.3-2.1 2.8-4.1 2.8-6.6 0-2.2-1.2-4.3-3.3-4.9-2.3-.7-4.7.3-6.4 1.9-1.8 1.7-3.4 3.9-4.8 6.1-2.9 4.5-3.9 9.5-3.8 14.8.1 6.1 1 12.2.8 18.4-.2 4.5-.6 13.5-7 13.5-2.2 0-2.2 3-.3 3zM70.7 17.9C61.9 26.5 58.2 39.1 59 51.2c.4 6.6 2.1 13.2 4.6 19.4 2.2 5.5 5.3 10.8 10.8 13.7 2.6 1.4 5.5 2.2 8.3 3 3.4.9 6.7 1.8 10.2 2.4 6.3 1.1 12.8.8 18.8-1.6 5.5-2.2 10.1-5.8 13.6-10.6 3.6-4.8 5.9-10.5 7.2-16.3 1.7-7.6 1.9-15.5 2-23.3 0-4 .1-8 .1-12 0-2 .1-4 0-6-.1-1.3-.8-3-2.4-2.8-1.9.2-1.9 3.2 0 3-.8.1-.6-.9-.6.3v8.5c0 3.3 0 6.6-.1 9.9-.1 6.4-.2 12.8-1.4 19.2-2 10.7-7.1 21-17.2 26.2-5.1 2.6-10.7 3.5-16.3 3-3.2-.3-6.3-1-9.4-1.8-2.9-.7-5.7-1.5-8.5-2.5-2.6-.9-4.9-2.3-6.9-4.3-1.8-1.9-3.2-4.2-4.3-6.6-2.6-5.4-4.3-11.4-5.1-17.3C60.6 42.3 63.7 29 72.9 20c1.3-1.3-.8-3.4-2.2-2.1z" />
	<path class="picasso_6"
		d="M71.2 19.2c-1.8 7.2-1.5 15 2.1 21.6 3.2 5.9 8.9 10.3 15.5 11.3 12.8 2 26.4-3.9 34.9-13.4 4.9-5.5 9.1-12.8 9.4-20.3.1-1.9-2.9-1.9-3 0-.3 6-3.5 12.1-7.2 16.7-3.6 4.4-8.1 8-13.2 10.5S99 49.5 93.4 49.5c-3.4 0-6.8-.6-9.8-2.3-2.5-1.4-4.7-3.4-6.3-5.7-4.4-6.2-5-14.2-3.2-21.5.4-1.9-2.5-2.7-2.9-.8z" />
	<path class="picasso_6"
		d="M64.1 66.5c8.5-.7 16.4-5.5 20.7-12.9-.6.2-1.1.5-1.7.7 10.3 2.7 22.5 4.8 31.3-3h-2.1c5.1 4.5 11.4 7.5 18.2 8.5 1.9.3 2.7-2.6.8-2.9-6.2-1-12.1-3.6-16.9-7.7-.6-.6-1.5-.6-2.1 0-7.9 6.9-19.2 4.6-28.4 2.2-.6-.2-1.4.1-1.7.7-3.8 6.4-10.7 10.8-18.1 11.4-1.9.2-1.9 3.2 0 3z" />
	<path class="picasso_6"
		d="M70.6 64.8c1.1 2.4 2 5 3.2 7.3 1 1.9 2.5 3.8 4.7 4.3-.3-.7-.6-1.5-.9-2.2-1.4 1.8-2.7 3.7-3.9 5.7-1 1.7 1.6 3.2 2.6 1.5 1.2-2 2.5-3.9 3.9-5.7.6-.8 0-2-.9-2.2-1.7-.4-2.6-2.1-3.3-3.5-1-2.2-1.9-4.5-2.9-6.7-.3-.7-1.4-.9-2.1-.5-.7.4-.8 1.3-.4 2zM101.4 87.4c.4.5.7 1 1.1 1.4 0-.2-.1.4 0 0 .1-.2.1-.5.1-.7.1-.7.3-1.3.5-2 .5-1.7 1-3.5 1.7-5.1.8-1.7 1.9-2.6 3.7-3.3 1.9-.8 3.7-1.4 5.2-2.8.8-.7.4-2.3-.7-2.5-4.2-.6-6.2-4.7-7.2-8.4-.6-2.2-1.1-4.5-1.9-6.7-.3-.8-.5-1.8-1.5-2-.4-.1-.8 0-1.2.2-.2.1-.4.3-.5.5-.2.2 0 .1.5-.4.8.4 1.5.9 2.3 1.3 0-.3 0-.6.1-.9.2-1.9-2.8-1.9-3 0 0 .3-.1.6-.1.9 0 1.2 1.3 1.7 2.3 1.3.3-.1.3-.2.4-.4.6-.6-.7.5-.3.3-.4.1-.8.1-1.2.2-.3-.2-.6-.5-.9-.7 1 1.7 1.2 4 1.7 5.9.5 1.9 1.1 3.9 2 5.7 1.6 3 4.2 5.7 7.7 6.2-.2-.8-.4-1.7-.7-2.5-1.6 1.3-3.7 1.8-5.5 2.7-1.9.9-3.1 2.3-4 4.2-.8 1.8-1.4 3.7-1.9 5.6-.3 1-.8 2.4-.7 3.5 0 .7.5 1.2 1.1 1.4 1.9.7 2.7-2.2.9-2.9z" />
	<path class="picasso_6"
		d="M110.1 67.1c1.9.1 3.3-1.3 4.3-2.7.4-.6.7-1.4 1.2-2 .3-.4.8-1.1 1.4-1 .6.1 1.2 1 1.6 1.4.7.7 1.5 1.4 2.4 1.9 1.8 1 3.9 1.3 5.8.3-.7-.6-1.5-1.1-2.2-1.7-.7 2.8-2.9 5.8-5.8 6.6-.6.2-1.2.2-1.7-.2-.6-.5-1-1.3-1.6-1.8-.7-.6-1.5-1.1-2.3-1.4-.4-.2-.8-.3-1.2-.3-.2 0-.4-.1-.6-.1-.3 0-.3-.2 0 .1.1.3.1.5.2.8v.1c.6-1.8-2.3-2.6-2.9-.8-.4 1.3.6 2.3 1.8 2.7 1 .3 1.9.3 2.7 1 .8.6 1.3 1.6 2.1 2.2.9.8 2.1 1.1 3.3.9 4.4-.5 7.9-4.8 8.9-8.9.3-1.3-1-2.3-2.2-1.7-1.5.7-3.1-.4-4.1-1.3-1.3-1.2-2.5-2.7-4.5-2.6-1.8.1-3.2 1.6-4 3.1-.6.9-1.2 2.7-2.5 2.6-.8-.1-1.5.7-1.5 1.5-.1.7.6 1.2 1.4 1.3zM77.5 66.4c1.1 1.5 3.3 1.7 5 1.1 1.8-.6 3-2.1 4.8-2.6 1.8-.6 3.2.5 4.3 1.8 1.3 1.6 3 3.1 5.3 2.5-.6-.5-1.3-1-1.9-1.4-.1 1.6-2.3 2.7-3.6 3.3-1.7.9-3.7 1.4-5.6 1.4-3-.1-6.7-2.6-6.2-6.1.1-.8-.2-1.6-1-1.8-.7-.2-1.7.2-1.8 1-.8 5.3 3.7 9.5 8.8 9.9 2.7.2 5.5-.7 7.9-2 2.2-1.2 4.5-3 4.6-5.7 0-1-1-1.7-1.9-1.4-.7.2-1.3-.5-1.7-1-.6-.7-1.1-1.4-1.7-2-1.3-1.1-3.1-1.7-4.9-1.6-2.1.2-3.4 1.2-4.9 2.1-.9.6-2.5 1.5-3.4.4-.5-.6-1.6-.5-2.1 0-.6.6-.5 1.5 0 2.1zM41.3 91.3c1-2.1 2.9-3.6 4.6-5.1 2-1.8 4-3.6 6.1-5.4 1.9-1.7 3.8-3.4 5.8-5 1-.8 1.9-1.6 2.9-2.3 1-.8 2.1-1.7 3.2-2.3-.4.1-.8.1-1.2.2h.2c-.4-.5-.7-1-1.1-1.4v.1c.1-.4.3-.7.4-1.1l-.1.1c.6-.1 1.2-.2 1.8-.2 0 0-.1 0-.1-.1-1.6-1.1-3.1 1.5-1.5 2.6 0 0 .1 0 .1.1.6.4 1.3.2 1.8-.2.4-.3.6-.8.5-1.3-.1-.6-.4-1.3-1.1-1.4-1.4-.2-2.3.7-3.4 1.5-1.2.9-2.3 1.7-3.4 2.6-2.2 1.8-4.4 3.6-6.5 5.5-2.2 1.9-4.4 3.9-6.6 5.8-1.9 1.7-4.2 3.4-5.3 5.8-.5 1.7 2.1 3.2 2.9 1.5zM57.5 92.4c4-4.1 7.8-8.4 11.5-12.8.5-.6.6-1.5 0-2.1-.5-.5-1.6-.6-2.1 0-3.7 4.4-7.5 8.7-11.5 12.8-1.4 1.3.7 3.5 2.1 2.1zM58.7 106c5.4-7.3 10.5-14.9 15.2-22.6 1-1.6-1.6-3.2-2.6-1.5-4.8 7.7-9.8 15.3-15.2 22.6-1.1 1.6 1.5 3.1 2.6 1.5zM119.7 81.7c2.6 3.8 5.2 7.6 7.9 11.3.5.7 1.3 1 2.1.5.6-.4 1-1.4.5-2.1-2.7-3.7-5.4-7.5-7.9-11.3-.4-.7-1.3-1-2.1-.5-.6.5-.9 1.5-.5 2.1zM124.9 76.5c.1.1.2.2.2.3-.1-.2.1.1.1.1.2.3.4.5.6.8.4.6.8 1.1 1.2 1.7.8 1.1 1.6 2.3 2.5 3.4 1.3 1.8 2.5 3.6 3.8 5.4.2.3.4.6.7.9.5.6 1.7.8 2.2.1.5-.6.6-1.5 0-2.1-.5-.5-1.6-.6-2.1 0 .4-.1.7-.3 1.1-.4.3.1.5.1.8.2.2.1.4.3.2.1-.3-.2.2.3 0 0-.3-.4-.5-.7-.8-1.1-.8-1.1-1.6-2.3-2.4-3.5-1.9-2.7-3.8-5.4-5.8-8-.5-.6-1.6-.5-2.1 0-.8.7-.7 1.5-.2 2.1zM129.4 65.4c8.3 8.4 17.9 15.5 28.4 21 1.7.9 3.2-1.7 1.5-2.6-10.2-5.4-19.6-12.3-27.7-20.5-1.4-1.4-3.5.7-2.2 2.1zM76.2 181.4c.6-1.6 1-3.2 1.2-4.9 0-.4-.2-.8-.4-1.1-.3-.3-.7-.5-1.1-.4-.4 0-.8.1-1.1.4-.3.3-.4.6-.4 1.1 0 .2 0 .4-.1.7 0-.1 0-.3.1-.4-.2 1.3-.5 2.6-1 3.9-.1.3 0 .9.2 1.2.2.3.5.6.9.7.4.1.8.1 1.2-.2.2-.3.4-.6.5-1zM84.4 182.1l-.6-4.2c-.1-.3-.4-.7-.7-.9-.3-.2-.8-.3-1.2-.2-.4.1-.7.3-.9.7-.1.1-.1.2-.2.4-.1.3-.1.5 0 .8l.6 4.2c.1.3.4.7.7.9.3.2.8.3 1.2.2.4-.1.7-.3.9-.7.1-.1.1-.2.2-.4.1-.3.1-.5 0-.8zM91.2 181.9c-.9-2.4-1.6-4.7-2.3-7.1-.2-.8-1.1-1.3-1.8-1-.8.2-1.3 1-1 1.8.7 2.4 1.5 4.8 2.3 7.1.3.7 1 1.3 1.8 1 .7-.2 1.3-1.1 1-1.8zM112.4 181.6c.4-2.3.6-4.7.5-7 0-.8-.7-1.5-1.5-1.5s-1.6.7-1.5 1.5c.1 1.1.1 2.2 0 3.3 0 .5-.1 1.1-.1 1.6 0 0-.1.5 0 .1 0 .1 0 .3-.1.4 0 .3-.1.6-.1.9-.1.8.2 1.7 1 1.8.7.1 1.7-.3 1.8-1.1zM117.8 181.7c.3-2.5.1-5.1-.5-7.5-.2-.8-1.1-1.3-1.8-1-.8.3-1.2 1-1 1.8.1.6.3 1.1.4 1.7 0 .1 0 .3.1.4v.2c0 .3.1.6.1.9.1 1.2 0 2.4-.1 3.5-.1.8.8 1.5 1.5 1.5s1.2-.6 1.3-1.5z" />
	<path class="picasso_6"
		d="M117.3 174.7c.6 2 1.3 4.1 1.9 6.1.2.7 1.1 1.3 1.8 1 .8-.2 1.3-1 1-1.8-.6-2-1.3-4.1-1.9-6.1-.2-.7-1.1-1.3-1.8-1-.8.2-1.3 1-1 1.8zM86 65.1c-.1 1.5-.3 2.9-.4 4.4-.1 1.5-.3 3 .7 4.2.7.9 2 1.1 2.9.3.6-.5.7-1.4.9-2.1.3-1.4.4-2.9.2-4.4-.1-.9-.2-1.8-.6-2.6-.6-.9-1.7-1.7-2.7-1.2-.7.3-1.3 1-1 1.8.2.7 1.1 1.4 1.8 1 .3-.1.1-.2-.7-.1-.1-.1-.2-.1-.3-.3 0 .1.3.3 0 0 .1.1.1.4.1.5 0 .1.1.3.1.4 0 .2.1.4.1.6v.2c0 .3.1.7.1 1v1.7c0-.2 0-.1 0 0-.1.3-.1.7-.2 1 0 .1-.1.3-.1.4 0 .2 0 .1.1-.1l.3-.3c.3-.1.5-.1.8-.2.2 0 .4.1.6.3-.1-.1-.1-.1 0 0-.2-.2 0 .3 0 0 0-.1-.1-.5-.1-.2v-.3c0-.6.1-1.2.1-1.9.1-1.4.3-2.8.4-4.2.1-.8-.7-1.5-1.5-1.5-1 .1-1.5.8-1.6 1.6zM116.9 61.9v5.6c0 1.5.3 3.4 1.8 4.1.5.2.9.3 1.3.1.4-.2.8-.5.9-1 .3-1.8.4-3.6.4-5.5 0-1.7-.4-3.4-2.2-4.1-.7-.3-1.7.3-1.8 1-.2.8.3 1.6 1 1.8-.2-.1-.2-.1-.1 0-.2-.1-.2-.2-.1-.1s.1 0-.1-.1c0 .1.1.1.1.2.2.3-.1-.3 0 0 0 .1.1.2.1.3v1.4c0 .7 0 1.4-.1 2.1 0 .3-.1.7-.1 1 0 .2 0 .3-.1.5v.4c.7-.3 1.5-.6 2.2-.9-.1-.1-.4-.3-.1 0-.2-.2.2.3-.1-.1-.2-.2.1.3 0-.1 0-.1-.1-.2-.1-.4V68v-.4-1-4.9c0-.8-.7-1.5-1.5-1.5-.7.3-1.4.9-1.4 1.7z" />
	<g>
		<path class="picasso_6"
			d="M91.9 81.6c1.3 1.3 3 2.1 4.7 2.6 1.7.5 3.5.8 5.2.7.8 0 1.5-.7 1.5-1.5s-.7-1.5-1.5-1.5c-.7 0-1.5 0-2.2-.1h-.3c-.2 0-.4-.1-.6-.1l-1.2-.3c-.4-.1-.7-.2-1.1-.4-.1 0-.2-.1-.3-.1-.1-.1-.2-.1 0 0-.2-.1-.3-.2-.5-.2-.3-.2-.7-.4-1-.6-.1-.1-.2-.1-.2-.2-.2-.1.3.2 0 0-.1-.1-.3-.2-.4-.4-.6-.6-1.6-.6-2.1 0s-.6 1.5 0 2.1z" />
	</g>
</svg>