<svg xmlns="http://www.w3.org/2000/svg" viewBox="0 0 200 200">
	<style>
		.surprise_0 {
			fill: #666
		}

		.surprise_1 {
			fill: #fd1015
		}

		.surprise_2 {
			fill: #090
		}

		.surprise_3 {
			fill: #e7f4df
		}
	</style>
	<path class="surprise_0"
		d="M108.2 181.3c-8.9 0-18.7-1.9-28.9-5.6l-.3-.1-.2.2c-.9.7-1.7 1.3-2.5 1.8-2.8 1.8-5.3 2.7-7.6 2.7-.4 0-.8 0-1.2-.1-.9-.1-2.5-.6-2.8-2.3-.3-1.7-.1-3.5 0-5 .1-1.3.5-2.5.8-3.8l.2-.9c.1-.2.2-.8.2-.8l.1-.2-.2-.2c-9.2-11.1-10.1-26.3-9.8-39.7v-.3l-.2-.2c-.2-.1-.3-.3-.4-.5-1.1-2.2-2.6-4.2-4-6.1-.4-.5-.7-.9-1.1-1.4l-.2-.3c-1.5-2-3.3-4.4-3.5-6.9-.2-3 2.3-4.6 4.6-5.4 1.3-.5 2.8-.8 4.2-.9H57.7c.3 0 .7.1 1 .1.2 0 .4 0 .5-.1l.2-.1.1-.2c1.3-4.4 3.8-8.4 6.2-12.3.8-1.4 1.7-2.8 2.5-4.2 0-.1.1-.2.2-.2l.2-.2v-.3c-.3-2-.3-4.1-.3-5.9 0-2.5.1-5.1.3-7.8v-.5c0-.5.1-1 .2-1.5.2-1 1.1-1.9 2.3-2.4.5-.2 1-.3 1.6-.3 1.3 0 2.6.5 3.8 1 1.8.8 3.4 1.6 4.8 2.5 1.4.9 2.9 1.9 4.3 3l.2.2.3-.1c7.3-3 15.1-4.5 23.2-4.5 8.4 0 16.9 1.7 24.6 5l.3.1.2-.2c2.9-2.2 6-4.4 9.3-6.2 1.5-.8 2.8-1.2 3.9-1.2.4 0 .8 0 1.1.1 1.3.3 2.4 1.2 3.2 2.5 1.7 2.7 1.4 6.3 1.1 9.5l-.1.9c-.2 2.7-.7 5.4-1.1 8l-.2 1.2.9 1.9c1.6 3.4 3.2 7 4.2 10.7v.2l.1.5h.5c2-.1 3.8-.2 5.6-.2h.3c1.2 0 2.5.1 3.4.9.8.7 1.3 1.9 1.3 3.1 0 2.5-1.5 5.1-3 7.6-1.4 2.2-3.1 4.3-4.5 6l-.2.2.1.3c1.2 3.6 1.9 6.9 2.1 10.1.5 5.9-.5 12-3.1 18.7-1.2 3.3-2.8 7-4.9 10.3-1.2 1.8-2.6 3.5-3.9 5.2-.8.9-1.5 1.8-2.2 2.8l-.1.2.1.2c.2 1.1.4 2 .5 2.8.3 2.7-.3 6.1-2.9 7.4-.6.3-1.3.5-2 .5-2 0-4.1-1.2-5.9-2.2l-1.2-.7c-.9-.5-1.9-1.1-3.1-1.3-.6-.1-1.2-.2-1.8-.2-.6 0-1.1.1-1.5.4-.1.1-.2.1-.3.1-6.3 3-13.7 4.6-21.9 4.6z" />
	<path class="surprise_0"
		d="M147.8 69.7c.3 0 .7 0 1 .1 1.1.3 2.2 1.1 2.9 2.2 1.6 2.5 1.3 6.1 1 9.2 0 .3-.1.6-.1.9-.2 2.6-.7 5.3-1.1 7.9l-.2 1.1-.1.3.1.3c.3.6.5 1.2.8 1.7 1.6 3.4 3.2 6.9 4.2 10.5v.2l.1 1 1-.1c2-.1 3.8-.2 5.5-.2h.3c1.1 0 2.3.1 3.1.8.7.6 1.2 1.6 1.2 2.7 0 2.4-1.4 4.9-2.9 7.3-1.4 2.2-3 4.2-4.4 5.9l-.4.4.2.5c1.2 3.6 1.9 6.8 2.1 10 .5 5.8-.5 11.8-3 18.5-1.2 3.2-2.8 7-4.8 10.2-1.1 1.8-2.6 3.5-3.9 5.2-.7.9-1.5 1.8-2.2 2.8l-.3.4.1.5c.2 1 .4 2 .5 2.8.3 2.4-.2 5.7-2.7 6.9-.6.3-1.2.4-1.8.4-1.9 0-3.9-1.1-5.7-2.1-.2-.1-.5-.3-.7-.4-.2-.1-.3-.2-.5-.3-1-.5-2-1.1-3.2-1.4-.6-.1-1.2-.3-1.9-.3s-1.3.2-1.8.5c0 0-.1 0-.1.1h-.2c-6.3 3.1-13.5 4.7-21.6 4.7-8.9 0-18.6-1.9-28.8-5.6l-.5-.2-.4.3c-.9.7-1.7 1.3-2.4 1.7-2.7 1.8-5.1 2.6-7.3 2.6-.4 0-.8 0-1.2-.1-.9-.1-2.1-.6-2.3-1.9-.3-1.6-.1-3.4 0-4.9.1-1.2.5-2.4.8-3.7.1-.3.2-.6.2-.9.1-.2.1-.4.2-.6v-.2l.1-.5-.3-.4c-9.1-11-10-26.1-9.7-39.4v-.5l-.4-.3-.3-.3c-1.1-2.3-2.6-4.2-4.1-6.2-.4-.5-.7-.9-1.1-1.4l-.2-.3c-1.5-2-3.2-4.2-3.4-6.7-.2-2.7 2.2-4.2 4.2-4.9 1.3-.5 2.7-.8 4.1-.9h2.2c.3 0 .7.1 1.1.1.3 0 .5 0 .7-.1l.4-.2.1-.4c1.3-4.3 3.8-8.3 6.2-12.1.9-1.4 1.7-2.8 2.6-4.2l.1-.1.4-.4-.1-.5c-.3-2-.3-4.1-.3-5.8 0-2.5.1-5.1.3-7.7v-.5c0-.5.1-1 .2-1.4.2-.9.9-1.6 2-2.1.4-.2.9-.2 1.4-.2 1.2 0 2.5.5 3.6 1 1.8.8 3.3 1.6 4.8 2.4 1.4.8 2.9 1.8 4.3 2.9l.5.4.5-.2c7.3-3 15-4.5 23-4.5 8.4 0 16.8 1.7 24.4 5l.5.2.5-.4c2.9-2.2 6-4.4 9.3-6.2 1.4-.6 2.5-.9 3.6-.9m0-1c-1.5 0-2.9.6-4.1 1.3-3.3 1.8-6.4 4-9.4 6.3-7.8-3.4-16.3-5.1-24.8-5.1-8 0-16 1.5-23.4 4.5-1.4-1.1-2.8-2.1-4.4-3-1.6-.9-3.2-1.7-4.9-2.5-1.2-.6-2.6-1.1-4-1.1-.6 0-1.2.1-1.7.3-1.2.5-2.3 1.5-2.6 2.8-.1.7-.2 1.4-.2 2-.2 2.6-.3 5.2-.3 7.8 0 2 0 4 .3 6l-.3.3c-3.1 5.4-7 10.6-8.8 16.6h-.3c-.4 0-1.1-.1-1.2-.1h-2.1c-1.5.1-3 .4-4.4 1-2.7 1-5.1 2.8-4.9 6 .2 2.8 2.1 5.3 3.8 7.4 1.8 2.4 3.7 4.7 5.1 7.4.1.3.3.5.6.7-.3 13.9.7 28.9 9.9 40.1-.1.3-.1.5-.2.8-.4 1.5-.9 3.1-1.1 4.7-.2 1.6-.3 3.5 0 5.1.3 1.6 1.6 2.5 3.2 2.7.4.1.9.1 1.3.1 2.8 0 5.5-1.3 7.8-2.8.9-.6 1.7-1.2 2.5-1.8 9 3.3 19.2 5.6 29.1 5.6 7.7 0 15.2-1.4 22.1-4.8.1 0 .3-.1.4-.2.3-.2.8-.3 1.2-.3.6 0 1.2.1 1.7.2 1.3.3 2.3.9 3.4 1.6 2 1.1 4.5 2.6 6.9 2.6.8 0 1.5-.2 2.3-.5 2.9-1.4 3.6-5 3.2-7.9-.1-1-.3-1.9-.5-2.9 2.1-2.7 4.4-5.1 6.2-8 2-3.2 3.6-6.9 4.9-10.4 2.3-6.1 3.6-12.4 3.1-18.9-.3-3.5-1.1-6.9-2.2-10.2 1.6-1.9 3.2-3.9 4.5-6 1.4-2.3 3.1-5.1 3.1-7.9 0-1.3-.5-2.6-1.5-3.4-1-.9-2.4-1-3.7-1h-.3c-1.9 0-3.7.1-5.6.2v-.3c-1.2-4.4-3.2-8.4-5.1-12.5.5-3 1.1-6 1.3-9.1.3-3.5.8-7.6-1.1-10.7-.8-1.3-2.1-2.3-3.5-2.7h-1.3z" />
	<path class="surprise_1"
		d="M97.3 135c-1-2.3-3.6-2.8-5.9-2.9-3.3-.1-6.5-.1-9.8-.6-7.9-1.1-15.8-2.6-23.7-4-.9-.2-1.8.5-1.8 1.4-1 1.9-.5 4.2 1 5.8 2 2.1 5.2 2.2 7.9 2.3 6.9.4 13.7 1.6 20.2 3.5 3 .9 6.5 2.3 9.5.7 2.2-1.2 3.7-3.8 2.6-6.2zM162.3 128.5c-1.5-.3-3.2 0-4.7 0-2.1.1-4.3.2-6.4.3-3.9.2-7.8.4-11.8.6-9 .4-18 .9-27 1.3-.8 0-1.2.5-1.3 1.1-.6.6-1 1.4-1.1 2.3-.2 2.6.1 5.3.2 7.9 0 .9.7 1.3 1.5 1.4 15.6 1.6 31.3 1.9 46.9.7 1.5-.1 3.1-.3 3.9-1.8.4-.7.5-1.6.6-2.3l.6-3.3c.6-2.6 2.5-7.3-1.4-8.2z" />
	<path class="surprise_2"
		d="M108.6 123.8c0-6.5-.1-13-.1-19.5 0-3-.2-6.2-.1-9.3.7-4.1 1.2-8.1 1.5-12.3.1-1.7-2.4-1.8-2.8-.3-1.2 3.9-1.5 7.9-1.5 12-1.2 6.8-2.7 13.5-4 20.3-1.9 10.6-3 21.4-4.2 32.1-.7 6.2-1.3 12.4-2 18.6-.1.6.2 1 .6 1.2-.2 1.3-.5 2.6-.7 3.9-.2.7-.3 1.4-.4 2.1v.2c0 .1 0 .3-.1.4-.1.7.3 1.1.9 1.3-.1.9-.2 1.9-.3 2.8-.1.2-.1.3-.1.5v.3c0 .4-.1.9-.1 1.3-.1.5.1.9.4 1.1.2.4.6.7 1.2.8 3.6.3 7.1.8 10.6 1.5 1.1.2 2-.7 1.7-1.8-.7-3.1-.9-6.2-.6-9.3.3-3.1 1.2-6.1 1.5-9.2.7-6.3-1-12.5-1.2-18.7-.2-6.7-.1-13.4-.2-20z" />
	<path class="surprise_1"
		d="M108.1 57.7c-.2-.4-.5-.6-.9-.6V57c-.8-1.5-1.7-2.9-2.6-4.3 0-.2-.1-.3-.2-.5-.3-.4-.6-.9-.9-1.3-1.6-2.5-3.4-5-5.2-7.4 0-.1-.1-.1-.1-.2l-.1-.1c-.1-.2-.2-.3-.3-.5l-.1-.1c0-.2 0-.5-.1-.7-1.5-3.2-3.3-6.2-5.1-9.2v-.4c-.3-1.3-.7-2.5-1.2-3.7L89.4 23c-.1-.4-.3-.6-.6-.8l-.1-.3c-.1-.4-.4-.7-.7-.9 0-.7-.1-1.4 0-2 0-.8-.7-1.4-1.5-1.4-6.6-.3-12.7 3.9-15.2 10 0 .1-.1.2-.1.3-.2.5 0 1 .3 1.3-.6 2.4.1 5 1.9 6.7.1.1.3.2.4.3-.1.2-.1.5-.1.8 0 .1.1.3.1.4v.2c0 .1.1.1.1.2.1.2.2.5.3.7 2.5 6 8.9 8.4 13.6 12.5l1.7 1.7c.4.4.8.5 1.1.4.6.4 1.1.9 1.7 1.3-.9.5-1.3 1.9-.1 2.5 2.9 1.2 5.5 3 7.7 5.3.4.4 1 .5 1.4.3 1.6 1.6 3.4 2.9 5.4 3.9.6.3 1.6.2 2-.6 1.1-2.8 1-5.6-.6-8.1z" />
	<path class="surprise_2"
		d="M108.8 50.4c-.7-5.4-2-10.8-4.1-15.8-.4-1-.9-1.9-1.3-2.9.2-.3.3-.7.2-1.1-.4-1.9-1.3-3.7-2.6-5.1-.3-.5-.5-1-.8-1.5-.2-.4-.5-.6-.8-.7-.3-.2-.7-.3-1-.2-.8-1.2-1.6-2.4-2.5-3.5-.1-.1-.2-.2-.3-.4-.1-.1-.1-.2-.2-.3-.4-.5-3.8-2.2-4.3-1.9-.9-.9 0 1.6.4 3.1.4 1.6.9 3.3 1.2 4.9.3 1.5.3 3 .5 4.5.3 3 1.5 5.5 3.2 7.9 1.8 2.5 3.5 5 5.4 7.3 1.5 1.8 3.8 3.8 4.3 6.2 0 .2.1.5.1.7.2 1.8 2.9 1.8 2.9-.1-.2-.4-.3-.7-.3-1.1zM141.6 19.9c-.6-.4-1.3-.2-1.7.2h-1.4c-4.2.5-7.7 3.6-10.4 6.7-3 3.4-5.4 7.2-7.6 11.2-2.4 4.2-4.7 8.5-6.4 13-2 5.1-3.2 10.6-2.9 16.1.1 1.5 2.1 1.8 2.7.7.4.1.9 0 1.3-.4 6.4-5.7 12.5-11.7 18.2-18.1 2.8-3.2 5.6-6.4 8.1-9.7 2.3-3 4.3-6.4 4.6-10.3.1-3.6-1.3-7.3-4.5-9.4z" />
	<path class="surprise_1"
		d="M143.1 93.5c-8.6-3.6-13.3-12.5-20.2-18.3-.3-.3-.7-.4-1.1-.3-.1-.2-.1-.3-.2-.5-.8-1.7-3.3-.1-2.5 1.5 1.8 3.6 1.7 7.7 1.8 11.7.1 3.9.3 7.7 1.7 11.4 1.3 3.5 3.4 6.9 6.2 9.5 1.3 1.2 3 2 4.8 1.6 1.7-.4 3.2-1.7 4.3-3 2.8-3.5 4.8-7.7 5.9-12 .2-.5-.1-1.3-.7-1.6zm-4.1 1.4c-.2-.2-.4-.3-.6-.5-.2-.2-.4-.3-.6-.5l-.1-.2c.6.4 1.2.8 1.8 1.1-.1.1-.3.1-.5.1zm-5.9 12.4c-.5.1-.9.1-1.3-.1.5.2 1.2 0 1.6-.4.1.1.1.2.2.3-.1.1-.3.1-.5.2z" />
	<path class="surprise_2"
		d="M89.1 68c-1.4-.4-2.8-.9-4.2-1.3-.1-.1-.2-.2-.4-.3-3.2-1.8-6.7-2.7-10.2-2.9-.1 0-.3-.1-.4-.1-1.2-2.4-4.3-3.3-6.7-4-3.7-1.1-7.4-2.1-11.2-2.5-6.7-.7-13.7 1-18.2 6.3-2.4 2.9-4.1 6.3-7 8.8-.6.5-.5 1.6 0 2 .1.1.2.1.3.2.1.4.3.7.7 1 3.9 2 7.1 4.8 9.6 8.4 1 1.4 2.9.4 2.6-1.2-.6-3.8 1.9-7.5 4.9-9.6 3.3-2.3 7.2-3.5 11.1-4.6 2.7-.8 5.6-1.4 8.4-1.7 6.7 2.1 13.4 4 20.5 4.4 1.6 0 1.7-2.4.2-2.9z" />
	<path class="surprise_0"
		d="M59.3 144.2c-3.8-.8-6.4-3.1-8.8-6.2-2.4-3.1-4.3-6.5-7.2-9.1-2.8-2.6-6.5-4.3-10.3-4.8-2-.3-4.2-.2-6.1.5-3.8 1.4-6.2 5.5-6.3 9.5s2 7.9 5 10.6 4.9 3.8 9.5 5.4c-1.4.7-2.8 4.1-2.7 4.5.2.6 1.8-.2 2.4-.3 4.4-.5 8.6 1.7 12.8 3.2 4.1 1.5 7.8.9 12.1-.2" />
	<path class="surprise_0"
		d="M59.7 142.7c-5.5-1.3-8.2-6.1-11.4-10.4-3.4-4.5-7.6-8.1-13.2-9.4-5.4-1.2-11.1 0-14.1 5-2.7 4.4-2.1 10 .6 14.3 3 4.7 8.1 7.5 13.2 9.3-.1-.9-.2-1.8-.4-2.7-1.1.6-1.8 1.7-2.4 2.8-.4.8-1.1 1.9-1.1 2.9 0 1.5 1.6 2 2.8 1.7.5-.1 1-.4 1.5-.4.9-.1 2 0 2.9.1 3.8.6 7.1 2.7 10.8 3.6 3.7.9 7.5.2 11.2-.8 1.9-.5 1.1-3.4-.8-2.9-3 .7-6.1 1.5-9.1.9-3.1-.6-5.9-2.2-8.9-3.1-2.6-.8-5.3-1.2-7.9-.4-.1 0-.4.1-.5.1.8.3 1.1.7 1.1 1.3v-.1c.2-.2.2-.6.4-.9.4-.8.8-1.8 1.6-2.2 1.2-.7.8-2.3-.4-2.7-4-1.4-7.7-3.4-10.5-6.7-2.9-3.5-4-8.5-1.5-12.5 2.7-4.5 8-4.6 12.5-3.1 5.1 1.7 8.3 5.6 11.3 9.8 3 4.3 6.2 8.2 11.6 9.5 1.8.4 2.6-2.5.7-3z" />
	<path class="surprise_0" d="M28.4 124.8c-2.1 6.4-2.4 13.5-.7 20 .1.2.3.5.5.4" />
	<path class="surprise_0"
		d="M28.1 124.7c-1.2 3.7-1.8 7.6-1.8 11.5 0 1.9.2 3.8.5 5.6.2 1 .3 2 .6 2.9.1.5.3.9.9.9.5 0 .5-.8 0-.8-.4 0-1-4.7-1-5.1-.2-1.7-.2-3.3-.2-5 .1-3.4.7-6.7 1.8-9.9 0-.4-.7-.6-.8-.1zM32.8 124.3c-1.7 2.4-.8 19.7 1.4 24.3 0 .1.1.2.2.2s0-.2 0-.2" />
	<path class="surprise_0"
		d="M32.5 124.1c-.8 1.2-.8 3-.9 4.4-.2 2.6-.1 5.2.1 7.8.2 2.6.4 5.3.9 7.9.2 1 .4 2.1.7 3 .2.6.4 1.6 1 1.9.1 0 .3 0 .4-.1.1-.2.2-.3.1-.5 0-.2-.2-.3-.4-.3h-.1c-.5 0-.5.7 0 .8h.1c-.1-.1-.2-.2-.4-.3.4-.1.5-.2.4-.5 0-.1-.1-.2-.1-.3 0-.2-.1-.4-.2-.6-.1-.4-.2-.8-.3-1.1-.3-1-.5-2-.6-3-.4-2.5-.6-5-.8-7.5-.1-2.3-.2-4.7-.1-7 .1-1.3 0-3.1.8-4.2.3-.4-.4-.8-.6-.4zM30.8 124.9c-.8.9-.9 2.1-1 3.2-.6 6.3-.4 12.8 1.4 18.9 0 .1.1.2.2.2s.2-.1.1-.2" />
	<path class="surprise_0"
		d="M30.4 124.7c-1.1 1.4-1.1 3.4-1.2 5.1-.2 2.1-.2 4.3-.2 6.4.1 2 .3 4.1.6 6.1.2 1.1.4 2.2.7 3.2.2.6.2 1.6.7 2 .1.1.2.1.4.1 0 0 .1 0 .1-.1.1-.1.3-.2.3-.4v-.1c0-.5-.8-.5-.8 0v.1c.1-.1.2-.2.3-.4.2.2.3 0 0-.3-.1-.3-.2-.5-.2-.8l-.3-1.2c-.2-.9-.4-1.9-.5-2.8-.3-1.9-.5-3.8-.5-5.7-.1-1.8 0-3.6.1-5.4.1-1.8 0-4 1.2-5.5.3-.3-.4-.7-.7-.3zM34.7 124.3c-.2 1.4-.4 2.9-.4 4.3 0 1.3 0 2.5.1 3.8.3 5.8.9 11.6 1.9 17.3-.2 0 .8 3.9.9 3.8" />
	<path class="surprise_0"
		d="M34.3 124.2c-1 6.6-.2 13.5.7 20.1.2 1.7.6 3.3.8 5 .2 0 .2.1.1.2l-.1.1v.2c0 .2.1.5.1.7.1.6.4 3.2 1.1 3.3.5.1.7-.6.2-.7.2 0 .2.2.1 0 0-.1-.1-.3-.1-.4-.1-.3-.2-.6-.3-1-.2-.6-.3-1.3-.4-1.9 0-.2 0 .2-.1.1 0 0 .1-.1.1-.2l-.3-1.8c-.3-1.6-.5-3.3-.7-4.9-.8-6.1-1.5-12.5-.6-18.6.2-.5-.5-.7-.6-.2zM36.6 126.3c-.8 4.3.2 9.2.8 13.6.8 5.4 1.5 10.1 3.4 15.2 0-.1.1-.3.1-.4" />
	<path class="surprise_0"
		d="M36.3 126.2c-.8 4.8.2 9.5.9 14.3.7 5 1.6 10 3.3 14.8.1.3.6.4.7 0 0-.1.1-.3.1-.4.1-.5-.6-.7-.7-.2 0 .1-.1.3-.1.4h.7c-1.6-4.5-2.5-9.1-3.2-13.9-.7-4.8-1.8-9.9-1-14.8.1-.4-.6-.6-.7-.2zM38.7 126.5c.1 7 .9 14 2.3 20.9.6 2.7 1.2 5.4 2.4 8 .1.1.1.2.3.2.1 0 0-.3-.1-.2" />
	<path class="surprise_0"
		d="M38.3 126.5c.1 5.4.6 10.8 1.5 16.2.4 2.6.9 5.2 1.5 7.8.3 1.3.7 2.5 1.2 3.8.2.6.4 1.5 1.1 1.8.2.1.3 0 .4-.2.1-.2.1-.3 0-.6-.1-.2-.3-.2-.4-.2h-.1c-.5.1-.3.8.2.7h.1c-.1-.1-.3-.1-.4-.2v-.2c.1-.1.3-.1.4-.2-.2-.1-.6-1.4-.7-1.7l-.6-1.8c-.3-1-.6-2.1-.8-3.1-.5-2.4-1-4.7-1.3-7.1-.8-5-1.2-10-1.3-15 0-.5-.8-.5-.8 0zM41.4 127.8c-.2 9.8 2.4 19.5 4.9 29 .1-.2.2-.3.3-.5" />
	<path class="surprise_0"
		d="M41.1 127.8c-.1 9.9 2.4 19.6 4.9 29.1.1.3.5.4.7.1.1-.2.2-.3.3-.5.2-.4-.4-.8-.6-.4-.1.2-.2.3-.3.5.2 0 .5.1.7.1-2.5-9.5-5-19-4.9-28.9-.1-.5-.8-.5-.8 0z" />
	<g>
		<path class="surprise_0" d="M43.6 130.6c0 7.2 2.4 14.4 4 21.5.4 1.9.9 3.9 1.9 5.6.1-.2.1-.3.2-.5" />
		<path class="surprise_0"
			d="M43.3 130.6c0 4.8 1 9.5 2.2 14.1.6 2.3 1.2 4.7 1.7 7 .5 2.1 1 4.2 2 6.1.2.3.6.2.7-.1.1-.2.1-.3.2-.5.2-.4-.5-.6-.7-.2-.1.2-.1.3-.2.5.2 0 .5-.1.7-.1-1.1-2-1.6-4.2-2.1-6.4s-1.1-4.4-1.6-6.5C45 140 44 135.3 44 130.6c0-.5-.8-.5-.7 0z" />
	</g>
	<g>
		<path class="surprise_0"
			d="M46.3 133.6c.6 6.8 1.1 13.7 3.3 20.3.4 1.2.9 2.4 1.3 3.6.1.1.1.3.3.3.1 0 0-.3-.1-.2" />
		<path class="surprise_0"
			d="M46 133.6c.4 4.4.7 8.9 1.5 13.3.4 2.2.9 4.5 1.6 6.6.3 1 .6 1.9 1 2.8.2.5.3 1.4.9 1.7.2.1.4 0 .5-.1.1-.2.1-.3.1-.5-.1-.2-.2-.3-.5-.3H51c-.5.1-.3.8.2.7h.1c-.2-.1-.3-.2-.5-.3v-.1c.2 0 .3-.1.5-.1-.5-.2-1-2.4-1.2-2.8-.3-.8-.6-1.7-.8-2.6-.6-2-1-4-1.4-6-.7-4.1-1.1-8.3-1.4-12.4.2-.4-.6-.4-.5.1z" />
	</g>
	<g>
		<path class="surprise_0" d="M49 137.2c.1 2 .3 4.1.5 6.1.4 5 1.1 10.2 4.1 14.2.1.1.1.1.2.1s0-.2-.1-.1" />
		<path class="surprise_0"
			d="M48.7 137.2c.3 4 .5 8.1 1.2 12 .3 1.8.8 3.5 1.5 5.2.4.9.8 1.7 1.3 2.5.3.4.5 1 1.1 1.1.2 0 .3-.1.4-.3.1-.2 0-.3-.1-.4-.1-.2-.3-.2-.5-.1-.4.2-.1.9.4.6-.2 0-.3-.1-.5-.1v-.2c.1-.1.2-.2.4-.3-.1 0-.6-.9-.6-1-.2-.4-.4-.8-.6-1.1-.4-.8-.7-1.5-1-2.3-.5-1.5-.9-3.1-1.1-4.7-.6-3.6-.8-7.2-1-10.8-.2-.6-1-.6-.9-.1z" />
	</g>
	<g>
		<path class="surprise_0" d="M51.1 139.7c.5 2.8.5 5.7 1 8.6.6 3.4 1.8 6.6 3.6 9.5" />
		<path class="surprise_0"
			d="M50.7 139.8c.5 3.3.5 6.6 1.2 9.8.7 2.9 1.8 5.8 3.4 8.3.3.4.9 0 .6-.4-1.6-2.6-2.8-5.4-3.4-8.5-.7-3.1-.6-6.4-1.1-9.5 0-.4-.8-.2-.7.3z" />
	</g>
	<g>
		<path class="surprise_0" d="M52.8 141.3c.2 1.9.4 3.8.6 5.6.1 1.1.2 2.2.5 3.3.4 2.2 1.3 4.3 2.5 6.2" />
		<path class="surprise_0"
			d="M52.4 141.3c.3 2.7.5 5.5.9 8.3.4 2.5 1.3 5 2.6 7.2.3.4.9 0 .6-.4-1.3-2.1-2.2-4.5-2.6-7-.4-2.7-.6-5.4-.9-8.1.1-.5-.6-.5-.6 0z" />
	</g>
	<g>
		<path class="surprise_0" d="M55.7 143.7c-.2 4.5-.3 9.1 1.3 13.3 0 .1.1.2.2.2s.2-.1.2-.2" />
		<path class="surprise_0"
			d="M55.3 143.7c-.1 2.9-.2 5.9.2 8.8.2 1.4.5 2.7.9 4 .1.4.3 1 .7 1.1.3.1.6-.2.6-.5 0-.5-.8-.5-.8 0 .3-.2.4-.4.2-.6-.1-.2-.1-.3-.2-.5s-.1-.5-.2-.7c-.2-.5-.3-1.1-.4-1.7-.2-1.1-.3-2.2-.4-3.3-.1-2.2-.1-4.4 0-6.6.2-.5-.5-.5-.6 0z" />
	</g>
	<g>
		<path class="surprise_0" d="M58.1 144.5c-.1 4.1-1 8.4.2 12.3 0 .1.1.1.1.1.1 0 0-.1 0-.1" />
		<path class="surprise_0"
			d="M57.7 144.5c0 2.3-.3 4.6-.4 6.9 0 1.1 0 2.2.1 3.4.1.5.1 1 .2 1.5.1.4.1.8.5 1 .1.1.3.1.5-.1.1-.1.2-.3.1-.5 0-.2-.2-.3-.4-.3-.5-.1-.5.7 0 .8-.1-.1-.2-.2-.4-.3v.1c0-.1.1-.2.1-.4.2 0 .3 0 .5-.1-.1 0-.1-.6-.1-.7-.1-.3-.1-.5-.1-.8-.1-.5-.1-1-.2-1.5-.1-1 0-2 0-3 .1-2 .3-4.1.4-6.1 0-.3-.8-.3-.8.1z" />
	</g>
	<g>
		<path class="surprise_0" d="M26.4 125.5c-2.1 5.3-2.9 11.1-2.5 16.8.3 0 .5-.1.8-.1" />
		<path class="surprise_0"
			d="M26.1 125.4c-2.1 5.4-2.9 11.2-2.5 16.9 0 .3.2.4.5.4s.5-.1.8-.1c.5-.1.3-.8-.2-.7-.3 0-.5.1-.8.1.2.1.3.2.5.4-.4-5.7.4-11.4 2.4-16.7.2-.5-.6-.7-.7-.3z" />
	</g>
	<g>
		<path class="surprise_3"
			d="M110.8 67.6c-7.8-4.7-15.2-10-22.1-16-3.4-2.9-6.7-6-9.8-9.3-2.9-3.1-5.7-6.5-6.6-10.8-.8-3.9.5-7.8 3.8-10.1 2.9-2.1 6.7-3.1 10.1-3.9.6-.1.8-.3 1.2.2.3.4.4 1 .5 1.4.4 1.2.7 2.3 1 3.5.5 2.2 1 4.5 1.7 6.6 1.4 4.1 3.6 7.8 6 11.4 5.5 7.9 13 16.2 11.9 26.5-.2 1.9 2.8 1.9 3 0 1-10-5.5-18.4-11-26.1-2.8-3.8-5.5-7.8-7-12.3-.8-2.5-1.3-5-2-7.5-.5-2-.9-5.2-2.9-6.4-1.7-1-4.2 0-5.9.5-1.9.5-3.8 1.2-5.7 2-3.7 1.8-6.9 4.8-7.8 9-2.1 9.8 6.4 17.5 12.9 23.5 8.3 7.7 17.3 14.5 27 20.3 1.9 1.1 3.4-1.5 1.7-2.5z" />
	</g>
	<g>
		<path class="surprise_3"
			d="M89 17.5c3-.8 5.9 1.5 7.8 3.5 2.5 2.6 4.2 5.8 5.7 9.1 3.3 7.2 5.3 15 5.8 22.9.3 4.5.1 9.1-.6 13.6 1 .1 2 .3 2.9.4 1-7.9 3.3-15.7 6.6-23 3.2-6.8 7.2-13.9 12.8-19.1 2.6-2.4 5.6-4.3 9.1-4.9 2.1-.4 3.6.2 4.7 2.1.9 1.6 1.3 3.4 1.3 5.2.2 8.3-6.4 14.4-11.9 19.8-7.3 7.2-14.6 14.5-21.9 21.7-1.4 1.4.7 3.5 2.1 2.1 7.2-7.1 14.4-14.3 21.6-21.4 6-6 12.9-12.5 13.1-21.6.1-3.7-1.2-8.6-4.7-10.4-3.5-1.8-8.4.3-11.5 2.2-6.9 4.4-11.7 12-15.4 19.1-4.6 8.8-7.6 18.3-8.8 28.2-.2 1.7 2.7 2.1 2.9.4 1.3-8.7 1-17.6-1.1-26.2-1.1-4.3-2.5-8.5-4.4-12.5-1.7-3.6-3.6-7-6.3-9.8-2.7-2.8-6.6-5.3-10.6-4.2-1.9.5-1.1 3.4.8 2.8z" />
	</g>
	<g>
		<path class="surprise_3"
			d="M109.4 69.1c-8.2 1.4-16.4 0-24-3.3-7-3.1-13.6-7.3-20.8-9.9-6.8-2.4-14.7-3.6-21.6-.8-6.2 2.5-10.9 8-12.5 14.5-.4 1.8-.7 3.8-.4 5.6.3 2 1.7 3.1 3.4 4 3.7 1.8 6.7 4.2 8.9 7.7.9 1.5 3.1.5 2.7-1.2-.9-4.5 1.4-8.9 4.6-11.8 3.7-3.4 8.8-4.6 13.8-4.7C74.6 69 85 74.3 96 74.5c5.5.1 11.2-1 15.8-4.3 1.6-1.1.1-3.7-1.5-2.6-9.6 6.8-21.8 3.1-32.2.6-10.2-2.4-22.7-4.1-30.9 3.9-3.8 3.7-6 9-5 14.4l2.7-1.2c-1.8-2.8-4.1-5.3-6.9-7.1-1.3-.9-2.9-1.4-4.2-2.3-1.3-.9-1-2.9-.8-4.3 1-6.2 5.3-11.7 11.2-13.9 6.7-2.5 14.1-1 20.6 1.5 6.8 2.6 13 6.6 19.7 9.5 8.1 3.5 16.7 4.8 25.5 3.3 2.1-.3 1.3-3.2-.6-2.9z" />
	</g>
	<g>
		<path class="surprise_3"
			d="M112.9 72.7c3.9.3 5.7 4.5 6.2 7.8.7 4.3.5 8.7.7 13.1.3 7.3 1.7 15.6 9.3 18.6 3.1 1.2 6.5.8 9.1-1.3 2.8-2.3 3.9-5.9 5.1-9.2.4-1 .7-2 1.1-3 .4-1 1-2.2.9-3.4-.2-1.9-2.6-3.2-3.9-4.3-3.3-2.8-6.7-5.5-9.8-8.5-1.7-1.6-3.2-3.4-4.5-5.3-1.2-1.7-2.5-3.4-4.1-4.7-3.2-2.5-7.4-3.8-11.5-3.4-1.9.2-1.9 3.2 0 3 3.3-.3 6.7.6 9.4 2.6 2.9 2.1 4.5 5.5 6.8 8.1 2.6 2.8 5.6 5.2 8.5 7.7 1.6 1.4 3.2 2.7 4.7 4.1.3.3.8.6 1.1.9.3.4.2.5.1 1-.3 1.1-.8 2.2-1.2 3.3-1.1 3-2 6.6-4.4 8.8-2.3 2-5.5 1.5-7.9 0-6.3-4-5.6-13.2-5.9-19.7-.2-4.2 0-8.8-1.6-12.7-1.4-3.4-4.3-6.2-8.2-6.4-2-.3-2 2.7 0 2.9z" />
	</g>
	<g>
		<path class="surprise_3"
			d="M108 72.3c-4.3 16.2-7.3 32.7-9.7 49.3-1.2 8.2-2.3 16.5-3.4 24.7-1.1 8.3-2.2 16.6-2 25 .1 2.4.2 4.7.4 7.1.2 2 .3 3.9 2.4 4.7 4.1 1.5 9 1.7 13.3 1.5.8 0 1.5-.7 1.5-1.5 1.5-28.8.4-57.6 1-86.4.2-8.1.5-16.2 1-24.3.1-1.9-2.9-1.9-3 0-1.9 28.8-.9 57.6-1.3 86.4-.1 8.1-.3 16.2-.8 24.3l1.5-1.5c-3.9.2-7.8-.2-11.6-1.2-1-.3-.9-.5-1-1.6-.1-1-.2-1.9-.2-2.9-.1-2-.2-3.9-.2-5.9-.1-8 1-15.8 2.1-23.7 2.1-15.8 4.2-31.5 7.2-47.2 1.7-8.7 3.6-17.4 5.9-26 .3-1.9-2.6-2.7-3.1-.8z" />
	</g>
	<g>
		<path class="surprise_3"
			d="M110.2 131.4c17.9.9 35.9.3 53.6-2.1.8-.1 1.5-.6 1.5-1.5 0-.7-.7-1.6-1.5-1.5-17.7 2.3-35.8 3-53.6 2.1-1.9-.1-1.9 2.9 0 3z" />
	</g>
	<g>
		<path class="surprise_3"
			d="M109.9 145.4c10.6 1.2 21.2 2.1 31.8 1.7 4.8-.1 9.4-.8 14.2-1.2 2.9-.2 7.1-.2 9-2.9.6-.9.7-1.9.9-2.9.2-1.3.4-2.6.6-3.8.3-2.8 0-5.6-.5-8.3-.4-1.9-3.3-1.1-2.9.8.5 2.3.6 4.6.5 6.9-.1 1-.2 2-.4 3-.1.8-.2 1.8-.5 2.5-.6 1-2.2 1.2-3.3 1.4-1.5.2-3 .3-4.5.4-4.6.5-9.2 1-13.9 1.1-4.7.1-9.4 0-14-.3-5.6-.3-11.3-.9-16.9-1.5-2-.1-2 2.9-.1 3.1z" />
	</g>
	<g>
		<path class="surprise_3"
			d="M94.7 140.2c-7.2-.5-14.4-1.9-21.5-3.4-5.4-1.1-11-2.2-16.3-3.9-.2-.1-.3-.1-.5-.2-.3-.1 0 0 0 0h-.1c-.2-.3.6.8.6.7.2.2-.1.3 0 0v-.6c0-1.9.1-3.7.1-5.6-.6.5-1.3 1-1.9 1.4 13.8 3.6 28.2 4.9 42.4 4.4 1.9-.1 1.9-3.1 0-3-14 .5-28.1-.8-41.6-4.3-.9-.2-1.9.5-1.9 1.4 0 1.8-.1 3.6-.1 5.4 0 1 0 2.1 1 2.6 1.5.9 3.6 1.2 5.3 1.6 7.3 1.9 14.6 3.4 22 4.6 4.1.7 8.3 1.3 12.5 1.7 2 .3 2-2.7 0-2.8z" />
	</g>
</svg>