<svg xmlns="http://www.w3.org/2000/svg" viewBox="0 0 200 200">
	<style>
		.the_answer_0 {
			fill: #666
		}

		.the_answer_1 {
			fill: #e7f4df
		}

		.the_answer_2 {
			fill: #10101a
		}

		.the_answer_3 {
			fill: #9f9
		}
	</style>
	<path class="the_answer_0"
		d="M149.5 144.8c.7-.4 2-.1 2.3-.9.1-.4.2-.8.1-1.1 0-.3-.2-.5-.3-.8 0-.1-.3-.5-.3-.6.1-.4 1.6-.7 2-.8.9-.4 1.7-.9 2.4-1.5 3.4-3.1 3.7-8.4.7-11.9-.3-.4-.7-.4-1.1-.3-1.7-2-4.6-2.1-7-1.2-1.5.6-3.3 1.4-4.5 2.5-1.1 1-1.6 2.5-2.4 3.8-1.7 2.9-3.9 5.6-6.6 7.7-1.3 1-2.7 1.7-4.4 2-1.4.2-2.8.2-4.2.2-3.1-.1-6.4-.1-8.9 1.9-.5.4-.5 1.3.1 1.6 6.6 4 14.5 5.4 22.1 4.2 3.7-.7 6.8-2.8 10-4.8z" />
	<path class="the_answer_1"
		d="M120.6 142.3c3.6 1.9 7.7 2.3 11.5.9 2.8-1 5.5-2.8 7.5-5 2.5-2.8 3.1-6.8 6-9.4 3.1-2.8 8.8-4.1 10.6.7 1.8 4.8-2.8 8.9-6.5 10.9-1.2.7-.8 2.3.4 2.7.3.1.6.6.7.8.1.2.2.4.3.5l.1.1c.1-.4.1-.8.2-1.2l-.1.1c.3-.2.6-.5.9-.7-.4.1-1.2-.1-1.7-.1-.9.1-1.8.3-2.7.7-1.8.7-3.3 1.8-5 2.7-.1.1-.2.1-.4.2-.3.1.2-.1-.1 0l-.9.3-2.4.6c-4.8.9-10.1 1-14.9-.2-3-.7-5.8-2-8-4.2-1.4-1.4-3.5.8-2.1 2.1 5 4.9 12.5 6.1 19.2 5.9 2.7-.1 5.5-.4 8.2-1.1 2.8-.7 4.8-2.6 7.5-3.6.5-.2 1.1-.4 1.7-.5.5-.1.9.1 1.4.1 1.1 0 2.1-.7 2-1.9-.2-1.6-1.9-3.2-3.3-3.8.1.9.2 1.8.4 2.7 3.9-2.2 7.5-5.5 8.2-10.1.7-4.6-2.3-9.3-7.1-9.7-5-.4-9.6 3.3-11.9 7.5-.8 1.5-1.6 3.7-2.5 4.9-.8 1.1-1.9 2-3 2.8-3.8 2.7-8.4 3.5-12.7 1.3-1.7-.4-3.2 2.2-1.5 3z" />
	<path class="the_answer_1"
		d="M132.9 148.4c-1.2-.6-2-1.5-2.7-2.6-.8-1.2-1.5-2.5-2.1-3.7-.2-.4-.9-.1-.6.4.6 1.4 1.4 2.7 2.2 3.9.8 1.1 1.7 2.1 2.9 2.7.4.2.8-.5.3-.7zM125.3 142.5c.2 1.8.2 3.6 0 5.4 0 .2.2.4.4.4s.4-.2.4-.4c.2-1.8.2-3.6 0-5.4 0-.2-.2-.4-.4-.4s-.4.2-.4.4z" />
	<path class="the_answer_1"
		d="M124.6 142.4c-1 1.9-1.7 3.9-2.3 6-.1.5.6.7.7.2.5-2 1.2-3.9 2.2-5.8.3-.4-.4-.8-.6-.4zM123.2 142c-.6.8-1.1 1.7-1.7 2.5-.3.4-.6.8-.8 1.2-.1.2-.3.4-.4.6-.1.1-.3.5-.3.5.1 0 .1 0 .2.1.2.2.1.3-.1.4h-.2s-.1 0-.1-.1c.2.1.4.2.5 0 .1-.1.2-.4 0-.5-.6-.5-1.1.5-.5.8.3.2.6 0 .8-.3.2-.3.4-.6.7-.9l2.7-3.9c.1-.5-.6-.8-.8-.4z" />
	<path class="the_answer_1"
		d="M122.9 141.5l-2.7 2.1c-.8.6-1.5 1.2-2 2.1-.2.4.4.8.6.4 0-.1.1-.1.1-.2.3-.4-.4-.8-.6-.4 0 .1-.1.1-.1.2.2.1.4.3.6.4.4-.8 1.1-1.4 1.8-2 .9-.7 1.8-1.3 2.6-2 .2-.1.2-.3.1-.5.1-.1-.2-.2-.4-.1zM126.9 143.6c.4 1.2.9 2.4 1.4 3.5.5.9 1.1 1.8 2 2.3.4.2.8-.5.4-.6-.9-.4-1.4-1.2-1.8-2.1-.5-1-.9-2.1-1.3-3.2-.1-.5-.9-.4-.7.1z" />
	<path class="the_answer_1"
		d="M126.1 142.5c.2 1.5.4 3 .5 4.5.1.7.1 1.4.3 2 .1.5.4.9.9 1.1.5.1.7-.6.2-.7-.4-.1-.4-.8-.4-1.1-.1-.6-.2-1.3-.2-1.9-.2-1.3-.3-2.5-.5-3.8-.1-.6-.9-.6-.8-.1zM123.9 142.3c-.9 1.3-1.9 2.5-2.7 3.8-.4.5-.7 1.1-.7 1.8 0 .6.4 1.3 1 .9.4-.2 0-.9-.4-.6.2.1.2 0 .1 0v-.1-.4c.1-.2.1-.4.3-.7.3-.5.6-.9.9-1.4.7-1 1.4-2 2.1-2.9.4-.4-.3-.8-.6-.4zM124.8 142.9c-.2 1.2-.5 2.4-.6 3.6-.1 1-.2 2.1.5 3 .3.4.9 0 .6-.4-.6-.8-.5-1.8-.3-2.7l.6-3.3c0-.5-.7-.7-.8-.2zM129.1 143.1c.5.1.7.6.9 1 .3.4.5.9.8 1.3.6.8 1.2 1.6 2 2.2.7.6 1.6 1.2 2.5 1.5.3.1 1 .5 1.3 0 .3-.4-.2-.8-.6-.6-.4.2-.1.9.4.6h-.4l-.1-.1v-.3.1l.2-.2c.1 0 .1 0 0 0s-.1 0-.2-.1c-.1 0-.2-.1-.3-.1-.2-.1-.3-.1-.5-.2-.4-.2-.7-.4-1-.6-.7-.5-1.3-1-1.8-1.7-.5-.6-1-1.3-1.4-2-.4-.6-.8-1.4-1.5-1.5-.6-.2-.8.5-.3.7z" />
	<path class="the_answer_1"
		d="M130.6 143.2c1.3 1.4 2.7 2.7 4.4 3.7 1.6 1 3.5 2.1 5.4 1.9.5 0 .5-.8 0-.8-1.8.1-3.7-.9-5.2-1.9-1.5-1-2.9-2.2-4.1-3.5-.3-.3-.9.3-.5.6z" />
	<path class="the_answer_1"
		d="M132 142.2s-.1 0 0 0c0 0 .1.1.2.1v.1c-.2.1-.4.1-.6.2l3 2.7c.9.8 1.7 1.5 2.7 2.1 1 .6 2.1.9 3.2 1.2.3.1.9.3 1.2 0 .2-.3.1-.7-.3-.8-.2 0-.3 0-.4.2-.3.4.4.8.6.4-.1.1-.3.1-.4.2h-.1c0-.1-.1-.2-.1-.3v.1c.1-.1.1-.2.2-.3-.1 0-.4-.1-.5-.1-.2-.1-.5-.1-.7-.2-.4-.1-.9-.3-1.3-.4-.8-.3-1.6-.9-2.3-1.4-1.5-1.2-2.9-2.5-4.3-3.8-.2-.2-.6-.1-.6.2-.1.4.1.7.5.7.5-.1.5-.9 0-.9z" />
	<path class="the_answer_1"
		d="M132.4 141.8c1.6 1.9 3.6 3.5 5.9 4.7 1.1.6 2.3 1 3.5 1.3.4.1 1.1.4 1.5.2.4-.2.4-.7 0-.9-.1-.1-.3-.1-.4 0-.4.3 0 .9.4.6h-.4v-.3.1l.2-.2c-.2.1-1.1-.3-1.3-.3-.5-.1-.9-.3-1.4-.5-.9-.4-1.9-.8-2.7-1.3-1.7-1-3.3-2.4-4.6-3.9-.5-.4-1 .1-.7.5z" />
	<path class="the_answer_1"
		d="M133.5 142c3.7 2.8 8.2 4.3 12.9 4.3.5 0 .5-.8 0-.8-4.5 0-8.9-1.5-12.5-4.2-.4-.2-.8.4-.4.7z" />
	<path class="the_answer_1"
		d="M134.3 141.5c2.4 1.4 5 2.5 7.7 3.2 1.3.3 2.6.5 3.9.6.5 0 2.5.4 2.2-.8-.1-.5-.9-.3-.7.2-.1-.2-1.3-.1-1.6-.2-.6-.1-1.2-.1-1.8-.2-1.1-.2-2.2-.4-3.2-.7-2.2-.6-4.2-1.6-6.2-2.7-.3-.3-.7.3-.3.6z" />
	<path class="the_answer_1"
		d="M135.4 141c5.3 1.7 10.8 2.4 16.4 2.1.3 0 .5-.4.3-.6-.2-.1-.3-.2-.5-.3-.4-.3-.9.2-.5.5.2.1.3.2.5.3l.3-.6c-5.5.4-11-.3-16.2-2-.6-.3-.8.4-.3.6zM137.5 138.8c.9.6 2 .9 3 1.1 1.3.2 2.6.4 3.9.5 1.3.1 2.6.2 3.9.2h2c.3 0 .7 0 1-.1.3 0 .8 0 1.1-.2.4-.3-.2-.8-.5-.5-.8.6.4 1.8 1 1 .2-.3.1-.8-.2-1.1-.3-.2-.7-.1-1 0-.5 0-1 .1-1.5.1-2.1.1-4.1 0-6.2-.2-1.1-.1-2.2-.3-3.2-.5s-1.9-.4-2.7-1c-.7-.2-1 .5-.6.7z" />
	<path class="the_answer_1"
		d="M138.5 137.7c2.4 1.1 5.4 1.4 8.1 1.5 1.4.1 2.9.1 4.3 0 .7-.1 1.4-.1 2.1-.2.5-.1 1 0 1.3-.4.1-.1 0-.3-.1-.5s-.3-.2-.5-.1c-.2 0-.3.2-.3.4 0 .5.8.5.8 0-.1.1-.2.2-.3.4h.1c-.1 0-.2-.1-.4-.1 0-.2 0-.3-.1-.5.1-.1 0-.1-.2 0-.2 0-.3.1-.5.1-.4 0-.7.1-1.1.1-.6.1-1.1.1-1.7.1-1.2.1-2.5.1-3.7 0-1.3-.1-2.6-.2-3.9-.5-1.2-.2-2.4-.4-3.5-.9-.4-.2-.8.4-.4.6z" />
	<path class="the_answer_1"
		d="M139.2 136.9c5.5 1.1 11.3.7 16.6-1.2.5-.2.3-.9-.2-.7-5.2 1.9-10.8 2.3-16.2 1.2-.4-.1-.6.6-.2.7z" />
	<path class="the_answer_1"
		d="M139.7 135.2c-1 1.4 2 1.1 2.4 1 1.8-.1 3.7-.2 5.5-.5 3.4-.5 6.7-1.6 9.5-3.7.4-.3 0-.9-.4-.6-2.2 1.7-4.8 2.7-7.5 3.3-1.5.3-3.1.5-4.6.6-.7.1-1.5.1-2.2.1h-1c-.2 0-1.1-.1-1.2.1.4-.3-.2-.7-.5-.3z" />
	<path class="the_answer_1"
		d="M140.4 135.4c6 .1 11.9-2.2 16.3-6.3.4-.3-.2-.9-.5-.5-4.3 4-10 6.1-15.8 6-.5.1-.5.8 0 .8z" />
	<path class="the_answer_1"
		d="M140.6 134.4c5.7-.5 10.9-3.5 14.2-8.2.3-.4-.4-.8-.6-.4-3.1 4.4-8.1 7.3-13.5 7.8-.5.1-.5.8-.1.8z" />
	<path class="the_answer_1"
		d="M151.2 125.8c0 1-.9 1.7-1.6 2.3-.9.7-1.8 1.4-2.7 2-1.8 1.3-3.7 2.4-5.9 3l.5.5c0-.1.1-.2.2-.3.4-.3-.2-.8-.5-.5-.2.2-.3.4-.4.6-.1.3.2.5.5.5 2.4-.7 4.5-1.9 6.5-3.4.9-.7 1.9-1.4 2.8-2.1.8-.7 1.5-1.5 1.5-2.5-.1-.5-.8-.5-.9-.1z" />
	<path class="the_answer_1"
		d="M149.1 125.7c-2.1 2.8-4.9 5.1-8.1 6.6-.4.2-.1.9.4.6 3.3-1.6 6.2-3.9 8.4-6.9.2-.3-.5-.7-.7-.3zM135.5 139.8c3.9 1.6 8.2 2.4 12.5 2.1 1-.1 2-.2 3-.4.6-.1 1.4-.1 1.5-.8.2-1.2-1.7-.9-1.3.2.2.5.9.3.7-.2-.1-.3-1.4.1-1.7.2-.7.1-1.5.2-2.2.3-1.4.1-2.7.1-4.1 0-2.8-.2-5.6-.9-8.2-2-.4-.3-.6.4-.2.6z" />
	<path class="the_answer_0"
		d="M144.9 151.4c-.9-5.2-1.3-10.4-2.4-15.5-1.1-5.1-3.1-9.9-5.7-14.5-1.3-2.2-2.6-4.2-4-6.3-1.4-2.1-2.8-4.5-5.1-5.8-.9-.5-1.9-.8-2.8-1.3-1-.5-1.9-1.2-2.7-2-1.5-1.4-2.4-3.2-3.4-4.9-.9-1.7-1.9-3.5-3.2-5-1.6-1.8-3.6-2.8-6-3.1-2.7-.3-5.4-.2-8.1 0-2.6.2-5.1.5-7.7.9 8.1-2.5 15.3-7.3 20.2-14.3 4.2-5.9 6.5-13.1 6.2-20.4.1-.2.1-.5.1-.7 0-.2-.1-.4-.1-.6 0-.2-.1-.5-.1-.7-.1-1.2-.3-2.4-.6-3.5-.1-.3-.2-.5-.4-.8-1.1-3.9-2.7-7.6-4.9-11.1-3-4.9-6.9-9.7-11.5-13.3-2.3-1.8-5-3.4-7.9-4-3.5-.7-6.9-.1-10.4.6-6.4 1.3-12.9 2.3-18.9 4.9-5.4 2.3-10.2 6.5-12.2 12.1-1-.1-2.1.5-2.3 1.5-1.6 9.6-3.3 19.6-.4 29.2.7 2.2 1.6 4.4 2.8 6.4 1.2 2 2.7 3.8 4.2 5.6 3 3.4 5.6 7.4 10 9.1 2.2.8 4.6 1.2 6.9 1.4 2.4.6 4.5.7 6.5.7 1.1 0 2.1-.1 3.2-.1H84c-2.1.4-4.3.9-6.3 1.6-.1-.1-.2-.1-.4-.1-2.5-.5-4.6.7-6 2.7-.4.5-.6 1-.8 1.6-2.2 2.1-3.9 4.7-4.6 7.9 0 .2-.1.4 0 .6l-.2.2c-1.7 1.4-3.3 2.6-4.6 4.4-1.4 1.9-2 4.1-1.6 6.4.1.6.5 1.6.3 2-.1.4-.6.7-.8 1-.4.5-.9.9-1.2 1.5-1.3 1.9-1.9 4.4-2.5 6.6-.6 2.3-1.1 4.7-1.4 7-.3 2.6-.5 5.2-.4 7.8.1 2.2 1 4.9 3.5 5.3 1.1.2 2.3-.2 2.6-1.5.2-.8.5-1.5 1.1-2.1.7-.6 1.6-.9 2.4-1.4 1.8-1.1 3-2.9 3.5-4.9.2-.2.4-.5.5-.9.5-2.5.8-5.2 1.1-7.8.1-.5.2-1.1.2-1.6.4-2.3.9-4.6 1.9-6.8.5-1 1.1-2 1.8-2.9.1-.1.4-.5.7-.7.1.1.3.3.4.3 1.3 1.6 2.2 3.5 2.6 5.6.4 1.9.4 4.2-.1 6.1-.3 1.1-.6 1.9-1.2 2.9-.8 1.4-1.4 3-.6 4.6.4.8 1.1 1.3 1.9 1.7-.2.3-.4.5-.4.6-1.4 2-1.9 4.7-1.9 7.1 0 1.9.4 3.8.9 5.7-.7.5-1.3 1.4-.9 2.3 1.4 3.3 2.7 6.7 4.1 10 .1.1.1.2.2.4 0 .3.1.6.1 1 .1 2 0 3.9-.4 5.8-.2 1-.5 1.9-.9 2.8-.5 1.3-.9 2.4-.6 3.9.3 1.2 2 2.1 3.1 1.2 4.3-3.3 10.2-4.2 15.1-1.9 1 .5 2.3.3 2.8-.7 1.1-1.9 2.4-3.9 4.2-5.2 1.9-1.4 4-1.7 6.3-1 1.3.4 2.5.9 3.7 1.4 1.3.6 2.7 1.5 4.2 1.6 1.8.1 3.1-1.2 3.3-2.9.1-1.4-.1-2.8-.2-4.2-.1-2.9 0-5.9.6-8.7.6-2.9 1.7-5.6 2.4-8.4.7-2.8.9-5.8.1-8.6-.4-1.3-1-2.4-1.6-3.6.3-.5.4-1 .2-1.6-1.5-6.7-4-13.1-7.5-19.1.7.8 1.6 1 2.7.6 1.6-.7 2.3-2.6 2.3-4.2 0-.7-.2-1.6 0-2.3.1-.3.2-.3.3-.4-.2.1.1 0 .1-.1.2-.1.3-.2.5-.3h.2c.1-.1.3-.1.4-.2.1 0 .2-.1.4-.1 0 .2.1.4.1.6 0 .3.1.5.1.8-.7.2-1.3.6-1.4 1.4-.2 1.2.1 2.3.6 3.2.8 2.1 2.1 3.9 3.5 5.6 1.8 2.3 3.6 4.4 4.9 7.1 1.3 2.7 1.8 5.6 1.6 8.6-.2 3.2-.8 6.5-.5 9.7.2 1.9.8 3.6 1.6 5.3.3.7.7 1.5 1 2.3-.4.6-.5 1.5 0 2.1.1.1.2.3.3.4 1.5 1.9 3.1 3.8 5.5 4.7 2.3.9 5.1.7 7-1.1 3.6-3.7 1.7-9.1 1-13.2z" />
	<path class="the_answer_2"
		d="M101.2 92.1c-1.7-.1-3.3.2-4.8.8-1.4.6-2.7 1.5-4.2 2.1-.8.3-1.6.5-2.4.6-.6.1-1.2.1-1.8.1-.2 0-.4.1-.6.2-1.6.2-3.1.3-4.7-.1-1.3-.3-2.7-.8-4.1-.6-1.1.2-2.8 1.2-2.2 2.6.4.8 1.3 1 2.2 1.2.2.2.5.4.8.5-.1.3 0 .7.3 1 1.8 2 4.5 3.1 7.2 2.9.4 0 .7-.2.9-.5.5 0 .9 0 1.3-.1 1 .2 2 .1 2.7-.7.7 0 1.4-.2 1.9-.8.7.1 1.3 0 1.8-.4.6-.1 1.1-.3 1.5-.6.7-.5 1.3-1.3 1.6-2.1.7-.1 1.3-.5 1.7-1.1.1-.1.1-.2.2-.3.4-.1.7-.3.9-.6.4-.5.4-1.1.1-1.6v-.1c.2-.3.3-.6.5-.9.4-.7 0-1.5-.8-1.5zM108.2 93.7l-.1.1h-.2c-.2-.2-.4-.3-.6-.4-.4-.2-.8-.3-1.2-.3-.2-.1-.4-.1-.7-.1-.4 0-.9.4-1 .8v.1c-.2.1-.3.2-.4.3-1.4 1.2-.8 3.2-.3 4.7.5 1.6 1.1 3.2 1.9 4.6.7 1.3 1.6 2.7 3.2 2.6.7 0 1.2-.6 1-1.3-.8-3.2-1.7-6.9.1-10 .8-1.2-1-2.3-1.7-1.1zM111.7 119.5c-1.7-1.1-3.4-2.3-5.2-3.4-.9-.6-1.7-1.1-2.6-1.7-.8-.5-1.5-1-2.4-1-.9-.1-1.8.2-2.6.5-.9.2-1.9.4-2.9.5h-.5c-.1-.3-.4-.6-.9-.6h-1.5l-3.2.1c-.2 0-.5.1-.6.2-.5-.1-1-.1-1.5.1-.8.3-1.4.9-1.8 1.6-.3 0-.5.2-.7.5-1.2 1.7-2.4 3.4-3.6 5.2-.1.1-.1.2-.1.2-.2.3-.4.5-.7.8-.8.9.2 2.1 1.1 1.7.2.2.5.2.8.1 1.4-.5 2.9-.8 4.4-1 1-.2 2.2-.4 2.9-1.2 4.9-1.2 10.2.4 15.2-.7.2-.1.4-.2.5-.4 1.9.4 3.8.7 5.8.3.8-.1.8-1.4.1-1.8zM67.1 146.9l-.9-.6c0-.6-.5-1.2-1.3-1-1.9.3-3.6 1.1-5 2.3-.1.1-.2.2-.3.4-.2.2-.4.3-.6.5-1.5 1.4-2.2 3.5-2.2 5.5 0 2.1.7 4 1.6 5.9.1.4.3.8.6 1.1 0 .1.1.1.2.2l.1.1.2.2c.9.8 2.3 1 3.4.7.1 0 .2-.1.3-.2.4 0 .7 0 1-.1.8-.1 1.4-1.1.7-1.8-.4-.4-.8-.8-1.1-1.2-.1-.5-.3-1-.7-1.5l.3-.3c.1-.2.2-.4.2-.7.8-.8 2.7-.2 3.6 0 1.3.4 1.8-1.6.6-2-1.3-.4-2.6-.7-4-.3l-.9.3c-.1-.1-.2-.1-.3-.1 0-.7-.3-1.6-.6-2.4v-.4c.2-1 .9-1.4 1.8-1.6 1.7-.3 3.8.7 4 2.6.1.6.4 1 1 1 .5 0 1.1-.5 1-1 0-2.2-1-4.2-2.7-5.6zM118.3 169.5l-.6-.6c0-.2 0-.4-.1-.5-.5-.9-1.3-1.5-2.2-1.9-.4-.2-.9-.4-1.3-.7-.4-.3-.8-.6-1.3-.9-.7-.4-1.5.2-1.6.8-.1-.1-.3-.1-.4-.1l-1.1.1h-.2s-.1-.1-.2-.1c-.2-.2-.6-.2-.8-.1-.2.1-.5.2-.6.5-1.3.2-2.7.3-4 .5-.6.1-1 .4-1 1s.5 1.1 1 1c2.1 0 4.3-.2 6.4-.1h.1c.6.2 1.3.3 1.9.3 1.1.2 2.1.5 3.2.8.5.4.9.9 1.3 1.4.9 1 2.4-.5 1.5-1.4zM97.9 161.3c-1.1-1.6-3.2-2.5-4.8-3.5-1.9-1.1-3.7-2.3-5.6-3.4-.4-.2-.8-.2-1.1 0l-.6-.6c-.1-.1-.2-.3-.4-.4-1.4-1.5-2.6-3.1-3.7-4.9-.9-1.4-2-2.8-3.5-3.6-.2-.6-1.1-1.1-1.7-.5-2.6 2.6 2.1 5.4 3.7 6.8.3.3.7.3 1 .2.9 1.3 2 2.5 3 3.7l.1.1c.1.2.3.3.4.5.4.4.8.9 1.2 1.3.1.2.3.3.4.5.1.2.2.3.4.4 1.7 3.1 5.4 4.9 8.9 3.8.2.1.3.3.4.5.8 1.3 2.6.2 1.9-.9zM119.4 137.8c-.3-1.4-.7-5.2-3-3.8-.9.6-1.7 1.5-2.5 2.2-.9.8-1.7 1.6-2.6 2.4-1.4 1.4-2.8 2.8-4.1 4.2-.2.1-.4.2-.5.4-.1.2-.2.3-.3.5-1.6 1.7-3.2 3.5-4.6 5.4-1.5 1.9-2.6 4.1-2.8 6.5 0 .2 0 .3.1.5-.2.6-.1 1.2.2 1.7.2.3.4.5.6.7.1.5.6.9 1.2.7.2-.1.4-.1.6-.2.8 0 1.5-.4 2-1 2.2-1.4 3.9-3.7 5.5-5.9 2.5-3.4 5.3-6.4 8.7-8.9.8-.6 1.8-1.1 2-2.2.3-.9-.2-2.2-.5-3.2zm-2.5-1.5c.1.2.1.5.2.7-.1-.2-.3-.3-.5-.4l.3-.3zM146.2 152c-.3-2.1-.8-4.3-1.8-6.1v-.1c-.4-2.1-2.1-3.9-4.2-4.3-.3-.1-.5 0-.7.1-.1-.1-.2-.1-.3-.2-.5-.3-1.1-.5-1.7-.7-.7-.3-1.5-.5-2.3-.6-1.1-.1-2.3-.1-3.3.3-.8.3-.9 1.2-.5 1.7-.6.6-1.1 1.2-1.7 1.8-.8.7.1 2.1 1 1.7.7-.2 1.1-.7 1.7-1.1.6-.4 1.3-.6 2-.6 1.7-.1 3.2.6 4.7 1.3.3.2.7.1 1 0 1.3 2.6 2.8 5.2 4.5 7.5.4 1.1 1.8.5 1.6-.7z" />
	<path class="the_answer_3"
		d="M69.9 66.4c-.1-.9-.8-1.5-1.7-1.6-.8 0-1.5.5-2 1.1-.4.5-.9.9-1.5 1.3-1.2.7-2.6.7-3.7 1.5-.8.6-1.3 1.5-.6 2.3.5.6 1.1 1.2 1.7 1.6.7.4 1.5.5 2.1 1 .7.6 1.3 1.3 1.8 2 .3.4.9.7 1.4.4.4-.3.7-1 .4-1.4-.3-.4-.5-.8-.7-1.2v-.2c0-.3 0-.6.1-.8v-.2c0-.1 0-.2.1-.4.1-.5.2-1 .4-1.5s.4-1 .7-1.5c.2 0 .4-.1.6-.3.5-.6 1-1.3.9-2.1zM107 60.6c-.4-.1-.8-.1-1.2-.1-.4 0-.8-.1-1.2-.1-.7 0-1.4-.1-2.1-.1-.1-.1-.2-.1-.3-.2-.5-.3-1.1-.5-1.7-.5-.4 0-.8.3-1 .6-.1.2-.1.3-.1.5s.1.5.3.6c.3.2.5.5.8.7l.3.3c.2.3.4.6.5.9.1.2.4.4.6.5.2.1.6 0 .8-.1.5.6.9 1.2 1.4 1.8.2.3.6.3.9.3.3 0 .6-.2.8-.5.5-.6 1-1.3 1.5-1.9.3-.3.6-.7.7-1.1.1-.7-.3-1.3-1-1.6z" />
	<path class="the_answer_2"
		d="M118.2 180.1c-.2-1.2-1.1-2.5-2.4-2.8-.2 0-.4-.1-.6 0h-.8c-.1 0-.1-.1-.2-.1-.3-.1-.7-.3-1.1-.3-.4-.3-.8-.6-1.3-.8-1-.5-2.4-.8-3.4-.1-.2 0-.4.1-.6.1-.5-.2-.9-.2-1.4-.2-.3-.3-.6-.5-1-.7-1.3-.6-2.6-.1-3.3 1.1-.1.1-.2.3-.2.4-.7.4-1.2 1.1-1.4 1.8-.3.3-.5.6-.6 1-.3 1 .2 2.2 1.1 2.7.3.2.6.3 1 .3l.1.1c-.1.5.2 1.1.7 1.2 2.1.5 4-.3 6-.5.4.5 1 .6 1.5.6 1.5.1 3.1-.1 4.6-.5.6 0 1.1 0 1.7-.3 1.2-.4 1.8-1.7 1.6-3zM95 181.6c-.2 0-.3.1-.4.1-2.6-1.1-5.3-2-8.2-1.5-.1 0-.3.1-.4.1-2.7-.3-5.5.5-7.7 2.1-.4.3-.7.9-.4 1.4.3.4.6.8 1 1 .2.3.4.5.7.7.7.5 1.4.5 2.1.3.4 0 .8.1 1.2 0 1.7-.1 3.3-.3 4.9-.3.9.1 1.8.2 2.8.3 1.3 0 2.8.1 4.1-.1 1.1-.2 2.2-1 2.2-2.3.1-1-.8-1.9-1.9-1.8z" />
	<path class="the_answer_0"
		d="M72.1 43.2c-.1-.3-.2-.5-.4-.7-.2-.2-.4-.3-.7-.4-.2-.1-.5-.2-.8-.2-.2 0-.4 0-.6.1-.4.1-.7.3-.9.5-.1.1-.2.3-.3.4-.2.3-.3.7-.3 1.1v.2c0 .3 0 .6.2.8.1.3.2.5.4.7.2.2.4.3.7.4.2.1.5.2.8.2.2 0 .4 0 .6-.1.4-.1.7-.3.9-.5.1-.1.2-.3.3-.4.2-.3.3-.7.3-1.1V44c0-.3-.1-.5-.2-.8z" />
	<g>
		<path class="the_answer_1"
			d="M61.1 121c-.6-1.7-.5-3.5.4-5.1.9-1.6 2.7-2.5 4.1-3.6 1.6-1.3 2.2-3 2.8-4.9.5-2 1.3-3.8 2.5-5.5.3-.5 1.4-2.1 2.1-2 0-.2 0-.2.1.1 0 .2.1.3.1.5.1.6.1 1.1.1 1.7.2 2.4.3 4.8.3 7.2 0 4.8-.3 9.7-.9 14.5.9-.3 1.9-.5 2.8-.8-2-3.1-4.2-5.8-8.1-6.3-3.2-.4-6.5.7-8.6 3.1-1.2 1.5.9 3.6 2.1 2.1 1.5-1.8 3.8-2.6 6.1-2.3 2.8.4 4.4 2.6 5.9 4.8.9 1.3 2.6.7 2.8-.8.6-4.5.9-9 .9-13.5 0-2.3-.1-4.7-.2-7-.1-1.7.1-4.3-1.1-5.6-3-3.3-6.8 2-8.1 4.4-1 1.8-1.4 3.7-2 5.6-.6 1.8-2 2.7-3.5 3.8-3.2 2.4-4.9 6.4-3.5 10.3.6 1.9 3.5 1.1 2.9-.7z" />
		<path class="the_answer_1"
			d="M59.4 119.1c-4 4.2-6.5 9.5-7.2 15.3-.8 6.3.1 12.9 2 18.9.4 1.3 2.5 1.5 2.9 0 1-4.1 4.2-8.5 8.9-7.5.8.2 1.7-.2 1.8-1 1.6-7.6 3.4-15.1 5.3-22.6.5-1.9-2.4-2.7-2.9-.8-1.9 7.5-3.7 15-5.3 22.6.6-.3 1.2-.7 1.8-1-6.4-1.4-11.3 3.8-12.6 9.6H57c-3.3-10.4-3.5-22.9 4.5-31.3 1.3-1.5-.8-3.6-2.1-2.2z" />
		<path class="the_answer_1"
			d="M73 123.8c1.9 5.1 1.1 10.6-2 15-.5.7-.1 1.7.5 2.1 5 2.8 8.3 7.5 12.2 11.6 3.8 4 8.2 7.5 13.9 8.2.6.1 1.3-.5 1.4-1.1 2.8-10.5 9.6-19.6 18.8-25.2.5-.3.9-1.1.7-1.7-1.1-3.3-2.4-6.7-4.7-9.3-2.7-3.1-6.3-3.7-10.2-3.5-9.4.5-18.6 2.2-27.6 5 .3 1 .5 1.9.8 2.9 4.9-2 5.9-7.2 9.2-10.8.7-.7 1.4-1.4 2.4-1.8 1.7-.6 3.6-.1 5.3-.1 1.9.1 3.6-.4 5.4-.9 2-.5 3.3-.2 5 .9 3.8 2.5 7.4 5.5 10.8 8.6.7.7 2.3.5 2.5-.7.9-5.7-2.2-10.6-5.6-14.9-3.3-4.1-7.5-8.4-7.5-14 0-1.5-2.1-2.1-2.8-.8-2.3 4.3-6.7 7.5-11.7 8-5 .5-10.2-1.7-13.3-5.7-.5-.6-1.3-1-2.1-.5-.6.4-1 1.4-.5 2.1 3.7 4.8 9.7 7.8 15.9 7.2 6-.6 11.4-4.2 14.2-9.5-.9-.3-1.9-.5-2.8-.8 0 5.4 3.3 9.9 6.6 13.9 3.2 3.9 7.5 8.7 6.7 14.2.8-.2 1.7-.4 2.5-.7-3.1-2.9-6.4-5.5-9.9-8-1.6-1.1-3.2-2.3-5.2-2.6-1.9-.3-3.7.4-5.5.9-3.5.9-7.1-.8-10.4 1.2-2.2 1.3-3.6 3.6-4.8 5.7-1.3 2.2-2.6 5.2-5.2 6.2-1.7.7-1.1 3.5.8 2.9 8.1-2.5 16.4-4.2 24.9-4.8 3.6-.3 7.1-.6 9.8 2.2 2.1 2.2 3.2 5.3 4.2 8.2.2-.6.5-1.1.7-1.7-9.9 6-17.3 15.8-20.2 27 .5-.4 1-.7 1.4-1.1-5.3-.7-9.4-4.8-12.8-8.6-3.6-4-6.9-8.3-11.7-10.9.2.7.4 1.4.5 2.1 3.5-5 4.4-11.6 2.3-17.3-.6-1.7-3.5-.9-2.9.9z" />
		<path class="the_answer_1"
			d="M103.4 94.1c2.2 0 4.3.1 6.5.1l-1.5-1.5c-.6 6.3-.9 13.2 3.6 18.3 1.3 1.4 3.4-.7 2.1-2.1-3.9-4.4-3.2-10.8-2.7-16.2.1-.8-.8-1.5-1.5-1.5-2.2 0-4.3-.1-6.5-.1-1.9 0-1.9 3 0 3z" />
		<path class="the_answer_1"
			d="M110.5 93.8c2.3.6 4.3 1.9 5.8 3.8 1.4 1.8 2 4 2.9 6.1.8 2 1.9 3.9 3.6 5.2 1.9 1.4 4.6 1.5 6.4 3 .5-.8 1-1.7 1.5-2.5-5.7-2-12.3.5-15.4 5.6h2.6c-1-2.1-2-4.3-3-6.4-.8-1.7-3.4-.2-2.6 1.5 1 2.1 2 4.3 3 6.4.5 1.1 2 .9 2.6 0 2.4-4 7.6-5.7 12-4.2 1.4.5 2.6-1.6 1.5-2.5-2-1.6-4.5-1.8-6.6-3.2-1.8-1.3-2.6-3.6-3.4-5.6-.9-2.2-1.8-4.4-3.5-6.2-1.8-1.9-4.1-3.2-6.6-3.9-1.9-.5-2.7 2.4-.8 2.9z" />
		<path class="the_answer_1"
			d="M118 112.9c0 2.6-1.5 4.8-.9 7.4.6 2.7 2.7 5 4.2 7.2 1.6 2.3 3.3 4.6 4.8 7 1.4 2.3 2.6 4.7 2.3 7.4-.2 1.6 2.1 1.9 2.8.8 1-1.6 3.2-2 4.9-1.7 2.3.5 4.3 2 6.2 3.4.8.6 2 0 2.2-.9 1.3-6.1-.4-12.2-3.1-17.6-2.9-5.6-6.6-10.9-10-16.2-1-1.5-3-.5-2.7 1.2 0 .2.1.4.1.5.3 1.9 3.2 1.1 2.9-.8 0-.2-.1-.4-.1-.5l-2.7 1.2c3.2 4.9 6.6 9.8 9.4 15 2.7 5 4.7 10.8 3.5 16.5.7-.3 1.5-.6 2.2-.9-2.5-1.8-5.2-3.7-8.3-3.9-2.7-.2-5.4.9-6.9 3.2.9.3 1.9.5 2.8.8.6-5.5-3.5-10.1-6.4-14.3-1.6-2.2-3.6-4.5-4.7-7-1.1-2.6.7-5.1.7-7.7-.2-2-3.2-2-3.2-.1zM120.9 167.2c0-2.1.1-4.3.1-6.4 0-.9.1-1.8.5-2.7.4-.9 1.1-1.7 1.5-2.5 1.6-3.2 2.1-6.9 1.2-10.4-.3-1.5-.9-3.5-2.2-4.4-1.6-1.1-3.3.3-4.6 1.2-3 2.1-5.7 4.6-8 7.6-1.4 1.8-2.5 3.8-4 5.4-.8.8-1.6 1.6-2.5 2.2-.4.3-.8.5-1.2.8-.2.1-.5.3-.7.4-.1.1-.2.1-.4.2-.4.1-.4.3-.1.8 1.1-1.6-1.5-3.1-2.6-1.5-1 1.3-.1 3.3 1.4 3.7 1.8.6 3.8-.8 5.2-1.7 3.5-2.4 5.3-5.9 7.9-9.1 1.2-1.5 2.5-2.9 4-4.1.7-.6 1.5-1.2 2.3-1.8.3-.2.7-.5 1-.7.2-.1.5-.3.7-.4.5-.4.2 0 0-.3 1.6 3.3 1.7 7.3.1 10.6-1 2-2.3 3.5-2.5 5.8-.2 2.5-.1 5-.2 7.5.1 1.8 3.1 1.8 3.1-.2z" />
		<path class="the_answer_1"
			d="M117 133.9c.4 1.1.8 2.3 1.1 3.4.1.6.3 1.1.4 1.7.1.3.1.6.2.9 0 .1 0 .3.1.4 0 .2 0 .2 0 0v.3c.1.8.6 1.5 1.5 1.5.7 0 1.6-.7 1.5-1.5-.3-2.6-.9-5.1-1.9-7.5-.3-.7-1-1.3-1.8-1-.8.2-1.5 1-1.1 1.8zM74.2 142.9c-1.5 6.5-3.1 13.7-.7 20.2.6 1.6 1.4 2.9 2.2 4.3.5.8 1 1.6 1 2.5 0 .9-.3 1.8-.6 2.7-1.3 3.6-1.9 6.9-1.3 10.7.2.9 1.4 1.4 2.2.9 5.9-3.8 13.3-2.1 19.6-.6.9.2 2-.4 1.9-1.4-.3-2.4-.6-4.9-.2-7.4.3-2.1 1.1-4.2 1.2-6.4.1-1.8.1-4.3-1.2-5.8-1.1-1.3-2.7-1.5-4.2-1.4-1.7.1-3.2.3-4.7-.8-1.6-1.1-2.7-2.8-3.9-4.3-2.7-3.4-5.7-6.6-8.9-9.6-1.4-1.3-3.5.8-2.1 2.1 3.1 2.9 6 6 8.6 9.2 2.1 2.6 4.2 5.8 7.8 6.3 1.5.2 3.2-.4 4.6 0 1.5.5 1.1 3.4 1 4.6-.2 2.2-1 4.3-1.2 6.5-.2 2.3 0 4.5.3 6.8.6-.5 1.3-1 1.9-1.4-7.1-1.7-15.3-3.3-21.9.9.7.3 1.5.6 2.2.9-.3-1.8-.3-3.6.1-5.3.4-1.7 1.1-3.3 1.6-5 .4-1.6.4-3.3-.3-4.8s-1.8-2.8-2.5-4.3c-2.7-6.1-1-13.2.4-19.4.4-1.8-2.5-2.6-2.9-.7z" />
		<path class="the_answer_1"
			d="M99.4 163.5c.5-1.6.4-3.4-.2-4.9-.2-.4-.3-.7-.7-.9-.3-.2-.8-.3-1.2-.2-.4.1-.7.3-.9.7-.2.3-.3.8-.2 1.2.2.5.3 1 .4 1.5 0-.1 0-.3-.1-.4.1.6.1 1.1 0 1.7 0-.1 0-.3.1-.4 0 .3-.1.6-.2.9-.2.8.3 1.7 1 1.8.9.2 1.7-.2 2-1zM55.4 153.3c.1 2.7-.1 6 1.2 8.4 1.1 2 3.6 3.2 5.9 2.9 2.4-.2 5-2.1 4.6-4.8-.1-.7-.4-1.3-.9-1.8-.2-.2-.7-.8-.9-.9-.6.9-.6 1.3-.1 1.1.2 0 .4-.1.6-.1.3-.1.6-.1.9-.2.8-.2 1.7-.3 2.5-.5.5-.1 1-.6 1-1 .3-1.9-1-3.3-2.8-3.8-.5-.2-3.3-.1-3.3-.7 0-.4.4-.5.7-.5.6.1.9.7 1.2 1.2.4.9.7 1.7 1.4 2.4.8.7 1.8 1 2.8.7.5-.1 1-.6 1-1 .8-4.3-1.6-8.5-5.6-10.1-.8-.3-1.6.3-1.8 1-.2.9.3 1.5 1 1.8 2.4 1 3.9 3.8 3.5 6.4l1-1c.2 0 .1.1 0-.1-.2-.2-.2-.2-.3-.5-.2-.4-.4-.9-.6-1.3-.4-.9-1.1-1.6-2-2.1-1.8-.9-4.1-.4-5.1 1.5-.9 1.9 0 3.9 1.9 4.7.8.3 1.7.3 2.6.4.3 0 .6.1.9.2.3.2.3.4.3 0l1-1c-1.4.3-2.7.5-4.1.8-1.2.3-2.3 1.3-2 2.7.1.5.4.9.7 1.3.2.2.8.7.9.9.2.5-.5 1-.9 1.2-1.3.6-3 .2-3.8-1-.6-.9-.7-2.1-.8-3.2-.1-1.3-.1-2.6-.2-4 .5-2-2.5-2-2.4 0zM75.9 182.5c0 2.3 1.8 4 3.9 4.5 2.3.6 4.9.3 7.2.4 2.3 0 4.9.4 7.1-.2 2.1-.6 3.9-2.4 3.8-4.6-.1-1.9-3.1-1.9-3 0 0 1.4-1.6 1.9-2.8 1.9-1.7.1-3.4 0-5.1-.1-1.7 0-3.5 0-5.2-.1-1.1-.1-2.9-.3-2.9-1.8 0-1.9-3-1.9-3 0z" />
		<path class="the_answer_1"
			d="M100.5 174.1c-1.3 1.3-2.7 2.7-3.1 4.5-.4 1.8.2 3.6 1.5 4.9 1.5 1.4 3.5 1.9 5.6 2.1 2.2.2 4.4.2 6.6.3 3.6.2 8.6-.2 9.5-4.6.8-3.8-3.1-5.9-6.1-6.8-2.4-.7-4.8-1.1-7.3-1.4-2.1-.2-4.7-.6-6.4 1.1-1.3 1.4.8 3.5 2.1 2.1.8-.8 2.7-.4 3.7-.3 1.6.1 3.2.4 4.8.8 1.8.4 5.4.9 6.2 3 .4 1-.4 2-1.3 2.5-1.3.7-2.9.7-4.3.6-1.6-.1-3.3-.2-4.9-.2-1.5-.1-3.1 0-4.6-.5-1.1-.4-2.4-1.3-2.2-2.6.1-1.4 1.4-2.5 2.4-3.5 1.3-1.3-.8-3.4-2.2-2z" />
		<path class="the_answer_1"
			d="M99.5 178.7c.1-2.2.2-4.7 1.5-6.6 1.5-2.1 4.2-2.1 6.6-1.8l4.5.6c1.4.2 2.7.5 3.6 1.5 2 2.1 1.9 5.3 1.9 7.9 0 1.9 3 1.9 3 0 0-3.5-.2-7.3-2.8-10.1-1.2-1.3-2.8-1.9-4.6-2.2-1.9-.3-3.7-.5-5.6-.7-3.3-.3-6.7.1-8.8 2.9-1.8 2.4-2.1 5.6-2.3 8.6-.1 1.8 2.9 1.8 3-.1z" />
		<path class="the_answer_1"
			d="M120.1 173.2c.2-2.4.3-4.8.5-7.1.1-.8-.7-1.5-1.5-1.5-.9 0-1.4.7-1.5 1.5-.2 2.4-.3 4.8-.5 7.1-.1.8.7 1.5 1.5 1.5s1.4-.7 1.5-1.5z" />
		<path class="the_answer_1"
			d="M118.9 171.4c1.6-2-.8-4.7-2.3-5.9-1.8-1.4-4.1-2.2-6.4-2.3-5-.3-9.5 2.7-12.6 6.4-.5.6-.6 1.5 0 2.1.5.5 1.6.6 2.1 0 2.3-2.7 5.4-5.3 9.1-5.5 1.6-.1 3.2.1 4.6.8.7.4 1.4.8 2 1.4.3.3.6.6.8.9.1.1.1.2.2.3 0 .3.1.3.1.1.1-.2 0-.2-.1.1-.5.6-.1 1.7.5 2.1.8.5 1.6.1 2-.5z" />
		<path class="the_answer_1"
			d="M99.5 165.9c1.1-1.4 2.4-2.5 4-3.4 1.5-.8 3.4-1.7 5.1-1.1 1.7.6 3 2.5 4.3 3.7l4.7 4.7c1.4 1.4 3.5-.8 2.1-2.1l-5.5-5.5c-1.6-1.5-3.1-3.4-5.4-3.8-4.3-.9-8.8 2.3-11.4 5.4-.5.6-.6 1.5 0 2.1.5.6 1.6.7 2.1 0z" />
		<path class="the_answer_1"
			d="M78.7 169.5c6.5 1.2 13.1 1 19.5-.7 1.9-.5 1.1-3.4-.8-2.9-5.9 1.5-12 1.7-17.9.7-.8-.1-1.6.2-1.8 1-.2.8.2 1.7 1 1.9zM129 141.3c-.2 1-1.2 1.7-1.7 2.6-.6 1.3-.5 2.8-.1 4.1.3 1.4.8 2.7.9 4.1.1 1.5 0 3.1.2 4.6.7 5 4.3 9.8 9.3 11 4.7 1.1 9.4-1.4 10.3-6.3.9-5-1.7-9.3-5-12.8-1.1-1.1-2.2-2.1-3.3-3.2-1-.9-2-2-3.3-2.6-3-1.2-4.8 1.4-7.4 2.2-1.8.6-1.1 3.5.8 2.9.9-.3 1.7-.7 2.4-1.2s1.6-1.2 2.4-1.2c.9 0 1.7.9 2.3 1.5.8.8 1.6 1.5 2.4 2.2 2.8 2.6 5.8 5.7 5.9 9.8 0 1.6-.4 3.4-1.6 4.5-1.3 1.3-3.2 1.5-4.9 1.2-4-.9-6.9-4.7-7.3-8.7-.2-1.4 0-2.8-.1-4.2-.1-1.3-.4-2.6-.8-3.9-.3-1.1-.7-2.2 0-3.2.6-.9 1.4-1.6 1.6-2.7.3-1.8-2.6-2.6-3-.7z" />
		<path class="the_answer_1"
			d="M148.4 152.9c-1-3.7-2.1-7.3-3.3-10.9-.3-.8-1-1.3-1.8-1-.7.2-1.3 1.1-1 1.8 1.2 3.6 2.3 7.2 3.3 10.9.2.8 1.1 1.3 1.8 1 .8-.2 1.2-1 1-1.8zM76.4 95.2c-13.6-2.1-22.9-15.1-25.7-27.8-2.9-13.3 1.8-28.2 13.9-35.3 3.3-2 7-3.1 10.7-3.9 3.9-.9 8-2 12-2.2 7.6-.5 14.4 3.5 19.8 8.6 10.5 9.9 14.9 26 8.6 39.4-6.1 13-19.9 20.3-34 20.2-1.9 0-3.8-.1-5.7-.4-.8-.1-1.6.2-1.8 1-.2.7.2 1.7 1 1.8 15.5 2.2 31.6-3.4 40.5-16.7 9-13.3 7.1-31.1-2.7-43.4-4.6-5.8-11.3-11.1-18.6-13-4.3-1.1-8.7-.7-13 .2-4.3.8-8.8 1.7-12.9 3.2C54.3 32.1 46 46.8 46.9 61.7c.9 14.5 9.6 29.9 23.7 35.1 1.6.6 3.3 1 5 1.3 1.9.3 2.7-2.6.8-2.9z" />
		<path class="the_answer_1"
			d="M53.2 75.2C67.9 64.1 86.7 59 105 60.9c2.5.3 5 .7 7.5 1.2 2.8.6 5.6 1.8 8.5 1.6 1.9-.1 1.9-3.1 0-3-2.6.2-5.2-.9-7.7-1.5-2.2-.5-4.5-.9-6.7-1.1-4.6-.6-9.4-.7-14-.4-9.4.6-18.6 2.9-27.1 6.8-4.9 2.2-9.5 5-13.8 8.2-1.5 1.1-.1 3.7 1.5 2.5z" />
		<path class="the_answer_1"
			d="M59 71.9c2.4 2.1 4.9 4.1 7.5 6 .7.5 2.1 0 2.2-.9.6-3.7 1.5-7.3 2.7-10.8.3-.8-.3-1.6-1-1.8-.8-.2-1.6.3-1.8 1-1.2 3.5-2.1 7.1-2.7 10.8.7-.3 1.5-.6 2.2-.9-2.4-1.7-4.7-3.6-6.9-5.5-.6-.5-1.5-.6-2.1 0-.7.6-.7 1.6-.1 2.1zM97.2 61.1c2.1 2.7 4.5 5.1 7.2 7.2.8.6 1.8.6 2.4-.3 1.2-2 2.2-4.2 3.1-6.4.3-.8-.3-1.6-1-1.8-.8-.2-1.6.3-1.8 1-.7 1.9-1.7 3.8-2.8 5.6l2.4-.3c-2.7-2.1-5.1-4.5-7.2-7.2-.5-.6-1.6-.5-2.1 0-.9.7-.7 1.6-.2 2.2z" />
	</g>
	<path class="the_answer_0"
		d="M63.9 33.6c-2.9-1.6-6.1-2.8-9.3-3.4-2.9-.5-5.5 1.7-4.8 4.8.7 3.2 1.9 6.7 4.5 8.9 1.8 1.5 4 .8 4.8-.8 1.2.2 2.4-.1 3.3-1 .3-.3.5-.6.7-1 2.7-1.1 4.2-5.7.8-7.5zM109.8 30.6l-.2-6c-.1-2.4-2.7-5.1-5.3-4-2.2.9-3.9 2.1-5.3 4-1 1.4-1.5 3.2-2.3 4.5-1.4 2.2.4 5.5 3.1 5.4h.3c.3.7.7 1.3 1.2 1.9 1.8 1.8 4.8 2.1 6.8.4 1.9-1.7 1.8-3.9 1.7-6.2z" />
	<g>
		<path class="the_answer_1"
			d="M53.5 43.2c-.1-.2-.2-.3-.2-.5l-.1-.2c-.1-.4-.3-.8-.4-1.2-.2-.9-.4-1.7-.6-2.6-.3-1.8-.5-3.2-.7-5-.1-.6-.1-1.3-.2-1.9v-.6-.2-.1c0 .1-.2.4 0 .2.2-.1.2-.3.5-.4.5-.2 1.1 0 1.7.1 1.2.3 2.3.6 3.4 1 2.4.9 4.7 2.2 6.8 3.7.7.5 1.7.1 2.1-.5.4-.7.1-1.6-.5-2.1-2.2-1.6-4.5-2.9-7.1-3.8-1.3-.5-2.5-.9-3.8-1.2-1.5-.4-3.1-.5-4.4.4-.9.6-1.5 1.6-1.6 2.7 0 .5 0 1 .1 1.5.2 1.9.4 3.9.7 5.8.4 2.1.8 4.3 1.8 6.3.8 1.9 3.4.3 2.5-1.4zM111.3 35c0-2.4.1-4.7-.1-7.1-.2-2.6-.4-5.7-2.2-7.8-.9-1-2.1-1.6-3.4-1.6-1.4 0-2.6.7-3.7 1.5-2.3 1.8-4.4 3.9-6.3 6-1.1 1.1 0 2.8 1.5 2.5.6-.1 1-.5 1.4-1 .5-.6.1-1.7-.5-2.1-.8-.4-1.6-.1-2.1.5 0 .1-.1.1-.1.2l.5-.5c.5.8 1 1.7 1.5 2.5 1.7-1.8 3.5-3.6 5.4-5.2.6-.5 1.4-1.3 2.3-1.4.8-.1 1.4.5 1.8 1.1.5.9.7 2 .8 3.1l.3 3c.1 2.1.1 4.1.1 6.2-.2 2 2.8 2 2.8.1z" />
		<path class="the_answer_1"
			d="M96.1 28.2c.8 1.1 1.5 2.6 3 3 .9.2 1.8 0 2.6-.4 1.1-.6 1.6-1.4 2.1-2.5.2-.6 1.8-4.2 2.5-3.8.2.1.2.6.2.8 0 .5.1 1 .1 1.5.2 1.1.3 2.2.5 3.2.3 1.8.6 4.5 2.3 5.7.8.5 1.6-.8.8-1.3-.6-.4-.8-1.2-1-1.8-.3-1-.5-2-.6-3-.2-1.1-.4-2.1-.5-3.2-.1-.8 0-1.8-.4-2.5s-1.3-1.1-2.1-.8c-.8.3-1.3 1.1-1.7 1.8-.4.7-.9 1.5-1.2 2.3-.2.5-.3.9-.6 1.4-.3.5-.8.9-1.3 1.1-1.7.7-2.5-1-3.3-2.1-.7-.9-2-.2-1.4.6zM64.1 34.4c-.5.4-.9 1-1.3 1.5-.6.6-1.5.2-2.2-.1-1.7-.9-3.4-1.9-5.2-2.7-1.2-.5-2.9-1.1-3.6.4-.6 1.2 0 2.8 0 4.1.1 2.1-.1 4.2.1 6.3.1 1 1.6 1 1.5 0-.2-1.8 0-3.6 0-5.3 0-.8 0-1.6-.1-2.4-.1-.6-.2-1.2-.1-1.8.1-.5.5-.3.9-.2.8.2 1.4.6 2.1 1 .9.5 1.8.9 2.6 1.4.8.4 1.6.9 2.5 1.1.9.2 1.7.1 2.3-.5.6-.5.9-1.2 1.5-1.7.9-.7-.2-1.7-1-1.1z" />
		<path class="the_answer_1"
			d="M53.2 32.7c-.8-.8-1.5-1.7-1.8-2.8-.1-.2-.3-.3-.5-.3-.2.1-.3.3-.3.5.4 1.2 1.1 2.3 2 3.1.1.1.4.1.5 0 .3-.1.3-.4.1-.5zM54.6 33.2c-.6-1.2-1.1-2.4-1.7-3.6-.1-.2-.3-.2-.5-.1s-.2.3-.1.5c.6 1.2 1.1 2.4 1.7 3.6.1.2.3.2.5.1s.2-.3.1-.5zM56 33.5c-.5-1-.8-2.1-1-3.2 0-.2-.3-.3-.5-.3-.2.1-.3.3-.3.5.2 1.2.5 2.3 1.1 3.4.1.2.3.2.5.1.3-.1.3-.3.2-.5zM57.5 34.6c-.5-1.3-.9-2.6-1.2-4-.1-.5-.8-.3-.7.2.3 1.4.7 2.7 1.2 4 .1.2.3.3.5.3.1-.1.3-.3.2-.5zM58.9 35.3c-.5-1.1-.7-2.4-.8-3.6 0-.5-.8-.5-.8 0 0 1.4.3 2.7.9 4 .1.2.4.2.5.1.3-.1.3-.3.2-.5zM60.2 36c-.5-1.1-.6-2.3-.5-3.5 0-.2-.2-.4-.4-.4s-.4.2-.4.4c-.1 1.3.1 2.5.6 3.7.1.2.2.3.5.3.1-.1.3-.3.2-.5zM61.3 36.6c-.3-1.1-.3-2.2-.2-3.2 0-.2-.2-.4-.4-.4s-.3.2-.4.4c-.1 1.2-.1 2.3.2 3.4.2.4 1 .2.8-.2z" />
		<path class="the_answer_1"
			d="M62.2 36.5c-.1-1-.1-2.1.1-3.1 0-.2-.1-.4-.3-.5-.2-.1-.4.1-.5.3-.2 1.1-.3 2.3-.1 3.5 0 .2.3.3.5.3.3-.1.3-.3.3-.5zM52.6 34.1L49.9 32c-.2-.1-.4-.2-.5 0-.1.1-.2.4 0 .5l2.7 2.1c.2.1.4.2.5 0 .1-.1.1-.4 0-.5zM52.6 35.8c-.3-.2-.7-.4-1-.6-.1-.1-.2-.1-.2-.2 0 0-.1 0 0 0l-.1-.1c-.2-.1-.3-.3-.5-.4-.1-.1-.4-.2-.5 0-.1.1-.2.4 0 .5.6.6 1.3 1.1 2 1.5.2.1.4 0 .5-.1 0-.2 0-.4-.2-.6zM53 37.8c-.6-.5-1.3-1-1.9-1.4-.2-.1-.4 0-.5.1-.1.2 0 .4.1.5.6.5 1.3 1 1.9 1.4.2.1.4 0 .5-.1.1-.2.1-.4-.1-.5zM52.9 39.3c-1-.5-2-1-2.9-1.7-.2-.1-.4 0-.5.1-.1.2 0 .4.1.5.9.6 1.9 1.2 2.9 1.7.2.1.4.1.5-.1.1-.2.1-.4-.1-.5zM106.6 23.8c.2-1.4.1-2.8-.1-4.2 0-.2-.3-.3-.5-.3-.2.1-.3.3-.3.5.2 1.3.2 2.7.1 4 0 .2.2.4.4.4s.4-.2.4-.4zM105.8 24.1c-.2-1.2-.5-2.4-.7-3.6 0-.2-.3-.3-.5-.3-.2.1-.3.3-.3.5.2 1.2.5 2.4.7 3.6 0 .2.3.3.5.3.3-.1.4-.3.3-.5zM104.9 24.8c-.2-1.4-.6-2.7-1.1-4-.1-.2-.2-.3-.5-.3-.2 0-.3.3-.3.5.5 1.3.9 2.6 1.1 4 0 .2.3.3.5.3.3-.1.4-.3.3-.5zM104.1 26c-.3-1.3-.7-2.7-1.2-4-.1-.2-.3-.3-.5-.3-.2.1-.3.3-.3.5.5 1.3.9 2.6 1.2 4 .2.5.9.3.8-.2zM103.6 27.5c-.5-1.5-1.1-3.1-1.7-4.6-.1-.2-.2-.3-.5-.3-.2 0-.3.3-.3.5.6 1.5 1.2 3 1.7 4.6.2.4 1 .2.8-.2zM103.1 28.7c-.7-1.7-1.4-3.3-2.1-5-.1-.2-.2-.3-.5-.3-.2 0-.3.3-.3.5.7 1.7 1.4 3.3 2.1 5 .1.2.2.3.5.3.2-.1.4-.3.3-.5zM102.3 29.2c-.6-1.4-1.2-2.7-1.8-4.1-.1-.2-.4-.2-.5-.1-.2.1-.2.3-.1.5.6 1.4 1.2 2.7 1.8 4.1.1.2.4.2.5.1.2-.1.2-.3.1-.5zM101.2 29.7c-.7-1.2-1.4-2.5-1.9-3.8-.1-.2-.4-.2-.5-.1-.2.1-.2.3-.1.5.6 1.3 1.2 2.6 1.9 3.8.2.4.8 0 .6-.4zM99.4 29.4c-.3-.3-.5-.6-.7-1-.1-.1-.1-.1-.1-.2s-.1-.2-.1-.3c0-.1-.1-.2-.1-.3v-.3c0-.2-.2-.4-.4-.4s-.4.2-.4.4c.1 1 .5 2 1.3 2.8.1.1.4.1.5 0 .2-.3.2-.6 0-.7zM107.7 24.9c.2-.6.3-1.2.5-1.7.1-.2-.1-.4-.3-.5-.2 0-.4.1-.5.3-.2.6-.3 1.2-.5 1.7-.1.2.1.4.3.5.2 0 .4-.1.5-.3zM107.9 26.8c0-.2.1-.4.2-.6 0-.1 0-.1.1-.2v-.1c0-.1.1-.2.1-.3.1-.2.2-.4.3-.5V25l.1-.1c.1-.1.1-.2.2-.2.1-.1.2-.4 0-.5-.1-.1-.4-.2-.5 0-.6.7-1.1 1.5-1.3 2.4 0 .2.1.4.3.5.2 0 .5-.1.5-.3zM108.3 29.4c0-.4.1-.9.3-1.3.2-.4.4-.8.8-1.1.1-.1.1-.4 0-.5-.1-.1-.4-.1-.5 0-.8.7-1.3 1.8-1.3 2.9 0 .2.2.4.4.4.2-.1.3-.2.3-.4zM108.8 31.4c.3-.9.7-1.8 1.2-2.7.1-.2 0-.4-.1-.5-.2-.1-.4 0-.5.1-.5.9-.9 1.9-1.3 2.9-.1.2.1.4.3.5.2 0 .3-.2.4-.3z" />
		<path class="the_answer_1"
			d="M63.1 36.1c0-.7.1-1.4.2-2.1 0-.2-.1-.4-.3-.5-.2 0-.4.1-.5.3-.2.7-.3 1.5-.3 2.3 0 .2.2.4.4.4.3 0 .5-.1.5-.4z" />
	</g>
</svg>