<svg xmlns="http://www.w3.org/2000/svg" viewBox="0 0 200 200">
	<style>
		.the_godfather_0 {
			fill: #666
		}

		.the_godfather_2 {
			fill: #e7f4df
		}

		.the_godfather_3 {
			fill: #10101a
		}

		.the_godfather_4 {
			fill: none;
			stroke: #e7f4df;
			stroke-miterlimit: 10
		}

		.the_godfather_5 {
			fill: #333340
		}
	</style>
	<path class="the_godfather_0"
		d="M152.9 99.6c-.8-4.8-1.7-8.9-2.7-13.6-.2-.5-.3-1-.4-1.6-.1-.6-.1-1.2-.1-1.7h-.5v-.3c-.9-4.5-5.3-6.5-7-10.8.7-3.1-2-7.2-1.6-10.3.5-3.5 1.4-7.7-.4-11-.7-1.4-2-2.5-3.5-3-1.9-.6-3.9 0-5.6.8-3.5 1.6-.7 2.5-3.9 4.6-15.2-7.6-33.4-9-49.5-3.6-1.4-1.2-7.9-.5-9.4-1.6-1.6-1-3.2-2-4.8-2.8-1.8-.9-3.8-1.8-5.8-1.1-1.3.4-2.5 1.3-2.8 2.7-.2.7-.3 1.4-.4 2.1-.4 2.6-.7 5.3-.9 8-.1 2 1.1 7.4 1.2 9.5-.1.1 3.6-4.9 3.5-4.8-3.6 5.3-7.9 10.4-10.1 16.4h-.6c-.1.4-.2.7-.4 1.1-.1.2-.2.5-.3.7-.4.7-2.4 3.5-2.6 4.4 0 3.8-6 21.9-5.8 22.2.1.3 3.6 24 12.4 36-.1.3-.2.5-.3.8-.5 1.6-1.1 3.1-1.4 4.7-.3 1.7-.5 3.6-.3 5.2.2 1.7 1.5 2.6 3.1 3 3.4.7 6.7-.6 9.6-2.2.9-.5 1.8-1.1 2.7-1.7 16.1 6.9 35.9 11.1 52.6 4.1.1 0 .3-.1.4-.2.8-.5 2.1-.1 3 .1 1.3.4 2.3 1.1 3.4 1.8 2.6 1.7 5.9 4.1 9.2 2.8 3-1.2 4-4.9 3.8-7.9l-.3-3c2.3-2.6 4.8-5 6.9-7.8 2.3-3.1 4.1-6.8 5.7-10.3 2.8-6 6.5-22.2 5.8-25.2-.7-.7-1.7-5.5-1.9-6.5z" />
	<path
		d="M102.1 103.2c-2.8 1-5.6 1.9-8.4 2.9-1.4.5-2.8 1-4.2 1.4-1.2.4-2.8 1.3-4 1.2-1.1 0-1.8-1.2-2.6-1.9-.8-.8-1.8-1.4-2.8-1.9-2.2-1-4.5-1.5-6.8-1.9-.4-.1-.8 0-1.1.2-1.4-.3-2.5 1.9-1 2.8.2.1.4.3.6.5.1.6.5 1.2 1.2 1.3 1.4 1.8 2.2 4.3 3 6.3 1.4 3.5 2.7 7.1 3.2 10.8.5 3.9.1 7.8.7 11.7.5 3.5 1.3 7.1 2.3 10.5.8 2.5 1.9 5.1 4.2 6.7 1 .7 2.3 1.2 3.5.9 1.7-.5 2.2-2.6 2.8-4.1 1.2-3.5 1.8-7.1 2.4-10.7.6-3.9 1.1-7.8 1.6-11.6.5-4.3.7-8.7 1.5-13 .6-3.5 1.9-7.2 5.1-9.3 1.3-.9.5-3.4-1.2-2.8z"
		fill="#fff" />
	<path class="the_godfather_0"
		d="M165.1 150.3c-.1 1.2 1.1 2.6.3 3.5-.4.4-.9.7-1.4.8-.4.1-.8.1-1.2.1-.1 0-.9-.1-1 0-.5.5.1 2.6.2 3.1.1 1.4-.1 2.8-.5 4.1-1.8 6.4-8.5 10-14.9 8.4-.7-.2-1-.7-1.1-1.2-3.6-.9-5.6-4.7-6-8.3-.2-2.3-.2-5.2.5-7.5.6-2.1 2.3-3.7 3.5-5.4 2.7-4 4.8-8.6 5.8-13.4.5-2.3.6-4.6-.1-6.9-.6-2-1.5-3.8-2.4-5.6-2-4-4.2-8.2-3.1-12.8.2-.9 1.4-1.4 2.2-.9 9.3 6 16.1 15.4 19.2 26 1.4 5.1.6 10.6 0 16z" />
	<path class="the_godfather_2"
		d="M141.9 117.3c4.6 3.4 6.9 8.6 6.8 14.3-.1 3.4-.8 7.4-2.7 10.3-2 3-4.7 5.5-6.3 8.8-1.8 3.6-2.4 7.6-1.8 11.5.5 3.5 2.2 6.7 5.4 8.4 2.9 1.6 6.5 1.8 9.5.7 7.4-2.8 10-10.8 10.5-18-.9.4-1.7.7-2.6 1.1.8.8 1.9 1.2 3 1.4.9.2 2.1.5 3.1.2 1.3-.4 1.5-1.9.9-2.9-.3-.5-.6-.9-.9-1.4-.4-.8-.5-1.8-.6-2.7-.3-3 .5-5.9.4-8.9 0-1.2-.2-2.3-.5-3.5-1.7-8.1-5.3-16.2-10.5-22.6-3.3-4.2-7.5-7.6-12.5-9.4-1.8-.6-2.6 2.3-.8 2.9 7.4 2.6 12.4 9.3 15.9 16 1.6 3.1 2.9 6.3 3.9 9.7.4 1.3.7 2.6 1 3.9.2 1.1.4 1.8.4 2.6.1 2.3-.4 4.6-.5 6.9 0 1.6.1 3.2.4 4.7.2.7.4 1.5.8 2.2.1.2.2.3.3.4.1.2.2.3.3.5.2.3.2.3.1.1.1-.4.3-.7.4-1.1.3-.4 1-.2.3-.3-.3 0-.6-.1-.9-.1-.6-.1-1.5-.3-1.9-.7-1-.9-2.5-.2-2.6 1.1-.2 5.6-2.2 12.6-8.2 15-2.8 1.1-6.2.7-8.5-1.2-2.7-2.3-3.1-6.4-2.8-9.8.4-3.7 2.3-6.9 4.6-9.8 1.4-1.8 3-3.4 4-5.5 1.7-3.6 2.5-7.7 2.4-11.7-.2-6.4-3.2-11.9-8.3-15.6-1.5-1.2-3 1.4-1.5 2.5z" />
	<path class="the_godfather_2"
		d="M159.9 125.7c-1.5-1.2-3.4-1.8-5.3-2.1-2.1-.3-4.3-.4-6.4-.4-.5 0-.5.8 0 .8 2.1 0 4.2.1 6.2.4 1.8.3 3.6.8 5.1 2 .4.2.8-.4.4-.7zM147.4 121.1c2.5-.9 4.9-2 7.1-3.5.4-.3 0-.9-.4-.6-2.2 1.4-4.5 2.5-7 3.4-.4.1-.2.8.3.7zM147.3 119.9c1.8-2.4 3.9-4.6 6.2-6.5.4-.3-.2-.8-.5-.5-2.3 2-4.4 4.2-6.3 6.6-.4.4.3.8.6.4zM145.7 118.3c1.1-2 2.2-3.9 3.3-5.9.3-.5.6-.9.8-1.4.2-.3.2-.8-.1-1-.6-.5-1.3.5-.7.9.4.2.8-.4.4-.6.2.3.1.5-.3.4 0 .1-.1.2-.1.3-.1.1-.2.3-.2.4-.2.3-.4.6-.5 1-.4.6-.7 1.3-1.1 1.9-.7 1.3-1.4 2.5-2.1 3.8-.2.3.4.7.6.2z" />
	<path class="the_godfather_2"
		d="M145.2 117.9c.3-1.5.6-3 .9-4.6.3-1.3.6-2.7 1.4-3.8-.2-.2-.4-.3-.6-.5-.1.1-.1.2-.2.3-.2.4.4.8.6.4.1-.1.1-.2.2-.3.2-.4-.3-.8-.6-.5-.9 1.1-1.3 2.5-1.6 3.8-.3 1.6-.7 3.2-1 4.8 0 .7.8.9.9.4zM149.5 122.5c1.7-.2 3.4-.3 5.1-.3 1.3 0 2.8.1 3.9 1 .4.3.9-.2.5-.5-1.1-1-2.6-1.2-4-1.2-1.8 0-3.7.1-5.5.3-.5 0-.5.8 0 .7zM147.8 122.1c1.7-.6 3.5-1.2 5.2-1.8.9-.3 1.7-.6 2.6-.9.5-.2 1.5-.7 2-.1.3.4.8-.2.5-.5-.4-.5-1.1-.5-1.8-.4-.9.2-1.9.6-2.8.9l-6 2.1c-.3.1-.1.9.3.7zM146.6 119.1c.9-1.6 1.7-3.2 2.6-4.9.4-.7.7-1.3 1.2-1.9.2-.3.5-.5.8-.8.1-.1.3-.2.4-.2H151.9c0 .5.7.5.8 0 .1-.8-1-.9-1.6-.6-.8.4-1.4 1.2-1.8 2-.6.9-1.1 1.9-1.6 2.9-.6 1-1.1 2.1-1.7 3.1-.3.5.4.9.6.4zM147.7 120.1c1.3-.9 2.5-1.9 3.8-2.8 1.1-.8 2.5-1.7 3.9-1.4.5.1.7-.6.2-.7-1.5-.3-2.9.4-4.1 1.3l-4.2 3c-.4.3 0 .9.4.6zM149.4 125.4c.7.8 1.7.8 2.7.9 1.2.1 2.4.3 3.6.6 1.1.3 2.2.7 3.2 1.3l1.5.9c.3.2.5.4.7.6.2.1.7.5.7.7.1-.1.1-.2.2-.3h.1l.3.3v-.1c-.1-.5-.8-.3-.7.2v.1c0 .1.1.2.3.3.2 0 .3 0 .5-.1.1-.1.2-.2.2-.3 0-.5-.5-.8-.8-1.2-.4-.4-.9-.7-1.3-1.1-1-.7-2.1-1.2-3.3-1.6-1.2-.4-2.4-.7-3.6-.9-1.1-.2-2.7 0-3.5-.9-.6-.3-1.1.2-.8.6z" />
	<path class="the_godfather_2"
		d="M151 127.5c2.6.7 5 1.8 7.3 3.2 2.1 1.3 4.6 3 5.6 5.5.2.4.9.3.7-.2-1-2.5-3.4-4.2-5.5-5.7-2.4-1.6-5.1-2.8-7.9-3.5-.5-.1-.7.6-.2.7z" />
	<path class="the_godfather_2"
		d="M151.6 128.7c-.3-.4-.7-.4-1-.2-.2.1-.1.5.1.6 2.5 1.1 5.1 2.1 7.6 3.3 1.2.6 2.4 1.2 3.4 2.2.5.4.9.9 1.3 1.4.2.2.4.5.6.7.1.1.2.2.3.4.1.3.4.3.7.2 0 .2 0 .3.1.5v-.1c.2-.4-.4-.8-.6-.4v.1c-.1.2-.1.3.1.5.2.3.7.3.8-.1.3-.5-.4-1-.6-1.4-1-1.3-2.1-2.5-3.5-3.4-1.4-.9-3-1.6-4.5-2.2-1.7-.7-3.5-1.5-5.2-2.2 0 .2.1.4.1.6h-.1c0 .3.6-.1.4-.5z" />
	<path class="the_godfather_2"
		d="M150.3 130.8c2.8.7 5.4 1.9 7.9 3.4 1.2.8 2.3 1.6 3.4 2.6l1.5 1.5c.2.3.5.5.7.8.2.2.7.7.7 1 .1-.1.1-.2.2-.3h.2c0 .1.1.2.1.4v-.1c.1-.5-.6-.7-.7-.2v.1c0 .1 0 .3.1.4.3.3.8.2.9-.2.1-.7-.9-1.5-1.2-1.9-1.2-1.3-2.4-2.5-3.8-3.6-2.9-2.2-6.1-3.7-9.6-4.6-.7-.1-.9.6-.4.7z" />
	<path class="the_godfather_2"
		d="M151 132c5.8 3 10.5 7.8 13.3 13.7.2.4.9.1.6-.4-2.9-6-7.7-10.9-13.6-13.9-.4-.3-.8.3-.3.6z" />
	<path class="the_godfather_2"
		d="M150.9 133.4c2.7 1.8 5.3 4 7.5 6.4 1.1 1.2 2.1 2.5 3.1 3.9.5.7.9 1.4 1.3 2.1.1.2 1.1 2.1 1.1 2.1-.5 0-.5.8 0 .8 1.7-.1-.1-2.7-.4-3.2-1-1.7-2.2-3.3-3.4-4.8-2.5-3-5.5-5.7-8.7-7.8-.6-.4-.9.2-.5.5zM150.7 134.9c5.5 5.7 9.8 12.4 12.7 19.7.2-.1.4-.3.6-.4-.2-.1-.5-.2-.7-.4-.4-.2-.8.4-.4.6.2.1.5.2.7.4.3.1.7-.1.6-.4-3-7.4-7.4-14.2-12.9-20-.4-.4-1 .2-.6.5zM149.4 139.1c1.3.8 2.3 2 3.2 3.2.8 1.1 1.6 2.2 2.3 3.4 1.5 2.4 2.8 4.8 4 7.4l.9 2.1c.2.5.4 1.3.7 1.7.3.4.9.5 1.4.2 1.1-.9-1.1-2.1-1.4-.7-.1.5.6.7.7.2.1-.3.1.1-.1-.3-.1-.2-.2-.4-.2-.6-.2-.4-.4-.9-.5-1.3-.3-.8-.7-1.6-1.1-2.4-.8-1.8-1.7-3.5-2.7-5.2-1-1.6-2-3.2-3.1-4.8-1-1.4-2-2.8-3.5-3.6-.7-.2-1 .5-.6.7zM148.5 141.1c1.4 1.2 2.5 2.7 3.6 4.2s2.1 3 2.9 4.6c.9 1.6 1.7 3.2 2.4 4.9.4.9.7 1.7 1 2.6.1.4.3.8.4 1.3.1.2.4 1 .3 1.1.1-.1.3-.1.4-.2.1 0 .1.1.2.1-.1.1-.1.3-.2.4h.1c.4-.2.1-.9-.4-.6h-.1c-.1.1-.2.3-.2.4.1.2.2.3.4.4.2 0 .3 0 .4-.2.3-.6-.1-1.3-.3-1.9-.3-.9-.7-1.9-1-2.8-.7-1.8-1.6-3.6-2.5-5.4-1-1.8-2-3.5-3.2-5.1-1.1-1.6-2.3-3.2-3.8-4.5-.2-.1-.8.4-.4.7z" />
	<path class="the_godfather_2"
		d="M147.7 142.4c4.8 6.4 7.9 13.9 8.7 21.9.1.5.8.5.8 0-.9-8.1-3.9-15.8-8.8-22.2-.3-.5-.9-.1-.7.3z" />
	<path class="the_godfather_2"
		d="M147.3 144c.1-.2.6 1 .7 1l.6 1.5c.4 1 .8 1.9 1.2 2.9.8 1.9 1.4 3.9 2 5.9 1.1 4.2 1.5 8.5.7 12.8-.1.5.6.7.7.2 1.1-5.2.3-10.4-1.3-15.4-.8-2.4-1.8-4.8-2.8-7.2-.2-.5-1.4-3.8-2.4-2-.3.4.3.8.6.3z" />
	<path class="the_godfather_2"
		d="M146.5 144.7c3.8 7.5 4.5 16.3 2 24.4-.1.5.6.7.7.2 2.5-8.3 1.8-17.3-2.1-25-.2-.4-.9 0-.6.4z" />
	<path class="the_godfather_2"
		d="M145.2 145.6c2.8 7.4 2.1 15.8-1.7 22.7-.2.4.4.8.6.4 3.9-7.1 4.6-15.7 1.8-23.3-.1-.5-.9-.3-.7.2z" />
	<path class="the_godfather_2"
		d="M142 165.1c1.1-.6 1.7-1.6 2.1-2.8.5-1.7.8-3.4 1.1-5.2.6-3.6 1-7.2.4-10.8-.1-.3-.4-.3-.6-.2-.3.3-.4.5-.5.8-.1.5.6.7.7.2.1-.2.2-.3.3-.5-.2-.1-.4-.1-.6-.2.6 3.3.3 6.7-.3 10.1-.3 1.5-.5 3-.9 4.5-.3 1.3-.7 2.7-2 3.4-.5.3-.1 1 .3.7z" />
	<path class="the_godfather_2"
		d="M140.8 162.1c2.4-4.7 3.7-9.9 3.6-15.1 0-.5-.8-.5-.8 0 .1 5.1-1.1 10.2-3.5 14.8-.2.4.5.7.7.3zM149.2 135.8c3 2.7 5.6 5.8 7.7 9.3 1 1.7 1.9 3.5 2.7 5.4.2.4 1.6 5.1 1.6 5.1.5 0 .5-.8 0-.8-.6.1-1.2.7-.8 1.3.3.6 1.2.5 1.5-.1.2-.2.1-.5.1-.7-.1-.8-.4-1.6-.6-2.3-.4-1.3-.9-2.6-1.4-3.8-2.3-5.4-5.8-10.2-10.2-14.1-.4-.1-.9.4-.6.7z" />
	<path class="the_godfather_3"
		d="M153.2 93.4c-2.4-5.4-10.2-3.4-15.5-3.3-5.1.1-10.2 1.2-14.9 3.1-9.8 3.9-18.3 11.1-23.5 20.4-.1.1-.3.2-.4.4-1.8 2.8-2.3 6.7-2.9 10-.7 3.7-.8 6.4-.4 10 .9 7.4-1.3 14.7-3.5 21.7-.3.9.5 1.9 1.4 1.9 6.3 0 12.6-.4 18.9-1.3 2.8-.4 5.9-.7 8.4-2.2 2.3-1.3 3.8-3.4 5.6-5.3.8-.9 1.7-1.7 2.8-2.2 1.3-.6 2.5-.5 3.8-.2 2.7.7 5.1.8 6.9-1.7 1.7-2.3 3.1-4.8 4.5-7.3 1.5-2.6 3-5.2 4.3-7.9 4.9-10 9.2-25.4 4.5-36.1zM96.7 110.2c-.3-1.9-2.3-1.8-3.8-1.8-3 .1-5.9.2-8.8.7-2.9-.2-5.8.2-8.7.7h-.2c-1-2-2.5-3.8-4.3-5.3-4.7-3.8-10.1-7.2-16.2-7.2-3.2 0-6.5.4-9.7 1.1-2.8.6-5.6 1.7-7.5 4-.5.6-.4 1.3-.1 1.8-.8 1.2-.8 3.1-.6 4.4.4 2.9.8 5.8 1.4 8.7 1.2 5.7 2.9 11.4 6.3 16.2 1.6 2.2 3.4 4.9 6.3 5.3 3.1.4 6.2.1 9.2.9 2.7.7 5.2 2.3 6.3 5 .5 1.1.6 2.3.3 3.4-.4 1.3-1.1 2.6-.4 3.9.9 1.6 3.1 1.6 4.6 1.9 2.1.4 4.2.8 6.4 1.3 4.1.8 8.2 1.6 12.2 2.4 1.7.3 2.5-1.7 1.2-2.7-4.7-3.4-7.6-8.4-8.6-14.1-.6-3.3-.9-6.6-1.4-9.8-.5-3.3-1.1-6.7-1.9-10-.5-2-.9-4-1.5-6 .1 0 .1-.1.2-.1.7-.5 1.5-.9 2.3-1.3 1.5-.7 3.1-1.2 4.7-1.5h.1c.5 0 1.1.1 1.6.2 1.7.3 3 1.1 4.5 1.7 1.4.6 3 .5 4.3-.3 1-.7 2.1-2.1 1.8-3.5z" />
	<path class="the_godfather_2"
		d="M63 152.7c16.5 7.2 36.9 11.7 54.1 4.2 1.8-.8.2-3.4-1.5-2.6-7.9 3.5-16.7 4-25.2 3-8.9-1-17.7-3.6-25.9-7.2-1.7-.8-3.2 1.8-1.5 2.6z" />
	<path class="the_godfather_2"
		d="M50.7 139.1c.2.3-.1 1.5-.2 2-.2.9-.4 1.7-.7 2.5-.5 1.6-1.1 3.1-1.4 4.8-.3 1.7-.5 3.6-.3 5.3.2 1.7 1.5 2.7 3.1 3 3.4.7 6.8-.6 9.7-2.2 3.1-1.8 6-3.9 8.6-6.3 1.4-1.3-.7-3.4-2.1-2.1-2.3 2.1-4.8 3.9-7.5 5.5-2.4 1.4-5.4 2.9-8.3 2.2-.7-.2-.6-.3-.6-1s.1-1.5.1-2.2c.1-1.6.5-3.1 1-4.6.5-1.4 1-2.7 1.3-4.1.3-1.4.6-3.1-.1-4.4-1-1.6-3.6-.1-2.6 1.6zM117.1 156.9c.8-.5 2.1-.2 3 .1 1.3.4 2.3 1.1 3.5 1.8 2.7 1.7 6 4.2 9.3 2.8 3.1-1.3 4-5 3.9-8-.2-3.6-1.3-7.2-2-10.8-.4-1.9-3.3-1.1-2.9.8.4 1.8.8 3.6 1.1 5.3.3 1.5.7 2.9.8 4.4.1 2.2-.4 6.1-3.5 5.5-2.9-.5-5.1-3-7.7-4.2-2-.9-5-1.7-7-.4-1.6 1.1-.1 3.7 1.5 2.7zM72.2 51.2c16.6-4.6 34.9-3.6 50.8 3.1.8.3 1.6-.3 1.8-1 .2-.9-.3-1.5-1-1.8-16.4-6.9-35.3-7.9-52.4-3.1-1.9.4-1.1 3.3.8 2.8zM102.5 80.2c-.1-.3-.4-.4-.7-.3-.3.1-.5.3-.6.5-.2.2-.2.5 0 .8.1.2.4.4.7.4.6 0 .9-.7 1-1.2.1-.5 0-1.1-.6-1.1.1.2.1.5.2.7.3-.2.7-.4 1-.4.1 0 .2 0 .3.1.1.1.1.3.1.4v.4c0 .1-.1.1-.2.1-.2 0-.4-.2-.4-.5-.2 0-.5.1-.7.1 0 .3.1.6.1.9 0 .2.1.5.3.7.3.4 1 .3 1.2-.2.1-.3-.1-.4-.4-.5-.4-.1-1.2 0-1.4.5-.1.2 0 .5.2.7.2.2.5.2.8.2.5 0 1-.1 1.2-.6.2-.5-.1-1-.4-1.3-.2-.1-.5-.2-.7-.3-.1 0-.3-.1-.4-.1-.2 0-.3.1-.5.1.1 0 .1 0 .2-.1.1 0 .1.1.2.1 0 .1 0 .2.1.3l.1-.1v-.3c0-.2-.1-.3-.3-.4-.1-.1-.3-.2-.5-.2s-.3.1-.5 0c.1.2.2.3.3.5.1-.3.2-.7.5-.9.3-.2.5.1.7.3.3.4.9-.2.5-.5-.2-.2-.4-.4-.7-.5-.3-.1-.6-.1-.9 0-.5.3-.8.9-.9 1.4 0 .2.1.4.3.5h.7c-.1 0 .1 0 0 0v-.1s-.1.1-.1.2v.4c.1.2.3.3.5.2.1 0 .1-.1.3-.1.2.1.5.1.7.2.1 0 .1.1.1.1v.1s-.1.1-.1 0h-.6c-.1 0 0 0-.1.1v.1H103.8c-.1-.2-.2-.3-.4-.5l.1-.1s0 .1 0 0c0 0-.1-.1 0 0 0 0 0-.1-.1-.2-.1-.3-.1-.7-.1-1 0-.2-.2-.3-.4-.3s-.3.2-.3.4c0 .6.5 1.2 1.1 1.2.6 0 1.1-.5 1.1-1.1 0-.6-.2-1.3-.8-1.4-.6-.2-1.2.2-1.7.4-.1.1-.2.3-.2.4 0 .2.2.3.4.3h-.1V80c0 .2 0 .4-.2.5 0 0-.1 0 0 0 0 0-.1 0 0 0 0 0 .1 0 0 0l.2-.2s.1 0 0 0c0 0-.1 0-.1-.1-.3.8.4.4.2 0zM68.7 77.4c-.3.5-.4 1.2.2 1.5.6.3 1.2-.1 1.5-.6.2-.3.3-.6.2-.9-.1-.3-.4-.5-.7-.6-.3-.1-.7-.2-1 0-.3.1-.5.4-.5.8 0 .2.1.3.3.4.2 0 .3 0 .4-.2.2-.3.3-.6.3-.9 0-.3-.2-.6-.5-.7-.3-.1-.7-.1-.9.2-.2.2-.3.5-.4.8-.1.3-.1.7.2.9.2.2.5.3.8.4.6.1 1.1-.2 1.5-.7.2-.2-.1-.6-.3-.6-.4 0-.7.2-1 .5-.1.1-.2.3 0 .5.1.1.3.2.5.1.4-.3.7-.7.8-1.1 0-.2.1-.5 0-.7v-.1c-.1.2-.2.2-.1.2h.1c.1 0 .2 0 .3.1.2.1.4.2.5.3l.1.1v.1l-.1.1-.4.4c-.1 0-.1.1-.2.1 0 0-.1 0-.1-.1 0 .2 0 .3.1.5.1-.1 0 0 0 0s.1 0 0 0c0 0 .1 0 0 0H70.6c.1 0-.1 0 0 0 0 0 .1.1 0 0V78.5c0 .2-.2.3-.3.3-.2 0-.4-.1-.5-.3-.1-.2-.2-.3-.5-.3-.2 0-.3.3-.3.5.2.5.7.9 1.2.9s1-.4 1.1-.9c.1-.5-.1-1-.6-1.2-.4-.2-1 0-1.2.4-.1.2 0 .3.1.5.4.4 1 .3 1.4 0 .4-.3.9-.8.7-1.3-.1-.5-.7-.8-1.1-1-.3-.1-.6-.1-.9 0-.1.1-.2.1-.3.2-.1.2-.1.3 0 .5.1.4-.1.8-.4 1.1.2.2.3.4.5.6.1-.1.3-.2.4-.2l-.3-.6c-.1.2-.4.3-.7.3-.1 0-.2 0-.3-.1-.1 0-.1-.1-.1-.2 0-.2.1-.3.2-.5 0-.1.1-.2.2-.2v.1c0 .2-.1.3-.2.4.2.1.5.1.7.2v-.1h.1c.1 0 .3 0 .5.1 0 0 .1 0 .1.1 0 0 0-.1 0 0s-.1.3-.2.4c-.1.1-.1.2-.2.2h-.2c0-.1 0 .1 0 0 0 0 0-.1 0 0 0-.1.1-.2.1-.4 0-.6-.7-1-.9-.6z" />
	<path class="the_godfather_2"
		d="M68.8 76.8c0 .1 0 0 0 0v-.1s0-.1 0 0c0 0 0-.1.1-.1v-.1s-.1.1 0 0c0 0 0-.1.1-.1 0 0 .1 0 .1-.1.1 0-.1 0 0 0h.2c.1 0-.1 0 0 0h.2c.1 0-.1 0 0 0h.2c.1 0-.1 0 0 0 0 0 .1 0 .1.1.2.1.4 0 .5-.1.1-.2 0-.4-.1-.5-.4-.2-.9-.3-1.3 0-.4.2-.6.6-.7 1.1 0 .2.2.4.4.4.1-.1.2-.2.2-.5z" />
	<path class="the_godfather_2"
		d="M68.3 77.4c-.3.3-.4.8-.2 1.3.1.2.3.4.5.4.3.1.5.1.8.1.2 0 .5-.1.7-.2.2-.1.2-.4.1-.5-.1-.2-.3-.2-.5-.1h-.1s-.1 0-.2.1c-.1 0-.2.1-.3.1h.1-.3-.1s.1 0 0 0c0 0-.1 0-.1-.1.1 0 .1.1 0 0 0 0 0-.1 0 0v-.1c0-.1 0 .1 0 0v-.1-.1 0s0-.1 0 0v-.1c.1-.1.2-.4 0-.5-.1-.3-.3-.4-.4-.2zM70.3 77.3c.1-.1.2-.3.3-.4v-.1-.1s0-.1-.1-.1l-.1-.1c-.1 0-.2-.1-.3 0H70c-.1 0-.1.1-.1.1-.1.1-.2.3-.3.4v.2s0 .1.1.1l.1.1c.1 0 .2.1.3 0h.1s.1 0 .1-.1z" />
	<g>
		<path class="the_godfather_2"
			d="M102.2 79.9c.1 0 .2-.1.2-.1h.1c.1-.1-.1 0 .1 0 .2-.1.3-.1.5-.1H103.4c-.1 0 0 0 0 0 .1 0 .1 0 .2.1h.2c.1 0 0 0 0 0l.1.1.1.1s0-.1 0 0v.1c0 .1 0-.1 0 0v.2s0 .1-.1.1c0 0 .1-.1 0 0-.1 0 .1 0 0 0-.2 0-.4.2-.4.4s.2.4.4.4c.3 0 .6-.2.7-.5.1-.3.2-.6.1-.9-.2-.6-.9-.9-1.6-.8-.4.1-.8.2-1.2.4-.2.1-.2.4-.1.5 0 .1.2.1.4 0z" />
	</g>
	<g>
		<path class="the_godfather_2"
			d="M94 93.7c-.3-.8-.6-1.7-1-2.5-.6-1.1-1.7-2.6-3.1-2.4-1.2.1-2.2 1.1-3 2l-1.2 1.5c-.2.2-.3.4-.5.6-.1.1-.3.4-.2.3.4.1.8.1 1.2.2-.6-.8-1.3-1.6-1.9-2.4-.4-.5-.7-1.2-1.1-1.7-.6-.9-1.7-1.8-2.8-1.2-1 .5-1.7 1.5-2.4 2.3-.7.8-1.3 1.6-1.9 2.6-.5.8.8 1.6 1.3.8.8-1.4 2-3.1 3.4-4.1.1-.1.2-.2.4-.2h.1c-.2.1-.2-.1 0 0 .5.4.8.7 1.1 1.2.8 1.2 1.7 2.4 2.5 3.5.3.3.8.6 1.2.2.5-.6.9-1.2 1.4-1.8.6-.7 1.4-1.7 2.3-2.1.9-.3 1.7 1.1 2 1.8.3.6.5 1.3.8 2 .3.7 1.7.3 1.4-.6z" />
	</g>
	<g>
		<path class="the_godfather_2"
			d="M136.4 151.5c3.4-4.4 6.9-8.7 10-13.3 4.2-6.4 8.1-13.3 9.5-20.9.7-3.9.8-7.9.6-11.9-.2-3.2-.6-6.5-1.5-9.5-1.7-5.8-3.8-11.5-5.8-17.3-1.8-5.2-5.4-9.8-7.5-14.7-.3-.8-1-1.3-1.8-1-.7.2-1.4 1.1-1 1.8 1.9 4.6 4.8 8.8 6.9 13.4.9 1.9 1.4 3.9 2.1 5.8 1.2 3.4 2.4 6.7 3.5 10.1 1.9 6.2 2.7 12.7 2.2 19.2-.7 7.7-4 14.6-8.1 21.1-3.3 5.3-7.2 10.2-11 15.1-1.4 1.5.7 3.6 1.9 2.1z" />
	</g>
	<g>
		<path class="the_godfather_2"
			d="M52.6 141.1c-4-5.4-7.7-11.2-10.1-17.5-2.3-6.2-3.3-12.8-2.8-19.4 0-.7.1-1.3.2-2v-.3-.1c.1-.7.3-1.4.5-2 .5-2 1.1-3.9 1.8-5.9 1.2-3.6 2.4-7.2 3.8-10.7.9-2.5 2.3-4.8 3.4-7.2 2-4 4.1-8 6.5-11.7 1.1-1.6-1.5-3.1-2.6-1.5-2.2 3.4-4.2 7-6 10.7-1.4 2.8-2.9 5.6-4.1 8.4-1.3 3.2-2.4 6.6-3.5 9.9-.7 2.1-1.4 4.2-2 6.3-.2.8-.5 1.6-.6 2.5-.1.3-.1.5-.1.8 0 .1-.1 1.2-.1.7-.6 6.8-.1 13.6 1.9 20.1 2.4 7.5 6.6 14.3 11.2 20.6 1.2 1.3 3.8-.2 2.6-1.7z" />
	</g>
	<g>
		<path class="the_godfather_3"
			d="M90.7 84.8v3.6c0 .7 1.1 1.1 1.4.4.7-1.5 1.3-2.9 2-4.4h-1.3c.6 1.5 1 3.1 1 4.7 0 .7 1.1 1.1 1.4.4.8-1.7 1.8-3.2 3.1-4.6-.4-.1-.8-.2-1.3-.3.2 1.1.4 2.3.6 3.4.1.6 1.1.7 1.4.2.5-.9 1.1-1.6 1.9-2.2-.4-.1-.7-.3-1.1-.4.2.8.4 1.7.7 2.5.2.7 1.3.7 1.4 0 .3-1.2 2-1.1 2 .2 0 1 1.5 1 1.5 0-.1-1.2-1-2.4-2.2-2.5-1.3-.1-2.4.7-2.7 1.9h1.4c-.2-.8-.4-1.7-.7-2.5-.1-.4-.7-.7-1.1-.4-1 .7-1.9 1.6-2.5 2.7.5.1.9.1 1.4.2-.2-1.1-.4-2.3-.6-3.4-.1-.5-.9-.7-1.3-.3-1.3 1.5-2.4 3.1-3.3 4.9.5.1.9.3 1.4.4 0-1.9-.5-3.7-1.2-5.4-.2-.5-1.1-.5-1.3 0-.7 1.5-1.3 2.9-2 4.4.5.1.9.3 1.4.4v-3.6c.1-1.3-1.4-1.3-1.4-.3z" />
	</g>
	<g>
		<path class="the_godfather_3"
			d="M80 83.7v3.6c.5-.1.9-.3 1.4-.4-.7-1.5-1.3-2.9-2-4.4-.2-.5-1.1-.5-1.3 0-.8 1.7-1.2 3.5-1.2 5.4.5-.1.9-.3 1.4-.4-.9-1.8-2-3.4-3.3-4.9-.4-.4-1.2-.2-1.3.3-.2 1.1-.4 2.3-.6 3.4.5-.1.9-.1 1.4-.2-.6-1.1-1.4-2-2.5-2.7-.4-.3-1 0-1.1.4-.2.8-.4 1.7-.7 2.5h1.4c-.3-1.2-1.5-2.1-2.7-1.9-1.3.1-2.2 1.3-2.2 2.5 0 1 1.5 1 1.5 0 .1-1.2 1.7-1.3 2-.2.2.7 1.3.7 1.4 0 .2-.8.4-1.7.7-2.5-.4.1-.7.3-1.1.4.8.6 1.5 1.3 1.9 2.2.3.5 1.3.5 1.4-.2.2-1.1.4-2.3.6-3.4-.4.1-.8.2-1.3.3 1.2 1.4 2.2 2.9 3.1 4.6.3.7 1.4.3 1.4-.4 0-1.6.4-3.2 1-4.7H78c.7 1.5 1.3 2.9 2 4.4.3.7 1.4.3 1.4-.4v-3.6c.1-.6-1.4-.6-1.4.3z" />
	</g>
	<g>
		<path class="the_godfather_3"
			d="M123.3 56.9c1.2-2.2 2.6-4.2 4.3-6 .8-.8 1.6-1.7 2.7-2.2.8-.3 1.9-.4 2.4.5.5.8 1.8.1 1.3-.8-.7-1.1-1.9-1.5-3.2-1.4-1.4.2-2.5 1.1-3.5 2.1-2.1 2-3.9 4.4-5.3 7-.4.9.9 1.7 1.3.8z" />
	</g>
	<g>
		<path class="the_godfather_5"
			d="M83.5 53c-.2-2.3.4-5 1.5-7.1 1.4-2.5 4.5-3.5 7.2-3.1.4.1.7-.4.8-.8 0-.4-.3-.7-.8-.8-3.1-.4-6.7.9-8.3 3.6-.7 1.2-1.2 2.6-1.5 4-.3 1.3-.5 2.7-.4 4.1 0 1 1.5 1 1.5.1z" />
		<path class="the_godfather_5"
			d="M90 51.7c-.5-2.3.3-4.7 1.9-6.3 1.4-1.5 4.4-2.9 6.2-1.2.7.7 1.8-.4 1.1-1.1-1.8-1.7-4.6-1.4-6.6-.2-1.9 1.2-3.4 3.1-3.9 5.3-.3 1.3-.4 2.6-.1 3.8.2 1 1.6.6 1.4-.3z" />
		<path class="the_godfather_5"
			d="M93.7 51.8c1.1-2.2 2.4-4.3 4-6.2 1.3-1.5 3.6-3.1 5.6-1.7.8.6 1.5-.7.8-1.3-2.3-1.6-5.2-.4-6.9 1.4-2 2-3.5 4.5-4.7 7-.5.9.8 1.7 1.2.8z" />
		<path class="the_godfather_5"
			d="M97.2 52.5c1.5-2.3 2.9-4.9 4.9-6.8 1.7-1.6 4.4-2.5 6.5-1 .8.6 1.5-.7.8-1.3-2.3-1.7-5.6-1-7.7.7-2.5 2-4.1 5-5.8 7.6-.5.9.8 1.6 1.3.8z" />
		<path class="the_godfather_5"
			d="M104.3 52.4c1-2.5 2-5.1 4-6.9 1.7-1.6 4.4-2.4 6.5-1.1.8.5 1.6-.8.8-1.3-2.5-1.5-5.8-.7-8 1-2.5 2-3.6 5.1-4.8 7.9-.3.9 1.2 1.3 1.5.4z" />
		<path class="the_godfather_5"
			d="M108.3 53.6c.4-2.4 1.7-4.7 3.6-6.2.9-.7 2-1.3 3.2-1.6.8-.2 2.3-.5 2.7.5.4.9 1.7.1 1.3-.8-.6-1.3-2.2-1.6-3.5-1.4-1.5.2-2.9.9-4.1 1.7-2.4 1.7-4.2 4.4-4.7 7.3-.1.4.1.8.5.9.5.2 1 0 1-.4z" />
		<path class="the_godfather_5"
			d="M112.7 55c1.1-2.5 2.6-4.7 4.7-6.5 1-.9 2.1-1.8 3.4-2.2 1-.3 2.4-.2 2.9.9.4.9 1.8.5 1.4-.4-.6-1.4-1.9-2.2-3.3-2.2-1.6 0-3.1.9-4.4 1.9-2.6 2-4.7 4.7-6 7.7-.4.9.9 1.7 1.3.8z" />
		<path class="the_godfather_5"
			d="M117.5 56.3c.9-2.3 2.4-4.4 4.3-6 1-.8 2.2-1.5 3.4-1.8 1-.2 2.4.1 2.9 1.2.3.9 1.8.5 1.4-.4-.5-1.4-1.8-2.2-3.3-2.3-1.6-.1-3.2.7-4.6 1.6-2.6 1.8-4.5 4.3-5.6 7.3-.3.9 1.2 1.3 1.5.4zM77.7 54c.1-1 .2-1.9.4-2.9s.2-2.1.3-3.1c.1-.9.3-2 .9-2.8.5-.6 1.3-1.2 2.2-1 .9.2 1.3-1.2.4-1.4-2.5-.6-4.3 1.7-4.7 3.9-.2 1.2-.2 2.5-.4 3.7-.2 1.2-.4 2.4-.4 3.6-.2 1 1.3 1 1.3 0z" />
		<path class="the_godfather_5"
			d="M73.8 54.5v-3.7c0-1.2-.1-2.4.1-3.5.2-1.7 1.4-4.1 3.6-3.6.9.2 1.3-1.2.4-1.4-2.5-.6-4.6 1.4-5.2 3.7-.4 1.3-.4 2.7-.4 4v4.6c0 .9 1.5.9 1.5-.1z" />
	</g>
	<g>
		<path class="the_godfather_2"
			d="M91.7 158.5c3.2-6.6 5.3-13.7 6-21.1.4-3.7.3-7.4.3-11.2-.1-3.6-.1-7.3 1-10.8 1.9-6.2 7.4-11 12.6-14.6 5.2-3.6 11-6.4 17.2-7.9 3.4-.9 6.9-1.4 10.5-1.4 1.7 0 3.4 0 5.1.2.9.1 1.8.2 2.7.4.4.1.8.1 1.2.2.3.1.5.1.8.2.4.2.5.1.2-.1-.1-.4-.1-.8-.2-1.2 0 .1 0 .1-.1.2.2-.3.5-.6.7-.9.1 0 .3-.1.4-.1.4.2.9.5 1.3.7l-.1-.1c-1-1.7-3.6-.2-2.6 1.5l.1.1c.3.4.8.8 1.3.7 1.8 0 2.6-2.1 1.2-3.2-1.1-1-3.3-1-4.8-1.2-3.4-.5-6.9-.6-10.4-.3-7 .6-13.9 2.7-20.1 6-6.2 3.2-12.1 7.7-16.4 13.3-2.3 3.1-3.8 6.6-4.3 10.4-.5 4-.2 8-.2 12 .1 9.2-2 18.3-6 26.6-.9 1.8 1.7 3.3 2.6 1.6z" />
	</g>
	<g>
		<path class="the_godfather_2"
			d="M91.5 154c-5.2-1.6-7.8-7.2-8.9-12.2-1.3-6-1.2-12.3-2-18.4-.8-5.9-2.3-12-6.3-16.7-3.7-4.3-9-6.9-14.4-8.5-7-2.1-14.6-1.2-21.1 2.2-1.7.9-.2 3.5 1.5 2.6 5.6-3 12.3-3.7 18.4-2 5.3 1.5 10.6 4.1 14 8.6 3.5 4.8 4.6 11 5.2 16.7.6 5.9.6 12 2.1 17.7 1.5 5.5 4.9 11.1 10.6 12.9 1.9.6 2.7-2.3.9-2.9z" />
	</g>
	<g>
		<path class="the_godfather_2"
			d="M66.6 104.1c3.5.3 7 1.1 10.3 2.1 2.3.7 5.1 1.7 6 4.1.4 1.1 1.6 1.4 2.5.7 5.4-4.5 12.3-6.9 19.3-6.9 1.9 0 1.9-3 0-3-7.8.1-15.4 2.8-21.4 7.8.8.2 1.7.4 2.5.7-1.2-3.2-4-4.9-7.1-5.9-3.9-1.3-8.1-2.1-12.1-2.5-1.9-.3-1.9 2.7 0 2.9z" />
	</g>
	<g>
		<path class="the_godfather_3"
			d="M85.7 121l.4.4c.1.1.3.2.5.3.2.1.4.1.6.1.2 0 .4 0 .6-.1.2-.1.3-.2.5-.3.1-.1.2-.2.2-.3.1-.2.2-.5.2-.8 0-.1 0-.3-.1-.4-.1-.3-.2-.5-.4-.7l-.4-.4c-.1-.1-.3-.2-.5-.3-.2-.1-.4-.1-.6-.1-.2 0-.4 0-.6.1-.2.1-.3.2-.5.3-.1.1-.2.2-.2.3-.1.2-.2.5-.2.8 0 .1 0 .3.1.4 0 .3.2.5.4.7z" />
	</g>
	<g>
		<path class="the_godfather_3"
			d="M87.8 131.2h.4c.2 0 .4 0 .6-.1.2-.1.3-.2.5-.3.1-.1.2-.3.3-.5.1-.2.1-.4.1-.6 0-.1 0-.3-.1-.4-.1-.3-.2-.5-.4-.7-.1-.1-.2-.2-.3-.2-.2-.1-.5-.2-.8-.2h-.4c-.2 0-.4 0-.6.1-.2.1-.3.2-.5.3-.1.1-.2.3-.3.5-.1.2-.1.4-.1.6 0 .1 0 .3.1.4.1.3.2.5.4.7.1.1.2.2.3.2.3.1.5.2.8.2z" />
	</g>
	<g>
		<path class="the_godfather_3"
			d="M87.4 138.3v.4c0 .2 0 .4.1.6.1.2.2.3.3.5.1.1.3.2.5.3.2.1.4.1.6.1.1 0 .3 0 .4-.1.3-.1.5-.2.7-.4.1-.1.2-.2.2-.3.1-.2.2-.5.2-.8v-.4c0-.2 0-.4-.1-.6-.1-.2-.2-.3-.3-.5-.1-.1-.3-.2-.5-.3-.2-.1-.4-.1-.6-.1-.1 0-.3 0-.4.1-.3.1-.5.2-.7.4-.1.1-.2.2-.2.3-.2.3-.2.5-.2.8z" />
	</g>
	<g>
		<path class="the_godfather_3"
			d="M88.9 147.7h.4c.2 0 .4 0 .6-.1.2-.1.3-.2.5-.3.1-.1.2-.3.3-.5.1-.2.1-.4.1-.6 0-.1 0-.3-.1-.4-.1-.3-.2-.5-.4-.7-.1-.1-.2-.2-.3-.2-.2-.1-.5-.2-.8-.2h-.4c-.2 0-.4 0-.6.1-.2.1-.3.2-.5.3-.1.1-.2.3-.3.5-.1.2-.1.4-.1.6 0 .1 0 .3.1.4.1.3.2.5.4.7.1.1.2.2.3.2.3.1.5.2.8.2z" />
	</g>
	<g>
		<path
			d="M122.6 109.2c.1 1.4.4 2.8.7 4.2.1.4.5.6.9.5.4-.1.6-.5.5-.9-.2-.6-.3-1.3-.4-2-.1-.3-.1-.7-.2-1v-.1-.2c0-.2 0-.4-.1-.5 0-.4-.3-.8-.8-.8-.3.1-.7.4-.6.8z"
			fill="#090" />
	</g>
	<path
		d="M127.6 99c-.4-.1-.7 0-1 .2-.2.1-.5.5-.6.6-.7.1-.4-1.4-.4-1.7.1-.5-.2-1-.7-.9-1 0-2 .5-2.6 1.2-.3.4-.6.8-.7 1.3-.1.2-.2.5-.2.8v.1c-.4-.1-.5-.5-.7-.9-.2-.4-.4-.9-.7-1.2-.6-.7-1.6-.9-2.4-.4-.4-.1-.8 0-.9.5-.4 1.8-.7 3.7-.4 5.5.3 1.7 1.2 3.2 2.7 4.1 2.8 1.8 6.6.8 8.2-2.1.5-.8.7-1.8.8-2.7.1-1.1-.1-2.2.2-3.3 0-.5-.2-1-.6-1.1z"
		fill="#fd1015" />
	<path class="the_godfather_0"
		d="M133.4 117.8c0-.8-.7-1.6-1.5-1.5-1.8.2-3.7.3-5.5.3-.9 0-1.8-.1-2.6-.1-.9-.1-1.9-.3-2.8-.3-.9 0-1.8.2-2.4.9-.7.8-.9 1.9-.4 2.8.4.8 1.2.9 1.9 1.2.5.3.9.7 1.3 1.2 1.7 2.4 2.6 5.6 5.7 6.4.9.2 1.9.2 2.6-.4.7-.6.8-1.5 1.1-2.3.6-1.8 1.3-3.6 1.8-5.4.1-.5.1-1 0-1.4.4-.3.8-.7.8-1.4zM53.8 117.3c.7-1.1 1.1-2.5.5-3.8-.5-1-1.5-1.6-2.6-1.9-2.1-.6-4.5-.4-6.5.2-1.1.3-2.1.8-3 1.4-1 .7-2.1 1.5-2.5 2.6-.3 1.1.1 2 .7 2.8 0 .3.1.6.2.9.5 1.3 1.5 2.4 2.4 3.4 1.1 1.1 2.1 2.2 3.2 3.3 1.2 1.2 2.9-.2 2.5-1.5.3-.1.6-.3.8-.6 0-.1.1-.1.1-.2.4-.5.8-1.1 1.1-1.6 1-1.6 2.1-3.3 3.1-5z" />
	<g>
		<path class="the_godfather_3"
			d="M76.4 115zM82.2 110.8c-.1-.4-.3-.7-.7-.9-.4-.2-.7-.2-1.2-.2-1.9.3-3-.2-4.9.1-.3.1-1.5 1.2-1.7 1.5-.1.2-.2.5-.2.8-.3.8-.4 1.7-.1 2.6.2.5.5.9 1 1 .5.2 1 0 1.5-.4l.3-.3.1-.1c.1-.1.1 0 0 0 .2-.1.4-.3.6-.4.5-.3.9-.6 1.4-.9.2-.1.5-.2.7-.4.1-.1.2-.1.4-.2h.1c.5-.2 1-.4 1.5-.5.9-.1 1.4-1 1.2-1.7z" />
	</g>
	<g>
		<path class="the_godfather_2"
			d="M116.7 120.5c3.4 3 5.8 6.9 9.1 10 .5.5 1.2 1.1 2 1.1 1.5.1 3.1-.7 3.9-1.9.9-1.4 1.4-3.2 2-4.7.8-2.3 1.7-5 1.6-7.5-.1-.8-.6-1.5-1.5-1.5-.8 0-1.6.7-1.5 1.5.1 1.8-.5 3.7-1.1 5.5-.3 1-.7 2-1 2.9-.1.2-.2.4-.2.6l-.1.3c-.1.3-.3.6-.4.9 0 .1-.3.5-.2.3-.4.4-.8.4-1.3.6-.3.1.2.1.3.1.1 0 .2.1.1 0-.2-.1-.2-.1 0 0-.2-.2-.5-.4-.7-.6-1.4-1.4-2.6-2.9-3.9-4.4-1.6-1.9-3.2-3.8-5-5.4-1.4-1.2-3.6.9-2.1 2.2z" />
	</g>
	<g>
		<path class="the_godfather_2"
			d="M54.2 114c-2.7 3.3-4.7 7.1-7 10.6l-.6.9-.1.1c-.1.1-.2.2-.2.3-.1.2.2-.1.1-.1.6-.3.3-.1-.1-.1-.2 0-.5-.1-.7-.2-.1-.1-.2-.3-.4-.3.2.1.2.3 0 0-.1-.1-.2-.2-.2-.3l-.6-.9c-.5-.9-1-1.8-1.5-2.6-.5-1-1-2-1.4-3.1-.2-.5-.4-1-.5-1.5-.1-.3-.1-.5-.2-.8 0-.1 0-.2-.1-.3-.1-.3 0 .2 0-.1-.1-.8-.6-1.5-1.5-1.5-.8 0-1.6.7-1.5 1.5.2 2.3 1.2 4.5 2.2 6.5.8 1.7 1.7 3.4 2.8 4.9 1.3 1.7 4.3 2.6 5.9.8 1.3-1.5 2.3-3.4 3.4-5.1 1.3-2.2 2.8-4.6 4.3-6.5.5-.6.6-1.5 0-2.1-.5-.7-1.6-.8-2.1-.1z" />
	</g>
	<g>
		<path class="the_godfather_2"
			d="M84.8 110.1c-3.5-1.2-7-2.6-10.7-1.5-.4.1-.6.5-.5.9.3 2.2-.3 4.5 0 6.7.1.5.7.6 1.1.4 1.7-.7 3.3-1.4 5-2.2.8-.4 1.7-.7 2.5-1.1.7-.3 1.6-.9 2.3-.9.8.1 1.9.6 2.7.8.9.3 1.8.6 2.7.8 1.8.6 3.5 1.1 5.3 1.7.4.1.8-.1.9-.5.5-2.3 1.7-4.4 2.5-6.7.2-.5-.3-.9-.7-.9-4.4-.1-8.8.9-13.2 1.5-.9.1-1 1.6 0 1.5 4.4-.6 8.8-1.5 13.2-1.5-.2-.3-.5-.6-.7-.9-.8 2.2-2 4.3-2.5 6.7.3-.2.6-.3.9-.5-1.9-.6-3.8-1.2-5.8-1.8-1-.3-1.9-.6-2.9-.9-.8-.2-1.8-.8-2.6-.8-.7 0-1.4.6-2 .8-1 .4-1.9.8-2.9 1.3-1.8.8-3.6 1.6-5.4 2.3.4.1.7.3 1.1.4-.3-2.2.3-4.5 0-6.7-.2.3-.3.6-.5.9 3.5-1 6.7.4 9.9 1.5.8.5 1.2-1 .3-1.3z" />
	</g>
	<g>
		<path class="the_godfather_3"
			d="M86 53c-.1-1.2.1-2.4.3-3.6.3-1.3.6-2.5 1.2-3.7 1.3-2.6 4.5-3.6 7.3-3.3.4.1.7-.4.8-.8 0-.4-.3-.7-.8-.8-3.1-.4-6.8.9-8.4 3.8-.7 1.3-1.2 2.7-1.5 4.1-.3 1.3-.5 2.8-.4 4.1.1 1.1 1.6 1.1 1.5.2z" />
		<path class="the_godfather_3"
			d="M92.6 51.4c-.5-2.3.3-4.7 1.9-6.3 1.4-1.5 4.4-2.9 6.2-1.2.7.7 1.8-.4 1.1-1.1-1.8-1.7-4.6-1.4-6.6-.2-1.9 1.2-3.4 3.1-3.9 5.3-.3 1.3-.4 2.6-.1 3.8.2 1 1.7.6 1.4-.3z" />
		<path class="the_godfather_3"
			d="M96.3 51.5c1.1-2.2 2.4-4.3 4-6.2 1.3-1.5 3.6-3.1 5.6-1.7.8.6 1.5-.7.8-1.3-2.3-1.6-5.2-.4-6.9 1.4-2 2-3.5 4.5-4.7 7-.5.9.8 1.6 1.2.8z" />
		<path class="the_godfather_3"
			d="M99.8 52.2c1.5-2.3 2.9-4.9 4.9-6.8 1.7-1.6 4.4-2.5 6.5-1 .8.6 1.5-.7.8-1.3-2.3-1.7-5.6-1-7.7.7-2.5 2-4.1 5-5.8 7.6-.5.9.8 1.6 1.3.8z" />
		<path class="the_godfather_3"
			d="M107 52c1-2.5 2-5.1 4-6.9 1.7-1.6 4.4-2.4 6.5-1.1.8.5 1.6-.8.8-1.3-2.5-1.5-5.8-.7-8 1-2.5 2-3.6 5.1-4.8 7.9-.3.9 1.1 1.3 1.5.4z" />
		<path class="the_godfather_3"
			d="M111 53.3c.4-2.4 1.7-4.7 3.6-6.2.9-.7 2-1.3 3.2-1.6.8-.2 2.3-.5 2.7.5.4.9 1.7.1 1.3-.8-.6-1.3-2.2-1.6-3.5-1.4-1.5.2-2.9.9-4.1 1.7-2.4 1.7-4.2 4.4-4.7 7.3-.1.4.1.8.5.9.4.2.9 0 1-.4z" />
		<path class="the_godfather_3"
			d="M115.3 54.7c1.1-2.5 2.6-4.7 4.7-6.5 1-.9 2.1-1.8 3.4-2.2 1-.3 2.4-.2 2.9.9.4.9 1.8.5 1.4-.4-.6-1.4-1.9-2.2-3.3-2.2-1.6 0-3.1.9-4.4 1.9-2.6 2-4.7 4.7-6 7.7-.4.9.9 1.6 1.3.8z" />
		<path class="the_godfather_3"
			d="M120.1 55.9c.9-2.3 2.4-4.4 4.3-6 1-.8 2.2-1.5 3.4-1.8 1-.2 2.4.1 2.9 1.2.3.9 1.8.5 1.4-.4-.5-1.4-1.8-2.2-3.3-2.3-1.6-.1-3.2.7-4.6 1.6-2.6 1.8-4.5 4.3-5.6 7.3-.2.9 1.2 1.3 1.5.4zM80.6 54.6c.1-2.3.2-4.6.4-6.9.1-1.5.9-4.2 3-3.7.9.2 1.3-1.2.4-1.4-2.4-.6-4.3 1.6-4.7 3.8-.3 1.3-.3 2.6-.3 3.9-.1 1.4-.2 2.9-.2 4.3-.1.9 1.4.9 1.4 0z" />
		<path class="the_godfather_3"
			d="M76.4 54.2v-3.7c0-1.2-.1-2.4.1-3.5.2-1.7 1.4-4.1 3.6-3.6.9.2 1.3-1.2.4-1.4-2.5-.6-4.6 1.4-5.2 3.7-.4 1.3-.4 2.7-.4 4v4.6c0 .9 1.5.9 1.5-.1z" />
	</g>
	<g>
		<path class="the_godfather_2"
			d="M56 62.9c-.6-2.2-.5-4.6-.4-6.9.1-2.6.3-5.1.7-7.7.1-.8.2-1.6.4-2.4 0-.3.1-.5.1-.8 0-.1.2-.4.1-.3.9-1.5 3.3-.3 4.3.3 1.5.8 3 1.6 4.4 2.6 3.1 2 5.8 4.5 8.2 7.3 1.3 1.4 3.4-.7 2.1-2.1-2.5-2.8-5.2-5.3-8.3-7.4-1.6-1.1-3.2-2-4.9-2.9-1.8-.9-3.9-1.8-5.9-1.1-1.3.4-2.5 1.4-2.9 2.7-.2.7-.3 1.4-.4 2.1-.4 2.7-.7 5.4-.9 8.1-.2 3.1-.3 6.4.4 9.4.6 1.8 3.5 1 3-.9zM139.7 69.9c.8-3.3 1.6-6.5 2.1-9.9.5-3.6 1.4-7.9-.4-11.2-.7-1.4-2-2.6-3.5-3-1.9-.6-3.9 0-5.7.8-3.7 1.7-7.3 4-10.7 6.2-1.2.8-.8 2.7.8 2.8.7 0 1.3-.2 1.8-.7 1.5-1.2-.6-3.3-2.1-2.1.1-.1.2-.1.3-.2.3.9.5 1.9.8 2.8 2.9-1.9 5.8-3.7 8.9-5.3 1.4-.7 3.1-1.8 4.8-1.5 1.2.2 2.1 1.4 2.4 2.6.5 1.7.3 3.5.1 5.2-.1 1.5-.3 2.9-.6 4.4-.5 2.8-1.2 5.6-1.9 8.4-.5 1.8 2.4 2.6 2.9.7z" />
		<path class="the_godfather_2"
			d="M121.6 55.5c.7 1.6 1.1 3.5 2.7 4.6 2.1 1.5 5.3.5 6.8-1.4.8-1.1 1.6-2.2 2.5-3.2.4-.5.9-1 1.3-1.4.4-.4 1-1 1.5-1 1.3 0 .5 2.6.4 3.3-.2 1.6-.3 3.2-.4 4.8-.1 1.7-.2 3.5-.1 5.2.1 1.3.4 2.7 1.3 3.6.7.7 1.7-.4 1.1-1.1-.8-.8-.9-2.2-.9-3.2-.1-1.6 0-3.2.1-4.8.1-1.6.2-3.2.4-4.7.2-1.2.6-2.6-.1-3.7-1.7-2.7-4.7.7-5.9 2.1-.9 1-1.6 2.2-2.5 3.2-.8 1-2.3 1.6-3.7 1.4-2.1-.3-2.6-2.9-3.3-4.5-.3-.8-1.6 0-1.2.8zM74.6 54c-1.1.6-2.3 2.2-3.6 2-1.6-.2-3.1-2-4.2-3-1.4-1.2-2.7-2.4-4.1-3.5-.9-.7-2.1-1.6-3.3-1.7-2.5-.1-2.5 3.3-2.7 5-.4 3.5-1.7 6.8-2.2 10.3-.1.9 1.3 1.4 1.4.4.5-3.3 1.6-6.4 2.1-9.6.2-1.2.2-2.4.5-3.6.1-.4.3-.9.7-.9.6-.1 1.3.5 1.8.8 2.7 1.9 4.9 4.5 7.6 6.4 1 .7 2.3 1.3 3.5.8 1.2-.4 2-1.5 3.2-2.1.9-.4.2-1.7-.7-1.3z" />
		<path class="the_godfather_2"
			d="M59.5 47.9c-.9-1.4-1.5-2.9-1.7-4.6 0-.2-.2-.4-.4-.4s-.4.2-.4.4c.2 1.8.8 3.5 1.8 4.9.4.5 1 .1.7-.3zM61.3 49c-.4-1.9-.8-3.7-1.2-5.6-.1-.5-.8-.3-.7.2.4 1.9.8 3.7 1.2 5.6.1.5.8.3.7-.2zM63.2 49.9c-.4-1.6-.5-3.2-.4-4.8 0-.5-.7-.5-.8 0-.1 1.7 0 3.4.4 5 .2.5.9.3.8-.2zM64.9 51.8c-.3-1.9-.4-3.9-.3-5.9 0-.5-.7-.5-.8 0 0 2 .1 4 .4 6.1 0 .2.3.3.5.3.1-.1.2-.3.2-.5zM66.6 53.4c-.3-1.8-.3-3.6.1-5.4.1-.5-.6-.7-.7-.2-.4 1.9-.5 3.9-.1 5.8.1.5.8.3.7-.2zM68.2 54.6c-.3-1.7-.1-3.4.4-5.1.1-.5-.6-.7-.7-.2-.6 1.8-.7 3.6-.4 5.5 0 .2.3.3.5.3.1-.1.2-.3.2-.5zM69.6 55.9c0-1.6.3-3.2.8-4.7.2-.5-.6-.6-.7-.2-.6 1.6-.8 3.2-.8 4.9 0 .5.7.5.7 0zM70.8 56.1c.1-1.5.5-3 1.2-4.4.1-.2.1-.4-.1-.5-.2-.1-.4-.1-.5.1-.7 1.5-1.1 3.1-1.3 4.7 0 .6.7.6.7.1zM58.1 49.6c-1-1.3-2.1-2.6-3.1-3.9-.1-.2-.4-.1-.5 0-.2.2-.1.4 0 .5 1 1.3 2.1 2.6 3.1 3.9.1.2.4.1.5 0 .2-.2.1-.4 0-.5zM57.6 52.2c-.8-.8-1.6-1.6-2.2-2.5-.1-.2-.3-.2-.5-.1s-.3.3-.1.5c.7 1 1.5 1.9 2.3 2.7.1.1.4.1.5 0 .1-.2.2-.5 0-.6zM57.6 55c-.8-.9-1.5-1.8-2.3-2.6-.1-.2-.4-.1-.5 0-.2.2-.1.4 0 .5.8.9 1.5 1.8 2.3 2.6.1.2.4.1.5 0 .1-.1.1-.3 0-.5zM56.9 57.1c-1.3-1-2.4-2.1-3.5-3.3-.3-.4-.9.2-.5.5 1.1 1.2 2.3 2.3 3.5 3.3.2.1.4.2.5 0 .1-.1.2-.4 0-.5zM137.3 52.7c.7-1.9 1.1-3.9 1.2-5.9 0-.5-.7-.5-.8 0-.1 1.9-.5 3.9-1.2 5.7-.1.5.6.7.8.2zM136.1 53c0-1.8.1-3.5.1-5.3 0-.5-.7-.5-.8 0 0 1.8-.1 3.5-.1 5.3 0 .4.8.4.8 0zM134.6 53.7c.1-2 0-4.1-.3-6.1-.1-.5-.8-.3-.7.2.3 1.9.4 3.9.3 5.9-.1.5.7.4.7 0zM133.1 55.1c0-2-.2-4-.4-6 0-.2-.2-.4-.4-.4s-.4.2-.4.4c.3 2 .4 4 .4 6 0 .5.8.5.8 0zM131.9 57c-.2-2.4-.5-4.7-.9-7.1-.1-.5-.8-.3-.7.2.4 2.3.7 4.6.9 6.9 0 .5.7.5.7 0zM130.8 58.5c-.4-2.6-.9-5.1-1.3-7.7-.1-.5-.8-.3-.7.2.4 2.6.9 5.1 1.3 7.7 0 .4.7.2.7-.2zM129.5 59l-1.2-6.3c-.1-.5-.8-.3-.7.2l1.2 6.3c.1.5.8.3.7-.2zM127.7 59.4c-.6-2-1.1-4-1.4-6-.1-.5-.8-.3-.7.2.4 2 .8 4 1.4 6 .2.4.9.2.7-.2zM125.4 58.4c-.7-1.1-.9-2.4-.8-3.7 0-.2-.2-.4-.4-.4s-.3.2-.4.4c-.2 1.4.1 2.9.9 4.1.3.4 1 0 .7-.4zM138.4 54.6c.4-.8.8-1.5 1.2-2.3.1-.2 0-.4-.1-.5-.2-.1-.4 0-.5.1-.4.8-.8 1.5-1.2 2.3-.1.2 0 .4.1.5.2.1.4 0 .5-.1zM138.1 57.3c.5-1.1 1.3-1.9 2.3-2.6.2-.1.2-.3.1-.5s-.3-.2-.5-.1c-1.1.7-2 1.7-2.5 2.8-.1.2 0 .4.1.5.2.1.4.1.5-.1zM137.9 61.1c.3-1.3 1.2-2.4 2.3-3 .4-.2 0-.9-.4-.6-1.3.8-2.3 2-2.7 3.5-.1.4.7.6.8.1zM137.9 64c.7-1.2 1.6-2.4 2.6-3.4.3-.4-.2-.9-.5-.5-1 1.1-1.9 2.3-2.7 3.6-.3.4.4.7.6.3zM72.2 55.9c.2-1 .6-2 1-2.9.1-.2 0-.4-.1-.5-.2-.1-.4 0-.5.1-.5 1-.8 2-1.1 3.1-.1.4.6.6.7.2z" />
	</g>
	<g>
		<path class="the_godfather_2"
			d="M121.9 108.9c-3.5-1.7-5.9-5.7-5.4-9.7.1-.5.3-1.7 1-1.1.6.5.9 1.2 1.5 1.7.3.3.7.6 1.1.6.5 0 .9-.4 1.2-.7.3-.4.5-.9.6-1.3l.3-.6c.1-.3.1.4.1-.2 0 .5.6 1 1.1.6.5-.3.9-.7 1.4-1-.3 0-.6-.1-.9-.1.6.5 1 1.1 1.4 1.9.2.5 1 .5 1.3 0 .1-.2.7-1.1 1-1 .3.1.4 1.6.4 1.9.2 1.5.4 3.1 0 4.6-.5 2.1-2.7 4.6-5.1 3.6-.9-.4-1.6.9-.8 1.3 1.6.7 3.4.4 4.8-.6 1.6-1.1 2.4-2.8 2.6-4.7.1-1.1.1-2.2 0-3.3-.1-1-.2-2.1-.5-3-.3-.8-1.1-1.3-1.9-1-.8.2-1.5 1-1.9 1.7h1.3c-.4-.8-.9-1.6-1.6-2.2-.2-.2-.6-.3-.9-.1-.5.3-.9.7-1.4 1 .4.2.8.4 1.1.6-.1-1.1-1.2-1.6-2.1-1.2-.5.2-.8.7-1 1.2-.2.4-.3 1.3-.8 1.4.2 0 .4.1.6.1-1.3-.7-1.6-2.7-3.4-2.6-2.1.1-2.2 2.9-2.1 4.4.2 3.9 2.6 7.6 6.1 9.3 1.1.2 1.8-1.1.9-1.5z" />
	</g>
</svg>