<?xml version="1.0" standalone="no"?>
<svg xmlns="http://www.w3.org/2000/svg" width="500" height="500">
  <defs>
    <clipPath id="clip-path-dot-color">
      <path d="M 9 139v 6.5a 6.5 6.5, 0, 0, 0, 6.5 6.5h 6.5v -6.5a 6.5 6.5, 0, 0, 0, -6.5 -6.5"
        transform="rotate(90,15.5,145.5)" />
      <path d="M 9 165v 6.5a 6.5 6.5, 0, 0, 0, 6.5 6.5h 6.5v -6.5a 6.5 6.5, 0, 0, 0, -6.5 -6.5"
        transform="rotate(90,15.5,171.5)" />
      <path d="M 9 204v 13h 13a 13 13, 0, 0, 0, -13 -13" transform="rotate(-90,15.5,210.5)" />
      <rect x="9" y="217" width="13" height="13" transform="rotate(0,15.5,223.5)" />
      <path d="M 9 230v 13h 13a 13 13, 0, 0, 0, -13 -13" transform="rotate(90,15.5,236.5)" />
      <path d="M 9 269v 13h 13a 13 13, 0, 0, 0, -13 -13" transform="rotate(-90,15.5,275.5)" />
      <path d="M 9 308v 13h 13a 13 13, 0, 0, 0, -13 -13" transform="rotate(-90,15.5,314.5)" />
      <path d="M 9 321v 13h 13a 13 13, 0, 0, 0, -13 -13" transform="rotate(90,15.5,327.5)" />
      <path d="M 9 360v 13h 13a 13 13, 0, 0, 0, -13 -13" transform="rotate(-90,15.5,366.5)" />
      <path d="M 22 113v 6.5a 6.5 6.5, 0, 0, 0, 6.5 6.5h 6.5v -6.5a 6.5 6.5, 0, 0, 0, -6.5 -6.5"
        transform="rotate(90,28.5,119.5)" />
      <rect x="22" y="204" width="13" height="13" transform="rotate(0,28.5,210.5)" />
      <path d="M 22 217v 13h 13a 13 13, 0, 0, 0, -13 -13" transform="rotate(90,28.5,223.5)" />
      <rect x="22" y="269" width="13" height="13" transform="rotate(0,28.5,275.5)" />
      <path d="M 22 347v 13h 13a 13 13, 0, 0, 0, -13 -13" transform="rotate(-90,28.5,353.5)" />
      <rect x="22" y="360" width="13" height="13" transform="rotate(0,28.5,366.5)" />
      <path d="M 22 373v 13h 13a 13 13, 0, 0, 0, -13 -13" transform="rotate(90,28.5,379.5)" />
      <path d="M 35 152v 6.5a 6.5 6.5, 0, 0, 0, 6.5 6.5h 6.5v -6.5a 6.5 6.5, 0, 0, 0, -6.5 -6.5"
        transform="rotate(90,41.5,158.5)" />
      <rect x="35" y="269" width="13" height="13" transform="rotate(0,41.5,275.5)" />
      <path d="M 35 321v 13h 13a 13 13, 0, 0, 0, -13 -13" transform="rotate(-90,41.5,327.5)" />
      <rect x="35" y="347" width="13" height="13" transform="rotate(0,41.5,353.5)" />
      <path d="M 35 360v 13h 13a 13 13, 0, 0, 0, -13 -13" transform="rotate(90,41.5,366.5)" />
      <path d="M 48 113v 13h 13a 13 13, 0, 0, 0, -13 -13" transform="rotate(-90,54.5,119.5)" />
      <rect x="48" y="126" width="13" height="13" transform="rotate(0,54.5,132.5)" />
      <path d="M 48 139v 13h 13a 13 13, 0, 0, 0, -13 -13" transform="rotate(90,54.5,145.5)" />
      <path d="M 48 165v 13h 13a 13 13, 0, 0, 0, -13 -13" transform="rotate(-90,54.5,171.5)" />
      <rect x="48" y="178" width="13" height="13" transform="rotate(0,54.5,184.5)" />
      <path d="M 48 217v 13h 13a 13 13, 0, 0, 0, -13 -13" transform="rotate(-90,54.5,223.5)" />
      <rect x="48" y="230" width="13" height="13" transform="rotate(0,54.5,236.5)" />
      <rect x="48" y="243" width="13" height="13" transform="rotate(0,54.5,249.5)" />
      <rect x="48" y="269" width="13" height="13" transform="rotate(0,54.5,275.5)" />
      <rect x="48" y="282" width="13" height="13" transform="rotate(0,54.5,288.5)" />
      <path d="M 48 295v 13h 13a 13 13, 0, 0, 0, -13 -13" transform="rotate(90,54.5,301.5)" />
      <rect x="48" y="321" width="13" height="13" transform="rotate(0,54.5,327.5)" />
      <rect x="48" y="347" width="13" height="13" transform="rotate(0,54.5,353.5)" />
      <path d="M 61 113v 13h 13a 13 13, 0, 0, 0, -13 -13" transform="rotate(90,67.5,119.5)" />
      <path d="M 61 152v 6.5a 6.5 6.5, 0, 0, 0, 6.5 6.5h 6.5v -6.5a 6.5 6.5, 0, 0, 0, -6.5 -6.5"
        transform="rotate(90,67.5,158.5)" />
      <rect x="61" y="178" width="13" height="13" transform="rotate(0,67.5,184.5)" />
      <path d="M 61 204v 6.5a 6.5 6.5, 0, 0, 0, 6.5 6.5h 6.5v -6.5a 6.5 6.5, 0, 0, 0, -6.5 -6.5"
        transform="rotate(90,67.5,210.5)" />
      <rect x="61" y="243" width="13" height="13" transform="rotate(0,67.5,249.5)" />
      <rect x="61" y="256" width="13" height="13" transform="rotate(0,67.5,262.5)" />
      <rect x="61" y="269" width="13" height="13" transform="rotate(0,67.5,275.5)" />
      <rect x="61" y="282" width="13" height="13" transform="rotate(0,67.5,288.5)" />
      <path d="M 61 308v 13h 13a 13 13, 0, 0, 0, -13 -13" transform="rotate(-90,67.5,314.5)" />
      <path d="M 61 321v 13h 13a 13 13, 0, 0, 0, -13 -13" transform="rotate(90,67.5,327.5)" />
      <path d="M 61 347v 13h 13a 13 13, 0, 0, 0, -13 -13" transform="rotate(90,67.5,353.5)" />
      <path d="M 61 373v 6.5a 6.5 6.5, 0, 0, 0, 6.5 6.5h 6.5v -6.5a 6.5 6.5, 0, 0, 0, -6.5 -6.5"
        transform="rotate(90,67.5,379.5)" />
      <rect x="74" y="178" width="13" height="13" transform="rotate(0,80.5,184.5)" />
      <rect x="74" y="191" width="13" height="13" transform="rotate(0,80.5,197.5)" />
      <rect x="74" y="243" width="13" height="13" transform="rotate(0,80.5,249.5)" />
      <path d="M 74 282v 13h 13a 13 13, 0, 0, 0, -13 -13" transform="rotate(90,80.5,288.5)" />
      <path d="M 87 113v 13h 13a 13 13, 0, 0, 0, -13 -13" transform="rotate(-90,93.5,119.5)" />
      <path d="M 87 139v 6.5a 6.5 6.5, 0, 0, 0, 6.5 6.5h 6.5v -6.5a 6.5 6.5, 0, 0, 0, -6.5 -6.5"
        transform="rotate(90,93.5,145.5)" />
      <path d="M 87 165v 13h 13a 13 13, 0, 0, 0, -13 -13" transform="rotate(-90,93.5,171.5)" />
      <rect x="87" y="191" width="13" height="13" transform="rotate(0,93.5,197.5)" />
      <path d="M 87 217v 13h 13a 13 13, 0, 0, 0, -13 -13" transform="rotate(-90,93.5,223.5)" />
      <rect x="87" y="243" width="13" height="13" transform="rotate(0,93.5,249.5)" />
      <path d="M 87 269v 13h 13a 13 13, 0, 0, 0, -13 -13" transform="rotate(-90,93.5,275.5)" />
      <path d="M 87 295v 6.5a 6.5 6.5, 0, 0, 0, 6.5 6.5h 6.5v -6.5a 6.5 6.5, 0, 0, 0, -6.5 -6.5"
        transform="rotate(90,93.5,301.5)" />
      <path d="M 87 321v 13h 13a 13 13, 0, 0, 0, -13 -13" transform="rotate(-90,93.5,327.5)" />
      <path d="M 87 347v 6.5a 6.5 6.5, 0, 0, 0, 6.5 6.5h 6.5v -6.5a 6.5 6.5, 0, 0, 0, -6.5 -6.5"
        transform="rotate(90,93.5,353.5)" />
      <path d="M 87 373v 13h 13a 13 13, 0, 0, 0, -13 -13" transform="rotate(-90,93.5,379.5)" />
      <rect x="100" y="113" width="13" height="13" transform="rotate(0,106.5,119.5)" />
      <path d="M 100 152v 13h 13a 13 13, 0, 0, 0, -13 -13" transform="rotate(-90,106.5,158.5)" />
      <rect x="100" y="165" width="13" height="13" transform="rotate(0,106.5,171.5)" />
      <rect x="100" y="191" width="13" height="13" transform="rotate(0,106.5,197.5)" />
      <path d="M 100 217v 13h 13a 13 13, 0, 0, 0, -13 -13" transform="rotate(90,106.5,223.5)" />
      <rect x="100" y="243" width="13" height="13" transform="rotate(0,106.5,249.5)" />
      <rect x="100" y="269" width="13" height="13" transform="rotate(0,106.5,275.5)" />
      <rect x="100" y="282" width="13" height="13" transform="rotate(0,106.5,288.5)" />
      <path d="M 100 308v 13h 13a 13 13, 0, 0, 0, -13 -13" transform="rotate(-90,106.5,314.5)" />
      <rect x="100" y="321" width="13" height="13" transform="rotate(0,106.5,327.5)" />
      <rect x="100" y="334" width="13" height="13" transform="rotate(0,106.5,340.5)" />
      <path d="M 100 360v 13h 13a 13 13, 0, 0, 0, -13 -13" transform="rotate(-90,106.5,366.5)" />
      <rect x="100" y="373" width="13" height="13" transform="rotate(0,106.5,379.5)" />
      <path d="M 113 22v 13h 13a 13 13, 0, 0, 0, -13 -13" transform="rotate(-90,119.5,28.5)" />
      <path d="M 113 48v 13h 13a 13 13, 0, 0, 0, -13 -13" transform="rotate(-90,119.5,54.5)" />
      <rect x="113" y="61" width="13" height="13" transform="rotate(0,119.5,67.5)" />
      <rect x="113" y="74" width="13" height="13" transform="rotate(0,119.5,80.5)" />
      <path d="M 113 87v 13h 13a 13 13, 0, 0, 0, -13 -13" transform="rotate(90,119.5,93.5)" />
      <rect x="113" y="113" width="13" height="13" transform="rotate(0,119.5,119.5)" />
      <path d="M 113 139v 6.5a 6.5 6.5, 0, 0, 0, 6.5 6.5h 6.5v -6.5a 6.5 6.5, 0, 0, 0, -6.5 -6.5"
        transform="rotate(90,119.5,145.5)" />
      <rect x="113" y="165" width="13" height="13" transform="rotate(0,119.5,171.5)" />
      <rect x="113" y="191" width="13" height="13" transform="rotate(0,119.5,197.5)" />
      <rect x="113" y="204" width="13" height="13" transform="rotate(0,119.5,210.5)" />
      <rect x="113" y="243" width="13" height="13" transform="rotate(0,119.5,249.5)" />
      <rect x="113" y="256" width="13" height="13" transform="rotate(0,119.5,262.5)" />
      <rect x="113" y="282" width="13" height="13" transform="rotate(0,119.5,288.5)" />
      <rect x="113" y="295" width="13" height="13" transform="rotate(0,119.5,301.5)" />
      <rect x="113" y="308" width="13" height="13" transform="rotate(0,119.5,314.5)" />
      <rect x="113" y="321" width="13" height="13" transform="rotate(0,119.5,327.5)" />
      <rect x="113" y="334" width="13" height="13" transform="rotate(0,119.5,340.5)" />
      <rect x="113" y="360" width="13" height="13" transform="rotate(0,119.5,366.5)" />
      <rect x="113" y="373" width="13" height="13" transform="rotate(0,119.5,379.5)" />
      <rect x="113" y="386" width="13" height="13" transform="rotate(0,119.5,392.5)" />
      <rect x="113" y="399" width="13" height="13" transform="rotate(0,119.5,405.5)" />
      <path d="M 113 425v 13h 13a 13 13, 0, 0, 0, -13 -13" transform="rotate(-90,119.5,431.5)" />
      <path d="M 113 438v 13h 13a 13 13, 0, 0, 0, -13 -13" transform="rotate(90,119.5,444.5)" />
      <path d="M 113 464v 6.5a 6.5 6.5, 0, 0, 0, 6.5 6.5h 6.5v -6.5a 6.5 6.5, 0, 0, 0, -6.5 -6.5"
        transform="rotate(90,119.5,470.5)" />
      <rect x="126" y="22" width="13" height="13" transform="rotate(0,132.5,28.5)" />
      <rect x="126" y="35" width="13" height="13" transform="rotate(0,132.5,41.5)" />
      <rect x="126" y="61" width="13" height="13" transform="rotate(0,132.5,67.5)" />
      <rect x="126" y="74" width="13" height="13" transform="rotate(0,132.5,80.5)" />
      <path d="M 126 100v 13h 13a 13 13, 0, 0, 0, -13 -13" transform="rotate(-90,132.5,106.5)" />
      <rect x="126" y="113" width="13" height="13" transform="rotate(0,132.5,119.5)" />
      <rect x="126" y="126" width="13" height="13" transform="rotate(0,132.5,132.5)" />
      <path d="M 126 152v 13h 13a 13 13, 0, 0, 0, -13 -13" transform="rotate(-90,132.5,158.5)" />
      <rect x="126" y="165" width="13" height="13" transform="rotate(0,132.5,171.5)" />
      <rect x="126" y="191" width="13" height="13" transform="rotate(0,132.5,197.5)" />
      <rect x="126" y="204" width="13" height="13" transform="rotate(0,132.5,210.5)" />
      <rect x="126" y="217" width="13" height="13" transform="rotate(0,132.5,223.5)" />
      <rect x="126" y="230" width="13" height="13" transform="rotate(0,132.5,236.5)" />
      <rect x="126" y="256" width="13" height="13" transform="rotate(0,132.5,262.5)" />
      <rect x="126" y="282" width="13" height="13" transform="rotate(0,132.5,288.5)" />
      <rect x="126" y="295" width="13" height="13" transform="rotate(0,132.5,301.5)" />
      <rect x="126" y="308" width="13" height="13" transform="rotate(0,132.5,314.5)" />
      <path d="M 126 334v 13h 13a 13 13, 0, 0, 0, -13 -13" transform="rotate(90,132.5,340.5)" />
      <path d="M 126 399v 13h 13a 13 13, 0, 0, 0, -13 -13" transform="rotate(90,132.5,405.5)" />
      <rect x="126" y="425" width="13" height="13" transform="rotate(0,132.5,431.5)" />
      <path d="M 126 477v 13h 13a 13 13, 0, 0, 0, -13 -13" transform="rotate(-90,132.5,483.5)" />
      <path d="M 139 35v 13h 13a 13 13, 0, 0, 0, -13 -13" transform="rotate(90,145.5,41.5)" />
      <rect x="139" y="61" width="13" height="13" transform="rotate(0,145.5,67.5)" />
      <rect x="139" y="74" width="13" height="13" transform="rotate(0,145.5,80.5)" />
      <path d="M 139 87v 13h 13a 13 13, 0, 0, 0, -13 -13" transform="rotate(90,145.5,93.5)" />
      <rect x="139" y="126" width="13" height="13" transform="rotate(0,145.5,132.5)" />
      <rect x="139" y="139" width="13" height="13" transform="rotate(0,145.5,145.5)" />
      <path d="M 139 165v 13h 13a 13 13, 0, 0, 0, -13 -13" transform="rotate(90,145.5,171.5)" />
      <rect x="139" y="204" width="13" height="13" transform="rotate(0,145.5,210.5)" />
      <rect x="139" y="217" width="13" height="13" transform="rotate(0,145.5,223.5)" />
      <rect x="139" y="230" width="13" height="13" transform="rotate(0,145.5,236.5)" />
      <rect x="139" y="243" width="13" height="13" transform="rotate(0,145.5,249.5)" />
      <path d="M 139 256v 13h 13a 13 13, 0, 0, 0, -13 -13" transform="rotate(90,145.5,262.5)" />
      <path d="M 139 308v 13h 13a 13 13, 0, 0, 0, -13 -13" transform="rotate(90,145.5,314.5)" />
      <path d="M 139 347v 13h 13a 13 13, 0, 0, 0, -13 -13" transform="rotate(-90,145.5,353.5)" />
      <path d="M 139 425v 13h 13a 13 13, 0, 0, 0, -13 -13" transform="rotate(90,145.5,431.5)" />
      <path d="M 139 451v 13h 13a 13 13, 0, 0, 0, -13 -13" transform="rotate(-90,145.5,457.5)" />
      <rect x="139" y="464" width="13" height="13" transform="rotate(0,145.5,470.5)" />
      <path d="M 139 477v 13h 13a 13 13, 0, 0, 0, -13 -13" transform="rotate(90,145.5,483.5)" />
      <path d="M 152 22v 13h 13a 13 13, 0, 0, 0, -13 -13" transform="rotate(-90,158.5,28.5)" />
      <path d="M 152 74v 13h 13a 13 13, 0, 0, 0, -13 -13" transform="rotate(90,158.5,80.5)" />
      <path d="M 152 100v 13h 13a 13 13, 0, 0, 0, -13 -13" transform="rotate(-90,158.5,106.5)" />
      <rect x="152" y="113" width="13" height="13" transform="rotate(0,158.5,119.5)" />
      <rect x="152" y="139" width="13" height="13" transform="rotate(0,158.5,145.5)" />
      <path d="M 152 178v 13h 13a 13 13, 0, 0, 0, -13 -13" transform="rotate(-90,158.5,184.5)" />
      <rect x="152" y="204" width="13" height="13" transform="rotate(0,158.5,210.5)" />
      <path d="M 152 269v 6.5a 6.5 6.5, 0, 0, 0, 6.5 6.5h 6.5v -6.5a 6.5 6.5, 0, 0, 0, -6.5 -6.5"
        transform="rotate(90,158.5,275.5)" />
      <path d="M 152 321v 13h 13a 13 13, 0, 0, 0, -13 -13" transform="rotate(-90,158.5,327.5)" />
      <rect x="152" y="347" width="13" height="13" transform="rotate(0,158.5,353.5)" />
      <path d="M 152 360v 13h 13a 13 13, 0, 0, 0, -13 -13" transform="rotate(90,158.5,366.5)" />
      <path d="M 152 386v 13h 13a 13 13, 0, 0, 0, -13 -13" transform="rotate(-90,158.5,392.5)" />
      <rect x="152" y="399" width="13" height="13" transform="rotate(0,158.5,405.5)" />
      <path d="M 152 438v 13h 13a 13 13, 0, 0, 0, -13 -13" transform="rotate(-90,158.5,444.5)" />
      <rect x="152" y="451" width="13" height="13" transform="rotate(0,158.5,457.5)" />
      <rect x="152" y="464" width="13" height="13" transform="rotate(0,158.5,470.5)" />
      <path d="M 165 9v 13h 13a 13 13, 0, 0, 0, -13 -13" transform="rotate(-90,171.5,15.5)" />
      <path d="M 165 22v 13h 13a 13 13, 0, 0, 0, -13 -13" transform="rotate(90,171.5,28.5)" />
      <path d="M 165 87v 13h 13a 13 13, 0, 0, 0, -13 -13" transform="rotate(-90,171.5,93.5)" />
      <rect x="165" y="100" width="13" height="13" transform="rotate(0,171.5,106.5)" />
      <rect x="165" y="113" width="13" height="13" transform="rotate(0,171.5,119.5)" />
      <path d="M 165 139v 13h 13a 13 13, 0, 0, 0, -13 -13" transform="rotate(90,171.5,145.5)" />
      <path d="M 165 165v 13h 13a 13 13, 0, 0, 0, -13 -13" transform="rotate(-90,171.5,171.5)" />
      <rect x="165" y="178" width="13" height="13" transform="rotate(0,171.5,184.5)" />
      <rect x="165" y="191" width="13" height="13" transform="rotate(0,171.5,197.5)" />
      <rect x="165" y="204" width="13" height="13" transform="rotate(0,171.5,210.5)" />
      <path d="M 165 217v 13h 13a 13 13, 0, 0, 0, -13 -13" transform="rotate(90,171.5,223.5)" />
      <path d="M 165 256v 13h 13a 13 13, 0, 0, 0, -13 -13" transform="rotate(-90,171.5,262.5)" />
      <rect x="165" y="321" width="13" height="13" transform="rotate(0,171.5,327.5)" />
      <path d="M 165 347v 13h 13a 13 13, 0, 0, 0, -13 -13" transform="rotate(90,171.5,353.5)" />
      <path d="M 165 373v 6.5a 6.5 6.5, 0, 0, 0, 6.5 6.5h 6.5v -6.5a 6.5 6.5, 0, 0, 0, -6.5 -6.5"
        transform="rotate(90,171.5,379.5)" />
      <path d="M 165 399v 13h 13a 13 13, 0, 0, 0, -13 -13" transform="rotate(90,171.5,405.5)" />
      <path d="M 165 425v 6.5a 6.5 6.5, 0, 0, 0, 6.5 6.5h 6.5v -6.5a 6.5 6.5, 0, 0, 0, -6.5 -6.5"
        transform="rotate(90,171.5,431.5)" />
      <rect x="165" y="451" width="13" height="13" transform="rotate(0,171.5,457.5)" />
      <rect x="165" y="464" width="13" height="13" transform="rotate(0,171.5,470.5)" />
      <rect x="165" y="477" width="13" height="13" transform="rotate(0,171.5,483.5)" />
      <path d="M 178 9v 13h 13a 13 13, 0, 0, 0, -13 -13" transform="rotate(90,184.5,15.5)" />
      <path d="M 178 35v 13h 13a 13 13, 0, 0, 0, -13 -13" transform="rotate(-90,184.5,41.5)" />
      <rect x="178" y="48" width="13" height="13" transform="rotate(0,184.5,54.5)" />
      <rect x="178" y="61" width="13" height="13" transform="rotate(0,184.5,67.5)" />
      <path d="M 178 74v 13h 13a 13 13, 0, 0, 0, -13 -13" transform="rotate(90,184.5,80.5)" />
      <rect x="178" y="113" width="13" height="13" transform="rotate(0,184.5,119.5)" />
      <path d="M 178 126v 13h 13a 13 13, 0, 0, 0, -13 -13" transform="rotate(90,184.5,132.5)" />
      <path d="M 178 152v 13h 13a 13 13, 0, 0, 0, -13 -13" transform="rotate(-90,184.5,158.5)" />
      <rect x="178" y="178" width="13" height="13" transform="rotate(0,184.5,184.5)" />
      <path d="M 178 191v 13h 13a 13 13, 0, 0, 0, -13 -13" transform="rotate(90,184.5,197.5)" />
      <rect x="178" y="256" width="13" height="13" transform="rotate(0,184.5,262.5)" />
      <path d="M 178 282v 13h 13a 13 13, 0, 0, 0, -13 -13" transform="rotate(-90,184.5,288.5)" />
      <rect x="178" y="295" width="13" height="13" transform="rotate(0,184.5,301.5)" />
      <rect x="178" y="308" width="13" height="13" transform="rotate(0,184.5,314.5)" />
      <rect x="178" y="321" width="13" height="13" transform="rotate(0,184.5,327.5)" />
      <rect x="178" y="334" width="13" height="13" transform="rotate(0,184.5,340.5)" />
      <path d="M 178 438v 13h 13a 13 13, 0, 0, 0, -13 -13" transform="rotate(-90,184.5,444.5)" />
      <rect x="178" y="451" width="13" height="13" transform="rotate(0,184.5,457.5)" />
      <rect x="178" y="464" width="13" height="13" transform="rotate(0,184.5,470.5)" />
      <rect x="178" y="477" width="13" height="13" transform="rotate(0,184.5,483.5)" />
      <path d="M 191 22v 13h 13a 13 13, 0, 0, 0, -13 -13" transform="rotate(-90,197.5,28.5)" />
      <rect x="191" y="35" width="13" height="13" transform="rotate(0,197.5,41.5)" />
      <path d="M 191 61v 13h 13a 13 13, 0, 0, 0, -13 -13" transform="rotate(90,197.5,67.5)" />
      <path d="M 191 87v 6.5a 6.5 6.5, 0, 0, 0, 6.5 6.5h 6.5v -6.5a 6.5 6.5, 0, 0, 0, -6.5 -6.5"
        transform="rotate(90,197.5,93.5)" />
      <rect x="191" y="152" width="13" height="13" transform="rotate(0,197.5,158.5)" />
      <path d="M 191 165v 13h 13a 13 13, 0, 0, 0, -13 -13" transform="rotate(90,197.5,171.5)" />
      <path d="M 191 204v 6.5a 6.5 6.5, 0, 0, 0, 6.5 6.5h 6.5v -6.5a 6.5 6.5, 0, 0, 0, -6.5 -6.5"
        transform="rotate(90,197.5,210.5)" />
      <path d="M 191 230v 6.5a 6.5 6.5, 0, 0, 0, 6.5 6.5h 6.5v -6.5a 6.5 6.5, 0, 0, 0, -6.5 -6.5"
        transform="rotate(90,197.5,236.5)" />
      <path d="M 191 256v 13h 13a 13 13, 0, 0, 0, -13 -13" transform="rotate(90,197.5,262.5)" />
      <rect x="191" y="334" width="13" height="13" transform="rotate(0,197.5,340.5)" />
      <rect x="191" y="347" width="13" height="13" transform="rotate(0,197.5,353.5)" />
      <rect x="191" y="360" width="13" height="13" transform="rotate(0,197.5,366.5)" />
      <rect x="191" y="373" width="13" height="13" transform="rotate(0,197.5,379.5)" />
      <path d="M 191 412v 13h 13a 13 13, 0, 0, 0, -13 -13" transform="rotate(-90,197.5,418.5)" />
      <rect x="191" y="464" width="13" height="13" transform="rotate(0,197.5,470.5)" />
      <path d="M 191 477v 13h 13a 13 13, 0, 0, 0, -13 -13" transform="rotate(90,197.5,483.5)" />
      <path d="M 204 9v 13h 13a 13 13, 0, 0, 0, -13 -13" transform="rotate(-90,210.5,15.5)" />
      <rect x="204" y="22" width="13" height="13" transform="rotate(0,210.5,28.5)" />
      <rect x="204" y="35" width="13" height="13" transform="rotate(0,210.5,41.5)" />
      <path d="M 204 74v 13h 13a 13 13, 0, 0, 0, -13 -13" transform="rotate(-90,210.5,80.5)" />
      <path d="M 204 100v 6.5a 6.5 6.5, 0, 0, 0, 6.5 6.5h 6.5v -6.5a 6.5 6.5, 0, 0, 0, -6.5 -6.5"
        transform="rotate(90,210.5,106.5)" />
      <path d="M 204 139v 13h 13a 13 13, 0, 0, 0, -13 -13" transform="rotate(-90,210.5,145.5)" />
      <path d="M 204 152v 13h 13a 13 13, 0, 0, 0, -13 -13" transform="rotate(90,210.5,158.5)" />
      <path d="M 204 178v 13h 13a 13 13, 0, 0, 0, -13 -13" transform="rotate(-90,210.5,184.5)" />
      <path d="M 204 217v 6.5a 6.5 6.5, 0, 0, 0, 6.5 6.5h 6.5v -6.5a 6.5 6.5, 0, 0, 0, -6.5 -6.5"
        transform="rotate(90,210.5,223.5)" />
      <path d="M 204 282v 13h 13a 13 13, 0, 0, 0, -13 -13" transform="rotate(-90,210.5,288.5)" />
      <rect x="204" y="295" width="13" height="13" transform="rotate(0,210.5,301.5)" />
      <rect x="204" y="334" width="13" height="13" transform="rotate(0,210.5,340.5)" />
      <rect x="204" y="360" width="13" height="13" transform="rotate(0,210.5,366.5)" />
      <path d="M 204 373v 13h 13a 13 13, 0, 0, 0, -13 -13" transform="rotate(90,210.5,379.5)" />
      <path d="M 204 399v 13h 13a 13 13, 0, 0, 0, -13 -13" transform="rotate(-90,210.5,405.5)" />
      <rect x="204" y="412" width="13" height="13" transform="rotate(0,210.5,418.5)" />
      <rect x="204" y="425" width="13" height="13" transform="rotate(0,210.5,431.5)" />
      <rect x="217" y="9" width="13" height="13" transform="rotate(0,223.5,15.5)" />
      <rect x="217" y="22" width="13" height="13" transform="rotate(0,223.5,28.5)" />
      <path d="M 217 35v 13h 13a 13 13, 0, 0, 0, -13 -13" transform="rotate(90,223.5,41.5)" />
      <path d="M 217 61v 13h 13a 13 13, 0, 0, 0, -13 -13" transform="rotate(-90,223.5,67.5)" />
      <rect x="217" y="74" width="13" height="13" transform="rotate(0,223.5,80.5)" />
      <path d="M 217 87v 13h 13a 13 13, 0, 0, 0, -13 -13" transform="rotate(90,223.5,93.5)" />
      <path d="M 217 113v 6.5a 6.5 6.5, 0, 0, 0, 6.5 6.5h 6.5v -6.5a 6.5 6.5, 0, 0, 0, -6.5 -6.5"
        transform="rotate(90,223.5,119.5)" />
      <rect x="217" y="139" width="13" height="13" transform="rotate(0,223.5,145.5)" />
      <path d="M 217 178v 13h 13a 13 13, 0, 0, 0, -13 -13" transform="rotate(90,223.5,184.5)" />
      <path d="M 217 204v 13h 13a 13 13, 0, 0, 0, -13 -13" transform="rotate(-90,223.5,210.5)" />
      <path d="M 217 243v 13h 13a 13 13, 0, 0, 0, -13 -13" transform="rotate(-90,223.5,249.5)" />
      <rect x="217" y="256" width="13" height="13" transform="rotate(0,223.5,262.5)" />
      <rect x="217" y="269" width="13" height="13" transform="rotate(0,223.5,275.5)" />
      <rect x="217" y="282" width="13" height="13" transform="rotate(0,223.5,288.5)" />
      <rect x="217" y="295" width="13" height="13" transform="rotate(0,223.5,301.5)" />
      <rect x="217" y="308" width="13" height="13" transform="rotate(0,223.5,314.5)" />
      <rect x="217" y="321" width="13" height="13" transform="rotate(0,223.5,327.5)" />
      <rect x="217" y="334" width="13" height="13" transform="rotate(0,223.5,340.5)" />
      <rect x="217" y="347" width="13" height="13" transform="rotate(0,223.5,353.5)" />
      <rect x="217" y="412" width="13" height="13" transform="rotate(0,223.5,418.5)" />
      <rect x="217" y="425" width="13" height="13" transform="rotate(0,223.5,431.5)" />
      <rect x="217" y="438" width="13" height="13" transform="rotate(0,223.5,444.5)" />
      <rect x="217" y="451" width="13" height="13" transform="rotate(0,223.5,457.5)" />
      <rect x="217" y="464" width="13" height="13" transform="rotate(0,223.5,470.5)" />
      <path d="M 230 22v 13h 13a 13 13, 0, 0, 0, -13 -13" transform="rotate(90,236.5,28.5)" />
      <path d="M 230 48v 13h 13a 13 13, 0, 0, 0, -13 -13" transform="rotate(-90,236.5,54.5)" />
      <rect x="230" y="61" width="13" height="13" transform="rotate(0,236.5,67.5)" />
      <path d="M 230 100v 13h 13a 13 13, 0, 0, 0, -13 -13" transform="rotate(-90,236.5,106.5)" />
      <path d="M 230 126v 13h 13a 13 13, 0, 0, 0, -13 -13" transform="rotate(-90,236.5,132.5)" />
      <path d="M 230 139v 13h 13a 13 13, 0, 0, 0, -13 -13" transform="rotate(90,236.5,145.5)" />
      <path d="M 230 165v 13h 13a 13 13, 0, 0, 0, -13 -13" transform="rotate(-90,236.5,171.5)" />
      <rect x="230" y="204" width="13" height="13" transform="rotate(0,236.5,210.5)" />
      <path d="M 230 230v 13h 13a 13 13, 0, 0, 0, -13 -13" transform="rotate(-90,236.5,236.5)" />
      <path d="M 230 243v 13h 13a 13 13, 0, 0, 0, -13 -13" transform="rotate(90,236.5,249.5)" />
      <rect x="230" y="269" width="13" height="13" transform="rotate(0,236.5,275.5)" />
      <rect x="230" y="282" width="13" height="13" transform="rotate(0,236.5,288.5)" />
      <rect x="230" y="295" width="13" height="13" transform="rotate(0,236.5,301.5)" />
      <path d="M 230 308v 13h 13a 13 13, 0, 0, 0, -13 -13" transform="rotate(90,236.5,314.5)" />
      <rect x="230" y="347" width="13" height="13" transform="rotate(0,236.5,353.5)" />
      <rect x="230" y="360" width="13" height="13" transform="rotate(0,236.5,366.5)" />
      <path d="M 230 386v 6.5a 6.5 6.5, 0, 0, 0, 6.5 6.5h 6.5v -6.5a 6.5 6.5, 0, 0, 0, -6.5 -6.5"
        transform="rotate(90,236.5,392.5)" />
      <rect x="230" y="412" width="13" height="13" transform="rotate(0,236.5,418.5)" />
      <rect x="230" y="438" width="13" height="13" transform="rotate(0,236.5,444.5)" />
      <rect x="230" y="451" width="13" height="13" transform="rotate(0,236.5,457.5)" />
      <rect x="230" y="464" width="13" height="13" transform="rotate(0,236.5,470.5)" />
      <rect x="230" y="477" width="13" height="13" transform="rotate(0,236.5,483.5)" />
      <path d="M 243 9v 13h 13a 13 13, 0, 0, 0, -13 -13" transform="rotate(-90,249.5,15.5)" />
      <rect x="243" y="61" width="13" height="13" transform="rotate(0,249.5,67.5)" />
      <rect x="243" y="74" width="13" height="13" transform="rotate(0,249.5,80.5)" />
      <rect x="243" y="87" width="13" height="13" transform="rotate(0,249.5,93.5)" />
      <rect x="243" y="100" width="13" height="13" transform="rotate(0,249.5,106.5)" />
      <path d="M 243 113v 13h 13a 13 13, 0, 0, 0, -13 -13" transform="rotate(90,249.5,119.5)" />
      <path d="M 243 152v 13h 13a 13 13, 0, 0, 0, -13 -13" transform="rotate(-90,249.5,158.5)" />
      <rect x="243" y="165" width="13" height="13" transform="rotate(0,249.5,171.5)" />
      <rect x="243" y="178" width="13" height="13" transform="rotate(0,249.5,184.5)" />
      <rect x="243" y="191" width="13" height="13" transform="rotate(0,249.5,197.5)" />
      <rect x="243" y="204" width="13" height="13" transform="rotate(0,249.5,210.5)" />
      <rect x="243" y="217" width="13" height="13" transform="rotate(0,249.5,223.5)" />
      <path d="M 243 230v 13h 13a 13 13, 0, 0, 0, -13 -13" transform="rotate(90,249.5,236.5)" />
      <path d="M 243 256v 13h 13a 13 13, 0, 0, 0, -13 -13" transform="rotate(-90,249.5,262.5)" />
      <rect x="243" y="282" width="13" height="13" transform="rotate(0,249.5,288.5)" />
      <path d="M 243 295v 13h 13a 13 13, 0, 0, 0, -13 -13" transform="rotate(90,249.5,301.5)" />
      <path d="M 243 321v 13h 13a 13 13, 0, 0, 0, -13 -13" transform="rotate(-90,249.5,327.5)" />
      <rect x="243" y="334" width="13" height="13" transform="rotate(0,249.5,340.5)" />
      <rect x="243" y="347" width="13" height="13" transform="rotate(0,249.5,353.5)" />
      <rect x="243" y="360" width="13" height="13" transform="rotate(0,249.5,366.5)" />
      <path d="M 243 373v 13h 13a 13 13, 0, 0, 0, -13 -13" transform="rotate(90,249.5,379.5)" />
      <rect x="243" y="412" width="13" height="13" transform="rotate(0,249.5,418.5)" />
      <rect x="243" y="425" width="13" height="13" transform="rotate(0,249.5,431.5)" />
      <rect x="243" y="438" width="13" height="13" transform="rotate(0,249.5,444.5)" />
      <rect x="243" y="451" width="13" height="13" transform="rotate(0,249.5,457.5)" />
      <path d="M 243 477v 13h 13a 13 13, 0, 0, 0, -13 -13" transform="rotate(90,249.5,483.5)" />
      <path d="M 256 9v 13h 13a 13 13, 0, 0, 0, -13 -13" transform="rotate(90,262.5,15.5)" />
      <path d="M 256 35v 13h 13a 13 13, 0, 0, 0, -13 -13" transform="rotate(-90,262.5,41.5)" />
      <rect x="256" y="74" width="13" height="13" transform="rotate(0,262.5,80.5)" />
      <path d="M 256 100v 13h 13a 13 13, 0, 0, 0, -13 -13" transform="rotate(90,262.5,106.5)" />
      <path d="M 256 165v 13h 13a 13 13, 0, 0, 0, -13 -13" transform="rotate(90,262.5,171.5)" />
      <rect x="256" y="217" width="13" height="13" transform="rotate(0,262.5,223.5)" />
      <path d="M 256 243v 13h 13a 13 13, 0, 0, 0, -13 -13" transform="rotate(-90,262.5,249.5)" />
      <rect x="256" y="256" width="13" height="13" transform="rotate(0,262.5,262.5)" />
      <path d="M 256 269v 13h 13a 13 13, 0, 0, 0, -13 -13" transform="rotate(90,262.5,275.5)" />
      <path d="M 256 308v 13h 13a 13 13, 0, 0, 0, -13 -13" transform="rotate(-90,262.5,314.5)" />
      <path d="M 256 360v 13h 13a 13 13, 0, 0, 0, -13 -13" transform="rotate(90,262.5,366.5)" />
      <path d="M 256 399v 13h 13a 13 13, 0, 0, 0, -13 -13" transform="rotate(-90,262.5,405.5)" />
      <rect x="256" y="451" width="13" height="13" transform="rotate(0,262.5,457.5)" />
      <path d="M 256 464v 13h 13a 13 13, 0, 0, 0, -13 -13" transform="rotate(90,262.5,470.5)" />
      <rect x="269" y="35" width="13" height="13" transform="rotate(0,275.5,41.5)" />
      <rect x="269" y="48" width="13" height="13" transform="rotate(0,275.5,54.5)" />
      <rect x="269" y="74" width="13" height="13" transform="rotate(0,275.5,80.5)" />
      <path d="M 269 87v 13h 13a 13 13, 0, 0, 0, -13 -13" transform="rotate(90,275.5,93.5)" />
      <path d="M 269 113v 13h 13a 13 13, 0, 0, 0, -13 -13" transform="rotate(-90,275.5,119.5)" />
      <rect x="269" y="126" width="13" height="13" transform="rotate(0,275.5,132.5)" />
      <path d="M 269 139v 13h 13a 13 13, 0, 0, 0, -13 -13" transform="rotate(90,275.5,145.5)" />
      <rect x="269" y="217" width="13" height="13" transform="rotate(0,275.5,223.5)" />
      <rect x="269" y="230" width="13" height="13" transform="rotate(0,275.5,236.5)" />
      <path d="M 269 243v 13h 13a 13 13, 0, 0, 0, -13 -13" transform="rotate(90,275.5,249.5)" />
      <path d="M 269 282v 13h 13a 13 13, 0, 0, 0, -13 -13" transform="rotate(-90,275.5,288.5)" />
      <rect x="269" y="308" width="13" height="13" transform="rotate(0,275.5,314.5)" />
      <rect x="269" y="321" width="13" height="13" transform="rotate(0,275.5,327.5)" />
      <rect x="269" y="334" width="13" height="13" transform="rotate(0,275.5,340.5)" />
      <path d="M 269 386v 13h 13a 13 13, 0, 0, 0, -13 -13" transform="rotate(-90,275.5,392.5)" />
      <rect x="269" y="399" width="13" height="13" transform="rotate(0,275.5,405.5)" />
      <path d="M 269 438v 13h 13a 13 13, 0, 0, 0, -13 -13" transform="rotate(-90,275.5,444.5)" />
      <rect x="269" y="451" width="13" height="13" transform="rotate(0,275.5,457.5)" />
      <path d="M 269 477v 13h 13a 13 13, 0, 0, 0, -13 -13" transform="rotate(-90,275.5,483.5)" />
      <path d="M 282 9v 13h 13a 13 13, 0, 0, 0, -13 -13" transform="rotate(-90,288.5,15.5)" />
      <rect x="282" y="22" width="13" height="13" transform="rotate(0,288.5,28.5)" />
      <rect x="282" y="35" width="13" height="13" transform="rotate(0,288.5,41.5)" />
      <rect x="282" y="48" width="13" height="13" transform="rotate(0,288.5,54.5)" />
      <rect x="282" y="61" width="13" height="13" transform="rotate(0,288.5,67.5)" />
      <rect x="282" y="74" width="13" height="13" transform="rotate(0,288.5,80.5)" />
      <path d="M 282 100v 6.5a 6.5 6.5, 0, 0, 0, 6.5 6.5h 6.5v -6.5a 6.5 6.5, 0, 0, 0, -6.5 -6.5"
        transform="rotate(90,288.5,106.5)" />
      <rect x="282" y="126" width="13" height="13" transform="rotate(0,288.5,132.5)" />
      <path d="M 282 152v 13h 13a 13 13, 0, 0, 0, -13 -13" transform="rotate(-90,288.5,158.5)" />
      <rect x="282" y="165" width="13" height="13" transform="rotate(0,288.5,171.5)" />
      <rect x="282" y="178" width="13" height="13" transform="rotate(0,288.5,184.5)" />
      <path d="M 282 217v 13h 13a 13 13, 0, 0, 0, -13 -13" transform="rotate(90,288.5,223.5)" />
      <path d="M 282 282v 13h 13a 13 13, 0, 0, 0, -13 -13" transform="rotate(90,288.5,288.5)" />
      <rect x="282" y="321" width="13" height="13" transform="rotate(0,288.5,327.5)" />
      <rect x="282" y="334" width="13" height="13" transform="rotate(0,288.5,340.5)" />
      <path d="M 282 360v 13h 13a 13 13, 0, 0, 0, -13 -13" transform="rotate(-90,288.5,366.5)" />
      <path d="M 282 399v 13h 13a 13 13, 0, 0, 0, -13 -13" transform="rotate(90,288.5,405.5)" />
      <rect x="282" y="438" width="13" height="13" transform="rotate(0,288.5,444.5)" />
      <rect x="282" y="451" width="13" height="13" transform="rotate(0,288.5,457.5)" />
      <rect x="282" y="464" width="13" height="13" transform="rotate(0,288.5,470.5)" />
      <path d="M 282 477v 13h 13a 13 13, 0, 0, 0, -13 -13" transform="rotate(90,288.5,483.5)" />
      <path d="M 295 9v 13h 13a 13 13, 0, 0, 0, -13 -13" transform="rotate(90,301.5,15.5)" />
      <path d="M 295 48v 13h 13a 13 13, 0, 0, 0, -13 -13" transform="rotate(90,301.5,54.5)" />
      <rect x="295" y="74" width="13" height="13" transform="rotate(0,301.5,80.5)" />
      <path d="M 295 87v 13h 13a 13 13, 0, 0, 0, -13 -13" transform="rotate(90,301.5,93.5)" />
      <path d="M 295 113v 13h 13a 13 13, 0, 0, 0, -13 -13" transform="rotate(-90,301.5,119.5)" />
      <rect x="295" y="126" width="13" height="13" transform="rotate(0,301.5,132.5)" />
      <rect x="295" y="152" width="13" height="13" transform="rotate(0,301.5,158.5)" />
      <rect x="295" y="178" width="13" height="13" transform="rotate(0,301.5,184.5)" />
      <path d="M 295 230v 13h 13a 13 13, 0, 0, 0, -13 -13" transform="rotate(-90,301.5,236.5)" />
      <path d="M 295 256v 13h 13a 13 13, 0, 0, 0, -13 -13" transform="rotate(-90,301.5,262.5)" />
      <rect x="295" y="269" width="13" height="13" transform="rotate(0,301.5,275.5)" />
      <rect x="295" y="334" width="13" height="13" transform="rotate(0,301.5,340.5)" />
      <path d="M 295 360v 13h 13a 13 13, 0, 0, 0, -13 -13" transform="rotate(90,301.5,366.5)" />
      <path d="M 295 412v 13h 13a 13 13, 0, 0, 0, -13 -13" transform="rotate(-90,301.5,418.5)" />
      <path d="M 295 425v 13h 13a 13 13, 0, 0, 0, -13 -13" transform="rotate(90,301.5,431.5)" />
      <path d="M 295 451v 13h 13a 13 13, 0, 0, 0, -13 -13" transform="rotate(90,301.5,457.5)" />
      <path d="M 308 35v 13h 13a 13 13, 0, 0, 0, -13 -13" transform="rotate(-90,314.5,41.5)" />
      <path d="M 308 61v 13h 13a 13 13, 0, 0, 0, -13 -13" transform="rotate(-90,314.5,67.5)" />
      <rect x="308" y="74" width="13" height="13" transform="rotate(0,314.5,80.5)" />
      <rect x="308" y="126" width="13" height="13" transform="rotate(0,314.5,132.5)" />
      <rect x="308" y="139" width="13" height="13" transform="rotate(0,314.5,145.5)" />
      <rect x="308" y="152" width="13" height="13" transform="rotate(0,314.5,158.5)" />
      <rect x="308" y="165" width="13" height="13" transform="rotate(0,314.5,171.5)" />
      <rect x="308" y="178" width="13" height="13" transform="rotate(0,314.5,184.5)" />
      <rect x="308" y="230" width="13" height="13" transform="rotate(0,314.5,236.5)" />
      <path d="M 308 243v 13h 13a 13 13, 0, 0, 0, -13 -13" transform="rotate(90,314.5,249.5)" />
      <rect x="308" y="269" width="13" height="13" transform="rotate(0,314.5,275.5)" />
      <path d="M 308 282v 13h 13a 13 13, 0, 0, 0, -13 -13" transform="rotate(90,314.5,288.5)" />
      <path d="M 308 308v 13h 13a 13 13, 0, 0, 0, -13 -13" transform="rotate(-90,314.5,314.5)" />
      <rect x="308" y="321" width="13" height="13" transform="rotate(0,314.5,327.5)" />
      <rect x="308" y="334" width="13" height="13" transform="rotate(0,314.5,340.5)" />
      <path d="M 308 386v 6.5a 6.5 6.5, 0, 0, 0, 6.5 6.5h 6.5v -6.5a 6.5 6.5, 0, 0, 0, -6.5 -6.5"
        transform="rotate(90,314.5,392.5)" />
      <path d="M 308 438v 6.5a 6.5 6.5, 0, 0, 0, 6.5 6.5h 6.5v -6.5a 6.5 6.5, 0, 0, 0, -6.5 -6.5"
        transform="rotate(90,314.5,444.5)" />
      <path d="M 308 464v 13h 13a 13 13, 0, 0, 0, -13 -13" transform="rotate(-90,314.5,470.5)" />
      <path d="M 308 477v 13h 13a 13 13, 0, 0, 0, -13 -13" transform="rotate(90,314.5,483.5)" />
      <path d="M 321 9v 13h 13a 13 13, 0, 0, 0, -13 -13" transform="rotate(-90,327.5,15.5)" />
      <rect x="321" y="22" width="13" height="13" transform="rotate(0,327.5,28.5)" />
      <path d="M 321 35v 13h 13a 13 13, 0, 0, 0, -13 -13" transform="rotate(90,327.5,41.5)" />
      <rect x="321" y="61" width="13" height="13" transform="rotate(0,327.5,67.5)" />
      <rect x="321" y="74" width="13" height="13" transform="rotate(0,327.5,80.5)" />
      <path d="M 321 87v 13h 13a 13 13, 0, 0, 0, -13 -13" transform="rotate(90,327.5,93.5)" />
      <path d="M 321 113v 6.5a 6.5 6.5, 0, 0, 0, 6.5 6.5h 6.5v -6.5a 6.5 6.5, 0, 0, 0, -6.5 -6.5"
        transform="rotate(90,327.5,119.5)" />
      <path d="M 321 139v 13h 13a 13 13, 0, 0, 0, -13 -13" transform="rotate(90,327.5,145.5)" />
      <rect x="321" y="178" width="13" height="13" transform="rotate(0,327.5,184.5)" />
      <rect x="321" y="191" width="13" height="13" transform="rotate(0,327.5,197.5)" />
      <rect x="321" y="204" width="13" height="13" transform="rotate(0,327.5,210.5)" />
      <rect x="321" y="217" width="13" height="13" transform="rotate(0,327.5,223.5)" />
      <path d="M 321 256v 6.5a 6.5 6.5, 0, 0, 0, 6.5 6.5h 6.5v -6.5a 6.5 6.5, 0, 0, 0, -6.5 -6.5"
        transform="rotate(90,327.5,262.5)" />
      <path d="M 321 308v 13h 13a 13 13, 0, 0, 0, -13 -13" transform="rotate(90,327.5,314.5)" />
      <rect x="321" y="334" width="13" height="13" transform="rotate(0,327.5,340.5)" />
      <path d="M 321 360v 6.5a 6.5 6.5, 0, 0, 0, 6.5 6.5h 6.5v -6.5a 6.5 6.5, 0, 0, 0, -6.5 -6.5"
        transform="rotate(90,327.5,366.5)" />
      <path d="M 321 412v 13h 13a 13 13, 0, 0, 0, -13 -13" transform="rotate(-90,327.5,418.5)" />
      <rect x="321" y="425" width="13" height="13" transform="rotate(0,327.5,431.5)" />
      <rect x="334" y="9" width="13" height="13" transform="rotate(0,340.5,15.5)" />
      <rect x="334" y="61" width="13" height="13" transform="rotate(0,340.5,67.5)" />
      <path d="M 334 100v 6.5a 6.5 6.5, 0, 0, 0, 6.5 6.5h 6.5v -6.5a 6.5 6.5, 0, 0, 0, -6.5 -6.5"
        transform="rotate(90,340.5,106.5)" />
      <path d="M 334 152v 13h 13a 13 13, 0, 0, 0, -13 -13" transform="rotate(-90,340.5,158.5)" />
      <rect x="334" y="191" width="13" height="13" transform="rotate(0,340.5,197.5)" />
      <rect x="334" y="217" width="13" height="13" transform="rotate(0,340.5,223.5)" />
      <rect x="334" y="230" width="13" height="13" transform="rotate(0,340.5,236.5)" />
      <path d="M 334 282v 6.5a 6.5 6.5, 0, 0, 0, 6.5 6.5h 6.5v -6.5a 6.5 6.5, 0, 0, 0, -6.5 -6.5"
        transform="rotate(90,340.5,288.5)" />
      <path d="M 334 321v 13h 13a 13 13, 0, 0, 0, -13 -13" transform="rotate(-90,340.5,327.5)" />
      <rect x="334" y="334" width="13" height="13" transform="rotate(0,340.5,340.5)" />
      <rect x="334" y="347" width="13" height="13" transform="rotate(0,340.5,353.5)" />
      <path d="M 334 399v 13h 13a 13 13, 0, 0, 0, -13 -13" transform="rotate(-90,340.5,405.5)" />
      <rect x="334" y="412" width="13" height="13" transform="rotate(0,340.5,418.5)" />
      <rect x="334" y="425" width="13" height="13" transform="rotate(0,340.5,431.5)" />
      <path d="M 334 438v 13h 13a 13 13, 0, 0, 0, -13 -13" transform="rotate(90,340.5,444.5)" />
      <rect x="347" y="9" width="13" height="13" transform="rotate(0,353.5,15.5)" />
      <rect x="347" y="22" width="13" height="13" transform="rotate(0,353.5,28.5)" />
      <path d="M 347 35v 13h 13a 13 13, 0, 0, 0, -13 -13" transform="rotate(90,353.5,41.5)" />
      <rect x="347" y="61" width="13" height="13" transform="rotate(0,353.5,67.5)" />
      <path d="M 347 87v 6.5a 6.5 6.5, 0, 0, 0, 6.5 6.5h 6.5v -6.5a 6.5 6.5, 0, 0, 0, -6.5 -6.5"
        transform="rotate(90,353.5,93.5)" />
      <path d="M 347 126v 6.5a 6.5 6.5, 0, 0, 0, 6.5 6.5h 6.5v -6.5a 6.5 6.5, 0, 0, 0, -6.5 -6.5"
        transform="rotate(90,353.5,132.5)" />
      <path d="M 347 152v 13h 13a 13 13, 0, 0, 0, -13 -13" transform="rotate(90,353.5,158.5)" />
      <path d="M 347 178v 13h 13a 13 13, 0, 0, 0, -13 -13" transform="rotate(-90,353.5,184.5)" />
      <rect x="347" y="191" width="13" height="13" transform="rotate(0,353.5,197.5)" />
      <path d="M 347 204v 13h 13a 13 13, 0, 0, 0, -13 -13" transform="rotate(90,353.5,210.5)" />
      <rect x="347" y="230" width="13" height="13" transform="rotate(0,353.5,236.5)" />
      <path d="M 347 256v 6.5a 6.5 6.5, 0, 0, 0, 6.5 6.5h 6.5v -6.5a 6.5 6.5, 0, 0, 0, -6.5 -6.5"
        transform="rotate(90,353.5,262.5)" />
      <path d="M 347 295v 13h 13a 13 13, 0, 0, 0, -13 -13" transform="rotate(-90,353.5,301.5)" />
      <rect x="347" y="308" width="13" height="13" transform="rotate(0,353.5,314.5)" />
      <rect x="347" y="334" width="13" height="13" transform="rotate(0,353.5,340.5)" />
      <rect x="347" y="347" width="13" height="13" transform="rotate(0,353.5,353.5)" />
      <path d="M 347 360v 13h 13a 13 13, 0, 0, 0, -13 -13" transform="rotate(90,353.5,366.5)" />
      <path d="M 347 399v 13h 13a 13 13, 0, 0, 0, -13 -13" transform="rotate(90,353.5,405.5)" />
      <rect x="347" y="425" width="13" height="13" transform="rotate(0,353.5,431.5)" />
      <path d="M 347 451v 13h 13a 13 13, 0, 0, 0, -13 -13" transform="rotate(-90,353.5,457.5)" />
      <rect x="360" y="9" width="13" height="13" transform="rotate(0,366.5,15.5)" />
      <path d="M 360 48v 13h 13a 13 13, 0, 0, 0, -13 -13" transform="rotate(-90,366.5,54.5)" />
      <rect x="360" y="61" width="13" height="13" transform="rotate(0,366.5,67.5)" />
      <rect x="360" y="74" width="13" height="13" transform="rotate(0,366.5,80.5)" />
      <path d="M 360 100v 13h 13a 13 13, 0, 0, 0, -13 -13" transform="rotate(-90,366.5,106.5)" />
      <path d="M 360 165v 6.5a 6.5 6.5, 0, 0, 0, 6.5 6.5h 6.5v -6.5a 6.5 6.5, 0, 0, 0, -6.5 -6.5"
        transform="rotate(90,366.5,171.5)" />
      <path d="M 360 191v 13h 13a 13 13, 0, 0, 0, -13 -13" transform="rotate(90,366.5,197.5)" />
      <rect x="360" y="230" width="13" height="13" transform="rotate(0,366.5,236.5)" />
      <rect x="360" y="243" width="13" height="13" transform="rotate(0,366.5,249.5)" />
      <path d="M 360 282v 13h 13a 13 13, 0, 0, 0, -13 -13" transform="rotate(-90,366.5,288.5)" />
      <rect x="360" y="295" width="13" height="13" transform="rotate(0,366.5,301.5)" />
      <rect x="360" y="308" width="13" height="13" transform="rotate(0,366.5,314.5)" />
      <rect x="360" y="321" width="13" height="13" transform="rotate(0,366.5,327.5)" />
      <rect x="360" y="334" width="13" height="13" transform="rotate(0,366.5,340.5)" />
      <path d="M 360 373v 13h 13a 13 13, 0, 0, 0, -13 -13" transform="rotate(-90,366.5,379.5)" />
      <rect x="360" y="425" width="13" height="13" transform="rotate(0,366.5,431.5)" />
      <rect x="360" y="451" width="13" height="13" transform="rotate(0,366.5,457.5)" />
      <path d="M 360 477v 6.5a 6.5 6.5, 0, 0, 0, 6.5 6.5h 6.5v -6.5a 6.5 6.5, 0, 0, 0, -6.5 -6.5"
        transform="rotate(90,366.5,483.5)" />
      <path d="M 373 9v 13h 13a 13 13, 0, 0, 0, -13 -13" transform="rotate(90,379.5,15.5)" />
      <rect x="373" y="74" width="13" height="13" transform="rotate(0,379.5,80.5)" />
      <rect x="373" y="87" width="13" height="13" transform="rotate(0,379.5,93.5)" />
      <rect x="373" y="100" width="13" height="13" transform="rotate(0,379.5,106.5)" />
      <rect x="373" y="113" width="13" height="13" transform="rotate(0,379.5,119.5)" />
      <rect x="373" y="126" width="13" height="13" transform="rotate(0,379.5,132.5)" />
      <rect x="373" y="139" width="13" height="13" transform="rotate(0,379.5,145.5)" />
      <path d="M 373 152v 13h 13a 13 13, 0, 0, 0, -13 -13" transform="rotate(90,379.5,158.5)" />
      <path d="M 373 204v 13h 13a 13 13, 0, 0, 0, -13 -13" transform="rotate(-90,379.5,210.5)" />
      <rect x="373" y="230" width="13" height="13" transform="rotate(0,379.5,236.5)" />
      <path d="M 373 243v 13h 13a 13 13, 0, 0, 0, -13 -13" transform="rotate(90,379.5,249.5)" />
      <path d="M 373 269v 13h 13a 13 13, 0, 0, 0, -13 -13" transform="rotate(-90,379.5,275.5)" />
      <path d="M 373 282v 13h 13a 13 13, 0, 0, 0, -13 -13" transform="rotate(90,379.5,288.5)" />
      <rect x="373" y="334" width="13" height="13" transform="rotate(0,379.5,340.5)" />
      <rect x="373" y="347" width="13" height="13" transform="rotate(0,379.5,353.5)" />
      <rect x="373" y="360" width="13" height="13" transform="rotate(0,379.5,366.5)" />
      <rect x="373" y="373" width="13" height="13" transform="rotate(0,379.5,379.5)" />
      <rect x="373" y="386" width="13" height="13" transform="rotate(0,379.5,392.5)" />
      <rect x="373" y="399" width="13" height="13" transform="rotate(0,379.5,405.5)" />
      <rect x="373" y="412" width="13" height="13" transform="rotate(0,379.5,418.5)" />
      <rect x="373" y="425" width="13" height="13" transform="rotate(0,379.5,431.5)" />
      <path d="M 373 451v 13h 13a 13 13, 0, 0, 0, -13 -13" transform="rotate(90,379.5,457.5)" />
      <rect x="386" y="113" width="13" height="13" transform="rotate(0,392.5,119.5)" />
      <rect x="386" y="126" width="13" height="13" transform="rotate(0,392.5,132.5)" />
      <path d="M 386 139v 13h 13a 13 13, 0, 0, 0, -13 -13" transform="rotate(90,392.5,145.5)" />
      <rect x="386" y="204" width="13" height="13" transform="rotate(0,392.5,210.5)" />
      <rect x="386" y="217" width="13" height="13" transform="rotate(0,392.5,223.5)" />
      <path d="M 386 230v 13h 13a 13 13, 0, 0, 0, -13 -13" transform="rotate(90,392.5,236.5)" />
      <path d="M 386 308v 13h 13a 13 13, 0, 0, 0, -13 -13" transform="rotate(-90,392.5,314.5)" />
      <rect x="386" y="321" width="13" height="13" transform="rotate(0,392.5,327.5)" />
      <rect x="386" y="360" width="13" height="13" transform="rotate(0,392.5,366.5)" />
      <rect x="386" y="373" width="13" height="13" transform="rotate(0,392.5,379.5)" />
      <rect x="386" y="425" width="13" height="13" transform="rotate(0,392.5,431.5)" />
      <path d="M 399 152v 6.5a 6.5 6.5, 0, 0, 0, 6.5 6.5h 6.5v -6.5a 6.5 6.5, 0, 0, 0, -6.5 -6.5"
        transform="rotate(90,405.5,158.5)" />
      <path d="M 399 178v 13h 13a 13 13, 0, 0, 0, -13 -13" transform="rotate(-90,405.5,184.5)" />
      <path d="M 399 243v 13h 13a 13 13, 0, 0, 0, -13 -13" transform="rotate(-90,405.5,249.5)" />
      <path d="M 399 269v 13h 13a 13 13, 0, 0, 0, -13 -13" transform="rotate(-90,405.5,275.5)" />
      <rect x="399" y="282" width="13" height="13" transform="rotate(0,405.5,288.5)" />
      <rect x="399" y="295" width="13" height="13" transform="rotate(0,405.5,301.5)" />
      <rect x="399" y="321" width="13" height="13" transform="rotate(0,405.5,327.5)" />
      <path d="M 399 347v 6.5a 6.5 6.5, 0, 0, 0, 6.5 6.5h 6.5v -6.5a 6.5 6.5, 0, 0, 0, -6.5 -6.5"
        transform="rotate(90,405.5,353.5)" />
      <rect x="399" y="373" width="13" height="13" transform="rotate(0,405.5,379.5)" />
      <path d="M 399 399v 6.5a 6.5 6.5, 0, 0, 0, 6.5 6.5h 6.5v -6.5a 6.5 6.5, 0, 0, 0, -6.5 -6.5"
        transform="rotate(90,405.5,405.5)" />
      <rect x="399" y="425" width="13" height="13" transform="rotate(0,405.5,431.5)" />
      <rect x="399" y="438" width="13" height="13" transform="rotate(0,405.5,444.5)" />
      <path d="M 399 451v 13h 13a 13 13, 0, 0, 0, -13 -13" transform="rotate(90,405.5,457.5)" />
      <path d="M 412 113v 13h 13a 13 13, 0, 0, 0, -13 -13" transform="rotate(-90,418.5,119.5)" />
      <path d="M 412 139v 13h 13a 13 13, 0, 0, 0, -13 -13" transform="rotate(-90,418.5,145.5)" />
      <path d="M 412 178v 13h 13a 13 13, 0, 0, 0, -13 -13" transform="rotate(90,418.5,184.5)" />
      <path d="M 412 204v 13h 13a 13 13, 0, 0, 0, -13 -13" transform="rotate(-90,418.5,210.5)" />
      <rect x="412" y="217" width="13" height="13" transform="rotate(0,418.5,223.5)" />
      <rect x="412" y="230" width="13" height="13" transform="rotate(0,418.5,236.5)" />
      <path d="M 412 243v 13h 13a 13 13, 0, 0, 0, -13 -13" transform="rotate(90,418.5,249.5)" />
      <rect x="412" y="295" width="13" height="13" transform="rotate(0,418.5,301.5)" />
      <rect x="412" y="308" width="13" height="13" transform="rotate(0,418.5,314.5)" />
      <path d="M 412 321v 13h 13a 13 13, 0, 0, 0, -13 -13" transform="rotate(90,418.5,327.5)" />
      <rect x="412" y="373" width="13" height="13" transform="rotate(0,418.5,379.5)" />
      <rect x="412" y="425" width="13" height="13" transform="rotate(0,418.5,431.5)" />
      <rect x="425" y="113" width="13" height="13" transform="rotate(0,431.5,119.5)" />
      <path d="M 425 139v 13h 13a 13 13, 0, 0, 0, -13 -13" transform="rotate(90,431.5,145.5)" />
      <path d="M 425 191v 13h 13a 13 13, 0, 0, 0, -13 -13" transform="rotate(-90,431.5,197.5)" />
      <rect x="425" y="204" width="13" height="13" transform="rotate(0,431.5,210.5)" />
      <rect x="425" y="217" width="13" height="13" transform="rotate(0,431.5,223.5)" />
      <path d="M 425 230v 13h 13a 13 13, 0, 0, 0, -13 -13" transform="rotate(90,431.5,236.5)" />
      <path d="M 425 256v 6.5a 6.5 6.5, 0, 0, 0, 6.5 6.5h 6.5v -6.5a 6.5 6.5, 0, 0, 0, -6.5 -6.5"
        transform="rotate(90,431.5,262.5)" />
      <path d="M 425 282v 13h 13a 13 13, 0, 0, 0, -13 -13" transform="rotate(-90,431.5,288.5)" />
      <rect x="425" y="295" width="13" height="13" transform="rotate(0,431.5,301.5)" />
      <path d="M 425 308v 13h 13a 13 13, 0, 0, 0, -13 -13" transform="rotate(90,431.5,314.5)" />
      <rect x="425" y="373" width="13" height="13" transform="rotate(0,431.5,379.5)" />
      <rect x="425" y="386" width="13" height="13" transform="rotate(0,431.5,392.5)" />
      <rect x="425" y="399" width="13" height="13" transform="rotate(0,431.5,405.5)" />
      <rect x="425" y="412" width="13" height="13" transform="rotate(0,431.5,418.5)" />
      <path d="M 425 425v 13h 13a 13 13, 0, 0, 0, -13 -13" transform="rotate(90,431.5,431.5)" />
      <path d="M 425 477v 6.5a 6.5 6.5, 0, 0, 0, 6.5 6.5h 6.5v -6.5a 6.5 6.5, 0, 0, 0, -6.5 -6.5"
        transform="rotate(90,431.5,483.5)" />
      <rect x="438" y="113" width="13" height="13" transform="rotate(0,444.5,119.5)" />
      <path d="M 438 126v 13h 13a 13 13, 0, 0, 0, -13 -13" transform="rotate(90,444.5,132.5)" />
      <path d="M 438 152v 13h 13a 13 13, 0, 0, 0, -13 -13" transform="rotate(-90,444.5,158.5)" />
      <path d="M 438 178v 13h 13a 13 13, 0, 0, 0, -13 -13" transform="rotate(-90,444.5,184.5)" />
      <path d="M 438 282v 13h 13a 13 13, 0, 0, 0, -13 -13" transform="rotate(90,444.5,288.5)" />
      <path d="M 438 321v 13h 13a 13 13, 0, 0, 0, -13 -13" transform="rotate(-90,444.5,327.5)" />
      <rect x="438" y="334" width="13" height="13" transform="rotate(0,444.5,340.5)" />
      <rect x="438" y="373" width="13" height="13" transform="rotate(0,444.5,379.5)" />
      <rect x="438" y="386" width="13" height="13" transform="rotate(0,444.5,392.5)" />
      <path d="M 438 438v 13h 13a 13 13, 0, 0, 0, -13 -13" transform="rotate(-90,444.5,444.5)" />
      <rect x="451" y="152" width="13" height="13" transform="rotate(0,457.5,158.5)" />
      <rect x="451" y="178" width="13" height="13" transform="rotate(0,457.5,184.5)" />
      <rect x="451" y="191" width="13" height="13" transform="rotate(0,457.5,197.5)" />
      <path d="M 451 204v 13h 13a 13 13, 0, 0, 0, -13 -13" transform="rotate(90,457.5,210.5)" />
      <path d="M 451 243v 13h 13a 13 13, 0, 0, 0, -13 -13" transform="rotate(-90,457.5,249.5)" />
      <rect x="451" y="256" width="13" height="13" transform="rotate(0,457.5,262.5)" />
      <rect x="451" y="269" width="13" height="13" transform="rotate(0,457.5,275.5)" />
      <path d="M 451 295v 13h 13a 13 13, 0, 0, 0, -13 -13" transform="rotate(-90,457.5,301.5)" />
      <rect x="451" y="308" width="13" height="13" transform="rotate(0,457.5,314.5)" />
      <path d="M 451 334v 13h 13a 13 13, 0, 0, 0, -13 -13" transform="rotate(90,457.5,340.5)" />
      <path d="M 451 360v 13h 13a 13 13, 0, 0, 0, -13 -13" transform="rotate(-90,457.5,366.5)" />
      <rect x="451" y="386" width="13" height="13" transform="rotate(0,457.5,392.5)" />
      <path d="M 451 412v 13h 13a 13 13, 0, 0, 0, -13 -13" transform="rotate(-90,457.5,418.5)" />
      <rect x="451" y="438" width="13" height="13" transform="rotate(0,457.5,444.5)" />
      <rect x="451" y="451" width="13" height="13" transform="rotate(0,457.5,457.5)" />
      <rect x="451" y="464" width="13" height="13" transform="rotate(0,457.5,470.5)" />
      <path d="M 451 477v 13h 13a 13 13, 0, 0, 0, -13 -13" transform="rotate(90,457.5,483.5)" />
      <path d="M 464 113v 13h 13a 13 13, 0, 0, 0, -13 -13" transform="rotate(-90,470.5,119.5)" />
      <path d="M 464 126v 13h 13a 13 13, 0, 0, 0, -13 -13" transform="rotate(90,470.5,132.5)" />
      <path d="M 464 152v 13h 13a 13 13, 0, 0, 0, -13 -13" transform="rotate(90,470.5,158.5)" />
      <rect x="464" y="191" width="13" height="13" transform="rotate(0,470.5,197.5)" />
      <path d="M 464 217v 6.5a 6.5 6.5, 0, 0, 0, 6.5 6.5h 6.5v -6.5a 6.5 6.5, 0, 0, 0, -6.5 -6.5"
        transform="rotate(90,470.5,223.5)" />
      <rect x="464" y="256" width="13" height="13" transform="rotate(0,470.5,262.5)" />
      <rect x="464" y="269" width="13" height="13" transform="rotate(0,470.5,275.5)" />
      <rect x="464" y="282" width="13" height="13" transform="rotate(0,470.5,288.5)" />
      <rect x="464" y="295" width="13" height="13" transform="rotate(0,470.5,301.5)" />
      <rect x="464" y="308" width="13" height="13" transform="rotate(0,470.5,314.5)" />
      <path d="M 464 321v 13h 13a 13 13, 0, 0, 0, -13 -13" transform="rotate(90,470.5,327.5)" />
      <rect x="464" y="360" width="13" height="13" transform="rotate(0,470.5,366.5)" />
      <rect x="464" y="386" width="13" height="13" transform="rotate(0,470.5,392.5)" />
      <path d="M 464 412v 13h 13a 13 13, 0, 0, 0, -13 -13" transform="rotate(90,470.5,418.5)" />
      <rect x="464" y="438" width="13" height="13" transform="rotate(0,470.5,444.5)" />
      <rect x="464" y="451" width="13" height="13" transform="rotate(0,470.5,457.5)" />
      <rect x="464" y="464" width="13" height="13" transform="rotate(0,470.5,470.5)" />
      <path d="M 477 178v 13h 13a 13 13, 0, 0, 0, -13 -13" transform="rotate(-90,483.5,184.5)" />
      <rect x="477" y="191" width="13" height="13" transform="rotate(0,483.5,197.5)" />
      <path d="M 477 204v 13h 13a 13 13, 0, 0, 0, -13 -13" transform="rotate(90,483.5,210.5)" />
      <rect x="477" y="269" width="13" height="13" transform="rotate(0,483.5,275.5)" />
      <path d="M 477 282v 13h 13a 13 13, 0, 0, 0, -13 -13" transform="rotate(90,483.5,288.5)" />
      <path d="M 477 308v 13h 13a 13 13, 0, 0, 0, -13 -13" transform="rotate(90,483.5,314.5)" />
      <path d="M 477 360v 13h 13a 13 13, 0, 0, 0, -13 -13" transform="rotate(90,483.5,366.5)" />
      <rect x="477" y="386" width="13" height="13" transform="rotate(0,483.5,392.5)" />
      <path d="M 477 399v 13h 13a 13 13, 0, 0, 0, -13 -13" transform="rotate(90,483.5,405.5)" />
      <path d="M 477 425v 13h 13a 13 13, 0, 0, 0, -13 -13" transform="rotate(-90,483.5,431.5)" />
      <path d="M 477 438v 13h 13a 13 13, 0, 0, 0, -13 -13" transform="rotate(90,483.5,444.5)" />
      <rect x="477" y="464" width="13" height="13" transform="rotate(0,483.5,470.5)" />
      <path d="M 477 477v 13h 13a 13 13, 0, 0, 0, -13 -13" transform="rotate(90,483.5,483.5)" />
    </clipPath>
    <clipPath id="clip-path-corners-square-color-0-0">
      <path clip-rule="evenodd"
        d="M 9 41.5v 26a 32.5 32.5, 0, 0, 0, 32.5 32.5h 26a 32.5 32.5, 0, 0, 0, 32.5 -32.5v -26a 32.5 32.5, 0, 0, 0, -32.5 -32.5h -26a 32.5 32.5, 0, 0, 0, -32.5 32.5M 41.5 22h 26a 19.5 19.5, 0, 0, 1, 19.5 19.5v 26a 19.5 19.5, 0, 0, 1, -19.5 19.5h -26a 19.5 19.5, 0, 0, 1, -19.5 -19.5v -26a 19.5 19.5, 0, 0, 1, 19.5 -19.5"
        transform="rotate(0,54.5,54.5)" />
    </clipPath>
    <clipPath id="clip-path-corners-dot-color-0-0">
      <circle cx="54.5" cy="54.5" r="19.5" transform="rotate(0,54.5,54.5)" />
    </clipPath>
    <clipPath id="clip-path-corners-square-color-1-0">
      <path clip-rule="evenodd"
        d="M 399 41.5v 26a 32.5 32.5, 0, 0, 0, 32.5 32.5h 26a 32.5 32.5, 0, 0, 0, 32.5 -32.5v -26a 32.5 32.5, 0, 0, 0, -32.5 -32.5h -26a 32.5 32.5, 0, 0, 0, -32.5 32.5M 431.5 22h 26a 19.5 19.5, 0, 0, 1, 19.5 19.5v 26a 19.5 19.5, 0, 0, 1, -19.5 19.5h -26a 19.5 19.5, 0, 0, 1, -19.5 -19.5v -26a 19.5 19.5, 0, 0, 1, 19.5 -19.5"
        transform="rotate(90,444.5,54.5)" />
    </clipPath>
    <clipPath id="clip-path-corners-dot-color-1-0">
      <circle cx="444.5" cy="54.5" r="19.5" transform="rotate(90,444.5,54.5)" />
    </clipPath>
    <clipPath id="clip-path-corners-square-color-0-1">
      <path clip-rule="evenodd"
        d="M 9 431.5v 26a 32.5 32.5, 0, 0, 0, 32.5 32.5h 26a 32.5 32.5, 0, 0, 0, 32.5 -32.5v -26a 32.5 32.5, 0, 0, 0, -32.5 -32.5h -26a 32.5 32.5, 0, 0, 0, -32.5 32.5M 41.5 412h 26a 19.5 19.5, 0, 0, 1, 19.5 19.5v 26a 19.5 19.5, 0, 0, 1, -19.5 19.5h -26a 19.5 19.5, 0, 0, 1, -19.5 -19.5v -26a 19.5 19.5, 0, 0, 1, 19.5 -19.5"
        transform="rotate(-90,54.5,444.5)" />
    </clipPath>
    <clipPath id="clip-path-corners-dot-color-0-1">
      <circle cx="54.5" cy="444.5" r="19.5" transform="rotate(-90,54.5,444.5)" />
    </clipPath>
  </defs>
  <rect x="0" y="0" height="500" width="500" clip-path="url('#clip-path-background-color')"
    fill="#0f0f23" />
  <rect x="0" y="0" height="500" width="500" clip-path="url('#clip-path-dot-color')" fill="#cccccc" />
  <rect x="9" y="9" height="91" width="91" clip-path="url('#clip-path-corners-square-color-0-0')"
    fill="#cccccc" />
  <rect x="35" y="35" height="39" width="39" clip-path="url('#clip-path-corners-dot-color-0-0')"
    fill="#009900" />
  <rect x="399" y="9" height="91" width="91" clip-path="url('#clip-path-corners-square-color-1-0')"
    fill="#cccccc" />
  <rect x="425" y="35" height="39" width="39" clip-path="url('#clip-path-corners-dot-color-1-0')"
    fill="#009900" />
  <rect x="9" y="399" height="91" width="91" clip-path="url('#clip-path-corners-square-color-0-1')"
    fill="#cccccc" />
  <rect x="35" y="425" height="39" width="39" clip-path="url('#clip-path-corners-dot-color-0-1')"
    fill="#009900" />
</svg>
