<svg xmlns="http://www.w3.org/2000/svg" width="1000" height="1000" viewBox="0 0 820 820">
  <circle cx="270" cy="90" r="8.333" fill="#CCC" />
  <path fill="#CCC" d="M265 90h10v20h-10z" />
  <circle cx="310" cy="90" r="8.333" fill="#CCC" />
  <path fill="#CCC" d="M305 90h10v20h-10z" />
  <path fill="#CCC" d="M310 85h20v10h-20z" />
  <circle cx="330" cy="90" r="8.333" fill="#CCC" />
  <circle cx="370" cy="90" r="8.333" fill="#CCC" />
  <circle cx="410" cy="90" r="8.333" fill="#CCC" />
  <circle cx="450" cy="90" r="8.333" fill="#CCC" />
  <circle cx="490" cy="90" r="8.333" fill="#CCC" />
  <circle cx="530" cy="90" r="8.333" fill="#CCC" />
  <circle cx="570" cy="90" r="8.333" fill="#CCC" />
  <circle cx="250" cy="110" r="8.333" fill="#CCC" />
  <path fill="#CCC" d="M250 105h20v10h-20z" />
  <circle cx="270" cy="110" r="8.333" fill="#CCC" />
  <circle cx="310" cy="110" r="8.333" fill="#CCC" />
  <circle cx="350" cy="110" r="8.333" fill="#CCC" />
  <circle cx="390" cy="110" r="8.333" fill="#CCC" />
  <circle cx="430" cy="110" r="8.333" fill="#CCC" />
  <circle cx="470" cy="110" r="8.333" fill="#CCC" />
  <circle cx="510" cy="110" r="8.333" fill="#CCC" />
  <circle cx="550" cy="110" r="8.333" fill="#CCC" />
  <circle cx="290" cy="130" r="8.333" fill="#CCC" />
  <circle cx="330" cy="130" r="8.333" fill="#CCC" />
  <circle cx="490" cy="130" r="8.333" fill="#CCC" />
  <circle cx="530" cy="130" r="8.333" fill="#CCC" />
  <circle cx="570" cy="130" r="8.333" fill="#CCC" />
  <circle cx="270" cy="150" r="8.333" fill="#CCC" />
  <path fill="#CCC" d="M265 150h10v20h-10z" />
  <circle cx="310" cy="150" r="8.333" fill="#CCC" />
  <circle cx="350" cy="150" r="8.333" fill="#CCC" />
  <circle cx="390" cy="150" r="8.333" fill="#CCC" />
  <circle cx="430" cy="150" r="8.333" fill="#CCC" />
  <circle cx="510" cy="150" r="8.333" fill="#CCC" />
  <circle cx="550" cy="150" r="8.333" fill="#CCC" />
  <circle cx="250" cy="170" r="8.333" fill="#CCC" />
  <path fill="#CCC" d="M250 165h20v10h-20z" />
  <circle cx="270" cy="170" r="8.333" fill="#CCC" />
  <path fill="#CCC" d="M265 170h10v20h-10z" />
  <circle cx="530" cy="170" r="8.333" fill="#CCC" />
  <circle cx="570" cy="170" r="8.333" fill="#CCC" />
  <circle cx="270" cy="190" r="8.333" fill="#CCC" />
  <path fill="#CCC" d="M270 185h20v10h-20z" />
  <circle cx="290" cy="190" r="8.333" fill="#CCC" />
  <path fill="#CCC" d="M285 190h10v20h-10z" />
  <circle cx="350" cy="190" r="8.333" fill="#CCC" />
  <path fill="#CCC" d="M350 185h20v10h-20z" />
  <circle cx="370" cy="190" r="8.333" fill="#CCC" />
  <path fill="#CCC" d="M365 190h10v20h-10z" />
  <circle cx="430" cy="190" r="8.333" fill="#CCC" />
  <circle cx="550" cy="190" r="8.333" fill="#CCC" />
  <circle cx="250" cy="210" r="8.333" fill="#CCC" />
  <circle cx="290" cy="210" r="8.333" fill="#CCC" />
  <circle cx="330" cy="210" r="8.333" fill="#CCC" />
  <path fill="#CCC" d="M325 210h10v20h-10z" />
  <circle cx="370" cy="210" r="8.333" fill="#CCC" />
  <path fill="#CCC" d="M365 210h10v20h-10z" />
  <circle cx="410" cy="210" r="8.333" fill="#CCC" />
  <path fill="#CCC" d="M405 210h10v20h-10z" />
  <circle cx="450" cy="210" r="8.333" fill="#CCC" />
  <path fill="#CCC" d="M445 210h10v20h-10z" />
  <circle cx="490" cy="210" r="8.333" fill="#CCC" />
  <path fill="#CCC" d="M485 210h10v20h-10z" />
  <circle cx="530" cy="210" r="8.333" fill="#CCC" />
  <circle cx="570" cy="210" r="8.333" fill="#CCC" />
  <circle cx="310" cy="230" r="8.333" fill="#CCC" />
  <path fill="#CCC" d="M310 225h20v10h-20z" />
  <circle cx="330" cy="230" r="8.333" fill="#CCC" />
  <path fill="#CCC" d="M325 230h10v20h-10z" />
  <circle cx="370" cy="230" r="8.333" fill="#CCC" />
  <path fill="#CCC" d="M365 230h10v20h-10z" />
  <circle cx="410" cy="230" r="8.333" fill="#CCC" />
  <path fill="#CCC" d="M405 230h10v20h-10z" />
  <path fill="#CCC" d="M410 225h20v10h-20z" />
  <circle cx="430" cy="230" r="8.333" fill="#CCC" />
  <path fill="#CCC" d="M430 225h20v10h-20z" />
  <circle cx="450" cy="230" r="8.333" fill="#CCC" />
  <path fill="#CCC" d="M445 230h10v20h-10z" />
  <circle cx="490" cy="230" r="8.333" fill="#CCC" />
  <path fill="#CCC" d="M490 225h20v10h-20z" />
  <circle cx="510" cy="230" r="8.333" fill="#CCC" />
  <circle cx="550" cy="230" r="8.333" fill="#CCC" />
  <circle cx="90" cy="250" r="8.333" fill="#CCC" />
  <circle cx="130" cy="250" r="8.333" fill="#CCC" />
  <circle cx="170" cy="250" r="8.333" fill="#CCC" />
  <circle cx="210" cy="250" r="8.333" fill="#CCC" />
  <circle cx="330" cy="250" r="8.333" fill="#CCC" />
  <path fill="#CCC" d="M325 250h10v20h-10z" />
  <path fill="#CCC" d="M330 245h20v10h-20z" />
  <circle cx="350" cy="250" r="8.333" fill="#CCC" />
  <path fill="#CCC" d="M350 245h20v10h-20z" />
  <circle cx="370" cy="250" r="8.333" fill="#CCC" />
  <path fill="#CCC" d="M370 245h20v10h-20z" />
  <circle cx="390" cy="250" r="8.333" fill="#CCC" />
  <path fill="#CCC" d="M390 245h20v10h-20z" />
  <circle cx="410" cy="250" r="8.333" fill="#CCC" />
  <circle cx="450" cy="250" r="8.333" fill="#CCC" />
  <path fill="#CCC" d="M450 245h20v10h-20z" />
  <circle cx="470" cy="250" r="8.333" fill="#CCC" />
  <circle cx="530" cy="250" r="8.333" fill="#CCC" />
  <path fill="#CCC" d="M525 250h10v20h-10z" />
  <circle cx="570" cy="250" r="8.333" fill="#CCC" />
  <path fill="#CCC" d="M565 250h10v20h-10z" />
  <circle cx="650" cy="250" r="8.333" fill="#CCC" />
  <circle cx="710" cy="250" r="8.333" fill="#CCC" />
  <path fill="#CCC" d="M705 250h10v20h-10z" />
  <circle cx="190" cy="270" r="8.333" fill="#CCC" />
  <circle cx="270" cy="270" r="8.333" fill="#CCC" />
  <path fill="#CCC" d="M265 270h10v20h-10z" />
  <circle cx="310" cy="270" r="8.333" fill="#CCC" />
  <path fill="#CCC" d="M305 270h10v20h-10z" />
  <path fill="#CCC" d="M310 265h20v10h-20z" />
  <circle cx="330" cy="270" r="8.333" fill="#CCC" />
  <path fill="#CCC" d="M325 270h10v20h-10z" />
  <circle cx="490" cy="270" r="8.333" fill="#CCC" />
  <circle cx="530" cy="270" r="8.333" fill="#CCC" />
  <circle cx="570" cy="270" r="8.333" fill="#CCC" />
  <path fill="#CCC" d="M570 265h20v10h-20z" />
  <circle cx="590" cy="270" r="8.333" fill="#CCC" />
  <circle cx="630" cy="270" r="8.333" fill="#CCC" />
  <circle cx="670" cy="270" r="8.333" fill="#CCC" />
  <circle cx="710" cy="270" r="8.333" fill="#CCC" />
  <circle cx="110" cy="290" r="8.333" fill="#CCC" />
  <circle cx="210" cy="290" r="8.333" fill="#CCC" />
  <path fill="#CCC" d="M210 285h20v10h-20z" />
  <circle cx="230" cy="290" r="8.333" fill="#CCC" />
  <path fill="#CCC" d="M225 290h10v20h-10z" />
  <path fill="#CCC" d="M230 285h20v10h-20z" />
  <circle cx="250" cy="290" r="8.333" fill="#CCC" />
  <path fill="#CCC" d="M250 285h20v10h-20z" />
  <circle cx="270" cy="290" r="8.333" fill="#CCC" />
  <path fill="#CCC" d="M265 290h10v20h-10z" />
  <circle cx="310" cy="290" r="8.333" fill="#CCC" />
  <path fill="#CCC" d="M310 285h20v10h-20z" />
  <circle cx="330" cy="290" r="8.333" fill="#CCC" />
  <path fill="#CCC" d="M325 290h10v20h-10z" />
  <path fill="#CCC" d="M330 285h20v10h-20z" />
  <circle cx="350" cy="290" r="8.333" fill="#CCC" />
  <circle cx="410" cy="290" r="8.333" fill="#CCC" />
  <path fill="#CCC" d="M410 285h20v10h-20z" />
  <circle cx="430" cy="290" r="8.333" fill="#CCC" />
  <circle cx="470" cy="290" r="8.333" fill="#CCC" />
  <path fill="#CCC" d="M465 290h10v20h-10z" />
  <circle cx="510" cy="290" r="8.333" fill="#CCC" />
  <circle cx="550" cy="290" r="8.333" fill="#CCC" />
  <circle cx="650" cy="290" r="8.333" fill="#CCC" />
  <circle cx="690" cy="290" r="8.333" fill="#CCC" />
  <path fill="#CCC" d="M685 290h10v20h-10z" />
  <circle cx="90" cy="310" r="8.333" fill="#CCC" />
  <circle cx="150" cy="310" r="8.333" fill="#CCC" />
  <path fill="#CCC" d="M145 310h10v20h-10z" />
  <path fill="#CCC" d="M150 305h20v10h-20z" />
  <circle cx="170" cy="310" r="8.333" fill="#CCC" />
  <path fill="#CCC" d="M165 310h10v20h-10z" />
  <path fill="#CCC" d="M170 305h20v10h-20z" />
  <circle cx="190" cy="310" r="8.333" fill="#CCC" />
  <circle cx="230" cy="310" r="8.333" fill="#CCC" />
  <path fill="#CCC" d="M225 310h10v20h-10z" />
  <circle cx="270" cy="310" r="8.333" fill="#CCC" />
  <path fill="#CCC" d="M265 310h10v20h-10z" />
  <path fill="#CCC" d="M270 305h20v10h-20z" />
  <circle cx="290" cy="310" r="8.333" fill="#CCC" />
  <circle cx="330" cy="310" r="8.333" fill="#CCC" />
  <circle cx="390" cy="310" r="8.333" fill="#CCC" />
  <circle cx="470" cy="310" r="8.333" fill="#CCC" />
  <circle cx="570" cy="310" r="8.333" fill="#CCC" />
  <path fill="#CCC" d="M565 310h10v20h-10z" />
  <path fill="#CCC" d="M570 305h20v10h-20z" />
  <circle cx="590" cy="310" r="8.333" fill="#CCC" />
  <path fill="#CCC" d="M585 310h10v20h-10z" />
  <circle cx="630" cy="310" r="8.333" fill="#CCC" />
  <circle cx="670" cy="310" r="8.333" fill="#CCC" />
  <path fill="#CCC" d="M665 310h10v20h-10z" />
  <path fill="#CCC" d="M670 305h20v10h-20z" />
  <circle cx="690" cy="310" r="8.333" fill="#CCC" />
  <path fill="#CCC" d="M690 305h20v10h-20z" />
  <circle cx="710" cy="310" r="8.333" fill="#CCC" />
  <circle cx="130" cy="330" r="8.333" fill="#CCC" />
  <path fill="#CCC" d="M130 325h20v10h-20z" />
  <circle cx="150" cy="330" r="8.333" fill="#CCC" />
  <path fill="#CCC" d="M145 330h10v20h-10z" />
  <path fill="#CCC" d="M150 325h20v10h-20z" />
  <circle cx="170" cy="330" r="8.333" fill="#CCC" />
  <circle cx="210" cy="330" r="8.333" fill="#CCC" />
  <path fill="#CCC" d="M210 325h20v10h-20z" />
  <circle cx="230" cy="330" r="8.333" fill="#CCC" />
  <circle cx="270" cy="330" r="8.333" fill="#CCC" />
  <circle cx="310" cy="330" r="8.333" fill="#CCC" />
  <path fill="#CCC" d="M305 330h10v20h-10z" />
  <circle cx="570" cy="330" r="8.333" fill="#CCC" />
  <path fill="#CCC" d="M570 325h20v10h-20z" />
  <circle cx="590" cy="330" r="8.333" fill="#CCC" />
  <path fill="#CCC" d="M590 325h20v10h-20z" />
  <circle cx="610" cy="330" r="8.333" fill="#CCC" />
  <circle cx="670" cy="330" r="8.333" fill="#CCC" />
  <path fill="#CCC" d="M665 330h10v20h-10z" />
  <circle cx="90" cy="350" r="8.333" fill="#CCC" />
  <path fill="#CCC" d="M85 350h10v20H85z" />
  <path fill="#CCC" d="M90 345h20v10H90z" />
  <circle cx="110" cy="350" r="8.333" fill="#CCC" />
  <path fill="#CCC" d="M105 350h10v20h-10z" />
  <circle cx="150" cy="350" r="8.333" fill="#CCC" />
  <path fill="#CCC" d="M145 350h10v20h-10z" />
  <circle cx="190" cy="350" r="8.333" fill="#CCC" />
  <path fill="#CCC" d="M185 350h10v20h-10z" />
  <circle cx="290" cy="350" r="8.333" fill="#CCC" />
  <path fill="#CCC" d="M285 350h10v20h-10z" />
  <path fill="#CCC" d="M290 345h20v10h-20z" />
  <circle cx="310" cy="350" r="8.333" fill="#CCC" />
  <path fill="#CCC" d="M310 345h20v10h-20z" />
  <circle cx="330" cy="350" r="8.333" fill="#CCC" />
  <path fill="#CCC" d="M325 350h10v20h-10z" />
  <circle cx="390" cy="350" r="8.333" fill="#CCC" />
  <circle cx="430" cy="350" r="8.333" fill="#CCC" />
  <circle cx="470" cy="350" r="8.333" fill="#CCC" />
  <circle cx="510" cy="350" r="8.333" fill="#CCC" />
  <path fill="#CCC" d="M505 350h10v20h-10z" />
  <circle cx="550" cy="350" r="8.333" fill="#CCC" />
  <circle cx="670" cy="350" r="8.333" fill="#CCC" />
  <circle cx="90" cy="370" r="8.333" fill="#CCC" />
  <path fill="#CCC" d="M85 370h10v20H85z" />
  <path fill="#CCC" d="M90 365h20v10H90z" />
  <circle cx="110" cy="370" r="8.333" fill="#CCC" />
  <path fill="#CCC" d="M110 365h20v10h-20z" />
  <circle cx="130" cy="370" r="8.333" fill="#CCC" />
  <path fill="#CCC" d="M130 365h20v10h-20z" />
  <circle cx="150" cy="370" r="8.333" fill="#CCC" />
  <path fill="#CCC" d="M145 370h10v20h-10z" />
  <path fill="#CCC" d="M150 365h20v10h-20z" />
  <circle cx="170" cy="370" r="8.333" fill="#CCC" />
  <path fill="#CCC" d="M170 365h20v10h-20z" />
  <circle cx="190" cy="370" r="8.333" fill="#CCC" />
  <path fill="#CCC" d="M185 370h10v20h-10z" />
  <path fill="#CCC" d="M190 365h20v10h-20z" />
  <circle cx="210" cy="370" r="8.333" fill="#CCC" />
  <circle cx="250" cy="370" r="8.333" fill="#CCC" />
  <path fill="#CCC" d="M245 370h10v20h-10z" />
  <path fill="#CCC" d="M250 365h20v10h-20z" />
  <circle cx="270" cy="370" r="8.333" fill="#CCC" />
  <path fill="#CCC" d="M265 370h10v20h-10z" />
  <path fill="#CCC" d="M270 365h20v10h-20z" />
  <circle cx="290" cy="370" r="8.333" fill="#CCC" />
  <path fill="#CCC" d="M285 370h10v20h-10z" />
  <circle cx="330" cy="370" r="8.333" fill="#CCC" />
  <path fill="#CCC" d="M325 370h10v20h-10z" />
  <circle cx="370" cy="370" r="8.333" fill="#CCC" />
  <circle cx="450" cy="370" r="8.333" fill="#CCC" />
  <circle cx="510" cy="370" r="8.333" fill="#CCC" />
  <path fill="#CCC" d="M505 370h10v20h-10z" />
  <circle cx="570" cy="370" r="8.333" fill="#CCC" />
  <path fill="#CCC" d="M565 370h10v20h-10z" />
  <path fill="#CCC" d="M570 365h20v10h-20z" />
  <circle cx="590" cy="370" r="8.333" fill="#CCC" />
  <path fill="#CCC" d="M585 370h10v20h-10z" />
  <path fill="#CCC" d="M590 365h20v10h-20z" />
  <circle cx="610" cy="370" r="8.333" fill="#CCC" />
  <path fill="#CCC" d="M610 365h20v10h-20z" />
  <circle cx="630" cy="370" r="8.333" fill="#CCC" />
  <path fill="#CCC" d="M625 370h10v20h-10z" />
  <path fill="#CCC" d="M630 365h20v10h-20z" />
  <circle cx="650" cy="370" r="8.333" fill="#CCC" />
  <circle cx="710" cy="370" r="8.333" fill="#CCC" />
  <path fill="#CCC" d="M705 370h10v20h-10z" />
  <circle cx="90" cy="390" r="8.333" fill="#CCC" />
  <path fill="#CCC" d="M85 390h10v20H85z" />
  <circle cx="150" cy="390" r="8.333" fill="#CCC" />
  <circle cx="190" cy="390" r="8.333" fill="#CCC" />
  <path fill="#CCC" d="M185 390h10v20h-10z" />
  <circle cx="230" cy="390" r="8.333" fill="#CCC" />
  <path fill="#CCC" d="M230 385h20v10h-20z" />
  <circle cx="250" cy="390" r="8.333" fill="#CCC" />
  <path fill="#CCC" d="M245 390h10v20h-10z" />
  <path fill="#CCC" d="M250 385h20v10h-20z" />
  <circle cx="270" cy="390" r="8.333" fill="#CCC" />
  <path fill="#CCC" d="M270 385h20v10h-20z" />
  <circle cx="290" cy="390" r="8.333" fill="#CCC" />
  <path fill="#CCC" d="M285 390h10v20h-10z" />
  <path fill="#CCC" d="M290 385h20v10h-20z" />
  <circle cx="310" cy="390" r="8.333" fill="#CCC" />
  <path fill="#CCC" d="M310 385h20v10h-20z" />
  <circle cx="330" cy="390" r="8.333" fill="#CCC" />
  <path fill="#CCC" d="M325 390h10v20h-10z" />
  <circle cx="390" cy="390" r="8.333" fill="#CCC" />
  <circle cx="430" cy="390" r="8.333" fill="#CCC" />
  <circle cx="470" cy="390" r="8.333" fill="#CCC" />
  <circle cx="510" cy="390" r="8.333" fill="#CCC" />
  <path fill="#CCC" d="M510 385h20v10h-20z" />
  <circle cx="530" cy="390" r="8.333" fill="#CCC" />
  <path fill="#CCC" d="M525 390h10v20h-10z" />
  <path fill="#CCC" d="M530 385h20v10h-20z" />
  <circle cx="550" cy="390" r="8.333" fill="#CCC" />
  <path fill="#CCC" d="M550 385h20v10h-20z" />
  <circle cx="570" cy="390" r="8.333" fill="#CCC" />
  <path fill="#CCC" d="M565 390h10v20h-10z" />
  <path fill="#CCC" d="M570 385h20v10h-20z" />
  <circle cx="590" cy="390" r="8.333" fill="#CCC" />
  <circle cx="630" cy="390" r="8.333" fill="#CCC" />
  <circle cx="690" cy="390" r="8.333" fill="#CCC" />
  <path fill="#CCC" d="M685 390h10v20h-10z" />
  <path fill="#CCC" d="M690 385h20v10h-20z" />
  <circle cx="710" cy="390" r="8.333" fill="#CCC" />
  <path fill="#CCC" d="M710 385h20v10h-20z" />
  <circle cx="730" cy="390" r="8.333" fill="#CCC" />
  <path fill="#CCC" d="M725 390h10v20h-10z" />
  <circle cx="90" cy="410" r="8.333" fill="#CCC" />
  <path fill="#CCC" d="M90 405h20v10H90z" />
  <circle cx="110" cy="410" r="8.333" fill="#CCC" />
  <path fill="#CCC" d="M105 410h10v20h-10z" />
  <circle cx="170" cy="410" r="8.333" fill="#CCC" />
  <path fill="#CCC" d="M165 410h10v20h-10z" />
  <path fill="#CCC" d="M170 405h20v10h-20z" />
  <circle cx="190" cy="410" r="8.333" fill="#CCC" />
  <path fill="#CCC" d="M190 405h20v10h-20z" />
  <circle cx="210" cy="410" r="8.333" fill="#CCC" />
  <circle cx="250" cy="410" r="8.333" fill="#CCC" />
  <path fill="#CCC" d="M245 410h10v20h-10z" />
  <circle cx="290" cy="410" r="8.333" fill="#CCC" />
  <path fill="#CCC" d="M285 410h10v20h-10z" />
  <circle cx="330" cy="410" r="8.333" fill="#CCC" />
  <path fill="#CCC" d="M325 410h10v20h-10z" />
  <path fill="#CCC" d="M330 405h20v10h-20z" />
  <circle cx="350" cy="410" r="8.333" fill="#CCC" />
  <path fill="#CCC" d="M345 410h10v20h-10z" />
  <circle cx="450" cy="410" r="8.333" fill="#CCC" />
  <path fill="#CCC" d="M445 410h10v20h-10z" />
  <circle cx="490" cy="410" r="8.333" fill="#CCC" />
  <circle cx="530" cy="410" r="8.333" fill="#CCC" />
  <circle cx="570" cy="410" r="8.333" fill="#CCC" />
  <circle cx="650" cy="410" r="8.333" fill="#CCC" />
  <path fill="#CCC" d="M650 405h20v10h-20z" />
  <circle cx="670" cy="410" r="8.333" fill="#CCC" />
  <path fill="#CCC" d="M670 405h20v10h-20z" />
  <circle cx="690" cy="410" r="8.333" fill="#CCC" />
  <circle cx="730" cy="410" r="8.333" fill="#CCC" />
  <path fill="#CCC" d="M725 410h10v20h-10z" />
  <circle cx="110" cy="430" r="8.333" fill="#CCC" />
  <path fill="#CCC" d="M105 430h10v20h-10z" />
  <path fill="#CCC" d="M110 425h20v10h-20z" />
  <circle cx="130" cy="430" r="8.333" fill="#CCC" />
  <path fill="#CCC" d="M125 430h10v20h-10z" />
  <path fill="#CCC" d="M130 425h20v10h-20z" />
  <circle cx="150" cy="430" r="8.333" fill="#CCC" />
  <path fill="#CCC" d="M150 425h20v10h-20z" />
  <circle cx="170" cy="430" r="8.333" fill="#CCC" />
  <path fill="#CCC" d="M165 430h10v20h-10z" />
  <circle cx="230" cy="430" r="8.333" fill="#CCC" />
  <path fill="#CCC" d="M225 430h10v20h-10z" />
  <path fill="#CCC" d="M230 425h20v10h-20z" />
  <circle cx="250" cy="430" r="8.333" fill="#CCC" />
  <path fill="#CCC" d="M245 430h10v20h-10z" />
  <path fill="#CCC" d="M250 425h20v10h-20z" />
  <circle cx="270" cy="430" r="8.333" fill="#CCC" />
  <path fill="#CCC" d="M265 430h10v20h-10z" />
  <path fill="#CCC" d="M270 425h20v10h-20z" />
  <circle cx="290" cy="430" r="8.333" fill="#CCC" />
  <path fill="#CCC" d="M285 430h10v20h-10z" />
  <path fill="#CCC" d="M290 425h20v10h-20z" />
  <circle cx="310" cy="430" r="8.333" fill="#CCC" />
  <path fill="#CCC" d="M310 425h20v10h-20z" />
  <circle cx="330" cy="430" r="8.333" fill="#CCC" />
  <path fill="#CCC" d="M330 425h20v10h-20z" />
  <circle cx="350" cy="430" r="8.333" fill="#CCC" />
  <path fill="#CCC" d="M345 430h10v20h-10z" />
  <path fill="#CCC" d="M350 425h20v10h-20z" />
  <circle cx="370" cy="430" r="8.333" fill="#CCC" />
  <path fill="#CCC" d="M365 430h10v20h-10z" />
  <path fill="#CCC" d="M370 425h20v10h-20z" />
  <circle cx="390" cy="430" r="8.333" fill="#CCC" />
  <circle cx="430" cy="430" r="8.333" fill="#CCC" />
  <path fill="#CCC" d="M430 425h20v10h-20z" />
  <circle cx="450" cy="430" r="8.333" fill="#CCC" />
  <path fill="#CCC" d="M445 430h10v20h-10z" />
  <circle cx="510" cy="430" r="8.333" fill="#CCC" />
  <circle cx="550" cy="430" r="8.333" fill="#CCC" />
  <path fill="#CCC" d="M545 430h10v20h-10z" />
  <circle cx="590" cy="430" r="8.333" fill="#CCC" />
  <circle cx="630" cy="430" r="8.333" fill="#CCC" />
  <circle cx="710" cy="430" r="8.333" fill="#CCC" />
  <path fill="#CCC" d="M710 425h20v10h-20z" />
  <circle cx="730" cy="430" r="8.333" fill="#CCC" />
  <path fill="#CCC" d="M725 430h10v20h-10z" />
  <circle cx="90" cy="450" r="8.333" fill="#CCC" />
  <path fill="#CCC" d="M85 450h10v20H85z" />
  <path fill="#CCC" d="M90 445h20v10H90z" />
  <circle cx="110" cy="450" r="8.333" fill="#CCC" />
  <path fill="#CCC" d="M105 450h10v20h-10z" />
  <path fill="#CCC" d="M110 445h20v10h-20z" />
  <circle cx="130" cy="450" r="8.333" fill="#CCC" />
  <path fill="#CCC" d="M125 450h10v20h-10z" />
  <circle cx="170" cy="450" r="8.333" fill="#CCC" />
  <circle cx="210" cy="450" r="8.333" fill="#CCC" />
  <path fill="#CCC" d="M210 445h20v10h-20z" />
  <circle cx="230" cy="450" r="8.333" fill="#CCC" />
  <path fill="#CCC" d="M225 450h10v20h-10z" />
  <path fill="#CCC" d="M230 445h20v10h-20z" />
  <circle cx="250" cy="450" r="8.333" fill="#CCC" />
  <path fill="#CCC" d="M245 450h10v20h-10z" />
  <path fill="#CCC" d="M250 445h20v10h-20z" />
  <circle cx="270" cy="450" r="8.333" fill="#CCC" />
  <path fill="#CCC" d="M265 450h10v20h-10z" />
  <path fill="#CCC" d="M270 445h20v10h-20z" />
  <circle cx="290" cy="450" r="8.333" fill="#CCC" />
  <path fill="#CCC" d="M285 450h10v20h-10z" />
  <circle cx="350" cy="450" r="8.333" fill="#CCC" />
  <path fill="#CCC" d="M345 450h10v20h-10z" />
  <path fill="#CCC" d="M350 445h20v10h-20z" />
  <circle cx="370" cy="450" r="8.333" fill="#CCC" />
  <circle cx="410" cy="450" r="8.333" fill="#CCC" />
  <circle cx="450" cy="450" r="8.333" fill="#CCC" />
  <path fill="#CCC" d="M445 450h10v20h-10z" />
  <path fill="#CCC" d="M450 445h20v10h-20z" />
  <circle cx="470" cy="450" r="8.333" fill="#CCC" />
  <path fill="#CCC" d="M465 450h10v20h-10z" />
  <circle cx="530" cy="450" r="8.333" fill="#CCC" />
  <path fill="#CCC" d="M525 450h10v20h-10z" />
  <path fill="#CCC" d="M530 445h20v10h-20z" />
  <circle cx="550" cy="450" r="8.333" fill="#CCC" />
  <path fill="#CCC" d="M550 445h20v10h-20z" />
  <circle cx="570" cy="450" r="8.333" fill="#CCC" />
  <path fill="#CCC" d="M565 450h10v20h-10z" />
  <circle cx="650" cy="450" r="8.333" fill="#CCC" />
  <path fill="#CCC" d="M645 450h10v20h-10z" />
  <circle cx="690" cy="450" r="8.333" fill="#CCC" />
  <circle cx="730" cy="450" r="8.333" fill="#CCC" />
  <circle cx="90" cy="470" r="8.333" fill="#CCC" />
  <path fill="#CCC" d="M85 470h10v20H85z" />
  <path fill="#CCC" d="M90 465h20v10H90z" />
  <circle cx="110" cy="470" r="8.333" fill="#CCC" />
  <path fill="#CCC" d="M105 470h10v20h-10z" />
  <path fill="#CCC" d="M110 465h20v10h-20z" />
  <circle cx="130" cy="470" r="8.333" fill="#CCC" />
  <path fill="#CCC" d="M125 470h10v20h-10z" />
  <path fill="#CCC" d="M130 465h20v10h-20z" />
  <circle cx="150" cy="470" r="8.333" fill="#CCC" />
  <circle cx="230" cy="470" r="8.333" fill="#CCC" />
  <path fill="#CCC" d="M230 465h20v10h-20z" />
  <circle cx="250" cy="470" r="8.333" fill="#CCC" />
  <path fill="#CCC" d="M245 470h10v20h-10z" />
  <path fill="#CCC" d="M250 465h20v10h-20z" />
  <circle cx="270" cy="470" r="8.333" fill="#CCC" />
  <path fill="#CCC" d="M265 470h10v20h-10z" />
  <path fill="#CCC" d="M270 465h20v10h-20z" />
  <circle cx="290" cy="470" r="8.333" fill="#CCC" />
  <path fill="#CCC" d="M285 470h10v20h-10z" />
  <circle cx="330" cy="470" r="8.333" fill="#CCC" />
  <path fill="#CCC" d="M325 470h10v20h-10z" />
  <path fill="#CCC" d="M330 465h20v10h-20z" />
  <circle cx="350" cy="470" r="8.333" fill="#CCC" />
  <path fill="#CCC" d="M345 470h10v20h-10z" />
  <circle cx="390" cy="470" r="8.333" fill="#CCC" />
  <circle cx="430" cy="470" r="8.333" fill="#CCC" />
  <path fill="#CCC" d="M430 465h20v10h-20z" />
  <circle cx="450" cy="470" r="8.333" fill="#CCC" />
  <path fill="#CCC" d="M445 470h10v20h-10z" />
  <path fill="#CCC" d="M450 465h20v10h-20z" />
  <circle cx="470" cy="470" r="8.333" fill="#CCC" />
  <path fill="#CCC" d="M470 465h20v10h-20z" />
  <circle cx="490" cy="470" r="8.333" fill="#CCC" />
  <path fill="#CCC" d="M485 470h10v20h-10z" />
  <path fill="#CCC" d="M490 465h20v10h-20z" />
  <circle cx="510" cy="470" r="8.333" fill="#CCC" />
  <path fill="#CCC" d="M510 465h20v10h-20z" />
  <circle cx="530" cy="470" r="8.333" fill="#CCC" />
  <path fill="#CCC" d="M525 470h10v20h-10z" />
  <circle cx="570" cy="470" r="8.333" fill="#CCC" />
  <path fill="#CCC" d="M570 465h20v10h-20z" />
  <circle cx="590" cy="470" r="8.333" fill="#CCC" />
  <path fill="#CCC" d="M590 465h20v10h-20z" />
  <circle cx="610" cy="470" r="8.333" fill="#CCC" />
  <path fill="#CCC" d="M605 470h10v20h-10z" />
  <path fill="#CCC" d="M610 465h20v10h-20z" />
  <circle cx="630" cy="470" r="8.333" fill="#CCC" />
  <path fill="#CCC" d="M630 465h20v10h-20z" />
  <circle cx="650" cy="470" r="8.333" fill="#CCC" />
  <path fill="#CCC" d="M645 470h10v20h-10z" />
  <path fill="#CCC" d="M650 465h20v10h-20z" />
  <circle cx="670" cy="470" r="8.333" fill="#CCC" />
  <path fill="#CCC" d="M665 470h10v20h-10z" />
  <circle cx="710" cy="470" r="8.333" fill="#CCC" />
  <path fill="#CCC" d="M705 470h10v20h-10z" />
  <circle cx="90" cy="490" r="8.333" fill="#CCC" />
  <path fill="#CCC" d="M90 485h20v10H90z" />
  <circle cx="110" cy="490" r="8.333" fill="#CCC" />
  <path fill="#CCC" d="M110 485h20v10h-20z" />
  <circle cx="130" cy="490" r="8.333" fill="#CCC" />
  <circle cx="170" cy="490" r="8.333" fill="#CCC" />
  <circle cx="210" cy="490" r="8.333" fill="#CCC" />
  <circle cx="250" cy="490" r="8.333" fill="#CCC" />
  <path fill="#CCC" d="M250 485h20v10h-20z" />
  <circle cx="270" cy="490" r="8.333" fill="#CCC" />
  <path fill="#CCC" d="M270 485h20v10h-20z" />
  <circle cx="290" cy="490" r="8.333" fill="#CCC" />
  <path fill="#CCC" d="M290 485h20v10h-20z" />
  <circle cx="310" cy="490" r="8.333" fill="#CCC" />
  <path fill="#CCC" d="M305 490h10v20h-10z" />
  <path fill="#CCC" d="M310 485h20v10h-20z" />
  <circle cx="330" cy="490" r="8.333" fill="#CCC" />
  <path fill="#CCC" d="M330 485h20v10h-20z" />
  <circle cx="350" cy="490" r="8.333" fill="#CCC" />
  <path fill="#CCC" d="M345 490h10v20h-10z" />
  <circle cx="410" cy="490" r="8.333" fill="#CCC" />
  <path fill="#CCC" d="M405 490h10v20h-10z" />
  <circle cx="450" cy="490" r="8.333" fill="#CCC" />
  <path fill="#CCC" d="M445 490h10v20h-10z" />
  <circle cx="490" cy="490" r="8.333" fill="#CCC" />
  <path fill="#CCC" d="M485 490h10v20h-10z" />
  <circle cx="530" cy="490" r="8.333" fill="#CCC" />
  <path fill="#CCC" d="M525 490h10v20h-10z" />
  <circle cx="610" cy="490" r="8.333" fill="#CCC" />
  <circle cx="650" cy="490" r="8.333" fill="#CCC" />
  <path fill="#CCC" d="M650 485h20v10h-20z" />
  <circle cx="670" cy="490" r="8.333" fill="#CCC" />
  <path fill="#CCC" d="M665 490h10v20h-10z" />
  <path fill="#CCC" d="M670 485h20v10h-20z" />
  <circle cx="690" cy="490" r="8.333" fill="#CCC" />
  <path fill="#CCC" d="M690 485h20v10h-20z" />
  <circle cx="710" cy="490" r="8.333" fill="#CCC" />
  <path fill="#CCC" d="M705 490h10v20h-10z" />
  <circle cx="150" cy="510" r="8.333" fill="#CCC" />
  <path fill="#CCC" d="M145 510h10v20h-10z" />
  <circle cx="310" cy="510" r="8.333" fill="#CCC" />
  <path fill="#CCC" d="M305 510h10v20h-10z" />
  <circle cx="350" cy="510" r="8.333" fill="#CCC" />
  <path fill="#CCC" d="M345 510h10v20h-10z" />
  <path fill="#CCC" d="M350 505h20v10h-20z" />
  <circle cx="370" cy="510" r="8.333" fill="#CCC" />
  <path fill="#CCC" d="M370 505h20v10h-20z" />
  <circle cx="390" cy="510" r="8.333" fill="#CCC" />
  <path fill="#CCC" d="M385 510h10v20h-10z" />
  <path fill="#CCC" d="M390 505h20v10h-20z" />
  <circle cx="410" cy="510" r="8.333" fill="#CCC" />
  <path fill="#CCC" d="M405 510h10v20h-10z" />
  <path fill="#CCC" d="M410 505h20v10h-20z" />
  <circle cx="430" cy="510" r="8.333" fill="#CCC" />
  <path fill="#CCC" d="M430 505h20v10h-20z" />
  <circle cx="450" cy="510" r="8.333" fill="#CCC" />
  <path fill="#CCC" d="M445 510h10v20h-10z" />
  <path fill="#CCC" d="M450 505h20v10h-20z" />
  <circle cx="470" cy="510" r="8.333" fill="#CCC" />
  <path fill="#CCC" d="M465 510h10v20h-10z" />
  <path fill="#CCC" d="M470 505h20v10h-20z" />
  <circle cx="490" cy="510" r="8.333" fill="#CCC" />
  <path fill="#CCC" d="M485 510h10v20h-10z" />
  <path fill="#CCC" d="M490 505h20v10h-20z" />
  <circle cx="510" cy="510" r="8.333" fill="#CCC" />
  <path fill="#CCC" d="M505 510h10v20h-10z" />
  <path fill="#CCC" d="M510 505h20v10h-20z" />
  <circle cx="530" cy="510" r="8.333" fill="#CCC" />
  <path fill="#CCC" d="M525 510h10v20h-10z" />
  <circle cx="590" cy="510" r="8.333" fill="#CCC" />
  <circle cx="670" cy="510" r="8.333" fill="#CCC" />
  <circle cx="710" cy="510" r="8.333" fill="#CCC" />
  <circle cx="90" cy="530" r="8.333" fill="#CCC" />
  <circle cx="130" cy="530" r="8.333" fill="#CCC" />
  <path fill="#CCC" d="M130 525h20v10h-20z" />
  <circle cx="150" cy="530" r="8.333" fill="#CCC" />
  <path fill="#CCC" d="M145 530h10v20h-10z" />
  <path fill="#CCC" d="M150 525h20v10h-20z" />
  <circle cx="170" cy="530" r="8.333" fill="#CCC" />
  <circle cx="210" cy="530" r="8.333" fill="#CCC" />
  <path fill="#CCC" d="M210 525h20v10h-20z" />
  <circle cx="230" cy="530" r="8.333" fill="#CCC" />
  <circle cx="310" cy="530" r="8.333" fill="#CCC" />
  <circle cx="350" cy="530" r="8.333" fill="#CCC" />
  <circle cx="390" cy="530" r="8.333" fill="#CCC" />
  <path fill="#CCC" d="M390 525h20v10h-20z" />
  <circle cx="410" cy="530" r="8.333" fill="#CCC" />
  <path fill="#CCC" d="M405 530h10v20h-10z" />
  <circle cx="450" cy="530" r="8.333" fill="#CCC" />
  <path fill="#CCC" d="M450 525h20v10h-20z" />
  <circle cx="470" cy="530" r="8.333" fill="#CCC" />
  <path fill="#CCC" d="M470 525h20v10h-20z" />
  <circle cx="490" cy="530" r="8.333" fill="#CCC" />
  <path fill="#CCC" d="M485 530h10v20h-10z" />
  <path fill="#CCC" d="M490 525h20v10h-20z" />
  <circle cx="510" cy="530" r="8.333" fill="#CCC" />
  <path fill="#CCC" d="M510 525h20v10h-20z" />
  <circle cx="530" cy="530" r="8.333" fill="#CCC" />
  <path fill="#CCC" d="M530 525h20v10h-20z" />
  <circle cx="550" cy="530" r="8.333" fill="#CCC" />
  <path fill="#CCC" d="M545 530h10v20h-10z" />
  <path fill="#CCC" d="M550 525h20v10h-20z" />
  <circle cx="570" cy="530" r="8.333" fill="#CCC" />
  <circle cx="610" cy="530" r="8.333" fill="#CCC" />
  <circle cx="650" cy="530" r="8.333" fill="#CCC" />
  <circle cx="690" cy="530" r="8.333" fill="#CCC" />
  <circle cx="110" cy="550" r="8.333" fill="#CCC" />
  <circle cx="150" cy="550" r="8.333" fill="#CCC" />
  <circle cx="270" cy="550" r="8.333" fill="#CCC" />
  <path fill="#CCC" d="M270 545h20v10h-20z" />
  <circle cx="290" cy="550" r="8.333" fill="#CCC" />
  <path fill="#CCC" d="M285 550h10v20h-10z" />
  <circle cx="330" cy="550" r="8.333" fill="#CCC" />
  <circle cx="410" cy="550" r="8.333" fill="#CCC" />
  <path fill="#CCC" d="M405 550h10v20h-10z" />
  <path fill="#CCC" d="M410 545h20v10h-20z" />
  <circle cx="430" cy="550" r="8.333" fill="#CCC" />
  <circle cx="490" cy="550" r="8.333" fill="#CCC" />
  <path fill="#CCC" d="M485 550h10v20h-10z" />
  <circle cx="550" cy="550" r="8.333" fill="#CCC" />
  <circle cx="590" cy="550" r="8.333" fill="#CCC" />
  <path fill="#CCC" d="M585 550h10v20h-10z" />
  <circle cx="670" cy="550" r="8.333" fill="#CCC" />
  <circle cx="710" cy="550" r="8.333" fill="#CCC" />
  <circle cx="90" cy="570" r="8.333" fill="#CCC" />
  <circle cx="190" cy="570" r="8.333" fill="#CCC" />
  <path fill="#CCC" d="M190 565h20v10h-20z" />
  <circle cx="210" cy="570" r="8.333" fill="#CCC" />
  <path fill="#CCC" d="M210 565h20v10h-20z" />
  <circle cx="230" cy="570" r="8.333" fill="#CCC" />
  <circle cx="290" cy="570" r="8.333" fill="#CCC" />
  <path fill="#CCC" d="M285 570h10v20h-10z" />
  <circle cx="350" cy="570" r="8.333" fill="#CCC" />
  <path fill="#CCC" d="M350 565h20v10h-20z" />
  <circle cx="370" cy="570" r="8.333" fill="#CCC" />
  <path fill="#CCC" d="M370 565h20v10h-20z" />
  <circle cx="390" cy="570" r="8.333" fill="#CCC" />
  <path fill="#CCC" d="M385 570h10v20h-10z" />
  <path fill="#CCC" d="M390 565h20v10h-20z" />
  <circle cx="410" cy="570" r="8.333" fill="#CCC" />
  <path fill="#CCC" d="M405 570h10v20h-10z" />
  <circle cx="470" cy="570" r="8.333" fill="#CCC" />
  <path fill="#CCC" d="M465 570h10v20h-10z" />
  <path fill="#CCC" d="M470 565h20v10h-20z" />
  <circle cx="490" cy="570" r="8.333" fill="#CCC" />
  <circle cx="530" cy="570" r="8.333" fill="#CCC" />
  <circle cx="570" cy="570" r="8.333" fill="#CCC" />
  <path fill="#CCC" d="M565 570h10v20h-10z" />
  <path fill="#CCC" d="M570 565h20v10h-20z" />
  <circle cx="590" cy="570" r="8.333" fill="#CCC" />
  <path fill="#CCC" d="M590 565h20v10h-20z" />
  <circle cx="610" cy="570" r="8.333" fill="#CCC" />
  <path fill="#CCC" d="M610 565h20v10h-20z" />
  <circle cx="630" cy="570" r="8.333" fill="#CCC" />
  <path fill="#CCC" d="M630 565h20v10h-20z" />
  <circle cx="650" cy="570" r="8.333" fill="#CCC" />
  <path fill="#CCC" d="M645 570h10v20h-10z" />
  <circle cx="690" cy="570" r="8.333" fill="#CCC" />
  <circle cx="730" cy="570" r="8.333" fill="#CCC" />
  <path fill="#CCC" d="M725 570h10v20h-10z" />
  <circle cx="250" cy="590" r="8.333" fill="#CCC" />
  <circle cx="290" cy="590" r="8.333" fill="#CCC" />
  <path fill="#CCC" d="M285 590h10v20h-10z" />
  <circle cx="390" cy="590" r="8.333" fill="#CCC" />
  <path fill="#CCC" d="M390 585h20v10h-20z" />
  <circle cx="410" cy="590" r="8.333" fill="#CCC" />
  <circle cx="470" cy="590" r="8.333" fill="#CCC" />
  <circle cx="570" cy="590" r="8.333" fill="#CCC" />
  <path fill="#CCC" d="M565 590h10v20h-10z" />
  <circle cx="650" cy="590" r="8.333" fill="#CCC" />
  <path fill="#CCC" d="M645 590h10v20h-10z" />
  <circle cx="710" cy="590" r="8.333" fill="#CCC" />
  <path fill="#CCC" d="M705 590h10v20h-10z" />
  <path fill="#CCC" d="M710 585h20v10h-20z" />
  <circle cx="730" cy="590" r="8.333" fill="#CCC" />
  <path fill="#CCC" d="M725 590h10v20h-10z" />
  <circle cx="270" cy="610" r="8.333" fill="#CCC" />
  <path fill="#CCC" d="M265 610h10v20h-10z" />
  <path fill="#CCC" d="M270 605h20v10h-20z" />
  <circle cx="290" cy="610" r="8.333" fill="#CCC" />
  <path fill="#CCC" d="M285 610h10v20h-10z" />
  <circle cx="370" cy="610" r="8.333" fill="#CCC" />
  <circle cx="430" cy="610" r="8.333" fill="#CCC" />
  <circle cx="490" cy="610" r="8.333" fill="#CCC" />
  <path fill="#CCC" d="M485 610h10v20h-10z" />
  <path fill="#CCC" d="M490 605h20v10h-20z" />
  <circle cx="510" cy="610" r="8.333" fill="#CCC" />
  <circle cx="570" cy="610" r="8.333" fill="#CCC" />
  <path fill="#CCC" d="M565 610h10v20h-10z" />
  <circle cx="610" cy="610" r="8.333" fill="#CCC" />
  <circle cx="650" cy="610" r="8.333" fill="#CCC" />
  <path fill="#CCC" d="M645 610h10v20h-10z" />
  <circle cx="690" cy="610" r="8.333" fill="#CCC" />
  <path fill="#CCC" d="M690 605h20v10h-20z" />
  <circle cx="710" cy="610" r="8.333" fill="#CCC" />
  <path fill="#CCC" d="M710 605h20v10h-20z" />
  <circle cx="730" cy="610" r="8.333" fill="#CCC" />
  <circle cx="270" cy="630" r="8.333" fill="#CCC" />
  <path fill="#CCC" d="M270 625h20v10h-20z" />
  <circle cx="290" cy="630" r="8.333" fill="#CCC" />
  <circle cx="490" cy="630" r="8.333" fill="#CCC" />
  <circle cx="550" cy="630" r="8.333" fill="#CCC" />
  <path fill="#CCC" d="M550 625h20v10h-20z" />
  <circle cx="570" cy="630" r="8.333" fill="#CCC" />
  <path fill="#CCC" d="M565 630h10v20h-10z" />
  <circle cx="650" cy="630" r="8.333" fill="#CCC" />
  <path fill="#CCC" d="M645 630h10v20h-10z" />
  <circle cx="250" cy="650" r="8.333" fill="#CCC" />
  <circle cx="310" cy="650" r="8.333" fill="#CCC" />
  <path fill="#CCC" d="M305 650h10v20h-10z" />
  <circle cx="370" cy="650" r="8.333" fill="#CCC" />
  <path fill="#CCC" d="M370 645h20v10h-20z" />
  <circle cx="390" cy="650" r="8.333" fill="#CCC" />
  <path fill="#CCC" d="M385 650h10v20h-10z" />
  <circle cx="470" cy="650" r="8.333" fill="#CCC" />
  <path fill="#CCC" d="M465 650h10v20h-10z" />
  <circle cx="570" cy="650" r="8.333" fill="#CCC" />
  <path fill="#CCC" d="M570 645h20v10h-20z" />
  <circle cx="590" cy="650" r="8.333" fill="#CCC" />
  <path fill="#CCC" d="M585 650h10v20h-10z" />
  <path fill="#CCC" d="M590 645h20v10h-20z" />
  <circle cx="610" cy="650" r="8.333" fill="#CCC" />
  <path fill="#CCC" d="M605 650h10v20h-10z" />
  <path fill="#CCC" d="M610 645h20v10h-20z" />
  <circle cx="630" cy="650" r="8.333" fill="#CCC" />
  <path fill="#CCC" d="M625 650h10v20h-10z" />
  <path fill="#CCC" d="M630 645h20v10h-20z" />
  <circle cx="650" cy="650" r="8.333" fill="#CCC" />
  <path fill="#CCC" d="M645 650h10v20h-10z" />
  <circle cx="690" cy="650" r="8.333" fill="#CCC" />
  <circle cx="730" cy="650" r="8.333" fill="#CCC" />
  <path fill="#CCC" d="M725 650h10v20h-10z" />
  <circle cx="270" cy="670" r="8.333" fill="#CCC" />
  <path fill="#CCC" d="M265 670h10v20h-10z" />
  <path fill="#CCC" d="M270 665h20v10h-20z" />
  <circle cx="290" cy="670" r="8.333" fill="#CCC" />
  <path fill="#CCC" d="M290 665h20v10h-20z" />
  <circle cx="310" cy="670" r="8.333" fill="#CCC" />
  <circle cx="350" cy="670" r="8.333" fill="#CCC" />
  <circle cx="390" cy="670" r="8.333" fill="#CCC" />
  <circle cx="470" cy="670" r="8.333" fill="#CCC" />
  <circle cx="550" cy="670" r="8.333" fill="#CCC" />
  <circle cx="590" cy="670" r="8.333" fill="#CCC" />
  <path fill="#CCC" d="M585 670h10v20h-10z" />
  <path fill="#CCC" d="M590 665h20v10h-20z" />
  <circle cx="610" cy="670" r="8.333" fill="#CCC" />
  <path fill="#CCC" d="M610 665h20v10h-20z" />
  <circle cx="630" cy="670" r="8.333" fill="#CCC" />
  <path fill="#CCC" d="M625 670h10v20h-10z" />
  <path fill="#CCC" d="M630 665h20v10h-20z" />
  <circle cx="650" cy="670" r="8.333" fill="#CCC" />
  <path fill="#CCC" d="M645 670h10v20h-10z" />
  <circle cx="710" cy="670" r="8.333" fill="#CCC" />
  <path fill="#CCC" d="M710 665h20v10h-20z" />
  <circle cx="730" cy="670" r="8.333" fill="#CCC" />
  <path fill="#CCC" d="M725 670h10v20h-10z" />
  <circle cx="250" cy="690" r="8.333" fill="#CCC" />
  <path fill="#CCC" d="M250 685h20v10h-20z" />
  <circle cx="270" cy="690" r="8.333" fill="#CCC" />
  <circle cx="450" cy="690" r="8.333" fill="#CCC" />
  <circle cx="530" cy="690" r="8.333" fill="#CCC" />
  <circle cx="590" cy="690" r="8.333" fill="#CCC" />
  <circle cx="630" cy="690" r="8.333" fill="#CCC" />
  <path fill="#CCC" d="M630 685h20v10h-20z" />
  <circle cx="650" cy="690" r="8.333" fill="#CCC" />
  <circle cx="690" cy="690" r="8.333" fill="#CCC" />
  <circle cx="730" cy="690" r="8.333" fill="#CCC" />
  <path fill="#CCC" d="M725 690h10v20h-10z" />
  <circle cx="290" cy="710" r="8.333" fill="#CCC" />
  <path fill="#CCC" d="M285 710h10v20h-10z" />
  <circle cx="330" cy="710" r="8.333" fill="#CCC" />
  <path fill="#CCC" d="M330 705h20v10h-20z" />
  <circle cx="350" cy="710" r="8.333" fill="#CCC" />
  <path fill="#CCC" d="M350 705h20v10h-20z" />
  <circle cx="370" cy="710" r="8.333" fill="#CCC" />
  <path fill="#CCC" d="M365 710h10v20h-10z" />
  <path fill="#CCC" d="M370 705h20v10h-20z" />
  <circle cx="390" cy="710" r="8.333" fill="#CCC" />
  <circle cx="430" cy="710" r="8.333" fill="#CCC" />
  <circle cx="470" cy="710" r="8.333" fill="#CCC" />
  <circle cx="510" cy="710" r="8.333" fill="#CCC" />
  <path fill="#CCC" d="M505 710h10v20h-10z" />
  <circle cx="550" cy="710" r="8.333" fill="#CCC" />
  <circle cx="670" cy="710" r="8.333" fill="#CCC" />
  <path fill="#CCC" d="M665 710h10v20h-10z" />
  <circle cx="710" cy="710" r="8.333" fill="#CCC" />
  <path fill="#CCC" d="M710 705h20v10h-20z" />
  <circle cx="730" cy="710" r="8.333" fill="#CCC" />
  <path fill="#CCC" d="M725 710h10v20h-10z" />
  <circle cx="250" cy="730" r="8.333" fill="#CCC" />
  <path fill="#CCC" d="M250 725h20v10h-20z" />
  <circle cx="270" cy="730" r="8.333" fill="#CCC" />
  <path fill="#CCC" d="M270 725h20v10h-20z" />
  <circle cx="290" cy="730" r="8.333" fill="#CCC" />
  <circle cx="370" cy="730" r="8.333" fill="#CCC" />
  <circle cx="410" cy="730" r="8.333" fill="#CCC" />
  <circle cx="450" cy="730" r="8.333" fill="#CCC" />
  <circle cx="490" cy="730" r="8.333" fill="#CCC" />
  <path fill="#CCC" d="M490 725h20v10h-20z" />
  <circle cx="510" cy="730" r="8.333" fill="#CCC" />
  <path fill="#CCC" d="M510 725h20v10h-20z" />
  <circle cx="530" cy="730" r="8.333" fill="#CCC" />
  <circle cx="610" cy="730" r="8.333" fill="#CCC" />
  <circle cx="650" cy="730" r="8.333" fill="#CCC" />
  <path fill="#CCC" d="M650 725h20v10h-20z" />
  <circle cx="670" cy="730" r="8.333" fill="#CCC" />
  <path fill="#CCC" d="M670 725h20v10h-20z" />
  <circle cx="690" cy="730" r="8.333" fill="#CCC" />
  <circle cx="730" cy="730" r="8.333" fill="#CCC" />
  <path
    d="M80 80h112a28 28 0 0128 28v84a28 28 0 01-28 28h-84a28 28 0 01-28-28v-84a28 28 0 0128-28zm20 20h80a20 20 0 0120 20v60a20 20 0 01-20 20h-60a20 20 0 01-20-20v-60a20 20 0 0120-20zm500-20h112a28 28 0 0128 28v84a28 28 0 01-28 28h-84a28 28 0 01-28-28v-84a28 28 0 0128-28zm20 20h80a20 20 0 0120 20v60a20 20 0 01-20 20h-60a20 20 0 01-20-20v-60a20 20 0 0120-20z"
    fill-rule="evenodd" fill="#CCC" />
  <rect x="120" y="120" rx="20" ry="20" width="60" height="60" fill="#090" />
  <rect x="640" y="120" rx="20" ry="20" width="60" height="60" fill="#090" />
  <path
    d="M80 600h112a28 28 0 0128 28v84a28 28 0 01-28 28h-84a28 28 0 01-28-28v-84a28 28 0 0128-28zm20 20h80a20 20 0 0120 20v60a20 20 0 01-20 20h-60a20 20 0 01-20-20v-60a20 20 0 0120-20z"
    fill-rule="evenodd" fill="#CCC" />
  <rect x="120" y="640" rx="20" ry="20" width="60" height="60" fill="#090" />
</svg>