<?xml version="1.0" encoding="utf-8"?>
<!-- Generator: Adobe Illustrator 26.3.1, SVG Export Plug-In . SVG Version: 6.00 Build 0)  -->
<svg version="1.1" id="Calque_1" xmlns="http://www.w3.org/2000/svg" xmlns:xlink="http://www.w3.org/1999/xlink" x="0px" y="0px"
	 viewBox="0 0 200 200" style="enable-background:new 0 0 200 200;" xml:space="preserve">
<style type="text/css">
	.st0{fill:#666666;}
	.st1{fill:#009900;}
	.st2{fill:#10101A;}
	.st3{fill:#E7F4DF;}
	.st4{fill:none;stroke:#E7F4DF;stroke-miterlimit:10;}
	.st5{fill:#FD1015;}
	.st6{fill:#0F0F23;}
	.st7{fill:#99FF99;}
	.st8{fill:#333340;}
</style>
<g>
	<path class="st0" d="M148.7,112.3c-1-4.8-1.9-8.9-3.1-13.6c-0.2-0.5-0.4-1-0.5-1.6c-0.1-0.6-1,0.9-0.9,0.4c-0.2,0,0.5-2.1,0.4-2.1
		c0-0.1,0-2.8,0-2.9c-1.1-4.5-0.4-1.5-2.2-5.8c0.6-3.1,2-6.9,2.3-10.1c0.4-3.6,5.6-5.9,3.8-9.1c-0.8-1.3-2-2.5-3.5-2.9
		c-1.9-0.5-12.9,3.6-14.6,4.5c-3.4,1.7-8.1-5.3-11.2-3.1c-15.2-7.2-46.2-1.5-62,4.4c-1.4-1.2-10.4-0.9-12.1-1.7
		c-1.8-0.9-3.8-1.7-5.8-1c-1.3,0.4-2.4,1.4-2.7,2.8c-0.2,0.7-0.2,1.4-0.3,2.1C36,75.2,47.1,87,45.1,93.1c-0.1,0-0.3,0-0.6,0
		c-0.1,0.4-0.2,0.7-0.4,1.1c-0.1,0.2-0.2,0.5-0.3,0.7c-0.4,0.8-2.3,3.6-2.4,4.5c0,0,0,0,0,0c0,0,0,0,0,0c0.1,3.8-5.2,22.2-5,22.5
		c0.1,0.3,4.3,24,13.3,35.8c-0.1,0.3-0.1,0.5-0.2,0.8c-0.5,1.6-1,3.1-1.2,4.8c-0.2,1.7-0.4,3.6-0.2,5.3c0.2,1.7,1.6,2.6,3.1,2.9
		c3.3,0.6,6.6-0.8,9.3-2.5c0.9-0.5,1.7-1.1,2.6-1.8c16,6.5,35.6,10.1,51.8,2.5c0.1,0,0.3-0.1,0.4-0.2c0.8-0.5,2.3-1.1,2.9-1.8
		c1.1-1.4,3.2,1.8,4.3,2.4c2.7,1.6,5.2,5.1,8.4,3.6c2.9-1.3,3.8-5,3.5-8c-0.1-1-0.2-2-0.4-3c2.2-2.7,4.6-5.2,6.5-8
		c2.2-3.2,3.8-6.9,5.3-10.5c2.5-6.2,5.7-22.5,5-25.5C150,118.1,148.9,113.2,148.7,112.3z"/>
</g>
<path class="st1" d="M151.3,111.8c-1.4-3.2-3.4-6.1-5-9.2c-0.8-1.6-1.4-3.2-1.7-4.9c-0.2-1-1.7,2.6-2.5,3c-6.3,3.5-11.6,5.8-18.5,8
	c-6.9,2.2-14.8,0.3-22,0.9c-13,1.1-26.2,1.8-39.1-0.7c-7.1-1.4-14.1-3.7-20.4-7.3c-0.6-0.3-1.1-0.2-1.6,0.1c0,0,0,0-0.1,0
	c-2.9-1.2-2.9,2.1-2.9,5.2c0,1.7-2.7,2.2-1.7,3.5c0.4,0.6,0.9,1.2,1.1,1.8c0.3,1-0.1,2-0.4,2.9c-0.7,2-1.3,3.9-1.5,6
	c-0.2,2.1-0.1,4.3,0.1,6.4c0.3,3.4,0.8,6.7,1.5,10c1.5,6.2,4.3,12.5,9.8,16.2c3.3,2.2,7.3,2.9,10.9,4.3c3.1,1.3,6.3,3.5,6.6,7.1
	c0.2,1.9,1,3.3,3,3.8c2.1,0.5,4.3,0.7,6.5,1c4.4,0.6,8.9,0.9,13.3,1.1c7.9,0.4,16.3,1.3,24.2-0.6c3.7-0.9,7-2.5,9.9-4.8
	c2.7-2.1,5.1-4.9,8.5-5.9c1.9-0.5,3.8-0.5,5.5-1.4c1.7-0.9,3.1-2.2,4.4-3.6c2.5-2.6,4.4-5.7,6-9c1.6-3.3,2.8-6.8,3.8-10.4
	c1.1-3.8,2.2-7.6,2.9-11.5C153.1,119.6,152.9,115.7,151.3,111.8z"/>
<path class="st2" d="M145.9,141.4c-26.6,7.2-54.2,9.1-81.6,6.1c-7.1-0.8-14.2-1.8-21.1-3.5c-0.1-0.2-0.2-0.4-0.3-0.5
	c-0.6-1.2-2-0.8-2.5,0c2.2-0.1,0.3,1.6,1.8,2c0.3,0.1-1.3,1-1,1.1c1.6,3,3.5,5.9,6,8.3c1.4,1.3,3,2.4,4.8,3c2.2,0.8,4.2,1.2,6.4,1.6
	c2,0.4,3.8,1.3,4.3,3.3c0.6,2.3,2.4,2.5,4.2,4.2c3.4,3,7.2,3.9,11.6,4.4c10.4,1.4,19.5-0.6,29.8-0.9c4.2-0.2,9.6-3.4,12.7-2.4
	c3.5,1.1,4.6-4.1,8.9-5.6c1.1-0.4,1.7-0.2,2.7,0.3c1.1,0.5,1.6-0.9,2.5-1.6c1.9-1.4,2.5-4.2,3.9-6.1c3.1-4.1,7.3-7.1,8.7-12.1
	C148.1,142.1,147,141.1,145.9,141.4z"/>
<g>
	<g>
		<path class="st3" d="M45.6,87.8c-1.6-1.6-2.8-3.5-3.9-5.4c-1.2-2.2-2.4-4.4-3.4-6.7c-0.3-0.7-0.8-1.8-1.1-2.4
			c-0.2-0.4-0.5-0.9-0.5-1.4c-0.1-1,1.6-1.7,2.6-1.9c1.8-0.3,3.7-0.3,5.5-0.3c4,0,7.9,0.7,11.7,1.9c1.9,0.5,2.6-2.3,0.8-2.9
			c-3.8-1.1-7.8-1.9-11.8-2c-2.1,0-4.2,0-6.2,0.3c-1.9,0.3-3.8,1-4.9,2.7c-1.2,2-0.3,3.7,0.5,5.6c1.1,2.4,2.2,4.8,3.5,7.1
			c1.4,2.6,3,5.3,5.1,7.4C44.8,91.2,46.9,89.1,45.6,87.8L45.6,87.8z"/>
	</g>
</g>
<g>
	<g>
		<path class="st3" d="M128,69.3c0.4,1.7,0.5,3.5,1.6,4.8c1.5,1.7,4.6,1.8,6.4,0.6c1.2-0.8,2.1-1.9,3.3-2.8c1-0.8,2.1-1.8,3.3-2.2
			c1.8-0.5,0.7,2.1,0.4,2.9c-0.5,1.5-0.9,3.1-1.3,4.7c-0.5,1.7-0.9,3.5-1.1,5.3c-0.1,1.3-0.1,2.8,0.6,3.9c0.5,0.8,1.8,0.1,1.3-0.8
			c-0.6-1-0.5-2.4-0.3-3.5c0.2-1.6,0.6-3.2,1-4.8c0.4-1.6,0.8-3.2,1.3-4.7c0.4-1.2,1-2.7,0.2-3.8c-1.8-2.3-4.8,0.6-6.3,1.8
			c-0.5,0.4-1,0.8-1.5,1.2c-0.5,0.5-1,1.1-1.6,1.5c-1,0.6-2.7,0.8-3.8,0.3c-1.7-0.8-1.7-3.3-2.1-4.8C129.3,68,127.8,68.3,128,69.3
			L128,69.3z"/>
	</g>
</g>
<g>
	<g>
		<path class="st3" d="M56.7,70.3c-0.5,0.8-0.7,1.7-1.1,2.5c-0.2,0.4-0.4,0.8-0.8,1c-0.6,0.3-1.4,0.3-2,0.2
			c-2.8-0.2-5.7-0.9-8.5-1.3c-1.6-0.2-4.2-0.4-4.7,1.6c-0.3,1,0.2,2,0.6,2.9c0.5,1.1,1,2.1,1.4,3.3c1,2.8,1.7,5.6,2.9,8.3
			c0.4,0.9,1.7,0.1,1.3-0.8c-1.3-3-2-6.2-3.2-9.2c-0.5-1.1-1.3-2.3-1.5-3.5c-0.3-1.5,1.6-1.2,2.6-1.2c1.7,0.1,3.3,0.5,5,0.8
			c1.5,0.2,3.2,0.6,4.7,0.6c1.3,0,2.5-0.3,3.2-1.5c0.6-1,0.8-2.1,1.4-3.1C58.5,70.2,57.2,69.5,56.7,70.3L56.7,70.3z"/>
	</g>
</g>
<g>
	<g>
		<path class="st3" d="M40.6,73.1c-1.5-0.7-2.8-1.7-3.8-3c-0.1-0.2-0.3-0.2-0.5-0.1c-0.2,0.1-0.3,0.4-0.1,0.5
			c1.1,1.4,2.5,2.5,4.1,3.3c0.2,0.1,0.4,0.1,0.5-0.1C40.9,73.5,40.8,73.2,40.6,73.1L40.6,73.1z"/>
	</g>
</g>
<g>
	<g>
		<path class="st3" d="M42.7,73.1c-1.3-1.4-2.7-2.8-4-4.1c-0.3-0.3-0.9,0.2-0.5,0.5c1.3,1.4,2.7,2.8,4,4.1
			C42.6,74,43.1,73.5,42.7,73.1L42.7,73.1z"/>
	</g>
</g>
<g>
	<g>
		<path class="st3" d="M44.8,72.9c-1.2-1.1-2.1-2.5-2.9-3.9c-0.2-0.4-0.9-0.1-0.6,0.4c0.8,1.5,1.8,2.9,3,4.1
			C44.6,73.8,45.1,73.3,44.8,72.9L44.8,72.9z"/>
	</g>
</g>
<g>
	<g>
		<path class="st3" d="M47.2,73.6c-1.3-1.5-2.4-3.1-3.4-4.8c-0.2-0.4-0.9,0-0.6,0.4c1,1.7,2.2,3.4,3.5,5C47,74.5,47.5,74,47.2,73.6
			L47.2,73.6z"/>
	</g>
</g>
<g>
	<g>
		<path class="st3" d="M49.5,74.1c-1.2-1.4-2.2-3-2.8-4.7c-0.2-0.5-0.9-0.3-0.7,0.2c0.6,1.9,1.6,3.6,3,5
			C49.3,74.9,49.9,74.4,49.5,74.1L49.5,74.1z"/>
	</g>
</g>
<g>
	<g>
		<path class="st3" d="M51.5,74.3c-1.1-1.3-1.9-2.8-2.3-4.5c-0.1-0.5-0.8-0.3-0.7,0.2c0.5,1.8,1.3,3.4,2.5,4.8
			C51.3,75.2,51.8,74.6,51.5,74.3L51.5,74.3z"/>
	</g>
</g>
<g>
	<g>
		<path class="st3" d="M53.4,74.6c-0.9-1.3-1.5-2.8-1.8-4.4c-0.1-0.5-0.8-0.3-0.7,0.2c0.3,1.6,1,3.2,1.9,4.6
			C53,75.4,53.7,75.1,53.4,74.6L53.4,74.6z"/>
	</g>
</g>
<g>
	<g>
		<path class="st3" d="M54.6,74.1c-0.7-1.4-1.1-2.8-1.3-4.3c0-0.2-0.2-0.4-0.4-0.4c-0.2,0-0.4,0.2-0.4,0.4c0.2,1.6,0.7,3.2,1.4,4.7
			C54.1,74.9,54.8,74.6,54.6,74.1L54.6,74.1z"/>
	</g>
</g>
<g>
	<g>
		<path class="st3" d="M40.3,75.3c-1.6-0.5-3.1-1.1-4.7-1.6c-0.5-0.2-0.7,0.6-0.2,0.7c1.6,0.5,3.1,1.1,4.7,1.6
			C40.5,76.1,40.7,75.4,40.3,75.3L40.3,75.3z"/>
	</g>
</g>
<g>
	<g>
		<path class="st3" d="M41.2,77.7c-1.1-0.2-2.2-0.6-3.2-1c-0.2-0.1-0.4-0.1-0.5,0.1c-0.1,0.2-0.1,0.4,0.1,0.5
			c1.1,0.5,2.2,0.8,3.4,1.1c0.2,0,0.4-0.1,0.5-0.3C41.5,78,41.4,77.8,41.2,77.7L41.2,77.7z"/>
	</g>
</g>
<g>
	<g>
		<path class="st3" d="M42.7,80.2c-1.1-0.3-2.2-0.7-3.3-1c-0.5-0.1-0.7,0.6-0.2,0.7c1.1,0.3,2.2,0.7,3.3,1
			C43,81,43.2,80.3,42.7,80.2L42.7,80.2z"/>
	</g>
</g>
<g>
	<g>
		<path class="st3" d="M43.1,82.3c-1.6-0.2-3.1-0.5-4.6-1c-0.5-0.1-0.7,0.6-0.2,0.7c1.6,0.5,3.2,0.8,4.8,1c0.2,0,0.4-0.2,0.4-0.4
			C43.5,82.4,43.3,82.3,43.1,82.3L43.1,82.3z"/>
	</g>
</g>
<g>
	<g>
		<path class="st3" d="M139.4,71c0.3-2,0.6-4,0.7-6c0-0.5-0.7-0.5-0.8,0c-0.1,2-0.3,3.9-0.7,5.8C138.6,71.2,139.3,71.5,139.4,71
			L139.4,71z"/>
	</g>
</g>
<g>
	<g>
		<path class="st3" d="M137.9,72.6c0.2-2.3,0.4-4.7,0.4-7c0-0.5-0.7-0.5-0.8,0c0,2.3-0.2,4.7-0.4,7C137.1,73,137.9,73,137.9,72.6
			L137.9,72.6z"/>
	</g>
</g>
<g>
	<g>
		<path class="st3" d="M136.5,73.9c0-2.6,0.1-5.2,0.1-7.8c0-0.5-0.7-0.5-0.8,0c0,2.6-0.1,5.2-0.1,7.8
			C135.8,74.4,136.5,74.4,136.5,73.9L136.5,73.9z"/>
	</g>
</g>
<g>
	<g>
		<path class="st3" d="M135.2,74.2c0-2.1,0-4.3,0-6.4c0-0.5-0.8-0.5-0.8,0c0,2.1,0,4.3,0,6.4C134.5,74.7,135.2,74.7,135.2,74.2
			L135.2,74.2z"/>
	</g>
</g>
<g>
	<g>
		<path class="st3" d="M133.4,74.2c-0.2-2-0.4-4.1-0.3-6.1c0-0.5-0.7-0.5-0.8,0c0,2.1,0.1,4.1,0.3,6.1
			C132.7,74.7,133.4,74.7,133.4,74.2L133.4,74.2z"/>
	</g>
</g>
<g>
	<g>
		<path class="st3" d="M131.3,72.9c-0.5-1.2-0.5-2.5-0.1-3.8c0.1-0.5-0.6-0.7-0.7-0.2c-0.4,1.3-0.4,2.8,0.1,4.2
			c0.1,0.2,0.3,0.3,0.5,0.3C131.2,73.3,131.4,73.1,131.3,72.9L131.3,72.9z"/>
	</g>
</g>
<g>
	<g>
		<path class="st3" d="M144.7,71.4c0.5-0.7,1.1-1.3,1.6-2c0.1-0.2,0.2-0.4,0-0.5c-0.1-0.1-0.4-0.2-0.5,0c-0.5,0.7-1.1,1.3-1.6,2
			c-0.1,0.2-0.2,0.4,0,0.5C144.3,71.6,144.6,71.6,144.7,71.4L144.7,71.4z"/>
	</g>
</g>
<g>
	<g>
		<path class="st3" d="M144,74c0.7-0.9,1.6-1.6,2.6-2.1c0.2-0.1,0.3-0.2,0.3-0.5c0-0.2-0.3-0.3-0.5-0.3c-1.2,0.5-2.3,1.3-3.1,2.4
			c-0.1,0.2,0,0.4,0.1,0.5C143.7,74.3,143.9,74.2,144,74L144,74z"/>
	</g>
</g>
<g>
	<g>
		<path class="st3" d="M143,77.8c0.6-1.2,1.6-2.1,2.8-2.6c0.2-0.1,0.3-0.3,0.3-0.5c-0.1-0.2-0.3-0.3-0.5-0.3
			c-1.4,0.5-2.6,1.6-3.3,2.9c-0.1,0.2-0.1,0.4,0.1,0.5C142.7,78,142.9,78,143,77.8L143,77.8z"/>
	</g>
</g>
<g>
	<g>
		<path class="st3" d="M142.5,80.7c0.9-1.1,2-2.1,3.1-2.9c0.2-0.1,0.2-0.3,0.1-0.5c-0.1-0.2-0.4-0.3-0.5-0.1c-1.2,0.9-2.3,1.9-3.3,3
			c-0.1,0.2-0.1,0.4,0,0.5C142.1,80.8,142.4,80.8,142.5,80.7L142.5,80.7z"/>
	</g>
</g>
<g>
	<g>
		<path class="st3" d="M55.6,73.2c-0.3-1-0.5-2-0.6-3c0-0.2-0.2-0.4-0.4-0.4c-0.2,0-0.4,0.2-0.4,0.4c0.1,1.1,0.3,2.2,0.7,3.2
			C55,73.9,55.8,73.7,55.6,73.2L55.6,73.2z"/>
	</g>
</g>
<g>
	<g>
		<g>
			<path class="st3" d="M67.8,91.1c-0.2,0.4-0.3,1-0.1,1.4c0.2,0.5,0.9,0.6,1.3,0.3c0.2-0.2,0.4-0.4,0.5-0.6
				c0.1-0.2,0.2-0.5,0.2-0.8c0-0.6-0.5-0.9-1-1c-0.3-0.1-0.7,0-0.9,0.2c-0.2,0.2-0.3,0.5-0.3,0.8c0,0.3,0.6,0.4,0.7,0.1
				c0.2-0.5,0.4-1,0.1-1.5c-0.3-0.5-1-0.5-1.3-0.1c-0.2,0.2-0.3,0.5-0.3,0.8c-0.1,0.3-0.1,0.6,0,0.8c0.2,0.5,0.6,0.8,1.1,0.8
				c0.6,0,1.1-0.4,1.3-0.8c0.1-0.2,0-0.6-0.3-0.6c-0.4,0.1-0.8,0.3-1,0.6c-0.2,0.4,0.3,0.7,0.6,0.5c0.4-0.3,0.6-0.8,0.6-1.3
				c0-0.3,0-0.6,0-0.8c0,0,0-0.1,0-0.1c-0.1,0.1-0.1,0.2,0,0.1c0,0,0,0,0,0c0.1,0,0.2,0,0.3,0.1c0.2,0.1,0.4,0.2,0.5,0.4
				c0.1,0.1,0.1,0.1,0.1,0.2c0,0.1,0,0.2,0,0.3c-0.1,0.2-0.2,0.4-0.4,0.5c-0.1,0.1-0.1,0.1-0.2,0.1c0,0-0.1,0-0.1,0
				c0,0.1,0,0.3,0,0.4c0-0.1,0-0.1,0.1-0.1c0,0,0,0,0,0c0.1,0-0.1,0,0,0c0,0,0.1,0,0.1,0c0,0,0,0,0.1,0c-0.1,0,0,0,0,0
				c0.1,0,0,0,0,0c0.1,0,0.1,0.1,0.1,0.2c0,0.1,0,0.2,0,0.3c0,0.1,0,0.1,0,0.1c0,0.1-0.1,0.1-0.1,0.1c0,0,0,0-0.1,0.1c0,0,0,0,0,0
				c0,0,0,0,0,0c0,0,0,0,0,0c0,0-0.1,0-0.1,0c0,0-0.1,0-0.1,0c0,0,0,0,0,0c0,0-0.1,0-0.1-0.1c-0.1-0.1-0.2-0.2-0.2-0.3
				c-0.1-0.2-0.3-0.3-0.5-0.3c-0.2,0-0.3,0.3-0.3,0.5c0.2,0.5,0.6,1,1.2,0.9c0.5,0,0.9-0.5,1.1-1c0.1-0.5-0.1-1.1-0.6-1.3
				c-0.5-0.2-1.1-0.1-1.3,0.4c-0.1,0.1-0.1,0.3,0,0.4c0.2,0.2,0.4,0.4,0.7,0.4c0.3,0,0.6-0.2,0.8-0.4c0.4-0.4,0.8-0.9,0.5-1.5
				c-0.2-0.5-0.7-0.9-1.2-1c-0.3-0.1-0.6-0.1-0.9,0.1c-0.1,0.1-0.2,0.2-0.3,0.4c0,0.1,0,0.3,0.1,0.4c0.1,0.5-0.1,1-0.4,1.4
				c0.2,0.2,0.4,0.3,0.6,0.5c0.1-0.1,0.2-0.3,0.4-0.3c-0.1-0.2-0.2-0.4-0.3-0.6c-0.2,0.3-0.4,0.5-0.7,0.5c-0.1,0-0.2,0-0.3-0.1
				c-0.1-0.1-0.1-0.2-0.1-0.3c0-0.2,0.1-0.4,0.1-0.5c0-0.1,0.1-0.1,0.1-0.2c0,0,0.1-0.1,0,0c0,0,0,0,0,0c0,0,0,0,0,0.1
				c0,0.1,0,0.1,0,0.2c0,0.2-0.1,0.4-0.2,0.5c0.2,0,0.5,0.1,0.7,0.1c0,0,0.1-0.1,0.1-0.1c0.2,0,0.3,0.1,0.5,0.1
				c0.1,0,0.1,0.1,0.1,0.2c0,0.1-0.1,0.3-0.1,0.4c-0.1,0.1-0.1,0.3-0.3,0.3c-0.1,0-0.1,0-0.1,0c0,0,0,0,0,0c0,0,0-0.1-0.1-0.1
				c0,0,0,0,0,0c0,0,0-0.1,0-0.1c0-0.1,0.1-0.3,0.1-0.4c0.1-0.2,0.1-0.4-0.1-0.5C68.2,90.8,67.9,90.9,67.8,91.1L67.8,91.1z"/>
		</g>
	</g>
	<g>
		<g>
			<path class="st3" d="M67.9,90.3c0,0,0-0.1,0-0.1c0,0,0,0.1,0,0c0,0,0,0,0-0.1c0,0,0-0.1,0-0.1c0,0,0,0,0,0c0-0.1,0,0,0,0
				c0,0,0-0.1,0.1-0.1c0,0,0-0.1,0.1-0.1c0-0.1-0.1,0.1,0,0c0,0,0,0,0,0c0,0,0.1,0,0.1-0.1c0,0-0.1,0.1,0,0c0,0,0,0,0.1,0
				c0,0,0,0,0,0c0.1,0,0,0,0,0c0,0,0.1,0,0.1,0c0,0,0,0,0,0c0,0,0,0,0,0c0,0,0,0,0.1,0c0,0,0.1,0,0.1,0c0,0,0,0-0.1,0c0,0,0,0,0,0
				c0,0,0,0,0.1,0c0,0,0,0,0.1,0c0.1,0-0.1,0,0,0c0,0,0.1,0,0.1,0.1c0.2,0.1,0.4,0,0.5-0.1c0.1-0.2,0-0.4-0.1-0.5
				c-0.4-0.3-1-0.3-1.4,0.1c-0.4,0.3-0.6,0.7-0.6,1.2c0,0.2,0.2,0.4,0.4,0.4C67.7,90.7,67.9,90.5,67.9,90.3L67.9,90.3z"/>
		</g>
	</g>
	<g>
		<g>
			<path class="st3" d="M67.3,91.1c-0.2,0.3-0.3,0.8-0.1,1.2c0.1,0.2,0.2,0.4,0.5,0.6c0.2,0.1,0.5,0.2,0.8,0.1
				c0.3,0,0.5-0.2,0.7-0.3c0.2-0.1,0.2-0.3,0.1-0.5C69.2,92,69,92,68.8,92.1c-0.1,0-0.1,0.1-0.2,0.1c-0.1,0-0.1,0-0.2,0.1
				c0.1,0,0.1,0,0,0c0,0,0,0,0,0c0,0-0.1,0-0.1,0c0,0-0.1,0-0.1,0c0,0,0,0,0,0c0,0,0,0,0,0c-0.1,0-0.1,0-0.2,0c0,0,0,0,0,0
				c0,0,0,0,0,0c0,0-0.1,0-0.1,0c0,0,0,0,0,0c0,0,0,0,0,0c0,0,0,0-0.1,0c0,0,0.1,0,0,0c0,0,0,0,0,0c0,0,0,0,0,0c-0.1-0.1,0,0.1,0,0
				c0,0,0,0,0-0.1c0,0,0,0,0-0.1c0-0.1,0,0.1,0,0c0,0,0-0.1,0-0.1c0,0,0,0,0-0.1c0,0.1,0,0,0,0c0,0,0-0.1,0-0.1c0-0.1,0,0.1,0,0
				c0,0,0,0,0-0.1c0,0,0,0,0-0.1c0,0,0.1-0.1,0,0c0,0,0-0.1,0.1-0.1c0.1-0.2,0-0.4-0.1-0.5C67.6,90.9,67.4,90.9,67.3,91.1L67.3,91.1
				z"/>
		</g>
	</g>
	<g>
		<g>
			<path class="st3" d="M69.4,90.8c0.1-0.2,0.2-0.3,0.2-0.5c0,0,0-0.1,0-0.1c0,0,0-0.1,0-0.1c0,0,0-0.1-0.1-0.1c0,0-0.1-0.1-0.1-0.1
				c-0.1,0-0.2-0.1-0.3,0c-0.1,0-0.2,0.1-0.2,0.2c-0.1,0.2-0.2,0.3-0.2,0.5c0,0,0,0.1,0,0.1c0,0,0,0.1,0,0.1c0,0,0,0.1,0.1,0.1
				c0,0,0.1,0.1,0.1,0.1c0.1,0,0.2,0.1,0.3,0C69.2,90.9,69.3,90.9,69.4,90.8L69.4,90.8z"/>
		</g>
	</g>
</g>
<g>
	<g>
		<g>
			<path class="st3" d="M112.3,91.5c-0.2-0.3-0.5-0.4-0.8-0.3c-0.3,0.1-0.5,0.3-0.6,0.5c-0.2,0.2-0.2,0.6-0.1,0.8
				c0.2,0.2,0.5,0.4,0.7,0.3c0.3,0,0.5-0.2,0.7-0.4c0.2-0.2,0.3-0.5,0.3-0.8c0.1-0.5-0.1-1.1-0.7-1.1c0.1,0.2,0.1,0.5,0.2,0.7
				c0.3-0.2,0.7-0.4,1.1-0.4c0.2,0,0.3,0,0.4,0.1c0.1,0.1,0.2,0.3,0.2,0.4c0,0.1,0,0.3,0,0.4c-0.1,0.1-0.2,0.1-0.3,0.1
				c-0.1,0-0.3,0-0.4-0.1c-0.1,0-0.1-0.1-0.1-0.1c0-0.1-0.1-0.1-0.1-0.2c-0.2,0-0.5,0.1-0.7,0.1c0.1,0.3,0.1,0.6,0.2,0.9
				c0.1,0.3,0.2,0.5,0.4,0.7c0.4,0.3,1.1,0.2,1.2-0.3c0.1-0.2-0.1-0.5-0.4-0.5c-0.3,0-0.6,0-0.9,0.1c-0.3,0.1-0.6,0.2-0.7,0.5
				c-0.1,0.3,0.1,0.6,0.3,0.7c0.2,0.1,0.5,0.1,0.8,0.1c0.5,0,1.1-0.1,1.3-0.6c0.2-0.5-0.1-1.1-0.6-1.3c-0.3-0.1-0.6-0.2-0.8-0.2
				c-0.1,0-0.3-0.1-0.4,0C112.6,91.6,112.5,91.6,112.3,91.5c0,0.1,0,0.1,0,0.1c0,0,0,0-0.1,0c-0.1,0,0,0,0.1,0
				c0.1,0,0.1,0.1,0.2,0.1c0.1,0.1,0,0.4,0.1,0.2c0,0,0-0.1,0.1-0.1c0.1-0.1,0.1-0.2,0-0.4c0-0.2-0.2-0.3-0.3-0.4
				c-0.2-0.1-0.3-0.1-0.5-0.1c-0.2,0-0.4,0.1-0.6,0.1c0.1,0.2,0.2,0.3,0.3,0.5c0.1-0.4,0.2-0.8,0.6-1c0.3-0.2,0.6,0.1,0.9,0.3
				c0.2,0.1,0.4,0.2,0.5,0c0.1-0.1,0.2-0.4,0-0.5c-0.2-0.2-0.5-0.4-0.8-0.5c-0.3-0.1-0.6-0.1-0.9,0c-0.6,0.3-0.9,0.9-1,1.5
				c0,0.2,0.1,0.4,0.3,0.5c0.1,0,0.3,0,0.4,0c0.1,0,0.2,0,0.4,0c0,0,0,0,0.1,0c0,0,0,0,0,0c0,0,0-0.1-0.1-0.1c0,0,0-0.2,0-0.1
				c0,0-0.1,0.1-0.1,0.2c-0.1,0.3,0,0.6,0.4,0.7c0.1,0,0.2,0,0.4-0.1c0.1,0,0.1,0,0.2,0c0.2,0,0.5,0.1,0.7,0.1
				c0.1,0,0.2,0.1,0.2,0.1c0.1,0.1,0.1,0.1,0.1,0.2c0,0,0,0,0,0.1c0,0,0,0,0,0c0,0-0.1,0.1-0.1,0.1c-0.2,0.1-0.4,0.1-0.6,0.1
				c-0.1,0-0.1,0-0.2,0c0,0-0.1,0-0.1,0c0,0,0,0.2,0,0.2c0,0,0.4-0.1,0.4-0.1c0.1,0,0.3,0,0.4,0c-0.1-0.2-0.2-0.3-0.4-0.5
				c0,0,0,0,0.1-0.1c0,0,0.1,0,0,0c0,0-0.1,0,0,0c0,0-0.1,0-0.1,0c0,0,0,0,0,0c0,0,0-0.1-0.1-0.1c-0.1-0.1-0.1-0.3-0.1-0.5
				c0-0.2-0.1-0.4-0.1-0.6c-0.1-0.4-0.8-0.3-0.7,0.1c0,0.5,0.4,0.9,0.8,1.1c0.4,0.2,1,0.1,1.3-0.3c0.4-0.4,0.4-0.9,0.2-1.4
				c-0.2-0.5-0.6-0.8-1.2-0.8c-0.6,0-1.1,0.3-1.6,0.5c-0.3,0.2-0.2,0.7,0.2,0.7c0,0,0,0-0.1-0.1c0,0,0,0,0,0c0,0,0,0,0,0.1
				c0,0,0,0.1,0,0c0,0,0,0.1,0,0.1c0,0,0,0.1,0,0.1c0,0.2,0,0.4-0.2,0.6c-0.1,0-0.1,0-0.2,0c-0.1,0,0,0,0,0c0,0,0,0,0,0
				c0,0.1,0,0.1,0,0c0.1-0.1,0.1-0.2,0.2-0.2c0,0,0.1-0.1,0.1,0c0,0,0.1,0,0,0c0,0-0.1,0-0.1-0.1c0.1,0.2,0.3,0.2,0.5,0.1
				C112.3,91.9,112.4,91.7,112.3,91.5L112.3,91.5z"/>
		</g>
	</g>
	<g>
		<g>
			<path class="st3" d="M112,91.2c0.3-0.2,0.6-0.3,1-0.4c0.1,0,0.3,0,0.4,0c0,0,0.1,0,0,0c0,0,0.1,0,0.1,0c0,0,0.1,0,0.1,0
				c0,0,0.1,0,0,0c0.1,0,0.1,0.1,0.2,0.1c-0.1,0,0,0,0,0c0,0,0,0,0.1,0.1c0-0.1,0,0,0,0c0,0.1,0-0.1,0,0c0,0,0,0.1,0,0
				c0,0,0,0.1,0,0.1c0,0.1,0-0.1,0,0c0,0,0,0.1,0,0.1c0-0.1,0,0,0,0c0,0-0.1,0.1,0,0c0,0-0.1,0.1,0,0.1c0,0,0,0,0,0c0,0,0,0,0,0
				c0,0,0,0,0,0c0,0-0.1,0,0,0c-0.2,0-0.4,0.2-0.4,0.4c0,0.2,0.2,0.4,0.4,0.4c0.4,0,0.8-0.3,0.9-0.8c0.1-0.4-0.1-0.8-0.5-1.1
				c-0.8-0.6-1.9-0.2-2.7,0.2c-0.2,0.1-0.2,0.3-0.1,0.5C111.6,91.3,111.8,91.3,112,91.2L112,91.2z"/>
		</g>
	</g>
</g>
<g>
	<g>
		<path class="st3" d="M80.8,94.7c0.4,1,0.8,2,1.2,3c0.4,1,0.6,2.2,1.6,2.8c2.5,1.4,5.5-1.3,7-3.1c-0.4-0.1-0.8-0.1-1.2-0.2
			c1.7,2.3,4.1,6.5,7.5,4.2c0.9-0.6,1.4-1.5,2-2.4c0.6-1,1.2-2,1.8-3c0.5-0.8-0.8-1.6-1.3-0.8c-0.8,1.5-1.6,3.1-2.7,4.4
			c-2.3,2.8-4.7-1.6-5.9-3.3c-0.3-0.3-0.8-0.6-1.2-0.2c-0.6,0.7-1.3,1.4-2.1,2c-0.6,0.4-1.2,0.8-1.8,1c-0.3,0.1-0.5,0.1-0.8,0.1
			c-0.2,0-0.3-0.1-0.4-0.2c0,0-0.4-0.3-0.3-0.1c0.1,0.1,0,0-0.1-0.1c-0.1-0.2-0.2-0.4-0.2-0.6c-0.2-0.5-0.4-1.1-0.7-1.6
			c-0.3-0.8-0.6-1.6-1-2.4C81.9,93.4,80.4,93.8,80.8,94.7L80.8,94.7z"/>
	</g>
</g>
<g>
	<g>
		<path class="st3" d="M116.9,101.2c4.5-1,9-1.5,13.6-1.4c1,0,1-1.5,0-1.5c-4.7-0.1-9.4,0.4-14,1.5
			C115.5,100,115.9,101.5,116.9,101.2L116.9,101.2z"/>
	</g>
</g>
<g>
	<g>
		<path class="st3" d="M118.6,104.9c3.5,0.4,6.9,0.8,10.4,1.2c0.4,0,0.7-0.4,0.8-0.8c0-0.4-0.3-0.7-0.8-0.8
			c-3.5-0.4-6.9-0.8-10.4-1.2c-0.4,0-0.7,0.4-0.8,0.8C117.8,104.6,118.2,104.9,118.6,104.9L118.6,104.9z"/>
	</g>
</g>
<g>
	<g>
		<path class="st3" d="M68.7,100.2c-4.8-1.8-9.8-3.1-14.9-3.8c0,0.5,0,1,0,1.5c0.2,0,0.3,0,0.5,0c1,0.1,1-1.4,0-1.5
			c-0.2,0-0.3,0-0.5,0c-1-0.1-0.9,1.4,0,1.5c5,0.7,9.8,1.9,14.5,3.7C69.2,102,69.6,100.5,68.7,100.2L68.7,100.2z"/>
	</g>
</g>
<g>
	<g>
		<path class="st3" d="M66.7,104c-3,0.1-6,0.3-8.9,0.4c-1,0-1,1.5,0,1.5c3-0.1,6-0.3,8.9-0.4C67.7,105.5,67.7,104,66.7,104L66.7,104
			z"/>
	</g>
</g>
<path class="st4" d="M101.1,128"/>
<path class="st4" d="M101.1,128"/>
<g>
	<g>
		<path class="st3" d="M143.2,86.8c1.4-3.1,2.8-6.2,3.9-9.5c1.2-3.4,2.8-7.5,1.6-11.1c-0.5-1.6-1.6-3-3.1-3.7
			c-1.7-0.8-3.7-0.6-5.5-0.1c-4.1,1-8.1,2.7-11.9,4.3c-1.2,0.5-0.8,2.5,0.4,2.7c0.7,0.2,1.3,0.1,1.9-0.3c1.7-0.9,0.2-3.5-1.5-2.6
			c0.1,0,0.2,0,0.4,0c0.1,0.9,0.2,1.8,0.4,2.7c3.2-1.4,6.6-2.6,9.9-3.7c1.4-0.4,3-1,4.4-0.5c1.2,0.5,1.8,1.8,2,3
			c0.2,1.7-0.4,3.5-0.8,5.1c-0.4,1.4-0.8,2.8-1.3,4.1c-1,2.7-2.2,5.2-3.3,7.8C139.8,87.1,142.4,88.6,143.2,86.8L143.2,86.8z"/>
	</g>
</g>
<g>
	<g>
		<path class="st3" d="M143.9,69.4c1-1.7,1.8-3.6,2.3-5.6c0.1-0.5-0.6-0.7-0.7-0.2c-0.5,1.9-1.2,3.7-2.2,5.4
			C143.1,69.5,143.7,69.9,143.9,69.4L143.9,69.4z"/>
	</g>
</g>
<g>
	<g>
		<path class="st3" d="M142.7,69.5c0.4-1.7,0.7-3.4,1.1-5.1c0.1-0.5-0.6-0.7-0.7-0.2c-0.4,1.7-0.7,3.4-1.1,5.1
			C141.9,69.7,142.6,69.9,142.7,69.5L142.7,69.5z"/>
	</g>
</g>
<g>
	<g>
		<path class="st3" d="M141.1,69.9c0.5-2,0.8-4,0.8-6c0-0.5-0.7-0.5-0.8,0c0,2-0.3,3.9-0.8,5.8C140.3,70.1,141,70.3,141.1,69.9
			L141.1,69.9z"/>
	</g>
</g>
<g>
	<path class="st0" d="M58.7,128.4c-0.1-0.5-0.6-0.9-1-1l-0.1,0c-0.7-0.2-1.3,0.1-1.6,0.6c-0.1,0-0.2,0-0.3,0.1
		c-0.3,0.1-0.6,0.1-0.9,0.2c-0.5,0.1-1,0.1-1.5,0.1c-1.2,0-2.4,0-3.5-0.2c-2.4-0.4-4.8-1.1-7.1-1.8c-1.2-0.4-2.5,1.1-1.7,2.2
		c2.3,3.2,4.7,6.5,7,9.7c0.7,0.9,2,1,2.6,0c1.5-2.4,3.2-4.7,5.1-6.8c0.1-0.2,0.2-0.3,0.3-0.5C57.4,130.7,59,130.2,58.7,128.4z"/>
</g>
<g>
	<g>
		<path class="st3" d="M39.3,128.5c2.6,3.7,4.1,8,6.5,11.8c0.4,0.6,0.9,1.3,1.6,1.6c1.4,0.4,3.2,0.1,4.3-1c1.2-1.2,2.1-2.8,3-4.2
			c1.3-2.1,2.8-4.4,3.2-6.9c0.1-0.8-0.2-1.6-1-1.8c-0.7-0.2-1.7,0.2-1.8,1c-0.3,1.8-1.3,3.5-2.2,5.1c-0.5,0.9-1.1,1.8-1.7,2.7
			c-0.2,0.3-0.5,0.7-0.7,1c-0.1,0.1-0.2,0.3-0.3,0.4c-0.1,0.2,0.1-0.1-0.1,0.1c-0.1,0.1-0.2,0.3-0.4,0.4c-0.1,0.1-0.3,0.2-0.4,0.2
			c-0.2,0.1-0.7-0.1-0.9,0c0,0,0.4,0.2,0.3,0.1c0,0,0.4,0.3,0.2,0.1c-0.1-0.1-0.3-0.4,0,0c-0.2-0.2-0.3-0.5-0.5-0.8
			c-1-1.7-1.9-3.5-2.8-5.2c-1.1-2.1-2.2-4.3-3.6-6.3c-0.5-0.7-1.3-1-2.1-0.5C39.2,126.8,38.9,127.8,39.3,128.5L39.3,128.5z"/>
	</g>
</g>
<g>
	<path class="st0" d="M137.6,126.2c-0.3-0.4-0.9-0.6-1.4-0.5l-0.1,0c-0.7,0.1-1.1,0.7-1.2,1.3c-0.1,0.1-0.1,0.1-0.2,0.2
		c-0.2,0.2-0.5,0.4-0.7,0.6c-0.4,0.3-0.8,0.5-1.3,0.8c-1,0.6-2.1,1-3.3,1.4c-2.3,0.7-4.8,1.2-7.2,1.6c-1.2,0.2-1.7,2.1-0.5,2.7
		c3.5,1.9,7,3.7,10.6,5.6c1,0.5,2.2,0.1,2.3-1.1c0.3-2.8,0.8-5.6,1.6-8.4c0.1-0.2,0.1-0.4,0.1-0.6
		C137.5,128.9,138.6,127.7,137.6,126.2z"/>
</g>
<g>
	<g>
		<path class="st3" d="M135.6,125c-0.9,4.3-0.9,8.8-1.4,13.2c0,0.1,0,0.2,0,0.3c0,0.3,0.1-0.3,0,0c0,0.2,0,0.3-0.1,0.5
			c0,0.2-0.2,0.5-0.2,0.8c0,0,0.1-0.2,0.1-0.2c0.1-0.2,0.2-0.1,0.1-0.1c0,0-0.5,0.2-0.4,0.2c-0.2,0.1-0.4,0-0.7,0
			c-0.6-0.1,0.2,0.2-0.1,0c-1.4-0.9-2.7-1.8-4-2.7c-1-0.8-2-1.6-2.9-2.5c-0.4-0.4-0.8-0.8-1.2-1.2c-0.1-0.1-0.2-0.2-0.3-0.3
			c-0.2-0.2,0,0-0.1-0.1c-0.1-0.2-0.3-0.4-0.4-0.6c-1-1.7-3.6-0.2-2.6,1.5c1.2,2,3,3.5,4.8,4.9c1.6,1.3,3.2,2.6,5,3.6
			c2,1.1,5.1,0.5,5.7-1.9c0.5-2.1,0.5-4.2,0.7-6.3c0.2-2.7,0.4-5.4,0.9-7.9C138.9,123.9,136,123.1,135.6,125L135.6,125z"/>
	</g>
</g>
<g>
	<g>
		<path class="st0" d="M174.2,85.4c-0.1-1.2,1.1-2.6,0.3-3.5c-0.4-0.4-0.9-0.7-1.4-0.8c-0.4-0.1-0.8-0.1-1.2-0.1c-0.1,0-0.9,0.1-1,0
			c-0.5-0.5,0.1-2.6,0.2-3.1c0.1-1.4-0.1-2.8-0.5-4.1c-1.8-6.4-8.5-10-14.9-8.4c-0.7,0.2-1,0.7-1.1,1.2c-3.6,0.9-5.6,4.7-6,8.3
			c-0.2,2.3-0.2,5.2,0.5,7.5c0.6,2.1,2.3,3.7,3.5,5.4c2.7,4,4.8,8.6,5.8,13.4c0.5,2.3,0.6,4.6-0.1,6.9c-0.6,2-1.5,3.8-2.4,5.6
			c-2,4-4.2,8.2-3.1,12.8c0.2,0.9,1.4,1.4,2.2,0.9c9.3-6,16.1-15.4,19.2-26C175.7,96.2,174.9,90.8,174.2,85.4z"/>
	</g>
	<g>
		<g>
			<g>
				<path class="st3" d="M152.5,120.9c4.6-3.4,7.5-8.1,8.2-13.8c0.5-4.1-0.1-8.5-1.7-12.3c-2-5-6.9-8.3-8.5-13.7
					c-1-3.4-1.1-7.6,0.6-10.7c1.5-2.7,4.7-4,7.8-3.7c7.5,0.8,10.1,9.4,10.5,15.7c0.1,1.3,1.6,2,2.6,1.1c0.5-0.5,1.3-0.6,1.9-0.7
					c0.3-0.1,0.6-0.1,0.8-0.1c0.9-0.1,0.2,0.1-0.2-0.3c-0.1-0.4-0.3-0.7-0.4-1.1c0-0.1,0.1-0.1,0.1-0.2c-0.1,0.2-0.2,0.3-0.3,0.5
					c-0.1,0.2-0.2,0.3-0.3,0.5c-0.3,0.5-0.5,1-0.7,1.6c-0.5,1.5-0.7,3.1-0.7,4.6c0,2.5,0.5,4.9,0.5,7.3c0,1-0.1,1.3-0.3,2.3
					c-0.2,1.2-0.5,2.4-0.9,3.6c-2,6.9-5.1,13.8-9.8,19.3c-2.8,3.3-6.2,6.1-10.3,7.5c-1.8,0.6-1,3.5,0.8,2.9
					c9.1-3.2,15.2-11.7,19-20.2c1.6-3.5,2.9-7.2,3.8-11c0.3-1.2,0.5-2.5,0.6-3.7c0.2-2.4-0.4-4.8-0.5-7.1c0-1.7,0-3.8,0.8-5.4
					c0.6-1.1,1.8-2.5,0.5-3.7c-0.8-0.8-2.2-0.5-3.2-0.3c-1.3,0.2-2.6,0.6-3.5,1.5c0.9,0.4,1.7,0.7,2.6,1.1
					c-0.4-6.4-2.4-13.3-8.1-16.9c-5.9-3.7-14.1-1.6-16.6,5.2c-1.3,3.6-1.2,7.8,0,11.4c1.2,3.7,3.6,6.7,6,9.8c2.4,3.1,3.6,6.3,4,10.3
					c0.6,6.3-1.6,12.3-6.7,16.1C149.5,119.4,151,122.1,152.5,120.9L152.5,120.9z"/>
			</g>
		</g>
	</g>
	<g>
		<g>
			<path class="st3" d="M168.7,109.3c-1.5,1.1-3.3,1.7-5.1,2c-2,0.3-4.1,0.4-6.2,0.4c-0.5,0-0.5,0.7,0,0.8c2.1,0,4.3-0.1,6.4-0.4
				c1.9-0.3,3.7-0.9,5.3-2.1C169.4,109.7,169.1,109,168.7,109.3L168.7,109.3z"/>
		</g>
	</g>
	<g>
		<g>
			<path class="st3" d="M156.3,115.3c2.4,0.8,4.8,2,7,3.4c0.4,0.3,0.8-0.4,0.4-0.6c-2.2-1.4-4.6-2.6-7.1-3.5
				C156,114.4,155.8,115.1,156.3,115.3L156.3,115.3z"/>
		</g>
	</g>
	<g>
		<g>
			<path class="st3" d="M155.8,116.1c1.8,2.4,3.9,4.7,6.3,6.6c0.4,0.3,0.9-0.2,0.5-0.5c-2.3-1.9-4.4-4.1-6.2-6.5
				C156.1,115.4,155.5,115.7,155.8,116.1L155.8,116.1z"/>
		</g>
	</g>
	<g>
		<g>
			<path class="st3" d="M154.2,117.7c0.7,1.3,1.4,2.5,2.1,3.8c0.4,0.6,0.7,1.3,1.1,1.9c0.2,0.3,0.4,0.6,0.5,1
				c0.1,0.1,0.2,0.3,0.2,0.4c0.1,0.1,0.1,0.2,0.1,0.3c0.4-0.1,0.5,0.1,0.3,0.4c0.4-0.2,0.1-0.9-0.4-0.6c-0.7,0.3,0.1,1.3,0.7,0.9
				c0.3-0.3,0.3-0.7,0.1-1c-0.2-0.5-0.5-1-0.8-1.4c-1.1-2-2.2-3.9-3.3-5.9C154.6,116.9,154,117.3,154.2,117.7L154.2,117.7z"/>
		</g>
	</g>
	<g>
		<g>
			<path class="st3" d="M153.6,117.9c0.3,1.6,0.6,3.2,1,4.8c0.3,1.4,0.7,2.7,1.6,3.8c0.3,0.3,0.8-0.1,0.6-0.5
				c-0.1-0.1-0.1-0.2-0.2-0.3c-0.2-0.4-0.9,0-0.6,0.4c0.1,0.1,0.1,0.2,0.2,0.3c0.2-0.2,0.4-0.3,0.6-0.5c-0.9-1.1-1.2-2.5-1.4-3.8
				c-0.3-1.5-0.6-3-0.9-4.6C154.2,117.2,153.5,117.4,153.6,117.9L153.6,117.9z"/>
		</g>
	</g>
	<g>
		<g>
			<path class="st3" d="M158.6,113.9c1.8,0.2,3.7,0.3,5.5,0.3c1.4,0,2.9-0.3,4-1.2c0.4-0.3-0.2-0.8-0.5-0.5c-1.1,0.9-2.6,1-3.9,1
				c-1.7,0-3.4-0.1-5.1-0.3C158.2,113.1,158.2,113.8,158.6,113.9L158.6,113.9z"/>
		</g>
	</g>
	<g>
		<g>
			<path class="st3" d="M156.8,114.3c2,0.7,4,1.4,6,2.1c0.9,0.3,1.8,0.7,2.8,0.9c0.6,0.1,1.3,0.2,1.8-0.4c0.3-0.4-0.2-0.9-0.5-0.5
				c-0.5,0.6-1.5,0.1-2-0.1c-0.9-0.3-1.7-0.6-2.6-0.9c-1.7-0.6-3.5-1.2-5.2-1.8C156.5,113.4,156.3,114.1,156.8,114.3L156.8,114.3z"
				/>
		</g>
	</g>
	<g>
		<g>
			<path class="st3" d="M155.1,116.9c1.1,2,2.1,4.1,3.2,6c0.5,0.8,1,1.5,1.8,2c0.5,0.3,1.6,0.3,1.6-0.6c0-0.5-0.8-0.5-0.8,0
				c0,0,0.1,0,0,0c-0.1,0-0.1,0-0.2,0c-0.2,0-0.3-0.1-0.4-0.2c-0.3-0.2-0.6-0.5-0.8-0.7c-0.5-0.6-0.8-1.3-1.2-2
				c-0.9-1.6-1.7-3.2-2.6-4.9C155.5,116.1,154.9,116.5,155.1,116.9L155.1,116.9z"/>
		</g>
	</g>
	<g>
		<g>
			<path class="st3" d="M156.4,116.2c1.4,1,2.8,2,4.2,3c1.2,0.8,2.6,1.5,4.1,1.3c0.5-0.1,0.3-0.8-0.2-0.7c-1.4,0.3-2.8-0.6-3.9-1.4
				c-1.3-0.9-2.5-1.8-3.8-2.8C156.4,115.2,156.1,115.9,156.4,116.2L156.4,116.2z"/>
		</g>
	</g>
	<g>
		<g>
			<path class="st3" d="M159.1,110.8c0.7-0.9,2.3-0.7,3.4-0.9c1.3-0.2,2.5-0.5,3.7-0.9c1.1-0.4,2.2-0.9,3.2-1.6
				c0.5-0.3,0.9-0.7,1.4-1.1c0.4-0.3,0.9-0.7,0.9-1.3c0-0.1-0.1-0.3-0.2-0.3c-0.2-0.1-0.3-0.1-0.5-0.1c-0.1,0-0.2,0.1-0.3,0.3
				c0,0,0,0.1,0,0.1c-0.1,0.5,0.6,0.7,0.7,0.2c0,0,0-0.1,0-0.1c-0.1,0.1-0.2,0.2-0.3,0.3c0,0-0.1,0-0.1,0c-0.1-0.1-0.1-0.2-0.2-0.3
				c0,0.2-0.5,0.5-0.6,0.7c-0.2,0.2-0.5,0.4-0.7,0.6c-0.5,0.3-0.9,0.7-1.4,0.9c-1,0.6-2.2,1-3.3,1.3c-1.1,0.3-2.3,0.5-3.5,0.6
				c-1,0.1-2.1,0.1-2.8,0.9C158.2,110.6,158.7,111.1,159.1,110.8L159.1,110.8z"/>
		</g>
	</g>
	<g>
		<g>
			<path class="st3" d="M160.3,108.9c2.8-0.8,5.4-2,7.9-3.5c2.2-1.4,4.6-3.2,5.5-5.7c0.2-0.5-0.6-0.6-0.7-0.2
				c-0.9,2.4-3.5,4.1-5.6,5.5c-2.3,1.4-4.7,2.5-7.3,3.2C159.6,108.3,159.8,109,160.3,108.9L160.3,108.9z"/>
		</g>
	</g>
	<g>
		<g>
			<path class="st3" d="M160,106.5c0,0,0.1,0,0.1,0c0,0.2-0.1,0.4-0.1,0.6c1.7-0.7,3.4-1.4,5.1-2.2c1.6-0.7,3.2-1.3,4.6-2.3
				c1.3-0.9,2.4-2,3.4-3.3c0.3-0.3,1-0.9,0.7-1.4c-0.2-0.4-0.6-0.4-0.9-0.1c-0.1,0.1-0.1,0.3-0.1,0.5c0,0,0,0,0,0.1
				c0.2,0.4,0.9,0,0.6-0.4c0,0,0,0,0-0.1c0,0.2,0,0.3-0.1,0.5c-0.3-0.1-0.6-0.1-0.7,0.2c-0.1,0.1-0.2,0.2-0.3,0.4
				c-0.2,0.2-0.4,0.5-0.6,0.7c-0.4,0.5-0.9,0.9-1.3,1.4c-1,0.9-2.2,1.6-3.4,2.2c-2.5,1.2-5.1,2.2-7.6,3.3c-0.2,0.1-0.3,0.5-0.1,0.6
				c0.4,0.3,0.8,0.3,1-0.2C161,106.5,160.3,106.1,160,106.5L160,106.5z"/>
		</g>
	</g>
	<g>
		<g>
			<path class="st3" d="M159.6,105.6c3.5-0.9,6.8-2.4,9.6-4.6c1.4-1.1,2.7-2.2,3.8-3.6c0.4-0.4,1.4-1.3,1.2-1.9
				c-0.1-0.5-0.6-0.5-0.9-0.2c-0.1,0.1-0.1,0.2-0.1,0.4c0,0,0,0.1,0,0.1c0.1,0.5,0.8,0.3,0.7-0.2c0,0,0-0.1,0-0.1
				c0,0.1-0.1,0.2-0.1,0.4c-0.1,0-0.1,0-0.2,0c-0.1-0.1-0.1-0.2-0.2-0.3c0,0.3-0.5,0.7-0.7,0.9c-0.2,0.3-0.4,0.5-0.7,0.8
				c-0.5,0.5-1,1.1-1.5,1.5c-1.1,1-2.2,1.9-3.4,2.7c-2.4,1.6-5.1,2.7-7.9,3.4C158.9,105,159.1,105.7,159.6,105.6L159.6,105.6z"/>
		</g>
	</g>
	<g>
		<g>
			<path class="st3" d="M160.5,104.3c5.9-3,10.7-7.9,13.6-13.9c0.2-0.4-0.4-0.8-0.6-0.4c-2.8,5.9-7.5,10.7-13.3,13.7
				C159.7,103.9,160,104.5,160.5,104.3L160.5,104.3z"/>
		</g>
	</g>
	<g>
		<g>
			<path class="st3" d="M160.4,102.9c3.3-2.2,6.2-4.8,8.7-7.8c1.2-1.5,2.3-3,3.3-4.7c0.3-0.6,2.2-3.2,0.5-3.3c-0.5,0-0.5,0.7,0,0.8
				c0,0-1,1.9-1.1,2.1c-0.4,0.7-0.9,1.4-1.3,2.1c-0.9,1.4-2,2.6-3.1,3.9c-2.2,2.4-4.7,4.6-7.5,6.4
				C159.6,102.5,160,103.2,160.4,102.9L160.4,102.9z"/>
		</g>
	</g>
	<g>
		<g>
			<path class="st3" d="M160.3,101.3c5.6-5.8,10-12.6,12.9-20c0.1-0.3-0.3-0.6-0.6-0.4c-0.2,0.1-0.5,0.2-0.7,0.4
				c-0.4,0.2-0.1,0.9,0.4,0.6c0.2-0.1,0.5-0.2,0.7-0.4c-0.2-0.1-0.4-0.3-0.6-0.4c-2.9,7.3-7.3,14-12.7,19.7
				C159.5,101.1,160,101.6,160.3,101.3L160.3,101.3z"/>
		</g>
	</g>
	<g>
		<g>
			<path class="st3" d="M158.9,97.2c1.5-0.8,2.5-2.2,3.4-3.5c1.2-1.6,2.2-3.2,3.2-4.9c1-1.6,1.9-3.3,2.7-5c0.4-0.8,0.8-1.7,1.1-2.5
				c0.2-0.4,0.3-0.8,0.5-1.2c0.1-0.2,0.1-0.4,0.2-0.6c0.3-0.5,0.2-0.1,0.1-0.4c-0.1-0.5-0.8-0.3-0.7,0.2c0.3,1.4,2.6,0.2,1.4-0.7
				c-0.4-0.3-1-0.2-1.4,0.2c-0.3,0.4-0.5,1.2-0.7,1.7c-0.3,0.7-0.6,1.4-0.9,2.1c-1.2,2.5-2.5,5-4,7.4c-0.7,1.2-1.5,2.3-2.3,3.4
				c-0.9,1.2-1.8,2.5-3.2,3.2C158.1,96.8,158.5,97.4,158.9,97.2L158.9,97.2z"/>
		</g>
	</g>
	<g>
		<g>
			<path class="st3" d="M158.2,95c1.5-1.2,2.6-2.8,3.7-4.3c1.2-1.7,2.3-3.4,3.3-5.2c0.9-1.7,1.7-3.4,2.4-5.2c0.4-0.9,0.7-1.9,1-2.8
				c0.2-0.6,0.7-1.4,0.4-2c-0.1-0.1-0.3-0.2-0.4-0.2c-0.2,0.1-0.3,0.2-0.4,0.4c0,0.1,0,0.4,0.2,0.4c0,0,0,0,0.1,0
				c0.4,0.2,0.8-0.4,0.4-0.6c0,0,0,0-0.1,0c0.1,0.1,0.1,0.3,0.2,0.4c-0.1,0-0.1,0.1-0.2,0.1c-0.1-0.1-0.3-0.1-0.4-0.2
				c0.1,0.2-0.2,0.8-0.3,1c-0.1,0.4-0.3,0.8-0.4,1.3c-0.3,0.8-0.6,1.7-1,2.5c-0.7,1.8-1.6,3.5-2.5,5.1c-0.9,1.5-1.8,3.1-2.8,4.5
				c-1.1,1.5-2.2,3.1-3.7,4.3C157.2,94.8,157.8,95.3,158.2,95L158.2,95z"/>
		</g>
	</g>
	<g>
		<g>
			<path class="st3" d="M157.5,93.7c4.9-6.5,7.9-14.2,8.8-22.2c0.1-0.5-0.7-0.5-0.8,0c-0.8,7.9-3.9,15.5-8.7,21.9
				C156.6,93.7,157.2,94,157.5,93.7L157.5,93.7z"/>
		</g>
	</g>
	<g>
		<g>
			<path class="st3" d="M155.8,92c0.9,1.7,2.1-1.3,2.3-1.8c1-2.4,2.1-4.9,2.9-7.4c1.6-5,2.4-10.2,1.3-15.4c-0.1-0.5-0.8-0.3-0.7,0.2
				c0.9,4.3,0.4,8.6-0.7,12.8c-0.5,1.9-1.2,3.8-1.9,5.7c-0.4,1-0.8,2.1-1.3,3.1c-0.2,0.4-0.4,0.8-0.5,1.3c0,0-0.6,1.4-0.7,1.2
				C156.2,91.2,155.5,91.6,155.8,92L155.8,92z"/>
		</g>
	</g>
	<g>
		<g>
			<path class="st3" d="M156.2,91.3c3.9-7.7,4.6-16.7,2.1-25c-0.1-0.5-0.9-0.3-0.7,0.2c2.5,8.1,1.8,16.9-2,24.4
				C155.4,91.4,156,91.8,156.2,91.3L156.2,91.3z"/>
		</g>
	</g>
	<g>
		<g>
			<path class="st3" d="M155.1,90.3c2.8-7.6,2.2-16.2-1.8-23.3c-0.2-0.4-0.9,0-0.6,0.4c3.8,6.9,4.4,15.3,1.7,22.7
				C154.2,90.5,154.9,90.7,155.1,90.3L155.1,90.3z"/>
		</g>
	</g>
	<g>
		<g>
			<path class="st3" d="M150.8,71.2c1.3,0.7,1.7,2.1,2,3.4c0.3,1.5,0.6,3,0.9,4.5c0.6,3.3,0.9,6.7,0.3,10.1c0.2-0.1,0.4-0.1,0.6-0.2
				c-0.1-0.2-0.2-0.3-0.3-0.5c-0.1-0.5-0.9-0.3-0.7,0.2c0.1,0.4,0.2,0.6,0.5,0.8c0.2,0.2,0.6,0.1,0.6-0.2c0.6-3.6,0.3-7.2-0.4-10.8
				c-0.3-1.7-0.6-3.4-1.1-5c-0.4-1.2-1-2.3-2.1-2.9C150.7,70.3,150.3,70.9,150.8,71.2L150.8,71.2z"/>
		</g>
	</g>
	<g>
		<g>
			<path class="st3" d="M149.3,73.9c2.4,4.6,3.6,9.6,3.5,14.8c0,0.5,0.7,0.5,0.8,0c0.1-5.3-1.2-10.5-3.6-15.1
				C149.7,73.1,149.1,73.5,149.3,73.9L149.3,73.9z"/>
		</g>
	</g>
	<g>
		<g>
			<path class="st3" d="M158.9,100.3c4.4-3.9,7.9-8.7,10.2-14.1c0.5-1.2,1-2.5,1.4-3.8c0.2-0.8,0.5-1.5,0.6-2.3
				c0.1-0.3,0.1-0.5-0.1-0.7c-0.3-0.5-1.1-0.7-1.5-0.1c-0.4,0.6,0.2,1.3,0.8,1.4c0.5,0,0.5-0.7,0-0.8c0,0-1.4,4.6-1.5,5
				c-0.7,1.9-1.7,3.8-2.7,5.6c-2.1,3.5-4.7,6.6-7.7,9.3C158,100.1,158.5,100.7,158.9,100.3L158.9,100.3z"/>
		</g>
	</g>
</g>
<path class="st0" d="M145.8,95.6"/>
<path class="st5" d="M137.6,68.4c-0.1-2.7-0.3-5.3-0.7-8c-0.4-2.3-0.9-4.7-2-6.8c-1-1.9-2.5-3.3-4.2-4.4c-1.6-1-3.4-1.8-4.8-2.9
	c-3.4-2.6-2-6.4-0.7-9.8c1.4-3.6,3-7.6,1.1-11.3c-2-4-6.7-5.7-10.9-5.9c-2.7-0.1-5.3,0.1-8,0.3L99,20.1c-5,0.3-9.9,0.7-14.9,1.3
	C73.3,22.7,62.4,25.1,53,31c-0.2,0.1-0.4,0.3-0.5,0.5c-0.7,0.1-1.3,0.5-1.4,1.4c-0.2,4.3-0.4,8.7-0.6,13c-0.1,1.1-0.1,2.1-0.2,3.2
	c0,0.9,0,2-0.5,2.9c-0.4,0.7-1.3,1.1-2,1.5c-0.7,0.5-1.4,1-2,1.6c-5.4,5.9-2.6,14.6-0.7,21.4c1.2,4.2,2.6,8.4,5.1,12.1
	c0.4,0.6,1.4,1.1,2.1,0.5c6.1-4.7,12.2-9.3,18.2-14c5.5-4.2,11-9.1,17.8-11.1c11.2-3.2,24.1,0,33.4,6.7c5,3.6,9.1,8.5,11.5,14.2
	c0.5,1.2,2.5,0.8,2.7-0.4C137.2,79.3,137.8,73.9,137.6,68.4z"/>
<g>
	<g>
		<g>
			<path class="st3" d="M46.4,70.5c-0.5-2.4-1-4.8-1.3-7.2c-0.3-2.4-0.1-4.6,1.3-6.6c1.2-1.8,2.9-3.1,4.6-4.4c0.9-0.7,1.9-1.3,2.8-2
				c0.5-0.4,1-0.8,1.5-1.2c0.4-0.3,0.8-0.8,1.2-1c-0.4,0.1-0.8,0.1-1.2,0.2c0.1,0,0.2,0,0.2,0.1c-0.3-0.3-0.7-0.7-1-1
				c0,0,0,0.1,0,0.1c0.1-0.5,0.3-1,0.4-1.5c0.1-0.1,0.3-0.2,0.4-0.2c0.6,0.3,1.2,0.7,1.8,1c0,0,0-0.1,0-0.1
				c-0.5-1.9-3.4-1.1-2.9,0.8c0,0,0,0.1,0,0.1c0.2,0.8,1.1,1.3,1.8,1c0.4-0.1,0.6-0.3,0.9-0.5c0.4-0.4,0.5-0.9,0.4-1.5
				c-0.4-1.4-2-1.6-3-0.7c-1.2,0.9-2.2,1.9-3.4,2.8c-2.3,1.7-4.7,3.3-6.5,5.5c-1.8,2.2-2.7,4.8-2.6,7.6c0.1,3.2,1,6.5,1.6,9.6
				C43.8,73.2,46.7,72.4,46.4,70.5L46.4,70.5z"/>
		</g>
	</g>
	<g>
		<g>
			<path class="st3" d="M52.5,48.2c-1-2.9-1.7-6-1.9-9.1c-0.2-2.3-0.7-5.8,1.7-7.1c1-0.6,2.2-0.9,3.3-1.2c1.5-0.5,3.1-0.9,4.6-1.3
				c3.1-0.9,6.2-1.6,9.3-2.4c12-2.8,24.2-4.8,36.4-5.8c5.2-0.4,11.8-1.7,16.4,1.6c3.3,2.4,5.1,6.8,4.5,10.8c-0.4,2.5-1.9,4.6-2.7,7
				c-0.8,2.3-0.7,4.8,0.8,6.7c1.4,1.8,3.4,2.8,5.3,4.1c1.9,1.3,3.3,3.1,4.3,5.1c5.8,11.3-0.9,24.4,0.4,36.2c1-0.1,2-0.3,2.9-0.4
				c-5.1-12.2-14.3-22.8-26.9-27.6c-6.3-2.4-13.2-3.2-19.9-2.1c-7.3,1.2-13.5,5.1-19.3,9.4c-7.1,5.3-13.8,10.9-20.3,16.9
				c0.8,0.1,1.6,0.2,2.4,0.3c-2.5-4.2-4.5-8.6-5.9-13.3c-0.7-2.5-1.4-4.7,0.2-6.9c1.2-1.7,2.7-3.3,4.2-4.8
				c5.9-6,13.2-10.7,21.1-13.5c14.8-5.2,31.9-3.2,45.8,4c7.4,3.8,13.7,9.5,17.2,17.2c0.8,1.8,3.4,0.2,2.6-1.5
				c-6.8-15-23.7-22.6-39.1-24.8c-8.7-1.3-17.4-0.9-25.7,1.8c-8.6,2.7-16.5,7.5-22.9,13.8c-1.8,1.8-3.6,3.7-5.1,5.7
				c-1.8,2.4-2.3,4.8-1.6,7.7c1.3,5.7,3.8,11.3,6.8,16.2c0.5,0.9,1.6,1,2.4,0.3c5.5-5,11.2-9.9,17.1-14.4c5.4-4.1,11-8.4,17.6-10.3
				c12.4-3.5,25.8,0.9,35,9.6c5.1,4.8,9,10.7,11.7,17.1c0.3,0.7,0.8,1.2,1.6,1.1c0.7-0.1,1.4-0.7,1.3-1.5
				c-1.3-11.7,4.5-23.6,0.3-35.1c-0.8-2.2-1.9-4.3-3.5-6.1c-1.6-1.9-3.8-3.1-5.8-4.5c-0.8-0.6-1.7-1.3-2.1-2.3
				c-0.6-1.4-0.1-2.8,0.5-4.1c1-2.4,2.3-4.5,2.6-7.1c0.5-4.5-1.4-9.3-4.8-12.3c-4.6-4-10.6-3.6-16.2-3.2c-13,1-26,2.9-38.7,5.8
				c-3.6,0.8-7.1,1.7-10.7,2.7c-1.8,0.5-3.7,1-5.5,1.6c-1.3,0.4-2.6,0.8-3.7,1.6c-2.8,2-2.7,5.5-2.6,8.6c0.2,3.6,0.9,7.2,2.1,10.5
				C50.3,50.8,53.2,50.1,52.5,48.2L52.5,48.2z"/>
		</g>
	</g>
</g>
<g>
	<g>
		<path class="st6" d="M64.7,84.4c-0.5,0.2,0,0,0.2,0c0.2-0.1,0.5-0.1,0.7-0.1c0.6-0.1,1.1-0.2,1.7-0.2c1.6-0.2,3.3-0.3,4.9-0.5
			c1.7-0.1,3.4-0.2,5.2-0.3c1.3-0.1,2.8-0.3,4.2-0.2c-0.3-0.1-0.5-0.1-0.8-0.2c-0.3-0.1-0.1-0.3-0.1,0.1c0,0.2,0,0.5,0.1,0.8
			c0,0.5,0.1,1,0.1,1.5c0.1,1.1,0.1,2.1,0.1,3.2c-0.1,1.8-0.4,3.6-1.2,5.2C79,95,78,96.2,76.7,97c-0.4,0.2-0.8,0.4-1.3,0.5
			c-0.3,0.1,0.2,0-0.1,0c-0.2,0-0.5,0-0.7,0.1c-2.3,0.2-4.7,0.2-6.9-0.3c-1.2-0.3-1.6-0.4-2.3-1.3c-1-1.3-1.4-3-1.7-4.6
			c-0.3-1.3-0.4-2.6-0.3-4c0-0.7,0.1-1.3,0.2-2c0.1-0.3,0.1-0.6,0.2-0.8c0.1-0.2,0.3-0.4,0.2-0.3c1.6-1,0.1-3.6-1.5-2.6
			c-2,1.3-2.1,4.2-2.1,6.3c0,2.6,0.5,5.3,1.5,7.7c1,2.4,2.7,3.9,5.2,4.4c2.2,0.5,4.5,0.5,6.7,0.4c2-0.1,3.7-0.4,5.3-1.6
			c2.4-1.8,3.9-4.6,4.5-7.5c0.4-1.9,0.4-3.8,0.3-5.7c0-0.9-0.1-1.8-0.2-2.6c-0.1-0.8-0.1-1.7-0.7-2.4c-0.8-0.9-2.1-0.7-3.2-0.7
			c-1,0.1-2,0.1-3,0.2c-2.7,0.2-5.3,0.3-7.9,0.6c-1.8,0.2-3.9,0.2-5.6,1c-0.7,0.3-0.9,1.4-0.5,2.1C63.1,84.7,64,84.8,64.7,84.4
			L64.7,84.4z"/>
	</g>
</g>
<g>
	<g>
		<path class="st6" d="M84,87.7c2.1-2.8,5.4-6.7,9.2-4.3c0.8,0.5,1.6,1.3,2.2,2c0.5,0.6,0.8,1.2,1.5,1.6c1,0.6,2.7,1.7,3.7,0.6
			c0.6-0.6,0.5-1.5,0-2.1c-0.3-0.3-0.8-0.5-1.1-0.7c-1.7-0.9-3.2,1.7-1.5,2.6c0.2,0.1,0.4,0.2,0.6,0.3c0.2,0.1,0.2,0.3-0.1-0.1
			c0-0.7,0-1.4,0-2.1c0,0,0,0,0,0c0.4-0.1,0.7-0.3,1.1-0.4c0.4,0.1,0.5,0.1,0.3,0c0,0-0.1,0-0.1,0c0,0-0.1,0-0.1,0
			c0.2,0.1,0.2,0.1,0.1,0c-0.3-0.1-0.6-0.3-0.8-0.4c-0.2-0.1-0.5-0.3-0.7-0.4c-0.1,0,0.1,0.1,0.1,0.1c0-0.1-0.3-0.5-0.4-0.6
			c-1.4-1.8-3.2-3.4-5.5-4c-4.8-1.1-8.4,2.9-11,6.3c-0.5,0.6-0.1,1.7,0.5,2.1C82.8,88.7,83.6,88.4,84,87.7L84,87.7z"/>
	</g>
</g>
<g>
	<g>
		<path class="st6" d="M100,80c-0.4,0.6-0.5,1.5-0.5,2.3c-0.1,1,0,2.1,0.1,3.1c0.1,2.4,0.4,4.8,0.9,7.2c0.4,2.3,1.5,4.2,3.4,5.7
			c2.2,1.6,5.1,1.8,7.8,1.7c3.2,0,6.8,0,9.1-2.7c2.3-2.8,2.6-6.6,2.1-10c-0.2-1.6-0.6-3.2-0.9-4.9c-0.3-1.5-0.2-3.6-2.3-3.8
			c-1.3-0.1-2.8,0.1-4.1,0.2c-2.6,0.1-5.2,0.3-7.8,0.3c-1.2,0-2.3,0.1-3.5,0.1c-0.4,0-0.8,0-1.2,0c-0.1,0-0.3,0-0.4,0
			c-0.3,0,0.4,0.1,0,0c-1.9-0.4-2.7,2.5-0.8,2.9c1.1,0.3,2.4,0.2,3.6,0.2c1.9,0,3.8-0.1,5.6-0.2c1.8-0.1,3.7-0.2,5.5-0.3
			c0.6,0,1.3-0.1,1.9-0.1c0.2,0,0.4,0,0.6,0c0.1,0,0.2,0,0.2,0c0.2-0.1,0.1,0.1-0.1,0c-0.2-0.2-0.4-0.4-0.5-0.5
			c0.2,0.4,0.2,1.6,0.3,2.2c0.2,0.9,0.4,1.9,0.6,2.8c0.3,1.8,0.6,3.6,0.3,5.4c-0.2,1.7-0.9,3.7-2.5,4.7c-1.6,1-3.5,0.8-5.3,0.9
			c-2.7,0-5.8,0.1-7.7-2.3c-0.3-0.4-0.5-0.7-0.7-1.1c-0.2-0.3,0.1,0.3,0-0.1c-0.1-0.5-0.3-1-0.4-1.4c-0.2-1.2-0.4-2.4-0.5-3.6
			c-0.2-1.6-0.3-3.1-0.3-4.7c0-0.6,0-1.2,0-1.7c0-0.1,0-0.2,0-0.3c0-0.1,0,0.3,0-0.1c0,0,0.1-0.1,0-0.2c-0.1-0.2-0.2,0.3,0,0.1
			C103.7,79.9,101.1,78.4,100,80L100,80z"/>
	</g>
</g>
<g>
	<g>
		<path class="st3" d="M143,143.5c0.5,1.9,0.5,3.9,0,5.8c-0.1,0.4,0.1,0.8,0.5,0.9c0.4,0.1,0.8-0.1,0.9-0.5c0.5-2.2,0.5-4.4,0-6.5
			C144.2,142.1,142.7,142.5,143,143.5L143,143.5z"/>
	</g>
</g>
<g>
	<g>
		<g>
			<path class="st3" d="M64,61c0,1.7,0.2,3.4,0.5,5c0.1,0.7,0.2,1.4,0.4,2c0.1,0.3,0.1,0.7,0.3,0.9c0.1,0.1,0.3,0.1,0.5,0.1
				c0.1-0.1,0.2-0.2,0.2-0.3c0-0.5-0.7-0.5-0.8,0c0,0,0-0.1,0-0.1c0.1-0.1,0.1-0.1,0.2-0.2c0,0,0,0,0,0c0.2,0,0.3,0,0.5,0.1
				c0.2,0.2,0.1,0.2,0.1,0.1c0-0.1,0-0.1,0-0.2c0-0.2-0.1-0.4-0.1-0.6c-0.1-0.7-0.3-1.3-0.4-2c-0.3-1.6-0.5-3.2-0.4-4.7
				C64.8,60.5,64,60.5,64,61L64,61z"/>
		</g>
	</g>
	<g>
		<g>
			<path class="st3" d="M64.3,61.3c1,0.7,2.1,1.5,3.1,2.3c0.5,0.4,1,0.8,1.5,1.2c0.2,0.2,0.5,0.4,0.7,0.6c0.1,0.1,0.2,0.2,0.4,0.3
				c0.1,0.1,0.1,0.1,0.2,0.2c0,0,0.1,0,0.1,0.1c0.1,0.1,0.2,0,0.2-0.2c0.1,0,0.2,0.1,0.3,0.1c0,0,0,0,0,0c-0.4-0.3-0.9,0.2-0.5,0.5
				c0.2,0.2,0.6,0.2,0.8-0.1c0.2-0.3,0-0.6-0.2-0.8c-0.6-0.6-1.3-1.1-1.9-1.6c-1.3-1.1-2.7-2.1-4-3C64.3,60.4,63.9,61,64.3,61.3
				L64.3,61.3z"/>
		</g>
	</g>
	<g>
		<g>
			<path class="st3" d="M65.4,66.6c1.2-0.4,2.4-1.1,3.2-2.1c0.1-0.2,0.1-0.4,0-0.5c-0.1-0.1-0.4-0.2-0.5,0c-0.8,0.9-1.8,1.5-2.9,1.9
				C64.7,66,64.9,66.7,65.4,66.6L65.4,66.6z"/>
		</g>
	</g>
	<g>
		<g>
			<path class="st3" d="M72.7,57.9c1.1,0.1,2.2,0.9,2.6,2c0.4,1.1,0.2,2.4-0.6,3.3c-0.4,0.5-1,0.9-1.7,0.8c-0.6-0.1-1.2-0.4-1.6-0.9
				c-0.9-0.8-1.6-2.2-1.2-3.4c0.3-1,1.6-2.1,2.6-1.6c0.4,0.2,0.6-0.5,0.2-0.7c-1.3-0.5-2.7,0.5-3.3,1.6c-0.8,1.4-0.2,3.1,0.8,4.3
				c0.5,0.6,1.2,1.1,1.9,1.4c0.8,0.3,1.7,0.1,2.3-0.4c1.2-0.9,1.8-2.4,1.5-3.9c-0.3-1.7-1.8-2.9-3.5-3.1
				C72.2,57.1,72.2,57.9,72.7,57.9L72.7,57.9z"/>
		</g>
	</g>
	<g>
		<g>
			<path class="st3" d="M79.8,54.3c-1.1-0.1-2.1,0.4-2.8,1.2c-0.7,0.8-1,1.9-0.7,3c0.2,1,0.9,2,1.9,2.5c1,0.5,2.2,0.6,3.2,0.2
				c0.6-0.2,1.2-0.6,1.5-1.1c0.2-0.2,0.2-0.6,0.1-0.8c-0.2-0.3-0.5-0.4-0.8-0.2c-0.4,0.2,0,0.9,0.4,0.6c-0.1,0-0.2-0.1-0.3,0
				c0,0-0.1,0.1-0.1,0.1c-0.1,0.1-0.1,0.1-0.2,0.2c-0.2,0.1-0.3,0.2-0.5,0.3c-0.3,0.2-0.7,0.3-1.1,0.4c-0.8,0.1-1.6-0.1-2.2-0.6
				c-1.2-0.9-1.6-2.8-0.6-4c0.6-0.7,1.4-1.1,2.3-1C80.3,55,80.3,54.3,79.8,54.3L79.8,54.3z"/>
		</g>
	</g>
</g>
<g>
	<g>
		<path class="st7" d="M66.5,122.4c0.5,8,0.3,16.1,0.1,24.1c-0.1,1.9,2.9,1.9,3,0c0.2-8,0.4-16.1-0.1-24.1
			C69.3,120.5,66.3,120.5,66.5,122.4L66.5,122.4z"/>
	</g>
</g>
<g>
	<g>
		<path class="st7" d="M80.2,147.6c-0.9-8.3-0.6-16.7-1.6-25c-0.2-1.9-3.2-1.9-3,0c0.9,8.3,0.6,16.7,1.6,25
			C77.4,149.5,80.4,149.6,80.2,147.6L80.2,147.6z"/>
	</g>
</g>
<g>
	<g>
		<path class="st7" d="M105.5,121.4c0,5.6,0,11.3-0.1,16.9c0,2.4,0,4.9-0.1,7.3c0,0.8,0,1.6,0,2.3c0,0.2,0,0.4,0,0.7
			c0,0.3-0.1,0.5,0-0.1c0.9-0.1,1.8-0.2,2.7-0.4c0.2,0.2,0.2,0.5,0.1,0.7c-0.9,0.1-1.8,0.2-2.7,0.4c0,0,0,0,0,0
			c0.9,1.7,3.4,0.2,2.6-1.5c0,0,0,0,0,0c-0.5-1.1-2.6-0.9-2.7,0.4c-0.1,0.6-0.1,1.1,0.2,1.6c0.7,1.1,2.4,0.9,2.7-0.4
			c0.3-1,0.1-2.3,0.1-3.3c0-2.5,0-4.9,0.1-7.4c0-5.7,0.1-11.5,0.1-17.2C108.5,119.4,105.5,119.4,105.5,121.4L105.5,121.4z"/>
	</g>
</g>
<g>
	<g>
		<path class="st7" d="M114.3,147.6C114.3,147.6,114.3,147.6,114.3,147.6c1,0,2,0,3,0c-0.1-1.1-0.1-2.2-0.1-3.3
			c-0.1-2.6-0.2-5.2-0.3-7.7c-0.2-5.2-0.3-10.6-1.2-15.8c-0.1-0.7-0.2-1.4-0.6-2c-0.7-1.2-2.2-1-2.9,0c-1.1,1.6,1.5,3.1,2.6,1.5
			c-0.4,0.5-1.1,0.7-1.8,0.4c0,0-0.6-0.5-0.4-0.3c-0.1-0.1-0.1-0.4,0-0.1c0,0.1,0.1,0.2,0.1,0.4c0.2,0.7,0.3,1.5,0.3,1.8
			c0.3,2.2,0.4,4.5,0.6,6.7c0.3,5,0.5,10,0.6,14.9C114.2,145.4,114.2,146.5,114.3,147.6c0.2,1.9,2.8,2,3,0c0,0,0,0,0,0
			C117.5,145.7,114.5,145.7,114.3,147.6L114.3,147.6z"/>
	</g>
</g>
<g>
	<g>
		<path class="st7" d="M77.4,124.9C77.4,124.9,77.4,124.9,77.4,124.9c-0.1,0.3-0.3,0.6-0.4,1c0,0,0,0,0,0c-0.2,0.1-0.4,0.3-0.7,0.4
			c0,0,0,0,0.1,0c-0.3,0-0.5,0-0.8,0c0,0,0,0,0.1,0c-0.3-0.2-0.6-0.5-0.9-0.7c-0.1-0.5-0.1-0.7-0.1-0.4c0,0.1,0,0.1,0,0.2
			c0,0.1,0,0.3,0,0.3c0.1-0.1,0.1-0.3,0,0c0,0,0,0.2-0.1,0.3c0.1-0.2,0.1-0.2,0-0.1c0,0,0,0.1-0.1,0.1c0.1-0.2,0.1-0.2,0.1-0.1
			c-0.1,0.1-0.1,0,0.1-0.1c0,0-0.1,0-0.1,0.1c0.2-0.1,0.2-0.1,0.1,0c-0.1,0-0.2,0.1-0.3,0.1c-0.9,0.3-1.9,0.6-2.7,1.1
			c-1.8,1.1-3.1,3-3,5.2c0,0.8,0.5,1.4,1.3,1.5c0.7,0.1,1.4-0.4,1.6-1.1c0.1-0.2,0.1-0.4,0.2-0.6c0,0,0.1-0.3,0-0.1
			c-0.1,0.2,0-0.1,0.1-0.1c0-0.1,0.1-0.2,0.2-0.3c0.2-0.3-0.2,0.2,0,0c0.1,0,0.3-0.2,0.1-0.1c-0.2,0.1,0.1,0,0.2-0.1
			c-0.3,0.2,0.1,0,0.1,0c0.1,0,0.2-0.1,0.4-0.1c0.2-0.1,0.4-0.1,0.6-0.2c0.5-0.2,1-0.4,1.5-0.6c1.8-0.9,3.3-3.2,2.4-5.2
			c-0.2-0.4-0.3-0.7-0.7-0.9c-0.3-0.2-0.8-0.3-1.2-0.2c-0.7,0.2-1.4,1.1-1,1.8c0,0.1,0.1,0.2,0.1,0.3c0.1,0.3,0-0.2,0,0
			c0,0.1,0,0.2,0,0.3c0,0.3,0.1-0.3,0,0c0,0.1,0,0.2-0.1,0.3c0,0,0,0.1,0,0.1c0,0.1,0,0.1,0-0.1c0,0.1-0.2,0.4-0.3,0.5
			c0.1-0.1,0.1-0.2,0.1-0.1c0,0-0.1,0.1-0.1,0.1c-0.1,0.1-0.1,0.1-0.2,0.2c0,0-0.1,0.1-0.1,0.1c0,0,0.1-0.1,0.1-0.1
			c0,0.1-0.2,0.2-0.3,0.2c-0.2,0.1-0.3,0.2-0.5,0.3c-0.4,0.2,0.3-0.1-0.1,0c-0.1,0-0.2,0.1-0.3,0.1c-1,0.3-2,0.5-2.8,1.2
			c-0.7,0.7-1,1.6-1.3,2.5c1,0.1,2,0.3,2.9,0.4c0-0.2,0-0.3,0-0.5c0-0.3-0.1,0.3,0-0.1c0-0.1,0.1-0.2,0.1-0.3c0-0.1,0-0.1,0.1-0.2
			c0.1-0.2,0.1-0.1,0,0c0-0.2,0.2-0.4,0.3-0.6c0-0.1,0.1-0.1,0.1-0.2c-0.1,0.1-0.1,0.2-0.1,0.1c0.1-0.1,0.2-0.2,0.3-0.3
			c0.1-0.1,0.2-0.2,0.3-0.2c0.1-0.1,0.1-0.1,0.2-0.2c-0.1,0.1-0.2,0.1-0.1,0.1c0.2-0.1,0.4-0.3,0.7-0.4c0.1-0.1,0.2-0.1,0.4-0.2
			c0.1,0,0.1-0.1,0.2-0.1c0.2-0.1,0.1-0.1,0,0c0.2-0.1,0.5-0.2,0.7-0.3c0.7-0.2,1.4-0.4,1.9-0.9c0.5-0.4,0.8-1,0.9-1.7
			c0.1-0.7,0.2-1.5-0.2-2.2c-0.8-1.3-3-0.7-3,0.9c0,0.8,0.7,1.5,1.5,1.5C76.7,126.4,77.4,125.8,77.4,124.9L77.4,124.9z"/>
	</g>
</g>
<g>
	<g>
		<path class="st7" d="M77.9,133.6C77.9,133.6,77.9,133.5,77.9,133.6c-0.1,0.3-0.3,0.6-0.4,1c0,0,0,0,0,0c-0.2,0.1-0.4,0.3-0.7,0.4
			c0,0,0,0,0.1,0c-0.3,0-0.5,0-0.8,0c0,0,0,0,0.1,0c-0.3-0.2-0.6-0.5-0.9-0.7c-0.1-0.5-0.1-0.7-0.1-0.4c0,0.1,0,0.1,0,0.2
			c0,0.1,0,0.3,0,0.3c0.1-0.1,0.1-0.3,0,0c0,0,0,0.2-0.1,0.3c0.1-0.2,0.1-0.2,0-0.1c0,0,0,0.1-0.1,0.1c0.1-0.2,0.1-0.2,0.1-0.1
			c-0.1,0.1-0.1,0,0.1-0.1c0,0-0.1,0-0.1,0.1c0.2-0.1,0.2-0.1,0.1,0c-0.1,0-0.2,0.1-0.3,0.1c-0.9,0.3-1.9,0.6-2.7,1.1
			c-1.8,1.1-3.1,3-3,5.2c0,0.8,0.5,1.4,1.3,1.5c0.7,0.1,1.4-0.4,1.6-1.1c0.1-0.2,0.1-0.4,0.2-0.6c0,0,0.1-0.3,0-0.1
			c-0.1,0.2,0-0.1,0.1-0.1c0-0.1,0.1-0.2,0.2-0.3c0.2-0.3-0.2,0.2,0,0c0.1,0,0.3-0.2,0.1-0.1c-0.2,0.1,0.1,0,0.2-0.1
			c-0.3,0.2,0.1,0,0.1,0c0.1,0,0.2-0.1,0.4-0.1c0.2-0.1,0.4-0.1,0.6-0.2c0.5-0.2,1-0.4,1.5-0.6c1.8-0.9,3.3-3.2,2.4-5.2
			c-0.2-0.4-0.3-0.7-0.7-0.9c-0.3-0.2-0.8-0.3-1.2-0.2c-0.7,0.2-1.4,1.1-1,1.8c0,0.1,0.1,0.2,0.1,0.3c0.1,0.3,0-0.2,0,0
			c0,0.1,0,0.2,0,0.3c0,0.3,0.1-0.3,0,0c0,0.1,0,0.2-0.1,0.3c0,0,0,0.1,0,0.1c0,0.1,0,0.1,0-0.1c0,0.1-0.2,0.4-0.3,0.5
			c0.1-0.1,0.1-0.2,0.1-0.1c0,0-0.1,0.1-0.1,0.1c-0.1,0.1-0.1,0.1-0.2,0.2c0,0-0.1,0.1-0.1,0.1c0,0,0.1-0.1,0.1-0.1
			c0,0.1-0.2,0.2-0.3,0.2c-0.2,0.1-0.3,0.2-0.5,0.3c-0.4,0.2,0.3-0.1-0.1,0c-0.1,0-0.2,0.1-0.3,0.1c-1,0.3-2,0.5-2.8,1.2
			c-0.7,0.7-1,1.6-1.3,2.5c1,0.1,2,0.3,2.9,0.4c0-0.2,0-0.3,0-0.5c0-0.3-0.1,0.3,0-0.1c0-0.1,0.1-0.2,0.1-0.3c0-0.1,0-0.1,0.1-0.2
			c0.1-0.2,0.1-0.1,0,0c0-0.2,0.2-0.4,0.3-0.6c0-0.1,0.1-0.1,0.1-0.2c-0.1,0.1-0.1,0.2-0.1,0.1c0.1-0.1,0.2-0.2,0.3-0.3
			c0.1-0.1,0.2-0.2,0.3-0.2c0.1-0.1,0.1-0.1,0.2-0.2c-0.1,0.1-0.2,0.1-0.1,0.1c0.2-0.1,0.4-0.3,0.7-0.4c0.1-0.1,0.2-0.1,0.4-0.2
			c0.1,0,0.1-0.1,0.2-0.1c0.2-0.1,0.1-0.1,0,0c0.2-0.1,0.5-0.2,0.7-0.3c0.7-0.2,1.4-0.4,1.9-0.9c0.5-0.4,0.8-1,0.9-1.7
			c0.1-0.7,0.2-1.5-0.2-2.2c-0.8-1.3-3-0.7-3,0.9c0,0.8,0.7,1.5,1.5,1.5C77.1,135,77.9,134.4,77.9,133.6L77.9,133.6z"/>
	</g>
</g>
<g>
	<g>
		<path class="st7" d="M78.7,141.9C78.7,141.9,78.7,141.9,78.7,141.9c-0.1,0.3-0.3,0.6-0.4,1c0,0,0,0,0,0c-0.2,0.1-0.4,0.3-0.7,0.4
			c0,0,0,0,0.1,0c-0.3,0-0.5,0-0.8,0c0,0,0,0,0.1,0c-0.3-0.2-0.6-0.5-0.9-0.7c-0.1-0.5-0.1-0.7-0.1-0.4c0,0.1,0,0.1,0,0.2
			c0,0.1,0,0.3,0,0.3c0.1-0.1,0.1-0.3,0,0c0,0,0,0.2-0.1,0.3c0.1-0.2,0.1-0.2,0-0.1c0,0,0,0.1-0.1,0.1c0.1-0.2,0.1-0.2,0.1-0.1
			c-0.1,0.1-0.1,0,0.1-0.1c0,0-0.1,0-0.1,0.1c0.2-0.1,0.2-0.1,0.1,0c-0.1,0-0.2,0.1-0.3,0.1c-0.9,0.3-1.9,0.6-2.7,1.1
			c-1.8,1.1-3.1,3-3,5.2c0,0.8,0.5,1.4,1.3,1.5c0.7,0.1,1.4-0.4,1.6-1.1c0.1-0.2,0.1-0.4,0.2-0.6c0,0,0.1-0.3,0-0.1
			c-0.1,0.2,0-0.1,0.1-0.1c0-0.1,0.1-0.2,0.2-0.3c0.2-0.3-0.2,0.2,0,0c0.1,0,0.3-0.2,0.1-0.1c-0.2,0.1,0.1,0,0.2-0.1
			c-0.3,0.2,0.1,0,0.1,0c0.1,0,0.2-0.1,0.4-0.1c0.2-0.1,0.4-0.1,0.6-0.2c0.5-0.2,1-0.4,1.5-0.6c1.8-0.9,3.3-3.2,2.4-5.2
			c-0.2-0.4-0.3-0.7-0.7-0.9c-0.3-0.2-0.8-0.3-1.2-0.2c-0.7,0.2-1.4,1.1-1,1.8c0,0.1,0.1,0.2,0.1,0.3c0.1,0.3,0-0.2,0,0
			c0,0.1,0,0.2,0,0.3c0,0.3,0.1-0.3,0,0c0,0.1,0,0.2-0.1,0.3c0,0,0,0.1,0,0.1c0,0.1,0,0.1,0-0.1c0,0.1-0.2,0.4-0.3,0.5
			c0.1-0.1,0.1-0.2,0.1-0.1c0,0-0.1,0.1-0.1,0.1c-0.1,0.1-0.1,0.1-0.2,0.2c0,0-0.1,0.1-0.1,0.1c0,0,0.1-0.1,0.1-0.1
			c0,0.1-0.2,0.2-0.3,0.2c-0.2,0.1-0.3,0.2-0.5,0.3c-0.4,0.2,0.3-0.1-0.1,0c-0.1,0-0.2,0.1-0.3,0.1c-1,0.3-2,0.5-2.8,1.2
			c-0.7,0.7-1,1.6-1.3,2.5c1,0.1,2,0.3,2.9,0.4c0-0.2,0-0.3,0-0.5c0-0.3-0.1,0.3,0-0.1c0-0.1,0.1-0.2,0.1-0.3c0-0.1,0-0.1,0.1-0.2
			c0.1-0.2,0.1-0.1,0,0c0-0.2,0.2-0.4,0.3-0.6c0-0.1,0.1-0.1,0.1-0.2c-0.1,0.1-0.1,0.2-0.1,0.1c0.1-0.1,0.2-0.2,0.3-0.3
			c0.1-0.1,0.2-0.2,0.3-0.2c0.1-0.1,0.1-0.1,0.2-0.2c-0.1,0.1-0.2,0.1-0.1,0.1c0.2-0.1,0.4-0.3,0.7-0.4c0.1-0.1,0.2-0.1,0.4-0.2
			c0.1,0,0.1-0.1,0.2-0.1c0.2-0.1,0.1-0.1,0,0c0.2-0.1,0.5-0.2,0.7-0.3c0.7-0.2,1.4-0.4,1.9-0.9c0.5-0.4,0.8-1,0.9-1.7
			c0.1-0.7,0.2-1.5-0.2-2.2c-0.8-1.3-3-0.7-3,0.9c0,0.8,0.7,1.5,1.5,1.5C77.9,143.4,78.7,142.8,78.7,141.9L78.7,141.9z"/>
	</g>
</g>
<g>
	<g>
		<path class="st7" d="M110.3,122.2c0-0.7-0.5-1.3-1.1-1.5c-0.7-0.2-1.4,0.1-1.8,0.7c-0.4,0.6-0.3,1.5-0.2,2.2
			c0.1,0.6,0.4,1.2,0.9,1.7c0.6,0.5,1.2,0.7,1.9,0.9c0.2,0.1,0.5,0.1,0.7,0.3c-0.3-0.2,0,0,0.1,0c0.1,0.1,0.3,0.1,0.4,0.2
			c0.2,0.1,0.4,0.2,0.6,0.4c0.1,0.1,0.1,0.1,0,0c0.1,0,0.1,0.1,0.2,0.2c0.1,0.1,0.2,0.2,0.3,0.2c0.1,0.1,0.2,0.2,0.2,0.3
			c0.1,0.1,0.1,0.1,0,0c0,0.1,0.1,0.1,0.1,0.2c0.1,0.1,0.4,0.5,0.3,0.6c-0.1-0.2-0.1-0.2,0,0c0,0.1,0,0.1,0.1,0.2
			c0,0.1,0.1,0.3,0.1,0.4c0.1,0.3,0-0.3,0,0.1c0,0.2,0,0.3,0,0.5c1-0.1,2-0.3,2.9-0.4c-0.3-0.9-0.6-1.8-1.2-2.5
			c-0.8-0.8-1.8-0.9-2.8-1.3c-0.1,0-0.2-0.1-0.3-0.1c-0.3-0.1,0.1,0.1,0,0c-0.2-0.1-0.4-0.2-0.6-0.3c-0.1-0.1-0.2-0.1-0.2-0.2
			c-0.1-0.1,0.2,0.2,0,0c-0.1-0.1-0.2-0.2-0.2-0.2c0,0-0.2-0.3-0.1-0.1c0.1,0.2,0-0.1-0.1-0.1c0,0-0.1-0.3-0.2-0.3
			c0,0,0.1,0.3,0,0.1c0-0.1-0.1-0.2-0.1-0.3c-0.1-0.3,0,0.2,0,0c0-0.1,0-0.2,0-0.3c0-0.3-0.1,0.3,0,0c0-0.1,0.1-0.2,0.1-0.3
			c0.3-0.7-0.3-1.7-1-1.8c-0.9-0.2-1.5,0.3-1.8,1c-0.9,2,0.6,4.3,2.4,5.2c0.5,0.2,1,0.4,1.5,0.6c0.2,0.1,0.4,0.1,0.6,0.2
			c0.1,0,0.2,0.1,0.4,0.1c0,0,0.4,0.1,0.2,0c-0.2-0.1,0.1,0.1,0.2,0.1c-0.1-0.1-0.2-0.1-0.1-0.1c0,0,0.1,0.1,0.1,0.1
			c0.2,0.2-0.1-0.2,0,0c0,0.1,0.1,0.1,0.1,0.2c0,0.1,0.1,0.2,0.1,0.2c-0.1-0.2-0.1-0.2,0-0.1c0,0.1,0,0.1,0.1,0.2
			c0.1,0.2,0.1,0.4,0.2,0.6c0.2,0.7,0.9,1.2,1.6,1.1c0.8-0.1,1.3-0.7,1.3-1.5c0.1-2.2-1.2-4.1-3-5.2c-0.8-0.5-1.7-0.9-2.7-1.1
			c-0.1,0-0.2-0.1-0.3-0.1c-0.1,0-0.2-0.1,0,0c0.1,0,0.1,0,0,0c0,0,0.1,0.1,0.1,0.1c-0.1-0.1-0.1-0.1,0,0.1c0,0-0.1-0.3-0.1-0.1
			c0.1,0.2,0-0.1,0-0.1c0-0.1,0-0.1,0-0.2c0-0.1,0-0.1,0,0.1c0,0,0-0.3,0-0.3c0,0,0-0.1,0-0.1c0-0.3,0-0.1-0.1,0.4
			c-0.3,0.2-0.6,0.5-0.9,0.7c0,0,0,0,0.1,0c-0.3,0-0.5,0-0.8,0c0,0,0,0,0.1,0c-0.2-0.1-0.4-0.3-0.7-0.4c0,0,0,0,0,0
			c-0.1-0.4-0.3-0.7-0.4-1.1c0,0,0,0,0,0.1c0,0.8,0.7,1.5,1.5,1.5C109.7,123.7,110.3,123.1,110.3,122.2L110.3,122.2z"/>
	</g>
</g>
<g>
	<g>
		<path class="st7" d="M109.6,131.4c0-0.7-0.5-1.3-1.1-1.5c-0.7-0.2-1.4,0.1-1.8,0.7c-0.4,0.6-0.3,1.5-0.2,2.2
			c0.1,0.6,0.4,1.2,0.9,1.7c0.6,0.5,1.2,0.7,1.9,0.9c0.2,0.1,0.5,0.1,0.7,0.3c-0.3-0.2,0,0,0.1,0c0.1,0.1,0.3,0.1,0.4,0.2
			c0.2,0.1,0.4,0.2,0.6,0.4c0.1,0.1,0.1,0.1,0,0c0.1,0,0.1,0.1,0.2,0.2c0.1,0.1,0.2,0.2,0.3,0.2c0.1,0.1,0.2,0.2,0.2,0.3
			c0.1,0.1,0.1,0.1,0,0c0,0.1,0.1,0.1,0.1,0.2c0.1,0.1,0.4,0.5,0.3,0.6c-0.1-0.2-0.1-0.2,0,0c0,0.1,0,0.1,0.1,0.2
			c0,0.1,0.1,0.3,0.1,0.4c0.1,0.3,0-0.3,0,0.1c0,0.2,0,0.3,0,0.5c1-0.1,2-0.3,2.9-0.4c-0.3-0.9-0.6-1.8-1.2-2.5
			c-0.8-0.8-1.8-0.9-2.8-1.3c-0.1,0-0.2-0.1-0.3-0.1c-0.3-0.1,0.1,0.1,0,0c-0.2-0.1-0.4-0.2-0.6-0.3c-0.1-0.1-0.2-0.1-0.2-0.2
			c-0.1-0.1,0.2,0.2,0,0c-0.1-0.1-0.2-0.2-0.2-0.2c0,0-0.2-0.3-0.1-0.1c0.1,0.2,0-0.1-0.1-0.1c0,0-0.1-0.3-0.2-0.3
			c0,0,0.1,0.3,0,0.1c0-0.1-0.1-0.2-0.1-0.3c-0.1-0.3,0,0.2,0,0c0-0.1,0-0.2,0-0.3c0-0.3-0.1,0.3,0,0c0-0.1,0.1-0.2,0.1-0.3
			c0.3-0.7-0.3-1.7-1-1.8c-0.9-0.2-1.5,0.3-1.8,1c-0.9,2,0.6,4.3,2.4,5.2c0.5,0.2,1,0.4,1.5,0.6c0.2,0.1,0.4,0.1,0.6,0.2
			c0.1,0,0.2,0.1,0.4,0.1c0,0,0.4,0.1,0.2,0c-0.2-0.1,0.1,0.1,0.2,0.1c-0.1-0.1-0.2-0.1-0.1-0.1c0,0,0.1,0.1,0.1,0.1
			c0.2,0.2-0.1-0.2,0,0c0,0.1,0.1,0.1,0.1,0.2c0,0.1,0.1,0.2,0.1,0.2c-0.1-0.2-0.1-0.2,0-0.1c0,0.1,0,0.1,0.1,0.2
			c0.1,0.2,0.1,0.4,0.2,0.6c0.2,0.7,0.9,1.2,1.6,1.1c0.8-0.1,1.3-0.7,1.3-1.5c0.1-2.2-1.2-4.1-3-5.2c-0.8-0.5-1.7-0.9-2.7-1.1
			c-0.1,0-0.2-0.1-0.3-0.1c-0.1,0-0.2-0.1,0,0c0.1,0,0.1,0,0,0c0,0,0.1,0.1,0.1,0.1c-0.1-0.1-0.1-0.1,0,0.1c0,0-0.1-0.3-0.1-0.1
			c0.1,0.2,0-0.1,0-0.1c0-0.1,0-0.1,0-0.2c0-0.1,0-0.1,0,0.1c0,0,0-0.3,0-0.3c0,0,0-0.1,0-0.1c0-0.3,0-0.1-0.1,0.4
			c-0.3,0.2-0.6,0.5-0.9,0.7c0,0,0,0,0.1,0c-0.3,0-0.5,0-0.8,0c0,0,0,0,0.1,0c-0.2-0.1-0.4-0.3-0.7-0.4c0,0,0,0,0,0
			c-0.1-0.4-0.3-0.7-0.4-1.1c0,0,0,0,0,0.1c0,0.8,0.7,1.5,1.5,1.5C109,132.9,109.6,132.3,109.6,131.4L109.6,131.4z"/>
	</g>
</g>
<g>
	<g>
		<path class="st7" d="M109.1,139.4c0-0.7-0.5-1.3-1.1-1.5c-0.7-0.2-1.4,0.1-1.8,0.7c-0.4,0.6-0.3,1.5-0.2,2.2
			c0.1,0.6,0.4,1.2,0.9,1.7c0.6,0.5,1.2,0.7,1.9,0.9c0.2,0.1,0.5,0.1,0.7,0.3c-0.3-0.2,0,0,0.1,0c0.1,0.1,0.3,0.1,0.4,0.2
			c0.2,0.1,0.4,0.2,0.6,0.4c0.1,0.1,0.1,0.1,0,0c0.1,0,0.1,0.1,0.2,0.2c0.1,0.1,0.2,0.2,0.3,0.2c0.1,0.1,0.2,0.2,0.2,0.3
			c0.1,0.1,0.1,0.1,0,0c0,0.1,0.1,0.1,0.1,0.2c0.1,0.1,0.4,0.5,0.3,0.6c-0.1-0.2-0.1-0.2,0,0c0,0.1,0,0.1,0.1,0.2
			c0,0.1,0.1,0.3,0.1,0.4c0.1,0.3,0-0.3,0,0.1c0,0.2,0,0.3,0,0.5c1-0.1,2-0.3,2.9-0.4c-0.3-0.9-0.6-1.8-1.2-2.5
			c-0.8-0.8-1.8-0.9-2.8-1.3c-0.1,0-0.2-0.1-0.3-0.1c-0.3-0.1,0.1,0.1,0,0c-0.2-0.1-0.4-0.2-0.6-0.3c-0.1-0.1-0.2-0.1-0.2-0.2
			c-0.1-0.1,0.2,0.2,0,0c-0.1-0.1-0.2-0.2-0.2-0.2c0,0-0.2-0.3-0.1-0.1c0.1,0.2,0-0.1-0.1-0.1c0,0-0.1-0.3-0.2-0.3
			c0,0,0.1,0.3,0,0.1c0-0.1-0.1-0.2-0.1-0.3c-0.1-0.3,0,0.2,0,0c0-0.1,0-0.2,0-0.3c0-0.3-0.1,0.3,0,0c0-0.1,0.1-0.2,0.1-0.3
			c0.3-0.7-0.3-1.7-1-1.8c-0.9-0.2-1.5,0.3-1.8,1c-0.9,2,0.6,4.3,2.4,5.2c0.5,0.2,1,0.4,1.5,0.6c0.2,0.1,0.4,0.1,0.6,0.2
			c0.1,0,0.2,0.1,0.4,0.1c0,0,0.4,0.1,0.2,0c-0.2-0.1,0.1,0.1,0.2,0.1c-0.1-0.1-0.2-0.1-0.1-0.1c0,0,0.1,0.1,0.1,0.1
			c0.2,0.2-0.1-0.2,0,0c0,0.1,0.1,0.1,0.1,0.2c0,0.1,0.1,0.2,0.1,0.2c-0.1-0.2-0.1-0.2,0-0.1c0,0.1,0,0.1,0.1,0.2
			c0.1,0.2,0.1,0.4,0.2,0.6c0.2,0.7,0.9,1.2,1.6,1.1c0.8-0.1,1.3-0.7,1.3-1.5c0.1-2.2-1.2-4.1-3-5.2c-0.8-0.5-1.7-0.9-2.7-1.1
			c-0.1,0-0.2-0.1-0.3-0.1c-0.1,0-0.2-0.1,0,0c0.1,0,0.1,0,0,0c0,0,0.1,0.1,0.1,0.1c-0.1-0.1-0.1-0.1,0,0.1c0,0-0.1-0.3-0.1-0.1
			c0.1,0.2,0-0.1,0-0.1c0-0.1,0-0.1,0-0.2c0-0.1,0-0.1,0,0.1c0,0,0-0.3,0-0.3c0,0,0-0.1,0-0.1c0-0.3,0-0.1-0.1,0.4
			c-0.3,0.2-0.6,0.5-0.9,0.7c0,0,0,0,0.1,0c-0.3,0-0.5,0-0.8,0c0,0,0,0,0.1,0c-0.2-0.1-0.4-0.3-0.7-0.4c0,0,0,0,0,0
			c-0.1-0.4-0.3-0.7-0.4-1.1c0,0,0,0,0,0.1c0,0.8,0.7,1.5,1.5,1.5C108.4,140.8,109.1,140.2,109.1,139.4L109.1,139.4z"/>
	</g>
</g>
<g>
	<g>
		<path class="st8" d="M44.3,144.7c0.1,2.5,0.3,5,0.4,7.5c0.1,1,1.6,1,1.5,0c-0.1-2.5-0.3-5-0.4-7.5
			C45.7,143.8,44.2,143.8,44.3,144.7L44.3,144.7z"/>
	</g>
</g>
<g>
	<g>
		<path class="st8" d="M48.5,146.9c0.3,2.8,0.3,5.5,0.2,8.3c-0.1,1,1.4,1,1.5,0c0.2-2.8,0.1-5.5-0.2-8.3c0-0.4-0.3-0.8-0.8-0.8
			C48.9,146.1,48.4,146.5,48.5,146.9L48.5,146.9z"/>
	</g>
</g>
<g>
	<g>
		<path class="st8" d="M52.9,147.6c-0.2,3.4-0.1,6.8,0,10.2c0,1,1.5,1,1.5,0c-0.1-3.4-0.2-6.8,0-10.2
			C54.5,146.7,53,146.7,52.9,147.6L52.9,147.6z"/>
	</g>
</g>
<g>
	<g>
		<path class="st8" d="M56.6,147.6c-0.2,3.6-0.9,7.2-0.6,10.8c0.1,1,1.6,1,1.5,0c-0.3-3.6,0.4-7.2,0.6-10.8
			C58.2,146.6,56.7,146.7,56.6,147.6L56.6,147.6z"/>
	</g>
</g>
<g>
	<g>
		<path class="st8" d="M59.7,149.6c0.5,3.5,0,7.2,0.5,10.7c0.1,0.4,0.6,0.6,0.9,0.5c0.4-0.1,0.6-0.5,0.5-0.9
			c-0.5-3.5,0-7.2-0.5-10.7c-0.1-0.4-0.6-0.6-0.9-0.5C59.8,148.8,59.6,149.2,59.7,149.6L59.7,149.6z"/>
	</g>
</g>
<g>
	<g>
		<path class="st8" d="M63.2,148.9c0.8,5,1,10.1,1.1,15.1c0,1,1.5,1,1.5,0c-0.1-5.2-0.3-10.4-1.1-15.5
			C64.5,147.5,63.1,147.9,63.2,148.9L63.2,148.9z"/>
	</g>
</g>
<g>
	<g>
		<path class="st8" d="M68.1,149.8c0.2,6.1,0,12.2-0.5,18.3c-0.1,1,1.4,1,1.5,0c0.6-6.1,0.8-12.2,0.5-18.3
			C69.5,148.8,68,148.8,68.1,149.8L68.1,149.8z"/>
	</g>
</g>
<g>
	<g>
		<path class="st8" d="M71.3,149.4c0.1,6.4-0.2,12.8-0.1,19.1c0,1,1.5,1,1.5,0c-0.1-6.4,0.2-12.8,0.1-19.1
			C72.8,148.4,71.3,148.4,71.3,149.4L71.3,149.4z"/>
	</g>
</g>
<g>
	<g>
		<path class="st8" d="M74.1,149.4c0.2,6.6,0.2,13.2,0.1,19.8c0,1,1.5,1,1.5,0c0.1-6.6,0.1-13.2-0.1-19.8
			C75.6,148.4,74.1,148.4,74.1,149.4L74.1,149.4z"/>
	</g>
</g>
<g>
	<g>
		<path class="st8" d="M77.8,150.1c0,6.8,0,13.7,0,20.5c0,1,1.5,1,1.5,0c0-6.8,0-13.7,0-20.5C79.3,149.2,77.8,149.2,77.8,150.1
			L77.8,150.1z"/>
	</g>
</g>
<g>
	<g>
		<path class="st8" d="M80,151.2c0.6,6.3,0.8,12.7,0.7,19.1c0,1,1.5,1,1.5,0c0.1-6.4-0.2-12.7-0.7-19.1
			C81.4,150.3,79.9,150.2,80,151.2L80,151.2z"/>
	</g>
</g>
<g>
	<g>
		<path class="st8" d="M83,149.9c0.9,6.7,1.4,13.5,1.5,20.3c0,1,1.5,1,1.5,0c-0.1-6.9-0.6-13.8-1.5-20.7
			C84.3,148.6,82.9,149,83,149.9L83,149.9z"/>
	</g>
</g>
<g>
	<g>
		<path class="st8" d="M88.1,150.5c0.1,4.1-0.1,8.1-0.1,12.2c0,2-0.1,4.1-0.1,6.1c0,1.1-0.1,2.2,0,3.3c0.1,0.6,0.7,1.3,1.3,0.6
			c0.3-0.3,0.3-0.9,0.3-1.3c0.1-1-1.4-1-1.5,0c0,0.2-0.1,0.2,0,0.4c0,0.2-0.3,0.3,0.1-0.1c0.2-0.1,0.4-0.1,0.5-0.2c0,0,0,0,0,0
			c0.2,0.1,0.4,0.1,0.5,0.2c0.3,0.2,0.1,0.5,0.2,0.1c0-0.2,0-0.5,0-0.7c0-0.7,0-1.3,0-2c0-2,0-4.1,0.1-6.1c0.1-4.2,0.2-8.3,0.1-12.5
			C89.6,149.5,88.1,149.5,88.1,150.5L88.1,150.5z"/>
	</g>
</g>
<g>
	<g>
		<path class="st8" d="M91.4,150.8c0.1,7.2,0.3,14.3,0.6,21.5c0,0.8,1.3,1.1,1.5,0.2c0.1-0.3,0.1-0.7,0.2-1c0.2-0.9-1.3-1.3-1.4-0.4
			c-0.1,0.3-0.1,0.7-0.2,1c0.5,0.1,1,0.1,1.5,0.2c-0.3-7.2-0.5-14.3-0.6-21.5C92.9,149.9,91.4,149.9,91.4,150.8L91.4,150.8z"/>
	</g>
</g>
<g>
	<g>
		<path class="st8" d="M95,150.2c0.4,7.3,1,14.5,1,21.8c0,1,1.5,1,1.5,0c0-7.3-0.6-14.6-1-21.8C96.4,149.3,94.9,149.2,95,150.2
			L95,150.2z"/>
	</g>
</g>
<g>
	<g>
		<path class="st8" d="M98.5,152.3c0.5,6.7,1,13.4,0.9,20.2c0,1,1.4,0.9,1.5,0c0.1-0.6,0-1.3-0.2-1.8c-0.4-0.9-1.7-0.1-1.3,0.8
			c0.1,0.2,0,0.8,0,1.1c0.5,0,1,0,1.5,0c0-6.8-0.4-13.5-0.9-20.2C100,151.3,98.5,151.3,98.5,152.3L98.5,152.3z"/>
	</g>
</g>
<g>
	<g>
		<path class="st8" d="M102.1,151.2c0.1,6.7,0.2,13.4,0.3,20.1c0,1,1.5,1,1.5,0c-0.1-6.7-0.2-13.4-0.3-20.1
			C103.6,150.2,102.1,150.2,102.1,151.2L102.1,151.2z"/>
	</g>
</g>
<g>
	<g>
		<path class="st8" d="M105.5,150.8c0.4,6.6,0.6,13.2,0.5,19.8c0,1,1.5,1,1.5,0c0.1-6.6,0-13.2-0.5-19.8
			C106.9,149.9,105.4,149.9,105.5,150.8L105.5,150.8z"/>
	</g>
</g>
<g>
	<g>
		<path class="st8" d="M108.6,150.5c0.5,6.2,1,12.5,1.6,18.7c0.1,1,1.6,1,1.5,0c-0.5-6.2-1-12.5-1.6-18.7
			C110,149.5,108.5,149.5,108.6,150.5L108.6,150.5z"/>
	</g>
</g>
<g>
	<g>
		<path class="st8" d="M113,149c0.3,6.3,1,12.6,1.3,18.9c0,0.4,0.3,0.7,0.8,0.8c0.6,0,1.1-0.4,1.3-1c0.2-0.9-1.3-1.3-1.4-0.4
			c0.1,0,0.1-0.1,0.2-0.1c0.2,0.2,0.5,0.5,0.8,0.8c-0.3-6.3-1-12.6-1.3-18.9C114.5,148,113,148,113,149L113,149z"/>
	</g>
</g>
<g>
	<g>
		<path class="st8" d="M119.2,148c-0.3,6.7-0.6,13.4-0.9,20.1c0,1,1.5,1,1.5,0c0.3-6.7,0.6-13.4,0.9-20.1
			C120.7,147,119.2,147,119.2,148L119.2,148z"/>
	</g>
</g>
<g>
	<g>
		<path class="st8" d="M122.1,149.5c0.2,0,0.2,4.3,0.3,4.7c0.1,1.8,0.1,3.6,0.2,5.4c0.1,1.4,0.1,2.8,0.2,4.2c0,0.5-0.1,1.7,0.3,2
			c0.5,0.4,1.3,0.2,1.3-0.5c0,0,0,0,0,0c0-1-1.5-1-1.5,0c0,0,0,0,0,0c0.4-0.2,0.9-0.4,1.3-0.5c0,0,0,0,0,0c0.1,0.2,0.1,0.4,0.2,0.5
			c-0.2-2.4-0.2-4.9-0.3-7.3c-0.1-1.9-0.1-3.8-0.2-5.7c0-1.4,0.3-4.1-1.7-4.2C121.1,147.9,121.1,149.4,122.1,149.5L122.1,149.5z"/>
	</g>
</g>
<g>
	<g>
		<path class="st8" d="M125,148.5c0.8,4.6,1,9.3,0.8,13.9c-0.1,1,1.4,1,1.5,0c0.3-4.8,0-9.6-0.8-14.3
			C126.3,147.2,124.9,147.6,125,148.5L125,148.5z"/>
	</g>
</g>
<g>
	<g>
		<path class="st8" d="M128.9,147.3c0.5,4.8,0.6,9.7,0.4,14.5c-0.1,1,1.4,1,1.5,0c0.3-4.8,0.2-9.7-0.4-14.5
			C130.3,146.3,128.8,146.3,128.9,147.3L128.9,147.3z"/>
	</g>
</g>
<g>
	<g>
		<path class="st8" d="M132.2,147.2c0.3,3.8,0.2,7.7-0.3,11.5c-0.1,0.4,0.4,0.7,0.8,0.8c0.4,0,0.7-0.3,0.8-0.8
			c0.5-3.8,0.6-7.7,0.3-11.5C133.7,146.3,132.2,146.3,132.2,147.2L132.2,147.2z"/>
	</g>
</g>
<g>
	<g>
		<path class="st8" d="M136.7,145.1c0.3,4.4,0.1,8.8-0.7,13.1c-0.2,0.9,1.3,1.3,1.4,0.4c0.8-4.5,1-9,0.7-13.5
			C138.2,144.1,136.7,144.1,136.7,145.1L136.7,145.1z"/>
	</g>
</g>
<g>
	<g>
		<path class="st8" d="M139.9,145.3c0.5,3.7,0.1,7.4-1.2,10.9c-0.3,0.9,1.1,1.3,1.4,0.4c1.4-3.6,1.8-7.5,1.3-11.3
			c-0.1-0.4-0.3-0.7-0.8-0.8C140.3,144.5,139.9,144.9,139.9,145.3L139.9,145.3z"/>
	</g>
</g>
<g>
	<g>
		<path class="st3" d="M49.1,154.8c0.3,0.5,0,1.5,0,2c-0.1,0.9-0.4,1.7-0.6,2.6c-0.5,1.6-1,3.2-1.2,4.9c-0.2,1.8-0.4,3.8-0.1,5.6
			c0.3,1.7,1.8,2.5,3.3,2.7c3.4,0.5,6.8-0.9,9.6-2.7c3-1.9,5.7-4.1,8.2-6.5c1.4-1.3-0.7-3.5-2.1-2.1c-2.2,2.2-4.6,4.1-7.2,5.8
			c-2.3,1.5-5.2,3.1-8,2.6c-0.4-0.1-0.7-0.1-0.9-0.4c-0.1-0.3,0-0.9,0-1.3c0-0.4,0-0.7,0-1.1c0-1.6,0.3-3.2,0.7-4.7
			c0.4-1.5,0.9-3,1.2-4.5c0.2-1.4,0.5-3.1-0.3-4.4C50.6,151.6,48.1,153.1,49.1,154.8L49.1,154.8z"/>
	</g>
</g>
<g>
	<g>
		<g>
			<path class="st3" d="M134.9,163.6c6.5-8.9,13.3-17.9,16.8-28.5c2.1-6.5,2.2-13.4,1.3-20.1c-0.4-2.6-0.8-5.1-1.6-7.6
				c-0.9-2.5-1.8-5.1-2.7-7.6c-1.1-2.9-2.3-5.9-3.4-8.8c-0.3-0.9-0.6-1.7-0.7-2.7c0-1.4-0.4-2.5-0.9-3.7c-0.8-1.8-3.3-0.2-2.6,1.5
				c0.4,0.9,0.4,1.6,0.5,2.5c0,1.1,0.3,2,0.7,3c0.8,2.3,1.7,4.5,2.6,6.7c1.8,4.7,3.7,9.3,4.7,14.3c1.2,6.5,1.4,13.5-0.3,19.9
				c-1.6,6-4.8,11.6-8.1,16.8c-2.8,4.4-5.9,8.5-8.9,12.6C131.1,163.6,133.7,165.1,134.9,163.6L134.9,163.6z"/>
		</g>
	</g>
</g>
<g>
	<g>
		<path class="st3" d="M62.3,168c8.8,3.4,18.2,5.7,27.7,6.3c9,0.6,18.1-0.6,26.2-4.6c1.7-0.9,0.2-3.4-1.5-2.6
			c-7.8,3.8-16.6,4.7-25.1,4.1c-9-0.6-18-2.9-26.4-6.1C61.3,164.4,60.6,167.3,62.3,168L62.3,168z"/>
	</g>
</g>
<g>
	<g>
		<path class="st3" d="M39.1,142.5c5.6,3.9,12.5,5.3,19.2,6.5c7.2,1.3,14.5,2.2,21.8,2.6c14.5,0.9,29.1,0,43.4-2.5
			c8.1-1.4,16.1-3.4,23.9-5.9c1.8-0.6,1-3.5-0.8-2.9c-27.2,8.7-56.4,10.9-84.5,6.3c-7.3-1.2-15.2-2.4-21.4-6.7
			C39,138.8,37.5,141.4,39.1,142.5L39.1,142.5z"/>
	</g>
</g>
<g>
	<g>
		<path class="st3" d="M116.2,169.7c0.8-0.6,2.1-0.3,3-0.1c1.3,0.3,2.4,1,3.5,1.7c2.7,1.6,6,3.8,9.3,2.5c3.2-1.3,4-5.1,3.7-8.2
			c-0.4-3.6-1.6-7.2-2.5-10.7c-0.5-1.9-3.4-1.1-2.9,0.8c0.4,1.7,0.9,3.4,1.3,5.1c0.4,1.6,0.9,3.1,1,4.7c0.2,2.2-0.2,6-3.3,5.5
			c-2.8-0.4-5.2-2.7-7.8-3.9c-2-0.9-5.1-1.5-7-0.2C113.1,168.2,114.6,170.8,116.2,169.7L116.2,169.7z"/>
	</g>
</g>
<g>
	<g>
		<g>
			<path class="st3" d="M51,156.5c-4.2-5.2-8.1-10.8-10.7-17c-2.6-6-3.7-12.4-3.6-18.9c0-0.9,0-1.9,0.1-2.8c0-0.2,0-0.2,0.1-0.6
				c0.1-0.4,0.1-0.8,0.2-1.1c0.4-2,1-4,1.5-6c1-3.6,2.1-7.2,3.3-10.8c0.5-1.6,1.3-3.2,1.8-4.8c0.1-0.3,0.2-0.5,0.3-0.8
				c0.1-0.3,0,0,0-0.1c0.1-0.1,0.1-0.3,0.2-0.4c0.6-1.2,1.3-2.3,2-3.5c1-1.7-1.6-3.2-2.6-1.5c-0.9,1.6-2,3.2-2.6,4.9
				c-0.6,1.6-1.3,3.1-1.8,4.7c-1.2,3.4-2.1,6.8-3.1,10.2c-1,3.4-2.2,7-2.3,10.6c-0.3,6.8,0.6,13.6,3.1,20.1
				c2.8,7.3,7.2,13.8,12.1,19.8C50.1,160.1,52.2,158,51,156.5L51,156.5z"/>
		</g>
	</g>
</g>
<g>
	<g>
		<path class="st7" d="M41.1,112.3c-1.6-1.9-1.6-5.2-0.6-7.4c0.6-1.2,1.5-2,2.8-1.5c1.3,0.5,2.5,1.5,3.7,2.3c6.7,4,15,5.1,22.6,6.1
			c16.7,2.1,33.8,1.5,50.3-1.8c7.5-1.4,15.1-3.3,21.5-7.6c0.7-0.5,1.4-1,2.2-1.4c0.3-0.1,0.8-0.3,1.1-0.3c-0.4-0.1,0,0.1,0.1,0.3
			c0.7,1,1.2,2.1,1.9,3.1c0.8,1.2,1.4,2,0.4,3.3c-1,1.3-2.5,2.5-3.9,3.3c-3.3,1.8-7.3,2.5-10.9,3.3c-4.2,0.9-8.4,1.8-12.6,2.6
			c-8.4,1.5-16.8,2.6-25.3,3.2c-8.4,0.6-16.9,0.7-25.4,0.2c-7.8-0.5-15.5-2.2-22.7-5.3c-1.7-0.7-3.4-1.6-5-2.4
			c-1.7-0.9-3.2,1.7-1.5,2.6c7.2,3.7,14.9,6.5,23,7.5c9.1,1.2,18.6,1.1,27.8,0.7c9.2-0.5,18.3-1.6,27.3-3.1c4.5-0.8,9-1.7,13.5-2.7
			c4.1-0.9,8.4-1.7,12.2-3.4c1.7-0.8,3.2-1.9,4.6-3.2c1.2-1.1,2.3-2.5,2.4-4.2c0.1-1.6-0.7-2.8-1.6-4.1c-0.8-1.2-1.3-2.5-2.3-3.6
			c-2.8-2.9-6.7,0.9-9.1,2.4c-3.6,2.1-7.5,3.4-11.5,4.4c-17.6,4.5-36.2,5.5-54.2,3.5c-4.4-0.5-8.7-1.1-13-2.1
			c-3.9-0.9-7.9-2.2-11.3-4.4c-2.6-1.7-5.7-3.6-8.5-0.9c-2.2,2.1-2.8,5.7-2.3,8.6c0.3,1.6,0.9,3,2,4.2
			C40.2,115.9,42.3,113.7,41.1,112.3L41.1,112.3z"/>
	</g>
</g>
</svg>
