<?xml version="1.0" encoding="utf-8"?>
<!-- Generator: Adobe Illustrator 26.3.1, SVG Export Plug-In . SVG Version: 6.00 Build 0)  -->
<svg version="1.1" id="Calque_1" xmlns="http://www.w3.org/2000/svg" xmlns:xlink="http://www.w3.org/1999/xlink" x="0px" y="0px"
	 viewBox="0 0 200 200" style="enable-background:new 0 0 200 200;" xml:space="preserve">
<style type="text/css">
	.st0{fill:#666666;}
	.st1{fill:#E7F4DF;}
	.st2{fill:#FFFFFF;}
</style>
<g>
	<path class="st0" d="M160.5,85.8c-3.2-5.2-7.4-9.8-12.3-13.4c-1.2-0.9-2.6-2-4.2-1.9c-1.4,0-2.5,1-3.3,2c-0.8,1-1.2,2.2-1.9,3.3
		c-0.7,1.3-1.6,2.6-2.5,3.8c-7.2,9.3-19,14.1-30.1,16.7c-3.7,0.9-7.4,1.5-11.2,1.2c-3.5-0.3-7-1.2-10.3-2.3c-3.5-1.2-6.9-2.5-10.3-4
		c-3.2-1.3-6.3-2.9-8.9-5.3c-1.7-1.6-3-3.5-3.7-5.7c0.2-0.5,0-1-0.4-1.3c0-0.2-0.1-0.4-0.1-0.6c-0.3-1.9-3.2-1.1-2.9,0.8
		c0,0.1,0,0.1,0,0.2c-7.7,6.4-12.8,15.5-15.3,25.1c-1.3,5.1-2,10.4-2,15.6c0,3.1,0.3,6.2,1.3,9.1c1,2.9,2.5,5.6,4.1,8.2
		c2.4,4,4.9,7.9,7.7,11.7c-3.9-2.4-7.5-5.2-10.7-8.6c-1-1-2-1.8-3.5-1.8c-1.5,0.1-2.8,1.1-3.9,2.1c-2,1.9-3.3,4.4-4,7
		c-1.5,5.4-1,11.4-0.2,16.8c0.4,2.8,1.5,5.7,3.9,7.4c1.2,0.9,2.7,1.4,4.2,1.7c2,0.5,4,0.9,6.1,1.3c7.4,1.4,14.9,2.5,22.4,2.7
		c3.6,0.1,7.4-0.1,10.8-1.3c2.7-1,5.3-2.4,7.5-4.2c2.4-1.9,4.4-4.2,6.2-6.7c0.8-1.1,1.5-2.3,2.2-3.6c0.8-1.5,1.7-2.9,3.4-3.5
		c1.6-0.5,3.3-0.6,4.9-0.7c1.9-0.1,3.9-0.2,5.8-0.2c3.6,0.1,7.7,0.1,11.1,1.3c3.2,1.1,5.7,4,8.5,5.9c2.6,1.7,5.7,3,8.8,3
		c3,0.1,6-1,8.1-3.3c1.8-2,2.8-4.6,3.8-7.1c1-2.5,2.1-4.9,4.2-6.7c1.3-1.1,2.8-2,4-3.2c1.1-1.1,2.1-2.4,3-3.7
		c3.6-5.5,5.5-12.5,6.6-19C169.6,111.4,167.7,97.4,160.5,85.8z"/>
	<path class="st0" d="M143.2,55.7c-1-3.5-2.5-6.7-3.7-10.1c-2.5-7.1-3.2-14.8-1.9-22.2c0.2-1-0.4-1.8-1.4-1.9
		c-6.5-0.6-12.9,2.5-16.7,7.7c-0.5,0.6-0.9,1.3-1.2,2c-0.3,0.7-0.5,1.5-1.4,1.4c-0.8-0.1-1.5-0.6-2.2-0.9c-0.8-0.4-1.6-0.8-2.5-1.1
		c-3.2-1.3-6.6-2.2-10.1-2.5c-6.9-0.7-13.9,0.6-20.1,3.7c-1.5,0.7-2.9,1.6-4.3,2.6c-1.4,1-3,2.4-4.7,2.8c-1.9,0.4-3.9-0.6-5.7-1.2
		c-1.9-0.6-3.9-1-5.8-1.2c-1.8-0.2-4.3-0.5-5.6,1.1c-1.1,1.4-0.6,3.5-0.2,5.2c0.8,3.1,2.4,6,4.5,8.3c-0.1,0.1-0.2,0.3-0.2,0.5
		c-2.4,10.3-2.5,22.5,4.1,31.4c6.5,8.8,18.1,13.3,28.6,14.6c10.4,1.3,21.2-0.6,30.5-5.5c9.5-4.9,18.8-13.8,20.6-24.8
		C144.3,62.2,144.1,58.9,143.2,55.7z"/>
	<g>
		<g>
			<path class="st1" d="M59.3,153.5c-9-6.7-15.4-16.8-17.7-27.8c-2.5-11.8-0.1-24.7,6.6-34.8c3.5-5.3,8.6-9,13.1-13.4
				c1.4-1.3-0.7-3.5-2.1-2.1c-4.2,4.1-9,7.7-12.5,12.5c-3.8,5.1-6.4,11.3-7.8,17.5c-2.7,12.2-0.8,25.1,5.5,35.9
				c3.4,5.8,8,10.9,13.4,14.9C59.4,157.2,60.9,154.6,59.3,153.5L59.3,153.5z"/>
		</g>
	</g>
	<g>
		<g>
			<path class="st1" d="M80.6,92c-7.6-2.3-14.1-7.5-18-14.4c-4.4-7.8-5-17.5-1.9-25.9c0.4-1,1-1.9,0.6-2.9c-0.4-1.1-1.1-2.2-1.6-3.3
				c-1-2.2-1.9-4.5-2.6-6.8c-0.2-0.6-0.4-1.2-0.5-1.7c-0.1-0.3-0.4-0.9-0.3-1.3c0.3-0.7,2.1-1,2.9-1.2c2-0.4,4.1-0.5,6.1-0.2
				c2.1,0.3,4.1,1.1,5.9,2.2c1.8,1.1,3.4,2.5,5.3,0.9c0.8-0.6,1.3-1.5,2-2.2c0.7-0.7,1.5-1.4,2.4-2c1.7-1.2,3.7-2.1,5.7-2.7
				c5.2-1.6,10.8-1.5,16.2-1.2c4.4,0.2,9.6,0.2,13,3.5c0.6,0.6,1.9,0.6,2.4-0.3c1.9-4.1,5.4-6.9,9.2-9.2c1.9-1.2,3.9-2.2,5.9-3.2
				c0.4-0.2,1-0.7,1.5-0.4c0.3,0.2,0.7,0.9,0.9,1.2c0.6,1,1,2.2,1.3,3.3c0.5,2.2,0.5,4.6,0.3,6.8c-0.2,2.5-0.9,4.9-0.5,7.4
				c0.3,2.5,1.7,4.4,2.9,6.6c1,1.8,1.7,3.6,2.3,5.6c2.3,8.1,1.3,17.1-2.7,24.5c-4.8,8.7-13.5,13.5-22.3,17.4
				c-5.7,2.5-11.4,3.9-17.6,3.7c-6.2-0.3-12.3-1.8-18.1-3.8c-1.8-0.6-2.6,2.3-0.8,2.9c11.3,3.8,23.4,5.8,34.8,1.2
				c9.8-3.9,20-9.2,25.7-18.4c4.9-7.8,6.4-17.6,4.4-26.6c-0.5-2.2-1.3-4.4-2.2-6.4c-1-2.3-2.9-4.4-3.3-6.9c-0.4-2.7,0.5-5.5,0.6-8.2
				c0.1-2.5,0-5-0.7-7.4c-0.6-2.2-2.2-6.2-5-6.2c-1.3,0-2.6,0.8-3.7,1.4c-1.2,0.6-2.4,1.2-3.6,1.9c-4.8,2.7-9.4,6.1-11.8,11.2
				c0.8-0.1,1.6-0.2,2.4-0.3c-3.9-3.9-9.7-4.1-14.9-4.4c-6.2-0.3-12.8-0.4-18.7,1.8c-2.5,1-4.9,2.3-6.9,4c-0.9,0.8-1.6,1.8-2.5,2.6
				c-0.5,0.6-0.8,0-1.4-0.3c-0.7-0.4-1.3-0.9-2.1-1.2c-4.8-2.4-10.8-2.9-15.8-0.8c-1.5,0.6-2.5,1.7-2.4,3.4c0.1,1.5,0.7,3.1,1.2,4.5
				c1.2,3.4,2.6,6.7,4.2,9.9c0-0.5,0-1,0-1.5c-3.2,7.3-3.9,15.6-1.7,23.3c2,7,6.3,13.1,12.1,17.4c3.2,2.4,6.8,4.2,10.6,5.4
				C81.7,95.5,82.5,92.6,80.6,92L80.6,92z"/>
		</g>
	</g>
	<g>
		<g>
			<path class="st1" d="M143.6,71.9c7.8,2.7,13.6,9.1,17.4,16.2c4.4,8.2,6.5,17.7,6.4,27c-0.1,9-2.1,18.7-6.9,26.3
				c-1.2,1.8-2.5,3.5-4.1,5c-1.6,1.5-3.5,2.5-5.1,4c-1.6,1.5-2.3,3.5-2.8,5.7c-0.5,2.2-1.1,4.2-2.3,6.1c-2.4,3.6-6.8,5.9-11.1,4.7
				c-3.9-1.1-6.3-5-9.5-7.3c-3.9-2.8-8.6-2.6-13.2-2.5c-2.7,0.1-5.4,0.2-8.1,0.3c-2.2,0.1-5.1-0.3-7.1,0.9c-1.9,1.1-2.8,3.4-4,5.2
				c-1.2,1.9-2.6,3.7-4.1,5.3c-3.2,3.4-7.1,5.7-11.6,7.1c-9.6,2.8-19.6,0.8-29-1.8c-4.1-1.1-8.5-2.1-12.2-4.3
				c-1.6-1-2.9-2.2-3.8-3.9c-1.1-2.1-1.2-4.5-1.4-6.8c-0.3-3.9-0.6-8,0.5-11.8c0.5-1.8,1.4-3.5,2.7-4.9c1.1-1.2,2.6-1.8,4.1-2.2
				c0.6-0.2,1.2-0.3,1.9-0.4c0.2,0,0.5,0,0.7-0.1c0.8-0.1-0.3,0.2-0.6-0.6c-0.1-0.4-0.1-0.8-0.2-1.2c0,0,0,0,0,0
				c-0.3,1.9,2.6,2.7,2.9,0.8c0.6-3.7-6-1.4-7.4-0.8c-3.7,1.5-6,5-7,8.9c-1.1,4.2-0.9,8.7-0.5,13c0.2,2.5,0.5,5,1.6,7.3
				c0.9,1.9,2.4,3.5,4.1,4.7c3.7,2.6,8.3,3.7,12.6,4.9c5.4,1.5,10.9,2.8,16.6,3.4c9.9,0.9,20.3-1.3,27.5-8.5
				c1.8-1.8,3.3-3.7,4.7-5.8c0.6-0.9,1.2-1.9,1.8-2.8c0.7-1.1,1.3-2.1,2.7-2.3c2.7-0.4,5.6-0.2,8.4-0.3c2.8-0.1,5.7-0.3,8.5-0.2
				c2.5,0,4.9,0.4,6.9,1.9c1.7,1.2,3.1,2.8,4.7,4.3c3.5,3.3,7.9,5,12.7,3.5c4.5-1.3,7.7-5,9.4-9.3c0.8-2.2,0.8-5,2.2-6.9
				c1.3-1.9,3.7-3,5.4-4.5c7.1-6.5,10.4-16.5,11.7-25.8c1.4-10.3,0.3-21-3.5-30.7c-3.2-8.2-8.4-16-16-20.7c-1.8-1.1-3.8-2-5.8-2.7
				C142.5,68.4,141.8,71.3,143.6,71.9L143.6,71.9z"/>
		</g>
	</g>
	<g>
		<path class="st2" d="M75.9,98.9c-4.2-0.5-10.4-0.6-12.4,3.2c-1.9,3.5,0.8,7.9,4.2,10.1c6.3,4.1,14.4,3.5,21.8,2.8
			c16.1-1.7,32.2-3.8,47.6-8.7c4.3-1.4,8.8-3.1,11.5-6.7s2.6-9.6-1.3-11.9c1.4,4.2-2.6,8.1-6.4,10.3c-18.5,11-41.3,11.1-62.7,9
			c-1.8-0.2-3.7-0.4-5.1-1.6s-1.8-3.6-0.4-4.7c1.1-0.8,2.7-0.6,3.9-1.4L75.9,98.9z"/>
	</g>
	<g>
		<path class="st2" d="M67,47.8c0-3.1-0.7-6.3-1.9-9.1c5.6,3.6,12.7,4.9,19.2,3.7c2.5-0.5,5-1.4,7.5-2c8.7-2.2,18-1.5,26.3,1.8
			c4.2-2.7,8.3-5.4,12.5-8.1c-1.4,2.1-0.7,5.1,0.8,7.2c1.5,2.1,3.6,3.7,5.1,5.9c2.8,4.1,2.9,9.5,1.8,14.3
			c-2.2,9.3-8.8,17.2-17.1,21.9c-8.2,4.8-18,6.5-27.5,5.9c-8.6-0.5-17.4-3-23.9-8.8s-10.1-15.1-7.4-23.4c1.1-3.3,3.1-6.3,5.1-9.2"/>
	</g>
	<g>
		<path class="st2" d="M97.8,115c0.8,7.3,1.7,14.6,2.9,21.8c0.2,1,0.4,2.1,1.4,2.4c0.7,0.3,1.5-0.1,2-0.7c0.5-0.6,0.7-1.4,0.8-2.1
			c1.4-7.2,0-14.6-1.4-21.8"/>
	</g>
	<g>
		<path class="st2" d="M105.7,126.3c3.5-0.3,30.2,0.6,42.2-5c3.6-1.7,7.2-3.9,9.3-7.3c2.1-3.4,2.5-8.1,0-11.2c0.2,4-4.7,7-7.4,10
			c-9.6,10.7-28.9,10.1-44.5,8.8"/>
	</g>
	<g>
		<path class="st2" d="M106.1,134.6c2.3,3.1,5.9,3.5,9.6,4.4c3.7,1,7.6,1,11.4,1c5.9,0,11.9-0.3,17.5-2.5
			c5.5-2.1,10.5-6.4,12.1-12.1c-10,3.4-10,7.8-20.6,8.8c-6.9,0.6-26,0.6-31.6-3.6"/>
	</g>
	<g>
		<path class="st2" d="M98.1,123.6c-12.4,2.1-25.3,1.1-37.2-3.1c-2.8-1-5.8-2.4-6.9-5.1c-1.1-2.8,0.2-6-0.8-8.8
			c-3.9-0.1-7.1,3.7-7.2,7.6c-0.1,3.9,2.3,7.5,5.4,9.8c3.2,2.3,7,3.4,10.8,4.2c11.9,2.6,24.3,3.1,36.3,1.3"/>
	</g>
	<g>
		<path class="st2" d="M99.3,136c-11.3,3.3-23.3,1.5-34.9-0.4c-2.3-0.4-8.2-2.1-10.2-3.3c-2.8-1.7-1-3.3-2.6-6.1
			c-2,1.4-2.4,4.4-1.5,6.7c0.9,2.3,3.3,2.7,5.3,4c7.9,5.1,23.5,5.7,32.9,5.6c6.3-0.1,11.6-3.8,11.8-3.7"/>
	</g>
	<g>
		<path class="st2" d="M45.7,143.4c-4.5,3.6-4.7,11-1.2,15.7c3.5,4.6,9.7,6.6,15.5,6.2s11.3-2.7,16.4-5.4c4.3-2.2,8.7-5,10.3-9.5
			c-0.9,6.8-3.5,13.9-9.1,17.8c-4.2,2.9-9.4,3.7-14.5,3.8c-5.8,0.1-11.8-0.6-16.9-3.3c-5.2-2.6-9.5-7.4-10.6-13.1
			c-0.6-2.9-0.2-6.1,1.2-8.6c1.5-2.6,4.1-4.5,7.1-4.8"/>
	</g>
	<g>
		<path class="st2" d="M129.3,152c0.6,2.8,1.6,5.6,3,8.1c0.3,0.5,0.5,1,1,1.3c0.8,0.5,2,0.2,2.7-0.6s0.7-1.9,0.3-2.8
			c0.2,0.9,0.5,1.7,1.1,2.4s1.6,1,2.4,0.6c0.8-0.3,1.2-1.5,0.6-2.2c0.3,0.6,0.8,1.2,1.4,1.5c0.6,0.3,1.5,0.3,1.9-0.3
			c0.4-0.5,0.2-1.3,0.1-2c-0.6-2.1-1.2-4.2-2-6.2c-0.1-0.3-0.2-0.7-0.5-0.9c-0.4-0.3-0.9-0.3-1.3-0.3c-3.4,0.1-6.8,0.2-10.1,0.3"/>
	</g>
	<g>
		<path class="st0" d="M81.7,53.1c0.6,0.5,12.1,7.2,12.7,12.4c0.3,2.5-0.4,5-1.8,7.1c-0.6,0.9-1.3,1.7-2.3,2.1
			c-0.9,0.4-1.8,0.4-2.7,0.4c-4.4,0-9-0.7-12.9-2.8c-3.9-2.1-7.2-5.7-8.2-10c-0.2-1-0.3-2-0.2-3c0.5-3.3,3.7-5.7,7-6.4
			C76.5,52.3,81.7,53.1,81.7,53.1z"/>
	</g>
	<g>
		<path class="st0" d="M121.9,49.1c-3.6,1.3-7.9,3.9-10.5,6.7c-1.6,1.7-3.2,3.4-4.1,5.6c-0.9,2.1-0.9,4.8,0.6,6.6
			c1.7,2,4.6,2.4,7.2,2.5c4.8,0.2,10,0.2,14-2.5c3.6-2.4,5.7-6.6,6.3-10.9c0.3-2.7,0-5.6-1.9-7.5c-2.3-2.2-5.9-1.9-9-1.4
			c-0.9,0.1-1.7,0.3-2.6,0.5L121.9,49.1z"/>
	</g>
	<g>
		<path class="st0" d="M93.3,75.8c1.4,3.4,3.5,6.5,6.1,9.1c0.6-1.4,1-2.9,1.4-4.3c0.7,0.6,1.5,1.2,2.2,1.8c0.2,0.2,0.5,0.4,0.8,0.3
			c0.4-0.1,0.6-0.6,0.6-1c0.2-2.6-0.1-5.3-0.8-7.9c-0.1-0.3-0.2-0.5-0.4-0.7c-0.2-0.1-0.6-0.1-0.8,0C99.6,73.9,96,75.1,93.3,75.8"/>
	</g>
	<path class="st0" d="M150.3,25.5"/>
</g>
</svg>
