<?xml version="1.0" encoding="utf-8"?>
<!-- Generator: Adobe Illustrator 26.3.1, SVG Export Plug-In . SVG Version: 6.00 Build 0)  -->
<svg version="1.1" id="Calque_1" xmlns="http://www.w3.org/2000/svg" xmlns:xlink="http://www.w3.org/1999/xlink" x="0px" y="0px"
	 viewBox="0 0 200 200" style="enable-background:new 0 0 200 200;" xml:space="preserve">
<style type="text/css">
	.st0{fill:#FD5A5C;}
	.st1{fill:#E7F4DF;}
	.st2{fill:none;stroke:#E7F4DF;stroke-miterlimit:10;}
	.st3{fill:#666666;}
</style>
<path class="st0" d="M156.7,67.3c-1.2-4.1-3.3-7.8-5.5-11.4c-2.1-3.6-4.4-7.1-7.2-10.2c-5.5-6.1-13.3-10-20.9-12.9
	c-7.7-3-15.9-4.7-24.2-5.1c-7.8-0.4-15.9,0.3-23.5,2.4c-6.7,1.9-13.3,5.2-18,10.6c-0.7,0.9-1.4,1.8-2,2.7c-0.3,0.1-0.5,0.2-0.8,0.5
	c-3.3,4.1-4.2,9.6-5.3,14.6c-1.3,5.7-2.3,11.4-2.8,17.2c-0.4,5.7-0.2,11.5,1,17.2c1.1,5.3,3.1,10.4,5.6,15.2c1.3,2.6,3,5.1,4.3,7.7
	c1.1,2.2,2,4.9,1.3,7.4c-0.2,0.2-0.3,0.5-0.4,0.9c0,0,0,0,0,0.1c0,0.1-0.1,0.2-0.1,0.2c-0.2,0.4-0.2,0.9-0.1,1.2
	c-1,7.9-3.6,15.5-7.7,22.4c-1.1,1.8-2.2,3.5-3.5,5.2c-1.2,1.6-2.6,3.5-4.3,4.6c-1.8,1.1-4,1.1-6,1.6c-1.7,0.5-3.2,1.5-4.1,3.1
	c-0.8,1.4-1,3.2,0,4.6c1.2,1.6,3.2,1.8,5,2c4.2,0.5,8.5,0.8,12.4-1.1c7.1-3.3,8.7-12.4,10.6-19.2c2-7.3,4.3-15.6,10.4-20.6
	c1.5,1.5,2,3.7,2.2,5.8c0.4,3.2,0.4,6.5,0.5,9.7c0.3,6.5,0.4,13.1,0.5,19.6c-3.6,0.1-6.9,1.5-9.7,3.9c-0.8,0.7-0.4,2.3,0.7,2.5
	c3.8,0.9,7.8,1.5,11.7,1.8c1.4,0.1,3.2,0.4,4.5-0.4c1.5-0.9,1.6-2.6,1.5-4.2c-0.2-8.2-0.1-16.3,0.1-24.5c0.1-1.8,0.1-3.6,0.2-5.4
	c0-0.8,0-1.8,0.4-2.5c0.2-0.5,0.9-1.4,1.6-1c0.9,0.6,0.5,3.1,0.5,3.9c0,2.1,0.1,4.2,0.2,6.2c0.5,7.6,1.5,15.6,3.8,22.9
	c0.5,1.6,1.3,3,2.9,3.8c1.7,0.9,3.9,1.1,5.8,1.4c4.2,0.5,8.4,0,12.4-1.4c1.2-0.4,1.5-2.1,0.4-2.7l-6.8-3.8c-1.6-0.9-4.1-1.8-4.5-3.8
	c-0.4-2.3-0.1-4.8-0.1-7.1c0-2.6,0-5.1-0.1-7.7c0-2.6,0-5.1-0.1-7.7c0-1.1-0.2-1.4,1-1.4c1.3,0,2.5,0.2,3.8,0.3
	c4.7,0.3,9.5,0.7,14.2,1c2.8,7.2,5.7,14.4,8.8,21.5c0.8,1.8,1.6,3.7,2.5,5.5c0.8,1.7,1.5,3.5,2.5,5.1c1.8,2.7,4.4,4.3,7.6,4.6
	c3.6,0.4,7.3-0.8,10.7-2.1c0.6-0.2,1.1-0.7,1.1-1.4c0-1.6-1.1-2.6-2.5-3.1c-0.6-0.2-1.2-0.4-1.8-0.6c-1-0.3-1.8-1-2.6-1.7
	c-3-2.5-5.8-5.4-8.2-8.6c-2.4-3.2-4.4-6.6-6-10.2c-1.6-3.6-2.8-8-1.5-11.9c1.3-3.9,5-6.5,7.8-9.2c3.2-3,6.2-6.3,9.1-9.6
	c2.7-3.2,5.5-6.5,7.5-10.2c2-3.7,3.1-7.7,3.6-11.9c0.5-4.3,0.6-8.6,0.7-12.9C158.1,76.1,157.9,71.5,156.7,67.3z"/>
<g>
	<g>
		<path class="st1" d="M100.2,136.9C100.2,137.3,99.9,137,100.2,136.9c0.3,0.1,0.5,0,0.7,0c0.7-0.1,1.5,0.1,2.2,0.2
			c1.8,0.2,3.6,0.4,5.4,0.6c1.6,0.2,3.3,0.4,4.9,0.5c1.6,0.2,3.3,0.2,4.8,0.6c1.6,0.5,1.7,1.8,2,3.2c0.4,1.6,0.7,3.1,1.1,4.7
			c0.7,3,1.5,5.9,2.4,8.8c1.8,5.7,4.1,11.7,7.9,16.3c2.1,2.5,4.7,3.1,7.8,3.1c3.1,0,6.4,0.1,9.5-0.4c2.5-0.4,5.3-1.8,5.2-4.7
			c-0.1-3.9-4.6-4.6-7.6-4.3c-1.9,0.2-1.9,3.2,0,3c1.3-0.1,3-0.4,4.1,0.5c1,0.8,0.4,1.7-0.6,2.1c-0.9,0.4-1.9,0.5-2.9,0.5
			c-1.8,0.1-3.5,0.2-5.3,0.2c-2.8,0.1-5.8,0.5-7.8-1.9c-1.9-2.2-3.3-5-4.5-7.6c-2.4-5.3-3.9-10.9-5.3-16.5c-0.3-1.4-0.7-2.8-1-4.2
			c-0.3-1.4-0.6-2.9-1.5-4.1c-1.7-2.1-4.9-2-7.3-2.3c-3.8-0.4-7.5-0.8-11.3-1.2c-2.2-0.2-6-0.3-5.9,2.8
			C97.2,138.8,100.2,138.8,100.2,136.9L100.2,136.9z"/>
	</g>
</g>
<g>
	<g>
		<path class="st1" d="M147.2,166.2c-5.1-3-8.6-8-10.9-13.4c-1.3-3.1-2.3-6.4-3.2-9.7c-0.4-1.5-0.8-3-1.1-4.4
			c-0.4-1.8-0.9-3.6-0.5-5.4c0.6-2.8,3.1-4.5,5.1-6.2c1.4-1.1,2.6-2.4,3.8-3.7c2.4-2.4,4.7-4.8,7.2-7.1c3.6-3.2,6.9-7.1,8.9-11.5
			c2-4.2,3.3-8.7,3.9-13.3c1.3-9.8-0.3-19.8-4.1-28.9c-3.9-9.3-10-17.7-17.9-23.9c-1.1-0.8-2.1-1.7-3.3-2.3c-1-0.5-2-1-3-1.4
			c-3.7-1.7-7.4-3.3-11.2-4.6c-4.6-1.6-9.3-3.1-14.1-3.7c-4.3-0.6-8.7-0.3-13.1,0c-9.9,0.9-20.1,2.7-29.1,7.1
			c-4.4,2.2-8.1,5.2-11.1,9.2c-1.9,2.6-3.1,5.6-4.2,8.6c-1.2,3.2-2.3,6.4-3.3,9.7c-1,3.3-1.8,6.6-2.3,10c-0.4,2.8-0.4,5.6-0.5,8.5
			C43.3,84.8,43,90,43.7,95.1c0.6,4.7,2.7,8.9,5.2,12.9c2.1,3.5,4.6,6.8,7.2,9.9c0.3,0.3,0.5,0.7,0.8,1c0.1,0.1,0.1,0.2,0.2,0.3
			c0,0,0,0,0,0c0.5,0.5,1.1,0.3,0.1,0c-0.2,0-0.1-0.3-0.1-0.1c0,0.1,0.2,0.3,0.2,0.4c0.1,0.3,0.2,0.6,0.4,0.9
			c0.4,1.1,0.7,2.1,0.9,3.2c0.4,2.4-0.7,4.9-1.3,7.2c-0.8,3-1.7,6-2.8,8.8c-2.2,5.7-5.6,10.9-10.4,14.8c-2.3,1.9-5,3.4-7.7,4.5
			c-2.1,0.8-4.7,1.7-5.7,3.9c-1.1,2.6,1,5,3.1,6.2c2.3,1.3,5,1.5,7.6,1.3c5.5-0.4,11.8-1.5,14.6-6.8c1.5-2.9,2.5-6.1,3.6-9.1
			c1.3-3.3,2.5-6.7,3.8-10c1.3-3.4,2.6-6.8,3.8-10.3c0.3-0.8,0.8-3.4,1.9-3.5c1.3-0.2,2.3,1.7,2.8,2.6c1.3,2.7,1.4,5.9,1.5,8.8
			c0.1,3.6,0.2,7.2,0.2,10.8c0,1.6,0,3.3,0,4.9c0,1.3,0.1,2.9-0.5,4.1c-0.7,1.2-2.1,1.3-3.3,1.4c-1.3,0.1-2.6,0.1-3.9,0.6
			c-2.4,0.9-4.2,3.4-2.9,6c1.4,2.6,4.5,3.2,7.3,3.3c3.5,0.1,7.1,0.1,10.6,0c1.3,0,2.5-0.4,3.1-1.6c0.7-1.4,0.5-3.5,0.6-5
			c0.2-6.9-0.7-13.8-0.9-20.7c-0.1-1.8-0.1-3.5-0.1-5.3c0-1.6-0.1-3.4,0.4-5c0.4-1.4,1.7-0.4,2.1,0.5c0.6,1.4,0.4,3.3,0.5,4.8
			c0.3,7.3,0.5,14.6,0.9,21.9c0.1,2.5,0.4,5.4,2.5,7.1c2.3,2,6,2,8.9,2.2c3.4,0.3,7,0.4,10.3-0.2c2.5-0.4,4.8-2.7,3.4-5.3
			c-0.6-1-1.5-1.8-2.7-2.2c-1.6-0.6-3.4-0.4-4.9-1.2c-2.6-1.3-3.9-4.2-4.4-6.9c-0.6-3.2-0.3-6.5-0.3-9.8c0-3.5,0-7,0-10.5
			c0-1.9-3-1.9-3,0c0,3.6,0,7.2-0.1,10.8c0,3.3-0.2,6.6,0.3,9.8c0.4,2.7,1.5,5.4,3.5,7.4c0.9,1,2.1,1.7,3.3,2.2
			c1.4,0.5,3.2,0.3,4.6,1c1.1,0.6,1.2,1.3,0,1.7c-1.5,0.4-3.3,0.3-4.8,0.4c-3.3,0.1-6.8,0-10-0.7c-1.4-0.3-2.6-0.8-3.1-2.3
			c-0.5-1.3-0.5-2.7-0.5-4c-0.1-3.5-0.3-7-0.4-10.5c-0.1-3.5-0.3-7-0.4-10.5c-0.1-2.8,0.2-6.5-2.2-8.5c-2-1.6-5-1.3-6,1.2
			c-0.5,1.2-0.5,2.7-0.6,4c-0.1,1.8-0.1,3.7-0.1,5.5c0.1,6.8,1,13.6,1,20.5c0,1.6,0,3.2-0.2,4.8c-0.1,0.9,0.2,1.2-0.8,1.2
			c-1,0-2,0-3,0c-1.7,0-3.4,0-5.2,0c-1.5,0-3,0.1-4.5-0.2c-0.9-0.2-2.7-0.9-2.4-2.1c0.2-1,1.8-1.3,2.6-1.4c2.7-0.4,5.6-0.1,7.3-2.7
			c1.6-2.4,1.1-5.7,1.1-8.3c0-3.4-0.1-6.9-0.2-10.3c-0.1-5.3,0.3-13.1-4.7-16.5c-2.3-1.6-5.1-0.9-6.3,1.6c-1.5,3-2.4,6.4-3.6,9.5
			c-2.5,6.6-4.9,13.2-7.4,19.7c-1.1,2.8-2.3,5.2-5.2,6.4c-2.4,1-5.3,1.4-7.9,1.6c-2.3,0.2-5,0.1-6.9-1.4c-0.8-0.6-1.6-1.4-0.7-2.3
			c0.8-0.9,2.1-1.3,3.2-1.7c5.4-2.1,10.2-5.5,13.9-10c3.8-4.6,6.3-10.2,8.1-15.9c0.9-2.8,1.6-5.7,2.3-8.6c0.6-2.3,0.4-4.3-0.2-6.6
			c-0.4-1.3-0.8-3.3-2-4.2c-0.8-0.6,0.6,0.8,0-0.1c-0.3-0.4-0.6-0.7-0.9-1.1c-2.5-3.1-4.9-6.3-7-9.7c-2.4-3.9-4.2-7.9-4.6-12.5
			c-0.4-5-0.2-9.9-0.1-14.9c0.1-3.1,0.2-6.1,0.8-9.2c0.6-3.2,1.5-6.4,2.6-9.5c2-6.2,3.8-12.7,8.4-17.6c6.3-6.8,16.1-9.4,25-11.1
			c4.7-0.9,9.5-1.5,14.3-1.7c4.2-0.2,8.3-0.1,12.4,0.8c7.9,1.7,15.6,4.8,22.9,8.3c2.7,1.3,4.9,3.3,7.1,5.3c3.6,3.4,6.8,7.2,9.4,11.4
			c5.1,8.2,8.2,17.6,8.6,27.2c0.4,9.4-1.7,19.6-7.8,27c-2,2.5-4.4,4.5-6.7,6.7c-2.9,2.8-5.4,5.9-8.4,8.5c-1.9,1.7-3.9,3-5.2,5.2
			c-1.7,2.7-1.5,5.8-0.8,8.8c1.4,6.2,3.1,12.6,6,18.3c2.5,4.8,6,9.2,10.8,11.9C147.3,169.8,148.8,167.2,147.2,166.2L147.2,166.2z"/>
	</g>
</g>
<path class="st2" d="M50,111.3"/>
<g>
	<g>
		<path class="st1" d="M113.1,71.1c0.1,0,0.2-0.1,0.2-0.1c0,0,0.1,0,0.1,0c0.1-0.1-0.1,0,0.1,0c0.2-0.1,0.3-0.1,0.5-0.1
			c-0.1,0,0,0,0.1,0c0,0,0.1,0,0.1,0c0,0,0.1,0,0.1,0c-0.1,0,0,0,0,0c0.1,0,0.1,0,0.2,0.1c0,0,0,0,0,0c0,0,0,0,0.1,0
			c0,0,0.1,0,0.1,0c0.1,0,0,0,0,0c0,0,0,0,0.1,0.1c0,0,0,0,0,0c0,0,0,0,0,0c0,0,0.1,0.1,0.1,0.1c0,0,0-0.1,0,0c0,0,0,0,0,0
			c0,0.1,0,0,0,0c0,0,0,0.1,0,0.1c0,0.1,0-0.1,0,0c0,0,0,0.1,0,0.1c0,0,0,0,0,0c0,0,0,0,0,0c0,0,0,0.1,0,0.1c0,0,0,0,0,0
			c0,0,0,0,0,0c0,0,0,0.1-0.1,0.1c0,0,0.1-0.1,0,0c-0.1,0,0.1,0,0,0c-0.1,0,0,0,0,0c-0.2,0-0.4,0.2-0.4,0.4c0,0.2,0.2,0.4,0.4,0.4
			c0.3,0,0.6-0.2,0.7-0.5c0.1-0.3,0.2-0.6,0.1-0.9c-0.2-0.6-0.9-0.9-1.6-0.8c-0.4,0.1-0.8,0.2-1.2,0.4c-0.2,0.1-0.2,0.4-0.1,0.5
			C112.7,71.2,112.9,71.2,113.1,71.1L113.1,71.1z"/>
	</g>
</g>
<g>
	<path class="st3" d="M132.2,60.1c-6-4.7-13.9-5.9-21.2-6.9c-9.3-1.2-18.7-1.2-28.1-1.4c-0.8,0-1.5,0.1-2.2,0.4
		c-0.7-0.4-1.5-0.6-2.4-0.6c-5.8-0.1-12.1,0.5-16.2,5.1c-4.5,5-4.5,13.8-4.8,20.1c-0.3,6.3,2,13.3,8.5,15.5c3.2,1,6.5,0.4,9.8,1.1
		c4,0.9,7.3,2.5,11.5,2.4c7.9-0.1,15.4,1,23.2,1.4c6.6,0.4,15.7,0.2,21.5-3.6c5-3.3,6.6-10.7,7.3-16.3
		C139.7,70.7,137.6,64.4,132.2,60.1z"/>
	<g>
		<g>
			<path class="st1" d="M102.4,51.4c-8.8,0.1-17.7-1.6-26.5-0.8c-7.1,0.6-16.1,2.8-19.2,10.1c-1.6,3.8-1.8,8.2-1.6,12.3
				c0.2,4.4,0.8,9,2.3,13.2c0.6,1.8,1.5,3.5,3,4.8c1.5,1.3,3.4,2.1,5.3,2.8c4.1,1.6,8.3,2.7,12.5,3.5c8.5,1.6,17.2,2,25.9,1.9
				c4.3,0,8.6-0.2,12.9-0.4c4-0.2,8-0.4,11.7-2c6.7-2.8,10-9.6,10.9-16.5c0.5-3.6,0.6-7.5-0.4-11.1c-0.9-3.5-3.5-6.4-6-8.9
				c-2.2-2.2-4.7-3.5-7.7-4.5c-2.8-0.9-5.6-1.6-8.4-2.1c-4.6-0.9-9.3-1.6-14.1-2.1C103,51.5,102.7,51.4,102.4,51.4
				c-1.9-0.2-1.9,2.8,0,3c3,0.3,6,0.7,9,1.2c5.2,0.8,10.6,1.8,15.5,3.7c2.8,1.1,4.8,3.2,6.6,5.5c1.1,1.3,2.1,2.6,2.7,4.2
				c0.6,1.7,0.8,3.4,0.9,5.2c0.2,6.1-0.9,13.1-5.6,17.4c-2.6,2.4-6.1,3.4-9.6,3.8c-3.8,0.4-7.7,0.4-11.6,0.6
				c-8,0.2-16.1,0.3-24.1-0.6c-4-0.4-7.9-1.1-11.8-2.1c-3.6-0.9-7.6-1.9-10.9-3.8c-3.4-1.9-4.1-6.6-4.7-10.1
				c-0.7-4.1-1-8.3-0.6-12.4c0.3-3.5,1.4-6.9,4.4-9.2c2.7-2,6.2-3.1,9.5-3.7c8-1.6,16.3-0.3,24.3,0.1c2,0.1,4,0.2,6,0.2
				C104.3,54.4,104.3,51.4,102.4,51.4z"/>
		</g>
	</g>
	<g>
		<g>
			<path class="st1" d="M113.3,71.4c-0.1-0.3-0.4-0.4-0.7-0.3c-0.3,0.1-0.5,0.3-0.6,0.5c-0.2,0.2-0.2,0.5,0,0.8
				c0.1,0.2,0.4,0.4,0.7,0.4c0.6,0,0.9-0.7,1-1.2c0.1-0.5,0-1.1-0.6-1.1c0.1,0.2,0.1,0.5,0.2,0.7c0.3-0.2,0.7-0.4,1-0.4
				c0.1,0,0.2,0,0.3,0.1c0.1,0.1,0.1,0.3,0.1,0.4c0,0.1,0,0.3,0,0.4c0,0.1-0.1,0.1-0.2,0.1c-0.2,0-0.4-0.2-0.4-0.5
				c-0.2,0-0.5,0.1-0.7,0.1c0,0.3,0.1,0.6,0.1,0.9c0,0.2,0.1,0.5,0.3,0.7c0.3,0.4,1,0.3,1.2-0.2c0.1-0.3-0.1-0.4-0.4-0.5
				c-0.4-0.1-1.2,0-1.4,0.5c-0.1,0.2,0,0.5,0.2,0.7c0.2,0.2,0.5,0.2,0.8,0.2c0.5,0,1-0.1,1.2-0.6c0.2-0.5-0.1-1-0.4-1.3
				c-0.2-0.1-0.5-0.2-0.7-0.3c-0.1,0-0.3-0.1-0.4-0.1c-0.2,0-0.3,0.1-0.5,0.1c0.1,0,0.1,0,0.2-0.1c0,0,0,0,0,0
				c0.1,0,0.1,0.1,0.2,0.1c0,0.1,0,0.2,0.1,0.3c0,0,0,0,0,0c0,0,0.1-0.1,0.1-0.1c0-0.1,0-0.2,0-0.3c0-0.2-0.1-0.3-0.3-0.4
				c-0.1-0.1-0.3-0.2-0.5-0.2c-0.2,0-0.3,0.1-0.5,0c0.1,0.2,0.2,0.3,0.3,0.5c0.1-0.3,0.2-0.7,0.5-0.9c0.3-0.2,0.5,0.1,0.7,0.3
				c0.3,0.4,0.9-0.2,0.5-0.5c-0.2-0.2-0.4-0.4-0.7-0.5c-0.3-0.1-0.6-0.1-0.9,0c-0.5,0.3-0.8,0.9-0.9,1.4c0,0.2,0.1,0.4,0.3,0.5
				c0.2,0,0.3,0,0.5,0c0.1,0,0.1,0,0.2,0c-0.1,0,0.1,0,0,0c0,0,0,0,0,0c0-0.1,0-0.2,0-0.1c0,0-0.1,0.1-0.1,0.2c0,0.1,0,0.3,0,0.4
				c0.1,0.2,0.3,0.3,0.5,0.2c0.1,0,0.1-0.1,0.3-0.1c0.2,0.1,0.5,0.1,0.7,0.2c0.1,0,0.1,0.1,0.1,0.1c0,0,0,0.1,0,0.1c0,0,0,0,0,0
				c0,0,0,0,0,0c0,0,0,0,0,0c0,0-0.1,0.1-0.1,0c-0.1,0-0.2,0-0.3,0c-0.1,0-0.2,0-0.3,0c-0.1,0,0,0-0.1,0.1c0,0,0,0,0,0.1
				c0,0,0.1,0,0.1,0c0.1,0,0.1,0,0.2,0c0.1,0,0.3,0,0.4,0c-0.1-0.2-0.2-0.3-0.4-0.5c0,0,0.1-0.1,0.1-0.1c0,0,0,0,0,0c0,0,0,0,0,0
				c0,0,0,0,0,0c0,0,0,0.1,0,0c0,0-0.1-0.1,0,0c0,0,0-0.1-0.1-0.2c-0.1-0.3-0.1-0.7-0.1-1c0-0.2-0.2-0.3-0.4-0.3
				c-0.2,0-0.3,0.2-0.3,0.4c0,0.6,0.5,1.2,1.1,1.2c0.6,0,1.1-0.5,1.1-1.1c0-0.6-0.2-1.3-0.8-1.4c-0.6-0.2-1.2,0.2-1.7,0.4
				c-0.1,0.1-0.2,0.3-0.2,0.4c0,0.2,0.2,0.3,0.4,0.3c0,0-0.1,0-0.1,0c0,0,0,0,0,0c0,0,0,0,0,0c0,0,0,0,0,0.1c0,0,0,0.1,0,0.1
				c0,0,0,0.1,0,0.1c0,0.2,0,0.4-0.2,0.5c0,0-0.1,0,0,0c0,0-0.1,0,0,0c0,0,0,0,0,0c0,0,0.1,0,0,0c0,0,0,0,0,0
				c0.1-0.1,0.1-0.1,0.2-0.2c0,0,0,0,0,0c0,0,0.1,0,0,0c0,0-0.1,0-0.1-0.1C112.9,72.2,113.6,71.8,113.3,71.4L113.3,71.4z"/>
		</g>
	</g>
	<g>
		<g>
			<path class="st1" d="M79.6,68.7c-0.3,0.5-0.4,1.2,0.2,1.5c0.6,0.3,1.2-0.1,1.5-0.6c0.2-0.3,0.3-0.6,0.2-0.9
				c-0.1-0.3-0.4-0.5-0.7-0.6c-0.3-0.1-0.7-0.2-1,0c-0.3,0.1-0.5,0.4-0.5,0.8c0,0.2,0.1,0.3,0.3,0.4c0.2,0,0.3,0,0.4-0.2
				c0.2-0.3,0.3-0.6,0.3-0.9c0-0.3-0.2-0.6-0.5-0.7c-0.3-0.1-0.7-0.1-0.9,0.2c-0.2,0.2-0.3,0.5-0.4,0.8c-0.1,0.3-0.1,0.7,0.2,0.9
				c0.2,0.2,0.5,0.3,0.8,0.4c0.6,0.1,1.1-0.2,1.5-0.7c0.2-0.2-0.1-0.6-0.3-0.6c-0.4,0-0.7,0.2-1,0.5c-0.1,0.1-0.2,0.3,0,0.5
				c0.1,0.1,0.3,0.2,0.5,0.1c0.4-0.3,0.7-0.7,0.8-1.1c0-0.2,0.1-0.5,0-0.7c0,0,0-0.1,0-0.1c-0.1,0.2-0.2,0.2-0.1,0.2
				c0,0,0.1,0,0.1,0c0.1,0,0.2,0,0.3,0.1c0.2,0.1,0.4,0.2,0.5,0.3c0,0,0.1,0.1,0.1,0.1c0,0,0,0.1,0,0.1c0,0-0.1,0.1-0.1,0.1
				c-0.1,0.1-0.3,0.3-0.4,0.4c-0.1,0-0.1,0.1-0.2,0.1c0,0-0.1,0-0.1-0.1c0,0.2,0,0.3,0.1,0.5c0.1-0.1,0,0,0,0c0,0,0.1,0,0,0
				c0,0,0.1,0,0,0c0,0,0.1,0,0.1,0c0,0,0,0,0,0c0,0,0.1,0,0.1,0c0,0,0,0,0,0c0,0,0.1,0,0.1,0c0.1,0-0.1,0,0,0c0,0,0,0,0,0
				c0,0,0.1,0.1,0,0c0,0,0,0,0,0.1c0,0,0,0,0,0c0,0,0,0,0,0c0,0,0,0.1,0,0.1c0,0,0,0.1,0,0.1c0,0.2-0.2,0.3-0.3,0.3
				c-0.2,0-0.4-0.1-0.5-0.3c-0.1-0.2-0.2-0.3-0.5-0.3c-0.2,0-0.3,0.3-0.3,0.5c0.2,0.5,0.7,0.9,1.2,0.9c0.5,0,1-0.4,1.1-0.9
				c0.1-0.5-0.1-1-0.6-1.2c-0.4-0.2-1,0-1.2,0.4c-0.1,0.2,0,0.3,0.1,0.5c0.4,0.4,1,0.3,1.4,0c0.4-0.3,0.9-0.8,0.7-1.3
				c-0.1-0.5-0.7-0.8-1.1-1c-0.3-0.1-0.6-0.1-0.9,0c-0.1,0.1-0.2,0.1-0.3,0.2c-0.1,0.2-0.1,0.3,0,0.5c0.1,0.4-0.1,0.8-0.4,1.1
				c0.2,0.2,0.3,0.4,0.5,0.6c0.1-0.1,0.3-0.2,0.4-0.2c-0.1-0.2-0.2-0.4-0.3-0.6c-0.1,0.2-0.4,0.3-0.7,0.3c-0.1,0-0.2,0-0.3-0.1
				c-0.1,0-0.1-0.1-0.1-0.2c0-0.2,0.1-0.3,0.2-0.5c0-0.1,0.1-0.2,0.2-0.2c0,0,0,0,0,0c0,0,0,0,0,0.1c0,0.2-0.1,0.3-0.2,0.4
				c0.2,0.1,0.5,0.1,0.7,0.2c0,0,0,0,0-0.1c0,0,0,0,0.1,0c0.1,0,0.3,0,0.5,0.1c0,0,0.1,0,0.1,0.1c0,0,0-0.1,0,0
				c0,0.1-0.1,0.3-0.2,0.4c-0.1,0.1-0.1,0.2-0.2,0.2c-0.1,0-0.2,0-0.2,0c0,0,0,0,0,0c0,0,0,0,0,0c0-0.1,0,0.1,0,0c0,0,0-0.1,0,0
				c0-0.1,0.1-0.2,0.1-0.4C80.5,68.6,79.8,68.2,79.6,68.7L79.6,68.7z"/>
		</g>
	</g>
	<g>
		<g>
			<path class="st1" d="M79.1,68.6c-0.3,0.3-0.4,0.8-0.2,1.3c0.1,0.2,0.3,0.4,0.5,0.4c0.3,0.1,0.5,0.1,0.8,0.1
				c0.2,0,0.5-0.1,0.7-0.2c0.2-0.1,0.2-0.4,0.1-0.5c-0.1-0.2-0.3-0.2-0.5-0.1c0,0-0.1,0-0.1,0c0,0,0,0,0,0c0,0,0,0,0,0
				c0,0-0.1,0-0.2,0.1c-0.1,0-0.2,0.1-0.3,0.1c0,0,0.1,0,0.1,0c-0.1,0-0.2,0-0.3,0c0,0,0.1,0,0.1,0c0,0-0.1,0-0.1,0c0,0,0,0-0.1,0
				c0,0,0.1,0,0,0c0,0-0.1,0-0.1-0.1c0.1,0,0.1,0.1,0,0c0,0,0,0,0,0c0,0,0,0,0,0c0,0,0-0.1,0,0c0,0,0,0,0,0c0,0,0-0.1,0-0.1
				c0-0.1,0,0.1,0,0c0,0,0,0,0,0c0,0,0-0.1,0-0.1c0,0,0,0.1,0,0.1c0-0.1,0-0.1,0-0.2c0,0,0,0.1,0,0.1c0,0,0-0.1,0-0.1c0,0,0,0,0,0
				c0,0,0-0.1,0,0c0,0,0-0.1,0-0.1c0,0,0,0,0,0c0,0,0,0,0,0c0,0,0,0,0,0c0.1-0.1,0.2-0.4,0-0.5C79.5,68.5,79.3,68.4,79.1,68.6
				L79.1,68.6z"/>
		</g>
	</g>
	<g>
		<g>
			<path class="st1" d="M83.9,78.3c0.5,1.4,0.9,2.8,1.5,4.1c0.4,1,1,2,2,2.5c2.6,1.2,4.8-1.8,6.3-3.5c-0.4-0.1-0.8-0.1-1.2-0.2
				c1.3,1.9,2.9,5.4,5.7,5.1c2.8-0.3,4.3-3.8,5.6-5.8c0.5-0.8-0.8-1.6-1.3-0.8c-0.6,1-1.2,1.9-1.8,2.9c-0.6,0.9-1.3,2-2.4,2.2
				c-1.1,0.3-2-0.7-2.6-1.5c-0.7-0.9-1.3-1.9-1.9-2.8c-0.3-0.4-0.8-0.5-1.2-0.2c-1,1.1-3.1,4.4-4.9,3c-0.7-0.5-1-1.4-1.3-2.2
				c-0.4-1.1-0.7-2.1-1.1-3.2C85.1,77,83.6,77.4,83.9,78.3L83.9,78.3z"/>
		</g>
	</g>
	<g>
		<g>
			<path class="st1" d="M120.5,77.2c4.5-0.8,9.1-1.1,13.6-0.8c1,0.1,1-1.4,0-1.5c-4.7-0.3-9.4,0-14,0.9
				C119.2,75.9,119.6,77.4,120.5,77.2L120.5,77.2z"/>
		</g>
	</g>
	<g>
		<g>
			<path class="st1" d="M121.9,81c3.4,0.6,6.9,1.1,10.3,1.7c0.9,0.2,1.4-1.3,0.4-1.4c-3.4-0.6-6.9-1.1-10.3-1.7
				C121.3,79.4,120.9,80.8,121.9,81L121.9,81z"/>
		</g>
	</g>
	<g>
		<g>
			<path class="st1" d="M72.6,74.1c-4.7-2-9.7-3.5-14.7-4.4c-0.1,0.5-0.1,1-0.2,1.5c0.2,0,0.3,0,0.5,0.1c1,0.1,0.9-1.4,0-1.5
				c-0.2,0-0.3,0-0.5-0.1c-0.8-0.1-1,1.3-0.2,1.5c4.9,0.9,9.8,2.3,14.4,4.3C72.7,75.8,73.4,74.5,72.6,74.1L72.6,74.1z"/>
		</g>
	</g>
	<g>
		<g>
			<path class="st1" d="M70.2,77.8c-3,0-6,0-8.9,0c-1,0-1,1.5,0,1.5c3,0,6,0,8.9,0C71.2,79.3,71.2,77.8,70.2,77.8L70.2,77.8z"/>
		</g>
	</g>
</g>
<path class="st3" d="M84.2,32.4c-0.4-1.6-1.7-2.7-3.2-2.9c-1.2-0.2-2.4,0.2-3.6,0.4c-0.4-2.3-2.2-4.1-4.4-5.1
	c-1.5-0.7-3.1-1-4.6-1.6c-1.4-0.6-2.5-1.8-4-2.2c-3.9-1-4.6,4.1-5.1,6.8c-0.6,3.5-0.8,7-0.4,10.5c-0.3,0.2-0.5,0.6-0.4,1.1
	c0.2,3.1,2.2,5.6,5.1,6.8c3.2,1.4,7,1.1,10.3,0.2c3.3-0.9,5.9-2.8,7.8-5.6C83.1,38.5,84.9,35.2,84.2,32.4z"/>
<path class="st3" d="M145.4,27.4c-2-3.8-6.5-0.8-9,0.7c-1.6,0.9-3,1.9-4.5,3c-1.4,0.9-2.9,1.8-4.6,1.9c-0.1,0-0.3,0-0.4,0.1
	c-0.3-0.1-0.6-0.1-0.9,0c-2.4,0.7-3,3.7-2.8,5.9c0.2,2.4,1.3,4.6,3,6.4c3.7,4,9.6,4.6,14.8,4.6c0.5,0,1.1-0.3,1.3-0.7
	c1.5-3.5,3-7,3.8-10.7C146.7,35.1,147,30.7,145.4,27.4z"/>
<g>
	<g>
		<g>
			<path class="st1" d="M61.6,41.4c-0.6-2.2-0.5-4.6-0.4-6.9c0.1-2.6,0.3-5.1,0.7-7.7c0.1-0.8,0.2-1.6,0.4-2.4
				c0-0.3,0.1-0.5,0.1-0.8c0-0.1,0.2-0.4,0.1-0.3c0.9-1.5,3.3-0.3,4.3,0.3c1.5,0.8,3,1.6,4.4,2.6c3.1,2,5.8,4.5,8.2,7.3
				c1.3,1.4,3.4-0.7,2.1-2.1c-2.5-2.8-5.2-5.3-8.3-7.4c-1.6-1.1-3.2-2-4.9-2.9c-1.8-0.9-3.9-1.8-5.9-1.1c-1.3,0.4-2.5,1.4-2.9,2.7
				c-0.2,0.7-0.3,1.4-0.4,2.1c-0.4,2.7-0.7,5.4-0.9,8.1c-0.2,3.1-0.3,6.4,0.4,9.4C59.2,44,62.1,43.2,61.6,41.4L61.6,41.4z"/>
		</g>
	</g>
	<g>
		<g>
			<path class="st1" d="M145.3,48.3c0.8-3.3,1.6-6.5,2.1-9.9c0.5-3.6,1.4-7.9-0.4-11.2c-0.7-1.4-2-2.6-3.5-3c-1.9-0.6-3.9,0-5.7,0.8
				c-3.7,1.7-7.3,4-10.7,6.2c-1.2,0.8-0.8,2.7,0.8,2.8c0.7,0,1.3-0.2,1.8-0.7c1.5-1.2-0.6-3.3-2.1-2.1c0.1-0.1,0.2-0.1,0.3-0.2
				c0.3,0.9,0.5,1.9,0.8,2.8c2.9-1.9,5.8-3.7,8.9-5.3c1.4-0.7,3.1-1.8,4.8-1.5c1.2,0.2,2.1,1.4,2.4,2.6c0.5,1.7,0.3,3.5,0.1,5.2
				c-0.1,1.5-0.3,2.9-0.6,4.4c-0.5,2.8-1.2,5.6-1.9,8.4C142,49.4,144.9,50.2,145.3,48.3L145.3,48.3z"/>
		</g>
	</g>
	<g>
		<g>
			<path class="st1" d="M127.3,34c0.7,1.6,1.1,3.5,2.7,4.6c2.1,1.5,5.3,0.5,6.8-1.4c0.8-1.1,1.6-2.2,2.5-3.2c0.4-0.5,0.9-1,1.3-1.4
				c0.4-0.4,1-1,1.5-1c1.3,0,0.5,2.6,0.4,3.3c-0.2,1.6-0.3,3.2-0.4,4.8c-0.1,1.7-0.2,3.5-0.1,5.2c0.1,1.3,0.4,2.7,1.3,3.6
				c0.7,0.7,1.7-0.4,1.1-1.1c-0.8-0.8-0.9-2.2-0.9-3.2c-0.1-1.6,0-3.2,0.1-4.8c0.1-1.6,0.2-3.2,0.4-4.7c0.2-1.2,0.6-2.6-0.1-3.7
				c-1.7-2.7-4.7,0.7-5.9,2.1c-0.9,1-1.6,2.2-2.5,3.2c-0.8,1-2.3,1.6-3.7,1.4c-2.1-0.3-2.6-2.9-3.3-4.5
				C128.2,32.4,126.9,33.1,127.3,34L127.3,34z"/>
		</g>
	</g>
	<g>
		<g>
			<path class="st1" d="M80.3,32.4c-1.1,0.6-2.3,2.2-3.6,2c-1.6-0.2-3.1-2-4.2-3c-1.4-1.2-2.7-2.4-4.1-3.5c-0.9-0.7-2.1-1.6-3.3-1.7
				c-2.5-0.1-2.5,3.3-2.7,5c-0.4,3.5-1.7,6.8-2.2,10.3c-0.1,0.9,1.3,1.4,1.4,0.4c0.5-3.3,1.6-6.4,2.1-9.6c0.2-1.2,0.2-2.4,0.5-3.6
				c0.1-0.4,0.3-0.9,0.7-0.9c0.6-0.1,1.3,0.5,1.8,0.8c2.7,1.9,4.9,4.5,7.6,6.4c1,0.7,2.3,1.3,3.5,0.8c1.2-0.4,2-1.5,3.2-2.1
				C81.9,33.3,81.1,32,80.3,32.4L80.3,32.4z"/>
		</g>
	</g>
	<g>
		<g>
			<path class="st1" d="M65.2,26.4c-0.9-1.4-1.5-2.9-1.7-4.6c0-0.2-0.2-0.4-0.4-0.4c-0.2,0-0.4,0.2-0.4,0.4c0.2,1.8,0.8,3.5,1.8,4.9
				C64.8,27.1,65.5,26.8,65.2,26.4L65.2,26.4z"/>
		</g>
	</g>
	<g>
		<g>
			<path class="st1" d="M67,27.5c-0.4-1.9-0.8-3.7-1.2-5.6c-0.1-0.5-0.8-0.3-0.7,0.2c0.4,1.9,0.8,3.7,1.2,5.6
				C66.4,28.1,67.1,27.9,67,27.5L67,27.5z"/>
		</g>
	</g>
	<g>
		<g>
			<path class="st1" d="M68.8,28.4c-0.4-1.6-0.5-3.2-0.4-4.8c0-0.5-0.7-0.5-0.8,0c-0.1,1.7,0,3.4,0.4,5C68.2,29,68.9,28.8,68.8,28.4
				L68.8,28.4z"/>
		</g>
	</g>
	<g>
		<g>
			<path class="st1" d="M70.5,30.3c-0.3-1.9-0.4-3.9-0.3-5.9c0-0.5-0.7-0.5-0.8,0c0,2,0.1,4,0.4,6.1c0,0.2,0.3,0.3,0.5,0.3
				C70.5,30.7,70.6,30.5,70.5,30.3L70.5,30.3z"/>
		</g>
	</g>
	<g>
		<g>
			<path class="st1" d="M72.3,31.8c-0.3-1.8-0.3-3.6,0.1-5.4c0.1-0.5-0.6-0.7-0.7-0.2c-0.4,1.9-0.5,3.9-0.1,5.8
				C71.6,32.5,72.4,32.3,72.3,31.8L72.3,31.8z"/>
		</g>
	</g>
	<g>
		<g>
			<path class="st1" d="M73.8,33.1c-0.3-1.7-0.1-3.4,0.4-5.1c0.1-0.5-0.6-0.7-0.7-0.2c-0.6,1.8-0.7,3.6-0.4,5.5
				c0,0.2,0.3,0.3,0.5,0.3C73.8,33.5,73.9,33.3,73.8,33.1L73.8,33.1z"/>
		</g>
	</g>
	<g>
		<g>
			<path class="st1" d="M75.2,34.4c0-1.6,0.3-3.2,0.8-4.7c0.2-0.5-0.6-0.6-0.7-0.2c-0.6,1.6-0.8,3.2-0.8,4.9
				C74.5,34.9,75.3,34.9,75.2,34.4L75.2,34.4z"/>
		</g>
	</g>
	<g>
		<g>
			<path class="st1" d="M76.5,34.6c0.1-1.5,0.5-3,1.2-4.4c0.1-0.2,0.1-0.4-0.1-0.5c-0.2-0.1-0.4-0.1-0.5,0.1
				c-0.7,1.5-1.1,3.1-1.3,4.7C75.7,35.1,76.5,35.1,76.5,34.6L76.5,34.6z"/>
		</g>
	</g>
	<g>
		<g>
			<path class="st1" d="M63.8,28c-1-1.3-2.1-2.6-3.1-3.9c-0.1-0.2-0.4-0.1-0.5,0c-0.2,0.2-0.1,0.4,0,0.5c1,1.3,2.1,2.6,3.1,3.9
				c0.1,0.2,0.4,0.1,0.5,0C63.9,28.4,63.9,28.2,63.8,28L63.8,28z"/>
		</g>
	</g>
	<g>
		<g>
			<path class="st1" d="M63.3,30.6c-0.8-0.8-1.6-1.6-2.2-2.5c-0.1-0.2-0.3-0.2-0.5-0.1c-0.2,0.1-0.3,0.3-0.1,0.5
				c0.7,1,1.5,1.9,2.3,2.7c0.1,0.1,0.4,0.1,0.5,0C63.4,31,63.4,30.8,63.3,30.6L63.3,30.6z"/>
		</g>
	</g>
	<g>
		<g>
			<path class="st1" d="M63.2,33.4c-0.8-0.9-1.5-1.8-2.3-2.6c-0.1-0.2-0.4-0.1-0.5,0c-0.2,0.2-0.1,0.4,0,0.5
				c0.8,0.9,1.5,1.8,2.3,2.6c0.1,0.2,0.4,0.1,0.5,0C63.4,33.8,63.4,33.6,63.2,33.4L63.2,33.4z"/>
		</g>
	</g>
	<g>
		<g>
			<path class="st1" d="M62.5,35.5c-1.3-1-2.4-2.1-3.5-3.3c-0.3-0.4-0.9,0.2-0.5,0.5c1.1,1.2,2.3,2.3,3.5,3.3c0.2,0.1,0.4,0.2,0.5,0
				C62.7,35.9,62.7,35.7,62.5,35.5L62.5,35.5z"/>
		</g>
	</g>
	<g>
		<g>
			<path class="st1" d="M142.9,31.2c0.7-1.9,1.1-3.9,1.2-5.9c0-0.5-0.7-0.5-0.8,0c-0.1,1.9-0.5,3.9-1.2,5.7
				C142,31.4,142.8,31.6,142.9,31.2L142.9,31.2z"/>
		</g>
	</g>
	<g>
		<g>
			<path class="st1" d="M141.7,31.4c0-1.8,0.1-3.5,0.1-5.3c0-0.5-0.7-0.5-0.8,0c0,1.8-0.1,3.5-0.1,5.3
				C141,31.9,141.7,31.9,141.7,31.4L141.7,31.4z"/>
		</g>
	</g>
	<g>
		<g>
			<path class="st1" d="M140.2,32.1c0.1-2,0-4.1-0.3-6.1c-0.1-0.5-0.8-0.3-0.7,0.2c0.3,1.9,0.4,3.9,0.3,5.9
				C139.4,32.6,140.2,32.6,140.2,32.1L140.2,32.1z"/>
		</g>
	</g>
	<g>
		<g>
			<path class="st1" d="M138.7,33.5c0-2-0.2-4-0.4-6c0-0.2-0.2-0.4-0.4-0.4c-0.2,0-0.4,0.2-0.4,0.4c0.3,2,0.4,4,0.4,6
				C138,34,138.7,34,138.7,33.5L138.7,33.5z"/>
		</g>
	</g>
	<g>
		<g>
			<path class="st1" d="M137.5,35.4c-0.2-2.4-0.5-4.7-0.9-7.1c-0.1-0.5-0.8-0.3-0.7,0.2c0.4,2.3,0.7,4.6,0.9,6.9
				C136.8,35.9,137.6,35.9,137.5,35.4L137.5,35.4z"/>
		</g>
	</g>
	<g>
		<g>
			<path class="st1" d="M136.4,36.9c-0.4-2.6-0.9-5.1-1.3-7.7c-0.1-0.5-0.8-0.3-0.7,0.2c0.4,2.6,0.9,5.1,1.3,7.7
				C135.8,37.6,136.5,37.4,136.4,36.9L136.4,36.9z"/>
		</g>
	</g>
	<g>
		<g>
			<path class="st1" d="M135.2,37.4c-0.4-2.1-0.8-4.2-1.2-6.3c-0.1-0.5-0.8-0.3-0.7,0.2c0.4,2.1,0.8,4.2,1.2,6.3
				C134.5,38.1,135.3,37.9,135.2,37.4L135.2,37.4z"/>
		</g>
	</g>
	<g>
		<g>
			<path class="st1" d="M133.4,37.8c-0.6-2-1.1-4-1.4-6c-0.1-0.5-0.8-0.3-0.7,0.2c0.4,2,0.8,4,1.4,6
				C132.8,38.5,133.5,38.3,133.4,37.8L133.4,37.8z"/>
		</g>
	</g>
	<g>
		<g>
			<path class="st1" d="M131.1,36.9c-0.7-1.1-0.9-2.4-0.8-3.7c0-0.2-0.2-0.4-0.4-0.4c-0.2,0-0.3,0.2-0.4,0.4
				c-0.2,1.4,0.1,2.9,0.9,4.1C130.7,37.6,131.3,37.3,131.1,36.9L131.1,36.9z"/>
		</g>
	</g>
	<g>
		<g>
			<path class="st1" d="M144.1,33c0.4-0.8,0.8-1.5,1.2-2.3c0.1-0.2,0-0.4-0.1-0.5c-0.2-0.1-0.4,0-0.5,0.1c-0.4,0.8-0.8,1.5-1.2,2.3
				c-0.1,0.2,0,0.4,0.1,0.5C143.7,33.2,144,33.2,144.1,33L144.1,33z"/>
		</g>
	</g>
	<g>
		<g>
			<path class="st1" d="M143.8,35.8c0.5-1.1,1.3-1.9,2.3-2.6c0.2-0.1,0.2-0.3,0.1-0.5c-0.1-0.2-0.3-0.2-0.5-0.1
				c-1.1,0.7-2,1.7-2.5,2.8c-0.1,0.2,0,0.4,0.1,0.5C143.4,36,143.7,35.9,143.8,35.8L143.8,35.8z"/>
		</g>
	</g>
	<g>
		<g>
			<path class="st1" d="M143.5,39.6c0.3-1.3,1.2-2.4,2.3-3c0.4-0.2,0-0.9-0.4-0.6c-1.3,0.8-2.3,2-2.7,3.5
				C142.7,39.8,143.4,40,143.5,39.6L143.5,39.6z"/>
		</g>
	</g>
	<g>
		<g>
			<path class="st1" d="M143.6,42.5c0.7-1.2,1.6-2.4,2.6-3.4c0.3-0.4-0.2-0.9-0.5-0.5c-1,1.1-1.9,2.3-2.7,3.6
				C142.7,42.5,143.3,42.9,143.6,42.5L143.6,42.5z"/>
		</g>
	</g>
	<g>
		<g>
			<path class="st1" d="M77.9,34.3c0.2-1,0.6-2,1-2.9c0.1-0.2,0-0.4-0.1-0.5c-0.2-0.1-0.4,0-0.5,0.1c-0.5,1-0.8,2-1.1,3.1
				C77,34.6,77.8,34.8,77.9,34.3L77.9,34.3z"/>
		</g>
	</g>
</g>
<g>
	<g>
		<path class="st1" d="M122.8,33.4c-2.5,3.1-1.4,6.9,0.1,10.2c1.5,3.4,3.8,6.1,7.3,7.5c3.2,1.3,6.8,1.8,10.2,1.5
			c1.7-0.1,3.5-0.5,5-1.2c1.5-0.7,3.4-2.2,2.4-4c-0.3-0.6-1.1-0.9-1.7-0.7c0,0-0.1,0-0.1,0c-1.8,0.6-1.1,3.5,0.8,2.9
			c0,0,0.1,0,0.1,0c-0.6-0.2-1.1-0.5-1.7-0.7c0.2-0.9,0.2-1.2-0.1-0.9c-0.1,0.1-0.2,0.2-0.4,0.3c-0.3,0.2-0.6,0.4-0.9,0.5
			c-0.5,0.3-1.1,0.4-1.7,0.6c-1.2,0.3-2.5,0.3-3.7,0.3c-2.5,0-5.1-0.4-7.4-1.4c-2.5-1.2-4.1-3-5.3-5.5c-0.9-2-2.5-5.3-0.9-7.3
			C126.1,34,124,31.9,122.8,33.4L122.8,33.4z"/>
	</g>
</g>
<g>
	<g>
		<path class="st1" d="M79.9,30.7c1.7,2.2,3.6,5.6,2.2,8.3c-1.4,2.7-4.8,4.5-7.6,5.4c-3.3,1.1-6.9,1.9-10.3,0.7
			c-2.4-0.8-4.7-2.1-4.4-5c0.2-1.9-2.8-1.9-3,0c-0.4,3.8,2.4,6.1,5.6,7.5c4.2,1.7,8.8,1.1,13-0.3c3.6-1.3,7.8-3.5,9.5-7.1
			c1.8-3.7,0-8-2.3-11c-0.5-0.6-1.3-1-2.1-0.5C79.8,29,79.4,30,79.9,30.7L79.9,30.7z"/>
	</g>
</g>
</svg>
