<?xml version="1.0" encoding="utf-8"?>
<!-- Generator: Adobe Illustrator 26.3.1, SVG Export Plug-In . SVG Version: 6.00 Build 0)  -->
<svg version="1.1" id="Calque_1" xmlns="http://www.w3.org/2000/svg" xmlns:xlink="http://www.w3.org/1999/xlink" x="0px" y="0px"
	 viewBox="0 0 200 200" style="enable-background:new 0 0 200 200;" xml:space="preserve">
<style type="text/css">
	.st0{fill:#9999CC;}
	.st1{fill:#666666;}
	.st2{fill:#009900;}
	.st3{fill:#E7F4DF;}
	.st4{fill:none;stroke:#E7F4DF;stroke-width:0.25;stroke-miterlimit:10;}
</style>
<path class="st0" d="M111.3,119.2c-0.1-0.9-0.9-1.1-1.5-0.9c-0.1,0-0.2-0.1-0.3-0.1c-2.4-0.3-5.5-0.1-5.9,2.9
	c-0.2,1.4,0.3,3,0.4,4.4c0.2,1.8,0.3,3.6,0.3,5.4c0.1,6.7-0.6,13.4-0.7,20.2c0,3.3,0.1,6.6,0.6,9.9c0.2,1.4,0.3,3.1,1.8,3.7
	c1.2,0.5,2.5-0.1,3.2-1.1c0.9-1.3,0.7-3.1,0.7-4.6c0-1.8,0.1-3.6,0.1-5.3c0.1-3.6,0.1-7.1,0.2-10.7c0.1-4,0.2-8,0.2-12
	c0-2,0-4.1,0.3-6.1C111.1,122.9,111.6,121.1,111.3,119.2z"/>
<path class="st1" d="M153.8,97.1c1.1-0.8,1.6-2.1,1.7-3.4c0.3-3-1.4-6.2-2.4-8.9c-1.2-3.1-2.1-6.4-3.7-9.4c-1.2-2.4-3.1-4.6-5.9-5.1
	c-3.2-0.6-6.7,0.9-9.6,2c-11.7,4.7-21.3,12.7-28.4,23c-0.9,1.3-1.9,2.7-3.6,3.1c-1.7,0.4-2.7-1.1-3.9-2.2c-2.6-2.4-5.4-4.5-8.3-6.4
	c-2.9-1.9-5.9-3.7-8.8-5.5c-3-1.8-6-3.5-9.3-4.6c-1.6-0.5-3.3-0.8-4.9-0.9c-0.1,0-0.2,0-0.3,0c-1.1-0.6-2.3-0.7-3.4,0
	c-1.4,0.8-2.2,2.2-2.4,3.7c-0.3,2,0.1,4-0.4,6c-0.4,2-1.2,3.9-1.8,5.8c-2.4,7.5-3.9,15.4-2.8,23.3c1.8,12.7,10.1,24,21.1,30.4
	c7.5,4.4,16.3,5.7,24.3,8.9c0.8,0.3,1.7-0.5,1.7-1.3c-0.4-6.6-0.4-13.3-0.2-19.9c0.1-3.2,0.2-6.5,0.3-9.7c0-1.4-0.1-3,0.3-4.4
	c0.4-1.3,1.4-2,2.5-2.5c1.9-0.8,4.7-1,5.7,1.3c0.5,1.1,0.4,2.5,0.4,3.6c-0.1,1.7-0.2,3.3-0.2,5c-0.3,6.6-0.6,13.1-1,19.7
	c-0.1,1.8-0.2,3.5-0.3,5.3c-0.1,1.3,0.1,2.9,1.5,3.4c1.4,0.5,3.1-0.7,4.3-1.3c0.5-0.2,0.9-0.4,1.4-0.7c0.4,0.5,1,0.8,1.8,0.4
	c11.8-5.6,22.3-14.5,29.2-25.6c3.7-5.9,6.2-12.5,6.5-19.5c0.1-3.4-0.3-7-1.3-10.3c-0.2-0.7-0.6-1.5-0.7-2.2
	C152.8,97.6,153.3,97.5,153.8,97.1z"/>
<path class="st2" d="M85.1,151.4c-0.9-0.6-1.8-1.3-2.7-1.9c-1.1-0.7-2.2-1.4-3.4-0.4c-0.1,0.1-0.2,0.3-0.3,0.5
	c-0.4,0.2-0.6,0.6-0.7,1.1c-0.2,1.9-0.1,3.9,0.3,5.8c0.2,0.9,0.4,1.8,0.8,2.6c0.6,1.1,1.8,1.5,2.9,0.9c0.7-0.4,1.4-1,2.1-1.6
	c0.7-0.6,1.2-1.3,1.8-2c0.5-0.7,1.3-1.7,1.3-2.6C87.2,152.6,85.9,152,85.1,151.4z"/>
<path class="st2" d="M136.4,155.2c0-0.8-0.1-1.6-0.1-2.5c0-0.8,0-1.6-0.1-2.4c-0.1-1-0.5-1.9-1.4-2.5c-0.9-0.6-1.9-0.4-2.7,0.1
	c-1.6,1-3,2.2-4.5,3.4c-0.5,0.4-0.5,1.2-0.2,1.7c0,0.4,0.2,0.9,0.6,1.1c1.4,0.9,2.9,1.7,4.3,2.6c0.8,0.5,1.7,1.2,2.7,0.9
	c0.6-0.1,1.1-0.6,1.3-1.2C136.4,156,136.4,155.6,136.4,155.2z"/>
<path class="st2" d="M118.4,109.8c-0.5-0.3-1-0.4-1.6-0.5c-0.1,0-0.2,0-0.3,0c-0.3-0.2-0.7-0.3-1.2-0.3c-0.9,0.2-1.7,0.5-2.5,0.9
	c-0.8,0.4-1.7,1-2.1,1.8c-0.5,1-0.3,2-0.1,3c0.1,0.9,0.3,1.8,0.6,2.7c0.2,0.8,0.4,2,1.1,2.6c0.5,0.5,1.3,0.5,2,0.2
	c0.4-0.2,0.7-0.6,1.1-0.9c1.3-1.3,2.5-2.7,3.1-4.4c0.4-0.9,0.6-1.9,0.6-3C119.1,111.1,119.1,110.2,118.4,109.8z"/>
<g>
	<path class="st2" d="M101.1,112.1C101.1,112.1,101.1,112.1,101.1,112.1C101.1,112.1,101.1,112.1,101.1,112.1
		C101.1,112.1,101.1,112.1,101.1,112.1z"/>
	<path class="st2" d="M103.3,110.1c-0.1,0-0.2,0-0.3,0c-0.1-0.1-0.1-0.1-0.2-0.1c-1.4-0.9-3.1-0.9-4.5-0.2c-0.7,0.3-1.4,0.9-1.8,1.6
		c-0.6,1-0.3,1.9,0.1,2.9c0.3,0.8,0.6,1.6,0.9,2.4c0.3,0.8,0.6,1.6,1.2,2.2c0.9,0.8,2.2,0.7,3.1,0c0.6-0.5,1.1-1.3,1.5-2
		c0.9-1.6,1.3-3.5,1.3-5.3C104.6,110.7,104,110.1,103.3,110.1z"/>
</g>
<path class="st2" d="M169.2,53.7c-10.3,0.3-20.7,1.1-30.9,2.6c-2.6,0.4-5.2,0.8-7.7,1.2c-1.2,0.2-2.4,0.4-3.6,0.7
	c-1.2,0.2-2.6,0.7-3.8,0.3c-1-0.4-1.8-1.3-2.6-2c-0.8-0.7-1.6-1.2-2.6-1.7c-1.8-0.9-3.8-1.5-5.9-1.8c-4.5-0.7-9-0.3-13.5-0.2
	c-5,0.1-10.1-0.1-15,0.7c-4.8,0.7-8.8,3.5-13.4,4.8c-2.5,0.7-5.1,0.9-7.6,1c-2.6,0.1-5.2,0.3-7.8,0.4c-11.2,0.6-22.5,1-33.8,0.5
	c0-0.5-0.3-1-0.7-1.3c-0.7-0.4-1.4-0.1-1.8,0.5c-0.3,0.4-0.5,0.8-0.6,1.2c-0.2,0.3-0.2,0.7-0.2,1c-0.1,1.8,0.9,3.7,2.2,4.9
	c1.8,1.8,4.1,2.9,6.5,3.6c2.6,0.7,5.2,1,7.9,1.3c2.9,0.4,5.6,1.1,8.4,2c3.1,1.1,6.2,1.9,9.5,1.9c1.5,0,3-0.1,4.4-0.4
	c1.6-0.3,3.4-0.8,4.9-0.1c1.2,0.6,1,1.8,1.4,2.9c0.6,1.4,2,1.9,3.4,2c1.4,0,2.6,0,3.9,0.4c1.6,0.5,3.1,1.2,4.5,2.1
	C80.6,86,86.3,90.1,92,93.9c1.4,0.9,2.7,1.8,4.1,2.7c1.3,0.9,2.6,1.9,4.3,1.9c2.7,0.1,4.8-2.1,6.3-4.1c3.6-4.6,7.2-9.2,11.7-13.1
	c2.2-1.9,4.6-3.6,7.1-5c2.9-1.5,5.9-2.4,8.9-3.6c3.3-1.3,6.2-3.1,9.2-4.8c3.1-1.7,6.2-2.4,9.7-3c3.3-0.5,6.5-1.2,9.2-3.2
	c2.5-1.9,4.5-4.3,7.4-5.7C171.1,55.6,170.5,53.6,169.2,53.7z"/>
<g>
	<g>
		<path class="st3" d="M18.1,60.7C35,60.4,52,60.5,69,60.9c2,0,1.9-2.8,0-3c-0.3,0-0.5,0-0.8-0.1c-1.9-0.2-1.9,2.8,0,3
			c0.3,0,0.5,0,0.8,0.1c0-1,0-2,0-3c-17-0.3-33.9-0.4-50.9-0.2C16.2,57.7,16.2,60.7,18.1,60.7L18.1,60.7z"/>
	</g>
</g>
<g>
	<g>
		<path class="st3" d="M16.3,59.2c0.4,6.5,5.4,11.8,11.8,12.6c1.9,0.2,3.9,0.1,5.9,0.2c2,0.1,3.8,0.6,5.6,1.4
			c3.4,1.5,6.6,2.9,10.4,3.3c4.2,0.5,8.6-0.1,12.5-1.7c1.8-0.7,1-3.6-0.8-2.9c-4.1,1.6-8.5,2.2-12.8,1.4c-2-0.4-3.9-1-5.8-1.8
			c-1.9-0.9-3.8-1.8-5.9-2.3c-4.1-0.9-8.6,0.5-12.4-1.6c-3.1-1.7-5.2-4.9-5.5-8.5C19.2,57.3,16.2,57.3,16.3,59.2L16.3,59.2z"/>
	</g>
</g>
<g>
	<g>
		<path class="st3" d="M27.1,63.7c4,5.2,11.2,2.4,16.4,5c1.3,0.7,2.6,1.2,4.1,1.4c1.6,0.2,3.2,0.1,4.8,0c3.7-0.3,7.3-0.6,11-0.9
			c1-0.1,1-1.6,0-1.5c-3.3,0.3-6.5,0.5-9.8,0.8c-1.5,0.1-3,0.3-4.5,0.2c-1.8,0-3.2-0.6-4.8-1.4c-2.6-1.3-5.3-1.5-8.1-1.6
			c-2.7-0.1-5.9-0.5-7.7-2.8C27.8,62.2,26.5,62.9,27.1,63.7L27.1,63.7z"/>
	</g>
</g>
<g>
	<g>
		<path class="st3" d="M28.3,63.7c12.8,0.6,25.6,0.9,38.4,0.8c1,0,1-1.5,0-1.5c-12.8,0.1-25.6-0.2-38.4-0.8
			C27.4,62.2,27.4,63.7,28.3,63.7L28.3,63.7z"/>
	</g>
</g>
<g>
	<g>
		<path class="st3" d="M70.6,60.7c4.8-4.6,11.7-5.7,18.1-6.1c3.8-0.2,7.6-0.3,11.4-0.4c4.2-0.1,8.6-0.5,12.8,0.3
			c3.9,0.8,7.4,2.8,10.2,5.7c1.3,1.4,3.5-0.7,2.1-2.1c-2.7-2.7-5.9-4.8-9.6-5.9c-4.3-1.3-8.8-1.1-13.2-1C94.7,51.3,86.6,51,79,52.9
			c-3.9,1-7.6,2.8-10.5,5.6C67.1,59.9,69.2,62,70.6,60.7L70.6,60.7z"/>
	</g>
</g>
<g>
	<g>
		<path class="st3" d="M140.9,66.7c-0.4-0.8,4.9-1.2,5.6-1.3c2.3-0.3,4.5-0.9,6.6-1.7c2.7-0.9,6.9-2.8,6-6.4
			c-0.1-0.3-0.4-0.6-0.7-0.6c-9.7,1-19.4,2.8-28.6,5.9c-0.9,0.3-0.5,1.8,0.4,1.4c9.1-3.1,18.7-4.9,28.2-5.8
			c-0.2-0.2-0.5-0.4-0.7-0.6c0.5,2.1-2.1,3.4-3.7,4.1c-2.2,0.9-4.5,1.5-6.8,1.9c-1.2,0.2-2.4,0.4-3.6,0.5c-0.8,0.1-1.6,0.1-2.4,0.4
			c-1.2,0.5-2.1,1.5-1.5,2.8C140.1,68.3,141.3,67.6,140.9,66.7L140.9,66.7z"/>
	</g>
</g>
<g>
	<g>
		<path class="st3" d="M125,60.2c16.2-4.2,32.9-4.7,49.5-5.3c-0.5-0.4-1-0.7-1.4-1.1c0.2,0.7,0.3,1.3,0.5,2c0.6-0.6,1.2-1.2,1.8-1.8
			c-3-1.1-6.2,0.2-8.6,2c-2.6,2-4.9,4-7.8,5.4c-2.9,1.4-5.9,2.3-9,3c-1.5,0.3-3,0.6-4.5,0.9c-0.8,0.2-1.6,0.3-2.5,0.4
			c-0.3,0.1-1.4,0.4-1.7,0.2c-1.3-1.4-3.4,0.7-2.1,2.1c1,1.1,2.4,1,3.8,0.7c1.6-0.3,3.3-0.6,4.9-0.9c3.3-0.6,6.5-1.4,9.6-2.6
			c3.1-1.2,5.9-2.7,8.5-4.8c2.4-1.9,5.2-4.9,8.6-3.7c1.1,0.4,2.1-0.8,1.8-1.8c-0.2-0.7-0.3-1.3-0.5-2c-0.2-0.6-0.8-1.1-1.4-1.1
			c-16.9,0.5-33.9,1.1-50.3,5.4C122.3,57.8,123.1,60.7,125,60.2L125,60.2z"/>
	</g>
</g>
<g>
	<g>
		<path class="st3" d="M62,75.6c1.9,0,1.9-3,0-3C60.1,72.6,60.1,75.6,62,75.6L62,75.6z"/>
	</g>
</g>
<g>
	<g>
		<path class="st3" d="M61.6,75.6c-0.5,3.8-3.9,6.9-3.2,10.9c0.3,2.1,1.8,3.7,3.5,4.9c1.9,1.4,4,2.7,6.1,3.9
			c8.5,5,17.6,8.8,26.8,12.2c2.3,0.8,4.7,1.7,7,2.5c2.4,0.8,4.8,1.8,7.2,2.3c2.2,0.4,4.5,0.1,6.1-1.6c1.4-1.5,1.7-3.6,0.6-5.4
			c-1.1-1.7-3.1-2.6-4.8-3.5c-2.4-1.2-4.7-2.4-7-3.7c-4.5-2.5-8.9-5.1-13.2-8C82.4,84.8,73.7,76.3,63,77c-1.9,0.1-1.9,3.1,0,3
			c8.4-0.6,15.4,5.4,22,9.9c7.5,5.2,15.4,9.9,23.6,14.1c1.4,0.7,3.9,1.5,4.7,2.9c1,2-2.1,2.6-3.4,2.4c-2.2-0.3-4.5-1.3-6.6-2.1
			c-2.1-0.7-4.1-1.4-6.2-2.1c-8.3-3-16.5-6.3-24.3-10.5c-2.2-1.2-4.3-2.4-6.3-3.8c-1.7-1.1-4.3-2.3-4.9-4.4
			c-0.6-1.7,0.5-3.6,1.2-5.1c0.9-1.9,1.7-3.7,2-5.8C64.9,73.7,61.9,73.7,61.6,75.6L61.6,75.6z"/>
	</g>
</g>
<g>
	<g>
		<path class="st3" d="M105.1,98.7c4.7-6.7,9.7-13.5,16.4-18.5c3.3-2.5,6.9-4.4,10.8-5.7c2.9-1,5.9-2.3,9-2.6
			c1.2-0.2,2.6-0.2,3.5,0.7c1,1.1,1.7,2.5,2.5,3.7c1.9,3.1,3.6,6.4,4.9,9.8c1,2.7,2.2,6.2,1.3,9.1c-0.3,0.9-0.6,1.5-1.6,1.7
			c-1.1,0.2-2.2,0-3.3,0c-2.3,0-4.6,0.1-6.9,0.4c-10.5,1.3-20.4,5.4-28.8,11.9c-1.5,1.2,0.6,3.3,2.1,2.1c8-6.2,17.8-10.2,27.9-11.2
			c2.4-0.2,4.9-0.3,7.3-0.2c2.3,0.1,4.6-0.4,5.7-2.6c1.5-3.1,0.8-6.8-0.2-9.9c-1.2-3.9-2.9-7.6-5-11c-0.9-1.5-1.8-3-2.8-4.4
			c-1-1.3-1.9-2.5-3.6-2.8c-3.4-0.8-7,0.7-10.1,1.8c-3.9,1.4-7.7,2.6-11.3,4.9c-8.6,5.3-14.7,13.5-20.4,21.6
			C101.4,98.8,104,100.3,105.1,98.7L105.1,98.7z"/>
	</g>
</g>
<g>
	<g>
		<path class="st3" d="M59.2,88.2c-4.6,9-6.6,19.8-5.1,29.9c1,6.5,3.8,12.7,8,17.7c2.4,2.8,5,5.5,7.6,8.2c2.6,2.6,5.4,5.1,8.6,6.7
			c3.7,1.9,7.7,3.4,11.5,4.8c4.1,1.5,8.2,2.9,12.5,3.7c1.9,0.4,2.7-2.5,0.8-2.9c-7.1-1.3-14-4.1-20.6-7c-3.2-1.4-6.1-3.2-8.7-5.5
			c-2.6-2.4-4.9-5-7.3-7.6c-4.5-4.8-7.7-10.1-9.1-16.6c-1.2-5.3-1.1-11-0.1-16.3c0.8-4.7,2.3-9.3,4.4-13.5
			C62.6,88,60,86.5,59.2,88.2L59.2,88.2z"/>
	</g>
</g>
<g>
	<g>
		<path class="st3" d="M110.4,159.5c5.2,0.9,10.2-2,14.6-4.4c2.4-1.3,4.9-2.6,7.1-4.3c2.3-1.7,4.5-3.6,6.5-5.6
			c8.1-8,15.4-17.8,17.6-29.2c0.6-3.3,0.9-6.8,0.5-10.1c-0.3-2.8-0.7-6.6-2.9-8.6c-1.4-1.3-3.6,0.8-2.1,2.1c0.9,0.8,1.2,1.9,1.4,3
			c0.3,1.4,0.6,2.8,0.7,4.2c0.2,2.7,0.1,5.4-0.4,8c-0.9,5.3-3,10.3-5.8,14.9c-2.7,4.5-6.1,8.5-9.8,12.3c-3.7,3.8-7.6,7.2-12.3,9.6
			c-2.3,1.2-4.5,2.6-6.9,3.6c-2.3,1.1-4.9,2.1-7.5,1.6C109.3,156.3,108.5,159.2,110.4,159.5L110.4,159.5z"/>
	</g>
</g>
<g>
	<g>
		<path class="st3" d="M82.1,55.7c2.4,4.4,4.7,8.9,6.6,13.6c0.4,0.9,1.7,0.1,1.3-0.8c-2-4.6-4.2-9.2-6.6-13.6
			C82.9,54.1,81.6,54.8,82.1,55.7L82.1,55.7z"/>
	</g>
</g>
<g>
	<g>
		<path class="st3" d="M96.7,55.2c0.7,4.1,0.8,8.2,0.5,12.3c0.4-0.2,0.9-0.4,1.3-0.5c0,0,0,0.1,0,0.1c0.3-0.9-1.1-1.3-1.4-0.4
			c-0.2,0.5,0,1,0.4,1.3c0.5,0.4,1.2,0.1,1.3-0.5c0.4-4.2,0.2-8.5-0.5-12.7C98,53.9,96.6,54.3,96.7,55.2L96.7,55.2z"/>
	</g>
</g>
<g>
	<g>
		<path class="st3" d="M103,68.9c4.2-4,7.8-8.6,11.5-13.1c0.3-0.3,0.6-0.7,0.9-1c0.1-0.1,0.2-0.2,0.3-0.3c0.2-0.2,0.1,0-0.2,0
			c0.9-0.2,0.5-1.7-0.4-1.4c-0.5,0.1-0.9,0.8-1.2,1.1c-0.8,0.9-1.5,1.8-2.3,2.7c-2.1,2.5-4.2,5-6.4,7.4c-1.1,1.2-2.2,2.4-3.3,3.5
			C101.2,68.5,102.3,69.6,103,68.9L103,68.9z"/>
	</g>
</g>
<g>
	<g>
		<path class="st3" d="M87.6,59c0.8-0.6,1.7-1,2.7-1c0.5,0,1,0,1.4,0.1c0.3,0.1,0.5,0.1,0.8,0.2c0.1,0,0.2,0.1,0.2,0.1
			c0,0,0.1,0,0.1,0c-0.1-0.1-0.1-0.2,0.1-0.4c0-0.5,0.2-0.6,0.7-0.3c0.1,0.1,0.1,0.2,0.2,0.3c0,0,0,0.1,0,0.1c0-0.4-0.4-0.8-0.8-0.8
			c-0.4,0-0.7,0.3-0.8,0.8c-0.1,0.6,0.6,1,1.1,0.9c0.5-0.1,0.9-0.6,0.7-1.2c-0.1-0.5-0.6-0.8-1.1-1c-0.4-0.2-0.8-0.3-1.2-0.3
			c-1.7-0.3-3.6,0.1-5,1.2c-0.3,0.2-0.5,0.6-0.3,1C86.8,59.1,87.3,59.3,87.6,59L87.6,59z"/>
	</g>
</g>
<g>
	<g>
		<path class="st3" d="M89.3,64.1c1.4-0.4,2.8-0.5,4.1-0.2c0.4,0.1,0.8-0.1,0.9-0.5c0.1-0.4-0.1-0.8-0.5-0.9
			c-1.6-0.3-3.3-0.3-4.9,0.2c-0.4,0.1-0.6,0.5-0.5,0.9C88.5,64,88.9,64.2,89.3,64.1L89.3,64.1z"/>
	</g>
</g>
<g>
	<g>
		<path class="st3" d="M102,57.9c0.1,0,0.2-0.1,0.2-0.1c-0.1,0.1,0,0,0,0c0,0,0.1,0,0.1,0c0.2-0.1,0.4-0.1,0.6-0.1c0,0,0.1,0,0.1,0
			c-0.1,0-0.1,0,0,0c0.1,0,0.2,0,0.3,0c0.2,0,0.4,0,0.6,0c-0.1,0-0.1,0,0,0c0,0,0.1,0,0.1,0c0.1,0,0.2,0,0.3,0.1
			c0.1,0,0.2,0.1,0.3,0.1c0,0,0.1,0,0.1,0c0,0,0.1,0.1,0.1,0c-0.1,0,0.1,0,0.1,0c0,0,0.1,0,0.1,0.1c0.1,0,0.2,0.1,0.2,0.1
			c0.1,0.1,0.2,0.1,0.3,0.2c0.1,0.1-0.1-0.1,0,0c0,0,0.1,0.1,0.1,0.1c0.3,0.3,0.8,0.3,1.1,0c0.3-0.3,0.3-0.8,0-1.1
			c-1.5-1.3-3.7-1.6-5.5-0.7c-0.3,0.2-0.5,0.7-0.3,1C101.2,58,101.6,58.1,102,57.9L102,57.9z"/>
	</g>
</g>
<g>
	<g>
		<path class="st3" d="M100.3,62.7c0.2-0.1,0.3-0.1,0.5-0.1c0.1,0,0.2,0,0.2-0.1c0.1,0,0.1,0,0,0c0,0,0.1,0,0.1,0c0.2,0,0.3,0,0.5,0
			c0.1,0,0.2,0,0.3,0c0,0,0.1,0,0.1,0c-0.1,0-0.1,0,0,0c0.2,0,0.3,0.1,0.5,0.1c0.1,0,0.2,0.1,0.2,0.1c0,0,0.1,0,0.1,0
			c0.1,0-0.1-0.1,0,0c0.2,0.1,0.3,0.1,0.4,0.2c0.1,0,0.1,0.1,0.2,0.1c0,0,0.1,0.1,0.1,0c-0.1-0.1,0.1,0.1,0.1,0.1
			c0.3,0.3,0.8,0.3,1.1,0c0.3-0.3,0.3-0.8,0-1.1c-1.3-1.1-3.2-1.5-4.9-0.9c-0.4,0.1-0.7,0.5-0.5,0.9C99.5,62.6,99.9,62.9,100.3,62.7
			L100.3,62.7z"/>
	</g>
</g>
<g>
	<g>
		<path class="st3" d="M120.5,92.1c3.5-4.3,7.5-9.1,13-10.7c3-0.9,6.4-0.8,9.5-0.6c3.3,0.2,6.6,0.9,9.6,2.4c0.2-0.5,0.4-0.9,0.6-1.4
			c-1.1-0.2-1.9-1.7-3.1-1.9c-0.9-0.2-1.3,1.3-0.4,1.4c1.1,0.2,1.9,1.7,3.1,1.9c0.8,0.2,1.4-1,0.6-1.4c-3-1.5-6.2-2.3-9.5-2.5
			c-3.4-0.3-7.1-0.4-10.4,0.5c-6,1.6-10.3,6.6-14,11.2C118.9,91.8,119.9,92.8,120.5,92.1L120.5,92.1z"/>
	</g>
</g>
<g>
	<g>
		<path class="st3" d="M125.5,98.2c4.4-2.7,9.4-4.4,14.6-5.1c2.5-0.3,5.1-0.4,7.6-0.3c1.3,0.1,2.5,0.2,3.8,0.3
			c0.7,0.1,1.4,0.2,2.1,0.3c0.3,0.1,1.5,0.1,1.6,0.3c0-0.3,0.1-0.6,0.1-0.9c0,0-0.1,0.1-0.1,0.1c0.2-0.1,0.5-0.1,0.7-0.2
			c-0.1,0-0.1,0-0.2,0c0.2,0.2,0.4,0.5,0.6,0.7c0,0,0-0.1,0-0.1c0-1-1.5-1-1.5,0c0,0,0,0.1,0,0.1c0,0.3,0.2,0.7,0.6,0.7
			c0.4,0.1,0.7,0.1,1-0.3c0.2-0.2,0.3-0.6,0.1-0.9c-0.6-1-2.1-0.9-3.2-1.1c-1.4-0.2-2.8-0.4-4.2-0.5c-2.9-0.2-5.7-0.2-8.6,0.2
			c-5.6,0.7-11,2.4-15.8,5.3C123.9,97.4,124.6,98.7,125.5,98.2L125.5,98.2z"/>
	</g>
</g>
<g>
	<g>
		<path class="st3" d="M104.2,119.9c2.7-0.1,5.4-0.1,8,0.1c0.8,0.1,1.5-0.7,1.5-1.5c0-0.9-0.7-1.4-1.5-1.5c-2.7-0.2-5.4-0.2-8-0.1
			c-0.8,0-1.5,0.7-1.5,1.5C102.7,119.2,103.3,119.9,104.2,119.9L104.2,119.9z"/>
	</g>
</g>
<g>
	<g>
		<path class="st3" d="M102.5,118.2c-0.5,12.9-1.1,25.9-0.8,38.8c0,1.8-0.1,3.8,0.4,5.6c0.5,1.9,3.4,1.1,2.9-0.8
			c0-0.2-0.1-0.7-0.1-0.3c0-0.3-0.1-0.7-0.1-1c-0.1-1-0.1-1.9-0.1-2.9c-0.1-2.8,0-5.7,0-8.5c0.1-7,0.3-14,0.5-21.1
			c0.1-3.3,0.2-6.6,0.4-9.9C105.6,116.3,102.6,116.3,102.5,118.2L102.5,118.2z"/>
	</g>
</g>
<g>
	<g>
		<path class="st3" d="M102.8,164.4c0.8,0.7,1.6,1.4,2.6,1.9c0.7,0.4,1.4,0.6,2.2,0.6c1.6-0.2,2.6-1.5,3.6-2.7
			c0.3-0.3,0.4-0.6,0.4-1.1c0-0.4-0.2-0.8-0.4-1.1c-0.5-0.5-1.6-0.7-2.1,0c-0.4,0.5-0.8,1-1.3,1.5c-0.1,0.1-0.2,0.2-0.3,0.2
			c-0.1,0.1,0.4-0.3,0.1-0.1c0,0-0.1,0.1-0.1,0.1c-0.1,0-0.1,0.1-0.2,0.1c-0.1,0.1-0.3,0,0.2-0.1c-0.1,0-0.2,0.1-0.3,0.1
			c0.5-0.1,0.4,0,0.2,0c-0.1,0-0.1,0-0.2,0c-0.2,0-0.2-0.1,0.2,0c-0.1,0-0.1,0-0.2,0c-0.1,0-0.2-0.1-0.3-0.1c0.5,0.1,0.2,0.1,0.1,0
			c-0.1,0-0.1-0.1-0.2-0.1c-0.3-0.2-0.6-0.4-1-0.6c-0.3-0.2,0.3,0.2,0,0c-0.1-0.1-0.2-0.2-0.3-0.3c-0.2-0.2-0.4-0.4-0.6-0.5
			c-0.6-0.5-1.5-0.6-2.1,0C102.3,162.9,102.2,163.9,102.8,164.4L102.8,164.4z"/>
	</g>
</g>
<g>
	<g>
		<path class="st3" d="M111,118.7c-1.5,13.6-2,27.4-2.5,41.1c0,0.9-0.1,1.8-0.1,2.7c0,0.5-0.1,1.1,0.2,1.6c0.7,1.1,2.4,0.9,2.7-0.4
			c0,0,0,0,0,0c0.6-1.8-2.3-2.6-2.9-0.8c0,0,0,0,0,0c0.9-0.1,1.8-0.2,2.7-0.4c0.5,0.9,0.1,1,0.2,0.5c0-0.2,0-0.5,0-0.7
			c0-0.7,0-1.5,0.1-2.2c0.1-2.6,0.2-5.3,0.3-7.9c0.3-7.4,0.7-14.7,1.2-22.1c0.3-3.9,0.6-7.7,1-11.6
			C114.2,116.8,111.2,116.8,111,118.7L111,118.7z"/>
	</g>
</g>
<g>
	<g>
		<g>
			<path class="st3" d="M78.3,73.3c-0.2,0.3-0.3,0.7-0.1,1.1c0.2,0.4,0.8,0.5,1.1,0.2c0.3-0.2,0.6-0.7,0.6-1.1
				c0-0.5-0.4-0.7-0.9-0.8c-0.3,0-0.5,0-0.8,0.2c-0.2,0.2-0.3,0.4-0.3,0.7c0.1,0.3,0.5,0.4,0.7,0.1c0.2-0.4,0.3-0.9,0-1.2
				c-0.3-0.3-0.8-0.3-1.1,0.1c-0.3,0.3-0.4,0.9-0.2,1.3c0.2,0.3,0.6,0.5,1,0.5c0.5,0,0.9-0.3,1.1-0.7c0.1-0.1,0.1-0.3,0-0.4
				c-0.1-0.1-0.2-0.2-0.4-0.1c-0.3,0-0.6,0.2-0.8,0.5c-0.1,0.1,0,0.4,0.1,0.5c0.2,0.1,0.3,0.1,0.5,0c0.2-0.2,0.4-0.5,0.5-0.8
				c0-0.1,0.1-0.3,0.1-0.5c0-0.1,0-0.2,0-0.2c0,0,0-0.1,0-0.1c0,0,0,0,0,0c0,0,0-0.1,0,0c0,0.1,0,0.1-0.1,0.2c0,0-0.1,0.1,0,0
				c-0.1,0,0,0,0,0c0.1,0,0,0,0,0c0.1,0,0.2,0.1,0.3,0.1c0,0,0.1,0,0.1,0.1c0,0,0,0,0.1,0c0.1,0.1,0,0,0,0c0,0,0,0,0.1,0
				c0,0,0.1,0.1,0,0c0,0,0,0,0,0c0,0,0,0,0,0c0,0,0-0.1,0-0.1c0,0,0,0.1,0,0.1c0-0.1-0.1,0.1,0,0c-0.1,0.1-0.2,0.2-0.2,0.2
				c-0.1,0.1-0.1,0.1-0.2,0.1c0,0,0,0,0,0c-0.1,0,0,0,0,0c0,0,0,0,0,0c0,0,0,0.1,0,0c0,0.2,0,0.3,0.1,0.5c0,0,0.1-0.1,0,0
				c0,0,0,0,0,0c-0.1,0.1,0,0,0,0c0,0-0.1,0,0,0c0,0,0.1,0,0,0c0,0,0,0,0.1,0c0,0,0.1,0,0,0c0,0,0,0,0.1,0c0.1,0,0,0,0,0
				c0,0,0,0,0,0c0,0,0.1,0.1,0,0c0,0,0,0,0,0.1c0-0.1,0,0,0,0c0,0,0,0,0,0c0,0,0,0.1,0,0.1c0-0.1,0,0,0,0c0,0,0,0.1,0,0.1
				c0,0,0,0,0,0c0,0-0.1,0.1,0,0c0,0,0,0-0.1,0.1c0,0,0.1,0,0,0c0,0-0.1,0,0,0c0,0-0.1,0-0.1,0c0.1,0,0,0,0,0c0,0-0.1,0,0,0
				c0,0-0.1,0-0.1,0c0,0-0.1,0,0,0c0,0-0.1,0-0.1,0c0,0-0.1,0,0,0c0,0,0,0-0.1-0.1c0,0,0-0.1,0,0c0,0,0-0.1-0.1-0.1
				c-0.1-0.2-0.3-0.2-0.5-0.1c-0.2,0.1-0.2,0.3-0.1,0.5c0.2,0.4,0.6,0.6,1.1,0.6c0.4,0,0.8-0.4,0.9-0.8c0.1-0.4-0.1-0.9-0.6-1
				c-0.4-0.1-0.9,0-1.1,0.4c-0.1,0.2-0.1,0.3,0.1,0.5c0.2,0.2,0.4,0.2,0.6,0.2c0.3,0,0.5-0.1,0.7-0.3c0.3-0.3,0.7-0.7,0.5-1.2
				c-0.2-0.4-0.6-0.6-1-0.8c-0.2-0.1-0.5-0.1-0.7,0c-0.1,0.1-0.2,0.2-0.3,0.3c-0.1,0.1,0,0.3,0,0.4c0,0,0,0,0,0.1c0,0.1,0-0.1,0,0
				c0,0,0,0.1,0,0.1c0,0,0,0.1,0,0c0,0,0,0,0,0c0,0,0,0.1,0,0.1c0,0,0,0.1,0,0c0,0,0,0,0,0c0,0,0,0.1-0.1,0.1c0,0,0,0,0,0
				c0,0,0,0,0,0c0,0-0.1,0.1-0.1,0.1c0.2,0.2,0.4,0.3,0.6,0.5c0,0,0.1-0.1,0.1-0.1c0,0,0.1,0,0.1,0c0.1,0,0,0,0.1,0
				c0.1,0,0.1,0,0.2,0c-0.1-0.2-0.3-0.4-0.4-0.6c0,0.1-0.1,0.2-0.2,0.2c0,0-0.1,0-0.1,0.1c0,0,0,0,0,0c0,0,0,0,0,0c0,0-0.1,0-0.1,0
				c0,0-0.1,0-0.1,0c0,0-0.1,0-0.1,0c0,0-0.1,0-0.1,0c0,0,0,0-0.1,0c-0.1,0,0,0,0,0c0,0-0.1,0-0.1,0c0.1,0,0,0,0,0c0,0,0,0,0,0
				c0,0,0,0.1,0,0c0,0,0-0.1,0-0.2c0,0,0-0.1,0-0.1c0,0,0-0.1,0,0c0-0.1,0-0.1,0.1-0.1c-0.1,0,0,0,0,0c0,0,0,0,0,0c0,0,0,0,0,0
				c0,0,0,0,0,0c0,0,0,0,0,0c0,0,0,0,0,0c0,0,0,0,0,0c0,0,0,0,0,0c0,0,0,0,0,0c0,0,0,0,0,0c0,0.1-0.1,0.2-0.1,0.3
				c0.2,0,0.5,0.1,0.7,0.1c0,0,0,0,0,0.1c0,0-0.1,0.1,0,0c0,0,0,0,0,0c-0.1,0,0,0,0,0c0,0,0.1,0,0.1,0c0.1,0,0.2,0,0.2,0.1
				c0,0,0.1,0,0.1,0c0,0,0,0,0,0c0,0,0,0,0,0c0,0,0-0.1,0,0c0,0.1,0,0.2-0.1,0.3c-0.1,0.1-0.1,0.1-0.2,0.2c0,0,0,0,0,0c0,0,0,0,0,0
				c0,0,0,0,0,0c0,0,0,0,0,0c0.1,0,0,0,0,0c0,0,0,0,0,0c0,0,0,0,0,0c0,0,0,0.1,0,0c0,0,0,0,0-0.1c0,0.1,0,0,0,0c0,0,0-0.1,0-0.1
				c0,0,0,0,0-0.1c0,0.1,0,0,0,0c0.1-0.2,0-0.4-0.1-0.5C78.7,73.1,78.4,73.1,78.3,73.3L78.3,73.3z"/>
		</g>
	</g>
	<g>
		<g>
			<path class="st3" d="M78.6,72.9C78.6,72.9,78.6,72.8,78.6,72.9C78.6,72.8,78.5,72.9,78.6,72.9c0-0.1,0-0.1,0-0.2
				C78.6,72.7,78.6,72.8,78.6,72.9c0-0.2,0.1-0.2,0.1-0.3c0,0,0,0.1-0.1,0.1c0-0.1,0.1-0.1,0.1-0.1c0,0-0.1,0-0.1,0.1
				c0.1,0,0.1-0.1,0.2-0.1c0,0-0.1,0-0.1,0c0.1,0,0.1,0,0.2,0c0,0-0.1,0-0.1,0c0.1,0,0.1,0,0.2,0c0,0-0.1,0-0.1,0
				c0.1,0,0.1,0,0.2,0.1c0,0-0.1,0-0.1,0c0,0,0,0,0.1,0c0.2,0.1,0.4,0,0.5-0.1c0.1-0.2,0.1-0.4-0.1-0.5c-0.4-0.2-0.8-0.2-1.1,0
				c-0.3,0.2-0.5,0.6-0.5,1c0,0.2,0.2,0.4,0.4,0.4C78.4,73.3,78.5,73.1,78.6,72.9L78.6,72.9z"/>
		</g>
	</g>
	<g>
		<g>
			<path class="st3" d="M78,73.3c-0.1,0.1-0.1,0.2-0.2,0.3c0,0.1,0,0.2,0,0.3c0,0.2,0,0.4,0.1,0.5c0.1,0.2,0.3,0.3,0.5,0.4
				c0.2,0.1,0.4,0.1,0.6,0c0.2,0,0.4-0.1,0.6-0.2c0.2-0.1,0.2-0.3,0.1-0.5c-0.1-0.2-0.3-0.2-0.5-0.1C79.2,74,79.1,74,79,74
				c0,0,0.1,0,0.1,0c-0.1,0-0.2,0.1-0.3,0.1c0,0,0.1,0,0.1,0c-0.1,0-0.1,0-0.2,0c0,0,0.1,0,0.1,0c-0.1,0-0.1,0-0.2,0
				c0,0,0.1,0,0.1,0c0,0-0.1,0-0.1-0.1c0,0,0.1,0,0.1,0.1c0,0-0.1-0.1-0.1-0.1c0,0,0,0.1,0.1,0.1c0,0-0.1-0.1-0.1-0.1
				c0,0,0,0.1,0,0.1c0,0,0-0.1,0-0.2c0,0,0,0.1,0,0.1c0-0.1,0-0.1,0-0.2c0,0,0,0.1,0,0.1c0,0,0-0.1,0-0.1c0,0,0,0.1,0,0.1
				c0,0,0-0.1,0.1-0.1c0,0,0,0.1-0.1,0.1c0,0,0,0,0,0c0.1-0.1,0.1-0.2,0.1-0.3c0-0.1,0-0.2-0.1-0.3c-0.1-0.1-0.2-0.1-0.3-0.1
				C78.2,73.2,78.1,73.2,78,73.3L78,73.3z"/>
		</g>
	</g>
	<g>
		<g>
			<path class="st3" d="M79.7,73.2c0.1-0.1,0.1-0.2,0.2-0.3c0,0,0-0.1,0-0.1c0,0,0-0.1,0-0.1c0,0,0-0.1-0.1-0.1c0,0-0.1-0.1-0.1-0.1
				c0,0-0.1,0-0.1,0c-0.1,0-0.1,0-0.2,0c0,0-0.1,0-0.1,0c-0.1,0-0.1,0.1-0.1,0.1c-0.1,0.1-0.1,0.2-0.2,0.3c0,0,0,0.1,0,0.1
				c0,0,0,0.1,0,0.1c0,0,0,0.1,0.1,0.1c0,0,0.1,0.1,0.1,0.1c0,0,0.1,0,0.1,0c0.1,0,0.1,0,0.2,0c0,0,0.1,0,0.1,0
				C79.7,73.3,79.7,73.3,79.7,73.2L79.7,73.2z"/>
		</g>
	</g>
</g>
<g>
	<g>
		<g>
			<path class="st3" d="M108.2,73.2c-0.2-0.2-0.4-0.3-0.7-0.3c-0.2,0.1-0.4,0.3-0.5,0.5c-0.1,0.2-0.2,0.5,0,0.7
				c0.1,0.2,0.4,0.3,0.6,0.3c0.6,0,0.8-0.6,0.8-1.1c0-0.4-0.1-0.9-0.6-1c0.1,0.2,0.1,0.5,0.2,0.7c0.1-0.1,0.3-0.2,0.5-0.3
				c0,0,0.1-0.1,0.1,0c0,0,0.1,0,0.1,0c0,0,0.1,0,0.1,0c0,0,0.1,0,0.1,0c0,0,0.1,0,0.1,0c0,0,0,0,0,0c0,0,0,0,0,0c0,0,0,0,0,0
				c0,0,0,0,0,0c0,0,0,0,0,0c0,0,0,0,0,0c0.1,0.1,0-0.1,0,0.1c0,0.1,0,0.1,0.1,0.2c0,0.1,0,0.1,0,0.2c0,0,0,0,0,0c0,0,0,0,0,0
				c0,0,0,0,0,0c0,0,0,0,0,0c0,0,0,0,0,0c0,0,0,0,0,0c0,0,0,0,0,0c0,0-0.1,0,0,0c0,0-0.1,0-0.1,0c0,0,0,0,0,0c0,0,0,0,0,0
				c-0.1,0,0,0,0,0c-0.1-0.1,0,0,0,0c0,0-0.1-0.1,0,0c0,0,0,0,0-0.1c0-0.1,0,0,0,0c0,0,0-0.1,0,0c-0.2,0-0.5,0.1-0.7,0.1
				c0,0.2,0.1,0.5,0.1,0.7c0,0.2,0.1,0.4,0.3,0.6c0.3,0.3,1,0.3,1.1-0.2c0-0.2-0.1-0.5-0.4-0.5c-0.4,0-1.1,0.1-1.2,0.5
				c-0.1,0.3,0.1,0.5,0.3,0.7c0.2,0.1,0.4,0.1,0.6,0.1c0.4,0,0.8-0.2,1-0.6c0.1-0.4-0.1-0.9-0.5-1.1c-0.2-0.1-0.4-0.2-0.6-0.2
				C108.5,73.2,108.4,73.2,108.2,73.2c-0.1,0-0.1,0.1-0.3,0.2C108,73.3,108,73.3,108.2,73.2c-0.1,0.1-0.1,0.1,0,0.1
				c0.1,0,0.1,0.1,0.2,0.1c0,0.1,0,0.2,0,0.3c0,0,0,0,0,0c0,0,0.1-0.1,0.1-0.1c0-0.1,0-0.2,0-0.3c0-0.2-0.1-0.3-0.3-0.4
				c-0.1-0.1-0.3-0.1-0.4-0.1c-0.2,0-0.3,0.1-0.4,0c0.1,0.2,0.2,0.3,0.4,0.5c0-0.2,0.1-0.3,0.1-0.5c0-0.1,0.1-0.2,0.2-0.3
				c0,0,0.1,0,0.1,0c0,0,0,0,0.1,0c-0.1,0,0,0,0.1,0c0,0,0,0,0,0c0,0,0,0,0,0c0,0,0,0,0,0c0,0,0.1,0,0.1,0.1c0,0,0.1,0.1,0.1,0.1
				c0,0,0.1,0.1,0.1,0.1c0.1,0.1,0.4,0.1,0.5,0c0.1-0.1,0.1-0.4,0-0.5c-0.2-0.2-0.4-0.3-0.6-0.4c-0.3-0.1-0.5-0.1-0.8,0.1
				c-0.4,0.2-0.6,0.7-0.7,1.2c-0.1,0.3,0.1,0.4,0.4,0.5c0.1,0,0.3,0,0.4,0c0,0,0.1,0,0.1,0c0,0,0,0,0,0c0,0,0,0,0,0
				c0-0.1-0.1-0.1,0-0.2c0,0,0,0,0,0c0,0.1-0.1,0.2-0.1,0.3c0,0.1,0,0.3,0.1,0.4c0.1,0.1,0.3,0.2,0.5,0.1c0,0,0,0,0.1,0c0,0,0,0,0,0
				c0,0,0,0,0,0c0,0,0.1,0,0,0c0.2,0,0.4,0.1,0.5,0.1c0,0,0,0,0.1,0c0,0,0,0,0,0c0,0,0,0,0,0c0,0,0,0,0,0.1c0,0,0,0,0,0c0,0,0,0,0,0
				c0-0.1,0,0.1,0,0c0,0,0,0,0,0c0,0,0,0,0,0c0,0,0,0,0,0c0,0,0,0-0.1,0c0.1,0,0,0,0,0c0,0-0.2,0-0.1,0c-0.1,0-0.2,0-0.3,0
				c0,0-0.1,0,0,0c0,0-0.1,0,0,0c0,0.1,0.1,0,0.1,0.2c-0.1,0.1-0.1,0.1-0.1,0.1c0,0,0,0,0,0c0.1,0,0.1,0,0.2-0.1c0.1,0,0.2,0,0.3,0
				c-0.1-0.2-0.2-0.3-0.4-0.5c0,0.1,0-0.1,0.1-0.1c0,0,0,0,0.1,0c0,0,0,0,0,0c-0.1,0,0.1,0,0,0c-0.1,0,0.1,0,0,0c0,0,0,0,0,0
				c0,0,0,0,0,0c0,0,0,0,0-0.1c0,0,0,0,0,0c-0.1-0.3-0.1-0.5-0.2-0.8c-0.1-0.4-0.8-0.3-0.7,0.1c0,0.5,0.4,1,1,1c0.6,0,1-0.4,1-1
				c0-0.5-0.2-1.1-0.8-1.2c-0.5-0.1-1,0.2-1.4,0.4c-0.3,0.2-0.2,0.7,0.2,0.7c-0.1,0-0.1,0-0.1-0.1c0,0,0,0,0,0c0,0,0,0,0,0
				c0,0,0,0,0,0.1c0,0,0,0,0,0c0,0,0,0.1,0,0.1c0,0.1,0,0.2,0,0.3c0,0.1,0,0,0,0.1c0,0,0,0,0,0c0,0,0,0,0,0c-0.1,0,0,0,0,0
				c0,0,0,0,0.1,0c0,0,0,0,0,0c0,0,0,0,0,0c0,0,0,0,0,0c0,0,0,0.1,0,0.1c0,0,0,0,0,0c0,0,0,0,0-0.1c0-0.1,0-0.1,0.1-0.1c0,0,0,0,0,0
				c-0.1,0-0.1,0-0.2-0.1c0.1,0.2,0.3,0.2,0.5,0.1C108.2,73.6,108.3,73.3,108.2,73.2L108.2,73.2z"/>
		</g>
	</g>
	<g>
		<g>
			<path class="st3" d="M107.9,73c0.1-0.1,0.2-0.1,0.4-0.2c0,0,0.1,0,0.1,0c-0.1,0,0,0,0,0c0.1,0,0.1,0,0.2-0.1c0,0,0.1,0,0.1,0
				c-0.1,0,0,0,0,0c0,0,0.2,0,0.2,0c0,0-0.1,0,0,0c0,0,0,0,0.1,0c0,0,0,0,0,0c0,0,0,0,0,0c0,0,0.1,0,0.1,0c0,0,0,0,0.1,0
				c0,0-0.1,0,0,0c0,0,0,0,0,0c0,0,0.1,0.1,0,0c0,0,0,0,0,0.1c0,0.1,0,0,0,0c0,0,0,0.1,0,0.1c0,0,0-0.1,0,0c0,0,0,0,0,0.1
				c0-0.1,0-0.1,0,0c0,0,0,0,0,0c0,0,0,0,0,0.1c0-0.1,0-0.1,0,0c0,0,0,0,0,0.1c0,0,0-0.1,0,0c0,0,0,0,0,0c0,0,0.1,0,0,0c0,0,0,0,0,0
				c0,0,0,0,0,0c0,0-0.1,0-0.1,0c-0.1,0-0.2,0.1-0.2,0.2c0,0.1-0.1,0.2,0,0.3c0.1,0.2,0.3,0.3,0.5,0.3c0.2,0,0.5-0.2,0.6-0.4
				c0.1-0.3,0.1-0.6,0-0.8c-0.2-0.5-0.9-0.7-1.4-0.6c-0.3,0.1-0.6,0.2-0.9,0.4c-0.2,0.1-0.2,0.3-0.1,0.5
				C107.5,73.1,107.7,73.1,107.9,73L107.9,73z"/>
		</g>
	</g>
</g>
<g>
	<g>
		<path class="st3" d="M86.3,79.5c0.5,1.1,0.9,2.2,1.4,3.3c0.4,0.8,1,1.6,1.9,1.8c2.2,0.7,3.7-1.8,4.9-3.2c-0.4,0-0.7,0-1.1,0
			c1.2,1.5,2.7,4.2,5,3.8c2.3-0.4,3.3-3.3,4.2-5.1c0.5-0.9-0.8-1.6-1.3-0.8c-0.5,0.8-0.9,1.7-1.4,2.5c-0.4,0.7-0.9,1.6-1.8,1.8
			c-0.8,0.2-1.5-0.5-2-1.1c-0.6-0.7-1.2-1.5-1.8-2.3c-0.2-0.3-0.8-0.3-1.1,0c-0.7,0.9-2.2,3.6-3.6,2.7c-0.6-0.3-0.9-1.1-1.2-1.7
			c-0.4-0.9-0.7-1.8-1.1-2.6C87.2,77.8,85.9,78.6,86.3,79.5L86.3,79.5z"/>
	</g>
</g>
<g>
	<g>
		<g>
			<path class="st3" d="M106.4,80.2c3.6-0.9,7.3-1.4,11-1.4c1,0,1-1.5,0-1.5c-3.8,0-7.7,0.5-11.4,1.5
				C105.1,79,105.5,80.4,106.4,80.2L106.4,80.2z"/>
		</g>
	</g>
	<g>
		<g>
			<path class="st3" d="M107.9,83.2c2.8,0.3,5.7,0.5,8.5,0.8c0.4,0,0.8-0.4,0.8-0.8c0-0.4-0.3-0.7-0.8-0.8c-2.8-0.3-5.7-0.5-8.5-0.8
				c-0.4,0-0.8,0.4-0.8,0.8C107.1,82.8,107.5,83.1,107.9,83.2L107.9,83.2z"/>
		</g>
	</g>
</g>
<g>
	<g>
		<g>
			<path class="st3" d="M84.9,78.4c-4-1.4-8.1-2.3-12.3-2.8c0,0.5,0,1,0,1.5c0.1,0,0.3,0,0.4,0c1,0.1,1-1.4,0-1.5
				c-0.1,0-0.3,0-0.4,0c-1-0.1-0.9,1.4,0,1.5c4,0.4,8,1.4,11.9,2.7C85.4,80.1,85.8,78.7,84.9,78.4L84.9,78.4z"/>
		</g>
	</g>
	<g>
		<g>
			<path class="st3" d="M83.3,81.5c-2.4,0.2-4.8,0.3-7.3,0.5c-0.4,0-0.8,0.3-0.8,0.8c0,0.4,0.3,0.8,0.8,0.8c2.4-0.2,4.8-0.3,7.3-0.5
				c0.4,0,0.8-0.3,0.8-0.8C84.1,81.9,83.7,81.5,83.3,81.5L83.3,81.5z"/>
		</g>
	</g>
</g>
<g>
	<g>
		<path class="st3" d="M95.1,113.6c0.9,1.7,1.7,3.3,2.6,5c0.5,0.9,1.1,1.6,2.1,2c0.8,0.3,1.6,0.3,2.4,0c1.8-0.5,2.8-2,3.4-3.7
			c0.2-0.7,0.4-1.5,0.5-2.3c0.2-0.9,0.4-1.5,0.7-2.1c0.4-0.7,0.2-1.7-0.5-2.1c-0.7-0.4-1.6-0.2-2.1,0.5c-0.8,1.3-1,2.8-1.3,4.2
			c-0.1,0.3-0.2,0.7-0.3,1c0,0.1-0.1,0.2-0.1,0.3c-0.1,0.2-0.1,0.2,0,0.1c0-0.1,0-0.1,0,0.1c0,0.1-0.1,0.2-0.1,0.3
			c-0.1,0.1-0.1,0.2-0.2,0.4c0.2-0.2-0.2,0.2-0.2,0.2c-0.2,0.2,0.2-0.1-0.1,0.1c0,0-0.4,0.2-0.3,0.2c0.2-0.1-0.3,0.1-0.3,0.1
			c-0.3,0.1,0.3,0-0.1,0c-0.1,0-0.2,0-0.2,0c0.2,0,0.2,0,0.1,0c-0.1,0-0.4-0.2-0.2,0c-0.1,0-0.3-0.2-0.1-0.1c-0.1-0.1-0.1-0.1,0,0
			c-0.1-0.1-0.1-0.2-0.2-0.2c-0.2-0.3-0.3-0.6-0.5-0.9c-0.8-1.5-1.6-3-2.3-4.4c-0.4-0.7-1.4-1-2.1-0.5
			C94.9,112,94.7,112.8,95.1,113.6L95.1,113.6z"/>
	</g>
</g>
<g>
	<g>
		<path class="st3" d="M117.6,112.4c-0.8,1.5-1.5,2.9-2.3,4.4c-0.2,0.3-0.3,0.7-0.5,1c-0.1,0.1-0.1,0.2-0.2,0.2c0.1-0.1,0.1-0.1,0,0
			c-0.1,0.1-0.1,0.1,0,0c-0.1,0-0.1,0.1-0.2,0.1c0.3-0.2,0,0-0.1,0c-0.2,0-0.2,0,0,0c-0.1,0-0.2,0-0.2,0c-0.3,0,0.2,0.1-0.1,0
			c0,0-0.5-0.2-0.3-0.1c0.2,0.1-0.2-0.1-0.3-0.2c-0.3-0.2,0.1,0.2-0.1-0.1c-0.1-0.1-0.1-0.1-0.2-0.2c-0.1-0.1-0.1-0.1-0.1-0.1
			c0.1,0.1,0,0,0-0.1c-0.1-0.1-0.1-0.2-0.1-0.2c-0.1-0.1-0.1-0.3-0.2-0.4c0.1,0.2-0.1-0.3-0.1-0.3c-0.1-0.3-0.2-0.6-0.3-0.9
			c-0.3-1.5-0.5-3-1.3-4.3c-0.4-0.7-1.4-1-2.1-0.5c-0.7,0.4-1,1.3-0.5,2.1c0.4,0.6,0.6,1.3,0.7,2.1c0.2,0.7,0.3,1.5,0.5,2.2
			c0.5,1.7,1.6,3.2,3.4,3.8c0.8,0.2,1.7,0.2,2.4,0c0.9-0.4,1.6-1.1,2-1.9c0.9-1.7,1.8-3.4,2.7-5c0.4-0.7,0.2-1.7-0.5-2.1
			C118.9,111.5,118,111.6,117.6,112.4L117.6,112.4z"/>
	</g>
</g>
<g>
	<g>
		<path class="st3" d="M86,152.6c-1.1,1.2-2.1,2.4-3.2,3.6c-0.2,0.3-0.5,0.6-0.8,0.8c0,0-0.5,0.4-0.2,0.2c-0.1,0.1-0.4,0.2-0.1,0.1
			c-0.1,0-0.1,0-0.2,0.1c0.2,0,0.2,0,0.1,0c-0.4-0.1,0.2,0.1-0.1,0c0,0-0.5-0.2-0.3-0.1c0.2,0.1-0.2-0.1-0.2-0.2
			c-0.3-0.2,0.1,0.1-0.1-0.1c-0.1-0.1-0.4-0.4-0.2-0.2c-0.1-0.1-0.1-0.2-0.2-0.3c-0.1-0.2-0.1-0.2,0,0c0-0.1-0.1-0.2-0.1-0.3
			c0-0.1-0.1-0.3-0.1-0.4c0-0.1,0-0.2-0.1-0.3c0,0.2,0,0.1,0,0c0-0.3,0-0.7,0-1c0-1.5,0.2-3.1-0.3-4.6c-0.2-0.7-1.1-1.3-1.8-1
			c-0.7,0.2-1.3,1-1,1.8c0.1,0.2,0.1,0.4,0.2,0.6c0,0.2,0,0.2,0,0.1c0,0.1,0,0.2,0,0.3c0,0.4,0,0.8,0,1.3c0,0.8-0.1,1.6,0,2.4
			c0.1,1.8,0.8,3.6,2.4,4.5c0.8,0.4,1.7,0.6,2.6,0.4c0.9-0.2,1.6-0.8,2.2-1.5c1.2-1.4,2.4-2.7,3.6-4.1c0.5-0.6,0.6-1.6,0-2.1
			C87.6,152.1,86.6,152,86,152.6L86,152.6z"/>
	</g>
</g>
<g>
	<g>
		<path class="st3" d="M126.9,154.7c1.4,1,2.9,2,4.3,3.1c0.7,0.5,1.5,1,2.4,1c0.9,0,1.7-0.3,2.4-0.8c1.5-1.2,1.9-3.1,1.6-4.9
			c-0.1-0.9-0.4-1.7-0.6-2.5c-0.2-0.9-0.4-1.4-0.3-2.3c0.1-0.8-0.7-1.5-1.5-1.5c-0.9,0-1.4,0.7-1.5,1.5c-0.1,1.5,0.4,3,0.7,4.4
			c0.1,0.2,0.1,0.4,0.1,0.7c0,0.1,0,0.1,0,0.2c0-0.1,0-0.1,0,0.1c0,0.3,0,0.7,0,1c0-0.1,0-0.1,0,0.1c0,0.1-0.1,0.2-0.1,0.3
			c-0.1,0.3,0.1-0.1,0,0.1c-0.1,0.1-0.1,0.2-0.2,0.3c0.2-0.3-0.1,0.1-0.2,0.1c-0.1,0.1-0.1,0.1,0.1,0c-0.1,0.1-0.1,0.1-0.2,0.1
			c-0.2,0.2,0.2,0-0.1,0.1c-0.1,0-0.4,0-0.1,0c-0.1,0-0.2,0-0.3,0c0.2,0,0.2,0,0.1,0c-0.1,0-0.1,0-0.2-0.1c0.1,0.1,0.1,0,0,0
			c-0.1-0.1-0.2-0.2-0.4-0.2c-0.3-0.2-0.6-0.4-0.9-0.6c-1.3-0.9-2.5-1.8-3.8-2.7c-0.6-0.5-1.7-0.1-2.1,0.5
			C125.9,153.5,126.2,154.3,126.9,154.7L126.9,154.7z"/>
	</g>
</g>
<g>
	<g>
		<path class="st3" d="M21.4,58.6c-0.1,2.9-0.3,5.8-0.6,8.7c-0.1,0.5,0.7,0.5,0.8,0c0.3-2.9,0.5-5.8,0.6-8.7
			C22.2,58.1,21.4,58.1,21.4,58.6L21.4,58.6z"/>
	</g>
</g>
<g>
	<g>
		<path class="st3" d="M23.9,59.8c0.2,2.6,0.2,5.2,0.1,7.7c0,0.5,0.7,0.5,0.8,0c0.1-2.6,0.1-5.2-0.1-7.7
			C24.7,59.4,23.9,59.4,23.9,59.8L23.9,59.8z"/>
	</g>
</g>
<g>
	<g>
		<path class="st3" d="M25.3,60.2c0.2,2.9,0.2,5.8,0.1,8.7c0,0.5,0.7,0.5,0.8,0c0.1-2.9,0.1-5.8-0.1-8.7
			C26,59.7,25.2,59.7,25.3,60.2L25.3,60.2z"/>
	</g>
</g>
<g>
	<g>
		<path class="st3" d="M28.8,65.6c0.1,1.3,0.1,2.6,0.2,3.9c0,0.5,0.8,0.5,0.8,0c-0.1-1.3-0.1-2.6-0.2-3.9
			C29.6,65.2,28.8,65.2,28.8,65.6L28.8,65.6z"/>
	</g>
</g>
<g>
	<g>
		<path class="st3" d="M31,66.3c0,0.7,0,1.3,0.1,2c0,0.3,0,0.6,0,1c0,0.3,0,0.5,0.1,0.8c0.1,0.2,0.3,0.4,0.6,0.4
			c0.2,0,0.4-0.2,0.5-0.4c0-0.2,0-0.4-0.2-0.6c-0.2-0.2-0.5-0.1-0.7,0.1c-0.3,0.4,0.4,0.8,0.6,0.4C32.1,70,32,70,32,70.1
			c-0.1,0-0.1,0-0.2,0c-0.1,0-0.1-0.1-0.2-0.1c0-0.1,0-0.1,0,0c0-0.1,0-0.1,0,0c0-0.1,0-0.1,0.1-0.2c0.1-0.1,0.2-0.1,0.2-0.1
			c0,0,0,0,0,0c0,0,0-0.1,0-0.1c-0.1-0.3,0-0.7,0-1c0-0.8-0.1-1.5-0.1-2.3C31.8,65.8,31,65.8,31,66.3L31,66.3z"/>
	</g>
</g>
<g>
	<g>
		<path class="st3" d="M33.1,66.5c-0.1,1-0.1,2.1,0.3,3.1c0.1,0.2,0.3,0.3,0.5,0.3c0.2-0.1,0.3-0.3,0.3-0.5
			c-0.3-0.9-0.4-1.8-0.3-2.7c0-0.2,0-0.4-0.3-0.5C33.4,66.2,33.1,66.3,33.1,66.5L33.1,66.5z"/>
	</g>
</g>
<g>
	<g>
		<path class="st3" d="M35.7,66.9c-0.1,1.2-0.3,2.4-0.4,3.6c0,0.1,0.1,0.3,0.2,0.3c0.6,0.4,1.2-0.5,0.8-1c-0.3-0.3-0.9,0.2-0.5,0.5
			c-0.1-0.1-0.1-0.1,0-0.2c0,0,0,0,0,0c0,0,0.1,0,0.1,0c0.1,0,0.1,0,0.1,0c0.1,0.1,0.1,0.2,0.2,0.3c0.1-1.2,0.3-2.4,0.4-3.6
			c0-0.2-0.2-0.4-0.4-0.4C35.9,66.6,35.8,66.7,35.7,66.9L35.7,66.9z"/>
	</g>
</g>
<g>
	<g>
		<path class="st3" d="M37.6,66.9c0,1,0,2,0,3c0,0.2-0.1,0.6,0.1,0.8c0.1,0.2,0.4,0.2,0.6,0.2c0.4-0.1,0.6-0.7,0.3-1
			c-0.1-0.2-0.4-0.1-0.5,0c-0.2,0.2-0.1,0.4,0,0.5c0,0,0-0.1,0-0.2c0,0,0-0.1,0,0c0,0,0,0,0,0c0,0,0.2,0.1,0.1,0
			c0.1,0.1,0.1,0.2,0.2,0.3c0-1.2,0-2.4,0-3.6C38.3,66.4,37.6,66.4,37.6,66.9L37.6,66.9z"/>
	</g>
</g>
<g>
	<g>
		<path class="st3" d="M39.9,67.2c0,1.5-0.1,3.1-0.4,4.6c-0.1,0.4,0.5,0.7,0.7,0.3c0.1-0.3,0.3-0.6,0.4-0.8c0.1-0.2,0.1-0.4-0.1-0.5
			c-0.2-0.1-0.4,0-0.5,0.1c-0.1,0.3-0.3,0.6-0.4,0.8c0.2,0.1,0.5,0.2,0.7,0.3c0.3-1.6,0.5-3.2,0.5-4.8
			C40.6,66.8,39.9,66.8,39.9,67.2L39.9,67.2z"/>
	</g>
</g>
<g>
	<g>
		<path class="st3" d="M41.2,67.3c0.3,1.2,0.4,2.5,0.2,3.7c0,0.2,0,0.4,0.3,0.5c0.2,0,0.4-0.1,0.5-0.3c0.2-1.4,0.1-2.7-0.2-4.1
			C41.8,66.6,41.1,66.8,41.2,67.3L41.2,67.3z"/>
	</g>
</g>
<g>
	<g>
		<path class="st3" d="M44,68.9c-0.1,1.4-0.3,2.8-0.4,4.2c0,0.2,0.2,0.4,0.4,0.4c0.2,0,0.4-0.2,0.4-0.4c0.1-1.4,0.3-2.8,0.4-4.2
			c0-0.2-0.2-0.4-0.4-0.4C44.2,68.5,44.1,68.7,44,68.9L44,68.9z"/>
	</g>
</g>
<g>
	<g>
		<path class="st3" d="M45.9,68.7c0,2,0,4,0,5.9c0,0.5,0.8,0.5,0.8,0c0-2,0-4,0-5.9C46.7,68.2,45.9,68.2,45.9,68.7L45.9,68.7z"/>
	</g>
</g>
<g>
	<g>
		<path class="st3" d="M48.8,69.8c0,1.8,0,3.6,0,5.5c0,0.5,0.8,0.5,0.8,0c0-1.8,0-3.6,0-5.5C49.6,69.3,48.8,69.3,48.8,69.8
			L48.8,69.8z"/>
	</g>
</g>
<g>
	<g>
		<path class="st3" d="M51.4,69.5c0,1.6,0,3.2,0,4.8c0,0.5,0.8,0.5,0.8,0c0-1.6,0-3.2,0-4.8C52.1,69,51.4,69,51.4,69.5L51.4,69.5z"
			/>
	</g>
</g>
<g>
	<g>
		<path class="st3" d="M53.4,69.2c-0.1,1.8-0.2,3.6-0.4,5.5c0,0.5,0.7,0.5,0.8,0c0.1-1.8,0.2-3.6,0.4-5.5
			C54.2,68.7,53.5,68.7,53.4,69.2L53.4,69.2z"/>
	</g>
</g>
<g>
	<g>
		<path class="st3" d="M55.7,68.8c0.3,2,0.3,4.1,0.2,6.1c0,0.5,0.7,0.5,0.8,0c0.2-2,0.1-4.1-0.2-6.1C56.4,68.4,55.7,68.4,55.7,68.8
			L55.7,68.8z"/>
	</g>
</g>
<g>
	<g>
		<path class="st3" d="M58.6,68.5c0,1.9,0,3.9-0.2,5.8c-0.1,0.5,0.7,0.5,0.8,0c0.2-1.9,0.3-3.9,0.2-5.8C59.4,68,58.6,68,58.6,68.5
			L58.6,68.5z"/>
	</g>
</g>
<g>
	<g>
		<path class="st3" d="M60.2,68.5c0.2,1.7,0.3,3.4,0.1,5.2c0,0.5,0.7,0.5,0.8,0c0.1-1.7,0.1-3.4-0.1-5.2c0-0.2-0.2-0.4-0.4-0.4
			C60.4,68.1,60.2,68.3,60.2,68.5L60.2,68.5z"/>
	</g>
</g>
<g>
	<g>
		<path class="st3" d="M62.9,68.6c-0.2,1.8-1.1,3.5-1.2,5.3c0,0.5,0.7,0.5,0.8,0c0.2-1.8,1.1-3.5,1.2-5.3
			C63.7,68.2,63,68.2,62.9,68.6L62.9,68.6z"/>
	</g>
</g>
<g>
	<g>
		<path class="st3" d="M28.3,59.5c0,1.2,0,2.4,0,3.5c0,0.5,0.8,0.5,0.8,0c0-1.2,0-2.4,0-3.5C29,59,28.3,59,28.3,59.5L28.3,59.5z"/>
	</g>
</g>
<g>
	<g>
		<path class="st3" d="M33.8,59.4c-0.1,0.9-0.1,1.8-0.2,2.7c0,0.2,0.2,0.4,0.4,0.4c0.2,0,0.4-0.2,0.4-0.4c0.1-0.9,0.1-1.8,0.2-2.7
			c0-0.2-0.2-0.4-0.4-0.4C33.9,59,33.8,59.2,33.8,59.4L33.8,59.4z"/>
	</g>
</g>
<g>
	<g>
		<path class="st3" d="M35.5,59.4c0,0.9-0.1,1.8-0.1,2.7c0,0.2,0.2,0.4,0.4,0.4c0.2,0,0.4-0.2,0.4-0.4c0-0.9,0.1-1.8,0.1-2.7
			c0-0.2-0.2-0.4-0.4-0.4C35.7,59.1,35.5,59.2,35.5,59.4L35.5,59.4z"/>
	</g>
</g>
<g>
	<g>
		<path class="st3" d="M37.3,59.1c-0.1,1.1-0.1,2.2-0.2,3.2c0,0.2,0.2,0.4,0.4,0.4c0.2,0,0.4-0.2,0.4-0.4c0-0.1,0-0.2,0-0.3
			c0-0.2-0.2-0.4-0.4-0.4c-0.2,0-0.4,0.2-0.4,0.4c0,0.1,0,0.2,0,0.3c0.2,0,0.5,0,0.8,0c0.1-1.1,0.1-2.2,0.2-3.2
			c0-0.2-0.2-0.4-0.4-0.4C37.4,58.8,37.3,58.9,37.3,59.1L37.3,59.1z"/>
	</g>
</g>
<g>
	<g>
		<path class="st3" d="M38.8,59c0,1.2-0.1,2.4-0.1,3.6c0,0.4,0.6,0.5,0.7,0.1c0-0.1,0.1-0.3,0.1-0.4c0.1-0.5-0.6-0.7-0.7-0.2
			c0,0.1-0.1,0.3-0.1,0.4c0.2,0,0.5,0.1,0.7,0.1c0-1.2,0.1-2.4,0.1-3.6C39.6,58.5,38.8,58.5,38.8,59L38.8,59z"/>
	</g>
</g>
<g>
	<g>
		<path class="st3" d="M40.3,59c-0.1,1.2-0.1,2.4-0.2,3.6c0,0.4,0.6,0.5,0.7,0.1c0-0.1,0.1-0.3,0.1-0.4c0.1-0.5-0.6-0.7-0.7-0.2
			c0,0.1-0.1,0.3-0.1,0.4c0.2,0,0.5,0.1,0.7,0.1c0.1-1.2,0.1-2.4,0.2-3.6C41.1,58.6,40.3,58.6,40.3,59L40.3,59z"/>
	</g>
</g>
<g>
	<g>
		<path class="st3" d="M41.7,59.2c-0.1,1.3-0.1,2.6-0.1,3.8c0,0.5,0.7,0.5,0.8,0c0-0.1,0-0.1,0-0.2c0-0.2-0.2-0.4-0.4-0.4
			c-0.2,0-0.4,0.2-0.4,0.4c0,0.1,0,0.1,0,0.2c0.2,0,0.5,0,0.8,0c-0.1-1.3-0.1-2.6,0.1-3.8c0-0.2-0.2-0.4-0.4-0.4
			C41.8,58.8,41.7,59,41.7,59.2L41.7,59.2z"/>
	</g>
</g>
<g>
	<g>
		<path class="st3" d="M43.6,59c-0.1,1.3-0.1,2.5-0.2,3.8c0,0.4,0.5,0.5,0.7,0.2c0-0.1,0.1-0.2,0.1-0.3c0.1-0.2,0.1-0.4-0.1-0.5
			c-0.2-0.1-0.4-0.1-0.5,0.1c0,0.1-0.1,0.2-0.1,0.3c0.2,0.1,0.5,0.1,0.7,0.2c0.1-1.3,0.1-2.5,0.2-3.8C44.3,58.6,43.6,58.6,43.6,59
			L43.6,59z"/>
	</g>
</g>
<g>
	<g>
		<path class="st3" d="M44.8,59.5c0,0.6-0.1,1.3-0.1,1.9c0,0.3,0,0.6-0.1,0.9c0,0.1,0,0.3,0,0.4c0,0.1,0,0.1,0.1,0.2
			c0,0,0.2,0.2,0.1,0.1c0-0.1-0.1-0.1-0.1-0.2c0,0,0-0.1,0,0c0,0,0,0.1,0,0.1c0,0.1,0,0.2,0,0.2c0,0.1,0,0.2,0,0.3c0,0,0,0.1,0,0.1
			c0,0.1,0,0,0.1-0.1c-0.4,0.3,0.2,0.9,0.5,0.5c0.2-0.2,0.2-0.6,0.2-0.8c0-0.3,0.1-0.6-0.2-0.8c0,0,0.1,0.1,0.1,0.1
			c0.1,0.1,0,0,0-0.1c0-0.1,0-0.1,0-0.2c0-0.1,0-0.3,0-0.4c0-0.3,0-0.5,0-0.8c0-0.5,0.1-1.1,0.1-1.6C45.6,59,44.8,59,44.8,59.5
			L44.8,59.5z"/>
	</g>
</g>
<g>
	<g>
		<path class="st3" d="M46.6,59c-0.1,1.3-0.2,2.5-0.3,3.8c0,0.4,0.6,0.5,0.7,0.1c0-0.1,0.1-0.2,0.1-0.3c0.1-0.5-0.6-0.7-0.7-0.2
			c0,0.1-0.1,0.2-0.1,0.3c0.2,0,0.5,0.1,0.7,0.1c0.1-1.3,0.2-2.5,0.3-3.8c0-0.2-0.2-0.4-0.4-0.4C46.7,58.7,46.6,58.8,46.6,59
			L46.6,59z"/>
	</g>
</g>
<g>
	<g>
		<path class="st3" d="M48.3,59.8c-0.2,1-0.3,2-0.5,3c0.2,0,0.5,0,0.7,0c0,0,0,0,0,0.1c0.1-0.2,0.2-0.4,0-0.5
			c-0.1-0.1-0.4-0.2-0.5,0c-0.2,0.2-0.2,0.4-0.2,0.7c0,0.2,0.2,0.3,0.4,0.3c0.2,0,0.3-0.1,0.4-0.3c0.2-1,0.3-2,0.5-3
			c0-0.2-0.1-0.4-0.3-0.5C48.6,59.5,48.4,59.6,48.3,59.8L48.3,59.8z"/>
	</g>
</g>
<g>
	<g>
		<path class="st3" d="M50.7,58.9c-0.4,1.4-0.7,2.8-0.9,4.2c-0.1,0.4,0.4,0.7,0.7,0.3c0.1-0.1,0.2-0.3,0.2-0.4
			c0.3-0.4-0.4-0.8-0.6-0.4C50,62.8,50,62.9,49.9,63c0.2,0.1,0.5,0.2,0.7,0.3c0.2-1.4,0.5-2.8,0.9-4.2
			C51.6,58.7,50.9,58.5,50.7,58.9L50.7,58.9z"/>
	</g>
</g>
<g>
	<g>
		<path class="st3" d="M52.4,59.1c-0.3,0.8-0.4,1.7-0.6,2.6c-0.1,0.4-0.1,0.8-0.2,1.2c0,0.1,0,0.3-0.1,0.4c0,0,0,0.1,0,0.1
			c0,0.1,0,0.1,0,0c0.2,0.1,0.5,0.1,0.7,0.2c0,0,0-0.1,0-0.1c0-0.2-0.2-0.4-0.4-0.4c-0.2,0-0.4,0.2-0.4,0.4c0,0,0,0.1,0,0.1
			c0,0.4,0.5,0.5,0.7,0.2c0.1-0.1,0.1-0.4,0.1-0.6c0.1-0.4,0.1-0.8,0.2-1.2c0.2-0.9,0.3-1.8,0.6-2.6C53.3,58.8,52.6,58.6,52.4,59.1
			L52.4,59.1z"/>
	</g>
</g>
<g>
	<g>
		<path class="st3" d="M53.9,59.8c-0.3,0.8-0.5,1.7-0.8,2.5c-0.1,0.2-0.2,0.4-0.2,0.6c0,0.2,0,0.4,0.1,0.5c0,0.1,0.1,0.3,0.2,0.4
			c0.2,0.1,0.4,0,0.6-0.2c0.3-0.4-0.4-0.8-0.6-0.4c0,0,0,0,0,0c0.1,0,0.2-0.1,0.3-0.1c0,0,0,0,0,0c0.1,0,0.1,0,0.2,0.1
			c0.1,0.2,0.2,0.2,0.1,0.1c0,0,0-0.1,0-0.1c0,0,0-0.1,0-0.1c0-0.2,0-0.3,0-0.4c0.1-0.3,0.2-0.6,0.3-0.9c0.2-0.6,0.4-1.2,0.6-1.9
			C54.7,59.6,54,59.4,53.9,59.8L53.9,59.8z"/>
	</g>
</g>
<g>
	<g>
		<path class="st3" d="M55.8,59c-0.4,1.1-0.8,2.2-1.2,3.4c-0.1,0.2-0.2,0.5-0.2,0.7c0.1,0.3,0.4,0.4,0.6,0.2
			c0.1-0.1,0.1-0.2,0.2-0.4c0-0.1,0-0.1,0.1-0.2c0,0,0-0.1,0-0.1c0,0,0,0.1,0,0c0.2-0.4-0.4-0.8-0.6-0.4c-0.1,0.1-0.1,0.2-0.1,0.4
			c0,0.1,0,0.1-0.1,0.2c0,0-0.1,0.1,0,0c-0.1,0.1,0.1-0.1,0.1-0.1c0.1,0,0.2,0,0.3,0c0,0,0,0,0,0c0.1,0.1,0.1,0.1,0.2,0.2
			c0.1,0.2,0,0.2,0.1,0.1c0-0.1,0.1-0.1,0.1-0.2c0.1-0.2,0.1-0.3,0.2-0.5c0.1-0.3,0.3-0.7,0.4-1c0.2-0.7,0.5-1.3,0.7-2
			c0.1-0.2-0.1-0.4-0.3-0.5C56.1,58.7,55.9,58.8,55.8,59L55.8,59z"/>
	</g>
</g>
<g>
	<g>
		<path class="st3" d="M57.5,58.9c-0.6,1.2-1.1,2.4-1.5,3.6c-0.2,0.4,0.5,0.7,0.7,0.3c0,0,0,0-0.1,0.1c-0.2-0.1-0.4-0.2-0.6-0.4
			c0,0,0,0,0,0.1c0,0,0,0,0,0.1c0,0,0,0,0,0c-0.1,0.1-0.1,0.3-0.2,0.4c-0.1,0.2-0.2,0.4-0.3,0.6c-0.1,0.4,0.4,0.6,0.6,0.4
			c0,0,0-0.1,0.1-0.1c0.1-0.2,0.1-0.4-0.1-0.5c-0.2-0.1-0.4,0-0.5,0.1c0,0,0,0,0.1-0.1c0.2,0.1,0.4,0.2,0.6,0.4c0,0,0,0,0-0.1
			c0,0,0,0,0-0.1c0,0,0,0,0,0c0.1-0.1,0.1-0.3,0.2-0.4c0.1-0.2,0.2-0.4,0.3-0.6c0.1-0.4-0.4-0.6-0.6-0.4c0,0,0,0.1-0.1,0.1
			c0.2,0.1,0.5,0.2,0.7,0.3c0.4-1.2,0.9-2.3,1.5-3.4c0.1-0.2,0.1-0.4-0.1-0.5C57.9,58.7,57.6,58.8,57.5,58.9L57.5,58.9z"/>
	</g>
</g>
<g>
	<g>
		<path class="st3" d="M59.2,59.1c-0.5,1.3-0.9,2.5-1.4,3.8c-0.1,0.4,0.5,0.7,0.7,0.3c0.1-0.2,0.1-0.3,0.2-0.5
			c0.1-0.2,0.1-0.4-0.1-0.5c-0.2-0.1-0.4-0.1-0.5,0.1c-0.1,0.2-0.1,0.3-0.2,0.5c0.2,0.1,0.5,0.2,0.7,0.3c0.5-1.3,0.9-2.5,1.4-3.8
			c0.1-0.2-0.1-0.4-0.3-0.5C59.4,58.7,59.2,58.9,59.2,59.1L59.2,59.1z"/>
	</g>
</g>
<g>
	<g>
		<path class="st3" d="M60.2,59.9c-0.2,1.1-0.4,2.2-0.7,3.4c0,0.2,0.1,0.4,0.3,0.5c0.2,0.1,0.4-0.1,0.5-0.3c0-0.1,0-0.2,0.1-0.3
			c0-0.2-0.1-0.4-0.3-0.5c-0.2-0.1-0.4,0.1-0.5,0.3c0,0.1,0,0.2-0.1,0.3c0.2,0.1,0.5,0.1,0.7,0.2c0.2-1.1,0.4-2.2,0.7-3.4
			c0-0.2-0.1-0.4-0.3-0.5C60.5,59.6,60.2,59.7,60.2,59.9L60.2,59.9z"/>
	</g>
</g>
<g>
	<g>
		<path class="st3" d="M62.1,59.8c-0.4,1-0.8,2.1-1,3.2c0,0.2,0.1,0.4,0.3,0.5c0.2,0.1,0.4-0.1,0.5-0.3c0.1-0.2,0.1-0.3,0.2-0.5
			c0.1-0.2-0.1-0.4-0.3-0.5c-0.2-0.1-0.4,0.1-0.5,0.3c-0.1,0.2-0.1,0.3-0.2,0.5c0.2,0.1,0.5,0.1,0.7,0.2c0.3-1.1,0.6-2.2,1-3.2
			c0.1-0.2-0.1-0.4-0.3-0.5C62.4,59.5,62.2,59.6,62.1,59.8L62.1,59.8z"/>
	</g>
</g>
<g>
	<g>
		<path class="st3" d="M63.5,60.2c-0.4,1-0.7,2-1,3.1c0,0.2,0,0.3,0.2,0.4c0.1,0.1,0.4,0.1,0.5-0.1c0.1-0.1,0.2-0.2,0.2-0.3
			c0.1-0.2,0.2-0.4,0-0.5c-0.1-0.1-0.4-0.2-0.5,0c-0.1,0.1-0.2,0.2-0.2,0.3c0.2,0.1,0.4,0.2,0.6,0.4c0.3-1.1,0.6-2.1,1-3.1
			c0.1-0.2-0.1-0.4-0.3-0.5C63.8,59.8,63.6,60,63.5,60.2L63.5,60.2z"/>
	</g>
</g>
<g>
	<g>
		<path class="st3" d="M65.2,60.1c-0.3,1-0.6,2.1-1,3.1c-0.1,0.2,0.1,0.4,0.2,0.4c0.2,0.1,0.4,0,0.5-0.2c0-0.1,0.1-0.1,0.1-0.2
			c0.1-0.2,0-0.4-0.1-0.5c-0.2-0.1-0.4,0-0.5,0.1c0,0.1-0.1,0.1-0.1,0.2c0.2,0.1,0.5,0.2,0.7,0.3c0.3-1,0.6-2.1,1-3.1
			C66.1,59.8,65.4,59.6,65.2,60.1L65.2,60.1z"/>
	</g>
</g>
<g>
	<g>
		<path class="st3" d="M66.7,60c-0.4,1.1-0.8,2.2-1.2,3.3c-0.1,0.4,0.5,0.7,0.7,0.3c0.1-0.1,0.1-0.2,0.2-0.4
			c0.2-0.4-0.4-0.8-0.6-0.4c-0.1,0.1-0.1,0.2-0.2,0.4c0.2,0.1,0.5,0.2,0.7,0.3c0.4-1.1,0.8-2.2,1.2-3.3c0.1-0.2-0.1-0.4-0.3-0.5
			C67,59.7,66.8,59.8,66.7,60L66.7,60z"/>
	</g>
</g>
<g>
	<g>
		<path class="st3" d="M68.4,59.7c-0.8,1.3-1.3,2.8-1.9,4.2c0.2,0,0.5-0.1,0.7-0.1c0,0,0,0,0,0c0,0.1,0,0.2,0,0.3c0,0,0,0,0,0
			c0.1-0.5-0.6-0.7-0.7-0.2c0,0.1,0,0.2,0,0.3c0.2,0.3,0.6,0.2,0.7-0.1c0.6-1.3,1-2.7,1.8-4C69.3,59.7,68.6,59.3,68.4,59.7
			L68.4,59.7z"/>
	</g>
</g>
<g>
	<g>
		<path class="st3" d="M123.9,60.4c1.2,0.5,2.3,1.1,3.4,1.8c0.8,0.5,1.7,0.9,2.3,1.6c0.3,0.4,0.8-0.2,0.5-0.5
			c-0.6-0.8-1.5-1.2-2.3-1.7c-1.1-0.7-2.3-1.4-3.5-1.9c-0.2-0.1-0.4-0.1-0.5,0.1C123.6,60.1,123.7,60.4,123.9,60.4L123.9,60.4z"/>
	</g>
</g>
<g>
	<g>
		<path class="st3" d="M125.9,58.7c1.2,0.9,2.4,1.8,3.6,2.7c0.5,0.3,1,0.7,1.4,1.1c0.2,0.2,0.5,0.6,0.8,0.6c0.2,0,0.3-0.1,0.4-0.3
			c0,0,0,0,0,0c0.2-0.5-0.6-0.7-0.7-0.2c0,0,0,0,0,0c0.1-0.1,0.2-0.2,0.4-0.3c0.1,0,0.1,0.1,0.1,0c0,0,0,0-0.1-0.1
			c-0.1-0.1-0.1-0.1-0.2-0.2c-0.1-0.1-0.2-0.2-0.3-0.3c-0.5-0.4-1.1-0.8-1.6-1.2c-1.2-0.9-2.3-1.7-3.5-2.6
			C125.9,57.8,125.5,58.4,125.9,58.7L125.9,58.7z"/>
	</g>
</g>
<g>
	<g>
		<path class="st3" d="M130,58c0.6,0.9,1.2,1.9,1.8,2.8c0.3,0.4,0.5,0.9,0.8,1.3c0.1,0.1,0.2,0.3,0.3,0.4c0,0,0.1,0.1,0.1,0.1
			c0.1,0.1,0-0.1,0-0.1c0-0.1,0-0.1,0.1-0.2c0,0,0,0,0,0c-0.2,0.4,0.4,0.8,0.6,0.4c0.1-0.2,0-0.5-0.1-0.7c-0.2-0.3-0.4-0.6-0.5-0.9
			c-0.5-0.8-1-1.6-1.5-2.4c-0.2-0.4-0.5-0.8-0.7-1.2C130.4,57.2,129.8,57.6,130,58L130,58z"/>
	</g>
</g>
<g>
	<g>
		<path class="st3" d="M132.4,58.5c0.4,0.7,0.8,1.5,1.2,2.2c0.2,0.3,0.3,0.5,0.5,0.8c0.1,0.1,0.1,0.2,0.2,0.2
			c0.2,0.2,0.5,0.2,0.6-0.1c0.1-0.2,0.1-0.4-0.1-0.5c-0.2-0.1-0.4-0.1-0.5,0.1c0,0,0,0,0,0c0,0,0.1-0.1,0.1-0.1c0,0,0,0,0,0
			c0.1,0,0.2,0,0.3,0c0,0,0.2,0.1,0.1,0.1c0.1,0.1,0,0,0,0c-0.1-0.1-0.1-0.2-0.2-0.3c-0.2-0.3-0.3-0.5-0.5-0.8
			c-0.4-0.6-0.8-1.3-1.1-1.9c-0.1-0.2-0.3-0.2-0.5-0.1C132.4,58.1,132.4,58.3,132.4,58.5L132.4,58.5z"/>
	</g>
</g>
<g>
	<g>
		<path class="st3" d="M134.2,57.7c0.4,1.4,0.9,2.8,1.4,4.1c0.1,0.3,0.4,0.4,0.6,0.2c0.2-0.2,0.3-0.4,0.2-0.7
			c-0.1-0.5-0.9-0.3-0.7,0.2c0,0,0.1-0.1,0,0c0.2,0.1,0.4,0.1,0.6,0.2c-0.5-1.3-1-2.7-1.4-4.1C134.8,57.1,134.1,57.3,134.2,57.7
			L134.2,57.7z"/>
	</g>
</g>
<g>
	<g>
		<path class="st3" d="M135.9,57.6c0.2,0.9,0.3,1.7,0.5,2.6c0.1,0.4,0.1,0.8,0.3,1.2c0.2,0.5,0.9,0.5,0.9-0.1c0-0.2-0.2-0.4-0.4-0.4
			c-0.2,0-0.4,0.2-0.4,0.4c0,0,0,0,0,0c0-0.1,0.1-0.2,0.1-0.3c0,0,0,0,0,0c0.1,0,0.1,0,0.2-0.1c0,0,0,0,0,0c0.1,0,0.1,0.1,0.2,0.1
			c0,0.1,0,0,0,0c0,0,0-0.1,0-0.1c0-0.1,0-0.2-0.1-0.3c0-0.1-0.1-0.3-0.1-0.4c-0.1-0.3-0.1-0.6-0.2-1c-0.1-0.6-0.3-1.3-0.4-1.9
			c0-0.2-0.3-0.3-0.5-0.3C135.9,57.2,135.9,57.4,135.9,57.6L135.9,57.6z"/>
	</g>
</g>
<g>
	<g>
		<path class="st3" d="M137.3,57.2c0.2,1.4,0.4,2.7,0.7,4.1c0.1,0.3,0.4,0.3,0.6,0.2c0.2-0.2,0.3-0.4,0.3-0.7c0-0.5-0.7-0.5-0.8,0
			c0,0.1,0,0.1-0.1,0.2c0.2,0.1,0.4,0.1,0.6,0.2c-0.3-1.3-0.5-2.6-0.6-3.9c0-0.2-0.2-0.4-0.4-0.4C137.5,56.8,137.3,57,137.3,57.2
			L137.3,57.2z"/>
	</g>
</g>
<g>
	<g>
		<path class="st3" d="M138.8,56.7c0.1,1.3,0.2,2.7,0.4,4c0,0.2,0.2,0.4,0.5,0.4c0.4-0.1,0.5-0.5,0.3-0.8c-0.1-0.2-0.4-0.2-0.5-0.1
			c-0.2,0.1-0.2,0.3-0.1,0.5c0,0,0,0,0,0c0-0.1,0-0.1-0.1-0.2c0-0.1,0.1-0.1,0.1-0.2c0.2,0.1,0.3,0.2,0.5,0.4
			c-0.1-1.3-0.2-2.7-0.4-4c0-0.2-0.2-0.4-0.4-0.4C139,56.4,138.8,56.5,138.8,56.7L138.8,56.7z"/>
	</g>
</g>
<g>
	<g>
		<path class="st3" d="M140.2,56.4c0,0.7,0.1,1.4,0.1,2.1c0,0.3,0.1,0.6,0.1,0.9c0,0.2,0,0.4,0.2,0.5c0.1,0.1,0.4,0.1,0.5,0
			c0.1-0.1,0.1-0.2,0.1-0.3c0-0.5-0.7-0.5-0.8,0c0,0,0-0.1,0-0.1c0-0.1,0.1-0.1,0.1-0.2c0,0,0,0,0,0c0.2,0,0.4,0,0.5,0
			c0.2,0.2,0.1,0.2,0.1,0.1c0,0,0-0.1,0-0.1c0-0.1,0-0.2,0-0.3c0-0.1,0-0.3-0.1-0.4c0,0.1,0,0,0,0c0,0,0-0.1,0-0.1
			c0-0.1,0-0.2,0-0.3c-0.1-0.7-0.1-1.3-0.1-2C141,56,140.2,56,140.2,56.4L140.2,56.4z"/>
	</g>
</g>
<g>
	<g>
		<path class="st3" d="M141.7,56.9c0,0.6,0,1.2,0.1,1.9c0,0.2,0,0.5,0.1,0.7c0,0.1,0,0.3,0.1,0.5c0.2,0.3,0.5,0.2,0.6,0
			c0-0.1,0-0.1,0.1-0.2c0-0.2-0.2-0.4-0.4-0.4c-0.2,0-0.4,0.2-0.4,0.4c0-0.1,0-0.1,0.1-0.2c0.2,0,0.4,0,0.6,0c0,0.1,0,0.1,0,0.2
			c0,0,0,0,0-0.1c0-0.1,0-0.2,0-0.2c0-0.3,0-0.5-0.1-0.8c0-0.6-0.1-1.2-0.1-1.8C142.5,56.5,141.7,56.5,141.7,56.9L141.7,56.9z"/>
	</g>
</g>
<g>
	<g>
		<path class="st3" d="M142.8,56.1c0,0.7,0.1,1.4,0.1,2.1c0,0.3,0.1,0.6,0.1,0.9c0,0.1,0,0.1,0,0.2c0.1,0.2,0.3,0.4,0.6,0.2
			c0.4-0.2,0-0.9-0.4-0.6c0,0,0,0,0,0c0.1,0,0.1,0,0.2-0.1c0,0,0,0,0,0c0.1,0,0.1,0,0.2,0.1c0,0,0.2,0.1,0.2,0.2c0,0,0,0,0,0
			c0,0,0-0.1,0-0.1c0,0,0-0.1,0-0.1c0,0,0,0,0-0.1c0,0.1,0,0.1,0,0c0-0.3-0.1-0.5-0.1-0.8c-0.1-0.6-0.1-1.2-0.1-1.9
			C143.5,55.6,142.7,55.6,142.8,56.1L142.8,56.1z"/>
	</g>
</g>
<g>
	<g>
		<path class="st3" d="M144.3,56.1c-0.1,0.9-0.1,1.8-0.2,2.7c0,0.2,0.2,0.4,0.4,0.4c0.2,0,0.4-0.2,0.4-0.4c0.1-0.9,0.1-1.8,0.2-2.7
			c0-0.2-0.2-0.4-0.4-0.4C144.5,55.7,144.4,55.9,144.3,56.1L144.3,56.1z"/>
	</g>
</g>
<g>
	<g>
		<path class="st3" d="M146.1,56.4c-0.1,0.9-0.1,1.8-0.1,2.7c0,0.3,0.3,0.4,0.6,0.3c0.3-0.1,0.4-0.4,0.5-0.7c0-0.2-0.2-0.4-0.4-0.4
			c-0.2,0-0.4,0.2-0.4,0.4c0-0.1,0,0,0,0c0,0,0,0,0,0c0,0,0,0,0,0c0,0,0,0,0,0c0.1,0,0,0,0,0c0.2,0.1,0.4,0.2,0.6,0.3
			c0-0.9,0-1.8,0.1-2.7c0-0.2-0.2-0.4-0.4-0.4C146.3,56.1,146.2,56.2,146.1,56.4L146.1,56.4z"/>
	</g>
</g>
<g>
	<g>
		<path class="st3" d="M147.8,55.7c-0.1,0.6-0.1,1.3-0.1,1.9c0,0.2,0,0.4,0,0.6c0,0.1,0,0.2,0.1,0.3c0.1,0.2,0.5,0.3,0.7,0
			c0.1-0.2,0-0.4-0.1-0.5c-0.2-0.1-0.4,0-0.5,0.1c0,0,0,0,0,0c0,0,0.1-0.1,0.1-0.1c0,0,0,0,0,0c0.1,0,0.1,0,0.2-0.1c0,0,0,0,0,0
			c0.1,0,0.1,0,0.2,0.1c0,0,0.2,0.2,0.2,0.2c0,0,0,0,0,0c0-0.1,0,0,0,0c0-0.1,0-0.1,0-0.2c0-0.2,0-0.4,0-0.6c0-0.3,0-0.5,0-0.8
			c0-0.1,0-0.2,0-0.4c0-0.1,0-0.1,0-0.2c0,0,0-0.1,0-0.1c0-0.1,0,0.1,0,0c0-0.2,0-0.4-0.3-0.5C148.1,55.4,147.9,55.5,147.8,55.7
			L147.8,55.7z"/>
	</g>
</g>
<g>
	<g>
		<path class="st3" d="M149.6,55.2c-0.1,0.9-0.1,1.9-0.1,2.8c0.2,0,0.5,0,0.8,0c0,0,0,0,0,0c0-0.2-0.2-0.4-0.4-0.4
			c-0.2,0-0.4,0.2-0.4,0.4c0,0,0,0,0,0c0,0.2,0.2,0.4,0.4,0.4c0.2,0,0.4-0.2,0.4-0.4c0-0.9,0-1.9,0.1-2.8c0-0.2-0.2-0.4-0.4-0.4
			C149.7,54.9,149.6,55,149.6,55.2L149.6,55.2z"/>
	</g>
</g>
<g>
	<g>
		<path class="st3" d="M151.3,55.4c-0.1,0.6-0.2,1.2-0.2,1.8c0,0.2,0,0.5-0.1,0.7c0,0.2,0,0.3,0.1,0.5c0.2,0.2,0.6,0.1,0.6-0.2
			c0,0,0,0,0,0c0-0.2,0-0.4-0.3-0.5c-0.2,0-0.4,0.1-0.5,0.3c0,0,0,0,0,0c0.2-0.1,0.4-0.1,0.6-0.2c0,0,0,0,0,0c0,0.1,0.1,0.2,0.1,0.3
			c0-0.1,0-0.2,0-0.3c0-0.2,0-0.5,0.1-0.7c0-0.3,0.1-0.6,0.1-0.8c0-0.1,0-0.3,0-0.4c0,0,0-0.1,0-0.1c0,0,0-0.1,0-0.1
			c0,0.1,0,0,0-0.1c0,0,0-0.1,0-0.1c0-0.2,0-0.4-0.3-0.5C151.6,55.1,151.4,55.2,151.3,55.4L151.3,55.4z"/>
	</g>
</g>
<g>
	<g>
		<path class="st3" d="M152.7,54.8c-0.1,0.7-0.2,1.4-0.3,2.1c0,0.3-0.1,0.5-0.1,0.8c0,0.1,0,0.2,0,0.3c0.1,0.2,0.3,0.4,0.6,0.2
			c0.4-0.3,0-0.9-0.4-0.6c0,0,0.1,0,0.1,0c0.1,0,0.1,0,0.2,0c0,0,0,0,0,0c0.1,0,0.1,0.1,0.2,0.1c0.1,0.1,0.1,0.2,0.1,0.1
			c0,0.1,0,0.1,0,0.1c0,0,0-0.1,0-0.1c0-0.1,0-0.2,0-0.2c0-0.3,0-0.5,0.1-0.8c0.1-0.6,0.1-1.1,0.2-1.7c0-0.2-0.1-0.4-0.3-0.5
			C153,54.5,152.7,54.6,152.7,54.8L152.7,54.8z"/>
	</g>
</g>
<g>
	<g>
		<path class="st3" d="M154.4,55c-0.2,0.5-0.3,1.1-0.3,1.6c0,0.3-0.1,0.5-0.1,0.8c0,0.1-0.1,0.3,0,0.4c0.1,0.2,0.3,0.3,0.6,0.2
			c0.1,0,0.1-0.1,0.2-0.2c0.1-0.2-0.1-0.4-0.3-0.5c-0.2-0.1-0.4,0.1-0.5,0.3c0,0,0,0,0,0c0.1-0.1,0.1-0.1,0.2-0.2c0,0,0,0,0,0
			c0.2,0.1,0.4,0.1,0.6,0.2c0,0.1,0,0.1,0,0.1c0,0,0,0,0-0.1c0-0.1,0-0.1,0-0.2c0-0.1,0-0.1,0-0.2c0,0,0-0.1,0-0.1c0,0,0-0.1,0,0
			c0-0.1,0-0.3,0.1-0.4c0.1-0.5,0.2-1,0.3-1.5c0.1-0.2-0.1-0.4-0.3-0.5C154.6,54.6,154.4,54.8,154.4,55L154.4,55z"/>
	</g>
</g>
<g>
	<g>
		<path class="st3" d="M155.9,54.9c-0.2,0.9-0.4,1.8-0.7,2.6c0.2,0,0.5,0.1,0.7,0.1c0-0.1,0,0.1-0.1,0.1c0.2-0.1,0.2-0.3,0.1-0.5
			c-0.1-0.2-0.3-0.2-0.5-0.1c-0.2,0.1-0.3,0.3-0.3,0.5c0,0.2,0.1,0.3,0.3,0.4c0.2,0,0.4-0.1,0.4-0.3c0.2-0.9,0.4-1.8,0.7-2.6
			c0-0.2-0.1-0.4-0.3-0.5C156.2,54.6,156,54.7,155.9,54.9L155.9,54.9z"/>
	</g>
</g>
<g>
	<g>
		<path class="st3" d="M157.1,54.6c0,1-0.2,1.9-0.4,2.8c-0.1,0.4,0.4,0.6,0.6,0.4c0.1-0.1,0.1-0.1,0.2-0.2c0.3-0.3-0.2-0.9-0.5-0.5
			c-0.1,0.1-0.1,0.1-0.2,0.2c0.2,0.1,0.4,0.2,0.6,0.4c0.2-1,0.4-2,0.4-3c0-0.2-0.2-0.4-0.4-0.4C157.3,54.2,157.1,54.4,157.1,54.6
			L157.1,54.6z"/>
	</g>
</g>
<g>
	<g>
		<path class="st3" d="M159,54.3c-0.3,1.1-0.6,2.2-1,3.4c-0.1,0.3,0.2,0.5,0.5,0.5c0.2,0,0.4-0.2,0.4-0.4c0-0.2-0.1-0.4-0.3-0.5
			c-0.2,0-0.4,0.1-0.5,0.3c0,0,0.1-0.1,0.1-0.1c0.2,0.2,0.3,0.3,0.5,0.5c0.3-1.1,0.6-2.2,1-3.4C159.9,54.1,159.2,53.9,159,54.3
			L159,54.3z"/>
	</g>
</g>
<g>
	<g>
		<path class="st3" d="M160.4,54.1c-0.6,2.4-1.2,4.9-1.8,7.4c-0.1,0.3,0.4,0.7,0.6,0.4c0,0,0,0,0,0c-0.2,0-0.3,0-0.5,0.1
			c0,0,0,0,0,0c-0.1-0.1-0.1-0.2-0.2-0.3c0,0,0,0,0,0c0,0.1,0,0.2-0.1,0.2c0,0.2-0.1,0.4-0.1,0.6c-0.1,0.3-0.2,0.7,0.1,0.9
			c0.1,0.1,0.3,0.1,0.5-0.1c0,0,0,0,0,0c0.3-0.4-0.2-0.9-0.5-0.5c0,0,0,0,0,0c0.2,0,0.3,0,0.5-0.1c0,0,0,0,0,0
			c0.1,0.1,0.1,0.2,0.2,0.3c0,0,0,0,0,0c0-0.1,0-0.2,0.1-0.2c0-0.2,0.1-0.4,0.1-0.6c0.1-0.3,0.2-0.7-0.1-0.9
			c-0.1-0.1-0.3-0.1-0.5,0.1c0,0,0,0,0,0c0.2,0.1,0.4,0.2,0.6,0.4c0.6-2.5,1.1-4.9,1.8-7.4C161.2,53.8,160.5,53.6,160.4,54.1
			L160.4,54.1z"/>
	</g>
</g>
<g>
	<g>
		<path class="st3" d="M162.4,54.6c0.5,0,0.5-0.8,0-0.8C161.9,53.8,161.9,54.6,162.4,54.6L162.4,54.6z"/>
	</g>
</g>
<g>
	<g>
		<path class="st3" d="M162,54.5c-0.6,2.2-1.1,4.4-1.5,6.6c-0.1,0.4,0.5,0.7,0.7,0.3c0-0.1,0.1-0.1,0.1-0.2c0.2-0.4-0.4-0.8-0.6-0.4
			c0,0.1-0.1,0.1-0.1,0.2c0.2,0.1,0.5,0.2,0.7,0.3c0.4-2.2,0.9-4.5,1.5-6.6C162.8,54.2,162.1,54,162,54.5L162,54.5z"/>
	</g>
</g>
<g>
	<g>
		<path class="st3" d="M163.6,53.7c-0.4,2.2-0.9,4.4-1.3,6.7c-0.1,0.5,0.6,0.7,0.7,0.2c0-0.1,0.1-0.3,0.1-0.4
			c0.1-0.5-0.6-0.7-0.7-0.2c0,0.1-0.1,0.3-0.1,0.4c0.2,0.1,0.5,0.1,0.7,0.2c0.4-2.2,0.9-4.4,1.3-6.7
			C164.4,53.4,163.7,53.2,163.6,53.7L163.6,53.7z"/>
	</g>
</g>
<g>
	<g>
		<path class="st3" d="M165.2,53.9c-0.5,2-1,4.1-1.4,6.2c-0.1,0.5,0.6,0.7,0.7,0.2c0-0.1,0.1-0.2,0.1-0.3c0.2-0.5-0.6-0.7-0.7-0.2
			c0,0.1-0.1,0.2-0.1,0.3c0.2,0.1,0.5,0.1,0.7,0.2c0.4-2.1,0.9-4.1,1.4-6.2C166.1,53.6,165.4,53.4,165.2,53.9L165.2,53.9z"/>
	</g>
</g>
<g>
	<g>
		<path class="st3" d="M166.4,53.8c-0.4,1.6-0.8,3.2-1.1,4.8c0,0.2,0.1,0.4,0.3,0.5c0.2,0,0.4-0.1,0.5-0.3c0-0.1,0-0.3,0.1-0.4
			c0.1-0.5-0.6-0.7-0.7-0.2c0,0.1,0,0.3-0.1,0.4c0.2,0.1,0.5,0.1,0.7,0.2c0.3-1.6,0.6-3.2,1.1-4.8C167.3,53.5,166.6,53.3,166.4,53.8
			L166.4,53.8z"/>
	</g>
</g>
<g>
	<g>
		<path class="st3" d="M167.8,53.2c-0.1,1.2-0.3,2.5-0.6,3.7c0.2,0,0.5,0.1,0.7,0.1c0-0.1,0-0.1,0-0.2c0-0.5-0.7-0.5-0.8,0
			c0,0.1,0,0.1,0,0.2c0,0.4,0.6,0.5,0.7,0.1c0.3-1.3,0.5-2.6,0.7-3.9c0-0.2-0.2-0.4-0.4-0.4C168,52.8,167.9,53,167.8,53.2
			L167.8,53.2z"/>
	</g>
</g>
<g>
	<g>
		<path class="st3" d="M19.7,59.1c0,2,0,3.9,0,5.9c0,0.5,0.8,0.5,0.8,0c0-2,0-3.9,0-5.9C20.5,58.6,19.7,58.6,19.7,59.1L19.7,59.1z"
			/>
	</g>
</g>
<g>
	<g>
		<path class="st3" d="M22.5,58.9c0.1,3.1,0.4,6.1,0.7,9.2c0.1,0.5,0.8,0.5,0.8,0c-0.3-3-0.5-6.1-0.7-9.2
			C23.2,58.4,22.5,58.4,22.5,58.9L22.5,58.9z"/>
	</g>
</g>
<g>
	<g>
		<path class="st3" d="M47.4,69.8c-0.1,1.5-0.2,3-0.3,4.5c0.2,0,0.5,0,0.8,0c0-0.1,0-0.1,0-0.2c0-0.5-0.8-0.5-0.8,0
			c0,0.1,0,0.1,0,0.2c0,0.5,0.7,0.5,0.8,0c0.1-1.5,0.2-3,0.3-4.5C48.2,69.3,47.4,69.4,47.4,69.8L47.4,69.8z"/>
	</g>
</g>
<g>
	<g>
		<path class="st3" d="M54.6,69.7c-0.1,1.7-0.1,3.4,0,5.2c0,0.4,0.5,0.5,0.7,0.2c0.1-0.1,0.1-0.2,0.1-0.3c0-0.5-0.7-0.5-0.8,0
			c0,0,0,0,0,0c0.2,0.1,0.5,0.1,0.7,0.2c0-1.7,0-3.4,0-5.2C55.4,69.2,54.7,69.2,54.6,69.7L54.6,69.7z"/>
	</g>
</g>
<g>
	<g>
		<path class="st3" d="M50.3,70.1c-0.1,1.9-0.2,3.7-0.3,5.6c0,0.4,0.4,0.5,0.6,0.3c0,0,0.1-0.1,0.1-0.1c0.4-0.3-0.2-0.8-0.5-0.5
			c0,0-0.1,0.1-0.1,0.1c0.2,0.1,0.4,0.2,0.6,0.3c0-1.9,0.1-3.7,0.3-5.6C51.1,69.6,50.3,69.6,50.3,70.1L50.3,70.1z"/>
	</g>
</g>
<g>
	<g>
		<path class="st3" d="M57.3,69.2c0,1.9,0,3.7,0,5.6c0,0.5,0.7,0.5,0.8,0c0-0.2,0-0.3-0.1-0.5c-0.2-0.4-0.9,0-0.6,0.4
			c0,0,0,0.1,0,0.1c0.2,0,0.5,0,0.8,0c0-1.9,0-3.7,0-5.6C58.1,68.7,57.3,68.7,57.3,69.2L57.3,69.2z"/>
	</g>
</g>
<g>
	<g>
		<path class="st3" d="M26.7,59.7c0.1,3.6,0.4,7.2,0.9,10.8c0.2,0,0.5-0.1,0.7-0.1c0-0.1-0.1-0.3-0.1-0.4c-0.2-0.5-0.9-0.3-0.7,0.2
			c0,0.1,0.1,0.3,0.1,0.4c0.1,0.4,0.8,0.3,0.7-0.1c-0.4-3.6-0.7-7.2-0.9-10.8C27.4,59.2,26.7,59.2,26.7,59.7L26.7,59.7z"/>
	</g>
</g>
<g>
	<g>
		<path class="st3" d="M29.7,59.7c0.1,1.1,0.2,2.2,0.3,3.3c0,0.2,0.2,0.4,0.4,0.4c0.2,0,0.4-0.2,0.4-0.4c-0.1-1.1-0.2-2.2-0.3-3.3
			c0-0.2-0.2-0.4-0.4-0.4C29.8,59.3,29.6,59.5,29.7,59.7L29.7,59.7z"/>
	</g>
</g>
<g>
	<g>
		<path class="st3" d="M31.6,59.4c0.1,1.2,0.1,2.4,0,3.6c0,0.5,0.7,0.5,0.8,0c0-1.2,0-2.4,0-3.6C32.3,58.9,31.6,58.9,31.6,59.4
			L31.6,59.4z"/>
	</g>
</g>
<path class="st4" d="M146.4,59.1"/>
</svg>
