<?xml version="1.0" encoding="utf-8"?>
<!-- Generator: Adobe Illustrator 26.3.1, SVG Export Plug-In . SVG Version: 6.00 Build 0)  -->
<svg version="1.1" id="Calque_1" xmlns="http://www.w3.org/2000/svg" xmlns:xlink="http://www.w3.org/1999/xlink" x="0px" y="0px"
	 viewBox="0 0 200 200" style="enable-background:new 0 0 200 200;" xml:space="preserve">
<style type="text/css">
	.st0{fill:#666666;}
	.st1{fill:#E7F4DF;}
	.st2{fill:#CCDBED;}
	.st3{fill:#FD1015;}
	.st4{fill:none;stroke:#E7F4DF;stroke-miterlimit:10;}
	.st5{fill:#FFCC99;}
	.st6{fill:#CCCCCC;}
	.st7{fill:none;stroke:#E7F4DF;stroke-width:2;stroke-miterlimit:10;}
</style>
<g>
	<g>
		<g>
			<path class="st0" d="M63.8,155.3c-3.5-0.6-5.9-2.6-8.1-5.3c-2.2-2.7-4.1-5.7-6.8-8c-2.6-2.3-6-3.7-9.5-4
				c-1.9-0.2-3.8-0.1-5.5,0.7c-3.4,1.4-5.4,5.2-5.4,8.8c0.1,3.6,2.1,7.1,4.9,9.4s4.6,3.3,8.8,4.6c-1.3,0.7-2.4,3.8-2.3,4.1
				c0.2,0.6,1.6-0.2,2.2-0.3c4-0.6,7.9,1.2,11.7,2.5c3.8,1.2,7.1,0.5,11-0.6"/>
			<g>
				<path class="st1" d="M64.2,153.9c-5-1-7.6-5.1-10.6-8.9c-3.2-4.1-7.3-7.3-12.6-8.2c-4.9-0.9-9.9,0.4-12.5,4.9
					c-2.4,4.2-1.8,9.3,0.9,13.1c2.9,4.2,7.6,6.6,12.3,8.1c-0.1-0.9-0.2-1.8-0.4-2.7c-1.5,1-3,3.5-3,5.3c0,1.3,1.2,1.9,2.4,1.7
					c0.5-0.1,1-0.4,1.5-0.5c0.8-0.2,1.6-0.1,2.4-0.1c3.5,0.3,6.6,2.1,10,2.9c3.5,0.8,7,0,10.4-1c1.8-0.5,1.1-3.4-0.8-2.9
					c-2.1,0.6-4.3,1.2-6.6,1.2c-2.2,0-4.2-0.8-6.3-1.6c-2-0.7-4.1-1.4-6.2-1.6c-1-0.1-2-0.1-3.1,0c-0.4,0.1-0.7,0.1-1.1,0.3
					c-0.2,0.1-0.4,0.1-0.5,0.2c-0.3,0.1-0.3,0.1-0.1,0.1c0.3,0.2,0.6,0.5,0.9,0.7c0.2,0.3-0.1,1.1,0.2,0.4c0.1-0.3,0.2-0.6,0.4-0.9
					c0.3-0.6,0.6-1.3,1.1-1.7c1.1-0.7,0.9-2.4-0.4-2.7c-3.6-1.1-7.1-2.8-9.7-5.7c-2.7-3-3.9-7.5-1.8-11.2c2.3-4,7.1-4.3,11.1-3.1
					c4.6,1.4,7.6,4.8,10.4,8.5c2.8,3.7,5.9,7.2,10.7,8.1C65.3,157.1,66.1,154.2,64.2,153.9L64.2,153.9z"/>
			</g>
		</g>
		<g>
			<g>
				<path class="st1" d="M34.8,138.7c-1,3.4-1.4,7-1.2,10.5c0.1,1.7,0.3,3.5,0.6,5.2c0.2,0.9,0.3,1.8,0.7,2.6
					c0.2,0.4,0.4,0.7,0.8,0.6c0.5,0,0.5-0.8,0-0.8c-0.4,0-1-4-1-4.4c-0.2-1.5-0.3-3.1-0.3-4.7c0-3,0.4-6.1,1.3-9
					C35.7,138.5,35,138.3,34.8,138.7L34.8,138.7z"/>
			</g>
		</g>
		<g>
			<g>
				<path class="st1" d="M38.8,138.1c-0.7,1.1-0.6,2.7-0.6,4c-0.1,2.4,0.1,4.8,0.4,7.1c0.2,2.4,0.6,4.7,1.1,7.1
					c0.2,0.9,0.4,1.9,0.8,2.8c0.2,0.5,0.4,1.5,1,1.7c0.2,0.1,0.3,0,0.4-0.2c0.1-0.1,0.1-0.3,0.1-0.4c0-0.2-0.2-0.3-0.4-0.3
					c0,0,0,0-0.1,0c-0.5,0-0.5,0.8,0,0.8c0,0,0,0,0.1,0c-0.1-0.1-0.2-0.2-0.4-0.3c0,0,0-0.1,0-0.1c0.1-0.1,0.3-0.1,0.4-0.2
					c-0.3-0.1-0.6-1.5-0.7-1.8c-0.3-0.9-0.5-1.8-0.7-2.7c-0.5-2.3-0.8-4.5-1-6.8c-0.2-2.1-0.3-4.2-0.3-6.3c0-1.2-0.1-2.9,0.5-3.9
					C39.7,138,39.1,137.7,38.8,138.1L38.8,138.1z"/>
			</g>
		</g>
		<g>
			<g>
				<path class="st1" d="M37,138.7c-0.9,1.3-0.9,3.1-1,4.7c-0.1,1.9-0.1,3.9,0.1,5.8c0.1,1.8,0.4,3.7,0.7,5.5c0.2,1,0.4,2,0.7,2.9
					c0.2,0.5,0.3,1.4,0.7,1.8c0.1,0.1,0.3,0.1,0.5,0.1c0,0,0.1,0,0.1-0.1c0.1,0,0.2-0.2,0.2-0.3c0,0,0-0.1,0-0.1
					c0-0.5-0.8-0.5-0.8,0c0-0.1,0.1-0.1,0.1-0.2c0.2,0,0.3,0,0.5,0.1c-0.5-0.4-0.7-2-0.8-2.6c-0.2-0.7-0.4-1.5-0.5-2.2
					c-0.3-1.8-0.6-3.5-0.7-5.3c-0.1-1.6-0.1-3.3-0.1-4.9c0-1.6-0.1-3.5,0.9-4.8C37.9,138.7,37.3,138.3,37,138.7L37,138.7z"/>
			</g>
		</g>
		<g>
			<g>
				<path class="st1" d="M40.5,138.1c-0.7,6.1,0.3,12.5,1.4,18.6c0.1,0.7,0.3,1.4,0.4,2.1c0.1,0.4,0.2,0.8,0.2,1.2
					c0,0.2,0.1,0.5,0.1,0.7c0.1,0,0.1,0.1,0.2,0.1c0,0.1-0.1,0.3-0.1,0.4c0,0.2,0.1,0.5,0.1,0.7c0.1,0.6,0.4,2.7,1.1,2.9
					c0.5,0.1,0.7-0.6,0.2-0.7c0.3,0.1,0.1,0,0-0.4c-0.1-0.3-0.2-0.6-0.3-0.8c-0.2-0.6-0.3-1.2-0.4-1.7c0-0.2,0,0.3-0.1,0.1
					c0-0.1,0.1-0.1,0.1-0.2c-0.1-0.5-0.2-1-0.3-1.5c-0.3-1.4-0.6-2.8-0.8-4.2c-0.9-5.6-1.8-11.5-1.2-17.2
					C41.3,137.7,40.5,137.7,40.5,138.1L40.5,138.1z"/>
			</g>
		</g>
		<g>
			<g>
				<path class="st1" d="M42.3,139.9c-0.5,4.4,0.6,8.8,1.4,13c0.8,4.4,1.7,8.8,3.5,13c0.1,0.3,0.6,0.4,0.7,0c0-0.1,0.1-0.3,0.1-0.4
					c0.1-0.5-0.6-0.7-0.7-0.2c0,0.1-0.1,0.3-0.1,0.4c0.2,0,0.5,0,0.7,0c-1.7-4-2.6-8.3-3.4-12.5c-0.8-4.4-2-8.8-1.4-13.3
					C43.1,139.5,42.4,139.5,42.3,139.9L42.3,139.9z"/>
			</g>
		</g>
		<g>
			<g>
				<path class="st1" d="M44.2,140c0.3,4.9,0.9,9.9,1.9,14.7c0.5,2.4,1,4.8,1.7,7.2c0.3,1,0.7,2,1.1,3c0.2,0.5,0.4,1.4,1,1.6
					c0.2,0.1,0.3,0,0.4-0.2c0.1-0.2,0.1-0.3,0-0.5c-0.1-0.1-0.3-0.2-0.4-0.2c0,0,0,0-0.1,0c-0.5,0.1-0.3,0.8,0.2,0.7c0,0,0,0,0.1,0
					c-0.1-0.1-0.3-0.1-0.4-0.2c0-0.1,0-0.1,0-0.2c0.1-0.1,0.3-0.1,0.4-0.2c-0.2-0.1-0.7-1.5-0.7-1.5c-0.2-0.4-0.3-0.8-0.5-1.2
					c-0.3-1-0.6-2-0.9-3c-0.6-2.1-1-4.3-1.4-6.4c-0.9-4.5-1.4-9-1.7-13.6C44.9,139.6,44.2,139.6,44.2,140L44.2,140z"/>
			</g>
		</g>
		<g>
			<g>
				<path class="st1" d="M46.7,141.1c0.2,9,2.8,17.6,5.4,26.2c0.1,0.3,0.5,0.4,0.7,0.1c0.1-0.2,0.2-0.3,0.2-0.5
					c0.2-0.4-0.4-0.8-0.6-0.4c-0.1,0.2-0.2,0.3-0.2,0.5c0.2,0,0.5,0.1,0.7,0.1c-2.6-8.5-5.1-17.1-5.4-26
					C47.4,140.7,46.7,140.6,46.7,141.1L46.7,141.1z"/>
			</g>
		</g>
		<g>
			<g>
				<path class="st1" d="M48.8,143.6c0.2,4.3,1.3,8.6,2.4,12.7c0.6,2.1,1.2,4.2,1.8,6.3c0.5,1.9,1,3.8,2.1,5.5
					c0.2,0.3,0.6,0.2,0.7-0.1c0.1-0.2,0.1-0.3,0.2-0.5c0.2-0.5-0.6-0.6-0.7-0.2c-0.1,0.2-0.1,0.3-0.2,0.5c0.2,0,0.5-0.1,0.7-0.1
					c-1.1-1.8-1.6-3.8-2.1-5.8c-0.5-1.9-1.1-3.9-1.7-5.8c-1.2-4.1-2.2-8.2-2.4-12.5C49.5,143.1,48.8,143.1,48.8,143.6L48.8,143.6z"
					/>
			</g>
		</g>
		<g>
			<g>
				<path class="st1" d="M51.3,146.2c0.5,4.1,1,8.1,1.9,12.1c0.4,2,1,3.9,1.7,5.8c0.3,0.9,0.7,1.8,1,2.6c0.2,0.6,0.4,1.2,1,1.5
					c0.2,0.1,0.3,0,0.4-0.2c0.1-0.2,0.1-0.3,0.1-0.5c-0.1-0.2-0.2-0.3-0.5-0.3c0,0,0,0-0.1,0c-0.5,0.1-0.3,0.8,0.2,0.7
					c0,0,0,0,0.1,0c-0.2-0.1-0.3-0.2-0.5-0.3c0,0,0-0.1,0-0.1c0.1-0.1,0.3-0.1,0.4-0.2c-0.2-0.1-0.6-1.3-0.6-1.4
					c-0.1-0.4-0.3-0.7-0.4-1.1c-0.3-0.9-0.7-1.7-0.9-2.6c-0.5-1.7-1-3.4-1.3-5.1c-0.8-3.7-1.2-7.4-1.7-11.1
					C52,145.7,51.3,145.7,51.3,146.2L51.3,146.2z"/>
			</g>
		</g>
		<g>
			<g>
				<path class="st1" d="M53.9,149.3c0.4,3.6,0.7,7.3,1.5,10.9c0.4,1.6,0.8,3.1,1.5,4.5c0.4,0.8,0.8,1.6,1.3,2.3
					c0.3,0.4,0.5,0.9,1.1,1c0.2,0,0.3-0.1,0.4-0.3c0.1-0.2,0-0.3-0.1-0.5c-0.1-0.1-0.3-0.1-0.5-0.1c0,0,0,0,0,0
					c-0.4,0.2,0,0.9,0.4,0.6c0,0,0,0,0,0c-0.2,0-0.3,0-0.5-0.1c0,0,0,0,0,0.1c0-0.1-0.1-0.2-0.1-0.4c0,0,0,0,0,0.1
					c0.1-0.1,0.2-0.2,0.4-0.3c0.2,0.1,0.1-0.1-0.2-0.4c-0.1-0.2-0.2-0.3-0.3-0.5c-0.2-0.3-0.4-0.7-0.6-1c-0.4-0.6-0.7-1.3-1-2
					c-0.5-1.4-0.9-2.8-1.2-4.3c-0.7-3.2-1-6.5-1.3-9.8C54.6,148.8,53.8,148.8,53.9,149.3L53.9,149.3z"/>
			</g>
		</g>
		<g>
			<g>
				<path class="st1" d="M55.8,151.6c0.6,3,0.7,6,1.5,8.9c0.7,2.6,1.8,5.1,3.4,7.3c0.3,0.4,0.9,0,0.6-0.4c-1.5-2.3-2.7-4.8-3.4-7.4
					c-0.7-2.8-0.8-5.8-1.4-8.7C56.5,150.9,55.7,151.1,55.8,151.6L55.8,151.6z"/>
			</g>
		</g>
		<g>
			<g>
				<path class="st1" d="M57.4,153c0.4,2.5,0.6,5.1,1.2,7.6c0.5,2.2,1.3,4.3,2.6,6.2c0.3,0.4,0.9,0,0.6-0.4c-1.3-1.9-2.1-4-2.6-6.2
					c-0.5-2.4-0.7-4.9-1.1-7.4C58.1,152.3,57.4,152.5,57.4,153L57.4,153z"/>
			</g>
		</g>
		<g>
			<g>
				<path class="st1" d="M60.2,155c0,2.6,0,5.3,0.4,7.8c0.2,1.3,0.5,2.5,1,3.8c0.1,0.3,0.3,0.9,0.7,1c0.3,0.1,0.6-0.2,0.6-0.5
					c0-0.5-0.8-0.5-0.8,0c0.3-0.1,0.4-0.3,0.2-0.6c-0.1-0.1-0.1-0.3-0.2-0.4c-0.1-0.2-0.1-0.4-0.2-0.6c-0.2-0.5-0.3-1-0.4-1.5
					c-0.2-1-0.4-2-0.5-3c-0.2-2-0.2-4-0.2-6C60.9,154.5,60.2,154.5,60.2,155L60.2,155z"/>
			</g>
		</g>
		<g>
			<g>
				<path class="st1" d="M62.3,155.7c0,2.1-0.1,4.2-0.1,6.3c0,1,0.1,2,0.2,3c0.1,0.5,0.2,0.9,0.3,1.4c0.1,0.3,0.1,0.8,0.5,0.9
					c0.1,0.1,0.3,0.1,0.5-0.1c0.1-0.1,0.2-0.3,0.1-0.4c0-0.2-0.2-0.3-0.4-0.3c0,0,0,0,0,0c-0.5,0-0.5,0.7,0,0.8c0,0,0,0,0,0
					c-0.1-0.1-0.2-0.2-0.4-0.3c0,0,0,0,0,0.1c0-0.1,0.1-0.2,0.1-0.4c0,0,0,0,0,0c0.2,0,0.3,0,0.5-0.1c0,0-0.1-0.5-0.1-0.6
					c-0.1-0.2-0.1-0.5-0.2-0.7c-0.1-0.4-0.2-0.9-0.2-1.3c-0.1-0.9-0.1-1.9-0.1-2.8c0-1.8,0.1-3.7,0.1-5.5
					C63.1,155.2,62.3,155.2,62.3,155.7L62.3,155.7z"/>
			</g>
		</g>
		<g>
			<g>
				<path class="st1" d="M33.1,139.5c-1.7,4.9-2.3,10.2-1.7,15.4c0,0.3,0.2,0.4,0.5,0.4c0.2,0,0.5-0.1,0.7-0.1
					c0.5-0.1,0.3-0.8-0.2-0.7c-0.2,0-0.5,0.1-0.7,0.1c0.2,0.1,0.3,0.2,0.5,0.4c-0.6-5.1,0-10.3,1.6-15.2
					C33.9,139.2,33.2,139,33.1,139.5L33.1,139.5z"/>
			</g>
		</g>
	</g>
	<g>
		<path class="st0" d="M156,118.9c0-1.2-0.6-2.3-1.5-3.1c-1-0.8-2.2-0.8-3.4-0.8c-1.8,0.1-3.6,0.2-5.3,0.4c0-0.1,0-0.2,0-0.2
			c-1.2-3.9-3.2-7.5-5-11.1c0.4-2.8,0.8-5.5,0.9-8.3c0.1-3.1,0.5-6.9-1.3-9.6c-0.8-1.1-1.9-2-3.3-2.3c-1.7-0.4-3.4,0.3-4.8,1.2
			c-2.9,1.7-5.7,3.8-8.3,6c-14-5.4-30-5-43.6,1.2c-1.3-0.9-2.6-1.8-4.1-2.6c-1.4-0.8-3-1.5-4.5-2.1c-1.6-0.7-3.5-1.2-5.2-0.5
			c-1.1,0.5-2,1.4-2.3,2.6c-0.1,0.6-0.1,1.2-0.1,1.8c-0.1,2.4-0.1,4.7,0,7.1c0.1,1.8,0.2,3.6,0.5,5.4c-0.1,0.1-0.2,0.2-0.2,0.3
			c-2.6,5-6,9.8-7.4,15.3c-0.2,0.1-1.2,0-1.4,0c-0.6,0-1.3,0-1.9,0.1c-1.3,0.2-2.7,0.5-3.9,1c-2.4,1-4.5,2.7-4.2,5.6
			c0.3,2.5,2.1,4.7,3.7,6.6c1.7,2.1,3.5,4.1,4.8,6.5c0.1,0.3,0.3,0.5,0.6,0.6c0.2,12.6,1.6,26.2,10.4,35.9c0,0.2-0.1,0.5-0.2,0.7
			c-0.3,1.4-0.7,2.8-0.8,4.3c-0.1,1.5-0.2,3.2,0.2,4.6c0.3,1.5,1.5,2.2,3,2.3c3,0.3,5.8-1.1,8.2-2.8c0.8-0.5,1.5-1.1,2.2-1.7
			c14.7,4.7,32.3,6.7,46.3-1c0.1,0,0.2-0.1,0.4-0.2c0.7-0.5,1.8-0.3,2.6-0.2c1.1,0.2,2.1,0.8,3.2,1.3c2.5,1.2,5.6,3.1,8.3,1.6
			c2.5-1.4,3-4.7,2.6-7.3c-0.1-0.9-0.3-1.7-0.6-2.6c1.8-2.5,3.8-4.8,5.3-7.5c1.7-3,3-6.3,4.1-9.6c1.9-5.6,2.9-11.4,2.1-17.2
			c-0.4-3.1-1.2-6.2-2.3-9.1c1.4-1.8,2.7-3.6,3.9-5.6C154.7,124,156.1,121.4,156,118.9z"/>
	</g>
	<g>
		<g>
			<path class="st1" d="M77.2,183.6c14.8,4.8,32.9,6.8,47-1.1c1.7-0.9,0.2-3.5-1.5-2.6c-13.4,7.5-30.7,5.4-44.7,0.8
				C76.1,180.1,75.3,183,77.2,183.6L77.2,183.6z"/>
		</g>
	</g>
	<g>
		<g>
			<path class="st1" d="M64.9,172.6c0.2,0.4,0.1,1.3,0.1,1.7c-0.1,0.7-0.2,1.4-0.4,2.1c-0.3,1.5-0.7,3.1-0.9,4.6
				c-0.1,1.4-0.2,3.2,0.2,4.6c0.4,1.6,1.7,2.2,3.2,2.4c3,0.3,5.8-1.1,8.1-2.7c2.5-1.8,4.9-3.9,7-6.2c1.3-1.4-0.8-3.5-2.1-2.1
				c-1.8,2-3.8,3.8-5.9,5.4c-1.9,1.4-4.3,3-6.8,2.7c-0.2,0-0.4,0-0.5-0.1c-0.1,0,0,0.3-0.1-0.2c-0.1-0.6-0.1-1.2-0.1-1.9
				c0-1.3,0.1-2.6,0.4-3.9c0.3-1.3,0.6-2.6,0.8-4c0.2-1.2,0.4-2.9-0.4-4c-0.5-0.7-1.3-1-2.1-0.5C64.8,171,64.4,172,64.9,172.6
				L64.9,172.6z"/>
		</g>
	</g>
	<g>
		<g>
			<path class="st1" d="M124.1,182.5c0.6-0.4,1.5-0.4,2.3-0.3c1.2,0.2,1.9,0.6,3,1.1c2.4,1.2,5.3,3.1,8.2,2.1c3.1-1,3.9-4.6,3.5-7.5
				c-0.4-3.2-1.7-6.3-2.7-9.3c-0.6-1.8-3.5-1-2.9,0.8c0.5,1.5,0.9,2.9,1.4,4.4c0.4,1.4,0.9,2.8,1.2,4.3c0.3,1.9-0.1,5-2.7,4.5
				c-2.5-0.4-4.5-2.2-6.8-3c-1.7-0.6-4.4-1-6,0.2c-0.6,0.5-1,1.3-0.5,2.1C122.5,182.6,123.5,183,124.1,182.5L124.1,182.5z"/>
		</g>
	</g>
	<g>
		<g>
			<path class="st1" d="M140.2,175.6c1.2-1.8,2.6-3.4,3.9-5.2c1.3-1.8,2.3-3.7,3.3-5.8c1.7-3.8,3.2-7.6,4.1-11.6
				c1.7-7.4,0.9-14.8-1.8-21.9c-0.7-1.8-3.6-1-2.9,0.8c2.6,6.7,3.4,13.6,1.8,20.7c-0.9,3.9-2.4,7.8-4.1,11.4
				c-1.7,3.7-4.4,6.7-6.7,10C136.5,175.7,139.1,177.2,140.2,175.6L140.2,175.6z"/>
		</g>
	</g>
	<g>
		<g>
			<path class="st1" d="M149.2,132.6c1.6-2,3.2-4.1,4.5-6.4c0.6-1.1,1.2-2.2,1.7-3.4c0.5-1.3,1-2.6,0.9-4c-0.1-1.3-0.7-2.5-1.7-3.2
				c-1.1-0.7-2.4-0.8-3.6-0.7c-2.9,0.1-5.7,0.4-8.5,0.8c-0.8,0.1-1.2,1.1-1,1.8c0.2,0.9,1,1.2,1.8,1c2.3-0.3,4.6-0.6,6.9-0.7
				c0.7,0,2.1-0.3,2.8,0.1c0.5,0.4,0.5,1.2,0.4,1.8c-0.4,2-1.4,3.9-2.5,5.6c-1.1,1.8-2.3,3.4-3.6,5.1c-0.5,0.6-0.6,1.5,0,2.1
				C147.6,133.1,148.7,133.2,149.2,132.6L149.2,132.6z"/>
		</g>
	</g>
	<g>
		<g>
			<path class="st1" d="M67.1,174.2c-8.9-9.8-9.7-23.8-9.8-36.4c0-1.9-3-1.9-3,0c0.1,13.5,1.2,28.1,10.7,38.6
				C66.3,177.8,68.4,175.7,67.1,174.2L67.1,174.2z"/>
		</g>
	</g>
	<g>
		<g>
			<path class="st1" d="M56.5,138.2c-1.2-2.1-2.7-4-4.2-5.9c-1.4-1.7-3.3-3.6-3.9-5.8c-0.6-2.4,2.4-3.3,4.2-3.7
				c1.1-0.3,2.3-0.3,3.4-0.3c1.1,0,2.2-0.1,3-0.9c1.3-1.4-0.8-3.5-2.1-2.1c-0.2,0.2-1,0-1.2,0c-0.6,0-1.3,0-1.9,0.1
				c-1.4,0.2-2.7,0.5-4,1c-2.5,1-4.8,2.8-4.5,5.8c0.3,2.7,2.2,4.9,3.8,6.9c1.7,2.1,3.5,4.1,4.8,6.5
				C54.8,141.4,57.4,139.9,56.5,138.2L56.5,138.2z"/>
		</g>
	</g>
	<g>
		<g>
			<path class="st1" d="M59,123.8c0.5-6.7,4.7-12.3,7.8-18.1c0.9-1.7-1.7-3.2-2.6-1.5c-3.3,6.3-7.6,12.3-8.2,19.6
				C55.9,125.7,58.9,125.7,59,123.8L59,123.8z"/>
		</g>
	</g>
	<g>
		<g>
			<path class="st1" d="M146,115.3c-1.3-4.1-3.4-7.9-5.3-11.7c-0.4-0.7-1.4-0.9-2.1-0.5c-0.7,0.4-0.9,1.3-0.5,2.1
				c1.8,3.6,3.8,7.1,5,11c0.2,0.8,1,1.3,1.8,1C145.7,116.9,146.2,116.1,146,115.3L146,115.3z"/>
		</g>
	</g>
	<g>
		<g>
			<path class="st1" d="M81.4,94.8c13.1-5.9,28.3-6.2,41.7-1c1.8,0.7,2.6-2.2,0.8-2.9c-14.1-5.5-30.2-4.9-44,1.3
				C78.2,93,79.7,95.6,81.4,94.8L81.4,94.8z"/>
		</g>
	</g>
	<g>
		<g>
			<g>
				<path class="st1" d="M67.9,105.9c-0.7-1.9-0.8-3.9-1-5.9c-0.1-2.2-0.2-4.5-0.1-6.7c0-0.8,0-1.6,0.1-2.4c0-0.2,0-0.5,0.1-0.7
					c0-0.1,0.1-0.3,0-0.1c-0.2,0.4,0,0,0,0c0.4-0.2,0.5-0.5,1-0.6c0.8-0.1,1.6,0.2,2.3,0.5c1.4,0.5,2.7,1.2,4.1,1.8
					c2.9,1.5,5.4,3.4,7.8,5.6c1.4,1.3,3.5-0.8,2.1-2.1c-2.4-2.2-5-4.2-7.9-5.8c-1.5-0.8-3.1-1.5-4.7-2.2c-1.7-0.7-3.6-1.2-5.4-0.4
					c-1.1,0.5-2,1.4-2.2,2.6C64,90.2,64,91,63.9,91.7c-0.1,2.3-0.1,4.6,0,6.9c0.1,2.7,0.2,5.6,1.1,8.1
					C65.7,108.5,68.6,107.7,67.9,105.9L67.9,105.9z"/>
			</g>
		</g>
		<g>
			<g>
				<path class="st1" d="M140.9,104.3c0.4-2.9,0.8-5.8,1-8.7c0.1-3.1,0.5-6.9-1.4-9.5c-0.9-1.2-2.1-2.2-3.6-2.4
					c-1.8-0.3-3.5,0.4-5,1.3c-3.1,1.9-5.9,4.1-8.7,6.4c-1,0.8-0.2,2.6,1.1,2.6c0.7,0,1.2-0.2,1.7-0.7c1.4-1.4-0.8-3.5-2.1-2.1
					c0,0-0.1,0-0.1,0c0.3-0.1,0.5-0.1,0.8-0.2c-0.1,0-0.2,0-0.2,0c0.4,0.9,0.7,1.7,1.1,2.6c2.4-1.9,4.8-3.8,7.4-5.4
					c1-0.7,2.4-1.7,3.7-1.5c1.1,0.2,1.8,1.2,2.1,2.2c0.5,1.3,0.4,2.8,0.4,4.1c0,1.3,0,2.6-0.1,3.9c-0.2,2.5-0.6,5.1-0.9,7.6
					c-0.1,0.8,0.8,1.5,1.5,1.5C140.3,105.8,140.8,105.1,140.9,104.3L140.9,104.3z"/>
			</g>
		</g>
		<g>
			<g>
				<path class="st1" d="M123.7,93.7c0.8,1.4,1.4,3.1,2.9,3.9c2.2,1.1,4.8-0.3,6-2.2c0.6-1,1.2-2,2-3c0.4-0.5,1.3-2,2-1.9
					c0.9,0.1,0.4,2.3,0.4,2.9c0,1.4,0,2.8,0.1,4.2c0,1.5,0.1,2.9,0.4,4.4c0.2,1.1,0.6,2.3,1.4,3c0.7,0.6,1.8-0.4,1.1-1.1
					c-0.7-0.6-0.9-1.7-1.1-2.6c-0.2-1.3-0.3-2.6-0.3-3.9c0-1.4-0.1-2.8-0.1-4.2c0-1,0.3-2.2-0.2-3.2c-0.5-0.9-1.7-1.2-2.6-0.8
					c-1,0.5-1.6,1.4-2.3,2.3c-0.7,0.9-1.3,1.9-1.9,2.9c-0.7,1.2-1.6,2-3,2.1c-2,0.2-2.7-2.1-3.4-3.5
					C124.5,92.1,123.2,92.9,123.7,93.7L123.7,93.7z"/>
			</g>
		</g>
		<g>
			<g>
				<path class="st1" d="M83,96.3c-0.8,0.5-1.3,1.2-2,1.7c-0.9,0.7-2,0.1-2.8-0.5c-2-1.3-3.9-2.9-6-4.2c-1.2-0.8-3.3-1.8-4.3-0.2
					c-0.9,1.3-0.5,3.3-0.6,4.9c-0.2,2.7-0.8,5.4-0.9,8.1c0,1,1.5,1,1.5,0c0.1-2.9,0.8-5.7,1-8.5c0.1-1-0.1-2,0.1-3
					c0.2-1.2,1.2-0.7,2-0.2c2.5,1.4,4.5,3.4,7,4.8c1,0.5,2.2,1,3.2,0.5c1-0.5,1.6-1.5,2.5-2C84.6,97.1,83.9,95.8,83,96.3L83,96.3z"
					/>
			</g>
		</g>
		<g>
			<g>
				<path class="st1" d="M69.5,92.4c-0.9-1.1-1.5-2.4-1.8-3.8c0-0.2-0.3-0.3-0.5-0.3c-0.2,0.1-0.3,0.3-0.3,0.5c0.3,1.5,1,2.9,2,4.1
					c0.1,0.2,0.4,0.1,0.5,0C69.6,92.8,69.6,92.6,69.5,92.4L69.5,92.4z"/>
			</g>
		</g>
		<g>
			<g>
				<path class="st1" d="M71.2,93.3c-0.5-1.6-1-3.2-1.5-4.7c-0.1-0.5-0.9-0.3-0.7,0.2c0.5,1.6,1,3.2,1.5,4.7
					C70.6,94,71.3,93.8,71.2,93.3L71.2,93.3z"/>
			</g>
		</g>
		<g>
			<g>
				<path class="st1" d="M72.8,93.9c-0.5-1.3-0.7-2.7-0.7-4.1c0-0.5-0.8-0.5-0.8,0c0,1.5,0.3,2.9,0.8,4.3
					C72.3,94.6,73,94.4,72.8,93.9L72.8,93.9z"/>
			</g>
		</g>
		<g>
			<g>
				<path class="st1" d="M74.5,95.4c-0.4-1.6-0.7-3.3-0.8-5c0-0.5-0.8-0.5-0.8,0c0.1,1.8,0.4,3.5,0.8,5.2
					C73.9,96.1,74.6,95.9,74.5,95.4L74.5,95.4z"/>
			</g>
		</g>
		<g>
			<g>
				<path class="st1" d="M76.1,96.6c-0.4-1.6-0.6-3.2-0.4-4.8c0-0.2-0.2-0.4-0.4-0.4c-0.2,0-0.4,0.2-0.4,0.4c-0.2,1.7-0.1,3.4,0.4,5
					C75.5,97.3,76.2,97.1,76.1,96.6L76.1,96.6z"/>
			</g>
		</g>
		<g>
			<g>
				<path class="st1" d="M77.6,97.6c-0.4-1.4-0.4-2.9-0.1-4.4c0.1-0.5-0.6-0.7-0.7-0.2c-0.3,1.6-0.3,3.2,0.1,4.8
					C77,98.2,77.7,98,77.6,97.6L77.6,97.6z"/>
			</g>
		</g>
		<g>
			<g>
				<path class="st1" d="M78.9,98.6c-0.2-1.4-0.1-2.7,0.3-4.1c0.1-0.5-0.6-0.7-0.7-0.2c-0.4,1.4-0.5,2.9-0.3,4.3
					c0,0.2,0.2,0.4,0.4,0.4C78.7,99,78.9,98.8,78.9,98.6L78.9,98.6z"/>
			</g>
		</g>
		<g>
			<g>
				<path class="st1" d="M80,98.7c0-1.3,0.2-2.7,0.6-3.9c0.2-0.5-0.6-0.7-0.7-0.2c-0.5,1.3-0.7,2.7-0.7,4.1
					C79.3,99.1,80,99.1,80,98.7L80,98.7z"/>
			</g>
		</g>
		<g>
			<g>
				<path class="st1" d="M68.4,94c-1-1-2-2-3-3.1c-0.3-0.3-0.9,0.2-0.5,0.5c1,1,2,2,3,3.1C68.2,94.9,68.8,94.4,68.4,94L68.4,94z"/>
			</g>
		</g>
		<g>
			<g>
				<path class="st1" d="M68.1,96.3C68.1,96.3,68.1,96.3,68.1,96.3C68.1,96.3,68.1,96.3,68.1,96.3c-0.1,0-0.1-0.1-0.1-0.1
					c0,0-0.1-0.1-0.1-0.1c-0.1-0.1-0.2-0.2-0.3-0.2c-0.2-0.2-0.4-0.3-0.6-0.5c-0.4-0.3-0.7-0.7-1-1.1c-0.1-0.1-0.4-0.1-0.5,0
					c-0.1,0.2-0.1,0.4,0,0.5c0.7,0.8,1.4,1.5,2.3,2.1c0.2,0.1,0.4,0,0.5-0.1C68.4,96.6,68.3,96.4,68.1,96.3L68.1,96.3z"/>
			</g>
		</g>
		<g>
			<g>
				<path class="st1" d="M68.4,98.8c-0.7-0.7-1.5-1.4-2.2-2.1c-0.1-0.1-0.4-0.2-0.5,0c-0.1,0.1-0.2,0.4,0,0.5
					c0.7,0.7,1.5,1.4,2.2,2.1c0.1,0.1,0.4,0.2,0.5,0C68.6,99.2,68.6,98.9,68.4,98.8L68.4,98.8z"/>
			</g>
		</g>
		<g>
			<g>
				<path class="st1" d="M68,100.6c-1.2-0.7-2.2-1.6-3.2-2.5c-0.4-0.3-0.9,0.2-0.5,0.5c1.1,1,2.2,1.8,3.4,2.6
					C68,101.5,68.4,100.8,68,100.6L68,100.6z"/>
			</g>
		</g>
		<g>
			<g>
				<path class="st1" d="M137.1,90c0.4-1.7,0.6-3.5,0.5-5.2c0-0.5-0.8-0.5-0.8,0c0.1,1.7-0.1,3.4-0.5,5
					C136.3,90.2,137,90.4,137.1,90L137.1,90z"/>
			</g>
		</g>
		<g>
			<g>
				<path class="st1" d="M136.1,90.3c-0.1-1.5-0.2-3-0.3-4.6c0-0.5-0.8-0.5-0.8,0c0.1,1.5,0.2,3,0.3,4.6
					C135.4,90.7,136.1,90.7,136.1,90.3L136.1,90.3z"/>
			</g>
		</g>
		<g>
			<g>
				<path class="st1" d="M134.9,91c0-1.8-0.3-3.5-0.8-5.2c-0.1-0.5-0.9-0.3-0.7,0.2c0.5,1.6,0.7,3.3,0.8,5
					C134.2,91.5,134.9,91.5,134.9,91L134.9,91z"/>
			</g>
		</g>
		<g>
			<g>
				<path class="st1" d="M133.7,92.3c-0.2-1.8-0.5-3.5-0.9-5.2c-0.1-0.5-0.8-0.3-0.7,0.2c0.4,1.7,0.7,3.3,0.9,5
					c0,0.2,0.2,0.4,0.4,0.4C133.5,92.7,133.7,92.5,133.7,92.3L133.7,92.3z"/>
			</g>
		</g>
		<g>
			<g>
				<path class="st1" d="M132.8,94c-0.4-2-0.8-4-1.4-6c-0.1-0.5-0.8-0.3-0.7,0.2c0.5,2,1,4,1.4,6C132.2,94.7,132.9,94.5,132.8,94
					L132.8,94z"/>
			</g>
		</g>
		<g>
			<g>
				<path class="st1" d="M132,95.5c-0.6-2.2-1.2-4.4-1.8-6.5c-0.1-0.5-0.9-0.3-0.7,0.2c0.6,2.2,1.2,4.4,1.8,6.5
					C131.4,96.1,132.1,95.9,132,95.5L132,95.5z"/>
			</g>
		</g>
		<g>
			<g>
				<path class="st1" d="M131,96c-0.5-1.8-1.1-3.6-1.6-5.4c-0.1-0.5-0.9-0.3-0.7,0.2c0.5,1.8,1.1,3.6,1.6,5.4
					C130.4,96.7,131.1,96.5,131,96L131,96z"/>
			</g>
		</g>
		<g>
			<g>
				<path class="st1" d="M129.4,96.4c-0.7-1.6-1.3-3.3-1.7-5c-0.1-0.5-0.9-0.3-0.7,0.2c0.5,1.7,1.1,3.5,1.8,5.1
					c0.1,0.2,0.4,0.2,0.5,0.1C129.5,96.8,129.5,96.6,129.4,96.4L129.4,96.4z"/>
			</g>
		</g>
		<g>
			<g>
				<path class="st1" d="M127.4,95.8c-0.7-0.9-1-2-1-3.1c0-0.5-0.7-0.5-0.8,0c0,1.2,0.4,2.5,1.1,3.5c0.1,0.2,0.3,0.2,0.5,0.1
					C127.4,96.3,127.5,96,127.4,95.8L127.4,95.8z"/>
			</g>
		</g>
		<g>
			<g>
				<path class="st1" d="M138.3,91.4c0.3-0.7,0.6-1.4,0.9-2.1c0.1-0.2-0.1-0.4-0.3-0.5c-0.2,0-0.4,0.1-0.5,0.3
					c-0.3,0.7-0.6,1.4-0.9,2.1c-0.1,0.2,0.1,0.4,0.3,0.5C138,91.7,138.2,91.6,138.3,91.4L138.3,91.4z"/>
			</g>
		</g>
		<g>
			<g>
				<path class="st1" d="M138.3,93.8c0.1-0.2,0.2-0.4,0.3-0.6c0.1-0.2,0.3-0.5,0.4-0.7c0.1-0.1,0.1-0.1,0.2-0.3
					c0.1-0.1,0.2-0.2,0.3-0.3c0.2-0.2,0.4-0.4,0.6-0.5c0.2-0.1,0.1-0.4,0-0.5c-0.2-0.2-0.4-0.1-0.5,0c-0.9,0.7-1.5,1.7-1.9,2.7
					c-0.1,0.2,0.1,0.4,0.3,0.5C138,94.1,138.2,94,138.3,93.8L138.3,93.8z"/>
			</g>
		</g>
		<g>
			<g>
				<path class="st1" d="M138.4,97.2c0.2-1.1,0.8-2.2,1.7-2.8c0.2-0.1,0.2-0.3,0.1-0.5c-0.1-0.2-0.3-0.3-0.5-0.1
					c-1.1,0.8-1.8,2-2.1,3.3c0,0.2,0.1,0.4,0.3,0.5C138.1,97.5,138.4,97.4,138.4,97.2L138.4,97.2z"/>
			</g>
		</g>
		<g>
			<g>
				<path class="st1" d="M138.6,99.7c0.5-1.1,1.2-2.2,2-3.3c0.1-0.2,0-0.4-0.1-0.5c-0.2-0.1-0.4,0-0.5,0.1c-0.8,1-1.4,2.1-2,3.3
					c-0.1,0.2-0.1,0.4,0.1,0.5C138.3,99.9,138.6,99.9,138.6,99.7L138.6,99.7z"/>
			</g>
		</g>
		<g>
			<g>
				<path class="st1" d="M81.2,98.3c0.1-0.9,0.4-1.8,0.7-2.7c0.1-0.2-0.1-0.4-0.3-0.5c-0.2-0.1-0.4,0.1-0.5,0.3
					c-0.3,0.9-0.5,1.8-0.7,2.7c0,0.2,0,0.4,0.3,0.5C80.9,98.6,81.1,98.5,81.2,98.3L81.2,98.3z"/>
			</g>
		</g>
	</g>
	<g>
		<g>
			<path class="st1" d="M114.7,118.5c-0.2-0.2-0.4-0.3-0.7-0.3c-0.2,0.1-0.4,0.3-0.5,0.5c-0.1,0.2-0.2,0.5,0,0.7
				c0.2,0.2,0.4,0.3,0.7,0.3c0.6-0.1,0.8-0.6,0.8-1.1c0-0.4-0.1-1-0.7-1c0.1,0.2,0.1,0.5,0.2,0.7c0.3-0.2,0.6-0.4,0.9-0.4
				c-0.1,0,0.1,0,0.1,0c0,0,0.1,0,0.1,0c0,0,0,0,0,0c0,0,0,0,0,0c0,0,0.1,0.1,0,0.1c0,0.1,0.1,0.2,0.1,0.2c0,0.1,0,0.2,0,0.3
				c0,0,0,0,0,0c0,0,0,0,0,0c0,0,0,0,0,0c0,0-0.1,0,0,0c0,0-0.1,0-0.1,0c0.1,0,0,0,0,0c0,0,0,0,0,0c0,0-0.1,0-0.1-0.1
				c-0.1-0.1,0,0-0.1-0.1c0-0.1,0,0,0-0.1c0,0,0-0.1,0-0.1c-0.2,0-0.5,0.1-0.7,0.1c0.1,0.2,0.1,0.5,0.2,0.7c0.1,0.2,0.1,0.4,0.3,0.6
				c0.2,0.2,0.4,0.2,0.7,0.2c0.2,0,0.4-0.2,0.5-0.4c0-0.2-0.1-0.5-0.4-0.5c-0.4,0-1.1,0.1-1.2,0.6c0,0.2,0.1,0.5,0.3,0.6
				c0.2,0.1,0.4,0.1,0.7,0.1c0.4,0,0.9-0.2,1-0.6c0.1-0.4-0.1-0.9-0.5-1.1c-0.2-0.1-0.5-0.2-0.7-0.2
				C115,118.5,114.9,118.4,114.7,118.5c0,0-0.1,0-0.1,0.1c0,0,0,0-0.1,0.1c0,0,0,0-0.1,0c0,0,0,0,0.1,0c0.1,0,0.1,0,0.2,0
				c0,0,0,0,0,0c0.1,0,0.1,0.1,0.2,0.1c0,0,0,0.4,0.1,0.2c0,0,0-0.1,0.1-0.2c0-0.1,0-0.2,0-0.3c0-0.2-0.2-0.3-0.3-0.4
				c-0.1-0.1-0.3-0.1-0.4-0.1c-0.2,0-0.3,0.1-0.5,0.1c0.1,0.2,0.2,0.3,0.4,0.5c0-0.2,0.1-0.3,0.1-0.5c0-0.1,0.1-0.2,0.2-0.3
				c0,0,0.1-0.1,0.1-0.1c0.1,0,0,0,0.1,0c0,0,0,0,0.1,0c0.1,0,0.2,0.1,0.3,0.2c0.2,0.1,0.4,0.1,0.5,0c0.1-0.1,0.2-0.4,0-0.5
				c-0.2-0.2-0.4-0.3-0.6-0.4c-0.3-0.1-0.6,0-0.8,0.1c-0.5,0.3-0.6,0.8-0.7,1.3c0,0.3,0.1,0.4,0.4,0.5c0.1,0,0.3,0,0.4,0
				c0.1,0,0.1,0,0.1,0c0,0,0,0,0,0c0,0,0,0,0,0c0,0-0.2-0.2-0.1-0.2c0,0-0.1,0.1-0.1,0.2c0,0.2,0,0.4,0.1,0.5
				c0.1,0.1,0.3,0.2,0.4,0.1c0.1,0,0.1-0.1,0.2-0.1c0,0-0.1,0,0,0c0.1,0,0.4,0,0.6,0.1c0,0,0.1,0,0.1,0c0,0,0.1,0,0,0
				c0,0,0,0,0.1,0.1c0,0,0,0,0,0c0,0.1,0,0,0,0.1c0,0,0,0,0,0c0,0,0,0,0,0c0,0,0,0.1,0,0c0,0,0,0,0,0c0,0,0,0-0.1,0c0.1,0,0,0-0.1,0
				c0,0-0.1,0-0.2,0c0.1,0-0.1,0-0.1,0c-0.1,0-0.1,0-0.2,0c0,0,0,0,0,0c0,0,0,0,0,0c0,0,0,0,0,0c0,0,0,0,0,0c0,0.1,0,0.2-0.1,0.2
				c0,0,0,0,0.1,0c0,0,0.1,0,0.1,0c0.1,0,0.2,0,0.4,0c-0.1-0.2-0.2-0.3-0.4-0.5c0,0,0,0,0,0c0,0,0,0,0.1-0.1c0,0,0,0,0,0
				c0,0,0.1,0,0,0c0,0,0,0,0,0c0,0,0,0,0,0c0-0.1,0-0.1-0.1-0.1c-0.1-0.3-0.1-0.6-0.2-0.9c0-0.2-0.2-0.3-0.4-0.3
				c-0.2,0-0.3,0.2-0.3,0.4c0.1,0.5,0.5,1,1,1c0.6,0,1-0.5,1-1c0-0.5-0.3-1.1-0.8-1.2c-0.5-0.1-1.1,0.2-1.5,0.5
				c-0.1,0.1-0.2,0.3-0.2,0.4c0,0.2,0.2,0.3,0.4,0.3c-0.1,0-0.1,0-0.1-0.1c0,0,0,0,0,0c0,0,0,0,0,0.1c0,0,0,0,0,0c0,0,0,0.1,0,0.1
				c0,0.1,0,0.2,0,0.3c0,0,0,0.1,0,0.1c0,0,0,0,0,0c0,0,0,0,0,0c0,0,0,0,0,0c0,0,0,0,0,0c0,0,0,0,0,0c-0.1,0.1,0.1,0,0,0
				c0,0,0,0,0,0c0,0,0,0,0,0c0,0,0,0.1,0,0.1c0,0,0.1-0.1,0.1-0.1c0,0,0,0,0,0c0,0,0,0,0,0c-0.1,0-0.1,0-0.2-0.1
				c0.1,0.2,0.3,0.2,0.5,0.1C114.7,118.9,114.8,118.6,114.7,118.5L114.7,118.5z"/>
		</g>
	</g>
	<g>
		<g>
			<path class="st1" d="M85.2,118.9c-0.2,0.3-0.3,0.8,0,1.1c0.3,0.4,0.8,0.4,1.2,0.2c0.2-0.1,0.3-0.3,0.4-0.5
				c0.1-0.2,0.2-0.4,0.2-0.6c0-0.5-0.5-0.7-1-0.8c-0.3,0-0.6,0-0.8,0.2c-0.2,0.2-0.3,0.5-0.2,0.7c0.1,0.3,0.5,0.4,0.7,0.1
				c0.2-0.4,0.3-0.9,0-1.3c-0.3-0.4-0.9-0.3-1.2,0.1c-0.1,0.2-0.2,0.4-0.2,0.6c-0.1,0.3-0.1,0.5,0.1,0.7c0.2,0.3,0.6,0.5,1,0.5
				c0.5,0,0.9-0.3,1.1-0.7c0.1-0.1,0.1-0.3,0-0.4c-0.1-0.1-0.2-0.2-0.4-0.1c-0.3,0.1-0.6,0.3-0.8,0.5c-0.1,0.2,0,0.4,0.1,0.5
				c0.2,0.1,0.3,0.1,0.5,0c0.3-0.3,0.5-0.7,0.5-1.1c0-0.2,0-0.4-0.1-0.6c-0.1-0.2-0.1,0.2-0.1,0.2c0,0,0.1,0,0,0c0,0,0,0,0,0
				c0.1,0,0.1,0,0.2,0.1c0.1,0,0.1,0.1,0.2,0.1c0,0,0.1,0,0.1,0.1c0,0,0.1,0.1,0.1,0c0,0,0.1,0,0.1,0.1c-0.1-0.1,0.1,0.1,0,0
				c0,0,0,0,0,0c0,0,0,0,0,0c0,0,0,0,0,0c-0.1,0.1-0.2,0.3-0.3,0.4c0,0-0.1,0-0.1,0.1c0.1,0-0.1,0,0,0c0,0-0.1,0,0,0c0,0,0,0,0,0
				c0,0,0,0,0,0c0,0.2,0,0.3,0.1,0.5c0,0,0-0.1,0,0c0,0,0,0,0,0c0,0.1,0,0,0,0c0,0,0,0,0,0c0,0,0.1,0,0.1,0c0,0,0,0,0,0
				c0,0,0.1,0,0.1,0c-0.1,0,0,0,0,0c0,0,0.1,0,0,0c0,0,0,0,0.1,0c0,0,0,0,0,0c0,0,0,0,0,0c0,0,0,0,0,0c0,0,0,0,0,0c0,0,0,0.1,0,0
				c0,0,0,0.1,0,0c0,0,0,0,0,0.1c0,0,0,0.1,0,0c0,0,0,0.1,0,0.1c0,0.1,0-0.1,0,0c0,0,0,0,0,0.1c0,0,0,0,0,0c0,0-0.1,0.1,0,0
				c0,0,0,0,0,0c0.1,0-0.1,0-0.1,0c0,0-0.1,0-0.1,0c0,0,0,0,0,0c0,0-0.1,0-0.1,0c0,0,0,0,0,0c0,0-0.1,0-0.1,0c0,0,0,0,0,0
				c0,0-0.1-0.1,0,0c0,0,0-0.1-0.1-0.1c-0.1-0.2-0.3-0.2-0.5-0.1c-0.2,0.1-0.2,0.3-0.1,0.5c0.2,0.4,0.7,0.7,1.2,0.6
				c0.5-0.1,0.8-0.5,0.8-0.9c0.1-0.4-0.2-0.9-0.6-1c-0.4-0.1-0.9,0-1.1,0.4c-0.1,0.2-0.1,0.3,0.1,0.5c0.4,0.4,0.9,0.2,1.3-0.1
				c0.4-0.3,0.7-0.8,0.5-1.3c-0.2-0.4-0.7-0.6-1-0.7c-0.3-0.1-0.5-0.1-0.8,0.1c-0.1,0.1-0.2,0.2-0.2,0.3c0,0.1,0,0.3,0,0.4
				c0,0.2,0,0.3,0,0.5c0,0.1,0,0.1-0.1,0.2c0,0,0,0,0,0.1c0,0.1,0,0,0,0c0,0-0.1,0.1-0.1,0.1c0.2,0.2,0.4,0.3,0.6,0.5
				c0.1-0.1,0.2-0.2,0.4-0.2c-0.1-0.2-0.3-0.4-0.4-0.6c-0.1,0.1-0.1,0.2-0.2,0.2c-0.1,0-0.1,0.1-0.1,0.1c0,0-0.1,0-0.1,0
				c0,0-0.1,0,0,0c-0.1,0-0.1,0-0.2,0c0.1,0,0,0,0,0c0,0,0,0,0,0c0,0,0,0,0,0c0,0-0.1,0-0.1,0c0,0,0,0,0,0c0,0,0,0,0,0c0,0,0,0,0,0
				c0,0.1,0,0,0,0c0-0.1,0-0.3,0.1-0.4c0,0,0-0.1,0.1-0.1c0,0,0,0,0,0c0,0,0,0,0,0c0,0,0,0,0,0c0,0,0,0,0,0c0,0,0,0,0,0c0,0,0,0,0,0
				c0.1,0,0,0,0,0c0,0,0,0,0,0c0,0,0,0,0,0c0,0,0,0.1,0,0c0,0.1-0.1,0.3-0.1,0.4c0.2,0,0.5,0.1,0.7,0.1c0,0,0,0.1,0,0c0,0,0,0,0,0
				c0,0,0,0,0,0c0,0,0,0,0,0c0,0,0.1,0,0,0c0.1,0,0.2,0,0.4,0c0,0,0.1,0,0.1,0c0,0,0,0,0,0c0,0,0,0,0,0c0,0,0-0.1,0,0c0,0,0,0,0,0
				c0,0.1,0,0,0,0c0,0,0,0.1,0,0.1c0,0.1,0,0.1-0.1,0.1c-0.1,0.1-0.1,0.2-0.2,0.2c0,0-0.1,0,0,0c0,0,0,0,0,0c0,0,0,0,0,0
				c0,0-0.1,0,0,0c0,0,0,0,0,0c0,0,0,0,0,0c0,0,0-0.1,0,0c0,0,0-0.1,0-0.1c0,0,0-0.1,0-0.1c0,0,0-0.1,0,0c0,0,0-0.1,0-0.1
				c0,0,0-0.1,0-0.1c0-0.1,0,0,0,0c0.1-0.2,0.1-0.4-0.1-0.5C85.5,118.7,85.3,118.8,85.2,118.9L85.2,118.9z"/>
		</g>
	</g>
	<g>
		<g>
			<path class="st1" d="M85.3,118.5c0,0,0-0.1,0-0.1C85.3,118.4,85.3,118.4,85.3,118.5c0-0.1,0-0.2,0-0.2c0,0,0,0.1,0,0.1
				c0-0.1,0.1-0.1,0.1-0.2c0,0,0,0.1-0.1,0.1c0-0.1,0.1-0.1,0.1-0.1c0,0-0.1,0-0.1,0.1c0.1,0,0.1-0.1,0.2-0.1c0,0-0.1,0-0.1,0
				c0.1,0,0.1,0,0.2-0.1c0,0-0.1,0-0.1,0c0.1,0,0.1,0,0.2,0c0,0-0.1,0-0.1,0c0.1,0,0.1,0,0.2,0.1c0,0-0.1,0-0.1,0c0,0,0,0,0,0
				c0.1,0,0.2,0.1,0.3,0c0.1,0,0.2-0.1,0.2-0.2c0.1-0.2,0.1-0.4-0.1-0.5c-0.2-0.1-0.4-0.1-0.6-0.1c-0.2,0-0.4,0.1-0.6,0.2
				c-0.3,0.2-0.5,0.6-0.5,1c0,0.2,0.2,0.4,0.4,0.4C85.2,118.9,85.3,118.7,85.3,118.5L85.3,118.5z"/>
		</g>
	</g>
	<g>
		<g>
			<path class="st1" d="M84.8,119c-0.2,0.3-0.2,0.8,0,1.1c0.1,0.2,0.3,0.3,0.5,0.4c0.2,0.1,0.4,0.1,0.7,0c0.2,0,0.4-0.2,0.6-0.3
				c0.2-0.1,0.2-0.3,0.1-0.5c-0.1-0.2-0.3-0.2-0.5-0.1c-0.1,0.1-0.2,0.1-0.3,0.2c0,0,0.1,0,0.1,0c-0.1,0-0.2,0.1-0.3,0.1
				c0,0,0.1,0,0.1,0c-0.1,0-0.1,0-0.2,0c0,0,0.1,0,0.1,0c-0.1,0-0.1,0-0.2,0c0,0,0.1,0,0.1,0c0,0-0.1,0-0.1-0.1c-0.1,0,0.1,0.1,0,0
				c0,0,0,0,0,0c0,0,0,0,0,0c0.1,0.1,0,0.1,0,0c0,0,0-0.1-0.1-0.1c0,0,0,0.1,0,0.1c0-0.1,0-0.1,0-0.2c0,0,0,0.1,0,0.1
				c0-0.1,0-0.1,0-0.2c0,0,0,0.1,0,0.1c0-0.1,0-0.1,0-0.1c0,0,0,0.1,0,0.1c0,0,0-0.1,0.1-0.1c0.1-0.1,0.1-0.2,0-0.3
				c0-0.1-0.1-0.2-0.2-0.2c-0.1,0-0.2-0.1-0.3,0C84.9,118.9,84.8,118.9,84.8,119L84.8,119z"/>
		</g>
	</g>
	<g>
		<g>
			<path class="st1" d="M86.6,118.8c0.1-0.1,0.1-0.2,0.2-0.4c0,0,0-0.1,0-0.1c0,0,0-0.1,0-0.1c0,0,0-0.1-0.1-0.1
				c0,0-0.1-0.1-0.1-0.1c0,0-0.1,0-0.1,0c-0.1,0-0.1,0-0.2,0c0,0-0.1,0-0.1,0c-0.1,0-0.1,0.1-0.1,0.1c-0.1,0.1-0.1,0.2-0.2,0.4
				c0,0,0,0.1,0,0.1c0,0,0,0.1,0,0.1c0,0,0,0.1,0.1,0.1c0,0,0.1,0.1,0.1,0.1c0,0,0.1,0,0.1,0c0.1,0,0.1,0,0.2,0c0,0,0.1,0,0.1,0
				C86.5,118.9,86.6,118.8,86.6,118.8L86.6,118.8z"/>
		</g>
	</g>
	<g>
		<g>
			<path class="st1" d="M114.4,118.3c0.1-0.1,0.3-0.2,0.4-0.2c0,0,0.1,0,0.1,0c0,0,0.1,0,0,0c0.1,0,0.1-0.1,0.2-0.1c0,0,0.1,0,0.1,0
				c0.1,0-0.1,0,0,0c0.1,0,0.1,0,0.2,0c0.1,0-0.1,0,0,0c0,0,0.1,0,0.1,0c0,0,0.1,0,0.1,0c0,0-0.1,0,0,0c0,0,0,0,0,0c0,0,0.1,0,0.1,0
				c0,0,0,0,0,0c0,0,0,0,0,0c0,0,0.1,0,0.1,0.1c0,0,0,0,0,0c0,0,0,0,0,0c0,0.1,0-0.1,0,0c0,0,0,0,0,0.1c0,0.1,0-0.1,0,0
				c0,0,0,0,0,0.1c0,0.1,0-0.1,0,0c0,0,0,0.1,0,0.1c0,0,0-0.1,0,0c0,0,0,0,0,0.1c0,0,0-0.1,0,0c0,0,0,0,0,0c-0.1,0.1,0.1,0,0,0
				c0,0,0,0,0,0c0,0,0,0,0,0c0,0-0.1,0-0.1,0c-0.2,0-0.3,0.3-0.3,0.5c0.1,0.2,0.3,0.3,0.5,0.3c0.6-0.1,0.8-0.8,0.6-1.3
				c-0.3-0.5-0.9-0.7-1.5-0.6c-0.3,0.1-0.6,0.3-0.9,0.4c-0.2,0.1-0.2,0.3-0.1,0.5C114,118.3,114.2,118.4,114.4,118.3L114.4,118.3z"
				/>
		</g>
	</g>
	<g>
		<g>
			<path class="st1" d="M89.8,127.1c0.5,1.2,1,2.4,1.6,3.5c0.5,0.8,1.2,1.7,2.2,1.9c2.4,0.6,3.9-2.2,5.1-3.8
				c-0.4,0.1-0.8,0.1-1.2,0.2c1.3,1.6,3,4.4,5.4,3.9c2.4-0.5,3.4-3.6,4.3-5.5c0.4-0.9-0.9-1.6-1.3-0.8c-0.5,0.9-0.9,1.8-1.4,2.7
				c-0.4,0.8-0.9,1.8-1.8,2c-0.9,0.3-1.6-0.5-2.2-1.1c-0.7-0.8-1.3-1.6-2-2.4c-0.3-0.4-0.9-0.2-1.2,0.2c-0.7,0.9-2.2,3.9-3.8,2.9
				c-0.6-0.4-0.9-1.1-1.2-1.8c-0.4-0.9-0.9-1.8-1.3-2.8C90.7,125.5,89.4,126.3,89.8,127.1L89.8,127.1z"/>
		</g>
	</g>
	<g>
		<g>
			<path class="st1" d="M121.3,122.9c3.8-1.1,7.7-1.8,11.7-1.9c1,0,1-1.5,0-1.5c-4.1,0.2-8.2,0.8-12.1,2
				C120,121.8,120.4,123.2,121.3,122.9L121.3,122.9z"/>
		</g>
	</g>
	<g>
		<g>
			<path class="st1" d="M123,126.1c3,0.2,6,0.4,9.1,0.6c1,0.1,1-1.4,0-1.5c-3-0.2-6-0.4-9.1-0.6C122,124.5,122,126,123,126.1
				L123,126.1z"/>
		</g>
	</g>
	<g>
		<g>
			<path class="st1" d="M79.5,124.2c-4.3-1.4-8.7-2.2-13.2-2.5c0,0.5,0,1,0,1.5c0.1,0,0.3,0,0.4,0c1,0,1-1.5,0-1.5
				c-0.1,0-0.3,0-0.4,0c-1,0-1,1.4,0,1.5c4.3,0.3,8.6,1.2,12.8,2.5C80.1,125.9,80.5,124.5,79.5,124.2L79.5,124.2z"/>
		</g>
	</g>
	<g>
		<g>
			<path class="st1" d="M78,127.6c-2.6,0.3-5.1,0.5-7.7,0.8c-0.4,0-0.8,0.3-0.8,0.8c0,0.4,0.3,0.8,0.8,0.8c2.6-0.3,5.1-0.5,7.7-0.8
				c0.4,0,0.8-0.3,0.8-0.8C78.7,128,78.4,127.6,78,127.6L78,127.6z"/>
		</g>
	</g>
	<g>
		<path class="st2" d="M144.8,109.9c-0.6-3.4-1.2-6.8-2.8-9.9c-1.4-2.7-3.6-4.8-6.2-6.2c-5.5-3.1-12-3.5-18-4.9
			c-2.1-0.5-4.3-1.1-6.4-1.8c-1-0.3-2.1-0.7-3.1-1.1c-0.7-0.2-1.8-0.6-2.2-1.3c-0.2-0.3-0.2-0.2,0-0.5c0.2-0.2,0.9-0.3,1.2-0.4
			c0.9-0.2,1.8-0.3,2.7-0.3c2,0,3.9,0.6,5.6,1.6c1,0.6,2.3-0.4,1.9-1.5c-1.2-3.9-5.1-6.4-8.7-8.1c-4-1.8-8.3-2.6-12.6-2.7
			c-4.7-0.1-9.3,0.6-13.8,1.8c-4.7,1.2-9.4,2.7-13.9,4.5c-2.1,0.8-4.4,2.6-4,4.9c0.4,2.5,3.3,3.9,5.3,5c0.5,0.3,1.2,0.2,1.6-0.2
			c4.3-4.3,9.6-7.6,15.4-9.4c2.7-0.8,6-0.7,8.8-0.6c1.4,0.1,1.8,1.3,2.1,2.4c0.4,1.2,0.7,2.4,0.9,3.7c-12.1,2.9-24.1,7.8-33,16.7
			c-1,1-2.4,2.2-3.2,3.6c-0.6-0.1-4.9,14.2-4.6,21c0.2,3.3,0.7,6.7,1.5,9.9c0.7,2.6,1.8,5.3,4,7c2.4,1.9,5.6,1.8,8.3,0.7
			c2.3-1,10.4-1.4,9.8-4.4c-0.3-1.5-0.9-6.5-1.9-7.5c-1-1.1-6.5-1.1-7.3-2.3c-1.4-2.5-8.9-6.3-8.4-9.1c1.8-11.1,25.6-16,28.6-14.8
			c3.1,1.2,18.6-0.7,23.7-0.7c3.5,0,12,1.6,13.1,4.7c1,2.9,8.9,6.5,8.9,9.6c0,2.9-12.5,8.9-14.1,11.5c-1.6,2.7-0.3,6.3-0.7,3.1
			c-0.4-3.1-0.8,2.8-0.3,4.2c0.2,0.5,0.7,1,1.3,1c2-0.2,4-0.3,6-0.5c1.9-0.2,4-0.1,5.9-0.6c3.1-0.8,5.5-3.9,6.9-6.6
			C146.6,124.7,146,117.1,144.8,109.9z"/>
		<path class="st3" d="M127,78.7c-6.2-6.9-15.3-9.7-24.1-11.3c-4.9-0.9-10-1.6-15.1-1.7c-5.8,0-11.4,1.3-17,2.4
			c-3.2,0.6-6.5,1.2-9.7,1.9c-1,0.2-2.2,0.8-2,2c-1.7-0.1-3.4,1.3-3.9,3c-0.8,2.7,3.6,5.2,5.8,6.4c2.3,1.2,3.3,2,5.5,0.1
			c2.4-2,4.9-3.3,7.9-4.2c11.7-3.9,26.1-7.6,37.4-0.4c1.3,0.8,2.5,1.8,3.6,2.9c1,1.1,1.8,2.3,3.3,2.8c2.8,1,5.9-0.5,8.2-1.9
			C127.5,80.3,127.6,79.3,127,78.7z"/>
		<g>
			<g>
				<path class="st1" d="M100.7,85.1c0.8-3.3-1.7-6.2-4.8-7.1c-3.3-0.9-7.2-0.2-10.4,0.8c-6.4,1.9-12.1,6-15.9,11.5
					c0.9,0,1.7,0,2.6,0c-2-3.4-5.6-5.2-8.3-7.9c-0.1,0.8-0.2,1.6-0.3,2.4c6.5-4.3,13.7-7.5,21.2-9.2c7.7-1.8,16.7-2.2,24,1.2
					c3.7,1.7,7,4.3,9.1,7.9c0.2-0.7,0.4-1.4,0.5-2.1c-1,0.7-2,1.5-3,2.2c0.6,0.1,1.2,0.2,1.8,0.2c-1.9-2.1-4.5-3.9-7.4-3.9
					c-2.6,0-5.1,1.3-6.3,3.6c0.6-0.2,1.1-0.5,1.7-0.7c-1.7-0.5-3.4-0.5-5.1-0.8c-1.9-0.4-2.7,2.5-0.8,2.9c1.7,0.3,3.4,0.3,5.1,0.8
					c0.6,0.2,1.4-0.1,1.7-0.7c0.8-1.5,2.4-2.3,4-2.1c2,0.2,3.7,1.5,5,3c0.4,0.4,1.3,0.6,1.8,0.2c1-0.7,2-1.5,3-2.2
					c0.6-0.5,1-1.3,0.5-2.1c-4.4-7.4-12.6-10.9-20.8-11.7c-8.6-0.8-17.3,1-25.2,4.2c-4.4,1.8-8.5,3.9-12.4,6.5
					c-0.8,0.5-1,1.6-0.3,2.4c2.5,2.5,6,4.2,7.9,7.3c0.6,1,2,0.9,2.6,0c3-4.3,7.4-7.7,12.3-9.5c2.4-0.9,5-1.5,7.6-1.6
					c2.1-0.1,6.4,0.5,5.7,3.6C97.4,86.2,100.3,87,100.7,85.1L100.7,85.1z"/>
			</g>
		</g>
		<g>
			<g>
				<path class="st1" d="M71.5,89.6c-2.9-2.1-5.9-5.1-8.7-7.6c-1.7-1.5-3.3-3-5.1-4.4c-1.2-1-2.5-2.1-4-2.7c0.1,0.8,0.2,1.6,0.3,2.4
					c3.8-3.4,8.6-5.3,13.4-6.7c5.4-1.6,11-2.7,16.6-3.2c10.4-1,21.2,0.1,30.7,4.6c5,2.3,9.6,5.4,13.4,9.4c0.2-0.8,0.4-1.7,0.7-2.5
					c-4.1,1.2-7.7,3.7-11.8,5.1c-1.8,0.6-1,3.5,0.8,2.9c4-1.4,7.6-4,11.8-5.1c1.1-0.3,1.4-1.7,0.7-2.5c-7.2-7.5-17-12.2-27.2-14.1
					c-11.7-2.2-23.8-0.9-35.3,2.3c-5.8,1.6-11.5,3.7-15.9,7.8c-0.7,0.6-0.6,2,0.3,2.4c1.4,0.6,2.6,1.6,3.7,2.5
					c1.8,1.5,3.5,3,5.3,4.5c2.9,2.6,5.7,5.4,8.8,7.6C71.6,93.3,73.1,90.7,71.5,89.6L71.5,89.6z"/>
			</g>
		</g>
		<g>
			<g>
				<path class="st1" d="M99,83.5c-7.5,0.7-14.6,3.2-21,7c-6.2,3.7-12.1,8-15.9,14.3c-1.8,3-3.3,6.3-4.4,9.6
					c-1.3,3.8-1.6,7.7-1.3,11.7c0.4,4,0.9,8.3,2.1,12.1c1.1,3.3,3.1,6.4,6.4,7.8c2.1,0.9,4.1,0.6,6.3,0.2c2.4-0.5,4.8-1.1,7.1-2
					c1.7-0.7,3.9-1.6,4.4-3.5c0.6-2.3-0.2-5.2-1-7.4c-0.3-0.9-0.7-1.9-1.4-2.6c-0.6-0.6-1.5-0.7-2.3-0.9c-2.3-0.7-4.4-1.6-6.6-2.6
					c-2.1-1-4.3-2.1-5.9-3.8c-0.2-0.3-0.5-0.5-0.6-0.8c-0.1-0.3-0.1-0.2-0.1-0.5c0.1-1.2,0.6-2.4,1.2-3.4c2.8-4.7,8.9-7.1,13.8-8.7
					c4.4-1.5,8.9-2.5,13.5-3.1c5.5-0.7,11-1,16.5-0.9c5.1,0.1,10.5,0.5,15.3,2.4c3.9,1.6,7.1,5.2,9.6,8.5c1.2,1.6,2.2,2.8,0.9,4.6
					c-1.4,1.9-4,2.9-6.1,3.9c-2.3,1-4.9,1.8-7,3.2c-2.1,1.5-1.9,5.3-1.4,7.6c0.6,3.3,5,4.6,7.9,4.9c3.2,0.3,6.6-0.6,9.3-2.2
					c6.2-3.7,8.9-10.9,9.3-17.8c0.4-7.3-1.6-14.9-5.5-21.1c-1.6-2.5-3.4-5-5.9-6.8c-2.1-1.5-4.5-2.6-6.9-3.6
					c-5.5-2.2-11.3-3.5-17-4.6c-2.3-0.4-4.7-0.8-7-1.1c-1.9-0.2-1.9,2.8,0,3c5,0.6,10,1.6,14.9,2.9c4.9,1.3,10.3,2.8,14.5,5.9
					c2.3,1.7,4,4.3,5.4,6.7c1.8,3,3,6.3,3.8,9.8c1.4,6.6,1.1,14.2-2.9,19.9c-3.3,4.8-10.8,8.1-16.1,4.4c-1.2-0.8-1.1-2.2-1.1-3.5
					c0-0.6,0-1.3,0.2-1.8c0.2-0.4,0.5-0.5,0.9-0.7c2.3-1.2,4.7-2.1,7-3.1c3.6-1.7,9-5.1,6.7-9.9c-1-2.1-2.8-4-4.4-5.7
					c-1.4-1.5-2.9-3.1-4.6-4.3c-3.6-2.7-8.4-3.5-12.7-4.1c-5.4-0.7-10.9-0.7-16.4-0.4c-9.7,0.6-19.6,2.3-28.4,6.6
					c-4.5,2.2-9.3,5.7-10.4,10.9c-0.5,2.1,0.1,3.7,1.7,5.2c1.7,1.6,3.8,2.8,5.9,3.8c2.1,1.1,4.3,2,6.6,2.8c0.1,0,2.3,0.8,2.4,0.7
					c-0.1,0.3-0.5-0.7-0.5-0.2c0,0.2,0.2,0.4,0.3,0.6c0.2,0.4,0.4,0.9,0.5,1.3c0.4,1.1,0.7,2.3,0.8,3.5c0.1,0.5,0,1,0,1.5
					c0,0.3,0.1,0.1-0.2,0.4c-1.2,1.1-3.6,1.7-5.3,2.2c-1.9,0.6-4.1,1.1-6,1.3c-2.7,0.2-5-2-6.2-4.3c-1.7-3.3-2.1-7.5-2.6-11.2
					c-0.5-3.9-0.7-7.8,0.5-11.6c1.8-6.2,5-12.7,10-17c5.5-4.6,11.7-8.5,18.5-10.9c3.3-1.2,6.8-2,10.3-2.3
					C100.9,86.3,100.9,83.3,99,83.5L99,83.5z"/>
			</g>
		</g>
		<g>
			<g>
				<path class="st1" d="M57.1,73.6c2.8,2.3,5.6,4.7,8.4,7.2c0.4,0.3,0.9-0.2,0.5-0.5c-2.8-2.5-5.6-4.9-8.4-7.2
					C57.3,72.7,56.7,73.3,57.1,73.6L57.1,73.6z"/>
			</g>
		</g>
		<g>
			<g>
				<path class="st1" d="M62.1,71.4c1.9,2.9,3.7,5.7,5.6,8.6c0.2,0.4,0.8,0.1,0.7-0.3c0-0.2-0.1-0.4-0.1-0.6
					c-0.1-0.5-0.8-0.3-0.7,0.2c0,0.2,0.1,0.4,0.1,0.6c0.2-0.1,0.5-0.2,0.7-0.3c-1.9-2.9-3.7-5.7-5.6-8.6
					C62.5,70.6,61.8,71,62.1,71.4L62.1,71.4z"/>
			</g>
		</g>
		<g>
			<g>
				<path class="st1" d="M65.1,70.3c1.4,2.6,2.8,5.2,4.3,7.8c0.2,0.4,0.9,0,0.6-0.4c-1.4-2.6-2.8-5.2-4.3-7.8
					C65.6,69.5,64.9,69.9,65.1,70.3L65.1,70.3z"/>
			</g>
		</g>
		<g>
			<g>
				<path class="st1" d="M67.9,69.3c0.7,1.7,1.4,3.4,2.2,5.1c0.4,0.8,0.8,1.7,1.2,2.5c0.1,0.2,0.3,0.5,0.7,0.4
					c0.3-0.1,0.4-0.4,0.3-0.7c-0.1-0.1-0.2-0.2-0.3-0.2c0,0,0,0,0,0c-0.5,0-0.5,0.8,0,0.8c0,0,0,0,0,0c-0.1-0.1-0.2-0.1-0.3-0.2
					c0,0,0,0,0,0c0-0.1,0-0.2,0-0.3c0,0,0,0,0,0.1c0.1-0.1,0.1-0.1,0.2-0.2c0,0,0,0,0,0c0.1,0,0.2,0,0.3,0c0.1,0.1,0.1,0,0-0.1
					c0-0.1-0.1-0.2-0.1-0.3c-0.1-0.1-0.1-0.3-0.2-0.4c-0.2-0.3-0.3-0.6-0.4-0.9c-0.3-0.6-0.6-1.3-0.9-1.9c-0.6-1.3-1.1-2.6-1.7-3.9
					C68.4,68.6,67.7,68.8,67.9,69.3L67.9,69.3z"/>
			</g>
		</g>
		<g>
			<g>
				<path class="st1" d="M71.5,69.7c1.3,2.2,2.3,4.6,3.1,7.1c0.1,0.2,0.3,0.3,0.6,0.2c0.4-0.2,0.4-0.8,0-1c-0.4-0.3-0.8,0.4-0.4,0.6
					c0-0.1,0-0.2,0-0.2c0.2,0.1,0.4,0.1,0.6,0.2c-0.8-2.5-1.8-5-3.1-7.2C71.9,68.9,71.2,69.3,71.5,69.7L71.5,69.7z"/>
			</g>
		</g>
		<g>
			<g>
				<path class="st1" d="M73.7,68.6c0.9,2.3,1.8,4.6,2.6,6.8c0.1,0.3,0.6,0.4,0.7,0c0-0.2,0.1-0.4,0.1-0.6c0.1-0.5-0.6-0.7-0.7-0.2
					c0,0.2-0.1,0.4-0.1,0.6c0.2,0,0.5,0,0.7,0c-0.9-2.3-1.8-4.6-2.6-6.8C74.2,68,73.5,68.2,73.7,68.6L73.7,68.6z"/>
			</g>
		</g>
		<g>
			<g>
				<path class="st1" d="M76.3,68c0.6,2.5,1.3,5,2,7.4c0.1,0.4,0.7,0.3,0.7-0.1c0-0.1,0-0.3,0-0.4c0-0.5-0.8-0.5-0.8,0
					c0,0.1,0,0.3,0,0.4c0.2,0,0.5-0.1,0.7-0.1c-0.8-2.5-1.5-4.9-2-7.4C76.9,67.4,76.1,67.6,76.3,68L76.3,68z"/>
			</g>
		</g>
		<g>
			<g>
				<path class="st1" d="M78.4,67.6c0.5,2.2,1,4.4,1.6,6.6c0.1,0.4,0.6,0.3,0.7,0c0-0.1,0.1-0.3,0.1-0.4c0.1-0.5-0.6-0.7-0.7-0.2
					c0,0.1-0.1,0.3-0.1,0.4c0.2,0,0.5,0,0.7,0c-0.5-2.2-1-4.4-1.6-6.6C79,66.9,78.2,67.1,78.4,67.6L78.4,67.6z"/>
			</g>
		</g>
		<g>
			<g>
				<path class="st1" d="M81,67.6c0.4,2.1,0.8,4.2,1.4,6.2c0.1,0.4,0.7,0.3,0.7-0.1c0-0.1,0-0.3,0-0.4c0-0.5-0.7-0.5-0.8,0
					c0,0.1,0,0.3,0,0.4c0.2,0,0.5-0.1,0.7-0.1c-0.5-2.1-1-4.1-1.4-6.2C81.6,66.9,80.9,67.1,81,67.6L81,67.6z"/>
			</g>
		</g>
		<g>
			<g>
				<path class="st1" d="M83.6,67.3c0.4,2,0.7,4,1.1,6c0.1,0.4,0.7,0.3,0.7-0.1c0-0.2,0-0.4,0-0.6c0-0.5-0.7-0.5-0.8,0
					c0,0.2,0,0.4,0,0.6c0.2,0,0.5-0.1,0.7-0.1c-0.4-2-0.7-4-1.1-6C84.2,66.6,83.5,66.8,83.6,67.3L83.6,67.3z"/>
			</g>
		</g>
		<g>
			<g>
				<path class="st1" d="M85.8,66.8c0,2.1,0.3,4.2,0.8,6.2c0.1,0.4,0.6,0.4,0.7,0c0.1-0.2,0.1-0.4,0.2-0.6c0.1-0.5-0.6-0.7-0.7-0.2
					c-0.1,0.2-0.1,0.4-0.2,0.6c0.2,0,0.5,0,0.7,0c-0.5-2-0.7-4-0.8-6C86.6,66.4,85.8,66.4,85.8,66.8L85.8,66.8z"/>
			</g>
		</g>
		<g>
			<g>
				<path class="st1" d="M87.6,66.8c0.3,1.9,0.6,3.7,0.8,5.6c0.1,0.4,0.8,0.3,0.7-0.1c0-0.1,0-0.3,0-0.4c0-0.5-0.8-0.5-0.8,0
					c0,0.1,0,0.3,0,0.4c0.2,0,0.5-0.1,0.7-0.1c-0.3-1.9-0.6-3.7-0.8-5.6c0-0.2-0.3-0.3-0.5-0.3C87.7,66.4,87.6,66.6,87.6,66.8
					L87.6,66.8z"/>
			</g>
		</g>
		<g>
			<g>
				<path class="st1" d="M89.6,66.7c0.2,1.9,0.4,3.7,0.7,5.6c0.1,0.5,0.7,0.5,0.8,0c0-0.2,0-0.5,0.1-0.7c0-0.5-0.7-0.5-0.8,0
					c0,0.2,0,0.5-0.1,0.7c0.2,0,0.5,0,0.8,0c-0.2-1.9-0.4-3.7-0.7-5.6c0-0.2-0.2-0.4-0.4-0.4C89.8,66.3,89.6,66.5,89.6,66.7
					L89.6,66.7z"/>
			</g>
		</g>
		<g>
			<g>
				<path class="st1" d="M91.3,66.5c0.1,1.9,0.3,3.7,0.4,5.6c0,0.5,0.7,0.5,0.8,0c0-0.1,0-0.3,0.1-0.4c0-0.2-0.2-0.4-0.4-0.4
					c-0.2,0-0.4,0.2-0.4,0.4c0,0.1,0,0.3-0.1,0.4c0.2,0,0.5,0,0.8,0c-0.1-1.9-0.3-3.7-0.4-5.6C92,66,91.3,66,91.3,66.5L91.3,66.5z"
					/>
			</g>
		</g>
		<g>
			<g>
				<path class="st1" d="M93.2,66.5c0.1,1.8,0.3,3.5,0.4,5.3c0,0.5,0.7,0.5,0.8,0c0-0.1,0-0.3,0-0.4c0-0.5-0.7-0.5-0.8,0
					c0,0.1,0,0.3,0,0.4c0.2,0,0.5,0,0.8,0c-0.1-1.8-0.3-3.5-0.4-5.3C93.9,66,93.1,66,93.2,66.5L93.2,66.5z"/>
			</g>
		</g>
		<g>
			<g>
				<path class="st1" d="M95.2,67c0.2,1.5,0.2,3,0.2,4.5c0,0.5,0.7,0.5,0.8,0c0.1-1.5,0-3-0.2-4.5c0-0.2-0.2-0.4-0.4-0.4
					C95.3,66.6,95.1,66.8,95.2,67L95.2,67z"/>
			</g>
		</g>
		<g>
			<g>
				<path class="st1" d="M97.5,66.8c-0.1,1.8,0,3.6,0.3,5.4c0,0.2,0.3,0.3,0.5,0.3c0.2-0.1,0.3-0.3,0.3-0.5
					c-0.3-1.7-0.3-3.5-0.3-5.2C98.3,66.4,97.5,66.4,97.5,66.8L97.5,66.8z"/>
			</g>
		</g>
		<g>
			<g>
				<path class="st1" d="M99.5,67c0.1,1.6,0.1,3.2,0.2,4.8c0,0.5,0.8,0.5,0.8,0c-0.1-1.6-0.1-3.2-0.2-4.8
					C100.2,66.5,99.5,66.5,99.5,67L99.5,67z"/>
			</g>
		</g>
		<g>
			<g>
				<path class="st1" d="M101.4,67.4c0.4,1.1,0.1,2.3,0,3.4c0,0.3,0,0.7-0.1,1c0,0.2,0,0.3,0,0.5c0,0.1,0,0.1,0,0.2c0,0.1,0-0.1,0,0
					c0.1-0.1,0.1-0.1,0.2-0.2c0,0,0,0,0,0c0.2,0,0.3,0.1,0.5,0.1c0.1,0.2,0,0.2,0,0.1c0-0.5-0.7-0.5-0.8,0c0,0.1,0,0.2,0.1,0.3
					c0.1,0.2,0.4,0.2,0.5,0.1c0.3-0.1,0.2-0.6,0.2-0.9c0-0.4,0.1-0.8,0.1-1.1c0.1-1.2,0.4-2.5,0-3.7C102,66.8,101.3,67,101.4,67.4
					L101.4,67.4z"/>
			</g>
		</g>
		<g>
			<g>
				<path class="st1" d="M103.6,68.4c-0.2,1.4-0.3,2.8-0.5,4.2c0,0.2,0.2,0.4,0.4,0.4c0.2,0,0.4-0.2,0.4-0.4
					c0.2-1.4,0.3-2.8,0.5-4.2c0-0.2-0.2-0.4-0.4-0.4C103.7,68,103.6,68.2,103.6,68.4L103.6,68.4z"/>
			</g>
		</g>
		<g>
			<g>
				<path class="st1" d="M105.5,68.3c-0.2,1.6-0.5,3.2-0.8,4.7c-0.1,0.5,0.6,0.7,0.7,0.2c0.3-1.6,0.6-3.3,0.8-4.9
					c0-0.2-0.2-0.4-0.4-0.4C105.6,67.9,105.5,68.1,105.5,68.3L105.5,68.3z"/>
			</g>
		</g>
		<g>
			<g>
				<path class="st1" d="M108,68.9c-0.4,1-0.6,2.1-0.9,3.1c-0.1,0.3-0.1,0.5-0.1,0.8c0,0.2-0.1,0.5,0,0.7c0.1,0.2,0.5,0.3,0.7,0.1
					c0.2-0.2,0.2-0.4,0-0.6c-0.1-0.1-0.2-0.1-0.4-0.1c0,0,0,0,0,0c-0.5,0.1-0.3,0.8,0.2,0.7c0,0,0,0,0,0c-0.1,0-0.2-0.1-0.4-0.1
					c0,0,0,0,0,0c0-0.1-0.1-0.2-0.1-0.3c0,0,0,0,0,0c0-0.1,0.1-0.1,0.1-0.2c0,0,0,0,0,0c0.1,0,0.2-0.1,0.3-0.1c0,0,0,0,0,0
					c0.1,0,0.1,0,0.2,0.1c0,0,0,0,0,0c0,0,0.1,0.1,0.1,0.1c0.1,0.1,0-0.1,0.1-0.1c0-0.1,0-0.2,0.1-0.3c0-0.2,0.1-0.3,0.1-0.5
					c0.1-0.4,0.2-0.7,0.2-1.1c0.2-0.7,0.4-1.4,0.6-2.1C108.8,68.7,108.1,68.5,108,68.9L108,68.9z"/>
			</g>
		</g>
		<g>
			<g>
				<path class="st1" d="M110.3,69.7c-0.4,1.5-1,2.9-1.7,4.3c-0.2,0.4,0.4,0.8,0.6,0.4c0.7-1.4,1.3-2.9,1.8-4.5
					C111.2,69.4,110.5,69.2,110.3,69.7L110.3,69.7z"/>
			</g>
		</g>
		<g>
			<g>
				<path class="st1" d="M113,70.6c-0.7,1.3-1.4,2.5-2.1,3.8c-0.2,0.4,0.4,0.8,0.6,0.4c0.7-1.3,1.4-2.5,2.1-3.8
					C113.9,70.5,113.2,70.1,113,70.6L113,70.6z"/>
			</g>
		</g>
		<g>
			<g>
				<path class="st1" d="M114.8,71.9c-0.7,1.1-1.5,2.3-2.2,3.4c-0.3,0.4,0.4,0.8,0.6,0.4c0.7-1.1,1.5-2.3,2.2-3.4
					C115.7,71.9,115.1,71.5,114.8,71.9L114.8,71.9z"/>
			</g>
		</g>
		<g>
			<g>
				<path class="st1" d="M116.9,73c-0.7,1-1.4,1.9-2.1,2.9c-0.2,0.2-0.3,0.5-0.5,0.7c-0.2,0.2-0.5,0.5-0.4,0.8
					c0.1,0.3,0.3,0.4,0.6,0.3c0.3-0.1,0.4-0.4,0.3-0.7c-0.1-0.5-0.9-0.3-0.7,0.2c0,0,0-0.1,0-0.1c0.1,0,0.1-0.1,0.2-0.1c0,0,0,0,0,0
					c0.1,0,0.1,0,0.2,0c0,0,0,0,0,0c0,0,0.1,0.1,0.1,0.1c0,0,0,0,0,0c0,0.1,0,0.1,0,0.2c0-0.1,0.1-0.2,0.2-0.2
					c0.1-0.1,0.1-0.2,0.2-0.3c0.1-0.2,0.2-0.3,0.3-0.5c0.2-0.3,0.5-0.7,0.7-1c0.5-0.7,1-1.3,1.5-2c0.1-0.2,0-0.4-0.1-0.5
					C117.2,72.8,117,72.9,116.9,73L116.9,73z"/>
			</g>
		</g>
		<g>
			<g>
				<path class="st1" d="M118.9,74c-1.2,1.5-2.5,2.9-3.7,4.4c0.2,0.2,0.4,0.3,0.6,0.5c0.1-0.1,0.1-0.3,0.2-0.4
					c0.2-0.4-0.4-0.8-0.6-0.4c-0.1,0.1-0.1,0.3-0.2,0.4c-0.1,0.2-0.1,0.4,0.1,0.5c0.1,0.1,0.4,0.1,0.5,0c1.2-1.5,2.5-2.9,3.7-4.4
					C119.8,74.2,119.3,73.6,118.9,74L118.9,74z"/>
			</g>
		</g>
		<g>
			<g>
				<path class="st1" d="M120.7,74.9c-1.3,1.3-2.5,2.6-3.8,3.9c-0.3,0.3,0.2,0.9,0.5,0.5c1.3-1.3,2.5-2.6,3.8-3.9
					C121.6,75,121.1,74.5,120.7,74.9L120.7,74.9z"/>
			</g>
		</g>
		<g>
			<g>
				<path class="st1" d="M122.6,75.9c-1.4,1.3-2.8,2.6-4.2,3.9c-0.4,0.3,0.2,0.9,0.5,0.5c1.4-1.3,2.8-2.6,4.2-3.9
					C123.5,76.1,122.9,75.6,122.6,75.9L122.6,75.9z"/>
			</g>
		</g>
		<g>
			<g>
				<path class="st1" d="M124.4,77.6c-1.9,1.2-3.9,2.4-5.8,3.6c0.2,0.2,0.3,0.4,0.5,0.6c0.2-0.1,0.3-0.3,0.5-0.4
					c0.4-0.3-0.2-0.8-0.5-0.5c-0.2,0.1-0.3,0.3-0.5,0.4c-0.3,0.3,0.1,0.8,0.5,0.6c1.9-1.2,3.9-2.4,5.8-3.6
					C125.2,78,124.8,77.4,124.4,77.6L124.4,77.6z"/>
			</g>
		</g>
	</g>
	<g>
		<g>
			<path class="st1" d="M33.4,30.1c1.9,0,1.9-3,0-3C31.5,27.1,31.5,30.1,33.4,30.1L33.4,30.1z"/>
		</g>
	</g>
	<path class="st4" d="M61.8,41.2"/>
	<g>
		<path class="st5" d="M56.8,186.7c-0.8-1-1.3-2.1-1.7-3.2c0-0.3-0.1-0.6-0.2-0.9c0-0.1-0.1-0.3-0.2-0.4c-0.4-1.7-0.5-3.4-0.8-5.1
			c-0.3-2.2-0.6-4.5-0.9-6.7c0.1-0.2,0.2-0.4,0.1-0.7c-0.5-3.1-1-6.2-1.5-9.4c0-0.4-0.1-0.7-0.1-1.1c0.1-0.2,0.1-0.4,0.1-0.7
			c-0.3-1.3-0.5-2.6-0.8-3.8c-0.5-4.1-1.1-8.1-1.6-12.2c-1.7-13.1-3.3-26.3-4.7-39.4c1.4-11.1,0.2-22.4-3.4-33.1l0.6-0.1
			c1.6-0.4,1.2-2.6-0.4-2.2c-1.6,0.4-3.2,0.8-4.8,1.2c-0.7,0.2-1.2,0.6-1.1,1.3c1.8,7.5,2.7,15.1,3.5,22.6
			c0.8,7.8,1.6,15.6,2.4,23.4l4.3,41.7c0,0.6,0,1.3-0.1,2c0,0.4,0.1,0.6,0.4,0.8l0.3,2.4l2.7,26.6c0.1,0.8,1.4,1.1,2.1,0.7
			c1.5-1,3.2-1.7,5.1-2C57,188.3,57.3,187.3,56.8,186.7z"/>
		<g>
			<g>
				<path class="st1" d="M33.2,54.5c1.7,17.7,3.6,35.3,5.5,53c1.9,17.6,3.8,35.2,5.7,52.8c1.1,10,2.1,20.1,3.1,30.1
					c0.1,1,0.9,1.6,1.9,1.4c2.4-0.5,4.7-0.9,7.1-1.4c1.9-0.4,1.1-3.3-0.8-2.9c-2.4,0.5-4.7,0.9-7.1,1.4c0.6,0.5,1.3,1,1.9,1.4
					c-1.7-17.7-3.6-35.3-5.5-53c-1.9-17.6-3.8-35.2-5.7-52.8c-1.1-10-2.1-20.1-3.1-30.1C36,52.6,33,52.6,33.2,54.5L33.2,54.5z"/>
			</g>
		</g>
		<g>
			<g>
				<path class="st1" d="M40.3,66c2,20.9,4.3,41.7,6.7,62.5c2,17.2,3.9,34.5,6.8,51.6c0.4,2.3,0.8,4.7,1.4,7
					c0.3,1.1,0.8,3.4,2.3,3.2c1.9-0.2,1.9-3.2,0-3c0.3,0,0.7,0.2,0.9,0.4c-0.2-0.1,0.3,0.4,0.1,0.2c-0.3-0.4,0,0.2-0.1-0.2
					c-0.2-0.6-0.3-1.1-0.5-1.7c-0.5-2-0.8-4.1-1.2-6.2c-1.2-6.9-2.1-13.8-3-20.7c-2.6-19.9-4.9-39.9-7-59.9
					C45.6,88.1,44.4,77,43.3,66C43.2,64.1,40.2,64,40.3,66L40.3,66z"/>
			</g>
		</g>
		<g>
			<path class="st6" d="M29.2,12.1c0.3,8.5,0.7,17,1.3,25.6c0.1,2.1,0.3,4.2,0.4,6.3c0,0.5,0,1,0.3,1.4c0.3,0.4,0.8,0.6,1.4,0.8
				c1.2,0.4,2.2,0.7,2.4,1.5c0.3,1.6,1.3,3.3-0.5,4.7c-0.7,0.6-2.4,1.1-2.3,1.9c0.1,0.6,1.1,0.8,2,0.9c0.6,0.1,1,0.2,1.1,0.6
				c0.1,0.5,0.1,1.1,0.1,1.6c0.1,1.2,0.1,2.4,0.1,3.6c0,2.4,0,4.7-0.2,7.1c0,0.1,0,0.2,0.1,0.3c-0.5,0.4,0,1.1,0.8,0.7
				c2-0.8,4.4-1,6.5-0.5c0.9,0.2,1.5-0.5,0.9-0.9c-1.1-0.5-1.4-1.4-1.5-2.2c-0.2-0.9-0.2-1.8-0.5-2.7c-0.3-1-0.9-2-1.4-3
				c-0.5-1-1.2-2-1.3-3c-0.1-0.8,0.4-1.8,1.8-2.3c1.1-0.4,2.5-0.8,2.3-1.7c-0.1-0.4-0.6-0.7-1.2-0.9c-0.6-0.2-1.4-0.2-2-0.4
				c-0.6-0.2-0.6-0.8-0.8-1.2l-0.9-2.5c-0.1-0.2-0.3-0.5-0.1-0.6c0.2-0.2,1.4-0.3,1.8-0.4c1.2-0.3,1.9-0.9,2.2-1.6
				c0.3-0.7,0.2-1.5,0-2.1c-0.4-1.1-0.8-2.2-1.2-3.3c-1.6-4.4-3.1-8.8-4.6-13.2c-1.7-5-3.2-9.9-4.5-15c-0.1-0.3-0.4-0.4-0.9-0.4
				c-0.3,0-0.6,0.1-0.9,0.1C29.5,11.5,29.2,11.8,29.2,12.1z"/>
			<g>
				<g>
					<path class="st1" d="M35.1,70.9c2.9-0.7,5.7-1.1,8.7-1c0.9,0,1.8-1,1.4-1.9c-1-2.3-1.9-4.7-2.9-7c-0.5-1.1-0.9-2.3-1.4-3.4
						c-0.1-0.4-0.4-1.6-0.7-1.7c0-0.2-0.1-0.2-0.2,0.2c-0.2,0.3-0.3,0.3,0,0.3c0.1,0,0.7-0.1,0.8-0.1c1.7-0.3,3.6-1.6,3.2-3.6
						c-0.5-2.1-3.1-2.4-4.9-2.1c0.6,0.3,1.2,0.7,1.8,1c-0.5-1.6-1-3.2-1.6-4.8c-0.6-1.8-3.5-1-2.9,0.8c0.5,1.6,1,3.2,1.6,4.8
						c0.3,0.8,1,1.2,1.8,1c0.4-0.1,0.8,0.2,1.2,0.1c0.3,0.2,0.3,0,0-0.6c0,0-0.1,0.1-0.1,0.1c-0.1,0-0.9,0.3-1,0.3
						c-0.3,0.1-0.6,0.1-0.9,0.2c-2,0.6-2.1,2.3-1.4,4c1.5,3.8,3.1,7.7,4.6,11.5c0.5-0.6,1-1.3,1.4-1.9c-3.2-0.1-6.4,0.3-9.5,1.1
						C32.4,68.5,33.2,71.4,35.1,70.9L35.1,70.9z"/>
				</g>
			</g>
			<g>
				<g>
					<path class="st1" d="M37.8,48c1.8,0.5,4.3-0.1,5.4-1.8c1.1-1.8,0.1-3.8-0.6-5.6c-1.3-3.4-2.4-6.8-3.6-10.2
						c-2.2-6.4-4.2-12.7-6.4-19.1c-0.4-1.2-1.2-5.2-3.3-3.9c-1.6,1-0.1,3.6,1.5,2.6c0,0,0,0,0,0c-0.4,0.1-0.8,0.1-1.2,0.2
						c-0.3-0.1-0.8-0.5-0.8-0.6c0,0,0,0.1,0.1,0.2c-0.1,0-0.1-0.4,0,0c0,0.1,0.1,0.3,0.1,0.4c0.3,0.7,0.5,1.4,0.8,2.2
						c0.8,2.3,1.6,4.6,2.3,6.9c2,6.1,4,12.1,6.2,18.1c0.5,1.5,1.1,3.1,1.7,4.6c0.2,0.7,0.9,1.7,0.8,2.4c-0.1,0.9-1.4,1-2.1,0.8
						C36.8,44.6,36,47.5,37.8,48L37.8,48z"/>
				</g>
			</g>
			<g>
				<g>
					<path class="st1" d="M34.6,53.6c-0.2,0.1-0.3,0.1-0.5,0.1C34.2,53.7,34.4,53.7,34.6,53.6c-0.4,0.1-0.6,0.1-0.9,0.1
						c0.1,0,0.3,0,0.4,0.1c-0.2,0-0.5-0.1-0.7-0.2c0.1,0.1,0.2,0.1,0.4,0.2c-0.2-0.1-0.3-0.2-0.5-0.3c0.1,0.1,0.2,0.2,0.3,0.2
						c-0.1-0.1-0.2-0.2-0.3-0.3c0.1,0.1,0.2,0.2,0.2,0.3c-0.1-0.1-0.1-0.1-0.1-0.2c0.1,0.1,0.1,0.2,0.2,0.4c0-0.1,0-0.1-0.1-0.2
						c0,0.1,0,0.3,0.1,0.4c0-0.1,0-0.1,0-0.2c0,0.1,0,0.3-0.1,0.4c0-0.1,0-0.2,0.1-0.3c-0.1,0.1-0.1,0.2-0.2,0.4
						c0-0.1,0.1-0.2,0.2-0.3c-0.1,0.1-0.2,0.2-0.2,0.3c0.1-0.1,0.3-0.3,0.4-0.4c-0.1,0.1-0.2,0.2-0.3,0.2c0.3-0.2,0.6-0.4,1-0.5
						c-0.1,0.1-0.2,0.1-0.4,0.2c0.4-0.2,0.9-0.3,1.3-0.4c0.4-0.1,0.7-0.4,0.9-0.7c0.2-0.3,0.3-0.8,0.2-1.2c-0.1-0.4-0.3-0.7-0.7-0.9
						c-0.4-0.2-0.7-0.2-1.2-0.2c-0.7,0.1-1.4,0.4-2.1,0.7c-0.6,0.3-1.3,0.8-1.6,1.5c-0.4,0.7-0.5,1.7,0,2.5c0.5,0.7,1.1,1.1,1.9,1.4
						c0.8,0.3,1.7,0.3,2.5,0c0.4-0.1,0.7-0.3,0.9-0.7c0.2-0.3,0.3-0.8,0.2-1.2c-0.1-0.4-0.3-0.7-0.7-0.9
						C35.4,53.6,35,53.5,34.6,53.6L34.6,53.6z"/>
				</g>
			</g>
			<g>
				<g>
					<path class="st1" d="M36.6,51.7c0.1-1.2,0.1-2.3,0.2-3.5c0-0.7,0.2-1.4-0.2-2.1c-0.3-0.5-0.8-0.8-1.3-1
						c-0.7-0.2-1.4-0.2-2.1-0.3c-0.1,0-0.3,0-0.4,0c0.6,0.1,0.1,0-0.1,0c0,0-0.1,0-0.1,0c-0.2-0.1,0.4,0.2,0.2,0.1
						c-0.1-0.1,0,0,0.2,0.2c-0.1-0.1,0,0,0.2,0.2c-0.1-0.2,0.1,0.5,0.1,0.2c-0.1-0.8-1.1-1.3-1.8-1c-0.8,0.3-1.2,1-1,1.8
						c0.2,0.9,1.1,1.4,1.9,1.5c0.4,0.1,0.8,0.1,1.3,0.1c0.1,0,0.3,0,0.4,0c0.1,0,0.2,0,0.2,0c-0.5-0.1-0.3,0-0.1,0
						c0.1,0,0.3,0.1,0.4,0.1c0.2,0-0.3-0.2-0.2-0.1c0.1,0.1,0.2,0.2-0.1-0.1c0,0,0,0,0.1,0.1c-0.1-0.1-0.2-0.2-0.3-0.4
						c0-0.1,0-0.2,0-0.2c0,0.1,0,0.1,0,0.2c0,0.3,0,0.6-0.1,0.9c-0.1,1.2-0.1,2.3-0.2,3.5c0,0.8,0.7,1.5,1.5,1.5
						C35.9,53.1,36.5,52.5,36.6,51.7L36.6,51.7z"/>
				</g>
			</g>
			<g>
				<g>
					<path class="st1" d="M36.5,69.2c0.6-4.6,0.2-9.4,0.1-14c0-1.9-3-1.9-3,0c0.1,4.7,0.5,9.4-0.1,14c-0.1,0.8,0.8,1.5,1.5,1.5
						C35.9,70.7,36.4,70,36.5,69.2L36.5,69.2z"/>
				</g>
			</g>
			<g>
				<g>
					<path class="st1" d="M33.1,45.3C31,33.2,30.4,20.7,31,8.4c0.1-1.9-2.9-1.9-3,0c-0.6,12.6,0.1,25.3,2.3,37.7
						C30.6,48,33.5,47.2,33.1,45.3L33.1,45.3z"/>
				</g>
			</g>
		</g>
	</g>
	<g>
		<path class="st6" d="M175.4,153.4c1.4-2.7,2.7-5.9,1.7-8.7c-0.1-0.3-0.3-0.5-0.5-0.6c0.4-1.6,0.6-3.2,0.2-4.9
			c-0.1-0.4-0.3-0.6-0.6-0.8c0-1.2,0-2.4-0.2-3.6c-0.2-1.1-0.4-2.5-1.3-3.3c-0.4-0.3-0.8-0.4-1.2-0.3c-0.2-0.5-0.4-1-0.7-1.5
			c-0.5-1-1.2-1.9-1.8-2.8c-2.6-3.6-5.3-6.8-9.1-9.2c-3.5-2.2-7.5-3.5-11.7-4c-2.2-0.3-4.5-0.1-6.7,0c-2.3,0.1-4.6,0.1-6.9,0.6
			c-2.7,0.6-5.3,2-7.6,3.5c-2.4,1.5-4.7,3.1-7,4.8c-0.2,0.2-0.4,0.4-0.5,0.6c-0.2,0.1-0.3,0.1-0.4,0.2c-0.1,0.1-0.1,0.1-0.2,0.2
			c-0.3,0-0.6,0.1-0.8,0.4c-0.1,0.1-0.2,0.2-0.2,0.3c-0.4,0-0.9,0.2-1.1,0.6c-0.3,0.6-0.6,1.2-0.8,1.8c-0.3,0.1-0.5,0.3-0.7,0.6
			c-0.2,0.4-0.4,0.9-0.6,1.3c-0.1,0.1-0.2,0.3-0.3,0.5c-0.2,0.8-0.5,1.6-0.8,2.4c-0.4,0.8-0.8,1.5-0.9,2.4c-0.5,0.9-0.8,1.8-0.9,2.8
			c0,0.2,0,0.4,0,0.6c0,0,0,0,0,0.1c-0.2,0.8-0.4,1.6-0.5,2.4c-0.2,1-0.4,2-0.3,3c0,0.2,0.1,0.3,0.2,0.5c0,0.3,0.1,0.7,0.1,1
			c0,0.1,0,0.1,0.1,0.1c0,0.2,0,0.4,0,0.6c0,0.1,0,0.2,0,0.4c0,0.5,0,1.1,0,1.6c0,0.4,0.1,0.6,0.3,0.8c0,0.8,0,1.5,0,2.3
			c0,0.7,0.5,1.1,1,1.2c0,0.1,0,0.1,0.1,0.2c0,0.1,0.1,0.1,0.1,0.1c0,0.4,0.1,0.8,0.1,1.2c-0.1,0.9,0.2,1.8,0.5,2.6c0,0,0,0,0,0
			c0,0,0,0,0,0c0,0.1,0.1,0.2,0.1,0.3c0.1,0.3,0.3,0.4,0.5,0.5c0.2,0.9,0.4,1.7,0.8,2.6c0.8,1.7,2.1,3.1,3.3,4.5
			c2.4,2.6,4.6,5.6,7.7,7.5c1.7,1,3.7,1.5,5.5,2.2c1.8,0.7,3.6,1.4,5.6,1.7c4,0.7,8,1.6,12,0.6c1.1,0,2.2,0,3.3-0.2
			c1.3-0.2,2.5-0.7,3.6-1.2c2.2-1,4.3-2.2,6.2-3.7c3.8-3,6.8-6.9,8.9-11.2C174.3,157.1,175.3,155.3,175.4,153.4z M162.9,167.6
			c-0.2,0.2-0.5,0.4-0.8,0.6c-0.3-0.3-0.7-0.4-1.2-0.2c-2.1,0.7-3.9,1.9-6,2.5c-0.9,0.3-1.9,0.4-2.8,0.8c-0.8,0.4-1.4,1-2.3,1.2
			c-0.2,0-0.4,0.1-0.5,0.3c-0.9,0.1-1.8,0.2-2.8,0.2c-1.9-0.1-3.8-0.5-5.7-0.8c-1.8-0.3-3.5-0.6-5.2-1.3c-1.8-0.7-3.7-1.3-5.5-2.1
			c-3-1.4-5.1-4.2-7.3-6.6c-1.3-1.4-2.8-2.8-3.6-4.5c-0.8-1.8-0.9-3.8-1.8-5.5c-0.1-1.1-0.2-2.1-0.3-3.2c0-0.6-0.4-1-0.9-1.2
			c0-0.1-0.1-0.2-0.1-0.3c-0.1-0.8-0.2-1.5-0.4-2.2c0-0.8,0.1-1.6,0.1-2.4c0-0.2,0-0.3,0-0.4c0,0,0,0,0,0c0.1-1.1,0.2-2.1,0.2-3.2
			c0-0.1,0.1-0.2,0.1-0.3c0.1-0.5,0.2-1.1,0.2-1.6c0-0.1,0-0.2,0-0.3c0-0.1,0-0.2,0.1-0.4c0.3-0.2,0.6-0.4,0.7-0.7
			c0.3-0.7,0.4-1.4,0.4-2.1c0,0,0-0.1,0-0.1c0.1-0.1,0.1-0.2,0.1-0.3c0.1-0.4,0.3-0.7,0.4-1.1c0,0,0,0,0,0c0.1-0.1,0.1-0.3,0.2-0.4
			c0.1-0.1,0.2-0.2,0.2-0.3c0-0.1,0.1-0.2,0.1-0.3l0,0c0,0,0,0,0,0c0.1-0.4,0.2-0.7,0.3-1.1c0.3-0.1,0.6-0.4,0.8-0.8
			c0.1-0.3,0.3-0.7,0.4-1c0.1,0,0.2-0.1,0.3-0.1c0.4,0,0.7-0.2,1-0.6c0.3-0.4,0.5-0.9,0.7-1.3c0.1-0.1,0.2-0.3,0.3-0.4
			c0.1,0,0.2-0.1,0.3-0.1c0,0,0,0,0,0c0,0,0,0,0,0c0,0,0,0,0,0c0,0,0,0,0,0c0.2-0.1,0.4-0.3,0.6-0.5c0.2-0.2,0.3-0.5,0.4-0.7
			c3.6-2.6,7.3-5.4,11.5-7c2-0.8,4.1-1,6.3-1.1c2.1-0.1,4.3-0.3,6.5-0.2c7.8,0.2,15.1,4.1,19.7,10.4c1.4,1.9,2.8,3.7,3.6,5.9
			c0.5,1.3,1.3,2.6,1.8,4c0.4,2.5,0.7,5.1,0.6,7.7c0,0.2,0,0.4,0.1,0.5c0,0,0,0,0,0c-0.4,1.6-0.9,3.3-0.9,5c0,0.5,0.3,0.9,0.8,1.1
			c-0.2,0.6-0.5,1.1-0.8,1.7c-0.5,0.7-0.8,1.4-1.2,2.1c-0.3,0.5-0.2,1,0.1,1.4c-0.2,0.4-0.5,0.8-0.8,1.2c-0.2,0.2-0.3,0.4-0.5,0.5
			c-0.2,0.3-0.3,0.6-0.3,0.9C168.4,162,166,165.1,162.9,167.6z"/>
		<path class="st5" d="M169.8,128.2c-3.3-4.9-8.9-8.1-14.1-10.6c-6.3-2.9-13.4-2.2-19.8,0.1c-6.1,2.2-11.6,5.9-15.8,10.8
			c-0.2,0.2-0.3,0.4-0.3,0.7c-0.2,0.1-0.4,0.3-0.5,0.5c-4.3,10-4.2,22.3,2.2,31.5c1.7,2.5,3.9,4.8,6.2,6.8c2.4,2.2,5.4,3.2,8.5,4.2
			c6.2,1.9,12.7,2.8,18.8-0.1c5.1-2.4,9.8-6.5,13.2-10.9c3.5-4.5,5.9-9.7,6-15.5C174.2,139.8,173.1,133.1,169.8,128.2z"/>
		<ellipse class="st7" cx="145.3" cy="144.3" rx="29.2" ry="28.2"/>
		<ellipse class="st7" cx="145.1" cy="144.1" rx="32.3" ry="31.4"/>
		<path class="st6" d="M149.3,143.6c-0.3-1.7-1.2-3.2-2.6-4.1c-0.3-0.2-0.6-0.2-0.9-0.1c0,0-0.1-0.1-0.1-0.1c-1-0.6-2.2-0.3-3,0.6
			c-0.6,0.7-0.9,1.6-1,2.5c-0.3,1.8-0.5,4.2,1.1,5.4c0.7,0.5,1.6,0.6,2.4,0.7c1,0.2,2.2,0.6,3.1-0.3c0.5-0.5,0.8-1.4,0.9-2.2
			C149.5,145.2,149.5,144.4,149.3,143.6z"/>
		
			<ellipse transform="matrix(0.7875 -0.6164 0.6164 0.7875 -57.6763 120.3402)" class="st7" cx="145.7" cy="143.8" rx="4.5" ry="4.6"/>
		<g>
			<g>
				<path class="st0" d="M129,118.2c0,0.1,0,0.1,0,0.2c0,0.2,0,0.4,0.1,0.6c0.1,0.2,0.2,0.3,0.3,0.5c0.1,0.1,0.3,0.2,0.5,0.3
					c0.2,0.1,0.4,0.1,0.6,0.1c0.1,0,0.3,0,0.4-0.1c0.3-0.1,0.5-0.2,0.7-0.4c0.1-0.1,0.2-0.2,0.2-0.3c0.1-0.2,0.2-0.5,0.2-0.8
					c0-0.1,0-0.1,0-0.2c0-0.2,0-0.4-0.1-0.6c-0.1-0.2-0.2-0.3-0.3-0.5c-0.1-0.1-0.3-0.2-0.5-0.3c-0.2-0.1-0.4-0.1-0.6-0.1
					c-0.1,0-0.3,0-0.4,0.1c-0.3,0.1-0.5,0.2-0.7,0.4c-0.1,0.1-0.2,0.2-0.2,0.3C129.1,117.7,129,118,129,118.2L129,118.2z"/>
			</g>
		</g>
		<g>
			<g>
				<path class="st0" d="M136.5,115.3c0,0.1,0,0.1,0,0.2c0,0.2,0,0.4,0.1,0.6c0.1,0.2,0.2,0.3,0.3,0.5c0.1,0.1,0.3,0.2,0.5,0.3
					c0.2,0.1,0.4,0.1,0.6,0.1c0.1,0,0.3,0,0.4-0.1c0.3-0.1,0.5-0.2,0.7-0.4c0.1-0.1,0.2-0.2,0.2-0.3c0.1-0.2,0.2-0.5,0.2-0.8
					c0-0.1,0-0.1,0-0.2c0-0.2,0-0.4-0.1-0.6c-0.1-0.2-0.2-0.3-0.3-0.5c-0.1-0.1-0.3-0.2-0.5-0.3c-0.2-0.1-0.4-0.1-0.6-0.1
					c-0.1,0-0.3,0-0.4,0.1c-0.3,0.1-0.5,0.2-0.7,0.4c-0.1,0.1-0.2,0.2-0.2,0.3C136.6,114.7,136.5,115,136.5,115.3L136.5,115.3z"/>
			</g>
		</g>
		<g>
			<g>
				<path class="st0" d="M145.6,115.6c0.1,0.1,0.1,0.1,0.2,0.2c0.1,0.1,0.3,0.2,0.5,0.3c0.2,0.1,0.4,0.1,0.6,0.1
					c0.2,0,0.4,0,0.6-0.1c0.2-0.1,0.3-0.2,0.5-0.3c0.1-0.1,0.2-0.2,0.2-0.3c0.1-0.2,0.2-0.5,0.2-0.8c0-0.1,0-0.3-0.1-0.4
					c-0.1-0.3-0.2-0.5-0.4-0.7c-0.1-0.1-0.1-0.1-0.2-0.2c-0.1-0.1-0.3-0.2-0.5-0.3c-0.2-0.1-0.4-0.1-0.6-0.1c-0.2,0-0.4,0-0.6,0.1
					c-0.2,0.1-0.3,0.2-0.5,0.3c-0.1,0.1-0.2,0.2-0.2,0.3c-0.1,0.2-0.2,0.5-0.2,0.8c0,0.1,0,0.3,0.1,0.4
					C145.2,115.1,145.4,115.4,145.6,115.6L145.6,115.6z"/>
			</g>
		</g>
		<g>
			<g>
				<path class="st0" d="M153.7,116.6c0.1,0.1,0.1,0.1,0.2,0.2c0.1,0.1,0.3,0.2,0.5,0.3c0.2,0.1,0.4,0.1,0.6,0.1
					c0.2,0,0.4,0,0.6-0.1c0.2-0.1,0.3-0.2,0.5-0.3c0.1-0.1,0.2-0.2,0.2-0.3c0.1-0.2,0.2-0.5,0.2-0.8c0-0.1,0-0.3-0.1-0.4
					c-0.1-0.3-0.2-0.5-0.4-0.7c-0.1-0.1-0.1-0.1-0.2-0.2c-0.1-0.1-0.3-0.2-0.5-0.3c-0.2-0.1-0.4-0.1-0.6-0.1c-0.2,0-0.4,0-0.6,0.1
					c-0.2,0.1-0.3,0.2-0.5,0.3c-0.1,0.1-0.2,0.2-0.2,0.3c-0.1,0.2-0.2,0.5-0.2,0.8c0,0.1,0,0.3,0.1,0.4
					C153.4,116.2,153.5,116.5,153.7,116.6L153.7,116.6z"/>
			</g>
		</g>
		<g>
			<g>
				<path class="st0" d="M161,120.2c0.1,0.1,0.1,0.1,0.2,0.2c0.1,0.1,0.3,0.2,0.5,0.3c0.2,0.1,0.4,0.1,0.6,0.1c0.2,0,0.4,0,0.6-0.1
					c0.2-0.1,0.3-0.2,0.5-0.3c0.1-0.1,0.2-0.2,0.2-0.3c0.1-0.2,0.2-0.5,0.2-0.8c0-0.1,0-0.3-0.1-0.4c-0.1-0.3-0.2-0.5-0.4-0.7
					c-0.1-0.1-0.1-0.1-0.2-0.2c-0.1-0.1-0.3-0.2-0.5-0.3c-0.2-0.1-0.4-0.1-0.6-0.1c-0.2,0-0.4,0-0.6,0.1c-0.2,0.1-0.3,0.2-0.5,0.3
					c-0.1,0.1-0.2,0.2-0.2,0.3c-0.1,0.2-0.2,0.5-0.2,0.8c0,0.1,0,0.3,0.1,0.4C160.7,119.8,160.8,120.1,161,120.2L161,120.2z"/>
			</g>
		</g>
		<g>
			<g>
				<path class="st0" d="M167.5,125.7c0.1,0,0.1,0,0.2,0c0.2,0,0.4,0,0.6-0.1c0.2-0.1,0.3-0.2,0.5-0.3c0.1-0.1,0.2-0.3,0.3-0.5
					c0.1-0.2,0.1-0.4,0.1-0.6c0-0.1,0-0.3-0.1-0.4c-0.1-0.3-0.2-0.5-0.4-0.7c-0.1-0.1-0.2-0.2-0.3-0.2c-0.2-0.1-0.5-0.2-0.8-0.2
					c-0.1,0-0.1,0-0.2,0c-0.2,0-0.4,0-0.6,0.1c-0.2,0.1-0.3,0.2-0.5,0.3c-0.1,0.1-0.2,0.3-0.3,0.5c-0.1,0.2-0.1,0.4-0.1,0.6
					c0,0.1,0,0.3,0.1,0.4c0.1,0.3,0.2,0.5,0.4,0.7c0.1,0.1,0.2,0.2,0.3,0.2C167,125.6,167.3,125.7,167.5,125.7L167.5,125.7z"/>
			</g>
		</g>
		<g>
			<g>
				<path class="st0" d="M170.7,129.5c0,0.1,0,0.1,0,0.2c0,0.2,0,0.4,0.1,0.6c0.1,0.2,0.2,0.3,0.3,0.5c0.1,0.1,0.3,0.2,0.5,0.3
					c0.2,0.1,0.4,0.1,0.6,0.1c0.1,0,0.3,0,0.4-0.1c0.3-0.1,0.5-0.2,0.7-0.4c0.1-0.1,0.2-0.2,0.2-0.3c0.1-0.2,0.2-0.5,0.2-0.8
					c0-0.1,0-0.1,0-0.2c0-0.2,0-0.4-0.1-0.6c-0.1-0.2-0.2-0.3-0.3-0.5c-0.1-0.1-0.3-0.2-0.5-0.3c-0.2-0.1-0.4-0.1-0.6-0.1
					c-0.1,0-0.3,0-0.4,0.1c-0.3,0.1-0.5,0.2-0.7,0.4c-0.1,0.1-0.2,0.2-0.2,0.3C170.8,129,170.7,129.2,170.7,129.5L170.7,129.5z"/>
			</g>
		</g>
		<g>
			<g>
				<path class="st0" d="M174.7,137.6c0.1,0,0.1,0,0.2,0c0.2,0,0.4,0,0.6-0.1c0.2-0.1,0.3-0.2,0.5-0.3c0.1-0.1,0.2-0.3,0.3-0.5
					c0.1-0.2,0.1-0.4,0.1-0.6c0-0.1,0-0.3-0.1-0.4c-0.1-0.3-0.2-0.5-0.4-0.7c-0.1-0.1-0.2-0.2-0.3-0.2c-0.2-0.1-0.5-0.2-0.8-0.2
					c-0.1,0-0.1,0-0.2,0c-0.2,0-0.4,0-0.6,0.1c-0.2,0.1-0.3,0.2-0.5,0.3c-0.1,0.1-0.2,0.3-0.3,0.5c-0.1,0.2-0.1,0.4-0.1,0.6
					c0,0.1,0,0.3,0.1,0.4c0.1,0.3,0.2,0.5,0.4,0.7c0.1,0.1,0.2,0.2,0.3,0.2C174.2,137.5,174.5,137.5,174.7,137.6L174.7,137.6z"/>
			</g>
		</g>
		<g>
			<g>
				<path class="st0" d="M174.3,142.9c0,0.1,0,0.1,0,0.2c0,0.2,0,0.4,0.1,0.6c0.1,0.2,0.2,0.3,0.3,0.5c0.1,0.1,0.3,0.2,0.5,0.3
					c0.2,0.1,0.4,0.1,0.6,0.1c0.1,0,0.3,0,0.4-0.1c0.3-0.1,0.5-0.2,0.7-0.4c0.1-0.1,0.2-0.2,0.2-0.3c0.1-0.2,0.2-0.5,0.2-0.8
					c0-0.1,0-0.1,0-0.2c0-0.2,0-0.4-0.1-0.6c-0.1-0.2-0.2-0.3-0.3-0.5c-0.1-0.1-0.3-0.2-0.5-0.3c-0.2-0.1-0.4-0.1-0.6-0.1
					c-0.1,0-0.3,0-0.4,0.1c-0.3,0.1-0.5,0.2-0.7,0.4c-0.1,0.1-0.2,0.2-0.2,0.3C174.4,142.4,174.3,142.7,174.3,142.9L174.3,142.9z"/>
			</g>
		</g>
		<g>
			<g>
				<path class="st0" d="M175.4,151.8c0.1,0,0.1,0,0.2,0c0.2,0,0.4,0,0.6-0.1c0.2-0.1,0.3-0.2,0.5-0.3c0.1-0.1,0.2-0.3,0.3-0.5
					c0.1-0.2,0.1-0.4,0.1-0.6c0-0.1,0-0.3-0.1-0.4c-0.1-0.3-0.2-0.5-0.4-0.7c-0.1-0.1-0.2-0.2-0.3-0.2c-0.2-0.1-0.5-0.2-0.8-0.2
					c-0.1,0-0.1,0-0.2,0c-0.2,0-0.4,0-0.6,0.1c-0.2,0.1-0.3,0.2-0.5,0.3c-0.1,0.1-0.2,0.3-0.3,0.5c-0.1,0.2-0.1,0.4-0.1,0.6
					c0,0.1,0,0.3,0.1,0.4c0.1,0.3,0.2,0.5,0.4,0.7c0.1,0.1,0.2,0.2,0.3,0.2C174.8,151.7,175.1,151.8,175.4,151.8L175.4,151.8z"/>
			</g>
		</g>
		<g>
			<g>
				<path class="st0" d="M172.7,159.1c0.1,0,0.1,0,0.2,0c0.2,0,0.4,0,0.6-0.1c0.2-0.1,0.3-0.2,0.5-0.3c0.1-0.1,0.2-0.3,0.3-0.5
					c0.1-0.2,0.1-0.4,0.1-0.6c0-0.1,0-0.3-0.1-0.4c-0.1-0.3-0.2-0.5-0.4-0.7c-0.1-0.1-0.2-0.2-0.3-0.2c-0.2-0.1-0.5-0.2-0.8-0.2
					c-0.1,0-0.1,0-0.2,0c-0.2,0-0.4,0-0.6,0.1c-0.2,0.1-0.3,0.2-0.5,0.3c-0.1,0.1-0.2,0.3-0.3,0.5c-0.1,0.2-0.1,0.4-0.1,0.6
					c0,0.1,0,0.3,0.1,0.4c0.1,0.3,0.2,0.5,0.4,0.7c0.1,0.1,0.2,0.2,0.3,0.2C172.2,159,172.4,159.1,172.7,159.1L172.7,159.1z"/>
			</g>
		</g>
		<g>
			<g>
				<path class="st0" d="M168.5,165.2c1.9,0,1.9-3,0-3C166.6,162.2,166.6,165.2,168.5,165.2L168.5,165.2z"/>
			</g>
		</g>
		<g>
			<g>
				<path class="st0" d="M161.5,169.6c0.1,0.1,0.1,0.1,0.2,0.2c0.1,0.1,0.3,0.2,0.5,0.3c0.2,0.1,0.4,0.1,0.6,0.1
					c0.2,0,0.4,0,0.6-0.1c0.2-0.1,0.3-0.2,0.5-0.3c0.1-0.1,0.2-0.2,0.2-0.3c0.1-0.2,0.2-0.5,0.2-0.8c0-0.1,0-0.3-0.1-0.4
					c-0.1-0.3-0.2-0.5-0.4-0.7c-0.1-0.1-0.1-0.1-0.2-0.2c-0.1-0.1-0.3-0.2-0.5-0.3c-0.2-0.1-0.4-0.1-0.6-0.1c-0.2,0-0.4,0-0.6,0.1
					c-0.2,0.1-0.3,0.2-0.5,0.3c-0.1,0.1-0.2,0.2-0.2,0.3c-0.1,0.2-0.2,0.5-0.2,0.8c0,0.1,0,0.3,0.1,0.4
					C161.2,169.2,161.3,169.4,161.5,169.6L161.5,169.6z"/>
			</g>
		</g>
		<g>
			<g>
				<path class="st0" d="M155.5,173.8c1.9,0,1.9-3,0-3C153.6,170.8,153.6,173.8,155.5,173.8L155.5,173.8z"/>
			</g>
		</g>
		<g>
			<g>
				<path class="st0" d="M145.7,174.2c0,0.1,0,0.1,0,0.2c0,0.2,0,0.4,0.1,0.6c0.1,0.2,0.2,0.3,0.3,0.5c0.1,0.1,0.3,0.2,0.5,0.3
					c0.2,0.1,0.4,0.1,0.6,0.1c0.1,0,0.3,0,0.4-0.1c0.3-0.1,0.5-0.2,0.7-0.4c0.1-0.1,0.2-0.2,0.2-0.3c0.1-0.2,0.2-0.5,0.2-0.8
					c0-0.1,0-0.1,0-0.2c0-0.2,0-0.4-0.1-0.6c-0.1-0.2-0.2-0.3-0.3-0.5c-0.1-0.1-0.3-0.2-0.5-0.3c-0.2-0.1-0.4-0.1-0.6-0.1
					c-0.1,0-0.3,0-0.4,0.1c-0.3,0.1-0.5,0.2-0.7,0.4c-0.1,0.1-0.2,0.2-0.2,0.3C145.8,173.6,145.7,173.9,145.7,174.2L145.7,174.2z"/>
			</g>
		</g>
		<g>
			<g>
				<path class="st0" d="M139.9,175.2c1.9,0,1.9-3,0-3C138,172.2,138,175.2,139.9,175.2L139.9,175.2z"/>
			</g>
		</g>
		<g>
			<g>
				<path class="st0" d="M130.4,170.7c0,0.1,0,0.1,0,0.2c0,0.2,0,0.4,0.1,0.6c0.1,0.2,0.2,0.3,0.3,0.5c0.1,0.1,0.3,0.2,0.5,0.3
					c0.2,0.1,0.4,0.1,0.6,0.1c0.1,0,0.3,0,0.4-0.1c0.3-0.1,0.5-0.2,0.7-0.4c0.1-0.1,0.2-0.2,0.2-0.3c0.1-0.2,0.2-0.5,0.2-0.8
					c0-0.1,0-0.1,0-0.2c0-0.2,0-0.4-0.1-0.6c-0.1-0.2-0.2-0.3-0.3-0.5c-0.1-0.1-0.3-0.2-0.5-0.3c-0.2-0.1-0.4-0.1-0.6-0.1
					c-0.1,0-0.3,0-0.4,0.1c-0.3,0.1-0.5,0.2-0.7,0.4c-0.1,0.1-0.2,0.2-0.2,0.3C130.5,170.2,130.4,170.5,130.4,170.7L130.4,170.7z"/>
			</g>
		</g>
		<g>
			<g>
				<path class="st0" d="M125.8,168.8c0.1,0,0.1,0,0.2,0c0.2,0,0.4,0,0.6-0.1c0.2-0.1,0.3-0.2,0.5-0.3c0.1-0.1,0.2-0.3,0.3-0.5
					c0.1-0.2,0.1-0.4,0.1-0.6c0-0.1,0-0.3-0.1-0.4c-0.1-0.3-0.2-0.5-0.4-0.7c-0.1-0.1-0.2-0.2-0.3-0.2c-0.2-0.1-0.5-0.2-0.8-0.2
					c-0.1,0-0.1,0-0.2,0c-0.2,0-0.4,0-0.6,0.1c-0.2,0.1-0.3,0.2-0.5,0.3c-0.1,0.1-0.2,0.3-0.3,0.5c-0.1,0.2-0.1,0.4-0.1,0.6
					c0,0.1,0,0.3,0.1,0.4c0.1,0.3,0.2,0.5,0.4,0.7c0.1,0.1,0.2,0.2,0.3,0.2C125.3,168.7,125.6,168.8,125.8,168.8L125.8,168.8z"/>
			</g>
		</g>
		<g>
			<g>
				<path class="st0" d="M121,163.8c1.9,0,1.9-3,0-3C119.1,160.8,119.1,163.8,121,163.8L121,163.8z"/>
			</g>
		</g>
		<g>
			<g>
				<path class="st0" d="M116.9,157.2c1.9,0,1.9-3,0-3C115,154.2,115,157.2,116.9,157.2L116.9,157.2z"/>
			</g>
		</g>
		<g>
			<g>
				<path class="st0" d="M115.6,150.5C115.6,150.5,115.6,150.5,115.6,150.5c-0.1,0-0.3,0-0.4,0.1c0,0,0,0,0,0c-0.1,0-0.3,0-0.4-0.1
					c0,0,0,0,0,0c-0.1-0.1-0.2-0.1-0.4-0.2c0,0,0,0,0,0c-0.1-0.1-0.2-0.2-0.3-0.2c0,0,0,0,0,0c-0.1-0.1-0.2-0.2-0.2-0.3c0,0,0,0,0,0
					c-0.1-0.1-0.1-0.2-0.2-0.4c0,0,0,0,0,0c0-0.1,0-0.3-0.1-0.4c0,0,0,0,0,0c0-0.1,0-0.3,0.1-0.4c0,0,0,0,0,0
					c0.1-0.1,0.1-0.2,0.2-0.4c0,0,0,0,0,0c0.1-0.1,0.2-0.2,0.2-0.3c0,0,0,0,0,0c0.1-0.1,0.2-0.2,0.3-0.2c0,0,0,0,0,0
					c0.1-0.1,0.2-0.1,0.4-0.2c0,0,0,0,0,0c0.1,0,0.3,0,0.4-0.1c0,0,0,0,0,0c0.1,0,0.3,0,0.4,0.1c0,0,0,0,0,0c-0.2-0.1-0.4-0.1-0.6,0
					c-0.2,0-0.4,0.1-0.6,0.2c-0.2,0.1-0.3,0.2-0.4,0.4c-0.1,0.1-0.2,0.3-0.3,0.5c0,0.1,0,0.3-0.1,0.4c0,0.3,0.1,0.5,0.2,0.8
					c0.1,0.1,0.2,0.2,0.2,0.3c0.2,0.2,0.4,0.3,0.7,0.4c0,0,0,0,0,0c0,0,0.4,0.1,0.4,0.1c0,0,0,0,0,0c0,0,0,0,0,0c0,0,0,0,0,0
					c0,0,0.4-0.1,0.4-0.1c0,0,0,0,0,0c0,0,0,0,0,0c0,0,0.4-0.2,0.4-0.2c0,0,0,0,0,0c0.1-0.1,0.2-0.1,0.3-0.2c0,0,0,0,0,0
					c0,0,0.2-0.3,0.2-0.3c0,0,0,0,0,0c0,0,0,0,0,0c0,0,0.1-0.4,0.2-0.4c0,0,0,0,0,0c0,0,0,0,0,0c0,0,0,0,0,0c0,0,0,0,0,0
					c0,0,0.1-0.4,0.1-0.4c0,0,0,0,0,0c0,0,0,0,0,0c0-0.1,0-0.3-0.1-0.4c0,0,0,0,0,0c0,0,0,0,0,0c0,0,0,0,0,0c0,0-0.1-0.3-0.2-0.4
					c0,0,0,0,0,0c0-0.1-0.2-0.2-0.1-0.2c0-0.1-0.1-0.1-0.1-0.2c0,0,0,0,0,0c0,0,0,0,0,0c0,0,0,0,0,0c0,0-0.3-0.2-0.3-0.2
					c0,0,0,0,0,0c-0.1-0.1-0.2-0.1-0.4-0.2c-0.1,0-0.3-0.1-0.4-0.1c0,0,0,0,0,0c0,0,0,0,0,0c-0.1,0-0.1,0-0.2,0c-0.1,0-0.1,0-0.2,0
					c-0.2,0-0.4,0.1-0.5,0.3c-0.2,0.1-0.3,0.2-0.4,0.4c-0.1,0.2-0.2,0.4-0.2,0.6c0,0.2,0,0.4,0,0.6c0.1,0.1,0.1,0.2,0.2,0.4
					c0.1,0.2,0.3,0.4,0.5,0.5c0.1,0.1,0.2,0.1,0.4,0.2C115.1,150.6,115.3,150.6,115.6,150.5L115.6,150.5z"/>
			</g>
		</g>
		<g>
			<g>
				<path class="st0" d="M114.9,142.1c1.9,0,1.9-3,0-3C113,139.1,113,142.1,114.9,142.1L114.9,142.1z"/>
			</g>
		</g>
		<g>
			<g>
				<path class="st0" d="M118.4,132.4C118.4,132.4,118.4,132.4,118.4,132.4c0,0.1,0,0.3,0.1,0.4c0,0,0,0,0,0c0,0.1,0,0.3-0.1,0.4
					c0,0,0,0,0,0c-0.1,0.1-0.1,0.2-0.2,0.4c0,0,0,0,0,0c-0.1,0.1-0.2,0.2-0.2,0.3c0,0,0,0,0,0c-0.1,0.1-0.2,0.2-0.3,0.2c0,0,0,0,0,0
					c-0.1,0.1-0.2,0.1-0.4,0.2c0,0,0,0,0,0c-0.1,0-0.3,0-0.4,0.1c0,0,0,0,0,0c-0.1,0-0.3,0-0.4-0.1c0,0,0,0,0,0
					c-0.1-0.1-0.2-0.1-0.4-0.2c0,0,0,0,0,0c-0.1-0.1-0.2-0.2-0.3-0.2c0,0,0,0,0,0c-0.1-0.1-0.2-0.2-0.2-0.3c0,0,0,0,0,0
					c-0.1-0.1-0.1-0.2-0.2-0.4c0,0,0,0,0,0c0-0.1,0-0.3-0.1-0.4c0,0,0,0,0,0c0-0.1,0-0.3,0.1-0.4c0,0,0,0,0,0
					c-0.1,0.2-0.1,0.4,0,0.6c0,0.2,0.1,0.4,0.2,0.6c0.1,0.2,0.2,0.3,0.4,0.4c0.1,0.1,0.3,0.2,0.5,0.3c0.1,0,0.3,0,0.4,0.1
					c0.3,0,0.5-0.1,0.8-0.2c0.1-0.1,0.2-0.2,0.3-0.2c0.2-0.2,0.3-0.4,0.4-0.7c0,0,0,0,0,0c0,0,0.1-0.4,0.1-0.4c0,0,0,0,0,0
					c0,0,0,0,0,0c0,0,0,0,0,0c0,0-0.1-0.4-0.1-0.4c0,0,0,0,0,0c0,0,0,0,0,0c0,0-0.2-0.4-0.2-0.4c0,0,0,0,0,0
					c-0.1-0.1-0.1-0.2-0.2-0.3c0,0,0,0,0,0c0,0-0.3-0.2-0.3-0.2c0,0,0,0,0,0c0,0,0,0,0,0c0,0-0.4-0.1-0.4-0.2c0,0,0,0,0,0
					c0,0,0,0,0,0c0,0,0,0,0,0c0,0,0,0,0,0c0,0-0.4-0.1-0.4-0.1c0,0,0,0,0,0c0,0,0,0,0,0c-0.1,0-0.3,0-0.4,0.1c0,0,0,0,0,0
					c0,0,0,0,0,0c0,0,0,0,0,0c0,0-0.3,0.1-0.4,0.2c0,0,0,0,0,0c-0.1,0-0.2,0.2-0.2,0.1c-0.1,0-0.1,0.1-0.2,0.1c0,0,0,0,0,0
					c0,0,0,0,0,0c0,0,0,0,0,0c0,0-0.2,0.3-0.2,0.3c0,0,0,0,0,0c-0.1,0.1-0.1,0.2-0.2,0.4c0,0.1-0.1,0.3-0.1,0.4c0,0,0,0,0,0
					c0,0,0,0,0,0c0,0.1,0,0.1,0,0.2c0,0.1,0,0.1,0,0.2c0,0.2,0.1,0.4,0.3,0.5c0.1,0.2,0.2,0.3,0.4,0.4c0.2,0.1,0.4,0.2,0.6,0.2
					c0.2,0,0.4,0,0.6,0c0.1-0.1,0.2-0.1,0.4-0.2c0.2-0.1,0.4-0.3,0.5-0.5c0.1-0.1,0.1-0.2,0.2-0.4
					C118.5,132.9,118.5,132.6,118.4,132.4L118.4,132.4z"/>
			</g>
		</g>
		<g>
			<g>
				<path class="st0" d="M120.9,126c0.1,0.1,0.1,0.1,0.2,0.2c0.1,0.1,0.3,0.2,0.5,0.3c0.2,0.1,0.4,0.1,0.6,0.1c0.2,0,0.4,0,0.6-0.1
					c0.2-0.1,0.3-0.2,0.5-0.3c0.1-0.1,0.2-0.2,0.2-0.3c0.1-0.2,0.2-0.5,0.2-0.8c0-0.1,0-0.3-0.1-0.4c-0.1-0.3-0.2-0.5-0.4-0.7
					c-0.1-0.1-0.1-0.1-0.2-0.2c-0.1-0.1-0.3-0.2-0.5-0.3c-0.2-0.1-0.4-0.1-0.6-0.1c-0.2,0-0.4,0-0.6,0.1c-0.2,0.1-0.3,0.2-0.5,0.3
					c-0.1,0.1-0.2,0.2-0.2,0.3c-0.1,0.2-0.2,0.5-0.2,0.8c0,0.1,0,0.3,0.1,0.4C120.6,125.6,120.7,125.8,120.9,126L120.9,126z"/>
			</g>
		</g>
		<g>
			<g>
				<path class="st0" d="M143.8,139.6c0,0.1-0.1,0.3-0.1,0.4c0,0.1,0,0.3,0,0.2c0,0.1,0,0.1,0,0.2c0,0,0,0,0,0c0,0,0,0,0,0
					c0,0,0,0,0,0c0,0,0.2,0.4,0.2,0.4c0,0,0,0,0,0c0,0,0,0,0,0c0,0,0,0,0,0c0,0,0.2,0.3,0.2,0.3c0,0,0,0,0,0c0,0,0.3,0.2,0.3,0.2
					c0,0,0,0,0,0c0,0,0,0,0,0c0,0,0,0,0,0c0,0,0.4,0.1,0.4,0.2c0,0,0,0,0,0c0,0,0,0,0,0c0,0,0,0,0,0c0.1,0,0.4,0,0.2,0
					c-0.1,0,0.1,0,0.2,0c0,0,0,0,0,0c0.1,0,0.3,0,0.4-0.1c0,0,0,0,0,0c0.1,0,0.2-0.1,0.4-0.2c0.1-0.1,0.2-0.2,0.3-0.2c0,0,0,0,0,0
					c0,0,0.2-0.3,0.2-0.3c0,0,0,0,0,0c0,0,0,0,0,0c0,0,0,0,0,0c0-0.1,0.1-0.1,0.1-0.2c0-0.1,0.1-0.1,0.1-0.2c0,0,0,0,0,0
					c0,0,0,0,0,0c0,0,0,0,0,0c0,0,0,0,0,0c0-0.1,0-0.1,0-0.2c0-0.1,0-0.1,0-0.2c0,0,0,0,0,0c0,0,0,0,0,0c0,0,0,0,0,0c0,0,0,0,0,0
					c0-0.1,0-0.1,0-0.2c0,0,0-0.1,0-0.2c0-0.2-0.1-0.4-0.3-0.5c-0.1-0.2-0.2-0.3-0.4-0.4c-0.2-0.1-0.4-0.2-0.6-0.2
					c-0.2,0-0.4,0-0.6,0c-0.1,0.1-0.2,0.1-0.4,0.2c-0.2,0.1-0.4,0.3-0.5,0.5c-0.1,0.1-0.1,0.2-0.2,0.4c-0.1,0.3-0.1,0.5,0,0.8
					c0,0,0,0,0,0c0-0.1,0-0.3-0.1-0.4c0,0,0,0,0,0c0-0.1,0-0.3,0.1-0.4c0,0,0,0,0,0c0.1-0.1,0.1-0.2,0.2-0.4c0,0,0,0,0,0
					c0.1-0.1,0.2-0.2,0.2-0.3c0,0,0,0,0,0c0.1-0.1,0.2-0.2,0.3-0.2c0,0,0,0,0,0c0.1-0.1,0.2-0.1,0.4-0.2c0,0,0,0,0,0
					c0.1,0,0.3,0,0.4-0.1c0,0,0,0,0,0c0.1,0,0.3,0,0.4,0.1c0,0,0,0,0,0c0.1,0.1,0.2,0.1,0.4,0.2c0,0,0,0,0,0
					c0.1,0.1,0.2,0.2,0.3,0.2c0,0,0,0,0,0c0.1,0.1,0.2,0.2,0.2,0.3c0,0,0,0,0,0c0.1,0.1,0.1,0.2,0.2,0.4c0,0,0,0,0,0
					c0,0.1,0,0.3,0.1,0.4c0,0,0,0,0,0c0,0.1,0,0.3-0.1,0.4c0,0,0,0,0,0c0.1-0.2,0.1-0.4,0-0.6c0-0.2-0.1-0.4-0.2-0.6
					c-0.1-0.2-0.2-0.3-0.4-0.4c-0.1-0.1-0.3-0.2-0.5-0.3c-0.1,0-0.3,0-0.4-0.1c-0.3,0-0.5,0.1-0.8,0.2c-0.1,0.1-0.2,0.2-0.3,0.2
					C144,139.1,143.9,139.3,143.8,139.6L143.8,139.6z"/>
			</g>
		</g>
		<g>
			<g>
				<path class="st0" d="M149.9,144.9c1.9,0,1.9-3,0-3C148,141.9,148,144.9,149.9,144.9L149.9,144.9z"/>
			</g>
		</g>
		<g>
			<g>
				<path class="st0" d="M147.1,149c0.1,0,0.1,0,0.2,0c0.2,0,0.4,0,0.6-0.1c0.2-0.1,0.3-0.2,0.5-0.3c0.1-0.1,0.2-0.3,0.3-0.5
					c0.1-0.2,0.1-0.4,0.1-0.6c0-0.1,0-0.3-0.1-0.4c-0.1-0.3-0.2-0.5-0.4-0.7c-0.1-0.1-0.2-0.2-0.3-0.2c-0.2-0.1-0.5-0.2-0.8-0.2
					c-0.1,0-0.1,0-0.2,0c-0.2,0-0.4,0-0.6,0.1c-0.2,0.1-0.3,0.2-0.5,0.3c-0.1,0.1-0.2,0.3-0.3,0.5c-0.1,0.2-0.1,0.4-0.1,0.6
					c0,0.1,0,0.3,0.1,0.4c0.1,0.3,0.2,0.5,0.4,0.7c0.1,0.1,0.2,0.2,0.3,0.2C146.6,148.9,146.8,149,147.1,149L147.1,149z"/>
			</g>
		</g>
		<g>
			<g>
				<path class="st0" d="M140.5,145.2c0.1,0.1,0.1,0.2,0.2,0.3c0.1,0.2,0.2,0.3,0.4,0.4c0.1,0.1,0.3,0.2,0.5,0.3
					c0.2,0.1,0.4,0.1,0.6,0c0.2,0,0.4-0.1,0.6-0.2c0.1-0.1,0.2-0.2,0.3-0.2c0.2-0.2,0.3-0.4,0.4-0.7c0-0.1,0-0.3,0.1-0.4
					c0-0.3-0.1-0.5-0.2-0.8c-0.1-0.1-0.1-0.2-0.2-0.3c-0.1-0.2-0.2-0.3-0.4-0.4c-0.1-0.1-0.3-0.2-0.5-0.3c-0.2-0.1-0.4-0.1-0.6,0
					c-0.2,0-0.4,0.1-0.6,0.2c-0.1,0.1-0.2,0.2-0.3,0.2c-0.2,0.2-0.3,0.4-0.4,0.7c0,0.1,0,0.3-0.1,0.4
					C140.3,144.8,140.4,145,140.5,145.2L140.5,145.2z"/>
			</g>
		</g>
	</g>
	<g>
		<g>
			<path class="st1" d="M84.1,168.2c1.5-0.7,3-1.5,4.7-1.5c1.6,0,3.2,0.7,4.7,1.4c2.4,1.1,4.8,2.4,7.5,2c2.8-0.3,4.4-2.8,6.7-4.1
				c2.6-1.4,5.7-1.9,8.6-1.4c0.9,0.2,1.3-1.3,0.4-1.4c-2.8-0.5-5.6-0.3-8.2,0.8c-1.2,0.5-2.4,1.1-3.4,2c-1.4,1.1-2.5,2.5-4.3,2.7
				c-3.2,0.4-6-1.8-8.9-2.8c-3.1-1.1-5.7-0.3-8.5,1.1C82.5,167.3,83.3,168.6,84.1,168.2L84.1,168.2z"/>
		</g>
	</g>
	<g>
		<g>
			<path class="st1" d="M85.9,177.3c3.1-1.6,6.5,0.2,9.4,1.5c2.6,1.2,5.3,2.1,8.2,1.4c5.6-1.3,10.7-8.3,16.8-5.8
				c0.7,0.3,1.3-0.8,0.7-1.3c-0.3-0.2-0.5-0.5-0.8-0.7c-0.7-0.6-1.8,0.4-1.1,1.1c0.3,0.2,0.5,0.5,0.8,0.7c0.2-0.4,0.5-0.8,0.7-1.3
				c-6.5-2.7-11.5,4.1-17.2,5.7c-6.5,1.8-11.9-6-18.4-2.7C84.3,176.4,85.1,177.7,85.9,177.3L85.9,177.3z"/>
		</g>
	</g>
	<g>
		<g>
			<path class="st1" d="M99.7,161.6c0,6.7,0,13.4,0,20.2c0,1,1.5,1,1.5,0c0-6.7,0-13.4,0-20.2C101.2,160.6,99.7,160.6,99.7,161.6
				L99.7,161.6z"/>
		</g>
	</g>
</g>
</svg>
