<?xml version="1.0" standalone="no"?>
<!DOCTYPE svg PUBLIC "-//W3C//DTD SVG 20010904//EN"
 "http://www.w3.org/TR/2001/REC-SVG-20010904/DTD/svg10.dtd">
<svg version="1.0" xmlns="http://www.w3.org/2000/svg"
 width="2048.000000pt" height="2048.000000pt" viewBox="0 0 2048.000000 2048.000000"
 preserveAspectRatio="xMidYMid meet">

<g transform="translate(0.000000,2048.000000) scale(0.100000,-0.100000)"
fill="#FFF" stroke="none">
<path d="M9965 17144 c-22 -2 -92 -9 -155 -15 -156 -14 -425 -61 -595 -103
-1650 -408 -2940 -1787 -3229 -3451 -46 -265 -57 -403 -63 -757 l-6 -338 800
0 800 0 6 293 c9 404 41 616 137 907 139 422 350 763 664 1075 220 220 419
364 691 501 400 201 765 288 1220 288 466 1 845 -90 1252 -299 258 -133 455
-277 669 -490 314 -312 525 -653 664 -1075 96 -291 128 -503 137 -907 l6 -293
800 0 800 0 -6 338 c-6 354 -17 492 -63 757 -201 1158 -899 2211 -1900 2868
-569 374 -1180 596 -1874 682 -118 15 -659 28 -755 19z"/>
<path d="M10100 10229 c-288 -33 -554 -162 -761 -368 -364 -364 -474 -902
-281 -1368 92 -220 264 -432 461 -564 l79 -54 4 -470 c5 -523 5 -523 76 -660
24 -48 62 -96 117 -150 131 -132 265 -188 445 -188 180 0 314 56 445 188 55
54 93 102 117 150 71 137 71 137 75 660 l5 470 70 45 c94 60 233 193 314 299
172 226 270 545 249 811 -25 326 -152 608 -374 831 -277 276 -660 411 -1041
368z"/>
</g>
</svg>
