<?xml version="1.0" encoding="utf-8"?>
<!-- Generator: Adobe Illustrator 26.3.1, SVG Export Plug-In . SVG Version: 6.00 Build 0)  -->
<svg version="1.1" id="Calque_1" xmlns="http://www.w3.org/2000/svg" xmlns:xlink="http://www.w3.org/1999/xlink" x="0px" y="0px"
	 viewBox="0 0 200 200" style="enable-background:new 0 0 200 200;" xml:space="preserve">
<style type="text/css">
	.st0{fill:#666666;}
	.st1{fill:#E7F4DF;}
	.st2{fill:none;stroke:#E7F4DF;stroke-miterlimit:10;}
	.st3{fill:#FFFFFF;}
	.st4{fill:#FFFF66;}
	.st5{fill:#FD5A5C;}
</style>
<g>
	<g>
		<path class="st0" d="M27.8,79.2c0-1.2-1.4-2.5-0.6-3.4c0.3-0.4,0.8-0.8,1.3-1c0.4-0.2,0.8-0.2,1.2-0.3c0.1,0,0.9,0,1-0.1
			c0.4-0.5-0.4-2.5-0.5-3.1c-0.2-1.4-0.2-2.8,0-4.2c1.2-6.5,7.5-10.8,14-9.8c0.7,0.1,1.1,0.6,1.2,1.1c3.7,0.6,6.1,4.1,6.8,7.7
			c0.5,2.3,0.8,5.2,0.3,7.5c-0.4,2.1-1.9,3.9-2.9,5.7c-2.3,4.3-3.9,9-4.4,13.9c-0.3,2.4-0.1,4.7,0.8,6.9c0.8,1.9,1.9,3.6,3,5.4
			c2.4,3.8,5,7.7,4.3,12.4c-0.1,0.9-1.2,1.6-2.1,1.1c-9.8-5.1-17.5-13.7-21.7-24C27.4,90.2,27.6,84.6,27.8,79.2z"/>
	</g>
	<g>
		<g>
			<g>
				<path class="st1" d="M54.2,109.7c-4.8-2.8-7.8-7.5-8.3-13.1c-0.2-2.1-0.2-4.2,0.2-6.3c0.2-0.9,0.4-1.8,0.6-2.6
					c0.1-0.3,0.2-0.7,0.3-1c0.2-0.5,0.1-0.3,0.2-0.6c1.5-3,3.7-5.5,5.1-8.6c1.7-3.7,2.2-7.7,1.5-11.7c-0.6-3.5-2.4-7-5.7-8.7
					c-2.9-1.5-6.5-1.7-9.5-0.4c-7.6,3.1-9.7,11.8-9.4,19.2c0.9-0.4,1.7-0.7,2.6-1.1c-1.5-1.2-4.3-1.8-6.1-1.2
					c-1.3,0.4-1.5,1.9-0.9,2.9c0.3,0.4,0.7,0.8,0.9,1.2c0.5,0.7,0.7,1.6,0.9,2.4c0.8,3,0.3,6.1,0.6,9.2c0.1,1.1,0.4,2.2,0.7,3.2
					c2.4,7.9,6.8,15.7,12.5,21.7c3.7,3.9,8.2,7,13.5,8.3c1.9,0.5,2.7-2.4,0.8-2.9c-8.3-2-14.3-9-18.5-16c-1.8-3.1-3.4-6.3-4.7-9.6
					c-0.4-1.2-0.8-2.4-1.1-3.6c-0.1-0.4-0.2-0.8-0.2-1.2c0-0.2,0,0.3,0-0.1c0-0.7,0-1.4,0-2.1c0-3.4,0-6.9-1.4-10.1
					c-0.3-0.6-0.6-1.2-1-1.6c-0.1-0.1-0.1-0.1-0.2-0.2c-0.4-0.6-0.7-0.2-1,1.3c-0.1-0.1,0,0,0.2,0c0.8,0,2.2-0.1,2.9,0.5
					c0.9,0.7,2.6,0.4,2.6-1.1c-0.2-6,1.1-13.4,7.1-16.2c2.7-1.3,6.3-1,8.6,0.9c2.8,2.3,3.4,6.6,3.2,10c-0.3,3.8-2.1,7-4.1,10.2
					c-1.1,1.8-2.3,3.4-3,5.4c-1.2,3.7-1.5,7.8-0.9,11.7c0.9,6.1,4.4,11.2,9.6,14.3C54.4,113.3,55.9,110.7,54.2,109.7L54.2,109.7z"/>
			</g>
		</g>
	</g>
	<g>
		<g>
			<path class="st1" d="M35.3,103.1c1.6,1,3.5,1.4,5.4,1.5c2.2,0.1,4.4,0,6.5-0.2c0.5,0,0.5-0.8,0-0.8c-2,0.2-4.1,0.3-6.1,0.2
				c-1.9-0.1-3.8-0.4-5.4-1.5C35.3,102.2,34.9,102.9,35.3,103.1L35.3,103.1z"/>
		</g>
	</g>
	<g>
		<g>
			<path class="st1" d="M48.2,106.5c-2.4,1.1-4.7,2.5-6.7,4.2c-0.4,0.3,0.2,0.8,0.5,0.5c2-1.6,4.2-3,6.6-4
				C49.1,107,48.7,106.3,48.2,106.5L48.2,106.5z"/>
		</g>
	</g>
	<g>
		<g>
			<path class="st1" d="M48.5,107.6c-1.6,2.6-3.4,4.9-5.5,7.1c-0.3,0.3,0.2,0.9,0.5,0.5c2.1-2.2,4-4.6,5.6-7.2
				C49.4,107.6,48.8,107.2,48.5,107.6L48.5,107.6z"/>
		</g>
	</g>
	<g>
		<g>
			<path class="st1" d="M50.2,109c-0.9,2.1-1.9,4.3-2.8,6.4c-0.2,0.5-0.5,0.9-0.6,1.4c-0.1,0.3-0.1,0.7,0.2,0.9
				c0.6,0.4,1.3-0.6,0.5-1c-0.4-0.2-0.6,0.5-0.2,0.7c0,0,0,0,0.1,0c-0.1-0.1-0.1-0.1-0.2-0.2c-0.1-0.3,0-0.3,0.3-0.2
				c0-0.1,0-0.1,0.1-0.2c0.1-0.2,0.1-0.3,0.2-0.5c0.2-0.3,0.3-0.7,0.5-1c0.3-0.7,0.6-1.3,0.9-2c0.6-1.4,1.2-2.7,1.8-4.1
				C51,109,50.4,108.6,50.2,109L50.2,109z"/>
		</g>
	</g>
	<g>
		<g>
			<path class="st1" d="M50.8,109.5c-0.2,1.5-0.3,3.1-0.5,4.6c-0.1,1.3-0.3,2.7-1.1,3.9c0.2,0.1,0.4,0.3,0.6,0.4
				c0-0.1,0.1-0.2,0.1-0.3c0.2-0.4-0.5-0.8-0.6-0.4c0,0.1-0.1,0.2-0.1,0.3c-0.2,0.4,0.4,0.8,0.6,0.4c0.8-1.2,1-2.6,1.2-4
				c0.2-1.6,0.3-3.3,0.5-4.9C51.6,109,50.8,109,50.8,109.5L50.8,109.5z"/>
		</g>
	</g>
	<g>
		<g>
			<path class="st1" d="M45.9,105.3c-1.6,0.4-3.3,0.6-4.9,0.8c-1.4,0.1-2.9,0.2-4.1-0.6c-0.4-0.3-0.8,0.4-0.4,0.6
				c1.3,0.9,2.8,0.9,4.3,0.8c1.8-0.2,3.5-0.5,5.3-0.8C46.6,105.9,46.4,105.2,45.9,105.3L45.9,105.3z"/>
		</g>
	</g>
	<g>
		<g>
			<path class="st1" d="M47.6,105.5c-1.6,0.7-3.2,1.5-4.8,2.2c-0.8,0.4-1.6,0.7-2.3,1.1c-0.5,0.2-1.7,1-2.2,0.5
				c-0.4-0.3-0.9,0.2-0.5,0.5c0.5,0.5,1.3,0.4,1.9,0.2c0.9-0.3,1.8-0.8,2.7-1.2c1.9-0.9,3.8-1.7,5.7-2.6
				C48.5,106,48.1,105.3,47.6,105.5L47.6,105.5z"/>
		</g>
	</g>
	<g>
		<g>
			<path class="st1" d="M49.2,108.4c-0.7,1.7-1.4,3.4-2.1,5.2c-0.3,0.7-0.6,1.4-1,2c-0.2,0.3-0.4,0.5-0.7,0.8
				c-0.1,0.1-0.3,0.2-0.4,0.3c-0.1,0-0.1,0-0.2,0c-0.1,0-0.1,0-0.1,0c0-0.5-0.8-0.5-0.8,0c0,0.8,0.9,0.9,1.5,0.5
				c0.8-0.4,1.3-1.3,1.7-2.1c0.5-1,0.9-2,1.3-3c0.5-1.2,1-2.3,1.4-3.5C50.1,108.2,49.4,108,49.2,108.4L49.2,108.4z"/>
		</g>
	</g>
	<g>
		<g>
			<path class="st1" d="M48,107.5c-1.2,1.1-2.4,2.2-3.6,3.2c-1,0.9-2.2,1.8-3.7,1.7c-0.5,0-0.5,0.7,0,0.8c1.5,0.1,2.8-0.7,3.9-1.6
				c1.3-1.1,2.6-2.3,3.9-3.5C48.9,107.7,48.4,107.2,48,107.5L48,107.5z"/>
		</g>
	</g>
	<g>
		<g>
			<path class="st1" d="M45.9,102.4c-0.8-0.7-1.8-0.7-2.8-0.7c-1.2,0-2.5-0.1-3.7-0.3c-1.2-0.2-2.3-0.5-3.4-1
				c-0.5-0.2-1.1-0.5-1.6-0.8c-0.2-0.1-0.5-0.3-0.7-0.5c-0.2-0.1-0.7-0.4-0.8-0.7c0,0.1-0.1,0.2-0.1,0.4c0,0,0.1,0,0.1-0.1
				c-0.1,0-0.2,0.1-0.4,0.1c0,0,0.1,0,0.1,0c-0.1-0.1-0.2-0.2-0.3-0.3c0,0,0,0.1,0,0.1c0.1,0.5,0.9,0.3,0.7-0.2c0,0,0-0.1,0-0.1
				c0-0.1-0.1-0.2-0.3-0.3c-0.2,0-0.4,0-0.5,0.1c-0.1,0.1-0.1,0.2-0.1,0.4c0.1,0.5,0.6,0.8,0.9,1c0.5,0.4,1,0.7,1.5,1
				c1,0.6,2.2,1,3.3,1.2c1.1,0.3,2.3,0.4,3.5,0.5c0.6,0,1.2,0,1.8,0c0.7,0,1.4,0,1.9,0.5C45.7,103.3,46.2,102.7,45.9,102.4
				L45.9,102.4z"/>
		</g>
	</g>
	<g>
		<g>
			<path class="st1" d="M44.1,100.5c-2.7-0.5-5.3-1.3-7.7-2.6c-2.2-1.1-4.8-2.6-6-4.9c-0.2-0.4-0.9-0.1-0.6,0.4c1.2,2.4,3.8,3.8,6,5
				c2.6,1.3,5.3,2.3,8.1,2.7C44.4,101.3,44.6,100.5,44.1,100.5L44.1,100.5z"/>
		</g>
	</g>
	<g>
		<g>
			<path class="st1" d="M43.4,99.3c0.3,0.3,0.7,0.3,1,0c0.2-0.2,0.1-0.5-0.2-0.6c-2.6-0.8-5.3-1.6-7.9-2.5c-1.2-0.4-2.4-1-3.4-1.7
				c-0.5-0.4-1-0.8-1.5-1.2c-0.2-0.2-0.5-0.5-0.7-0.7c-0.2-0.2-0.7-0.6-0.8-0.8c-0.1,0.1-0.1,0.2-0.2,0.3c-0.1,0-0.1,0-0.2,0
				c0-0.2,0-0.3-0.1-0.5c0,0,0,0,0,0.1c-0.2,0.4,0.5,0.8,0.6,0.4c0,0,0,0,0-0.1c0.1-0.2,0.1-0.3-0.1-0.5c-0.2-0.2-0.7-0.3-0.8,0
				c-0.3,0.5,0.4,1.1,0.8,1.4c1.2,1.1,2.4,2.2,3.8,3c1.4,0.8,3,1.2,4.5,1.7c1.9,0.6,3.8,1.2,5.6,1.8c-0.1-0.2-0.1-0.4-0.2-0.6
				c0,0,0.1,0,0.1,0C43.6,98.4,43.1,99,43.4,99.3L43.4,99.3z"/>
		</g>
	</g>
	<g>
		<g>
			<path class="st1" d="M44.5,97.1c-2.8-0.4-5.6-1.3-8.2-2.6c-1.2-0.6-2.4-1.4-3.5-2.2c-0.6-0.4-1.2-0.9-1.8-1.4
				c-0.3-0.2-0.6-0.5-0.8-0.8c-0.1-0.1-0.2-0.2-0.4-0.3c-0.1-0.1-0.1-0.1-0.2-0.2c-0.1-0.2-0.3-0.2-0.6-0.1
				c-0.1-0.1-0.1-0.2-0.2-0.3c0,0,0,0.1,0,0.1c0,0.5,0.7,0.5,0.8,0c0,0,0-0.1,0-0.1c0-0.1-0.1-0.3-0.2-0.3c-0.3-0.2-0.8-0.1-0.8,0.3
				c-0.1,0.6,0.9,1.3,1.3,1.7c1.3,1.2,2.7,2.3,4.2,3.2c3.1,1.9,6.5,3.1,10.1,3.7C44.7,97.9,44.9,97.2,44.5,97.1L44.5,97.1z"/>
		</g>
	</g>
	<g>
		<g>
			<path class="st1" d="M43.6,96c-6-2.3-11.2-6.7-14.5-12.2c-0.3-0.4-0.9,0-0.6,0.4c3.5,5.7,8.8,10.1,15,12.6
				C43.8,96.9,44,96.2,43.6,96L43.6,96z"/>
		</g>
	</g>
	<g>
		<g>
			<path class="st1" d="M43.6,94.6c-2.9-1.5-5.6-3.4-8.1-5.6c-1.2-1.1-2.3-2.2-3.3-3.4c-0.5-0.6-1.1-1.3-1.6-1.9
				c-0.3-0.3-0.5-0.7-0.8-1c-0.1-0.1-0.7-1.1-0.6-1.1c0.5-0.1,0.3-0.8-0.2-0.7c-1.6,0.3,0.7,2.9,1,3.4c1.2,1.5,2.4,2.9,3.8,4.3
				c2.8,2.7,5.9,5,9.3,6.8C43.7,95.5,44,94.8,43.6,94.6L43.6,94.6z"/>
		</g>
	</g>
	<g>
		<g>
			<path class="st1" d="M43.6,93.1c-6-5.1-11-11.4-14.7-18.4c-0.1,0.2-0.3,0.4-0.4,0.6c0.3,0.1,0.5,0.2,0.8,0.3
				c0.5,0.2,0.6-0.6,0.2-0.7c-0.3-0.1-0.5-0.2-0.8-0.3c-0.3-0.1-0.6,0.3-0.4,0.6C32,82.1,37,88.4,43.1,93.6
				C43.5,93.9,44,93.4,43.6,93.1L43.6,93.1z"/>
		</g>
	</g>
	<g>
		<g>
			<path class="st1" d="M44.5,88.8c-2.4-1.1-4.2-3.6-5.8-5.6c-1.8-2.2-3.4-4.6-4.9-7.1c-0.7-1.2-1.3-2.4-2-3.6
				c-0.3-0.5-0.9-0.8-1.4-0.4c-1.2,1,1.3,2.2,1.4,0.5c0.1-0.5-0.7-0.5-0.8,0c0,0.4,0.8,1.6,1.1,2.1c0.4,0.8,0.9,1.6,1.4,2.4
				c1,1.6,2.1,3.2,3.2,4.8c1.1,1.4,2.2,2.8,3.4,4.2c1.2,1.3,2.3,2.6,4,3.4C44.6,89.6,45,89,44.5,88.8L44.5,88.8z"/>
		</g>
	</g>
	<g>
		<g>
			<path class="st1" d="M45.1,86.6c-1.5-1-2.7-2.4-3.9-3.8c-1.2-1.4-2.4-2.9-3.4-4.4c-1-1.4-1.9-2.9-2.7-4.4
				c-0.4-0.8-0.9-1.6-1.3-2.4c-0.2-0.4-0.3-0.7-0.5-1.1c-0.1-0.2-0.7-1.2-0.6-1.4c-0.1,0.1-0.3,0.1-0.4,0.2c0,0,0.1,0,0.1,0
				c-0.1-0.1-0.2-0.2-0.3-0.3c0,0,0,0.1,0,0.1c0.1-0.1,0.1-0.3,0.2-0.4c0,0,0,0-0.1,0c-0.4,0.3,0,0.9,0.4,0.6c0,0,0,0,0.1,0
				c0.1-0.1,0.2-0.3,0.2-0.4c-0.1-0.2-0.2-0.3-0.4-0.4c-0.1,0-0.4,0-0.4,0.2c-0.3,0.6,0.2,1.3,0.5,1.8c0.4,0.9,0.9,1.9,1.3,2.8
				c0.9,1.8,2,3.6,3.1,5.2c1.1,1.6,2.3,3.1,3.5,4.5c1.3,1.5,2.6,3,4.3,4.1C45.1,87.5,45.5,86.9,45.1,86.6L45.1,86.6z"/>
		</g>
	</g>
	<g>
		<g>
			<path class="st1" d="M45.8,85.3c-5.4-5.8-9.2-13.1-10.8-20.9c-0.1-0.5-0.8-0.3-0.7,0.2c1.6,7.9,5.5,15.3,11,21.2
				C45.6,86.2,46.1,85.6,45.8,85.3L45.8,85.3z"/>
		</g>
	</g>
	<g>
		<g>
			<path class="st1" d="M46.1,83.6c-0.1,0.2-1-1.3-1.1-1.4c-0.2-0.4-0.4-0.8-0.6-1.2c-0.5-0.9-1-1.8-1.5-2.7c-1-1.9-1.8-3.8-2.6-5.8
				c-1.4-3.9-2.2-8.1-1.8-12.3c0-0.5-0.7-0.5-0.8,0c-0.5,5.1,0.7,10.2,2.7,14.9c1,2.4,2.2,4.7,3.5,6.9c0.2,0.4,1.9,3.9,2.7,2
				C46.9,83.5,46.3,83.2,46.1,83.6L46.1,83.6z"/>
		</g>
	</g>
	<g>
		<g>
			<path class="st1" d="M46.9,82.9c-4.5-7.1-6.1-15.8-4.5-24.1c0.1-0.5-0.6-0.7-0.7-0.2C40,67.1,41.6,76,46.2,83.3
				C46.5,83.7,47.1,83.3,46.9,82.9L46.9,82.9z"/>
		</g>
	</g>
	<g>
		<g>
			<path class="st1" d="M48,81.8c-3.5-7-3.7-15.4-0.6-22.6c0.2-0.4-0.5-0.8-0.6-0.4c-3.2,7.5-3,16.1,0.6,23.4
				C47.5,82.6,48.2,82.3,48,81.8L48,81.8z"/>
		</g>
	</g>
	<g>
		<g>
			<path class="st1" d="M49.3,62.1c-1.1,0.7-1.6,1.9-1.8,3.1c-0.3,1.6-0.4,3.3-0.6,5c-0.3,3.7-0.3,7.4,0.7,11
				c0.1,0.3,0.4,0.4,0.6,0.2c0.2-0.3,0.4-0.5,0.4-0.9c0.1-0.5-0.6-0.7-0.7-0.2c-0.1,0.2-0.2,0.4-0.2,0.5c0.2,0.1,0.4,0.1,0.6,0.2
				c-0.9-3.2-1-6.5-0.7-9.7c0.1-1.6,0.3-3.1,0.4-4.7c0.2-1.4,0.4-2.9,1.7-3.7C50,62.5,49.7,61.8,49.3,62.1L49.3,62.1z"/>
		</g>
	</g>
	<g>
		<g>
			<path class="st1" d="M50.7,65.1c-1.9,4.9-2.6,10.1-2.1,15.3c0.1,0.5,0.8,0.5,0.8,0c-0.6-5.1,0.1-10.3,2-15.1
				C51.6,64.8,50.9,64.6,50.7,65.1L50.7,65.1z"/>
		</g>
	</g>
	<g>
		<g>
			<path class="st1" d="M44.9,92c-3.3-2.4-6.2-5.3-8.6-8.5c-1.1-1.5-2.1-3.2-3-4.9c-0.4-0.8-0.8-1.7-1.2-2.5
				c-0.1-0.3-0.9-2.6-1.1-2.6c-0.5,0.1-0.3,0.8,0.2,0.7c0.6-0.1,1-0.9,0.6-1.4c-0.4-0.6-1.2-0.3-1.5,0.3c-0.2,0.5,0.1,0.9,0.2,1.3
				c0.2,0.6,0.5,1.2,0.7,1.8c0.6,1.3,1.2,2.6,1.9,3.9c2.8,5,6.7,9.3,11.3,12.6C44.9,92.9,45.3,92.2,44.9,92L44.9,92z"/>
		</g>
	</g>
</g>
<g>
	<path class="st0" d="M164.4,100.2c-0.8-4.7-1.7-8.9-2.7-13.6c-0.2-0.5-0.3-1-0.4-1.6c-0.1-0.6-0.1-1.2-0.1-1.7c-0.2,0-0.3,0-0.5,0
		c0-0.1,0-0.2,0-0.3c-0.9-4.5-2.8-8.7-4.4-13c0.7-3,1.5-6.1,2-9.2c0.5-3.5,1.4-7.7-0.4-11c-0.7-1.4-2-2.5-3.5-3
		c-1.9-0.6-3.9,0-5.6,0.8c-3.5,1.6-6.9,3.7-10.1,5.8c-15.3-7.6-33.4-9-49.6-3.6c-1.4-1.2-2.8-2.3-4.3-3.3c-1.6-1-3.2-2-4.8-2.8
		c-1.8-0.9-3.8-1.8-5.8-1.1c-1.3,0.4-2.5,1.3-2.9,2.7c-0.2,0.7-0.3,1.4-0.4,2.1c-0.4,2.6-0.7,5.3-0.9,7.9c-0.1,2-0.2,4.1-0.1,6.1
		c-0.1,0.1-0.2,0.2-0.3,0.3c-3.6,5.3-7.9,10.3-10.1,16.3c-0.1,0-0.4,0-0.6,0c-0.1,0.4-0.2,0.7-0.4,1c-0.1,0.2-0.2,0.4-0.3,0.7
		c-0.4,0.7-2.4,3.5-2.6,4.4c0,0,0,0,0,0c0,0,0,0,0,0c0,3.8-6,21.8-5.8,22.1c0.1,0.3,3.6,23.9,12.4,35.8c-0.1,0.3-0.2,0.5-0.3,0.8
		c-0.5,1.5-1.1,3.1-1.4,4.7c-0.3,1.7-0.5,3.5-0.3,5.2c0.2,1.7,1.5,2.6,3.1,3c3.4,0.7,6.7-0.6,9.6-2.2c0.9-0.5,1.8-1.1,2.7-1.7
		c16.1,6.9,35.9,11.1,52.7,4c0.1,0,0.3-0.1,0.4-0.2c0.8-0.5,2.1-0.1,3,0.1c1.3,0.4,2.3,1.1,3.4,1.8c2.7,1.7,6,4.1,9.3,2.8
		c3-1.2,4-4.9,3.8-7.8c-0.1-1-0.2-2-0.4-3c2.3-2.6,4.8-5,6.9-7.7c2.3-3.1,4.1-6.8,5.7-10.3c2.8-6,6.6-22.1,5.9-25.1
		C165.6,105.9,164.6,101.1,164.4,100.2z"/>
</g>
<g>
	<g>
		<path class="st1" d="M74.9,153c16.5,7.2,36.9,11.7,54.1,4.2c1.8-0.8,0.2-3.4-1.5-2.6c-7.9,3.5-16.7,4-25.2,3
			c-8.9-1-17.7-3.6-25.9-7.2C74.6,149.6,73.1,152.2,74.9,153L74.9,153z"/>
	</g>
</g>
<g>
	<g>
		<path class="st1" d="M62.5,139.3c0.2,0.3-0.1,1.5-0.2,2c-0.2,0.9-0.4,1.7-0.7,2.5c-0.5,1.6-1.1,3.1-1.4,4.8
			c-0.3,1.7-0.5,3.6-0.3,5.3c0.2,1.7,1.5,2.7,3.1,3c3.4,0.7,6.8-0.6,9.7-2.2c3.1-1.8,6-3.9,8.6-6.3c1.4-1.3-0.7-3.4-2.1-2.1
			c-2.3,2.1-4.8,3.9-7.5,5.5c-2.4,1.4-5.4,2.9-8.3,2.2c-0.7-0.2-0.6-0.3-0.6-1c0-0.7,0.1-1.5,0.1-2.2c0.1-1.6,0.5-3.1,1-4.6
			c0.5-1.4,1-2.7,1.3-4.1c0.3-1.4,0.6-3.1-0.1-4.4C64.2,136.1,61.6,137.6,62.5,139.3L62.5,139.3z"/>
	</g>
</g>
<g>
	<g>
		<path class="st1" d="M129,157.1c0.8-0.5,2.1-0.2,3,0.1c1.3,0.4,2.3,1.1,3.5,1.8c2.7,1.7,6,4.2,9.3,2.8c3.1-1.3,4-5,3.9-8
			c-0.2-3.6-1.3-7.2-2-10.8c-0.4-1.9-3.3-1.1-2.9,0.8c0.4,1.8,0.8,3.6,1.1,5.3c0.3,1.5,0.7,2.9,0.8,4.4c0.1,2.2-0.4,6.1-3.5,5.5
			c-2.9-0.5-5.1-3-7.7-4.2c-2-0.9-5-1.7-7-0.4C125.8,155.5,127.3,158.1,129,157.1L129,157.1z"/>
	</g>
</g>
<g>
	<g>
		<path class="st1" d="M89.8,51.9c15.7-5.3,33.3-4.1,48,3.5c1.7,0.9,3.2-1.7,1.5-2.6c-15.5-7.9-33.9-9.3-50.3-3.8
			C87.2,49.6,88,52.5,89.8,51.9L89.8,51.9z"/>
	</g>
</g>
<g>
	<g>
		<g>
			<path class="st1" d="M73.2,63.1c-0.6-2.2-0.5-4.6-0.4-6.9c0.1-2.6,0.3-5.1,0.7-7.7c0.1-0.8,0.2-1.6,0.4-2.4
				c0-0.3,0.1-0.5,0.1-0.8c0-0.1,0.2-0.4,0.1-0.3c0.9-1.5,3.3-0.3,4.3,0.3c1.5,0.8,3,1.6,4.4,2.6c3.1,2,5.8,4.5,8.2,7.3
				c1.3,1.4,3.4-0.7,2.1-2.1c-2.5-2.8-5.2-5.3-8.3-7.4c-1.6-1.1-3.2-2-4.9-2.9c-1.8-0.9-3.9-1.8-5.9-1.1c-1.3,0.4-2.5,1.4-2.9,2.7
				c-0.2,0.7-0.3,1.4-0.4,2.1c-0.4,2.7-0.7,5.4-0.9,8.1c-0.2,3.1-0.3,6.4,0.4,9.4C70.7,65.7,73.6,65,73.2,63.1L73.2,63.1z"/>
		</g>
	</g>
	<g>
		<g>
			<path class="st1" d="M156.8,70c0.8-3.3,1.6-6.5,2.1-9.9c0.5-3.6,1.4-7.9-0.4-11.2c-0.7-1.4-2-2.6-3.5-3c-1.9-0.6-3.9,0-5.7,0.8
				c-3.7,1.7-7.3,4-10.7,6.2c-1.2,0.8-0.8,2.7,0.8,2.8c0.7,0,1.3-0.2,1.8-0.7c1.5-1.2-0.6-3.3-2.1-2.1c0.1-0.1,0.2-0.1,0.3-0.2
				c0.3,0.9,0.5,1.9,0.8,2.8c2.9-1.9,5.8-3.7,8.9-5.3c1.4-0.7,3.1-1.8,4.8-1.5c1.2,0.2,2.1,1.4,2.4,2.6c0.5,1.7,0.3,3.5,0.1,5.2
				c-0.1,1.5-0.3,2.9-0.6,4.4c-0.5,2.8-1.2,5.6-1.9,8.4C153.5,71.1,156.4,71.9,156.8,70L156.8,70z"/>
		</g>
	</g>
	<g>
		<g>
			<path class="st1" d="M138.8,55.7c0.7,1.6,1.1,3.5,2.7,4.6c2.1,1.5,5.3,0.5,6.8-1.4c0.8-1.1,1.6-2.2,2.5-3.2
				c0.4-0.5,0.9-1,1.3-1.4c0.4-0.4,1-1,1.5-1c1.3,0,0.5,2.6,0.4,3.3c-0.2,1.6-0.3,3.2-0.4,4.8c-0.1,1.7-0.2,3.5-0.1,5.2
				c0.1,1.3,0.4,2.7,1.3,3.6c0.7,0.7,1.7-0.4,1.1-1.1c-0.8-0.8-0.9-2.2-0.9-3.2c-0.1-1.6,0-3.2,0.1-4.8c0.1-1.6,0.2-3.2,0.4-4.7
				c0.2-1.2,0.6-2.6-0.1-3.7c-1.7-2.7-4.7,0.7-5.9,2.1c-0.9,1-1.6,2.2-2.5,3.2c-0.8,1-2.3,1.6-3.7,1.4c-2.1-0.3-2.6-2.9-3.3-4.5
				C139.7,54.1,138.4,54.8,138.8,55.7L138.8,55.7z"/>
		</g>
	</g>
	<g>
		<g>
			<path class="st1" d="M91.8,54.2c-1.1,0.6-2.3,2.2-3.6,2c-1.6-0.2-3.1-2-4.2-3c-1.4-1.2-2.7-2.4-4.1-3.5C79,49,77.8,48,76.6,48
				c-2.5-0.1-2.5,3.3-2.7,5c-0.4,3.5-1.7,6.8-2.2,10.3c-0.1,0.9,1.3,1.4,1.4,0.4c0.5-3.3,1.6-6.4,2.1-9.6c0.2-1.2,0.2-2.4,0.5-3.6
				c0.1-0.4,0.3-0.9,0.7-0.9c0.6-0.1,1.3,0.5,1.8,0.8c2.7,1.9,4.9,4.5,7.6,6.4c1,0.7,2.3,1.3,3.5,0.8c1.2-0.4,2-1.5,3.2-2.1
				C93.4,55,92.6,53.7,91.8,54.2L91.8,54.2z"/>
		</g>
	</g>
	<g>
		<g>
			<path class="st1" d="M76.7,48.1c-0.9-1.4-1.5-2.9-1.7-4.6c0-0.2-0.2-0.4-0.4-0.4c-0.2,0-0.4,0.2-0.4,0.4c0.2,1.8,0.8,3.5,1.8,4.9
				C76.3,48.8,77,48.5,76.7,48.1L76.7,48.1z"/>
		</g>
	</g>
	<g>
		<g>
			<path class="st1" d="M78.5,49.2c-0.4-1.9-0.8-3.7-1.2-5.6c-0.1-0.5-0.8-0.3-0.7,0.2c0.4,1.9,0.8,3.7,1.2,5.6
				C77.9,49.9,78.6,49.7,78.5,49.2L78.5,49.2z"/>
		</g>
	</g>
	<g>
		<g>
			<path class="st1" d="M80.3,50.1c-0.4-1.6-0.5-3.2-0.4-4.8c0-0.5-0.7-0.5-0.8,0c-0.1,1.7,0,3.4,0.4,5
				C79.7,50.8,80.4,50.6,80.3,50.1L80.3,50.1z"/>
		</g>
	</g>
	<g>
		<g>
			<path class="st1" d="M82,52c-0.3-1.9-0.4-3.9-0.3-5.9c0-0.5-0.7-0.5-0.8,0c0,2,0.1,4,0.4,6.1c0,0.2,0.3,0.3,0.5,0.3
				C82,52.4,82.1,52.2,82,52L82,52z"/>
		</g>
	</g>
	<g>
		<g>
			<path class="st1" d="M83.8,53.6c-0.3-1.8-0.3-3.6,0.1-5.4c0.1-0.5-0.6-0.7-0.7-0.2c-0.4,1.9-0.5,3.9-0.1,5.8
				C83.1,54.2,83.9,54,83.8,53.6L83.8,53.6z"/>
		</g>
	</g>
	<g>
		<g>
			<path class="st1" d="M85.3,54.8c-0.3-1.7-0.1-3.4,0.4-5.1c0.1-0.5-0.6-0.7-0.7-0.2c-0.6,1.8-0.7,3.6-0.4,5.5
				c0,0.2,0.3,0.3,0.5,0.3C85.3,55.2,85.4,55,85.3,54.8L85.3,54.8z"/>
		</g>
	</g>
	<g>
		<g>
			<path class="st1" d="M86.8,56.1c0-1.6,0.3-3.2,0.8-4.7c0.2-0.5-0.6-0.6-0.7-0.2c-0.6,1.6-0.8,3.2-0.8,4.9
				C86,56.6,86.8,56.6,86.8,56.1L86.8,56.1z"/>
		</g>
	</g>
	<g>
		<g>
			<path class="st1" d="M88,56.3c0.1-1.5,0.5-3,1.2-4.4c0.1-0.2,0.1-0.4-0.1-0.5c-0.2-0.1-0.4-0.1-0.5,0.1c-0.7,1.5-1.1,3.1-1.3,4.7
				C87.2,56.8,88,56.8,88,56.3L88,56.3z"/>
		</g>
	</g>
	<g>
		<g>
			<path class="st1" d="M75.3,49.7c-1-1.3-2.1-2.6-3.1-3.9c-0.1-0.2-0.4-0.1-0.5,0c-0.2,0.2-0.1,0.4,0,0.5c1,1.3,2.1,2.6,3.1,3.9
				c0.1,0.2,0.4,0.1,0.5,0C75.4,50.1,75.4,49.9,75.3,49.7L75.3,49.7z"/>
		</g>
	</g>
	<g>
		<g>
			<path class="st1" d="M74.8,52.3c-0.8-0.8-1.6-1.6-2.2-2.5c-0.1-0.2-0.3-0.2-0.5-0.1c-0.2,0.1-0.3,0.3-0.1,0.5
				c0.7,1,1.5,1.9,2.3,2.7c0.1,0.1,0.4,0.1,0.5,0C74.9,52.7,74.9,52.5,74.8,52.3L74.8,52.3z"/>
		</g>
	</g>
	<g>
		<g>
			<path class="st1" d="M74.7,55.2c-0.8-0.9-1.5-1.8-2.3-2.6c-0.1-0.2-0.4-0.1-0.5,0c-0.2,0.2-0.1,0.4,0,0.5
				c0.8,0.9,1.5,1.8,2.3,2.6c0.1,0.2,0.4,0.1,0.5,0C74.9,55.5,74.9,55.3,74.7,55.2L74.7,55.2z"/>
		</g>
	</g>
	<g>
		<g>
			<path class="st1" d="M74.1,57.2c-1.3-1-2.4-2.1-3.5-3.3c-0.3-0.4-0.9,0.2-0.5,0.5c1.1,1.2,2.3,2.3,3.5,3.3c0.2,0.1,0.4,0.2,0.5,0
				C74.2,57.6,74.2,57.4,74.1,57.2L74.1,57.2z"/>
		</g>
	</g>
	<g>
		<g>
			<path class="st1" d="M154.4,52.9c0.7-1.9,1.1-3.9,1.2-5.9c0-0.5-0.7-0.5-0.8,0c-0.1,1.9-0.5,3.9-1.2,5.7
				C153.5,53.2,154.3,53.3,154.4,52.9L154.4,52.9z"/>
		</g>
	</g>
	<g>
		<g>
			<path class="st1" d="M153.2,53.1c0-1.8,0.1-3.5,0.1-5.3c0-0.5-0.7-0.5-0.8,0c0,1.8-0.1,3.5-0.1,5.3
				C152.5,53.6,153.2,53.6,153.2,53.1L153.2,53.1z"/>
		</g>
	</g>
	<g>
		<g>
			<path class="st1" d="M151.7,53.8c0.1-2,0-4.1-0.3-6.1c-0.1-0.5-0.8-0.3-0.7,0.2c0.3,1.9,0.4,3.9,0.3,5.9
				C151,54.3,151.7,54.3,151.7,53.8L151.7,53.8z"/>
		</g>
	</g>
	<g>
		<g>
			<path class="st1" d="M150.2,55.2c0-2-0.2-4-0.4-6c0-0.2-0.2-0.4-0.4-0.4c-0.2,0-0.4,0.2-0.4,0.4c0.3,2,0.4,4,0.4,6
				C149.5,55.7,150.2,55.7,150.2,55.2L150.2,55.2z"/>
		</g>
	</g>
	<g>
		<g>
			<path class="st1" d="M149,57.2c-0.2-2.4-0.5-4.7-0.9-7.1c-0.1-0.5-0.8-0.3-0.7,0.2c0.4,2.3,0.7,4.6,0.9,6.9
				C148.3,57.6,149.1,57.6,149,57.2L149,57.2z"/>
		</g>
	</g>
	<g>
		<g>
			<path class="st1" d="M147.9,58.6c-0.4-2.6-0.9-5.1-1.3-7.7c-0.1-0.5-0.8-0.3-0.7,0.2c0.4,2.6,0.9,5.1,1.3,7.7
				C147.3,59.3,148,59.1,147.9,58.6L147.9,58.6z"/>
		</g>
	</g>
	<g>
		<g>
			<path class="st1" d="M146.7,59.2c-0.4-2.1-0.8-4.2-1.2-6.3c-0.1-0.5-0.8-0.3-0.7,0.2c0.4,2.1,0.8,4.2,1.2,6.3
				C146.1,59.8,146.8,59.6,146.7,59.2L146.7,59.2z"/>
		</g>
	</g>
	<g>
		<g>
			<path class="st1" d="M144.9,59.5c-0.6-2-1.1-4-1.4-6c-0.1-0.5-0.8-0.3-0.7,0.2c0.4,2,0.8,4,1.4,6C144.3,60.2,145,60,144.9,59.5
				L144.9,59.5z"/>
		</g>
	</g>
	<g>
		<g>
			<path class="st1" d="M142.6,58.6c-0.7-1.1-0.9-2.4-0.8-3.7c0-0.2-0.2-0.4-0.4-0.4c-0.2,0-0.3,0.2-0.4,0.4
				c-0.2,1.4,0.1,2.9,0.9,4.1C142.2,59.4,142.8,59,142.6,58.6L142.6,58.6z"/>
		</g>
	</g>
	<g>
		<g>
			<path class="st1" d="M155.6,54.7c0.4-0.8,0.8-1.5,1.2-2.3c0.1-0.2,0-0.4-0.1-0.5c-0.2-0.1-0.4,0-0.5,0.1
				c-0.4,0.8-0.8,1.5-1.2,2.3c-0.1,0.2,0,0.4,0.1,0.5C155.2,54.9,155.5,54.9,155.6,54.7L155.6,54.7z"/>
		</g>
	</g>
	<g>
		<g>
			<path class="st1" d="M155.3,57.5c0.5-1.1,1.3-1.9,2.3-2.6c0.2-0.1,0.2-0.3,0.1-0.5c-0.1-0.2-0.3-0.2-0.5-0.1
				c-1.1,0.7-2,1.7-2.5,2.8c-0.1,0.2,0,0.4,0.1,0.5C154.9,57.7,155.2,57.7,155.3,57.5L155.3,57.5z"/>
		</g>
	</g>
	<g>
		<g>
			<path class="st1" d="M155,61.3c0.3-1.3,1.2-2.4,2.3-3c0.4-0.2,0-0.9-0.4-0.6c-1.3,0.8-2.3,2-2.7,3.5
				C154.2,61.5,154.9,61.7,155,61.3L155,61.3z"/>
		</g>
	</g>
	<g>
		<g>
			<path class="st1" d="M155.1,64.2c0.7-1.2,1.6-2.4,2.6-3.4c0.3-0.4-0.2-0.9-0.5-0.5c-1,1.1-1.9,2.3-2.7,3.6
				C154.2,64.2,154.8,64.6,155.1,64.2L155.1,64.2z"/>
		</g>
	</g>
	<g>
		<g>
			<path class="st1" d="M89.4,56c0.2-1,0.6-2,1-2.9c0.1-0.2,0-0.4-0.1-0.5c-0.2-0.1-0.4,0-0.5,0.1c-0.5,1-0.8,2-1.1,3.1
				C88.5,56.3,89.3,56.5,89.4,56L89.4,56z"/>
		</g>
	</g>
</g>
<g>
	<g>
		<path class="st1" d="M125.5,83c-0.1-0.3-0.4-0.4-0.7-0.3c-0.3,0.1-0.5,0.3-0.6,0.5c-0.2,0.2-0.2,0.5,0,0.8
			c0.1,0.2,0.4,0.4,0.7,0.4c0.6,0,0.9-0.7,1-1.2c0.1-0.5,0-1.1-0.6-1.1c0.1,0.2,0.1,0.5,0.2,0.7c0.3-0.2,0.7-0.4,1-0.4
			c0.1,0,0.2,0,0.3,0.1c0.1,0.1,0.1,0.3,0.1,0.4c0,0.1,0,0.3,0,0.4c0,0.1-0.1,0.1-0.2,0.1c-0.2,0-0.4-0.2-0.4-0.5
			c-0.2,0-0.5,0.1-0.7,0.1c0,0.3,0.1,0.6,0.1,0.9c0,0.2,0.1,0.5,0.3,0.7c0.3,0.4,1,0.3,1.2-0.2c0.1-0.3-0.1-0.4-0.4-0.5
			c-0.4-0.1-1.2,0-1.4,0.5c-0.1,0.2,0,0.5,0.2,0.7c0.2,0.2,0.5,0.2,0.8,0.2c0.5,0,1-0.1,1.2-0.6c0.2-0.5-0.1-1-0.4-1.3
			c-0.2-0.1-0.5-0.2-0.7-0.3c-0.1,0-0.3-0.1-0.4-0.1c-0.2,0-0.3,0.1-0.5,0.1c0.1,0,0.1,0,0.2-0.1c0,0,0,0,0,0c0.1,0,0.1,0.1,0.2,0.1
			c0,0.1,0,0.2,0.1,0.3c0,0,0,0,0,0c0,0,0.1-0.1,0.1-0.1c0-0.1,0-0.2,0-0.3c0-0.2-0.1-0.3-0.3-0.4c-0.1-0.1-0.3-0.2-0.5-0.2
			c-0.2,0-0.3,0.1-0.5,0c0.1,0.2,0.2,0.3,0.3,0.5c0.1-0.3,0.2-0.7,0.5-0.9c0.3-0.2,0.5,0.1,0.7,0.3c0.3,0.4,0.9-0.2,0.5-0.5
			c-0.2-0.2-0.4-0.4-0.7-0.5c-0.3-0.1-0.6-0.1-0.9,0c-0.5,0.3-0.8,0.9-0.9,1.4c0,0.2,0.1,0.4,0.3,0.5c0.2,0,0.3,0,0.5,0
			c0.1,0,0.1,0,0.2,0c-0.1,0,0.1,0,0,0c0,0,0,0,0,0c0-0.1,0-0.2,0-0.1c0,0-0.1,0.1-0.1,0.2c0,0.1,0,0.3,0,0.4
			c0.1,0.2,0.3,0.3,0.5,0.2c0.1,0,0.1-0.1,0.3-0.1c0.2,0.1,0.5,0.1,0.7,0.2c0.1,0,0.1,0.1,0.1,0.1c0,0,0,0.1,0,0.1c0,0,0,0,0,0
			c0,0,0,0,0,0c0,0,0,0,0,0c0,0-0.1,0.1-0.1,0c-0.1,0-0.2,0-0.3,0c-0.1,0-0.2,0-0.3,0c-0.1,0,0,0-0.1,0.1c0,0,0,0,0,0.1
			c0,0,0.1,0,0.1,0c0.1,0,0.1,0,0.2,0c0.1,0,0.3,0,0.4,0c-0.1-0.2-0.2-0.3-0.4-0.5c0,0,0.1-0.1,0.1-0.1c0,0,0,0,0,0c0,0,0,0,0,0
			c0,0,0,0,0,0c0,0,0,0.1,0,0c0,0-0.1-0.1,0,0c0,0,0-0.1-0.1-0.2c-0.1-0.3-0.1-0.7-0.1-1c0-0.2-0.2-0.3-0.4-0.3
			c-0.2,0-0.3,0.2-0.3,0.4c0,0.6,0.5,1.2,1.1,1.2c0.6,0,1.1-0.5,1.1-1.1c0-0.6-0.2-1.3-0.8-1.4c-0.6-0.2-1.2,0.2-1.7,0.4
			c-0.1,0.1-0.2,0.3-0.2,0.4c0,0.2,0.2,0.3,0.4,0.3c0,0-0.1,0-0.1,0c0,0,0,0,0,0c0,0,0,0,0,0c0,0,0,0,0,0.1c0,0,0,0.1,0,0.1
			c0,0,0,0.1,0,0.1c0,0.2,0,0.4-0.2,0.5c0,0-0.1,0,0,0c0,0-0.1,0,0,0c0,0,0,0,0,0c0,0,0.1,0,0,0c0,0,0,0,0,0
			c0.1-0.1,0.1-0.1,0.2-0.2c0,0,0,0,0,0c0,0,0.1,0,0,0c0,0-0.1,0-0.1-0.1C125,83.8,125.7,83.4,125.5,83L125.5,83z"/>
	</g>
</g>
<g>
	<g>
		<path class="st1" d="M91.7,80.2c-0.3,0.5-0.4,1.2,0.2,1.5c0.6,0.3,1.2-0.1,1.5-0.6c0.2-0.3,0.3-0.6,0.2-0.9
			c-0.1-0.3-0.4-0.5-0.7-0.6c-0.3-0.1-0.7-0.2-1,0c-0.3,0.1-0.5,0.4-0.5,0.8c0,0.2,0.1,0.3,0.3,0.4c0.2,0,0.3,0,0.4-0.2
			c0.2-0.3,0.3-0.6,0.3-0.9c0-0.3-0.2-0.6-0.5-0.7c-0.3-0.1-0.7-0.1-0.9,0.2c-0.2,0.2-0.3,0.5-0.4,0.8c-0.1,0.3-0.1,0.7,0.2,0.9
			c0.2,0.2,0.5,0.3,0.8,0.4c0.6,0.1,1.1-0.2,1.5-0.7c0.2-0.2-0.1-0.6-0.3-0.6c-0.4,0-0.7,0.2-1,0.5c-0.1,0.1-0.2,0.3,0,0.5
			c0.1,0.1,0.3,0.2,0.5,0.1c0.4-0.3,0.7-0.7,0.8-1.1c0-0.2,0.1-0.5,0-0.7c0,0,0-0.1,0-0.1c-0.1,0.2-0.2,0.2-0.1,0.2c0,0,0.1,0,0.1,0
			c0.1,0,0.2,0,0.3,0.1c0.2,0.1,0.4,0.2,0.5,0.3c0,0,0.1,0.1,0.1,0.1c0,0,0,0.1,0,0.1c0,0-0.1,0.1-0.1,0.1c-0.1,0.1-0.3,0.3-0.4,0.4
			c-0.1,0-0.1,0.1-0.2,0.1c0,0-0.1,0-0.1-0.1c0,0.2,0,0.3,0.1,0.5c0.1-0.1,0,0,0,0c0,0,0.1,0,0,0c0,0,0.1,0,0,0c0,0,0.1,0,0.1,0
			c0,0,0,0,0,0c0,0,0.1,0,0.1,0c0,0,0,0,0,0c0,0,0.1,0,0.1,0c0.1,0-0.1,0,0,0c0,0,0,0,0,0c0,0,0.1,0.1,0,0c0,0,0,0,0,0.1
			c0,0,0,0,0,0c0,0,0,0,0,0c0,0,0,0.1,0,0.1c0,0,0,0.1,0,0.1c0,0.2-0.2,0.3-0.3,0.3c-0.2,0-0.4-0.1-0.5-0.3
			c-0.1-0.2-0.2-0.3-0.5-0.3c-0.2,0-0.3,0.3-0.3,0.5c0.2,0.5,0.7,0.9,1.2,0.9c0.5,0,1-0.4,1.1-0.9c0.1-0.5-0.1-1-0.6-1.2
			c-0.4-0.2-1,0-1.2,0.4c-0.1,0.2,0,0.3,0.1,0.5c0.4,0.4,1,0.3,1.4,0c0.4-0.3,0.9-0.8,0.7-1.3c-0.1-0.5-0.7-0.8-1.1-1
			c-0.3-0.1-0.6-0.1-0.9,0c-0.1,0.1-0.2,0.1-0.3,0.2c-0.1,0.2-0.1,0.3,0,0.5c0.1,0.4-0.1,0.8-0.4,1.1c0.2,0.2,0.3,0.4,0.5,0.6
			c0.1-0.1,0.3-0.2,0.4-0.2c-0.1-0.2-0.2-0.4-0.3-0.6c-0.1,0.2-0.4,0.3-0.7,0.3c-0.1,0-0.2,0-0.3-0.1c-0.1,0-0.1-0.1-0.1-0.2
			c0-0.2,0.1-0.3,0.2-0.5c0-0.1,0.1-0.2,0.2-0.2c0,0,0,0,0,0c0,0,0,0,0,0.1c0,0.2-0.1,0.3-0.2,0.4c0.2,0.1,0.5,0.1,0.7,0.2
			c0,0,0,0,0-0.1c0,0,0,0,0.1,0c0.1,0,0.3,0,0.5,0.1c0,0,0.1,0,0.1,0.1c0,0,0-0.1,0,0c0,0.1-0.1,0.3-0.2,0.4
			c-0.1,0.1-0.1,0.2-0.2,0.2c-0.1,0-0.2,0-0.2,0c0,0,0,0,0,0c0,0,0,0,0,0c0-0.1,0,0.1,0,0c0,0,0-0.1,0,0c0-0.1,0.1-0.2,0.1-0.4
			C92.6,80.2,91.9,79.8,91.7,80.2L91.7,80.2z"/>
	</g>
</g>
<g>
	<g>
		<path class="st1" d="M91.8,79.6C91.8,79.6,91.8,79.5,91.8,79.6C91.8,79.7,91.8,79.6,91.8,79.6c0-0.1,0-0.1,0-0.1c0,0,0-0.1,0,0
			c0,0,0,0,0,0c0,0,0-0.1,0.1-0.1c0,0,0,0,0-0.1c0,0-0.1,0.1,0,0c0,0,0-0.1,0.1-0.1c0,0,0,0,0,0c0,0,0,0,0,0c0,0,0.1,0,0.1-0.1
			c0,0,0,0,0,0c0.1,0-0.1,0,0,0c0,0,0.1,0,0.1,0c0,0,0,0,0.1,0c0.1,0-0.1,0,0,0c0,0,0.1,0,0.1,0c0,0,0,0,0.1,0c0.1,0-0.1,0,0,0
			c0,0,0.1,0,0.1,0c0,0,0,0,0.1,0c0.1,0-0.1,0,0,0c0,0,0.1,0,0.1,0.1c0.2,0.1,0.4,0,0.5-0.1c0.1-0.2,0-0.4-0.1-0.5
			c-0.4-0.2-0.9-0.3-1.3,0c-0.4,0.2-0.6,0.6-0.7,1.1c0,0.2,0.2,0.4,0.4,0.4C91.7,80,91.8,79.8,91.8,79.6L91.8,79.6z"/>
	</g>
</g>
<g>
	<g>
		<path class="st1" d="M91.3,80.2c-0.3,0.3-0.4,0.8-0.2,1.3c0.1,0.2,0.3,0.4,0.5,0.4c0.3,0.1,0.5,0.1,0.8,0.1c0.2,0,0.5-0.1,0.7-0.2
			c0.2-0.1,0.2-0.4,0.1-0.5c-0.1-0.2-0.3-0.2-0.5-0.1c0,0-0.1,0-0.1,0c0,0,0,0,0,0c0,0,0,0,0,0c0,0-0.1,0-0.2,0.1
			c-0.1,0-0.2,0.1-0.3,0.1c0,0,0.1,0,0.1,0c-0.1,0-0.2,0-0.3,0c0,0,0.1,0,0.1,0c0,0-0.1,0-0.1,0c0,0,0,0-0.1,0c0,0,0.1,0,0,0
			c0,0-0.1,0-0.1-0.1c0.1,0,0.1,0.1,0,0c0,0,0,0,0,0c0,0,0,0,0,0c0,0,0-0.1,0,0c0,0,0,0,0,0c0,0,0-0.1,0-0.1c0-0.1,0,0.1,0,0
			c0,0,0,0,0,0c0,0,0-0.1,0-0.1c0,0,0,0.1,0,0.1c0-0.1,0-0.1,0-0.2c0,0,0,0.1,0,0.1c0,0,0-0.1,0-0.1c0,0,0,0,0,0c0,0,0-0.1,0,0
			c0,0,0-0.1,0-0.1c0,0,0,0,0,0c0,0,0,0,0,0c0,0,0,0,0,0c0.1-0.1,0.2-0.4,0-0.5C91.6,80,91.4,80,91.3,80.2L91.3,80.2z"/>
	</g>
</g>
<g>
	<g>
		<path class="st1" d="M93.3,80.1c0.1-0.1,0.2-0.3,0.3-0.4c0,0,0-0.1,0-0.1c0,0,0-0.1,0-0.1c0,0,0-0.1-0.1-0.1c0,0-0.1-0.1-0.1-0.1
			c-0.1,0-0.2-0.1-0.3,0c0,0-0.1,0-0.1,0c-0.1,0-0.1,0.1-0.1,0.1c-0.1,0.1-0.2,0.3-0.3,0.4c0,0,0,0.1,0,0.1c0,0,0,0.1,0,0.1
			c0,0,0,0.1,0.1,0.1c0,0,0.1,0.1,0.1,0.1c0.1,0,0.2,0.1,0.3,0c0,0,0.1,0,0.1,0C93.2,80.2,93.3,80.1,93.3,80.1L93.3,80.1z"/>
	</g>
</g>
<g>
	<g>
		<path class="st1" d="M125.2,82.7c0.1,0,0.2-0.1,0.2-0.1c0,0,0.1,0,0.1,0c0.1-0.1-0.1,0,0.1,0c0.2-0.1,0.3-0.1,0.5-0.1
			c-0.1,0,0,0,0.1,0c0,0,0.1,0,0.1,0c0,0,0.1,0,0.1,0c-0.1,0,0,0,0,0c0.1,0,0.1,0,0.2,0.1c0,0,0,0,0,0c0,0,0,0,0.1,0
			c0,0,0.1,0,0.1,0c0.1,0,0,0,0,0c0,0,0,0,0.1,0.1c0,0,0,0,0,0c0,0,0,0,0,0c0,0,0.1,0.1,0.1,0.1c0,0,0-0.1,0,0c0,0,0,0,0,0
			c0,0.1,0,0,0,0c0,0,0,0.1,0,0.1c0,0.1,0-0.1,0,0c0,0,0,0.1,0,0.1c0,0,0,0,0,0c0,0,0,0,0,0c0,0,0,0.1,0,0.1c0,0,0,0,0,0
			c0,0,0,0,0,0c0,0,0,0.1-0.1,0.1c0,0,0.1-0.1,0,0c-0.1,0,0.1,0,0,0c-0.1,0,0,0,0,0c-0.2,0-0.4,0.2-0.4,0.4c0,0.2,0.2,0.4,0.4,0.4
			c0.3,0,0.6-0.2,0.7-0.5c0.1-0.3,0.2-0.6,0.1-0.9c-0.2-0.6-0.9-0.9-1.6-0.8c-0.4,0.1-0.8,0.2-1.2,0.4c-0.2,0.1-0.2,0.4-0.1,0.5
			C124.8,82.7,125,82.8,125.2,82.7L125.2,82.7z"/>
	</g>
</g>
<g>
	<g>
		<path class="st1" d="M132.6,88.8c4.5-0.8,9.1-1.1,13.6-0.8c1,0.1,1-1.4,0-1.5c-4.7-0.3-9.4,0-14,0.9
			C131.3,87.5,131.7,88.9,132.6,88.8L132.6,88.8z"/>
	</g>
</g>
<g>
	<g>
		<path class="st1" d="M134,92.5c3.4,0.6,6.9,1.1,10.3,1.7c0.9,0.2,1.4-1.3,0.4-1.4c-3.4-0.6-6.9-1.1-10.3-1.7
			C133.4,90.9,133,92.4,134,92.5L134,92.5z"/>
	</g>
</g>
<g>
	<g>
		<path class="st1" d="M84.7,85.7c-4.7-2-9.7-3.5-14.7-4.4c-0.1,0.5-0.1,1-0.2,1.5c0.2,0,0.3,0,0.5,0.1c1,0.1,0.9-1.4,0-1.5
			c-0.2,0-0.3,0-0.5-0.1c-0.8-0.1-1,1.3-0.2,1.5c4.9,0.9,9.8,2.3,14.4,4.3C84.8,87.3,85.6,86,84.7,85.7L84.7,85.7z"/>
	</g>
</g>
<g>
	<g>
		<path class="st1" d="M82.3,89.4c-3,0-6,0-8.9,0c-1,0-1,1.5,0,1.5c3,0,6,0,8.9,0C83.3,90.9,83.3,89.4,82.3,89.4L82.3,89.4z"/>
	</g>
</g>
<path class="st2" d="M115.6,114.8"/>
<path class="st2" d="M115.6,114.8"/>
<g>
	<g>
		<g>
			<path class="st1" d="M148.2,151.7c6.7-8.7,13.8-17.4,17.7-27.9c2.4-6.4,2.8-13.4,2.1-20.1c-0.3-2.6-0.6-5.3-1.4-7.8
				c-0.7-2.5-1.5-5-2.4-7.4c-2.2-6.4-4.5-12.7-7.1-18.9c-0.7-1.8-3.6-1-2.9,0.8c2.1,5.2,4.1,10.5,6,15.8c1.7,4.7,3.5,9.4,4.3,14.4
				c1.1,6.6,1.1,13.5-0.7,19.9c-1.7,6-5.1,11.5-8.5,16.7c-2.9,4.3-6.1,8.3-9.3,12.4C144.9,151.1,147,153.3,148.2,151.7L148.2,151.7z
				"/>
		</g>
	</g>
</g>
<g>
	<g>
		<g>
			<path class="st1" d="M64.5,141.3c-4.4-5.9-8.3-12.2-10.7-19.1c-2.2-6.5-2.7-13.2-2.1-20c0-0.3,0,0,0-0.1c0-0.2,0.1-0.3,0.1-0.5
				c0.1-0.4,0.2-0.8,0.3-1.1c0.2-1,0.5-1.9,0.8-2.9c0.7-2.3,1.5-4.7,2.3-7c1.1-3,2.1-6.5,3.5-9.1c3.7-6.8,8.7-12.8,13-19.3
				c1.1-1.6-1.5-3.1-2.6-1.5c-3.9,5.9-8.4,11.5-12.1,17.6c-1.9,3.2-3,6.7-4.3,10.2c-1.4,4.1-3.2,8.4-3.9,12.7
				c-0.1,0.3-0.1,0.7-0.1,1c0,0.4,0-0.1,0,0.1c0,0.5-0.1,1-0.2,1.5c-0.1,2-0.2,3.9-0.1,5.9c0.2,3.6,0.7,7.3,1.7,10.8
				c2.3,8.2,6.7,15.6,11.8,22.4C63,144.4,65.6,142.9,64.5,141.3L64.5,141.3z"/>
		</g>
	</g>
</g>
<g>
	<path class="st3" d="M119,120.4c-0.4-3-0.9-6-1.6-8.9c-0.3-1.3-0.6-2.6-1-3.9c-0.4-1.2-1.1-2.2-2.5-2.3c-1.5-0.2-3.1,0.1-4.6,0.2
		c-1.7,0.1-3.4,0.2-5.1,0.3c-3.2,0.1-6.4,0-9.4-1.1c-0.8-0.3-1.4,0.3-1.4,1c-1,0-2,0.5-2.5,1.4c-0.7,1.2-0.3,2.6-0.1,3.8
		c0.4,3.1,0.9,6.1,1.3,9.2c0.2,1.2,0.1,3,0.9,4c0.7,1,2.2,1.1,3.4,1.1c1.5-0.1,2.9-0.5,4.3-0.8c1.5-0.3,3-0.4,4.5-0.5
		c3-0.1,6.1,0.2,9.1,0.2c1.2,0,3,0.3,4-0.6C119.3,122.8,119.2,121.5,119,120.4z"/>
	<g>
		<g>
			<path class="st1" d="M89.2,106.1c-0.1,7,0.8,13.9,2.7,20.6c0.2,0.6,0.8,1.2,1.4,1.1c8.9-1.1,17.9-1.6,26.9-1.4
				c0.8,0,1.6-0.7,1.5-1.5c-0.4-6.8-3.2-13.2-5.5-19.5c-0.7-1.8-3.6-1-2.9,0.8c2.2,6.1,4.9,12.2,5.4,18.7c0.5-0.5,1-1,1.5-1.5
				c-9-0.2-18,0.3-26.9,1.4c0.5,0.4,1,0.7,1.4,1.1c-1.8-6.5-2.7-13.1-2.6-19.8C92.2,104.2,89.2,104.2,89.2,106.1L89.2,106.1z"/>
		</g>
	</g>
	<g>
		<g>
			<path class="st1" d="M91.1,107.1c7.8-1.1,15.8-1.4,23.7-0.4c0.8,0.1,1.5-0.8,1.5-1.5c0-0.9-0.7-1.4-1.5-1.5
				c-8.1-1.1-16.3-0.6-24.5,0.5c-0.8,0.1-1.2,1.1-1,1.8C89.4,107,90.3,107.2,91.1,107.1L91.1,107.1z"/>
		</g>
	</g>
	<g>
		<g>
			<path class="st1" d="M90.7,106.2c1.8,3,3.8,5.9,5.9,8.6c1.1,1.4,2.2,2.7,3.3,4.1c1,1.2,2.2,3,3.7,3.7c1.6,0.8,2.8-0.4,3.6-1.7
				c0.9-1.6,1.9-3.2,2.8-4.8c2-3.2,4-6.4,5.9-9.7c-0.9-0.1-1.8-0.2-2.7-0.4c0.2,0.8,0.7,0.5,1.7-0.9c0.2,0.1,0.2,0.1,0,0
				c-0.2-0.1-0.4-0.2-0.6-0.2c-0.6-0.2-1.3,0-1.7,0.4c-0.5,0.6-0.6,1.5,0,2.1c0.5,0.5,1.6,0.6,2.1,0c-0.5,0.4-0.9,0.5-1.3,0.3
				c-0.1,0-0.1,0,0,0c0.1,0.1,0.3,0.2,0.5,0.2c0.4,0.1,0.8,0.1,1.3,0c1.1-0.5,1.1-1.7,0.9-2.7c-0.3-1.3-2.1-1.5-2.7-0.4
				c-1.5,2.8-3.2,5.4-4.9,8.1c-0.8,1.3-1.7,2.7-2.5,4c-0.4,0.7-0.9,1.5-1.3,2.2c-0.1,0.1-0.1,0.3-0.2,0.4c-0.2,0.3-0.2,0.3,0.1,0.2
				c0.6,0.2-0.3-0.6-0.5-0.8c-4.1-4.4-7.7-9.2-10.9-14.3C92.3,103.1,89.7,104.6,90.7,106.2L90.7,106.2z"/>
		</g>
	</g>
	<g>
		<g>
			<path class="st4" d="M114.2,99.6c-0.6-0.5-1.5-0.2-2.1,0.3c-0.5,0.4-1,0.8-1.4,1.3c-0.3,0.3-0.6,0.6-0.7,1
				c-0.4,0.8-0.4,1.7-0.4,2.5c0,0.9,0.1,1.9,0.5,2.7c0.4,0.9,1,1.6,1.9,2c0.6,0.2,1.3,0.3,2,0.3c0.5,0,1,0,1.5,0
				c0.4,0,0.7,0,1.1-0.1c0.6-0.2,1.1-0.6,1.5-1.2c0.6-0.9,0.9-2,0.9-3c-0.1-1.9-1.2-3.5-2.4-4.9c-0.4-0.5-1-1-1.6-0.7"/>
		</g>
		<g>
			<g>
				<path class="st5" d="M110.7,106.2c0.2,0.7,1,1,1.6,0.8c0.5-0.2,0.9-0.6,1.3-1.1c0.7-0.9,1.2-1.8,1.4-2.9c-0.5,0-1,0-1.4,0
					c0.4,1.4,0.8,2.9,1,4.4c0.1,0.4,0.6,0.6,0.9,0.5c0.4-0.1,0.6-0.5,0.5-0.9c-0.3-1.5-0.6-2.9-1-4.4c-0.2-0.7-1.3-0.7-1.4,0
					c0,0.2-0.1,0.4-0.2,0.6c0,0.1-0.1,0.2-0.1,0.3c0,0,0,0.1-0.1,0.1c0-0.1,0-0.1,0,0c-0.2,0.3-0.3,0.7-0.5,1c0,0.1-0.1,0.1-0.1,0.2
					c0,0-0.1,0.1-0.1,0.1c0-0.1,0-0.1,0,0c-0.1,0.1-0.2,0.3-0.4,0.4c-0.1,0.1-0.1,0.1-0.2,0.2c0.1,0,0.1,0,0,0c-0.1,0-0.1,0,0,0
					c-0.1,0-0.1,0,0,0c0.1,0,0.1,0,0,0c0.1,0.1,0.2,0.1,0.2,0.2c-0.1-0.4-0.5-0.7-0.9-0.5C110.9,105.4,110.6,105.8,110.7,106.2
					L110.7,106.2z"/>
			</g>
		</g>
	</g>
</g>
<g>
	<g>
		<path class="st1" d="M130.4,122c-2.9-3-6.5-5.4-9.7-8.1c-0.3-0.2-0.5-0.4-0.7-0.7c-0.1-0.1-0.2-0.2-0.3-0.3c-0.3-0.3,0.1,0.2,0,0
			c-0.1-0.2,0.2,0.5,0.1,0.5c-0.1,0,0.1-0.7,0.1-0.7c0.1-0.2,0.1-0.3,0.2-0.5c0.1-0.2,0.2-0.2,0.1-0.1c0,0,0.1-0.1,0.1-0.1
			c1.3-0.8,2.7-1.3,4.1-1.8c1.2-0.4,2.3-0.8,3.5-1.2c1.1-0.3,1.7-0.5,2.8-0.4c1.9,0.1,1.9-2.9,0-3c-2.2-0.1-4.5,0.7-6.6,1.5
			c-1.8,0.7-3.7,1.3-5.4,2.3c-1.1,0.6-1.8,1.8-2,3c-0.2,1.1,0,1.9,0.7,2.7c1.3,1.4,3,2.6,4.5,3.8c2.1,1.7,4.3,3.4,6.2,5.3
			C129.6,125.5,131.8,123.4,130.4,122L130.4,122z"/>
	</g>
</g>
<path class="st0" d="M92.7,110.5c-0.6-0.6-1.3-0.8-2.1-0.9c-1.6-0.2-3.2-0.1-4.7,0c-2.2,0.3-4.6,0.6-5.9,2.6c-0.7,1-0.8,2.3-0.5,3.4
	c0.4,1.7,2.1,2.8,3.7,2.8c0.9,0,1.9-0.3,2.8-0.5c0.8-0.2,1.6-0.4,2.4-0.5c0.9-0.2,1.7-1,2-1.9c0,0,0.1,0,0.1,0
	c0.7,0.1,1.6-0.4,2.1-0.9c0.5-0.5,0.9-1.4,0.9-2.1C93.5,111.8,93.3,111,92.7,110.5z"/>
<g>
	<g>
		<path class="st1" d="M84.6,124.4c3.2-3.3,7.1-5.6,10.4-8.7c0.5-0.5,1.1-1.1,1.1-1.9c0.1-1.5-0.6-3.1-1.8-4
			c-1.4-0.9-3.1-1.5-4.7-2.1c-2.3-0.9-5-1.9-7.5-1.8c-1.9,0.1-1.9,3.1,0,3c1.7-0.1,3.7,0.6,5.5,1.3c1.7,0.6,3.2,1.2,4.7,2
			c0.1,0.1,0.5,0.3,0.3,0.2c0.4,0.4,0.4,0.8,0.5,1.3c0,0.3,0.2-0.5,0.1-0.4c-0.1,0.3,0.2-0.2,0,0c-0.2,0.2-0.4,0.5-0.7,0.7
			c-1.4,1.3-3,2.5-4.5,3.7c-1.9,1.5-3.9,3-5.6,4.8C81.1,123.6,83.2,125.8,84.6,124.4L84.6,124.4z"/>
	</g>
</g>
<g>
	<g>
		<path class="st1" d="M99.5,88c0.5,1.4,0.9,2.8,1.5,4.1c0.4,1,1,2,2,2.5c2.6,1.2,4.8-1.8,6.3-3.5c-0.4-0.1-0.8-0.1-1.2-0.2
			c1.3,1.9,2.9,5.4,5.7,5.1c2.8-0.3,4.3-3.8,5.6-5.8c0.5-0.8-0.8-1.6-1.3-0.8c-0.6,1-1.2,1.9-1.8,2.9c-0.6,0.9-1.3,2-2.4,2.2
			c-1.1,0.3-2-0.7-2.6-1.5c-0.7-0.9-1.3-1.9-1.9-2.8c-0.3-0.4-0.8-0.5-1.2-0.2c-1,1.1-3.1,4.4-4.9,3c-0.7-0.5-1-1.4-1.3-2.2
			c-0.4-1.1-0.7-2.1-1.1-3.2C100.6,86.7,99.2,87.1,99.5,88L99.5,88z"/>
	</g>
</g>
</svg>
