<?xml version="1.0" encoding="utf-8"?>
<!-- Generator: Adobe Illustrator 26.3.1, SVG Export Plug-In . SVG Version: 6.00 Build 0)  -->
<svg version="1.1" id="Calque_1" xmlns="http://www.w3.org/2000/svg" xmlns:xlink="http://www.w3.org/1999/xlink" x="0px" y="0px"
	 viewBox="0 0 200 200" style="enable-background:new 0 0 200 200;" xml:space="preserve">
<style type="text/css">
	.st0{fill:#FD1015;}
	.st1{fill:#E7F4DF;}
	.st2{fill:#FFFFFF;}
	.st3{fill:#10101A;}
	.st4{fill:#10101A;stroke:#10101A;stroke-miterlimit:10;}
	.st5{fill:none;stroke:#10101A;stroke-miterlimit:10;}
	.st6{fill:none;stroke:#10101A;stroke-width:2;stroke-miterlimit:10;}
</style>
<g>
	<g>
		<path class="st0" d="M50.3,131.1c-3.4-0.7-5.8-2.6-8-5.3c-2.2-2.7-4-5.7-6.7-8c-2.6-2.3-5.9-3.7-9.4-4.1c-1.8-0.2-3.7-0.1-5.5,0.6
			c-3.3,1.4-5.5,5.1-5.4,8.7c0,3.6,2,7.1,4.7,9.4c2.8,2.3,4.5,3.3,8.7,4.6c-1.3,0.7-2.4,3.8-2.3,4.1c0.2,0.6,1.6-0.2,2.2-0.3
			c3.9-0.6,7.8,1.3,11.5,2.6c3.8,1.3,7.1,0.6,10.9-0.5"/>
		<g>
			<path class="st1" d="M50.7,129.6c-5-1-7.5-5.2-10.4-9c-3.2-4.1-7.2-7.3-12.4-8.3c-4.9-0.9-9.8,0.3-12.5,4.8
				c-2.4,4.1-1.9,9.2,0.8,13.1c2.9,4.2,7.5,6.7,12.2,8.2c-0.1-0.9-0.2-1.8-0.4-2.7c-1.5,0.9-3.1,3.4-3.1,5.3c0,1.3,1.2,1.9,2.4,1.7
				c0.5-0.1,1-0.3,1.5-0.5c0.8-0.2,1.6-0.1,2.4,0c3.5,0.3,6.5,2.2,9.9,3c3.5,0.8,7,0.1,10.3-0.9c1.9-0.5,1.1-3.4-0.8-2.9
				c-2.1,0.6-4.3,1.2-6.6,1.1c-2.2,0-4.2-0.9-6.3-1.6c-2-0.7-4-1.4-6.2-1.7c-1-0.1-2-0.1-3,0c-0.4,0.1-0.7,0.1-1.1,0.3
				c-0.2,0.1-0.4,0.1-0.5,0.2c-0.3,0.1-0.3,0.1,0,0c0.3,0.2,0.6,0.5,0.9,0.7c0.2,0.3-0.1,1.1,0.2,0.4c0.1-0.3,0.2-0.6,0.4-0.9
				c0.3-0.6,0.6-1.3,1.2-1.6c1.1-0.7,0.9-2.3-0.4-2.7c-3.5-1.2-6.9-2.8-9.4-5.6c-2.8-3-3.9-7.6-1.7-11.3c2.4-4.1,7.2-4.2,11.3-2.8
				c4.5,1.5,7.3,4.9,10,8.5c2.8,3.7,5.8,7.2,10.6,8.2C51.8,132.9,52.6,130,50.7,129.6L50.7,129.6z"/>
		</g>
	</g>
	<g>
		<g>
			<path class="st1" d="M21.7,114.3c-1,3.4-1.5,6.9-1.4,10.5c0.1,1.7,0.3,3.4,0.6,5.1c0.2,0.9,0.3,1.8,0.6,2.6
				c0.2,0.4,0.4,0.7,0.8,0.6c0.5,0,0.5-0.8,0-0.8c-0.4,0-0.9-4.2-1-4.6c-0.2-1.5-0.3-2.9-0.3-4.4c0-3,0.5-6,1.4-8.9
				C22.6,114,21.8,113.8,21.7,114.3L21.7,114.3z"/>
		</g>
	</g>
	<g>
		<g>
			<path class="st1" d="M25.7,113.6c-0.7,1.1-0.6,2.8-0.7,4c-0.1,2.3,0.1,4.7,0.3,7c0.2,2.4,0.5,4.8,1,7.1c0.2,0.9,0.4,1.8,0.7,2.7
				c0.2,0.5,0.4,1.5,1,1.7c0.2,0.1,0.3,0,0.4-0.2c0.1-0.1,0.1-0.3,0.1-0.4c0-0.2-0.2-0.3-0.4-0.3c0,0,0,0-0.1,0
				c-0.5,0-0.5,0.8,0,0.8c0,0,0,0,0.1,0c-0.1-0.1-0.2-0.2-0.4-0.3c0,0,0-0.1,0-0.1c0.1-0.1,0.3-0.1,0.4-0.2
				c-0.3-0.1-0.6-1.6-0.7-1.9c-0.3-0.9-0.5-1.8-0.6-2.7c-0.4-2.2-0.7-4.5-0.9-6.7c-0.2-2.1-0.3-4.2-0.2-6.3c0-1.2-0.1-2.8,0.6-3.8
				C26.6,113.6,25.9,113.2,25.7,113.6L25.7,113.6z"/>
		</g>
	</g>
	<g>
		<g>
			<path class="st1" d="M23.8,114.2c-1,1.3-0.9,3.1-1,4.6c-0.1,1.9-0.1,3.9,0,5.8c0.1,1.8,0.3,3.7,0.7,5.5c0.2,1,0.4,1.9,0.7,2.9
				c0.2,0.5,0.2,1.4,0.7,1.8c0.1,0.1,0.3,0.1,0.5,0.1c0,0,0.1,0,0.1-0.1c0.1,0,0.2-0.2,0.2-0.3c0,0,0-0.1,0-0.1c0-0.5-0.8-0.5-0.8,0
				c0-0.1,0.1-0.1,0.1-0.2c0.2,0,0.3,0,0.5,0.1c-0.4-0.4-0.7-2-0.8-2.6c-0.2-0.7-0.3-1.5-0.5-2.2c-0.3-1.7-0.5-3.5-0.6-5.3
				c-0.1-1.6-0.1-3.2,0-4.9c0.1-1.6,0-3.5,0.9-4.8C24.8,114.2,24.1,113.8,23.8,114.2L23.8,114.2z"/>
		</g>
	</g>
	<g>
		<g>
			<path class="st1" d="M27.3,113.7c-0.8,6.1,0.2,12.5,1.2,18.6c0.1,0.7,0.2,1.4,0.4,2.2c0.1,0.6,0.4,1.4,0.5,1.9
				c0,0.3,0,0.7,0.1,1.1c0.1,0.6,0.4,2.7,1.1,2.9c0.5,0.1,0.7-0.6,0.2-0.7c0.3,0.1,0.1,0,0-0.4c-0.1-0.3-0.2-0.5-0.2-0.8
				c-0.2-0.6-0.3-1.1-0.4-1.7c-0.1-0.3-0.1,0.2-0.1,0.1c0,0,0.1-0.1,0.1-0.2c-0.1-0.4-0.2-0.9-0.2-1.4c-0.3-1.4-0.5-2.9-0.8-4.3
				c-0.9-5.6-1.7-11.5-1-17.2C28.1,113.2,27.4,113.3,27.3,113.7L27.3,113.7z"/>
		</g>
	</g>
	<g>
		<g>
			<path class="st1" d="M29.1,115.5c-0.6,4.3,0.4,8.6,1.2,12.8c0.8,4.5,1.6,8.9,3.3,13.2c0.1,0.3,0.6,0.4,0.7,0
				c0-0.1,0.1-0.3,0.1-0.4c0.1-0.5-0.6-0.7-0.7-0.2c0,0.1-0.1,0.3-0.1,0.4c0.2,0,0.5,0,0.7,0c-1.6-4.1-2.5-8.4-3.2-12.7
				c-0.7-4.3-1.8-8.7-1.2-13C29.9,115.1,29.2,115.1,29.1,115.5L29.1,115.5z"/>
		</g>
	</g>
	<g>
		<g>
			<path class="st1" d="M31,115.7c0.2,5,0.8,9.9,1.8,14.8c0.5,2.4,0.9,4.7,1.6,7c0.3,1,0.6,2,1,3c0.2,0.6,0.4,1.4,1,1.6
				c0.2,0.1,0.3,0,0.4-0.2c0.1-0.2,0.1-0.3,0-0.5c-0.1-0.2-0.3-0.2-0.4-0.2c0,0,0,0-0.1,0c-0.5,0.1-0.3,0.8,0.2,0.7c0,0,0,0,0.1,0
				c-0.1-0.1-0.3-0.1-0.4-0.2c0-0.1,0-0.1,0-0.2c0.1-0.1,0.3-0.1,0.4-0.2c-0.2-0.1-0.7-1.5-0.7-1.5c-0.2-0.4-0.3-0.8-0.4-1.2
				c-0.3-1-0.6-2-0.9-3c-0.5-2.1-1-4.2-1.3-6.3c-0.8-4.5-1.3-9.1-1.6-13.6C31.7,115.2,31,115.2,31,115.7L31,115.7z"/>
		</g>
	</g>
	<g>
		<g>
			<path class="st1" d="M33.5,116.8c0.1,8.9,2.6,17.6,5.1,26.1c0.1,0.3,0.5,0.4,0.7,0.1c0.1-0.2,0.2-0.3,0.2-0.5
				c0.2-0.4-0.4-0.8-0.6-0.4c-0.1,0.2-0.2,0.3-0.2,0.5c0.2,0,0.5,0.1,0.7,0.1c-2.5-8.5-4.9-17-5-25.9
				C34.2,116.3,33.5,116.3,33.5,116.8L33.5,116.8z"/>
		</g>
	</g>
	<g>
		<g>
			<path class="st1" d="M35.5,119.2c0.1,4.3,1.2,8.5,2.3,12.7c0.6,2.1,1.2,4.1,1.7,6.2c0.5,1.9,1,3.8,2,5.5c0.2,0.3,0.6,0.2,0.7-0.1
				c0.1-0.2,0.1-0.3,0.2-0.5c0.2-0.5-0.6-0.6-0.7-0.2c-0.1,0.2-0.1,0.3-0.2,0.5c0.2,0,0.5-0.1,0.7-0.1c-1.1-1.8-1.5-3.8-2-5.8
				c-0.5-1.9-1.1-3.9-1.6-5.8c-1.1-4.1-2.1-8.2-2.3-12.5C36.2,118.7,35.5,118.7,35.5,119.2L35.5,119.2z"/>
		</g>
	</g>
	<g>
		<g>
			<path class="st1" d="M38,121.8c0.4,4,0.9,8.1,1.7,12.1c0.4,2,0.9,3.9,1.6,5.8c0.3,1,0.7,1.9,1.1,2.9c0.2,0.5,0.3,1,0.8,1.2
				c0.2,0.1,0.3,0,0.4-0.2c0.1-0.2,0.1-0.3,0.1-0.5c-0.1-0.2-0.2-0.3-0.5-0.3c0,0,0,0-0.1,0c-0.5,0.1-0.3,0.8,0.2,0.7c0,0,0,0,0.1,0
				c-0.2-0.1-0.3-0.2-0.5-0.3c0,0,0-0.1,0-0.1c0.1-0.1,0.3-0.1,0.4-0.2c-0.2-0.1-0.5-1.2-0.6-1.4c-0.1-0.4-0.3-0.7-0.4-1.1
				c-0.3-0.9-0.6-1.7-0.9-2.6c-0.5-1.7-0.9-3.4-1.3-5.1c-0.7-3.7-1.1-7.4-1.5-11.1C38.7,121.4,38,121.3,38,121.8L38,121.8z"/>
		</g>
	</g>
	<g>
		<g>
			<path class="st1" d="M40.5,125c0.3,3.6,0.6,7.3,1.4,10.8c0.3,1.6,0.8,3.2,1.5,4.6c0.4,0.8,0.8,1.5,1.2,2.2c0.3,0.4,0.5,0.9,1,1
				c0.2,0,0.3-0.1,0.4-0.3c0.1-0.2,0-0.3-0.1-0.5c-0.1-0.1-0.3-0.1-0.5-0.1c0,0,0,0,0,0c-0.4,0.2,0,0.9,0.4,0.6c0,0,0,0,0,0
				c-0.2,0-0.3,0-0.5-0.1c0,0,0,0,0,0.1c0-0.1-0.1-0.2-0.1-0.4c0,0,0,0,0,0.1c0.1-0.1,0.2-0.2,0.4-0.3c0.2,0.1,0.1-0.1-0.2-0.4
				c-0.1-0.2-0.2-0.3-0.3-0.5c-0.2-0.3-0.4-0.7-0.6-1c-0.4-0.7-0.7-1.4-0.9-2.1c-0.5-1.4-0.9-2.8-1.1-4.2c-0.6-3.2-0.9-6.5-1.2-9.7
				C41.2,124.5,40.5,124.5,40.5,125L40.5,125z"/>
		</g>
	</g>
	<g>
		<g>
			<path class="st1" d="M42.4,127.3c0.6,3,0.6,6,1.3,8.9c0.7,2.6,1.8,5.1,3.3,7.3c0.3,0.4,0.9,0,0.6-0.4c-1.5-2.3-2.6-4.8-3.2-7.4
				c-0.7-2.8-0.7-5.8-1.3-8.6C43.1,126.6,42.3,126.8,42.4,127.3L42.4,127.3z"/>
		</g>
	</g>
	<g>
		<g>
			<path class="st1" d="M44,128.6c0.3,2.5,0.6,5,1,7.4c0.4,2.3,1.3,4.4,2.5,6.4c0.3,0.4,0.9,0,0.6-0.4c-1.2-1.9-2.1-4-2.5-6.2
				c-0.4-2.4-0.7-4.8-1-7.2C44.7,128.1,43.9,128.1,44,128.6L44,128.6z"/>
		</g>
	</g>
	<g>
		<g>
			<path class="st1" d="M46.7,130.7c0,2.6,0,5.2,0.4,7.8c0.2,1.3,0.5,2.5,0.9,3.7c0.1,0.3,0.3,0.9,0.7,1c0.3,0.1,0.6-0.2,0.6-0.5
				c0-0.5-0.8-0.5-0.8,0c0.3-0.1,0.4-0.3,0.2-0.6c-0.1-0.1-0.1-0.3-0.2-0.4c-0.1-0.2-0.1-0.4-0.2-0.6c-0.1-0.5-0.3-1-0.4-1.5
				c-0.2-1-0.3-2-0.4-2.9c-0.2-2-0.2-4-0.1-6C47.4,130.2,46.7,130.2,46.7,130.7L46.7,130.7z"/>
		</g>
	</g>
	<g>
		<g>
			<path class="st1" d="M48.8,131.4c0,2.1-0.2,4.2-0.2,6.2c0,1,0,2,0.2,3c0.1,0.5,0.2,0.9,0.3,1.4c0.1,0.3,0.1,0.8,0.4,0.9
				c0.1,0.1,0.3,0.1,0.5-0.1c0.1-0.1,0.2-0.3,0.1-0.4c0-0.2-0.2-0.3-0.4-0.3c0,0,0,0,0,0c-0.5,0-0.5,0.7,0,0.8c0,0,0,0,0,0
				c-0.1-0.1-0.2-0.2-0.4-0.3c0,0,0,0,0,0.1c0-0.1,0.1-0.2,0.1-0.4c0,0,0,0,0,0c0.2,0,0.3,0,0.5-0.1c0,0-0.1-0.5-0.1-0.6
				c-0.1-0.2-0.1-0.5-0.1-0.7c-0.1-0.4-0.1-0.9-0.2-1.3c-0.1-0.9-0.1-1.9-0.1-2.8c0-1.8,0.2-3.7,0.2-5.5
				C49.6,130.9,48.8,130.9,48.8,131.4L48.8,131.4z"/>
		</g>
	</g>
	<g>
		<g>
			<path class="st1" d="M19.9,115c-1.7,4.9-2.4,10.1-1.8,15.3c0,0.3,0.2,0.4,0.5,0.4c0.2,0,0.5-0.1,0.7-0.1c0.5-0.1,0.3-0.8-0.2-0.7
				c-0.2,0-0.5,0.1-0.7,0.1c0.2,0.1,0.3,0.2,0.5,0.4c-0.5-5.1,0.1-10.2,1.8-15.1C20.8,114.7,20.1,114.5,19.9,115L19.9,115z"/>
		</g>
	</g>
</g>
<g>
	<path class="st0" d="M142.3,96c0-1.1-0.5-2.3-1.4-3.1c-0.9-0.8-2.2-0.9-3.4-0.8c-1.8,0-3.5,0.2-5.3,0.3c0-0.1,0-0.2,0-0.2
		c-1.2-3.9-3.1-7.5-4.9-11.1c0.4-2.7,0.8-5.5,1-8.2c0.2-3.1,0.6-6.9-1.2-9.6c-0.7-1.1-1.9-2-3.2-2.3c-1.7-0.4-3.4,0.3-4.8,1.1
		c-2.9,1.7-5.7,3.8-8.3,5.9c-13.8-5.5-29.7-5.3-43.4,0.7c-1.3-1-2.6-1.8-4-2.6c-1.4-0.8-2.9-1.5-4.4-2.1c-1.6-0.7-3.5-1.2-5.2-0.5
		c-1.1,0.5-2,1.4-2.3,2.6c-0.1,0.6-0.1,1.2-0.2,1.8c-0.1,2.3-0.2,4.7-0.1,7c0,1.8,0.1,3.6,0.4,5.4c-0.1,0.1-0.2,0.2-0.2,0.3
		c-2.7,4.9-6,9.7-7.5,15.1c-0.2,0.1-1.2,0-1.4,0c-0.6,0-1.3,0-1.9,0.1c-1.3,0.1-2.7,0.5-3.9,1c-2.4,0.9-4.6,2.6-4.2,5.5
		c0.3,2.5,2.1,4.7,3.6,6.6c1.7,2.1,3.5,4.1,4.7,6.5c0.1,0.3,0.3,0.5,0.5,0.6c0,12.5,1.3,26,9.9,35.8c-0.1,0.2-0.1,0.5-0.2,0.7
		c-0.3,1.4-0.7,2.8-0.9,4.2c-0.1,1.5-0.2,3.2,0.1,4.6c0.3,1.5,1.5,2.2,2.9,2.4c3,0.4,5.8-1,8.2-2.7c0.8-0.5,1.5-1.1,2.2-1.7
		c14.5,4.8,32.1,7,46-0.5c0.1,0,0.2-0.1,0.4-0.2c0.7-0.5,1.8-0.3,2.6-0.1c1.1,0.2,2.1,0.8,3.1,1.3c2.4,1.3,5.5,3.1,8.2,1.7
		c2.5-1.3,3.1-4.6,2.7-7.2c-0.1-0.9-0.3-1.7-0.5-2.6c1.8-2.5,3.8-4.7,5.4-7.3c1.7-2.9,3-6.3,4.2-9.5c1.9-5.5,3-11.3,2.3-17.1
		c-0.3-3.1-1.1-6.2-2.2-9.1c1.4-1.8,2.8-3.6,3.9-5.5C140.9,101,142.4,98.5,142.3,96z"/>
</g>
<g>
	<g>
		<path class="st1" d="M63.2,159.3c14.6,4.9,32.6,7.1,46.7-0.6c1.7-0.9,0.2-3.5-1.5-2.6c-13.4,7.3-30.5,4.9-44.4,0.3
			C62.2,155.8,61.4,158.7,63.2,159.3L63.2,159.3z"/>
	</g>
</g>
<g>
	<g>
		<path class="st1" d="M51.2,148.3c0.2,0.4,0.1,1.3,0,1.7c-0.1,0.7-0.2,1.4-0.4,2.1c-0.4,1.5-0.8,3-0.9,4.6
			c-0.1,1.4-0.2,3.2,0.1,4.6c0.4,1.5,1.7,2.2,3.1,2.4c3,0.4,5.8-1,8.2-2.6c2.5-1.8,4.9-3.8,7-6.1c1.3-1.4-0.8-3.5-2.1-2.1
			c-1.8,1.9-3.8,3.7-5.9,5.3c-1.9,1.4-4.3,2.9-6.7,2.6c-0.2,0-0.4,0-0.6-0.1c0,0,0,0.2-0.1-0.2c0-0.6-0.1-1.2-0.1-1.9
			c0-1.3,0.1-2.6,0.4-3.9c0.3-1.3,0.7-2.6,0.9-4c0.2-1.2,0.4-2.9-0.4-4C52.7,145.2,50.1,146.7,51.2,148.3L51.2,148.3z"/>
	</g>
</g>
<g>
	<g>
		<path class="st1" d="M109.9,158.8c0.5-0.4,1.5-0.4,2.3-0.2c1.2,0.2,1.9,0.6,2.9,1.2c2.4,1.3,5.4,3.2,8.3,2.1
			c3-1.1,3.7-4.6,3.3-7.5c-0.4-3.1-1.6-6.2-2.5-9.2c-0.6-1.8-3.5-1.1-2.9,0.8c0.4,1.5,0.9,2.9,1.3,4.4c0.4,1.3,0.9,2.7,1.1,4.1
			c0.3,1.9,0,5-2.6,4.6c-2.5-0.4-4.5-2.3-6.9-3.1c-1.7-0.6-4.4-1-6,0.2c-0.6,0.5-1,1.3-0.5,2.1C108.2,158.9,109.3,159.2,109.9,158.8
			L109.9,158.8z"/>
	</g>
</g>
<g>
	<g>
		<path class="st1" d="M126,152.1c2.4-3.5,5.2-6.5,7-10.4c1.8-3.8,3.4-7.8,4.3-11.9c1.7-7.4,1-14.7-1.6-21.8c-0.7-1.8-3.6-1-2.9,0.8
			c2.5,6.7,3.2,13.6,1.5,20.6c-1,3.9-2.5,7.6-4.2,11.2c-1.7,3.7-4.5,6.6-6.8,9.9C122.3,152.1,124.9,153.6,126,152.1L126,152.1z"/>
	</g>
</g>
<g>
	<g>
		<path class="st1" d="M135.4,109.5c1.6-2,3.2-4,4.5-6.3c0.6-1.1,1.2-2.2,1.7-3.4c0.5-1.2,1-2.6,0.9-4c-0.1-1.3-0.6-2.5-1.7-3.2
			c-1.1-0.7-2.3-0.8-3.6-0.7c-2.8,0.1-5.7,0.4-8.5,0.7c-0.8,0.1-1.2,1.1-1,1.8c0.2,0.9,1,1.2,1.8,1c2.3-0.3,4.5-0.5,6.8-0.6
			c0.8,0,2-0.3,2.7,0.1c0.6,0.3,0.6,1.2,0.4,1.8c-0.4,2-1.5,3.8-2.5,5.5c-1.1,1.7-2.4,3.4-3.6,5c-0.5,0.6-0.6,1.5,0,2.1
			C133.8,110,134.9,110.1,135.4,109.5L135.4,109.5z"/>
	</g>
</g>
<g>
	<g>
		<path class="st1" d="M53.3,149.9c-8.7-9.9-9.4-23.8-9.3-36.3c0-1.9-3-1.9-3,0C41,127,41.9,141.5,51.2,152
			C52.5,153.5,54.6,151.3,53.3,149.9L53.3,149.9z"/>
	</g>
</g>
<g>
	<g>
		<path class="st1" d="M43.2,113.9c-1.1-2.1-2.6-4-4.1-5.9c-1.4-1.7-3.2-3.6-3.8-5.8c-0.6-2.4,2.5-3.2,4.2-3.6
			c1.1-0.3,2.3-0.3,3.4-0.3c1.1,0,2.2-0.1,3-0.9c1.4-1.4-0.8-3.5-2.1-2.1c-0.2,0.2-1,0-1.2,0c-0.6,0-1.3,0-1.9,0.1
			c-1.4,0.1-2.7,0.4-4,0.9c-2.5,1-4.8,2.7-4.5,5.7c0.3,2.7,2.2,4.9,3.8,6.9c1.7,2.1,3.4,4.1,4.6,6.5
			C41.5,117.2,44.1,115.7,43.2,113.9L43.2,113.9z"/>
	</g>
</g>
<g>
	<g>
		<path class="st1" d="M45.9,99.7c0.6-6.7,4.9-12.2,8-17.9c0.9-1.7-1.7-3.2-2.6-1.5c-3.4,6.3-7.7,12.1-8.4,19.4
			c-0.1,0.8,0.7,1.5,1.5,1.5C45.3,101.2,45.8,100.5,45.9,99.7L45.9,99.7z"/>
	</g>
</g>
<g>
	<g>
		<path class="st1" d="M132.4,92.2c-1.2-4.1-3.3-7.9-5.1-11.7c-0.4-0.7-1.4-0.9-2.1-0.5c-0.7,0.4-0.9,1.3-0.5,2.1
			c1.8,3.6,3.7,7.1,4.8,11c0.2,0.8,1.1,1.3,1.8,1C132.1,93.9,132.6,93,132.4,92.2L132.4,92.2z"/>
	</g>
</g>
<g>
	<g>
		<path class="st1" d="M68.5,71.1c13.1-5.7,28.2-5.8,41.4-0.5c1.8,0.7,2.6-2.2,0.8-2.9c-14-5.6-30-5.2-43.7,0.8
			C65.3,69.3,66.8,71.9,68.5,71.1L68.5,71.1z"/>
	</g>
</g>
<g>
	<g>
		<g>
			<path class="st1" d="M55,82c-0.6-1.9-0.8-3.9-0.9-5.8c-0.1-2.2-0.1-4.4,0-6.6c0-0.8,0.1-1.6,0.1-2.4c0-0.2,0-0.5,0.1-0.7
				c0-0.2,0.1-0.3,0-0.1c-0.2,0.4,0,0,0,0c0.1,0,0.2-0.2,0.3-0.3c0.2-0.1,0.5-0.2,0.7-0.3c0.8-0.1,1.6,0.2,2.3,0.5
				c1.4,0.5,2.7,1.2,4,1.9c2.8,1.5,5.3,3.4,7.7,5.6c1.4,1.3,3.5-0.8,2.1-2.1c-2.4-2.2-4.9-4.3-7.8-5.8c-1.5-0.8-3-1.5-4.6-2.2
				c-1.7-0.7-3.5-1.2-5.2-0.5c-1.1,0.5-2.1,1.4-2.4,2.6c-0.1,0.7-0.2,1.4-0.2,2.1C51,70.1,51,72.4,51,74.7c0.1,2.7,0.2,5.5,1.1,8.1
				C52.7,84.6,55.6,83.8,55,82L55,82z"/>
		</g>
	</g>
	<g>
		<g>
			<path class="st1" d="M127.4,81.7c0.4-2.9,0.9-5.8,1.1-8.8c0.2-3.1,0.6-7-1.2-9.7c-0.8-1.2-2-2.2-3.5-2.5c-1.8-0.3-3.5,0.3-5,1.2
				c-3.1,1.8-6.1,4.1-8.9,6.3c-1,0.8-0.2,2.6,1.1,2.6c0.7,0,1.2-0.2,1.7-0.7c1.4-1.4-0.8-3.5-2.1-2.1c0,0-0.1,0-0.1,0
				c0.3-0.1,0.5-0.1,0.8-0.2c-0.1,0-0.2,0-0.2,0c0.4,0.9,0.7,1.7,1.1,2.6c2.3-1.9,4.7-3.6,7.2-5.2c1.1-0.7,2.5-1.7,3.9-1.5
				c1,0.2,1.7,1.1,2,2c0.5,1.3,0.4,2.7,0.4,4.1c0,1.3-0.1,2.6-0.1,3.9c-0.2,2.4-0.6,4.8-0.9,7.3c-0.1,0.8,0.2,1.6,1,1.8
				C126.3,82.9,127.3,82.5,127.4,81.7L127.4,81.7z"/>
		</g>
	</g>
	<g>
		<g>
			<path class="st1" d="M110.5,70.6c0.8,1.4,1.3,3.1,2.8,3.9c2.1,1.1,4.7-0.2,5.9-2c0.6-1,1.3-2,2-3c0.3-0.5,0.7-0.9,1.1-1.3
				c0.2-0.3,0.7-0.8,1.1-0.7c0.9,0.1,0.4,2.3,0.4,2.9c0,1.4,0,2.7,0,4.1c0,1.5,0.1,3,0.3,4.5c0.2,1.1,0.5,2.3,1.4,3
				c0.7,0.6,1.8-0.4,1.1-1.1c-0.7-0.6-0.9-1.7-1-2.6c-0.2-1.3-0.2-2.7-0.2-4c0-1.3-0.1-2.7,0-4c0.1-1,0.3-2.3-0.2-3.2
				c-0.5-0.9-1.7-1.2-2.6-0.7c-1,0.5-1.7,1.5-2.4,2.4c-0.7,0.9-1.3,1.8-1.9,2.8c-0.7,1.1-1.7,1.9-3.1,2c-1.9,0.1-2.5-2.2-3.2-3.5
				C111.3,69,110,69.7,110.5,70.6L110.5,70.6z"/>
		</g>
	</g>
	<g>
		<g>
			<path class="st1" d="M70.1,72.7c-0.8,0.5-1.3,1.2-2,1.7c-0.9,0.7-1.9,0-2.8-0.5c-2-1.3-3.9-2.9-5.9-4.2c-1.2-0.8-3.2-1.8-4.3-0.2
				c-0.9,1.3-0.5,3.3-0.6,4.8c-0.2,2.7-0.9,5.3-1,8c-0.1,1,1.4,1,1.5,0c0.2-2.8,0.9-5.6,1.1-8.5c0.1-1-0.1-2,0.1-3
				c0.2-1.2,1.2-0.6,2-0.2c2.4,1.4,4.5,3.5,6.9,4.9c1,0.5,2.2,1,3.2,0.5c1-0.5,1.6-1.4,2.5-2C71.6,73.5,70.9,72.2,70.1,72.7
				L70.1,72.7z"/>
		</g>
	</g>
	<g>
		<g>
			<path class="st1" d="M56.6,68.6c-0.9-1.1-1.5-2.4-1.8-3.8c0-0.2-0.3-0.3-0.5-0.3c-0.2,0.1-0.3,0.3-0.3,0.5c0.3,1.5,1,2.9,1.9,4.1
				c0.1,0.2,0.4,0.1,0.5,0C56.8,69,56.8,68.8,56.6,68.6L56.6,68.6z"/>
		</g>
	</g>
	<g>
		<g>
			<path class="st1" d="M58.3,69.6c-0.5-1.6-1-3.2-1.5-4.7c-0.1-0.5-0.9-0.3-0.7,0.2c0.5,1.6,1,3.2,1.5,4.7
				C57.7,70.2,58.5,70,58.3,69.6L58.3,69.6z"/>
		</g>
	</g>
	<g>
		<g>
			<path class="st1" d="M60,70.2c-0.4-1.3-0.7-2.7-0.7-4.1c0-0.5-0.8-0.5-0.8,0c0,1.5,0.2,2.9,0.7,4.3C59.4,70.9,60.1,70.7,60,70.2
				L60,70.2z"/>
		</g>
	</g>
	<g>
		<g>
			<path class="st1" d="M61.6,71.7c-0.4-1.6-0.6-3.3-0.7-5c0-0.5-0.8-0.5-0.8,0c0.1,1.7,0.4,3.5,0.8,5.2
				C61,72.4,61.7,72.2,61.6,71.7L61.6,71.7z"/>
		</g>
	</g>
	<g>
		<g>
			<path class="st1" d="M63.2,72.9c-0.4-1.5-0.5-3.2-0.3-4.7c0-0.2-0.2-0.4-0.4-0.4c-0.2,0-0.3,0.2-0.4,0.4
				c-0.2,1.7-0.1,3.3,0.3,4.9C62.6,73.6,63.3,73.4,63.2,72.9L63.2,72.9z"/>
		</g>
	</g>
	<g>
		<g>
			<path class="st1" d="M64.6,73.9c-0.4-1.4-0.4-2.9-0.1-4.3c0.1-0.5-0.6-0.7-0.7-0.2c-0.3,1.6-0.3,3.2,0.1,4.7
				C64,74.5,64.7,74.3,64.6,73.9L64.6,73.9z"/>
		</g>
	</g>
	<g>
		<g>
			<path class="st1" d="M66,74.9c-0.1-1.4,0-2.7,0.3-4.1c0.1-0.5-0.6-0.7-0.7-0.2c-0.4,1.4-0.5,2.8-0.3,4.3c0,0.2,0.2,0.4,0.4,0.4
				C65.8,75.3,66,75.1,66,74.9L66,74.9z"/>
		</g>
	</g>
	<g>
		<g>
			<path class="st1" d="M67,75c0-1.3,0.2-2.7,0.7-3.9c0.1-0.2-0.1-0.4-0.3-0.5c-0.2-0.1-0.4,0.1-0.5,0.3c-0.5,1.3-0.7,2.7-0.7,4.1
				C66.3,75.4,67,75.4,67,75L67,75z"/>
		</g>
	</g>
	<g>
		<g>
			<path class="st1" d="M55.6,70.2c-1-1-2-2.1-3-3.1c-0.3-0.3-0.9,0.2-0.5,0.5c1,1,2,2.1,3,3.1C55.4,71.1,55.9,70.6,55.6,70.2
				L55.6,70.2z"/>
		</g>
	</g>
	<g>
		<g>
			<path class="st1" d="M55.4,72.5c-0.8-0.6-1.5-1.3-2.2-2.1c-0.1-0.2-0.4-0.1-0.5,0c-0.1,0.2-0.1,0.4,0,0.5
				c0.6,0.8,1.4,1.5,2.2,2.1c0.2,0.1,0.4,0.2,0.5,0C55.5,72.9,55.5,72.6,55.4,72.5L55.4,72.5z"/>
		</g>
	</g>
	<g>
		<g>
			<path class="st1" d="M55.5,75c-0.7-0.7-1.4-1.4-2.2-2.1c-0.1-0.1-0.4-0.2-0.5,0c-0.1,0.1-0.2,0.4,0,0.5c0.7,0.7,1.4,1.4,2.2,2.1
				c0.1,0.1,0.4,0.2,0.5,0C55.7,75.3,55.7,75.1,55.5,75L55.5,75z"/>
		</g>
	</g>
	<g>
		<g>
			<path class="st1" d="M55,76.7c-1.1-0.8-2.2-1.6-3.2-2.5c-0.4-0.3-0.9,0.2-0.5,0.5c1,1,2.2,1.9,3.3,2.6c0.2,0.1,0.4,0,0.5-0.1
				C55.3,77.1,55.2,76.8,55,76.7L55,76.7z"/>
		</g>
	</g>
	<g>
		<g>
			<path class="st1" d="M123.9,67c0.4-1.7,0.6-3.4,0.6-5.2c0-0.5-0.8-0.5-0.8,0c0,1.7-0.2,3.3-0.6,5C123.1,67.3,123.8,67.5,123.9,67
				L123.9,67z"/>
		</g>
	</g>
	<g>
		<g>
			<path class="st1" d="M122.9,67.3c-0.1-1.5-0.2-3-0.3-4.5c0-0.5-0.8-0.5-0.8,0c0.1,1.5,0.2,3,0.3,4.5
				C122.2,67.8,122.9,67.8,122.9,67.3L122.9,67.3z"/>
		</g>
	</g>
	<g>
		<g>
			<path class="st1" d="M121.7,68c0-1.8-0.3-3.5-0.7-5.2c-0.1-0.5-0.8-0.3-0.7,0.2c0.4,1.6,0.7,3.3,0.7,5
				C120.9,68.5,121.7,68.5,121.7,68L121.7,68z"/>
		</g>
	</g>
	<g>
		<g>
			<path class="st1" d="M120.5,69.3c-0.2-1.7-0.4-3.5-0.8-5.2c-0.1-0.5-0.8-0.3-0.7,0.2c0.4,1.6,0.6,3.3,0.8,5
				c0,0.2,0.2,0.4,0.4,0.4C120.3,69.7,120.5,69.5,120.5,69.3L120.5,69.3z"/>
		</g>
	</g>
	<g>
		<g>
			<path class="st1" d="M119.6,71c-0.4-2-0.8-4-1.3-5.9c-0.1-0.5-0.8-0.3-0.7,0.2c0.5,2,0.9,3.9,1.3,5.9
				C118.9,71.6,119.7,71.4,119.6,71L119.6,71z"/>
		</g>
	</g>
	<g>
		<g>
			<path class="st1" d="M118.7,72.4c-0.6-2.2-1.1-4.3-1.7-6.5c-0.1-0.5-0.8-0.3-0.7,0.2c0.6,2.2,1.1,4.3,1.7,6.5
				C118.1,73.1,118.9,72.9,118.7,72.4L118.7,72.4z"/>
		</g>
	</g>
	<g>
		<g>
			<path class="st1" d="M117.7,72.9c-0.5-1.8-1-3.6-1.5-5.3c-0.1-0.5-0.9-0.3-0.7,0.2c0.5,1.8,1,3.6,1.5,5.3
				C117.1,73.6,117.9,73.4,117.7,72.9L117.7,72.9z"/>
		</g>
	</g>
	<g>
		<g>
			<path class="st1" d="M116.2,73.4c-0.7-1.6-1.2-3.3-1.7-5c-0.1-0.5-0.8-0.3-0.7,0.2c0.5,1.7,1,3.4,1.7,5c0.1,0.2,0.2,0.3,0.5,0.3
				C116.1,73.8,116.3,73.6,116.2,73.4L116.2,73.4z"/>
		</g>
	</g>
	<g>
		<g>
			<path class="st1" d="M114.2,72.7c-0.7-0.9-1-2-1-3.1c0-0.2-0.2-0.4-0.4-0.4c-0.2,0-0.4,0.2-0.4,0.4c-0.1,1.2,0.3,2.5,1.1,3.5
				c0.1,0.2,0.3,0.2,0.5,0.1C114.2,73.1,114.3,72.9,114.2,72.7L114.2,72.7z"/>
		</g>
	</g>
	<g>
		<g>
			<path class="st1" d="M125,68.5c0.3-0.7,0.6-1.4,0.9-2.1c0.1-0.2,0.1-0.4-0.1-0.5c-0.2-0.1-0.4-0.1-0.5,0.1
				c-0.3,0.7-0.6,1.4-0.9,2.1c-0.1,0.2-0.1,0.4,0.1,0.5C124.6,68.7,124.9,68.7,125,68.5L125,68.5z"/>
		</g>
	</g>
	<g>
		<g>
			<path class="st1" d="M125,70.8c0.1-0.2,0.2-0.4,0.3-0.6c0.1-0.2,0.3-0.4,0.4-0.7c0.1-0.2,0.3-0.4,0.5-0.5
				c0.2-0.2,0.4-0.4,0.6-0.5c0.2-0.1,0.1-0.4,0-0.5c-0.2-0.2-0.4-0.1-0.5,0c-0.9,0.7-1.6,1.6-2,2.7c-0.1,0.2,0.1,0.4,0.3,0.5
				C124.8,71.1,124.9,71,125,70.8L125,70.8z"/>
		</g>
	</g>
	<g>
		<g>
			<path class="st1" d="M125.1,74.2c0.2-1.1,0.8-2.1,1.7-2.8c0.2-0.1,0.2-0.3,0.1-0.5c-0.1-0.2-0.3-0.3-0.5-0.1
				c-1.1,0.8-1.9,1.9-2.1,3.2c0,0.2,0.1,0.4,0.3,0.5C124.8,74.5,125,74.4,125.1,74.2L125.1,74.2z"/>
		</g>
	</g>
	<g>
		<g>
			<path class="st1" d="M125.3,76.7c0.6-1.1,1.2-2.2,2-3.2c0.1-0.2,0-0.4-0.1-0.5c-0.2-0.1-0.4,0-0.5,0.1c-0.8,1-1.4,2.1-2,3.2
				c-0.1,0.2,0,0.4,0.1,0.5C124.9,76.9,125.2,76.9,125.3,76.7L125.3,76.7z"/>
		</g>
	</g>
	<g>
		<g>
			<path class="st1" d="M68.2,74.7c0.1-0.9,0.4-1.8,0.7-2.6c0.1-0.2-0.1-0.4-0.3-0.5c-0.2-0.1-0.4,0.1-0.5,0.3
				c-0.3,0.9-0.6,1.7-0.7,2.6c0,0.2,0.1,0.4,0.3,0.5C67.9,75,68.2,74.9,68.2,74.7L68.2,74.7z"/>
		</g>
	</g>
</g>
<g>
	<g>
		<path class="st1" d="M101.3,95c-0.2-0.2-0.4-0.3-0.7-0.3c-0.2,0.1-0.4,0.3-0.5,0.5c-0.1,0.3-0.1,0.6,0,0.8
			c0.1,0.2,0.4,0.3,0.6,0.3c0.6-0.1,0.8-0.6,0.8-1.1c0-0.4-0.1-1-0.6-1c0.1,0.2,0.1,0.5,0.2,0.7c0.2-0.1,0.3-0.2,0.5-0.3
			c0.1,0,0.1-0.1,0.2-0.1c0,0,0.1,0,0.1,0c0,0,0.1,0,0.1,0c0,0,0.1,0,0.1,0c0,0,0,0,0,0c0,0,0.1,0,0.1,0c0,0,0,0,0,0
			c0,0,0,0.1,0,0.1c0,0.1,0.1,0.2,0.1,0.2c0,0.1,0,0.2,0,0.3c0,0,0,0,0,0c0,0,0,0,0,0c0,0,0,0,0,0c0,0-0.1,0,0,0c0,0-0.1,0,0,0
			c0,0-0.1,0-0.1,0c0,0,0,0,0,0c0,0,0,0,0,0c0,0-0.1,0-0.1-0.1c-0.1-0.1,0,0-0.1-0.1c0-0.1,0,0,0-0.1c0,0,0-0.1,0-0.1
			c-0.2,0-0.5,0.1-0.7,0.1c0.1,0.2,0.1,0.5,0.2,0.7c0.1,0.2,0.1,0.4,0.3,0.6c0.3,0.3,1,0.3,1.1-0.3c0-0.2-0.1-0.5-0.4-0.5
			c-0.4,0-1.1,0.1-1.2,0.6c-0.1,0.3,0.1,0.5,0.3,0.7c0.2,0.1,0.4,0.1,0.7,0.1c0.4,0,0.9-0.2,1-0.6c0.1-0.4-0.1-0.9-0.5-1.1
			c-0.2-0.1-0.4-0.2-0.7-0.2C101.6,95,101.5,95,101.3,95c0,0-0.1,0.1-0.1,0.1c0,0,0,0-0.1,0.1c-0.1,0.1,0,0,0,0c0.1,0,0.1,0,0.2-0.1
			c0,0,0,0,0,0c0.1,0,0.1,0.1,0.2,0.1c0,0,0,0.4,0.1,0.2c0,0,0-0.1,0.1-0.1c0-0.1,0-0.2,0-0.3c0-0.2-0.1-0.3-0.3-0.4
			c-0.1-0.1-0.3-0.1-0.4-0.1c-0.2,0-0.3,0.1-0.5,0.1c0.1,0.2,0.2,0.3,0.4,0.5c0-0.2,0.1-0.3,0.1-0.5c0-0.1,0.1-0.2,0.2-0.3
			c0,0,0.1,0,0.1,0c0.1,0,0,0,0.1,0c0.1,0,0,0,0.1,0c0,0,0,0,0.1,0c0.1,0,0.2,0.1,0.3,0.2c0.1,0.1,0.4,0.1,0.5,0
			c0.1-0.1,0.2-0.4,0-0.5c-0.2-0.2-0.4-0.3-0.6-0.4c-0.3-0.1-0.6,0-0.8,0.1c-0.5,0.3-0.6,0.8-0.7,1.3c0,0.3,0.1,0.4,0.4,0.5
			c0.2,0,0.3,0,0.4,0c0,0,0,0,0.1,0c0,0,0,0,0,0c0,0,0,0,0,0c0,0,0,0,0,0c0,0-0.2-0.2-0.1-0.2c0,0-0.1,0.2-0.1,0.2
			c0,0.2,0,0.3,0.1,0.5c0.1,0.1,0.4,0.2,0.5,0.1c0,0,0.1-0.1,0.1-0.1c0,0-0.1,0,0,0c0.1,0,0.4,0.1,0.5,0.1c0.1,0,0.1,0,0.1,0.1
			c0,0,0.1,0.1,0,0c0,0,0,0,0,0.1c0,0,0,0,0,0c0,0,0,0,0,0c0,0,0,0,0,0c0,0,0,0,0,0c0,0,0,0,0,0c0,0,0,0,0,0c0,0,0,0,0,0
			c0,0,0,0,0,0c0,0,0,0-0.1,0c0,0-0.1,0-0.2,0c0.1,0,0,0-0.1,0c-0.1,0-0.1,0-0.2,0c0,0-0.1,0,0,0c0,0-0.1,0,0,0c0,0.1,0.1,0,0,0.2
			c-0.1,0.1-0.1,0.1-0.1,0.1c0,0,0,0,0,0c0.1,0,0.1,0,0.2-0.1c0.1,0,0.2,0,0.3,0c-0.1-0.2-0.2-0.3-0.4-0.5c0,0,0,0,0,0
			c0.1-0.1,0.1-0.1,0.1-0.1c0,0,0,0,0,0c0,0,0.1,0,0,0c0,0,0,0,0,0c0,0,0,0,0,0c0,0,0,0,0,0c0-0.1,0-0.1-0.1-0.1
			c-0.1-0.3-0.1-0.6-0.2-0.9c0-0.2-0.2-0.3-0.4-0.3c-0.2,0-0.3,0.2-0.3,0.4c0.1,0.5,0.4,1,1,1c0.6,0,1-0.5,1-1
			c0-0.5-0.3-1.1-0.8-1.2c-0.5-0.1-1.1,0.2-1.5,0.5c-0.1,0.1-0.2,0.3-0.2,0.4c0,0.2,0.2,0.3,0.4,0.3c-0.1,0-0.1,0-0.1-0.1
			c0,0,0,0,0,0c0,0,0,0,0,0c0,0,0,0,0,0.1c0,0,0,0,0,0c0,0,0,0.1,0,0.1c0,0.1,0,0.2,0,0.3c0,0,0,0.1,0,0.1c0,0,0,0,0,0
			c0,0,0,0,0,0.1c0,0,0,0,0,0c0,0,0,0,0,0c0,0,0,0,0,0c0,0,0,0,0,0c0,0,0,0,0,0c0,0,0,0,0,0c0,0,0,0,0,0c0,0,0,0.1,0,0.1
			c0,0,0.1-0.2,0.1-0.2c0,0,0,0,0,0c-0.1,0-0.1,0-0.2-0.1c0.1,0.2,0.3,0.2,0.5,0.1C101.3,95.5,101.4,95.2,101.3,95L101.3,95z"/>
	</g>
</g>
<g>
	<g>
		<path class="st1" d="M71.9,95.2c-0.2,0.3-0.3,0.8,0,1.1c0.3,0.4,0.8,0.5,1.2,0.2c0.2-0.1,0.3-0.3,0.4-0.5c0.1-0.2,0.2-0.4,0.2-0.6
			c0-0.5-0.5-0.7-1-0.8c-0.3,0-0.6,0-0.8,0.2c-0.2,0.2-0.3,0.4-0.2,0.7c0.1,0.3,0.5,0.4,0.7,0.1c0.2-0.4,0.3-0.9,0-1.3
			c-0.3-0.4-0.9-0.3-1.2,0c-0.1,0.2-0.2,0.4-0.3,0.6c-0.1,0.3-0.1,0.5,0,0.7c0.2,0.4,0.6,0.5,1,0.5c0.5,0,0.9-0.3,1.1-0.7
			c0.1-0.1,0.1-0.3,0-0.4c-0.1-0.1-0.2-0.2-0.4-0.1c-0.3,0.1-0.6,0.3-0.8,0.5c-0.1,0.2,0,0.4,0.1,0.5c0.2,0.1,0.3,0.1,0.5,0
			c0.3-0.3,0.5-0.7,0.5-1.1c0-0.2,0-0.4,0-0.6c0,0,0-0.1,0-0.1c0,0.1-0.1,0.2-0.1,0.2c0,0,0,0,0.1,0c0.1,0,0.1,0,0.2,0.1
			c0.1,0,0.1,0.1,0.2,0.1c0,0,0.1,0,0.1,0.1c0,0,0.1,0.1,0.1,0c0,0,0.1,0,0.1,0.1c-0.1-0.1,0.1,0.1,0,0c0,0,0,0,0,0c0,0,0,0,0,0
			c0,0,0,0,0,0c-0.1,0.1-0.2,0.3-0.3,0.4c0,0-0.1,0-0.1,0.1c0.1,0-0.1,0,0,0c0,0-0.1,0,0,0c0,0,0,0,0,0c-0.1,0,0,0,0,0
			c0,0.2,0,0.3,0.1,0.5c0,0,0-0.1,0,0c0,0,0,0,0,0c-0.1,0.1,0,0,0,0c0,0,0,0,0,0c0,0,0.1,0,0.1,0c0,0,0,0,0,0c0,0,0.1,0,0.1,0
			c-0.1,0,0,0,0,0c0,0,0.1,0,0,0c0,0,0,0,0.1,0c0,0,0,0,0,0c0,0,0,0,0,0c0,0,0,0,0,0c0,0,0,0,0,0c0,0,0,0.1,0,0c0,0,0,0.1,0,0
			c0,0,0,0,0,0.1c0,0.1,0,0,0,0c0,0,0,0.1,0,0.1c0,0,0-0.1,0,0c0,0,0,0,0,0.1c0,0,0,0,0,0c0,0-0.1,0.1,0,0c0,0,0,0,0,0
			c0.1,0-0.1,0-0.1,0c0,0-0.1,0-0.1,0c0,0,0,0,0,0c0,0-0.1,0-0.1,0c0,0,0,0,0,0c-0.1,0-0.1-0.1-0.2-0.2c-0.1-0.2-0.3-0.2-0.5-0.1
			c-0.2,0.1-0.2,0.3-0.1,0.5c0.2,0.4,0.7,0.7,1.2,0.6c0.4-0.1,0.8-0.4,0.8-0.9c0.1-0.5-0.2-0.9-0.6-1.1c-0.4-0.1-0.9,0-1.1,0.4
			c-0.1,0.2-0.1,0.3,0.1,0.5c0.4,0.4,0.9,0.2,1.3-0.1c0.4-0.3,0.7-0.8,0.5-1.3c-0.2-0.4-0.7-0.6-1-0.7c-0.3-0.1-0.5-0.1-0.8,0.1
			c-0.1,0.1-0.2,0.2-0.2,0.3c0,0.1,0,0.3,0,0.4c0,0,0,0,0,0.1c0,0,0,0,0,0c0,0,0,0,0,0c0,0.1,0,0.1,0,0.2c0,0,0,0,0,0.1
			c0,0.1,0-0.1,0,0c0,0,0,0.1,0,0.1c0,0.1,0,0.1-0.1,0.2c0,0,0,0,0,0.1c0,0.1,0,0,0,0c0,0-0.1,0.1-0.1,0.1c0.2,0.2,0.4,0.3,0.6,0.5
			c0.1-0.1,0.2-0.2,0.4-0.2c-0.1-0.2-0.3-0.4-0.4-0.6c0,0.1-0.1,0.2-0.2,0.2c0,0-0.1,0-0.1,0c0,0,0,0,0,0c0,0,0,0,0,0
			c0,0-0.1,0-0.1,0c0,0-0.1,0-0.1,0c0,0-0.1,0-0.1,0c0,0-0.1,0-0.1,0c0,0-0.1,0-0.1,0c0,0-0.1,0,0,0c0,0-0.1-0.1-0.1,0c0,0,0,0,0,0
			c0,0,0-0.1,0,0c0,0,0,0,0-0.1c0-0.1,0.1-0.3,0.1-0.3c0,0,0-0.1,0.1-0.1c0,0,0.1,0,0,0c0,0,0,0,0,0c0,0,0,0,0,0c0,0,0,0,0,0
			c0,0,0,0,0,0c0,0,0,0-0.1,0c0,0,0.1,0,0,0c0,0,0,0,0,0c0,0,0,0,0,0c0,0,0,0.1,0,0c0,0.1-0.1,0.3-0.1,0.4c0.2,0,0.5,0.1,0.7,0.1
			c0,0,0,0,0,0.1c0,0,0-0.1,0,0c0,0,0,0,0.1,0c0.1,0,0.2,0,0.4,0.1c0,0,0.1,0,0.1,0c0,0,0,0,0,0c0,0,0,0,0,0c0-0.1,0,0,0,0
			c0,0,0,0.1,0,0.1c0,0.1,0,0.1-0.1,0.1c-0.1,0.1-0.1,0.2-0.2,0.2c0,0-0.1,0,0,0c0,0,0,0,0,0c0,0,0,0,0,0c0,0-0.1,0,0,0c0,0,0,0,0,0
			c0,0,0,0,0,0c0,0,0,0,0,0c0,0,0,0,0,0c0,0,0,0,0,0c0,0,0-0.1,0-0.1c0,0,0-0.1,0-0.1c0,0,0,0,0,0c0,0,0-0.1,0-0.1c0,0,0-0.1,0-0.1
			c0-0.1,0,0,0,0c0.1-0.2,0-0.4-0.1-0.5C72.3,94.9,72,95,71.9,95.2L71.9,95.2z"/>
	</g>
</g>
<g>
	<g>
		<path class="st1" d="M72.1,94.7c0,0,0-0.1,0-0.1C72.1,94.6,72.1,94.7,72.1,94.7c0-0.1,0-0.2,0-0.2c0,0,0,0.1,0,0.1
			c0-0.1,0.1-0.1,0.1-0.2c0,0,0,0.1-0.1,0.1c0-0.1,0.1-0.1,0.1-0.1c0,0-0.1,0-0.1,0.1c0.1,0,0.1-0.1,0.2-0.1c0,0-0.1,0-0.1,0
			c0.1,0,0.1,0,0.2-0.1c0,0-0.1,0-0.1,0c0.1,0,0.1,0,0.2,0c0,0-0.1,0-0.1,0c0.1,0,0.1,0,0.2,0.1c0,0-0.1,0-0.1,0c0,0,0,0,0,0
			c0.2,0.1,0.4,0.1,0.5-0.1c0.1-0.2,0.1-0.4-0.1-0.5c-0.4-0.2-0.8-0.2-1.2,0c-0.3,0.2-0.5,0.6-0.5,1c0,0.2,0.2,0.4,0.4,0.4
			C71.9,95.1,72.1,94.9,72.1,94.7L72.1,94.7z"/>
	</g>
</g>
<g>
	<g>
		<path class="st1" d="M71.5,95.2c-0.2,0.3-0.2,0.7,0,1.1c0.1,0.2,0.3,0.3,0.5,0.4c0.2,0.1,0.4,0.1,0.7,0c0.2,0,0.4-0.1,0.6-0.3
			c0.2-0.1,0.2-0.3,0.1-0.5c-0.1-0.2-0.3-0.2-0.5-0.1c-0.1,0.1-0.2,0.1-0.3,0.1c0,0,0.1,0,0.1,0c-0.1,0-0.2,0.1-0.3,0.1
			c0,0,0.1,0,0.1,0c-0.1,0-0.1,0-0.2,0c0,0,0.1,0,0.1,0c-0.1,0-0.1,0-0.2,0c0,0,0.1,0,0.1,0c0,0-0.1,0-0.1-0.1c-0.1,0,0.1,0.1,0,0
			c0,0,0,0,0,0c0,0,0-0.1,0,0c0,0.1,0,0,0,0c0,0,0-0.1,0-0.1c0,0,0,0.1,0,0.1c0-0.1,0-0.1,0-0.2c0,0,0,0.1,0,0.1c0-0.1,0-0.1,0-0.2
			c0,0,0,0.1,0,0.1c0-0.1,0-0.1,0-0.1c0,0,0,0.1,0,0.1c0,0,0-0.1,0.1-0.1c0.1-0.1,0.1-0.2,0-0.3c0-0.1-0.1-0.2-0.2-0.2
			c-0.1,0-0.2-0.1-0.3,0C71.7,95.1,71.6,95.1,71.5,95.2L71.5,95.2z"/>
	</g>
</g>
<g>
	<g>
		<path class="st1" d="M73.4,95c0.1-0.1,0.1-0.2,0.2-0.4c0,0,0-0.1,0-0.1c0,0,0-0.1,0-0.1c0,0,0-0.1-0.1-0.1c0,0-0.1-0.1-0.1-0.1
			c0,0-0.1,0-0.1,0c-0.1,0-0.1,0-0.2,0c0,0-0.1,0-0.1,0c-0.1,0-0.1,0.1-0.1,0.1c-0.1,0.1-0.1,0.2-0.2,0.4c0,0,0,0.1,0,0.1
			c0,0,0,0.1,0,0.1c0,0,0,0.1,0.1,0.1c0,0,0.1,0.1,0.1,0.1c0,0,0.1,0,0.1,0c0.1,0,0.1,0,0.2,0c0,0,0.1,0,0.1,0
			C73.3,95.1,73.3,95.1,73.4,95L73.4,95z"/>
	</g>
</g>
<g>
	<g>
		<path class="st1" d="M101,94.9c0.1-0.1,0.3-0.2,0.4-0.2c0,0,0.1,0,0.1,0c0.1,0-0.1,0,0,0c0.1,0,0.1-0.1,0.2-0.1c0,0,0.1,0,0.1,0
			c0.1,0-0.1,0,0,0c0.1,0,0.1,0,0.2,0c0.1,0-0.1,0,0,0c0,0,0.1,0,0.1,0c0,0,0.1,0,0.1,0c0,0-0.1,0,0,0c0,0,0,0,0,0c0,0,0.1,0,0.1,0
			c0,0,0,0,0,0c0,0,0,0,0,0c0,0,0.1,0,0.1,0.1c0,0,0,0,0,0c0,0,0,0,0,0c0,0.1,0-0.1,0,0c0,0,0,0,0,0.1c0,0.1,0-0.1,0,0
			c0,0,0,0,0,0.1c0-0.1,0-0.1,0,0c0,0,0,0,0,0c0,0,0,0.1,0,0.1c0,0,0-0.1,0,0c0,0,0,0,0,0.1c0,0,0-0.1,0,0c0,0,0,0,0,0
			c-0.1,0.1,0.1,0,0,0c0,0,0,0,0,0c0,0,0,0,0,0c0,0-0.1,0-0.1,0c-0.2,0-0.3,0.3-0.3,0.5c0.1,0.2,0.3,0.3,0.5,0.3
			c0.2,0,0.5-0.2,0.6-0.5c0.1-0.3,0.1-0.6,0-0.8c-0.3-0.5-0.9-0.7-1.5-0.6c-0.3,0.1-0.6,0.3-0.9,0.4c-0.2,0.1-0.2,0.3-0.1,0.5
			C100.6,94.9,100.8,95,101,94.9L101,94.9z"/>
	</g>
</g>
<g>
	<g>
		<path class="st1" d="M76.4,103.4c0.5,1.2,1,2.4,1.6,3.5c0.5,0.8,1.2,1.7,2.1,1.9c2.4,0.6,3.9-2.1,5.1-3.7
			c-0.4,0.1-0.8,0.1-1.2,0.2c1.3,1.6,2.9,4.4,5.3,3.9c2.4-0.5,3.4-3.5,4.4-5.4c0.4-0.9-0.9-1.6-1.3-0.8c-0.5,0.9-0.9,1.8-1.4,2.7
			c-0.4,0.8-0.9,1.7-1.9,2c-0.9,0.3-1.6-0.5-2.1-1.1c-0.7-0.8-1.3-1.6-1.9-2.4c-0.3-0.4-0.9-0.2-1.2,0.2c-0.7,0.9-2.3,3.8-3.8,2.8
			c-0.6-0.4-0.9-1.1-1.2-1.8c-0.4-0.9-0.8-1.8-1.2-2.8C77.3,101.7,76,102.5,76.4,103.4L76.4,103.4z"/>
	</g>
</g>
<g>
	<g>
		<path class="st1" d="M107.8,99.6c3.8-1.1,7.7-1.6,11.6-1.8c1,0,1-1.5,0-1.5c-4.1,0.1-8.1,0.7-12,1.8
			C106.5,98.4,106.9,99.8,107.8,99.6L107.8,99.6z"/>
	</g>
</g>
<g>
	<g>
		<path class="st1" d="M109.4,102.7c3,0.2,6,0.4,9,0.7c1,0.1,1-1.4,0-1.5c-3-0.2-6-0.4-9-0.7C108.4,101.1,108.4,102.6,109.4,102.7
			L109.4,102.7z"/>
	</g>
</g>
<g>
	<g>
		<path class="st1" d="M66.3,100.3c-4.2-1.4-8.6-2.3-13-2.7c0,0.5,0,1,0,1.5c0.1,0,0.3,0,0.4,0c1,0,1-1.5,0-1.5c-0.1,0-0.3,0-0.4,0
			c-1,0-0.9,1.4,0,1.5c4.3,0.4,8.5,1.3,12.6,2.6C66.8,102.1,67.2,100.6,66.3,100.3L66.3,100.3z"/>
	</g>
</g>
<g>
	<g>
		<path class="st1" d="M64.7,103.7c-2.6,0.2-5.1,0.5-7.7,0.7c-0.4,0-0.8,0.3-0.8,0.8c0,0.4,0.3,0.8,0.8,0.8c2.6-0.2,5.1-0.5,7.7-0.7
			c0.4,0,0.8-0.3,0.8-0.8C65.4,104.1,65.1,103.7,64.7,103.7L64.7,103.7z"/>
	</g>
</g>
<g>
	<path class="st2" d="M185.1,121.7c-3.9-2.4-7.8-4.9-11.8-7.3c1.2-2.4,2.5-4.8,3.9-7.1c1.7-2.7,3.4-5.5,5.1-8.2
		c0.9-1.4-1.3-2.7-2.2-1.3c-0.3,0.4-0.5,0.9-0.8,1.3c-0.1,0-0.2,0-0.3,0.1c-2.2,1-4.5,2-6.7,3c-1.2,0.5-2.3,1-3.5,1.5
		c-0.6,0.3-1.2,0.5-1.7,0.8c-0.3,0.1-0.5,0.2-0.8,0.3c-0.1,0.1-0.2,0.1-0.4,0.2c0,0-0.1,0-0.1,0c0-0.2-0.1-0.5-0.1-0.6l-0.3-0.8
		c-0.2-0.6-0.4-1.2-0.6-1.8c-0.4-1.2-0.8-2.5-1.1-3.7c-0.8-2.5-1.5-4.9-2.3-7.4c-0.3-1-1.4-1.1-2-0.7c-0.1-0.4-0.2-0.8-0.3-1.3
		c-0.2-1.2-2.3-1.3-2.5,0c-1.1,6.1-2.2,12.1-3.2,18.2c-2.3-1.8-4.5-3.5-6.8-5.3c-1.3-1-2.9,0.5-1.8,1.8c0.2,0.2,0.3,0.4,0.5,0.6
		c-0.8,1.7-1.5,3.6-1.9,5.5c-0.2,0.9-0.3,1.8-0.4,2.6c0,0.5-0.1,1-0.1,1.5c0,0.2,0.1,0.9-0.1,1.1c-0.3,0.3-2.1-0.2-2.6-0.2
		c-1-0.1-2-0.3-3-0.4c-2.3-0.3-4.5-0.6-6.8-0.9c-0.9-0.1-1.9,0.5-1.6,1.6c0.4,1.6,0.9,3.3,1.3,4.9l0.7,2.5c0.2,0.7,0.5,1.4,0.6,2.1
		c-1,0.3-1.9,0.7-2.8,1.2c-2-0.1-4.4-0.7-5-0.8c-1.1-0.3-2,0.9-1.5,1.9c0.5,0.8,0.5,1.7,0.3,2.5c-3.3,0.2-10.2,1.7-13.4,2.3
		c-1.6,0.3,2.8,1.8,4.4,1.4c1.8-0.3,3.6-0.6,5.4-0.8c0.1,0.3,0.4,0.6,0.8,0.6c1.6,0.3,3.3,0.6,4.9,0.9c1.1,0.2,2-0.9,1.5-1.9
		c-0.1-0.2-0.1-0.3-0.1-0.5c0.6-0.3,1.2-0.7,1.8-1c2.1-1.3,5-3.2,7.5-2.1c1.3,0.6,2.5-1.1,1.7-2c0.3,0.1,0.6,0.1,0.8,0.2
		c1.3,0.5,2,1.4,2.7,2.6c0.7,1.3,1.4,2.7,2,4.1c1.4,2.9,2.6,5.9,3.8,8.9c0.4,1.2,2.1,1.3,2.5,0c0.9-3,2.9-5.6,5.4-7.4
		c0.2,2.4,0.6,4.8,1.3,7.1c0.2,0.6,0.7,0.9,1.2,0.9c0.2,2.2,0.4,4.4,0.4,6.6c0,1.2,1.9,1.9,2.4,0.7c2.1-4.6,5.3-8.6,7-13.3
		c0.4-1.2,1.6,0.1,1.8-0.1c0,0,0.7,0.8,1.6,1.5c1.7,1.4,3.3,3,4.8,4.6c0,0.1,0.1,0.2,0.1,0.4c0.4,1.4,2.5,1.1,2.5-0.3
		c0-2.5,0.1-5.1,0.1-7.6c0-0.8-0.8-1.3-1.5-1.3c0.1-1.4,0.3-2.7,0.9-4c1.3-3.1,4.2-5.6,7.7-5.4C185.8,124.1,186.1,122.3,185.1,121.7
		z"/>
	<g>
		<g>
			<path class="st0" d="M144.7,118.7h1.2l0.7-3.7h-1.2l0.1-0.7h3.3l-0.1,0.7h-1.2l-0.7,3.7h1.2l-0.1,0.7h-3.3L144.7,118.7z"/>
			<path class="st0" d="M155.1,118.4c0-0.1,0-0.3,0.1-0.4l0.7-3.4h-1.2l0.1-0.7h2L156,118c0,0.1,0,0.2,0,0.3c0,0.3,0.2,0.5,0.5,0.5
				c0.2,0,0.4-0.1,0.7-0.2l0.2,0.6c-0.4,0.2-0.7,0.2-1.1,0.2C155.6,119.5,155.1,119.1,155.1,118.4z"/>
			<path class="st0" d="M158.7,117.8c0-1.4,1-2.3,2.2-2.3c1,0,1.6,0.7,1.6,1.7c0,1.4-1,2.3-2.2,2.3
				C159.3,119.5,158.7,118.8,158.7,117.8z M161.7,117.2c0-0.6-0.3-1-0.9-1c-0.7,0-1.3,0.7-1.3,1.6c0,0.6,0.3,1,0.9,1
				C161.1,118.8,161.7,118.1,161.7,117.2z"/>
			<path class="st0" d="M163.6,115.6h0.8l0.4,2c0.1,0.4,0.1,0.8,0.2,1.1h0c0.2-0.4,0.4-0.8,0.6-1.1l1.1-2h0.8l-2.2,3.8h-1
				L163.6,115.6z"/>
			<path class="st0" d="M168.1,117.8c0-1.4,1-2.3,2.2-2.3c1,0,1.5,0.6,1.5,1.5c0,0.3-0.1,0.6-0.1,0.7h-3l0.1-0.6h2.4l-0.3,0.1
				c0-0.1,0-0.2,0-0.3c0-0.5-0.3-0.8-0.8-0.8c-0.6,0-1.3,0.6-1.3,1.6c0,0.7,0.4,1.1,1,1.1c0.5,0,0.9-0.2,1.2-0.4l0.3,0.6
				c-0.4,0.3-1,0.5-1.7,0.5C168.8,119.5,168.1,118.9,168.1,117.8z"/>
			<path class="st0" d="M149.5,126.5c0-1.4,1.1-2.3,2.3-2.3c0.7,0,1.2,0.3,1.5,0.7l-0.5,0.5c-0.3-0.3-0.6-0.5-1-0.5
				c-0.7,0-1.4,0.7-1.4,1.6c0,0.7,0.5,1.1,1.1,1.1c0.4,0,0.8-0.2,1.1-0.5l0.3,0.6c-0.4,0.4-0.9,0.6-1.5,0.6
				C150.3,128.1,149.5,127.6,149.5,126.5z"/>
			<path class="st0" d="M154,126.7c0-1.4,0.9-2.5,2.1-2.5c0.5,0,0.9,0.2,1.1,0.5h0l0.2-0.4h0.7l-0.8,3.8h-0.7l0-0.6h0
				c-0.4,0.4-0.9,0.6-1.3,0.6C154.5,128.1,154,127.6,154,126.7z M156.7,126.8l0.3-1.5c-0.2-0.3-0.5-0.5-0.8-0.5
				c-0.7,0-1.3,0.8-1.3,1.7c0,0.6,0.3,0.9,0.7,0.9C155.9,127.4,156.4,127.2,156.7,126.8z"/>
			<path class="st0" d="M159.7,122.6h0.8l-0.7,3.5h0l2.1-1.8h1l-2,1.8l-1.3,1.1l-0.2,1h-0.8L159.7,122.6z M161.1,125.6l1.2,2.4h-0.9
				l-0.9-1.9L161.1,125.6z"/>
			<path class="st0" d="M163.4,126.5c0-1.4,1-2.3,2.2-2.3c1,0,1.5,0.6,1.5,1.5c0,0.3-0.1,0.6-0.1,0.7h-3l0.1-0.6h2.4l-0.3,0.1
				c0-0.1,0-0.2,0-0.3c0-0.5-0.3-0.8-0.8-0.8c-0.6,0-1.3,0.6-1.3,1.6c0,0.7,0.4,1.1,1,1.1c0.5,0,0.9-0.2,1.2-0.4l0.3,0.6
				c-0.4,0.3-1,0.5-1.7,0.5C164.1,128.1,163.4,127.6,163.4,126.5z"/>
		</g>
	</g>
	<path class="st2" d="M160.1,89.6c-0.1-0.4-0.3-0.7-0.4-1c-0.2-0.6-0.5-1.1-0.7-1.7c0-0.1,0-0.1,0-0.2c0-0.1-0.1-0.2-0.2-0.3
		c0,0,0-0.1,0-0.1c-0.1-0.3-0.5-0.4-0.8-0.3c-0.3,0.1-0.4,0.4-0.4,0.8c0,0.2,0.1,0.3,0.1,0.5c0,1.1,0,2.2-0.1,3.2
		c0,0.3,0.3,0.7,0.6,0.6c0.3,0,0.5-0.2,0.6-0.5c0.1,0,0.2,0,0.3,0c0.1,0,0.2,0,0.3,0C160,90.6,160.2,90.2,160.1,89.6z"/>
	<path class="st2" d="M183.5,97.2c-0.7,0.5-1.4,1-2.2,1.5c-0.4,0.3-0.3,0.8,0,1.1c-0.5,0.7-0.9,1.4-1.5,2.1
		c-0.7,0.8-1.5,1.6-2.2,2.4c-0.6,0.9-1.2,1.8-1.6,2.8c-0.3,0.8,0.8,1.4,1.1,0.7c0.4-0.9,0.9-1.8,1.5-2.7c0.6-0.9,1.4-1.6,2.2-2.4
		c1.2-1.4,1.9-3.3,3.4-4.4C184.9,97.8,184.1,96.8,183.5,97.2z"/>
	<path class="st2" d="M188.1,122.6c-0.2,0-0.4,0-0.5,0.1c-0.2-0.4-0.6-0.7-1-0.9c-0.3-0.2-0.6-0.3-1-0.4c-0.5-0.3-0.7-0.7-1-1.2
		c-0.5-0.9-1.6-1.8-2.6-1.2c0,0-0.1-0.1-0.1-0.1c-0.2-0.3-0.5-0.4-0.8-0.3c0,0-0.1,0-0.1,0.1c0,0,0,0,0,0c-0.1-0.1-0.2-0.2-0.3-0.3
		c-0.5-0.4-0.9-0.6-1.5-0.6c-0.5-0.3-1-0.6-1.5-0.8c-0.1,0-0.1-0.1-0.2-0.1c0,0,0,0,0,0c0,0,0,0,0,0c-0.6-0.3-1.2-0.6-1.9-0.7
		c-0.8-0.2-1.2,1-0.3,1.2c0.6,0.2,1.2,0.4,1.8,0.7c0.4,0.2,0.7,0.5,1.1,0.7c0.1,0.1,0.3,0.1,0.4,0.1c2.2,1.3,4.2,2.9,6.5,4.1
		c-0.4,0.1-0.8,0.3-1.2,0.5c-0.2,0.1-0.3,0.3-0.3,0.4c-2,0.6-3.9,1.2-5.7,2.1c-1.4,0.7-1.6,1.6-1.7,3c0,0.5-0.1,1.1-0.1,1.7
		c-0.3,0.1-0.5,0.2-0.4,0.6c0.4,3.7,0.8,7.4,1.2,11.1c-1.2-1.1-2.4-2.2-3.6-3.4c-1.3-1.2-2.6-2.7-4.2-3.5c-0.6-0.3-1.3-0.6-1.9-0.5
		c-0.8,0.1-1.1,0.8-1.4,1.5l0-0.1c0.2-0.8-1-1.1-1.2-0.3c-0.7,1.9-1.3,3.8-2,5.8c-0.1,0-0.2,0.1-0.3,0.3c0,0.1,0,0.1-0.1,0.2
		c0,0,0,0,0,0c-0.4,0.9-0.7,1.8-1.1,2.7c-0.2,0-0.5,0.1-0.5,0.5c-0.1,0.4-0.2,0.8-0.4,1.2c-0.3-0.1-0.6,0.1-0.8,0.4
		c-0.2,0.5-0.3,0.9-0.3,1.4c-0.1,0.5-0.2,1-0.4,1.5c-0.5-0.9-1-1.9-1.3-3c-0.5-1.6-0.3-3.2-0.4-4.8c-0.2-2.8-2.2-5.1-2.2-7.9
		c0-0.5-0.7-0.9-1.1-0.5c-1.4,1.8-2.7,3.5-4.1,5.3c-0.7,0.9-1.5,1.8-2.1,2.8c-0.3-1.1-0.7-2.2-1.1-3.3c-0.5-2.2-1.3-4.3-2.2-6.3
		c-0.2-0.4-0.7-0.4-1-0.1c-0.1-0.2-0.1-0.3-0.2-0.5c-0.1-0.3-0.4-0.4-0.6-0.3c-0.5-1.3-1.1-2.6-1.6-4c-0.1-0.4-0.5-0.5-0.8-0.4
		c0.7-0.3,0.4-1.5-0.4-1.2c-0.1,0-0.1,0-0.2,0.1c-0.1,0-0.1-0.1-0.2-0.1c-0.3-0.1-0.6-0.1-0.9,0c-1.7,0.1-3.3,0.9-4.8,1.6
		c-0.1-0.3-0.3-0.5-0.6-0.5c-0.4,0-0.8,0.1-1.1,0.2c0.3-0.3,0.7-0.5,1-0.8c0.3-0.3,0.2-0.8-0.1-1c-0.9-0.4-1.9-0.5-2.9-0.4
		c-1.2,0.1-2.4,0.2-3.5,0.3c-0.7,0.1-0.9,1.1-0.2,1.3c0,0,0.1,0,0.1,0c0.1,0.1,0.3,0.3,0.5,0.3c0.6,0.1,1.3,0.1,1.9,0
		c0.3,0,0.5-0.3,0.6-0.5c0.1,0,0.1,0,0.2,0c0.5,0,1.1-0.1,1.6,0c-0.5,0.4-0.9,0.7-1.4,1.1c-0.3,0.2-0.2,0.7,0,0.9
		c0.3,0.3,0.8,0.5,1.2,0.5c-0.1,0.4,0.3,0.9,0.8,0.8c2-0.4,3.8-1.7,5.8-2.2c0.1,0.1,0.3,0.2,0.5,0.2c0.7,0,1.3-0.1,2-0.3
		c-0.2,0.1-0.4,0.4-0.3,0.7c1.7,5.3,4,10.4,6.9,15.2c0.1,0.3,0.2,0.7,0.2,1c0.1,0.7,1.1,0.5,1.2,0c0.6-1.7,2.1-3.2,3.2-4.7
		c0.9-1.2,1.8-2.3,2.7-3.5c0.5,2.4,2,4.5,2,7c0,1.6,0,3.1,0.5,4.7c0.5,1.5,1.3,2.9,2.1,4.3c0.3,0.5,1,0.4,1.2-0.2
		c0.2-0.7,0.4-1.3,0.5-2c0.1-0.1,0.1-0.1,0.2-0.2c0.4-0.6,0.7-1.3,0.9-2c0.1-0.1,0.2-0.2,0.3-0.3c0.2-0.4,0.4-0.9,0.5-1.3
		c0.2,0,0.5-0.2,0.6-0.4c0.2-0.7,0.5-1.4,0.7-2.1c0.2,0,0.3-0.1,0.4-0.3l2.5-4.9c0.3-0.5,0.6-1.8,1.2-2c0.5-0.2,1.9,0.9,2.2,1.2
		c2.6,2.2,5,4.7,7.5,7c0.4,0.3,1.2,0.1,1.1-0.5c-0.3-3.1-0.7-6.2-1-9.3c0,0,0,0,0,0c0.1-0.7,0.1-1.3,0-2c0-0.8,0-1.7,0.1-2.5
		c0-0.7-0.1-1.8,0.2-2.4c0.3-0.7,1.6-1,2.2-1.3c2.8-1.1,5.7-1.9,8.7-2.4C189,123.8,188.8,122.5,188.1,122.6z"/>
	<path class="st2" d="M127.3,132.3c-0.2-0.4-0.4-0.7-0.6-1.1c-0.1-0.3-0.2-0.6-0.3-0.9c-0.2-0.7-1.2-0.5-1.3,0.1
		c0,0-0.1-0.1-0.1-0.1c-0.6-0.6-1.5,0.3-0.9,0.9c-0.7,0-1.3,0.1-2,0.2c-1.5,0.2-3.1-0.8-4.6,0.1c-0.7,0.4-0.1,1.5,0.7,1.1
		c0.6-0.3,1.3-0.2,2,0c0.8,0.1,1.5,0.2,2.2,0.1c0.7-0.1,1.5-0.3,2.2,0c0.7,0.2,1.3,0.6,2,0.6C127.2,133.3,127.6,132.7,127.3,132.3z"
		/>
	<path class="st2" d="M146.2,104c-0.2-0.5-0.8-0.6-1.1-0.2c-0.3,0-0.6,0.2-0.7,0.5c-0.5,1.2-0.8,2.5,0,3.5c-0.1,0.6-0.3,1.2-0.4,1.8
		c-0.3,1.6-0.6,3.4-1.6,4.7c-0.3,0.3-0.3,0.8,0.1,1c1,0.6,1.8-0.2,2.1-1.1c0.2-0.4,0-0.7-0.3-0.9c0.4-1.1,0.7-2.2,0.9-3.4
		c0.1-0.5,0.2-1.1,0.3-1.6c0.2-0.2,0.3-0.5,0.2-0.8c0-0.1,0-0.2,0.1-0.3C146.1,106.1,146.6,105.1,146.2,104z"/>
	<g>
		<g>
			<path class="st1" d="M103.7,133.1c4.8-0.9,9.6-1.7,14.4-2.6c1.5-0.3,4-0.2,5-1.6c0.4-0.5,0.5-1.1,0.4-1.7
				c-0.1-0.7-0.8-1.8-0.5-2.5c-0.2,0.1-0.4,0.2-0.6,0.4c3.4,0.1,6.7,0.2,10.1,0.3c0.5,0,0.9-0.5,0.7-0.9c-1.2-4.2-2.7-8.2-4.6-12.1
				c-0.3,0.4-0.6,0.7-0.8,1.1c4.7,0.8,9.4,1.6,14.1,2.3c0.4,0.1,0.8-0.1,0.9-0.5c1.2-4.7,2.1-9.5,2.8-14.4c-0.4,0.1-0.7,0.3-1.1,0.4
				c3,1.7,5.8,3.7,8.4,6c0.5,0.5,1.2,0.1,1.3-0.5c0.9-7.6,2.5-15.1,4.6-22.4c-0.5,0.1-0.9,0.1-1.4,0.2c3,6.7,5.4,13.7,7.1,20.8
				c0.1,0.5,0.7,0.7,1.1,0.4c6.6-3.7,13.6-6.8,20.9-9.1c-0.2-0.4-0.5-0.8-0.7-1.3c-4.8,5.7-9.1,11.9-12.7,18.4
				c-0.2,0.3-0.1,0.9,0.3,1c5.8,2.6,11.2,5.8,16.2,9.7c0.2-0.4,0.4-0.9,0.5-1.3c-4.2,0.4-8.4,1.2-12.5,2.2c-0.3,0.1-0.5,0.4-0.6,0.7
				c-0.4,6.4-0.1,12.9,0.7,19.3c0.4-0.2,0.8-0.4,1.1-0.6c-4.1-3-7.9-6.4-11.3-10.2c-0.4-0.5-1.1-0.2-1.3,0.3
				c-2.5,5.9-5.4,11.7-8.8,17.2c0.5,0.1,0.9,0.1,1.4,0.2c-1.8-5.5-3.3-11.1-4.3-16.8c-0.1-0.7-1-0.6-1.4-0.2c-2.3,3.1-4.7,6.1-7,9.2
				c0.4,0,0.9,0,1.3,0c-2.8-5.9-5.6-11.7-8.4-17.6c-0.1-0.3-0.5-0.4-0.8-0.3c-3.8,0.8-7.5,1.7-11.3,2.5c-0.3,0.1-0.5,0.4-0.6,0.7
				c-0.1,1.4,0.2,2.6,0.9,3.8c0.2-0.4,0.4-0.8,0.6-1.1c-8.1,0-16.1-1-24.2-1c-1,0-1,1.5,0,1.5c8.1,0,16.1,1,24.2,1
				c0.6,0,0.9-0.6,0.6-1.1c-0.6-1-0.8-1.9-0.7-3c-0.2,0.2-0.4,0.5-0.6,0.7c3.8-0.8,7.5-1.7,11.3-2.5c-0.3-0.1-0.6-0.2-0.8-0.3
				c2.8,5.9,5.6,11.7,8.4,17.6c0.3,0.6,1,0.4,1.3,0c2.3-3.1,4.7-6.1,7-9.2c-0.5-0.1-0.9-0.1-1.4-0.2c1,5.7,2.4,11.3,4.3,16.8
				c0.2,0.6,1,0.7,1.4,0.2c3.4-5.6,6.4-11.5,8.9-17.5c-0.4,0.1-0.8,0.2-1.3,0.3c3.5,3.9,7.4,7.3,11.6,10.4c0.4,0.3,1.2-0.1,1.1-0.6
				c-0.9-6.4-1.1-12.8-0.7-19.3c-0.2,0.2-0.4,0.5-0.6,0.7c4-1,8-1.8,12.1-2.2c0.6-0.1,1.1-0.8,0.5-1.3c-5.1-4-10.6-7.3-16.5-10
				c0.1,0.3,0.2,0.7,0.3,1c3.6-6.4,7.7-12.5,12.5-18.1c0.4-0.5,0-1.5-0.7-1.3c-7.4,2.4-14.5,5.5-21.2,9.3c0.4,0.1,0.7,0.3,1.1,0.4
				c-1.7-7.3-4.2-14.4-7.3-21.2c-0.3-0.6-1.2-0.4-1.4,0.2c-2.2,7.5-3.7,15.1-4.7,22.8c0.4-0.2,0.9-0.4,1.3-0.5
				c-2.7-2.4-5.6-4.5-8.7-6.3c-0.4-0.2-1,0-1.1,0.4c-0.7,4.8-1.6,9.6-2.8,14.4c0.3-0.2,0.6-0.3,0.9-0.5c-4.7-0.8-9.4-1.6-14.1-2.3
				c-0.7-0.1-1.1,0.5-0.8,1.1c1.8,3.8,3.3,7.7,4.5,11.8c0.2-0.3,0.5-0.6,0.7-0.9c-3.4-0.1-6.7-0.2-10.1-0.3c-0.2,0-0.5,0.1-0.6,0.4
				c-0.3,0.6-0.3,1.1-0.2,1.7c0.1,0.6,0.8,1.7,0.4,2.3c-0.4,0.7-1.8,0.7-2.4,0.8c-1.1,0.2-2.2,0.4-3.4,0.6c-4.3,0.8-8.6,1.5-13,2.3
				C102.3,131.8,102.7,133.3,103.7,133.1L103.7,133.1z"/>
		</g>
	</g>
	<path class="st2" d="M166.1,135.1"/>
</g>
<g>
	<path class="st3" d="M109,74.3c-1.1-2.5-1.5-5.3-1.7-8c-0.2-2.9-0.2-5.8-0.3-8.7c-0.1-3.1-0.2-6.1-0.3-9.2
		c-0.1-1.5-0.1-3.1-0.2-4.6c0-1.2,0-2.5-0.2-3.7c-0.3-2.1-1.1-4.5-3.4-5c-0.1,0-0.2,0-0.3,0c0,0-0.1-0.1-0.1-0.1
		c-0.9-0.5-1.8-0.2-2.4,0.6c-0.6,0.8-0.6,1.9-0.6,2.9c0,1.4-0.1,2.8-0.1,4.2c-0.1,5.6-0.3,11.2-0.4,16.7l-0.2,9.5
		c0,0.3,0.2,0.6,0.5,0.7c3.4,0.7,6.5,2.6,8.5,5.4C108.4,75.7,109.4,75.1,109,74.3z"/>
	<g>
		<g>
			<path class="st1" d="M97.5,70.6c4.8,1.6,9,4.7,11.9,8.8c1.1,1.6,3.5,0.2,2.6-1.5c-2.5-4.9-3-10.4-3.2-15.8
				c-0.2-5.9-0.3-11.8-0.7-17.6c-0.1-1.5-0.2-3-0.3-4.5c-0.1-1.3,0-2.9-0.5-4.1c-0.5-1.2-1.5-1.6-2.6-1.8c-1.4-0.3-3-0.9-4.5-1
				c-3.1-0.2-2.6,3.4-2.5,5.5c0.1,3.1,0.2,6.2,0.2,9.3c0,6.9-0.3,13.8-0.9,20.6c-0.2,1.9,2.8,1.9,3,0c0.5-5.5,0.8-11.1,0.9-16.7
				c0-2.7,0-5.4,0-8.1c0-1.4-0.1-2.8-0.1-4.2c0-0.7-0.1-1.3-0.1-2c0-0.3,0-0.7,0-1c0-0.2,0-0.3,0-0.5c0.1-0.4,0-0.4-0.2-0.2
				c-0.7,0.2,0.3,0.3,0.5,0.3c0.3,0.1,0.6,0.1,0.9,0.2c0.6,0.1,1.2,0.3,1.9,0.4c0.3,0.1,0.6,0.1,0.9,0.2c0.4,0.1,0-0.3,0.1,0
				c0.1,0.7,0.1,1.4,0.2,2.1c0.2,2.8,0.4,5.6,0.5,8.4c0.3,5.3,0.3,10.6,0.5,16c0.3,5.5,1.1,10.9,3.6,15.8c0.9-0.5,1.7-1,2.6-1.5
				c-3.4-4.8-8.1-8.3-13.7-10.2C96.5,67.1,95.7,69.9,97.5,70.6L97.5,70.6z"/>
		</g>
	</g>
	<path class="st3" d="M103.2,38.8c0-0.1-0.1-0.2-0.1-0.2c-0.1-0.1-0.1-0.1-0.2-0.1c-0.1,0-0.2-0.1-0.3-0.1c-0.1,0-0.1,0-0.2,0
		c-0.1,0-0.2,0.1-0.3,0.2c0,0-0.1,0.1-0.1,0.1c-0.1,0.1-0.1,0.2-0.1,0.4v0.3c0,0.1,0,0.2,0.1,0.3c0,0.1,0.1,0.2,0.1,0.2
		c0.1,0.1,0.1,0.1,0.2,0.1c0.1,0,0.2,0.1,0.3,0.1c0.1,0,0.1,0,0.2,0c0.1,0,0.2-0.1,0.3-0.2l0.1-0.1c0.1-0.1,0.1-0.2,0.1-0.4V39
		C103.2,38.9,103.2,38.8,103.2,38.8z"/>
	<g>
		<g>
			<path class="st1" d="M98.5,66.9c3-0.5,6-0.7,9-0.6c1,0,1-1.5,0-1.5c-3.1-0.1-6.3,0.1-9.4,0.6c-0.4,0.1-0.6,0.6-0.5,0.9
				C97.7,66.8,98.1,66.9,98.5,66.9L98.5,66.9z"/>
		</g>
	</g>
</g>
<g>
	<rect x="99.8" y="115.5" class="st4" width="5.2" height="5"/>
	<ellipse class="st5" cx="102.4" cy="115.2" rx="2.4" ry="2.5"/>
</g>
<circle class="st6" cx="71.4" cy="117.7" r="2.5"/>
<line class="st6" x1="71.2" y1="113.6" x2="71.3" y2="118"/>
<g>
	<g>
		<path class="st3" d="M73.7,134.9c1.9,0,1.9-3,0-3C71.8,131.9,71.8,134.9,73.7,134.9L73.7,134.9z"/>
	</g>
</g>
<g>
	<g>
		<path class="st3" d="M73.6,140.3c0.1,0,0.1,0,0.2,0c0.2,0,0.4,0,0.6-0.1c0.2-0.1,0.3-0.2,0.5-0.3c0.1-0.1,0.2-0.3,0.3-0.5
			c0.1-0.2,0.1-0.4,0.1-0.6c0-0.1,0-0.3-0.1-0.4c-0.1-0.3-0.2-0.5-0.4-0.7c-0.1-0.1-0.2-0.2-0.3-0.2c-0.2-0.1-0.5-0.2-0.8-0.2
			c-0.1,0-0.1,0-0.2,0c-0.2,0-0.4,0-0.6,0.1c-0.2,0.1-0.3,0.2-0.5,0.3c-0.1,0.1-0.2,0.3-0.3,0.5c-0.1,0.2-0.1,0.4-0.1,0.6
			c0,0.1,0,0.3,0.1,0.4c0.1,0.3,0.2,0.5,0.4,0.7c0.1,0.1,0.2,0.2,0.3,0.2C73,140.2,73.3,140.3,73.6,140.3L73.6,140.3z"/>
	</g>
</g>
<g>
	<g>
		<path class="st3" d="M69.2,138.1c0.1,0,0.1,0,0.2,0c0.2,0,0.4,0,0.6-0.1c0.2-0.1,0.3-0.2,0.5-0.3c0.1-0.1,0.2-0.3,0.3-0.5
			c0.1-0.2,0.1-0.4,0.1-0.6c0-0.1,0-0.3-0.1-0.4c-0.1-0.3-0.2-0.5-0.4-0.7c-0.1-0.1-0.2-0.2-0.3-0.2c-0.2-0.1-0.5-0.2-0.8-0.2
			c-0.1,0-0.1,0-0.2,0c-0.2,0-0.4,0-0.6,0.1c-0.2,0.1-0.3,0.2-0.5,0.3c-0.1,0.1-0.2,0.3-0.3,0.5c-0.1,0.2-0.1,0.4-0.1,0.6
			c0,0.1,0,0.3,0.1,0.4c0.1,0.3,0.2,0.5,0.4,0.7c0.1,0.1,0.2,0.2,0.3,0.2C68.7,138,68.9,138.1,69.2,138.1L69.2,138.1z"/>
	</g>
</g>
<g>
	<g>
		<path class="st3" d="M72.8,129.4c0.1,0.1,0.1,0.1,0.2,0.2c0.1,0.1,0.3,0.2,0.5,0.3c0.2,0.1,0.4,0.1,0.6,0.1c0.2,0,0.4,0,0.6-0.1
			c0.2-0.1,0.3-0.2,0.5-0.3c0.1-0.1,0.2-0.2,0.2-0.3c0.1-0.2,0.2-0.5,0.2-0.8c0-0.1,0-0.3-0.1-0.4c-0.1-0.3-0.2-0.5-0.4-0.7
			c-0.1-0.1-0.1-0.1-0.2-0.2c-0.1-0.1-0.3-0.2-0.5-0.3c-0.2-0.1-0.4-0.1-0.6-0.1c-0.2,0-0.4,0-0.6,0.1c-0.2,0.1-0.3,0.2-0.5,0.3
			c-0.1,0.1-0.2,0.2-0.2,0.3c-0.1,0.2-0.2,0.5-0.2,0.8c0,0.1,0,0.3,0.1,0.4C72.5,129,72.6,129.2,72.8,129.4L72.8,129.4z"/>
	</g>
</g>
<g>
	<g>
		<path class="st3" d="M72.6,144.2c0,0.1-0.1,0.3-0.1,0.4c0,0.1,0,0.3,0,0.2c0,0.1,0,0.1,0,0.2c0,0,0,0,0,0c0,0,0,0,0,0
			c0.1,0.3,0.2,0.5,0.4,0.7c0,0,0.2,0.1,0.2,0.1c-0.1-0.1,0.1,0.1,0.2,0.1c0,0,0,0,0,0c0.1,0.1,0.2,0.1,0.4,0.2c0,0,0,0,0,0
			c0,0,0,0,0,0c0,0,0,0,0,0c0,0,0.4,0.1,0.4,0.1c0,0,0,0,0,0c0,0,0,0,0,0c0.1,0,0.3,0,0.2,0c-0.1,0,0.1,0,0.2,0c0,0,0,0,0,0
			c0,0,0,0,0,0c0.1,0,0.2-0.1,0.2-0.1c0,0,0.1,0,0.2-0.1c0,0,0,0,0,0c0,0,0.3-0.2,0.3-0.2c0,0,0,0,0,0c0,0,0,0,0,0c0,0,0,0,0,0
			c0,0,0,0,0,0c0-0.1,0.1-0.1,0.1-0.2c0-0.1,0.1-0.1,0.1-0.2c0,0,0,0,0,0c0,0,0,0,0,0c0,0,0,0,0,0c0,0,0,0,0,0
			c0-0.1,0.1-0.1,0.1-0.2c-0.1,0.1,0.1-0.1,0.1-0.2c0,0,0,0,0,0c0,0,0,0,0,0c0-0.1,0-0.1,0-0.2c0-0.1,0-0.1,0-0.2c0,0,0,0,0,0
			c0,0,0,0,0,0c0,0,0,0,0,0c0,0,0,0,0,0c0-0.1,0-0.1,0-0.2c0,0,0-0.1,0-0.2c0-0.2-0.1-0.4-0.3-0.5c-0.1-0.2-0.2-0.3-0.4-0.4
			c-0.2-0.1-0.4-0.2-0.6-0.2c-0.2,0-0.4,0-0.6,0c-0.1,0.1-0.2,0.1-0.4,0.2c-0.2,0.1-0.4,0.3-0.5,0.5c-0.1,0.1-0.1,0.2-0.2,0.4
			c-0.1,0.3-0.1,0.5,0,0.8c0,0,0,0,0,0c0-0.1,0-0.3-0.1-0.4c0,0,0,0,0,0c0-0.1,0-0.3,0.1-0.4c0,0,0,0,0,0c0.1-0.1,0.1-0.2,0.2-0.4
			c0,0,0,0,0,0c0.1-0.1,0.2-0.2,0.2-0.3c0,0,0,0,0,0c0.1-0.1,0.2-0.2,0.3-0.2c0,0,0,0,0,0c0.1-0.1,0.2-0.1,0.4-0.2c0,0,0,0,0,0
			c0.1,0,0.3,0,0.4-0.1c0,0,0,0,0,0c0.1,0,0.3,0,0.4,0.1c0,0,0,0,0,0c0.1,0.1,0.2,0.1,0.4,0.2c0,0,0,0,0,0c0.1,0.1,0.2,0.2,0.3,0.2
			c0,0,0,0,0,0c0.1,0.1,0.2,0.2,0.2,0.3c0,0,0,0,0,0c0.1,0.1,0.1,0.2,0.2,0.4c0,0,0,0,0,0c0,0.1,0,0.3,0.1,0.4c0,0,0,0,0,0
			c0,0.1,0,0.3-0.1,0.4c0,0,0,0,0,0c0.1-0.2,0.1-0.4,0-0.6c0-0.2-0.1-0.4-0.2-0.6c-0.1-0.2-0.2-0.3-0.4-0.4
			c-0.1-0.1-0.3-0.2-0.5-0.3c-0.1,0-0.3,0-0.4-0.1c-0.3,0-0.5,0.1-0.8,0.2c-0.1,0.1-0.2,0.2-0.3,0.2C72.8,143.8,72.7,144,72.6,144.2
			L72.6,144.2z"/>
	</g>
</g>
<g>
	<g>
		<path class="st3" d="M76.4,126c0.1,0.1,0.1,0.1,0.2,0.2c0.1,0.1,0.3,0.2,0.5,0.3c0.2,0.1,0.4,0.1,0.6,0.1c0.2,0,0.4,0,0.6-0.1
			c0.2-0.1,0.3-0.2,0.5-0.3c0.1-0.1,0.2-0.2,0.2-0.3c0.1-0.2,0.2-0.5,0.2-0.8c0-0.1,0-0.3-0.1-0.4c-0.1-0.3-0.2-0.5-0.4-0.7
			c-0.1-0.1-0.1-0.1-0.2-0.2c-0.1-0.1-0.3-0.2-0.5-0.3c-0.2-0.1-0.4-0.1-0.6-0.1c-0.2,0-0.4,0-0.6,0.1c-0.2,0.1-0.3,0.2-0.5,0.3
			c-0.1,0.1-0.2,0.2-0.2,0.3c-0.1,0.2-0.2,0.5-0.2,0.8c0,0.1,0,0.3,0.1,0.4C76.1,125.6,76.2,125.8,76.4,126L76.4,126z"/>
	</g>
</g>
<g>
	<g>
		<path class="st3" d="M77.9,133.1c0.1,0,0.1,0,0.2,0c0.2,0,0.4,0,0.6-0.1c0.2-0.1,0.3-0.2,0.5-0.3c0.1-0.1,0.2-0.3,0.3-0.5
			c0.1-0.2,0.1-0.4,0.1-0.6c0-0.1,0-0.3-0.1-0.4c-0.1-0.3-0.2-0.5-0.4-0.7c-0.1-0.1-0.2-0.2-0.3-0.2c-0.2-0.1-0.5-0.2-0.8-0.2
			c-0.1,0-0.1,0-0.2,0c-0.2,0-0.4,0-0.6,0.1c-0.2,0.1-0.3,0.2-0.5,0.3c-0.1,0.1-0.2,0.3-0.3,0.5c-0.1,0.2-0.1,0.4-0.1,0.6
			c0,0.1,0,0.3,0.1,0.4c0.1,0.3,0.2,0.5,0.4,0.7c0.1,0.1,0.2,0.2,0.3,0.2C77.4,133,77.6,133.1,77.9,133.1L77.9,133.1z"/>
	</g>
</g>
<g>
	<g>
		<path class="st3" d="M78.2,138.5c0.1,0,0.1,0,0.2,0c0.2,0,0.4,0,0.6-0.1c0.2-0.1,0.3-0.2,0.5-0.3c0.1-0.1,0.2-0.3,0.3-0.5
			c0.1-0.2,0.1-0.4,0.1-0.6c0-0.1,0-0.3-0.1-0.4c-0.1-0.3-0.2-0.5-0.4-0.7c-0.1-0.1-0.2-0.2-0.3-0.2c-0.2-0.1-0.5-0.2-0.8-0.2
			c-0.1,0-0.1,0-0.2,0c-0.2,0-0.4,0-0.6,0.1c-0.2,0.1-0.3,0.2-0.5,0.3c-0.1,0.1-0.2,0.3-0.3,0.5c-0.1,0.2-0.1,0.4-0.1,0.6
			c0,0.1,0,0.3,0.1,0.4c0.1,0.3,0.2,0.5,0.4,0.7c0.1,0.1,0.2,0.2,0.3,0.2C77.7,138.5,77.9,138.5,78.2,138.5L78.2,138.5z"/>
	</g>
</g>
<g>
	<g>
		<path class="st3" d="M77,142.7c0.1,0.1,0.1,0.1,0.2,0.2c0.1,0.1,0.3,0.2,0.5,0.3c0.2,0.1,0.4,0.1,0.6,0.1c0.2,0,0.4,0,0.6-0.1
			c0.2-0.1,0.3-0.2,0.5-0.3c0.1-0.1,0.2-0.2,0.2-0.3c0.1-0.2,0.2-0.5,0.2-0.8c0-0.1,0-0.3-0.1-0.4c-0.1-0.3-0.2-0.5-0.4-0.7
			c-0.1-0.1-0.1-0.1-0.2-0.2c-0.1-0.1-0.3-0.2-0.5-0.3c-0.2-0.1-0.4-0.1-0.6-0.1c-0.2,0-0.4,0-0.6,0.1c-0.2,0.1-0.3,0.2-0.5,0.3
			c-0.1,0.1-0.2,0.2-0.2,0.3c-0.1,0.2-0.2,0.5-0.2,0.8c0,0.1,0,0.3,0.1,0.4C76.7,142.3,76.8,142.5,77,142.7L77,142.7z"/>
	</g>
</g>
<g>
	<g>
		<path class="st3" d="M77.6,149.6c0.1,0.1,0.1,0.1,0.2,0.2c0.1,0.1,0.3,0.2,0.5,0.3c0.2,0.1,0.4,0.1,0.6,0.1c0.2,0,0.4,0,0.6-0.1
			c0.2-0.1,0.3-0.2,0.5-0.3c0.1-0.1,0.2-0.2,0.2-0.3c0.1-0.2,0.2-0.5,0.2-0.8c0-0.1,0-0.3-0.1-0.4c-0.1-0.3-0.2-0.5-0.4-0.7
			c-0.1-0.1-0.1-0.1-0.2-0.2c-0.1-0.1-0.3-0.2-0.5-0.3c-0.2-0.1-0.4-0.1-0.6-0.1c-0.2,0-0.4,0-0.6,0.1c-0.2,0.1-0.3,0.2-0.5,0.3
			c-0.1,0.1-0.2,0.2-0.2,0.3c-0.1,0.2-0.2,0.5-0.2,0.8c0,0.1,0,0.3,0.1,0.4C77.3,149.2,77.4,149.4,77.6,149.6L77.6,149.6z"/>
	</g>
</g>
<g>
	<g>
		<path class="st3" d="M81.2,146c0.1,0.1,0.1,0.1,0.2,0.2c0.1,0.1,0.3,0.2,0.5,0.3c0.2,0.1,0.4,0.1,0.6,0.1c0.2,0,0.4,0,0.6-0.1
			c0.2-0.1,0.3-0.2,0.5-0.3c0.1-0.1,0.2-0.2,0.2-0.3c0.1-0.2,0.2-0.5,0.2-0.8c0-0.1,0-0.3-0.1-0.4c-0.1-0.3-0.2-0.5-0.4-0.7
			c-0.1-0.1-0.1-0.1-0.2-0.2c-0.1-0.1-0.3-0.2-0.5-0.3c-0.2-0.1-0.4-0.1-0.6-0.1c-0.2,0-0.4,0-0.6,0.1c-0.2,0.1-0.3,0.2-0.5,0.3
			c-0.1,0.1-0.2,0.2-0.2,0.3c-0.1,0.2-0.2,0.5-0.2,0.8c0,0.1,0,0.3,0.1,0.4C80.9,145.6,81,145.8,81.2,146L81.2,146z"/>
	</g>
</g>
<g>
	<g>
		<path class="st3" d="M81.3,140.4c0.1,0.1,0.1,0.1,0.2,0.2c0.1,0.1,0.3,0.2,0.5,0.3c0.2,0.1,0.4,0.1,0.6,0.1c0.2,0,0.4,0,0.6-0.1
			c0.2-0.1,0.3-0.2,0.5-0.3c0.1-0.1,0.2-0.2,0.2-0.3c0.1-0.2,0.2-0.5,0.2-0.8c0-0.1,0-0.3-0.1-0.4c-0.1-0.3-0.2-0.5-0.4-0.7
			c-0.1-0.1-0.1-0.1-0.2-0.2c-0.1-0.1-0.3-0.2-0.5-0.3c-0.2-0.1-0.4-0.1-0.6-0.1c-0.2,0-0.4,0-0.6,0.1c-0.2,0.1-0.3,0.2-0.5,0.3
			c-0.1,0.1-0.2,0.2-0.2,0.3c-0.1,0.2-0.2,0.5-0.2,0.8c0,0.1,0,0.3,0.1,0.4C81,140,81.2,140.2,81.3,140.4L81.3,140.4z"/>
	</g>
</g>
<g>
	<g>
		<path class="st3" d="M82.9,134.9c0.1-0.1,0.2-0.1,0.3-0.2c0.2-0.1,0.3-0.2,0.4-0.4c0.1-0.1,0.2-0.3,0.3-0.5c0.1-0.2,0.1-0.4,0-0.6
			c0-0.2-0.1-0.4-0.2-0.6c-0.1-0.1-0.2-0.2-0.2-0.3c-0.2-0.2-0.4-0.3-0.7-0.4c-0.1,0-0.3,0-0.4-0.1c-0.3,0-0.5,0.1-0.8,0.2
			c-0.1,0.1-0.2,0.1-0.3,0.2c-0.2,0.1-0.3,0.2-0.4,0.4c-0.1,0.1-0.2,0.3-0.3,0.5c-0.1,0.2-0.1,0.4,0,0.6c0,0.2,0.1,0.4,0.2,0.6
			c0.1,0.1,0.2,0.2,0.2,0.3c0.2,0.2,0.4,0.3,0.7,0.4c0.1,0,0.3,0,0.4,0.1C82.4,135.1,82.6,135.1,82.9,134.9L82.9,134.9z"/>
	</g>
</g>
<g>
	<g>
		<path class="st3" d="M81.9,129.4c0.1,0,0.1,0,0.2,0c0.2,0,0.4,0,0.6-0.1c0.2-0.1,0.3-0.2,0.5-0.3c0.1-0.1,0.2-0.3,0.3-0.5
			c0.1-0.2,0.1-0.4,0.1-0.6c0-0.1,0-0.3-0.1-0.4c-0.1-0.3-0.2-0.5-0.4-0.7c-0.1-0.1-0.2-0.2-0.3-0.2c-0.2-0.1-0.5-0.2-0.8-0.2
			c-0.1,0-0.1,0-0.2,0c-0.2,0-0.4,0-0.6,0.1c-0.2,0.1-0.3,0.2-0.5,0.3c-0.1,0.1-0.2,0.3-0.3,0.5c-0.1,0.2-0.1,0.4-0.1,0.6
			c0,0.1,0,0.3,0.1,0.4c0.1,0.3,0.2,0.5,0.4,0.7c0.1,0.1,0.2,0.2,0.3,0.2C81.4,129.3,81.7,129.4,81.9,129.4L81.9,129.4z"/>
	</g>
</g>
<g>
	<g>
		<path class="st3" d="M81.5,123.9c0.1,0,0.1,0,0.2,0c0.2,0,0.4,0,0.6-0.1c0.2-0.1,0.3-0.2,0.5-0.3c0.1-0.1,0.2-0.3,0.3-0.5
			c0.1-0.2,0.1-0.4,0.1-0.6c0-0.1,0-0.3-0.1-0.4c-0.1-0.3-0.2-0.5-0.4-0.7c-0.1-0.1-0.2-0.2-0.3-0.2c-0.2-0.1-0.5-0.2-0.8-0.2
			c-0.1,0-0.1,0-0.2,0c-0.2,0-0.4,0-0.6,0.1c-0.2,0.1-0.3,0.2-0.5,0.3c-0.1,0.1-0.2,0.3-0.3,0.5c-0.1,0.2-0.1,0.4-0.1,0.6
			c0,0.1,0,0.3,0.1,0.4c0.1,0.3,0.2,0.5,0.4,0.7c0.1,0.1,0.2,0.2,0.3,0.2C80.9,123.9,81.2,123.9,81.5,123.9L81.5,123.9z"/>
	</g>
</g>
<g>
	<g>
		<path class="st3" d="M82.6,152.6c0.1,0,0.2,0,0.3,0c0.2,0,0.4,0,0.6-0.1c0.2-0.1,0.3-0.2,0.5-0.3c0.1-0.1,0.2-0.3,0.3-0.5
			c0.1-0.2,0.1-0.4,0.1-0.6c0-0.1,0-0.3-0.1-0.4c-0.1-0.3-0.2-0.5-0.4-0.7c-0.1-0.1-0.2-0.2-0.3-0.2c-0.2-0.1-0.5-0.2-0.8-0.2
			c-0.1,0-0.2,0-0.3,0c-0.2,0-0.4,0-0.6,0.1c-0.2,0.1-0.3,0.2-0.5,0.3c-0.1,0.1-0.2,0.3-0.3,0.5c-0.1,0.2-0.1,0.4-0.1,0.6
			c0,0.1,0,0.3,0.1,0.4c0.1,0.3,0.2,0.5,0.4,0.7c0.1,0.1,0.2,0.2,0.3,0.2C82,152.6,82.3,152.6,82.6,152.6L82.6,152.6z"/>
	</g>
</g>
<g>
	<g>
		<path class="st3" d="M84.7,124.2c0,0.1-0.1,0.3-0.1,0.4c0,0.1,0,0.3,0,0.2c0,0.1,0,0.1,0,0.2c0,0,0,0,0,0c0,0,0,0,0,0
			c0.1,0.3,0.2,0.5,0.4,0.7c0,0,0.2,0.1,0.2,0.1c-0.1-0.1,0.1,0.1,0.2,0.1c0,0,0,0,0,0c0.1,0.1,0.2,0.1,0.4,0.2c0,0,0,0,0,0
			c0,0,0,0,0,0c0,0,0,0,0,0c0,0,0.4,0.1,0.4,0.1c0,0,0,0,0,0c0,0,0,0,0,0c0.1,0,0.3,0,0.2,0c-0.1,0,0.1,0,0.2,0c0,0,0,0,0,0
			c0,0,0,0,0,0c0.1,0,0.2-0.1,0.2-0.1c0,0,0.1,0,0.2-0.1c0,0,0,0,0,0c0,0,0.3-0.2,0.3-0.2c0,0,0,0,0,0c0,0,0,0,0,0c0,0,0,0,0,0
			c0,0,0,0,0,0c0-0.1,0.1-0.1,0.1-0.2c0-0.1,0.1-0.1,0.1-0.2c0,0,0,0,0,0c0,0,0,0,0,0c0,0,0,0,0,0c0,0,0,0,0,0
			c0-0.1,0.1-0.1,0.1-0.2c-0.1,0.1,0.1-0.1,0.1-0.2c0,0,0,0,0,0c0,0,0,0,0,0c0-0.1,0-0.1,0-0.2c0-0.1,0-0.1,0-0.2c0,0,0,0,0,0
			c0,0,0,0,0,0c0,0,0,0,0,0c0,0,0,0,0,0c0-0.1,0-0.1,0-0.2c0,0,0-0.1,0-0.2c0-0.2-0.1-0.4-0.3-0.5c-0.1-0.2-0.2-0.3-0.4-0.4
			c-0.2-0.1-0.4-0.2-0.6-0.2c-0.2,0-0.4,0-0.6,0c-0.1,0.1-0.2,0.1-0.4,0.2c-0.2,0.1-0.4,0.3-0.5,0.5c-0.1,0.1-0.1,0.2-0.2,0.4
			c-0.1,0.3-0.1,0.5,0,0.8c0,0,0,0,0,0c0-0.1,0-0.3-0.1-0.4c0,0,0,0,0,0c0-0.1,0-0.3,0.1-0.4c0,0,0,0,0,0c0.1-0.1,0.1-0.2,0.2-0.4
			c0,0,0,0,0,0c0.1-0.1,0.2-0.2,0.2-0.3c0,0,0,0,0,0c0.1-0.1,0.2-0.2,0.3-0.2c0,0,0,0,0,0c0.1-0.1,0.2-0.1,0.4-0.2c0,0,0,0,0,0
			c0.1,0,0.3,0,0.4-0.1c0,0,0,0,0,0c0.1,0,0.3,0,0.4,0.1c0,0,0,0,0,0c0.1,0.1,0.2,0.1,0.4,0.2c0,0,0,0,0,0c0.1,0.1,0.2,0.2,0.3,0.2
			c0,0,0,0,0,0c0.1,0.1,0.2,0.2,0.2,0.3c0,0,0,0,0,0c0.1,0.1,0.1,0.2,0.2,0.4c0,0,0,0,0,0c0,0.1,0,0.3,0.1,0.4c0,0,0,0,0,0
			c0,0.1,0,0.3-0.1,0.4c0,0,0,0,0,0c0.1-0.2,0.1-0.4,0-0.6c0-0.2-0.1-0.4-0.2-0.6c-0.1-0.2-0.2-0.3-0.4-0.4
			c-0.1-0.1-0.3-0.2-0.5-0.3c-0.1,0-0.3,0-0.4-0.1c-0.3,0-0.5,0.1-0.8,0.2c-0.1,0.1-0.2,0.2-0.3,0.2C84.9,123.7,84.8,124,84.7,124.2
			L84.7,124.2z"/>
	</g>
</g>
<g>
	<g>
		<path class="st3" d="M86.7,132.2c0.1,0,0.1,0,0.2,0c0.2,0,0.4,0,0.6-0.1c0.2-0.1,0.3-0.2,0.5-0.3c0.1-0.1,0.2-0.3,0.3-0.5
			c0.1-0.2,0.1-0.4,0.1-0.6c0-0.1,0-0.3-0.1-0.4c-0.1-0.3-0.2-0.5-0.4-0.7c-0.1-0.1-0.2-0.2-0.3-0.2c-0.2-0.1-0.5-0.2-0.8-0.2
			c-0.1,0-0.1,0-0.2,0c-0.2,0-0.4,0-0.6,0.1c-0.2,0.1-0.3,0.2-0.5,0.3c-0.1,0.1-0.2,0.3-0.3,0.5c-0.1,0.2-0.1,0.4-0.1,0.6
			c0,0.1,0,0.3,0.1,0.4c0.1,0.3,0.2,0.5,0.4,0.7c0.1,0.1,0.2,0.2,0.3,0.2C86.2,132.1,86.5,132.2,86.7,132.2L86.7,132.2z"/>
	</g>
</g>
<g>
	<g>
		<path class="st3" d="M87.1,137.9c0.1,0,0.1,0,0.2,0c0.2,0,0.4,0,0.6-0.1c0.2-0.1,0.3-0.2,0.5-0.3c0.1-0.1,0.2-0.3,0.3-0.5
			c0.1-0.2,0.1-0.4,0.1-0.6c0-0.1,0-0.3-0.1-0.4c-0.1-0.3-0.2-0.5-0.4-0.7c-0.1-0.1-0.2-0.2-0.3-0.2c-0.2-0.1-0.5-0.2-0.8-0.2
			c-0.1,0-0.1,0-0.2,0c-0.2,0-0.4,0-0.6,0.1c-0.2,0.1-0.3,0.2-0.5,0.3c-0.1,0.1-0.2,0.3-0.3,0.5c-0.1,0.2-0.1,0.4-0.1,0.6
			c0,0.1,0,0.3,0.1,0.4c0.1,0.3,0.2,0.5,0.4,0.7c0.1,0.1,0.2,0.2,0.3,0.2C86.5,137.8,86.8,137.9,87.1,137.9L87.1,137.9z"/>
	</g>
</g>
<g>
	<g>
		<path class="st3" d="M86.2,143.2c0.1,0.1,0.1,0.1,0.2,0.2c0.1,0.1,0.3,0.2,0.5,0.3c0.2,0.1,0.4,0.1,0.6,0.1c0.2,0,0.4,0,0.6-0.1
			c0.2-0.1,0.3-0.2,0.5-0.3c0.1-0.1,0.2-0.2,0.2-0.3c0.1-0.2,0.2-0.5,0.2-0.8c0-0.1,0-0.3-0.1-0.4c-0.1-0.3-0.2-0.5-0.4-0.7
			c-0.1-0.1-0.1-0.1-0.2-0.2c-0.1-0.1-0.3-0.2-0.5-0.3c-0.2-0.1-0.4-0.1-0.6-0.1c-0.2,0-0.4,0-0.6,0.1c-0.2,0.1-0.3,0.2-0.5,0.3
			c-0.1,0.1-0.2,0.2-0.2,0.3c-0.1,0.2-0.2,0.5-0.2,0.8c0,0.1,0,0.3,0.1,0.4C85.8,142.8,86,143,86.2,143.2L86.2,143.2z"/>
	</g>
</g>
<g>
	<g>
		<path class="st3" d="M87.5,149.1c1.9,0,1.9-3,0-3C85.6,146.1,85.6,149.1,87.5,149.1L87.5,149.1z"/>
	</g>
</g>
<g>
	<g>
		<path class="st3" d="M89.4,122c0,0.1-0.1,0.3-0.1,0.4c0,0.1,0,0.3,0,0.2c0,0.1,0,0.1,0,0.2c0,0,0,0,0,0c0,0,0,0,0,0
			c0.1,0.3,0.2,0.5,0.4,0.7c0,0,0.2,0.1,0.2,0.1c-0.1-0.1,0.1,0.1,0.2,0.1c0,0,0,0,0,0c0.1,0.1,0.2,0.1,0.4,0.2c0,0,0,0,0,0
			c0,0,0,0,0,0c0,0,0,0,0,0c0,0,0.4,0.1,0.4,0.1c0,0,0,0,0,0c0,0,0,0,0,0c0.1,0,0.3,0,0.2,0c-0.1,0,0.1,0,0.2,0c0,0,0,0,0,0
			c0,0,0,0,0,0c0.1,0,0.2-0.1,0.2-0.1c0,0,0.1,0,0.2-0.1c0,0,0,0,0,0c0,0,0.3-0.2,0.3-0.2c0,0,0,0,0,0c0,0,0,0,0,0c0,0,0,0,0,0
			c0,0,0,0,0,0c0-0.1,0.1-0.1,0.1-0.2c0-0.1,0.1-0.1,0.1-0.2c0,0,0,0,0,0c0,0,0,0,0,0s0,0,0,0c0,0,0,0,0,0c0-0.1,0.1-0.1,0.1-0.2
			c-0.1,0.1,0.1-0.1,0.1-0.2c0,0,0,0,0,0c0,0,0,0,0,0c0-0.1,0-0.1,0-0.2c0-0.1,0-0.1,0-0.2c0,0,0,0,0,0c0,0,0,0,0,0c0,0,0,0,0,0
			c0,0,0,0,0,0c0-0.1,0-0.1,0-0.2c0,0,0-0.1,0-0.2c0-0.2-0.1-0.4-0.3-0.5c-0.1-0.2-0.2-0.3-0.4-0.4c-0.2-0.1-0.4-0.2-0.6-0.2
			c-0.2,0-0.4,0-0.6,0c-0.1,0.1-0.2,0.1-0.4,0.2c-0.2,0.1-0.4,0.3-0.5,0.5c-0.1,0.1-0.1,0.2-0.2,0.4c-0.1,0.3-0.1,0.5,0,0.8
			c0,0,0,0,0,0c0-0.1,0-0.3-0.1-0.4c0,0,0,0,0,0c0-0.1,0-0.3,0.1-0.4c0,0,0,0,0,0c0.1-0.1,0.1-0.2,0.2-0.4c0,0,0,0,0,0
			c0.1-0.1,0.2-0.2,0.2-0.3c0,0,0,0,0,0c0.1-0.1,0.2-0.2,0.3-0.2c0,0,0,0,0,0c0.1-0.1,0.2-0.1,0.4-0.2c0,0,0,0,0,0
			c0.1,0,0.3,0,0.4-0.1c0,0,0,0,0,0c0.1,0,0.3,0,0.4,0.1c0,0,0,0,0,0c0.1,0.1,0.2,0.1,0.4,0.2c0,0,0,0,0,0c0.1,0.1,0.2,0.2,0.3,0.2
			c0,0,0,0,0,0c0.1,0.1,0.2,0.2,0.2,0.3c0,0,0,0,0,0c0.1,0.1,0.1,0.2,0.2,0.4c0,0,0,0,0,0c0,0.1,0,0.3,0.1,0.4c0,0,0,0,0,0
			c0,0.1,0,0.3-0.1,0.4c0,0,0,0,0,0c0.1-0.2,0.1-0.4,0-0.6c0-0.2-0.1-0.4-0.2-0.6c-0.1-0.2-0.2-0.3-0.4-0.4
			c-0.1-0.1-0.3-0.2-0.5-0.3c-0.1,0-0.3,0-0.4-0.1c-0.3,0-0.5,0.1-0.8,0.2c-0.1,0.1-0.2,0.2-0.3,0.2C89.6,121.6,89.4,121.8,89.4,122
			L89.4,122z"/>
	</g>
</g>
<g>
	<g>
		<path class="st3" d="M89.6,127.6c0,0.1,0,0.1,0,0.2c0,0.2,0,0.4,0.1,0.6c0.1,0.2,0.2,0.3,0.3,0.5c0.1,0.1,0.3,0.2,0.5,0.3
			c0.2,0.1,0.4,0.1,0.6,0.1c0.1,0,0.3,0,0.4-0.1c0.3-0.1,0.5-0.2,0.7-0.4c0.1-0.1,0.2-0.2,0.2-0.3c0.1-0.2,0.2-0.5,0.2-0.8
			c0-0.1,0-0.1,0-0.2c0-0.2,0-0.4-0.1-0.6c-0.1-0.2-0.2-0.3-0.3-0.5c-0.1-0.1-0.3-0.2-0.5-0.3c-0.2-0.1-0.4-0.1-0.6-0.1
			c-0.1,0-0.3,0-0.4,0.1c-0.3,0.1-0.5,0.2-0.7,0.4c-0.1,0.1-0.2,0.2-0.2,0.3C89.7,127,89.6,127.3,89.6,127.6L89.6,127.6z"/>
	</g>
</g>
<g>
	<g>
		<path class="st3" d="M89.9,134.2c0.1,0.1,0.1,0.1,0.2,0.2c0.1,0.1,0.3,0.2,0.5,0.3c0.2,0.1,0.4,0.1,0.6,0.1c0.2,0,0.4,0,0.6-0.1
			c0.2-0.1,0.3-0.2,0.5-0.3c0.1-0.1,0.2-0.2,0.2-0.3c0.1-0.2,0.2-0.5,0.2-0.8c0-0.1,0-0.3-0.1-0.4c-0.1-0.3-0.2-0.5-0.4-0.7
			c-0.1-0.1-0.1-0.1-0.2-0.2c-0.1-0.1-0.3-0.2-0.5-0.3c-0.2-0.1-0.4-0.1-0.6-0.1c-0.2,0-0.4,0-0.6,0.1c-0.2,0.1-0.3,0.2-0.5,0.3
			c-0.1,0.1-0.2,0.2-0.2,0.3c-0.1,0.2-0.2,0.5-0.2,0.8c0,0.1,0,0.3,0.1,0.4C89.6,133.8,89.7,134,89.9,134.2L89.9,134.2z"/>
	</g>
</g>
<g>
	<g>
		<path class="st3" d="M90,140.1c0.1,0.1,0.1,0.1,0.2,0.2c0.1,0.1,0.3,0.2,0.5,0.3c0.2,0.1,0.4,0.1,0.6,0.1c0.2,0,0.4,0,0.6-0.1
			c0.2-0.1,0.3-0.2,0.5-0.3c0.1-0.1,0.2-0.2,0.2-0.3c0.1-0.2,0.2-0.5,0.2-0.8c0-0.1,0-0.3-0.1-0.4c-0.1-0.3-0.2-0.5-0.4-0.7
			c-0.1-0.1-0.1-0.1-0.2-0.2c-0.1-0.1-0.3-0.2-0.5-0.3c-0.2-0.1-0.4-0.1-0.6-0.1c-0.2,0-0.4,0-0.6,0.1c-0.2,0.1-0.3,0.2-0.5,0.3
			c-0.1,0.1-0.2,0.2-0.2,0.3c-0.1,0.2-0.2,0.5-0.2,0.8c0,0.1,0,0.3,0.1,0.4C89.7,139.7,89.8,139.9,90,140.1L90,140.1z"/>
	</g>
</g>
<g>
	<g>
		<path class="st3" d="M90.8,146.3c0.1,0,0.1,0,0.2,0c0.2,0,0.4,0,0.6-0.1c0.2-0.1,0.3-0.2,0.5-0.3c0.1-0.1,0.2-0.3,0.3-0.5
			c0.1-0.2,0.1-0.4,0.1-0.6c0-0.1,0-0.3-0.1-0.4c-0.1-0.3-0.2-0.5-0.4-0.7c-0.1-0.1-0.2-0.2-0.3-0.2c-0.2-0.1-0.5-0.2-0.8-0.2
			c-0.1,0-0.1,0-0.2,0c-0.2,0-0.4,0-0.6,0.1c-0.2,0.1-0.3,0.2-0.5,0.3c-0.1,0.1-0.2,0.3-0.3,0.5c-0.1,0.2-0.1,0.4-0.1,0.6
			c0,0.1,0,0.3,0.1,0.4c0.1,0.3,0.2,0.5,0.4,0.7c0.1,0.1,0.2,0.2,0.3,0.2C90.3,146.2,90.5,146.3,90.8,146.3L90.8,146.3z"/>
	</g>
</g>
<g>
	<g>
		<path class="st3" d="M90.3,152.2c0.1,0.1,0.1,0.1,0.2,0.2c0.1,0.1,0.3,0.2,0.5,0.3c0.2,0.1,0.4,0.1,0.6,0.1c0.2,0,0.4,0,0.6-0.1
			c0.2-0.1,0.3-0.2,0.5-0.3c0.1-0.1,0.2-0.2,0.2-0.3c0.1-0.2,0.2-0.5,0.2-0.8c0-0.1,0-0.3-0.1-0.4c-0.1-0.3-0.2-0.5-0.4-0.7
			c-0.1-0.1-0.1-0.1-0.2-0.2c-0.1-0.1-0.3-0.2-0.5-0.3c-0.2-0.1-0.4-0.1-0.6-0.1c-0.2,0-0.4,0-0.6,0.1c-0.2,0.1-0.3,0.2-0.5,0.3
			c-0.1,0.1-0.2,0.2-0.2,0.3c-0.1,0.2-0.2,0.5-0.2,0.8c0,0.1,0,0.3,0.1,0.4C90,151.8,90.2,152,90.3,152.2L90.3,152.2z"/>
	</g>
</g>
<g>
	<g>
		<path class="st3" d="M95.3,126.1c0.1,0,0.1,0,0.2,0c0.2,0,0.4,0,0.6-0.1c0.2-0.1,0.3-0.2,0.5-0.3c0.1-0.1,0.2-0.3,0.3-0.5
			c0.1-0.2,0.1-0.4,0.1-0.6c0-0.1,0-0.3-0.1-0.4c-0.1-0.3-0.2-0.5-0.4-0.7c-0.1-0.1-0.2-0.2-0.3-0.2c-0.2-0.1-0.5-0.2-0.8-0.2
			c-0.1,0-0.1,0-0.2,0c-0.2,0-0.4,0-0.6,0.1c-0.2,0.1-0.3,0.2-0.5,0.3c-0.1,0.1-0.2,0.3-0.3,0.5c-0.1,0.2-0.1,0.4-0.1,0.6
			c0,0.1,0,0.3,0.1,0.4c0.1,0.3,0.2,0.5,0.4,0.7c0.1,0.1,0.2,0.2,0.3,0.2C94.8,126,95,126.1,95.3,126.1L95.3,126.1z"/>
	</g>
</g>
<g>
	<g>
		<path class="st3" d="M94.3,129.8c0,0.1-0.1,0.3-0.1,0.4c0,0.1,0,0.3,0,0.2c0,0.1,0,0.1,0,0.2c0,0,0,0,0,0c0,0,0,0,0,0
			c0.1,0.3,0.2,0.5,0.4,0.7c0,0,0.2,0.1,0.2,0.1c-0.1-0.1,0.1,0.1,0.2,0.1c0,0,0,0,0,0c0.1,0.1,0.2,0.1,0.4,0.2c0,0,0,0,0,0
			c0,0,0,0,0,0c0,0,0,0,0,0c0,0,0.4,0.1,0.4,0.1c0,0,0,0,0,0c0,0,0,0,0,0c0.1,0,0.3,0,0.2,0c-0.1,0,0.1,0,0.2,0c0,0,0,0,0,0
			c0,0,0,0,0,0c0.1,0,0.2-0.1,0.2-0.1c0,0,0.1,0,0.2-0.1c0,0,0,0,0,0c0,0,0.3-0.2,0.3-0.2c0,0,0,0,0,0c0,0,0,0,0,0c0,0,0,0,0,0
			c0,0,0,0,0,0c0-0.1,0.1-0.1,0.1-0.2c0-0.1,0.1-0.1,0.1-0.2c0,0,0,0,0,0c0,0,0,0,0,0c0,0,0,0,0,0c0,0,0,0,0,0
			c0-0.1,0.1-0.1,0.1-0.2c-0.1,0.1,0.1-0.1,0.1-0.2c0,0,0,0,0,0c0,0,0,0,0,0c0-0.1,0-0.1,0-0.2c0-0.1,0-0.1,0-0.2c0,0,0,0,0,0
			c0,0,0,0,0,0c0,0,0,0,0,0c0,0,0,0,0,0c0-0.1,0-0.1,0-0.2c0,0,0-0.1,0-0.2c0-0.2-0.1-0.4-0.3-0.5c-0.1-0.2-0.2-0.3-0.4-0.4
			c-0.2-0.1-0.4-0.2-0.6-0.2c-0.2,0-0.4,0-0.6,0c-0.1,0.1-0.2,0.1-0.4,0.2c-0.2,0.1-0.4,0.3-0.5,0.5c-0.1,0.1-0.1,0.2-0.2,0.4
			c-0.1,0.3-0.1,0.5,0,0.8c0,0,0,0,0,0c0-0.1,0-0.3-0.1-0.4c0,0,0,0,0,0c0-0.1,0-0.3,0.1-0.4c0,0,0,0,0,0c0.1-0.1,0.1-0.2,0.2-0.4
			c0,0,0,0,0,0c0.1-0.1,0.2-0.2,0.2-0.3c0,0,0,0,0,0c0.1-0.1,0.2-0.2,0.3-0.2c0,0,0,0,0,0c0.1-0.1,0.2-0.1,0.4-0.2c0,0,0,0,0,0
			c0.1,0,0.3,0,0.4-0.1c0,0,0,0,0,0c0.1,0,0.3,0,0.4,0.1c0,0,0,0,0,0c0.1,0.1,0.2,0.1,0.4,0.2c0,0,0,0,0,0c0.1,0.1,0.2,0.2,0.3,0.2
			c0,0,0,0,0,0c0.1,0.1,0.2,0.2,0.2,0.3c0,0,0,0,0,0c0.1,0.1,0.1,0.2,0.2,0.4c0,0,0,0,0,0c0,0.1,0,0.3,0.1,0.4c0,0,0,0,0,0
			c0,0.1,0,0.3-0.1,0.4c0,0,0,0,0,0c0.1-0.2,0.1-0.4,0-0.6c0-0.2-0.1-0.4-0.2-0.6c-0.1-0.2-0.2-0.3-0.4-0.4
			c-0.1-0.1-0.3-0.2-0.5-0.3c-0.1,0-0.3,0-0.4-0.1c-0.3,0-0.5,0.1-0.8,0.2c-0.1,0.1-0.2,0.2-0.3,0.2
			C94.5,129.3,94.4,129.5,94.3,129.8L94.3,129.8z"/>
	</g>
</g>
<g>
	<g>
		<path class="st3" d="M95.9,137.3c0.1,0,0.1,0,0.2,0c0.2,0,0.4,0,0.6-0.1c0.2-0.1,0.3-0.2,0.5-0.3c0.1-0.1,0.2-0.3,0.3-0.5
			c0.1-0.2,0.1-0.4,0.1-0.6c0-0.1,0-0.3-0.1-0.4c-0.1-0.3-0.2-0.5-0.4-0.7c-0.1-0.1-0.2-0.2-0.3-0.2c-0.2-0.1-0.5-0.2-0.8-0.2
			c-0.1,0-0.1,0-0.2,0c-0.2,0-0.4,0-0.6,0.1c-0.2,0.1-0.3,0.2-0.5,0.3c-0.1,0.1-0.2,0.3-0.3,0.5c-0.1,0.2-0.1,0.4-0.1,0.6
			c0,0.1,0,0.3,0.1,0.4c0.1,0.3,0.2,0.5,0.4,0.7c0.1,0.1,0.2,0.2,0.3,0.2C95.4,137.2,95.6,137.3,95.9,137.3L95.9,137.3z"/>
	</g>
</g>
<g>
	<g>
		<path class="st3" d="M95.6,143c0.1,0,0.1,0,0.2,0c0.2,0,0.4,0,0.6-0.1c0.2-0.1,0.3-0.2,0.5-0.3c0.1-0.1,0.2-0.3,0.3-0.5
			c0.1-0.2,0.1-0.4,0.1-0.6c0-0.1,0-0.3-0.1-0.4c-0.1-0.3-0.2-0.5-0.4-0.7c-0.1-0.1-0.2-0.2-0.3-0.2c-0.2-0.1-0.5-0.2-0.8-0.2
			c-0.1,0-0.1,0-0.2,0c-0.2,0-0.4,0-0.6,0.1c-0.2,0.1-0.3,0.2-0.5,0.3c-0.1,0.1-0.2,0.3-0.3,0.5c-0.1,0.2-0.1,0.4-0.1,0.6
			c0,0.1,0,0.3,0.1,0.4c0.1,0.3,0.2,0.5,0.4,0.7c0.1,0.1,0.2,0.2,0.3,0.2C95.1,143,95.3,143,95.6,143L95.6,143z"/>
	</g>
</g>
<g>
	<g>
		<path class="st3" d="M95.9,149.1c0.1,0,0.1,0,0.2,0c0.2,0,0.4,0,0.6-0.1c0.2-0.1,0.3-0.2,0.5-0.3c0.1-0.1,0.2-0.3,0.3-0.5
			c0.1-0.2,0.1-0.4,0.1-0.6c0-0.1,0-0.3-0.1-0.4c-0.1-0.3-0.2-0.5-0.4-0.7c-0.1-0.1-0.2-0.2-0.3-0.2c-0.2-0.1-0.5-0.2-0.8-0.2
			c-0.1,0-0.1,0-0.2,0c-0.2,0-0.4,0-0.6,0.1c-0.2,0.1-0.3,0.2-0.5,0.3c-0.1,0.1-0.2,0.3-0.3,0.5c-0.1,0.2-0.1,0.4-0.1,0.6
			c0,0.1,0,0.3,0.1,0.4c0.1,0.3,0.2,0.5,0.4,0.7c0.1,0.1,0.2,0.2,0.3,0.2C95.4,149,95.6,149.1,95.9,149.1L95.9,149.1z"/>
	</g>
</g>
<g>
	<g>
		<path class="st3" d="M100.1,129.1c1.9,0,1.9-3,0-3C98.2,126.1,98.2,129.1,100.1,129.1L100.1,129.1z"/>
	</g>
</g>
<g>
	<g>
		<path class="st3" d="M99.2,134c0.1,0.1,0.1,0.1,0.2,0.2c0.1,0.1,0.3,0.2,0.5,0.3c0.2,0.1,0.4,0.1,0.6,0.1c0.2,0,0.4,0,0.6-0.1
			c0.2-0.1,0.3-0.2,0.5-0.3c0.1-0.1,0.2-0.2,0.2-0.3c0.1-0.2,0.2-0.5,0.2-0.8c0-0.1,0-0.3-0.1-0.4c-0.1-0.3-0.2-0.5-0.4-0.7
			c-0.1-0.1-0.1-0.1-0.2-0.2c-0.1-0.1-0.3-0.2-0.5-0.3c-0.2-0.1-0.4-0.1-0.6-0.1c-0.2,0-0.4,0-0.6,0.1c-0.2,0.1-0.3,0.2-0.5,0.3
			c-0.1,0.1-0.2,0.2-0.2,0.3c-0.1,0.2-0.2,0.5-0.2,0.8c0,0.1,0,0.3,0.1,0.4C98.9,133.6,99,133.9,99.2,134L99.2,134z"/>
	</g>
</g>
<g>
	<g>
		<path class="st3" d="M99,139.6c0.1,0.1,0.1,0.1,0.2,0.2c0.1,0.1,0.3,0.2,0.5,0.3c0.2,0.1,0.4,0.1,0.6,0.1c0.2,0,0.4,0,0.6-0.1
			c0.2-0.1,0.3-0.2,0.5-0.3c0.1-0.1,0.2-0.2,0.2-0.3c0.1-0.2,0.2-0.5,0.2-0.8c0-0.1,0-0.3-0.1-0.4c-0.1-0.3-0.2-0.5-0.4-0.7
			c-0.1-0.1-0.1-0.1-0.2-0.2c-0.1-0.1-0.3-0.2-0.5-0.3c-0.2-0.1-0.4-0.1-0.6-0.1c-0.2,0-0.4,0-0.6,0.1c-0.2,0.1-0.3,0.2-0.5,0.3
			c-0.1,0.1-0.2,0.2-0.2,0.3c-0.1,0.2-0.2,0.5-0.2,0.8c0,0.1,0,0.3,0.1,0.4C98.7,139.2,98.8,139.4,99,139.6L99,139.6z"/>
	</g>
</g>
<g>
	<g>
		<path class="st3" d="M99.2,145.4c0.1,0,0.1,0.1,0.2,0.1c0.1,0.1,0.3,0.2,0.5,0.3c0.2,0.1,0.4,0.1,0.6,0.1c0.2,0,0.4,0,0.6-0.1
			c0.2-0.1,0.3-0.2,0.5-0.3c0.1-0.1,0.2-0.2,0.2-0.3c0.1-0.2,0.2-0.5,0.2-0.8c0-0.1,0-0.3-0.1-0.4c-0.1-0.3-0.2-0.5-0.4-0.7
			c-0.1,0-0.1-0.1-0.2-0.1c-0.1-0.1-0.3-0.2-0.5-0.3c-0.2-0.1-0.4-0.1-0.6-0.1c-0.2,0-0.4,0-0.6,0.1c-0.2,0.1-0.3,0.2-0.5,0.3
			c-0.1,0.1-0.2,0.2-0.2,0.3c-0.1,0.2-0.2,0.5-0.2,0.8c0,0.1,0,0.3,0.1,0.4C98.9,145,99,145.2,99.2,145.4L99.2,145.4z"/>
	</g>
</g>
<g>
	<g>
		<path class="st3" d="M104.3,137c0.1,0,0.1,0,0.2,0c0.2,0,0.4,0,0.6-0.1c0.2-0.1,0.3-0.2,0.5-0.3c0.1-0.1,0.2-0.3,0.3-0.5
			c0.1-0.2,0.1-0.4,0.1-0.6c0-0.1,0-0.3-0.1-0.4c-0.1-0.3-0.2-0.5-0.4-0.7c-0.1-0.1-0.2-0.2-0.3-0.2c-0.2-0.1-0.5-0.2-0.8-0.2
			c-0.1,0-0.1,0-0.2,0c-0.2,0-0.4,0-0.6,0.1c-0.2,0.1-0.3,0.2-0.5,0.3c-0.1,0.1-0.2,0.3-0.3,0.5c-0.1,0.2-0.1,0.4-0.1,0.6
			c0,0.1,0,0.3,0.1,0.4c0.1,0.3,0.2,0.5,0.4,0.7c0.1,0.1,0.2,0.2,0.3,0.2C103.8,136.9,104,137,104.3,137L104.3,137z"/>
	</g>
</g>
<path class="st3" d="M54.3,114.6c0.1-0.8,0.2-1.6,0.2-2.5c0-0.1,0.1-0.2,0.1-0.3c0.5-2.8,0-5.6-1.5-8.1c-0.3-0.6-1.2-0.9-1.8-0.5
	c-0.2,0.1-0.4,0.3-0.6,0.4c-0.3,0.2-0.5,0.4-0.6,0.7c-1,1.2-1.1,2.8-0.4,4.2c0,0.1,0.1,0.2,0.2,0.2c-0.1,0.7-0.2,1.4-0.1,2.1
	c-0.7,1.9-0.7,4.1,0.2,6c-0.1,0.9-0.1,1.7,0.2,2.6c0,0.5,0,1,0.1,1.5c-0.3,1-0.3,2-0.1,3c-0.3,1.1-0.2,2.3,0.2,3.4
	c-0.4,1.1-0.4,2.2-0.1,3.3c0.1,0.3,0.2,0.6,0.4,0.8c-0.1,0.2-0.1,0.4-0.2,0.6c-0.4,1.3-0.6,2.8-0.1,4.1c0,0,0,0,0,0
	c-0.2,0.9-0.1,1.8,0.4,2.7c0.4,0.7,1.5,0.9,2,0.3c0.8-0.9,1.2-2,1.3-3.2c0.1-0.5,0.2-1.1,0.2-1.5c0-0.4,0-0.8-0.1-1.2
	c0-0.2,0-0.4,0-0.6c0.2-1,0.2-2,0.1-3c0.1-0.8,0.1-1.7,0.1-2.4c0-0.8-0.2-1.5-0.3-2.3c0-0.2,0-0.3,0-0.5c0.3-1.3,0.4-2.7,0.3-4
	c0.1-1.4-0.1-2.8-0.4-4.2c0-0.3,0-0.7,0-1C54.1,115.1,54.2,114.9,54.3,114.6z"/>
<g>
	<g>
		<path class="st1" d="M51.5,100.8c-3.1,0-4.1,3-4.2,5.6c0,3.2,0.1,6.5,0.1,9.7c0.1,6.7,0,13.3,0.3,20c0.1,2.2,0.6,4.8,2.9,5.6
			c2.5,0.9,4.9-1.1,5.6-3.4c0.4-1.3,0.4-2.8,0.4-4.1c0-1.6,0-3.3-0.1-4.9c-0.1-3.5-0.1-6.9-0.2-10.4c-0.1-3.8-0.3-7.6-0.5-11.4
			c-0.1-1.5,0.2-3.6-0.5-4.9c-0.6-1.2-2.1-1.5-3.4-1.4c-1.9,0.1-1.9,3.1,0,3c0.2,0,0.9,0.1,0.7-0.1c0.2,0.2,0.1,1.6,0.1,2
			c0.1,1.3,0.1,2.6,0.2,3.9c0.1,2.6,0.2,5.1,0.3,7.7c0.2,5.2,0.3,10.4,0.3,15.6c0,1.4,0.5,5.4-1.6,5.7c-1.6,0.3-1.4-3-1.4-3.8
			c-0.1-5.2-0.1-10.3-0.2-15.5c0-2.9-0.1-5.9-0.1-8.8c0-1.4,0-2.7-0.1-4.1c0-0.8-0.1-2.8,1.2-2.8C53.5,103.8,53.5,100.8,51.5,100.8
			L51.5,100.8z"/>
	</g>
</g>
<g>
	<g>
		<path class="st1" d="M49.7,128.3c1.3,0,2.6,0,3.9,0c0.4,0,0.8-0.3,0.8-0.7c0-0.4-0.3-0.8-0.8-0.8c-1.3,0-2.6,0-3.9,0
			c-0.4,0-0.8,0.3-0.8,0.8C48.9,128,49.2,128.3,49.7,128.3L49.7,128.3z"/>
	</g>
</g>
<g>
	<g>
		<path class="st1" d="M49.8,117.7c1.1,0.1,2.2,0.1,3.3,0.1c0.4,0,0.8-0.3,0.8-0.8c0-0.4-0.3-0.8-0.8-0.8c-1.1,0.1-2.2,0-3.3-0.1
			c-0.4,0-0.8,0.4-0.8,0.8C49.1,117.4,49.4,117.6,49.8,117.7L49.8,117.7z"/>
	</g>
</g>
</svg>
