<?xml version="1.0" encoding="utf-8"?>
<!-- Generator: Adobe Illustrator 26.3.1, SVG Export Plug-In . SVG Version: 6.00 Build 0)  -->
<svg version="1.1" id="Calque_1" xmlns="http://www.w3.org/2000/svg" xmlns:xlink="http://www.w3.org/1999/xlink" x="0px" y="0px"
	 viewBox="0 0 200 200" style="enable-background:new 0 0 200 200;" xml:space="preserve">
<style type="text/css">
	.st0{fill:#666666;}
	.st1{fill:#E7F4DF;}
	.st2{fill:#FFFFFF;}
	.st3{fill:#FD5A5C;}
	.st4{fill:#FFFF66;}
	.st5{fill:#CCCCCC;}
	.st6{fill:#79A2D8;}
</style>
<g>
	<g>
		<path class="st0" d="M138.4,75.6c0-0.1,0-0.1,0-0.2c-0.8-3.3-2.2-6.4-3.5-9.5c0.5-2.3,1-4.5,1.2-6.8c0.3-2.6,0.8-5.7-0.5-8.1
			c-0.6-1-1.5-1.8-2.6-2.1c-1.4-0.4-2.8,0.1-4.1,0.7c-2.5,1.2-4.9,2.8-7.2,4.5c-11.2-5.3-24.5-5.9-36.1-1.6c-1-0.9-2.1-1.7-3.2-2.4
			c-1.2-0.7-2.4-1.4-3.6-2c-1.3-0.6-2.8-1.2-4.3-0.7c-0.9,0.3-1.8,1-2,2c-0.1,0.5-0.2,1-0.2,1.5c-0.2,1.9-0.4,3.9-0.5,5.8
			c0,1.5-0.1,3,0.1,4.5c-0.1,0.1-0.2,0.2-0.2,0.3c-2.5,4-5.5,7.8-7,12.2c-0.2,0.1-1-0.1-1.1-0.1c-0.5,0,7.1-2.2,6.6-2.2
			c-1.1,0.1-4.2,1.5-5.3,1.8c-2,0.7-3.5,12.6-2.3,14.3c1.3,1.8-2.4,0.3-1.5,2.3c0.1,0.2,0.2,0.4,0.4,0.5
			c-0.6,10.4-0.2,21.7,6.4,30.3c-0.1,0.2-0.1,0.4-0.2,0.6c-0.3,1.1-0.8,2.3-0.9,3.5c-0.2,1.2-0.3,2.6-0.1,3.8
			c0.2,1.2,1.1,1.9,2.3,2.1c2.5,0.4,4.9-0.5,6.9-1.8c0.7-0.4,1.3-0.8,1.9-1.3c11.9,4.8,26.3,7.4,38.4,1.9c0.1,0,0.2-0.1,0.3-0.1
			c0.6-0.4,1.5-0.2,2.2,0c0.9,0.2,1.7,0.8,2.5,1.3c2,1.2,4.4,2.9,6.8,1.8c2.2-1,2.8-3.7,2.6-5.8c-0.1-0.7-0.2-1.5-0.3-2.2
			c1.6-2,3.4-3.7,4.9-5.8c1.6-2.3,2.8-5.1,3.9-7.7c1.9-4.5,3.1-9.2,2.8-14.1c-0.1-2.6-0.6-5.2-1.4-7.7c1.3-1.4-2.7,2.8-1.6,1.3
			C140.1,88.9,139.9,75.6,138.4,75.6z"/>
	</g>
	<g>
		<g>
			<path class="st1" d="M77.6,128.1c12.1,4.9,26.9,7.5,39.1,1.8c1.7-0.8,0.2-3.4-1.5-2.6c-11.4,5.4-25.6,2.5-36.8-2.1
				C76.7,124.5,75.9,127.4,77.6,128.1L77.6,128.1z"/>
		</g>
	</g>
	<g>
		<g>
			<path class="st1" d="M68,118.3c-0.1-0.2,0,0.3,0,0.4c0,0.3,0,0.5-0.1,0.8c-0.1,0.6-0.3,1.2-0.5,1.8c-0.3,1.2-0.7,2.3-0.9,3.5
				c-0.1,0.7-0.2,1.5-0.2,2.2c0,0.7-0.1,1.5,0.1,2.1c0.3,1.3,1.5,2,2.8,2.2c2.6,0.4,5.1-0.6,7.3-2c2.1-1.3,4.1-2.9,6-4.6
				c1.4-1.3-0.7-3.4-2.1-2.1c-1.6,1.5-3.3,2.9-5.2,4c-1.6,1-3.4,2-5.4,1.8c-0.1,0-0.5-0.2-0.6-0.1c0.3-0.1,0,0.3,0.2,0.1
				c0.1-0.1,0-0.6,0-0.8c0-0.3,0-0.6,0-0.9c0-1.1,0.3-2.1,0.6-3.1c0.3-1.1,0.7-2.1,0.9-3.2c0.2-1.1,0.4-2.4-0.2-3.5
				C69.6,115.1,67,116.6,68,118.3L68,118.3z"/>
		</g>
	</g>
	<g>
		<g>
			<path class="st1" d="M116.7,129.9c0.1-0.1,0.1-0.1,0.2-0.1c-0.1,0.1-0.1,0.1,0,0c0.2,0,0.2,0,0.1,0c0.1,0,0.2,0,0.3,0
				c0.5,0,0.7,0.1,1.2,0.2c0.2,0.1,0.4,0.1,0.7,0.2c0.2,0.1,0.2,0.1,0.1,0c0.1,0,0.2,0.1,0.3,0.1c0.5,0.3,1,0.6,1.4,0.8
				c2,1.2,4.5,2.9,7,2c2.5-0.9,3.3-3.9,3.1-6.3c-0.2-2.6-1.1-5.2-1.7-7.8c-0.5-1.9-3.4-1.1-2.9,0.8c0.3,1.2,0.6,2.5,0.9,3.7
				c0.3,1.1,0.6,2.2,0.7,3.3c0.1,1.3-0.1,3.8-1.9,3.5c-1-0.2-1.9-0.8-2.7-1.3c-0.9-0.5-1.8-1.1-2.7-1.6c-1.6-0.7-3.9-1.2-5.5-0.2
				C113.6,128.4,115.1,131,116.7,129.9L116.7,129.9z"/>
		</g>
	</g>
	<g>
		<g>
			<path class="st1" d="M130.3,125.3c2.2-2.8,4.8-5.2,6.5-8.4c1.7-3.1,3.2-6.3,4.3-9.7c1.9-6.2,1.7-12.5-0.2-18.6
				c-0.6-1.8-3.5-1.1-2.9,0.8c1.7,5.7,1.9,11.3,0.2,17c-1,3.1-2.4,6.1-4,9c-1.6,2.9-3.9,5.2-6,7.8
				C127,124.7,129.1,126.8,130.3,125.3L130.3,125.3z"/>
		</g>
	</g>
	<g>
		<g>
			<path class="st1" d="M70,119.3c-6.7-8.6-6.5-20.2-5.8-30.5c0.1-1.9-2.9-1.9-3,0c-0.7,11.3-0.6,23.3,6.7,32.7
				c0.5,0.6,1.6,0.5,2.1,0C70.6,120.8,70.5,119.9,70,119.3L70,119.3z"/>
		</g>
	</g>
	<g>
		<g>
			<path class="st1" d="M66.4,77.7c0.9-5.7,4.6-10.1,7.6-14.8c1-1.6-1.6-3.2-2.6-1.5c-3.1,4.9-7,9.6-7.9,15.5
				c-0.1,0.8,0.2,1.6,1,1.8C65.3,78.9,66.3,78.5,66.4,77.7L66.4,77.7z"/>
		</g>
	</g>
	<g>
		<g>
			<path class="st1" d="M138.8,75.3c-0.8-3.4-2.3-6.6-3.6-9.7c-0.3-0.7-1-1.3-1.8-1c-0.7,0.2-1.4,1.1-1,1.8c1.3,3.2,2.8,6.3,3.6,9.7
				c0.2,0.8,1.1,1.3,1.8,1C138.5,76.9,139,76.2,138.8,75.3L138.8,75.3z"/>
		</g>
	</g>
	<g>
		<g>
			<path class="st1" d="M86.3,55c11.1-4.1,23.6-3.6,34.3,1.5c1.7,0.8,3.3-1.8,1.5-2.6c-11.4-5.4-24.8-6.1-36.6-1.8
				C83.7,52.8,84.5,55.7,86.3,55L86.3,55z"/>
		</g>
	</g>
	<g>
		<g>
			<g>
				<path class="st1" d="M74.9,62.9c-0.2-0.9-0.3-1.2-0.3-2c-0.1-0.9-0.1-1.9-0.1-2.8c0-1.9,0.1-3.7,0.3-5.6c0-0.3,0.1-0.7,0.1-1
					c0-0.1,0-0.3,0.1-0.4c0-0.1,0-0.1,0-0.2c0-0.2,0,0.3,0,0.1c0-0.2,0.1-0.4,0.1-0.6c0-0.3,0.1-0.2,0-0.1c0.7-0.6,1.8-0.1,2.5,0.2
					c1.1,0.5,2.2,1.1,3.2,1.8c2.2,1.4,4.2,3.1,6,5c1.3,1.4,3.4-0.7,2.1-2.1c-1.8-2-3.9-3.7-6.1-5.2c-1.2-0.8-2.4-1.4-3.7-2
					c-1.4-0.7-2.9-1.3-4.5-0.8c-1.1,0.3-2.1,1.2-2.4,2.3C72,49.9,72,50.5,71.9,51c-0.2,1.9-0.4,3.8-0.4,5.7
					c-0.1,2.3-0.1,4.7,0.5,6.9C72.5,65.6,75.4,64.8,74.9,62.9L74.9,62.9z"/>
			</g>
		</g>
		<g>
			<g>
				<path class="st1" d="M135.2,66.4c0.5-2.4,1-4.8,1.3-7.3c0.3-2.6,0.8-5.8-0.6-8.2c-0.6-1.1-1.6-2-2.8-2.3c-1.5-0.4-3,0-4.4,0.7
					c-2.7,1.3-5.2,3-7.6,4.7c-1.2,0.8-0.8,2.8,0.8,2.8c0.6,0,1.1-0.2,1.6-0.6c1.5-1.3-0.7-3.4-2.1-2.1c0,0-0.1,0.1-0.1,0.1
					c0.2-0.1,0.4-0.3,0.7-0.4c0,0,0,0,0,0c0.3,0.9,0.5,1.9,0.8,2.8c2-1.4,4.1-2.8,6.3-4c0.9-0.5,2-1.3,3.1-1.2
					c0.8,0.1,1.3,0.8,1.5,1.5c0.4,1.1,0.3,2.4,0.2,3.6c-0.1,1-0.2,2-0.3,3c-0.3,2.1-0.8,4.1-1.2,6.1
					C131.9,67.5,134.8,68.3,135.2,66.4L135.2,66.4z"/>
			</g>
		</g>
		<g>
			<g>
				<path class="st1" d="M121.3,56.4c0.6,1.2,0.9,2.6,2.1,3.4c1.7,1.1,4,0.2,5.1-1.3c0.6-0.8,1.1-1.6,1.7-2.3c0.3-0.4,0.6-0.8,1-1.1
					c0.2-0.2,0.6-0.7,0.9-0.6c0.6,0.1,0.1,1.8,0.1,2.2c-0.1,1.1-0.1,2.3-0.2,3.5c-0.1,1.2-0.1,2.5,0.1,3.7c0.1,1,0.3,2,1.1,2.7
					c0.7,0.7,1.7-0.4,1.1-1.1c-0.5-0.5-0.6-1.4-0.7-2.1c-0.1-1.1-0.1-2.3,0-3.4c0.1-1.1,0.1-2.3,0.2-3.4c0.1-0.9,0.4-1.9-0.2-2.7
					c-0.5-0.8-1.6-0.9-2.4-0.5c-0.9,0.5-1.5,1.3-2.1,2c-0.6,0.7-1.2,1.5-1.7,2.3c-0.6,0.8-1.5,1.3-2.5,1.2c-1.4-0.1-1.8-2-2.3-3.1
					C122.2,54.8,120.9,55.6,121.3,56.4L121.3,56.4z"/>
			</g>
		</g>
		<g>
			<g>
				<path class="st1" d="M87.6,56c-0.4,0.2-0.8,0.6-1.2,0.9c-0.3,0.3-0.7,0.7-1.2,0.6c-1.1-0.1-2.2-1.3-3-2c-1-0.9-2.1-1.7-3.1-2.6
					c-0.7-0.5-1.5-1.1-2.4-1.1c-2,0-1.9,2.5-2.1,3.9c-0.2,2.5-1.1,5-1.4,7.5c-0.1,1,1.4,0.9,1.5,0c0.3-2.4,1-4.6,1.3-7
					c0.1-0.8,0-1.8,0.3-2.5c0.3-0.8,1-0.2,1.5,0.2c2,1.3,3.6,3.1,5.5,4.4c0.8,0.5,1.8,0.9,2.7,0.6c0.9-0.3,1.5-1.1,2.3-1.6
					C89.2,56.8,88.4,55.5,87.6,56L87.6,56z"/>
			</g>
		</g>
		<g>
			<g>
				<path class="st1" d="M76.8,52.1c-0.7-0.9-1.1-2-1.3-3.2c0-0.2-0.2-0.4-0.4-0.4c-0.2,0-0.4,0.2-0.4,0.4c0.2,1.3,0.6,2.5,1.4,3.6
					c0.1,0.2,0.3,0.2,0.5,0.1C76.8,52.5,76.9,52.2,76.8,52.1L76.8,52.1z"/>
			</g>
		</g>
		<g>
			<g>
				<path class="st1" d="M78.1,52.9c-0.3-1.3-0.7-2.7-1-4c-0.1-0.5-0.8-0.3-0.7,0.2c0.3,1.3,0.7,2.7,1,4
					C77.5,53.5,78.2,53.3,78.1,52.9L78.1,52.9z"/>
			</g>
		</g>
		<g>
			<g>
				<path class="st1" d="M79.5,53.5c-0.3-1.1-0.4-2.3-0.4-3.4c0-0.5-0.7-0.5-0.8,0c-0.1,1.2,0.1,2.5,0.4,3.6
					C78.9,54.1,79.6,53.9,79.5,53.5L79.5,53.5z"/>
			</g>
		</g>
		<g>
			<g>
				<path class="st1" d="M80.7,54.8c-0.2-1.4-0.4-2.8-0.4-4.2c0-0.5-0.8-0.5-0.8,0c0,1.5,0.1,2.9,0.4,4.4c0,0.2,0.3,0.3,0.5,0.3
					C80.7,55.2,80.8,55,80.7,54.8L80.7,54.8z"/>
			</g>
		</g>
		<g>
			<g>
				<path class="st1" d="M82,55.9c-0.3-1.3-0.3-2.6,0-3.8c0-0.2-0.1-0.4-0.3-0.5c-0.2-0.1-0.4,0.1-0.5,0.3c-0.3,1.4-0.3,2.8,0,4.2
					C81.4,56.6,82.1,56.4,82,55.9L82,55.9z"/>
			</g>
		</g>
		<g>
			<g>
				<path class="st1" d="M83.2,56.7c-0.2-1.2-0.2-2.4,0.2-3.6c0.1-0.5-0.6-0.7-0.7-0.2c-0.4,1.3-0.4,2.7-0.2,4
					c0,0.2,0.3,0.3,0.5,0.3C83.1,57.1,83.2,56.9,83.2,56.7L83.2,56.7z"/>
			</g>
		</g>
		<g>
			<g>
				<path class="st1" d="M84.2,57.7c0-1.1,0.1-2.3,0.5-3.3c0.2-0.5-0.6-0.7-0.7-0.2c-0.4,1.1-0.6,2.3-0.5,3.5
					C83.5,58.2,84.2,58.2,84.2,57.7L84.2,57.7z"/>
			</g>
		</g>
		<g>
			<g>
				<path class="st1" d="M85.1,57.8c0.1-1.1,0.3-2.1,0.7-3.1c0.1-0.2,0.1-0.4-0.1-0.5c-0.2-0.1-0.4-0.1-0.5,0.1
					c-0.5,1.1-0.8,2.3-0.8,3.5c0,0.2,0.2,0.4,0.4,0.4C85,58.2,85.1,58,85.1,57.8L85.1,57.8z"/>
			</g>
		</g>
		<g>
			<g>
				<path class="st1" d="M75.8,53.3c-0.8-0.9-1.6-1.8-2.3-2.7c-0.1-0.2-0.4-0.1-0.5,0c-0.2,0.2-0.1,0.4,0,0.5
					c0.8,0.9,1.6,1.8,2.3,2.7c0.1,0.2,0.4,0.1,0.5,0C75.9,53.6,75.9,53.4,75.8,53.3L75.8,53.3z"/>
			</g>
		</g>
		<g>
			<g>
				<path class="st1" d="M75.5,55.1c-0.3-0.3-0.6-0.6-0.9-0.9c-0.1-0.1-0.3-0.3-0.4-0.5c-0.1-0.1-0.1-0.2-0.2-0.2c0,0,0,0,0-0.1
					c0,0,0,0,0,0c0,0-0.1-0.1-0.1-0.1c-0.1-0.2-0.3-0.3-0.5-0.1c-0.2,0.1-0.3,0.3-0.1,0.5c0.5,0.7,1.1,1.3,1.7,1.9
					c0.1,0.1,0.4,0.2,0.5,0C75.6,55.5,75.6,55.3,75.5,55.1L75.5,55.1z"/>
			</g>
		</g>
		<g>
			<g>
				<path class="st1" d="M75.5,57.2c-0.6-0.6-1.1-1.2-1.7-1.9c-0.1-0.1-0.4-0.1-0.5,0c-0.1,0.2-0.1,0.4,0,0.5
					c0.6,0.6,1.1,1.2,1.7,1.9c0.1,0.1,0.4,0.1,0.5,0C75.7,57.6,75.7,57.3,75.5,57.2L75.5,57.2z"/>
			</g>
		</g>
		<g>
			<g>
				<path class="st1" d="M75,58.6c-0.9-0.7-1.7-1.4-2.5-2.3c-0.1-0.1-0.4-0.1-0.5,0c-0.1,0.1-0.1,0.4,0,0.5c0.8,0.9,1.7,1.7,2.7,2.4
					c0.2,0.1,0.4,0,0.5-0.1C75.2,58.9,75.2,58.8,75,58.6L75,58.6z"/>
			</g>
		</g>
		<g>
			<g>
				<path class="st1" d="M132.8,54c0.4-1.4,0.7-2.8,0.8-4.3c0-0.5-0.7-0.5-0.8,0c-0.1,1.4-0.3,2.8-0.7,4.1
					C132,54.3,132.7,54.5,132.8,54L132.8,54z"/>
			</g>
		</g>
		<g>
			<g>
				<path class="st1" d="M132,54.2c0-1.3,0-2.5,0-3.8c0-0.5-0.8-0.5-0.8,0c0,1.3,0,2.5,0,3.8C131.2,54.7,132,54.7,132,54.2L132,54.2
					z"/>
			</g>
		</g>
		<g>
			<g>
				<path class="st1" d="M130.9,54.7c0.1-1.5-0.1-2.9-0.3-4.4c-0.1-0.5-0.8-0.3-0.7,0.2c0.3,1.4,0.4,2.8,0.3,4.2
					C130.2,55.2,130.9,55.2,130.9,54.7L130.9,54.7z"/>
			</g>
		</g>
		<g>
			<g>
				<path class="st1" d="M129.9,55.8c-0.1-1.5-0.2-2.9-0.4-4.4c0-0.2-0.3-0.3-0.5-0.3c-0.2,0.1-0.3,0.3-0.3,0.5
					c0.2,1.4,0.3,2.8,0.4,4.2C129.1,56.3,129.9,56.3,129.9,55.8L129.9,55.8z"/>
			</g>
		</g>
		<g>
			<g>
				<path class="st1" d="M129.1,57.2c-0.2-1.7-0.5-3.4-0.8-5.1c-0.1-0.5-0.8-0.3-0.7,0.2c0.3,1.6,0.6,3.3,0.8,4.9
					c0,0.2,0.2,0.4,0.4,0.4C128.9,57.6,129.1,57.4,129.1,57.2L129.1,57.2z"/>
			</g>
		</g>
		<g>
			<g>
				<path class="st1" d="M128.3,58.2c-0.4-1.8-0.7-3.7-1.1-5.5c-0.1-0.5-0.8-0.3-0.7,0.2c0.4,1.8,0.7,3.7,1.1,5.5
					C127.6,58.9,128.4,58.7,128.3,58.2L128.3,58.2z"/>
			</g>
		</g>
		<g>
			<g>
				<path class="st1" d="M127.4,58.6c-0.3-1.5-0.7-3-1-4.5c-0.1-0.5-0.8-0.3-0.7,0.2c0.3,1.5,0.7,3,1,4.5
					C126.8,59.3,127.5,59.1,127.4,58.6L127.4,58.6z"/>
			</g>
		</g>
		<g>
			<g>
				<path class="st1" d="M126.1,58.9c-0.5-1.4-0.9-2.8-1.2-4.3c-0.1-0.5-0.8-0.3-0.7,0.2c0.3,1.4,0.7,2.9,1.2,4.3
					C125.5,59.6,126.3,59.4,126.1,58.9L126.1,58.9z"/>
			</g>
		</g>
		<g>
			<g>
				<path class="st1" d="M124.4,58.3c-0.5-0.8-0.7-1.7-0.6-2.6c0-0.2-0.2-0.4-0.4-0.4c-0.2,0-0.4,0.2-0.4,0.4c-0.1,1,0.2,2.1,0.7,3
					c0.1,0.2,0.3,0.2,0.5,0.1C124.5,58.7,124.5,58.4,124.4,58.3L124.4,58.3z"/>
			</g>
		</g>
		<g>
			<g>
				<path class="st1" d="M133.7,55.4c0.3-0.6,0.6-1.1,0.8-1.7c0.1-0.2,0.1-0.4-0.1-0.5c-0.2-0.1-0.4-0.1-0.5,0.1
					c-0.3,0.6-0.6,1.1-0.8,1.7c-0.1,0.2-0.1,0.4,0.1,0.5C133.3,55.6,133.6,55.5,133.7,55.4L133.7,55.4z"/>
			</g>
		</g>
		<g>
			<g>
				<path class="st1" d="M133.5,57.3c0.1-0.2,0.2-0.4,0.3-0.6c0.1-0.1,0.1-0.2,0.2-0.3c0,0,0,0,0-0.1c0,0,0.1-0.1,0,0
					c0,0,0.1-0.1,0.1-0.1c0.1-0.2,0.3-0.3,0.4-0.5c0.1-0.1,0.2-0.1,0.2-0.2c0,0,0,0,0.1-0.1c0,0,0,0,0,0c0,0,0.1-0.1,0.1-0.1
					c0.2-0.1,0.3-0.3,0.1-0.5c-0.1-0.2-0.3-0.3-0.5-0.1c-0.8,0.5-1.4,1.3-1.8,2.1c-0.1,0.2-0.1,0.4,0.1,0.5
					C133.2,57.6,133.5,57.5,133.5,57.3L133.5,57.3z"/>
			</g>
		</g>
		<g>
			<g>
				<path class="st1" d="M133.5,60.1c0-0.1,0.1-0.2,0.1-0.4c0-0.1,0-0.1,0.1-0.2c0-0.1,0,0,0,0c0,0,0-0.1,0-0.1
					c0.1-0.2,0.2-0.4,0.4-0.6c0,0,0,0,0-0.1c0.1-0.1,0,0.1,0,0c0,0,0.1-0.1,0.1-0.1c0.1-0.1,0.2-0.2,0.2-0.3
					c0.2-0.2,0.3-0.3,0.6-0.4c0.2-0.1,0.2-0.3,0.1-0.5c-0.1-0.2-0.3-0.2-0.5-0.1c-1,0.6-1.7,1.5-1.9,2.6c0,0.2,0.1,0.4,0.3,0.5
					C133.2,60.4,133.4,60.3,133.5,60.1L133.5,60.1z"/>
			</g>
		</g>
		<g>
			<g>
				<path class="st1" d="M133.5,62.2c0.5-0.9,1.1-1.7,1.8-2.5c0.1-0.2,0.2-0.4,0-0.5c-0.1-0.1-0.4-0.2-0.5,0
					c-0.7,0.8-1.3,1.7-1.9,2.7c-0.1,0.2,0,0.4,0.1,0.5C133.2,62.4,133.4,62.4,133.5,62.2L133.5,62.2z"/>
			</g>
		</g>
		<g>
			<g>
				<path class="st1" d="M86.1,57.6c0.1-0.4,0.2-0.7,0.3-1.1c0.1-0.4,0.2-0.7,0.4-1c0.1-0.2,0.1-0.4-0.1-0.5
					c-0.2-0.1-0.4-0.1-0.5,0.1c-0.3,0.7-0.6,1.5-0.7,2.2c0,0.2,0.1,0.4,0.3,0.5C85.8,57.9,86.1,57.8,86.1,57.6L86.1,57.6z"/>
			</g>
		</g>
	</g>
	<g>
		<g>
			<path class="st1" d="M112.6,76.2c-0.1-0.2-0.4-0.3-0.6-0.3c-0.2,0.1-0.4,0.2-0.5,0.4c-0.1,0.2-0.1,0.5,0,0.7
				c0.1,0.2,0.4,0.3,0.6,0.3c0.2,0,0.5-0.2,0.6-0.4c0.1-0.2,0.2-0.4,0.2-0.6c0-0.4-0.1-0.9-0.6-0.9c0.1,0.2,0.1,0.5,0.2,0.7
				c0.1-0.1,0.3-0.2,0.4-0.2c0,0,0,0,0,0c0,0,0.1,0,0.1,0c0,0,0.1,0,0.1,0c0.1,0,0,0,0,0c0,0,0.1,0,0.1,0c-0.1,0,0,0,0,0
				c0.1,0,0,0,0,0c0,0,0,0,0,0c0,0,0,0,0,0c0,0,0,0,0,0c0,0,0,0,0,0c0,0,0,0,0,0c0,0.1,0,0.1,0.1,0.2c0,0.1,0,0,0,0c0,0,0,0.1,0,0.1
				c0,0.1,0,0,0,0c0,0,0,0,0,0c0,0,0,0,0,0c0,0,0,0,0,0c0,0,0,0,0,0c-0.1,0.1,0.1,0,0,0c0,0,0,0,0,0c0,0,0,0,0,0c0,0-0.1,0,0,0
				c0,0-0.1,0-0.1,0c0.1,0,0,0,0,0c0,0,0,0,0,0c0,0,0,0,0,0c-0.1-0.1,0,0,0,0c0,0,0,0,0,0c0,0,0,0,0-0.1c0,0.1,0,0,0,0
				c0-0.1,0,0,0,0c-0.2,0-0.5,0.1-0.7,0.1c0,0.2,0.1,0.4,0.1,0.6c0,0.2,0.1,0.4,0.2,0.5c0.3,0.3,0.9,0.2,1-0.2
				c0.1-0.3-0.1-0.5-0.4-0.5c-0.4,0-1,0-1.1,0.5c-0.1,0.2,0.1,0.5,0.3,0.6c0.2,0.1,0.4,0.1,0.6,0.1c0.4,0,0.7-0.1,0.9-0.5
				c0.2-0.4-0.1-0.8-0.4-1c-0.2-0.1-0.4-0.2-0.6-0.2C112.9,76.2,112.8,76.2,112.6,76.2c-0.1,0-0.2,0.1-0.3,0.1c0.1,0,0.1,0,0.2-0.1
				C112.5,76.3,112.5,76.3,112.6,76.2c0,0.1,0,0.1,0.1,0.2c0,0.1,0,0.2,0.1,0.3c0,0,0,0,0,0c0,0,0-0.1,0.1-0.1c0-0.1,0-0.2,0-0.3
				c0-0.2-0.1-0.3-0.3-0.4c-0.1-0.1-0.2-0.1-0.4-0.1c-0.1,0-0.2,0-0.2,0c-0.1,0,0,0,0,0c0,0-0.1,0,0,0c0.1,0.2,0.2,0.3,0.3,0.5
				c0-0.1,0.1-0.3,0.1-0.4c0,0.1,0,0,0,0c0,0,0.1-0.1,0,0c0,0,0,0,0.1-0.1c0,0,0,0,0,0c0,0,0,0,0,0c0,0,0,0,0.1,0c-0.1,0,0,0,0,0
				c-0.1,0,0,0,0,0c0,0,0.1,0,0.1,0c0,0,0,0,0.1,0c0.1,0.1,0,0,0,0c0.1,0,0.1,0.1,0.2,0.2c0.1,0.1,0.4,0.1,0.5,0
				c0.1-0.2,0.1-0.4,0-0.5c-0.2-0.2-0.3-0.3-0.5-0.4c-0.2-0.1-0.5-0.1-0.7,0.1c-0.4,0.2-0.6,0.7-0.7,1.1c0,0.2,0.1,0.4,0.3,0.5
				c0.2,0,0.3,0,0.4,0c-0.1,0,0.1,0,0,0c0,0,0,0,0,0c0,0,0,0,0,0c0,0-0.1-0.1-0.1-0.1c0-0.2,0-0.2,0-0.1c0,0.1-0.1,0.1-0.1,0.2
				c0,0.2,0,0.3,0.1,0.4c0.1,0.1,0.3,0.2,0.4,0.1c0,0,0.1,0,0.1-0.1c0,0,0,0,0,0c0,0,0,0,0,0c0,0,0,0,0,0c0.1,0,0.2,0,0.3,0.1
				c0,0,0.1,0,0.1,0c-0.1,0,0,0,0.1,0c0,0,0,0,0,0c0,0,0,0,0,0c0,0,0,0,0,0c0,0,0,0,0,0.1c0-0.1,0,0.1,0,0c0,0,0,0,0,0
				c0,0,0-0.1,0,0c0,0,0,0,0,0c0,0,0,0,0,0c0,0,0,0,0,0c0,0,0,0,0,0c0,0-0.1,0-0.1,0c0,0,0,0,0,0c0,0,0,0-0.1,0c-0.1,0-0.2,0-0.2,0
				c0,0,0,0,0,0c0,0,0,0,0,0c0.1,0.1,0.1,0.1,0.1,0c0,0.1,0,0.1,0,0.2c0,0-0.1,0.1-0.1,0.1c0,0,0,0,0,0c0.1,0,0.1,0,0.2,0
				c0,0,0.1,0,0,0c0,0,0.1,0,0.1,0c0.1,0,0.1,0,0.2,0c-0.1-0.2-0.2-0.3-0.4-0.5c0,0.1,0-0.1,0.1-0.1c0,0,0,0,0.1,0c0,0,0,0,0,0
				c0,0,0.1,0,0,0c0,0,0,0,0.1,0c0,0,0,0,0,0c0,0,0,0,0,0c0,0,0,0,0,0c0,0,0,0,0,0c0,0,0-0.1,0-0.1c-0.1-0.2-0.1-0.5-0.1-0.7
				c0-0.2-0.2-0.3-0.4-0.3c-0.2,0-0.3,0.2-0.3,0.4c0,0.5,0.4,0.9,0.9,1c0.5,0,0.9-0.4,0.9-0.9c0-0.5-0.2-1-0.7-1.1
				c-0.5-0.1-0.9,0.1-1.3,0.4c-0.1,0.1-0.2,0.3-0.2,0.4c0.1,0.2,0.2,0.3,0.4,0.3c-0.1,0-0.1,0-0.2-0.1c0,0,0-0.1,0,0c0-0.1,0,0,0,0
				c0,0,0,0,0,0c0,0,0,0,0,0.1c0,0,0,0.1,0,0.1c0,0.1,0,0.1,0,0.2c0,0,0,0.1,0,0c0,0,0,0,0,0c0,0,0,0,0,0c0,0,0,0,0,0c0,0,0,0,0,0
				c0,0,0,0,0,0c0,0,0,0,0,0c0,0,0.1,0,0,0c0,0,0,0,0,0c0,0,0,0,0,0c0,0,0,0.1,0,0.1c0,0,0,0,0,0c0,0,0,0,0,0c0,0.1,0,0,0.1-0.1
				c0,0,0,0,0,0c0,0,0,0,0,0c-0.1,0-0.1,0-0.2-0.1c0.1,0.2,0.3,0.2,0.5,0.1C112.6,76.6,112.7,76.4,112.6,76.2L112.6,76.2z"/>
		</g>
	</g>
	<g>
		<g>
			<path class="st1" d="M88.1,74.9c-0.2,0.3-0.3,0.7-0.1,1c0.2,0.4,0.7,0.4,1.1,0.2c0.3-0.2,0.5-0.6,0.6-1c0-0.5-0.4-0.7-0.8-0.8
				c-0.2,0-0.5,0-0.7,0.1c-0.2,0.2-0.3,0.4-0.3,0.7c0,0.1,0.2,0.3,0.3,0.3c0.1,0,0.3,0,0.4-0.2c0.2-0.3,0.3-0.7,0.1-1.1
				c-0.3-0.4-0.8-0.4-1.1,0c-0.3,0.3-0.4,0.8-0.3,1.1c0.1,0.3,0.5,0.5,0.9,0.5c0.4,0,0.8-0.2,1-0.6c0.2-0.2,0-0.6-0.3-0.6
				c-0.3,0-0.6,0.1-0.8,0.4c-0.1,0.1-0.2,0.3,0,0.5c0.1,0.1,0.3,0.2,0.5,0.1c0.3-0.2,0.4-0.4,0.5-0.7c0-0.1,0.1-0.3,0.1-0.4
				c0-0.1,0-0.1,0-0.2c0-0.1,0-0.1,0-0.2c0-0.1,0,0,0,0c0,0.1,0,0.1-0.1,0.2c0,0,0,0.1-0.1,0.1c0,0,0,0,0,0c0,0,0.1,0,0.1,0
				c0,0,0,0,0,0c0,0,0.1,0,0.1,0c0,0,0,0,0,0c0,0,0.1,0,0.1,0.1c0,0,0.1,0,0.1,0.1c0,0,0,0,0.1,0c0,0,0,0,0,0c0,0,0,0,0,0
				c0,0,0,0,0,0c0,0,0,0,0,0c0,0.1,0,0,0,0c0,0.1,0-0.1,0,0c0,0,0,0,0,0c0,0,0,0.1,0,0c0,0,0,0,0,0c-0.1,0.1-0.2,0.2-0.2,0.2
				c0,0,0,0,0,0c0,0,0,0-0.1,0c-0.1,0,0,0,0,0c0,0-0.1,0,0,0c0,0,0,0,0,0c-0.1,0,0.1,0,0,0c-0.1,0,0.1,0,0,0c0,0,0.1,0.1,0,0
				c0,0.2,0,0.3,0.1,0.5c0-0.1,0,0,0,0c0,0,0,0,0,0c0,0,0,0,0,0c0,0,0,0,0,0c0,0,0,0,0,0c0,0,0,0,0,0c0.1,0-0.1,0,0,0c0,0,0,0,0.1,0
				c0.1,0,0,0,0,0c0,0,0,0,0.1,0c0,0-0.1,0,0,0c0,0,0,0,0,0c0,0,0,0.1,0,0c0-0.1,0,0,0,0c0,0,0,0,0,0c0,0,0-0.1,0,0c0,0,0,0.1,0,0
				c0-0.1,0,0,0,0c0,0,0,0,0,0c0,0,0,0.1,0,0.1c0,0,0,0,0,0c0,0,0,0-0.1,0.1c0,0,0,0,0,0c-0.1,0,0.1,0,0,0c0,0,0,0-0.1,0
				c0.1,0,0,0,0,0c0,0-0.1,0,0,0c0,0-0.1,0-0.1,0c0,0,0,0,0,0c0,0,0,0-0.1,0c0,0,0,0,0,0c0,0,0,0-0.1-0.1c0,0,0,0,0,0
				c0,0,0-0.1,0-0.1c-0.1-0.2-0.4-0.2-0.5-0.1c-0.2,0.1-0.2,0.3-0.1,0.5c0.2,0.4,0.6,0.6,1,0.6c0.4,0,0.8-0.3,0.9-0.7
				c0.1-0.4-0.1-0.8-0.5-1c-0.4-0.1-0.8,0-1,0.4c-0.1,0.2-0.1,0.3,0.1,0.5c0.1,0.2,0.4,0.2,0.6,0.2c0.2,0,0.4-0.1,0.6-0.2
				c0.3-0.2,0.6-0.6,0.5-1.1c-0.1-0.4-0.5-0.6-0.9-0.8c-0.2-0.1-0.5-0.1-0.7,0c-0.3,0.1-0.3,0.4-0.3,0.7c0,0,0,0.1,0,0c0,0,0,0,0,0
				c0,0,0,0.1,0,0.1c0,0,0,0,0,0.1c0-0.1,0,0,0,0c0,0,0,0.1,0,0.1c0,0,0,0.1,0,0c0,0,0,0,0,0.1c0,0,0,0.1-0.1,0.1c0,0,0,0,0,0
				c0,0,0,0,0,0c0,0,0,0,0,0c0,0-0.1,0.1,0,0c0.2,0.2,0.3,0.4,0.5,0.6c0,0,0.1-0.1,0.1-0.1c0,0,0,0,0,0c0.1,0,0,0,0,0
				c0,0,0.2,0,0.1,0c-0.1-0.2-0.2-0.4-0.3-0.6c-0.1,0.1,0,0,0,0c0,0,0,0-0.1,0.1c-0.1,0.1,0,0,0,0c0,0,0,0-0.1,0c0,0-0.1,0,0,0
				c0,0,0,0-0.1,0c0,0-0.1,0-0.1,0c0,0,0,0,0,0c0,0-0.1,0-0.1,0c0,0,0,0,0,0c0,0-0.1,0-0.1,0c0,0,0,0,0,0c-0.1,0,0,0,0,0
				c0,0,0,0,0,0c0,0,0,0,0,0c0,0,0,0,0,0C87.9,75,88,74.9,88.1,74.9C88,74.9,88,74.8,88.1,74.9c0-0.1,0-0.1,0-0.2c0,0,0,0,0,0
				c0,0,0-0.1,0,0c0,0,0,0,0,0c0,0,0,0,0,0c0,0,0.1,0,0,0c0,0,0,0,0,0c0,0,0,0-0.1,0c0,0,0,0,0,0c0,0,0,0,0,0c0,0-0.1-0.1,0,0
				c0,0,0,0,0,0c0,0,0,0,0,0c0,0,0,0,0,0c0,0,0,0,0,0c0,0,0,0,0,0c0,0,0,0,0,0c0,0,0,0.1,0,0.1c0,0-0.1,0.1-0.1,0.2
				c0.2,0,0.5,0.1,0.7,0.1c0,0,0,0.1,0,0.1c0,0,0,0,0,0c0,0,0,0,0,0c0,0,0,0,0,0c0,0,0,0,0,0c-0.1,0,0,0,0,0c0,0,0.1,0,0.1,0
				c0.1,0,0.1,0,0.2,0.1c0,0,0.1,0,0,0c0,0,0,0,0,0c0,0,0,0,0,0c0,0,0-0.1-0.1-0.1c0,0,0,0,0,0c0,0,0,0,0,0c0,0,0,0.1,0,0.1
				c0,0.1,0,0,0,0c0,0.1-0.1,0.1-0.1,0.2c0,0,0,0,0,0.1c0,0,0,0,0,0c0,0,0,0-0.1,0c0,0,0,0,0,0c0,0,0,0,0,0c0,0,0,0,0,0
				c-0.1,0,0,0,0,0c0,0,0,0,0,0c0,0,0,0,0,0c0-0.1,0,0,0,0c0,0,0,0.1,0,0c0,0,0,0,0-0.1c0,0.1,0,0,0,0c0,0,0-0.1,0-0.1c0,0,0,0,0,0
				c0,0,0-0.1,0-0.1c0.1-0.2,0-0.4-0.1-0.5C88.4,74.6,88.2,74.7,88.1,74.9L88.1,74.9z"/>
		</g>
	</g>
	<g>
		<g>
			<path class="st1" d="M88.3,74.5C88.3,74.5,88.3,74.5,88.3,74.5C88.3,74.5,88.3,74.5,88.3,74.5c0,0,0-0.1,0-0.1
				C88.4,74.4,88.4,74.4,88.3,74.5c0-0.1,0.1-0.1,0.1-0.2c0,0,0,0.1-0.1,0.1c0,0,0.1-0.1,0.1-0.1c0,0-0.1,0-0.1,0.1
				c0,0,0.1-0.1,0.1-0.1c0,0-0.1,0-0.1,0c0.1,0,0.1,0,0.2,0c0,0-0.1,0-0.1,0c0.1,0,0.1,0,0.2,0c0,0-0.1,0-0.1,0c0.1,0,0.1,0,0.2,0
				c0,0-0.1,0-0.1,0c0,0,0,0,0.1,0c0.2,0.1,0.4,0,0.5-0.1c0.1-0.2,0-0.4-0.1-0.5c-0.3-0.2-0.7-0.2-1,0c-0.3,0.2-0.5,0.5-0.5,0.9
				c0,0.2,0.2,0.4,0.4,0.4C88.2,74.9,88.3,74.7,88.3,74.5L88.3,74.5z"/>
		</g>
	</g>
	<g>
		<g>
			<path class="st1" d="M87.8,74.8c-0.1,0.1-0.1,0.2-0.2,0.2c0,0.1-0.1,0.2-0.1,0.3c0,0.2,0,0.3,0.1,0.5c0.1,0.2,0.2,0.3,0.4,0.4
				c0.1,0,0.2,0.1,0.3,0.1c0.1,0,0.2,0,0.3,0c0.2,0,0.4-0.1,0.5-0.2c0.2-0.1,0.2-0.3,0.1-0.5c-0.1-0.2-0.3-0.2-0.5-0.1
				c0,0-0.1,0-0.1,0.1c0,0,0.1,0,0.1,0c-0.1,0-0.2,0.1-0.3,0.1c0,0,0.1,0,0.1,0c-0.1,0-0.1,0-0.2,0c0,0,0.1,0,0.1,0c0,0-0.1,0-0.1,0
				c0,0,0.1,0,0.1,0c0,0-0.1,0-0.1-0.1c0,0,0.1,0,0.1,0.1c0,0-0.1,0-0.1-0.1c0,0,0,0.1,0.1,0.1c0,0-0.1-0.1-0.1-0.1c0,0,0,0.1,0,0.1
				c0,0,0-0.1,0-0.1c0,0,0,0.1,0,0.1c0,0,0-0.1,0-0.1c0,0,0,0.1,0,0.1c0,0,0-0.1,0-0.1c0,0,0,0.1,0,0.1c0,0,0-0.1,0.1-0.1
				c0,0,0,0.1-0.1,0.1c0,0,0,0,0,0c0.1-0.1,0.1-0.2,0.1-0.3c0-0.1,0-0.2-0.1-0.3c-0.1-0.1-0.2-0.1-0.3-0.1
				C87.9,74.7,87.8,74.7,87.8,74.8L87.8,74.8z"/>
		</g>
	</g>
	<g>
		<g>
			<path class="st1" d="M89.4,74.9c0.1-0.1,0.1-0.2,0.2-0.3c0,0,0-0.1,0-0.1c0,0,0-0.1,0-0.1c0,0,0-0.1-0.1-0.1c0,0-0.1-0.1-0.1-0.1
				c0,0-0.1,0-0.1,0c-0.1,0-0.1,0-0.2,0c0,0-0.1,0-0.1,0c-0.1,0-0.1,0.1-0.1,0.1c-0.1,0.1-0.1,0.2-0.2,0.3c0,0,0,0.1,0,0.1
				c0,0,0,0.1,0,0.1c0,0,0,0.1,0.1,0.1c0,0,0.1,0.1,0.1,0.1c0,0,0.1,0,0.1,0c0.1,0,0.1,0,0.2,0c0,0,0.1,0,0.1,0
				C89.3,75,89.3,74.9,89.4,74.9L89.4,74.9z"/>
		</g>
	</g>
	<g>
		<g>
			<path class="st1" d="M112.4,76.1c0.1,0,0.1-0.1,0.2-0.1c0,0,0.1-0.1,0.2-0.1c0,0-0.1,0,0,0c0,0,0,0,0,0c0,0,0.1,0,0.1,0
				c0.1,0,0.1,0,0.2,0c0.1,0-0.1,0,0,0c0,0,0.1,0,0.1,0c0,0,0.1,0,0.1,0c0.1,0-0.1,0,0,0c0,0,0.1,0,0.1,0c0.1,0-0.1,0,0,0
				c0,0,0,0,0.1,0c0,0,0,0,0,0c0,0,0,0,0,0c0,0,0,0,0,0c0,0,0,0,0,0c0,0,0-0.1,0,0c0,0,0,0,0,0.1c0,0.1,0-0.1,0,0c0,0,0,0,0,0.1
				c0-0.1,0-0.1,0,0c0,0,0,0,0,0c0,0,0,0.1,0,0c0,0,0,0.1,0,0.1c0-0.1,0-0.1,0,0c0,0,0,0,0,0c0,0,0,0,0,0c0,0,0,0,0,0c0,0,0.1,0,0,0
				c-0.1,0,0,0,0,0c0,0,0,0,0,0c0,0,0,0,0,0c-0.1,0-0.2,0-0.3,0.1c-0.1,0.1-0.1,0.2-0.1,0.3c0,0.2,0.2,0.4,0.4,0.4
				c0.3,0,0.5-0.2,0.6-0.4c0.1-0.2,0.2-0.5,0.1-0.7c-0.1-0.2-0.3-0.4-0.5-0.5c-0.3-0.1-0.5-0.1-0.8-0.1c-0.3,0-0.6,0.2-0.8,0.3
				c-0.2,0.1-0.2,0.3-0.1,0.5C112,76.2,112.2,76.2,112.4,76.1L112.4,76.1z"/>
		</g>
	</g>
	<g>
		<g>
			<path class="st1" d="M91.3,81.9c0.4,1,0.7,2,1.1,3c0.3,0.8,0.9,1.5,1.7,1.9c2,0.8,3.5-1.4,4.6-2.7c-0.4-0.1-0.8-0.1-1.2-0.2
				c1,1.4,2.3,3.9,4.4,3.7c2.1-0.3,3.1-2.8,4.1-4.4c0.5-0.8-0.8-1.6-1.3-0.8c-0.4,0.7-0.8,1.4-1.2,2.1c-0.4,0.6-0.8,1.4-1.5,1.6
				c-0.7,0.2-1.2-0.4-1.6-0.9c-0.5-0.6-1-1.3-1.4-2c-0.3-0.4-0.8-0.6-1.2-0.2c-0.6,0.7-2,3-3.1,2.3c-0.5-0.3-0.7-0.9-0.9-1.4
				c-0.3-0.8-0.6-1.6-0.9-2.4C92.4,80.6,90.9,81,91.3,81.9L91.3,81.9z"/>
		</g>
	</g>
	<g>
		<g>
			<path class="st1" d="M117.8,80.5c3.2-0.7,6.5-1,9.7-0.9c1,0,1-1.5,0-1.5c-3.4-0.1-6.8,0.2-10.1,0.9
				C116.5,79.2,116.9,80.7,117.8,80.5L117.8,80.5z"/>
		</g>
	</g>
	<g>
		<g>
			<path class="st1" d="M119,83.2c2.5,0.3,5,0.7,7.5,1c0.4,0.1,0.8-0.4,0.8-0.8c0-0.4-0.3-0.7-0.8-0.8c-2.5-0.3-5-0.7-7.5-1
				c-0.4-0.1-0.8,0.4-0.8,0.8C118.2,82.9,118.6,83.1,119,83.2L119,83.2z"/>
		</g>
	</g>
	<g>
		<g>
			<path class="st1" d="M83.1,78.7c-3.4-1.4-6.9-2.3-10.6-2.8c-0.1,0.5-0.1,1-0.2,1.5c0.1,0,0.2,0,0.4,0c1,0.1,1-1.4,0-1.5
				c-0.1,0-0.2,0-0.4,0c-0.8-0.1-1,1.3-0.2,1.5c3.6,0.5,7.2,1.5,10.6,2.8c0.4,0.2,0.8-0.2,0.9-0.5C83.8,79.2,83.5,78.9,83.1,78.7
				L83.1,78.7z"/>
		</g>
	</g>
	<g>
		<g>
			<path class="st1" d="M81.6,81.5c-2.1,0.1-4.3,0.1-6.4,0.2c-1,0-1,1.5,0,1.5c2.1-0.1,4.3-0.1,6.4-0.2C82.6,83,82.6,81.5,81.6,81.5
				L81.6,81.5z"/>
		</g>
	</g>
	<path class="st0" d="M63,107.2"/>
</g>
<g>
	<path class="st0" d="M114.6,113.9c0-0.4,0-0.7-0.1-1c-0.3-1.7-0.8-3.3-1.6-4.8c-0.2-0.9-0.4-1.7-0.6-2.6c-0.3-1.1-0.9-2-1.6-2.8
		c-0.3-0.3-0.7-0.7-1-1c-3.5,1.5-7,3.2-10.5,4.9c0,0.5,0.1,1,0.2,1.4c0.7,2.4,2.3,4.7,3.8,6.6c0.2,0.3,0.7,0.2,0.9,0
		c0.9-0.8,0.9-1.9,0.8-3c-0.1-0.7-0.3-1.6-0.3-2.4c1,1.4,1.7,2.9,2.2,4.5c0.1,0.5,0.9,0.7,1.2,0.2c0.7-1.4,1.2-2.9,1.4-4.4
		c0.4,1.2,0.9,2.5,1.3,3.7c0.5,1.3,1.2,3.7,3.1,3.1c0.3-0.1,0.5-0.3,0.5-0.6c0-0.3,0-0.7,0-1C114.4,114.4,114.5,114.1,114.6,113.9z"
		/>
	<path class="st0" d="M99.1,109.3c-0.1,1,0.5,2.1,1.4,2.6c0.1,0.1,0.3,0.1,0.5,0.1c0.1,0.2,0.3,0.3,0.4,0.5c0,0,0,0,0-0.1
		c0.3,0.4,0.6,0.6,1.1,0.6c0.3,0,0.6-0.1,0.8-0.2c0.1,0.1,0.1,0.1,0.2,0.2c0.3,0.2,0.5,0.4,0.9,0.4c0.3,0,0.6-0.1,0.8-0.3
		c0.5-0.4,0.6-1,0.4-1.6c0,0,0-0.1-0.1-0.1c-0.3-0.7-0.4-1.4-0.5-2.1c0-0.3-0.3-0.7-0.6-0.8c-0.3-0.2-0.7-0.2-1-0.1
		c-0.3,0.1-0.6,0.3-0.8,0.6c-0.1,0.2-0.2,0.5-0.2,0.7c-0.3-0.4-0.7-0.8-1-1.2c-0.4-0.4-0.9-0.5-1.4-0.3
		C99.4,108.4,99.1,108.8,99.1,109.3z"/>
	<g>
		<path class="st2" d="M113.5,117C113.5,116.9,113.5,116.9,113.5,117L113.5,117z"/>
		<path class="st2" d="M100.8,115c1.5,3.8,3,7.8,3.1,11.9c0.1,1.8-0.1,3.7-0.7,5.4c-0.6,1.9-1.7,3.4-3,4.9c-2,2.2-4.2,5.4-2.3,8.4
			c1.2,1.9,3.7,2,5.1,0.6c0.5,2.3,1.7,4.7,4.2,5.1c0.3,0,0.6,0,0.7-0.3c1-1.6,2.4-2.8,4-3.7c1.2,2.5,4,4.4,6.7,2.8
			c1.2-0.7,1.9-2,1.8-3.4c0-0.5-0.5-1.7-0.2-2.2c0.3-0.5,2.2-0.1,2.8-0.2c3.1-0.4,5.6-3.2,6.1-6.2c0.6-3.7-1.3-7.4-4-10
			c-1.9-1.8-4-3.3-5.6-5.4c-1.3-1.7-2.3-3.6-3.3-5.5c0,0,0,0,0,0c0,0,0,0,0-0.1c0.1-0.7-0.2-1.4-0.9-1.6c0,0,0,0,0,0
			c-0.2-0.1-0.5-0.1-0.7,0c-0.4-0.3-1.2,0-1,0.7c0.1,0.2,0,0.4-0.1,0.5c-0.1,0-0.1,0.1-0.2,0.1c0.1,0,0.1,0,0.1-0.1c0,0-0.1,0-0.1,0
			c-0.1,0-0.1,0-0.2,0c0,0,0,0-0.1,0c-0.1,0-0.1,0-0.2,0c0,0,0,0,0,0c0,0-0.1,0-0.1-0.1c-0.1,0-0.2-0.1-0.2-0.1c0,0-0.1-0.1-0.1-0.1
			c0,0-0.1-0.1-0.1-0.1c-0.1-0.1-0.1-0.1-0.2-0.2c0,0,0,0,0,0c0-0.1-0.1-0.1-0.1-0.2c-0.1-0.2-0.2-0.3-0.3-0.5
			c0-0.1-0.1-0.2-0.1-0.3c0,0,0,0,0,0c0,0,0,0,0-0.1c-0.1-0.2-0.1-0.4-0.2-0.6c-0.3-1-0.5-1.9-0.9-2.9c-0.2-0.5-0.8-0.7-1.3-0.6
			c-0.5,0.1-1,0.4-1.1,0.9c-0.3,1.3-0.4,2.7-0.3,4.1c-0.8-0.9-1.8-1.8-2.2-2.9c-1-2.8-1.7-2-1.7-1.4c0,0.8,0.5,3.3,0.5,4.1
			c-0.8-0.8-1.7-1.4-2.8-1.8C101.1,114.1,100.6,114.6,100.8,115z"/>
	</g>
	<path class="st3" d="M120.9,136.1c-0.1,0.7-0.2,1.4-0.1,2c0,0.1,0,0.3,0.1,0.4c0.1,0.2,0.3,0.4,0.5,0.6c0.2,0.2,0.4,0.3,0.6,0.4
		c0.2,0.3,0.4,0.6,0.7,0.9c0.4,0.4,1.1,0.1,1.1-0.4c0-0.3,0-0.5-0.1-0.7c0.2-0.2,0.3-0.4,0.4-0.6c0.2-0.7-0.1-1.5-0.7-1.9
		c-0.3-0.2-0.6-0.2-0.9-0.2c-0.2-0.2-0.4-0.5-0.6-0.7C121.7,135.5,121,135.6,120.9,136.1z"/>
	<path class="st3" d="M115.2,143.4C115.1,143.5,115.1,143.5,115.2,143.4c-0.2,0.1-0.3,0.1-0.4,0.2c-0.2,0.1-0.2,0.2-0.3,0.3
		c-0.1,0.1-0.1,0.2-0.2,0.4c0,0.1-0.1,0.2-0.1,0.3c0,0.2,0,0.4,0,0.7c0,0.2,0.1,0.4,0.2,0.5c0.1,0.2,0.3,0.4,0.5,0.5
		c0.1,0,0.1,0.1,0.2,0.1c0.2,0.1,0.3,0,0.5-0.1c0,0,0.1,0,0.1,0c0.1-0.1,0.2-0.1,0.3-0.2c0.2-0.2,0.4-0.5,0.4-0.9
		c0.1-0.1,0.1-0.2,0.1-0.3c0-0.1,0.1-0.1,0.1-0.1c0-0.2,0-0.4,0-0.5c0-0.1,0-0.1,0-0.2c-0.1-0.3-0.3-0.6-0.5-0.7
		C115.7,143.2,115.4,143.2,115.2,143.4z"/>
	<path class="st3" d="M108.3,141.7c0,0-0.1,0-0.1,0.1c-0.1,0.1-0.2,0.2-0.2,0.3c-0.4,0.5-0.7,1.1-0.7,1.8c0,0.2,0.1,0.4,0.2,0.5
		c0.1,0.1,0.4,0.2,0.5,0.1c0,0,0.1,0.1,0.1,0.1c0.2,0,0.3,0,0.5-0.1c0.4-0.2,0.7-0.5,0.8-0.9c0.2-0.2,0.3-0.4,0.5-0.6
		c0.2-0.3,0.1-0.7-0.2-0.9c-0.1-0.1-0.2-0.1-0.4-0.1c0-0.1-0.1-0.3-0.2-0.4c-0.1-0.1-0.3-0.2-0.4-0.2c-0.1,0-0.1,0-0.2,0
		C108.6,141.5,108.5,141.6,108.3,141.7C108.3,141.7,108.3,141.7,108.3,141.7z"/>
	<path class="st3" d="M102.8,138.6c-0.3,0.2-0.5,0.4-0.6,0.8c-0.1,0.2-0.1,0.4,0,0.7c0,0.2,0.1,0.4,0.2,0.5c0.2,0.3,0.5,0.6,0.8,0.8
		c0.1,0.1,0.3,0.1,0.4,0.1c0.2,0,0.3-0.1,0.4-0.2c0.1-0.1,0.1-0.1,0.2-0.2c0.4-0.2,0.7-0.4,1.1-0.6c0.3-0.2,0.4-0.6,0.3-0.9
		c-0.1-0.2-0.2-0.3-0.4-0.3c0-0.1,0.1-0.2,0.1-0.3c0-0.2-0.1-0.4-0.2-0.5c-0.1-0.1-0.3-0.2-0.4-0.2c-0.2,0-0.3,0-0.5,0.1
		c-0.1,0-0.2,0-0.2-0.1C103.4,138.4,103.1,138.5,102.8,138.6z"/>
	<g>
		<g>
			<path class="st1" d="M119,144.9c1.9,3,5.1,3,7.7,0.8c2.5-2.2,3.4-5.1,3.5-8.3c0-3.6-1-7.5-3.8-9.9c-1.4-1.3-3.3-2-4.7-3.2
				c-1.6-1.4-2.5-3.5-3.2-5.4c-2-5.3-3.5-10.7-5.2-16.1c-0.6-1.8-3.5-1.1-2.9,0.8c1.3,4.1,2.5,8.2,3.8,12.3
				c1.2,3.5,2.3,7.4,4.9,10.2c1.2,1.2,2.7,2,4,2.8c1.4,0.9,2.4,2,3.1,3.5c1.1,2.4,1.4,5.9,0.5,8.4c-0.7,1.8-3.4,5.3-5.1,2.7
				C120.6,141.8,118,143.3,119,144.9L119,144.9z"/>
		</g>
	</g>
	<g>
		<g>
			<path class="st1" d="M97.5,109c0.3,3.5,1.4,6.9,2.4,10.3c0.9,3.2,1.9,6.7,1.1,10c-1.3,5.8-7.5,11.2-4.6,17.6
				c0.4,0.8,0.9,1.9,1.7,2.2c0.6,0.2,1.3,0.2,1.9,0.1c1.6-0.2,3.2-0.7,4.4-1.9c-0.8-0.6-1.6-1.2-2.4-1.8c-1.7,3.3-0.1,6.9,3.6,7.7
				c3.6,0.8,6.8-1.6,6.6-5.4c-0.9,0.3-1.9,0.5-2.8,0.8c1.6,2.8,5,5.2,8.4,4c3-1.1,4.7-4.7,3.1-7.6c-0.9-1.7-3.5-0.2-2.6,1.5
				c0.8,1.4-0.5,3.2-2,3.4c-1.8,0.2-3.4-1.3-4.2-2.8c-0.7-1.3-2.9-0.8-2.8,0.8c0.1,0.9-0.1,1.8-0.6,2.2c-0.6,0.4-1.4,0.5-2.1,0.4
				c-1.8-0.3-2.7-1.6-1.8-3.3c0.7-1.5-1.1-3.1-2.4-1.8c-0.6,0.6-1.3,0.8-2.1,1c-0.2,0-0.5,0.1-0.7,0.1c-0.2,0-0.3,0-0.5,0
				c0.5,0.2,0.6,0.1,0.3-0.2c-0.1-0.4-0.4-0.8-0.5-1.3c-0.1-0.3-0.1-0.6-0.2-0.9c-0.1-0.9,0.1-1.8,0.4-2.6c1-3.3,3.1-6.2,4.4-9.4
				c2.9-7.7-2.3-15.1-2.9-22.7C100.4,107.1,97.4,107.1,97.5,109L97.5,109z"/>
		</g>
	</g>
	<g>
		<g>
			<path class="st1" d="M120.4,140.1c0.8,1,2,2.1,3.4,1.6c0.6-0.2,1.2-0.7,1.3-1.4c0.2-0.8-0.2-1.6-0.4-2.3c-0.4-1.2-1-2.7-2.2-3.3
				c-0.6-0.3-1.4-0.3-2,0c-0.6,0.3-1,0.9-1.2,1.5c-0.6,1.6,0.3,3.1,1.2,4.3c0.2,0.3,0.7,0.5,1,0.3c0.3-0.2,0.5-0.7,0.3-1
				c-0.6-0.8-1.3-1.7-1.2-2.7c0,0,0-0.1,0,0c0-0.1,0-0.1,0-0.2c0-0.1,0.1-0.2,0.1-0.3c0,0.1,0.1-0.1,0.1-0.2c0,0,0.1-0.1,0.1-0.1
				c-0.1,0.1,0,0,0-0.1c0,0,0.1-0.1,0.1-0.1c0,0-0.1,0.1,0,0c0,0,0.2-0.1,0.1-0.1c0,0,0.1,0,0.1,0c0,0,0.1,0,0,0c0.1,0,0.1,0,0.2,0
				c0,0,0.1,0,0.1,0c-0.1,0-0.1,0,0,0c0,0,0.1,0,0.1,0c0.1,0-0.1,0,0,0c0.1,0,0.2,0.1,0.2,0.1c0.1,0.1,0.3,0.3,0.4,0.4
				c0.1,0.1,0.2,0.4,0.3,0.5c0.1,0.2,0.2,0.4,0.3,0.6c0.2,0.6,0.4,1.1,0.6,1.7c0.1,0.2,0.1,0.4,0.1,0.6c0,0.2,0,0.1,0,0
				c0,0,0,0.1-0.1,0.1c0.1-0.1,0,0,0,0c-0.2,0.1,0.1,0-0.1,0c0,0-0.1,0.1,0,0c-0.1,0-0.1,0-0.2,0.1c0,0-0.2,0-0.1,0s-0.1,0-0.1,0
				c0,0-0.1,0-0.1,0c0.1,0-0.1,0-0.1,0c-0.1,0-0.1,0-0.2-0.1c-0.5-0.3-0.8-0.7-1.2-1.1c-0.3-0.3-0.8-0.3-1.1,0
				C120.1,139.4,120.2,139.8,120.4,140.1L120.4,140.1z"/>
		</g>
	</g>
	<g>
		<g>
			<path class="st1" d="M113.4,146.2c0.2,1,1.2,1.5,2.1,1.5c0.5,0,1-0.2,1.4-0.5c0.4-0.3,0.6-0.8,0.7-1.3c0.2-1.1-0.1-2.4-1-3.2
				c-0.4-0.4-1-0.7-1.6-0.6c-0.6,0.1-1.1,0.4-1.5,0.8c-0.4,0.6-0.7,1.2-0.6,2c0.1,0.7,0.3,1.4,0.6,2c0.1,0.4,0.5,0.7,0.9,0.5
				c0.3-0.1,0.7-0.5,0.5-0.9c-0.2-0.4-0.4-0.9-0.5-1.4c0-0.1,0-0.1,0-0.2c0,0,0,0.1,0,0c0-0.1,0-0.2,0-0.4c0,0,0-0.1,0-0.1
				c0-0.2,0,0.1,0-0.1c0-0.1,0-0.2,0.1-0.3c0,0,0,0,0,0.1c0,0,0-0.1,0-0.1c0,0,0-0.1,0.1-0.1c0,0,0.1-0.1,0.1-0.1
				c0.1-0.1-0.1,0.1,0,0c0,0,0.1-0.2,0.2-0.2c-0.1,0-0.1,0.1,0,0c0.1,0,0.1-0.1,0.2-0.1c0.1-0.1-0.2,0.1,0,0c0,0,0.1,0,0.1,0
				c0,0,0,0,0.1,0c0.1,0,0.1,0,0,0c0,0,0.1,0,0.1,0c0.2,0-0.1,0,0,0c0,0,0.1,0,0.1,0c0.1,0,0,0,0,0c0.1,0,0.1,0.1,0.2,0.1
				c0.1,0.1-0.1-0.1,0,0c0,0,0.1,0.1,0.1,0.1c0,0,0.1,0.1,0.1,0.1c0,0,0.1,0.1,0,0c0.1,0.2,0.2,0.3,0.3,0.5c0.1,0.1-0.1-0.2,0,0
				c0,0,0,0.1,0,0.1c0,0.1,0.1,0.2,0.1,0.3c0,0,0,0.1,0,0.1c0,0.2,0,0,0,0c0,0,0,0.3,0,0.3c0,0.1,0,0.2,0,0.3c0.1-0.2,0,0,0,0
				c0,0,0,0.1,0,0.1c0,0,0,0.1,0,0.1c0,0.1,0,0,0,0c0,0-0.1,0.2-0.1,0.3c-0.1,0.1,0.1-0.1,0,0c0,0,0,0-0.1,0.1c-0.1,0.1-0.1,0,0,0
				c0,0-0.1,0-0.1,0c0,0-0.1,0-0.1,0.1c-0.1,0-0.1,0,0,0c-0.1,0-0.2,0.1-0.2,0.1c0,0-0.1,0-0.1,0c0.2-0.1,0.1,0,0,0
				c-0.1,0-0.2,0-0.3,0c0.1,0,0.1,0,0.1,0c0,0-0.1,0-0.1,0c0,0-0.1,0-0.1,0c-0.1,0,0.2,0.1,0,0c-0.1,0-0.1-0.1-0.2-0.1
				c0,0,0.1,0.1,0.1,0c0,0-0.1-0.1-0.1-0.1c-0.1-0.1,0.1,0.2,0,0c0,0,0-0.1-0.1-0.1c0.1,0.1,0,0.1,0,0.1c0-0.1,0-0.1,0-0.2
				c-0.1-0.4-0.6-0.6-0.9-0.5C113.5,145.4,113.3,145.8,113.4,146.2L113.4,146.2z"/>
		</g>
	</g>
	<g>
		<g>
			<path class="st1" d="M107.7,146.3c2-0.3,3.6-2.4,3.1-4.4c-0.1-0.5-0.4-1-0.9-1.3c-0.5-0.3-1.1-0.4-1.7-0.2c-1,0.3-1.7,1.2-2,2.2
				c-0.3,1.1,0,2.3,0.7,3.2c0.2,0.3,0.8,0.3,1.1,0c0.3-0.3,0.3-0.7,0-1.1c0.1,0.1,0-0.1-0.1-0.1c0-0.1-0.1-0.1-0.1-0.2
				c0,0,0-0.1-0.1-0.1c0.1,0.1,0,0,0,0c0-0.1-0.1-0.2-0.1-0.3c0-0.1,0-0.2,0-0.2c0,0.2,0,0,0-0.1c0-0.1,0-0.2,0-0.2c0,0,0-0.1,0-0.1
				c0,0,0-0.2,0-0.1c0,0.1,0,0,0-0.1c0,0,0-0.1,0-0.1c0-0.1,0-0.2,0.1-0.2c0,0,0.1-0.3,0-0.1c0-0.1,0.1-0.2,0.1-0.2
				c0-0.1,0.1-0.1,0.1-0.2c0.1-0.1-0.1,0.1,0,0c0,0,0.1-0.1,0.1-0.1c0.1-0.1,0.1-0.1,0.2-0.2c0.1-0.1-0.1,0,0,0c0,0,0.1-0.1,0.1-0.1
				c0,0,0.3-0.1,0.1-0.1c0.1,0,0.2-0.1,0.3-0.1c-0.1,0,0,0,0,0c0,0,0.1,0,0.1,0c-0.1,0-0.1,0,0,0c0.2,0-0.1-0.1,0.1,0
				c0,0,0.1,0,0.1,0.1c0,0-0.1-0.1,0,0c0,0,0.1,0.1,0.1,0.1c0,0-0.1-0.1,0,0c0,0.1,0.1,0.1,0.1,0.2c0,0,0-0.1,0,0c0,0,0,0.1,0,0.1
				c0,0,0,0.1,0,0.1c0,0.1,0-0.1,0,0c0,0.1,0,0.2,0,0.2c0,0.1,0,0.2,0,0.2c0,0.1,0-0.1,0,0c0,0.1,0,0.1,0,0.2c0,0.1,0,0.2-0.1,0.2
				c0,0-0.1,0.3,0,0.1c-0.1,0.2-0.2,0.3-0.3,0.5c0,0,0,0.1-0.1,0.1c0.1-0.1,0,0,0,0c-0.1,0.1-0.1,0.1-0.2,0.2
				c-0.1,0.1-0.1,0.1-0.2,0.2c0.1-0.1,0,0,0,0c-0.1,0-0.1,0.1-0.2,0.1c-0.1,0-0.2,0.1-0.2,0.1c0,0-0.1,0-0.1,0.1c-0.1,0,0.1,0,0,0
				c-0.2,0.1-0.4,0.1-0.6,0.2c-0.4,0.1-0.6,0.6-0.5,0.9C107,146.2,107.3,146.3,107.7,146.3L107.7,146.3z"/>
		</g>
	</g>
	<g>
		<g>
			<path class="st1" d="M102.6,142.8c1-0.2,1.9-0.6,2.7-1.2c0.7-0.6,1.2-1.7,0.8-2.7c-0.4-1-1.3-1.6-2.4-1.7c-1-0.1-2,0.5-2.5,1.4
				c-0.5,1-0.5,2.4,0.1,3.4c0.2,0.3,0.7,0.5,1,0.3c0.3-0.2,0.5-0.7,0.3-1c-0.1-0.1-0.1-0.2-0.1-0.3c0,0,0-0.1,0-0.1c0,0,0,0.1,0,0.1
				c0,0,0-0.1,0-0.1c0-0.1-0.1-0.2-0.1-0.2c0,0,0-0.1,0-0.1c0-0.1,0-0.1,0,0.1c0,0,0-0.1,0-0.1c0-0.2,0-0.3,0-0.5c0-0.2,0,0.2,0,0
				c0,0,0-0.1,0-0.1c0-0.1,0.1-0.2,0.1-0.3c0-0.1,0,0,0,0c0,0,0.1-0.1,0.1-0.1c0-0.1,0.1-0.1,0.1-0.2c0,0,0,0,0,0c0-0.1,0-0.1,0,0
				c0,0,0.1-0.1,0.1-0.1c0,0,0,0,0.1-0.1c0,0,0,0,0.1-0.1c0.1-0.1,0,0,0,0c0,0,0.2-0.1,0.2-0.1c0,0,0.1,0,0.1-0.1
				c-0.1,0.1-0.1,0,0,0c0.1,0,0.1,0,0.2-0.1c0.2,0-0.1,0,0,0c0.1,0,0.1,0,0.2,0c0.1,0,0.2,0,0.2,0c0.2,0-0.2,0,0,0c0,0,0.1,0,0.1,0
				c0.1,0,0.1,0,0.2,0.1c0,0,0,0,0,0c0.1,0,0.1,0-0.1,0c0,0,0.1,0.1,0.1,0.1c0,0,0.2,0.1,0.2,0.1c0,0-0.1-0.1,0,0
				c0,0,0.1,0.1,0.1,0.1c0,0,0.1,0.1,0.1,0.2c-0.1-0.1-0.1-0.1,0,0c0,0,0.1,0.1,0.1,0.1c0,0.1,0,0.1,0,0c0,0,0,0.1,0,0.1
				c0,0,0,0.1,0,0.1c0,0.1,0,0,0,0c0,0,0,0.2,0,0.2c0,0,0,0,0,0c0,0.1,0,0.1,0-0.1c0,0,0,0.1,0,0.2c0,0,0,0.1,0,0.1c0,0.1-0.1,0,0,0
				c0,0-0.1,0.2-0.1,0.2c0,0-0.1,0.1-0.1,0.1c0,0,0.1-0.1,0,0c-0.1,0.1-0.1,0.1-0.2,0.2c0,0-0.1,0.1-0.1,0.1c-0.1,0.1,0.1-0.1,0,0
				c-0.1,0.1-0.2,0.1-0.3,0.2c-0.2,0.1-0.4,0.2-0.6,0.3c0,0,0.2-0.1,0,0c-0.1,0-0.1,0.1-0.2,0.1c-0.1,0-0.2,0.1-0.3,0.1
				c-0.2,0.1-0.4,0.1-0.7,0.2c-0.4,0.1-0.6,0.6-0.5,0.9C101.8,142.7,102.2,142.9,102.6,142.8L102.6,142.8z"/>
		</g>
	</g>
	<g>
		<g>
			<path class="st1" d="M114.1,114.6c-0.5,1-1.7,1.5-2.2,2.6c0.4,0,0.9,0,1.3,0c-2.2-3.8-3.7-8-4.5-12.3c-0.2-0.8-1.6-0.6-1.5,0.2
				c0.5,3.9,0.6,7.8,0.3,11.7c0.5-0.1,0.9-0.3,1.4-0.4c-1.6-2.8-3.2-5.6-4.8-8.3c-0.4-0.6-1.4-0.4-1.4,0.4c0,2.6,0.2,5.2,0.5,7.7
				c0.4-0.2,0.9-0.4,1.3-0.5c-1.2-1.4-2.4-2.8-3.6-4.3c-0.6-0.7-1.7,0.3-1.1,1.1c1.2,1.4,2.4,2.8,3.6,4.3c0.4,0.5,1.4,0.1,1.3-0.5
				c-0.3-2.6-0.5-5.1-0.5-7.7c-0.5,0.1-0.9,0.3-1.4,0.4c1.6,2.8,3.2,5.6,4.8,8.3c0.4,0.7,1.3,0.3,1.4-0.4c0.3-3.9,0.2-7.8-0.3-11.7
				c-0.5,0.1-1,0.1-1.5,0.2c0.8,4.5,2.4,8.7,4.6,12.7c0.3,0.5,1.1,0.5,1.3,0c0.5-1,1.7-1.5,2.2-2.6
				C115.8,114.4,114.5,113.7,114.1,114.6L114.1,114.6z"/>
		</g>
	</g>
</g>
<g>
	<path class="st0" d="M75.8,85.2c-0.1-1.9-1.6-3-3.3-3.4c-2.4-0.6-5.2-0.3-7.6,0.2c-0.3,0.1-0.5,0.5-0.4,0.8
		c0.3,1.1,1.2,1.7,2.2,2.2c0.7,0.3,1.6,0.5,2.2,0.9c-1.7,0.2-3.4,0.1-5-0.2c-0.5-0.1-1,0.4-0.7,0.9c0.9,1.3,1.9,2.4,3.2,3.3
		c-1.3-0.2-2.6-0.4-3.9-0.6c-1.3-0.2-3.8-0.7-4.2,1.2c-0.1,0.3,0,0.6,0.3,0.7c0.3,0.2,0.6,0.4,0.9,0.5c0.1,0.2,0.3,0.4,0.5,0.6
		c0.3,0.2,0.6,0.3,1,0.4c1.6,0.6,3.3,0.9,5,1c0.8,0.3,1.7,0.5,2.6,0.7c1.1,0.3,2.2,0.2,3.2-0.1c0.5-0.1,1.1-0.3,1.6-0.5
		c0.5-0.3,0.5-0.8,0.7-1.3l1.2-3.7C75.4,87.5,75.8,86.3,75.8,85.2z"/>
	<path class="st0" d="M71.3,80.9c-0.9-0.6-2.1-0.6-2.9,0c-0.1,0.1-0.3,0.2-0.4,0.3c-0.2,0-0.4,0.1-0.6,0.1c0,0,0,0,0.1,0
		c-0.5,0.1-0.8,0.2-1.1,0.6c-0.1,0.2-0.2,0.5-0.2,0.8c-0.1,0-0.2,0.1-0.2,0.1c-0.3,0.1-0.6,0.3-0.8,0.6c-0.1,0.3-0.2,0.5-0.2,0.8
		c0.1,0.7,0.6,1.1,1.3,1.1c0,0,0.1,0,0.1,0c0.7,0.1,1.4,0.3,2.1,0.6c0.3,0.1,0.7,0,1-0.1c0.3-0.2,0.5-0.5,0.6-0.8
		c0.1-0.3,0.1-0.7-0.1-1c-0.2-0.2-0.3-0.4-0.6-0.5c0.5-0.1,1-0.2,1.5-0.4c0.5-0.1,0.9-0.6,0.9-1.1C72,81.7,71.8,81.2,71.3,80.9z"/>
	<g>
		<path class="st2" d="M57.7,89.8C57.7,89.9,57.7,89.9,57.7,89.8L57.7,89.8z"/>
		<path class="st2" d="M65.5,79.6c-4.1-0.6-8.3-1.1-12-3c-1.6-0.8-3.1-1.9-4.4-3.2c-1.4-1.4-2.2-3.1-2.8-5c-1-2.8-2.7-6.3-6.3-6.1
			c-2.3,0.1-3.5,2.3-3,4.2c-2.3-0.7-4.9-0.8-6.5,1.2c-0.2,0.2-0.2,0.5-0.1,0.8c0.9,1.7,1.3,3.4,1.3,5.3c-2.8-0.2-5.8,1.4-5.6,4.5
			c0.1,1.4,0.8,2.7,2.1,3.2c0.5,0.2,1.7,0.4,2,0.9c0.3,0.5-1,2-1.2,2.5c-1.1,2.9,0.1,6.5,2.5,8.4c3,2.4,7.2,2.4,10.6,1.3
			c2.5-0.8,4.8-1.9,7.4-2.3c2.1-0.3,4.3-0.3,6.4-0.2c0,0,0,0,0,0c0,0,0,0,0.1,0c0.5,0.4,1.3,0.5,1.8,0c0,0,0,0,0,0
			c0.2-0.1,0.3-0.3,0.3-0.6c0.5-0.2,0.5-1-0.1-1.2c-0.2-0.1-0.4-0.2-0.4-0.3c0-0.1,0-0.1,0-0.2c0,0.1,0,0.1,0,0.1c0,0,0-0.1,0-0.1
			c0-0.1,0-0.1,0.1-0.2c0,0,0,0,0-0.1c0-0.1,0.1-0.1,0.1-0.2c0,0,0,0,0,0c0,0,0.1-0.1,0.1-0.1c0.1,0,0.2-0.1,0.1-0.1
			c0,0,0.1,0,0.1-0.1c0,0,0.1,0,0.1,0c0.1,0,0.2,0,0.3-0.1c0,0,0,0,0.1,0c0.1,0,0.2,0,0.2,0c0.2,0,0.4,0,0.5,0c0.1,0,0.2,0,0.3,0
			c0,0,0,0,0,0c0,0,0,0,0.1,0c0.2,0,0.4,0.1,0.6,0.1c1,0.2,1.9,0.5,2.9,0.6c0.5,0,1-0.4,1.2-0.8c0.2-0.5,0.1-1.1-0.3-1.4
			c-1-0.9-2.2-1.7-3.4-2.3c1.2-0.3,2.4-0.7,3.6-0.5c2.9,0.4,2.6-0.5,2-0.8c-0.7-0.4-3.1-1.2-3.8-1.6c1.1-0.3,2.1-0.9,2.9-1.6
			C66.2,80.4,66,79.7,65.5,79.6z"/>
	</g>
	<path class="st3" d="M37.3,87.1c-0.5-0.4-1.1-0.9-1.8-1c-0.1-0.1-0.2-0.1-0.4-0.1c-0.3,0-0.5,0.1-0.8,0.2c-0.2,0.1-0.5,0.2-0.7,0.4
		c-0.4,0-0.8,0.1-1.1,0.2c-0.5,0.1-0.7,0.9-0.2,1.2c0.2,0.1,0.5,0.2,0.7,0.3c0.1,0.2,0.2,0.4,0.4,0.6c0.5,0.5,1.3,0.6,2,0.3
		c0.3-0.1,0.5-0.4,0.6-0.6c0.3,0,0.6-0.1,0.9-0.2C37.5,88.1,37.7,87.4,37.3,87.1z"/>
	<path class="st3" d="M33.7,78.6C33.7,78.5,33.7,78.5,33.7,78.6c0-0.2,0-0.3,0-0.4c0-0.2,0-0.3-0.1-0.5c-0.1-0.1-0.2-0.2-0.3-0.3
		c-0.1-0.1-0.1-0.2-0.2-0.2c-0.2-0.1-0.4-0.3-0.6-0.3c-0.2-0.1-0.4-0.1-0.5-0.1c-0.2,0-0.4,0.1-0.6,0.2c-0.1,0-0.1,0.1-0.2,0.1
		C31,77.2,31,77.3,31,77.5c0,0,0,0.1,0,0.1c0,0.1,0,0.2,0,0.3c0.1,0.3,0.3,0.6,0.6,0.8c0.1,0.1,0.1,0.2,0.2,0.2c0,0,0.1,0.1,0.1,0.1
		c0.1,0.1,0.3,0.2,0.5,0.2c0.1,0,0.1,0.1,0.2,0.1c0.3,0.1,0.6,0,0.9-0.1C33.7,79.1,33.8,78.8,33.7,78.6z"/>
	<path class="st3" d="M38.5,73.4c0,0,0-0.1,0-0.1c0-0.1-0.1-0.2-0.1-0.4c-0.2-0.6-0.7-1.1-1.2-1.4c-0.2-0.1-0.4-0.1-0.6,0
		c-0.2,0.1-0.3,0.2-0.4,0.4c0,0-0.1,0-0.1,0.1c-0.1,0.1-0.2,0.3-0.2,0.5c0,0.4,0.1,0.8,0.4,1.1c0.1,0.2,0.2,0.5,0.3,0.7
		c0.2,0.3,0.6,0.4,0.9,0.2c0.1-0.1,0.2-0.2,0.2-0.3c0.1,0.1,0.3,0.1,0.4,0c0.2-0.1,0.3-0.1,0.4-0.3c0-0.1,0-0.1,0.1-0.2
		C38.5,73.7,38.5,73.5,38.5,73.4C38.5,73.4,38.5,73.4,38.5,73.4z"/>
	<path class="st3" d="M43.9,70.1c0-0.3-0.1-0.7-0.4-0.9c-0.2-0.2-0.4-0.3-0.6-0.4c-0.2-0.1-0.4-0.1-0.5-0.1c-0.4,0-0.8,0.1-1.1,0.3
		c-0.1,0.1-0.2,0.2-0.3,0.3c-0.1,0.1-0.1,0.3,0,0.4c0,0.1,0,0.2,0.1,0.2c0,0.4,0,0.8,0,1.2c0,0.3,0.3,0.7,0.6,0.6
		c0.2,0,0.4-0.1,0.5-0.2c0.1,0.1,0.2,0.1,0.3,0.2c0.1,0.1,0.3,0.1,0.5,0.1c0.2-0.1,0.3-0.2,0.4-0.3c0.1-0.1,0.2-0.3,0.2-0.5
		c0.1-0.1,0.1-0.1,0.2-0.2C43.8,70.6,43.9,70.3,43.9,70.1z"/>
	<g>
		<g>
			<path class="st1" d="M30.6,81.2c-3.5,0.3-5.5,4-4.6,7.2c1.1,3.7,5,6.1,8.4,7.3c1.8,0.7,3.8,1,5.7,0.8c2.1-0.2,3.7-1.3,5.5-2.3
				c3.9-2.3,8.7-0.9,12.8-0.1c5.5,1.1,10.9,2.2,16.4,3.2c1.9,0.4,2.7-2.5,0.8-2.9c-4.1-0.8-8.2-1.6-12.2-2.4
				c-3.8-0.8-7.7-1.8-11.5-2c-1.8-0.1-3.6,0-5.3,0.5c-1.8,0.6-3.2,1.8-4.9,2.5c-3.1,1.4-6.8-0.1-9.5-1.8c-1.4-0.9-3-2.2-3.3-4
				c-0.2-1.2,0.4-3,1.8-3.1C32.5,84.1,32.5,81.1,30.6,81.2L30.6,81.2z"/>
		</g>
	</g>
	<g>
		<g>
			<path class="st1" d="M79.3,81.8c-2.5-1-5.2-1.7-7.8-2.5c-3.6-1.1-7.3-2.1-10.9-3.1c-2-0.5-4-0.9-5.9-1.7c-2-0.9-3.4-2.3-4.5-4.2
				c-2-3.3-3.5-7.3-7.2-9.1c-2.2-1-5-1-6.7,0.8c-1.6,1.7-1.7,4.1-0.3,5.9c1,1.3,3.3-0.4,2.4-1.8c-1.9-2.8-6.4-3.4-8.7-0.8
				c-2.3,2.6-1.3,7.1,1.8,8.6c0.3-0.9,0.5-1.9,0.8-2.8c-3.2,0-6.9,1.8-7.5,5.3c-0.6,3.1,1.8,6.6,5.1,6.5c1.9,0,1.9-3,0-3
				c-1.6,0-2.6-1.9-2-3.3c0.7-1.8,2.8-2.5,4.5-2.5c1.4,0,2.1-2.1,0.8-2.8c-1.4-0.6-2.2-2.6-1.2-3.9c0.9-1.2,3.2-1.1,4,0.2
				c0.8-0.6,1.6-1.2,2.4-1.8c-0.3-0.4-0.1-1.2,0.2-1.6c0.6-0.8,1.7-0.8,2.6-0.6c1.7,0.4,2.9,1.8,3.8,3.2c1.9,2.9,3,6.3,5.7,8.6
				c2.9,2.5,6.9,3.1,10.5,4c3.2,0.9,6.4,1.8,9.6,2.7c2.7,0.8,5.4,1.5,8,2.5C80.3,85.4,81.1,82.5,79.3,81.8L79.3,81.8z"/>
		</g>
	</g>
	<g>
		<g>
			<path class="st1" d="M34.1,84.7C32.8,85,31.3,85.5,31,87c-0.1,0.8,0.1,1.5,0.8,1.9c0.6,0.4,1.4,0.5,2.1,0.6
				c1.2,0.2,2.6,0.4,3.7-0.3c1.2-0.8,1.4-2.3,0.6-3.4c-1.1-1.5-2.9-1.4-4.5-1.2c-0.4,0.1-0.8,0.3-0.8,0.8c0,0.4,0.3,0.8,0.8,0.8
				c1-0.1,2.2-0.3,3,0.3c0,0,0.1,0.1,0.1,0.1c0,0,0.2,0.2,0.2,0.2c0.1,0.1,0.1,0.2,0.2,0.3c0,0.1,0,0.1,0.1,0.2c0,0.1,0,0.2,0,0.4
				c0,0,0,0.1-0.1,0.1c-0.1,0.1,0,0.1,0,0c0,0.1-0.1,0.1-0.1,0.2c0,0-0.1,0.1,0,0c0.1,0-0.1,0-0.1,0c0,0-0.1,0-0.1,0.1
				c0,0-0.2,0.1-0.1,0c-0.1,0-0.4,0.1-0.6,0.1c0.1,0-0.2,0-0.2,0c-0.1,0-0.2,0-0.3,0c-0.2,0-0.5,0-0.7,0c-0.6-0.1-1.1-0.2-1.7-0.3
				c-0.2-0.1-0.4-0.1-0.6-0.2c0,0-0.1-0.1-0.1-0.1c0,0-0.1-0.1-0.1-0.1c0,0,0-0.1,0-0.2c0-0.1,0-0.1,0-0.2c0-0.1,0,0,0-0.1
				c0.1-0.2,0.2-0.3,0.4-0.4c0.5-0.3,1-0.4,1.6-0.5c0.4-0.1,0.6-0.6,0.5-0.9C34.9,84.8,34.5,84.7,34.1,84.7L34.1,84.7z"/>
		</g>
	</g>
	<g>
		<g>
			<path class="st1" d="M32.2,75.7c-1.1-0.4-2.2,0.5-2.5,1.5c-0.3,1.1,0.3,2.2,1.3,2.7c1,0.5,2.2,0.6,3.2,0.1c1.1-0.6,1.3-2,0.6-3
				c-0.7-1.2-2.2-1.4-3.5-1.6c-0.4,0-0.8,0.4-0.8,0.8c0,0.4,0.3,0.7,0.8,0.8c0.1,0,0.2,0,0.3,0c0,0,0.2,0,0.1,0c0,0,0.1,0,0.1,0
				c0.2,0,0.5,0.1,0.7,0.1c0.1,0,0.2,0.1,0.3,0.1c0,0,0.1,0,0.1,0c-0.1-0.1,0,0,0,0c0.1,0,0.2,0.1,0.3,0.2c0,0,0,0,0,0
				c0.1,0.1,0.1,0,0,0c0,0,0.1,0.1,0.1,0.1c0.1,0.1,0.1,0.1,0.2,0.2c-0.1-0.1-0.1-0.1,0,0c0,0,0,0.1,0.1,0.1c0,0,0,0.1,0.1,0.1
				c0.1,0.1-0.1-0.2,0,0c0,0,0.1,0.3,0.1,0.3c0,0,0-0.2,0-0.1c0,0,0,0.1,0,0.1c0,0,0,0.1,0,0.1c0,0,0-0.2,0-0.1c0,0,0,0.1,0,0.1
				c0,0.1,0,0,0,0c0,0-0.1,0.1-0.1,0.1c-0.1,0.1,0.1-0.1,0,0c0,0-0.1,0.1,0,0.1c0.1-0.1,0,0-0.1,0c0,0-0.1,0-0.1,0.1
				c-0.2,0.1,0.1,0,0,0c-0.1,0-0.2,0.1-0.3,0.1c0,0-0.1,0-0.1,0c0.1,0,0.1,0,0,0c0,0-0.1,0-0.1,0c-0.1,0-0.2,0-0.2,0
				c-0.1,0-0.2,0-0.3,0c0,0,0.1,0,0.1,0c0,0-0.1,0-0.1,0c0,0-0.1,0-0.1,0c-0.1,0-0.2-0.1-0.3-0.1c0,0-0.1,0-0.1,0
				c-0.2-0.1,0.1,0.1,0,0c-0.1,0-0.2-0.1-0.2-0.1c0,0-0.1,0-0.1-0.1c0,0,0,0,0,0c-0.1,0-0.1,0,0,0c-0.1,0-0.1-0.1-0.2-0.2
				c0,0-0.1-0.1-0.1-0.1c0,0,0.1,0.2,0,0c0-0.1-0.1-0.1-0.1-0.2c-0.1-0.1,0,0.1,0,0c0,0,0-0.1,0-0.1c0,0,0-0.2,0,0
				c0,0.1,0-0.1,0-0.1c0,0,0-0.1,0-0.1c0-0.1,0,0.2,0,0c0,0,0-0.1,0-0.1c0,0,0,0,0-0.1c0-0.1,0,0,0,0.1c0,0,0.1-0.2,0.1-0.3
				c0.1-0.1,0,0,0,0c0,0,0.1-0.1,0.1-0.1c0,0,0.1-0.1,0.1-0.1c-0.1,0.1-0.1,0.1,0,0c0,0,0,0,0,0c0,0,0.1-0.1,0.1-0.1
				c-0.1,0-0.1,0.1-0.1,0c0,0,0,0,0.1,0c0,0,0.1,0,0.1,0c0.1,0,0,0-0.1,0c0,0,0.1,0,0.1,0c0.1,0,0,0-0.1,0c0,0,0.1,0,0.2,0
				c0.4,0.1,0.8-0.1,0.9-0.5C32.8,76.2,32.6,75.8,32.2,75.7L32.2,75.7z"/>
		</g>
	</g>
	<g>
		<g>
			<path class="st1" d="M34.8,70.7c-0.7,1.8,0.4,4.3,2.3,4.8c0.6,0.2,1.2,0.1,1.7-0.2c0.5-0.3,0.8-0.8,0.9-1.3c0.2-1-0.2-2.1-1-2.8
				c-0.8-0.8-2-1.2-3.1-1c-0.4,0.1-0.6,0.6-0.5,0.9c0.1,0.4,0.5,0.6,0.9,0.5c0.2,0-0.2,0,0,0c0,0,0.1,0,0.1,0c0.1,0,0.2,0,0.3,0
				c0,0,0.1,0,0.1,0c0.1,0,0.1,0.1,0,0c0.1,0,0.2,0,0.3,0.1c0.1,0,0.1,0,0.2,0.1c0.1,0,0.2,0.1,0,0c0,0,0.1,0,0.1,0
				c0.1,0,0.2,0.1,0.2,0.1c0.1,0,0.2,0.1,0.3,0.2c0,0-0.1-0.1,0,0c0,0,0.1,0.1,0.1,0.1c0.1,0.1,0.1,0.1,0.2,0.2c0,0,0.1,0.1,0.1,0.1
				c0.1,0.1,0,0,0,0c0.1,0.1,0.1,0.2,0.2,0.3c0,0.1,0.1,0.1,0.1,0.2c0.1,0.1,0,0,0,0c0,0,0,0.1,0.1,0.1c0,0.1,0,0.1,0.1,0.2
				c0,0,0,0,0,0c0,0.1,0,0.1,0,0c0,0,0,0.1,0,0.2c0,0.1,0,0.2,0,0.3c0-0.1,0-0.1,0,0c0,0,0,0.1,0,0.1c0,0,0,0.1,0,0.1
				c0,0.2,0.1-0.1,0,0c0,0,0,0.1-0.1,0.1c0,0.1,0,0.1,0,0c0,0,0,0-0.1,0.1c0,0-0.1,0.1-0.1,0.1c0.1-0.1,0.1,0,0,0c0,0,0,0,0,0
				c-0.1,0-0.1,0,0,0c0,0-0.1,0-0.1,0c0,0,0,0-0.1,0c-0.1,0-0.1,0,0,0c0,0-0.1,0-0.1,0c0,0-0.1,0-0.1,0c-0.1,0,0,0,0.1,0
				c0,0-0.1,0-0.1,0c-0.1,0-0.2-0.1-0.2-0.1c-0.1,0,0.2,0.1,0,0c0,0-0.1,0-0.1-0.1c-0.1,0-0.1-0.1-0.2-0.1c-0.1-0.1,0.1,0.1,0,0
				c0,0-0.1-0.1-0.1-0.1c-0.1-0.1-0.1-0.1-0.2-0.2c0,0,0-0.1-0.1-0.1c-0.1-0.1,0.1,0.1,0,0c-0.1-0.1-0.2-0.3-0.3-0.4
				c0,0-0.1-0.1-0.1-0.1c0,0,0,0.1,0,0.1c0,0,0-0.1,0-0.1c0-0.1-0.1-0.2-0.1-0.3c0-0.1,0-0.2-0.1-0.3c0,0,0,0,0-0.1c0-0.1,0-0.1,0,0
				c0,0,0-0.1,0-0.2c0-0.1,0-0.2,0-0.3c0,0,0-0.1,0-0.1c0,0,0-0.1,0-0.1c0-0.1,0,0,0,0.1c0-0.1,0-0.2,0.1-0.3c0-0.1,0.1-0.2,0.1-0.3
				c0.1-0.4-0.2-0.8-0.5-0.9C35.3,70,35,70.3,34.8,70.7L34.8,70.7z"/>
		</g>
	</g>
	<g>
		<g>
			<path class="st1" d="M40.3,67.8c-0.5,1.7-0.6,4.2,1.4,4.9c1,0.3,2.1-0.1,2.7-0.9c0.4-0.4,0.6-0.9,0.6-1.5c0-0.5-0.1-1.1-0.4-1.5
				c-0.6-1-1.8-1.7-3-1.6c-0.4,0-0.8,0.3-0.8,0.8c0,0.4,0.3,0.8,0.8,0.8c0.1,0,0.2,0,0.3,0c0,0,0.1,0,0.2,0c0,0-0.2,0,0,0
				c0.1,0,0.2,0,0.3,0.1c0,0,0.1,0,0.1,0c0,0,0.1,0,0.1,0c0.1,0,0.1,0,0,0c0,0,0.4,0.2,0.5,0.3c0,0-0.1-0.1,0,0c0,0,0.1,0.1,0.1,0.1
				c0.1,0.1,0.1,0.1,0.2,0.2c0.1,0.1-0.1-0.1,0,0c0,0,0,0.1,0.1,0.1c0,0.1,0.1,0.2,0.1,0.2c0.1,0.2,0-0.2,0,0c0,0,0,0.1,0,0.1
				c0,0.1,0,0.1,0,0.2c0,0.1,0-0.2,0,0c0,0.1,0,0.2,0,0.3c0,0.2,0-0.1,0,0c0,0,0,0.1,0,0.2c0,0,0,0.1,0,0.1c0,0,0,0,0,0
				c0,0.1,0,0.1,0,0c0,0.1-0.1,0.2-0.1,0.2c0,0,0,0.1-0.1,0.1c0.1,0,0.1-0.1,0,0c-0.1,0.1-0.1,0.1-0.2,0.2c0,0-0.1,0.1-0.1,0.1
				c0,0,0.1-0.1,0,0c-0.1,0.1-0.2,0.1-0.3,0.2c0,0-0.2,0,0,0c0.1,0,0,0-0.1,0c0,0-0.2,0.1-0.2,0.1c0,0,0.2,0,0.1,0c0,0-0.1,0-0.1,0
				c0,0-0.1,0-0.1,0c0.1,0,0.1,0,0.1,0c0,0,0,0-0.1,0c0,0-0.1,0-0.1,0c-0.1,0,0,0,0,0c0,0-0.2-0.1-0.2-0.1c-0.1-0.1,0,0,0,0
				c0,0-0.1-0.1-0.1-0.1c0,0-0.1-0.1-0.1-0.1c0,0,0,0,0,0c-0.1-0.1,0,0,0,0c0,0-0.1-0.2-0.1-0.2c0,0,0-0.1,0-0.1c-0.1-0.1,0,0,0,0
				c0,0-0.1-0.2-0.1-0.2c0-0.1,0-0.2-0.1-0.3c0,0,0-0.1,0-0.1c0,0.1,0,0.1,0,0.1c0,0,0,0,0-0.1c0-0.1,0-0.2,0-0.3c0-0.2,0-0.4,0-0.6
				c0-0.1,0-0.1,0,0c0,0,0-0.1,0-0.2c0-0.1,0-0.2,0.1-0.3c0-0.2,0.1-0.4,0.2-0.6c0.1-0.4-0.1-0.8-0.5-0.9
				C40.8,67.2,40.4,67.4,40.3,67.8L40.3,67.8z"/>
		</g>
	</g>
	<g>
		<g>
			<path class="st1" d="M59.5,91.5c-0.7-0.9-0.5-2.2-1.2-3.2c-0.2,0.4-0.4,0.8-0.6,1.1c4.4-0.1,8.8,0.6,12.9,2
				c0.9,0.3,1.3-1.1,0.4-1.4c-3.6-1.4-7-3.2-10.3-5.3c-0.1,0.5-0.3,0.9-0.4,1.4c3.2-0.1,6.4-0.1,9.6-0.2c0.7,0,1.1-1,0.4-1.4
				c-2.3-1.2-4.7-2.3-7.2-3.3c0,0.5,0,1,0,1.4c1.8-0.4,3.6-0.7,5.5-1.1c0.9-0.2,0.5-1.6-0.4-1.4c-1.8,0.4-3.6,0.7-5.5,1.1
				c-0.8,0.2-0.6,1.2,0,1.4c2.3,0.9,4.6,2,6.8,3.2c0.1-0.5,0.3-0.9,0.4-1.4c-3.2,0.1-6.4,0.1-9.6,0.2c-0.8,0-1,1-0.4,1.4
				c3.4,2.2,6.9,4,10.6,5.5c0.1-0.5,0.3-1,0.4-1.4c-4.3-1.4-8.8-2.1-13.3-2.1c-0.5,0-1,0.7-0.6,1.1c0.7,0.9,0.5,2.2,1.2,3.2
				C58.8,93,60.1,92.3,59.5,91.5L59.5,91.5z"/>
		</g>
	</g>
</g>
<g>
	<path class="st2" d="M68.6,116.1c-0.7,0.2-1.4,0.2-2.1,0.2c0.3-1.1,0.5-2.1,0.6-3.2c0.1-0.8-0.5-2-1.6-1.6c-0.7,0.3-1.3,0.5-2,0.8
		c-0.1,0-0.7,0.2-1.2,0.4c0-0.3,0.1-0.6,0.2-1c0.1-0.8,1-1.8,1.1-2.7c0.2-1.1-1.6-1.7-2.7-1.2c-2.4,1.2-4.8,2.2-7.3,3
		c-2.4,0.8-4.9,1.1-7.3,2c-2,0.7-3.8,2.3-4,4.5c-0.1,1.4,0.5,2.6,1.6,3.3c-0.4,0.3-0.8,0.6-1,0.8c-0.9,1-1.6,2.2-1.3,3.5
		c0.2,1.2,1.1,2,2.1,2.5c0.9,0.4,2.3,0.7,3.3,0.5c-0.2,0.3-0.3,0.5-0.4,0.8c-0.4,0.6-0.8,1.2-1.2,1.8c-0.6,1.2-0.9,2.5-0.4,3.8
		c1.1,2.7,4.6,2.3,6.2,0.4c0.1-0.2,0.3-0.4,0.5-0.7c0,0.1,0.1,0.3,0.1,0.4c0.6,1.5,1.5,2.9,2.7,4.1c0.6,0.5,1.7,0.5,2-0.3
		c1.7-3.7,3.2-7.5,5.2-11.1c1.9-3.5,5.1-6.1,7.9-8.9C70.8,117.3,69.8,115.8,68.6,116.1z"/>
	<path class="st0" d="M75.1,109.6c-1.5-1.3-3.3-2.6-4.4-4.3c-0.3-0.4-0.5-1-0.9-1.4c-0.6-0.6-1.4-0.7-2.1-0.2
		c-0.4,0.3-0.6,0.8-0.9,1.2c-0.2,0.3-0.6,0.6-0.9,0.9c-0.8,0.7-1.6,1.4-2,2.4c-0.2,0.5-0.4,1.1-0.6,1.6c-0.1,0.3-0.2,0.7-0.4,0.8
		c-1.2,0.8-0.5,2.8,1,2.3c1.2-0.4,2.5-0.7,3.8-1c0.7-0.1,1.1-0.9,0.9-1.6c-0.2-0.7-0.9-1-1.6-0.9c-0.3,0.1-0.6,0.1-1,0.2
		c0.1-0.3,0.2-0.6,0.4-0.9c0.4-0.5,1-1,1.5-1.4c0.2-0.2,0.4-0.4,0.6-0.6c0.2,0.2,0.3,0.4,0.5,0.6c0.4,0.5,0.9,1.1,1.4,1.5
		c0.5,0.5,1,0.9,1.5,1.3c0.3,0.2,0.6,0.5,0.8,0.7c0.1,0.1,0.1,0.1,0.2,0.2c-0.1,0.1-0.2,0.2-0.3,0.3c-0.4,0.4-0.7,0.8-1.1,1.3
		c-0.3,0.4-0.6,0.8-0.9,1.2c0,0,0,0,0,0c-0.3-0.2-0.6-0.3-1-0.4c0-0.1,0-0.2-0.1-0.3c-0.3-1.2-2.2-1.3-2.5,0c-0.1,0.5-0.2,1-0.3,1.6
		c0,0,0,0,0,0.1c-0.6,1.2,0.9,2.6,2,1.5c0,0,0.2-0.1,0.3-0.2c0,0.1,0,0.1,0.1,0.2c0.2,0.3,0.5,0.6,0.9,0.7c1.4,0.4,2.1-0.9,2.8-1.9
		c0.6-0.9,1.2-1.7,1.9-2.4c0.4-0.4,0.9-0.8,1-1.4C76.1,110.7,75.7,110.1,75.1,109.6z"/>
	<g>
		<g>
			<path class="st1" d="M75.2,95.5c-3.9,3-7.8,6-11.7,9c-1.7,1.3-3.4,2.7-5.3,3.8c-2.1,1.1-4.5,1.4-6.8,1.7
				c-3.7,0.4-7.8,1.1-10.2,4.3c-2,2.6-2.2,7.3,1.6,8.4c-0.1-0.9-0.2-1.8-0.4-2.7c-2.4,1.7-3.5,4.9-2.1,7.6c1.3,2.6,4.6,3.8,7.3,2.8
				c-0.4-0.9-0.8-1.8-1.2-2.7c-3.8,2.3-5.1,7.8-1.1,10.6c1.7,1.2,3.9,1.3,5.6,0c1.7-1.2,2.5-3.4,1.9-5.4c-0.5-1.6-2.9-1.3-2.9,0.4
				c0,3.3,1.7,7.4,5.6,7.3c3.3-0.1,4.3-3.3,4.7-6c0.2-1.5,0.4-3,1.1-4.4c0.9-1.6,2.1-2.8,3.4-4c3.2-3,6.5-6,9.8-9
				c3.8-3.5,7.6-7,11.4-10.5c1.4-1.3-0.7-3.4-2.1-2.1c-7.3,6.7-14.8,13.2-21.9,20.2c-1.4,1.4-2.7,2.9-3.5,4.6
				c-0.7,1.6-0.9,3.2-1.1,4.9c-0.2,1.1-0.3,3-1.6,3.3c-2.3,0.6-2.8-2.7-2.8-4.2c-1,0.1-2,0.3-2.9,0.4c0.3,0.8,0,1.7-0.8,2.2
				c-0.9,0.6-1.9,0.2-2.5-0.4c-1.7-1.7-0.5-4.2,1.3-5.3c1.4-0.8,0.5-3.4-1.2-2.7c-1.3,0.5-3,0.2-3.7-1.1c-0.7-1.2-0.3-2.9,0.9-3.7
				c1-0.7,0.9-2.4-0.4-2.7c-1.2-0.4-0.9-2.2-0.5-3c0.7-1.3,2.1-2.2,3.4-2.7c3.4-1.4,7.3-0.9,10.7-2.1c3.6-1.2,6.5-3.8,9.4-6
				c3.4-2.6,6.7-5.2,10.1-7.8c0.6-0.5,1-1.3,0.5-2.1C76.9,95.4,75.8,95,75.2,95.5L75.2,95.5z"/>
		</g>
	</g>
	<g>
		<g>
			<path class="st1" d="M59.6,110c1.4-0.4,2.8-0.5,4.2-0.4c-0.2-0.4-0.4-0.8-0.6-1.1c-0.9,1.9-1.8,3.8-2.6,5.7
				c-0.3,0.6,0.2,1.2,0.8,1.1c1.2-0.3,2.2-1.1,3.2-1.8c0.9-0.6,2.1-1.2,3.2-0.9c-0.2-0.3-0.3-0.6-0.5-0.9c-0.8,1.8-1.6,3.6-2.2,5.5
				c-0.1,0.4,0.2,1,0.7,0.9c1.9-0.2,4-0.3,5.9-0.9c0.9-0.3,0.5-1.8-0.4-1.4c-1.7,0.6-3.7,0.7-5.5,0.9c0.2,0.3,0.5,0.6,0.7,0.9
				c0.6-1.9,1.5-3.7,2.2-5.5c0.2-0.4-0.2-0.8-0.5-0.9c-1.3-0.4-2.7,0-3.8,0.7c-1.2,0.7-2.1,1.7-3.5,2c0.3,0.4,0.6,0.7,0.8,1.1
				c0.9-1.9,1.8-3.8,2.6-5.7c0.2-0.5-0.1-1.1-0.6-1.1c-1.5-0.1-3.1,0-4.6,0.4C58.3,108.8,58.7,110.2,59.6,110L59.6,110z"/>
		</g>
	</g>
	<path class="st0" d="M76,111.4c-0.5,0.4-1,0.9-1.5,1.3c-1,0.9-2,1.9-3.2,2.7c-1.1,0.7-2.2,0.5-3.3,0.2c0.6-1.7,0.8-3.8-1.1-4.6
		c-0.7-0.3-1.6-0.2-2.2,0.2c-0.4,0.3-0.8,0.7-1.2,1.1c0-1.3,0-2.7,0-4c0.1,0,0.3-0.1,0.4-0.2c0.1-0.1,0.1-0.2,0.1-0.3
		c0.4-0.1,0.9-0.1,1.1-0.2c0.5-0.2,1-0.4,1.5-0.6c0.9-0.4,1.8-1,2.5-1.7c0.4-0.4,0.7-0.8,1.1-1.2c0.3-0.3,0.3-0.3,0.7,0l0.8,0.7
		c1,0.9,2.1,1.8,3.1,2.7c0.5,0.4,1,0.9,1.5,1.3l0.8,0.7c0.1,0.1,0.6,0.4,0.6,0.5C77.6,110.2,76.1,111.3,76,111.4z"/>
</g>
<g>
	<path class="st2" d="M85.5,117.7c0.2,0.7,0.5,1.3,0.9,2c0.8-0.8,1.6-1.5,2.5-2.1c0.7-0.5,2-0.5,2.2,0.6c0.1,0.7,0.2,1.4,0.3,2.1
		c0,0.1,0.2,0.7,0.3,1.2c0.3-0.2,0.5-0.4,0.8-0.6c0.6-0.5,1.1-1.8,1.7-2.3c0.9-0.7,2.3,0.5,2.4,1.7c0.1,2.6,0.5,5.3,1,7.8
		c0.5,2.5,1.5,4.8,1.8,7.3c0.3,2.1-0.1,4.5-2,5.7c-1.1,0.8-2.5,0.8-3.6,0.3c-0.1,0.5-0.1,1-0.2,1.3c-0.4,1.3-1.1,2.4-2.4,2.9
		c-1.1,0.4-2.3,0.1-3.2-0.6c-0.8-0.6-1.8-1.7-2-2.7c-0.1,0.3-0.3,0.5-0.5,0.8c-0.3,0.6-0.6,1.3-1,1.9c-0.7,1.1-1.8,2-3.1,2.2
		c-2.9,0.4-4.3-2.8-3.4-5.2c0.1-0.2,0.2-0.5,0.3-0.8c-0.2,0-0.3,0.1-0.5,0.1c-1.6,0.2-3.3,0.1-4.9-0.4c-0.7-0.2-1.3-1.2-0.8-1.9
		c2.4-3.3,5-6.5,7.1-10c2.1-3.4,2.8-7.5,3.9-11.3C83.3,116.4,85.1,116.5,85.5,117.7z"/>
	<path class="st0" d="M87.9,108.8c1.9,0.7,3.8,1.6,5.9,1.7c0.5,0,1.1,0,1.7,0.1c0.8,0.2,1.3,0.9,1.2,1.7c-0.1,0.5-0.4,0.9-0.6,1.3
		c-0.1,0.3-0.2,0.8-0.3,1.2c-0.2,1-0.5,2.1-1.1,2.9c-0.3,0.5-0.7,0.9-1.1,1.3c-0.2,0.3-0.5,0.5-0.5,0.7c-0.1,1.4-2.2,1.8-2.5,0.3
		c-0.3-1.3-0.6-2.5-1-3.8c-0.2-0.7,0.3-1.4,0.9-1.6c0.7-0.2,1.3,0.3,1.6,0.9c0.1,0.3,0.2,0.6,0.3,0.9c0.2-0.2,0.4-0.5,0.6-0.8
		c0.3-0.5,0.4-1.3,0.5-2c0.1-0.3,0.2-0.6,0.3-0.8c-0.3,0-0.5-0.1-0.8-0.1c-0.7-0.1-1.4-0.3-2-0.5c-0.6-0.2-1.3-0.4-1.9-0.6
		c-0.3-0.1-0.7-0.3-1-0.4c-0.1,0-0.2-0.1-0.2-0.1c0,0.1-0.1,0.3-0.1,0.4c-0.2,0.5-0.4,1-0.6,1.6c-0.2,0.5-0.4,0.9-0.7,1.4
		c0,0,0,0,0,0c0.3,0.1,0.6,0.4,0.8,0.6c0.1,0,0.2-0.1,0.3-0.1c1.2-0.3,2.2,1.3,1.2,2.2c-0.4,0.3-0.8,0.7-1.2,1c0,0,0,0-0.1,0
		c-0.7,1.1-2.7,0.5-2.3-1c0,0,0-0.2,0-0.3c-0.1,0-0.1,0-0.2,0c-0.4,0-0.8-0.2-1-0.5c-1-1-0.3-2.3,0.3-3.3c0.5-0.9,0.9-1.9,1.2-2.9
		c0.2-0.6,0.3-1.1,0.7-1.6C86.5,108.5,87.2,108.6,87.9,108.8z"/>
	<g>
		<g>
			<path class="st1" d="M96.2,107.7c-0.3,2.3-0.6,4.6-0.9,6.9c-0.5,3.6-1.3,7.3-0.6,11c0.7,3.5,2.8,6.5,3.4,9.9
				c0.2,1.4,0.2,3-0.4,4.4c-0.5,0.9-2,2.4-3,1.4c-1-1-2.4-0.2-2.6,1.1c-0.1,1.4-1.4,2.6-2.8,2.6c-1.5,0-2.6-1.3-2.8-2.7
				c-0.3-1.7-2.9-1.2-2.9,0.4c-0.1,2.1-1.7,4.5-4.1,3.6c-1.8-0.6-2-3.3,0.1-3.7c-0.4-0.9-0.8-1.8-1.2-2.7c-1.3,0.7-4.2,1.8-5-0.2
				c-0.5-1.3,1.2-2.5,2.1-3.2c1.4-1.1,2.7-2.1,3.8-3.5c1.1-1.6,1.8-3.5,2.2-5.4c1.8-7.1,3.7-14.3,5.4-21.4c0.4-1.9-2.5-2.7-2.9-0.8
				c-1.5,6.3-3.3,12.6-4.8,19c-0.8,3.4-1.5,6.7-4.4,9c-2.1,1.7-5,3.6-4.4,6.7c0.3,1.8,1.7,3.1,3.4,3.6c2.1,0.7,4.3-0.1,6.1-1.1
				c1.5-0.9,0.5-3.1-1.2-2.7c-1.9,0.4-3.4,2.1-3.7,4c-0.3,2.1,0.7,4.1,2.6,5.1c4.4,2.3,8.7-1.7,8.9-6.1c-1,0.1-2,0.3-2.9,0.4
				c0.4,2.8,3.1,5.1,6,4.9c3-0.2,5.2-2.7,5.5-5.6c-0.9,0.4-1.7,0.7-2.6,1.1c2.8,2.7,6.8,0.3,8.1-2.7c1.5-3.7,0.2-7.5-1.3-11
				c-0.8-2-1.7-4-1.9-6.2c-0.2-2.3,0.3-4.6,0.6-6.9c0.4-2.7,0.7-5.5,1.1-8.2c0.1-0.8-0.2-1.6-1-1.8
				C97.3,106.5,96.3,106.9,96.2,107.7L96.2,107.7z"/>
		</g>
	</g>
	<g>
		<g>
			<path class="st1" d="M96.6,122.1c-0.4-1.5-1-2.9-1.9-4.2c-0.3-0.5-1-0.5-1.3,0c-1.2,1.7-2.5,3.4-3.7,5.1c0.5,0.1,0.9,0.1,1.4,0.2
				c-0.4-1.4,0.1-2.9,0-4.4c-0.1-1.2-0.4-2.4-1.3-3.2c-0.3-0.3-0.8-0.3-1.1,0c-1.2,1.6-2.3,3.2-3.7,4.6c0.4,0.1,0.8,0.1,1.2,0.2
				c-0.8-1.7-1.6-3.4-1.9-5.2c-0.2-0.9-1.6-0.5-1.4,0.4c0.3,1.9,1.3,3.8,2.1,5.6c0.2,0.4,0.9,0.5,1.2,0.2c1.4-1.4,2.5-3.1,3.7-4.6
				c-0.4,0-0.7,0-1.1,0c0.8,0.7,0.9,1.9,0.8,2.8c-0.1,1.4-0.4,2.7,0,4.1c0.2,0.7,1,0.7,1.4,0.2c1.2-1.7,2.5-3.4,3.7-5.1
				c-0.4,0-0.9,0-1.3,0c0.8,1.2,1.4,2.4,1.7,3.8C95.4,123.5,96.9,123.1,96.6,122.1L96.6,122.1z"/>
		</g>
	</g>
	<path class="st0" d="M85.9,109c-0.1,0.7-0.3,1.3-0.4,2c-0.3,1.3-0.7,2.7-0.8,4.1c-0.1,1.3,0.7,2.2,1.5,3c1.2-1.3,2.9-2.6,4.6-1.3
		c0.7,0.5,0.9,1.3,0.9,2c0,0.5-0.2,1.1-0.3,1.6c1.2-0.6,2.3-1.3,3.5-1.9c0-0.1,0-0.3,0-0.4c0-0.1,0.1-0.2,0.2-0.3
		c-0.1-0.4-0.3-0.9-0.4-1.1c-0.1-0.5-0.2-1.1-0.2-1.6c-0.1-1,0-2,0.3-3c0.1-0.5,0.4-1,0.5-1.5c0.1-0.4,0.1-0.4-0.4-0.6l-1-0.4
		c-1.3-0.5-2.6-0.9-3.9-1.4c-0.6-0.2-1.2-0.4-1.9-0.7l-1-0.4c-0.2-0.1-0.7-0.3-0.8-0.3C86.2,106.9,85.9,108.8,85.9,109z"/>
</g>
<g>
	<path class="st2" d="M127.3,117c0.7,0.3,1.3,0.5,2,0.7c0-1.1,0-2.2,0.1-3.3c0.1-0.9,1-1.8,1.9-1.2c0.6,0.4,1.2,0.8,1.8,1.2
		c0.1,0.1,0.7,0.4,1.1,0.6c0-0.3,0-0.6,0.1-1c0.1-0.8-0.6-2-0.5-2.8c0.1-1.1,1.9-1.4,2.9-0.6c2.1,1.7,4.2,3.2,6.5,4.5
		c2.2,1.3,4.6,2.1,6.7,3.5c1.7,1.1,3.2,3.1,2.9,5.3c-0.2,1.3-1.1,2.4-2.2,2.9c0.3,0.4,0.6,0.8,0.8,1c0.7,1.1,1.1,2.5,0.5,3.7
		c-0.5,1.1-1.5,1.8-2.6,2c-0.9,0.2-2.4,0.2-3.3-0.3c0.1,0.3,0.1,0.6,0.2,0.9c0.2,0.7,0.6,1.3,0.7,2c0.3,1.2,0.3,2.7-0.4,3.8
		c-1.6,2.4-5,1.3-6.1-1c-0.1-0.2-0.2-0.5-0.4-0.8c-0.1,0.1-0.1,0.3-0.2,0.4c-0.9,1.4-2.1,2.5-3.5,3.4c-0.6,0.4-1.7,0.2-1.9-0.7
		c-0.9-4-1.5-8.1-2.7-12c-1.1-3.8-3.7-7.1-5.8-10.4C124.9,117.7,126.2,116.4,127.3,117z"/>
	<path class="st0" d="M122.3,109.2c1.8-0.9,3.7-1.8,5.2-3.2c0.4-0.4,0.7-0.9,1.2-1.2c0.7-0.5,1.5-0.3,2.1,0.3
		c0.4,0.4,0.4,0.9,0.6,1.3c0.1,0.3,0.4,0.7,0.7,1c0.6,0.9,1.2,1.7,1.4,2.8c0.1,0.6,0.1,1.1,0.2,1.7c0,0.3,0.1,0.7,0.2,0.8
		c1,1-0.1,2.8-1.5,2.1c-1.1-0.6-2.3-1.2-3.5-1.8c-0.6-0.3-0.8-1.1-0.5-1.7c0.3-0.6,1.1-0.8,1.7-0.5c0.3,0.1,0.6,0.3,0.9,0.4
		c0-0.3-0.1-0.6-0.2-1c-0.2-0.6-0.7-1.2-1.1-1.7c-0.2-0.2-0.3-0.5-0.5-0.8c-0.2,0.2-0.4,0.4-0.6,0.5c-0.5,0.4-1.1,0.8-1.7,1.2
		c-0.6,0.4-1.2,0.7-1.8,1c-0.3,0.2-0.6,0.3-1,0.5c-0.1,0-0.2,0.1-0.2,0.1c0.1,0.1,0.2,0.2,0.2,0.4c0.3,0.5,0.5,1,0.8,1.5
		c0.2,0.5,0.4,0.9,0.6,1.4c0,0,0,0,0,0c0.3-0.1,0.7-0.2,1-0.2c0-0.1,0.1-0.2,0.1-0.3c0.5-1.1,2.5-0.7,2.4,0.5c0,0.5,0,1.1,0,1.6
		c0,0,0,0,0,0.1c0.4,1.3-1.4,2.4-2.3,1.1c0,0-0.1-0.1-0.2-0.3c0,0.1-0.1,0.1-0.1,0.2c-0.3,0.3-0.7,0.4-1.1,0.5
		c-1.4,0.1-1.9-1.4-2.3-2.4c-0.4-1-0.8-1.9-1.4-2.8c-0.3-0.5-0.7-1-0.7-1.6C121.1,110.1,121.7,109.6,122.3,109.2z"/>
	<g>
		<g>
			<path class="st1" d="M123.2,97.6c2.7,3.3,5.5,6.5,8.2,9.8c2.4,2.9,4.7,6.1,8,8c3.1,1.7,6.7,2.2,9.7,4.1c1.3,0.8,2.5,2,3,3.5
				c0.3,0.8,0.3,2.8-1,2.9c-1.3,0.1-2,1.6-1.1,2.6c0.9,1,1.1,2.8,0.1,3.8c-1,1.1-2.7,1.1-3.9,0.3c-1.4-0.9-3.1,1.2-1.8,2.4
				c1.5,1.5,2.3,4.2,0.1,5.5c-1.6,0.9-3.9-0.6-2.8-2.4c-0.9-0.4-1.8-0.8-2.7-1.2c-0.3,1.5-1.3,4.4-3.4,3.7c-1.5-0.5-1.1-2.7-1.1-3.8
				c0.1-1.7,0.3-3.4-0.1-5c-0.5-2-1.5-3.8-2.7-5.5c-5.5-8.1-11.2-16-16.8-24c-1.1-1.6-3.7-0.1-2.6,1.5c5.1,7.2,10.1,14.5,15.2,21.7
				c2.1,3,4.3,5.9,4.1,9.7c-0.2,2.7-0.7,6.2,2.1,7.8c1.6,0.9,3.6,0.7,5.1-0.3c1.7-1.1,2.6-3.1,3-5.1c0.3-1.6-1.8-2.7-2.7-1.2
				c-2.3,3.9,1.8,8.5,5.9,6.9c4.7-1.7,4.8-7.6,1.5-10.7c-0.6,0.8-1.2,1.6-1.8,2.4c2.4,1.6,5.9,1.2,7.7-1.1c1.9-2.3,1.6-5.7-0.4-7.8
				c-0.4,0.9-0.7,1.7-1.1,2.6c4.1-0.3,4.9-5,3.3-8.1c-1.8-3.5-5.7-5-9.3-6.3c-2-0.7-4-1.4-5.7-2.7c-1.7-1.3-3-3.1-4.4-4.7
				c-3.3-3.9-6.5-7.8-9.8-11.7C124.1,94,122,96.2,123.2,97.6L123.2,97.6z"/>
		</g>
	</g>
	<g>
		<g>
			<path class="st1" d="M138.1,111.7c-1.4-0.7-3-1.2-4.6-1.4c-0.5-0.1-0.8,0.5-0.7,0.9c0.4,2.1,0.9,4.1,1.3,6.2
				c0.4-0.3,0.7-0.6,1.1-0.8c-1.3-0.6-1.9-1.8-2.9-2.7c-1-0.9-2.2-1.6-3.6-1.5c-0.5,0-0.8,0.4-0.7,0.9c0.3,1.9,0.8,3.7,1,5.6
				c0.3-0.2,0.6-0.5,0.9-0.7c-1.7-0.5-3.6-1.1-5.2-2c-0.8-0.5-1.6,0.8-0.8,1.3c1.7,1,3.7,1.6,5.5,2.2c0.4,0.1,1-0.2,0.9-0.7
				c-0.1-2-0.6-4-1-6c-0.2,0.3-0.5,0.6-0.7,0.9c1.2-0.1,2.3,0.8,3,1.6c0.8,0.9,1.6,1.8,2.7,2.3c0.6,0.3,1.2-0.2,1.1-0.8
				c-0.4-2.1-0.9-4.1-1.3-6.2c-0.2,0.3-0.5,0.6-0.7,0.9c1.3,0.2,2.6,0.6,3.8,1.2C138.2,113.4,139,112.1,138.1,111.7L138.1,111.7z"/>
		</g>
	</g>
	<path class="st0" d="M121.1,110.9c0.4,0.5,0.8,1.1,1.2,1.6c0.8,1.1,1.6,2.3,2.5,3.3c0.9,0.9,2.1,1,3.2,0.9c-0.2-1.7,0-3.9,2.1-4.3
		c0.8-0.2,1.6,0.1,2.1,0.7c0.4,0.4,0.6,0.9,1,1.3c0.3-1.3,0.6-2.6,0.9-3.9c-0.1-0.1-0.2-0.2-0.3-0.3c-0.1-0.1-0.1-0.2-0.1-0.3
		c-0.4-0.2-0.9-0.3-1.1-0.4c-0.5-0.3-0.9-0.6-1.3-0.9c-0.8-0.6-1.5-1.4-2.1-2.2c-0.3-0.4-0.5-0.9-0.8-1.4c-0.2-0.4-0.2-0.3-0.7-0.1
		l-0.9,0.5c-1.2,0.7-2.4,1.3-3.6,2c-0.6,0.3-1.2,0.6-1.7,0.9l-0.9,0.5c-0.1,0.1-0.7,0.3-0.8,0.4C119.7,109.3,121,110.7,121.1,110.9z
		"/>
</g>
<g>
	<path class="st0" d="M133.9,86.8c1.2-1.5,3-1.5,4.7-0.9c2.3,0.9,4.4,2.8,6.1,4.5c0.2,0.3,0.2,0.7-0.1,0.9c-0.9,0.8-2,0.7-3.1,0.5
		c-0.7-0.2-1.5-0.5-2.3-0.6c1.3,1.1,2.7,2,4.2,2.7c0.5,0.2,0.6,1,0.1,1.2c-1.5,0.6-3,0.9-4.5,0.9c1.2,0.6,2.3,1.2,3.5,1.7
		c1.2,0.6,3.5,1.6,2.7,3.4c-0.1,0.3-0.4,0.4-0.7,0.4c-0.3,0-0.7-0.1-1-0.1c-0.2,0.1-0.5,0.2-0.7,0.2c-0.4,0-0.7-0.1-1-0.2
		c-1.6-0.4-3.2-1.1-4.6-2.1c-0.8-0.3-1.7-0.6-2.5-0.9c-1-0.4-1.9-1.1-2.6-1.9c-0.3-0.4-0.8-0.9-1-1.3c-0.2-0.5,0.1-1,0.2-1.5
		l1.2-3.7C132.9,88.9,133.2,87.7,133.9,86.8z"/>
	<path class="st0" d="M140,85.9c1,0,2,0.7,2.4,1.7c0.1,0.2,0.1,0.3,0.1,0.5c0.1,0.1,0.3,0.3,0.4,0.4c0,0,0,0-0.1,0
		c0.3,0.3,0.6,0.7,0.5,1.1c0,0.3-0.1,0.5-0.3,0.8c0.1,0.1,0.1,0.1,0.2,0.2c0.2,0.3,0.3,0.6,0.3,0.9c0,0.3-0.1,0.5-0.3,0.8
		c-0.5,0.5-1.1,0.5-1.7,0.2c0,0-0.1,0-0.1-0.1c-0.6-0.3-1.3-0.6-2-0.7c-0.3-0.1-0.6-0.4-0.7-0.7c-0.1-0.3-0.2-0.7,0-1
		c0.1-0.3,0.4-0.6,0.7-0.7c0.3-0.1,0.5-0.1,0.7-0.1c-0.4-0.4-0.7-0.8-1-1.2c-0.3-0.4-0.4-1-0.1-1.4C139,86.1,139.5,85.9,140,85.9z"
		/>
	<g>
		<path class="st2" d="M146,101C146,101,146,101.1,146,101L146,101z"/>
		<path class="st2" d="M145.5,88.1c3.7,1.9,7.4,3.8,11.5,4.4c1.8,0.3,3.6,0.3,5.4-0.1c2-0.4,3.6-1.3,5.2-2.4
			c2.4-1.7,5.8-3.6,8.6-1.4c1.8,1.4,1.5,3.8,0.1,5.2c2.2,0.8,4.5,2.2,4.6,4.7c0,0.3-0.1,0.6-0.4,0.7c-1.7,0.8-3.1,2-4.1,3.6
			c2.4,1.4,4,4.4,2,6.9c-0.9,1.1-2.2,1.7-3.6,1.4c-0.5-0.1-1.6-0.7-2.1-0.4c-0.5,0.2-0.3,2.2-0.5,2.7c-0.7,3.1-3.8,5.2-6.9,5.4
			c-3.8,0.2-7.3-2.1-9.5-5c-1.6-2.1-2.8-4.3-4.7-6.2c-1.6-1.5-3.3-2.7-5.2-3.9c0,0,0,0,0,0c0,0,0,0-0.1,0c-0.7,0.1-1.4-0.3-1.5-1
			c0,0,0,0,0,0c-0.1-0.2-0.1-0.5,0.1-0.7c-0.2-0.5,0.1-1.2,0.8-0.9c0.2,0.1,0.4,0.1,0.6,0c0-0.1,0.1-0.1,0.1-0.2
			c0,0.1-0.1,0.1-0.1,0.1c0,0,0-0.1,0-0.1c0-0.1,0-0.1,0.1-0.2c0,0,0,0,0-0.1c0-0.1,0-0.1,0-0.2c0,0,0,0,0,0c0,0,0-0.1,0-0.2
			c0-0.1-0.1-0.2-0.1-0.2c0,0,0-0.1-0.1-0.1c0,0-0.1-0.1-0.1-0.1c-0.1-0.1-0.1-0.1-0.2-0.2c0,0,0,0,0,0c-0.1-0.1-0.1-0.1-0.2-0.2
			c-0.1-0.1-0.3-0.2-0.4-0.3c-0.1-0.1-0.2-0.1-0.3-0.2c0,0,0,0,0,0c0,0,0,0-0.1,0c-0.2-0.1-0.4-0.2-0.6-0.3
			c-0.9-0.4-1.9-0.7-2.7-1.2c-0.4-0.2-0.6-0.9-0.5-1.3c0.1-0.5,0.5-0.9,1-1c1.4-0.2,2.8-0.1,4.1,0.1c-0.8-0.9-1.6-2-2.6-2.5
			c-2.6-1.3-1.9-1.9-1.2-1.8c0.8,0.1,3.2,0.8,4,0.9c-0.7-0.9-1.2-1.9-1.5-3C144.6,88.4,145.1,87.9,145.5,88.1z"/>
	</g>
	<path class="st3" d="M164.3,110.5c0.7,0,1.4-0.1,2,0.2c0.1,0,0.3,0,0.4,0.1c0.2,0.2,0.4,0.3,0.5,0.6c0.2,0.2,0.3,0.4,0.3,0.7
		c0.3,0.2,0.6,0.5,0.8,0.8c0.3,0.4,0,1.1-0.5,1c-0.2,0-0.5-0.1-0.7-0.2c-0.2,0.1-0.4,0.3-0.6,0.3c-0.7,0.1-1.5-0.2-1.8-0.9
		c-0.1-0.3-0.2-0.6-0.2-0.9c-0.2-0.2-0.4-0.4-0.6-0.7C163.6,111.2,163.8,110.5,164.3,110.5z"/>
	<path class="st3" d="M172.2,105.6C172.2,105.5,172.2,105.5,172.2,105.6c0.1-0.2,0.2-0.3,0.2-0.3c0.1-0.1,0.2-0.2,0.4-0.3
		c0.1-0.1,0.3-0.1,0.4-0.1c0.1,0,0.2-0.1,0.3-0.1c0.2,0,0.4,0,0.7,0.1c0.2,0.1,0.3,0.1,0.5,0.3c0.2,0.2,0.3,0.3,0.4,0.5
		c0,0.1,0,0.1,0.1,0.2c0,0.2,0,0.3-0.1,0.5c0,0,0,0.1-0.1,0.1c-0.1,0.1-0.1,0.2-0.2,0.3c-0.3,0.2-0.6,0.3-0.9,0.3
		c-0.1,0-0.2,0.1-0.3,0.1c-0.1,0-0.1,0.1-0.2,0.1c-0.2,0-0.4,0-0.5-0.1c-0.1,0-0.1,0-0.2-0.1c-0.3-0.1-0.5-0.3-0.7-0.6
		C171.9,106.1,172,105.7,172.2,105.6z"/>
	<path class="st3" d="M171.2,98.6c0,0,0-0.1,0.1-0.1c0.1-0.1,0.2-0.2,0.3-0.2c0.5-0.4,1.2-0.5,1.8-0.5c0.2,0,0.4,0.1,0.5,0.3
		c0.1,0.2,0.1,0.4,0.1,0.6c0,0,0,0.1,0.1,0.1c0,0.2,0,0.3-0.1,0.5c-0.2,0.4-0.6,0.6-1,0.7c-0.2,0.2-0.4,0.3-0.6,0.4
		c-0.3,0.1-0.7,0-0.9-0.3c0-0.1-0.1-0.2,0-0.4c-0.1,0-0.3-0.1-0.4-0.2c-0.1-0.1-0.2-0.3-0.1-0.5c0-0.1,0-0.1,0-0.2
		C171,98.8,171.1,98.7,171.2,98.6C171.2,98.6,171.2,98.6,171.2,98.6z"/>
	<path class="st3" d="M168.7,92.8c0.2-0.3,0.5-0.5,0.8-0.5c0.2-0.1,0.4,0,0.7,0c0.2,0,0.4,0.1,0.5,0.2c0.3,0.2,0.6,0.5,0.7,0.9
		c0.1,0.1,0.1,0.3,0,0.4c0,0.2-0.1,0.3-0.2,0.4c-0.1,0.1-0.1,0.1-0.2,0.2c-0.2,0.3-0.4,0.7-0.7,1c-0.2,0.3-0.6,0.4-0.9,0.2
		c-0.2-0.1-0.2-0.3-0.3-0.4c-0.1,0-0.2,0-0.3,0c-0.2,0-0.3-0.1-0.4-0.2c-0.1-0.1-0.1-0.3-0.1-0.5c0-0.2,0-0.3,0.1-0.5
		c0-0.1,0-0.2,0-0.3C168.5,93.3,168.6,93,168.7,92.8z"/>
	<g>
		<g>
			<path class="st1" d="M171.3,111.8c1,0.8,0.9,2.2,0.2,3.2c-0.9,1.4-2.8,1.8-4.3,1.8c-3.1,0.1-6.7-0.6-9-2.8
				c-1.3-1.3-1.7-3.1-2.5-4.6c-0.8-1.5-2-2.7-3.3-3.7c-2.9-2.2-6.5-3.5-9.8-5c-4.6-2-9.1-4-13.7-6.1c-1.7-0.8-3.3,1.8-1.5,2.6
				c4.7,2.1,9.4,4.2,14.1,6.3c3.6,1.6,8,3,10.6,6.1c1.4,1.6,1.8,3.7,3,5.4c1.1,1.5,2.6,2.7,4.3,3.4c3.3,1.5,7.8,2.1,11.3,0.7
				c1.9-0.7,3.4-2.2,4-4.1c0.6-1.9,0.2-4.1-1.4-5.4C171.9,108.5,169.8,110.6,171.3,111.8L171.3,111.8z"/>
		</g>
	</g>
	<g>
		<g>
			<path class="st1" d="M132.1,84.9c5.4,1.4,10.6,3.4,15.8,5.2c3.4,1.2,6.9,3,10.6,3.3c3.9,0.3,7.2-1.9,10.7-3.4
				c1.8-0.8,3.9-1.5,5.8-0.7c0.7,0.3,1.5,0.9,1.7,1.7c0.1,0.7-0.1,1.5-0.8,1.8c0.3,1,0.5,1.9,0.8,2.9c1.4-0.5,3.1,0.1,3.5,1.6
				c0.4,1.6-1.3,3.3-2.8,3c-1.7-0.3-2.6,1.7-1.2,2.7c1.5,1,2.9,3.1,2,5c-0.6,1.3-2.3,1.9-3.5,1c-1.6-1.2-3,1.5-1.5,2.6
				c2.5,1.9,6.2,0.5,7.6-2.1c1.8-3.3-0.3-7.1-3.1-9.1c-0.4,0.9-0.8,1.8-1.2,2.7c3.5,0.6,7.2-2.3,6.6-6.1c-0.5-3.3-4.2-5.5-7.3-4.3
				c-1.8,0.7-1.1,3.5,0.8,2.9c1.8-0.6,3-2.2,3.1-4.1c0.1-2-1.2-3.7-2.9-4.7c-3.9-2.1-8.1,0-11.7,1.8c-1.9,0.9-3.8,1.8-5.9,1.8
				c-2.4,0-4.7-1.1-6.9-1.9c-3.4-1.3-6.9-2.5-10.4-3.7c-2.9-1-5.9-2.1-8.9-2.8C131,81.6,130.2,84.5,132.1,84.9L132.1,84.9z"/>
		</g>
	</g>
	<g>
		<g>
			<path class="st1" d="M167.2,111.4c0.4,0.4,0.7,0.7,0.9,1.2c0,0.1,0.1,0.2,0.1,0.3c0,0,0,0.1,0,0c0,0,0,0.1,0,0.1c0,0,0,0.3,0,0.2
				c0,0,0,0.1,0,0.1c0,0-0.1,0.2,0,0.1c0,0-0.2,0.2-0.1,0.1c0,0-0.1,0.1-0.1,0.1c-0.1,0.1,0.1,0,0,0c0,0-0.1,0.1-0.1,0
				c0.1,0-0.1,0,0,0c-0.1,0-0.2,0-0.3,0c-0.5-0.2-1-0.4-1.5-0.7c-0.4-0.2-0.9-0.5-1.2-0.7c-0.2-0.1-0.4-0.3-0.5-0.5
				c0,0-0.1-0.2-0.2-0.3c0,0-0.1-0.1,0,0c0-0.1,0-0.1-0.1-0.2c0,0,0-0.1,0,0c0-0.1,0-0.1,0-0.2c0,0,0-0.1,0,0c0,0,0-0.1,0-0.1
				c0-0.1,0-0.1,0,0c0,0,0-0.1,0.1-0.1c0,0,0-0.1,0.1-0.1c-0.1,0.1,0,0,0.1-0.1c0,0,0.1-0.1,0.1-0.1c-0.1,0.1,0,0,0,0
				c0.1-0.1,0.2-0.1,0.3-0.2c0.1-0.1-0.1,0,0,0c0,0,0.1,0,0.1,0c0.1,0,0.1,0,0.2,0c0.1,0,0,0,0,0c0.1,0,0.2,0,0.4,0c0,0,0.2,0,0.1,0
				c-0.1,0,0.1,0,0.1,0c0.3,0.1,0.5,0.2,0.7,0.3c0.5,0.3,0.9,0.7,1.4,1.1c0.3,0.3,0.8,0.3,1.1,0c0.3-0.3,0.3-0.8,0-1.1
				c-1-0.9-2.2-1.9-3.7-1.8c-1.3,0.1-2.6,1-2.5,2.4c0.1,1.4,1.3,2.4,2.5,3c0.7,0.4,1.4,0.7,2.1,0.9c0.7,0.2,1.5,0,2-0.6
				c0.5-0.6,0.6-1.4,0.4-2.1c-0.2-0.8-0.8-1.4-1.4-2C167.6,109.7,166.5,110.7,167.2,111.4L167.2,111.4z"/>
		</g>
	</g>
	<g>
		<g>
			<path class="st1" d="M174.6,105.5C174.7,105.5,174.7,105.6,174.6,105.5C174.6,105.5,174.7,105.5,174.6,105.5
				c0.1,0,0.1,0.1,0.1,0.1C174.6,105.6,174.6,105.5,174.6,105.5c0.1,0.1,0.1,0.1,0.2,0.1c0.1,0.1,0,0,0-0.1c0,0,0,0.1,0.1,0.1
				c0,0.1,0,0.1,0,0c0,0.1,0,0.1,0.1,0.2c0,0,0,0.1,0,0.1c0,0,0-0.2,0-0.1c0,0.1,0,0.1,0,0.2c0,0,0,0.1,0,0.1c0,0.2,0-0.2,0,0
				c0,0.1,0,0.1-0.1,0.2c0,0.1,0,0,0-0.1c0,0,0,0.1,0,0.1c0,0.1-0.1,0.1-0.1,0.2c0-0.1,0.1-0.1,0,0c0,0-0.1,0.1-0.1,0.1
				c0,0,0.2-0.1,0,0c0,0-0.1,0-0.1,0.1c0,0-0.2,0.1,0,0c0,0-0.1,0-0.1,0c-0.1,0-0.2,0.1-0.3,0.1c0,0,0.2,0,0,0c-0.1,0-0.1,0-0.2,0
				c0,0-0.4,0-0.2,0c-0.1,0-0.2,0-0.3-0.1c-0.1,0-0.2,0-0.3-0.1c0,0-0.2-0.1-0.1,0c0.1,0-0.1,0-0.1-0.1c-0.1,0-0.2-0.1-0.2-0.1
				c0,0-0.1-0.1-0.1-0.1c0,0-0.1-0.1,0,0c-0.1-0.1-0.1-0.1-0.2-0.2c0,0-0.1-0.1-0.1-0.1c-0.1-0.1,0.1,0.1,0,0c0,0,0-0.1-0.1-0.1
				c0,0-0.1-0.2,0,0c0-0.1-0.1-0.2-0.1-0.2c0,0.2,0,0,0,0c0-0.1,0,0.1,0,0c0,0,0-0.1,0-0.1c0,0,0-0.1,0-0.1c0,0.1,0,0.1,0,0.1
				c0,0,0.1-0.2,0.1-0.2c-0.1,0.1-0.1,0.1,0,0c0,0,0.1-0.1,0.1-0.1c0,0,0.1-0.1,0.1-0.1c0,0-0.1,0.1,0,0c0.1-0.1,0.2-0.1,0.3-0.1
				c-0.2,0.1,0.1,0,0.1,0c0,0,0.1,0,0.2,0c0,0-0.1,0-0.1,0c0,0,0.1,0,0.1,0c0.1,0,0.2,0,0.4,0c-0.1,0,0,0,0,0c0.1,0,0.2,0,0.2,0.1
				c0.1,0,0.2,0.1,0.3,0.1c0,0,0.2,0.1,0.1,0c-0.1,0,0.1,0.1,0.1,0.1c0.2,0.1,0.5,0.3,0.7,0.4c0.3,0.2,0.8,0.1,1-0.3
				c0.2-0.4,0.1-0.8-0.3-1c-1-0.6-2.3-1.2-3.5-0.7c-0.5,0.2-1,0.5-1.3,1c-0.4,0.6-0.4,1.3-0.1,1.9c0.9,2,4.6,2.6,5.3,0.2
				c0.3-1-0.1-2.3-1.2-2.6c-0.4-0.1-0.8,0.1-0.9,0.5C174,105,174.2,105.4,174.6,105.5L174.6,105.5z"/>
		</g>
	</g>
	<g>
		<g>
			<path class="st1" d="M174.4,98c0,0.1,0,0.2-0.1,0.3c0,0,0,0.1,0,0.1c0,0,0.1-0.1,0,0c-0.1,0.2-0.2,0.3-0.3,0.4
				c0.1-0.1-0.1,0.1-0.1,0.1c-0.1,0.1-0.1,0.1-0.2,0.2c-0.1,0.1-0.1,0.1-0.2,0.2c0.1-0.1-0.1,0-0.1,0.1c-0.1,0.1-0.3,0.2-0.5,0.2
				c0.1-0.1-0.1,0-0.1,0c-0.1,0-0.2,0-0.3,0.1c0,0-0.3,0-0.1,0c-0.1,0-0.2,0-0.3,0c-0.1,0-0.2,0-0.3,0c0,0,0.2,0,0,0
				c-0.1,0-0.1,0-0.2,0c-0.1,0-0.1,0-0.2-0.1c0.1,0,0,0,0,0c0,0-0.1,0-0.1-0.1c0,0-0.1,0-0.1-0.1c0,0,0.1,0.1,0,0
				c0,0-0.1-0.1-0.1-0.1c-0.1-0.1,0,0.1,0,0c0,0,0-0.1-0.1-0.1c0-0.1,0,0,0,0c0,0,0-0.1,0-0.1c0,0.1,0,0,0,0c0,0,0-0.1,0-0.1
				c0,0,0,0.1,0,0c0,0,0-0.1,0-0.1c0,0.1,0,0,0,0c0-0.1,0.1-0.1,0.1-0.2c-0.1,0.1,0,0,0,0c0,0,0.1-0.1,0.1-0.1c0,0,0.2-0.2,0.1-0.1
				c0.1-0.1,0.2-0.1,0.2-0.2c0,0,0.1,0,0.1-0.1c0,0,0.1-0.1,0.1,0c-0.1,0,0.1,0,0.1,0c0.1,0,0.2,0,0.2-0.1c0,0,0.1,0,0.1,0
				c0.1,0-0.1,0,0,0c0.2,0,0.4,0,0.6,0c0.1,0-0.1,0,0,0c0.1,0,0.1,0,0.2,0c0.1,0,0.2,0,0.3,0.1c0,0,0.1,0,0.1,0c0.1,0,0.1,0.1,0,0
				c0.1,0,0.2,0.1,0.2,0.1c0.1,0,0.2,0.1,0.2,0.2c0,0-0.1-0.1,0,0c0,0,0.1,0.1,0.1,0.1c0.3,0.3,0.8,0.3,1.1,0c0.3-0.3,0.3-0.8,0-1.1
				c-1.4-1.4-4.1-1.4-5.3,0.4c-0.3,0.5-0.5,1.1-0.3,1.7c0.1,0.5,0.5,1,1,1.2c0.9,0.5,2.1,0.4,3,0c1-0.5,1.8-1.4,2.1-2.5
				c0.1-0.4-0.1-0.8-0.5-0.9C174.9,97.4,174.5,97.6,174.4,98L174.4,98z"/>
		</g>
	</g>
	<g>
		<g>
			<path class="st1" d="M171.5,92.6c-0.1,0.2-0.1,0.4-0.2,0.6c-0.1,0.2,0-0.1,0,0c0,0,0,0.1-0.1,0.1c0,0.1-0.1,0.2-0.1,0.3
				c-0.1,0.2-0.2,0.4-0.3,0.5c0,0-0.1,0.1-0.1,0.1c0,0,0,0,0.1-0.1c0,0,0,0.1-0.1,0.1c-0.1,0.1-0.1,0.2-0.2,0.2
				c-0.1,0.1-0.1,0.1-0.2,0.2c-0.1,0.1,0.1-0.1,0,0c0,0-0.1,0-0.1,0.1c0,0-0.3,0.1-0.3,0.1c0,0,0.2-0.1,0,0c-0.1,0-0.1,0-0.2,0.1
				c0,0-0.1,0-0.1,0c-0.2,0,0.2,0,0,0c-0.1,0-0.2,0-0.2,0c-0.2,0,0.2,0,0,0c0,0-0.1,0-0.1,0c0,0-0.1,0-0.1,0c0.1,0,0.1,0.1,0.1,0
				c0,0,0,0-0.1,0c0,0-0.1,0-0.1-0.1c-0.1,0-0.1-0.1,0,0c0-0.1-0.1-0.1-0.2-0.1c0,0-0.1-0.1-0.1-0.1c-0.1-0.1,0,0,0,0
				c0-0.1-0.1-0.2-0.1-0.2c0,0,0-0.1-0.1-0.1c0.1,0.1,0,0.1,0,0c0-0.1-0.1-0.2-0.1-0.2c0,0,0-0.1,0-0.1c0-0.1,0-0.2,0,0
				c0-0.1,0-0.2,0-0.3c0-0.1,0-0.2,0-0.2c0,0.2,0,0.1,0,0c0,0,0-0.1,0-0.1c0,0,0-0.1,0-0.1c0-0.1,0.1-0.1,0,0
				c0.1-0.1,0.1-0.2,0.1-0.2c0,0,0,0,0,0c0,0,0,0,0,0c0,0,0,0,0,0c0,0,0-0.1,0.1-0.1c0,0,0.2-0.2,0.2-0.2c0,0,0,0-0.1,0.1
				c0,0,0.1,0,0.1-0.1c0,0,0.1-0.1,0.1-0.1c0,0,0.1,0,0.1,0c0,0,0.1,0,0.1,0c-0.1,0-0.1,0,0,0c0.1,0,0.2-0.1,0.3-0.1
				c0,0,0.1,0,0.1,0c0,0,0.1,0,0.1,0c-0.1,0-0.1,0,0,0c0.1,0,0.2,0,0.3,0c0.1,0,0.1,0,0.2,0c0,0,0,0,0.1,0c0.1,0,0.1,0,0,0
				c0,0,0.6,0.1,0.6,0.2c0,0-0.1,0-0.1,0c0,0,0.1,0,0.1,0c0,0,0.1,0,0.1,0.1c0,0,0.1,0.1,0.1,0.1c0,0,0.1,0,0.1,0.1
				c-0.1-0.1-0.1-0.1,0,0c0.3,0.2,0.8,0.3,1.1,0c0.3-0.3,0.3-0.8,0-1.1c-0.8-0.7-1.9-1-3-0.7c-1,0.2-1.8,1-2,2
				c-0.2,0.9,0.1,2,0.9,2.6c0.8,0.7,2,0.7,2.9,0.1c1-0.7,1.6-1.8,1.9-2.9c0.1-0.4-0.1-0.8-0.5-0.9C172,91.9,171.6,92.2,171.5,92.6
				L171.5,92.6z"/>
		</g>
	</g>
	<g>
		<g>
			<path class="st1" d="M144.1,102.7c0.5-0.2,1-0.6,1.4-0.9c0.4-0.3,0.9-0.8,1.4-1c0.6-0.2,0.7-1,0.2-1.4c-3.7-2.7-7.8-4.7-12.1-6
				c-0.1,0.5-0.3,1-0.4,1.4c3.9,0.9,7.8,1.5,11.8,1.6c0.8,0,0.9-1,0.4-1.4c-2.6-1.9-5.2-3.8-7.8-5.7c-0.1,0.5-0.3,0.9-0.4,1.4
				c2.5,0.3,5,0.8,7.4,1.4c0.7,0.2,1.2-0.7,0.7-1.3c-1.3-1.4-2.6-2.7-3.8-4.1c-0.7-0.7-1.7,0.4-1.1,1.1c1.3,1.4,2.6,2.7,3.8,4.1
				c0.2-0.4,0.5-0.8,0.7-1.3c-2.6-0.6-5.2-1.1-7.8-1.4c-0.8-0.1-0.9,1-0.4,1.4c2.6,1.9,5.2,3.8,7.8,5.7c0.1-0.5,0.3-0.9,0.4-1.4
				c-3.9-0.2-7.7-0.7-11.4-1.6c-0.9-0.2-1.3,1.2-0.4,1.4c4.2,1.3,8.2,3.2,11.7,5.8c0.1-0.5,0.1-0.9,0.2-1.4c-0.5,0.2-1,0.6-1.4,0.9
				c-0.4,0.3-0.9,0.8-1.4,1C142.8,101.6,143.2,103,144.1,102.7L144.1,102.7z"/>
		</g>
	</g>
</g>
<g>
	<g>
		<path class="st4" d="M71.9,107.7c3-2.8,6-5.5,9.2-8.1c0.6-0.5,0.6-1.6,0-2.1c-0.6-0.6-1.5-0.5-2.1,0c-3.1,2.6-6.2,5.3-9.2,8.1
			c-0.6,0.5-0.6,1.6,0,2.1C70.4,108.2,71.3,108.2,71.9,107.7L71.9,107.7z"/>
	</g>
</g>
<g>
	<g>
		<path class="st4" d="M78.4,109.1c2.2-2.4,4.5-4.8,6.7-7.1c0.5-0.6,0.6-1.6,0-2.1c-0.6-0.5-1.5-0.6-2.1,0c-2.2,2.4-4.5,4.8-6.7,7.1
			c-0.5,0.6-0.6,1.6,0,2.1C76.8,109.6,77.8,109.7,78.4,109.1L78.4,109.1z"/>
	</g>
</g>
<g>
	<g>
		<path class="st4" d="M89.2,105.7c-0.5,2.7-1,5.3-1.5,8c-0.2,1.3-0.5,2.6-0.7,3.9c-0.1,0.6-0.2,1.3-0.4,1.9
			c-0.1,0.3-0.1,0.6-0.2,0.9c0,0.2-0.1,0.4-0.1,0.6c-0.1,0.3-0.1,0.4,0,0.2c0.2-0.2,0.4-0.4,0.5-0.5c0,0-0.1,0-0.1,0.1
			c0.5,0,1,0,1.5,0c0,0-0.1,0-0.1,0c0.2,0.3,0.5,0.6,0.7,0.9c0,0,0-0.1,0-0.1c0,0.3,0,0.5,0,0.8c0,0,0-0.1,0-0.1
			c-0.5,0.4-1,0.7-1.4,1.1c0,0,0.1,0,0.1,0c0.8-0.1,1.5-0.6,1.5-1.5c0-0.7-0.7-1.6-1.5-1.5c0,0-0.1,0-0.1,0
			c-0.7,0.1-1.3,0.4-1.4,1.1c-0.5,2.2,2.5,2.9,3.2,0.8c0.3-0.8,0.3-1.7,0.5-2.5c0.2-0.9,0.3-1.8,0.5-2.7c0.7-3.6,1.3-7.1,2-10.7
			c0.1-0.8-0.2-1.6-1-1.8C90.3,104.4,89.3,104.9,89.2,105.7L89.2,105.7z"/>
	</g>
</g>
<g>
	<g>
		<path class="st4" d="M117.5,97.3c2.1,3.8,4.1,7.7,6.2,11.5c0.8-0.6,1.6-1.2,2.4-1.8c-0.2-0.1-0.3-0.3-0.5-0.4
			c-0.6-0.5-1.5-0.6-2.1,0c-0.5,0.5-0.6,1.6,0,2.1c0.2,0.1,0.3,0.3,0.5,0.4c0.6,0.5,1.4,0.6,2,0.1c0.6-0.5,0.7-1.3,0.4-1.9
			c-2.1-3.8-4.1-7.7-6.2-11.5c-0.4-0.7-1.4-0.9-2.1-0.5C117.3,95.7,117.1,96.6,117.5,97.3L117.5,97.3z"/>
	</g>
</g>
<g>
	<g>
		<path class="st4" d="M70.3,90.7c0.1,0,0.2,0,0.3,0c-0.2,0-0.2,0,0,0c0.1,0,0.3,0,0.4,0.1c0.3,0.1,0.7,0.1,1,0.2
			c0.6,0.1,1.3,0.3,1.9,0.5c0.6,0.2,1.2,0.4,1.9,0.6c0.3,0.1,0.6,0.2,0.9,0.4c0.4,0.2-0.3-0.1,0.2,0.1c0.2,0.1,0.4,0.2,0.5,0.2
			c0.7,0.3,1.6,0.2,2.1-0.5c0.3-0.7,0.2-1.7-0.5-2.1c-2.8-1.3-5.6-2.1-8.6-2.4c-0.8-0.1-1.5,0.8-1.5,1.5
			C68.8,90.1,69.4,90.6,70.3,90.7L70.3,90.7z"/>
	</g>
</g>
<g>
	<g>
		<path class="st4" d="M135.3,81.9c3.1-0.2,6,1.3,9,2.1c3.2,0.9,6.6,1.2,9.8,1.7c0.8,0.1,1.6-0.2,1.8-1c0.2-0.7-0.2-1.7-1-1.8
			c-3.4-0.5-6.9-0.9-10.2-1.8c-3.1-0.9-6.1-2.3-9.4-2.2C133.4,79,133.4,82,135.3,81.9L135.3,81.9z"/>
	</g>
</g>
<g>
	<g>
		<path class="st4" d="M175.1,84.3c0.6,0.1,1.2,0.2,1.7,0.4c0.1,0.1,0.3,0.1,0.4,0.2c0.2,0.1-0.3-0.1-0.1,0c0.1,0,0.1,0.1,0.2,0.1
			c0.3,0.1,0.5,0.3,0.8,0.4c0.2,0.1,0.5,0.3,0.7,0.5c0.2,0.1-0.2-0.2,0,0c0,0,0.1,0.1,0.1,0.1c0.1,0.1,0.2,0.2,0.4,0.3
			c0.2,0.2,0.4,0.4,0.6,0.6c0.1,0.1,0.2,0.3,0.3,0.4c-0.1,0-0.2-0.2-0.1-0.1c0.1,0.1,0.1,0.2,0.2,0.2c0.4,0.6,1.3,1,2.1,0.5
			c0.6-0.4,1-1.4,0.5-2.1c-1.6-2.3-4.2-4.1-7-4.5c-0.4-0.1-0.8-0.1-1.2,0.2c-0.3,0.2-0.6,0.5-0.7,0.9
			C173.9,83.1,174.2,84.1,175.1,84.3L175.1,84.3z"/>
	</g>
</g>
<g>
	<g>
		<path class="st4" d="M159.1,129.5c1.3-1.9,1.9-4.3,1.8-6.6c-0.1-0.8-0.7-1.5-1.5-1.5c-0.8,0-1.6,0.7-1.5,1.5c0,0.5,0,1,0,1.5
			c0,0.1,0,0.1,0,0.2c0,0.2,0,0.1,0-0.1c-0.1,0.1,0,0.3-0.1,0.4c0,0.2-0.1,0.5-0.2,0.7c-0.1,0.2-0.1,0.4-0.2,0.7
			c0,0.1-0.1,0.2-0.1,0.4c-0.1,0.2,0,0.1,0-0.1c0,0.1-0.1,0.1-0.1,0.2c-0.2,0.4-0.5,0.9-0.7,1.3c-0.4,0.7-0.1,1.7,0.5,2.1
			C157.8,130.4,158.6,130.1,159.1,129.5L159.1,129.5z"/>
	</g>
</g>
<g>
	<g>
		<path class="st4" d="M27.1,67c0.1-0.3,0.1-0.5,0.2-0.8c0-0.1,0.1-0.2,0.1-0.4c0,0,0-0.1,0.1-0.1c0.1-0.3-0.2,0.3,0,0.1
			c0.2-0.5,0.5-0.9,0.7-1.3c0.1-0.1,0.1-0.2,0.2-0.3c-0.3,0.4,0,0,0.1-0.1c0.2-0.2,0.3-0.4,0.5-0.6c0.1-0.1,0.2-0.2,0.3-0.3
			c0,0,0.2-0.3,0.3-0.2c0,0-0.3,0.2-0.1,0.1c0.1,0,0.1-0.1,0.2-0.1c0.1-0.1,0.2-0.2,0.4-0.2c0.7-0.4,1-1.4,0.5-2.1
			c-0.4-0.7-1.3-1-2.1-0.5c-2.1,1.3-3.7,3.5-4.2,6c-0.2,0.8,0.2,1.7,1,1.8C26,68.3,26.9,67.9,27.1,67L27.1,67z"/>
	</g>
</g>
<g>
	<g>
		<path class="st4" d="M23.8,63.4c0.2-0.4,0.5-0.7,0.8-1.1c-0.1,0.1-0.2,0.2-0.2,0.3c0.9-1.1,1.9-2.2,3-3.1c0.3-0.2,0.4-0.7,0.4-1.1
			c0-0.4-0.2-0.8-0.4-1.1C27,57.2,26.6,57,26.2,57c-0.4,0-0.7,0.2-1.1,0.4c-1.5,1.3-2.8,2.8-4,4.4c-0.2,0.3-0.2,0.8-0.2,1.2
			c0.1,0.3,0.4,0.7,0.7,0.9C22.5,64.4,23.3,64.1,23.8,63.4L23.8,63.4z"/>
	</g>
</g>
<g>
	<g>
		<path class="st4" d="M21.1,88.2c0.5,1.8,1.2,3.6,2.2,5.2c0.5,0.8,1.1,1.6,1.7,2.4c0.4,0.4,1,0.7,1.6,0.8c0.7,0,1.6-0.5,1.7-1.3
			c0.1-0.4,0.1-0.8-0.2-1.2c-0.2-0.3-0.5-0.6-0.9-0.7c-0.7-0.2-1.7,0.2-1.8,1c0.4-0.3,0.8-0.6,1.2-0.9c0.1,0,0.2,0,0.3,0
			c0.1,0,0.1,0.1,0.2,0.1c-0.1-0.1-0.1-0.1,0,0c0.2,0.1,0,0,0,0c0-0.1-0.1-0.1-0.2-0.2c-0.1-0.2,0.2,0.3,0,0c0-0.1-0.1-0.1-0.1-0.2
			c-0.1-0.1-0.2-0.3-0.3-0.4c-0.4-0.6-0.8-1.2-1.1-1.8c-0.2-0.3-0.3-0.6-0.5-0.9c-0.1-0.1-0.2-0.3-0.2-0.4c0,0.1,0.1,0.2,0,0
			c0-0.1-0.1-0.2-0.1-0.3c-0.3-0.7-0.5-1.3-0.7-2c-0.2-0.8-1.1-1.3-1.8-1C21.4,86.6,20.9,87.4,21.1,88.2L21.1,88.2z"/>
	</g>
</g>
<g>
	<g>
		<path class="st4" d="M18.3,92.4c0.3,2.1,1.2,4,2.6,5.6c0.5,0.6,1.6,0.6,2.1,0c0.6-0.6,0.5-1.5,0-2.1c-0.1-0.1-0.2-0.2-0.2-0.3
			c-0.1-0.1,0.2,0.3,0.1,0.1c0,0-0.1-0.1-0.1-0.1c-0.1-0.2-0.3-0.4-0.4-0.6c-0.2-0.4-0.5-0.8-0.7-1.3c0.1,0.1,0.1,0.2,0.2,0.4
			c-0.3-0.8-0.5-1.6-0.7-2.4c0-0.3-0.4-0.7-0.7-0.9c-0.3-0.2-0.8-0.3-1.2-0.2c-0.4,0.1-0.7,0.3-0.9,0.7c-0.1,0.1-0.1,0.2-0.2,0.4
			C18.3,91.8,18.3,92.1,18.3,92.4L18.3,92.4z"/>
	</g>
</g>
<g>
	<g>
		<path class="st4" d="M35.4,113.1c-0.8,3-0.3,6.3,1.4,8.8c0.4,0.6,1.3,1,2.1,0.5c0.6-0.4,1-1.4,0.5-2.1c-0.2-0.3-0.4-0.6-0.5-0.9
			c-0.1-0.1-0.1-0.3-0.2-0.4c-0.2-0.3,0.1,0.2,0-0.1c-0.2-0.6-0.4-1.2-0.5-1.9c0-0.1,0-0.1,0-0.2c0,0.2,0,0.2,0,0c0-0.2,0-0.3,0-0.5
			c0-0.3,0-0.6,0-0.9c0-0.1,0-0.3,0-0.4c0-0.1,0-0.2,0-0.2c0,0.2,0,0.2,0,0c0.1-0.3,0.1-0.7,0.2-1c0.2-0.8-0.3-1.7-1-1.8
			C36.5,111.8,35.6,112.2,35.4,113.1L35.4,113.1z"/>
	</g>
</g>
<g>
	<g>
		<path class="st4" d="M38.2,135.7c0.8,2.7,2.7,5,5.1,6.4c0.7,0.4,1.7,0.2,2.1-0.5c0.4-0.7,0.2-1.6-0.5-2.1
			c-0.3-0.1-0.5-0.3-0.8-0.5c-0.1,0-0.1-0.1-0.2-0.1c0,0-0.2-0.2-0.1,0c0.2,0.2,0,0,0,0c-0.1-0.1-0.1-0.1-0.2-0.2
			c-0.4-0.4-0.8-0.8-1.2-1.2c-0.1-0.1-0.2-0.3,0.1,0.1c0-0.1-0.1-0.1-0.1-0.2c-0.1-0.1-0.2-0.2-0.2-0.3c-0.2-0.2-0.3-0.5-0.5-0.8
			c-0.1-0.2-0.2-0.5-0.4-0.8c0.2,0.4,0,0,0-0.2c-0.1-0.1-0.1-0.3-0.1-0.4c-0.2-0.7-1.1-1.3-1.8-1C38.5,134.1,38,134.9,38.2,135.7
			L38.2,135.7z"/>
	</g>
</g>
<g>
	<g>
		<path class="st4" d="M30.3,117.6c0.1,1.1,0.3,2.1,0.8,3.1c0.4,1,1,1.9,1.7,2.7c0.2,0.3,0.7,0.4,1.1,0.4c0.4,0,0.8-0.2,1.1-0.4
			c0.6-0.6,0.5-1.5,0-2.1c-0.1-0.1-0.2-0.2-0.3-0.4c0.1,0.1,0.2,0.2,0.2,0.3c-0.4-0.6-0.8-1.2-1.1-1.8c0.1,0.1,0.1,0.2,0.2,0.4
			c-0.3-0.7-0.5-1.4-0.6-2.2c0,0.1,0,0.3,0.1,0.4c0-0.1,0-0.2,0-0.3c0-0.4-0.1-0.8-0.4-1.1c-0.3-0.3-0.7-0.5-1.1-0.4
			C31,116.1,30.2,116.8,30.3,117.6L30.3,117.6z"/>
	</g>
</g>
<g>
	<g>
		<path class="st4" d="M161.7,132c0.8-0.6,1.5-1.3,2-2.1c0.5-0.9,0.8-1.8,0.8-2.8c0-0.8-0.7-1.5-1.5-1.5c-0.8,0-1.5,0.7-1.5,1.5
			c0,0.1,0,0.3,0,0.4c0-0.1,0-0.3,0.1-0.4c-0.1,0.4-0.2,0.8-0.3,1.2c0.1-0.1,0.1-0.2,0.2-0.4c-0.2,0.4-0.4,0.7-0.6,1.1
			c0.1-0.1,0.2-0.2,0.2-0.3c-0.3,0.3-0.5,0.6-0.9,0.9c0.1-0.1,0.2-0.2,0.3-0.2c-0.1,0.1-0.2,0.1-0.2,0.2c-0.3,0.2-0.6,0.5-0.7,0.9
			c-0.1,0.4-0.1,0.8,0.2,1.2c0.2,0.3,0.5,0.6,0.9,0.7C160.9,132.3,161.4,132.3,161.7,132L161.7,132z"/>
	</g>
</g>
<g>
	<g>
		<path class="st4" d="M57.1,72.7c3.1,1.9,6.3,3.6,9.7,5.1c0.7,0.3,1.6,0.2,2.1-0.5c0.3-0.7,0.2-1.7-0.5-2.1
			c-3.3-1.5-6.5-3.2-9.7-5.1c-0.7-0.4-1.7-0.2-2.1,0.5C56.2,71.4,56.4,72.3,57.1,72.7L57.1,72.7z"/>
	</g>
</g>
<g>
	<g>
		<path class="st4" d="M59.8,67.7c0.1,0.1,0.1,0.1,0.2,0.2c0,0,0.2,0.2,0.1,0c-0.2-0.1,0.1,0,0.1,0.1c0.1,0,0.1,0.1,0.2,0.1
			c0.2,0.2,0.5,0.4,0.7,0.6c0.5,0.4,1,0.8,1.5,1.3c1,0.9,1.9,1.8,2.8,2.7c0.5,0.6,1.6,0.6,2.1,0c0.6-0.6,0.6-1.5,0-2.1
			c-1.9-2-3.9-3.8-6.1-5.5c-0.3-0.2-0.8-0.2-1.2-0.2c-0.3,0.1-0.7,0.4-0.9,0.7c-0.2,0.3-0.3,0.8-0.2,1.2
			C59.2,67.2,59.5,67.5,59.8,67.7L59.8,67.7z"/>
	</g>
</g>
<g>
	<g>
		<path class="st4" d="M143.7,79.1c2.9,0.5,5.9,1,8.8,1.5c0.8,0.1,1.7-0.2,1.8-1c0.2-0.7-0.2-1.7-1-1.8c-2.9-0.6-5.9-1.1-8.8-1.5
			c-0.8-0.1-1.7,0.2-1.8,1C142.5,78,142.8,79,143.7,79.1L143.7,79.1z"/>
	</g>
</g>
<g>
	<g>
		<path class="st4" d="M101.6,128.2c0.3-2.7,0-5.5-0.8-8c-0.2-0.7-1.1-1.3-1.8-1c-0.8,0.2-1.3,1-1,1.8c0.2,0.6,0.3,1.2,0.5,1.8
			c0.1,0.3,0.1,0.7,0.2,1c0.1,0.5,0-0.3,0,0.2c0,0.2,0,0.3,0.1,0.5c0.1,1.3,0.1,2.5,0,3.8c-0.1,0.8,0.7,1.5,1.5,1.5
			C101,129.7,101.5,129.1,101.6,128.2L101.6,128.2z"/>
	</g>
</g>
<g>
	<g>
		<path class="st4" d="M109.7,122.2c1.3,3.1,3.2,5.9,5.8,8.1c0.6,0.5,1.5,0.6,2.1,0c0.5-0.6,0.6-1.6,0-2.1c-0.6-0.5-1.1-1-1.6-1.5
			c-0.3-0.3-0.5-0.5-0.7-0.8c-0.1-0.1-0.2-0.3-0.3-0.4c-0.2-0.3,0.1,0.2,0,0c-0.1-0.1-0.1-0.2-0.2-0.2c-0.4-0.6-0.8-1.2-1.2-1.8
			c-0.2-0.3-0.4-0.7-0.5-1c-0.1-0.2-0.2-0.3-0.2-0.5c0-0.1-0.1-0.1-0.1-0.2c0.1,0.3,0,0,0-0.1c-0.3-0.7-1-1.3-1.8-1
			C110.1,120.6,109.4,121.4,109.7,122.2L109.7,122.2z"/>
	</g>
</g>
<g>
	<g>
		<path class="st4" d="M108.1,126.7c1.5,2.9,3.7,5.4,6.3,7.3c0.3,0.2,0.8,0.2,1.2,0.2c0.3-0.1,0.7-0.4,0.9-0.7
			c0.4-0.8,0.1-1.5-0.5-2.1c0,0-0.3-0.2-0.1-0.1c0.2,0.1-0.1-0.1-0.1-0.1c-0.1-0.1-0.3-0.2-0.4-0.4c-0.3-0.2-0.5-0.5-0.8-0.7
			c-0.5-0.5-1-1-1.5-1.6c-0.1-0.1-0.2-0.3-0.3-0.4c-0.1-0.1-0.1-0.1-0.2-0.2c-0.2-0.2,0.1,0.1,0,0c-0.2-0.3-0.4-0.6-0.6-0.9
			c-0.4-0.6-0.8-1.3-1.2-1.9c-0.4-0.7-1.4-1-2.1-0.5C107.9,125.1,107.7,126,108.1,126.7L108.1,126.7z"/>
	</g>
</g>
<g>
	<g>
		<path class="st4" d="M69.1,139.3c-0.1-0.3-0.2-0.6-0.2-0.9c0,0.1,0,0.3,0.1,0.4c-0.1-0.4-0.1-0.9,0-1.3c0,0.1,0,0.3-0.1,0.4
			c0.1-0.5,0.2-0.9,0.4-1.3c-0.1,0.1-0.1,0.2-0.2,0.4c0.1-0.3,0.3-0.6,0.4-0.8c0-0.1,0.1-0.1,0.1-0.2c0.1-0.1-0.3,0.3,0,0.1
			c0.1-0.1,0.2-0.2,0.3-0.4c0.6-0.5,0.6-1.6,0-2.1c-0.6-0.6-1.5-0.6-2.1,0c-1.7,1.6-2.4,4.3-1.6,6.5c0.2,0.7,1,1.3,1.8,1
			C68.8,140.9,69.3,140.1,69.1,139.3L69.1,139.3z"/>
	</g>
</g>
<g>
	<g>
		<path class="st4" d="M66.9,137.4c0-0.3,0-0.6,0-1c0,0.1,0,0.3-0.1,0.4c0.1-0.4,0.2-0.8,0.3-1.2c-0.1,0.1-0.1,0.2-0.2,0.4
			c0.1-0.2,0.2-0.4,0.3-0.6c0.2-0.3,0.3-0.8,0.2-1.2c-0.1-0.3-0.4-0.7-0.7-0.9c-0.3-0.2-0.8-0.3-1.2-0.2c-0.4,0.1-0.7,0.3-0.9,0.7
			c-0.6,1-1,2.3-0.9,3.5c0,0.4,0.1,0.8,0.4,1.1c0.3,0.3,0.7,0.5,1.1,0.4c0.4,0,0.8-0.1,1.1-0.4C66.8,138.2,67,137.8,66.9,137.4
			L66.9,137.4z"/>
	</g>
</g>
<g>
	<g>
		<path class="st4" d="M143.3,112.6c0.8,0.6,1.6,1.1,2.6,1.5c0.8,0.3,1.7,0.5,2.6,0.5c0.8,0,1.5-0.7,1.5-1.5c0-0.8-0.7-1.5-1.5-1.5
			c-0.3,0-0.5,0-0.8-0.1c0.1,0,0.3,0,0.4,0.1c-0.6-0.1-1.2-0.2-1.7-0.5c0.1,0.1,0.2,0.1,0.4,0.2c-0.5-0.2-1-0.5-1.5-0.9
			c0.1,0.1,0.2,0.2,0.3,0.2c-0.1,0-0.1-0.1-0.2-0.1c-0.3-0.3-0.6-0.4-1.1-0.4c-0.4,0-0.8,0.2-1.1,0.4c-0.3,0.3-0.5,0.7-0.4,1.1
			C142.9,111.9,143,112.3,143.3,112.6L143.3,112.6z"/>
	</g>
</g>
<g>
	<g>
		<path class="st4" d="M172.6,119.7c-0.2,0.8,0.1,1.7,0.9,2.1c0.7,0.4,1.4,0.3,2.1,0c0.6-0.3,1.2-0.9,1.6-1.5
			c0.5-0.7,0.9-1.4,1.2-2.1c0.3-0.7,0.4-1.4,0.5-2.2c0-0.4-0.2-0.8-0.4-1.1c-0.3-0.3-0.7-0.5-1.1-0.4c-0.4,0-0.8,0.1-1.1,0.4
			c-0.3,0.3-0.4,0.6-0.4,1.1c0,0.1,0,0.1,0,0.2c0-0.1,0-0.3,0.1-0.4c-0.1,0.5-0.2,1.1-0.4,1.6c0.1-0.1,0.1-0.2,0.2-0.4
			c-0.2,0.5-0.5,1-0.8,1.4c0.1-0.1,0.2-0.2,0.2-0.3c-0.3,0.4-0.7,0.8-1.1,1.1c0.1-0.1,0.2-0.2,0.3-0.2c-0.1,0.1-0.2,0.1-0.3,0.2
			c0.1-0.1,0.2-0.1,0.4-0.2c-0.1,0-0.1,0-0.2,0.1c0.1,0,0.3,0,0.4-0.1c0,0-0.1,0-0.1,0c0.1,0,0.3,0,0.4,0.1c0,0-0.1,0-0.1,0
			c0.1,0.1,0.2,0.1,0.4,0.2c0,0-0.1,0-0.1-0.1c0.1,0.1,0.2,0.2,0.3,0.2c0,0-0.1-0.1-0.1-0.1c0.1,0.1,0.2,0.2,0.2,0.3c0,0,0,0,0-0.1
			c0.1,0.1,0.1,0.2,0.2,0.4c0,0,0-0.1,0-0.1c0,0.1,0,0.3,0.1,0.4c0,0,0,0,0-0.1c0,0.1,0,0.3-0.1,0.4c0,0,0,0,0-0.1
			c0.2-0.8-0.2-1.7-1-1.8C173.7,118.5,172.8,118.9,172.6,119.7L172.6,119.7z"/>
	</g>
</g>
<g>
	<g>
		<path class="st4" d="M182.4,113.4c1.3-0.3,2.5-1.3,3.1-2.5c0.6-1.2,0.9-2.7,0.3-4c-0.2-0.4-0.3-0.7-0.7-0.9
			c-0.3-0.2-0.8-0.3-1.2-0.2c-0.4,0.1-0.7,0.3-0.9,0.7c-0.2,0.3-0.3,0.8-0.2,1.2c0.1,0.3,0.2,0.5,0.2,0.8c0-0.1,0-0.3-0.1-0.4
			c0,0.3,0,0.6,0,0.9c0-0.1,0-0.3,0.1-0.4c0,0.3-0.1,0.6-0.3,0.9c0.1-0.1,0.1-0.2,0.2-0.4c-0.1,0.3-0.3,0.6-0.5,0.8
			c0.1-0.1,0.2-0.2,0.2-0.3c-0.2,0.3-0.4,0.5-0.7,0.7c0.1-0.1,0.2-0.2,0.3-0.2c-0.2,0.2-0.5,0.3-0.7,0.4c0.1-0.1,0.2-0.1,0.4-0.2
			c-0.1,0.1-0.3,0.1-0.5,0.1c-0.8,0.2-1.3,1.1-1,1.8C180.8,113.1,181.5,113.6,182.4,113.4L182.4,113.4z"/>
	</g>
</g>
<g>
	<g>
		<path class="st4" d="M178.3,124.7c0.6-0.5,1.2-0.9,1.7-1.5c0.5-0.6,1-1.2,1.4-1.8c0.2-0.3,0.3-0.8,0.2-1.2
			c-0.1-0.3-0.4-0.7-0.7-0.9c-0.3-0.2-0.8-0.3-1.2-0.2c-0.4,0.1-0.7,0.3-0.9,0.7c-0.2,0.3-0.4,0.6-0.6,0.9c0.1-0.1,0.2-0.2,0.2-0.3
			c-0.5,0.7-1.1,1.3-1.8,1.8c0.1-0.1,0.2-0.2,0.3-0.2c0,0-0.1,0.1-0.2,0.1c-0.2,0.1-0.3,0.2-0.4,0.4c-0.1,0.1-0.2,0.3-0.3,0.5
			c-0.1,0.4-0.1,0.8,0.2,1.2c0.2,0.3,0.5,0.6,0.9,0.7C177.5,124.9,178,124.9,178.3,124.7L178.3,124.7z"/>
	</g>
</g>
<g>
	<path class="st5" d="M63.6,140.4c2.9,0.1,7.2,0.3,9.2-2.3c1.8-2.3,0.6-6.7,0.3-9.4c-0.2-2-0.9-4.6-0.1-6.5c0.9-2,3-2.3,5.1-2.7
		c13.3-2.3,26.9-5.3,40.4-6.5c0.3-0.4,0.8-0.6,1.4-0.6c2.8-0.1,5.7-0.3,8.5-0.4c1,0,1.9,1.1,1.7,2c-2.4,10.2-2.6,20.2-1.8,30.5
		c0.2,3.1,0.1,6.5-2.3,8.9c-2.6,2.7-6.6,3-10.2,3c-10.6,0-21.1-1.3-31.7-0.2c-4.5,0.5-7.4,0.1-10.9-2.7c-4-3.1-7.7-6.4-11.2-10
		C60.7,142.2,62,140.4,63.6,140.4z"/>
	<g>
		<g>
			<path class="st1" d="M127.2,111.1c0.1,14.8-1,29.6-2.3,44.4c-0.2,1.9,2.8,1.9,3,0c1.3-14.8,2.4-29.6,2.3-44.4
				C130.1,109.1,127.1,109.1,127.2,111.1L127.2,111.1z"/>
		</g>
	</g>
	<g>
		<g>
			<path class="st1" d="M126.4,154c-16.2,1-32.4,1.5-48.6,1.5c-1.9,0-1.9,3,0,3c16.2,0.1,32.4-0.4,48.6-1.5
				C128.4,156.9,128.4,153.9,126.4,154L126.4,154z"/>
		</g>
	</g>
	<g>
		<g>
			<path class="st1" d="M78.2,156.1c-1.9-11.7-3.5-23.5-4.7-35.3c-0.2-1.9-3.2-1.9-3,0c1.2,12.1,2.8,24.1,4.8,36.1
				C75.6,158.8,78.5,157.9,78.2,156.1L78.2,156.1z"/>
		</g>
	</g>
	<g>
		<g>
			<path class="st1" d="M127.3,109.7c-18.2,3.2-36.4,6.1-54.5,9.3c-1.9,0.3-1.1,3.2,0.8,2.9c18.2-3.2,36.4-6.1,54.5-9.3
				C130,112.2,129.2,109.4,127.3,109.7L127.3,109.7z"/>
		</g>
	</g>
	<g>
		<g>
			<g>
				<path class="st1" d="M77.4,155.5c-6.2-3.3-9.7-9.9-15.6-13.6c-0.3,0.9-0.5,1.9-0.8,2.8c0.2,0,0.4,0,0.6,0
					c0.7-0.1,1.4-0.5,1.5-1.3c0.1-0.7-0.3-1.5-1.1-1.6c-0.3,0-0.2,0-0.2-0.1c-0.5,0.4-1,0.7-1.4,1.1c0.4-0.1,0.9-0.1,1.3-0.2
					c0.7-0.1,1.4-0.5,1.5-1.3c0.1-0.7-0.3-1.5-1.1-1.6c-0.2,0-0.4-0.1-0.6-0.1c0,1,0,1.9,0,2.9c3.9-1.5,8-2.5,12.2-2.9
					c0.8-0.1,1.5-0.6,1.5-1.5c0-0.8-0.7-1.6-1.5-1.5c-4.5,0.4-8.8,1.4-13,3c-1.2,0.5-1.6,2.6,0,2.9c0.2,0,0.4,0.1,0.6,0.1
					c0.1-1,0.3-2,0.4-2.9c-0.4,0.1-0.9,0.1-1.3,0.2c-0.6,0.1-1.3,0.4-1.4,1.1c-0.4,1.7,0.6,3.4,2.3,3.8c0.1-1,0.3-2,0.4-2.9
					c-0.2,0-0.4,0-0.6,0c-1.4,0.1-2.1,2-0.8,2.8c5.9,3.7,9.4,10.3,15.6,13.6C77.6,159,79.1,156.4,77.4,155.5L77.4,155.5z"/>
			</g>
		</g>
	</g>
	<g>
		<path class="st6" d="M97.2,132.7c0.5,1.1,1.1,2.2,1.7,3.2c0.9,1.5,2,3,3.7,3.5c1.5,0.5,3.3,0,4.6-1c1.2-1,2-2.6,2.1-4.2
			c0.1-0.7,0-1.6-0.7-1.9c-0.3-0.1-0.7-0.1-1-0.1c-2.5,0.3-4.7,1.9-6.4,3.8c-1.7,1.8-3.1,4-4.8,5.9c-0.4-2.9-0.1-5.8,1-8.5"/>
		<g>
			<path class="st1" d="M96.9,132.9c1,2.3,2.4,5.2,4.7,6.5c2.1,1.2,4.8,0.5,6.4-1.3c0.8-0.9,1.3-2,1.6-3.2c0.2-0.9,0.3-2.1-0.5-2.7
				c-0.9-0.8-2.4-0.3-3.3,0.1c-1.2,0.4-2.2,1.1-3.2,1.8c-2.6,2.1-4.3,5-6.5,7.5c0.2,0.1,0.4,0.1,0.6,0.2c-0.4-2.8,0-5.7,1-8.3
				c0.2-0.4-0.5-0.6-0.7-0.2c-1.1,2.8-1.4,5.8-1,8.7c0,0.3,0.5,0.4,0.6,0.2c2.9-3.4,5.4-8,10-9.3c0.5-0.1,1.3-0.4,1.7-0.1
				c0.5,0.2,0.6,0.9,0.5,1.4c0,1.1-0.4,2.2-1,3.1c-1.2,1.9-3.8,2.9-5.9,1.8c-1.1-0.6-1.9-1.6-2.5-2.6c-0.8-1.2-1.4-2.4-2-3.7
				C97.4,132.1,96.7,132.5,96.9,132.9L96.9,132.9z"/>
		</g>
	</g>
</g>
</svg>
