<?xml version="1.0" encoding="utf-8"?>
<!-- Generator: Adobe Illustrator 26.3.1, SVG Export Plug-In . SVG Version: 6.00 Build 0)  -->
<svg version="1.1" id="Calque_1" xmlns="http://www.w3.org/2000/svg" xmlns:xlink="http://www.w3.org/1999/xlink" x="0px" y="0px"
	 viewBox="0 0 200 200" style="enable-background:new 0 0 200 200;" xml:space="preserve">
<style type="text/css">
	.st0{fill:#666666;}
	.st1{fill:#E7F4DF;}
	.st2{fill:#79A2D8;}
</style>
<g>
	<g>
		<path class="st0" d="M50.9,119.7c-3.3-0.9-5.4-3.1-7.3-5.9c-1.9-2.8-3.4-5.9-5.8-8.4c-2.3-2.4-5.4-4.1-8.7-4.8
			c-1.8-0.4-3.6-0.4-5.3,0.1c-3.4,1.1-5.7,4.4-6,8c-0.3,3.5,1.3,7,3.8,9.5c2.5,2.5,4.1,3.6,8,5.3c-1.3,0.5-2.7,3.5-2.6,3.8
			c0.2,0.6,1.6-0.1,2.1-0.1c3.9-0.2,7.4,1.9,11,3.5s6.8,1.2,10.6,0.5"/>
		<g>
			<path class="st1" d="M51.3,118.3c-4.7-1.4-6.8-5.8-9.3-9.7c-2.7-4.2-6.2-7.5-11-8.9c-4.7-1.4-9.6-0.7-12.7,3.3
				c-2.8,3.8-2.8,8.8-0.6,12.8c2.3,4.3,6.6,7.2,11,9.1c0-0.9,0-1.7,0-2.6c-1,0.5-1.8,1.5-2.4,2.5c-0.4,0.7-1,1.6-1,2.5
				c0,1.4,1.4,1.9,2.6,1.7c0.4-0.1,0.9-0.2,1.3-0.3c0.8-0.1,1.7,0.1,2.5,0.3c3.3,0.8,6.1,2.8,9.3,3.7c3.3,1,6.6,0.5,9.9-0.1
				c1.9-0.4,1.1-3.2-0.8-2.9c-2.6,0.5-5.3,0.9-7.9,0.2c-2.6-0.7-4.9-2.2-7.5-3.2c-2.1-0.8-4.6-1.4-6.9-0.9c0,0-0.5,0.1-0.6,0.1
				c-0.3,0-0.2,0.3,0.5,0.8c0.3,0.8,0.5,1,0.6,0.6c0.1-0.1,0.3-0.7,0.4-0.8c0.4-0.7,0.8-1.5,1.5-1.8c0.9-0.5,1-2.2,0-2.6
				c-3.4-1.4-6.6-3.3-8.8-6.3c-2.5-3.2-3.2-7.8-0.7-11.2c2.7-3.6,7.5-3.3,11.2-1.6c4.1,1.9,6.5,5.3,8.8,9.1c2.4,3.9,5.1,7.5,9.7,8.9
				C52.3,121.7,53.1,118.8,51.3,118.3L51.3,118.3z"/>
		</g>
	</g>
	<g>
		<g>
			<path class="st1" d="M24.5,100.9c-1.3,3.2-2,6.6-2.2,10c-0.1,1.7-0.1,3.5,0.1,5.2c0.1,0.8,0.2,1.6,0.3,2.3
				c0.1,0.5,0.3,0.8,0.8,0.8c0.5,0,0.5-0.7,0-0.8c-0.3,0-0.5-4-0.5-4.5c-0.1-1.4,0-2.8,0.1-4.2c0.3-3,1-5.9,2.1-8.7
				C25.4,100.7,24.7,100.5,24.5,100.9L24.5,100.9z"/>
		</g>
	</g>
	<g>
		<g>
			<path class="st1" d="M28.4,100.7c-0.8,1-0.8,2.6-1,3.8c-0.3,2.2-0.3,4.5-0.3,6.7c0,2.3,0.1,4.7,0.4,7c0.1,0.9,0.2,1.8,0.4,2.6
				c0.1,0.5,0.2,1.6,0.8,1.8c0.1,0.1,0.3,0.1,0.5-0.1c0.1-0.2,0.2-0.3,0.1-0.5c0-0.2-0.2-0.3-0.4-0.3c0,0,0,0-0.1,0
				c-0.5,0-0.5,0.7,0,0.8c0,0,0,0,0.1,0c-0.1-0.1-0.2-0.2-0.4-0.3c0-0.1,0-0.2,0.1-0.2c0.2,0,0.3,0,0.5-0.1
				c-0.4-0.1-0.5-1.6-0.6-1.9c-0.2-0.9-0.3-1.9-0.4-2.8c-0.2-2.2-0.3-4.3-0.3-6.5c0-2.1,0.1-4.1,0.3-6.1c0.1-1.1,0.2-2.7,0.9-3.6
				C29.4,100.7,28.7,100.3,28.4,100.7L28.4,100.7z"/>
		</g>
	</g>
	<g>
		<g>
			<path class="st1" d="M26.7,101c-1.1,1.2-1.2,2.9-1.4,4.4c-0.3,1.8-0.4,3.6-0.5,5.5c-0.1,1.9,0,3.8,0.2,5.8
				c0.1,0.9,0.2,1.8,0.4,2.7c0.1,0.6,0.1,1.4,0.5,1.8c0.1,0.1,0.2,0.1,0.4,0.1c0,0,0.1,0,0.1,0c0.2-0.1,0.3-0.2,0.3-0.4
				c0,0,0-0.1,0-0.1c0-0.5-0.8-0.5-0.8,0c0,0,0,0.1,0,0.1c0.1-0.1,0.2-0.2,0.3-0.4c0.3,0.2,0.3,0.1,0.1-0.3c0-0.2-0.1-0.4-0.1-0.5
				c-0.1-0.4-0.2-0.9-0.2-1.3c-0.1-0.8-0.2-1.6-0.3-2.5c-0.1-1.6-0.2-3.2-0.1-4.8c0-1.6,0.2-3.2,0.4-4.8c0.2-1.5,0.2-3.5,1.3-4.7
				C27.5,101.2,27,100.7,26.7,101L26.7,101z"/>
		</g>
	</g>
	<g>
		<g>
			<path class="st1" d="M30.1,100.8c-1.3,5.8-0.9,12.1-0.5,18c0.1,0.7,0.1,1.5,0.2,2.2c0,0.4,0.1,0.8,0.1,1.2c0,0.2,0.2,0.5,0.2,0.7
				c0,0.3-0.1,0.7,0,1.1c0.1,0.6,0.1,2.7,0.8,2.9c0.5,0.2,0.6-0.6,0.2-0.7c0.3,0.1,0.1,0,0.1-0.3c0-0.3-0.1-0.6-0.2-0.9
				c-0.1-0.6-0.2-1.2-0.2-1.7c0-0.2,0,0.3-0.1,0.1c0,0,0.1-0.1,0.1-0.2c0-0.6-0.1-1.2-0.2-1.8c-0.1-1.4-0.3-2.8-0.3-4.2
				c-0.3-5.4-0.6-11,0.5-16.3C30.9,100.6,30.2,100.4,30.1,100.8L30.1,100.8z"/>
		</g>
	</g>
	<g>
		<g>
			<path class="st1" d="M31.7,102.7c-0.9,4.2-0.3,8.5,0,12.7c0.4,4.4,0.8,8.7,2.1,12.9c0.1,0.4,0.6,0.3,0.7,0c0-0.1,0.1-0.2,0.1-0.4
				c0.2-0.5-0.5-0.6-0.7-0.2c0,0.1-0.1,0.2-0.1,0.4c0.2,0,0.5,0,0.7,0c-1.2-4.1-1.7-8.4-2.1-12.7c-0.3-4.2-1-8.4-0.1-12.5
				C32.5,102.5,31.8,102.3,31.7,102.7L31.7,102.7z"/>
		</g>
	</g>
	<g>
		<g>
			<path class="st1" d="M33.5,103.1c-0.2,4.8-0.1,9.7,0.4,14.5c0.2,2.2,0.5,4.5,0.9,6.7c0.2,1,0.4,2.1,0.8,3.1
				c0.2,0.5,0.3,1.5,0.8,1.7c0.2,0.1,0.4,0,0.5-0.1c0.1-0.1,0.1-0.3,0.1-0.4c-0.1-0.2-0.2-0.3-0.5-0.3c0,0,0,0-0.1,0
				c-0.5,0.1-0.3,0.8,0.2,0.7c0,0,0,0,0.1,0c-0.2-0.1-0.3-0.2-0.5-0.3c0,0,0-0.1,0-0.1c0.2,0,0.3-0.1,0.5-0.1c-0.5-0.2-0.9-2.6-1-3
				c-0.2-0.9-0.4-1.8-0.5-2.7c-0.4-2.3-0.6-4.5-0.8-6.8c-0.4-4.3-0.4-8.6-0.3-12.8C34.2,102.6,33.5,102.6,33.5,103.1L33.5,103.1z"/>
		</g>
	</g>
	<g>
		<g>
			<path class="st1" d="M35.8,104.4c-0.6,8.7,1,17.3,2.7,25.8c0.1,0.3,0.5,0.4,0.7,0.1c0.1-0.1,0.2-0.3,0.3-0.4
				c0.2-0.4-0.4-0.8-0.6-0.4c-0.1,0.1-0.2,0.3-0.3,0.4c0.2,0,0.5,0.1,0.7,0.1c-1.7-8.4-3.3-16.9-2.7-25.6
				C36.5,103.9,35.8,103.9,35.8,104.4L35.8,104.4z"/>
		</g>
	</g>
	<g>
		<g>
			<path class="st1" d="M37.5,107c-0.2,4.1,0.4,8.3,1.1,12.3c0.4,2.1,0.8,4.2,1.1,6.3c0.3,1.9,0.6,3.8,1.5,5.5
				c0.1,0.2,0.5,0.2,0.6,0c0.1-0.1,0.1-0.3,0.2-0.4c0.2-0.4-0.4-0.8-0.6-0.4c-0.1,0.1-0.1,0.3-0.2,0.4c0.2,0,0.4,0,0.6,0
				c-0.9-1.8-1.1-3.8-1.5-5.8c-0.3-2-0.7-3.9-1.1-5.9c-0.7-4-1.3-8.1-1.1-12.1C38.3,106.5,37.6,106.5,37.5,107L37.5,107z"/>
		</g>
	</g>
	<g>
		<g>
			<path class="st1" d="M39.7,109.7c0.1,4,0.2,7.9,0.6,11.9c0.2,1.8,0.5,3.6,0.9,5.3c0.2,0.9,0.5,1.9,0.8,2.8
				c0.2,0.5,0.2,1.4,0.8,1.7c0.1,0.1,0.3,0.1,0.5-0.1c0.2-0.2,0.2-0.3,0.1-0.5c0-0.1-0.2-0.3-0.4-0.3c0,0,0,0-0.1,0
				c-0.5,0-0.5,0.8,0,0.8c0,0,0,0,0.1,0c-0.1-0.1-0.2-0.2-0.4-0.3c0-0.1,0-0.1,0.1-0.2c0.2,0,0.3,0,0.5-0.1
				c-0.4-0.2-0.7-2.2-0.9-2.6c-0.2-0.9-0.5-1.7-0.6-2.6c-0.4-1.8-0.6-3.6-0.8-5.4c-0.3-3.5-0.4-7-0.5-10.5
				C40.5,109.2,39.7,109.2,39.7,109.7L39.7,109.7z"/>
		</g>
	</g>
	<g>
		<g>
			<path class="st1" d="M41.9,113c0,3.6,0,7.2,0.4,10.8c0.2,1.5,0.5,3,1,4.4c0.3,0.7,0.6,1.4,0.9,2.1c0.2,0.4,0.5,1.1,0.9,1.2
				c0.1,0,0.4,0,0.4-0.2c0.1-0.2,0.1-0.3,0-0.5c-0.1-0.2-0.3-0.2-0.5-0.1c0,0,0,0,0,0c-0.4,0.2-0.1,0.8,0.4,0.6c0,0,0,0,0,0
				c-0.2,0-0.3-0.1-0.5-0.1c0,0,0,0,0,0.1c0-0.1,0-0.3,0-0.4c0,0,0,0,0,0.1c0.1-0.1,0.3-0.1,0.4-0.2c-0.3-0.1-0.8-1.5-1-1.8
				c-0.3-0.7-0.6-1.4-0.8-2.1c-0.4-1.5-0.7-3-0.8-4.5c-0.3-3.1-0.3-6.3-0.3-9.4C42.6,112.5,41.9,112.5,41.9,113L41.9,113z"/>
		</g>
	</g>
	<g>
		<g>
			<path class="st1" d="M43.6,115.3c0.3,2.9,0.1,5.8,0.5,8.7c0.4,2.7,1.3,5.2,2.6,7.6c0.2,0.4,0.9,0,0.6-0.4
				c-1.2-2.3-2.1-4.8-2.5-7.4c-0.4-2.8-0.2-5.6-0.5-8.5C44.3,114.8,43.5,114.8,43.6,115.3L43.6,115.3z"/>
		</g>
	</g>
	<g>
		<g>
			<path class="st1" d="M45,116.8c0.1,2.5,0.1,5,0.4,7.4c0.2,2.2,0.9,4.3,1.9,6.3c0.2,0.4,0.9,0,0.6-0.4c-1-2-1.7-4.1-1.9-6.4
				c-0.2-2.3-0.2-4.6-0.3-6.9C45.7,116.3,44.9,116.3,45,116.8L45,116.8z"/>
		</g>
	</g>
	<g>
		<g>
			<path class="st1" d="M47.4,119.1c-0.3,2.6-0.5,5.2-0.3,7.8c0.1,1.2,0.3,2.4,0.6,3.6c0.1,0.3,0.2,0.9,0.6,0.9
				c0.3,0,0.5-0.2,0.5-0.5c0-0.5-0.7-0.5-0.8,0c0.4,0,0.5-0.1,0.4-0.4c0-0.1-0.1-0.2-0.1-0.3c-0.1-0.2-0.1-0.5-0.2-0.8
				c-0.1-0.4-0.2-0.9-0.2-1.3c-0.1-1-0.2-2.1-0.2-3.1c0-2,0.2-4,0.4-5.9C48.2,118.6,47.4,118.6,47.4,119.1L47.4,119.1z"/>
		</g>
	</g>
	<g>
		<g>
			<path class="st1" d="M49.4,120c-0.2,2-0.5,4-0.7,6.1c-0.1,1-0.1,1.9-0.1,2.9c0,0.4,0.1,0.9,0.1,1.3c0.1,0.4,0.1,0.8,0.4,1
				c0.1,0.1,0.3,0,0.5-0.1c0.1-0.1,0.2-0.2,0.1-0.3c0-0.2-0.1-0.3-0.3-0.4c0,0,0,0,0,0c-0.5-0.1-0.7,0.6-0.2,0.7c0,0,0,0,0,0
				c-0.1-0.1-0.2-0.2-0.3-0.4c0,0,0,0,0,0.1c0-0.1,0.1-0.2,0.1-0.3c0,0,0,0,0,0c0.2,0,0.3,0,0.5-0.1c0.1,0.2,0.1,0.1,0-0.1
				c0-0.1,0-0.2-0.1-0.3c0-0.3-0.1-0.5-0.1-0.8c0-0.4-0.1-0.8-0.1-1.2c0-0.9,0.1-1.8,0.2-2.7c0.2-1.8,0.5-3.6,0.7-5.4
				C50.2,119.5,49.4,119.5,49.4,120L49.4,120z"/>
		</g>
	</g>
	<g>
		<g>
			<path class="st1" d="M22.8,101.4c-2.1,4.6-3.2,9.7-3.1,14.8c0,0.2,0.2,0.4,0.4,0.4c0.2,0,0.5,0,0.7-0.1c0.5,0,0.5-0.8,0-0.8
				c-0.2,0-0.5,0-0.7,0.1c0.1,0.1,0.2,0.2,0.4,0.4c-0.1-5,1-9.9,3-14.4C23.6,101.4,23,101,22.8,101.4L22.8,101.4z"/>
		</g>
	</g>
</g>
<g>
	<path class="st2" d="M178.9,40.3c-0.1-1.2-0.2-2.3-0.4-3.5c-0.2-1-0.3-2.1-1.3-2.4c-0.9-0.3-2.2,0.4-3.1,0.6
		c-1.2,0.3-2.4,0.6-3.6,1c-2.4,0.7-4.9,1.3-7.3,2c-0.2,0.1-0.4,0.2-0.5,0.3c-0.2,0-0.3,0.1-0.5,0.1c-1.2,0.2-2.4,0.5-3.6,0.7
		c-2.2,0.4-4.3,0.8-6.3,1.8c-4,1.9-8.1,3.3-12.6,3.6c-0.1,0-0.2,0-0.3,0c-0.2,0-0.4,0-0.6,0c-1.8,0.4-4.4,1.4-4.4,3.5
		c0,1.2,0.2,2.4,0.3,3.5c0.1,1.3,0.2,2.6,0.3,3.9c0.1,0.7,0.5,1.2,1.3,1.3c0.6,0,1.1-0.1,1.6-0.4c0.2-0.1,0.9-0.7,1-0.7
		c0.2,0,0.8,1.5,1,1.8c0.3,0.7,0.6,1.4,0.8,2.1c0.5,1.4,0.8,2.8,1,4.3c0.2,1.4,1.1,2.5,2.7,2.2c0.7-0.1,1.1-0.9,0.9-1.6
		c-0.8-2.7-1.3-5.4-1.7-8.1c-0.1-0.7-0.1-1.3-0.2-2c0-0.5-0.2-1.3,0-1.8c0.4-0.9,2.2-1.3,3-1.5c0.4-0.1,1.1-0.5,1.4-0.3
		c0.3,0.2,0.4,1.6,0.5,2c0.3,1.3,0.5,2.7,0.6,4c0.2,2.7,0.3,5.3,1.2,7.9c0.2,0.5,0.6,0.9,1.2,0.9c1.1,0,2.3,0.1,2.9-0.9
		c0.6-0.9,0.3-1.9,0.1-2.8c-0.5-2.5,0.6-5,1.7-7.2c0.1-0.1,0.1-0.3,0.2-0.4c0,0.1,0.3,0,0.5,0c0.5,0.1,1,0.2,1.4,0.4
		c0.8,0.4,1.4,1,1.5,2c0.3,2.1-0.3,4,1.1,5.8c0.3,0.3,0.8,0.4,1.2,0.3c1.5-0.4,3.1-0.7,4.7-0.8c0.9,0,1.3-0.8,1.2-1.6
		c-0.5-3.2-1.2-6.4-2.2-9.5c-0.3-0.8-0.5-1.6-0.8-2.5c-0.1-0.4-0.3-0.7-0.4-1.1c0-0.1-0.1-0.2-0.1-0.3c1.2-0.3,3.7-0.9,4-1
		c0.4-0.1,0.8-0.1,1.2-0.2c0.2,0,0.4,0,0.6-0.1c0,0,0,0,0.1,0c0.4,0.5,0.4,1.6,0.4,2.2c0.2,1.5,0.3,3.1,0.5,4.6
		c0.3,1.6,0.7,3.1,1.2,4.6c0.4,1.5,0.8,2.9,1.6,4.3c0.6,1,2.5,0.7,2.4-0.6c-0.2-2.8-0.7-5.6-1.5-8.3c-0.2-0.6-0.4-1.2-0.6-1.8
		c-0.1-0.2-0.4-1.1-0.2-1.3c0.2-0.2,1.2-0.1,1.4-0.1c0.8-0.1,1.5-0.1,2.3-0.2c0.7-0.1,1.2-0.5,1.3-1.3
		C179.1,45.1,179.1,42.7,178.9,40.3z"/>
</g>
<g>
	<g>
		<g>
			<path class="st1" d="M133.4,47.1c1.6,16.2,3.3,32.3,4.9,48.5c0.2,1.9,3.2,1.9,3,0c-1.6-16.2-3.3-32.3-4.9-48.5
				C136.2,45.2,133.2,45.2,133.4,47.1L133.4,47.1z"/>
		</g>
	</g>
	<g>
		<g>
			<path class="st1" d="M135.5,47.7c14.1-4.8,28.5-8.8,43.1-11.8c1.9-0.4,1.1-3.3-0.8-2.9c-14.6,3.1-29,7-43.1,11.8
				C132.9,45.4,133.7,48.3,135.5,47.7L135.5,47.7z"/>
		</g>
	</g>
	<g>
		<g>
			<path class="st1" d="M177.3,33.8c0.7,12.4,2.8,24.6,6.4,36.5c0.5-0.6,1-1.3,1.4-1.9c-15.7-1-31.5,0.7-46.6,5.1
				c-1.8,0.5-1.1,3.4,0.8,2.9c14.9-4.3,30.4-6,45.8-5c1,0.1,1.7-1,1.4-1.9c-3.5-11.6-5.6-23.6-6.3-35.7
				C180.2,31.9,177.2,31.9,177.3,33.8L177.3,33.8z"/>
		</g>
	</g>
	<g>
		<g>
			<path class="st1" d="M136.9,57.9c0.5-0.3,0.9-0.5,1.4-0.8c0.2-0.1,0.4-0.2,0.6-0.3c0.1-0.1,0.3-0.1,0.4-0.2
				c0.2-0.1,0.2-0.1-0.1-0.1c0,0.5,0.3,1.2,0.5,1.7c0.2,0.6,0.3,1.1,0.5,1.7c0.6,2.3,1.2,4.5,1.8,6.8c0.1,0.4,0.5,0.6,0.9,0.5
				c0.8-0.3,1.6-0.5,2.4-0.8c0.5-0.2,0.9-0.3,1.2-0.7c0.3-0.5,0.1-1.2,0-1.7c-0.1-0.7-0.3-1.5-0.4-2.2c-0.6-3.1-1.3-6.3-1.9-9.4
				c-0.1,0.3-0.2,0.6-0.3,0.8c1.6-1,3.2-1.7,5-2.1c-0.3-0.2-0.6-0.5-0.9-0.7c0.5,4.9,1.1,9.7,1.6,14.6c0.1,0.9,1.6,1,1.5,0
				c-0.5-4.9-1.1-9.7-1.6-14.6c-0.1-0.5-0.4-0.8-0.9-0.7c-1.9,0.4-3.7,1.2-5.4,2.2c-0.3,0.2-0.4,0.5-0.3,0.8c0.5,2.6,1,5.1,1.6,7.7
				c0.3,1.3,0.5,2.5,0.8,3.8c0,0.2,0.1,0.3,0.1,0.5c0,0.3,0,0.4,0.1,0.3c0-0.1-0.6,0.2-0.7,0.2c-0.7,0.2-1.3,0.4-2,0.6
				c0.3,0.2,0.6,0.3,0.9,0.5c-0.8-2.8-1.5-5.7-2.3-8.5c-0.2-0.9-0.4-2.6-1.5-2.8c-0.6-0.1-1.2,0.4-1.7,0.6c-0.6,0.3-1.2,0.6-1.8,1
				C135.3,57,136,58.3,136.9,57.9L136.9,57.9z"/>
		</g>
	</g>
	<g>
		<g>
			<path class="st1" d="M150.4,66c1.4,0,2.8,0,4.2,0c0.4,0,0.8-0.3,0.8-0.8c0-0.4-0.3-0.8-0.8-0.8c-1.4,0-2.8,0-4.2,0
				c-0.4,0-0.8,0.3-0.8,0.8C149.7,65.7,150,66,150.4,66L150.4,66z"/>
		</g>
	</g>
	<g>
		<g>
			<path class="st1" d="M155.5,65.6c0.3-1.1,0.2-2.2-0.1-3.3c-0.3-1.1-0.7-2-0.4-3.1c0.5-1.8,1.9-3.3,2.4-5.2
				c-0.4,0.1-0.7,0.3-1.1,0.4c0.7,0.4,1.5,0.7,2.2,1.1c0.3,0.1,0.6,0.2,0.9,0.4c0.3,0.2,0.2,0.5,0.2,0.8c-0.1,1.6-0.1,3.2,0.1,4.8
				c0.1,0.6,0.1,1.2,0.5,1.7c0.5,0.5,1.2,0.3,1.9,0.2c1.6-0.3,3.3-0.6,4.9-0.9c0.9-0.2,0.5-1.6-0.4-1.4c-1.5,0.3-3,0.6-4.4,0.8
				c-0.2,0-0.4,0.1-0.6,0.1c0,0-0.5,0.1-0.3,0.1c0.1,0.1,0.1,0.1,0-0.1c0-0.1,0-0.1,0-0.2c0-0.2,0-0.3,0-0.5
				c-0.1-0.8-0.1-1.6-0.1-2.3c0-0.7,0-1.5,0.1-2.2c0-0.6,0-1.2-0.4-1.7c-0.4-0.4-1-0.7-1.5-0.9c-0.7-0.3-1.4-0.7-2.1-1
				c-0.4-0.2-1,0-1.1,0.4c-0.5,1.8-1.9,3.3-2.4,5.2c-0.3,1-0.2,1.9,0.1,2.9c0.4,1.2,0.7,2.3,0.4,3.5
				C153.9,66.1,155.3,66.5,155.5,65.6L155.5,65.6z"/>
		</g>
	</g>
	<g>
		<g>
			<path class="st1" d="M168.6,61.5c-0.6-2.5-0.8-5.1-1.4-7.7c-0.6-2.5-1.4-5-2.4-7.4c-0.2,0.3-0.3,0.6-0.5,0.9
				c1.9-0.4,3.8-0.8,5.7-1.3c0.6-0.2,0.2-0.2,0.3,0.1c0.1,0.2,0,0.5,0.1,0.6c0.1,0.5,0.1,0.9,0.2,1.4c0.1,1,0.3,1.9,0.4,2.8
				c0.7,3.8,1.7,7.5,2.9,11.1c0.1,0.4,0.5,0.6,0.9,0.5c0.9-0.2,1.7-0.6,2.4-1.2c0.3-0.2,0.4-0.5,0.3-0.8c-1.1-3.9-1.9-7.8-2.7-11.7
				c-0.3,0.3-0.6,0.6-0.9,0.9c0.9,0.2,1.9,0.3,2.8,0.1c0.4-0.1,0.9-0.2,1.3-0.4c0.3-0.1,1-0.7,1.4-0.6c-0.2-0.1-0.4-0.1-0.5-0.2
				c0-0.2,0-0.4,0-0.6c0.2-0.1,0.4-0.1,0.5-0.2c0,0-0.1,0-0.1,0c-1-0.1-0.9,1.4,0,1.5c1.3,0.2,1.2-2.1-0.2-1.9
				c-0.7,0.1-1.4,0.7-2.1,0.9c-0.9,0.2-1.8,0.2-2.7,0c-0.6-0.1-1,0.4-0.9,0.9c0.7,4,1.6,7.9,2.7,11.7c0.1-0.3,0.2-0.6,0.3-0.8
				c-0.6,0.5-1.3,0.8-2,1c0.3,0.2,0.6,0.3,0.9,0.5c-1.5-4.2-2.6-8.5-3.2-12.8c-0.2-1-0.2-2.1-0.4-3.1c-0.1-0.7-0.5-1.3-1.3-1.3
				c-1,0-2.1,0.4-3,0.7c-1.2,0.3-2.3,0.5-3.5,0.8c-0.4,0.1-0.7,0.6-0.5,0.9c1,2.4,1.8,4.9,2.4,7.4c0.6,2.5,0.8,5.1,1.4,7.7
				C167.4,62.8,168.8,62.4,168.6,61.5L168.6,61.5z"/>
		</g>
	</g>
	<g>
		<g>
			<path class="st1" d="M139.4,55.8c-0.3,0.9-0.6,1.9-0.8,2.8c-0.1,0.5-0.3,0.9-0.4,1.4c-0.1,0.2-0.1,0.4-0.2,0.7
				c0,0.1-0.1,0.2-0.1,0.3c0,0.1,0,0.1-0.1,0.2c-0.1,0.1,0,0.1,0,0.1c-0.4,0.2,0,0.9,0.4,0.6c0.2-0.1,0.2-0.3,0.3-0.5
				c0.1-0.3,0.1-0.5,0.2-0.8c0.2-0.5,0.3-1.1,0.5-1.6c0.3-1,0.6-2.1,0.9-3.1C140.2,55.5,139.5,55.3,139.4,55.8L139.4,55.8z"/>
		</g>
	</g>
	<g>
		<g>
			<path class="st1" d="M140.2,58c-0.8,2.7-1.6,5.4-2.5,8.1c-0.1,0.5,0.6,0.7,0.7,0.2c0.8-2.7,1.6-5.4,2.5-8.1
				C141.1,57.7,140.4,57.5,140.2,58L140.2,58z"/>
		</g>
	</g>
	<g>
		<g>
			<path class="st1" d="M141.1,62.7c-1.2,2.6-2.2,5.2-3,7.9c-0.1,0.5,0.6,0.7,0.7,0.2c0.8-2.6,1.7-5.2,2.9-7.7
				C141.9,62.7,141.3,62.3,141.1,62.7L141.1,62.7z"/>
		</g>
	</g>
	<g>
		<g>
			<path class="st1" d="M142.3,65.5c-0.3,2.1-1.1,4.2-2.2,6c-0.3,0.4,0.4,0.8,0.6,0.4c1.1-1.9,1.9-4,2.2-6.2
				C143.1,65.3,142.4,65.1,142.3,65.5L142.3,65.5z"/>
		</g>
	</g>
	<g>
		<g>
			<path class="st1" d="M144.9,52.5c-0.4,1.6-0.8,3.2-1.2,4.8c-0.1,0.5,0.6,0.7,0.7,0.2c0.4-1.6,0.8-3.2,1.2-4.8
				C145.8,52.2,145,52,144.9,52.5L144.9,52.5z"/>
		</g>
	</g>
	<g>
		<g>
			<path class="st1" d="M146.3,52.8c-0.6,2.3-1.1,4.7-1.7,7c-0.1,0.5,0.6,0.7,0.7,0.2c0.6-2.3,1.1-4.7,1.7-7
				C147.2,52.5,146.5,52.3,146.3,52.8L146.3,52.8z"/>
		</g>
	</g>
	<g>
		<g>
			<path class="st1" d="M148.1,53.5c-0.8,2.8-1.6,5.6-2.4,8.4c-0.1,0.5,0.6,0.7,0.7,0.2c0.8-2.8,1.6-5.6,2.4-8.4
				C149,53.2,148.3,53,148.1,53.5L148.1,53.5z"/>
		</g>
	</g>
	<g>
		<g>
			<path class="st1" d="M148.4,58.6c-1,2.4-1.9,4.8-2.9,7.2c-0.2,0.4,0.5,0.6,0.7,0.2c1-2.4,1.9-4.8,2.9-7.2
				C149.3,58.4,148.6,58.2,148.4,58.6L148.4,58.6z"/>
		</g>
	</g>
	<g>
		<g>
			<path class="st1" d="M149.8,61.8c-1.4,2.9-2.8,5.9-4.2,8.8c-0.2,0.4,0.4,0.8,0.6,0.4c1.4-2.9,2.8-5.9,4.2-8.8
				C150.7,61.8,150,61.4,149.8,61.8L149.8,61.8z"/>
		</g>
	</g>
	<g>
		<g>
			<path class="st1" d="M145.6,65.8c-0.5,2-1.2,4-1.9,6c-0.2,0.5,0.6,0.6,0.7,0.2c0.7-2,1.4-4,1.9-6
				C146.4,65.6,145.7,65.4,145.6,65.8L145.6,65.8z"/>
		</g>
	</g>
	<g>
		<g>
			<path class="st1" d="M150.1,65.5c-0.4,1.4-0.9,2.8-1.3,4.2c-0.1,0.5,0.6,0.7,0.7,0.2c0.4-1.4,0.9-2.8,1.3-4.2
				C151,65.3,150.2,65.1,150.1,65.5L150.1,65.5z"/>
		</g>
	</g>
	<g>
		<g>
			<path class="st1" d="M157,55.5c0.1-0.1,0.1-0.1,0.1-0.2c0-0.1,0.1-0.2,0.1-0.2c0-0.1,0-0.1,0-0.2c0-0.1,0-0.1,0-0.2
				c0-0.1,0-0.2-0.1-0.2c0-0.1-0.1-0.1-0.1-0.1c0,0-0.1,0-0.1,0c0,0-0.1,0-0.1,0c-0.1,0-0.1,0-0.2,0.1c0,0-0.1,0.1-0.1,0.1
				c-0.1,0.1-0.1,0.1-0.1,0.2c0,0.1-0.1,0.2-0.1,0.2c0,0.1,0,0.2,0,0.3c0,0.1,0,0.1,0,0.1c0,0,0,0.1,0.1,0.1
				c0.1,0.1,0.2,0.1,0.3,0.1c0.1,0,0.2,0,0.3-0.1c0,0,0-0.1,0.1-0.1c0-0.1,0.1-0.1,0.1-0.2c0,0,0,0,0-0.1c0,0,0,0.1,0,0.1
				c0-0.1,0-0.1,0.1-0.2c0,0,0,0.1,0,0.1c0-0.1,0.1-0.1,0.1-0.2c0,0,0,0.1-0.1,0.1c0,0,0.1-0.1,0.1-0.1c-0.2,0-0.4-0.1-0.6-0.1
				c0,0,0,0,0,0c0,0,0-0.1,0-0.1c0,0,0,0.1,0,0.1c0,0,0-0.1,0-0.1c0,0,0,0.1,0,0.1c0,0,0-0.1,0-0.1c0,0,0,0.1,0,0.1c0,0,0-0.1,0-0.1
				c0,0,0,0.1-0.1,0.1c0,0,0-0.1,0.1-0.1c0,0,0,0,0,0c-0.1,0.1-0.1,0.2-0.1,0.3c0,0.1,0,0.2,0.1,0.3c0.1,0.1,0.2,0.1,0.3,0.1
				C156.9,55.6,157,55.5,157,55.5L157,55.5z"/>
		</g>
	</g>
	<g>
		<g>
			<path class="st1" d="M158.2,55.9c0.2-0.2,0.3-0.4,0.3-0.7c0-0.4-0.5-0.5-0.7-0.2c-1,1.7-1.9,3.6-2.8,5.4
				c-0.2,0.4,0.5,0.8,0.6,0.4c0.8-1.9,1.7-3.7,2.8-5.4c-0.2-0.1-0.5-0.1-0.7-0.2c0,0.1,0,0.1,0,0.1
				C157.3,55.7,157.9,56.2,158.2,55.9L158.2,55.9z"/>
		</g>
	</g>
	<g>
		<g>
			<path class="st1" d="M159.4,55.3c-1.4,2.6-2.7,5.3-4.1,7.9c-0.2,0.4,0.4,0.8,0.6,0.4c1.4-2.6,2.7-5.3,4.1-7.9
				C160.3,55.3,159.6,54.9,159.4,55.3L159.4,55.3z"/>
		</g>
	</g>
	<g>
		<g>
			<path class="st1" d="M159.9,58.6c-2,3.6-4.1,7.2-6.3,10.7c-0.3,0.4,0.4,0.8,0.6,0.4c2.2-3.5,4.3-7,6.3-10.7
				C160.8,58.6,160.1,58.2,159.9,58.6L159.9,58.6z"/>
		</g>
	</g>
	<g>
		<g>
			<path class="st1" d="M153.9,65.8c-0.8,1.4-1.6,2.9-2.4,4.3c-0.2,0.4,0.4,0.8,0.6,0.4c0.8-1.4,1.6-2.9,2.4-4.3
				C154.8,65.7,154.2,65.3,153.9,65.8L153.9,65.8z"/>
		</g>
	</g>
	<g>
		<g>
			<path class="st1" d="M160.3,62.4c-0.7,1.6-1.5,3.1-2.4,4.6c-0.4,0.7-0.9,1.4-1.4,2.1c-0.2,0.3-0.5,0.6-0.2,0.9
				c0.2,0.2,0.5,0.2,0.8,0c0.4-0.3,0-0.9-0.4-0.6c-0.1,0-0.1,0.1,0.1,0c0.1,0.1,0.1,0.1,0.2,0.2c0,0,0,0,0-0.1c0,0.1,0,0.2,0,0.3
				c1.6-2.2,2.9-4.6,4.1-7.1C161.1,62.3,160.5,61.9,160.3,62.4L160.3,62.4z"/>
		</g>
	</g>
	<g>
		<g>
			<path class="st1" d="M163.6,62.3c-1.1,2.6-3.2,4.6-4.3,7.3c-0.2,0.4,0.4,0.6,0.6,0.4c0.2-0.1,0.3-0.3,0.5-0.4
				c0.4-0.3-0.2-0.8-0.5-0.5c-0.2,0.1-0.3,0.3-0.5,0.4c0.2,0.1,0.4,0.2,0.6,0.4c1.1-2.5,3.1-4.6,4.2-7.1
				C164.5,62.2,163.8,61.8,163.6,62.3L163.6,62.3z"/>
		</g>
	</g>
	<g>
		<g>
			<path class="st1" d="M165.2,62.9c-1,1.7-2,3.4-3,5.1c-0.2,0.4,0.4,0.8,0.6,0.4c1-1.7,2-3.4,3-5.1
				C166.1,62.8,165.5,62.4,165.2,62.9L165.2,62.9z"/>
		</g>
	</g>
	<g>
		<g>
			<path class="st1" d="M167.8,61.1c-0.5,2.7-2.9,4.5-3.8,7c-0.2,0.5,0.6,0.7,0.7,0.2c0.9-2.6,3.3-4.3,3.8-7
				C168.6,60.8,167.9,60.6,167.8,61.1L167.8,61.1z"/>
		</g>
	</g>
	<g>
		<g>
			<path class="st1" d="M167.9,45.9c-0.6,1.8-1.4,3.6-2.5,5.2c-0.3,0.4,0.4,0.8,0.6,0.4c1.1-1.6,2-3.4,2.6-5.3
				C168.8,45.6,168.1,45.4,167.9,45.9L167.9,45.9z"/>
		</g>
	</g>
	<g>
		<g>
			<path class="st1" d="M170.1,45.7c-0.8,2-1.7,4-2.9,5.8c-0.3,0.4,0.4,0.8,0.6,0.4c1.2-1.9,2.1-3.9,2.9-6
				C171,45.4,170.3,45.2,170.1,45.7L170.1,45.7z"/>
		</g>
	</g>
	<g>
		<g>
			<path class="st1" d="M170.7,48.9c-1.1,2.3-2.2,4.6-3.3,7c-0.2,0.4,0.4,0.8,0.6,0.4c1.1-2.3,2.2-4.6,3.3-7
				C171.5,48.9,170.9,48.5,170.7,48.9L170.7,48.9z"/>
		</g>
	</g>
	<g>
		<g>
			<path class="st1" d="M170.8,51.8c-1.1,2.3-2.1,4.5-3.2,6.8c-0.2,0.4,0.4,0.8,0.6,0.4c1.1-2.3,2.1-4.5,3.2-6.8
				C171.6,51.7,171,51.4,170.8,51.8L170.8,51.8z"/>
		</g>
	</g>
	<g>
		<g>
			<path class="st1" d="M171.9,54.2c-1.4,2.1-2.7,4.3-3.9,6.4c-0.2,0.4,0.4,0.8,0.6,0.4c1.3-2.2,2.6-4.3,3.9-6.4
				C172.8,54.2,172.1,53.8,171.9,54.2L171.9,54.2z"/>
		</g>
	</g>
	<g>
		<g>
			<path class="st1" d="M172.2,59.2c-1.3,2.5-2.7,4.9-4,7.4c-0.2,0.4,0.4,0.8,0.6,0.4c1.3-2.5,2.7-4.9,4-7.4
				C173,59.2,172.4,58.8,172.2,59.2L172.2,59.2z"/>
		</g>
	</g>
	<g>
		<g>
			<path class="st1" d="M173.1,60.7c-0.9,1.3-1.7,2.6-2.6,4c-0.4,0.6-0.9,1.3-1.2,1.9c-0.2,0.3-0.2,0.7,0.2,0.8
				c0.2,0.1,0.5-0.1,0.6-0.3c0-0.2,0-0.3-0.2-0.4c0,0,0,0,0,0c-0.4-0.3-0.8,0.4-0.4,0.6c0,0,0,0,0,0c-0.1-0.1-0.1-0.3-0.2-0.4
				c0,0,0.1-0.1,0.1-0.1c0.1,0,0.2,0,0.3,0c0,0,0,0,0,0c0.1,0.1,0.2,0.2,0.3,0.3c0,0.1,0,0.1,0.1-0.1c0-0.1,0.1-0.1,0.1-0.2
				c0.1-0.1,0.2-0.3,0.3-0.4c0.2-0.2,0.3-0.5,0.5-0.7c0.3-0.5,0.6-1,1-1.5c0.6-1,1.3-2,1.9-3C174,60.6,173.3,60.3,173.1,60.7
				L173.1,60.7z"/>
		</g>
	</g>
	<g>
		<g>
			<path class="st1" d="M174.4,60.6c-1.2,2-2.3,4.1-3.5,6.1c-0.2,0.4,0.4,0.8,0.6,0.4c1.2-2,2.3-4.1,3.5-6.1
				C175.2,60.6,174.6,60.2,174.4,60.6L174.4,60.6z"/>
		</g>
	</g>
	<g>
		<g>
			<path class="st1" d="M176.4,61.2c-1.1,2.1-2.2,4.2-3.4,6.3c-0.2,0.4,0.4,0.8,0.6,0.4c1.1-2.1,2.2-4.2,3.4-6.3
				C177.3,61.1,176.6,60.8,176.4,61.2L176.4,61.2z"/>
		</g>
	</g>
	<g>
		<g>
			<path class="st1" d="M181,56.8c-1.9,3-3.5,6.2-4.8,9.4c-0.2,0.4,0.5,0.6,0.7,0.2c1.3-3.2,2.9-6.3,4.7-9.3
				C181.9,56.7,181.3,56.4,181,56.8L181,56.8z"/>
		</g>
	</g>
	<g>
		<g>
			<path class="st1" d="M181.2,60.7c-1,1.4-1.9,2.9-2.6,4.4c-0.2,0.4-0.4,0.7-0.5,1.1c-0.2,0.3-0.4,0.7-0.5,1.1
				c-0.1,0.3,0.2,0.7,0.5,0.6c0.3-0.1,0.5-0.4,0.3-0.7c-0.2-0.4-0.9,0-0.6,0.4c0,0,0,0,0,0c0-0.1,0-0.3,0-0.4c0,0,0.1-0.1,0.1-0.1
				c0.1,0,0.2,0,0.3,0c0,0,0,0,0,0c0.1,0.1,0.1,0.1,0.2,0.2c0-0.1,0.1-0.3,0.2-0.4c0.1-0.1,0.1-0.3,0.2-0.4c0.1-0.3,0.2-0.5,0.4-0.8
				c0.3-0.5,0.6-1.1,0.9-1.6c0.6-1.1,1.3-2.1,1.9-3.1C182.1,60.7,181.5,60.3,181.2,60.7L181.2,60.7z"/>
		</g>
	</g>
	<g>
		<g>
			<path class="st1" d="M182,63c-0.8,1.8-1.7,3.4-2.7,5.1c-0.3,0.4,0.4,0.8,0.6,0.4c1-1.6,1.9-3.3,2.7-5.1c0.1-0.2,0.1-0.4-0.1-0.5
				C182.4,62.8,182.1,62.8,182,63L182,63z"/>
		</g>
	</g>
	<g>
		<g>
			<path class="st1" d="M182.4,65.6c-0.1,0.9-0.3,1.7-0.8,2.5c-0.1,0.2,0,0.4,0.1,0.5c0.2,0.1,0.4,0,0.5-0.1
				c0.5-0.9,0.8-1.9,0.9-2.9c0-0.2-0.2-0.4-0.4-0.4C182.5,65.2,182.4,65.4,182.4,65.6L182.4,65.6z"/>
		</g>
	</g>
	<g>
		<g>
			<path class="st1" d="M179.8,53.8c-0.9,1.6-1.8,3.2-2.7,4.9c-0.2,0.4,0.4,0.8,0.6,0.4c0.8-1.7,1.7-3.3,2.7-4.9
				C180.7,53.8,180.1,53.4,179.8,53.8L179.8,53.8z"/>
		</g>
	</g>
	<g>
		<g>
			<path class="st1" d="M179,51.2c-0.8,1.5-1.6,2.9-2.3,4.4c-0.2,0.4,0.4,0.8,0.6,0.4c0.8-1.5,1.6-2.9,2.3-4.4
				C179.9,51.2,179.2,50.8,179,51.2L179,51.2z"/>
		</g>
	</g>
	<g>
		<g>
			<path class="st1" d="M178.4,49.1c-0.8,1.3-1.6,2.6-2.4,3.9c-0.2,0.4,0.4,0.8,0.6,0.4c0.7-1.3,1.5-2.6,2.4-3.9
				C179.3,49.1,178.6,48.7,178.4,49.1L178.4,49.1z"/>
		</g>
	</g>
</g>
<g>
	<path class="st0" d="M143.2,93.6c0.1-1.1-0.3-2.3-1.1-3.1c-0.9-0.8-2.1-1-3.2-1.1c-1.7-0.1-3.5-0.1-5.2-0.1c0-0.1,0-0.1,0-0.2
		c-0.8-3.9-2.3-7.5-3.8-11.2c0.6-2.6,1.3-5.2,1.7-7.9c0.4-3,1.2-6.6-0.4-9.4c-0.6-1.2-1.7-2.1-2.9-2.5c-1.6-0.5-3.3,0-4.8,0.7
		c-3,1.4-5.8,3.2-8.6,5c-13-6.5-28.4-7.7-42.2-3.1c-1.2-1-2.4-2-3.7-2.9c-1.3-0.9-2.7-1.7-4.1-2.4c-1.5-0.8-3.2-1.5-5-1
		c-1.1,0.3-2.1,1.1-2.4,2.3c-0.2,0.6-0.2,1.2-0.3,1.8c-0.3,2.3-0.6,4.5-0.7,6.8c-0.1,1.7-0.2,3.5-0.1,5.3c-0.1,0.1-0.2,0.2-0.3,0.3
		c-3,4.6-6.7,8.9-8.6,14c-0.2,0.1-1.2-0.1-1.3-0.1c-0.6-0.1-1.2-0.1-1.9-0.1c-1.3,0-2.6,0.2-3.9,0.6C38.2,85.7,36,87.2,36,90
		c0,2.5,1.6,4.7,2.9,6.7c1.4,2.2,3,4.3,4,6.7c0.1,0.3,0.3,0.5,0.5,0.7c-1,12.2-1,25.4,6.5,35.6c-0.1,0.2-0.1,0.5-0.2,0.7
		c-0.4,1.3-1,2.6-1.2,4c-0.3,1.4-0.5,3-0.3,4.5c0.2,1.5,1.3,2.3,2.6,2.5c2.9,0.6,5.7-0.5,8.2-1.9c0.8-0.4,1.5-0.9,2.3-1.4
		c13.7,5.9,30.5,9.5,44.7,3.5c0.1,0,0.2-0.1,0.4-0.2c0.7-0.4,1.8-0.1,2.6,0.1c1.1,0.3,2,1,2.9,1.6c2.3,1.4,5.1,3.5,7.9,2.4
		c2.6-1.1,3.4-4.2,3.2-6.7c0-0.9-0.2-1.7-0.3-2.6c1.9-2.2,4.1-4.3,5.9-6.7c1.9-2.7,3.5-5.8,4.9-8.8c2.3-5.2,3.9-10.7,3.7-16.4
		c-0.1-3.1-0.6-6.1-1.3-9c1.5-1.6,3-3.2,4.3-5C141.5,98.4,143.1,96,143.2,93.6z"/>
</g>
<g>
	<g>
		<path class="st1" d="M60.8,148.2c14,6.1,31.2,9.9,45.8,3.5c1.8-0.8,0.2-3.4-1.5-2.6c-6.6,2.9-14,3.3-21.1,2.5
			c-7.4-0.8-14.8-3-21.6-6C60.5,144.8,59,147.4,60.8,148.2L60.8,148.2z"/>
	</g>
</g>
<g>
	<g>
		<path class="st1" d="M50.3,136.7C50.2,136.4,50.2,136.4,50.3,136.7c0,0.2,0,0.4,0,0.6c0,0.3-0.1,0.6-0.1,1
			c-0.2,0.7-0.4,1.4-0.6,2.1c-0.4,1.3-1,2.6-1.2,4c-0.3,1.5-0.5,3.1-0.3,4.6c0.2,1.6,1.3,2.5,2.8,2.8c2.9,0.6,5.8-0.5,8.3-1.9
			c2.6-1.5,5.1-3.3,7.3-5.3c1.4-1.3-0.7-3.4-2.1-2.1c-1.9,1.7-4,3.3-6.2,4.6c-1.9,1.1-4.5,2.5-6.8,1.8c-0.1,0-0.4-0.1-0.5-0.2
			c0.2,0.3,0.1-0.3,0.1-0.4c0-0.6,0-1.2,0.1-1.8c0.1-1.3,0.4-2.6,0.9-3.8c0.4-1.1,0.8-2.3,1.1-3.5c0.3-1.2,0.5-2.7-0.1-3.8
			C51.9,133.4,49.3,135,50.3,136.7L50.3,136.7z"/>
	</g>
</g>
<g>
	<g>
		<path class="st1" d="M106.5,151.7c0.2-0.1,0.5-0.2,0.9-0.2c0.5,0,1,0.1,1.4,0.3c1,0.3,1.9,0.9,2.9,1.5c2.3,1.5,5.2,3.6,8.1,2.4
			c2.7-1.1,3.5-4.3,3.4-6.9c-0.2-3.1-1.1-6.1-1.7-9.1c-0.4-1.9-3.3-1.1-2.9,0.8c0.3,1.5,0.6,3,1,4.5c0.3,1.2,0.6,2.4,0.6,3.7
			c0.1,1.7-0.2,4.8-2.6,4.4c-1.2-0.2-2.3-1-3.3-1.6c-1-0.6-2-1.4-3.1-1.9c-1.8-0.8-4.4-1.5-6.2-0.4
			C103.4,150.1,104.9,152.7,106.5,151.7L106.5,151.7z"/>
	</g>
</g>
<g>
	<g>
		<path class="st1" d="M122.4,146.8c2.6-3.1,5.6-5.8,7.7-9.4c2.1-3.6,4-7.3,5.3-11.3c2.4-7.1,2.3-14.4,0.4-21.6
			c-0.5-1.9-3.4-1.1-2.9,0.8c1.8,6.7,1.9,13.4-0.4,20c-1.3,3.7-3.1,7.2-5,10.6c-1.9,3.3-4.8,5.8-7.2,8.8
			C119.1,146.2,121.2,148.3,122.4,146.8L122.4,146.8z"/>
	</g>
</g>
<g>
	<g>
		<path class="st1" d="M135.5,106c1.7-1.8,3.4-3.6,4.8-5.6c1.4-1.9,3-4.4,3.2-6.8c0.1-1.2-0.3-2.4-1.2-3.3c-0.9-0.9-2.2-1.1-3.4-1.2
			c-2.8-0.2-5.5-0.2-8.3,0c-1.9,0.1-1.9,3.1,0,3c2.4-0.1,4.7-0.1,7.1,0c0.7,0,1.9-0.1,2.5,0.3c0.5,0.4,0.4,1.2,0.2,1.7
			c-0.5,1.9-1.8,3.6-2.9,5.2c-1.2,1.6-2.6,3.1-4.1,4.6C132,105.3,134.1,107.4,135.5,106L135.5,106z"/>
	</g>
</g>
<g>
	<g>
		<path class="st1" d="M52.4,138.4c-7.7-10.5-7.2-24-6-36.4c0.2-1.9-2.8-1.9-3,0c-1.2,12.8-1.6,27,6.4,37.9
			C50.9,141.5,53.5,140,52.4,138.4L52.4,138.4z"/>
	</g>
</g>
<g>
	<g>
		<path class="st1" d="M45.6,102.7c-0.9-2.2-2.2-4.2-3.5-6.3c-1.2-1.8-2.9-3.8-3.2-6c-0.4-2.3,2.5-2.8,4.2-3.1
			c1.2-0.2,2.3-0.1,3.5,0c1.2,0.2,2.2,0.1,3.2-0.7c1.5-1.3-0.7-3.4-2.1-2.1c0.2-0.2-0.1-0.1-0.3-0.1c-0.3,0-0.6-0.1-0.9-0.1
			c-0.6-0.1-1.2-0.1-1.9-0.1c-1.3,0-2.7,0.2-3.9,0.6c-2.5,0.7-4.8,2.3-4.8,5.2c0,2.5,1.6,4.8,2.9,6.8c1.4,2.2,3,4.3,4,6.7
			c0.3,0.7,1,1.3,1.8,1C45.3,104.4,45.9,103.5,45.6,102.7L45.6,102.7z"/>
	</g>
</g>
<g>
	<g>
		<path class="st1" d="M49.3,89.1c1.2-6.6,5.8-11.6,9.4-17.1c1.1-1.6-1.5-3.1-2.6-1.5c-3.7,5.6-8.4,10.9-9.7,17.8
			c-0.1,0.8,0.2,1.6,1,1.8C48.2,90.4,49.2,89.9,49.3,89.1L49.3,89.1z"/>
	</g>
</g>
<g>
	<g>
		<path class="st1" d="M133.9,88.9c-0.8-4-2.4-7.7-3.9-11.4c-0.3-0.8-1-1.3-1.8-1c-0.7,0.2-1.3,1.1-1,1.8c1.4,3.8,3,7.5,3.9,11.4
			c0.2,0.8,1.1,1.3,1.8,1C133.7,90.6,134.1,89.7,133.9,88.9L133.9,88.9z"/>
	</g>
</g>
<g>
	<g>
		<path class="st1" d="M73.5,63.2c13.2-4.4,27.9-3.4,40.2,2.9c1.7,0.9,3.2-1.7,1.5-2.6c-13.1-6.7-28.6-7.9-42.5-3.2
			C70.9,60.9,71.7,63.8,73.5,63.2L73.5,63.2z"/>
	</g>
</g>
<g>
	<g>
		<g>
			<path class="st1" d="M59.7,72.3c-0.4-1.8-0.4-3.8-0.3-5.8c0.1-2.2,0.3-4.3,0.6-6.5c0.1-0.5,0.2-1.3,0.3-2c0-0.2,0.1-0.4,0.1-0.7
				c0-0.2,0.2-0.3,0-0.2c0.8-1,2.4-0.1,3.3,0.3c1.3,0.7,2.5,1.4,3.7,2.2c2.6,1.7,4.8,3.8,6.9,6.1c1.3,1.4,3.4-0.7,2.1-2.1
				c-2.1-2.4-4.4-4.5-7.1-6.3c-1.3-0.9-2.7-1.7-4.1-2.4c-1.6-0.8-3.4-1.6-5.1-1c-1.2,0.4-2.2,1.2-2.6,2.5c-0.2,0.6-0.2,1.2-0.3,1.8
				c-0.3,2.3-0.6,4.6-0.7,6.9c-0.2,2.6-0.3,5.4,0.4,8C57.2,75,60.1,74.2,59.7,72.3L59.7,72.3z"/>
		</g>
	</g>
	<g>
		<g>
			<path class="st1" d="M130.1,78.3c0.7-2.8,1.4-5.5,1.8-8.3c0.4-3.1,1.2-6.7-0.4-9.6c-0.7-1.2-1.8-2.2-3.1-2.7
				c-1.7-0.5-3.4,0-5,0.7c-3.1,1.4-6.1,3.3-9,5.3c-1.2,0.8-0.8,2.7,0.8,2.8c0.7,0,1.2-0.2,1.7-0.7c1.5-1.2-0.6-3.3-2.1-2.1
				c-0.1,0-0.1,0.1-0.2,0.1c0.2-0.1,0.4-0.3,0.7-0.4c0,0,0,0-0.1,0c0.3,0.9,0.5,1.9,0.8,2.8c2.4-1.6,4.9-3.1,7.5-4.5
				c1.1-0.6,2.5-1.5,3.8-1.3c1,0.2,1.6,1.1,1.9,2c0.4,1.4,0.2,2.9,0.1,4.3c-0.1,1.2-0.3,2.4-0.5,3.6c-0.4,2.4-1,4.7-1.6,7.1
				C126.7,79.4,129.6,80.2,130.1,78.3L130.1,78.3z"/>
		</g>
	</g>
	<g>
		<g>
			<path class="st1" d="M114.5,66.2c0.6,1.4,1,3,2.3,3.9c1.8,1.3,4.6,0.4,5.8-1.2c0.7-0.9,1.4-1.8,2.1-2.7c0.4-0.4,0.7-0.8,1.1-1.2
				c0.3-0.3,0.8-0.8,1.2-0.8c0.9,0,0.3,2.2,0.2,2.6c-0.2,1.3-0.2,2.7-0.3,4.1c-0.1,1.4-0.2,2.9-0.1,4.4c0.1,1.1,0.3,2.3,1.1,3.1
				c0.7,0.7,1.7-0.4,1.1-1.1c-0.6-0.7-0.7-1.8-0.7-2.6c-0.1-1.3,0-2.7,0.1-4c0.1-1.3,0.1-2.6,0.3-3.9c0.2-1,0.5-2.3-0.1-3.2
				c-0.6-0.9-1.8-1-2.7-0.6c-1,0.5-1.8,1.5-2.5,2.3c-0.8,0.9-1.4,1.8-2.1,2.7c-0.7,0.8-1.9,1.3-3,1.2c-1.7-0.2-2.1-2.4-2.7-3.7
				C115.4,64.6,114.2,65.3,114.5,66.2L114.5,66.2z"/>
		</g>
	</g>
	<g>
		<g>
			<path class="st1" d="M75,64.7c-0.9,0.4-1.9,1.8-2.9,1.7c-1.3-0.2-2.6-1.7-3.5-2.5c-1.1-1-2.3-2-3.4-3c-0.8-0.6-1.8-1.4-2.8-1.4
				c-2.2-0.1-2.2,2.8-2.4,4.3c-0.4,2.9-1.4,5.7-1.8,8.6c-0.1,0.9,1.3,1.4,1.4,0.4c0.4-2.7,1.3-5.4,1.8-8.1c0.2-1,0.1-2.1,0.4-3
				c0.1-0.3,0.2-0.6,0.5-0.7c0.4-0.1,1.1,0.5,1.4,0.7c2.3,1.6,4.1,3.8,6.4,5.4c0.9,0.6,2,1.1,3,0.7c1-0.4,1.7-1.3,2.7-1.8
				C76.7,65.6,75.9,64.3,75,64.7L75,64.7z"/>
		</g>
	</g>
	<g>
		<g>
			<path class="st1" d="M62.5,59.7c-0.8-1.1-1.3-2.4-1.4-3.8c0-0.2-0.2-0.4-0.4-0.4c-0.2,0-0.4,0.2-0.4,0.4c0.1,1.5,0.7,2.9,1.5,4.2
				c0.1,0.2,0.3,0.2,0.5,0.1C62.5,60.1,62.6,59.9,62.5,59.7L62.5,59.7z"/>
		</g>
	</g>
	<g>
		<g>
			<path class="st1" d="M64,60.7c-0.3-1.6-0.7-3.1-1-4.7c-0.1-0.5-0.8-0.3-0.7,0.2c0.3,1.6,0.7,3.1,1,4.7
				C63.4,61.3,64.1,61.1,64,60.7L64,60.7z"/>
		</g>
	</g>
	<g>
		<g>
			<path class="st1" d="M65.5,61.4c-0.3-1.3-0.4-2.7-0.3-4.1c0-0.2-0.2-0.4-0.4-0.4c-0.2,0-0.4,0.2-0.4,0.4c-0.1,1.4,0,2.9,0.3,4.3
				C64.9,62.1,65.6,61.9,65.5,61.4L65.5,61.4z"/>
		</g>
	</g>
	<g>
		<g>
			<path class="st1" d="M67,63c-0.2-1.6-0.3-3.3-0.3-4.9c0-0.5-0.7-0.5-0.8,0c0,1.7,0.1,3.4,0.3,5.1c0,0.2,0.3,0.3,0.5,0.3
				C66.9,63.4,67,63.2,67,63L67,63z"/>
		</g>
	</g>
	<g>
		<g>
			<path class="st1" d="M68.4,64.3c-0.3-1.5-0.2-3,0.1-4.5c0.1-0.5-0.6-0.7-0.7-0.2c-0.4,1.6-0.4,3.3-0.1,4.9c0,0.2,0.3,0.3,0.5,0.3
				C68.4,64.7,68.5,64.5,68.4,64.3L68.4,64.3z"/>
		</g>
	</g>
	<g>
		<g>
			<path class="st1" d="M69.7,65.4c-0.2-1.4-0.1-2.9,0.3-4.2c0.1-0.5-0.6-0.7-0.7-0.2c-0.5,1.5-0.6,3.1-0.3,4.6
				c0,0.2,0.3,0.3,0.5,0.3C69.7,65.8,69.8,65.6,69.7,65.4L69.7,65.4z"/>
		</g>
	</g>
	<g>
		<g>
			<path class="st1" d="M70.9,66.5c0-1.3,0.2-2.7,0.7-3.9c0.1-0.2-0.1-0.4-0.3-0.5c-0.2-0.1-0.4,0.1-0.5,0.3
				c-0.5,1.3-0.7,2.7-0.7,4.1C70.2,67,70.9,67,70.9,66.5L70.9,66.5z"/>
		</g>
	</g>
	<g>
		<g>
			<path class="st1" d="M72,66.6c0.1-1.3,0.4-2.5,1-3.6c0.1-0.2,0.1-0.4-0.1-0.5c-0.2-0.1-0.4-0.1-0.5,0.1c-0.6,1.3-0.9,2.6-1.1,4
				c0,0.2,0.2,0.4,0.4,0.4C71.8,67,72,66.8,72,66.6L72,66.6z"/>
		</g>
	</g>
	<g>
		<g>
			<path class="st1" d="M61.2,61.1c-0.9-1.1-1.8-2.2-2.6-3.3c-0.1-0.2-0.4-0.1-0.5,0c-0.2,0.2-0.1,0.4,0,0.5
				c0.9,1.1,1.8,2.2,2.6,3.3c0.1,0.2,0.4,0.1,0.5,0C61.4,61.5,61.4,61.2,61.2,61.1L61.2,61.1z"/>
		</g>
	</g>
	<g>
		<g>
			<path class="st1" d="M60.8,63.3c-0.4-0.3-0.7-0.7-1-1c-0.3-0.4-0.6-0.7-0.9-1.1c-0.1-0.2-0.3-0.3-0.5-0.1
				c-0.2,0.1-0.3,0.3-0.1,0.5c0.6,0.8,1.2,1.6,2,2.3c0.1,0.1,0.4,0.2,0.5,0C61,63.7,61,63.4,60.8,63.3L60.8,63.3z"/>
		</g>
	</g>
	<g>
		<g>
			<path class="st1" d="M60.8,65.7c-0.6-0.7-1.3-1.5-1.9-2.2c-0.1-0.1-0.4-0.1-0.5,0c-0.1,0.2-0.1,0.4,0,0.5
				c0.6,0.7,1.3,1.5,1.9,2.2c0.1,0.1,0.4,0.1,0.5,0C60.9,66,60.9,65.8,60.8,65.7L60.8,65.7z"/>
		</g>
	</g>
	<g>
		<g>
			<path class="st1" d="M60.2,67.4c-1.1-0.8-2.1-1.8-3-2.8c-0.1-0.2-0.4-0.1-0.5,0c-0.2,0.2-0.1,0.4,0,0.5c0.9,1,1.9,1.9,3,2.8
				c0.2,0.1,0.4,0.2,0.5,0C60.4,67.8,60.4,67.5,60.2,67.4L60.2,67.4z"/>
		</g>
	</g>
	<g>
		<g>
			<path class="st1" d="M127.9,63.8c0.6-1.6,0.9-3.3,1-5c0-0.5-0.7-0.5-0.8,0c-0.1,1.6-0.4,3.2-1,4.8
				C127,64.1,127.7,64.3,127.9,63.8L127.9,63.8z"/>
		</g>
	</g>
	<g>
		<g>
			<path class="st1" d="M126.9,64c0-1.5,0.1-2.9,0.1-4.4c0-0.5-0.7-0.5-0.8,0c0,1.5-0.1,2.9-0.1,4.4C126.1,64.5,126.9,64.5,126.9,64
				L126.9,64z"/>
		</g>
	</g>
	<g>
		<g>
			<path class="st1" d="M125.6,64.6c0.1-1.7,0-3.4-0.3-5.1c-0.1-0.5-0.8-0.3-0.7,0.2c0.3,1.6,0.3,3.3,0.2,4.9
				C124.8,65.1,125.6,65.1,125.6,64.6L125.6,64.6z"/>
		</g>
	</g>
	<g>
		<g>
			<path class="st1" d="M124.3,65.8c0-1.7-0.1-3.3-0.3-5c0-0.2-0.2-0.4-0.4-0.4c-0.2,0-0.4,0.2-0.4,0.4c0.2,1.7,0.3,3.3,0.3,5
				C123.6,66.2,124.3,66.2,124.3,65.8L124.3,65.8z"/>
		</g>
	</g>
	<g>
		<g>
			<path class="st1" d="M123.4,67.4c-0.2-2-0.4-4-0.8-6c-0.1-0.5-0.8-0.3-0.7,0.2c0.3,1.9,0.6,3.8,0.7,5.8
				C122.6,67.8,123.4,67.9,123.4,67.4L123.4,67.4z"/>
		</g>
	</g>
	<g>
		<g>
			<path class="st1" d="M122.4,68.6c-0.4-2.2-0.7-4.3-1.1-6.5c-0.1-0.5-0.8-0.3-0.7,0.2c0.4,2.2,0.7,4.3,1.1,6.5
				C121.8,69.3,122.5,69.1,122.4,68.6L122.4,68.6z"/>
		</g>
	</g>
	<g>
		<g>
			<path class="st1" d="M121.4,69c-0.3-1.8-0.7-3.5-1-5.3c-0.1-0.5-0.8-0.3-0.7,0.2c0.3,1.8,0.7,3.5,1,5.3
				C120.7,69.7,121.5,69.5,121.4,69L121.4,69z"/>
		</g>
	</g>
	<g>
		<g>
			<path class="st1" d="M119.9,69.4c-0.5-1.7-0.9-3.3-1.2-5c-0.1-0.5-0.8-0.3-0.7,0.2c0.3,1.7,0.7,3.4,1.2,5
				C119.3,70,120,69.8,119.9,69.4L119.9,69.4z"/>
		</g>
	</g>
	<g>
		<g>
			<path class="st1" d="M117.9,68.5c-0.6-0.9-0.8-2-0.6-3.1c0-0.2-0.2-0.4-0.4-0.4c-0.2,0-0.3,0.2-0.4,0.4c-0.2,1.2,0.1,2.4,0.7,3.4
				C117.5,69.3,118.2,68.9,117.9,68.5L117.9,68.5z"/>
		</g>
	</g>
	<g>
		<g>
			<path class="st1" d="M128.8,65.4c0.3-0.6,0.7-1.3,1-1.9c0.1-0.2,0-0.4-0.1-0.5c-0.2-0.1-0.4,0-0.5,0.1c-0.3,0.6-0.7,1.3-1,1.9
				c-0.1,0.2,0,0.4,0.1,0.5C128.5,65.6,128.7,65.5,128.8,65.4L128.8,65.4z"/>
		</g>
	</g>
	<g>
		<g>
			<path class="st1" d="M128.6,67.7c0.2-0.5,0.5-0.9,0.8-1.2c0.2-0.2,0.3-0.4,0.5-0.5c0,0,0.1-0.1,0.1-0.1c0,0,0.1,0,0.1-0.1
				c0,0,0,0,0,0c0.1-0.1,0.2-0.2,0.3-0.2c0.2-0.1,0.2-0.3,0.1-0.5c-0.1-0.2-0.3-0.2-0.5-0.1c-0.9,0.6-1.7,1.4-2.2,2.4
				c-0.1,0.2-0.1,0.4,0.1,0.5C128.3,67.9,128.5,67.9,128.6,67.7L128.6,67.7z"/>
		</g>
	</g>
	<g>
		<g>
			<path class="st1" d="M128.4,70.9c0.3-1.1,1-2,1.9-2.5c0.2-0.1,0.2-0.3,0.1-0.5c-0.1-0.2-0.3-0.2-0.5-0.1c-1.1,0.6-2,1.7-2.3,3
				c-0.1,0.2,0.1,0.4,0.3,0.5C128.1,71.2,128.3,71.1,128.4,70.9L128.4,70.9z"/>
		</g>
	</g>
	<g>
		<g>
			<path class="st1" d="M128.4,73.3c0.6-1,1.3-2,2.1-2.9c0.1-0.1,0.1-0.4,0-0.5c-0.1-0.1-0.4-0.2-0.5,0c-0.8,0.9-1.6,1.9-2.3,3
				C127.5,73.4,128.2,73.7,128.4,73.3L128.4,73.3z"/>
		</g>
	</g>
	<g>
		<g>
			<path class="st1" d="M73.1,66.4c0.2-0.8,0.5-1.6,0.9-2.4c0.1-0.2,0-0.4-0.1-0.5c-0.2-0.1-0.4,0-0.5,0.1c-0.4,0.8-0.7,1.7-0.9,2.6
				c0,0.2,0.1,0.4,0.3,0.5C72.9,66.8,73.1,66.7,73.1,66.4L73.1,66.4z"/>
		</g>
	</g>
</g>
<g>
	<g>
		<path class="st1" d="M103.5,89.1c-0.1-0.2-0.4-0.3-0.7-0.3c-0.2,0.1-0.4,0.3-0.6,0.5c-0.1,0.2-0.2,0.5,0,0.7
			c0.1,0.2,0.4,0.3,0.6,0.3c0.6,0,0.8-0.6,0.9-1.1c0.1-0.5-0.1-0.9-0.6-1c0.1,0.2,0.1,0.5,0.2,0.7c0.1-0.1,0.3-0.2,0.4-0.2
			c0.1-0.1,0.3-0.1,0.4-0.1c0.1,0,0.1,0,0.2,0.1c0,0.1,0,0.1,0.1,0.1c0,0.1,0,0.2,0,0.2c0,0,0,0.1,0,0.2c0,0,0,0,0,0c0,0,0,0,0,0
			c0,0,0,0,0,0c0,0,0,0,0,0c0,0,0,0,0,0c0,0,0,0,0,0c0,0,0,0,0,0c0,0-0.1,0,0,0c0,0-0.1,0-0.1,0c0,0,0,0-0.1,0c0,0-0.1,0-0.1-0.1
			c0,0,0-0.1-0.1-0.1c0,0,0-0.1,0-0.1c0-0.1,0,0,0-0.1c-0.2,0-0.5,0.1-0.7,0.1c0,0.2,0.1,0.5,0.1,0.7c0,0.2,0.1,0.4,0.3,0.6
			c0.3,0.3,1,0.3,1.1-0.2c0.1-0.3-0.1-0.4-0.4-0.5c-0.4,0-1.1,0-1.2,0.5c-0.1,0.2,0,0.5,0.2,0.6c0.2,0.2,0.4,0.2,0.7,0.2
			c0.4,0,0.9-0.1,1-0.5c0.2-0.4,0-0.9-0.4-1.1c-0.2-0.1-0.4-0.2-0.6-0.2c-0.1,0-0.3-0.1-0.4-0.1c-0.2,0-0.3,0.1-0.4,0.1
			c0.1,0,0.1,0,0.2-0.1c0,0,0,0,0,0c0.1,0,0.1,0.1,0.2,0.1c0,0.1,0,0.2,0.1,0.3c0,0,0,0,0,0c0,0,0-0.1,0.1-0.1c0-0.1,0-0.2,0-0.3
			c0-0.2-0.1-0.3-0.2-0.4c-0.1-0.1-0.3-0.1-0.4-0.2c-0.1,0-0.3,0-0.4,0c0.1,0.2,0.2,0.3,0.3,0.5c0-0.1,0.1-0.3,0.1-0.4
			c0,0,0-0.1,0.1-0.1c0,0,0.1-0.1,0-0.1c0.1-0.1,0.1-0.1,0.1-0.1c0.1-0.1,0.1-0.1,0.2,0c0.1,0,0.2,0.2,0.3,0.3
			c0.1,0.1,0.4,0.1,0.5,0c0.1-0.1,0.1-0.4,0-0.5c-0.2-0.2-0.4-0.4-0.6-0.5c-0.3-0.1-0.5-0.1-0.8,0c-0.5,0.2-0.7,0.7-0.8,1.2
			c0,0.2,0.1,0.4,0.3,0.5c0.2,0,0.3,0,0.4,0c0,0,0.1,0,0.1,0c0,0,0,0,0,0c0,0,0,0,0,0c0,0,0,0,0-0.1c0-0.2,0-0.2,0-0.1
			c0,0-0.1,0.1-0.1,0.2c0,0.1,0,0.3,0,0.4c0.1,0.2,0.3,0.3,0.5,0.2c0.1,0,0.1-0.1,0.2-0.1c0,0,0,0,0,0c0.2,0,0.4,0.1,0.6,0.2
			c0,0,0,0,0.1,0.1c0-0.1,0.1,0.1,0,0c0,0,0,0.1,0,0.1c0,0,0,0,0,0c0,0,0,0,0,0c0,0-0.1,0,0,0c0,0-0.1,0.1,0,0c-0.1,0-0.1,0-0.2,0
			c0,0-0.1,0-0.1,0c0,0-0.1,0-0.1,0c0,0-0.1,0,0,0c-0.1,0,0,0,0,0c0,0.1,0.1,0.1,0,0.2c0,0,0,0.1-0.1,0.1c0,0,0.1,0,0.1,0
			c0,0,0.1,0,0.1,0c0.1,0,0.2,0,0.3,0c-0.1-0.2-0.2-0.3-0.4-0.5c0-0.1,0.1-0.1,0.1-0.1c0,0,0,0,0,0c0,0,0,0,0,0c0.1,0,0,0,0,0
			c0,0,0,0,0,0c0,0,0,0,0,0c0-0.1,0,0,0,0c0,0,0-0.1,0-0.1c-0.1-0.3-0.1-0.6-0.1-0.9c0-0.2-0.2-0.3-0.4-0.3c-0.2,0-0.3,0.2-0.3,0.4
			c0,0.5,0.4,1.1,1,1.1c0.6,0,1-0.4,1-1c0-0.5-0.2-1.1-0.7-1.2c-0.5-0.1-1.1,0.1-1.5,0.4c-0.1,0.1-0.2,0.3-0.2,0.4
			c0,0.2,0.2,0.3,0.4,0.3c-0.1,0-0.1,0-0.1-0.1c0,0,0,0,0,0c0,0,0,0,0,0c0,0,0,0,0,0c0-0.1,0,0.1,0,0.1c0,0,0,0.1,0,0.1
			c0,0.1,0,0.2-0.1,0.3c0,0.1,0,0.1-0.1,0.1c0.1,0-0.1,0,0,0c0,0,0,0,0,0c0,0,0,0,0,0c0,0,0.1,0.1,0,0c0,0,0,0.1,0,0.1c0,0,0,0,0,0
			c0,0,0,0,0,0c0,0,0.1-0.1,0.1-0.1c0,0-0.1,0-0.1,0c0,0,0,0,0,0c0,0-0.1,0-0.1-0.1c0.1,0.2,0.3,0.2,0.5,0.1
			C103.5,89.5,103.6,89.3,103.5,89.1L103.5,89.1z"/>
	</g>
</g>
<g>
	<g>
		<path class="st1" d="M75,86.7c-0.3,0.4-0.3,1.1,0.2,1.4c0.5,0.3,1.1-0.1,1.4-0.5c0.1-0.2,0.3-0.5,0.2-0.8
			c-0.1-0.3-0.4-0.4-0.7-0.5c-0.3-0.1-0.6-0.1-0.9,0c-0.2,0.1-0.4,0.4-0.4,0.7c0,0.2,0.1,0.3,0.3,0.4c0.2,0,0.3,0,0.4-0.2
			c0.1-0.2,0.3-0.5,0.3-0.8c0-0.3-0.2-0.6-0.4-0.7c-0.3-0.1-0.6-0.1-0.9,0.2c-0.2,0.2-0.3,0.4-0.4,0.7c-0.1,0.3,0,0.6,0.2,0.8
			c0.2,0.2,0.4,0.3,0.7,0.3c0.5,0.1,1-0.2,1.3-0.6c0.2-0.2-0.1-0.6-0.3-0.6c-0.3,0-0.6,0.2-0.9,0.4c-0.1,0.1-0.2,0.3,0,0.5
			c0.1,0.1,0.3,0.2,0.5,0.1c0.3-0.2,0.6-0.6,0.7-1c0-0.2,0-0.4,0-0.6c0,0,0-0.1,0-0.1C76,86,75.9,86.1,76,86c0,0,0,0,0,0
			c0,0,0,0,0,0c0,0,0.1,0,0.1,0c0,0,0.1,0,0.1,0c0.1,0,0.2,0.1,0.2,0.1c0,0,0.1,0,0.1,0.1c0,0,0.1,0.1,0.1,0.1c0,0,0,0,0,0
			c0,0,0,0,0,0c0,0,0,0,0,0c0,0,0,0,0,0c0,0,0,0,0,0c0,0,0,0,0,0.1c0,0,0,0,0,0c0,0-0.1,0.1-0.1,0.1c-0.1,0.1-0.1,0.1-0.2,0.1
			c0,0,0,0-0.1,0c0,0,0,0,0,0c0,0,0,0-0.1,0c0.1,0,0,0,0,0c0,0,0,0,0,0c0,0,0,0,0-0.1c0,0.2,0,0.3,0.1,0.5c0.1-0.1,0,0,0,0
			c0,0,0,0,0,0c0,0,0.1,0,0,0c0,0,0,0,0,0c0,0,0,0,0,0c0,0,0.1,0,0.1,0c0,0-0.1,0,0,0c0,0,0,0,0.1,0c0,0-0.1,0,0,0c0,0,0,0,0,0
			c0,0,0.1,0.1,0,0c0,0,0,0,0,0.1c0-0.1,0,0,0,0c0,0,0-0.1,0,0c0,0,0,0.1,0,0c0,0,0,0,0,0c0,0,0,0,0,0.1c0-0.1,0,0,0,0
			c0,0,0,0.1,0,0c0,0,0,0-0.1,0.1c0,0,0.1,0,0,0c0,0-0.1,0,0,0c0,0-0.1,0-0.1,0c0,0,0,0,0,0c0,0-0.1,0-0.1,0c0,0,0,0-0.1,0
			c0,0,0,0,0,0c0,0,0,0,0,0c0,0-0.1,0-0.1,0c0,0,0,0,0,0c0,0,0,0-0.1-0.1c0,0,0,0,0,0c0,0,0,0,0,0c0,0-0.1-0.1,0,0
			c-0.1-0.2-0.2-0.3-0.5-0.3c-0.2,0-0.3,0.3-0.3,0.5c0.2,0.4,0.6,0.8,1.1,0.8c0.5,0,0.9-0.3,1-0.8c0.1-0.5-0.1-0.9-0.6-1.1
			c-0.4-0.1-0.9,0-1.1,0.4c-0.1,0.2,0,0.3,0.1,0.5c0.3,0.4,0.9,0.3,1.2,0c0.4-0.3,0.8-0.7,0.6-1.2c-0.1-0.4-0.6-0.7-1-0.8
			c-0.3-0.1-0.5-0.1-0.8,0c-0.1,0-0.2,0.1-0.3,0.2c-0.1,0.1-0.1,0.3,0,0.5c0,0,0,0.1,0,0c0,0,0,0,0,0c0,0.1,0,0.1,0,0.2c0,0,0,0,0,0
			c0,0,0,0.1,0,0.1c0,0,0,0.1,0,0.1c0,0,0,0.1,0,0c0,0,0,0,0,0.1c0,0-0.1,0.1-0.1,0.1c0,0,0,0-0.1,0.1c0,0,0,0-0.1,0.1
			c0,0-0.1,0.1,0,0c0.2,0.2,0.3,0.4,0.5,0.6c0.1-0.1,0.1-0.1,0.2-0.1c0.1,0,0,0,0.1,0c0,0,0.1,0,0.1,0c0,0,0,0,0,0
			c-0.1-0.2-0.2-0.4-0.3-0.6c0,0,0,0,0,0c0,0,0,0-0.1,0.1c0,0,0,0,0,0c0,0-0.1,0-0.1,0.1c-0.1,0-0.2,0.1-0.3,0.1c0,0-0.1,0-0.1,0
			c-0.1,0,0.1,0,0,0c0,0-0.1,0-0.1,0c0,0-0.1,0-0.1,0c0,0,0,0,0,0c0,0,0,0,0,0c0,0-0.1-0.1,0,0c0,0,0,0,0,0c0,0,0,0,0,0c0,0,0,0,0,0
			c0-0.1,0.1-0.3,0.1-0.4c0,0,0-0.1,0,0c0,0,0.1-0.1,0,0c0,0,0.1,0,0,0c0.1,0,0,0,0,0c0,0,0,0,0,0c0,0,0,0,0,0c0,0,0,0,0,0
			c0,0,0,0,0,0c0,0,0,0,0,0c0-0.1,0,0,0,0c0,0,0,0.1,0,0.1c0,0.1-0.1,0.2-0.1,0.2c0.2,0.1,0.5,0.1,0.7,0.2c0-0.1,0,0,0,0
			c0,0,0-0.1,0,0c0,0,0,0,0,0c0,0,0,0,0,0c0.1,0,0.2,0,0.4,0.1c0,0,0.1,0,0.1,0c0,0,0,0,0,0c0,0,0,0,0,0c0,0,0,0,0,0c0,0,0,0.1,0,0
			c0,0,0,0.1,0,0.1c0,0.1-0.1,0.1-0.1,0.2c-0.1,0.1-0.1,0.1-0.2,0.2c0,0,0,0,0,0c0,0,0,0,0,0c0,0,0,0,0,0c0,0-0.1,0,0,0
			c-0.1,0,0,0,0,0c0,0,0,0,0,0c0,0,0,0,0,0c0-0.1,0,0.1,0,0c0,0,0,0,0,0c0-0.1,0-0.1,0.1-0.2c0,0,0,0,0,0c0,0,0-0.1,0.1-0.1
			c0.1-0.2,0-0.4-0.1-0.5C75.3,86.5,75.1,86.6,75,86.7L75,86.7z"/>
	</g>
</g>
<g>
	<g>
		<path class="st1" d="M75.2,86.3C75.2,86.3,75.2,86.2,75.2,86.3C75.2,86.3,75.2,86.3,75.2,86.3c0,0,0-0.1,0-0.1
			C75.2,86.2,75.2,86.2,75.2,86.3c0-0.1,0.1-0.2,0.1-0.2c0,0,0,0.1-0.1,0.1c0-0.1,0.1-0.1,0.1-0.1c0,0-0.1,0-0.1,0.1
			c0.1,0,0.1-0.1,0.2-0.1c0,0-0.1,0-0.1,0c0.1,0,0.1,0,0.2-0.1c0,0-0.1,0-0.1,0c0.1,0,0.1,0,0.2,0c0,0-0.1,0-0.1,0
			c0.1,0,0.1,0,0.2,0.1c0,0-0.1,0-0.1,0c0,0,0.1,0,0.1,0.1c0.2,0.1,0.4,0,0.5-0.1c0.1-0.2,0-0.4-0.1-0.5c-0.3-0.2-0.8-0.2-1.2,0
			c-0.3,0.2-0.6,0.6-0.6,0.9c0,0.1,0,0.2,0.1,0.3c0.1,0.1,0.2,0.1,0.3,0.1C75,86.6,75.2,86.5,75.2,86.3L75.2,86.3z"/>
	</g>
</g>
<g>
	<g>
		<path class="st1" d="M74.6,86.7c-0.3,0.3-0.3,0.8-0.1,1.1c0.1,0.2,0.2,0.3,0.4,0.4c0.1,0.1,0.2,0.1,0.4,0.1c0.1,0,0.2,0,0.3,0
			c0.2,0,0.4-0.1,0.6-0.2c0.1,0,0.1-0.1,0.2-0.2c0-0.1,0-0.2,0-0.3c-0.1-0.1-0.1-0.2-0.2-0.2c-0.1,0-0.2,0-0.3,0c0,0-0.1,0-0.1,0.1
			c0,0,0.1,0,0.1,0c-0.1,0.1-0.3,0.1-0.4,0.1c0,0,0.1,0,0.1,0c-0.1,0-0.2,0-0.2,0c0,0,0.1,0,0.1,0c-0.1,0-0.1,0-0.2,0
			c0,0,0.1,0,0.1,0c0,0-0.1,0-0.1-0.1c0,0,0.1,0,0.1,0.1c0,0-0.1-0.1-0.1-0.1c0,0,0,0.1,0.1,0.1c0,0-0.1-0.1-0.1-0.1
			c0,0,0,0.1,0,0.1c0,0,0-0.1,0-0.2c0,0,0,0.1,0,0.1c0-0.1,0-0.1,0-0.2c0,0,0,0.1,0,0.1c0-0.1,0-0.1,0-0.2c0,0,0,0.1,0,0.1
			c0,0,0-0.1,0.1-0.1c0,0,0,0.1-0.1,0.1c0,0,0,0,0,0c0.1-0.1,0.2-0.4,0-0.5C75,86.6,74.8,86.5,74.6,86.7L74.6,86.7z"/>
	</g>
</g>
<g>
	<g>
		<path class="st1" d="M76.4,86.7c0.1-0.1,0.1-0.2,0.2-0.3c0,0,0-0.1,0-0.1c0,0,0-0.1,0-0.1c0,0,0-0.1-0.1-0.1c0,0-0.1-0.1-0.1-0.1
			c0,0-0.1,0-0.1,0c-0.1,0-0.1,0-0.2,0c0,0-0.1,0-0.1,0c-0.1,0-0.1,0.1-0.1,0.1c-0.1,0.1-0.1,0.2-0.2,0.3c0,0,0,0.1,0,0.1
			c0,0,0,0.1,0,0.1c0,0,0,0.1,0.1,0.1c0,0,0.1,0.1,0.1,0.1c0,0,0.1,0,0.1,0c0.1,0,0.1,0,0.2,0c0,0,0.1,0,0.1,0
			C76.3,86.8,76.4,86.7,76.4,86.7L76.4,86.7z"/>
	</g>
</g>
<g>
	<g>
		<path class="st1" d="M103.3,88.9c0.1,0,0.1-0.1,0.2-0.1c0,0,0.1,0,0.1,0c0.1,0-0.1,0,0,0c0.1,0,0.3-0.1,0.4-0.1c-0.1,0,0,0,0,0
			c0,0,0.1,0,0.1,0c0,0,0.1,0,0.1,0c0,0-0.1,0,0,0c0.1,0,0.1,0,0.2,0c0,0,0,0,0,0c0,0,0,0,0,0c0,0,0,0,0.1,0c0.1,0-0.1-0.1,0,0
			c0,0,0,0,0.1,0.1c0,0,0,0,0,0c0,0,0,0,0,0c0,0,0,0.1,0,0.1c0-0.1,0-0.1,0,0c0,0,0,0,0,0c0,0.1,0,0,0,0c0,0,0,0.1,0,0.1
			c0,0.1,0-0.1,0,0c0,0,0,0,0,0.1c0,0,0,0,0,0c0,0,0,0,0,0c0,0,0,0,0,0.1c-0.1,0.1,0,0,0,0c0,0,0,0,0,0c0,0,0.1,0,0,0c0,0,0,0,0,0
			c-0.1,0,0.1,0,0,0c-0.1,0,0.1,0,0,0c-0.2,0-0.4,0.2-0.4,0.4c0,0.2,0.2,0.4,0.4,0.4c0.3,0,0.5-0.2,0.7-0.4c0.1-0.2,0.2-0.5,0.1-0.8
			c-0.2-0.6-0.8-0.8-1.4-0.7c-0.4,0-0.7,0.2-1,0.4c-0.2,0.1-0.2,0.4-0.1,0.5C102.9,89,103.1,89,103.3,88.9L103.3,88.9z"/>
	</g>
</g>
<g>
	<g>
		<path class="st1" d="M78.6,95c0.4,1.2,0.8,2.3,1.2,3.5c0.4,0.9,0.9,1.7,1.8,2.1c2.3,1.1,4.1-1.5,5.4-3c-0.4-0.1-0.8-0.1-1.2-0.2
			c1.1,1.6,2.5,4.6,4.9,4.3c2.4-0.2,3.7-3.2,4.8-5c0.5-0.8-0.8-1.6-1.3-0.8c-0.5,0.8-1,1.6-1.5,2.4c-0.5,0.7-1,1.6-1.9,1.8
			c-0.9,0.2-1.5-0.6-2-1.2c-0.6-0.8-1.1-1.6-1.6-2.4c-0.3-0.4-0.8-0.5-1.2-0.2c-0.8,0.9-2.6,3.6-3.9,2.5c-0.5-0.4-0.8-1.2-1-1.8
			c-0.3-0.9-0.6-1.8-0.9-2.7C79.7,93.7,78.3,94.1,78.6,95L78.6,95z"/>
	</g>
</g>
<g>
	<g>
		<path class="st1" d="M109.5,94.1c3.8-0.7,7.6-0.9,11.4-0.7c1,0.1,1-1.4,0-1.5c-4-0.2-7.9,0-11.8,0.7
			C108.2,92.8,108.6,94.3,109.5,94.1L109.5,94.1z"/>
	</g>
</g>
<g>
	<g>
		<path class="st1" d="M110.6,97.3c2.9,0.5,5.8,0.9,8.7,1.4c0.4,0.1,0.8-0.1,0.9-0.5c0.1-0.4-0.1-0.9-0.5-0.9
			c-2.9-0.5-5.8-0.9-8.7-1.4c-0.4-0.1-0.8,0.1-0.9,0.5C110,96.7,110.2,97.2,110.6,97.3L110.6,97.3z"/>
	</g>
</g>
<g>
	<g>
		<path class="st1" d="M69.2,91.3c-4-1.7-8.1-3-12.4-3.8c-0.1,0.5-0.1,1-0.2,1.5c0.1,0,0.3,0,0.4,0.1c1,0.1,0.9-1.4,0-1.5
			c-0.1,0-0.3,0-0.4-0.1c-0.8-0.1-1,1.3-0.2,1.5c4.1,0.7,8.2,1.9,12.1,3.6C69.3,92.9,70.1,91.6,69.2,91.3L69.2,91.3z"/>
	</g>
</g>
<g>
	<g>
		<path class="st1" d="M67.1,94.4c-2.5,0-5,0-7.5,0c-1,0-1,1.5,0,1.5c2.5,0,5,0,7.5,0C68.1,95.9,68.1,94.4,67.1,94.4L67.1,94.4z"/>
	</g>
</g>
</svg>
