<?xml version="1.0" encoding="utf-8"?>
<!-- Generator: Adobe Illustrator 26.3.1, SVG Export Plug-In . SVG Version: 6.00 Build 0)  -->
<svg version="1.1" id="Calque_1" xmlns="http://www.w3.org/2000/svg" xmlns:xlink="http://www.w3.org/1999/xlink" x="0px" y="0px"
	 viewBox="0 0 200 200" style="enable-background:new 0 0 200 200;" xml:space="preserve">
<style type="text/css">
	.st0{fill:#666666;}
	.st1{fill:#E7F4DF;}
	.st2{fill:#FD5A5C;}
	.st3{fill:#FD1015;}
</style>
<path class="st0" d="M153.8,62.6c-2.1-2.2-5.3-4.4-5.6-7.7c-0.4-3.8,3-6.9,5.5-9.3c1.1-1.1-0.1-2.8-1.5-2.5
	c-6.6,1.5-13.1-1.1-19.1-3.7c-6.2-2.7-12.4-5.4-19.1-6.5c-13.9-2.3-28,0.5-40.9,5.9c-7,2.9-13.6,6.6-20,10.6c-0.3,0-0.5,0-0.8,0.2
	c-3.8,2-5.7,6-7.5,9.6c-2.2,4.4-4.2,8.9-4.4,13.9c0,0,0,0.1,0,0.1c-0.2,0.2-0.4,0.6-0.4,1c0.3,12.5,0.7,25.5,6.6,36.8
	c1.3,2.5,2.9,4.9,4.8,7c1.8,2.1,4.1,3.8,5.9,6c1.5,1.9,1.6,4.1,2.5,6.2c0.4,0.9,0.9,1.7,1.8,2.3c0.4,0.3,0.9,0.5,1.3,0.5
	c1,0.2,1.5-0.4,2.2-1c1.4-1.2,2.9-2.5,4.3-3.7c0.6-0.5,1.2-1.2,1.9-1.4c0.7-0.2,1.5,0,2.2,0.2c3.3,0.9,6.6,2,9.9,3
	c-1.3,9.3,0.3,18.8,4.7,27.2c0.4,0.7,1.3,0.9,2,0.6c0,0,0.1,0,0.2,0.2c0.3,0.3,0.4,0.6,0.6,0.9c0.4,0.8,0.8,1.6,1.2,2.4
	c0.8,1.6,1.8,3.1,3,4.4c2.3,2.8,5.4,5,9,5.7c6.2,1.3,11.6-2.5,13.6-8.3c0.9-2.6,1-5.6,0.1-8.2c-1.1-3.2-3.4-5.8-5.8-8
	c-2.5-2.3-5.4-4.2-7.8-6.7c-1.2-1.2-2.3-2.6-3.1-4.1c-0.4-0.7-0.6-1.4-0.8-2.1c-0.1-0.5-0.6-2.1-0.3-2.5c0.3-0.4,1.8-0.5,2.2-0.6
	c0.9-0.2,1.9-0.5,2.8-0.7c1.9-0.4,3.9-0.9,5.9-1.1c4-0.4,7.9-0.2,11.4,2c0.5,0.3,1.4,0.3,1.8-0.2c4.6-5.6,10.6-9.6,16.1-14.1
	c5.3-4.4,9.8-9.5,12.9-15.7c3.1-6,4.9-12.7,5.4-19.5C158.9,75.1,158.5,67.7,153.8,62.6z"/>
<g>
	<g>
		<g>
			<path class="st1" d="M96,132.1c1.1,4.8,4.4,8.1,8.2,11c4.3,3.2,8.7,6.1,10.9,11.1c2,4.4,2.7,10.5-1.4,14
				c-3.7,3.2-8.9,2.8-12.8,0.3c-4.3-2.7-6.8-7.5-8.4-12.2c-0.4-1.2-2.1-1.5-2.7-0.4c-0.4,0.8-1.4,1.2-2.2,1.6
				c-0.3,0.2-0.7,0.3-1.1,0.4c-0.3,0.2,0,0.1,0,0c0.7,1.2,1.1,1.5,1.2,1c0-0.1,0.1-0.2,0.1-0.3c1.2-2.5,0.4-5.9-0.3-8.4
				c-0.9-3.1-2.5-6-3.1-9.2c-0.6-3.2,0.2-6.5,1-9.6c0.5-1.9-2.4-2.7-2.9-0.8c-1,3.8-1.8,7.7-0.9,11.6c0.9,3.8,3,7.2,3.6,11.1
				c0.2,0.9,0.2,1.9,0.1,2.9c-0.1,0.6-0.3,1.2-0.5,1.8c-0.3,1.3,0.1,2.8,1.7,2.9c1,0,2.1-0.6,2.9-1c1.2-0.6,2.4-1.4,3-2.5
				c-0.9-0.1-1.8-0.2-2.7-0.4c1.6,4.7,4,9.3,7.9,12.6c4.2,3.5,9.9,5,15,2.7c5.3-2.3,7.8-7.6,7.1-13.2c-0.7-6-3.9-11-8.5-14.7
				c-4.7-3.8-10.8-6.7-12.2-13.2C98.5,129.4,95.6,130.2,96,132.1L96,132.1z"/>
		</g>
	</g>
	<g>
		<g>
			<path class="st1" d="M118.2,160.9c-0.7-3-2.8-5.4-4.8-7.7c-2.2-2.5-4.7-4.7-7.1-7c-2.2-2-4.3-4.2-6.4-6.3
				c-2.1-2.2-3.7-4.5-4.2-7.5c-0.1-0.5-0.8-0.3-0.7,0.2c0.4,2.6,1.7,4.9,3.5,6.8c1.9,2.1,3.9,4.2,6,6.1c2.4,2.3,4.9,4.5,7.2,6.9
				c2.3,2.5,5,5.3,5.8,8.7C117.6,161.6,118.3,161.4,118.2,160.9L118.2,160.9z"/>
		</g>
	</g>
	<g>
		<g>
			<path class="st1" d="M118.3,162.2c-3.2-5.2-7.9-9.2-12.3-13.5c-4.8-4.8-8.6-10.2-10.8-16.6c-0.2-0.5-0.9-0.3-0.7,0.2
				c2.1,6.1,5.6,11.4,10.1,16.1c4.5,4.6,9.6,8.7,13,14.2C117.9,163,118.6,162.6,118.3,162.2L118.3,162.2z"/>
		</g>
	</g>
	<g>
		<g>
			<path class="st1" d="M118.1,164.2c-3.8-5.3-9.1-9.2-13.4-14.1c-4.6-5.2-8.1-11.1-10.6-17.5c-0.2-0.4-0.9-0.3-0.7,0.2
				c2.3,6.1,5.7,11.9,9.9,16.9c4.4,5.2,10.1,9.3,14.1,14.9C117.7,165,118.3,164.6,118.1,164.2L118.1,164.2z"/>
		</g>
	</g>
	<g>
		<g>
			<path class="st1" d="M116.7,165.3c-10.2-9.6-20.4-20-24.6-33.7c-0.1-0.5-0.9-0.3-0.7,0.2c4.2,13.8,14.5,24.4,24.8,34.1
				C116.5,166.1,117.1,165.6,116.7,165.3L116.7,165.3z"/>
		</g>
	</g>
	<g>
		<g>
			<path class="st1" d="M115.7,168c-2.8-3.1-5.5-6.2-8.3-9.3c-2.7-3-5.4-5.9-7.8-9.1c-2.1-2.9-4-6-5.5-9.3c-0.8-1.7-1.5-3.4-2.1-5.1
				c-0.3-0.8-0.6-1.6-0.8-2.5c-0.2-0.6-0.2-1.1-0.8-1.5c-0.1-0.1-0.3-0.1-0.4,0c-0.3,0.2-0.3,0.3-0.3,0.6c0,0.2,0.1,0.3,0.3,0.4
				c0,0,0.1,0,0.1,0c0.5,0.2,0.7-0.6,0.2-0.7c0,0-0.1,0-0.1,0c0.1,0.1,0.2,0.2,0.3,0.4c0,0.6-0.1,0.9,0.1,1.5c0.1,0.5,0.3,1,0.5,1.4
				c0.3,0.8,0.6,1.6,0.9,2.4c0.6,1.6,1.3,3.1,2,4.6c1.6,3.2,3.4,6.2,5.6,9c2.3,2.9,4.8,5.7,7.3,8.4c2.8,3.1,5.5,6.2,8.3,9.3
				C115.5,168.9,116,168.3,115.7,168L115.7,168z"/>
		</g>
	</g>
	<g>
		<g>
			<path class="st1" d="M114.3,168.9c-5.1-5.4-10.3-10.9-14.6-17c-2.1-3-4-6.1-5.5-9.3c-1.6-3.4-2.7-7-3.8-10.5
				c-0.1-0.5-0.9-0.3-0.7,0.2c1.1,3.5,2.1,7,3.7,10.3c1.6,3.4,3.5,6.6,5.7,9.7c4.4,6.2,9.5,11.7,14.7,17.2
				C114.1,169.8,114.7,169.3,114.3,168.9L114.3,168.9z"/>
		</g>
	</g>
	<g>
		<g>
			<path class="st1" d="M113.2,170.3c-4.6-4.3-8.9-9.2-12.3-14.5c-1.3-2-2.5-4.1-3.7-6.2c-1.8-3-3.2-6.1-4.5-9.4
				c-1.1-2.9-2.3-5.8-3-8.8c-0.1-0.5-0.8-0.3-0.7,0.2c0.7,2.7,1.7,5.3,2.7,7.9c1.3,3.3,2.6,6.5,4.4,9.6c2.5,4.3,4.9,8.9,8.2,12.7
				c2.7,3.1,5.4,6.2,8.4,9C113,171.2,113.5,170.6,113.2,170.3L113.2,170.3z"/>
		</g>
	</g>
	<g>
		<g>
			<path class="st1" d="M111.4,170.3c-6.2-4.2-10.4-10.9-14-17.4c-3.8-6.8-6.7-14.1-8.3-21.7c-0.1-0.5-0.8-0.3-0.7,0.2
				c1.7,7.8,4.7,15.3,8.6,22.2c3.6,6.4,7.9,13,14.1,17.2C111.4,171.3,111.8,170.6,111.4,170.3L111.4,170.3z"/>
		</g>
	</g>
	<g>
		<g>
			<path class="st1" d="M109.8,170.7c-3.5-1.6-6-4.4-8.3-7.4c-2.3-3.1-4.5-6.3-6.4-9.6c-4-7.1-6.9-15-6.7-23.2c0-0.5-0.7-0.5-0.8,0
				c-0.2,8.3,2.8,16.4,6.8,23.6c2,3.6,4.3,7,6.8,10.2c2.2,2.9,4.7,5.5,8.1,7.1C109.9,171.6,110.3,170.9,109.8,170.7L109.8,170.7z"/>
		</g>
	</g>
	<g>
		<g>
			<path class="st1" d="M107.6,170.9c-3.7-2.3-7.6-4.5-10-8.3c-1.6-2.5-2.9-5.2-4.1-7.8c-3.1-7.1-5.8-15-5.8-22.9
				c0-0.5-0.7-0.5-0.8,0c0,6.3,1.7,12.6,3.9,18.5c1,2.7,2.2,5.4,3.5,8c1.1,2.2,2.2,4.4,3.8,6.3c2.4,2.9,5.9,4.8,9.1,6.8
				C107.6,171.8,108,171.1,107.6,170.9L107.6,170.9z"/>
		</g>
	</g>
	<g>
		<g>
			<path class="st1" d="M89.5,157.9c1.5-1.3,1.2-3.6,1-5.3c-0.3-2.3-1-4.5-1.7-6.7c-1.6-5-2.8-9.8-1.3-15.1c0.1-0.5-0.6-0.7-0.7-0.2
				c-1.3,4.6-0.7,9,0.7,13.5c0.6,2,1.4,4.1,1.9,6.1c0.5,1.9,1.5,5.7-0.3,7.2C88.6,157.6,89.1,158.2,89.5,157.9L89.5,157.9z"/>
		</g>
	</g>
	<g>
		<g>
			<path class="st1" d="M87.9,158.3c1.1-1.5,1-3.3,0.6-5c-0.4-2.4-1.1-4.7-1.8-7c-1.4-5-1.9-9.8-0.2-14.8c0.2-0.5-0.6-0.7-0.7-0.2
				c-1.5,4.3-1.4,8.6-0.4,13c0.6,2.3,1.2,4.5,1.8,6.8c0.5,2.2,1.5,5,0,6.9C87,158.3,87.6,158.7,87.9,158.3L87.9,158.3z"/>
		</g>
	</g>
	<g>
		<g>
			<path class="st1" d="M102.5,147.6c-1.8-2.2-3.2-4.7-4.8-7.1c-1.8-2.8-3.7-5.5-4.7-8.8c-0.2-0.5-0.8-0.3-0.7,0.2
				c0,0.1,0,0.2,0,0.3c0.1,0.5,0.8,0.3,0.7-0.2c0-0.1,0-0.2,0-0.3c-0.2,0.1-0.5,0.1-0.7,0.2c1.1,3.3,2.9,6,4.8,8.9
				c1.6,2.5,3,4.9,4.9,7.2C102.3,148.5,102.8,147.9,102.5,147.6L102.5,147.6z"/>
		</g>
	</g>
	<g>
		<g>
			<path class="st1" d="M101.7,139.8c-1.3-1.1-2.3-2.5-3.3-3.9c-1-1.3-1.8-2.7-2.3-4.3c-0.1-0.5-0.9-0.3-0.7,0.2
				c0.5,1.6,1.4,3.1,2.4,4.5c1,1.4,2.1,2.9,3.4,4C101.5,140.7,102.1,140.2,101.7,139.8L101.7,139.8z"/>
		</g>
	</g>
</g>
<g>
	<g>
		<path class="st1" d="M126.7,124.5c-0.5,1-1,1.9-1.4,2.9c-0.1,0.2-0.2,0.4-0.2,0.6c0,0.1-0.1,0.3-0.1,0.2c0.1-0.1,0,0.1,0,0.1
			c0,0.1-0.1,0.2-0.1,0.2c-0.1,0.1-0.1,0.3-0.2,0.4c-0.1,0.1-0.1,0.2-0.2,0.3c0,0.1-0.2,0.3-0.1,0.2c0.1-0.2-0.1,0.1-0.2,0.2
			c-0.1,0.1-0.2,0.2-0.2,0.2c0,0-0.1,0.1-0.1,0.1c0,0,0.3-0.2,0.1-0.1c-0.1,0-0.2,0.1-0.2,0.2c-0.1,0-0.1,0.1-0.2,0.1
			c0,0-0.1,0-0.1,0c-0.1,0.1,0.3-0.1,0.2-0.1c-0.1,0-0.3,0.1-0.4,0.1c-0.3,0.1,0,0,0.1,0c-0.1,0-0.2,0-0.2,0c-0.1,0-0.2,0-0.3,0
			c-0.2,0,0.4,0.1,0.2,0c-0.1,0-0.1,0-0.2,0c-0.1,0-0.2,0-0.3-0.1c0,0-0.1,0-0.1,0c-0.2-0.1,0.2,0.1,0.2,0.1c0,0-0.1,0-0.1-0.1
			c-0.1,0-0.4-0.2-0.2-0.1c-0.2-0.1-0.3-0.3-0.4-0.4c-0.6-0.6-0.7-0.8-1.2-1.5c-0.4-0.7-1.4-1-2.1-0.5c-0.7,0.4-1,1.3-0.5,2.1
			c0.8,1.2,1.7,2.4,2.9,3.1c0.6,0.3,1.2,0.4,1.8,0.5c2.2,0.2,4-1.5,4.8-3.4c0.1-0.3,0.2-0.6,0.3-0.8c0,0,0-0.1,0.1-0.1
			c0.1-0.2-0.2,0.3,0,0c0.1-0.3,0.3-0.6,0.4-0.9c0.3-0.6,0.6-1.2,0.9-1.9c0.3-0.7,0.2-1.7-0.5-2.1
			C128.1,123.6,127.1,123.7,126.7,124.5L126.7,124.5z"/>
	</g>
</g>
<path class="st2" d="M151.9,99.7c-2-0.3-3.9-0.7-5.9-1c-0.2-0.3-0.4-0.5-0.8-0.6c-6.2-1.3-12.5-2.1-18.8-2.5
	c-1.9-0.6-3.7-1.1-5.6-1.5c-7.6-1.5-15.6,1-23-1.3c-1.8-0.6-3.5-1.4-5.3-1.9c-1.7-0.5-3.5-0.5-5.3-0.6c-1.6,0-3.4,0-4.7-1.1
	c-1.1-0.9-1.7-2.3-2.4-3.6c-0.7-1.3-2.1,0.5-3.2-0.5c-1.2-1.1-1.9-4.9-3.4-5.5c-1.4-0.6-2.9-1.3-3.7-2.7c-0.9-1.5-1.4-3.2-2.1-4.8
	c-3.2-7.5-8-14.4-13.9-20.1c-0.2-0.2-0.4-0.3-0.5-0.3c-0.1-0.6-0.6-1.2-1.4-1.2c-3.8-0.1-5.9,3.4-6.5,6.7c-0.7,3.9-1,8-0.3,11.9
	c1.3,7.3,7,13,12.1,18c2.6,2.6,5.4,5.1,8.6,7c3.4,2,7,3,10.9,3.4c4.1,0.3,8.2-0.1,12.2-0.4c4.2-0.3,8.5-0.4,12.8-0.3
	c4.9,0.2,9.7,0.7,14.5,1.5c0.8,0.1,1.6,0.3,2.3,0.4c0,0.6,0.3,1.3,1,1.6c7.9,2.8,14.9,7.8,20.1,14.4c0.5,0.6,1.6,0.6,2.1,0
	c3.6-4.1,7.3-8.3,10.9-12.4C153.2,101.4,153.1,99.9,151.9,99.7z"/>
<path class="st2" d="M117.7,123.8c-0.9-1.5-2.6-2.1-4.2-2.4c-1.7-0.3-3.5-0.3-5.2-0.6c-1.7-0.3-3.1-1.1-4.5-2.1
	c-3-2-5.8-4.1-9.2-5.7c-3.4-1.6-7-2.9-10.4-4.4c-3.4-1.5-6.8-3.1-10.1-4.8c-3.9-2-7.7-4-11.4-6.2c-3.4-2-6.1-4.4-8.2-7.7
	c-2.2-3.3-4.1-6.7-6.3-9.9c-1.2-1.7-2.2-3.5-2.8-5.5c-0.6-2.1-0.9-4.3-1.2-6.5c-0.1-0.5-0.3-0.8-0.6-1.1c-0.4-1.2-2.5-1.5-2.8,0
	c-1.7,7.7-1.1,15.6,0.4,23.3c0.7,3.8,1.7,7.5,2.8,11.1c1,3.6,2,7.3,3.5,10.8c1.3,3.1,3.2,6.1,5.7,8.3c2.5,2.2,5.5,3.4,8.8,3.9
	c1.7,0.3,3.5,0.4,5.2,0.8c1.9,0.4,3.6,1.1,5.4,1.9c3.5,1.5,7.1,2.2,10.8,2.8c7.6,1.4,15.5,2.7,23.2,0.9c1.6-0.4,3.2-0.9,4.8-1.4
	c0.9-0.3,1.7-0.6,2.6-0.9c1-0.3,2.1-0.4,3.1-0.8C118.3,126.9,118.4,125.1,117.7,123.8z"/>
<g>
	<g>
		<path class="st1" d="M73.5,126.2c-0.5-0.1-0.9-0.3-1.4-0.3c-0.8-0.1-1.5,0.1-2.2,0.4c-2,1.1-2.6,3.6-4.2,5.1
			c-0.6,0.6-1.4,1-2.2,0.9c-1-0.2-1.6-1.2-2-2.1c-0.5-1-0.7-2.1-1.1-3.1c-0.4-1.1-0.8-2.3-1.2-3.4c-0.6-1.8-3.5-1-2.9,0.8
			c0.8,2.4,1.5,5,2.5,7.3c1.1,2.4,3.5,4.1,6.2,3.4c2.7-0.7,4-3.1,5.4-5.3c0.2-0.3,0.5-0.7,0.8-0.9c0.2-0.1,0,0,0.3-0.1
			c0.3-0.1-0.1,0,0.2,0c0.4,0,0,0,0.2,0c0.1,0,0.2,0,0.3,0.1c0.2,0.1,0.4,0.1,0.5,0.2c0.8,0.2,1.6-0.2,1.8-1
			C74.8,127.3,74.3,126.4,73.5,126.2L73.5,126.2z"/>
	</g>
</g>
<g>
	<g>
		<path class="st1" d="M140.5,42.4c-2.6-1.3-5.1-2.9-7.7-4.2c-3.4-1.7-6.8-3.3-10.3-4.8c-7.3-3-15.1-5.1-23.1-4
			c-3.5,0.5-7,1.2-10.5,1.8c-5.5,1.1-11.1,2.2-16.3,4.2c-4.2,1.6-8.1,3.7-12,5.8c-3.8,2.1-7.1,5-10.7,7.5c-1.6,1.1-0.1,3.7,1.5,2.6
			c3.1-2.1,5.9-4.6,9-6.5c3.3-2,6.8-3.8,10.3-5.3c5.3-2.4,10.9-3.7,16.6-4.9c3.6-0.7,7.3-1.3,10.9-2c7.1-1.2,14,0.1,20.6,2.5
			c4.1,1.5,8,3.4,11.9,5.3c2.8,1.4,5.4,3,8.2,4.4C140.8,45.8,142.3,43.2,140.5,42.4L140.5,42.4z"/>
	</g>
</g>
<g>
	<g>
		<path class="st1" d="M85.4,131.3c-0.9,0.6-1.3,1.7-1.7,2.6c-0.5,1-1.1,2.1-1.2,3.2c0,0.5,0.7,0.5,0.8,0c0.1-1,0.6-2,1.1-2.8
			c0.4-0.8,0.7-1.8,1.5-2.3C86.2,131.6,85.8,131,85.4,131.3L85.4,131.3z"/>
	</g>
</g>
<g>
	<g>
		<path class="st1" d="M121.9,78.1c-0.8,0.8-1.7,1.6-2.6,2.2c-0.1,0.1-0.6,0.5-0.7,0.4c-0.1,0-0.2-0.3-0.3-0.4
			c-0.3-0.6-0.7-1.1-1-1.7c-0.2-0.4-0.8-0.5-1.2-0.2c-0.5,0.6-1.1,1.1-1.6,1.7c-0.5,0.5-1,1-1.7,0.9c-1.5-0.2-2.1-1.8-2.5-3
			c-0.3-0.9-1.7-0.5-1.4,0.4c0.5,1.8,1.5,3.7,3.5,4.1c2.1,0.4,3.5-1.6,4.8-2.9c-0.4-0.1-0.8-0.1-1.2-0.2c0.7,1.1,1.4,3.3,3.1,2.7
			c0.7-0.3,1.4-0.8,2-1.3c0.7-0.5,1.3-1.1,1.9-1.7C123.6,78.5,122.6,77.4,121.9,78.1L121.9,78.1z"/>
	</g>
</g>
<g>
	<g>
		<path class="st1" d="M105.4,68.2c0,0.1,0,0.1-0.1,0.1c0,0,0,0,0,0c0,0,0,0,0,0c0,0,0,0,0,0c0,0,0.1,0.1,0.2,0.1c0,0,0,0,0,0
			c0,0,0,0,0,0c0,0,0,0,0,0c0,0-0.1,0-0.1,0c-0.1-0.1-0.2-0.3-0.2-0.5c0-0.1,0-0.1,0-0.2c0,0.1,0-0.1,0-0.1c0,0.1-0.2,0.1-0.1,0.1
			c0.2,0,0.3-0.2,0.3-0.4c0-0.2-0.1-0.3-0.3-0.4c-0.5-0.2-1.1-0.4-1.6-0.2c-0.6,0.2-0.8,0.9-0.7,1.5c0.1,0.6,0.6,1.1,1.3,1
			c0.6-0.1,1-0.7,0.9-1.3c0-0.2-0.2-0.4-0.4-0.4c-0.2,0-0.4,0.2-0.4,0.4c0,0.3,0,0.7,0,1c0,0,0,0.1,0,0.1c0,0,0,0.1,0,0c0,0,0,0,0,0
			c0,0,0,0,0,0c0,0,0,0,0,0c0,0,0,0,0,0c0,0.1,0,0,0.1,0.1c-0.1,0.2-0.2,0.3-0.3,0.5c0.1,0,0.3,0,0.4,0c0.1,0,0.1,0,0.2,0
			c0.2,0,0.1,0,0-0.1c0-0.1,0-0.1-0.1,0c-0.1,0-0.2,0-0.3,0c-0.1,0-0.2,0-0.3,0c-0.1,0-0.1,0-0.1,0c0,0,0,0,0,0c0,0,0-0.1,0-0.1
			c0-0.1,0.1-0.1,0.1-0.2c0.2-0.2,0.4-0.2,0.6-0.3c0,0,0.1,0,0.1,0c0,0,0.1,0,0.1,0.1c0.2,0,0.4,0,0.5-0.2c0.1-0.1,0.1-0.3,0.1-0.4
			c0-0.1-0.1-0.2-0.1-0.2c0,0,0-0.1,0,0c0,0,0,0.1,0,0.2c0,0,0.1,0,0.1,0c0.2,0,0.3,0,0.5-0.1c0.2-0.1,0.3-0.3,0.3-0.5
			c-0.2-0.6-0.5-1.1-1.1-1.3c-0.6-0.2-1.1,0.2-1.5,0.7c-0.1,0.2,0,0.4,0.1,0.5c0.2,0.1,0.4,0,0.5-0.1c0.2-0.2,0.4-0.5,0.7-0.4
			c0.3,0.1,0.4,0.5,0.6,0.8c0.1-0.2,0.2-0.3,0.3-0.5c-0.2,0.1-0.3,0-0.5,0c-0.2,0-0.4,0.1-0.5,0.2c-0.1,0.1-0.2,0.3-0.2,0.5
			c0,0.1,0,0.2,0.1,0.3c0,0,0.1,0.1,0.1,0.1c0.1,0.1-0.1,0,0-0.2c0,0,0.1-0.1,0.1-0.1c0,0,0,0,0,0c0.1,0,0.1,0,0.2-0.1
			c0,0,0.1,0,0,0c0,0-0.1,0-0.1,0c-0.1,0-0.1,0-0.2,0c-0.1,0-0.3,0.1-0.4,0.1c-0.2,0.1-0.4,0.2-0.6,0.3c-0.4,0.3-0.7,0.8-0.5,1.2
			c0.2,0.5,0.7,0.6,1.1,0.6c0.5,0,1.1-0.2,1.1-0.8c0-0.7-1-0.7-1.5-0.5c-0.2,0-0.3,0.3-0.3,0.5c0.1,0.3,0.3,0.4,0.6,0.4
			c0.2,0,0.5-0.1,0.6-0.3c0.2-0.2,0.2-0.5,0.2-0.8c0-0.3,0-0.6,0-0.9c-0.2,0-0.5,0-0.8,0c0,0.2,0,0.3-0.1,0.4
			c-0.1,0.1-0.2,0.1-0.3,0.2c-0.3,0-0.4-0.2-0.4-0.5c0-0.1,0-0.3,0.1-0.4c0.1-0.1,0.2-0.1,0.2-0.1c0.4,0,0.7,0.1,1.1,0.3
			c0-0.2,0-0.5,0-0.7c-0.6,0.1-0.5,0.8-0.4,1.2c0.1,0.5,0.5,1.1,1.1,1c0.3,0,0.5-0.2,0.7-0.5c0.1-0.3,0-0.6-0.2-0.8
			c-0.2-0.2-0.4-0.4-0.7-0.4c-0.3,0-0.5,0.2-0.6,0.4c-0.1,0.2,0.1,0.4,0.3,0.5C105.2,68.5,105.3,68.4,105.4,68.2L105.4,68.2z"/>
	</g>
</g>
<g>
	<g>
		<path class="st1" d="M104.6,68.2C104.6,68.2,104.6,68.2,104.6,68.2C104.6,68.2,104.6,68.2,104.6,68.2
			C104.6,68.1,104.6,68.2,104.6,68.2c0-0.1,0-0.1,0-0.1C104.6,68.1,104.6,68.1,104.6,68.2c0-0.1,0-0.1,0-0.2c0,0,0,0,0,0
			c0-0.1,0.1-0.1,0,0c0,0,0,0,0,0c0,0,0.1,0,0,0c0,0,0,0,0,0c0,0,0.1,0,0.1,0c0,0-0.1,0-0.1,0c0,0,0.1,0,0.1,0c0,0-0.1,0-0.1,0
			c0,0,0.1,0,0.1,0c0,0-0.1,0-0.1,0c0,0,0.1,0,0.1,0c-0.1-0.1-0.3-0.2-0.4-0.3c-0.2-0.1-0.4-0.2-0.6-0.2c-0.1,0-0.2,0-0.3,0.1
			c-0.1,0.1-0.1,0.2-0.1,0.3c0,0.1,0,0.2,0.1,0.3c0.1,0.1,0.2,0.1,0.3,0.1c0,0,0.1,0,0.1,0c0,0-0.1,0-0.1,0c0,0,0.1,0,0.1,0
			c0,0-0.1,0-0.1,0c0.1,0.1,0.2,0.1,0.3,0.2c0.1,0.1,0.3,0.2,0.5,0.2c0.4,0.1,0.9-0.3,0.8-0.8c0-0.2-0.3-0.3-0.5-0.3
			C104.7,67.8,104.6,68,104.6,68.2L104.6,68.2z"/>
	</g>
</g>
<g>
	<g>
		<path class="st1" d="M105,69.4c0.1,0,0.2,0,0.3,0.1c0,0-0.1,0-0.1,0c0,0,0.1,0,0.1,0.1c0,0-0.1,0-0.1-0.1c0,0,0,0,0.1,0.1
			c0,0,0-0.1-0.1-0.1c0,0,0,0.1,0,0.1c0,0,0-0.1,0-0.1c0,0,0,0,0,0.1c0,0,0-0.1,0-0.1c0,0,0,0,0,0.1c0,0,0-0.1,0-0.1c0,0,0,0,0,0.1
			c0,0,0-0.1,0-0.1c0,0,0,0,0,0c0,0,0-0.1,0.1-0.1c0,0,0,0,0,0c0,0,0.1,0,0.1-0.1c0,0-0.1,0-0.1,0c0,0,0.1,0,0.1,0
			c-0.1,0.1-0.3,0.1-0.5,0.1C104.9,69.3,104.9,69.3,105,69.4c-0.2,0-0.4,0-0.6,0c-0.1,0-0.2,0-0.3,0.1c-0.1,0.1-0.1,0.2-0.1,0.3
			c0,0.1,0,0.2,0.1,0.3c0.1,0.1,0.2,0.1,0.3,0.1c0.2,0,0.5,0,0.7,0c0.2,0,0.5-0.1,0.6-0.3c0.2-0.2,0.2-0.6,0.1-0.8
			c-0.2-0.2-0.4-0.3-0.7-0.4c-0.1,0-0.2,0-0.3,0c-0.1,0-0.2,0.1-0.2,0.2c0,0.1,0,0.2,0,0.3C104.8,69.3,104.9,69.3,105,69.4L105,69.4
			z"/>
	</g>
</g>
<g>
	<g>
		<path class="st1" d="M127.6,68.9c0.1,0.1,0.1,0.2,0.2,0.3c0,0,0,0.1,0,0.1c0,0,0,0.1,0,0c-0.1,0.1-0.1,0-0.2,0
			c-0.1,0-0.2-0.1-0.3-0.2c-0.1-0.1-0.2-0.2-0.2-0.3c0,0,0.2-0.1,0.2-0.1c0.1-0.1,0.3-0.1,0.4-0.1c0,0,0.1,0,0.1,0c0,0,0.1,0,0,0
			c0,0,0,0,0,0c0,0,0,0,0,0c0.2-0.1,0.4-0.2,0.6-0.3c-0.1-0.1-0.2-0.2-0.2-0.4c0,0,0-0.1,0-0.1c0,0,0-0.1,0,0c0,0,0.1,0,0.1,0
			c0,0,0.1,0.1,0.1,0.1c0.1,0.1,0.2,0.3,0.2,0.4c0,0,0,0,0,0.1c0,0,0,0.1,0,0c0,0.1-0.1,0.1-0.1,0.1c-0.1,0.1-0.2,0.1-0.3,0.1
			c-0.3,0-0.5-0.1-0.7-0.3c-0.1,0.2-0.2,0.4-0.3,0.6c0.2,0,0.3,0,0.5,0.2c0.2-0.2,0.3-0.4,0.5-0.6c-0.3-0.2-0.6-0.5-0.6-0.9
			c0-0.3,0.1-0.5-0.2-0.7c-0.2-0.2-0.6-0.2-0.8-0.1c-0.3,0.1-0.5,0.3-0.7,0.4c-0.2,0.2-0.4,0.4-0.5,0.6c-0.2,0.6,0.2,1,0.7,1.3
			c0.5,0.3,1.2,0.4,1.6-0.2c0.1-0.2,0-0.3-0.1-0.5c-0.3-0.4-0.9-0.4-1.3-0.2c-0.4,0.2-0.6,0.8-0.4,1.2c0.2,0.5,0.6,0.8,1.2,0.8
			c0.5-0.1,1-0.4,1.1-1c0.1-0.5-0.6-0.7-0.7-0.2c-0.1,0.2-0.2,0.4-0.5,0.4c-0.1,0-0.2,0-0.2-0.1c-0.1,0-0.1-0.1-0.2-0.2
			c0-0.1,0-0.1,0-0.2c0-0.1,0,0,0,0c0,0,0.1-0.1,0,0c0,0,0,0,0.1-0.1c0,0,0,0,0,0c0,0,0.1,0,0,0c0,0,0.1,0,0.1,0c0.1,0-0.1,0,0,0
			c0,0,0,0,0.1,0c-0.1,0,0.1,0,0.1,0c0,0,0,0,0,0c0,0,0.1,0.1,0.1,0.1c0-0.2,0-0.3-0.1-0.5c0,0,0,0,0,0c0,0,0,0-0.1,0
			c0,0-0.1,0-0.1,0c0,0-0.1,0-0.1,0c-0.2-0.1-0.4-0.2-0.5-0.3c-0.1-0.1-0.1-0.2,0-0.3c0.1-0.2,0.3-0.3,0.5-0.4
			c0.1,0,0.2-0.1,0.2-0.1c0,0,0.2,0,0.1,0c-0.1-0.2-0.1-0.3-0.1-0.1c0,0,0,0,0,0.1c0,0.2,0,0.4,0.1,0.7c0.2,0.4,0.5,0.8,0.9,1
			c0.4,0.2,0.8-0.3,0.5-0.6c-0.3-0.3-0.6-0.4-1-0.4c-0.3,0-0.5,0.4-0.3,0.6c0.4,0.4,1,0.6,1.6,0.4c0.3-0.1,0.5-0.3,0.7-0.5
			c0.2-0.3,0.1-0.7,0-1c-0.1-0.3-0.3-0.5-0.6-0.7c-0.3-0.2-0.7-0.2-1,0.1c-0.2,0.2-0.3,0.5-0.3,0.8c0.1,0.3,0.2,0.5,0.4,0.8
			c0.2,0.3,0.6,0,0.6-0.3c0-0.3-0.2-0.6-0.5-0.7c-0.3-0.2-0.7-0.1-1,0.1c-0.3,0.1-0.6,0.3-0.7,0.6c-0.1,0.3,0.1,0.6,0.3,0.9
			c0.2,0.3,0.4,0.5,0.7,0.6c0.3,0.1,0.6,0.1,0.8-0.1c0.3-0.2,0.4-0.5,0.4-0.8c0-0.3-0.2-0.6-0.4-0.8c-0.1-0.2-0.4-0.1-0.5,0
			C127.4,68.6,127.5,68.8,127.6,68.9L127.6,68.9z"/>
	</g>
</g>
<g>
	<g>
		<path class="st1" d="M128.7,67.7c-0.1-0.4-0.4-0.8-0.8-0.9c-0.2-0.1-0.4-0.1-0.7,0c-0.2,0-0.4,0.2-0.6,0.3c-0.2,0.1-0.1,0.4,0,0.5
			c0.2,0.1,0.4,0.1,0.5,0c0,0-0.1,0,0,0c0,0,0,0,0,0c0,0,0.1,0,0.1,0c0,0-0.1,0,0,0c0,0,0,0,0.1,0c0,0,0.1,0,0.1,0c-0.1,0-0.1,0,0,0
			c0,0,0,0,0.1,0c0,0,0.1,0,0.1,0c0,0-0.1,0,0,0c0,0,0,0,0.1,0c0,0,0.1,0,0.1,0c0,0-0.1,0,0,0c0,0,0,0,0,0c0,0,0.1,0,0.1,0.1
			c0,0-0.1-0.1,0,0c0,0,0,0,0,0c0,0,0.1,0.1,0.1,0.1c0,0,0,0.1,0,0c0,0,0,0,0,0c0,0,0,0.1,0.1,0.1c0,0,0,0.1,0,0c0-0.1,0,0,0,0
			c0,0,0,0.1,0,0.1c0,0.2,0.3,0.3,0.5,0.3C128.6,68.1,128.7,67.9,128.7,67.7L128.7,67.7z"/>
	</g>
</g>
<g>
	<g>
		<path class="st1" d="M128.1,68.9C128.1,68.9,128.1,68.9,128.1,68.9C128.1,68.9,128.1,68.9,128.1,68.9
			C128.2,69,128.2,69,128.1,68.9c0.1,0.1,0.1,0.1,0.1,0.2C128.2,69,128.2,69,128.1,68.9c0.1,0.1,0.1,0.2,0.1,0.3c0,0,0-0.1,0-0.1
			c0,0.1,0,0.1,0,0.2c0,0,0-0.1,0-0.1c0,0.1,0,0.1-0.1,0.2c0,0,0-0.1,0-0.1c0,0,0,0.1-0.1,0.1c0,0.1,0.1-0.1,0,0c0,0,0,0,0,0
			c0,0,0,0,0,0c0.1-0.1,0,0,0,0c0,0-0.1,0-0.1,0.1c0,0,0.1,0,0.1,0c-0.1,0-0.1,0-0.2,0.1c0,0,0.1,0,0.1,0c-0.1,0-0.3,0-0.4,0
			c0,0,0.1,0,0.1,0c-0.1,0-0.3-0.1-0.4-0.1c-0.2-0.1-0.4,0.1-0.5,0.3c0,0.2,0.1,0.4,0.3,0.5c0.2,0.1,0.4,0.1,0.6,0.1
			c0.2,0,0.5,0,0.7-0.1c0.2-0.1,0.4-0.3,0.5-0.4c0.1-0.2,0.1-0.5,0.1-0.7c0-0.2-0.2-0.5-0.3-0.6c-0.1-0.1-0.2-0.1-0.3-0.1
			c-0.1,0-0.2,0-0.3,0.1C127.9,68.5,127.9,68.7,128.1,68.9L128.1,68.9z"/>
	</g>
</g>
<g>
	<g>
		<path class="st1" d="M126.6,68.1c-0.1-0.1-0.2-0.2-0.3-0.4c0,0-0.1-0.1-0.1-0.1c0,0-0.1,0-0.1,0c-0.1,0-0.1,0-0.1,0
			c0,0-0.1,0-0.1,0.1c0,0,0,0.1-0.1,0.1c0,0.1-0.1,0.1-0.1,0.2c0,0,0,0.1,0,0.1c0,0.1,0,0.1,0.1,0.2c0.1,0.1,0.2,0.2,0.3,0.4
			c0,0,0.1,0.1,0.1,0.1c0,0,0.1,0,0.1,0c0.1,0,0.1,0,0.1,0c0,0,0.1,0,0.1-0.1c0,0,0-0.1,0.1-0.1c0-0.1,0.1-0.1,0.1-0.2
			c0,0,0-0.1,0-0.1C126.7,68.2,126.7,68.1,126.6,68.1L126.6,68.1z"/>
	</g>
</g>
<g>
	<g>
		<path class="st1" d="M105.6,67.7C105.6,67.7,105.6,67.7,105.6,67.7C105.7,67.8,105.6,67.8,105.6,67.7c0.1,0,0.1,0.1,0.1,0.1
			c0,0,0,0,0,0c0,0-0.1-0.1,0,0c0,0,0.1,0.1,0.1,0.1c0,0,0.1,0.1,0,0c0,0,0,0,0,0c0,0,0,0.1,0.1,0.1c0,0.1,0-0.1,0,0c0,0,0,0,0,0.1
			c0,0,0,0.1,0,0.1c0,0,0-0.1,0,0c0,0,0,0,0,0.1c0,0,0,0,0,0c0,0,0,0,0,0c0,0,0,0,0,0c0,0,0,0.1,0,0.1c0,0,0,0,0,0c0,0.1,0-0.1,0,0
			c0,0,0,0.1-0.1,0.1c0,0,0,0.1,0,0.1c0,0,0,0,0,0c0,0,0,0,0,0c0,0-0.1,0.1-0.1,0.1c-0.1,0.1,0,0,0,0c0,0-0.1,0-0.1,0
			c-0.2,0.1-0.2,0.3-0.1,0.5c0.1,0.2,0.3,0.2,0.5,0.1c0.5-0.3,0.7-0.8,0.6-1.3c-0.1-0.5-0.5-0.9-0.9-1c-0.2-0.1-0.4,0.1-0.5,0.3
			C105.3,67.5,105.4,67.7,105.6,67.7L105.6,67.7z"/>
	</g>
</g>
<g>
	<g>
		<path class="st1" d="M103.8,69c0,0-0.1-0.1-0.1-0.1C103.7,68.9,103.8,68.9,103.8,69c-0.1-0.1-0.1-0.1-0.1-0.2c0,0,0,0.1,0,0.1
			c0-0.1,0-0.1-0.1-0.2c0,0,0,0.1,0,0.1c0-0.1,0-0.1,0-0.2c0,0,0,0.1,0,0.1c0-0.1,0-0.1,0.1-0.2c0,0,0,0.1,0,0.1
			c0-0.1,0.1-0.1,0.1-0.2c0,0,0,0.1-0.1,0.1c0,0,0,0,0-0.1c0.1-0.1,0.2-0.4,0-0.5c-0.1-0.1-0.4-0.2-0.5,0c-0.2,0.2-0.3,0.5-0.3,0.8
			c0,0.3,0.1,0.6,0.4,0.8c0.1,0.1,0.2,0.1,0.3,0.1c0.1,0,0.2,0,0.3-0.1C103.9,69.4,104,69.1,103.8,69L103.8,69z"/>
	</g>
</g>
<g>
	<g>
		<path class="st1" d="M103.6,69.2C103.6,69.2,103.6,69.2,103.6,69.2C103.6,69.2,103.6,69.2,103.6,69.2
			C103.6,69.2,103.6,69.2,103.6,69.2C103.6,69.2,103.6,69.2,103.6,69.2C103.6,69.2,103.6,69.1,103.6,69.2
			C103.5,69.1,103.6,69.2,103.6,69.2c-0.1-0.1-0.1-0.1-0.1-0.2C103.5,69.1,103.5,69.1,103.6,69.2c-0.1-0.1-0.1-0.2-0.1-0.3
			c0,0,0,0.1,0,0.1c0-0.1,0-0.1,0-0.2c0,0,0,0.1,0,0.1c0-0.1,0-0.1,0-0.1c0,0,0,0.1,0,0.1c0,0,0-0.1,0.1-0.1c0,0,0,0.1-0.1,0.1
			c0,0,0,0,0,0c0.1-0.1,0.1-0.2,0.1-0.3c0-0.1,0-0.2-0.1-0.3c-0.1-0.1-0.2-0.1-0.3-0.1c-0.1,0-0.2,0-0.3,0.1
			c-0.1,0.1-0.2,0.3-0.2,0.4c0,0.2,0,0.3,0,0.5c0,0.2,0.1,0.3,0.2,0.4c0.1,0.1,0.2,0.2,0.4,0.3c0.1,0,0.2,0,0.3,0
			c0.1,0,0.2-0.1,0.2-0.2c0-0.1,0-0.2,0-0.3c0,0,0-0.1-0.1-0.1C103.7,69.2,103.7,69.2,103.6,69.2L103.6,69.2z"/>
	</g>
</g>
<g>
	<g>
		<path class="st1" d="M151.4,75.6c3.7-0.6,7.5-1.2,11.1-2.1c0.9-0.2,0.5-1.7-0.4-1.4c-3.7,0.9-7.4,1.5-11.1,2.1
			C150.1,74.3,150.5,75.8,151.4,75.6L151.4,75.6z"/>
	</g>
</g>
<g>
	<g>
		<path class="st1" d="M149.1,80.7c4,0.2,7.9,0.6,11.9,1.2c0.4,0.1,0.7-0.4,0.8-0.8c0-0.4-0.3-0.7-0.8-0.8c-4-0.5-7.9-0.9-11.9-1.2
			C148.1,79.2,148.1,80.7,149.1,80.7L149.1,80.7z"/>
	</g>
</g>
<g>
	<g>
		<path class="st1" d="M90.1,51.4c-0.5-2-0.9-4-1.4-6c-0.2-1-0.5-2-0.7-3c-0.2-0.9-0.3-2-0.8-2.8c-0.9-1.5-3-1.5-4.5-1.2
			c-1.8,0.4-3.4,1.4-4.8,2.5c-1.6,1.2-3.2,2.5-4.9,3.8c-1.4,1.1-2.8,2.1-3.9,3.5c-1.9,2.7-2,6.3-1.9,9.5c0,1.9,3,1.9,3,0
			c0-2.5-0.1-5.3,1.2-7.5c0.7-1.2,2-2.1,3.1-3c1.4-1.1,2.8-2.1,4.1-3.2c1.2-0.9,2.4-1.9,3.8-2.5c0.6-0.3,1.3-0.4,2-0.4
			c0.1,0,0.3,0,0.4,0.1c0.3,0.1,0.2,0-0.2-0.3c0,0,0.3,1.1,0.3,1.2c0.8,3.3,1.5,6.6,2.3,9.9C87.6,54.1,90.5,53.3,90.1,51.4
			L90.1,51.4z"/>
	</g>
</g>
<g>
	<g>
		<path class="st1" d="M148.3,56.2c1.8-2.2,3.4-4.6,5-7c0.8-1.2,1.6-2.3,2.5-3.5c0.9-1.1,1.4-2.5,0.2-3.6c-1-0.9-2.5-1-3.8-1.2
			c-1.6-0.2-3.2-0.4-4.7-0.4c-3-0.1-6.1,0.2-9.1,0.9c-1.9,0.4-1.1,3.3,0.8,2.9c2.4-0.5,4.9-0.8,7.3-0.8c1.2,0,2.5,0.1,3.7,0.2
			c1.2,0.1,2.3,0.4,3.5,0.6c0.1,0,0.1,0,0.2,0.1c0.3,0.3,0.2,0-0.1-0.9c-0.2,0-0.4,0.6-0.5,0.7c-0.4,0.5-0.7,1-1.1,1.5
			c-0.7,0.9-1.4,1.9-2,2.9c-1.3,1.9-2.6,3.8-4,5.6c-0.5,0.6-0.6,1.5,0,2.1C146.7,56.7,147.8,56.8,148.3,56.2L148.3,56.2z"/>
	</g>
</g>
<g>
	<g>
		<path class="st1" d="M69.5,59.2c1.7-0.2,3.5-0.8,5-1.7c1.9-1.1,2.8-3,3.5-5c0.8-2.1,1.4-4.3,2.4-6.3c0.4-0.9,0.9-1.8,1.6-2.5
			c0.3-0.4,0.7-0.8,1.2-1.1c0.2-0.1,0.3-0.3,0.5-0.3c0.1-0.1,0.2-0.1,0.3-0.1c0.1,0,0.1,0,0,0c1.6,1,3.1-1.6,1.5-2.6
			c-2.2-1.4-4.7,0.9-6,2.6c-1.4,1.9-2.3,4-3.1,6.3c-0.4,1.2-0.8,2.4-1.3,3.5c-0.2,0.6-0.5,1.1-0.8,1.7c-0.3,0.5-0.3,0.7-0.6,0.9
			c-0.5,0.4-1.3,0.8-2,1.1c-0.4,0.2-0.8,0.3-1.2,0.4c-0.2,0.1-0.4,0.1-0.6,0.1c-0.1,0-0.2,0-0.3,0.1c0.1,0,0.1,0,0,0
			c-0.8,0.1-1.5,0.6-1.5,1.5C68,58.5,68.7,59.3,69.5,59.2L69.5,59.2z"/>
	</g>
</g>
<g>
	<g>
		<path class="st1" d="M138.3,43.4c0.3,1.2,0.7,2.4,1.2,3.5c0.5,1.1,1.2,2.5,2.5,2.9c0.9,0.3,1.9,0.1,2.7-0.3c1-0.4,1.9-0.8,2.8-1.1
			c1.8-0.7,3.7-1.4,5.7-1.4c1.9,0,1.9-3,0-3c-3.6-0.1-7,1.8-10.3,2.9c-0.1,0,0.1-0.1-0.1,0c0.1,0,0.1,0,0.2,0.1
			c-0.1-0.1-0.1-0.1,0,0c0.1,0.1,0.1,0.1,0,0c0,0-0.1-0.1-0.1-0.1c-0.3-0.3,0.2,0.3-0.1-0.1c-0.3-0.4-0.6-1-0.7-1.3
			c-0.3-0.8-0.7-1.9-0.9-2.8c-0.2-0.8-1.1-1.3-1.8-1C138.5,41.8,138.1,42.6,138.3,43.4L138.3,43.4z"/>
	</g>
</g>
<g>
	<g>
		<path class="st1" d="M72.5,57.7c-0.9-2.1-1.5-4.3-1.6-6.6c0-0.5-0.8-0.5-0.8,0c0.1,2.4,0.7,4.8,1.7,7C72,58.5,72.7,58.1,72.5,57.7
			L72.5,57.7z"/>
	</g>
</g>
<g>
	<g>
		<path class="st1" d="M73.4,57.1c-0.9-2.5-1.5-5.1-1.8-7.7c-0.1-0.5-0.8-0.5-0.8,0c0.3,2.7,0.9,5.4,1.8,7.9
			C72.9,57.8,73.6,57.6,73.4,57.1L73.4,57.1z"/>
	</g>
</g>
<g>
	<g>
		<path class="st1" d="M74.1,56c-0.8-2.8-1.3-5.7-1.3-8.6c0-0.5-0.8-0.5-0.8,0c0,3,0.5,5.9,1.3,8.8C73.5,56.6,74.2,56.4,74.1,56
			L74.1,56z"/>
	</g>
</g>
<g>
	<g>
		<path class="st1" d="M75.2,54.9c-0.5-2.7-0.9-5.5-1.2-8.2c-0.1-0.5-0.8-0.5-0.8,0c0.3,2.8,0.7,5.6,1.2,8.4
			C74.6,55.6,75.3,55.4,75.2,54.9L75.2,54.9z"/>
	</g>
</g>
<g>
	<g>
		<path class="st1" d="M76.1,53.1c-0.6-2.4-0.9-4.9-1-7.5c0-0.5-0.8-0.5-0.8,0c0.1,2.6,0.4,5.1,1.1,7.7
			C75.5,53.7,76.2,53.5,76.1,53.1L76.1,53.1z"/>
	</g>
</g>
<g>
	<g>
		<path class="st1" d="M76.9,51.2c-0.1-1.9-0.4-3.7-0.7-5.6c-0.1-0.5-0.8-0.3-0.7,0.2c0.3,1.8,0.5,3.6,0.6,5.4
			C76.1,51.7,76.9,51.7,76.9,51.2L76.9,51.2z"/>
	</g>
</g>
<g>
	<g>
		<path class="st1" d="M141.5,46.9c0.7-1.1,1.3-2.2,1.7-3.4c0.1-0.2-0.1-0.4-0.3-0.5c-0.2-0.1-0.4,0.1-0.5,0.3
			c-0.5,1.1-1,2.2-1.7,3.2C140.6,46.9,141.2,47.3,141.5,46.9L141.5,46.9z"/>
	</g>
</g>
<g>
	<g>
		<path class="st1" d="M142.3,48.2c0.7-2,1.7-4,2.8-5.8c0.2-0.4-0.4-0.8-0.6-0.4c-1.1,1.9-2.1,3.9-2.9,6
			C141.4,48.5,142.2,48.7,142.3,48.2L142.3,48.2z"/>
	</g>
</g>
<g>
	<g>
		<path class="st1" d="M143.2,48.3c1.3-1.9,2.7-3.9,4-5.8c0.3-0.4-0.4-0.8-0.6-0.4c-1.3,1.9-2.7,3.9-4,5.8
			C142.3,48.4,143,48.7,143.2,48.3L143.2,48.3z"/>
	</g>
</g>
<g>
	<g>
		<path class="st1" d="M145.4,47.5c0.2-0.2,0.3-0.4,0.5-0.6c0,0,0-0.1,0-0.1c0,0,0-0.1,0-0.1c0-0.1-0.1-0.2-0.2-0.2
			c-0.1,0-0.2-0.1-0.3,0c0,0-0.1,0-0.1,0c-0.1,0-0.1,0.1-0.1,0.1c-0.2,0.2-0.3,0.4-0.5,0.6c0,0,0,0.1,0,0.1c0,0,0,0.1,0,0.1
			c0,0.1,0.1,0.2,0.2,0.2c0.1,0,0.2,0.1,0.3,0c0,0,0.1,0,0.1,0C145.3,47.6,145.4,47.6,145.4,47.5L145.4,47.5z"/>
	</g>
</g>
<g>
	<g>
		<path class="st1" d="M146.1,47.4c1.1-1.2,2-2.5,2.8-3.9c0.2-0.4-0.4-0.8-0.6-0.4c-0.7,1.4-1.6,2.6-2.7,3.8
			C145.3,47.2,145.8,47.8,146.1,47.4L146.1,47.4z"/>
	</g>
</g>
<g>
	<g>
		<path class="st1" d="M148.3,46.3c1.1-1.1,2.1-2.4,3-3.7c0.3-0.4-0.4-0.8-0.6-0.4c-0.8,1.3-1.8,2.5-2.8,3.6
			C147.4,46.2,147.9,46.7,148.3,46.3L148.3,46.3z"/>
	</g>
</g>
<g>
	<g>
		<path class="st1" d="M100.4,74.5c1.2-1.3,3.3-1.4,4.8-0.5c1.6,0.9,1.9,2.9,1.3,4.5c-0.4,0.9-1,1.6-1.9,2c-0.4,0.2-0.5,0.7-0.3,1
			c0.2,0.4,0.7,0.4,1,0.3c2.2-1,3.3-3.6,2.9-5.9c-0.4-2.5-2.8-4-5.2-4c-1.4,0-2.7,0.5-3.7,1.5C98.7,74.1,99.7,75.2,100.4,74.5
			L100.4,74.5z"/>
	</g>
</g>
<g>
	<g>
		<path class="st1" d="M134,73.4c-1.6-0.8-3.5-2-5.3-1.5c-1.4,0.4-2.9,1.4-3.9,2.5c-1.9,2.1-0.5,5.5,1.4,7.1
			c0.7,0.6,1.4,0.9,2.3,1.2c1,0.3,2.1,0.4,2.9-0.4c0.7-0.7-0.4-1.7-1.1-1.1c-0.4,0.4-1.2,0.1-1.7-0.1c-0.5-0.2-1-0.4-1.4-0.7
			c-0.8-0.7-1.4-1.7-1.7-2.7c-0.1-0.4-0.2-0.9-0.1-1.3c0-0.3,0.2-0.6,0.4-0.8c0.7-0.9,1.8-1.6,2.9-2c1.5-0.5,3.2,0.5,4.5,1.2
			C134.1,75.2,134.9,73.9,134,73.4L134,73.4z"/>
	</g>
</g>
<g>
	<g>
		<path class="st3" d="M48,49.8c-2.8,2.3-4.1,6-4.7,9.5c-0.7,3.8-0.7,7.7,0.2,11.5c1,4.4,3.5,8.4,6.4,11.9c3.2,3.8,7,7.2,10.9,10.3
			c4,3.1,8.6,5.5,13.7,6.3c5.4,0.9,10.9,0.4,16.4,0.1c10.7-0.5,22-0.1,32,4.3c4.7,2.1,9,5,12.5,8.9c0.9,1,1.7,2,2.4,3
			c0.7,1,1.2,2.1,2.4,2.6c2.4,1,4.4-2.3,2.2-3.8c-1.6-1.1-3.1,1.5-1.5,2.6c0.1-0.5,0.3-1,0.4-1.5c-0.1-0.1-0.1-0.1-0.2-0.2
			c-0.1-0.2-0.3-0.4-0.4-0.6c-0.3-0.4-0.6-0.9-0.9-1.3c-0.6-0.8-1.2-1.6-1.9-2.4c-1.4-1.6-2.9-3-4.6-4.4c-3.3-2.6-6.9-4.6-10.7-6.2
			c-9.1-3.7-19.1-4.4-28.9-4.1c-5.1,0.2-10.1,0.8-15.2,0.4c-4.9-0.3-9.3-1.8-13.4-4.4c-3.8-2.4-7.2-5.5-10.3-8.7
			c-3.1-3.1-5.9-6.6-7.5-10.7c-1.4-3.6-1.7-7.5-1.2-11.4c0.4-3.4,1.4-7.3,4.2-9.6C51.6,50.7,49.5,48.5,48,49.8L48,49.8z"/>
	</g>
</g>
<g>
	<g>
		<path class="st3" d="M49.3,53.1c0.8-0.9,1.6-1.8,2.7-0.9c0.9,0.8,1.7,1.6,2.7,2.3c1.5,1,2.4,3,3.2,4.5c1,1.7,1.9,3.4,2.8,5.2
			c3.6,6.7,7.2,13.5,12.4,19.1c5.7,6.2,13.2,9.5,21.4,11c9,1.6,18.2,1.5,27.4,1.9c10.5,0.4,21,1.2,31,4.7c1.8,0.6,2.6-2.3,0.8-2.9
			c-9-3.1-18.4-4.1-27.8-4.6c-9.5-0.5-19.1-0.3-28.5-1.7c-4.4-0.6-8.9-1.7-13-3.7c-3.6-1.7-6.6-4.2-9.3-7.1
			c-5.3-5.8-8.9-13-12.6-19.9c-1-1.9-2-3.8-3.1-5.6c-0.6-0.9-1.2-1.9-2.1-2.7c-0.6-0.5-1.4-0.9-1.8-1.3c-1-0.9-1.8-2.1-3.2-2.5
			c-2-0.6-3.7,0.6-5,2.1C45.9,52.4,48,54.6,49.3,53.1L49.3,53.1z"/>
	</g>
</g>
<g>
	<g>
		<path class="st3" d="M49.1,86c7.3,11.4,19.5,18.1,31.6,23.3c6.4,2.8,13,5.3,19.5,8.1c3.1,1.4,6.3,2.8,9.3,4.4
			c1.3,0.7,1.9,0.8,3.1,1.4c1.6,0.8,3.6,1.6,4.6,3c0.1,0.1,0,0,0,0c0.1,0.1,0.1,0.2,0.2,0.3c0,0,0-0.1,0-0.1c0,0,0.1-0.1,0.1-0.1
			c0,0,0,0.1-0.1,0.1c-0.2,0.2-0.8,0.5-1.2,0.6c-0.4,0.1-0.7,0.2-1.1,0.3c-0.3,0.1-1.3,0.1-0.5,0.1c0.1,1,0.3,2,0.4,2.9
			c0.4-0.2,0.9-0.2,1.3-0.3c0.3-0.1,0.7-0.1,1-0.2c0.1,0,0.4-0.1,0.2,0c-0.1,0-0.1,0,0,0c0.4,0,0.1-0.1-0.9-0.4
			c-0.1-0.5-0.3-1-0.4-1.5c0.3-0.9,0.9-0.9,0.2-0.6c-1.8,0.8-0.2,3.4,1.5,2.6c1.8-0.8,1.4-3.2-0.7-3.1c-1,0.1-2.3,0.3-3.2,0.7
			c-1.5,0.6-1.4,2.8,0.4,2.9c1.1,0.1,2.6-0.6,3.6-1c0.9-0.4,1.7-1,2.1-2c0.7-1.9-0.8-3.5-2.1-4.5c-1.5-1.1-3.2-1.9-4.9-2.7
			c-1.6-0.7-3-1.4-4.6-2.1c-13.1-6.4-27.3-10.6-40-18C62,96,55.9,91.1,51.7,84.5C50.7,82.9,48.1,84.4,49.1,86L49.1,86z"/>
	</g>
</g>
<g>
	<g>
		<path class="st3" d="M44.2,72.8c0.7,4.1,2.2,8.1,4.1,11.7c0.4,0.7,1.4,0.9,2.1,0.5c0.7-0.4,0.9-1.3,0.5-2.1
			c-1.9-3.4-3.2-7.1-3.8-11c-0.1-0.8-1.1-1.2-1.8-1C44.4,71.2,44,72,44.2,72.8L44.2,72.8z"/>
	</g>
</g>
<g>
	<g>
		<path class="st3" d="M47.5,51.2c-4.6,5.3-7.6,12.2-9.1,19c-0.9,3.8-1.3,7.7-0.9,11.6c0.2,2.6,0.7,5.2,1.2,7.8
			c1.1,6.1,2.5,12.2,4.7,18c1.8,4.9,4.2,10.4,8.6,13.7c3,2.2,6.7,4.1,10.2,5.4c3.1,1.2,6.4,1.7,9.7,2.2c0.8,0.1,1.6-0.2,1.8-1
			c0.2-0.7-0.2-1.7-1-1.8c-2.8-0.4-5.6-0.8-8.3-1.6c-3-0.9-5.8-2.4-8.5-4c-2.2-1.3-4-2.7-5.4-4.8c-1.5-2.2-2.7-4.6-3.7-7
			c-2.2-5.5-3.7-11.3-4.8-17c-1.1-5.7-2.2-11.4-1.3-17.2c1.1-7.4,4.1-15.2,9-20.9C50.8,51.9,48.7,49.7,47.5,51.2L47.5,51.2z"/>
	</g>
</g>
<path class="st0" d="M110.9,100c-0.1-0.3-0.2-0.5-0.3-0.8c0,0,0,0,0,0c0-0.5-0.1-1-0.2-1.5c-0.1-0.5-0.3-1-0.7-1.4
	c-0.6-0.5-1.5-0.7-2.1-0.3c-0.4,0-0.7,0.2-0.9,0.4c-0.2,0.1-0.4,0.2-0.6,0.3c-0.4,0.3-0.6,0.6-0.9,1c-0.1,0.1-0.2,0.2-0.3,0.4
	c-0.5,1.1-0.8,2.4-0.8,3.6c0,0.8,0.7,1.5,1.5,1.5c0.8,0,1.5-0.7,1.5-1.5c0,0,0-0.1,0-0.1c0.1,0.1,0.1,0.1,0.2,0.1
	c0.1,0.5,0.4,1,0.8,1.2c0,0.1,0,0.1,0.1,0.2c0.2,0.3,0.5,0.6,0.9,0.7c0.4,0.1,0.8,0.1,1.2-0.2c0.3-0.2,0.6-0.5,0.7-0.9
	C111.1,101.8,111.1,100.9,110.9,100z"/>
<g>
	<path class="st0" d="M124.9,104c-0.6-1.1-1.2-2.2-1.8-3.3c-0.2-0.3-0.5-0.5-0.8-0.7l-0.8-1.3c-0.2-0.3-0.4-0.4-0.6-0.6
		c-0.3-1.3-0.6-2.6-1.9-3.4c-0.5-0.4-1.4-0.2-1.8,0.2c-0.5,0.5-0.5,1.2-0.2,1.8c0,0,0,0,0,0c0,0,0,0,0,0.1c0,0.1,0.1,0.2,0.1,0.4
		c0,0,0,0,0,0c0,0,0,0,0,0.1c0,0.1,0,0.2,0,0.3c0,0.5,0.1,1,0.1,1.5c0,0.1,0,0.2,0,0.3c-0.1,0.7-0.1,1.4,0.2,2.1
		c0,0.1,0.1,0.1,0.1,0.2c-0.3,0.2-0.6,0.6-0.5,1.1c0,0.6,0.1,1.3,0.1,1.9c0.1,0.8,0.6,1.5,1.5,1.5c0.3,0,0.6-0.1,0.8-0.3
		c0.5,0.1,1,0,1.4-0.3c0.4,0.4,0.8,0.8,1.3,0.8c0.5,0.1,0.9-0.1,1.2-0.3c0.3,0,0.6,0,0.9-0.2C125.1,105.6,125.3,104.8,124.9,104z"/>
	<path class="st0" d="M117,96.8C116.9,96.8,116.9,96.8,117,96.8L117,96.8z"/>
</g>
<g>
	<g>
		<path class="st1" d="M103,101.6c1-0.8,2-1.7,2.9-2.5c0.5-0.4,1-0.8,1.5-1.2c0.4-0.3,0.8-0.5,1.2-0.7c0.5-0.3,0.8-0.8,1.3-1.1
			c0.2-0.2-0.1,0.1,0,0c0.1-0.1,0.1-0.1,0.2-0.2c0.2-0.1,0.3-0.2,0.5-0.3c-0.4,0.2,0,0,0.1,0c0,0-0.4,0-0.1,0c0.2,0-0.4-0.1-0.2,0
			c-0.1,0-0.3-0.1-0.3-0.2c0.1,0.1-0.2-0.3-0.1-0.1c0.1,0.1-0.1-0.3,0-0.1c0,0,0,0.1,0,0.2c0.1,0.3,0-0.2,0,0c0,0.2,0,0.3,0,0.5
			c0,0.1,0,0.2,0,0.3c0,0.2,0-0.2,0,0.1c0,0.3-0.1,0.5-0.2,0.8c-0.1,0.5-0.2,1.1-0.2,1.7c-0.1,1.5-0.1,2.9-0.1,4.4
			c0,0.8,0,1.7-0.1,2.5c0,0.3,0,0.7-0.1,1c0,0.1-0.1,0.4,0,0.4c0,0,0.1-0.4,0-0.2c0,0.1,0,0.1,0,0.2c-0.2,0.8,0.2,1.6,1,1.8
			c0.7,0.2,1.7-0.3,1.8-1c0.3-1.4,0.2-2.9,0.3-4.3c0-1.6,0-3.2,0.1-4.8c0-0.1,0-0.3,0-0.4c0-0.4-0.1,0.2,0,0.1
			c0.2-0.3,0.2-0.9,0.3-1.2c0.2-1,0.3-2.1-0.2-3c-0.4-0.8-1.2-1.3-2.1-1.3c-1,0-1.9,0.6-2.7,1.2c-0.5,0.4-0.8,0.8-1.3,1.1
			c-0.7,0.4-1.2,0.9-1.8,1.4c-1.3,1.1-2.5,2.2-3.8,3.2c-0.6,0.5-0.5,1.6,0,2.1C101.5,102.2,102.4,102.1,103,101.6L103,101.6z"/>
	</g>
</g>
<g>
	<g>
		<path class="st1" d="M127.3,104.1c-0.8-2.1-2.2-3.9-3.5-5.7c-0.5-0.8-1.1-1.5-1.6-2.3c-0.6-0.9-1.3-1.9-2.2-2.6
			c-1.9-1.3-5.2,0.2-5.2,2.6c0,1.5,0.2,3,0.3,4.5c0.1,1.9,0.4,3.9,0.2,5.8c-0.1,0.8,0.7,1.5,1.5,1.5c0.9,0,1.4-0.7,1.5-1.5
			c0.1-1.5,0-3-0.1-4.5c-0.1-1.6-0.3-3.2-0.4-4.8c0-0.4,0-0.9,0-1.3c-0.1-0.3,0,0.9-0.2,0.6c0,0,0.2-0.2,0.3-0.2
			c0.3-0.2,0.1-0.1,0.1,0c0.1,0,0.3-0.1,0.4-0.1c0.2,0-0.2,0,0.2,0c0.4,0-0.1-0.1-0.2-0.1c0,0,0.2,0.1,0.2,0.1c-0.2-0.2-0.1,0,0,0
			c0.2,0.2,0.3,0.3,0.5,0.5c0,0,0.2,0.2,0,0.1c0.1,0.1,0.1,0.2,0.2,0.2c0.1,0.2,0.3,0.4,0.4,0.6c0.5,0.7,0.9,1.4,1.4,2.1
			c0.7,1,1.4,2,2,3c0.3,0.4,0.6,0.9,0.8,1.3c0.1,0.2,0.2,0.4,0.3,0.6c0,0.1,0.1,0.2,0.1,0.3c0.2,0.4-0.1-0.2,0,0.1
			c0.3,0.8,1,1.3,1.8,1C126.9,105.7,127.6,104.8,127.3,104.1L127.3,104.1z"/>
	</g>
</g>
<g>
	<g>
		<path class="st3" d="M51.2,65.7c1.9,7.6,7.1,13.8,13.1,18.7c0.7,0.6,1.8-0.5,1.1-1.1c-5.8-4.7-10.8-10.7-12.7-18
			C52.4,64.3,51,64.7,51.2,65.7L51.2,65.7z"/>
	</g>
</g>
<g>
	<g>
		<path class="st3" d="M56.6,64.5c5.8,7.4,11,15.4,15.5,23.7c0.5,0.9,1.8,0.1,1.3-0.8c-4.5-8.4-9.8-16.5-15.7-24
			C57,62.7,56,63.7,56.6,64.5L56.6,64.5z"/>
	</g>
</g>
<g>
	<g>
		<path class="st3" d="M132.6,100.6c3.6,2.5,6.6,5.8,8.7,9.7c0.5,0.9,1.7,0.1,1.3-0.8c-2.2-4.1-5.4-7.6-9.2-10.2
			C132.6,98.8,131.8,100.1,132.6,100.6L132.6,100.6z"/>
	</g>
</g>
<g>
	<g>
		<path class="st3" d="M140.1,100.5c1.7,1.4,3.1,2.9,4.2,4.7c0.2,0.3,0.7,0.5,1,0.3c0.3-0.2,0.5-0.7,0.3-1c-1.2-1.9-2.7-3.6-4.4-5
			c-0.3-0.3-0.8-0.3-1.1,0C139.8,99.7,139.7,100.2,140.1,100.5L140.1,100.5z"/>
	</g>
</g>
<g>
	<g>
		<path class="st3" d="M46.8,97.6c4,11.4,13.8,20.3,25.5,23.3c0.9,0.2,1.3-1.2,0.4-1.4c-11.2-2.8-20.6-11.4-24.5-22.3
			C48,96.3,46.5,96.7,46.8,97.6L46.8,97.6z"/>
	</g>
</g>
<g>
	<g>
		<path class="st3" d="M59.1,105.1c4.4,3.6,9.3,6.3,14.7,8.3c5.9,2.2,10.9,6,15.7,9.9c0.7,0.6,1.8-0.4,1.1-1.1
			c-4.4-3.7-9.2-7.5-14.5-9.6c-2.8-1.1-5.5-2.1-8.2-3.5c-2.7-1.4-5.2-3.1-7.6-5C59.5,103.4,58.4,104.5,59.1,105.1L59.1,105.1z"/>
	</g>
</g>
<g>
	<g>
		<path class="st1" d="M148.6,56.6c0.1-0.1,0.2-0.2,0.3-0.3c0.1-0.1,0.2-0.3,0.3-0.5c0.1-0.2,0.1-0.4,0.1-0.6c0-0.2,0-0.4-0.1-0.6
			c-0.1-0.2-0.2-0.3-0.3-0.5c-0.1-0.1-0.2-0.2-0.3-0.2c-0.2-0.1-0.5-0.2-0.8-0.2c-0.1,0-0.3,0-0.4,0.1c-0.3,0.1-0.5,0.2-0.7,0.4
			c-0.1,0.1-0.2,0.2-0.3,0.3c-0.1,0.1-0.2,0.3-0.3,0.5c-0.1,0.2-0.1,0.4-0.1,0.6c0,0.2,0,0.4,0.1,0.6c0.1,0.2,0.2,0.3,0.3,0.5
			c0.1,0.1,0.2,0.2,0.3,0.2c0.2,0.1,0.5,0.2,0.8,0.2c0.1,0,0.3,0,0.4-0.1C148.2,56.9,148.4,56.7,148.6,56.6L148.6,56.6z"/>
	</g>
</g>
<g>
	<g>
		<path class="st1" d="M146.3,56.4c5.6,4,9.2,10.7,10.4,17.3c1.5,7.8-0.4,16.2-3.5,23.4c-0.3,0.8-0.2,1.6,0.5,2.1
			c0.6,0.4,1.7,0.2,2.1-0.5c3.4-8,5.5-17,3.8-25.7c-1.4-7.5-5.6-14.7-11.8-19.1C146.3,52.7,144.8,55.3,146.3,56.4L146.3,56.4z"/>
	</g>
</g>
<g>
	<g>
		<path class="st3" d="M117.4,126.1c-4.3,2.6-9.8,3.4-14.8,3.7c-6.6,0.5-13.3,0.1-19.8-1.1c-3.6-0.7-7.2-1.7-10.6-3.1
			c-1.8-0.7-2.6,2.2-0.8,2.9c6.4,2.6,13.4,3.8,20.2,4.3c6.5,0.4,13.1,0.2,19.4-1.2c2.7-0.6,5.4-1.5,7.9-2.9
			C120.6,127.7,119.1,125.1,117.4,126.1L117.4,126.1z"/>
	</g>
</g>
<g>
	<g>
		<path class="st3" d="M142.5,117.5c3.5-3,6.9-6.1,9.6-10c1.3-1.8,2.3-3.9,3-6c0.4-1.1,0.5-2.5-0.4-3.4c-0.9-0.9-2.4-1-3.3,0
			c-0.5,0.6-0.6,1.5,0,2.1c0.5,0.5,1.6,0.6,2.1,0c-0.2,0.3-0.9-0.5-1.2-0.1c-0.1,0.1-0.1,0.4-0.1,0.5c-0.1,0.4-0.3,0.8-0.4,1.2
			c-0.3,0.8-0.7,1.5-1.1,2.3c-0.8,1.5-1.8,2.8-2.9,4.1c-2.3,2.7-4.9,5-7.5,7.2C138.9,116.7,141,118.8,142.5,117.5L142.5,117.5z"/>
	</g>
</g>
<g>
	<g>
		<path class="st1" d="M128.7,126c3.9-1.6,7.4-3.7,10.6-6.5c0.6-0.5,0.5-1.6,0-2.1c-0.6-0.6-1.5-0.5-2.1,0c-2.7,2.3-6,4.4-9.3,5.7
			c-0.8,0.3-1.3,1-1,1.8C127.1,125.7,128,126.3,128.7,126L128.7,126z"/>
	</g>
</g>
</svg>
