<?xml version="1.0" encoding="utf-8"?>
<!-- Generator: Adobe Illustrator 26.3.1, SVG Export Plug-In . SVG Version: 6.00 Build 0)  -->
<svg version="1.1" id="Calque_1" xmlns="http://www.w3.org/2000/svg" xmlns:xlink="http://www.w3.org/1999/xlink" x="0px" y="0px"
	 viewBox="0 0 200 200" style="enable-background:new 0 0 200 200;" xml:space="preserve">
<style type="text/css">
	.st0{fill:#666666;}
	.st1{fill:#E7F4DF;}
	.st2{fill:#FFFF66;}
	.st3{opacity:0.6;}
	.st4{fill:#0F0F23;}
</style>
<g>
	<g>
		<path class="st0" d="M36.2,118.1c1.8-1.2,3.7-2.3,5.7-3.1c2.3-1,4.8-1.9,7.3-2.5c1.4-0.3,2.9-0.9,4.4-1.3c0.1,0,0.1-0.1,0.2-0.1
			l-0.3-3.2c-1.9-1.9-3.4-4.3-4.7-6.9c-2.2-4.5-3.8-9.4-6.7-13.5c-2.9-4.1-7.1-7.2-11.8-8.9c-2.5-0.9-5.2-1.4-7.9-1
			c-5.2,0.8-9.4,5.3-10.6,10.4c-1.2,5.1,0.4,10.6,3.5,14.8c3.1,4.2,5.2,6.2,10.6,9.4c-2,0.5-4.7,4.5-4.6,4.9
			c0.1,0.9,2.3,0.2,3.1,0.3c3.2,0.3,6.1,1.7,8.9,3.3C34.2,119.6,35.3,118.7,36.2,118.1z"/>
		<path class="st0" d="M53.3,114.4c-1.1,0.4-2.2,0.9-3.2,1.3c-2,0.7-4,1.5-5.9,2.5c-1.9,0.9-3.8,2-5.6,3.1c-0.7,0.4-1.3,0.9-2,1.4
			c1.1,0.7,2.2,1.5,3.4,2.2c4.8,3.1,9.7,3.2,15.5,3l-1.3-13.7C53.8,114.2,53.5,114.3,53.3,114.4z"/>
	</g>
	<g>
		<g>
			<g>
				<path class="st1" d="M54.3,128.5c0.7-0.1,0.4-1,0.3-1.5c-0.1-1-0.2-2-0.2-3c0-2,0.1-4,0.4-6c0.1-0.5-0.6-0.7-0.7-0.2
					c-0.3,1.7-0.4,3.5-0.5,5.2c0,0.9,0,1.7,0.1,2.6c0,0.5,0.1,0.9,0.1,1.4c0,0.2,0,0.4,0.1,0.6c0,0.1,0,0.2,0,0.3
					c0,0.2,0.1,0.1,0.1-0.1C53.6,127.9,53.8,128.6,54.3,128.5L54.3,128.5z"/>
			</g>
		</g>
		<g>
			<g>
				<path class="st1" d="M53.4,127.6c-1.1-4.3-1.1-8.7,0.1-13c0.1-0.5-0.6-0.7-0.7-0.2c-1.2,4.4-1.2,9-0.1,13.4
					C52.8,128.3,53.6,128.1,53.4,127.6L53.4,127.6z"/>
			</g>
		</g>
		<g>
			<g>
				<path class="st1" d="M52,127.4c-1.3-3.7-1-7.8-0.2-11.6c0.1-0.5-0.6-0.7-0.7-0.2c-0.8,3.9-1.1,8.1,0.2,12
					C51.5,128.1,52.2,127.9,52,127.4L52,127.4z"/>
			</g>
		</g>
		<g>
			<g>
				<path class="st1" d="M50.4,112.1c0.5-1.5,1.1-3,1.9-4.5c0.2-0.4-0.4-0.8-0.6-0.4c-0.8,1.5-1.5,3-2,4.6
					C49.5,112.4,50.3,112.5,50.4,112.1L50.4,112.1z"/>
			</g>
		</g>
		<g>
			<g>
				<path class="st1" d="M50.3,127.2c-1.1-3.5-1.3-7.2-0.9-10.8c0.1-0.5-0.7-0.5-0.8,0c-0.5,3.7-0.2,7.4,0.9,11
					C49.8,127.9,50.5,127.7,50.3,127.2L50.3,127.2z"/>
			</g>
		</g>
		<g>
			<g>
				<path class="st1" d="M48.6,112.7c0.9-2.8,2.2-5.5,3.7-8c0.3-0.4-0.4-0.8-0.6-0.4c-1.6,2.6-2.9,5.3-3.8,8.1
					C47.7,113,48.4,113.2,48.6,112.7L48.6,112.7z"/>
			</g>
		</g>
		<g>
			<g>
				<path class="st1" d="M48.4,126.4c-1-3-1.2-6.1-0.9-9.2c0.1-0.5-0.7-0.5-0.8,0c-0.4,3.2-0.1,6.4,0.9,9.4
					C47.9,127.1,48.6,126.9,48.4,126.4L48.4,126.4z"/>
			</g>
		</g>
		<g>
			<g>
				<path class="st1" d="M45.8,113.9c0.9-3.6,2.5-7,5.1-9.7c0.3-0.3-0.2-0.9-0.5-0.5c-2.7,2.7-4.4,6.3-5.3,10
					C45,114.2,45.7,114.4,45.8,113.9L45.8,113.9z"/>
			</g>
		</g>
		<g>
			<g>
				<path class="st1" d="M46.3,126.4c-1.5-2.5-1.7-5.4-1.3-8.1c0.1-0.5-0.7-0.5-0.8,0c-0.3,2.9-0.1,5.9,1.4,8.5
					C45.9,127.2,46.6,126.8,46.3,126.4L46.3,126.4z"/>
			</g>
		</g>
		<g>
			<g>
				<path class="st1" d="M43,115c0.9-4.4,2.8-8.5,5.7-11.9c0.3-0.4-0.2-0.9-0.5-0.5c-3,3.5-5,7.7-5.9,12.2
					C42.2,115.3,42.9,115.5,43,115L43,115z"/>
			</g>
		</g>
		<g>
			<g>
				<path class="st1" d="M43,125c-0.4-2-0.6-3.9-0.5-5.9c0-0.5-0.7-0.5-0.8,0c-0.1,2.1,0.1,4.1,0.5,6.1
					C42.4,125.7,43.1,125.5,43,125L43,125z"/>
			</g>
		</g>
		<g>
			<g>
				<path class="st1" d="M40.8,115.6c0.9-5.7,3.8-10.8,7.4-15.2c0.3-0.4-0.2-0.9-0.5-0.5c-3.7,4.5-6.7,9.7-7.6,15.5
					C40,115.9,40.7,116.1,40.8,115.6L40.8,115.6z"/>
			</g>
		</g>
		<g>
			<g>
				<path class="st1" d="M41.5,124.1c-0.5-1.1-0.8-2.4-0.9-3.7c0-0.2-0.2-0.4-0.4-0.4c-0.2,0-0.4,0.2-0.4,0.4c0.1,1.4,0.4,2.8,1,4
					c0.1,0.2,0.4,0.2,0.5,0.1C41.5,124.5,41.6,124.2,41.5,124.1L41.5,124.1z"/>
			</g>
		</g>
		<g>
			<g>
				<path class="st1" d="M38.5,116.6c0.2-7.4,4.2-14,9.1-19.3c0.3-0.4-0.2-0.9-0.5-0.5c-5,5.5-9.1,12.2-9.3,19.9
					C37.7,117.1,38.5,117.1,38.5,116.6L38.5,116.6z"/>
			</g>
		</g>
		<g>
			<g>
				<path class="st1" d="M36.7,117.6c-0.2-8.3,3.9-15.8,9.1-22c0.3-0.4-0.2-0.9-0.5-0.5c-5.3,6.3-9.6,14.1-9.3,22.6
					C36,118.1,36.7,118.1,36.7,117.6L36.7,117.6z"/>
			</g>
		</g>
		<g>
			<g>
				<path class="st1" d="M34.6,119.7c-2.4-9.9,3.5-19,9.9-25.9c0.3-0.4-0.2-0.9-0.5-0.5c-6.6,7.2-12.6,16.5-10.1,26.6
					C34,120.3,34.7,120.1,34.6,119.7L34.6,119.7z"/>
			</g>
		</g>
		<g>
			<g>
				<path class="st1" d="M32.3,118.7C29.8,108.2,36.8,99,43,91.3c0.3-0.4-0.2-0.9-0.5-0.5c-6.4,7.9-13.5,17.3-10.9,28.1
					C31.6,119.4,32.4,119.2,32.3,118.7L32.3,118.7z"/>
			</g>
		</g>
		<g>
			<g>
				<path class="st1" d="M30,117.9c-1.4-5.7,0.1-11.5,2.5-16.7c2.3-4.8,5.4-9.3,9.2-13.1c0.3-0.3-0.2-0.9-0.5-0.5
					c-4,4.1-7.3,8.8-9.7,14c-2.3,5.1-3.6,10.9-2.2,16.5C29.4,118.6,30.1,118.4,30,117.9L30,117.9z"/>
			</g>
		</g>
		<g>
			<g>
				<path class="st1" d="M27.6,117c-1.5-11.4,4.5-21.8,11.7-30.1c0.3-0.4-0.2-0.9-0.5-0.5c-7.4,8.5-13.5,19-12,30.7
					C26.9,117.4,27.7,117.4,27.6,117L27.6,117z"/>
			</g>
		</g>
		<g>
			<g>
				<path class="st1" d="M25.7,117c-0.1-1.2-0.1-2.5-0.1-3.7c0-0.5-0.7-0.5-0.8,0c0,1.2,0,2.5,0.1,3.7C25,117.5,25.7,117.5,25.7,117
					L25.7,117z"/>
			</g>
		</g>
		<g>
			<g>
				<path class="st1" d="M25.7,111.5c-0.4-5.2,1.8-10.3,4-14.9c2-4.2,4.5-8.3,8.1-11.4c0.4-0.3-0.2-0.8-0.5-0.5
					c-3.7,3.2-6.3,7.5-8.4,11.9c-2.2,4.6-4.3,9.7-3.9,14.9C25,112,25.7,112,25.7,111.5L25.7,111.5z"/>
			</g>
		</g>
		<g>
			<g>
				<path class="st1" d="M24,109.8c0.7-10.2,5.5-19.9,13.3-26.6c0.4-0.3-0.2-0.8-0.5-0.5c-7.9,6.8-12.8,16.7-13.5,27.1
					C23.2,110.3,24,110.3,24,109.8L24,109.8z"/>
			</g>
		</g>
		<g>
			<g>
				<path class="st1" d="M22.4,108.5c-0.3-5.3,1.5-10.6,3.9-15.3c2.3-4.3,5-8.3,9.4-10.7c0.4-0.2,0-0.9-0.4-0.6
					c-4.4,2.5-7.3,6.6-9.6,11c-2.5,4.8-4.3,10.2-4,15.7C21.6,109,22.4,109,22.4,108.5L22.4,108.5z"/>
			</g>
		</g>
		<g>
			<g>
				<path class="st1" d="M20.7,106.1c0.1-9.6,4.8-19.3,12.9-24.6c0.4-0.3,0-0.9-0.4-0.6c-8.3,5.5-13.1,15.4-13.2,25.2
					C19.9,106.5,20.7,106.5,20.7,106.1L20.7,106.1z"/>
			</g>
		</g>
		<g>
			<g>
				<path class="st1" d="M18.8,105.3c-0.9-5.3,1.5-10.6,3.9-15.2c1.1-2.1,2.5-4.1,4.1-5.8c1.8-1.9,4.1-3.3,6.3-4.6
					c0.4-0.3,0-0.9-0.4-0.6c-2.3,1.4-4.6,2.8-6.5,4.7c-1.8,1.9-3.2,4.1-4.5,6.4c-2.5,4.7-4.7,10-3.8,15.4
					C18.2,106,18.9,105.8,18.8,105.3L18.8,105.3z"/>
			</g>
		</g>
		<g>
			<g>
				<path class="st1" d="M16.8,103.9c-0.9-4.8,0.6-10,2.8-14.3c2.1-4.1,5.2-7.5,9.2-9.9c0.4-0.2,0-0.9-0.4-0.6
					c-4.2,2.5-7.4,6.2-9.6,10.5c-2.2,4.4-3.7,9.6-2.7,14.5C16.2,104.6,16.9,104.4,16.8,103.9L16.8,103.9z"/>
			</g>
		</g>
		<g>
			<g>
				<path class="st1" d="M14.9,100.4c-0.4-9,4.2-17.4,12.1-21.9c0.4-0.2,0-0.9-0.4-0.6c-8.1,4.5-12.9,13.3-12.4,22.5
					C14.2,100.9,15,100.9,14.9,100.4L14.9,100.4z"/>
			</g>
		</g>
		<g>
			<g>
				<path class="st1" d="M13.4,97.3C13.7,90,17.5,83.1,23.6,79c0.4-0.3,0-0.9-0.4-0.6c-6.3,4.2-10.2,11.3-10.5,18.9
					C12.6,97.8,13.4,97.8,13.4,97.3L13.4,97.3z"/>
			</g>
		</g>
	</g>
</g>
<path class="st1" d="M33.4,120.4c0.3-0.3,0.6-0.5,0.8-0.8c-1.4-0.9-2.9-1.7-4.5-2.3c-1.4-0.6-2.8-1-4.3-1.2
	c-0.6-0.1-1.1-0.1-1.6-0.1c-0.1,0-0.2,0-0.3,0c0.1-0.2,0.2-0.3,0.3-0.5c0.7-0.8,1.6-1.9,2.6-2.3c1.1-0.3,1.2-1.8,0.3-2.3
	c-4.4-2.7-8.3-5.9-11.1-10.3c-3.1-4.8-4-11.2-1-16.2c1.3-2.2,3.3-4,5.6-5c2.9-1.2,6.1-0.9,9,0c5.7,1.8,10.4,5.9,13.3,11
	c3.4,6,5,13.2,10,18.2c1.2,1.2,3-0.6,1.8-1.8c-4.9-4.9-6.3-12-9.7-17.9C41.4,83.4,36.2,79,30,77c-3.2-1-6.7-1.3-9.8-0.2
	c-2.7,1-5,2.7-6.7,5c-3.9,5.1-3.9,12-1.3,17.7c2.4,5.3,6.7,9.3,11.5,12.5c-1.3,1-2.3,2.5-3.1,3.8c-0.5,0.9-0.6,2,0.4,2.7
	c1,0.6,2.3,0.1,3.4,0.1c2.8,0,5.6,1.4,8,2.9C32.7,121.1,33,120.7,33.4,120.4z"/>
<path class="st1" d="M55.3,126.5c-3.1,0.1-6.2,0.2-9.2-0.5c-3.1-0.7-5.7-2.3-8.3-4.1c0,0-0.1,0-0.1-0.1c-0.6,0.6-1.3,1.2-1.9,1.8
	c2.4,1.6,4.8,3.2,7.5,4.2c3.8,1.3,8,1.3,12,1.2C57,129,57,126.4,55.3,126.5z"/>
<path class="st0" d="M156.3,97.2c-0.2-5.6-0.4-11.6-3.2-16.6c-0.9-2.7-1.9-5.4-3-8c-1.5-5.2-3.9-10.1-7.2-14.4
	c-0.2-0.3-0.5-0.4-0.8-0.5c1.1-4,2.8-8.3,2.3-12.5c-0.1-0.8-2-1.4-2.9-1.2c-4.1,1-8.1,2.3-12,3.7c-3.5-1-7.2-1.5-10.8-1.2
	c-1.3-0.2-2.7-0.4-4-0.4c-1.7-0.1-3.5,0-5.2,0.2c-1.3,0-2.5,0-3.8,0.1c-5.1,0.4-10,1.7-14.6,3.8c-0.1-0.2-0.1-0.3-0.3-0.4
	c-3.2-3.5-7.4-5.7-12-6.6c-0.5-0.1-1-0.2-1.4-0.2c-0.5-0.1-1,0.3-1.2,0.8c-0.6-0.1-1.2-0.1-1.8-0.1c-0.7,0-1.3,0.6-1.3,1.3
	c0.1,2.4,0.3,4.7,0.4,7.1c0,0.6,0,1.2,0,1.8c0,1.7-0.1,3.4-0.2,5c-1.8,1.8-3.4,3.7-5,5.6c0,0,0,0.1-0.1,0.1c-4.2,4-7.4,8.9-8.3,14.7
	c-1.5,3.4-2.7,7-3.5,10.6c-0.1,0.5-0.2,1.1-0.3,1.6c-0.3,1.2-0.5,2.5-0.7,3.8c-0.3,0.1-0.5,0.3-0.7,0.6c0,0.1-0.1,0.2-0.1,0.3
	c0,0,0,0,0,0c0,0,0,0,0,0c-1.2,2.8-1.4,5.8-0.6,8.7c0,1.1,0.1,2.2,0.2,3.3c0.1,0.7-0.3,2.5,0.4,2.5c1.9,0,4.7-1.6,6.5-2.2
	c1.5,1.1,2.4,1.8,3.9,2.9l-11.2,3.7c-0.5,0.1-0.8,0.5-0.9,0.9c0-0.1-0.1-0.2-0.1-0.3c0.2,0.7,0.4,1.5,0.5,2.2
	c0.1,0.4,0.2,0.8,0.3,1.3c0.1,0,0.2,0.1,0.4,0c-0.1,0.9,0.1,1.9,0.5,2.9c0,0.4,0.2,0.8,0.3,1.2c0,0.2,0,0.3,0.1,0.5
	c0.9,2.9,2.2,5.6,3.9,8c0.7,1.5,1.7,2.8,3,3.7c0.8,0.8,1.7,1.6,2.6,2.4c1,1.4,2.1,2.8,3.2,4.1c2,2.4,4.2,5.1,7.1,6.5
	c-0.2,1-0.3,2-0.3,3c0,0.8,0.1,1.7,0.3,2.5c0.1,0.7,0.3,1.3,0.8,1.8c-0.1,0.3-0.2,0.5-0.3,0.8c-0.3,0.9,0.7,1.9,1.6,1.6
	c3.2-1.2,6-3.4,7.8-6.3c0.2,0,0.4,0,0.6,0c0.1,0.2,0.3,0.3,0.6,0.3c5.2,1.1,10.4,1.8,15.7,2c2.1,0.3,4.2,0.4,6.2,0.5
	c0.2,0.1,0.3,0.2,0.5,0.2c3,0.3,5.9-0.2,8.8-0.7c1.4-0.2,2.8-0.4,4.2-0.7c0.6-0.1,1.3-0.2,1.9-0.2c3.9-0.3,8.4,2.4,11,3.1
	c0.8,0.2,2,0.4,2.1-0.6c0.3-2.3,0.3-4.6-0.3-6.9c4.2-2.8,7.7-6.7,9.9-11.3c4-5.5,6.9-11.7,7.9-18.6c0-0.3,0-0.6-0.1-0.8
	c1-6,2.6-11.3,2.4-17.3c0.1-0.7,0.1-1,0.2-1.7C157,99.6,156.3,98,156.3,97.2z"/>
<g>
	<g>
		<path class="st1" d="M102.8,62.3c0.4,0.7,0.7,1.5,1.1,2.2c0.3,0.5,0.8,1.5,1.6,1c0.4-0.3,0.8-1,1.1-1.4c0.4-0.6,0.8-1.2,1.1-1.9
			c-0.4,0.1-0.8,0.1-1.2,0.2c0.3,0.6,0.7,1.2,1,1.8c0.3,0.4,0.6,0.9,1.1,1.1c0.7,0.3,1.2-0.1,1.6-0.6c0.5-0.6,0.9-1.3,1.3-2
			c0.3-0.6,0.6-1.2,0.8-1.9c0.2-0.8-1.1-1.1-1.2-0.3c-0.2,1-0.9,2.1-1.5,3c-0.1,0.2-0.2,0.4-0.4,0.5c0,0-0.1,0.1-0.1,0.1
			c-0.1,0.1,0-0.1,0,0c0,0.1-0.1,0,0,0c0,0,0.3-0.1,0.3,0c0,0-0.3-0.3-0.3-0.3c-0.1-0.2-0.3-0.4-0.4-0.6c-0.3-0.5-0.6-1-0.9-1.5
			c-0.3-0.5-1-0.3-1.2,0.2c0.1-0.1-0.1,0.2-0.1,0.2c-0.1,0.1-0.2,0.3-0.2,0.4c-0.2,0.3-0.4,0.6-0.6,0.9c-0.2,0.3-0.4,0.5-0.6,0.8
			c0,0.1-0.2,0.3-0.2,0.2c-0.1,0.2-0.2,0,0.1,0c0.1,0,0.2,0,0.3,0c0,0,0.2,0.1,0.2,0.1c0,0-0.1-0.1,0,0c-0.1-0.1-0.1-0.2-0.2-0.3
			c-0.2-0.3-0.3-0.5-0.4-0.8c-0.3-0.6-0.6-1.2-0.9-1.7C103.5,60.9,102.4,61.6,102.8,62.3L102.8,62.3z"/>
	</g>
	<g>
		<path class="st1" d="M130.6,64.2c2.8-0.9,5.5-1.8,8.3-2.5c0.8-0.2,0.5-1.5-0.3-1.2c-2.8,0.8-5.6,1.6-8.3,2.5
			C129.5,63.2,129.9,64.5,130.6,64.2L130.6,64.2z"/>
	</g>
	<g>
		<path class="st1" d="M133.6,65.8c2.3-0.3,4.7-0.5,7-0.6c0.8,0,0.8-1.3,0-1.3c-2.4,0.1-4.7,0.3-7,0.6c-0.3,0-0.6,0.3-0.6,0.6
			C133,65.5,133.2,65.8,133.6,65.8L133.6,65.8z"/>
	</g>
	<g>
		<path class="st1" d="M87,62.8c-2.3-0.7-4.6-1.4-6.8-2.3c-0.3-0.1-0.7,0.1-0.8,0.4c-0.1,0.4,0.1,0.7,0.4,0.8
			c2.2,0.9,4.6,1.6,6.8,2.3C87.4,64.3,87.7,63.1,87,62.8L87,62.8z"/>
	</g>
	<g>
		<path class="st1" d="M86,64.8c-2.5-0.2-5.1-0.3-7.6-0.3c-0.8,0-0.8,1.3,0,1.3c2.5,0,5.1,0.1,7.6,0.3C86.9,66.1,86.8,64.9,86,64.8
			L86,64.8z"/>
	</g>
	<g>
		<path class="st1" d="M93.4,55.5c-0.1,3.1-0.1,6.2,0,9.3c0,0.7,0.6,1.3,1.3,1.3c0.7,0,1.3-0.6,1.3-1.3c-0.1-3.1-0.2-6.2,0-9.3
			c0-0.7-0.6-1.3-1.3-1.3C94,54.2,93.4,54.8,93.4,55.5L93.4,55.5z"/>
	</g>
	<g>
		<path class="st1" d="M118.3,53.9c0.1,3.3,0,6.6-0.1,9.9c0,0.7,0.6,1.3,1.3,1.3c0.7,0,1.3-0.6,1.3-1.3c0.1-3.3,0.1-6.6,0.1-9.9
			C120.8,52.2,118.2,52.2,118.3,53.9L118.3,53.9z"/>
	</g>
</g>
<g>
	<path class="st2" d="M73.2,91.9l-2.4-5.1c-0.1-0.3,0.1-0.5,0.4-0.5l4.5,1.3c0.2,0.1,0.4-0.1,0.4-0.3l1-12.7c0-0.3,0.3-0.4,0.5-0.2
		c3.3,2.7,5.7,5.3,9.3,8.1c0.2,0.1,0.4,0.1,0.5-0.1l4.8-10.3c0.1-0.2,0.4-0.3,0.6-0.1l6,7c0.2,0.2,0.4,0.1,0.5-0.1
		c1.6-3.2,3.4-6.3,5.4-9.2c0.1-0.2,0.5-0.2,0.6,0.1l3.7,9.5c0.1,0.2,0.4,0.3,0.5,0.1l8.5-8.8c0.2-0.2,0.5-0.1,0.5,0.1
		c0.3,2.4,0.5,3.7,1,6.2c0.1,0.3,0.3,0.4,0.5,0.3c3.7-1.9,7.3-4.1,10.8-6.5c0.2-0.2,0.5,0,0.5,0.3l-1.1,10.2c0,0.2,0.2,0.4,0.4,0.4
		l6.4-1.5c0.3-0.1,0.5,0.2,0.4,0.5l-1.6,3.1c-0.1,0.2,0,0.4,0.2,0.5l3,0.8c0.2,0.1,0.3,0.3,0.2,0.5l-2.8,3.9
		c-0.2,0.3,0.1,0.6,0.4,0.5l9.3-0.3c0.3-0.1,0.6,0.3,0.3,0.5l-9.8,8.4c-0.2,0.2-0.1,0.5,0.2,0.6l9,2c0.3,0,0.4,0.5,0.1,0.6
		l-10.9,6.8c-0.2,0.1-0.2,0.4,0,0.6l8.3,5.1c0.2,0.1,0.2,0.5-0.1,0.6c-2.2,0.9-8.4,2.6-10.8,3.3c-0.3,0.1-0.3,0.5-0.1,0.6
		c0.9,0.4,3.4,2.4,3.9,2.9c0.2,0.2,0.1,0.5-0.1,0.6c-4,0.4-6,0.1-8.4,0.3c-0.3,0-0.4,0.4-0.2,0.6c2.8,2.4,5.3,5.1,7.5,8
		c0.2,0.2,0,0.5-0.3,0.5c-4.1-0.2-8.2-0.7-12.3-1.6c-0.2,0-0.4,0.2-0.4,0.4c0.7,2.9,1.9,7.7,2,10.7c0,0.2-0.2,0.4-0.5,0.3
		c-3.3-1.5-7.1-5.4-9.8-7.8c-0.2-0.2-0.5-0.1-0.5,0.1c-1.3,3.8-2.8,7.5-4.4,11.1c-0.1,0.2-0.5,0.3-0.6,0c-2.5-4.2-4.8-8.6-6.7-13.1
		c-0.1-0.2-0.5-0.3-0.6,0L94,144.7c-0.1,0.3-0.5,0.2-0.6-0.1c-1.5-4.8-2.8-9.6-3.8-14.5c-0.1-0.2-0.3-0.3-0.5-0.2
		c-3.4,2.8-7.2,5-11.2,6.6c-0.2,0.1-0.5-0.1-0.5-0.4c1.6-5.9,2.2-7.4,3.5-11.7c0.1-0.2-0.1-0.5-0.3-0.5c-3.3-0.1-5.2-0.4-8.1-1.1
		c-0.2-0.1-0.3-0.3-0.2-0.5c1.1-1.4,2.3-2.7,3.7-3.7c0.2-0.1,0.2-0.4,0-0.5l-7.5-4.5c-0.2-0.1-0.2-0.5,0-0.6l6.8-3.3
		c0.3-0.1,0.2-0.5,0-0.6l-7.2-3.7c-0.6-0.2-0.5-1.1,0.1-1.2l6.5-2.9c0.3,0,0.4-0.4,0.1-0.6l-8.9-6.9c-0.2-0.2-0.1-0.6,0.2-0.6
		l6.9-0.9C73.2,92.3,73.3,92.1,73.2,91.9z"/>
</g>
<g class="st3">
	<g>
		<path class="st4" d="M88.8,117.3c0.9,0,1.9-0.1,2.8-0.2c-0.6-0.6-1-1.4-1.4-2.2c-2.7-5.9-3.8-12.6-3.2-19.1
			c0.3-2.8,0.8-5.6,1.7-8.3c-2.7,0.8-5.4,1.8-7.7,3.5c-0.3,0.2-0.6,0.5-0.9,0.7c-2,5.6-2.3,11.8-0.7,17.6c1.1,2.7,1.9,5.6,4.5,7.3
			c0.2,0.1,0.3,0.2,0.5,0.3c0.9,0.2,1.9,0.4,2.8,0.5c0,0,0,0,0.1,0C87.8,117.3,88.3,117.3,88.8,117.3z"/>
		<path class="st4" d="M93.7,85.7c-1.1,0.2-2.2,0.5-3.3,0.8c0,0,0,0,0,0c0,0.1,0,0.2-0.1,0.2c-2,5.5-2.7,11.5-1.9,17.4
			c0.4,3,1.2,5.9,2.3,8.7c0.6,1.4,1.2,3.3,2.7,3.9c0.1,0,0.2,0.1,0.4,0.1c0,0,0.1,0,0.1,0c0.8,0.2,1.8,0.1,2.6-0.1
			c-0.3-0.3-0.5-0.5-0.8-0.8c-1.7-2.1-2.1-4.9-2.7-7.6c-0.6-2.8-1-5.7-1.3-8.6c-0.3-2.6-0.5-5.3-0.1-7.9
			C91.9,89.8,92.5,87.5,93.7,85.7z"/>
	</g>
	<path class="st4" d="M101.3,100.8c-0.1-2.3-0.5-4.6-0.9-6.9c-0.5-2.2-1-4.5-1.9-6.6c-0.3-0.8-0.9-1.7-1.8-1.9
		c-1.2-0.3-1.9,1-2.4,1.9c-1,1.9-1.4,4-1.5,6.1c-0.2,4.5,0.5,9.1,1.3,13.5c0.3,1.3,0.5,2.5,0.9,3.8c0.3,1,0.4,2.2,0.9,3.1
		c0.5,1,2.4,3.7,3.5,1.9c1.1-2.3,1.6-4.7,1.8-7.2C101.4,106,101.5,103.4,101.3,100.8z M96.3,107.6c-1.3-4-1.9-8.2-2.3-12.4
		c-0.1-0.8,1.2-0.8,1.3,0c0.4,4,1,8.1,2.2,12C97.8,108.1,96.6,108.4,96.3,107.6z M99.2,104.9c-1-3.3-1.5-6.9-1.7-10.3
		c0-0.8,1.2-0.8,1.3,0c0.1,3.4,0.7,6.8,1.6,10C100.7,105.4,99.5,105.7,99.2,104.9z"/>
	<g>
		<path class="st4" d="M125.8,86.4c-0.3,0-0.7-0.1-1-0.2c-0.4,0-0.7,0-1.1,0c0.2,0.2,0.4,0.4,0.6,0.6c2.4,2.6,3.6,5.9,4.2,9.3
			c0.6,3.4,0.8,6.9,0.8,10.3c0,3.1-0.4,6.5-2.5,9c-0.3,0.4-0.7,0.7-1.1,1c2.7-0.2,5.3-0.5,7.8-1.7c2.2-1.1,4.2-3.2,4.6-5.4
			c0.3-1.8,0.4-3.6,0.5-5.4c0.1-2.4,0.1-4.8-0.1-7.1c-0.1-1.4-0.3-3-0.9-4.4c0,0,0,0,0,0c-0.6-1-1.4-1.8-2.2-2.6
			c-1.1-1.1-2.3-2.1-3.8-2.7c-0.7-0.3-1.4-0.4-2.1-0.5C128.2,86.5,127,86.6,125.8,86.4z"/>
		<path class="st4" d="M144.8,98.1c-0.2,0-0.5,0-0.6-0.3c-0.5-0.8-1.1-1.4-1.8-2.1c0,0,0,0,0,0c-1.7-1.7-2.2-1.4-3.1-2.4
			c0.3,1.4,0.5,2.8,0.6,4.1c0.2,2.6,0.1,5.3,0,7.9c-0.1,1.5-0.1,3.3-0.6,4.8c-0.1,0.4-1.1,1.5-1.3,1.8c0.1-0.1,1.6,0.1,1.7,0
			c1.1-0.4,1.7-1.7,2.8-2.1c0.1-0.1,0.3-0.2,0.4-0.2c0.9-0.6,2.4-1.6,3.3-2.2c0.2-0.4-0.3-0.4-0.2-0.9c0.1-1.3,0-2.7-0.1-4
			c-0.1-1.3-0.2-2.7-0.7-3.9C145,98.4,144.9,98.3,144.8,98.1z"/>
		<path class="st4" d="M120.8,116.5c3.2,0.2,5.7-2,6.6-5.2c1-3.5,0.7-7.3,0.4-10.8c-0.3-3.8-0.9-7.8-3-11.1c-1-1.5-2.3-3.1-4-3.7
			c-0.8-0.3-1.7-0.2-2.5-0.1c1.5,1.3,2.7,3.7,3.3,5c1.5,3.2,2.6,6.6,3,10.1c0.5,3.5,0.5,7.4-0.6,10.8
			C123.4,113.4,122.4,115.4,120.8,116.5z"/>
	</g>
	<path class="st4" d="M123.4,100.6c-0.4-3-1.3-6-2.6-8.8c-0.6-1.3-1.2-2.5-2-3.7c-0.6-0.8-1.5-2-2.6-2c-0.1,0.1-0.3,0.2-0.4,0.4
		c-0.1,0.2-0.3,0.5-0.3,0.6c-0.2,0.4-0.3,0.8-0.5,1.1c-0.3,0.8-0.5,1.6-0.7,2.4c-0.1,0.6-0.2,1.1-0.2,1.7c0,1-0.1,2,0,3
		c-0.1,0,0.1,0,0,0c0,0,0,0,0,0c0,0.1,0,0.2,0,0.3c0.1,0.6-0.7,0.8-1,0.4c-0.1,0.1-0.2,0.1-0.4,0.1c-0.9-0.1-2.5-0.2-3,0.7
		c0,0,0,0,0,0c-0.1,0.1-0.1,0.3-0.1,0.5c-0.1,1.4,0,2.9,0.1,4.3c0,0.8,0.1,1.5,0.2,2.3c0,0.2,0,0.5,0,0.7c0,0.1-0.4,1.8-0.3,1.8
		c0.8,1.2,2.4,0.4,3.8,0.6c0.2,0,0.3,0,0.5,0c0,0,0,0,0,0c0.4-0.1,0.8,0.1,0.8,0.6c0.1,1.2,0.4,2.5,0.8,3.7c0,0,0.1,0.1,0.1,0.1
		c0.1,0.2,0.1,0.4,0.2,0.6c0.1,0.3,0.2,0.6,0.4,0.9c0.4,0.8,0.8,1.7,1.5,2.3c0.3,0.3,0.7,0.5,1.1,0.7c0,0,0,0,0,0
		c1.4-0.1,2.1-1,2.8-2.1c0.8-1.3,1.4-2.6,1.7-4.1C123.9,106.8,123.8,103.6,123.4,100.6z"/>
	<path class="st4" d="M68.6,109.9c0,0,3.6,1.6,5,2.3c1.5,0.7,7.2,2.3,7.2,2.3s-3.6-8.4-3.2-11.5c0.3-3.1,1.1-10.7,1.1-10.7l-3.3,5.2
		l-6.7,6.8V109.9z"/>
</g>
<g>
	<path class="st2" d="M101.3,92.1c-0.5-2.2-1.1-4.9-2.5-6.7c-0.8-1-1.8-1.3-2.8-1.2c0,0-0.1,0-0.1,0c-1.1,0-2.2,0.3-3.3,0.5
		c-0.9,0.2-2.7,0.3-3.2,1.2c-3.1,0.9-6.3,1.9-8.9,3.9c-1.2,0.9-2.2,1.9-3.1,3.1c-0.9,1.3-1.4,3-2.4,4.2c-1.9,1.7-3.8,3.4-5.1,5.5
		c-0.4,0.2-0.8,0.5-1.1,0.8c-0.1,0.1-0.2,0.2-0.3,0.3c-0.1,0-0.1,0.1-0.2,0.1c0,0,0,0-0.1,0c-0.1,0.1-0.2,0.1-0.3,0.2
		c0,0-0.1,0.1-0.1,0.1c0,0,0,0-0.1,0c-0.1,0,0,0,0,0c-0.1,0.1-0.3,0.1-0.3,0.3c-0.1,0.1-0.1,0.3-0.1,0.5c0.1,0.3,0.5,0.6,0.8,0.4
		c0.5-0.2,1-0.6,1.4-1c0.1-0.1,0.2-0.2,0.3-0.3c0.1,0,0.1-0.1,0.2-0.1c0,0,0,0,0.1,0c0.1-0.1,0.2-0.1,0.3-0.2c0,0,0.1-0.1,0.1-0.1
		c0,0,0,0,0.1,0c0.1,0,0,0,0,0c0,0,0,0,0,0c0,0,0.1,0,0.1-0.1c0.1,0,0.1-0.1,0.2-0.2c1.3-2.1,3.2-3.8,5-5.4c1-1.1,1.4-2.5,2.2-3.8
		c0,0,0,0,0-0.1c-1.3,5-1.2,10.4,0.2,15.4c0.5,1.4,1,2.8,1.6,4.1c0,0.1,0.1,0.1,0.1,0.2c-1.4-0.1-2.7-0.6-4-1.1
		c-1.5-0.7-3-1.5-4.4-2.3c-0.1-0.1-0.2-0.1-0.3-0.1c-0.6-0.2-1.3-0.3-1.9-0.4c-0.9-0.1-1.9-0.1-2.7,0.2c-0.3,0.1-0.4,0.6-0.2,0.9
		c0.2,0.3,0.6,0.4,0.9,0.2c-0.2,0.1,0,0,0.1,0c0.1,0,0.2,0,0.2-0.1c0,0,0.1,0,0.1,0c0,0,0,0,0.1,0c0.1,0,0.2,0,0.3,0
		c0.4,0,0.9,0,1.3,0.1c0.1,0,0.1,0,0.2,0c-0.1,0,0.1,0,0.1,0c0.1,0,0.2,0,0.3,0.1c0.2,0,0.4,0.1,0.6,0.1c0.2,0,0.4,0.1,0.5,0.2
		c0,0,0,0,0.1,0c0,0,0,0,0,0c0.1,0,0.1,0.1,0.2,0.1c0,0,0,0,0,0c1.4,0.8,2.8,1.6,4.3,2.2c1.6,0.7,3.3,1.3,5,1.2c0,0,0.1,0,0.1,0
		c0.7,0.9,1.4,1.7,2.3,2.3c1.4,1,3.2,1.1,4.9,1.1c1.8,0,3.7-0.2,5.5-0.4c1.5,0.3,3,0,4.5-0.3c0.1,0,0.2-0.1,0.3-0.2
		c0.9,0,1.6-0.5,2.1-1.3c0.5-0.9,1-1.9,1.2-2.9c0.3-1.4,0.6-2.9,0.7-4.3c0.3-2.8,0.4-5.6,0.2-8.5C102.5,97.8,102,94.9,101.3,92.1z
		 M84,116.5c-2.6-1.7-3.4-4.5-4.5-7.3c-1.6-5.8-1.4-11.9,0.7-17.6c0.3-0.3,0.6-0.5,0.9-0.7c2.3-1.7,5-2.6,7.7-3.5
		c-0.9,2.6-1.4,5.5-1.7,8.3c-0.6,6.5,0.5,13.2,3.2,19.1c0.4,0.8,0.8,1.6,1.4,2.2c-0.9,0.1-1.9,0.1-2.8,0.2
		C87.3,117.3,85.4,117.4,84,116.5z M94,116.9c0,0-0.1,0-0.1,0c-0.1,0-0.2-0.1-0.4-0.1c-1.5-0.6-2.1-2.6-2.7-3.9
		c-1.1-2.8-1.9-5.7-2.3-8.7c-0.8-5.9-0.1-11.8,1.9-17.4c0-0.1,0.1-0.1,0.1-0.2c0,0,0,0,0,0c1.1-0.3,2.2-0.6,3.3-0.8
		c-1.3,1.8-1.9,4.1-2.1,6.2c-0.3,2.6-0.1,5.3,0.1,7.9c0.3,2.9,0.7,5.8,1.3,8.6c0.6,2.6,1,5.4,2.7,7.6c0.2,0.3,0.5,0.6,0.8,0.8
		C95.7,117,94.8,117.1,94,116.9z M101.2,108.5c-0.3,2.5-0.7,4.9-1.8,7.2c-1.1,1.8-3-0.8-3.5-1.9c-0.4-1-0.6-2.1-0.9-3.1
		c-0.3-1.3-0.6-2.5-0.9-3.8c-0.9-4.4-1.6-9-1.3-13.5c0.1-2.1,0.5-4.2,1.5-6.1c0.5-0.9,1.2-2.2,2.4-1.9c0.9,0.2,1.4,1.2,1.8,1.9
		c0.9,2,1.5,4.4,1.9,6.6c0.5,2.3,0.8,4.6,0.9,6.9C101.5,103.4,101.5,106,101.2,108.5z"/>
	<path class="st2" d="M95.4,95.3c-0.1-0.8-1.4-0.8-1.3,0c0.4,4.1,1,8.4,2.3,12.4c0.3,0.8,1.5,0.4,1.2-0.3
		C96.4,103.4,95.8,99.3,95.4,95.3z"/>
	<path class="st2" d="M98.9,94.6c0-0.8-1.3-0.8-1.3,0c0.1,3.5,0.7,7,1.7,10.3c0.2,0.8,1.5,0.5,1.2-0.3C99.6,101.4,99,97.9,98.9,94.6
		z"/>
	<path class="st2" d="M119.7,108.4c0.8-0.1,0.8-1.4,0-1.3c-0.8,0.1-1.5,0.1-2.3-0.1c-0.4-0.1-0.5-0.2-0.6-0.6
		c-0.1-0.4-0.1-0.7-0.2-1.1c-0.3-1.6-0.5-3.2-0.6-4.8c-0.1-1.5-0.1-3.1,0-4.6c0-0.4,0.1-0.6,0.5-0.6c0.4-0.1,0.7,0,1.1,0
		c0.9,0,1.7,0.1,2.5,0.3c0.8,0.2,1.1-1,0.3-1.2c-1-0.3-2.1-0.4-3.1-0.4c-0.8,0-1.7,0-2.3,0.6c-0.6,0.7-0.4,1.7-0.5,2.5
		c0,1,0,2.1,0,3.1c0.1,2.1,0.4,4.1,0.8,6.1c0.2,0.8,0.3,1.5,1.2,1.8C117.8,108.5,118.8,108.5,119.7,108.4z"/>
	<path class="st2" d="M147,106.9c-1.5,0.8-2.8,1.9-4.2,2.8c-1.4,0.9-2.8,1.6-4.3,2c0.3-0.5,0.5-1,0.7-1.5c0.5-1.5,0.5-3.2,0.6-4.8
		c0.2-2.6,0.2-5.2,0-7.9c-0.1-1.4-0.2-2.9-0.6-4.4c0.6,0.5,1.3,1,1.9,1.6c1.1,0.9,2.3,1.9,3.1,3.1c0.4,0.7,1.5,0.1,1.1-0.6
		c-0.8-1.3-2-2.4-3.2-3.3c-1.2-1-2.4-1.9-3.6-2.9c-0.1-0.1-0.3-0.2-0.4-0.2c-0.1-0.1-0.1-0.2-0.2-0.3c-0.1-0.1-0.2-0.2-0.3-0.2
		c-1.4-1.9-3.4-3.5-5.4-4.4c-1.5-0.7-3.3-0.8-4.9-0.8c-1.9-0.1-3.8-0.1-5.7-0.2c-0.4-0.2-0.7-0.3-1.1-0.4c-1.6-0.3-3.3,0.1-4.9,0.4
		c-0.9,0.1-1.2,1.1-1.5,1.8c-0.4,0.9-0.8,1.9-1,2.9c-0.4,1.7-0.6,3.5-0.5,5.3c0,0-0.1,0-0.1,0c-1.4-0.1-3.3-0.1-4.1,1.3
		c-0.4,0.7-0.3,1.6-0.3,2.4c0,1,0,1.9,0.1,2.9c0,1,0.1,1.9,0.2,2.9c0.1,0.8,0.1,1.7,0.5,2.3c0.9,1.4,2.6,1.4,4.1,1.7
		c0.2,0,0.3,0,0.4-0.1c0.2,2,0.8,4.1,1.7,5.9c0.5,0.9,1.1,1.9,1.9,2.6c0.5,0.3,1.2,0.7,1.9,0.7c0.1,0.1,0.2,0.2,0.3,0.2
		c0.9,0.2,1.7,0.3,2.6,0.2c0,0,0,0,0,0c3.8-0.1,7.5-0.1,11.1-1.5c1.7-0.7,3.3-1.7,4.5-3.1c0.1,0,0.2,0,0.3,0c2-0.4,3.9-1.2,5.6-2.3
		c1.5-0.9,2.8-2,4.4-2.9C148.4,107.6,147.7,106.5,147,106.9z M116,113.1c-0.8-1.7-1.2-3.6-1.4-5.4c-0.1-0.6-0.7-0.7-1-0.5
		c-0.1,0-0.1-0.1-0.2-0.1c-1-0.2-2.8-0.1-3.4-1.2c-0.3-0.5-0.2-1.4-0.3-2c-0.1-0.8-0.1-1.5-0.2-2.3c-0.1-1.4-0.1-2.9-0.1-4.3
		c0.1-1.5,2.1-1.3,3.1-1.2c0.1,0,0.3,0,0.4-0.1c0.4,0.3,1.1,0.2,1-0.4c-0.2-1.7-0.1-3.3,0.2-5c0.2-0.8,0.4-1.6,0.7-2.4
		c0.1-0.4,0.3-0.8,0.5-1.1c0.1-0.1,0.4-1,0.5-1c1.2-0.2,2.2,1.2,2.8,2c0.8,1.1,1.4,2.4,2,3.7c1.3,2.8,2.2,5.8,2.6,8.8
		c0.4,3,0.5,6.2-0.1,9.2c-0.3,1.5-0.9,2.8-1.7,4.1c-0.7,1.1-1.4,2.1-2.8,2.1c0,0,0,0,0,0c-0.4-0.1-0.9-0.4-1.1-0.7
		C116.8,114.8,116.3,113.9,116,113.1z M120.8,116.6c1.6-1.1,2.6-3.2,3.2-4.9c1.1-3.4,1-7.3,0.6-10.8c-0.5-3.5-1.5-6.9-3-10.1
		c-0.6-1.3-1.8-3.7-3.3-5c0.8-0.1,1.7-0.1,2.5,0.1c1.8,0.6,3.1,2.2,4,3.7c2.1,3.3,2.7,7.3,3,11.1c0.3,3.5,0.6,7.3-0.4,10.8
		C126.5,114.6,124,116.7,120.8,116.6z M133.4,114.7c-2.5,1.2-5.1,1.6-7.8,1.7c0.4-0.3,0.8-0.6,1.1-1c2.1-2.4,2.5-5.9,2.5-9
		c0.1-3.4-0.2-6.9-0.8-10.3c-0.6-3.4-1.8-6.8-4.2-9.3c-0.2-0.2-0.4-0.4-0.6-0.6c1,0,2.1,0.1,3.1,0.1c1.5,0,3.3,0.1,4.7,0.6
		c1.4,0.6,2.7,1.6,3.8,2.7c0.8,0.8,1.6,1.7,2.2,2.6c0,0,0,0,0,0c0.6,1.4,0.8,2.9,0.9,4.4c0.2,2.4,0.2,4.8,0.1,7.1
		c-0.1,1.8-0.2,3.6-0.5,5.4C137.7,111.4,135.6,113.6,133.4,114.7z"/>
</g>
<path class="st1" d="M175.4,122.7c-2.4-6.5-6.1-12.3-10.9-17.2c-2-2-4.2-3.7-6.9-4.5c0.1-1.2,0.1-2.5,0.1-3.7c0-0.1,0-0.2,0-0.3
	c-1.7-12.9-4.5-26.2-12.2-37c-0.2-0.3-0.5-0.7-0.7-1c0.5-2.7,1-5.4,1.1-8.1c0.1-1.3,0.1-2.6,0.1-3.8c-0.1-1.2-0.1-2.6-1-3.5
	c-1-1.1-2.5-1-3.8-0.9c-1.3,0.1-2.6,0.4-3.9,0.8c-2.6,0.7-5.1,1.8-7.5,3.1c-5.8-2.5-12.1-2.9-18.4-2.4c-6.5,0.5-13.2,1.2-19.5,3.2
	c-2.6-1.6-5.3-3.1-8.1-4.3c-2.8-1.2-5.9-2.1-9-1.5c-1.4,0.3-2.7,1.1-3.4,2.5c-0.7,1.4-0.6,3.1-0.5,4.6c0.2,3.4,0.4,6.8,0.6,10.2
	c-3.7,3.3-6.5,7.6-9.2,11.8c-2.3,3.6-4.5,7.1-6,11.1c-1.5,3.9-2.6,8-3.1,12.2c0,0,0,0,0,0c0,0.1,0,0.2,0,0.3c0,0,0,0,0,0.1
	c-0.4,3.4-0.6,6.9-0.7,10.4c0,0-0.4,5.6-0.5,5.9c-0.3,0.1-0.5,0.1-0.8,0.2c0,0-1,0.3-1,0.3c-0.1,0-0.1,0-0.2,0.1
	c-2.9,0.9-8.6,2.8-12.6,5c-0.5,0.3-0.9,0.6-1.4,0.9c0,0,0,0-0.1,0c-1.1,0.7-2,1.5-2.7,2.2c-0.9,0.9-1.8,1.9-2.6,3
	c-1.8,2.6-3.1,5.5-4.1,8.5c-0.2,0.8,1,1.1,1.2,0.3c1-3.3,2.5-6.5,4.7-9.2c2.3-2.9,5.5-4.7,8.8-6.3c6-2.8,12.5-3.9,18.7-6.3
	c0.3,0.3,0.6,0.5,1,0.8c0.5,0.4,1.1,0.8,1.8,1.1c-2.1,0.9-4.2,1.3-6.4,1.7c-0.9,0.2-4.6,1.1-4.9,1.2c-2.6,0.8-5.2,1.8-7.6,3.1
	c-3.1,1.6-6.2,3.7-8.8,6.1c-2,1.8-3.1,4.5-4,6.9c-1.2,3.1-2,6.4-2.8,9.6c-0.2,0.8,1,1.1,1.2,0.3c0.6-2.7,1.3-5.4,2.2-8.1
	c0.9-2.6,1.9-5.6,3.9-7.6c0.9-0.9,2-1.7,3.1-2.5c0,0,0.9-0.7,2.3-1.6c0,0,0,0,0,0c0.1-0.1,0.2-0.1,0.3-0.2c0,0,0,0,0,0
	c0.2-0.1,0.4-0.3,0.6-0.4c0,0,0,0,0,0c0.5-0.3,1-0.6,1.4-0.8c0,0,0,0,0,0c0.2-0.1,0.4-0.3,0.7-0.4c0,0,0,0,0,0c0,0,0,0,0,0
	c0.1-0.1,0.3-0.1,0.4-0.2c2.4-1.3,5.2-2.7,7.6-3.1c0,0.3,0,0.5,0,0.8c0.1,1.6,0.4,5.3,2,10.4c0.6,1.3,1.2,2.5,1.9,3.7
	c2.7,4.8,5.9,9.4,9.8,13.2c2.1,2.1,4.4,3.9,6.9,5.6c0.2,2.7,0.7,5.4,1.1,8.2c0.1,0.8,0.5,1.6,1.2,2c0.8,0.5,1.8,0.4,2.7,0.3
	c1.7-0.3,3.1-1.3,4.4-2.3c1.3-1.1,2.5-2.2,3.7-3.4c3.7,0.5,7.3,1.6,10.9,2.2c3.6,0.6,7.4,0.9,11,0.9c6,0,12.2-0.8,18.1-2.2
	c1.6,0.8,3.1,1.6,4.7,2.4c1.6,0.8,3.4,2,5.3,1.7c0.8-0.1,1.6-0.6,2-1.3c0.6-0.8,0.5-1.9,0.5-2.8c0-1.8,0-3.7,0-5.5
	c4.5-3.4,8.2-7.7,11.1-12.5c3.4-5.6,4.8-12.2,5.8-18.6c0.6-3.6,1-7.3,1.5-10.9c0-0.1,0-0.2,0-0.3c5.2,2,8.1,7.5,10.9,12.1
	c4,6.8,4.6,14.8,3.8,22.5c-0.1,0.8,1.2,0.8,1.3,0c0.7-6.7,0.3-13.6-2.3-19.9c-0.9-2.1-2.2-4.1-3.4-6.1c-1.3-2.1-2.7-4.2-4.4-6
	c-1.7-1.8-3.8-3.3-6.3-4.1c0.2-0.4,0.3-0.8,0.4-1.1c0.2-0.7,0.4-1.5,0.5-2.3c2.2,0.7,4.1,2,5.7,3.6c2.2,2.2,4.3,4.7,6.1,7.3
	c3.8,5.6,6.3,12.2,7,19c0.4,4.2,0.4,8.4,0,12.5c-0.1,0.8,1.2,0.8,1.3,0C178.2,137.4,178,129.6,175.4,122.7z M137.1,46.1
	c1.1-0.4,2.3-0.6,3.5-0.8c0.6-0.1,2.2-0.5,2.6,0.1c0.4,0.6,0.3,1.9,0.3,2.6c0,1.2-0.1,2.4-0.2,3.6c-0.1,1.6-0.4,3.1-0.6,4.7
	c-2.9-3.3-6.2-6.2-10.1-8.3C134,47.3,135.6,46.6,137.1,46.1z M55,110c0.1-2,0.2-4,0.2-6.1c0.5,1,1.2,1.9,2,2.7
	c0.6,0.6,1.3,1.3,1.9,1.9C57.8,109.1,56.4,109.6,55,110z M154.7,103c-0.3,1.4-0.8,2.4-1.5,3.7c-0.5,1-1.1,2-2.2,2.4
	c-1,0.3-1.7-0.2-2.1-1.1c-0.4-0.9-0.6-1.9-0.8-2.8c-0.2-1-0.4-2.1-0.6-3.1c-0.4-2.3-0.7-4.6-0.8-6.8c-0.1-1.6-2.6-1.6-2.6,0
	c0.1,2.4,0.5,4.9,0.9,7.3c0.4,2.3,0.6,4.9,1.7,6.9c1.5,2.9,5.1,2.8,7.2,0.6c0,0,0,0,0,0c-0.7,5.3-1.3,10.6-2.7,15.8
	c-1.6,6.1-4.4,11.5-8.6,16.2c-2.4,2.7-5.1,5.1-8.2,7c-1.4,0.9-0.1,3.1,1.3,2.2c0,0,0.1,0,0.1-0.1c0,0.9,0,1.9,0,2.8
	c0,0.4,0,0.9,0,1.3c0,0.3,0,0.6,0,0.9c-0.1,0.2-0.1,0.1-0.2,0.2c-0.1,0-0.3,0.1-0.5,0.1c-0.6,0-1.1-0.3-1.6-0.6
	c-0.8-0.4-1.5-0.8-2.3-1.2c-1.5-0.7-3-1.5-4.4-2.2c0,0-0.1,0-0.1,0c-0.2-0.1-0.6-0.2-0.9-0.1c-5.9,1.5-12.1,2.3-18.2,2.3
	c-3.6,0-7.3-0.3-10.8-0.9c-3.8-0.7-7.5-1.7-11.3-2.2c-0.5-0.1-0.9,0.2-1.1,0.5c0,0,0,0-0.1,0.1c-1.2,1.2-2.5,2.4-3.8,3.5
	c-0.7,0.5-1.3,1-2.1,1.4c-0.3,0.2-0.7,0.3-1.1,0.3c-0.2,0-0.7,0.1-0.9,0c0,0-0.1-0.4-0.1-0.4c-0.1-0.5-0.1-0.9-0.2-1.4
	c-0.1-0.9-0.3-1.8-0.4-2.6c-0.2-1.4-0.4-2.8-0.5-4.2c0-0.4-0.2-0.8-0.6-1.1c0,0,0,0,0,0c-5.5-3.8-10.2-8.5-13.8-14.2
	c-2-3-3.9-6.2-5-9.7c-0.9-2.8-1-5.7-1-8.7c0-0.1,0-0.1,0-0.2c3.4-0.8,6.8-1.2,9.9-2.8c1.9,0.5,3.8,0.2,4.1-2.3c0.2-2,0-4.2-0.1-6.3
	c-0.1-2.2-0.3-4.4-0.5-6.6c-0.1-0.7-0.5-1.3-1.3-1.3c-0.6,0-1.3,0.6-1.3,1.3c0.3,3.3,0.5,6.6,0.6,10c0,0.8,0,1.6,0,2.4
	c0,0.6-0.1,0.6-0.7,0.4c-1.3-0.3-2.5-1-3.5-1.9c-1-0.9-2-2-3-3c-0.4-0.4-0.9-0.9-1-1.2c-0.4-0.6-0.8-1.2-1.1-1.9
	c-1-2.3-1.1-4.9-1.2-7.4c0.4-3.5,1.4-6.9,2.5-10.2c1.3-3.9,3.2-7.3,5.4-10.8c1.9-3,3.8-6.1,6.1-8.9c2.6-3.2,5.7-5.9,9.5-7.7
	c1.5-0.7,0.2-2.9-1.3-2.2c-1.4,0.7-2.7,1.4-3.9,2.3c-0.2-2.3-0.3-4.1-0.5-6.7c-0.1-1.4-0.3-2.9,0-4.2c0.3-1.4,1.2-1.9,2.5-2
	c2.6-0.2,5.3,0.7,7.6,1.8c1.7,0.8,3.4,1.7,5,2.7c-0.6,0.2-1.2,0.5-1.7,0.7c-1.5,0.7-0.2,2.9,1.3,2.2c6.4-2.8,13.5-3.6,20.5-4.4
	c6.8-0.7,13.9-0.9,20.3,2c11.2,5.1,17.8,16.2,21.7,27.4c2.3,6.7,3.5,13.8,4.4,20.8C155.1,99.2,155.2,101.2,154.7,103z"/>
<g>
	<g>
		<path class="st1" d="M76.4,56.5c1.4-0.3,2.1-1.7,2.3-3c0.1-0.9,0-1.8,0-2.7c0-0.8-0.3-2.7,0.9-2.7c1.5-0.1,2.7,1.5,3.9,2.3
			c1.5,0.9,3.3,0.8,5,0.2c0.5-0.2,0.3-0.9-0.2-0.7c-1,0.3-2.1,0.6-3.1,0.4c-0.8-0.2-1.5-0.6-2.1-1.2c-1-0.8-2.2-1.9-3.6-1.7
			c-1.8,0.3-1.4,2.9-1.3,4.2c0.1,1.5,0,3.7-1.8,4.2C75.7,55.9,75.9,56.7,76.4,56.5L76.4,56.5z"/>
	</g>
</g>
<g>
	<g>
		<path class="st1" d="M132.6,50c1.2,0.3,2.5,0.3,3.6,0c0.6-0.2,1.2-0.4,1.8-0.6c0.5-0.2,1.1-0.5,1.7-0.5c1.1,0,0.9,1.5,0.7,2.2
			c-0.4,1.3-0.8,2.6-1.3,3.8c-0.2,0.4,0.5,0.6,0.7,0.2c0.5-1.3,1.1-2.7,1.4-4.2c0.2-0.9,0.2-2-0.6-2.6c-1.1-0.7-2.6,0.2-3.6,0.6
			c-1.4,0.5-2.8,0.7-4.2,0.3C132.4,49.1,132.2,49.8,132.6,50L132.6,50z"/>
	</g>
</g>
<g>
	<g>
		<path class="st1" d="M77.8,54.8c-0.7-0.6-1.7-0.8-2.6-1c-0.9-0.2-1.8-0.3-2.7-0.5c-0.5-0.1-0.7,0.6-0.2,0.7
			c0.8,0.2,1.7,0.3,2.5,0.4c0.4,0.1,0.7,0.2,1.1,0.3c0.4,0.1,0.9,0.3,1.3,0.6C77.6,55.7,78.2,55.1,77.8,54.8L77.8,54.8z"/>
	</g>
</g>
<g>
	<g>
		<path class="st1" d="M78.3,52.9c-1.7-1-3.6-1.6-5.4-2.3c-0.5-0.2-0.6,0.6-0.2,0.7c1.8,0.7,3.6,1.2,5.2,2.2
			C78.4,53.8,78.7,53.1,78.3,52.9L78.3,52.9z"/>
	</g>
</g>
<g>
	<g>
		<path class="st1" d="M78.7,51.6c-1.6-1.3-3.5-2.3-5.5-3c-0.5-0.2-0.7,0.6-0.2,0.7c1.9,0.6,3.6,1.6,5.2,2.8c0.2,0.1,0.4,0.2,0.5,0
			C78.8,52,78.8,51.7,78.7,51.6L78.7,51.6z"/>
	</g>
</g>
<g>
	<g>
		<path class="st1" d="M78.6,49.8c-0.5-0.9-1.5-1.5-2.4-2c-1.1-0.7-2.3-1.3-3.5-1.8c-0.4-0.2-0.8,0.5-0.4,0.6
			c1.2,0.5,2.3,1.1,3.4,1.7c0.8,0.5,1.8,1,2.2,1.8C78.2,50.6,78.8,50.2,78.6,49.8L78.6,49.8z"/>
	</g>
</g>
<g>
	<g>
		<path class="st1" d="M79.5,47.5c-1-1.8-2.2-3.5-3.7-4.9c-0.4-0.3-0.9,0.2-0.5,0.5c1.5,1.4,2.7,3,3.6,4.7
			C79.1,48.3,79.7,47.9,79.5,47.5L79.5,47.5z"/>
	</g>
</g>
<g>
	<g>
		<path class="st1" d="M82.1,48.3c-0.3-1.8-0.5-3.6-1.4-5.1c-0.2-0.4-0.9,0-0.6,0.4c0.9,1.5,1,3.3,1.3,4.9
			C81.4,48.9,82.2,48.7,82.1,48.3L82.1,48.3z"/>
	</g>
</g>
<g>
	<g>
		<path class="st1" d="M83.3,49.3c0.2-1.6,0.3-3.4-0.3-5c-0.2-0.5-0.9-0.3-0.7,0.2c0.5,1.5,0.4,3.2,0.2,4.8c0,0.2,0.2,0.4,0.4,0.4
			C83.2,49.6,83.3,49.5,83.3,49.3L83.3,49.3z"/>
	</g>
</g>
<g>
	<g>
		<path class="st1" d="M84.6,50c0.6-1.5,0.8-3.2,0.6-4.9c0-0.2-0.2-0.4-0.4-0.4c-0.2,0-0.4,0.2-0.4,0.4c0.2,1.6,0,3.2-0.6,4.7
			c-0.1,0.2,0.1,0.4,0.3,0.5C84.4,50.4,84.5,50.2,84.6,50L84.6,50z"/>
	</g>
</g>
<g>
	<g>
		<path class="st1" d="M86.2,50.5c0.5-1.3,0.8-2.6,1-3.9c0-0.2-0.1-0.4-0.3-0.5c-0.2,0-0.4,0.1-0.5,0.3c-0.2,1.3-0.5,2.6-1,3.9
			c-0.1,0.2,0.1,0.4,0.3,0.5C85.9,50.8,86.1,50.7,86.2,50.5L86.2,50.5z"/>
	</g>
</g>
<g>
	<g>
		<path class="st1" d="M134.6,50c0.3-1.3,0.4-2.5,0.3-3.8c0-0.2-0.2-0.4-0.4-0.4c-0.2,0-0.4,0.2-0.4,0.4c0.1,1.2,0,2.4-0.3,3.6
			C133.8,50.3,134.5,50.5,134.6,50L134.6,50z"/>
	</g>
</g>
<g>
	<g>
		<path class="st1" d="M136,50.3c0.3-1.4,0.5-2.8,0.5-4.3c0-0.5-0.8-0.5-0.8,0c0,1.4-0.1,2.7-0.4,4.1
			C135.1,50.6,135.8,50.8,136,50.3L136,50.3z"/>
	</g>
</g>
<g>
	<g>
		<path class="st1" d="M137.4,49.4c0.6-1.5,0.8-3.1,0.6-4.7c0-0.2-0.2-0.4-0.4-0.4c-0.2,0-0.4,0.2-0.4,0.4c0.2,1.5,0,3.1-0.6,4.5
			c-0.1,0.2,0.1,0.4,0.3,0.5C137.2,49.7,137.4,49.5,137.4,49.4L137.4,49.4z"/>
	</g>
</g>
<g>
	<g>
		<path class="st1" d="M139.1,48.7c0.4-1,0.6-2.1,0.7-3.1c0-0.2-0.2-0.4-0.4-0.4c-0.2,0-0.3,0.2-0.4,0.4c-0.1,0.9-0.4,2-0.7,2.9
			c-0.1,0.2,0.1,0.4,0.3,0.5C138.9,49.1,139.1,48.9,139.1,48.7L139.1,48.7z"/>
	</g>
</g>
<g>
	<g>
		<path class="st1" d="M140.7,48.3c0.9-1.6,1.3-3.4,1.8-5.1c0.1-0.5-0.6-0.7-0.7-0.2c-0.5,1.7-0.9,3.4-1.8,4.9
			C139.8,48.4,140.5,48.8,140.7,48.3L140.7,48.3z"/>
	</g>
</g>
<g>
	<g>
		<path class="st1" d="M141.2,49.4c1.1-1.3,2.2-2.7,3.3-4c0.1-0.2,0.2-0.4,0-0.5c-0.1-0.1-0.4-0.2-0.5,0c-1.1,1.3-2.2,2.7-3.3,4
			c-0.1,0.2-0.2,0.4,0,0.5C140.8,49.5,141.1,49.6,141.2,49.4L141.2,49.4z"/>
	</g>
</g>
<g>
	<g>
		<path class="st1" d="M141.4,50.5c1.4-0.6,2.7-1.5,3.7-2.6c0.1-0.2,0.2-0.4,0-0.5c-0.1-0.1-0.4-0.2-0.5,0c-0.9,1.1-2.1,1.9-3.4,2.5
			c-0.2,0.1-0.3,0.3-0.3,0.5C140.9,50.4,141.2,50.5,141.4,50.5L141.4,50.5z"/>
	</g>
</g>
<g>
	<g>
		<path class="st1" d="M141,51.9c1.5-0.2,3-0.8,4.3-1.6c0.4-0.3,0-0.9-0.4-0.6c-1.3,0.8-2.7,1.3-4.1,1.5c-0.2,0-0.3,0.3-0.3,0.5
			C140.6,51.8,140.8,51.9,141,51.9L141,51.9z"/>
	</g>
</g>
<g>
	<g>
		<path class="st1" d="M140.3,52.7c1.3,0.2,2.5,0,3.7-0.4c0.2-0.1,0.3-0.3,0.3-0.5c-0.1-0.2-0.3-0.3-0.5-0.3
			c-1.1,0.4-2.2,0.6-3.3,0.4c-0.2,0-0.4,0-0.5,0.3C140,52.5,140.1,52.7,140.3,52.7L140.3,52.7z"/>
	</g>
</g>
<g>
	<g>
		<path class="st1" d="M80.7,47.5c-0.4-1.7-1.2-3.1-2.3-4.5c-0.1-0.2-0.3-0.2-0.5-0.1c-0.2,0.1-0.3,0.4-0.1,0.5
			c1,1.3,1.9,2.7,2.2,4.3C80.1,48.2,80.8,48,80.7,47.5L80.7,47.5z"/>
	</g>
</g>
<g>
	<g>
		<path class="st1" d="M78.7,48.2c-1.5-1.8-3.3-3.4-5.4-4.3c-0.2-0.1-0.4-0.1-0.5,0.1c-0.1,0.2-0.1,0.4,0.1,0.5
			c2.1,0.9,3.8,2.4,5.3,4.2C78.4,49.1,79,48.5,78.7,48.2L78.7,48.2z"/>
	</g>
</g>
<g>
	<g>
		<path class="st1" d="M73.5,55.5c1,0.1,1.9,0.3,2.8,0.6c0.2,0.1,0.4-0.1,0.5-0.3c0.1-0.2-0.1-0.4-0.3-0.5c-1-0.4-2-0.6-3-0.7
			c-0.2,0-0.4,0.2-0.4,0.4C73.2,55.4,73.3,55.5,73.5,55.5L73.5,55.5z"/>
	</g>
</g>
<g>
	<g>
		<path class="st1" d="M140,53.9c1.1,0.3,2.2,0.5,3.3,0.4c0.2,0,0.4-0.2,0.4-0.4c0-0.2-0.2-0.4-0.4-0.4c-1.1,0.1-2.1-0.1-3.1-0.4
			C139.7,53,139.5,53.8,140,53.9L140,53.9z"/>
	</g>
</g>
<g>
	<g>
		<path class="st1" d="M140.6,55.2C140.5,55.3,140.5,55.2,140.6,55.2c0,0.1,0.1,0.1,0.2,0.1c0.1,0.1,0.2,0.1,0.4,0.2
			c0.3,0.1,0.5,0.2,0.8,0.3c0.5,0.1,1.1,0.2,1.7,0.2c0.2,0,0.4-0.2,0.4-0.4c0-0.2-0.2-0.4-0.4-0.4c-0.6,0-1.1,0-1.7-0.2
			c-0.3-0.1-0.5-0.2-0.8-0.3c-0.3-0.2-0.6-0.3-0.9-0.1c-0.2,0.1-0.2,0.3-0.1,0.5C140.1,55.2,140.4,55.3,140.6,55.2L140.6,55.2z"/>
	</g>
</g>
<g>
	<g>
		<path class="st1" d="M133.7,49c0.2-0.7,0.2-1.4,0.2-2.2c0-0.2-0.2-0.4-0.4-0.4c-0.2,0-0.4,0.2-0.4,0.4c0,0.3,0,0.7,0,1
			c0,0.1,0,0.2,0,0.2c0,0,0,0.1,0,0.1c0,0,0,0,0,0c0,0,0,0.1,0,0.1c0,0.2-0.1,0.3-0.1,0.5c0,0.2,0.1,0.4,0.3,0.5
			C133.4,49.3,133.6,49.2,133.7,49L133.7,49z"/>
	</g>
</g>
<g>
	<g>
		<path class="st1" d="M78,53.9c-0.8-0.5-1.6-1-2.5-1.3c-0.8-0.3-1.8-0.4-2.6-0.8c-0.4-0.2-0.8,0.4-0.4,0.6c0.8,0.4,1.7,0.5,2.6,0.8
			c0.9,0.3,1.7,0.8,2.5,1.3C78.1,54.8,78.5,54.1,78,53.9L78,53.9z"/>
	</g>
</g>
<g>
	<g>
		<path class="st1" d="M87.5,49.9c0.4-0.7,0.7-1.3,1-2.1c0.1-0.2-0.1-0.4-0.3-0.5c-0.2,0-0.4,0.1-0.5,0.3c-0.1,0.3-0.3,0.6-0.4,0.9
			c-0.2,0.3-0.3,0.6-0.5,0.9c-0.1,0.2,0,0.4,0.1,0.5C87.1,50.1,87.4,50,87.5,49.9L87.5,49.9z"/>
	</g>
</g>
</svg>
