<?xml version="1.0" encoding="utf-8"?>
<!-- Generator: Adobe Illustrator 26.3.1, SVG Export Plug-In . SVG Version: 6.00 Build 0)  -->
<svg version="1.1" id="Calque_1" xmlns="http://www.w3.org/2000/svg" xmlns:xlink="http://www.w3.org/1999/xlink" x="0px" y="0px"
	 viewBox="0 0 200 200" style="enable-background:new 0 0 200 200;" xml:space="preserve">
<style type="text/css">
	.st0{fill:#666666;}
	.st1{fill:#E7F4DF;}
	.st2{fill:none;stroke:#E7F4DF;stroke-miterlimit:10;}
	.st3{fill:#79A2D8;}
	.st4{fill:#FFFFFF;}
	.st5{fill:#9999CC;}
	.st6{fill:#FD1015;}
	.st7{fill:#CCCCCC;}
</style>
<g>
	<g>
		<path class="st0" d="M135.8,119.5c3.9-1.1,6.5-3.6,8.7-7c2.3-3.3,4.1-7,6.9-9.9c2.8-2.9,6.4-4.9,10.4-5.7c2.1-0.4,4.3-0.5,6.4,0.1
			c4,1.3,6.8,5.3,7.2,9.5c0.4,4.2-1.5,8.4-4.5,11.3c-3,2.9-4.9,4.3-9.5,6.2c1.6,0.6,3.2,4.1,3.1,4.5c-0.2,0.7-1.8-0.1-2.5-0.1
			c-4.6-0.2-8.9,2.3-13.1,4.2c-4.2,1.9-8.1,1.4-12.6,0.5"/>
		<g>
			<path class="st1" d="M136.2,121c4.7-1.4,7.9-4.9,10.4-8.9c2.9-4.5,5.4-9.1,10.3-11.8c4.2-2.3,10.3-3.5,14.1,0.3
				c3.6,3.6,3.5,9.1,1,13.3c-2.6,4.3-7,7-11.5,8.9c-1,0.4-0.9,2.1,0,2.6c0.8,0.4,1.3,1.3,1.8,2.1c0.2,0.3,0.3,0.7,0.5,1
				c0.1,0.1,0,0.3,0.1,0.3c1.2-0.9,1.5-1.4,0.8-1.5c-0.1,0-0.3-0.1-0.4-0.1c-2.8-0.7-5.8,0-8.5,1.1c-3,1.1-5.8,3-8.9,3.7
				c-3.1,0.8-6.3,0.3-9.3-0.3c-1.9-0.4-2.7,2.5-0.8,2.9c3.7,0.7,7.6,1.2,11.3,0.2c3.8-1,7.1-3.4,10.9-4.4c1.6-0.4,3.1-0.5,4.7-0.2
				c1.3,0.3,3.1,0.1,3.1-1.7c0-1-0.7-2-1.1-2.8c-0.7-1.1-1.5-2.3-2.7-2.9c0,0.9,0,1.7,0,2.6c4.5-1.9,8.7-4.6,11.7-8.6
				c3.3-4.4,4.3-10.5,1.6-15.4c-1.2-2.1-3-4-5.2-5.1c-2.7-1.3-5.7-1.3-8.7-0.8c-5.7,1.1-10.4,4.7-13.7,9.4
				c-3.5,5-5.9,11.3-12.2,13.2C133.5,118.7,134.3,121.6,136.2,121L136.2,121z"/>
		</g>
	</g>
	<g>
		<g>
			<path class="st1" d="M166.2,97.5c1.3,3.3,2.2,6.8,2.5,10.3c0.2,1.7,0.2,3.3,0.1,5c0,0.6-0.3,5.4-0.7,5.4c-0.5,0-0.5,0.8,0,0.8
				c0.5,0,0.7-0.3,0.8-0.7c0.3-0.9,0.3-1.9,0.4-2.8c0.2-2.1,0.3-4.2,0.2-6.3c-0.2-4.1-1.1-8.1-2.6-11.9
				C166.8,96.8,166.1,97,166.2,97.5L166.2,97.5z"/>
		</g>
	</g>
	<g>
		<g>
			<path class="st1" d="M161.7,97.4c0.9,1.1,0.9,3.1,1.1,4.4c0.3,2.4,0.4,4.8,0.4,7.2c0,2.6-0.1,5.1-0.3,7.7
				c-0.1,1.1-0.2,2.2-0.4,3.3c-0.1,0.4-0.3,2.3-0.7,2.5c0.2,0,0.3,0,0.5,0.1c0,0.1,0,0.1,0.1,0.2c-0.1,0.1-0.2,0.2-0.4,0.3
				c0,0,0,0,0.1,0c0.5,0,0.5-0.8,0-0.8c0,0,0,0-0.1,0c-0.2,0-0.3,0.1-0.4,0.3c0,0.2,0,0.4,0.1,0.5c0.1,0.1,0.3,0.1,0.5,0.1
				c0.6-0.3,0.8-1.5,0.9-2.1c0.2-1.1,0.4-2.2,0.5-3.3c0.3-2.7,0.4-5.5,0.4-8.3c0-2.6-0.1-5.3-0.4-7.9c-0.2-1.4-0.3-3.4-1.2-4.6
				C162.1,96.6,161.4,97,161.7,97.4L161.7,97.4z"/>
		</g>
	</g>
	<g>
		<g>
			<path class="st1" d="M163.9,97.9c1.3,1.5,1.3,3.8,1.6,5.7c0.2,1.9,0.4,3.8,0.5,5.7c0.1,1.9,0,3.8-0.2,5.7c-0.1,1-0.2,2-0.4,3
				c-0.1,0.4-0.2,0.9-0.2,1.3c-0.1,0.3-0.1,0.6-0.2,0.9c-0.2,0.4-0.2,0.5,0.1,0.4c0.1,0.1,0.2,0.2,0.3,0.4c0,0,0-0.1,0-0.1
				c0-0.5-0.7-0.5-0.8,0c0,0,0,0.1,0,0.1c0,0.2,0.1,0.3,0.3,0.4c0,0,0.1,0,0.1,0c0.1,0,0.3,0,0.4-0.1c0.5-0.5,0.5-1.5,0.6-2.2
				c0.2-1,0.3-2.1,0.5-3.2c0.3-2.3,0.3-4.6,0.2-6.8c-0.1-2.2-0.3-4.3-0.6-6.5c-0.3-1.8-0.4-3.8-1.7-5.2
				C164.1,97,163.6,97.6,163.9,97.9L163.9,97.9z"/>
		</g>
	</g>
	<g>
		<g>
			<path class="st1" d="M159.7,97.3c0.9,4.3,1,8.8,0.9,13.2c-0.1,4.4-0.4,8.8-0.9,13.2c0,0.1,0.1,0.3,0.2,0.3
				c-0.3-0.2-0.2,0.1-0.2,0.5c-0.1,0.4-0.1,0.8-0.2,1.2c-0.1,0.4-0.1,0.7-0.2,1.1c0,0.1-0.1,0.3-0.1,0.4c0,0.3-0.2,0.2,0.1,0.1
				c-0.5,0.1-0.3,0.8,0.2,0.7c0.8-0.2,0.9-2.9,0.9-3.5c0-0.2,0.1-0.5,0.1-0.8c0-0.1-0.2-0.4-0.2-0.4c0.1-0.1,0.1-0.1,0.2-0.2
				c0-0.2,0.1-0.5,0.1-0.7c0-0.4,0.1-0.8,0.1-1.2c0.1-1,0.2-2,0.3-2.9c0.5-7,1-14.4-0.5-21.2C160.3,96.7,159.6,96.9,159.7,97.3
				L159.7,97.3z"/>
		</g>
	</g>
	<g>
		<g>
			<path class="st1" d="M157.8,99.6c1.1,4.9,0.3,10.1-0.1,15c-0.4,5.1-1,10.1-2.4,15c0.2,0,0.5,0,0.7,0c-0.1-0.1-0.1-0.3-0.2-0.4
				c-0.2-0.4-0.9-0.3-0.7,0.2c0.1,0.1,0.1,0.3,0.2,0.4c0.1,0.3,0.6,0.4,0.7,0c1.5-5,2-10.1,2.5-15.2c0.4-5,1.2-10.2,0.1-15.2
				C158.4,98.9,157.7,99.1,157.8,99.6L157.8,99.6z"/>
		</g>
	</g>
	<g>
		<g>
			<path class="st1" d="M155.6,99.8c0.2,5.1,0.1,10.2-0.3,15.3c-0.2,2.6-0.5,5.2-0.9,7.8c-0.2,1.2-0.4,2.4-0.7,3.6
				c-0.1,0.6-0.3,1.2-0.5,1.8c-0.1,0.3-0.3,1.6-0.7,1.8c0.2,0,0.3,0.1,0.5,0.1c0,0,0,0.1,0,0.1c-0.2,0.1-0.3,0.2-0.5,0.3
				c0,0,0,0,0.1,0c0.5,0.1,0.7-0.6,0.2-0.7c0,0,0,0-0.1,0c-0.2,0-0.4,0.1-0.5,0.3c-0.1,0.2-0.1,0.3,0.1,0.5c0.1,0.2,0.3,0.2,0.5,0.1
				c0.6-0.3,0.8-1.4,1-2c0.4-1.3,0.7-2.7,1-4c0.5-2.6,0.8-5.2,1.1-7.9c0.6-5.7,0.7-11.3,0.5-17C156.3,99.3,155.6,99.3,155.6,99.8
				L155.6,99.8z"/>
		</g>
	</g>
	<g>
		<g>
			<path class="st1" d="M152.9,101.4c0.8,10.2-1.2,20.4-3.2,30.4c0.2,0,0.5-0.1,0.7-0.1c-0.1-0.2-0.2-0.4-0.3-0.5
				c-0.2-0.4-0.9,0-0.6,0.4c0.1,0.2,0.2,0.4,0.3,0.5c0.2,0.3,0.6,0.2,0.7-0.1c2-10.1,4-20.3,3.2-30.6
				C153.6,100.9,152.8,100.9,152.9,101.4L152.9,101.4z"/>
		</g>
	</g>
	<g>
		<g>
			<path class="st1" d="M150.8,104.4c0.3,4.9-0.4,9.7-1.3,14.5c-0.4,2.4-0.9,4.7-1.3,7.1c-0.4,2.3-0.7,4.7-1.7,6.8
				c0.2,0,0.4,0,0.6,0c-0.1-0.2-0.2-0.3-0.3-0.5c-0.2-0.4-0.9-0.1-0.6,0.4c0.1,0.2,0.2,0.3,0.3,0.5c0.1,0.2,0.5,0.2,0.6,0
				c1-2.1,1.4-4.3,1.7-6.5c0.4-2.5,0.9-5,1.3-7.5c0.9-4.9,1.6-9.8,1.3-14.7C151.5,103.9,150.8,103.9,150.8,104.4L150.8,104.4z"/>
		</g>
	</g>
	<g>
		<g>
			<path class="st1" d="M148.1,107.7c-0.1,4.2-0.2,8.4-0.6,12.6c-0.2,2.2-0.5,4.3-1,6.5c-0.2,1-0.5,2-0.7,2.9
				c-0.2,0.6-0.5,2.8-1,3.1c0.2,0,0.3,0,0.5,0.1c0,0.1,0,0.1,0.1,0.2c-0.1,0.1-0.2,0.2-0.4,0.3c0,0,0.1,0,0.1,0c0.5,0,0.5-0.7,0-0.8
				c0,0-0.1,0-0.1,0c-0.2,0-0.3,0.1-0.4,0.3c-0.1,0.2,0,0.4,0.1,0.6c0.1,0.1,0.3,0.1,0.5,0.1c0.6-0.3,0.7-1.2,0.9-1.8
				c0.3-1,0.6-2,0.9-3c0.6-2.2,0.9-4.4,1.2-6.6c0.6-4.7,0.7-9.5,0.8-14.3C148.9,107.2,148.2,107.2,148.1,107.7L148.1,107.7z"/>
		</g>
	</g>
	<g>
		<g>
			<path class="st1" d="M145.6,111.6c0,3.7,0,7.5-0.3,11.2c-0.2,1.7-0.4,3.5-0.9,5.1c-0.2,0.8-0.5,1.6-0.8,2.4
				c-0.2,0.4-0.4,0.8-0.6,1.2c-0.1,0.2-0.5,1.1-0.7,1.2c0.1,0.1,0.3,0.1,0.4,0.2c0,0.1,0,0.2,0,0.3c-0.2,0-0.3,0.1-0.5,0.1
				c0,0,0,0,0,0c0.4,0.2,0.8-0.5,0.4-0.6c0,0,0,0,0,0c-0.2-0.1-0.4-0.1-0.5,0.1c-0.1,0.2-0.1,0.3,0,0.5c0.1,0.2,0.3,0.2,0.4,0.2
				c0.5-0.1,0.8-0.8,1-1.2c0.4-0.8,0.8-1.6,1.1-2.5c0.7-1.7,1-3.6,1.3-5.4c0.6-4.2,0.5-8.5,0.5-12.8
				C146.3,111.1,145.6,111.1,145.6,111.6L145.6,111.6z"/>
		</g>
	</g>
	<g>
		<g>
			<path class="st1" d="M143.6,114.3c-0.3,3.3-0.1,6.7-0.6,10.1c-0.5,3.1-1.5,6.1-3,8.8c-0.2,0.4,0.4,0.8,0.6,0.4
				c1.5-2.8,2.6-5.8,3-9c0.5-3.4,0.3-6.9,0.6-10.3C144.4,113.8,143.7,113.8,143.6,114.3L143.6,114.3z"/>
		</g>
	</g>
	<g>
		<g>
			<path class="st1" d="M141.9,116.1c-0.1,2.7-0.2,5.5-0.4,8.3c-0.2,2.7-1,5.3-2.2,7.6c-0.2,0.4,0.4,0.8,0.6,0.4
				c1.2-2.3,2-4.8,2.3-7.4c0.3-2.9,0.3-5.9,0.4-8.8C142.7,115.6,142,115.6,141.9,116.1L141.9,116.1z"/>
		</g>
	</g>
	<g>
		<g>
			<path class="st1" d="M139.1,118.8c0.2,2.3,0.5,4.7,0.5,7c0,1.2-0.1,2.3-0.2,3.5c-0.1,0.6-0.2,1.2-0.3,1.8
				c-0.1,0.3-0.1,0.5-0.2,0.8c0,0.2-0.1,0.3-0.1,0.5c-0.2,0.3-0.1,0.4,0.3,0.5c0-0.5-0.8-0.5-0.8,0c0,0.3,0.2,0.5,0.5,0.5
				c0.5,0,0.6-0.6,0.7-0.9c0.4-1.4,0.6-2.9,0.8-4.4c0.2-3.1-0.1-6.2-0.4-9.3C139.8,118.3,139,118.3,139.1,118.8L139.1,118.8z"/>
		</g>
	</g>
	<g>
		<g>
			<path class="st1" d="M136.7,119.8c0.2,2.2,0.6,4.3,0.8,6.5c0.1,1.1,0.2,2.1,0.2,3.2c0,0.5,0,1-0.1,1.5c0,0.3-0.1,0.6-0.1,0.9
				c0,0.2-0.1,0.3-0.1,0.5c-0.1,0.3-0.1,0.3,0,0.2c0.2,0,0.3,0,0.5,0.1c0,0.1,0,0.1,0.1,0.2c-0.1,0.1-0.2,0.2-0.3,0.4c0,0,0,0,0,0
				c0.5-0.1,0.3-0.8-0.2-0.7c0,0,0,0,0,0c-0.2,0-0.3,0.2-0.3,0.4c0,0.1,0,0.3,0.1,0.4c0.1,0.1,0.3,0.2,0.5,0.1
				c0.3-0.2,0.3-0.6,0.4-1c0.1-0.6,0.2-1.1,0.2-1.7c0.1-1.2,0-2.3-0.1-3.5c-0.2-2.4-0.7-4.8-0.9-7.2
				C137.4,119.4,136.6,119.4,136.7,119.8L136.7,119.8z"/>
		</g>
	</g>
	<g>
		<g>
			<path class="st1" d="M168.4,98.2c2.5,5.4,3.7,11.2,3.6,17.1c0.1-0.1,0.2-0.2,0.4-0.4c-0.3,0-0.5-0.1-0.8-0.1
				c-0.5,0-0.5,0.7,0,0.8c0.3,0,0.5,0.1,0.8,0.1c0.2,0,0.4-0.2,0.4-0.4c0.1-6-1.2-12-3.7-17.5C168.8,97.4,168.2,97.8,168.4,98.2
				L168.4,98.2z"/>
		</g>
	</g>
	<g>
		<g>
			<path class="st1" d="M85.5,10.2c0.5,0,0.5-0.8,0-0.8C85.1,9.4,85.1,10.2,85.5,10.2L85.5,10.2z"/>
		</g>
	</g>
</g>
<g>
	<path class="st0" d="M148,93.7c-0.8-4.8-1.7-9-2.7-13.7c-0.2-0.5-0.3-1-0.4-1.6c-0.1-0.6-0.1-1.2-0.1-1.7c-0.2,0-0.3,0-0.5,0
		c0-0.1,0-0.2,0-0.3c-0.9-4.5-2.8-8.8-4.4-13.1c0.7-3.1,1.5-6.1,2-9.3c0.5-3.5,1.4-7.7-0.4-11.1c-0.7-1.4-2-2.5-3.5-3
		c-1.9-0.6-3.9,0-5.6,0.8c-3.5,1.6-6.9,3.7-10.1,5.8c-15.3-7.7-33.5-9.1-49.7-3.6c-1.4-1.2-2.8-2.4-4.3-3.4c-1.6-1-3.2-2-4.9-2.9
		c-1.8-0.9-3.8-1.8-5.9-1.1c-1.3,0.4-2.5,1.3-2.9,2.7c-0.2,0.7-0.3,1.4-0.4,2.1c-0.4,2.7-0.7,5.3-0.9,8c-0.1,2-0.2,4.1-0.1,6.2
		C53.2,54.7,53,54.8,53,55c-3.6,5.4-7.9,10.4-10.2,16.4c-0.1,0-0.4,0-0.6,0c-0.1,0.4-0.2,0.7-0.4,1.1c-0.1,0.2-0.2,0.5-0.3,0.7
		c-0.4,0.7-2.5,3.6-2.6,4.4c0,0,0,0,0,0c0,0,0,0,0,0c0,3.8-6,22-5.9,22.3c0.1,0.3,3.6,24.1,12.5,36.1c-0.1,0.3-0.2,0.5-0.3,0.8
		c-0.5,1.6-1.1,3.1-1.4,4.7c-0.3,1.7-0.5,3.6-0.3,5.3c0.2,1.7,1.5,2.6,3.1,3c3.4,0.7,6.7-0.6,9.6-2.2c0.9-0.5,1.8-1.1,2.7-1.7
		c16.2,7,36,11.2,52.8,4.1c0.1,0,0.3-0.1,0.4-0.2c0.8-0.5,2.1-0.2,3,0.1c1.3,0.4,2.3,1.1,3.4,1.8c2.7,1.7,6,4.1,9.3,2.8
		c3.1-1.2,4-4.9,3.8-7.9c-0.1-1-0.2-2-0.4-3c2.3-2.6,4.9-5,6.9-7.8c2.3-3.2,4.1-6.8,5.7-10.3c2.8-6.1,6.6-22.3,5.9-25.3
		C149.2,99.5,148.1,94.7,148,93.7z"/>
</g>
<g>
	<g>
		<path class="st1" d="M58.2,146.6c16.5,7.2,36.9,11.7,54.1,4.2c1.8-0.8,0.2-3.4-1.5-2.6c-7.9,3.5-16.7,4-25.2,3
			c-8.9-1-17.7-3.6-25.9-7.2C58,143.2,56.4,145.8,58.2,146.6L58.2,146.6z"/>
	</g>
</g>
<g>
	<g>
		<path class="st1" d="M33.1,100.9c4.4,0.3,8.8,1.7,13.3,2.2c0.7,0.1,1.4,0.1,2-0.3c1.3-0.8,2.1-2.5,2-3.9c-0.1-1.7-0.9-3.5-1.4-5.1
			c-0.9-2.4-1.8-5-3.6-6.9c-1.3-1.4-3.4,0.7-2.1,2.1c0.3,0.3,0.3,0.3,0.5,0.7c0.3,0.4,0.5,0.9,0.8,1.3c0.4,0.9,0.8,1.8,1.2,2.7
			c0.6,1.6,1.2,3.3,1.6,5.1c0,0.1,0,0.2,0.1,0.3c0.1,0.3,0-0.2,0-0.1c-0.1,0.1-0.1,0.5-0.1,0.6c0,0.1-0.1,0.2-0.2,0.3
			c-0.1,0.1-0.2,0.2-0.3,0.3c-0.1,0.1-0.1,0.1,0,0c0.4,0,0-0.2,0.5-0.1c-0.1,0-0.2,0-0.3,0c-0.3,0-0.6,0-0.9-0.1c-0.2,0,0.2,0,0,0
			c-0.1,0-0.2,0-0.3,0c-0.2,0-0.4-0.1-0.6-0.1c-0.5-0.1-1-0.2-1.4-0.3c-1.1-0.2-2.2-0.4-3.3-0.6c-2.4-0.5-4.9-1-7.4-1.1
			C31.2,97.7,31.2,100.7,33.1,100.9L33.1,100.9z"/>
	</g>
</g>
<g>
	<g>
		<path class="st1" d="M73.2,45.6c15.7-5.3,33.3-4.1,48,3.5c1.7,0.9,3.2-1.7,1.5-2.6c-15.5-7.9-33.9-9.3-50.3-3.8
			C70.6,43.3,71.3,46.2,73.2,45.6L73.2,45.6z"/>
	</g>
</g>
<g>
	<g>
		<g>
			<path class="st1" d="M56.5,56.7c-0.6-2.2-0.5-4.6-0.4-6.9c0.1-2.6,0.3-5.1,0.7-7.7c0.1-0.8,0.2-1.6,0.4-2.4
				c0-0.3,0.1-0.5,0.1-0.8c0-0.1,0.2-0.4,0.1-0.3c0.9-1.5,3.3-0.3,4.3,0.3c1.5,0.8,3,1.6,4.4,2.6c3.1,2,5.8,4.5,8.2,7.3
				c1.3,1.4,3.4-0.7,2.1-2.1c-2.5-2.8-5.2-5.3-8.3-7.4c-1.6-1.1-3.2-2-4.9-2.9c-1.8-0.9-3.9-1.8-5.9-1.1c-1.3,0.4-2.5,1.4-2.9,2.7
				c-0.2,0.7-0.3,1.4-0.4,2.1c-0.4,2.7-0.7,5.4-0.9,8.1c-0.2,3.1-0.3,6.4,0.4,9.4C54,59.4,56.9,58.6,56.5,56.7L56.5,56.7z"/>
		</g>
	</g>
	<g>
		<g>
			<path class="st1" d="M140.2,63.7c0.8-3.3,1.6-6.5,2.1-9.9c0.5-3.6,1.4-7.9-0.4-11.2c-0.7-1.4-2-2.6-3.5-3c-1.9-0.6-3.9,0-5.7,0.8
				c-3.7,1.7-7.3,4-10.7,6.2c-1.2,0.8-0.8,2.7,0.8,2.8c0.7,0,1.3-0.2,1.8-0.7c1.5-1.2-0.6-3.3-2.1-2.1c0.1-0.1,0.2-0.1,0.3-0.2
				c0.3,0.9,0.5,1.9,0.8,2.8c2.9-1.9,5.8-3.7,8.9-5.3c1.4-0.7,3.1-1.8,4.8-1.5c1.2,0.2,2.1,1.4,2.4,2.6c0.5,1.7,0.3,3.5,0.1,5.2
				c-0.1,1.5-0.3,2.9-0.6,4.4c-0.5,2.8-1.2,5.6-1.9,8.4C136.8,64.8,139.7,65.6,140.2,63.7L140.2,63.7z"/>
		</g>
	</g>
	<g>
		<g>
			<path class="st1" d="M122.1,49.4c0.7,1.6,1.1,3.5,2.7,4.6c2.1,1.5,5.3,0.5,6.8-1.4c0.8-1.1,1.6-2.2,2.5-3.2
				c0.4-0.5,0.9-1,1.3-1.4c0.4-0.4,1-1,1.5-1c1.3,0,0.5,2.6,0.4,3.3c-0.2,1.6-0.3,3.2-0.4,4.8c-0.1,1.7-0.2,3.5-0.1,5.2
				c0.1,1.3,0.4,2.7,1.3,3.6c0.7,0.7,1.7-0.4,1.1-1.1c-0.8-0.8-0.9-2.2-0.9-3.2c-0.1-1.6,0-3.2,0.1-4.8c0.1-1.6,0.2-3.2,0.4-4.7
				c0.2-1.2,0.6-2.6-0.1-3.7c-1.7-2.7-4.7,0.7-5.9,2.1c-0.9,1-1.6,2.2-2.5,3.2c-0.8,1-2.3,1.6-3.7,1.4c-2.1-0.3-2.6-2.9-3.3-4.5
				C123,47.7,121.7,48.5,122.1,49.4L122.1,49.4z"/>
		</g>
	</g>
	<g>
		<g>
			<path class="st1" d="M75.1,47.8c-1.1,0.6-2.3,2.2-3.6,2c-1.6-0.2-3.1-2-4.2-3c-1.4-1.2-2.7-2.4-4.1-3.5c-0.9-0.7-2.1-1.6-3.3-1.7
				c-2.5-0.1-2.5,3.3-2.7,5c-0.4,3.5-1.7,6.8-2.2,10.3c-0.1,0.9,1.3,1.4,1.4,0.4c0.5-3.3,1.6-6.4,2.1-9.6c0.2-1.2,0.2-2.4,0.5-3.6
				c0.1-0.4,0.3-0.9,0.7-0.9c0.6-0.1,1.3,0.5,1.8,0.8c2.7,1.9,4.9,4.5,7.6,6.4c1,0.7,2.3,1.3,3.5,0.8c1.2-0.4,2-1.5,3.2-2.1
				C76.7,48.7,76,47.4,75.1,47.8L75.1,47.8z"/>
		</g>
	</g>
	<g>
		<g>
			<path class="st1" d="M60,41.7c-0.9-1.4-1.5-2.9-1.7-4.6c0-0.2-0.2-0.4-0.4-0.4c-0.2,0-0.4,0.2-0.4,0.4c0.2,1.8,0.8,3.5,1.8,4.9
				C59.6,42.5,60.3,42.1,60,41.7L60,41.7z"/>
		</g>
	</g>
	<g>
		<g>
			<path class="st1" d="M61.8,42.8c-0.4-1.9-0.8-3.7-1.2-5.6c-0.1-0.5-0.8-0.3-0.7,0.2c0.4,1.9,0.8,3.7,1.2,5.6
				C61.2,43.5,61.9,43.3,61.8,42.8L61.8,42.8z"/>
		</g>
	</g>
	<g>
		<g>
			<path class="st1" d="M63.6,43.7c-0.4-1.6-0.5-3.2-0.4-4.8c0-0.5-0.7-0.5-0.8,0c-0.1,1.7,0,3.4,0.4,5C63,44.4,63.8,44.2,63.6,43.7
				L63.6,43.7z"/>
		</g>
	</g>
	<g>
		<g>
			<path class="st1" d="M65.4,45.6c-0.3-1.9-0.4-3.9-0.3-5.9c0-0.5-0.7-0.5-0.8,0c0,2,0.1,4,0.4,6.1c0,0.2,0.3,0.3,0.5,0.3
				C65.3,46,65.4,45.8,65.4,45.6L65.4,45.6z"/>
		</g>
	</g>
	<g>
		<g>
			<path class="st1" d="M67.1,47.2c-0.3-1.8-0.3-3.6,0.1-5.4c0.1-0.5-0.6-0.7-0.7-0.2c-0.4,1.9-0.5,3.9-0.1,5.8
				C66.5,47.9,67.2,47.7,67.1,47.2L67.1,47.2z"/>
		</g>
	</g>
	<g>
		<g>
			<path class="st1" d="M68.7,48.4c-0.3-1.7-0.1-3.4,0.4-5.1c0.1-0.5-0.6-0.7-0.7-0.2c-0.6,1.8-0.7,3.6-0.4,5.5
				c0,0.2,0.3,0.3,0.5,0.3C68.6,48.8,68.7,48.6,68.7,48.4L68.7,48.4z"/>
		</g>
	</g>
	<g>
		<g>
			<path class="st1" d="M70.1,49.8c0-1.6,0.3-3.2,0.8-4.7c0.2-0.5-0.6-0.6-0.7-0.2c-0.6,1.6-0.8,3.2-0.8,4.9
				C69.3,50.2,70.1,50.2,70.1,49.8L70.1,49.8z"/>
		</g>
	</g>
	<g>
		<g>
			<path class="st1" d="M71.3,49.9c0.1-1.5,0.5-3,1.2-4.4c0.1-0.2,0.1-0.4-0.1-0.5c-0.2-0.1-0.4-0.1-0.5,0.1
				c-0.7,1.5-1.1,3.1-1.3,4.7C70.5,50.4,71.3,50.4,71.3,49.9L71.3,49.9z"/>
		</g>
	</g>
	<g>
		<g>
			<path class="st1" d="M58.6,43.4c-1-1.3-2.1-2.6-3.1-3.9c-0.1-0.2-0.4-0.1-0.5,0c-0.2,0.2-0.1,0.4,0,0.5c1,1.3,2.1,2.6,3.1,3.9
				c0.1,0.2,0.4,0.1,0.5,0C58.7,43.7,58.7,43.5,58.6,43.4L58.6,43.4z"/>
		</g>
	</g>
	<g>
		<g>
			<path class="st1" d="M58.1,46c-0.8-0.8-1.6-1.6-2.2-2.5c-0.1-0.2-0.3-0.2-0.5-0.1c-0.2,0.1-0.3,0.3-0.1,0.5
				c0.7,1,1.5,1.9,2.3,2.7c0.1,0.1,0.4,0.1,0.5,0C58.2,46.4,58.2,46.1,58.1,46L58.1,46z"/>
		</g>
	</g>
	<g>
		<g>
			<path class="st1" d="M58.1,48.8c-0.8-0.9-1.5-1.8-2.3-2.6c-0.1-0.2-0.4-0.1-0.5,0c-0.2,0.2-0.1,0.4,0,0.5
				c0.8,0.9,1.5,1.8,2.3,2.6c0.1,0.2,0.4,0.1,0.5,0C58.2,49.2,58.2,49,58.1,48.8L58.1,48.8z"/>
		</g>
	</g>
	<g>
		<g>
			<path class="st1" d="M57.4,50.9c-1.3-1-2.4-2.1-3.5-3.3c-0.3-0.4-0.9,0.2-0.5,0.5c1.1,1.2,2.3,2.3,3.5,3.3c0.2,0.1,0.4,0.2,0.5,0
				C57.5,51.3,57.5,51,57.4,50.9L57.4,50.9z"/>
		</g>
	</g>
	<g>
		<g>
			<path class="st1" d="M137.8,46.5c0.7-1.9,1.1-3.9,1.2-5.9c0-0.5-0.7-0.5-0.8,0c-0.1,1.9-0.5,3.9-1.2,5.7
				C136.9,46.8,137.6,47,137.8,46.5L137.8,46.5z"/>
		</g>
	</g>
	<g>
		<g>
			<path class="st1" d="M136.5,46.8c0-1.8,0.1-3.5,0.1-5.3c0-0.5-0.7-0.5-0.8,0c0,1.8-0.1,3.5-0.1,5.3
				C135.8,47.3,136.5,47.3,136.5,46.8L136.5,46.8z"/>
		</g>
	</g>
	<g>
		<g>
			<path class="st1" d="M135.1,47.5c0.1-2,0-4.1-0.3-6.1c-0.1-0.5-0.8-0.3-0.7,0.2c0.3,1.9,0.4,3.9,0.3,5.9
				C134.3,48,135,48,135.1,47.5L135.1,47.5z"/>
		</g>
	</g>
	<g>
		<g>
			<path class="st1" d="M133.5,48.9c0-2-0.2-4-0.4-6c0-0.2-0.2-0.4-0.4-0.4c-0.2,0-0.4,0.2-0.4,0.4c0.3,2,0.4,4,0.4,6
				C132.8,49.4,133.5,49.4,133.5,48.9L133.5,48.9z"/>
		</g>
	</g>
	<g>
		<g>
			<path class="st1" d="M132.4,50.8c-0.2-2.4-0.5-4.7-0.9-7.1c-0.1-0.5-0.8-0.3-0.7,0.2c0.4,2.3,0.7,4.6,0.9,6.9
				C131.7,51.3,132.4,51.3,132.4,50.8L132.4,50.8z"/>
		</g>
	</g>
	<g>
		<g>
			<path class="st1" d="M131.2,52.3c-0.4-2.6-0.9-5.1-1.3-7.7c-0.1-0.5-0.8-0.3-0.7,0.2c0.4,2.6,0.9,5.1,1.3,7.7
				C130.6,53,131.3,52.8,131.2,52.3L131.2,52.3z"/>
		</g>
	</g>
	<g>
		<g>
			<path class="st1" d="M130,52.8c-0.4-2.1-0.8-4.2-1.2-6.3c-0.1-0.5-0.8-0.3-0.7,0.2c0.4,2.1,0.8,4.2,1.2,6.3
				C129.4,53.5,130.1,53.3,130,52.8L130,52.8z"/>
		</g>
	</g>
	<g>
		<g>
			<path class="st1" d="M128.2,53.2c-0.6-2-1.1-4-1.4-6c-0.1-0.5-0.8-0.3-0.7,0.2c0.4,2,0.8,4,1.4,6
				C127.6,53.8,128.4,53.6,128.2,53.2L128.2,53.2z"/>
		</g>
	</g>
	<g>
		<g>
			<path class="st1" d="M125.9,52.2c-0.7-1.1-0.9-2.4-0.8-3.7c0-0.2-0.2-0.4-0.4-0.4c-0.2,0-0.3,0.2-0.4,0.4
				c-0.2,1.4,0.1,2.9,0.9,4.1C125.5,53,126.2,52.6,125.9,52.2L125.9,52.2z"/>
		</g>
	</g>
	<g>
		<g>
			<path class="st1" d="M138.9,48.4c0.4-0.8,0.8-1.5,1.2-2.3c0.1-0.2,0-0.4-0.1-0.5c-0.2-0.1-0.4,0-0.5,0.1
				c-0.4,0.8-0.8,1.5-1.2,2.3c-0.1,0.2,0,0.4,0.1,0.5C138.6,48.6,138.8,48.6,138.9,48.4L138.9,48.4z"/>
		</g>
	</g>
	<g>
		<g>
			<path class="st1" d="M138.6,51.1c0.5-1.1,1.3-1.9,2.3-2.6c0.2-0.1,0.2-0.3,0.1-0.5c-0.1-0.2-0.3-0.2-0.5-0.1
				c-1.1,0.7-2,1.7-2.5,2.8c-0.1,0.2,0,0.4,0.1,0.5C138.3,51.4,138.5,51.3,138.6,51.1L138.6,51.1z"/>
		</g>
	</g>
	<g>
		<g>
			<path class="st1" d="M138.4,54.9c0.3-1.3,1.2-2.4,2.3-3c0.4-0.2,0-0.9-0.4-0.6c-1.3,0.8-2.3,2-2.7,3.5
				C137.5,55.2,138.2,55.4,138.4,54.9L138.4,54.9z"/>
		</g>
	</g>
	<g>
		<g>
			<path class="st1" d="M138.4,57.8c0.7-1.2,1.6-2.4,2.6-3.4c0.3-0.4-0.2-0.9-0.5-0.5c-1,1.1-1.9,2.3-2.7,3.6
				C137.5,57.9,138.1,58.3,138.4,57.8L138.4,57.8z"/>
		</g>
	</g>
	<g>
		<g>
			<path class="st1" d="M72.7,49.7c0.2-1,0.6-2,1-2.9c0.1-0.2,0-0.4-0.1-0.5c-0.2-0.1-0.4,0-0.5,0.1c-0.5,1-0.8,2-1.1,3.1
				C71.9,50,72.6,50.2,72.7,49.7L72.7,49.7z"/>
		</g>
	</g>
</g>
<g>
	<g>
		<path class="st1" d="M108.8,76.6c-0.1-0.3-0.4-0.4-0.7-0.3c-0.3,0.1-0.5,0.3-0.6,0.5c-0.2,0.2-0.2,0.5,0,0.8
			c0.1,0.2,0.4,0.4,0.7,0.4c0.6,0,0.9-0.7,1-1.2c0.1-0.5,0-1.1-0.6-1.1c0.1,0.2,0.1,0.5,0.2,0.7c0.3-0.2,0.7-0.4,1-0.4
			c0.1,0,0.2,0,0.3,0.1c0.1,0.1,0.1,0.3,0.1,0.4c0,0.1,0,0.3,0,0.4c0,0.1-0.1,0.1-0.2,0.1c-0.2,0-0.4-0.2-0.4-0.5
			c-0.2,0-0.5,0.1-0.7,0.1c0,0.3,0.1,0.6,0.1,0.9c0,0.2,0.1,0.5,0.3,0.7c0.3,0.4,1,0.3,1.2-0.2c0.1-0.3-0.1-0.4-0.4-0.5
			c-0.4-0.1-1.2,0-1.4,0.5c-0.1,0.2,0,0.5,0.2,0.7c0.2,0.2,0.5,0.2,0.8,0.2c0.5,0,1-0.1,1.2-0.6c0.2-0.5-0.1-1-0.4-1.3
			c-0.2-0.1-0.5-0.2-0.7-0.3c-0.1,0-0.3-0.1-0.4-0.1c-0.2,0-0.3,0.1-0.5,0.1c0.1,0,0.1,0,0.2-0.1c0,0,0,0,0,0c0.1,0,0.1,0.1,0.2,0.1
			c0,0.1,0,0.2,0.1,0.3c0,0,0,0,0,0c0,0,0.1-0.1,0.1-0.1c0-0.1,0-0.2,0-0.3c0-0.2-0.1-0.3-0.3-0.4c-0.1-0.1-0.3-0.2-0.5-0.2
			c-0.2,0-0.3,0.1-0.5,0c0.1,0.2,0.2,0.3,0.3,0.5c0.1-0.3,0.2-0.7,0.5-0.9c0.3-0.2,0.5,0.1,0.7,0.3c0.3,0.4,0.9-0.2,0.5-0.5
			c-0.2-0.2-0.4-0.4-0.7-0.5c-0.3-0.1-0.6-0.1-0.9,0c-0.5,0.3-0.8,0.9-0.9,1.4c0,0.2,0.1,0.4,0.3,0.5c0.2,0,0.3,0,0.5,0
			c0.1,0,0.1,0,0.2,0c-0.1,0,0.1,0,0,0c0,0,0,0,0,0c0-0.1,0-0.2,0-0.1c0,0-0.1,0.1-0.1,0.2c0,0.1,0,0.3,0,0.4
			c0.1,0.2,0.3,0.3,0.5,0.2c0.1,0,0.1-0.1,0.3-0.1c0.2,0.1,0.5,0.1,0.7,0.2c0.1,0,0.1,0.1,0.1,0.1c0,0,0,0.1,0,0.1c0,0,0,0,0,0
			c0,0,0,0,0,0c0,0,0,0,0,0c0,0-0.1,0.1-0.1,0c-0.1,0-0.2,0-0.3,0c-0.1,0-0.2,0-0.3,0c-0.1,0,0,0-0.1,0.1c0,0,0,0,0,0.1
			c0,0,0.1,0,0.1,0c0.1,0,0.1,0,0.2,0c0.1,0,0.3,0,0.4,0c-0.1-0.2-0.2-0.3-0.4-0.5c0,0,0.1-0.1,0.1-0.1c0,0,0,0,0,0c0,0,0,0,0,0
			c0,0,0,0,0,0c0,0,0,0.1,0,0c0,0-0.1-0.1,0,0c0,0,0-0.1-0.1-0.2c-0.1-0.3-0.1-0.7-0.1-1c0-0.2-0.2-0.3-0.4-0.3
			c-0.2,0-0.3,0.2-0.3,0.4c0,0.6,0.5,1.2,1.1,1.2c0.6,0,1.1-0.5,1.1-1.1c0-0.6-0.2-1.3-0.8-1.4c-0.6-0.2-1.2,0.2-1.7,0.4
			c-0.1,0.1-0.2,0.3-0.2,0.4c0,0.2,0.2,0.3,0.4,0.3c0,0-0.1,0-0.1,0c0,0,0,0,0,0c0,0,0,0,0,0c0,0,0,0,0,0.1c0,0,0,0.1,0,0.1
			c0,0,0,0.1,0,0.1c0,0.2,0,0.4-0.2,0.5c0,0-0.1,0,0,0c0,0-0.1,0,0,0c0,0,0,0,0,0c0,0,0.1,0,0,0c0,0,0,0,0,0
			c0.1-0.1,0.1-0.1,0.2-0.2c0,0,0,0,0,0c0,0,0.1,0,0,0c0,0-0.1,0-0.1-0.1C108.4,77.4,109,77.1,108.8,76.6L108.8,76.6z"/>
	</g>
</g>
<g>
	<g>
		<path class="st1" d="M75,73.9c-0.3,0.5-0.4,1.2,0.2,1.5c0.6,0.3,1.2-0.1,1.5-0.6c0.2-0.3,0.3-0.6,0.2-0.9
			c-0.1-0.3-0.4-0.5-0.7-0.6c-0.3-0.1-0.7-0.2-1,0c-0.3,0.1-0.5,0.4-0.5,0.8c0,0.2,0.1,0.3,0.3,0.4c0.2,0,0.3,0,0.4-0.2
			c0.2-0.3,0.3-0.6,0.3-0.9c0-0.3-0.2-0.6-0.5-0.7c-0.3-0.1-0.7-0.1-0.9,0.2c-0.2,0.2-0.3,0.5-0.4,0.8c-0.1,0.3-0.1,0.7,0.2,0.9
			c0.2,0.2,0.5,0.3,0.8,0.4c0.6,0.1,1.1-0.2,1.5-0.7c0.2-0.2-0.1-0.6-0.3-0.6c-0.4,0-0.7,0.2-1,0.5c-0.1,0.1-0.2,0.3,0,0.5
			c0.1,0.1,0.3,0.2,0.5,0.1c0.4-0.3,0.7-0.7,0.8-1.1c0-0.2,0.1-0.5,0-0.7c0,0,0-0.1,0-0.1c-0.1,0.2-0.2,0.2-0.1,0.2c0,0,0.1,0,0.1,0
			c0.1,0,0.2,0,0.3,0.1c0.2,0.1,0.4,0.2,0.5,0.3c0,0,0.1,0.1,0.1,0.1c0,0,0,0.1,0,0.1c0,0-0.1,0.1-0.1,0.1c-0.1,0.1-0.3,0.3-0.4,0.4
			c-0.1,0-0.1,0.1-0.2,0.1c0,0-0.1,0-0.1-0.1c0,0.2,0,0.3,0.1,0.5c0.1-0.1,0,0,0,0c0,0,0.1,0,0,0c0,0,0.1,0,0,0c0,0,0.1,0,0.1,0
			c0,0,0,0,0,0c0,0,0.1,0,0.1,0c0,0,0,0,0,0c0,0,0.1,0,0.1,0c0.1,0-0.1,0,0,0c0,0,0,0,0,0c0,0,0.1,0.1,0,0c0,0,0,0,0,0.1
			c0,0,0,0,0,0c0,0,0,0,0,0c0,0,0,0.1,0,0.1c0,0,0,0.1,0,0.1c0,0.2-0.2,0.3-0.3,0.3c-0.2,0-0.4-0.1-0.5-0.3
			c-0.1-0.2-0.2-0.3-0.5-0.3c-0.2,0-0.3,0.3-0.3,0.5c0.2,0.5,0.7,0.9,1.2,0.9c0.5,0,1-0.4,1.1-0.9c0.1-0.5-0.1-1-0.6-1.2
			c-0.4-0.2-1,0-1.2,0.4c-0.1,0.2,0,0.3,0.1,0.5c0.4,0.4,1,0.3,1.4,0c0.4-0.3,0.9-0.8,0.7-1.3c-0.1-0.5-0.7-0.8-1.1-1
			c-0.3-0.1-0.6-0.1-0.9,0c-0.1,0.1-0.2,0.1-0.3,0.2c-0.1,0.2-0.1,0.3,0,0.5c0.1,0.4-0.1,0.8-0.4,1.1c0.2,0.2,0.3,0.4,0.5,0.6
			c0.1-0.1,0.3-0.2,0.4-0.2c-0.1-0.2-0.2-0.4-0.3-0.6c-0.1,0.2-0.4,0.3-0.7,0.3c-0.1,0-0.2,0-0.3-0.1c-0.1,0-0.1-0.1-0.1-0.2
			c0-0.2,0.1-0.3,0.2-0.5c0-0.1,0.1-0.2,0.2-0.2c0,0,0,0,0,0c0,0,0,0,0,0.1c0,0.2-0.1,0.3-0.2,0.4c0.2,0.1,0.5,0.1,0.7,0.2
			c0,0,0,0,0-0.1c0,0,0,0,0.1,0c0.1,0,0.3,0,0.5,0.1c0,0,0.1,0,0.1,0.1c0,0,0-0.1,0,0c0,0.1-0.1,0.3-0.2,0.4
			c-0.1,0.1-0.1,0.2-0.2,0.2c-0.1,0-0.2,0-0.2,0c0,0,0,0,0,0c0,0,0,0,0,0c0-0.1,0,0.1,0,0c0,0,0-0.1,0,0c0-0.1,0.1-0.2,0.1-0.4
			C75.9,73.8,75.3,73.4,75,73.9L75,73.9z"/>
	</g>
</g>
<g>
	<g>
		<path class="st1" d="M75.2,73.3C75.2,73.3,75.2,73.2,75.2,73.3C75.1,73.3,75.2,73.3,75.2,73.3c0-0.1,0-0.1,0-0.1c0,0,0-0.1,0,0
			c0,0,0,0,0,0c0,0,0-0.1,0.1-0.1c0,0,0,0,0-0.1c0,0-0.1,0.1,0,0c0,0,0-0.1,0.1-0.1c0,0,0,0,0,0c0,0,0,0,0,0c0,0,0.1,0,0.1-0.1
			c0,0,0,0,0,0c0.1,0-0.1,0,0,0c0,0,0.1,0,0.1,0c0,0,0,0,0.1,0c0.1,0-0.1,0,0,0c0,0,0.1,0,0.1,0c0,0,0,0,0.1,0c0.1,0-0.1,0,0,0
			c0,0,0.1,0,0.1,0c0,0,0,0,0.1,0c0.1,0-0.1,0,0,0c0,0,0.1,0,0.1,0.1c0.2,0.1,0.4,0,0.5-0.1c0.1-0.2,0-0.4-0.1-0.5
			c-0.4-0.2-0.9-0.3-1.3,0c-0.4,0.2-0.6,0.6-0.7,1.1c0,0.2,0.2,0.4,0.4,0.4C75,73.6,75.1,73.5,75.2,73.3L75.2,73.3z"/>
	</g>
</g>
<g>
	<g>
		<path class="st1" d="M74.6,73.8c-0.3,0.3-0.4,0.8-0.2,1.3c0.1,0.2,0.3,0.4,0.5,0.4c0.3,0.1,0.5,0.1,0.8,0.1c0.2,0,0.5-0.1,0.7-0.2
			c0.2-0.1,0.2-0.4,0.1-0.5c-0.1-0.2-0.3-0.2-0.5-0.1c0,0-0.1,0-0.1,0c0,0,0,0,0,0c0,0,0,0,0,0c0,0-0.1,0-0.2,0.1
			c-0.1,0-0.2,0.1-0.3,0.1c0,0,0.1,0,0.1,0c-0.1,0-0.2,0-0.3,0c0,0,0.1,0,0.1,0c0,0-0.1,0-0.1,0c0,0,0,0-0.1,0c0,0,0.1,0,0,0
			c0,0-0.1,0-0.1-0.1c0.1,0,0.1,0.1,0,0c0,0,0,0,0,0c0,0,0,0,0,0c0,0,0-0.1,0,0c0,0,0,0,0,0c0,0,0-0.1,0-0.1c0-0.1,0,0.1,0,0
			c0,0,0,0,0,0c0,0,0-0.1,0-0.1c0,0,0,0.1,0,0.1c0-0.1,0-0.1,0-0.2c0,0,0,0.1,0,0.1c0,0,0-0.1,0-0.1c0,0,0,0,0,0c0,0,0-0.1,0,0
			c0,0,0-0.1,0-0.1c0,0,0,0,0,0c0,0,0,0,0,0c0,0,0,0,0,0c0.1-0.1,0.2-0.4,0-0.5C75,73.7,74.7,73.6,74.6,73.8L74.6,73.8z"/>
	</g>
</g>
<g>
	<g>
		<path class="st1" d="M76.6,73.7c0.1-0.1,0.2-0.3,0.3-0.4c0,0,0-0.1,0-0.1c0,0,0-0.1,0-0.1c0,0,0-0.1-0.1-0.1c0,0-0.1-0.1-0.1-0.1
			c-0.1,0-0.2-0.1-0.3,0c0,0-0.1,0-0.1,0c-0.1,0-0.1,0.1-0.1,0.1c-0.1,0.1-0.2,0.3-0.3,0.4c0,0,0,0.1,0,0.1c0,0,0,0.1,0,0.1
			c0,0,0,0.1,0.1,0.1c0,0,0.1,0.1,0.1,0.1c0.1,0,0.2,0.1,0.3,0c0,0,0.1,0,0.1,0C76.5,73.8,76.6,73.8,76.6,73.7L76.6,73.7z"/>
	</g>
</g>
<g>
	<g>
		<path class="st1" d="M108.5,76.3c0.1,0,0.2-0.1,0.2-0.1c0,0,0.1,0,0.1,0c0.1-0.1-0.1,0,0.1,0c0.2-0.1,0.3-0.1,0.5-0.1
			c-0.1,0,0,0,0.1,0c0,0,0.1,0,0.1,0c0,0,0.1,0,0.1,0c-0.1,0,0,0,0,0c0.1,0,0.1,0,0.2,0.1c0,0,0,0,0,0c0,0,0,0,0.1,0
			c0,0,0.1,0,0.1,0c0.1,0,0,0,0,0c0,0,0,0,0.1,0.1c0,0,0,0,0,0c0,0,0,0,0,0c0,0,0.1,0.1,0.1,0.1c0,0,0-0.1,0,0c0,0,0,0,0,0
			c0,0.1,0,0,0,0c0,0,0,0.1,0,0.1c0,0.1,0-0.1,0,0c0,0,0,0.1,0,0.1c0,0,0,0,0,0c0,0,0,0,0,0c0,0,0,0.1,0,0.1c0,0,0,0,0,0
			c0,0,0,0,0,0c0,0,0,0.1-0.1,0.1c0,0,0.1-0.1,0,0c-0.1,0,0.1,0,0,0c-0.1,0,0,0,0,0c-0.2,0-0.4,0.2-0.4,0.4c0,0.2,0.2,0.4,0.4,0.4
			c0.3,0,0.6-0.2,0.7-0.5c0.1-0.3,0.2-0.6,0.1-0.9c-0.2-0.6-0.9-0.9-1.6-0.8c-0.4,0.1-0.8,0.2-1.2,0.4c-0.2,0.1-0.2,0.4-0.1,0.5
			C108.1,76.4,108.3,76.4,108.5,76.3L108.5,76.3z"/>
	</g>
</g>
<g>
	<g>
		<path class="st1" d="M79.4,83.6c0.5,1.4,0.9,2.8,1.5,4.1c0.4,1,1,2,2,2.5c2.6,1.2,4.8-1.8,6.3-3.5c-0.4-0.1-0.8-0.1-1.2-0.2
			c1.3,1.9,2.9,5.4,5.7,5.1c2.8-0.3,4.3-3.8,5.6-5.8c0.5-0.8-0.8-1.6-1.3-0.8c-0.6,1-1.2,1.9-1.8,2.9c-0.6,0.9-1.3,2-2.4,2.2
			c-1.1,0.3-2-0.7-2.6-1.5c-0.7-0.9-1.3-1.9-1.9-2.8c-0.3-0.4-0.8-0.5-1.2-0.2c-1,1.1-3.1,4.4-4.9,3c-0.7-0.5-1-1.4-1.3-2.2
			c-0.4-1.1-0.7-2.1-1.1-3.2C80.5,82.2,79.1,82.6,79.4,83.6L79.4,83.6z"/>
	</g>
</g>
<g>
	<g>
		<path class="st1" d="M115.9,82.4c4.5-0.8,9.1-1.1,13.6-0.8c1,0.1,1-1.4,0-1.5c-4.7-0.3-9.4,0-14,0.9
			C114.6,81.1,115,82.6,115.9,82.4L115.9,82.4z"/>
	</g>
</g>
<g>
	<g>
		<path class="st1" d="M117.3,86.2c3.4,0.6,6.9,1.1,10.3,1.7c0.9,0.2,1.4-1.3,0.4-1.4c-3.4-0.6-6.9-1.1-10.3-1.7
			C116.8,84.6,116.3,86,117.3,86.2L117.3,86.2z"/>
	</g>
</g>
<g>
	<g>
		<path class="st1" d="M68,79.3c-4.7-2-9.7-3.5-14.7-4.4c-0.1,0.5-0.1,1-0.2,1.5c0.2,0,0.3,0,0.5,0.1c1,0.1,0.9-1.4,0-1.5
			c-0.2,0-0.3,0-0.5-0.1c-0.8-0.1-1,1.3-0.2,1.5c4.9,0.9,9.8,2.3,14.4,4.3C68.1,81,68.9,79.7,68,79.3L68,79.3z"/>
	</g>
</g>
<g>
	<g>
		<path class="st1" d="M65.6,83c-3,0-6,0-8.9,0c-1,0-1,1.5,0,1.5c3,0,6,0,8.9,0C66.6,84.5,66.6,83,65.6,83L65.6,83z"/>
	</g>
</g>
<path class="st2" d="M98.9,108.5"/>
<path class="st2" d="M98.9,108.5"/>
<g>
	<g>
		<g>
			<path class="st1" d="M131.5,145.4c6.7-8.7,13.8-17.4,17.7-27.9c2.4-6.4,2.8-13.4,2.1-20.1c-0.3-2.6-0.6-5.3-1.4-7.8
				c-0.7-2.5-1.5-5-2.4-7.4c-2.2-6.4-4.5-12.7-7.1-18.9c-0.7-1.8-3.6-1-2.9,0.8c2.1,5.2,4.1,10.5,6,15.8c1.7,4.7,3.5,9.4,4.3,14.4
				c1.1,6.6,1.1,13.5-0.7,19.9c-1.7,6-5.1,11.5-8.5,16.7c-2.9,4.3-6.1,8.3-9.3,12.4C128.3,144.8,130.4,146.9,131.5,145.4
				L131.5,145.4z"/>
		</g>
	</g>
</g>
<g>
	<g>
		<g>
			<path class="st1" d="M47.8,135c-4.4-5.9-8.3-12.2-10.7-19.1c-2.2-6.5-2.7-13.2-2.1-20c0-0.3,0,0,0-0.1c0-0.2,0.1-0.3,0.1-0.5
				c0.1-0.4,0.2-0.8,0.3-1.1c0.2-1,0.5-1.9,0.8-2.9c0.7-2.3,1.5-4.7,2.3-7c1.1-3,2.1-6.5,3.5-9.1c3.7-6.8,8.7-12.8,13-19.3
				c1.1-1.6-1.5-3.1-2.6-1.5c-3.9,5.9-8.4,11.5-12.1,17.6c-1.9,3.2-3,6.7-4.3,10.2c-1.4,4.1-3.2,8.4-3.9,12.7
				c-0.1,0.3-0.1,0.7-0.1,1c0,0.4,0-0.1,0,0.1c0,0.5-0.1,1-0.2,1.5c-0.1,2-0.2,3.9-0.1,5.9c0.2,3.6,0.7,7.3,1.7,10.8
				c2.3,8.2,6.7,15.6,11.8,22.4C46.4,138,49,136.5,47.8,135L47.8,135z"/>
		</g>
	</g>
</g>
<g>
	<g>
		<path class="st3" d="M87.7,104.8c-1.1,1-3,0.9-4.1-0.2c-1.1-1.1-1.3-2.8-0.7-4.2c0.4-0.8,1.1-1.6,2.1-1.6c-0.8-0.9-1.2-2.2-1-3.4
			c0.2-1.1,0.9-2.2,2-2.5c1.2-0.3,2.4,0.4,3.5,1.1c-0.6-1.3-0.9-2.7-0.6-4.1c0.4-1.3,1.6-2.5,3-2.5c1.4,0,2.5,1,3.5,1.9
			c-0.2-1.1,0.3-2.5,1.4-2.9c1.1-0.4,2.6,0.5,2.3,1.7c0.4-1.1,1.7-1.7,2.8-1.5s2,1.4,2,2.5c0.8-1.2,2.1-2.1,3.5-1.9
			c1.4,0.2,2.6,1.7,2.1,3c0.2-1,1.2-1.8,2.2-2.1c1.3-0.4,2.9-0.2,3.7,0.8c0.6,0.7,0.7,1.7,0.5,2.6c-0.2,0.9-0.8,1.7-1.6,2.2
			c1.2-1.1,3.4-0.9,4.3,0.4c0.9,1.3,0.4,3.5-1.1,4.2c1.2,0.8,1.4,2.7,0.3,3.7c-1,1-3,0.8-3.7-0.4c1.1,1.3,1,3.3-0.1,4.6
			c-1.1,1.3-2.9,1.8-4.6,1.4c-1.6-0.4-3-1.6-3.8-3.1c0.9,0.7,0.8,2.1,0.2,2.9c-0.7,0.9-1.7,1.3-2.8,1.5c-1,0.2-2.1,0.3-3.1,0
			c-1.8-0.6-2.9-2.5-3.3-4.3c0.8,1.4-0.1,3.4-1.6,3.9c-1.6,0.5-3.3-0.4-4.1-1.8c-0.4-0.7-0.5-1.6,0-2.1c0.8,0.3,1,1.5,0.4,2.2
			c-0.6,0.6-1.7,0.7-2.4,0.2C88.2,106.6,87.8,105.7,87.7,104.8"/>
	</g>
	<path class="st4" d="M108,94.3c-0.3-0.2-0.4,0-0.7,0c-0.2,0,0.1,0.2-0.2,0c-0.2-0.1-0.2-0.5-0.2-0.7c-0.1-0.1-0.2-0.2-0.3-0.2
		c-0.4,0-0.4,0.1-0.8,0.2c-0.5,0.2-0.3-0.1-0.6-0.3c-0.4-0.3-0.8,0-1.2,0.2c-0.2-0.2-0.5-0.3-0.9-0.2c-0.2,0.1-0.3,0.2-0.4,0.4
		c-0.3,0.3,0,0.5-0.5,0.2c-0.4-0.2-0.6-0.5-1.1-0.2c-0.3,0.2-0.3,0.7-0.7,0.7c-0.2,0-0.3-0.2-0.5-0.2c-0.2,0-0.4,0.2-0.3,0.4
		c0.2,0.6-1.1,0.1-1.4,0.2c-0.1,0-0.2,0.1-0.3,0.2c0,0.1-0.1,0.2-0.1,0.3c0,0.5-0.3,0.6-0.9,0.6c-0.2-0.3-0.6-0.1-0.6,0.3
		c-0.2,0-0.4,0-0.6-0.1c-0.1-0.2-0.5-0.3-0.6-0.1c-0.1,0.1-0.1,0.4-0.2,0.5c-0.2,0.3-0.8,0.8-1.1,0.4c-0.2-0.3-0.6,0-0.5,0.3
		c-0.5,0.5-0.8,0.5-0.9,0c-0.1-0.2-0.3-0.2-0.4-0.1c-0.5,0.2-0.6,1.5-1.2,0.6c-0.2-0.2-0.5-0.2-0.6,0.1c-0.2,0.6-0.4,1.4-1.2,0.9
		c-0.2-0.1-0.5,0.1-0.5,0.3c0.1,1.1-0.9,0.8-1.5,0.7c-0.2,0-0.3,0.1-0.4,0.2c-0.2,0.6,0,1.2,0.1,1.8c0.1,1,0.1,1.9,0,2.9
		c0,0.1,0,0.2,0.1,0.2c-0.1,0.3,0.2,0.6,0.5,0.4c1.1-0.8,2.1-1.9,3.3-2.7c1.2-0.9,2.4-1.5,3.9-1.9c1.6-0.5,3.3-1.2,5-1.2
		c1.5,0,2.9,0.3,4.4,0.2c1.1,0,2.8,0.2,3.8-0.3c0.7-0.4,0.6-1.5,0.7-2.2C108.3,96.4,108.8,94.7,108,94.3z"/>
	<path class="st5" d="M147,104.2c-1.6-1.2-3.4-2.1-5.4-2.7c-4-1.2-8.4-1.4-12.5-1.7c-5-0.4-10-0.7-15-0.8c-9.6-0.1-21.9,0-28.1,8.4
		c-0.6,0.1-1.1,0.5-1.2,1.2c-0.2,1.9,0.7,3.9,2.3,5c1.8,1.3,4.2,1.1,6.3,0.7c5-0.9,9.3-3.7,13.4-6.4c2.1-1.3,4.3-2.7,6.8-3
		c2.5-0.3,5.1,0.3,7.6,0.6c5,0.7,10,1.6,14.9,2.6c2.5,0.5,5.1,1.1,7.6,1.7c1.7,0.4,4,0.9,5.1-0.8C150,107.1,148.4,105.2,147,104.2z"
		/>
	<g>
		<g>
			<path class="st1" d="M86.2,109.3c1-3.8,4.1-6.2,7.6-7.6c1.9-0.8,4-1.4,6.1-1.4c2.2,0,4.4,1,6.6,0.2c0.9-0.3,0.5-1.8-0.4-1.4
				c-1.3,0.5-2.5,0.3-3.8,0c-1.2-0.2-2.5-0.3-3.7-0.2c-2.1,0.2-4.3,0.9-6.2,1.8c-3.6,1.6-6.7,4.3-7.7,8.2
				C84.5,109.9,85.9,110.3,86.2,109.3L86.2,109.3z"/>
		</g>
	</g>
	<g>
		<g>
			<path class="st1" d="M84.7,109.1c-0.5,3.3,2.3,5.5,5.3,5.9c3.4,0.5,6.9-0.6,9.9-2.3c3.2-1.7,5.9-4.2,9.1-6c1.7-1,3.5-1.7,5.5-1.8
				c1.7-0.1,3.5,0.1,5.2,0.3c1,0.1,1-1.4,0-1.5c-2.9-0.2-5.9-0.6-8.6,0.4c-2.9,1.1-5.3,3.1-7.8,4.8c-2.7,1.9-5.6,3.6-8.9,4.3
				c-2.7,0.6-8.7,0.4-8.1-3.8C86.3,108.6,84.8,108.2,84.7,109.1L84.7,109.1z"/>
		</g>
	</g>
	<g>
		<g>
			<g>
				<path class="st1" d="M120.2,105.3c5.9,1,11.6,2.7,17.5,3.8c2.5,0.5,5.1,0.8,7.6,0.8c2,0,5.3,0.2,5.4-2.6
					c0.3-4.2-5.7-5.5-8.7-6.3c-2-0.5-4-1-6.1-1.3c-0.7-0.1-1.3-0.2-2-0.2c-0.3,0,0.5,0.2,0.1,0c-0.2-0.1-0.3-0.2-0.5-0.2
					c-0.9-0.3-2-0.3-2.9-0.4c-8-0.9-16.1-1-24.2-0.2c-1,0.1-1,1.6,0,1.5c6.3-0.6,12.6-0.7,18.9-0.2c1.6,0.1,3.2,0.2,4.8,0.4
					c0.7,0.1,1.4,0.2,2.2,0.3c0.2,0,0.7,0,0.8,0c0.2,0,0.3,0.2,0.4,0.3c0.4,0.2,1.1,0.1,1.6,0.1c0.9,0.1,1.8,0.3,2.6,0.4
					c1.9,0.4,3.8,0.8,5.7,1.4c1.5,0.4,3.2,0.9,4.4,1.8c0.8,0.6,2.1,2.2,1.1,3.2c-0.8,0.7-3,0.4-4,0.4c-2.4,0-4.7-0.4-7-0.8
					c-5.8-1.1-11.5-2.8-17.3-3.8C119.7,103.7,119.3,105.2,120.2,105.3L120.2,105.3z"/>
			</g>
		</g>
	</g>
	<g>
		<g>
			<path class="st1" d="M86.9,105.9c0-2.3,0.1-4.6,0.1-7c-0.2,0.1-0.4,0.2-0.6,0.3c0.6,0.5,1.1,0.9,1.8,1.2c0.2,0.1,0.5,0,0.6-0.2
				c0.1-0.7,0.3-1.4,0.4-2.1c-0.2,0.1-0.4,0.1-0.6,0.2c0.3,0.4,0.7,0.7,1,1.1c0.2,0.2,0.5,0.1,0.6-0.1c0.4-0.7,0.6-1.4,0.8-2.1
				c-0.2,0-0.5,0.1-0.7,0.1c0.3,0.4,0.5,0.7,0.8,1.1c0.2,0.2,0.5,0.2,0.6,0c0.3-0.5,0.5-0.9,0.7-1.5C92.2,96.9,92,97,91.8,97
				c0.3,0.4,0.7,0.7,1,1.1c0.2,0.2,0.6,0.1,0.6-0.2c0.1-0.5,0.3-1.1,0.4-1.6c-0.2,0.1-0.4,0.1-0.6,0.2c0.3,0.4,0.7,0.8,1,1.1
				c0.2,0.2,0.5,0.1,0.6-0.2c0.3-0.7,0.5-1.3,0.8-2c-0.2,0-0.5,0.1-0.7,0.1c0.3,0.4,0.6,0.8,0.9,1.2c0.2,0.3,0.6,0.2,0.7-0.1
				c0.1-0.4,0.3-0.9,0.4-1.3c-0.2,0.1-0.4,0.1-0.6,0.2c0.3,0.2,0.7,0.5,1,0.7c0.2,0.1,0.4,0,0.5-0.1c0.3-0.6,0.5-1.1,0.8-1.7
				c-0.1,0.1-0.3,0.1-0.4,0.2c0.4,0.1,0.7,0.4,0.8,0.7c0.2,0.3,0.7,0.2,0.7-0.2c0.1-0.5,0.2-0.8,0.3-1.3c-0.2,0-0.3,0.1-0.5,0.1
				c0.3,0.2,0.5,0.4,0.7,0.8c0.1,0.2,0.5,0.2,0.6,0c0.3-0.5,0.6-1,0.8-1.5c-0.2,0-0.4,0.1-0.6,0.1c0.3,0.4,0.7,0.7,1,1.1
				c0.2,0.2,0.6,0.1,0.6-0.2c0.1-0.5,0.3-0.9,0.6-1.2c-0.2,0-0.4,0-0.5,0c0.3,0.2,0.6,0.4,0.8,0.7c0.2,0.2,0.4,0.1,0.6-0.1
				c0.3-0.4,0.7-0.5,1.1-0.5c-0.1-0.1-0.2-0.2-0.4-0.4c0.1,2.1-0.1,4.4-0.4,6.5c-0.1,0.5,0.6,0.7,0.7,0.2c0.4-2.2,0.6-4.5,0.4-6.7
				c0-0.2-0.2-0.4-0.4-0.4c-0.7-0.1-1.3,0.2-1.8,0.8c0.2,0,0.4-0.1,0.6-0.1c-0.3-0.2-0.6-0.4-0.8-0.7c-0.2-0.1-0.4-0.2-0.5,0
				c-0.5,0.4-0.7,0.9-0.8,1.5c0.2-0.1,0.4-0.1,0.6-0.2c-0.3-0.4-0.7-0.7-1-1.1c-0.2-0.2-0.5-0.1-0.6,0.1c-0.3,0.5-0.6,1-0.8,1.5
				c0.2,0,0.4,0,0.6,0c-0.3-0.4-0.6-0.8-1-1c-0.2-0.1-0.4,0-0.5,0.1c-0.2,0.5-0.4,1.1-0.5,1.6c0.2-0.1,0.5-0.1,0.7-0.2
				c-0.3-0.5-0.7-0.8-1.3-1.1c-0.1-0.1-0.4,0-0.4,0.2c-0.3,0.6-0.5,1.1-0.8,1.7c0.2,0,0.3-0.1,0.5-0.1c-0.3-0.2-0.7-0.5-1-0.7
				c-0.2-0.1-0.5,0-0.6,0.2c-0.1,0.4-0.3,0.9-0.4,1.3c0.2,0,0.5-0.1,0.7-0.1c-0.3-0.4-0.6-0.8-0.9-1.2c-0.2-0.3-0.6-0.2-0.7,0.1
				c-0.3,0.7-0.5,1.3-0.8,2c0.2-0.1,0.4-0.1,0.6-0.2c-0.3-0.4-0.7-0.8-1-1.1c-0.2-0.2-0.6-0.1-0.6,0.2c-0.1,0.5-0.3,1.1-0.4,1.6
				c0.2-0.1,0.4-0.1,0.6-0.2c-0.3-0.4-0.7-0.7-1-1.1c-0.2-0.2-0.6-0.1-0.6,0.2c-0.1,0.5-0.3,0.9-0.6,1.3c0.2,0,0.4,0,0.6,0
				c-0.3-0.4-0.5-0.7-0.8-1.1c-0.2-0.2-0.6-0.2-0.7,0.1c-0.2,0.7-0.4,1.3-0.7,2c0.2,0,0.4-0.1,0.6-0.1c-0.3-0.4-0.7-0.7-1-1.1
				c-0.2-0.2-0.6-0.1-0.6,0.2c-0.1,0.7-0.3,1.4-0.4,2.1c0.2-0.1,0.4-0.1,0.6-0.2c-0.6-0.3-1.1-0.7-1.6-1.1c-0.2-0.2-0.6-0.1-0.6,0.3
				c0,2.3-0.1,4.6-0.1,7C86.2,106.4,86.9,106.4,86.9,105.9L86.9,105.9z"/>
		</g>
	</g>
	<g>
		<g>
			<path class="st1" d="M106.4,93.9c0.3-0.3,0.5-0.6,0.8-1c-0.2-0.1-0.4-0.1-0.6-0.2c0.1,0.6,0.2,1.2,0.3,1.8
				c0.1,0.3,0.5,0.4,0.7,0.1c0.2-0.3,0.3-0.6,0.5-0.9c-0.2,0-0.4,0.1-0.6,0.1c0.3,0.4,0.7,0.8,0.8,1.2c0.1,0.5-0.1,1-0.2,1.4
				c-0.1,0.2-0.1,0.5-0.1,0.7c0,0.3,0-0.1,0,0.1c0,0.1-0.1,0.3-0.1,0.4c-0.1,0.4-0.2,0.9-0.3,1.3c-0.1,0.3-0.2,0.7-0.1,1
				c0.1,0.1,0.2,0.2,0.3,0.2c0.4,0,0.6-0.7,0.6-1.1c0-0.3,0.1-0.6,0.1-0.8c0-0.1,0-0.3,0.1-0.4c0-0.1,0-0.1,0-0.2
				c0-0.1,0.1-0.1-0.1,0c-0.1,0-0.2,0.1-0.3,0.1c0,0,0,0,0,0c0.5,0,0.5-0.8,0-0.8c-0.3,0-0.4,0.3-0.4,0.6c0,0.3-0.1,0.6-0.1,1
				c0,0.1,0,0.3,0,0.4c0,0,0,0.1,0,0.1c0-0.1,0,0,0,0c0,0.1-0.1,0.3-0.1,0.4c0,0.1,0,0.1,0,0c0.1,0,0.2-0.1,0.3-0.1c0,0,0,0,0,0
				c0.1,0.1,0.2,0.1,0.3,0.2c0.1,0.1,0,0.3,0.1,0.2c0-0.1,0-0.1,0-0.2c0-0.2,0.1-0.4,0.1-0.6c0.1-0.4,0.2-0.9,0.3-1.3
				c0-0.1,0.1-0.2,0.1-0.3c0-0.2,0-0.4,0.1-0.7c0.1-0.2,0.2-0.5,0.2-0.7c0.2-1-0.3-1.9-1-2.6c-0.2-0.2-0.5-0.1-0.6,0.1
				c-0.2,0.3-0.3,0.6-0.5,0.9c0.2,0,0.5,0.1,0.7,0.1c-0.1-0.6-0.2-1.2-0.3-1.8c-0.1-0.3-0.5-0.4-0.6-0.2c-0.3,0.3-0.5,0.6-0.8,1
				C105.5,93.8,106,94.3,106.4,93.9L106.4,93.9z"/>
		</g>
	</g>
	<g>
		<g>
			<path class="st1" d="M87.4,99.9c0.1,0.3,0,0.5,0.1,0.8c0,0.3,0,0.6,0.1,0.9c0.1,0.6,0.1,1.2,0.2,1.8c0,0.2,0.3,0.3,0.5,0.3
				c0.2-0.1,0.3-0.3,0.3-0.5c-0.1-0.6-0.2-1.2-0.2-1.8c0-0.3-0.1-0.6-0.1-0.9c0-0.3,0-0.6-0.1-0.9C88,99.2,87.3,99.4,87.4,99.9
				L87.4,99.9z"/>
		</g>
	</g>
	<g>
		<g>
			<path class="st1" d="M88.7,99.1c0,0.6,0.1,1.1,0.1,1.7c0.1,0.6,0.1,1.1,0.3,1.7c0.1,0.2,0.2,0.3,0.4,0.3c0.2,0,0.3-0.1,0.4-0.3
				c0,0,0,0,0-0.1c0.1-0.2-0.1-0.4-0.3-0.5c-0.2-0.1-0.4,0.1-0.5,0.3c0,0,0,0,0,0.1c0.2,0,0.5,0,0.7,0c-0.2-0.5-0.2-1-0.3-1.5
				c0-0.6-0.1-1.1-0.1-1.7c0-0.2-0.2-0.4-0.4-0.4C88.9,98.7,88.7,98.9,88.7,99.1L88.7,99.1z"/>
		</g>
	</g>
	<g>
		<g>
			<path class="st1" d="M89.9,98.8C90,99,90,99.3,90,99.5c0,0.3,0.1,0.6,0.1,0.8c0.1,0.5,0.2,1,0.3,1.6c0.1,0.5,0.8,0.3,0.7-0.2
				c-0.1-0.5-0.2-1.1-0.3-1.6c-0.1-0.5,0-1.1-0.3-1.6c-0.1-0.2-0.3-0.2-0.5-0.1C89.9,98.4,89.8,98.7,89.9,98.8L89.9,98.8z"/>
		</g>
	</g>
	<g>
		<g>
			<path class="st1" d="M91.2,98.1c0.3,1,0.2,2.1,0.6,3c0.1,0.2,0.3,0.3,0.5,0.3c0.2-0.1,0.3-0.3,0.3-0.5c0,0,0-0.1,0-0.1
				c-0.1-0.2-0.3-0.3-0.5-0.3c-0.2,0.1-0.3,0.3-0.3,0.5c0,0,0,0.1,0,0.1c0.2-0.1,0.5-0.1,0.7-0.2c-0.4-1-0.4-2-0.6-3
				C91.8,97.5,91,97.7,91.2,98.1L91.2,98.1z"/>
		</g>
	</g>
	<g>
		<g>
			<path class="st1" d="M92.6,97.8c0.1,1,0.2,2.1,0.4,3.1c0,0.2,0.3,0.3,0.5,0.3c0.2-0.1,0.3-0.3,0.3-0.5c-0.2-0.9-0.4-1.9-0.4-2.9
				c0-0.2-0.2-0.4-0.4-0.4C92.7,97.4,92.5,97.6,92.6,97.8L92.6,97.8z"/>
		</g>
	</g>
	<g>
		<g>
			<path class="st1" d="M93.9,97.3c0.1,1.1,0.3,2.2,0.5,3.2c0.1,0.4,0.7,0.3,0.7-0.1c0,0,0-0.1,0-0.1c0-0.5-0.8-0.5-0.8,0
				c0,0,0,0.1,0,0.1c0.2,0,0.5-0.1,0.7-0.1c-0.2-1-0.3-2-0.5-3c0-0.2-0.2-0.4-0.4-0.4C94.1,96.9,93.9,97.1,93.9,97.3L93.9,97.3z"/>
		</g>
	</g>
	<g>
		<g>
			<path class="st1" d="M95.2,96.2c0,1.2,0.1,2.4,0.3,3.5c0.1,0.4,0.8,0.3,0.7-0.1c0,0,0-0.1,0-0.1c0-0.2-0.2-0.4-0.4-0.4
				c-0.2,0-0.4,0.2-0.4,0.4c0,0,0,0.1,0,0.1c0.2,0,0.5-0.1,0.7-0.1c-0.2-1.1-0.3-2.2-0.2-3.3C95.9,95.7,95.2,95.7,95.2,96.2
				L95.2,96.2z"/>
		</g>
	</g>
	<g>
		<g>
			<path class="st1" d="M96.8,95.8c-0.1,1.3-0.2,2.6,0.1,3.9c0.1,0.4,0.7,0.3,0.7-0.1c0-0.1,0-0.1,0-0.2c0-0.5-0.7-0.5-0.8,0
				c0,0.1,0,0.1,0,0.2c0.2,0,0.5-0.1,0.7-0.1c-0.2-1.2-0.1-2.5,0-3.7c0-0.2-0.2-0.4-0.4-0.4C97,95.4,96.8,95.6,96.8,95.8L96.8,95.8z
				"/>
		</g>
	</g>
	<g>
		<g>
			<path class="st1" d="M98.3,95.1c0,0.7,0,1.5,0,2.2c0,0.7,0,1.5,0.2,2.2c0.1,0.4,0.7,0.3,0.7-0.1c0-0.1,0-0.2,0-0.2
				c0-0.5-0.7-0.5-0.8,0c0,0.1,0,0.2,0,0.2c0.2,0,0.5-0.1,0.7-0.1c-0.2-0.7-0.2-1.4-0.2-2.1c0-0.7,0-1.4,0-2.2
				C99,94.7,98.3,94.7,98.3,95.1L98.3,95.1z"/>
		</g>
	</g>
	<g>
		<g>
			<path class="st1" d="M99.7,94.4c-0.2,1.5-0.2,3.1,0,4.6c0,0.5,0.7,0.5,0.8,0c0-0.1,0-0.1,0-0.2c0-0.2-0.2-0.4-0.4-0.4
				c-0.2,0-0.3,0.2-0.4,0.4c0,0.1,0,0.1,0,0.2c0.2,0,0.5,0,0.8,0c-0.2-1.5-0.1-3.1,0-4.6c0-0.2-0.2-0.4-0.4-0.4
				C99.9,94.1,99.7,94.2,99.7,94.4L99.7,94.4z"/>
		</g>
	</g>
	<g>
		<g>
			<path class="st1" d="M100.9,94c-0.1,1-0.2,1.9-0.2,2.9c0,0.5,0,0.9,0,1.4c0,0.2,0,0.5,0,0.7c0,0.2,0,0.4,0.2,0.6
				c0.1,0.1,0.2,0.1,0.4,0.1c0,0,0,0,0,0c0.5-0.1,0.3-0.8-0.2-0.7c0,0,0,0,0,0c0.1,0,0.2,0.1,0.4,0.1c0.1,0.1,0-0.1,0-0.2
				c0-0.1,0-0.2,0-0.4c0-0.2,0-0.4,0-0.6c0-0.4,0-0.9,0-1.3c0-0.9,0.1-1.8,0.2-2.6C101.7,93.5,101,93.5,100.9,94L100.9,94z"/>
		</g>
	</g>
	<g>
		<g>
			<path class="st1" d="M102.4,94c-0.2,1.8-0.3,3.6-0.2,5.4c0,0.4,0.7,0.5,0.7,0.1c0-0.1,0-0.1,0-0.2c0-0.2-0.1-0.4-0.3-0.5
				c-0.2-0.1-0.4,0.1-0.5,0.3c0,0.1,0,0.1,0,0.2c0.2,0,0.5,0.1,0.7,0.1c0-1.8,0-3.6,0.2-5.4C103.2,93.5,102.4,93.5,102.4,94
				L102.4,94z"/>
		</g>
	</g>
	<g>
		<g>
			<path class="st1" d="M103.8,93.5c-0.3,2-0.6,4-0.7,6c0,0.5,0.7,0.5,0.8,0c0.2-1.9,0.4-3.9,0.7-5.8
				C104.6,93.2,103.9,93,103.8,93.5L103.8,93.5z"/>
		</g>
	</g>
	<g>
		<g>
			<path class="st1" d="M106.6,93.9c-0.3,1.8-0.5,3.7-0.6,5.6c0,0.5,0.7,0.5,0.8,0c0-0.1,0-0.2,0-0.2c0-0.5-0.7-0.5-0.8,0
				c0,0.1,0,0.2,0,0.2c0.2,0,0.5,0,0.8,0c0.1-1.8,0.3-3.6,0.6-5.4c0-0.2-0.1-0.4-0.3-0.5C106.9,93.6,106.6,93.7,106.6,93.9
				L106.6,93.9z"/>
		</g>
	</g>
	<g>
		<g>
			<path class="st1" d="M107.4,94.3c-0.2,0.8-0.4,1.6-0.5,2.4c-0.1,0.4-0.1,0.8-0.2,1.2c-0.1,0.4-0.1,0.8-0.2,1.2
				c0-0.1,0.1-0.1,0.1-0.2c0,0,0,0,0,0c0.2,0,0.3,0,0.5-0.1c0,0,0,0,0,0c0.1,0.1,0.1,0.1,0.2,0.2c0,0,0,0,0,0
				c-0.1,0.1-0.1,0.3-0.2,0.4c0,0,0,0,0,0c0.4-0.2,0-0.9-0.4-0.6c0,0,0,0,0,0c-0.2,0.1-0.2,0.3-0.2,0.4c0,0.1,0.1,0.2,0.2,0.3
				c0.2,0.1,0.3,0.1,0.5-0.1c0.2-0.1,0.1-0.3,0.2-0.5c0-0.2,0.1-0.4,0.1-0.6c0.1-0.4,0.1-0.9,0.2-1.3c0.2-0.9,0.3-1.7,0.6-2.6
				C108.3,94.1,107.5,93.9,107.4,94.3L107.4,94.3z"/>
		</g>
	</g>
</g>
<path class="st0" d="M134.3,100.1c-8.3-2.1-13.4,17.8-5.1,19.9C137.5,122.1,142.6,102.2,134.3,100.1z"/>
<g>
	<g>
		<path class="st1" d="M123.7,110c3.5-2.4,6.5-5.6,9.8-8.3c0.1-0.1,0.3-0.2,0.4-0.3c0.2-0.2-0.2,0.1,0.2-0.1
			c0.2-0.1,0.5-0.3,0.6-0.4c-0.2,0.2-0.2,0-0.5,0.1c-0.3,0.1,0.2,0.1,0.4,0.1c0.2,0.1,0.5,0.2,0.6,0.4c0.2,0.2,0.2,0.5,0.1,0.1
			c0.1,0.6,0.4,1.2,0.5,1.8c0.2,0.9,0.5,1.9,0.7,2.8c0.2,1.1,0.4,2.3,0.5,3.4c0.1,0.6,0.1,1.2,0.1,1.7c0,0.3,0,0.5,0,0.8
			c0,0.1,0,0.2,0,0.3c0-0.3,0,0,0,0.1c-0.2,0.8,0.2,1.6,1,1.8c0.7,0.2,1.7-0.3,1.8-1c0.5-2.3,0.1-4.7-0.3-6.9
			c-0.3-1.8-0.7-3.7-1.3-5.5c-0.8-2-3.4-3.6-5.4-2.3c-1.7,1.1-3.1,2.6-4.6,3.9c-2,1.8-4,3.7-6,5.1c-0.7,0.5-1,1.3-0.5,2.1
			C122,110.1,123,110.4,123.7,110L123.7,110z"/>
	</g>
</g>
<g>
	<g>
		<path class="st1" d="M45.8,133c0.2,0.3-0.1,1.5-0.2,2c-0.2,0.9-0.4,1.7-0.7,2.5c-0.5,1.6-1.1,3.1-1.4,4.8
			c-0.3,1.7-0.5,3.6-0.3,5.3c0.2,1.7,1.5,2.7,3.1,3c3.4,0.7,6.8-0.6,9.7-2.2c3.1-1.8,6-3.9,8.6-6.3c1.4-1.3-0.7-3.4-2.1-2.1
			c-2.3,2.1-4.8,3.9-7.5,5.5c-2.4,1.4-5.4,2.9-8.3,2.2c-0.7-0.2-0.6-0.3-0.6-1c0-0.7,0.1-1.5,0.1-2.2c0.1-1.6,0.5-3.1,1-4.6
			c0.5-1.4,1-2.7,1.3-4.1c0.3-1.4,0.6-3.1-0.1-4.4C47.5,129.8,44.9,131.3,45.8,133L45.8,133z"/>
	</g>
</g>
<g>
	<g>
		<path class="st1" d="M112.3,150.8c0.8-0.5,2.1-0.2,3,0.1c1.3,0.4,2.3,1.1,3.5,1.8c2.7,1.7,6,4.2,9.3,2.8c3.1-1.3,4-5,3.9-8
			c-0.2-3.6-1.3-7.2-2-10.8c-0.4-1.9-3.3-1.1-2.9,0.8c0.4,1.8,0.8,3.6,1.1,5.3c0.3,1.5,0.7,2.9,0.8,4.4c0.1,2.2-0.4,6.1-3.5,5.5
			c-2.9-0.5-5.1-3-7.7-4.2c-2-0.9-5-1.7-7-0.4C109.2,149.2,110.7,151.8,112.3,150.8L112.3,150.8z"/>
	</g>
</g>
<g>
	<path class="st4" d="M143.6,144c0.2-3.4-0.8-5.6-1.2-8.8c-0.3-2.4,2.6-9.8,1.5-10.5c-2-1.2-6.2-1.5-8.2-2.3
		c-3.9-1.5-7.9-2.6-11.9-3.4c-8.3-1.6-16.6-1.9-25-2c-9.4-0.2-18.7,2.8-28.2,2c-9.9-0.8-19.6,2.6-29-0.7c-0.5-0.2-0.9,0.4-1.1,1.1
		c-2.2-2.3-8.3-1-6.8,2.7c2.7,6.6-0.3,14.2,1.3,18.7c0.8,2.3,1.8,4.3,3.2,5.1c1.7,0.9,3,2.5,4.7,1.9c4.3-1.3,8.8-1.6,13.1-1.4
		c8.5,0.3,17.4,2.1,25.8,3.1c8.6,1.1,17.6,3.1,26,2.3c4.3-0.4,8.2-0.7,12.5-0.9c4.1-0.2,7.8-0.2,11.9-0.3c1.9-0.1,4.4,1,6.3,1.3
		c1.5,0.2,4.2,0.8,5.4-1.7C145.1,148.3,143.5,146.7,143.6,144z"/>
	<path class="st6" d="M45.1,122c0.3-1,0.1-2.5-0.6-2.4c-0.6,0.1-1.2,0.1-1.8,0.2c-0.6,0.1-1.2,0-1.8,0.3c-1.4,0.7-1.1,3.8-1.1,5.7
		c0,2.4,0.1,4.7-0.1,7.1c-0.2,2.4-0.7,4.6-1.3,6.7c-0.3,1-0.6,2.1-0.9,3.1c-0.3,1-0.6,2-0.4,3.1c0.3,2.4,1.8,1.7,2.7,1.5
		c0.9-0.2,2.5,0.1,3.2-1.7c0.7-1.7,0.5-4.5,0.6-6.4c0.3-5.7,0.6-11.5,1.3-17.2C45.1,122.1,45.1,122.1,45.1,122z"/>
	<path class="st6" d="M58.7,120.6c-0.1-1-0.5-1.4-1-1.3c-1.4,0.4-2.9,0.5-4.3,1.1c-1.5,0.6-1.2,4.4-1.2,6.6
		c-0.1,5.9-0.1,11.8-0.2,17.7c0,1,0.4,2.1,1,1.7c0.6-0.3,1.1-0.5,1.7-0.3c0.6,0.2,1.1,0.6,1.6-0.3c0.5-0.8,0.5-2.1,0.5-3.1
		c0.1-1.4,0.2-2.7,0.2-4.1c0.3-5.3,0.6-10.6,1-16c0,0,0,0,0,0C58.4,122.6,58.8,121.5,58.7,120.6z"/>
	<path class="st6" d="M71.7,119.6c-1.8,0.5-3.7,0.7-5.5,0.7c-0.4,0-0.9,0.7-1,1.7c-0.2,4.2-0.4,8.3-0.6,12.5
		c-0.1,2.1-0.2,4.2-0.3,6.4c-0.1,1.6-0.3,3.8,0.1,5.1c0.5,1.4,1.4,1.4,2.1,1.6c0.9,0.2,1.8,0.7,2.6-0.6c0.7-1.1,0.9-3,1.1-4.6
		c0.3-1.9,0.5-3.8,0.6-5.8c0.4-4.6,0.6-9.2,1.4-13.6c0-0.2,0-0.4,0-0.5C72.9,121.4,72.6,119.3,71.7,119.6z"/>
	<path class="st6" d="M86.8,120.5c-0.1-0.8-0.4-1.5-0.9-1.2c-1.3,0.6-2.7,0.9-4,0.8c-1-0.1-2.5-1.2-3.5,0.4c-1,1.7-0.6,4.8-0.5,6.9
		c0.1,2.8,0.2,5.6,0.3,8.3c0.1,2.7,0.1,5.5,0.3,8.2c0.1,2.1,0.5,4.3,1.6,4.9c1.1,0.6,2.1-0.7,2.6-2.8c0.2-0.9,0.3-2,0.5-2.9
		c0.2-1.4,0.4-2.7,0.7-4c1.1-5.7,2.7-11.1,3.3-17.2C87.1,121.3,87,120.8,86.8,120.5z"/>
	<path class="st6" d="M97.1,148.7c0-2.7-0.1-5.3-0.2-8c-0.1-6.2,0-12.5,0.3-18.7c0.2-1,0.1-2.2-0.3-2.4c-0.2-0.2-0.4-0.2-0.6,0
		c-0.4,0.1-0.8,0.1-1.3,0.2c-0.4,0.1-0.9,0-1.3,0.8c-0.4,0.8-0.5,2-0.7,3.2c-0.2,1.5-0.4,3.1-0.5,4.6c-0.3,2.9-0.7,5.8-1,8.7
		c-0.3,2.8-0.8,5.9-0.8,8.7c0,1-0.5,4.3-0.2,5.1c0.3,0.9,1.3,0.1,1.8,0.4c1.1,0.8,2.2,0.6,3.2,1.3c0.4,0.3,1-2.4,1.3-3.3
		C97.2,148.3,97.1,149.8,97.1,148.7z"/>
	<path class="st6" d="M107.2,119.5c-0.6-0.1-1.1-0.3-1.7-0.4c-0.5-0.1-1-0.4-1.5,0.2c-1,1.1-0.9,4.1-1.1,5.9
		c-0.4,5-0.8,10.1-1.2,15.1c-0.2,2.4-0.5,5-0.6,7.4c0,2.6,1.4,2.7,2.4,2.9c0.4,0.1,0.9,0.2,1.3-0.4c0.5-0.7,0.6-1.8,0.7-2.8
		c0.2-2.5,0.4-5,0.6-7.5c0.5-5.7,1-11.5,1.5-17.2c0-0.1,0-0.2,0-0.2C108.1,121.6,108,119.7,107.2,119.5z"/>
	<path class="st6" d="M118.2,145.5c0.1-1.5,0.2-2.9,0.3-4.4c0.4-5.8,0.7-11.6,1.1-17.4c0-0.2,0.1-0.3,0.1-0.5c0-0.3,0-0.6,0-0.8
		c0-0.1,0-0.2,0-0.3c0.1-0.2,0.1-0.4,0.1-0.7c0.1-1-0.3-1.6-0.7-1.8c-1.3-0.5-2.6-0.7-4-0.6c-1,0.1-2.2,0.9-2.1,3.5
		c0.1,2.5,0.5,4.9,0.6,7.3c0.2,2.6,0.2,5.2,0.2,7.9c0,2.6-0.1,5.2-0.2,7.8c-0.1,2-0.4,4.7,0.9,4.9c0.6,0.1,1.3-0.1,1.9-0.2
		c0.6-0.1,1.1-0.3,1.4-1.5C118.2,147.8,118.2,146.6,118.2,145.5z"/>
	<path class="st6" d="M131,121.1c0,0-0.1-0.1-0.1-0.1c-1.3-0.2-2.6-0.5-3.8-0.5c-1.4,0-1.5,2.7-1.6,4.8c-0.4,5.1-0.7,10.3-1.1,15.4
		c-0.1,1.2-0.2,2.4-0.3,3.7c-0.1,1.2-0.3,2.5-0.2,3.7c0.1,2.4,1.6,2.2,2.5,2.2c1.2,0,1.8-1.6,2.2-3.7c0.4-2.4,0.8-4.8,1.2-7.2
		c0.9-5.5,1.8-11.1,2.3-16.8C132.3,121.3,131.6,120.7,131,121.1z"/>
	<path class="st6" d="M139.2,139.9c0.1-2.7,0.3-5.3,0.4-8c0.1-1.4,0.1-2.7,0.2-4.1c0.1-1.1,0.1-2-0.1-2.9c0.1-1,0-2.1-0.5-2.1
		c-0.8-0.1-1.9-0.7-2.5,1.1c-0.3,0.9-0.4,2.1-0.5,3.1c-0.2,1.2-0.3,2.3-0.5,3.5c-0.3,2.4-0.6,4.8-0.9,7.2c-0.3,2.2-0.6,4.4-0.8,6.6
		c-0.1,1.8-0.1,3.6,0.4,4.8c0.6,1.4,1.8,1.5,2.7,1.6c1,0.1,1.6-1.3,1.7-3.5C139,144.8,139,142.3,139.2,139.9z"/>
	<g>
		<g>
			<path class="st1" d="M38.9,118.6c-1.2-0.5-3.1-1.7-4.5-1.2c-1.1,0.4-1,1.6-1,2.6c0.1,1.6,0,3.1,0.4,4.7c0.3,1.3,0.8,2.5,1.1,3.8
				c0.5-0.2,0.9-0.4,1.4-0.6c0.2,0.3-0.1-0.2-0.1-0.3c-0.3-0.8-1.4-0.7-1.5,0.2c-0.2,4.2-0.5,8.3-0.7,12.5c-0.1,1.4,0.4,2.8,0.8,4.1
				c0.6,1.8,1.5,3.5,3.3,4.3c1.8,0.7,3.8,0.3,5.6,0.1c2.8-0.3,5.6-0.6,8.5-0.8c11.3-0.8,22.2,1.2,33.3,3c5.4,0.9,10.9,1.7,16.4,1.9
				c5.6,0.2,11.3-0.3,16.9-0.7c5.6-0.4,11.3-0.7,16.8,0c2.6,0.3,6.7,2.7,8.9,0.1c1.1-1.3,0.5-3.5,0.3-5c-0.4-2.9-0.8-5.8-1.1-8.8
				c-0.3-2.6-0.7-5.4-0.4-8.1c0.1-1,0.3-1.4,0.9-2.1c0.8-1,1-2.2,0.2-3.2c-1-1.3-2.8-2-4.3-2.6c-2.1-0.8-4.4-1.4-6.6-1.9
				c-5.4-1.2-11-1.7-16.5-2.1c-11.5-0.8-23.1-0.5-34.6-0.4c-11.7,0.1-23.4,0.2-35.1,0.3c-2.8,0-5.6,0.1-8.5,0.1c-1,0-1,1.5,0,1.5
				c11.1-0.1,22.2-0.2,33.4-0.3c11-0.1,22-0.4,33-0.2c5.5,0.1,10.9,0.4,16.4,0.9c5.2,0.5,10.4,1.2,15.4,2.6c1.9,0.5,3.9,1.1,5.5,2.3
				c0.5,0.3,1.1,0.8,0.9,1.5c-0.1,0.5-0.7,0.8-1,1.3c-1,1.5-0.7,3.9-0.6,5.6c0.3,5.3,1.4,10.5,1.8,15.8c0,0.3,0.1,0.7,0,1
				c0,0.4,0.1,0.3-0.1,0.6c-1,1.3-3.2,0.6-4.5,0.2c-4.3-1.2-8.9-1.3-13.4-1.1c-5.3,0.2-10.6,0.8-15.9,1c-5.3,0.3-10.6,0.1-15.9-0.6
				c-10.4-1.3-20.7-3.8-31.2-4.3c-5.4-0.3-10.7,0.1-16.1,0.7c-2.1,0.2-4.5,0.7-6.6,0.5c-2.5-0.3-3.4-2.6-3.9-4.8
				c-0.2-1-0.4-1.9-0.4-2.9c0.1-1,0.1-2.1,0.2-3.1c0.1-2.5,0.3-5,0.4-7.6c0-0.5,0.1-1,0.1-1.5c-0.5,0.1-1,0.1-1.5,0.2
				c0.1,0.2,0.2,0.5,0.3,0.7c0.5,0.7,1.6,0.3,1.4-0.6c-0.6-2.2-1.3-4.2-1.4-6.5c0-0.5-0.4-2.5,0-2.8c-0.2,0.1,0.6,0.2,0.7,0.2
				c0.9,0.2,1.7,0.6,2.5,0.9C39.1,120.2,39.8,118.9,38.9,118.6L38.9,118.6z"/>
		</g>
	</g>
	<g>
		<g>
			<path class="st1" d="M39.5,120.6c-0.6,8.5-1.7,17-3.3,25.4c-0.2,0.9,1.3,1.3,1.4,0.4c1.6-8.5,2.7-17.1,3.4-25.8
				C41,119.6,39.5,119.6,39.5,120.6L39.5,120.6z"/>
		</g>
	</g>
	<g>
		<g>
			<path class="st1" d="M44.2,146.9c1.9-9.1,2.1-18.4,2.1-27.7c0-1-1.5-1-1.5,0c-0.1,9.1-0.2,18.3-2.1,27.3
				C42.6,147.4,44,147.8,44.2,146.9L44.2,146.9z"/>
		</g>
	</g>
	<g>
		<g>
			<path class="st1" d="M51.4,121.4c-0.4,8-0.7,16-0.8,23.9c0,1,1.5,1,1.5,0c0.1-8,0.4-16,0.8-23.9C53,120.4,51.5,120.4,51.4,121.4
				L51.4,121.4z"/>
		</g>
	</g>
	<g>
		<g>
			<path class="st1" d="M58,120.3c-0.9,8.6-1.7,17.3-1.4,26c0,1,1.4,1,1.5,0c0-0.3,0-0.6,0.1-0.8c0.1-1-1.4-1-1.5,0
				c0,0.3,0,0.6-0.1,0.8c0.5,0,1,0,1.5,0c-0.3-8.7,0.5-17.3,1.4-26C59.6,119.3,58.1,119.3,58,120.3L58,120.3z"/>
		</g>
	</g>
	<g>
		<g>
			<path class="st1" d="M64.5,121c-0.2,8.6-1.9,17.3-0.6,25.9c0.1,0.9,1.4,0.6,1.5-0.2c0-0.3,0-0.6,0-0.8c0.1-1-1.4-1-1.5,0
				c0,0.3,0,0.6,0,0.8c0.5-0.1,1-0.1,1.5-0.2c-1.3-8.5,0.4-17.1,0.6-25.5C66.1,120,64.6,120,64.5,121L64.5,121z"/>
		</g>
	</g>
	<g>
		<g>
			<path class="st1" d="M72,118.8c-0.8,9.2-1.8,18.3-2.8,27.5c-0.1,1,1.4,0.9,1.5,0c1.1-9.2,2-18.3,2.8-27.5
				C73.6,117.8,72.1,117.8,72,118.8L72,118.8z"/>
		</g>
	</g>
	<g>
		<g>
			<path class="st1" d="M77.3,120.4c-0.6,9.5-0.3,19,0.9,28.4c0.1,0.9,1.6,1,1.5,0c-1.2-9.4-1.4-18.9-0.9-28.4
				C78.9,119.4,77.4,119.4,77.3,120.4L77.3,120.4z"/>
		</g>
	</g>
	<g>
		<g>
			<path class="st1" d="M85.9,119.8c-1.2,8.8-2.4,17.6-3.5,26.4c-0.1,1,1.4,0.9,1.5,0c1.1-8.7,2.2-17.4,3.4-26
				C87.5,119.3,86,118.8,85.9,119.8L85.9,119.8z"/>
		</g>
	</g>
	<g>
		<g>
			<path class="st1" d="M92,119.8c0.2,1.2,0,2.5-0.2,3.8c-0.1,1.3-0.3,2.6-0.4,3.9c-0.3,2.7-0.5,5.4-0.8,8.1
				c-0.5,5.3-1.1,10.6-1.6,16c-0.1,0.8,1.3,1,1.5,0.2c0.2-1,0.3-1.9,0.5-2.9c0.2-0.9-1.3-1.3-1.4-0.4c-0.2,1-0.3,1.9-0.5,2.9
				c0.5,0.1,1,0.1,1.5,0.2c0.6-5.5,1.1-11,1.7-16.4c0.3-2.7,0.5-5.4,0.8-8.1c0.2-2.4,0.9-5.2,0.5-7.6
				C93.3,118.5,91.8,118.9,92,119.8L92,119.8z"/>
		</g>
	</g>
	<g>
		<g>
			<path class="st1" d="M96.4,118.8c-0.7,10.9-1.4,21.6-0.1,32.5c0.1,0.9,1.4,1,1.5,0c0-0.4,0.1-0.9,0.1-1.3c0.1-1-1.4-1-1.5,0
				c0,0.4-0.1,0.9-0.1,1.3c0.5,0,1,0,1.5,0c-1.3-10.9-0.7-21.6,0.1-32.5C98,117.9,96.5,117.9,96.4,118.8L96.4,118.8z"/>
		</g>
	</g>
	<g>
		<g>
			<path class="st1" d="M102.8,118.7c-0.9,10.7-1.8,21.5-2.7,32.2c-0.1,1,1.4,1,1.5,0c0.9-10.7,1.8-21.5,2.7-32.2
				C104.4,117.7,102.9,117.7,102.8,118.7L102.8,118.7z"/>
		</g>
	</g>
	<g>
		<g>
			<path class="st1" d="M107.6,118.6c-1.2,11-2.1,22-2.8,33.1c-0.1,1,1.4,0.9,1.5,0c0.1-0.6,0.1-1.3,0.2-1.9c0.1-1-1.4-0.9-1.5,0
				c-0.1,0.6-0.1,1.3-0.2,1.9c0.5,0,1,0,1.5,0c0.7-11,1.7-22.1,2.8-33.1C109.2,117.7,107.7,117.7,107.6,118.6L107.6,118.6z"/>
		</g>
	</g>
	<g>
		<g>
			<path class="st1" d="M112.5,120.6c0,9.9,0.3,19.8,0.8,29.7c0,1,1.5,1,1.5,0c0-0.7,0-1.5,0-2.2c0-1-1.5-1-1.5,0c0,0.7,0,1.5,0,2.2
				c0.5,0,1,0,1.5,0c-0.5-9.9-0.7-19.8-0.8-29.7C113.9,119.6,112.4,119.6,112.5,120.6L112.5,120.6z"/>
		</g>
	</g>
	<g>
		<g>
			<path class="st1" d="M118.8,120.7c-1.2,9.7-0.9,19.4-0.8,29.1c0,1,1.5,1,1.5,0c0-0.5,0-1,0-1.4c0-1-1.5-1-1.5,0c0,0.5,0,1,0,1.4
				c0.5,0,1,0,1.5,0c-0.1-9.7-0.3-19.4,0.8-29.1C120.5,119.8,119,119.8,118.8,120.7L118.8,120.7z"/>
		</g>
	</g>
	<g>
		<g>
			<path class="st1" d="M125,122.1c-1,9.2-1.7,18.5-2,27.7c0,0.8,1.3,1,1.5,0.2c0.1-0.4,0.1-0.7,0.2-1.1c0.2-0.9-1.3-1.3-1.4-0.4
				c-0.1,0.4-0.1,0.7-0.2,1.1c0.5,0.1,1,0.1,1.5,0.2c0.3-9.3,1-18.5,2-27.7C126.6,121.1,125.1,121.1,125,122.1L125,122.1z"/>
		</g>
	</g>
	<g>
		<g>
			<path class="st1" d="M130.9,121.6c-1.2,9.4-2.2,18.9-3,28.3c-0.1,1,1.4,1,1.5,0c0-0.4,0.1-0.8,0.1-1.1c0.1-1-1.4-1-1.5,0
				c0,0.4-0.1,0.8-0.1,1.1c0.5,0,1,0,1.5,0c0.8-9.5,1.9-18.9,3-28.3C132.5,120.6,131,120.6,130.9,121.6L130.9,121.6z"/>
		</g>
	</g>
	<g>
		<g>
			<path class="st1" d="M135.7,123.5c-1.5,9.1-2.4,18.3-2.7,27.5c0,0.8,1.3,1,1.5,0.2c0-0.3,0.1-0.6,0.2-0.9
				c0.3-0.9-1.1-1.3-1.4-0.4c-0.1,0.3-0.2,0.6-0.2,0.9c0.5,0.1,1,0.1,1.5,0.2c0.3-9.1,1.2-18.1,2.7-27.1
				C137.3,122.9,135.9,122.5,135.7,123.5L135.7,123.5z"/>
		</g>
	</g>
	<g>
		<g>
			<path class="st1" d="M138.8,123.8c0,9.4-0.2,18.8-0.8,28.2c0.5,0,1,0,1.5,0c0-0.5,0-0.9,0.1-1.4c0-1-1.5-1-1.5,0
				c0,0.5,0,0.9-0.1,1.4c0,1,1.4,1,1.5,0c0.5-9.4,0.8-18.8,0.8-28.2C140.3,122.8,138.8,122.8,138.8,123.8L138.8,123.8z"/>
		</g>
	</g>
</g>
<g>
	<path class="st7" d="M66.1,96.8c-1,0.2-2.5,0.6-3.4-0.2c-0.8-0.7-0.6-2.5-0.7-3.5c-0.1-0.8,0-1.8-0.4-2.5c-0.4-0.7-1.2-0.7-2-0.7
		c-4.9,0-9.9-0.2-14.7,0.3c-0.1-0.1-0.3-0.2-0.6-0.1c-1,0.1-2,0.3-3,0.4c-0.3,0-0.6,0.5-0.5,0.9c1.5,3.7,2.2,7.4,2.6,11.3
		c0.1,1.2,0.4,2.4,1.4,3.2c1.1,0.8,2.5,0.7,3.8,0.4c3.8-0.7,7.4-1.9,11.2-2.2c1.6-0.1,2.6-0.5,3.7-1.7c1.2-1.4,2.3-2.9,3.3-4.5
		C67.2,97.3,66.6,96.7,66.1,96.8z"/>
	<g>
		<g>
			<path class="st1" d="M39.9,90.5c1,5.6,2.3,11.1,3.8,16.5c0.3,0.9,1.7,0.5,1.4-0.4c-1.5-5.5-2.9-10.9-3.8-16.5
				C41.1,89.1,39.7,89.5,39.9,90.5L39.9,90.5z"/>
		</g>
	</g>
	<g>
		<g>
			<path class="st1" d="M44.4,107.5c6.1-0.7,12.1-1.7,18.2-2.8c0.9-0.2,0.5-1.6-0.4-1.4c-5.9,1.1-11.8,2-17.8,2.8
				C43.4,106.2,43.4,107.7,44.4,107.5L44.4,107.5z"/>
		</g>
	</g>
	<g>
		<g>
			<path class="st1" d="M63.4,103.7c-0.1-4.6-0.3-9.2-0.7-13.7c-0.1-1-1.6-1-1.5,0c0.4,4.6,0.6,9.2,0.7,13.7
				C62,104.7,63.5,104.7,63.4,103.7L63.4,103.7z"/>
		</g>
	</g>
	<g>
		<g>
			<path class="st1" d="M40.9,91c6.9,0,13.8-0.2,20.7-0.2c1,0,1-1.5,0-1.5c-6.9,0-13.8,0.2-20.7,0.2C40,89.5,40,91,40.9,91L40.9,91z
				"/>
		</g>
	</g>
	<g>
		<g>
			<g>
				<path class="st1" d="M63.3,104.4c2.1-1.7,2.9-4.4,4.8-6.2c0.4-0.4,0.1-1.3-0.5-1.3c-0.1,0-0.1,0-0.2,0c0.1,0.5,0.1,1,0.2,1.5
					c0.8-0.3,1.1-1.1,0.8-1.9c-0.1-0.2-0.4-0.4-0.6-0.4c-0.2,0-0.3,0-0.5,0c0.1,0.5,0.1,1,0.2,1.5c0.1,0,0.2-0.1,0.2-0.1
					c0.3-0.1,0.6-0.4,0.6-0.7c0-0.3-0.2-0.7-0.6-0.7c-1.7-0.3-3.3-0.4-5-0.3c-0.4,0-0.8,0.3-0.8,0.8c0,0.4,0.3,0.8,0.8,0.8
					c1.5-0.1,3.1-0.1,4.6,0.2c0-0.5,0-1,0-1.4c-0.1,0-0.2,0.1-0.2,0.1c-0.3,0.1-0.6,0.4-0.5,0.8c0.1,0.3,0.4,0.7,0.7,0.7
					c0.2,0,0.3,0,0.5,0c-0.2-0.1-0.4-0.2-0.6-0.4C67,97.1,67,97.1,67.2,97c-0.3,0.1-0.6,0.4-0.5,0.8c0.1,0.3,0.4,0.7,0.7,0.7
					c0.1,0,0.1,0,0.2,0c-0.2-0.4-0.4-0.9-0.5-1.3c-1.9,1.8-2.7,4.5-4.8,6.2c-0.3,0.3-0.3,0.8,0,1.1C62.5,104.7,63,104.7,63.3,104.4
					L63.3,104.4z"/>
			</g>
		</g>
	</g>
	<g>
		<path class="st3" d="M53.6,96.2c-0.1,0.4-0.2,0.9-0.4,1.3c-0.2,0.6-0.5,1.3-1.1,1.6c-0.5,0.3-1.2,0.2-1.7-0.1s-0.9-0.8-1.1-1.4
			c-0.1-0.3-0.1-0.6,0.1-0.8c0.1-0.1,0.2-0.1,0.4-0.1c0.9,0,1.9,0.4,2.6,1c0.8,0.6,1.4,1.3,2.1,1.9c0-1.1-0.4-2.2-0.9-3.1"/>
		<g>
			<path class="st1" d="M53.2,96.1c-0.2,0.8-0.4,1.7-0.9,2.3c-0.5,0.6-1.3,0.7-1.9,0.3c-0.3-0.2-0.5-0.5-0.7-0.8
				c-0.1-0.2-0.3-0.7,0-0.7c0.8-0.1,1.7,0.3,2.3,0.8c0.8,0.6,1.5,1.3,2.2,1.9c0.2,0.2,0.7,0.1,0.6-0.3c0-1.2-0.4-2.3-1-3.3
				c-0.2-0.4-0.9,0-0.6,0.4c0.5,0.9,0.8,1.9,0.9,2.9c0.2-0.1,0.4-0.2,0.6-0.3c-0.9-0.7-1.6-1.6-2.6-2.2c-0.4-0.3-0.9-0.5-1.4-0.7
				c-0.5-0.1-1.1-0.2-1.5,0c-0.9,0.5-0.1,2,0.4,2.5c0.7,0.7,1.9,1,2.7,0.4c1-0.6,1.3-2,1.6-3.1C54,95.9,53.3,95.7,53.2,96.1
				L53.2,96.1z"/>
		</g>
	</g>
</g>
</svg>
