<?xml version="1.0" encoding="utf-8"?>
<!-- Generator: Adobe Illustrator 26.3.1, SVG Export Plug-In . SVG Version: 6.00 Build 0)  -->
<svg version="1.1" id="Calque_1" xmlns="http://www.w3.org/2000/svg" xmlns:xlink="http://www.w3.org/1999/xlink" x="0px" y="0px"
	 viewBox="0 0 200 200" style="enable-background:new 0 0 200 200;" xml:space="preserve">
<style type="text/css">
	.st0{fill:#CCCCCC;}
	.st1{fill:#E7F4DF;}
	.st2{fill:#666666;}
	.st3{fill:#10101A;}
	.st4{fill:#0F0F23;}
	.st5{fill:#FFFFFF;}
	.st6{fill:#79A2D8;}
</style>
<path class="st0" d="M174.2,117.5c-1.7-30.3,2-60.6,0.1-90.8c-0.3-4.1-0.6-8.1-1.1-12.2c-0.4-3-1.8-6.8-5.6-6.3
	c-0.7,0.1-1.6,0.4-2,1c-0.5,0.7-0.5,2-0.6,2.8c-0.2,2.1-0.4,4.2-0.5,6.3c-0.2,4.2,0,8.5,0.5,12.7c0.1,0.5,0.3,0.8,0.5,1.1
	c-0.3,5.4-0.5,10.8-0.8,16.2c0,0.7,0.4,1.1,0.9,1.3c-0.2,16.5-0.4,33-0.7,49.5c-0.3,19.7-0.6,39.4-0.8,59.1
	c-0.1,5.6-0.1,11.1-0.1,16.7c0,2.5,0.1,5.2,1.3,7.3c0,0.1-0.1,0.2-0.1,0.3c-0.1,0.6-0.1,1.3,0.1,1.9c0.2,0.6,0.5,1.1,0.9,1.5
	c0.8,0.8,2,1.3,3.1,1.2c0.6,0,1.2-0.2,1.8-0.5c1.2,0.2,2.4-0.2,3.1-1.6c0.7-1.4,0.4-3.3,0.4-4.8c0-2,0.1-4,0.1-6
	c0.1-3.8,0.1-7.6,0.2-11.4c0.1-7.6,0.4-15.2,0.4-22.8C175.4,132.4,174.6,125,174.2,117.5z"/>
<path class="st1" d="M175.1,33.9c-0.5,0-0.5,0.8,0,0.8C175.6,34.6,175.6,33.9,175.1,33.9z"/>
<g>
	<g>
		<path class="st2" d="M51.2,153.8c-4-0.2-7.1-2-10.1-4.7c-3-2.7-5.6-5.9-9-8c-3.4-2.1-7.4-3.2-11.4-3.1c-2.1,0.1-4.3,0.5-6.1,1.7
			c-3.6,2.2-5.4,6.7-4.7,10.9s3.5,7.8,7.1,9.9s5.8,3,10.7,3.8c-1.4,1-2.1,4.8-2,5.1c0.3,0.6,1.8-0.5,2.4-0.7
			c4.4-1.3,9.1,0.1,13.7,0.9s8.2-0.6,12.4-2.5"/>
		<g>
			<path class="st1" d="M51.2,152.3c-6-0.3-9.7-5-13.7-8.8c-4.3-4.1-9.5-6.9-15.6-7c-5.7-0.2-11,2.4-13,8c-1.8,5-0.2,10.4,3.3,14.2
				c3.8,4.2,9.5,6.2,15,7.1c-0.2-0.8-0.4-1.7-0.7-2.5c-1.4,1.2-2.6,4.2-2.4,6.1c0.1,1.5,1.6,2,2.9,1.5c0.7-0.3,1.2-0.7,1.9-0.9
				c1-0.3,2-0.3,3-0.4c4.1,0,8,1.6,12.1,1.7c3.9,0.1,7.5-1.3,10.9-2.9c1.8-0.8,0.2-3.4-1.5-2.6c-2.8,1.3-5.8,2.5-9,2.5
				c-3.3,0-6.5-1.2-9.7-1.5c-1.6-0.2-3.2-0.2-4.8,0c-1.1,0.1-2.8,0.4-3.7,1.2c-0.5,0.5,0.7,1.6,1,1.2c0,0,0.1-0.3,0-0.1
				c0.2-0.4,0.2-1,0.3-1.4c0.2-0.8,0.5-1.7,1.2-2.3c0.8-0.7,0.4-2.3-0.7-2.5c-4.3-0.7-8.6-2-12.1-4.9c-3.6-3-5.7-7.6-4.3-12.2
				c1.7-5.3,7-6.8,12-6.2c5.6,0.7,9.7,4,13.6,7.8c4,4,8.1,7.5,14,7.9C53.1,155.4,53.1,152.4,51.2,152.3L51.2,152.3z"/>
		</g>
	</g>
	<g>
		<g>
			<path class="st1" d="M18.9,138.9c3.3,0.3,6.4,2.2,9.1,4c2.8,1.8,5.4,3.9,8.1,5.9c2.3,1.7,4.7,3.5,7.2,5c2.3,1.5,4.8,2.4,7.6,2.4
				c0.5,0,0.5-0.8,0-0.8c-3.1,0-5.7-1.3-8.3-3c-2.6-1.7-5.1-3.5-7.5-5.4c-2.6-2-5.2-4-7.9-5.7c-2.5-1.5-5.2-3.1-8.2-3.3
				C18.4,138.1,18.4,138.9,18.9,138.9L18.9,138.9z"/>
		</g>
	</g>
	<g>
		<g>
			<path class="st1" d="M17.5,139c5.9,2.4,10.7,6.7,15.9,10.3c5.3,3.7,11.2,6.4,17.7,7.4c0.5,0.1,0.7-0.6,0.2-0.7
				c-6.7-1.1-12.7-3.9-18.2-7.8c-5-3.6-9.7-7.6-15.4-9.9C17.2,138.1,17,138.8,17.5,139L17.5,139z"/>
		</g>
	</g>
	<g>
		<g>
			<path class="st1" d="M15.4,139.5c6.1,3,11,7.8,16.8,11.3c5.7,3.4,12,5.8,18.5,7.1c0.5,0.1,0.7-0.6,0.2-0.7
				c-6.6-1.3-13-3.8-18.7-7.3c-5.6-3.5-10.5-8.2-16.4-11.1C15.4,138.7,15,139.3,15.4,139.5L15.4,139.5z"/>
		</g>
	</g>
	<g>
		<g>
			<path class="st1" d="M14.5,141c11.3,8.5,23.4,16.9,37.7,18.7c0.5,0.1,0.5-0.7,0-0.8C38,157.1,26,148.8,14.9,140.4
				C14.5,140.1,14.1,140.7,14.5,141L14.5,141z"/>
		</g>
	</g>
	<g>
		<g>
			<path class="st1" d="M12,142.4c3.4,2.1,6.8,4.2,10.1,6.4c3.3,2.1,6.5,4.2,9.9,6c3.1,1.6,6.3,3,9.6,4c1.7,0.5,3.5,1,5.2,1.3
				c0.9,0.2,1.8,0.3,2.7,0.5c0.6,0.1,2.4,0.1,2.8,0.5c0-0.2,0-0.3-0.1-0.5c0,0,0,0,0,0c0.1,0.1,0.3,0.1,0.4,0.2c0,0,0-0.1-0.1-0.1
				c-0.2-0.4-0.9,0-0.6,0.4c0,0,0,0.1,0.1,0.1c0.1,0.2,0.3,0.2,0.4,0.2c0.3-0.1,0.4-0.1,0.5-0.4c0.1-0.2,0.1-0.3-0.1-0.5
				c-0.4-0.4-0.7-0.4-1.2-0.4c-1.1-0.1-2.2-0.3-3.2-0.5c-1.8-0.3-3.5-0.7-5.2-1.2c-3.6-1-7.2-2.4-10.5-4.2c-3.3-1.7-6.5-3.9-9.7-5.9
				c-3.5-2.2-7-4.4-10.6-6.6C12,141.5,11.6,142.2,12,142.4L12,142.4z"/>
		</g>
	</g>
	<g>
		<g>
			<path class="st1" d="M11.3,144c6.3,4.2,12.7,8.5,19.6,11.8c3.3,1.6,6.7,2.9,10.2,3.9c3.5,1,7.1,1.4,10.7,1.9
				c0.5,0.1,0.7-0.7,0.2-0.7c-3.5-0.5-6.9-0.9-10.3-1.8c-3.7-1-7.4-2.4-10.8-4.1c-6.8-3.3-13-7.4-19.2-11.6
				C11.2,143,10.9,143.7,11.3,144L11.3,144z"/>
		</g>
	</g>
	<g>
		<g>
			<path class="st1" d="M10.1,145.3c5,3.9,10.5,7.3,16.4,9.7c2.3,1,4.6,1.9,6.9,2.7c3.3,1.2,6.6,2.2,10,2.9c3.1,0.6,6.2,1.3,9.3,1.6
				c0.5,0,0.5-0.7,0-0.8c-2.7-0.2-5.5-0.8-8.1-1.3c-3.5-0.7-6.9-1.5-10.3-2.8c-4.7-1.7-9.5-3.4-13.8-6c-3.4-2.1-6.8-4.1-10-6.6
				C10.1,144.4,9.7,145,10.1,145.3L10.1,145.3z"/>
		</g>
	</g>
	<g>
		<g>
			<path class="st1" d="M10.2,147c5.1,5.3,12.1,8.3,18.9,10.8c7.6,2.8,15.7,4.6,23.8,4.9c0.5,0,0.5-0.7,0-0.8
				c-7.9-0.4-15.7-2-23.2-4.8c-6.8-2.5-13.9-5.5-19-10.8C10.4,146.1,9.9,146.6,10.2,147L10.2,147z"/>
		</g>
	</g>
	<g>
		<g>
			<path class="st1" d="M10,148.5c2.1,3,5.1,5.1,8.3,6.8c3.6,1.9,7.3,3.6,11.1,5c7.8,2.8,16.3,4.4,24.6,2.8c0.5-0.1,0.3-0.8-0.2-0.7
				c-8,1.5-16.2,0-23.8-2.7c-3.7-1.3-7.2-2.9-10.6-4.7c-3.4-1.7-6.5-3.8-8.7-6.9C10.4,147.7,9.8,148.1,10,148.5L10,148.5z"/>
		</g>
	</g>
	<g>
		<g>
			<path class="st1" d="M10.5,150.5c2.2,2.5,4.2,5.2,7,7.2c2,1.5,4.4,2.4,6.8,3.2c5.8,2,11.9,3.3,18,3.9c3.5,0.3,7,0.3,10.4-0.2
				c0.5-0.1,0.3-0.8-0.2-0.7c-7.8,1.2-16-0.3-23.5-2.3c-2.9-0.8-5.8-1.6-8.5-2.9c-4-1.8-6.7-5.4-9.6-8.6
				C10.7,149.6,10.2,150.1,10.5,150.5L10.5,150.5z"/>
		</g>
	</g>
	<g>
		<g>
			<path class="st1" d="M27.4,166.9c1-2,4.6-1.8,6.5-1.7c2.3,0.1,4.5,0.4,6.8,0.6c4.7,0.5,9.2,0.2,13.4-2c0.4-0.2,0.1-0.9-0.4-0.6
				c-4.9,2.6-10,2.3-15.4,1.6c-2.3-0.3-4.6-0.5-7-0.3c-1.7,0.1-3.8,0.4-4.6,2C26.5,166.9,27.2,167.3,27.4,166.9L27.4,166.9z"/>
		</g>
	</g>
	<g>
		<g>
			<path class="st1" d="M25.4,167.9c1.8-1.5,4.7-1.1,6.9-1c2.6,0.1,5.2,0.4,7.8,0.5c4.6,0.2,9.2-0.4,13.4-2.3
				c0.4-0.2,0.1-0.8-0.4-0.6c-4.9,2.2-10.1,2.4-15.4,2.1c-2.6-0.2-5.2-0.4-7.8-0.5c-1.8,0-3.7,0.1-5.1,1.3
				C24.6,167.7,25.1,168.2,25.4,167.9L25.4,167.9z"/>
		</g>
	</g>
	<g>
		<g>
			<path class="st1" d="M34.3,152.1c2.8,1.3,5.6,2.2,8.5,3.2c3.4,1.2,6.6,2.4,10.1,2.8c0-0.2,0-0.5,0-0.8c-0.1,0-0.2,0-0.3,0
				c-0.5,0-0.5,0.8,0,0.8c0.1,0,0.2,0,0.3,0c0.5,0,0.5-0.7,0-0.8c-3.5-0.4-6.7-1.6-9.9-2.8c-2.8-1-5.6-1.9-8.3-3.2
				C34.2,151.2,33.9,151.8,34.3,152.1L34.3,152.1z"/>
		</g>
	</g>
</g>
<g>
	<g>
		<path class="st2" d="M163.3,113.9c0-1.3-0.5-2.7-1.4-3.5c-1-0.9-2.4-1.1-3.8-1.2c-2-0.1-4,0-6,0c0-0.1,0-0.2,0-0.3
			c-1.1-4.5-3-8.7-4.8-12.9c0.6-3.1,1.3-6.1,1.6-9.2c0.4-3.5,1.1-7.7-0.8-10.9c-0.8-1.3-2-2.4-3.5-2.8c-1.9-0.5-3.8,0.1-5.5,1
			c-3.4,1.7-6.7,3.9-9.8,6.1c-15.3-7.1-33.3-7.9-49.1-2c-1.4-1.2-2.8-2.2-4.4-3.2c-1.6-1-3.2-1.9-4.9-2.7c-1.8-0.9-3.8-1.6-5.8-0.9
			c-1.3,0.4-2.4,1.4-2.7,2.8c-0.2,0.7-0.2,1.4-0.3,2.1c-0.3,2.6-0.5,5.3-0.6,8c-0.1,2-0.1,4.1,0.1,6.1c-0.1,0.1-0.2,0.2-0.3,0.3
			C58,96,54,101.1,51.9,107.2c-0.3,0.1-1.4-0.1-1.5-0.1c-0.7-0.1-1.5-0.1-2.2,0c-1.5,0.1-3,0.4-4.5,0.8c-2.8,0.9-5.3,2.7-5.2,5.9
			c0.1,2.9,2,5.4,3.6,7.7c1.7,2.5,3.7,4.9,4.9,7.7c0.1,0.3,0.3,0.6,0.6,0.7c-0.7,14.2-0.2,29.5,8.9,41.2c-0.1,0.3-0.1,0.5-0.2,0.8
			c-0.5,1.6-1,3.1-1.2,4.7c-0.2,1.7-0.4,3.6-0.2,5.2c0.2,1.7,1.6,2.6,3.2,2.9c3.4,0.6,6.6-0.8,9.4-2.5c0.9-0.5,1.8-1.1,2.6-1.7
			c16.1,6.4,35.8,9.9,52.2,2.4c0.1,0,0.3-0.1,0.4-0.2c0.8-0.5,2.1-0.2,3,0c1.3,0.3,2.3,1,3.4,1.7c2.7,1.6,6,3.9,9.2,2.5
			c3-1.3,3.8-5,3.5-8c-0.1-1-0.2-2-0.4-3c2.2-2.7,4.6-5.1,6.6-8c2.2-3.2,3.8-6.9,5.3-10.4c2.5-6.1,4.1-12.6,3.7-19.2
			c-0.2-3.5-0.9-7-1.9-10.4c1.7-1.9,3.4-3.9,4.8-6C161.5,119.5,163.2,116.7,163.3,113.9z"/>
	</g>
</g>
<g>
	<g>
		<path class="st1" d="M69.7,181.7c8.8,3.5,18.1,5.9,27.6,6.6c9,0.7,18.1-0.4,26.3-4.3c1.7-0.8,0.2-3.4-1.5-2.6
			c-7.8,3.7-16.6,4.5-25.2,3.8c-9-0.7-18-3.1-26.3-6.5C68.7,178.1,67.9,181,69.7,181.7L69.7,181.7z"/>
	</g>
</g>
<g>
	<g>
		<path class="st1" d="M56.5,168.3c0.3,0.5,0,1.5-0.1,2c-0.1,0.9-0.4,1.7-0.6,2.6c-0.5,1.6-1,3.2-1.3,4.8c-0.1,1-0.2,2-0.2,2.9
			c0,0.9-0.1,1.9,0.1,2.8c0.4,1.6,1.9,2.4,3.4,2.6c3.4,0.5,6.8-0.9,9.6-2.7c2.9-1.8,5.7-4,8.1-6.4c1.4-1.3-0.7-3.5-2.1-2.1
			c-2.2,2.1-4.7,4.1-7.3,5.7c-2.3,1.5-5.1,3-7.9,2.6c-0.6-0.1-1-0.1-1-0.7c-0.1-0.8,0-1.6,0-2.3c0.1-1.6,0.4-3,0.8-4.5
			c0.4-1.5,1-2.9,1.2-4.5c0.2-1.4,0.5-3.1-0.2-4.4C58.1,165.1,55.6,166.6,56.5,168.3L56.5,168.3z"/>
	</g>
</g>
<g>
	<g>
		<path class="st1" d="M123.5,184c0.8-0.5,2.1-0.3,3,0c1.3,0.3,2.4,1,3.5,1.7c2.7,1.6,6,3.9,9.2,2.6c3.2-1.3,4.1-5.1,3.8-8.2
			c-0.3-3.6-1.5-7.2-2.4-10.7c-0.5-1.9-3.4-1.1-2.9,0.8c0.4,1.7,0.8,3.4,1.3,5.1c0.4,1.6,0.8,3.1,1,4.8c0.2,2.2-0.3,6-3.4,5.5
			c-2.8-0.5-5.1-2.8-7.7-4c-2-0.9-5-1.6-7-0.3C120.4,182.4,121.9,185,123.5,184L123.5,184z"/>
	</g>
</g>
<g>
	<g>
		<path class="st1" d="M142.2,177.6c2.3-3,5.1-5.6,7.2-8.7c2.2-3.3,3.9-7,5.4-10.6c2.6-6.2,4.2-12.9,3.9-19.6
			c-0.2-3.9-1-7.8-2.2-11.5c-0.6-1.8-3.5-1.1-2.9,0.8c2.4,7.9,2.8,15.9,0.4,23.8c-1.3,4.4-3.3,8.6-5.5,12.7c-2.2,4.2-5.5,7.3-8.4,11
			C138.9,177,141,179.2,142.2,177.6L142.2,177.6z"/>
	</g>
</g>
<g>
	<g>
		<path class="st1" d="M156.1,128.6c1.9-2.2,3.8-4.4,5.5-6.8c1.6-2.3,3.4-5.2,3.5-8.1c0-1.3-0.4-2.7-1.4-3.6c-1-1-2.5-1.2-3.8-1.2
			c-3.3-0.1-6.6,0-9.9,0.3c-1.9,0.2-1.9,3.2,0,3c2.8-0.2,5.6-0.3,8.4-0.3c0.9,0,2.3-0.2,3.1,0.3c0.8,0.5,0.7,1.6,0.5,2.3
			c-0.6,2.3-2,4.4-3.3,6.3c-1.4,2-3,3.8-4.7,5.7C152.7,127.9,154.8,130.1,156.1,128.6L156.1,128.6z"/>
	</g>
</g>
<g>
	<g>
		<path class="st1" d="M58.4,170.4c-9.4-12-9.3-28.3-8.4-42.8c0.1-1.9-2.9-1.9-3,0c-1,15.4-0.8,32.2,9.3,44.9
			C57.5,174,59.6,171.9,58.4,170.4L58.4,170.4z"/>
	</g>
</g>
<g>
	<g>
		<path class="st1" d="M49.1,128.1c-1.1-2.5-2.8-4.8-4.4-7c-1.5-2.1-3.6-4.5-4-7.1c-0.5-2.9,3.1-3.7,5.2-4.1
			c1.4-0.3,2.8-0.2,4.2-0.1c1.3,0.1,2.4,0,3.4-0.8c1.4-1.3-0.7-3.4-2.1-2.1c-0.2,0.2-1.3,0-1.6-0.1c-0.7-0.1-1.5-0.1-2.2,0
			c-1.6,0.1-3.2,0.4-4.8,0.9c-2.8,1-5.4,2.8-5.1,6.1c0.2,3,2.2,5.6,3.9,8c1.8,2.6,3.7,5.1,5,7.9C47.3,131.4,49.9,129.9,49.1,128.1
			L49.1,128.1z"/>
	</g>
</g>
<g>
	<g>
		<path class="st1" d="M53.1,112c1.2-7.9,6.4-14.1,10.5-20.7c1-1.6-1.6-3.2-2.6-1.5c-4.2,6.8-9.6,13.2-10.8,21.4
			c-0.1,0.8,0.2,1.6,1,1.8C52,113.3,53,112.8,53.1,112L53.1,112z"/>
	</g>
</g>
<g>
	<g>
		<path class="st1" d="M153.6,108.7c-1.1-4.7-3.2-9-5-13.4c-0.3-0.7-1-1.3-1.8-1c-0.7,0.2-1.4,1.1-1,1.8c1.9,4.4,3.9,8.8,5,13.4
			C151.2,111.4,154.1,110.6,153.6,108.7L153.6,108.7z"/>
	</g>
</g>
<g>
	<g>
		<path class="st1" d="M81,80.1c15.5-5.8,33.1-5.2,48.1,1.9c1.7,0.8,3.3-1.8,1.5-2.6c-15.7-7.4-34.2-8.3-50.4-2.2
			C78.4,77.9,79.2,80.8,81,80.1L81,80.1z"/>
	</g>
</g>
<g>
	<g>
		<g>
			<path class="st1" d="M64.7,91.8c-0.6-2.2-0.6-4.6-0.6-6.9c0-2.6,0.2-5.2,0.4-7.8c0.1-0.9,0.2-1.8,0.3-2.7c0,0.3,0.1-0.4,0.1-0.5
				c0-0.2,0.1-0.3,0.1-0.3c0.9-1.4,3.2-0.4,4.3,0.2c1.5,0.7,3,1.5,4.5,2.4c3.2,1.9,5.9,4.3,8.5,7c1.3,1.4,3.5-0.7,2.1-2.1
				C81.8,78.4,79,76,75.9,74c-1.6-1-3.4-2-5.1-2.8c-1.8-0.9-3.8-1.7-5.8-1c-1.3,0.4-2.6,1.4-3,2.8c-0.2,0.7-0.2,1.5-0.3,2.2
				c-0.3,2.6-0.5,5.3-0.6,7.9c-0.1,3.1-0.1,6.5,0.7,9.5C62.4,94.5,65.3,93.7,64.7,91.8L64.7,91.8z"/>
		</g>
	</g>
	<g>
		<g>
			<path class="st1" d="M148.6,96.1c0.7-3.3,1.4-6.6,1.8-10c0.4-3.5,1.1-7.7-0.7-11c-0.8-1.4-2.1-2.6-3.7-3.1
				c-1.9-0.6-3.9,0.1-5.6,1c-3.7,1.8-7.2,4.2-10.5,6.6c-1.2,0.8-0.8,2.8,0.8,2.8c0.7,0,1.3-0.2,1.8-0.7c1.4-1.3-0.7-3.4-2.1-2.1
				c0.1-0.1,0.2-0.1,0.3-0.2c0.3,0.9,0.5,1.9,0.8,2.8c2.9-2,5.8-4,8.9-5.7c1.3-0.8,2.9-1.8,4.5-1.6c1.3,0.2,2.2,1.4,2.6,2.6
				c0.5,1.5,0.4,3.2,0.3,4.8c-0.1,1.5-0.2,3-0.4,4.5c-0.4,2.9-1,5.7-1.6,8.6C145.3,97.2,148.2,98,148.6,96.1L148.6,96.1z"/>
		</g>
	</g>
	<g>
		<g>
			<path class="st1" d="M130.1,82.3c0.8,1.6,1.3,3.5,2.9,4.5c2.2,1.4,5.3,0.2,6.7-1.7c0.8-1.1,1.6-2.2,2.4-3.3
				c0.4-0.5,0.9-1.1,1.4-1.6c0.3-0.3,0.9-1,1.5-0.9c1.2,0.1,0.5,2.6,0.4,3.3c-0.2,1.6-0.2,3.2-0.2,4.8c-0.1,1.7-0.1,3.5,0.1,5.2
				c0.2,1.3,0.5,2.6,1.4,3.6c0.7,0.7,1.8-0.4,1.1-1.1c-0.8-0.8-0.9-2.1-1-3.2c-0.1-1.6-0.1-3.2,0-4.8c0.1-1.6,0.1-3.2,0.3-4.8
				c0.1-1.2,0.5-2.6-0.2-3.7c-1.8-2.6-4.6,0.8-5.7,2.2c-0.8,1-1.6,2.1-2.3,3.1c-0.8,1.2-2.3,1.9-3.7,1.8c-2.2-0.1-2.7-2.8-3.5-4.4
				C130.9,80.6,129.6,81.4,130.1,82.3L130.1,82.3z"/>
		</g>
	</g>
	<g>
		<g>
			<path class="st1" d="M83.1,82.2c-1.1,0.6-2.2,2.3-3.5,2.1c-1.6-0.1-3.1-1.9-4.3-2.8c-1.4-1.2-2.8-2.4-4.3-3.5
				c-0.9-0.7-2.1-1.5-3.2-1.5c-2.6,0-2.4,3.4-2.6,5.2c-0.3,3.5-1.5,6.9-1.9,10.4c-0.1,1,1.4,1,1.5,0c0.4-3.3,1.4-6.4,1.8-9.7
				c0.2-1.2,0.1-2.5,0.4-3.6c0.4-1.4,1.7-0.5,2.5,0c2.7,1.8,5,4.3,7.7,6.1c1,0.7,2.3,1.2,3.5,0.7c1.2-0.5,2-1.6,3.1-2.2
				C84.7,83.1,83.9,81.8,83.1,82.2L83.1,82.2z"/>
		</g>
	</g>
	<g>
		<g>
			<path class="st1" d="M67.8,76.7c-1-1.3-1.6-2.9-1.8-4.5c0-0.2-0.2-0.4-0.4-0.4c-0.2,0-0.4,0.2-0.4,0.4c0.2,1.8,0.9,3.4,1.9,4.9
				c0.1,0.2,0.3,0.2,0.5,0.1C67.8,77.1,67.9,76.8,67.8,76.7L67.8,76.7z"/>
		</g>
	</g>
	<g>
		<g>
			<path class="st1" d="M69.6,77.7c-0.5-1.9-0.9-3.7-1.4-5.6c-0.1-0.5-0.8-0.3-0.7,0.2c0.5,1.9,0.9,3.7,1.4,5.6
				C69,78.4,69.7,78.2,69.6,77.7L69.6,77.7z"/>
		</g>
	</g>
	<g>
		<g>
			<path class="st1" d="M71.5,78.6C71,77,70.9,75.4,71,73.7c0-0.5-0.7-0.5-0.8,0c-0.1,1.7,0.1,3.4,0.5,5
				C70.9,79.2,71.6,79,71.5,78.6L71.5,78.6z"/>
		</g>
	</g>
	<g>
		<g>
			<path class="st1" d="M73.2,80.4c-0.3-1.9-0.5-3.9-0.5-5.8c0-0.5-0.8-0.5-0.8,0c0,2,0.2,4,0.6,6C72.6,81.1,73.3,80.9,73.2,80.4
				L73.2,80.4z"/>
		</g>
	</g>
	<g>
		<g>
			<path class="st1" d="M75,81.9c-0.4-1.8-0.4-3.6-0.1-5.4c0.1-0.5-0.6-0.7-0.7-0.2c-0.4,1.9-0.3,3.9,0.1,5.8
				C74.4,82.6,75.1,82.4,75,81.9L75,81.9z"/>
		</g>
	</g>
	<g>
		<g>
			<path class="st1" d="M76.6,83.1c-0.3-1.7-0.2-3.4,0.2-5.1c0.1-0.5-0.6-0.7-0.7-0.2c-0.5,1.8-0.6,3.6-0.2,5.5
				C76,83.8,76.7,83.6,76.6,83.1L76.6,83.1z"/>
		</g>
	</g>
	<g>
		<g>
			<path class="st1" d="M78.1,84.4c-0.1-1.6,0.1-3.2,0.6-4.7c0.2-0.5-0.6-0.7-0.7-0.2c-0.5,1.6-0.7,3.2-0.7,4.9
				C77.4,84.8,78.1,84.9,78.1,84.4L78.1,84.4z"/>
		</g>
	</g>
	<g>
		<g>
			<path class="st1" d="M79.4,84.5c0.1-1.5,0.4-3,1-4.4c0.1-0.2,0.1-0.4-0.1-0.5c-0.2-0.1-0.4-0.1-0.5,0.1c-0.6,1.5-1,3.1-1.1,4.8
				C78.6,85,79.3,85,79.4,84.5L79.4,84.5z"/>
		</g>
	</g>
	<g>
		<g>
			<path class="st1" d="M66.4,78.4c-1.1-1.3-2.2-2.5-3.3-3.8c-0.1-0.2-0.4-0.1-0.5,0c-0.2,0.2-0.1,0.4,0,0.5
				c1.1,1.3,2.2,2.5,3.3,3.8c0.1,0.2,0.4,0.1,0.5,0C66.6,78.7,66.5,78.5,66.4,78.4L66.4,78.4z"/>
		</g>
	</g>
	<g>
		<g>
			<path class="st1" d="M66,81c-0.8-0.7-1.6-1.6-2.3-2.5c-0.1-0.2-0.3-0.2-0.5-0.1c-0.2,0.1-0.3,0.3-0.1,0.5c0.7,1,1.5,1.8,2.4,2.6
				c0.2,0.1,0.4,0.1,0.5,0C66.1,81.4,66.2,81.1,66,81L66,81z"/>
		</g>
	</g>
	<g>
		<g>
			<path class="st1" d="M66.1,83.8c-0.8-0.9-1.6-1.7-2.4-2.6c-0.1-0.1-0.4-0.1-0.5,0c-0.1,0.1-0.1,0.4,0,0.5
				c0.8,0.9,1.6,1.7,2.4,2.6c0.1,0.1,0.4,0.1,0.5,0C66.2,84.2,66.2,84,66.1,83.8L66.1,83.8z"/>
		</g>
	</g>
	<g>
		<g>
			<path class="st1" d="M65.4,85.8c-1.3-0.9-2.5-2-3.5-3.1c-0.3-0.3-0.9,0.2-0.5,0.5c1.1,1.2,2.4,2.3,3.7,3.3c0.2,0.1,0.4,0,0.5-0.1
				C65.6,86.2,65.5,86,65.4,85.8L65.4,85.8z"/>
		</g>
	</g>
	<g>
		<g>
			<path class="st1" d="M145.6,79c0.6-1.9,0.9-3.9,1-5.9c0-0.5-0.7-0.5-0.8,0c-0.1,2-0.4,3.9-1,5.7C144.8,79.2,145.5,79.4,145.6,79
				L145.6,79z"/>
		</g>
	</g>
	<g>
		<g>
			<path class="st1" d="M144.4,79.2c0-1.8,0-3.5,0-5.3c0-0.5-0.8-0.5-0.8,0c0,1.8,0,3.5,0,5.3C143.7,79.7,144.4,79.7,144.4,79.2
				L144.4,79.2z"/>
		</g>
	</g>
	<g>
		<g>
			<path class="st1" d="M143,80c0.1-2-0.1-4.1-0.5-6c-0.1-0.5-0.8-0.3-0.7,0.2c0.4,1.9,0.5,3.9,0.5,5.9C142.2,80.5,143,80.5,143,80
				L143,80z"/>
		</g>
	</g>
	<g>
		<g>
			<path class="st1" d="M141.5,81.4c-0.1-2-0.3-4-0.6-6c-0.1-0.5-0.8-0.3-0.7,0.2c0.3,1.9,0.5,3.9,0.6,5.8
				C140.8,81.9,141.5,81.9,141.5,81.4L141.5,81.4z"/>
		</g>
	</g>
	<g>
		<g>
			<path class="st1" d="M140.4,83.4c-0.3-2.4-0.7-4.7-1.1-7.1c-0.1-0.5-0.8-0.3-0.7,0.2c0.4,2.3,0.8,4.6,1.1,6.9
				C139.7,83.9,140.4,83.9,140.4,83.4L140.4,83.4z"/>
		</g>
	</g>
	<g>
		<g>
			<path class="st1" d="M139.3,84.9c-0.5-2.6-1-5.1-1.5-7.7c-0.1-0.5-0.8-0.3-0.7,0.2c0.5,2.6,1,5.1,1.5,7.7
				C138.7,85.6,139.4,85.4,139.3,84.9L139.3,84.9z"/>
		</g>
	</g>
	<g>
		<g>
			<path class="st1" d="M138.1,85.5c-0.5-2.1-0.9-4.2-1.4-6.3c-0.1-0.5-0.8-0.3-0.7,0.2c0.5,2.1,0.9,4.2,1.4,6.3
				C137.5,86.2,138.2,86,138.1,85.5L138.1,85.5z"/>
		</g>
	</g>
	<g>
		<g>
			<path class="st1" d="M136.3,85.9c-0.7-1.9-1.2-3.9-1.6-5.9c-0.1-0.5-0.8-0.3-0.7,0.2c0.4,2,1,4,1.6,5.9
				C135.7,86.6,136.5,86.4,136.3,85.9L136.3,85.9z"/>
		</g>
	</g>
	<g>
		<g>
			<path class="st1" d="M134,85c-0.7-1.1-1-2.4-0.9-3.7c0-0.2-0.2-0.4-0.4-0.4c-0.2,0-0.4,0.2-0.4,0.4c-0.1,1.4,0.2,2.9,1,4
				C133.6,85.8,134.2,85.4,134,85L134,85z"/>
		</g>
	</g>
	<g>
		<g>
			<path class="st1" d="M146.8,80.8c0.4-0.8,0.8-1.5,1.2-2.3c0.1-0.2,0.1-0.4-0.1-0.5c-0.2-0.1-0.4-0.1-0.5,0.1
				c-0.4,0.8-0.8,1.5-1.2,2.3c-0.1,0.2-0.1,0.4,0.1,0.5C146.5,81,146.7,80.9,146.8,80.8L146.8,80.8z"/>
		</g>
	</g>
	<g>
		<g>
			<path class="st1" d="M146.6,83.5c0.5-1.1,1.2-2,2.2-2.7c0.2-0.1,0.2-0.3,0.1-0.5c-0.1-0.2-0.3-0.3-0.5-0.1
				c-1.1,0.7-1.9,1.7-2.4,2.9c-0.1,0.2-0.1,0.4,0.1,0.5C146.3,83.7,146.6,83.7,146.6,83.5L146.6,83.5z"/>
		</g>
	</g>
	<g>
		<g>
			<path class="st1" d="M146.5,87.3c0.3-1.3,1.1-2.4,2.2-3.1c0.4-0.3,0-0.9-0.4-0.6c-1.3,0.8-2.2,2.1-2.6,3.6
				C145.7,87.6,146.4,87.8,146.5,87.3L146.5,87.3z"/>
		</g>
	</g>
	<g>
		<g>
			<path class="st1" d="M146.6,90.2c0.7-1.2,1.5-2.4,2.4-3.5c0.1-0.2,0.2-0.4,0-0.5c-0.1-0.1-0.4-0.2-0.5,0c-1,1.1-1.8,2.4-2.6,3.7
				C145.7,90.3,146.4,90.7,146.6,90.2L146.6,90.2z"/>
		</g>
	</g>
	<g>
		<g>
			<path class="st1" d="M80.7,84.2c0.2-1,0.5-2,0.9-2.9c0.1-0.2,0.1-0.4-0.1-0.5c-0.2-0.1-0.4-0.1-0.5,0.1c-0.4,1-0.8,2-1,3.1
				c0,0.2,0.1,0.4,0.3,0.5C80.4,84.5,80.7,84.4,80.7,84.2L80.7,84.2z"/>
		</g>
	</g>
</g>
<g>
	<g>
		<path class="st1" d="M101.1,110.2c-0.2-0.3-0.4-0.4-0.7-0.3c-0.3,0.1-0.5,0.3-0.6,0.5c-0.2,0.2-0.2,0.6,0,0.8
			c0.2,0.2,0.4,0.4,0.7,0.3c0.6,0,0.9-0.7,0.9-1.2c0-0.5-0.1-1.1-0.6-1.1c0.1,0.2,0.1,0.5,0.2,0.7c0.3-0.2,0.7-0.4,1-0.4
			c0.1,0,0.1,0,0.2,0c0,0,0.1,0,0.1,0.1c0.1,0.1,0.1,0.3,0.2,0.5c0,0.1,0,0.3-0.1,0.4c0,0.1-0.1,0.1-0.2,0.1c-0.2,0-0.4-0.2-0.4-0.4
			c-0.2,0-0.5,0.1-0.7,0.1c0,0.3,0.1,0.6,0.1,0.9c0,0.2,0.1,0.5,0.3,0.7c0.3,0.4,1.1,0.3,1.2-0.2c0.1-0.3-0.1-0.5-0.4-0.5
			c-0.4,0-1.2,0-1.4,0.6c-0.1,0.3,0.1,0.6,0.3,0.7c0.2,0.1,0.5,0.1,0.7,0.1c0.4,0,0.9-0.1,1.1-0.6c0.2-0.5-0.1-1-0.5-1.3
			c-0.2-0.1-0.5-0.2-0.8-0.3c-0.1,0-0.3-0.1-0.4-0.1c-0.1,0-0.2,0-0.2,0c-0.1,0-0.1,0.1-0.2,0.1c0.1,0,0.1,0,0.2,0c0,0,0,0,0,0
			c0.1,0,0.1,0.1,0.2,0.1c0,0.1,0,0.2,0,0.3c0,0,0,0,0,0c0,0,0-0.1,0.1-0.1c0-0.1,0-0.2,0-0.3c0-0.2-0.1-0.3-0.3-0.4
			c-0.1-0.1-0.3-0.1-0.4-0.1c-0.2,0-0.3,0.1-0.5,0c0.1,0.2,0.2,0.3,0.3,0.5c0.1-0.3,0.1-0.7,0.4-0.9c0.1-0.1,0.2-0.1,0.3-0.1
			c0.2,0.1,0.3,0.2,0.4,0.3c0.3,0.3,0.9-0.2,0.5-0.5c-0.2-0.2-0.4-0.4-0.7-0.5c-0.3-0.1-0.6-0.1-0.9,0.1c-0.5,0.3-0.7,0.9-0.9,1.4
			c0,0.2,0.1,0.4,0.3,0.5c0.2,0,0.4,0,0.5,0c0,0,0.1,0,0.1,0c0,0,0.1,0,0.1,0c0,0,0,0,0-0.1c0-0.1,0-0.2,0-0.1
			c0,0.1-0.1,0.1-0.1,0.2c0,0.2,0,0.3,0.1,0.5c0.1,0.1,0.3,0.2,0.5,0.1c0.1,0,0.1-0.1,0.3-0.1c0.2,0,0.5,0.1,0.7,0.2
			c0.1,0.1,0.1,0.1,0.2,0.2c0,0.1,0,0.1,0,0.1c0,0-0.1,0.1-0.1,0.1c-0.1,0-0.2,0-0.2,0.1c-0.1,0-0.2,0-0.3,0c0,0-0.1,0-0.1,0
			c0,0,0,0,0,0c0,0,0,0.1,0,0.1c0,0.1-0.1,0.1,0,0c0.1,0,0.1,0,0.2-0.1c0.1,0,0.3,0,0.4,0c-0.1-0.2-0.2-0.3-0.4-0.5c0,0.1,0,0,0,0
			c0,0,0,0,0,0c0,0,0,0,0,0c0,0,0,0,0,0c0,0,0,0,0,0c0,0,0,0,0,0c0,0,0,0,0,0c0,0,0-0.1-0.1-0.1c-0.1-0.3-0.1-0.7-0.2-1
			c-0.1-0.4-0.8-0.3-0.7,0.1c0,0.6,0.5,1.1,1.1,1.2c0.6,0,1.1-0.5,1.1-1.1c0-0.6-0.2-1.3-0.9-1.4c-0.6-0.1-1.2,0.2-1.7,0.5
			c-0.3,0.2-0.2,0.7,0.2,0.7c0,0-0.1,0-0.1,0c0,0,0,0,0,0c0,0,0,0,0,0c0,0,0,0,0,0.1c0,0,0,0,0,0.1c0,0,0,0.1,0,0.1
			c0,0.2,0,0.4-0.2,0.6c0,0,0,0,0,0c0,0-0.1,0,0,0c0,0,0,0,0,0c0,0,0,0,0,0c0,0,0,0,0,0c0,0,0.1-0.2,0.2-0.2c0,0,0,0,0,0
			c0,0.1-0.1-0.1-0.1-0.1C100.7,111,101.4,110.7,101.1,110.2L101.1,110.2z"/>
	</g>
</g>
<g>
	<g>
		<path class="st1" d="M71,108.1c-0.2,0.4-0.3,0.9-0.1,1.2c0.3,0.4,0.9,0.5,1.3,0.2c0.4-0.2,0.7-0.8,0.7-1.2c0-0.6-0.5-0.8-1-0.9
			c-0.3-0.1-0.6,0-0.8,0.2c-0.3,0.2-0.4,0.5-0.3,0.8c0.1,0.3,0.5,0.3,0.7,0.1c0.2-0.4,0.4-0.9,0.1-1.4c-0.3-0.4-0.9-0.4-1.3,0
			c-0.2,0.2-0.3,0.4-0.3,0.6c-0.1,0.3-0.1,0.5,0,0.8c0.2,0.4,0.7,0.6,1.1,0.6c0.5,0,1-0.3,1.3-0.7c0.2-0.2,0-0.6-0.3-0.6
			c-0.4,0-0.7,0.2-1,0.5c-0.3,0.4,0.1,0.8,0.5,0.5c0.3-0.2,0.5-0.6,0.6-0.9c0.1-0.2,0.1-0.4,0.1-0.5c0-0.2-0.1-0.4-0.1-0.5
			c0,0.1,0,0.1-0.1,0.2c0,0,0,0,0,0c0,0,0.1,0,0.2,0c0.1,0,0.3,0.1,0.4,0.2c0.1,0.1,0.2,0.1,0.3,0.2c0,0,0.1,0.1,0.1,0.1
			c0,0,0,0.1,0,0c0,0,0,0.1,0,0c0,0.2-0.2,0.4-0.4,0.5c-0.1,0.1-0.2,0.1-0.3,0.1c-0.1,0-0.1,0-0.2-0.1c0,0.2,0,0.3,0.1,0.5
			c0.1-0.1,0,0,0,0c0,0,0.1-0.1,0,0c0,0,0.1,0,0,0c0,0,0,0,0.1,0c0,0,0.1,0,0.1,0c0,0,0.1,0,0.1,0c0.1,0,0,0,0,0c0,0,0.1,0,0.1,0
			c-0.1,0,0.1,0.1,0.1,0c0,0,0.1,0.1,0,0c0,0,0,0.1,0,0.1c0,0,0,0,0,0c0,0.1,0-0.1,0,0c0,0,0,0.1,0,0.1c0,0,0,0.1,0,0.1
			c0,0.2-0.2,0.3-0.4,0.3c-0.1,0-0.2,0-0.3-0.1c-0.1-0.1-0.2-0.1-0.2-0.3c-0.1-0.2-0.4-0.2-0.5-0.1c-0.2,0.1-0.2,0.3-0.1,0.5
			c0.2,0.4,0.7,0.8,1.2,0.7c0.5,0,0.9-0.4,1-0.9c0.1-0.5-0.2-1-0.7-1.2c-0.4-0.1-1,0-1.2,0.4c-0.1,0.2-0.1,0.3,0.1,0.5
			c0.4,0.5,1,0.3,1.4,0c0.4-0.3,0.8-0.8,0.6-1.3c-0.2-0.5-0.7-0.8-1.1-0.9c-0.3-0.1-0.6-0.1-0.9,0c-0.1,0.1-0.2,0.1-0.3,0.3
			c-0.1,0.2,0,0.3,0,0.5c0.1,0.4-0.1,0.8-0.5,1.1c0.2,0.2,0.4,0.4,0.5,0.5c0.1-0.1,0.3-0.3,0.4-0.3c-0.1-0.2-0.2-0.4-0.3-0.6
			c-0.1,0.2-0.4,0.3-0.6,0.4c-0.1,0-0.2,0-0.3-0.1c0,0-0.1-0.1-0.1-0.1c0,0,0-0.1,0-0.1c0-0.1,0.1-0.3,0.1-0.4c0,0,0.1-0.1,0.1-0.1
			c0,0,0.1,0,0.1,0c0,0,0.1,0,0,0c0,0,0,0,0,0c0,0,0,0,0,0c0,0,0,0.1,0,0.1c0,0.2-0.1,0.3-0.2,0.4c0.2,0,0.5,0.1,0.7,0.1
			c0,0.1,0,0,0,0c0,0,0,0,0.1,0c0.1,0,0.3,0.1,0.4,0.1c0.1,0,0.1,0,0.2,0.1c-0.1,0,0-0.1,0,0c0,0.1-0.1,0.3-0.2,0.4
			c-0.1,0.1-0.1,0.2-0.2,0.2c0,0-0.1,0-0.1,0c0,0-0.1,0-0.1,0c0,0,0,0,0-0.1c0,0,0,0,0,0c0,0,0,0,0,0c0,0,0-0.1,0-0.1c0,0,0,0,0-0.1
			c0,0,0-0.1,0-0.1c0-0.1,0-0.1,0.1-0.2C71.9,108.1,71.3,107.7,71,108.1L71,108.1z"/>
	</g>
</g>
<g>
	<g>
		<path class="st1" d="M71.2,107.5C71.2,107.5,71.2,107.5,71.2,107.5C71.2,107.4,71.2,107.6,71.2,107.5c0-0.1,0-0.1,0-0.1
			c0,0,0,0,0-0.1c0-0.1,0,0,0,0c0,0,0-0.1,0-0.1c0,0,0-0.1,0.1-0.1c-0.1,0.1,0,0,0,0c0,0,0.1,0,0.1-0.1c-0.1,0.1,0,0,0,0
			c0,0,0,0,0,0c0,0,0,0,0,0c0,0,0.1,0,0,0c-0.1,0,0,0,0,0c0,0,0,0,0.1,0c0,0,0,0,0.1,0c0,0,0.1,0,0,0c-0.1,0,0,0,0,0c0,0,0,0,0.1,0
			c0,0,0.1,0,0.1,0c0,0-0.1,0,0,0c0,0,0,0,0.1,0c0,0,0.1,0,0.1,0c0,0-0.1,0,0,0c0,0,0,0,0.1,0c0.2,0.1,0.4,0,0.5-0.1
			c0.1-0.2,0-0.4-0.1-0.5c-0.4-0.2-0.9-0.2-1.3,0c-0.4,0.2-0.6,0.6-0.6,1.1c0,0.2,0.2,0.4,0.4,0.4C71,107.9,71.2,107.7,71.2,107.5
			L71.2,107.5z"/>
	</g>
</g>
<g>
	<g>
		<path class="st1" d="M70.6,108.1c-0.3,0.4-0.3,0.8-0.1,1.3c0.1,0.2,0.3,0.4,0.5,0.4c0.2,0.1,0.5,0.1,0.8,0.1
			c0.2,0,0.5-0.1,0.7-0.3c0.2-0.1,0.2-0.3,0.1-0.5c-0.1-0.2-0.3-0.2-0.5-0.1c-0.1,0-0.1,0.1-0.2,0.1c-0.1,0,0.1,0,0,0
			c0,0-0.1,0-0.1,0c0,0-0.1,0-0.1,0c0,0-0.1,0-0.2,0c0.1,0,0.1,0,0,0c0,0,0,0,0,0c0,0,0,0-0.1,0c0,0-0.1,0-0.1,0c0,0,0,0,0,0
			c0,0,0,0,0,0c0,0,0,0-0.1,0c0,0,0,0,0,0c0,0,0,0,0,0c0,0,0,0-0.1,0c0,0-0.1-0.1,0,0c0,0-0.1-0.1-0.1-0.1c0,0,0.1,0.1,0,0
			c0,0,0,0,0,0c0,0,0-0.1,0,0c0,0,0,0,0-0.1c0,0,0,0,0-0.1c0-0.1,0,0.1,0,0c0,0,0-0.1,0-0.1c0-0.1,0,0,0,0c0,0,0,0,0-0.1
			c0,0,0,0,0-0.1c0-0.1,0,0.1,0,0c0,0,0,0,0-0.1c0.1-0.1,0,0.1,0,0c0.1-0.1,0.1-0.2,0.1-0.3c0-0.1,0-0.2-0.1-0.3
			C71,107.9,70.7,107.9,70.6,108.1L70.6,108.1z"/>
	</g>
</g>
<g>
	<g>
		<path class="st1" d="M72.6,107.9c0.1-0.1,0.2-0.3,0.2-0.4c0,0,0-0.1,0-0.1c0,0,0-0.1,0-0.1c0,0,0-0.1-0.1-0.1c0,0-0.1-0.1-0.1-0.1
			c-0.1,0-0.2-0.1-0.3,0c-0.1,0-0.2,0.1-0.2,0.2c-0.1,0.1-0.2,0.3-0.2,0.4c0,0,0,0.1,0,0.1c0,0,0,0.1,0,0.1c0,0,0,0.1,0.1,0.1
			c0,0,0.1,0.1,0.1,0.1c0.1,0,0.2,0.1,0.3,0C72.5,108.1,72.6,108,72.6,107.9L72.6,107.9z"/>
	</g>
</g>
<g>
	<g>
		<path class="st1" d="M100.9,109.9c0.1-0.1,0.3-0.2,0.5-0.2c0,0,0,0,0,0c0,0,0,0,0.1,0c0,0,0.1,0,0.1,0c0.1,0,0.1,0,0.2-0.1
			c0.1,0,0,0,0.1,0c0,0,0.1,0,0.1,0c0,0,0.1,0,0.1,0c0.1,0-0.1,0,0,0c0.1,0,0.1,0,0.2,0c0.1,0,0,0,0,0c0,0,0.1,0,0.1,0
			c0,0,0.1,0.1,0,0c0,0,0,0,0.1,0.1c0,0,0.1,0.1,0,0.1c0,0,0,0.1,0,0.1c0,0.1,0-0.1,0,0c0,0,0,0.1,0,0.1c0-0.1,0-0.1,0,0
			c0,0,0,0,0,0c0,0,0,0,0,0c0,0,0,0,0,0c0,0,0,0.1,0,0.1c0-0.1,0-0.1,0,0c0,0,0,0,0,0c0,0,0,0,0,0c0,0,0,0,0,0c0,0,0,0-0.1,0.1
			c-0.1,0.1,0.1,0,0,0c-0.1,0,0,0,0,0c0,0-0.2,0,0,0c-0.2,0-0.4,0.2-0.4,0.4c0,0.2,0.2,0.4,0.4,0.4c0.3,0,0.6-0.2,0.7-0.5
			c0.1-0.3,0.2-0.6,0.1-0.9c-0.2-0.7-1-0.9-1.6-0.8c-0.4,0.1-0.8,0.3-1.1,0.4c-0.2,0.1-0.2,0.3-0.1,0.5
			C100.5,110,100.7,110,100.9,109.9L100.9,109.9z"/>
	</g>
</g>
<g>
	<g>
		<path class="st1" d="M76.2,116.8c0.5,1.3,1,2.7,1.6,4.1c0.5,1,1.1,2,2.2,2.4c2.7,1.1,4.7-2,6.1-3.7c-0.4-0.1-0.8-0.1-1.2-0.2
			c1.4,1.9,3,5.3,5.8,4.9c2.8-0.3,4.2-3.9,5.4-6c0.5-0.8-0.8-1.6-1.3-0.8c-0.6,1-1.1,1.9-1.7,2.9c-0.5,0.9-1.2,2-2.3,2.3
			c-1.1,0.3-2-0.6-2.6-1.4c-0.7-0.9-1.4-1.9-2-2.8c-0.3-0.4-0.8-0.6-1.2-0.2c-0.9,1.1-2.9,4.3-4.7,3.3c-0.7-0.4-1.1-1.4-1.4-2.1
			c-0.4-1.1-0.8-2.2-1.3-3.3C77.3,115.5,75.9,115.9,76.2,116.8L76.2,116.8z"/>
	</g>
</g>
<g>
	<g>
		<path class="st1" d="M111.3,115.2c4.5-0.7,9.1-1.1,13.6-1c1,0,1-1.5,0-1.5c-4.7-0.1-9.4,0.3-14,1.1
			C110,113.9,110.4,115.3,111.3,115.2L111.3,115.2z"/>
	</g>
</g>
<g>
	<g>
		<path class="st1" d="M110.1,121c3.5,0.4,6.9,0.9,10.4,1.3c0.4,0.1,0.7-0.4,0.8-0.8c0-0.4-0.3-0.7-0.8-0.8
			c-3.5-0.4-6.9-0.9-10.4-1.3c-0.4-0.1-0.7,0.4-0.8,0.8C109.3,120.7,109.7,121,110.1,121L110.1,121z"/>
	</g>
</g>
<g>
	<g>
		<path class="st1" d="M64.9,107.8c-4.7-1.9-9.7-3.2-14.7-3.9c-0.1,0.5-0.1,1-0.2,1.5c0.2,0,0.3,0,0.5,0c1,0.1,1-1.4,0-1.5
			c-0.2,0-0.3,0-0.5,0c-0.8-0.1-1,1.4-0.2,1.5c5,0.7,10,2,14.7,3.9C65.4,109.6,65.8,108.1,64.9,107.8L64.9,107.8z"/>
	</g>
</g>
<g>
	<g>
		<path class="st1" d="M62.2,111.6c-3,0.1-6,0.2-8.9,0.3c-1,0-1,1.5,0,1.5c3-0.1,6-0.2,8.9-0.3C63.1,113.1,63.1,111.6,62.2,111.6
			L62.2,111.6z"/>
	</g>
</g>
<g>
	<g>
		<g>
			<path class="st1" d="M163.2,9.3c-0.7,22.8-0.3,45.7,0.1,68.5c0.5,22.8,1.1,45.6,1,68.3c-0.1,12.8-0.4,25.7-1.1,38.5
				c-0.1,1.9,2.9,1.9,3,0c1.2-22.8,1.3-45.7,0.9-68.6c-0.4-22.8-1.1-45.5-1.3-68.3c-0.1-12.8,0-25.7,0.3-38.5
				C166.2,7.3,163.2,7.3,163.2,9.3L163.2,9.3z"/>
		</g>
	</g>
	<g>
		<g>
			<path class="st1" d="M176,185.9c-0.6-22.6-0.7-45.1-0.6-67.7c0.1-22.6,0.3-45.1,0.5-67.7c0.1-12.9,0.1-25.8,0-38.7
				c0-1.9-3-1.9-3,0c0.2,22.7,0,45.5-0.2,68.2c-0.2,22.5-0.4,45-0.2,67.6c0.1,12.8,0.3,25.6,0.6,38.3
				C173.1,187.8,176.1,187.8,176,185.9L176,185.9z"/>
		</g>
	</g>
	<g>
		<g>
			<path class="st1" d="M163.6,185.8c0.9,1.9,2.8,3.5,4.9,3.8c2.3,0.4,4.8-0.3,6.4-2c0.5-0.6,0.6-1.6,0-2.1c-0.6-0.5-1.5-0.6-2.1,0
				c-0.1,0.2-0.3,0.3-0.5,0.4c-0.1,0.1,0.1-0.1-0.1,0.1c-0.1,0.1-0.2,0.1-0.2,0.2c-0.2,0.1-0.4,0.2-0.5,0.3c-0.1,0-0.3,0.1-0.1,0
				c-0.1,0-0.2,0.1-0.3,0.1c-0.2,0.1-0.4,0.1-0.6,0.2c-0.1,0-0.3,0.1-0.1,0c-0.1,0-0.2,0-0.3,0c-0.2,0-0.5,0-0.7,0
				c-0.1,0-0.2,0-0.3,0c0.2,0,0.1,0-0.1,0c-0.2,0-0.4-0.1-0.6-0.2c-0.1,0-0.2-0.1-0.2-0.1c0.2,0.1,0,0-0.1,0
				c-0.2-0.1-0.4-0.2-0.5-0.3c-0.1,0-0.1-0.1-0.2-0.1c0,0-0.3-0.2-0.2-0.1c0.1,0.1-0.1-0.1-0.1-0.1c-0.1-0.1-0.2-0.1-0.2-0.2
				c-0.1-0.1-0.3-0.3-0.4-0.4c-0.1-0.2,0.1,0.2,0,0c-0.1-0.1-0.1-0.2-0.2-0.3c-0.1-0.2-0.2-0.4-0.3-0.6c-0.3-0.7-1.4-0.9-2.1-0.5
				C163.4,184.2,163.2,185.1,163.6,185.8L163.6,185.8z"/>
		</g>
	</g>
</g>
<g>
	<path class="st3" d="M159.8,174.7c-0.1-8-0.3-16-0.6-24c-0.1-1.6-1.9-1.9-2.7-1c-3.3,0.1-6.6,0-10,0.2c-1.3,0.1-2.5,0.5-2.9,1.9
		c-0.5,1.5-0.2,3.3-0.3,4.9c-0.1,6.9-0.1,13.8,0.1,20.8c0.1,1.7,0.1,3.4,0.2,5.1c0.1,1.5-0.1,3.3,0.9,4.5c0.9,1.1,2.3,1.1,3.6,1.1
		c1.8,0.1,3.6,0,5.3-0.1c2.3-0.1,6.2,0.3,6.4-2.9C160.1,181.8,159.8,178.2,159.8,174.7z"/>
	<g>
		<g>
			<path class="st4" d="M147,149.8c0.3-1.4,0.8-2.4,1.8-3.4c0.5-0.5,0.9-0.8,1.5-1.1c0.2-0.1,0.2-0.1,0.1,0c0.1,0,0.2-0.1,0.3-0.1
				c0.2,0,0.3-0.1,0.5-0.1c0,0,0.5-0.1,0.2-0.1c0.2,0,0.4,0,0.6,0c0.4,0,1.1,0.2,1.5,0.4c0.7,0.3,1,0.6,1.5,1.1
				c0.3,0.3,0.3,0.3,0.5,0.6c0.1,0.1,0.2,0.3,0.2,0.4c0.1,0.2,0.1,0.2,0,0.1c0,0.1,0.1,0.1,0.1,0.2c0,0.2,0.1,0.3,0.1,0.5
				c0-0.3,0,0.1,0,0.2c0,0.1,0,0.5,0,0.2c0,0.2-0.1,0.4-0.2,0.6c-0.3,0.8,0.3,1.6,1,1.8c0.8,0.2,1.6-0.3,1.8-1c1-3-1.1-6.1-3.8-7.4
				c-2.9-1.4-6.3-0.6-8.5,1.7c-1.2,1.2-2,2.8-2.4,4.5c-0.2,0.8,0.2,1.6,1,1.8C145.9,151,146.8,150.6,147,149.8L147,149.8z"/>
		</g>
	</g>
	<g>
		<g>
			<path class="st1" d="M144.6,150.2c5,1,10.1,0.7,15.1,0.3c-0.2-0.2-0.5-0.5-0.8-0.8c0.1,12.6,0.1,25.2,0.2,37.8
				c0.2-0.2,0.5-0.5,0.8-0.8c-4.1,0.5-8.2,0.3-12.3,0.1c-0.7,0-1.3-0.1-2-0.1c0,0-0.4-0.1-0.5-0.1c-0.1,0-0.5-0.3,0.1,0.2
				c0.4,0.4,0.2-0.1,0.2-0.4c-0.1-1.8-0.2-3.6-0.3-5.4c-0.3-8.3-0.5-16.7-0.6-25c0-1.5,0-3.1,0-4.6
				C144.7,151.1,144.7,150.6,144.6,150.2c0.1-0.2,0.1-0.3,0.1-0.4c-0.1-0.2,0,0-0.1,0.1c-0.3,0.1-0.6,0.2-0.8,0.3
				c-0.1-0.1-0.3-0.2-0.4-0.3c0.1,0.2,0.4,0.4,0.6,0.4c0.3,0,0.5,0,0.8-0.1c1-0.1,1-1.6,0-1.5c-0.3,0-0.5,0-0.8,0.1
				c0.2,0.1,0.4,0.2,0.6,0.4c-0.1-0.1-0.3-0.3-0.5-0.4c-0.4-0.1-0.6,0.1-0.8,0.3c-0.3,0.4-0.2,1.3-0.2,1.7c0,1.3,0,2.5,0,3.8
				c0,4.1,0.1,8.2,0.2,12.4c0.1,4.6,0.2,9.2,0.4,13.8c0.1,1.9,0.2,3.8,0.3,5.7c0,0.7,0,1.3,0.6,1.6c0.4,0.2,0.9,0.2,1.3,0.2
				c4.6,0.4,9.4,0.5,13.9,0c0.4,0,0.8-0.3,0.8-0.8c-0.1-12.6-0.1-25.2-0.2-37.8c0-0.4-0.3-0.8-0.8-0.8c-4.9,0.3-9.9,0.7-14.7-0.3
				C144.1,148.6,143.7,150,144.6,150.2z"/>
		</g>
	</g>
</g>
<g>
	<g>
		<path class="st5" d="M69,82.8c0.5-0.4,0.6-0.5,0.4-0.4c0.1-0.1,0.2-0.1,0.4-0.2c0,0,0,0,0,0c0.1,0,0.3,0,0.4-0.1c0,0-0.1,0-0.1,0
			c0.1,0,0.3,0,0.4,0.1C70,82.2,69.7,82,69.2,82c-0.6,0-1.1,0.2-1.6,0.6c-0.6,0.5-0.9,1.3-1,2.1c-0.1,1-0.2,1.9,0,2.9
			c0.2,0.9,0.8,1.8,1.6,2.3c0.9,0.5,1.9,0.6,2.9,0.1c1-0.5,1.4-1.6,1.7-2.5c0.3-1.1,0.3-2.2-0.2-3.2C72,83.3,71,82.7,70,82.7
			c-1.1,0-2.1,0.7-2.5,1.6c-0.4,0.8-0.5,1.7-0.6,2.5c0,0.8,0.7,1.5,1.5,1.5c0.8,0,1.5-0.7,1.5-1.5c0-0.2,0-0.4,0.1-0.6
			c0,0.1,0,0.3-0.1,0.4c0-0.4,0.1-0.7,0.3-1c-0.1,0.1-0.1,0.2-0.2,0.4c0-0.1,0.1-0.2,0.1-0.2c0,0,0.1-0.1,0.1-0.1
			c0.1-0.2-0.2,0.3-0.1,0.1c0,0,0.1-0.1,0.1-0.1c0.2-0.2-0.1,0.1-0.2,0.1c0.1,0,0.2-0.1,0.2-0.1c-0.1,0.1-0.2,0.1-0.4,0.2
			c0.1,0,0.2-0.1,0.3-0.1c-0.1,0-0.3,0-0.4,0.1c0.1,0,0.2,0,0.3,0c-0.1,0-0.3,0-0.4-0.1c0.1,0,0.2,0.1,0.3,0.1
			c-0.1-0.1-0.2-0.1-0.4-0.2c0.1,0,0.2,0.1,0.2,0.1c-0.2-0.2-0.3-0.2-0.1-0.1c0,0,0.1,0.1,0.1,0.1c0,0,0.1,0.1,0.1,0.1
			c-0.2-0.2-0.2-0.3-0.1-0.1c0,0.1,0.1,0.2,0.1,0.3c-0.1-0.1-0.1-0.2-0.2-0.4c0.1,0.2,0.1,0.3,0.1,0.5c0-0.1,0-0.3-0.1-0.4
			c0,0.3,0,0.5,0,0.8c0-0.1,0-0.3,0.1-0.4c-0.1,0.5-0.2,0.9-0.4,1.4c0.1-0.1,0.1-0.2,0.2-0.4c0,0.1-0.1,0.2-0.1,0.3c0,0,0,0,0,0.1
			c-0.1,0.1-0.1,0.1,0.1-0.1c0,0-0.1,0.1-0.1,0.1c-0.1,0.1,0,0,0.2-0.1c-0.1,0-0.1,0.1-0.2,0.1c0.1-0.1,0.2-0.1,0.4-0.2
			c-0.1,0-0.2,0.1-0.3,0.1c0.1,0,0.3,0,0.4-0.1c-0.1,0-0.2,0-0.4,0c0.1,0,0.3,0,0.4,0.1c-0.1,0-0.3-0.1-0.4-0.1
			c0.1,0.1,0.2,0.1,0.4,0.2c-0.1,0-0.2-0.1-0.3-0.1c-0.1-0.1-0.2-0.2,0.1,0.1c0,0-0.1-0.1-0.1-0.1c0,0-0.1-0.1-0.1-0.1
			c-0.2-0.2,0.2,0.3,0.1,0.1c-0.1-0.1-0.1-0.2-0.2-0.4c0.1,0.1,0.1,0.2,0.2,0.4c-0.1-0.2-0.1-0.5-0.2-0.7c0,0.1,0,0.3,0.1,0.4
			c-0.1-0.6,0-1.2,0.1-1.8c0,0.1,0,0.3-0.1,0.4c0-0.3,0.1-0.5,0.2-0.8c-0.1,0.1-0.1,0.2-0.2,0.4c0-0.1,0.1-0.2,0.1-0.2
			c0-0.1,0.2-0.3,0,0c-0.2,0.2,0,0,0,0c-0.2,0.3-0.3,0.2-0.1,0.1c-0.1,0.1-0.2,0.1-0.4,0.2c0.1,0,0.1,0,0.2-0.1
			c-0.1,0-0.3,0-0.4,0.1c0.1,0,0.1,0,0.2,0c-0.1,0-0.3,0-0.4-0.1c0.2,0,0.5,0.2,0.7,0.2c0.8,0.1,1.6-0.1,2-0.8
			c0.4-0.7,0.2-1.7-0.5-2.1C70.4,81.9,69.4,82.1,69,82.8L69,82.8z"/>
	</g>
</g>
<g>
	<g>
		<path class="st5" d="M143.5,90.5c0.3-0.8,0.5-1.6,0.8-2.4c-0.1,0.2-0.3,0.4-0.4,0.7c0,0,0,0,0,0c-0.1,0.1-0.2,0.2-0.3,0.2
			c0,0,0,0,0,0c-0.1,0.1-0.2,0.1-0.4,0.2c0,0,0.1,0,0.1,0c-0.1,0-0.3,0-0.4,0.1c0,0,0.1,0,0.1,0c-0.1,0-0.3,0-0.4-0.1
			c0,0,0.1,0,0.1,0c-0.1-0.1-0.2-0.1-0.4-0.2c0,0,0.1,0,0.1,0.1c-0.1-0.1-0.2-0.2-0.3-0.2c0,0,0.1,0.1,0.1,0.1
			c-0.1-0.1-0.2-0.2-0.2-0.3c0,0,0,0.1,0,0.1c-0.1-0.1-0.1-0.2-0.2-0.4c0,0.1,0,0.1,0.1,0.2c0-0.1,0-0.3-0.1-0.4c0,0.1,0,0.2,0,0.3
			c0-0.1,0-0.3,0.1-0.4c0,0.2-0.1,0.5-0.2,0.7c0.1-0.1,0.1-0.2,0.2-0.4c-0.1,0.3-0.3,0.5-0.4,0.7c0.1-0.1,0.2-0.2,0.2-0.3
			c-0.1,0.2-0.3,0.4-0.5,0.5c0.1-0.1,0.2-0.2,0.3-0.2c-0.1,0.1-0.2,0.2-0.4,0.2c0.1-0.1,0.2-0.1,0.4-0.2c-0.1,0-0.2,0.1-0.3,0.1
			c0.1,0,0.3,0,0.4-0.1c-0.1,0-0.2,0-0.3,0c0.1,0,0.3,0,0.4,0.1c-0.1,0-0.2,0-0.3-0.1c0.1,0.1,0.2,0.1,0.4,0.2
			c-0.1,0-0.2-0.1-0.2-0.1c0.1,0.1,0.2,0.2,0.3,0.2c-0.1-0.1-0.1-0.1-0.2-0.2c0.1,0.1,0.2,0.2,0.2,0.3c-0.1-0.1-0.1-0.2-0.2-0.3
			c0.1,0.1,0.1,0.2,0.2,0.4c-0.1-0.1-0.1-0.3-0.1-0.4c0,0.1,0,0.3,0.1,0.4c0-0.2,0-0.4,0-0.5c0,0.1,0,0.3-0.1,0.4
			c0-0.2,0.1-0.3,0.1-0.5c-0.1,0.1-0.1,0.2-0.2,0.4c0.1-0.2,0.2-0.4,0.4-0.6c-0.1,0.1-0.2,0.2-0.2,0.3c0.3-0.4,0.7-0.7,1-1
			c-0.8-0.1-1.6-0.2-2.4-0.3c0.2,0.2,0.3,0.4,0.4,0.6c-0.1-0.1-0.1-0.2-0.2-0.4c0.1,0.2,0.2,0.5,0.2,0.8c0-0.1,0-0.3-0.1-0.4
			c0,0.3,0,0.5,0,0.8c0-0.1,0-0.3,0.1-0.4c0,0.2-0.1,0.5-0.2,0.7c0.1-0.1,0.1-0.2,0.2-0.4c-0.1,0.1-0.1,0.3-0.2,0.4
			c0.1-0.1,0.2-0.2,0.2-0.3c-0.1,0.1-0.2,0.2-0.2,0.2c0.1-0.1,0.2-0.2,0.3-0.2c-0.1,0.1-0.2,0.1-0.2,0.1c0.1-0.1,0.2-0.1,0.4-0.2
			c-0.1,0-0.1,0-0.2,0.1c0.1,0,0.3,0,0.4-0.1c0,0-0.1,0-0.1,0c0.1,0,0.3,0,0.4,0.1c0,0-0.1,0-0.1,0c0.1,0.1,0.2,0.1,0.4,0.2
			c0,0-0.1,0-0.1-0.1c0.1,0.1,0.2,0.2,0.3,0.2c0,0-0.1,0-0.1-0.1c0.1,0.1,0.2,0.2,0.2,0.3c0-0.1-0.1-0.1-0.1-0.2
			c0.1,0.1,0.1,0.2,0.2,0.4c-0.1-0.2-0.1-0.3-0.1-0.5c0,0.1,0,0.3,0.1,0.4c0-0.3,0-0.6,0-0.9c0,0.1,0,0.3-0.1,0.4
			c0-0.3,0.1-0.6,0.3-0.9c-0.1,0.1-0.1,0.2-0.2,0.4c0.1-0.3,0.3-0.5,0.5-0.8c-0.1,0.1-0.2,0.2-0.2,0.3c0.1-0.1,0.2-0.3,0.4-0.4
			c-0.6,0.1-1.2,0.2-1.8,0.2c0.1,0,0.2,0.1,0.2,0.2c-0.1-0.1-0.2-0.2-0.3-0.2c0.1,0.1,0.2,0.2,0.3,0.3c-0.1-0.1-0.2-0.2-0.2-0.3
			c0.1,0.1,0.2,0.3,0.3,0.5c-0.1-0.1-0.1-0.2-0.2-0.4c0.1,0.2,0.1,0.4,0.2,0.6c0-0.1,0-0.3-0.1-0.4c0,0.2,0,0.5,0,0.7
			c0-0.1,0-0.3,0.1-0.4c0,0.2-0.1,0.4-0.2,0.6c0.1-0.1,0.1-0.2,0.2-0.4c-0.1,0.2-0.2,0.3-0.3,0.5c0.1-0.1,0.2-0.2,0.2-0.3
			c-0.1,0.1-0.2,0.3-0.4,0.4c0.1-0.1,0.2-0.2,0.3-0.2c-0.1,0.1-0.2,0.1-0.3,0.2c-0.3,0.2-0.6,0.6-0.7,0.9c-0.1,0.4-0.1,0.8,0.2,1.2
			c0.2,0.3,0.5,0.6,0.9,0.7c0.4,0.1,0.8,0,1.2-0.2c1.2-0.6,1.9-2,1.9-3.3c0.1-1.3-0.6-2.7-1.8-3.4c-0.6-0.3-1.3-0.2-1.8,0.2
			c-1.3,1.2-1.9,3.2-1.4,4.9c0.2,0.7,0.7,1.3,1.5,1.5c0.8,0.2,1.5-0.1,2-0.6c0.7-0.6,1-1.7,1.1-2.6c0.1-0.9-0.2-2-0.8-2.7
			c-0.1-0.2-0.3-0.4-0.5-0.5c-0.2-0.1-0.4-0.2-0.6-0.2c-0.5-0.1-0.9,0.1-1.3,0.4c-0.9,0.7-1.7,1.6-1.9,2.8c-0.1,0.7-0.1,1.4,0.3,2.1
			c0.3,0.7,0.9,1.1,1.6,1.3c0.7,0.2,1.5,0.1,2.1-0.2c0.6-0.3,1-0.8,1.4-1.3c0.8-1.2,1.2-3.2-0.3-4.1c-0.6-0.3-1.3-0.4-1.9,0
			c-0.1,0.1-0.2,0.2-0.3,0.3c-0.2,0.2-0.3,0.5-0.4,0.8c-0.1,0.1-0.1,0.3-0.2,0.4c-0.2,0.6-0.4,1.2-0.6,1.9c-0.3,0.7,0.3,1.7,1,1.8
			C142.5,91.7,143.2,91.3,143.5,90.5L143.5,90.5z"/>
	</g>
</g>
<g>
	<g>
		<path class="st5" d="M145.5,89.3c0.3-0.8-0.7-1.6-1.4-1.3c-0.6,0.3-0.5,0.8-0.5,1.3c0,0.5,0,0.9-0.1,1.4c-0.1,1.8-0.1,3.7-0.2,5.5
			c0.5-0.1,1-0.1,1.5-0.2c-0.5-1.5-0.6-3.1-0.4-4.7c0.1-0.4-0.1-0.8-0.5-0.9c-0.4-0.1-0.9,0.1-0.9,0.5c-0.3,1.8-0.2,3.7,0.4,5.5
			c0.2,0.8,1.4,0.6,1.5-0.2c0.1-2.5,0.2-5,0.3-7.5c-0.1,0.2-0.1,0.4-0.2,0.5c0,0,0,0,0.1,0c-0.1,0.1-0.2,0.1-0.3,0.2
			c-0.3,0-0.5-0.2-0.5-0.5c-0.1,0.4,0.2,0.8,0.5,0.9C145,89.9,145.4,89.7,145.5,89.3L145.5,89.3z"/>
	</g>
</g>
<g>
	<g>
		<path class="st5" d="M67.7,87.1c0,2.3-0.1,4.5-0.1,6.8c0.5-0.1,1-0.1,1.5-0.2c-0.5-2.3-0.8-4.7-0.8-7.1c0-1-1.5-1-1.5,0
			c0.1,2.5,0.4,5,0.9,7.5c0.2,0.8,1.5,0.6,1.5-0.2c0-2.3,0.1-4.5,0.1-6.8C69.2,86.1,67.7,86.1,67.7,87.1L67.7,87.1z"/>
	</g>
</g>
<g>
	<g>
		<path class="st1" d="M142.4,100.1c-0.3,0.7-0.6,1.3-0.8,2c0.2,0.1,0.5,0.1,0.7,0.2c0.8-2,1.6-4,2.4-5.9c0.2-0.4-0.5-0.7-0.7-0.3
			c-2.6,6-5.2,11.9-7.9,17.9c-2.5,5.5-4.8,11.5-8.6,16.3c-6.6,8.5-17.5,11.8-27.6,13.7c-4.5,0.8-12.9,1.1-12.9,7.5
			c0,0.5,0.7,0.5,0.8,0c0-3.5,3.5-5.1,6.4-5.7c2.5-0.5,5.1-0.9,7.6-1.4c4.9-1,9.7-2.3,14.3-4.4c4.3-2,8.4-4.8,11.5-8.5
			c3.7-4.4,5.9-9.9,8.3-15.1c3-6.6,5.9-13.2,8.8-19.9c-0.2-0.1-0.5-0.2-0.7-0.3c-0.8,2-1.6,4-2.4,5.9c-0.2,0.5,0.5,0.6,0.7,0.2
			c0.3-0.7,0.6-1.3,0.8-2C143.3,99.9,142.6,99.7,142.4,100.1L142.4,100.1z"/>
	</g>
</g>
<g>
	<g>
		<path class="st1" d="M67.6,93.7c-6.3,7.7-16.8,14.8-16.3,25.9c0.5,10.9,11.6,16.6,19.8,21.4c3,1.7,6,3.5,9,5.2
			c2.4,1.4,5.3,2.9,6,5.8c0.1,0.5,0.8,0.3,0.7-0.2c-0.4-1.9-1.8-3.3-3.3-4.4c-2.2-1.5-4.6-2.8-6.9-4.1c-4.8-2.8-9.8-5.3-14.3-8.5
			c-4.3-2.9-8.2-6.8-9.7-11.9c-1.5-5.2,0.3-10.5,3.2-14.8c3.5-5.2,8.4-9.1,12.3-13.9C68.4,93.9,67.9,93.3,67.6,93.7L67.6,93.7z"/>
	</g>
</g>
<g>
	<g>
		<path class="st1" d="M86.6,153.1c0.7-0.5,1.1-1.4,0.8-2.2c-0.2,0.1-0.4,0.2-0.6,0.4c0,0,0,0,0.1,0.1c0,0,0,0,0,0c0,0,0,0,0,0
			c0,0,0.1,0.1,0.1,0.1c0,0,0,0,0,0.1c0,0,0,0,0,0c0,0,0-0.1,0,0c0,0.1,0,0.1,0.1,0.2c0,0,0,0.1,0,0.1c0,0,0,0,0,0.1c0,0,0,0,0,0
			c0,0,0,0.2,0,0.2c0,0,0,0.1,0,0.1c0,0.1,0-0.1,0,0c0,0.1,0,0.1,0,0.2c0.1-0.1,0.2-0.2,0.4-0.3c0,0,0,0-0.1,0c0,0,0,0,0,0
			c0,0,0,0,0,0c0,0-0.1,0-0.1,0c0.1,0,0,0,0,0c0,0,0,0,0,0c-0.1,0,0,0,0,0c0,0,0,0,0,0c0,0,0,0,0,0c-0.1-0.1,0,0,0,0
			c0,0,0-0.1-0.1-0.1c0,0.1,0,0,0,0c0,0,0,0,0-0.1c0,0,0,0.1,0,0c0,0,0,0,0-0.1c-0.1,0.1-0.1,0.2-0.2,0.3c0,0-0.1,0,0,0c0,0,0,0,0,0
			c0,0-0.1,0,0,0c0,0,0,0,0,0c0,0,0,0,0,0c0,0,0,0,0,0c0,0,0,0,0,0c0,0-0.1,0,0,0c0,0,0,0,0.1,0c0,0-0.1-0.1,0,0c0,0,0,0,0,0
			c0,0,0.1,0.1,0,0c0-0.1,0,0,0,0c0,0,0,0,0,0.1c0-0.1,0-0.1,0,0c0,0,0,0,0,0c0,0,0,0.1,0,0.1c0-0.1,0,0,0,0c0,0,0,0,0,0
			c0,0,0-0.1,0,0c0,0,0,0,0,0c0,0,0-0.1,0,0c0,0,0,0,0,0c0,0,0,0,0,0c0,0,0,0-0.1,0.1c0.1,0,0.2-0.1,0.3-0.1c0.1,0,0,0,0,0
			c0,0,0,0-0.1,0c0,0-0.1,0,0,0c-0.1,0-0.1-0.1-0.2-0.1c-0.1,0,0.1,0.1,0,0c0,0,0,0,0,0c0,0-0.1-0.1-0.1-0.1c0,0,0-0.1,0,0
			c0,0.1,0,0,0,0c0,0,0-0.1-0.1-0.1c0,0,0-0.1-0.1-0.1c0,0,0,0.1,0,0c0,0,0,0,0-0.1c0,0,0-0.1,0-0.1c0,0,0-0.1,0-0.1c0,0,0,0.1,0,0
			c0,0,0-0.1,0-0.1c0,0,0,0,0,0c0,0,0-0.1,0,0c0,0,0-0.1,0-0.1c0,0,0.1-0.2,0-0.1c-0.1,0.1-0.3,0.1-0.4,0.2c0,0,0,0,0,0
			c0,0-0.1,0,0,0c0,0,0,0,0,0c0,0-0.1-0.1,0,0c0.1,0,0-0.1,0,0c0,0.1,0-0.1,0,0c0,0,0,0,0,0c0,0,0,0,0,0c0,0,0-0.1,0,0
			c0,0,0,0.1,0,0.1c0,0,0,0,0,0.1c0,0,0-0.1,0,0c0,0,0,0.1,0,0.1c0,0,0,0.1,0,0.1c0,0,0,0,0,0c0,0,0,0.1,0,0c0-0.1,0,0,0,0
			c0,0,0,0,0,0c0,0,0,0.1-0.1,0.1c-0.1,0.2-0.2,0.3-0.3,0.5c-0.1,0.2,0,0.4,0.1,0.5c0.2,0.1,0.4,0,0.5-0.1c0.2-0.3,0.5-0.6,0.6-1.1
			c0-0.2,0-0.4,0-0.6c-0.1-0.2-0.3-0.4-0.5-0.4c-0.1,0-0.4,0-0.4,0.2c-0.2,0.3-0.2,0.7-0.1,1.1c0.1,0.3,0.3,0.6,0.6,0.8
			c0.1,0.1,0.3,0.2,0.5,0.2c0.1,0,0.1,0,0.2,0c0.1,0,0.2-0.1,0.3-0.1c0.1-0.1,0.1-0.1,0.2-0.2c0.2-0.3,0.1-0.7-0.1-1
			c-0.1-0.2-0.3-0.3-0.5-0.4c-0.2-0.1-0.4,0-0.6,0.1c-0.1,0.1-0.2,0.2-0.2,0.3c0,0.6,0.5,1.1,1.1,1.1c0.2,0,0.3-0.1,0.4-0.3
			c0.2-0.6,0-1.3-0.4-1.7c-0.3-0.3-0.7,0-0.6,0.4c0,0,0,0.1,0,0.1c0,0,0,0,0,0c0,0,0,0.1,0,0c0-0.1,0,0,0,0c0,0,0,0,0,0.1
			c0,0,0,0.1,0,0.1c0,0,0,0.1,0,0.1c0,0.1,0-0.1,0,0c0,0,0,0,0,0.1c0,0.1,0,0.2-0.1,0.2c0,0,0,0,0,0c0,0,0-0.1,0,0
			c0,0,0,0.1-0.1,0.1c0,0,0,0.1-0.1,0.1c0,0,0,0,0,0.1c0,0-0.1,0.1,0,0c0,0,0,0,0,0c0,0,0,0,0,0c0,0-0.1,0.1-0.1,0.1c0,0,0,0,0,0
			c0,0-0.1,0,0,0c0,0-0.1,0-0.1,0.1c-0.2,0.1-0.2,0.3-0.1,0.5C86.2,153.2,86.4,153.3,86.6,153.1L86.6,153.1z"/>
	</g>
</g>
<g>
	<g>
		<path class="st1" d="M86.3,152.2c-0.7,4-6.8,3.1-9.6,2.7c-3.8-0.6-7.6-1.6-11.1-3.1c-7.2-3-13.7-7.6-18.8-13.5
			c-2.9-3.4-5.3-7.1-7.1-11.2c-0.2-0.4-0.8-0.1-0.6,0.4c6.9,15.2,22.1,26.3,38.7,28.3c3,0.4,8.6,0.7,9.4-3.4
			C87.1,152,86.4,151.8,86.3,152.2L86.3,152.2z"/>
	</g>
</g>
<g>
	<path class="st0" d="M62.3,118c-1.5,0.1-3.8,0.2-4.8-1.2c-0.9-1.3-0.3-3.7-0.1-5.2c0.1-1.1,0.5-2.6,0.1-3.6
		c-0.5-1.1-1.6-1.3-2.6-1.5c-7-1.2-14.1-2.8-21.1-3.4c-0.2-0.2-0.4-0.3-0.8-0.3c-1.5-0.1-3-0.1-4.4-0.2c-0.5,0-1,0.6-0.9,1.1
		c1.2,5.6,1.2,11.1,0.8,16.9c-0.1,1.7-0.1,3.6,1.2,4.9c1.4,1.5,3.4,1.6,5.3,1.6c5.6,0,11.1-0.9,16.6-0.3c2.4,0.3,3.9,0,5.7-1.5
		c2.1-1.7,4.1-3.6,5.9-5.6C63.8,119,63.1,117.9,62.3,118z"/>
	<g>
		<g>
			<path class="st1" d="M26.8,101.9c-0.1,8.2,0.5,16.4,1.1,24.6c0.1,1,1.6,1,1.5,0c-0.7-8.2-1.2-16.4-1.1-24.6
				C28.3,100.9,26.8,100.9,26.8,101.9L26.8,101.9z"/>
		</g>
	</g>
	<g>
		<g>
			<path class="st1" d="M28.7,127.3c8.8,0.5,17.6,0.8,26.4,0.7c1,0,1-1.5,0-1.5c-8.8,0.1-17.6-0.2-26.4-0.7
				C27.7,125.7,27.7,127.2,28.7,127.3L28.7,127.3z"/>
		</g>
	</g>
	<g>
		<g>
			<path class="st1" d="M56.4,127.2c1.1-6.6,2-13.3,2.7-20c0.1-1-1.4-1-1.5,0c-0.7,6.6-1.5,13.1-2.6,19.6
				C54.8,127.7,56.2,128.1,56.4,127.2L56.4,127.2z"/>
		</g>
	</g>
	<g>
		<g>
			<path class="st1" d="M27.9,102.6c9.9,1.7,19.8,3.3,29.6,5.1c0.9,0.2,1.3-1.3,0.4-1.4c-9.9-1.7-19.8-3.3-29.6-5.1
				C27.3,101,26.9,102.5,27.9,102.6L27.9,102.6z"/>
		</g>
	</g>
	<g>
		<g>
			<g>
				<path class="st1" d="M56.1,127.8c3.4-1.8,5.3-5.5,8.5-7.6c0.7-0.4,0.4-1.3-0.4-1.4c-0.1,0-0.2,0-0.3,0c0.1,0.5,0.1,1,0.2,1.5
					c0.9-0.2,1.4-1.1,1.2-2c-0.1-0.3-0.4-0.5-0.7-0.6c-0.2,0-0.5-0.1-0.7-0.1c0.1,0.5,0.1,1,0.2,1.5c0.1,0,0.2,0,0.3-0.1
					c0.8-0.2,0.6-1.2,0-1.4c-2.3-0.9-4.6-1.4-7-1.6c-1-0.1-1,1.4,0,1.5c2.3,0.2,4.5,0.7,6.6,1.6c0-0.5,0-1,0-1.4
					c-0.1,0-0.2,0-0.3,0.1c-0.4,0.1-0.6,0.5-0.5,0.8c0.1,0.4,0.4,0.6,0.7,0.7c0.2,0,0.5,0.1,0.7,0.1c-0.2-0.2-0.5-0.4-0.7-0.6
					c0,0.1-0.1,0.1-0.2,0.2c-0.9,0.2-0.6,1.4,0.2,1.5c0.1,0,0.2,0,0.3,0c-0.1-0.5-0.3-0.9-0.4-1.4c-3.2,2.1-5.1,5.7-8.5,7.6
					C54.5,127,55.3,128.3,56.1,127.8L56.1,127.8z"/>
			</g>
		</g>
	</g>
	<g>
		<path class="st6" d="M44.6,113.8c-0.3,0.6-0.6,1.2-0.9,1.8c-0.5,0.8-1.1,1.7-2,2c-0.8,0.3-1.8,0-2.5-0.6c-0.7-0.6-1.1-1.4-1.1-2.3
			c0-0.4,0-0.9,0.4-1.1c0.2-0.1,0.4-0.1,0.6,0c1.4,0.2,2.5,1.1,3.5,2.1c0.9,1,1.7,2.2,2.6,3.2c0.2-1.6,0-3.2-0.5-4.7"/>
		<g>
			<path class="st1" d="M44.3,113.7c-0.5,1.1-1,2.3-1.9,3.1c-0.9,0.8-2.2,0.7-3-0.1c-0.4-0.4-0.7-1-0.8-1.6
				c-0.1-0.2-0.1-0.5-0.1-0.7c0.1-0.3,0.2-0.4,0.5-0.3c1.2,0.1,2.2,0.9,3,1.7c1,1.1,1.8,2.3,2.8,3.5c0.2,0.2,0.6,0.1,0.6-0.2
				c0.2-1.7,0.1-3.3-0.5-4.9c-0.2-0.4-0.9-0.3-0.7,0.2c0.5,1.4,0.7,3,0.5,4.5c0.2-0.1,0.4-0.1,0.6-0.2c-1-1.2-1.9-2.6-3-3.7
				c-0.5-0.5-1.1-1-1.8-1.3c-0.6-0.3-1.4-0.6-2-0.4c-1.4,0.4-0.6,2.7-0.1,3.4c0.8,1.1,2.3,1.8,3.6,1.2c1.5-0.6,2.3-2.4,2.9-3.8
				C45.1,113.6,44.5,113.2,44.3,113.7L44.3,113.7z"/>
		</g>
	</g>
</g>
</svg>
