<?xml version="1.0" encoding="utf-8"?>
<!-- Generator: Adobe Illustrator 26.3.1, SVG Export Plug-In . SVG Version: 6.00 Build 0)  -->
<svg version="1.1" id="Calque_1" xmlns="http://www.w3.org/2000/svg" xmlns:xlink="http://www.w3.org/1999/xlink" x="0px" y="0px"
	 viewBox="0 0 200 200" style="enable-background:new 0 0 200 200;" xml:space="preserve">
<style type="text/css">
	.st0{fill:#666666;}
	.st1{fill:#E7F4DF;}
	.st2{fill:#FFFFCC;}
	.st3{fill:#9999CC;}
	.st4{fill:#FD5A5C;}
	.st5{fill:#CCCCCC;}
	.st6{fill:#79A2D8;}
</style>
<g>
	<g>
		<path class="st0" d="M61.7,121.8c-3.9-1.1-6.5-3.6-8.7-7c-2.3-3.3-4.1-7-6.9-9.9c-2.8-2.9-6.4-4.9-10.4-5.7
			c-2.1-0.4-4.3-0.5-6.4,0.1c-4,1.3-6.8,5.3-7.2,9.5c-0.4,4.2,1.5,8.4,4.5,11.3s4.9,4.3,9.5,6.2c-1.6,0.6-3.2,4.1-3.1,4.5
			c0.2,0.7,1.8-0.1,2.5-0.1c4.6-0.2,8.9,2.3,13.1,4.2c4.2,1.9,8.1,1.4,12.6,0.5"/>
		<g>
			<path class="st1" d="M62.1,120.4c-5.6-1.7-8.1-6.8-11-11.4c-3.2-4.9-7.3-8.9-13-10.7c-5.4-1.7-11.3-0.9-14.8,3.8
				c-3.4,4.5-3.2,10.5-0.5,15.2c2.8,4.9,7.7,8.2,12.8,10.3c0-0.9,0-1.7,0-2.6c-1.2,0.6-2,1.8-2.7,2.9c-0.5,0.8-1.2,1.9-1.1,2.8
				c0,1.7,1.7,2,3,1.7c1.7-0.3,3.2-0.3,4.9,0.2c3.8,1,7.1,3.4,10.9,4.4c3.7,1,7.6,0.5,11.3-0.2c1.9-0.4,1.1-3.2-0.8-2.9
				c-3.1,0.6-6.2,1.1-9.3,0.3c-3.1-0.8-5.9-2.6-8.9-3.7c-2.7-1-5.7-1.8-8.5-1.1c-0.7,0.2-0.7-0.1-0.1,0.9c1,1.5,0.3,0.8,0.5,0.5
				c0.2-0.2,0.3-0.7,0.5-1c0.5-0.8,1-1.8,1.8-2.2c0.9-0.5,1-2.2,0-2.6c-4-1.7-7.7-3.9-10.5-7.4c-3-3.9-4-9.3-1.1-13.5
				c3.1-4.6,8.8-4.4,13.4-2.5c5.2,2.1,8.2,6.4,11,11c2.9,4.6,6,9,11.5,10.6C63.2,123.9,64,121,62.1,120.4L62.1,120.4z"/>
		</g>
	</g>
	<g>
		<g>
			<path class="st1" d="M30.5,99.6c-1.5,3.8-2.4,7.8-2.6,11.9c-0.1,2.1-0.1,4.1,0.2,6.2c0.1,0.9,0.2,1.9,0.4,2.8
				c0.1,0.5,0.3,0.9,0.9,0.9c0.5,0,0.5-0.7,0-0.8c-0.5,0-0.7-4.8-0.7-5.4c-0.1-1.7,0-3.3,0.1-5c0.3-3.6,1.2-7,2.5-10.3
				C31.4,99.3,30.7,99.1,30.5,99.6L30.5,99.6z"/>
		</g>
	</g>
	<g>
		<g>
			<path class="st1" d="M35.1,99.3c-0.9,1.2-1,3.1-1.2,4.6c-0.3,2.6-0.4,5.3-0.4,7.9c0,2.8,0.1,5.5,0.4,8.3c0.1,1.1,0.3,2.2,0.5,3.3
				c0.1,0.6,0.3,1.8,0.9,2.1c0.1,0.1,0.3,0.1,0.5-0.1c0.2-0.2,0.2-0.3,0.1-0.5c0-0.2-0.2-0.3-0.4-0.3c0,0,0,0-0.1,0
				c-0.5,0-0.5,0.7,0,0.8c0,0,0,0,0.1,0c-0.1-0.1-0.2-0.2-0.4-0.3c0-0.1,0-0.1,0.1-0.2c0.2,0,0.3,0,0.5-0.1c-0.5-0.2-0.6-2-0.7-2.5
				c-0.2-1.1-0.3-2.2-0.4-3.3c-0.2-2.5-0.3-5.1-0.3-7.7c0-2.4,0.1-4.8,0.4-7.2c0.2-1.4,0.2-3.3,1.1-4.4
				C36.1,99.3,35.4,98.9,35.1,99.3L35.1,99.3z"/>
		</g>
	</g>
	<g>
		<g>
			<path class="st1" d="M33,99.7c-1.3,1.4-1.4,3.4-1.7,5.2c-0.3,2.2-0.5,4.3-0.6,6.5c-0.1,2.3,0,4.6,0.2,6.8
				c0.1,1.1,0.3,2.1,0.5,3.2c0.1,0.7,0.1,1.7,0.6,2.2c0.1,0.1,0.2,0.1,0.4,0.1c0,0,0.1,0,0.1,0c0.2-0.1,0.3-0.2,0.3-0.4
				c0,0,0-0.1,0-0.1c0-0.5-0.8-0.5-0.8,0c0,0,0,0.1,0,0.1c0.1-0.1,0.2-0.2,0.3-0.4c0.3,0.1,0.3,0,0.1-0.4c0-0.2-0.1-0.4-0.1-0.6
				c-0.1-0.5-0.2-1-0.3-1.5c-0.2-1-0.3-2-0.4-3c-0.2-1.9-0.2-3.8-0.2-5.7c0.1-1.9,0.2-3.8,0.5-5.7c0.2-1.8,0.3-4.2,1.6-5.7
				C33.9,99.9,33.4,99.3,33,99.7L33,99.7z"/>
		</g>
	</g>
	<g>
		<g>
			<path class="st1" d="M37.1,99.4c-1.5,6.9-1.1,14.3-0.5,21.2c0.1,0.9,0.1,1.8,0.2,2.7c0,0.4,0.1,0.8,0.1,1.2
				c0,0.2,0.1,0.5,0.1,0.7c0,0.2,0,0.3,0.3,0.4c0,0.1-0.2,0.3-0.2,0.4c0,0.2,0,0.5,0.1,0.7c0.1,0.6,0.2,3.4,1,3.6
				c0.5,0.1,0.7-0.6,0.2-0.7c0.3,0.1,0.2,0.2,0.1-0.1c0-0.1-0.1-0.2-0.1-0.3c-0.1-0.4-0.2-0.8-0.2-1.2c-0.1-0.4-0.1-0.8-0.2-1.1
				c0-0.2,0-0.4-0.1-0.5c-0.1-0.3,0.1-0.3-0.2-0.1c0.1-0.1,0.2-0.2,0.2-0.3c-0.5-4.4-0.8-8.8-0.9-13.2c-0.1-4.4-0.1-8.9,0.9-13.2
				C37.9,99.2,37.2,99,37.1,99.4L37.1,99.4z"/>
		</g>
	</g>
	<g>
		<g>
			<path class="st1" d="M39,101.7c-1.1,5-0.4,10.2,0.1,15.2c0.4,5.1,1,10.3,2.5,15.2c0.1,0.4,0.6,0.3,0.7,0c0.1-0.1,0.1-0.3,0.2-0.4
				c0.2-0.5-0.5-0.6-0.7-0.2c-0.1,0.1-0.1,0.3-0.2,0.4c0.2,0,0.5,0,0.7,0c-1.5-4.9-2-9.9-2.4-15c-0.4-5-1.2-10.1-0.1-15
				C39.8,101.4,39.1,101.2,39,101.7L39,101.7z"/>
		</g>
	</g>
	<g>
		<g>
			<path class="st1" d="M41.1,102.1c-0.2,5.7-0.1,11.4,0.5,17c0.3,2.6,0.6,5.1,1,7.6c0.2,1.4,0.5,2.7,0.9,4c0.2,0.6,0.3,1.9,1,2.2
				c0.2,0.1,0.4,0,0.5-0.1c0.1-0.2,0.1-0.3,0.1-0.5c-0.1-0.2-0.2-0.3-0.5-0.3c0,0,0,0-0.1,0c-0.5,0.1-0.3,0.8,0.2,0.7c0,0,0,0,0.1,0
				c-0.2-0.1-0.3-0.2-0.5-0.3c0,0,0-0.1,0-0.1c0.2,0,0.3-0.1,0.5-0.1c-0.3-0.2-0.6-1.4-0.7-1.8c-0.2-0.6-0.3-1.2-0.5-1.8
				c-0.3-1.2-0.5-2.4-0.7-3.6c-0.4-2.6-0.7-5.2-0.9-7.8c-0.4-5.1-0.5-10.2-0.3-15.3C41.9,101.6,41.1,101.6,41.1,102.1L41.1,102.1z"
				/>
		</g>
	</g>
	<g>
		<g>
			<path class="st1" d="M43.8,103.7C43.1,114,45,124.2,47,134.3c0.1,0.3,0.5,0.4,0.7,0.1c0.1-0.2,0.2-0.4,0.3-0.5
				c0.2-0.4-0.4-0.8-0.6-0.4c-0.1,0.2-0.2,0.4-0.3,0.5c0.2,0,0.5,0.1,0.7,0.1c-2-10-3.9-20.1-3.2-30.4
				C44.6,103.2,43.9,103.2,43.8,103.7L43.8,103.7z"/>
		</g>
	</g>
	<g>
		<g>
			<path class="st1" d="M45.9,106.7c-0.3,4.9,0.5,9.9,1.3,14.7c0.4,2.5,0.9,5,1.3,7.5c0.4,2.2,0.7,4.4,1.7,6.5
				c0.1,0.2,0.5,0.2,0.6,0c0.1-0.2,0.2-0.3,0.3-0.5c0.2-0.4-0.4-0.8-0.6-0.4c-0.1,0.2-0.2,0.3-0.3,0.5c0.2,0,0.4,0,0.6,0
				c-1-2.1-1.3-4.5-1.7-6.8c-0.4-2.4-0.8-4.7-1.3-7.1c-0.9-4.8-1.6-9.6-1.3-14.5C46.7,106.2,46,106.2,45.9,106.7L45.9,106.7z"/>
		</g>
	</g>
	<g>
		<g>
			<path class="st1" d="M48.6,110c0.1,4.8,0.2,9.5,0.8,14.3c0.3,2.2,0.7,4.5,1.2,6.6c0.3,1,0.6,2,0.9,3c0.2,0.6,0.3,1.5,0.9,1.8
				c0.1,0.1,0.3,0.1,0.5-0.1c0.2-0.2,0.2-0.3,0.1-0.6c0-0.1-0.2-0.3-0.4-0.3c0,0-0.1,0-0.1,0c-0.5,0-0.5,0.8,0,0.8c0,0,0.1,0,0.1,0
				c-0.1-0.1-0.2-0.2-0.4-0.3c0-0.1,0-0.1,0.1-0.2c0.2,0,0.3,0,0.5-0.1c-0.5-0.2-0.9-2.5-1-3.1c-0.3-0.9-0.5-1.8-0.7-2.7
				c-0.5-2.2-0.8-4.5-1.1-6.7c-0.4-4.2-0.5-8.4-0.6-12.6C49.3,109.5,48.6,109.5,48.6,110L48.6,110z"/>
		</g>
	</g>
	<g>
		<g>
			<path class="st1" d="M51.1,113.9c0,4.3-0.1,8.6,0.5,12.8c0.2,1.8,0.6,3.6,1.2,5.3c0.3,0.9,0.7,1.7,1.1,2.5
				c0.2,0.4,0.5,1.3,1.1,1.4c0.1,0,0.4,0,0.4-0.2c0.1-0.2,0.1-0.3,0-0.5c-0.1-0.2-0.3-0.2-0.5-0.1c0,0,0,0,0,0
				c-0.4,0.2-0.1,0.8,0.4,0.6c0,0,0,0,0,0c-0.2,0-0.3-0.1-0.5-0.1c0-0.1,0-0.2,0-0.3c0.1-0.1,0.3-0.1,0.4-0.2
				c-0.4-0.1-1-1.7-1.2-2.1c-0.4-0.8-0.7-1.7-0.9-2.5c-0.5-1.7-0.8-3.5-0.9-5.3c-0.3-3.7-0.3-7.5-0.3-11.2
				C51.9,113.4,51.1,113.4,51.1,113.9L51.1,113.9z"/>
		</g>
	</g>
	<g>
		<g>
			<path class="st1" d="M53.1,116.6c0.3,3.4,0.1,6.9,0.6,10.3c0.5,3.2,1.5,6.2,3,9c0.2,0.4,0.9,0,0.6-0.4c-1.5-2.7-2.5-5.7-3-8.8
				c-0.5-3.3-0.3-6.7-0.6-10.1C53.8,116.1,53.1,116.1,53.1,116.6L53.1,116.6z"/>
		</g>
	</g>
	<g>
		<g>
			<path class="st1" d="M54.8,118.4c0.1,2.9,0.1,5.9,0.4,8.8c0.3,2.6,1,5.1,2.3,7.4c0.2,0.4,0.9,0,0.6-0.4c-1.3-2.4-2-5-2.2-7.6
				c-0.2-2.7-0.3-5.5-0.4-8.3C55.5,117.9,54.8,117.9,54.8,118.4L54.8,118.4z"/>
		</g>
	</g>
	<g>
		<g>
			<path class="st1" d="M57.7,121.1c-0.3,3.1-0.6,6.2-0.4,9.3c0.1,1.4,0.3,2.9,0.7,4.2c0.1,0.4,0.2,1,0.7,1c0.3,0,0.6-0.2,0.6-0.5
				c0-0.5-0.7-0.5-0.8,0c0.4,0,0.5-0.2,0.3-0.5c0-0.1-0.1-0.3-0.1-0.4c-0.1-0.3-0.2-0.6-0.2-0.9c-0.1-0.5-0.2-1-0.3-1.6
				c-0.2-1.2-0.2-2.5-0.2-3.7c0-2.4,0.2-4.7,0.5-7C58.5,120.6,57.7,120.6,57.7,121.1L57.7,121.1z"/>
		</g>
	</g>
	<g>
		<g>
			<path class="st1" d="M60.1,122.1c-0.2,2.4-0.6,4.8-0.9,7.2c-0.1,1.1-0.1,2.3-0.1,3.5c0,0.5,0.1,1,0.2,1.6
				c0.1,0.4,0.1,0.9,0.4,1.1c0.1,0.1,0.3,0,0.5-0.1c0.1-0.1,0.2-0.2,0.1-0.4c0-0.2-0.1-0.3-0.3-0.4c0,0,0,0,0,0
				c-0.5-0.1-0.7,0.6-0.2,0.7c0,0,0,0,0,0c-0.1-0.1-0.2-0.2-0.3-0.4c0-0.1,0-0.1,0.1-0.2c0.2,0,0.3,0,0.5-0.1c0.1,0.1,0-0.4-0.1-0.5
				c-0.1-0.3-0.1-0.7-0.1-1c0-0.5-0.1-1-0.1-1.5c0-1.1,0.1-2.1,0.2-3.2c0.2-2.2,0.6-4.3,0.8-6.5C60.9,121.7,60.1,121.7,60.1,122.1
				L60.1,122.1z"/>
		</g>
	</g>
	<g>
		<g>
			<path class="st1" d="M28.4,100.1c-2.5,5.5-3.8,11.5-3.7,17.5c0,0.2,0.2,0.4,0.4,0.4c0.3,0,0.5-0.1,0.8-0.1c0.5,0,0.5-0.8,0-0.8
				c-0.3,0-0.5,0.1-0.8,0.1c0.1,0.1,0.2,0.2,0.4,0.4c-0.1-5.9,1.1-11.8,3.6-17.1C29.3,100.1,28.6,99.7,28.4,100.1L28.4,100.1z"/>
		</g>
	</g>
</g>
<g>
	<path class="st0" d="M170,101.3c0.1-1.3-1.1,0.9-2.6-4.2c-0.3-0.9,0.6-4.5-0.8-4.6c-2-0.1-4.4-6.9-6.5-6.9c0-0.1,0-0.2,0-0.3
		c-0.9-4.6-2.8-8.9-4.5-13.3c0.7-3.1,1.5-6.2,2-9.4c0.5-3.6,1.4-7.9-0.4-11.2c-0.7-1.4-2-2.6-3.5-3c-1.9-0.6-3.9,0-5.7,0.8
		c-3.5,1.6-6.9,3.8-10.2,5.9c-15.4-7.8-33.7-9.2-50.1-3.7c-1.4-1.2-2.8-2.4-4.3-3.4c-1.6-1.1-3.2-2-4.9-2.9
		c-1.8-0.9-3.9-1.8-5.9-1.1c-1.3,0.4-2.5,1.4-2.9,2.7c-0.2,0.7-0.3,1.4-0.4,2.1c-0.4,2.7-0.7,5.4-0.9,8.1c-0.1,2-0.2,4.2-0.1,6.2
		c-0.1,0.1-0.2,0.2-0.3,0.3C64.6,69,60.3,74.1,58,80.2c-0.3,0.1-1.4-0.2-1.6-0.2c-0.7-0.1-1.5-0.1-2.2-0.1c-1.6,0-3.1,0.3-4.6,0.7
		c-2.8,0.8-5.5,2.6-5.5,5.9c0.1,2.9,1.9,5.6,3.4,8c1.7,2.6,3.6,5.1,4.8,8c0.1,0.3,0.3,0.6,0.6,0.8c-1.2,14.5-1.1,30.1,7.7,42.3
		c-0.1,0.3-0.2,0.5-0.3,0.8c-0.5,1.6-1.1,3.1-1.4,4.8c-0.3,1.7-0.5,3.6-0.3,5.3c0.2,1.7,1.5,2.7,3.1,3c3.4,0.7,6.8-0.6,9.7-2.2
		c0.9-0.5,1.8-1.1,2.7-1.7c16.3,7.1,36.3,11.3,53.2,4.1c0.1,0,0.3-0.1,0.4-0.2c0.8-0.5,2.1-0.2,3,0.1c1.3,0.4,2.3,1.1,3.5,1.8
		c2.7,1.7,6,4.2,9.3,2.8c3.1-1.3,4-5,3.9-8c-0.1-1-0.2-2-0.4-3.1c2.3-2.7,4.9-5.1,7-7.9c2.3-3.2,4.2-6.9,5.8-10.5
		c2.8-6.1,4.6-12.7,4.4-19.5c-0.1-3.6-0.7-7.2-1.6-10.7c1.8-1.9,3.5,2.4,5.1,0.2C169.4,102.7,169.8,104.2,170,101.3z"/>
</g>
<g>
	<g>
		<path class="st1" d="M73.6,155.5c16.5,7.2,36.9,11.7,54.1,4.2c1.8-0.8,0.2-3.4-1.5-2.6c-7.9,3.5-16.7,4-25.2,3
			c-8.9-1-17.7-3.6-25.9-7.2C73.4,152.1,71.9,154.7,73.6,155.5L73.6,155.5z"/>
	</g>
</g>
<g>
	<g>
		<path class="st1" d="M61.3,141.8c0.2,0.3-0.1,1.5-0.2,2c-0.2,0.9-0.4,1.7-0.7,2.5c-0.5,1.6-1.1,3.1-1.4,4.8
			c-0.3,1.7-0.5,3.6-0.3,5.3c0.2,1.7,1.5,2.7,3.1,3c3.4,0.7,6.8-0.6,9.7-2.2c3.1-1.8,6-3.9,8.6-6.3c1.4-1.3-0.7-3.4-2.1-2.1
			c-2.3,2.1-4.8,3.9-7.5,5.5c-2.4,1.4-5.4,2.9-8.3,2.2c-0.7-0.2-0.6-0.3-0.6-1c0-0.7,0.1-1.5,0.1-2.2c0.1-1.6,0.5-3.1,1-4.6
			c0.5-1.4,1-2.7,1.3-4.1c0.3-1.4,0.6-3.1-0.1-4.4C62.9,138.6,60.3,140.1,61.3,141.8L61.3,141.8z"/>
	</g>
</g>
<g>
	<g>
		<path class="st1" d="M127.7,159.6c0.8-0.5,2.1-0.2,3,0.1c1.3,0.4,2.3,1.1,3.5,1.8c2.7,1.7,6,4.2,9.3,2.8c3.1-1.3,4-5,3.9-8
			c-0.2-3.6-1.3-7.2-2-10.8c-0.4-1.9-3.3-1.1-2.9,0.8c0.4,1.8,0.8,3.6,1.1,5.3c0.3,1.5,0.7,2.9,0.8,4.4c0.1,2.2-0.4,6.1-3.5,5.5
			c-2.9-0.5-5.1-3-7.7-4.2c-2-0.9-5-1.7-7-0.4C124.6,158,126.1,160.6,127.7,159.6L127.7,159.6z"/>
	</g>
</g>
<g>
	<g>
		<path class="st1" d="M146.6,153.9c2.4-2.9,5.2-5.4,7.5-8.5c2.3-3.2,4.2-6.9,5.8-10.5c2.8-6.1,4.6-12.7,4.4-19.5
			c-0.1-3.9-0.8-7.8-1.8-11.6c-0.5-1.9-3.4-1.1-2.9,0.8c2.2,8,2.3,15.9-0.4,23.8c-1.5,4.4-3.6,8.5-5.9,12.5
			c-2.4,4.1-5.8,7.1-8.8,10.7C143.2,153.2,145.3,155.4,146.6,153.9L146.6,153.9z"/>
	</g>
</g>
<g>
	<g>
		<path class="st1" d="M157.4,86.9c3.3,3.5,7.4,6.6,9.9,10.7c0.6,1,1.3,2.3,1.2,3.5c-0.1,1.3-1,1.5-2.1,1.6
			c-3.3,0.2-6.6,0.2-9.9,0.1c-1.9-0.1-1.9,2.9,0,3c1.9,0.1,3.9,0.1,5.8,0.1c1.8,0,3.7,0,5.5-0.3c1.6-0.3,3-1.3,3.5-3
			c0.5-1.6,0.1-3.3-0.6-4.8c-1.1-2.6-3.1-4.8-5.1-6.8c-2-2.1-4.1-4-6.1-6.1C158.1,83.3,156,85.5,157.4,86.9L157.4,86.9z"/>
	</g>
</g>
<g>
	<g>
		<path class="st1" d="M63.3,144.2c-9.2-12.5-8.6-28.7-7.2-43.4c0.2-1.9-2.8-1.9-3,0c-1.4,15.2-1.9,32,7.6,44.9
			C61.8,147.3,64.4,145.8,63.3,144.2L63.3,144.2z"/>
	</g>
</g>
<g>
	<g>
		<path class="st1" d="M55.2,101.7c-1.1-2.6-2.6-5-4.2-7.4c-1.4-2.2-3.4-4.6-3.9-7.2c-0.5-2.9,3-3.7,5.2-4c1.4-0.2,2.9-0.2,4.3,0
			c1.3,0.2,2.4,0.1,3.5-0.8c1.5-1.3-0.7-3.4-2.1-2.1c-0.2,0.2-1.4-0.1-1.6-0.2c-0.7-0.1-1.5-0.1-2.2-0.1c-1.6,0-3.1,0.3-4.6,0.7
			c-2.8,0.8-5.5,2.6-5.5,5.9c0.1,2.9,1.9,5.6,3.4,8c1.7,2.6,3.6,5.1,4.8,8c0.3,0.8,1,1.3,1.8,1C54.9,103.4,55.5,102.5,55.2,101.7
			L55.2,101.7z"/>
	</g>
</g>
<g>
	<g>
		<path class="st1" d="M59.6,85.4c1.4-7.9,6.9-13.9,11.2-20.3c1.1-1.6-1.5-3.1-2.6-1.5c-4.4,6.7-10,12.9-11.5,21.1
			C56.4,86.5,59.3,87.3,59.6,85.4L59.6,85.4z"/>
	</g>
</g>
<g>
	<g>
		<path class="st1" d="M160.2,85.4c-1-4.7-2.9-9.1-4.6-13.6c-0.3-0.8-1-1.3-1.8-1c-0.7,0.2-1.3,1.1-1,1.8c1.7,4.5,3.6,8.9,4.6,13.6
			c0.2,0.8,1.1,1.3,1.8,1C159.9,87,160.3,86.2,160.2,85.4L160.2,85.4z"/>
	</g>
</g>
<g>
	<g>
		<path class="st1" d="M88.6,54.4c15.7-5.3,33.3-4.1,48,3.5c1.7,0.9,3.2-1.7,1.5-2.6c-15.5-7.9-33.9-9.3-50.3-3.8
			C86,52.1,86.8,55,88.6,54.4L88.6,54.4z"/>
	</g>
</g>
<g>
	<g>
		<g>
			<path class="st1" d="M71.9,65.6c-0.6-2.2-0.5-4.6-0.4-6.9c0.1-2.6,0.3-5.1,0.7-7.7c0.1-0.8,0.2-1.6,0.4-2.4
				c0-0.3,0.1-0.5,0.1-0.8c0-0.1,0.2-0.4,0.1-0.3c0.9-1.5,3.3-0.3,4.3,0.3c1.5,0.8,3,1.6,4.4,2.6c3.1,2,5.8,4.5,8.2,7.3
				c1.3,1.4,3.4-0.7,2.1-2.1c-2.5-2.8-5.2-5.3-8.3-7.4c-1.6-1.1-3.2-2-4.9-2.9c-1.8-0.9-3.9-1.8-5.9-1.1c-1.3,0.4-2.5,1.4-2.9,2.7
				c-0.2,0.7-0.3,1.4-0.4,2.1c-0.4,2.7-0.7,5.4-0.9,8.1c-0.2,3.1-0.3,6.4,0.4,9.4C69.5,68.3,72.4,67.5,71.9,65.6L71.9,65.6z"/>
		</g>
	</g>
	<g>
		<g>
			<path class="st1" d="M155.6,72.6c0.8-3.3,1.6-6.5,2.1-9.9c0.5-3.6,1.4-7.9-0.4-11.2c-0.7-1.4-2-2.6-3.5-3c-1.9-0.6-3.9,0-5.7,0.8
				c-3.7,1.7-7.3,4-10.7,6.2c-1.2,0.8-0.8,2.7,0.8,2.8c0.7,0,1.3-0.2,1.8-0.7c1.5-1.2-0.6-3.3-2.1-2.1c0.1-0.1,0.2-0.1,0.3-0.2
				c0.3,0.9,0.5,1.9,0.8,2.8c2.9-1.9,5.8-3.7,8.9-5.3c1.4-0.7,3.1-1.8,4.8-1.5c1.2,0.2,2.1,1.4,2.4,2.6c0.5,1.7,0.3,3.5,0.1,5.2
				c-0.1,1.5-0.3,2.9-0.6,4.4c-0.5,2.8-1.2,5.6-1.9,8.4C152.3,73.6,155.1,74.4,155.6,72.6L155.6,72.6z"/>
		</g>
	</g>
	<g>
		<g>
			<path class="st1" d="M137.5,58.2c0.7,1.6,1.1,3.5,2.7,4.6c2.1,1.5,5.3,0.5,6.8-1.4c0.8-1.1,1.6-2.2,2.5-3.2
				c0.4-0.5,0.9-1,1.3-1.4c0.4-0.4,1-1,1.5-1c1.3,0,0.5,2.6,0.4,3.3c-0.2,1.6-0.3,3.2-0.4,4.8c-0.1,1.7-0.2,3.5-0.1,5.2
				c0.1,1.3,0.4,2.7,1.3,3.6c0.7,0.7,1.7-0.4,1.1-1.1c-0.8-0.8-0.9-2.2-0.9-3.2c-0.1-1.6,0-3.2,0.1-4.8c0.1-1.6,0.2-3.2,0.4-4.7
				c0.2-1.2,0.6-2.6-0.1-3.7c-1.7-2.7-4.7,0.7-5.9,2.1c-0.9,1-1.6,2.2-2.5,3.2c-0.8,1-2.3,1.6-3.7,1.4c-2.1-0.3-2.6-2.9-3.3-4.5
				C138.4,56.6,137.1,57.3,137.5,58.2L137.5,58.2z"/>
		</g>
	</g>
	<g>
		<g>
			<path class="st1" d="M90.5,56.7c-1.1,0.6-2.3,2.2-3.6,2c-1.6-0.2-3.1-2-4.2-3c-1.4-1.2-2.7-2.4-4.1-3.5c-0.9-0.7-2.1-1.6-3.3-1.7
				c-2.5-0.1-2.5,3.3-2.7,5c-0.4,3.5-1.7,6.8-2.2,10.3c-0.1,0.9,1.3,1.4,1.4,0.4c0.5-3.3,1.6-6.4,2.1-9.6c0.2-1.2,0.2-2.4,0.5-3.6
				c0.1-0.4,0.3-0.9,0.7-0.9c0.6-0.1,1.3,0.5,1.8,0.8c2.7,1.9,4.9,4.5,7.6,6.4c1,0.7,2.3,1.3,3.5,0.8c1.2-0.4,2-1.5,3.2-2.1
				C92.1,57.5,91.4,56.2,90.5,56.7L90.5,56.7z"/>
		</g>
	</g>
	<g>
		<g>
			<path class="st1" d="M75.4,50.6c-0.9-1.4-1.5-2.9-1.7-4.6c0-0.2-0.2-0.4-0.4-0.4c-0.2,0-0.4,0.2-0.4,0.4c0.2,1.8,0.8,3.5,1.8,4.9
				C75.1,51.3,75.7,51,75.4,50.6L75.4,50.6z"/>
		</g>
	</g>
	<g>
		<g>
			<path class="st1" d="M77.2,51.7c-0.4-1.9-0.8-3.7-1.2-5.6c-0.1-0.5-0.8-0.3-0.7,0.2c0.4,1.9,0.8,3.7,1.2,5.6
				C76.6,52.4,77.3,52.2,77.2,51.7L77.2,51.7z"/>
		</g>
	</g>
	<g>
		<g>
			<path class="st1" d="M79.1,52.6c-0.4-1.6-0.5-3.2-0.4-4.8c0-0.5-0.7-0.5-0.8,0c-0.1,1.7,0,3.4,0.4,5
				C78.5,53.3,79.2,53.1,79.1,52.6L79.1,52.6z"/>
		</g>
	</g>
	<g>
		<g>
			<path class="st1" d="M80.8,54.5c-0.3-1.9-0.4-3.9-0.3-5.9c0-0.5-0.7-0.5-0.8,0c0,2,0.1,4,0.4,6.1c0,0.2,0.3,0.3,0.5,0.3
				C80.7,54.9,80.8,54.7,80.8,54.5L80.8,54.5z"/>
		</g>
	</g>
	<g>
		<g>
			<path class="st1" d="M82.5,56.1c-0.3-1.8-0.3-3.6,0.1-5.4c0.1-0.5-0.6-0.7-0.7-0.2c-0.4,1.9-0.5,3.9-0.1,5.8
				C81.9,56.7,82.6,56.5,82.5,56.1L82.5,56.1z"/>
		</g>
	</g>
	<g>
		<g>
			<path class="st1" d="M84.1,57.3c-0.3-1.7-0.1-3.4,0.4-5.1c0.1-0.5-0.6-0.7-0.7-0.2c-0.6,1.8-0.7,3.6-0.4,5.5
				c0,0.2,0.3,0.3,0.5,0.3C84,57.7,84.1,57.5,84.1,57.3L84.1,57.3z"/>
		</g>
	</g>
	<g>
		<g>
			<path class="st1" d="M85.5,58.6c0-1.6,0.3-3.2,0.8-4.7c0.2-0.5-0.6-0.6-0.7-0.2c-0.6,1.6-0.8,3.2-0.8,4.9
				C84.8,59.1,85.5,59.1,85.5,58.6L85.5,58.6z"/>
		</g>
	</g>
	<g>
		<g>
			<path class="st1" d="M86.7,58.8c0.1-1.5,0.5-3,1.2-4.4c0.1-0.2,0.1-0.4-0.1-0.5c-0.2-0.1-0.4-0.1-0.5,0.1
				c-0.7,1.5-1.1,3.1-1.3,4.7C86,59.3,86.7,59.3,86.7,58.8L86.7,58.8z"/>
		</g>
	</g>
	<g>
		<g>
			<path class="st1" d="M74,52.2c-1-1.3-2.1-2.6-3.1-3.9c-0.1-0.2-0.4-0.1-0.5,0c-0.2,0.2-0.1,0.4,0,0.5c1,1.3,2.1,2.6,3.1,3.9
				c0.1,0.2,0.4,0.1,0.5,0C74.2,52.6,74.1,52.4,74,52.2L74,52.2z"/>
		</g>
	</g>
	<g>
		<g>
			<path class="st1" d="M73.5,54.8c-0.8-0.8-1.6-1.6-2.2-2.5c-0.1-0.2-0.3-0.2-0.5-0.1c-0.2,0.1-0.3,0.3-0.1,0.5
				c0.7,1,1.5,1.9,2.3,2.7c0.1,0.1,0.4,0.1,0.5,0C73.6,55.2,73.7,55,73.5,54.8L73.5,54.8z"/>
		</g>
	</g>
	<g>
		<g>
			<path class="st1" d="M73.5,57.7c-0.8-0.9-1.5-1.8-2.3-2.6c-0.1-0.2-0.4-0.1-0.5,0c-0.2,0.2-0.1,0.4,0,0.5
				c0.8,0.9,1.5,1.8,2.3,2.6c0.1,0.2,0.4,0.1,0.5,0C73.6,58,73.6,57.8,73.5,57.7L73.5,57.7z"/>
		</g>
	</g>
	<g>
		<g>
			<path class="st1" d="M72.8,59.7c-1.3-1-2.4-2.1-3.5-3.3c-0.3-0.4-0.9,0.2-0.5,0.5c1.1,1.2,2.3,2.3,3.5,3.3c0.2,0.1,0.4,0.2,0.5,0
				C72.9,60.1,73,59.9,72.8,59.7L72.8,59.7z"/>
		</g>
	</g>
	<g>
		<g>
			<path class="st1" d="M153.2,55.4c0.7-1.9,1.1-3.9,1.2-5.9c0-0.5-0.7-0.5-0.8,0c-0.1,1.9-0.5,3.9-1.2,5.7
				C152.3,55.7,153,55.9,153.2,55.4L153.2,55.4z"/>
		</g>
	</g>
	<g>
		<g>
			<path class="st1" d="M152,55.6c0-1.8,0.1-3.5,0.1-5.3c0-0.5-0.7-0.5-0.8,0c0,1.8-0.1,3.5-0.1,5.3C151.2,56.1,152,56.1,152,55.6
				L152,55.6z"/>
		</g>
	</g>
	<g>
		<g>
			<path class="st1" d="M150.5,56.3c0.1-2,0-4.1-0.3-6.1c-0.1-0.5-0.8-0.3-0.7,0.2c0.3,1.9,0.4,3.9,0.3,5.9
				C149.7,56.8,150.5,56.8,150.5,56.3L150.5,56.3z"/>
		</g>
	</g>
	<g>
		<g>
			<path class="st1" d="M149,57.7c0-2-0.2-4-0.4-6c0-0.2-0.2-0.4-0.4-0.4c-0.2,0-0.4,0.2-0.4,0.4c0.3,2,0.4,4,0.4,6
				C148.2,58.2,149,58.2,149,57.7L149,57.7z"/>
		</g>
	</g>
	<g>
		<g>
			<path class="st1" d="M147.8,59.7c-0.2-2.4-0.5-4.7-0.9-7.1c-0.1-0.5-0.8-0.3-0.7,0.2c0.4,2.3,0.7,4.6,0.9,6.9
				C147.1,60.1,147.8,60.1,147.8,59.7L147.8,59.7z"/>
		</g>
	</g>
	<g>
		<g>
			<path class="st1" d="M146.7,61.1c-0.4-2.6-0.9-5.1-1.3-7.7c-0.1-0.5-0.8-0.3-0.7,0.2c0.4,2.6,0.9,5.1,1.3,7.7
				C146,61.8,146.7,61.6,146.7,61.1L146.7,61.1z"/>
		</g>
	</g>
	<g>
		<g>
			<path class="st1" d="M145.4,61.7c-0.4-2.1-0.8-4.2-1.2-6.3c-0.1-0.5-0.8-0.3-0.7,0.2c0.4,2.1,0.8,4.2,1.2,6.3
				C144.8,62.3,145.5,62.1,145.4,61.7L145.4,61.7z"/>
		</g>
	</g>
	<g>
		<g>
			<path class="st1" d="M143.6,62c-0.6-2-1.1-4-1.4-6c-0.1-0.5-0.8-0.3-0.7,0.2c0.4,2,0.8,4,1.4,6C143.1,62.7,143.8,62.5,143.6,62
				L143.6,62z"/>
		</g>
	</g>
	<g>
		<g>
			<path class="st1" d="M141.3,61.1c-0.7-1.1-0.9-2.4-0.8-3.7c0-0.2-0.2-0.4-0.4-0.4c-0.2,0-0.3,0.2-0.4,0.4
				c-0.2,1.4,0.1,2.9,0.9,4.1C140.9,61.9,141.6,61.5,141.3,61.1L141.3,61.1z"/>
		</g>
	</g>
	<g>
		<g>
			<path class="st1" d="M154.3,57.2c0.4-0.8,0.8-1.5,1.2-2.3c0.1-0.2,0-0.4-0.1-0.5c-0.2-0.1-0.4,0-0.5,0.1
				c-0.4,0.8-0.8,1.5-1.2,2.3c-0.1,0.2,0,0.4,0.1,0.5C154,57.4,154.2,57.4,154.3,57.2L154.3,57.2z"/>
		</g>
	</g>
	<g>
		<g>
			<path class="st1" d="M154,60c0.5-1.1,1.3-1.9,2.3-2.6c0.2-0.1,0.2-0.3,0.1-0.5c-0.1-0.2-0.3-0.2-0.5-0.1c-1.1,0.7-2,1.7-2.5,2.8
				c-0.1,0.2,0,0.4,0.1,0.5C153.7,60.2,153.9,60.2,154,60L154,60z"/>
		</g>
	</g>
	<g>
		<g>
			<path class="st1" d="M153.8,63.8c0.3-1.3,1.2-2.4,2.3-3c0.4-0.2,0-0.9-0.4-0.6c-1.3,0.8-2.3,2-2.7,3.5
				C152.9,64,153.7,64.2,153.8,63.8L153.8,63.8z"/>
		</g>
	</g>
	<g>
		<g>
			<path class="st1" d="M153.8,66.7c0.7-1.2,1.6-2.4,2.6-3.4c0.3-0.4-0.2-0.9-0.5-0.5c-1,1.1-1.9,2.3-2.7,3.6
				C152.9,66.7,153.6,67.1,153.8,66.7L153.8,66.7z"/>
		</g>
	</g>
	<g>
		<g>
			<path class="st1" d="M88.1,58.5c0.2-1,0.6-2,1-2.9c0.1-0.2,0-0.4-0.1-0.5c-0.2-0.1-0.4,0-0.5,0.1c-0.5,1-0.8,2-1.1,3.1
				C87.3,58.8,88,59,88.1,58.5L88.1,58.5z"/>
		</g>
	</g>
</g>
<g>
	<g>
		<path class="st1" d="M124.2,85.5c-0.1-0.3-0.4-0.4-0.7-0.3c-0.3,0.1-0.5,0.3-0.6,0.5c-0.2,0.2-0.2,0.5,0,0.8
			c0.1,0.2,0.4,0.4,0.7,0.4c0.6,0,0.9-0.7,1-1.2c0.1-0.5,0-1.1-0.6-1.1c0.1,0.2,0.1,0.5,0.2,0.7c0.3-0.2,0.7-0.4,1-0.4
			c0.1,0,0.2,0,0.3,0.1c0.1,0.1,0.1,0.3,0.1,0.4c0,0.1,0,0.3,0,0.4c0,0.1-0.1,0.1-0.2,0.1c-0.2,0-0.4-0.2-0.4-0.5
			c-0.2,0-0.5,0.1-0.7,0.1c0,0.3,0.1,0.6,0.1,0.9c0,0.2,0.1,0.5,0.3,0.7c0.3,0.4,1,0.3,1.2-0.2c0.1-0.3-0.1-0.4-0.4-0.5
			c-0.4-0.1-1.2,0-1.4,0.5c-0.1,0.2,0,0.5,0.2,0.7c0.2,0.2,0.5,0.2,0.8,0.2c0.5,0,1-0.1,1.2-0.6c0.2-0.5-0.1-1-0.4-1.3
			c-0.2-0.1-0.5-0.2-0.7-0.3c-0.1,0-0.3-0.1-0.4-0.1c-0.2,0-0.3,0.1-0.5,0.1c0.1,0,0.1,0,0.2-0.1c0,0,0,0,0,0c0.1,0,0.1,0.1,0.2,0.1
			c0,0.1,0,0.2,0.1,0.3c0,0,0,0,0,0c0,0,0.1-0.1,0.1-0.1c0-0.1,0-0.2,0-0.3c0-0.2-0.1-0.3-0.3-0.4c-0.1-0.1-0.3-0.2-0.5-0.2
			c-0.2,0-0.3,0.1-0.5,0c0.1,0.2,0.2,0.3,0.3,0.5c0.1-0.3,0.2-0.7,0.5-0.9c0.3-0.2,0.5,0.1,0.7,0.3c0.3,0.4,0.9-0.2,0.5-0.5
			c-0.2-0.2-0.4-0.4-0.7-0.5c-0.3-0.1-0.6-0.1-0.9,0c-0.5,0.3-0.8,0.9-0.9,1.4c0,0.2,0.1,0.4,0.3,0.5c0.2,0,0.3,0,0.5,0
			c0.1,0,0.1,0,0.2,0c-0.1,0,0.1,0,0,0c0,0,0,0,0,0c0-0.1,0-0.2,0-0.1c0,0-0.1,0.1-0.1,0.2c0,0.1,0,0.3,0,0.4
			c0.1,0.2,0.3,0.3,0.5,0.2c0.1,0,0.1-0.1,0.3-0.1c0.2,0.1,0.5,0.1,0.7,0.2c0.1,0,0.1,0.1,0.1,0.1c0,0,0,0.1,0,0.1c0,0,0,0,0,0
			c0,0,0,0,0,0c0,0,0,0,0,0c0,0-0.1,0.1-0.1,0c-0.1,0-0.2,0-0.3,0c-0.1,0-0.2,0-0.3,0c-0.1,0,0,0-0.1,0.1c0,0,0,0,0,0.1
			c0,0,0.1,0,0.1,0c0.1,0,0.1,0,0.2,0c0.1,0,0.3,0,0.4,0c-0.1-0.2-0.2-0.3-0.4-0.5c0,0,0.1-0.1,0.1-0.1c0,0,0,0,0,0c0,0,0,0,0,0
			c0,0,0,0,0,0c0,0,0,0.1,0,0c0,0-0.1-0.1,0,0c0,0,0-0.1-0.1-0.2c-0.1-0.3-0.1-0.7-0.1-1c0-0.2-0.2-0.3-0.4-0.3
			c-0.2,0-0.3,0.2-0.3,0.4c0,0.6,0.5,1.2,1.1,1.2c0.6,0,1.1-0.5,1.1-1.1c0-0.6-0.2-1.3-0.8-1.4c-0.6-0.2-1.2,0.2-1.7,0.4
			c-0.1,0.1-0.2,0.3-0.2,0.4c0,0.2,0.2,0.3,0.4,0.3c0,0-0.1,0-0.1,0c0,0,0,0,0,0c0,0,0,0,0,0c0,0,0,0,0,0.1c0,0,0,0.1,0,0.1
			c0,0,0,0.1,0,0.1c0,0.2,0,0.4-0.2,0.5c0,0-0.1,0,0,0c0,0-0.1,0,0,0c0,0,0,0,0,0c0,0,0.1,0,0,0c0,0,0,0,0,0
			c0.1-0.1,0.1-0.1,0.2-0.2c0,0,0,0,0,0c0,0,0.1,0,0,0c0,0-0.1,0-0.1-0.1C123.8,86.3,124.4,85.9,124.2,85.5L124.2,85.5z"/>
	</g>
</g>
<g>
	<g>
		<path class="st1" d="M90.4,82.7c-0.3,0.5-0.4,1.2,0.2,1.5c0.6,0.3,1.2-0.1,1.5-0.6c0.2-0.3,0.3-0.6,0.2-0.9
			c-0.1-0.3-0.4-0.5-0.7-0.6c-0.3-0.1-0.7-0.2-1,0c-0.3,0.1-0.5,0.4-0.5,0.8c0,0.2,0.1,0.3,0.3,0.4c0.2,0,0.3,0,0.4-0.2
			c0.2-0.3,0.3-0.6,0.3-0.9c0-0.3-0.2-0.6-0.5-0.7c-0.3-0.1-0.7-0.1-0.9,0.2c-0.2,0.2-0.3,0.5-0.4,0.8c-0.1,0.3-0.1,0.7,0.2,0.9
			c0.2,0.2,0.5,0.3,0.8,0.4c0.6,0.1,1.1-0.2,1.5-0.7c0.2-0.2-0.1-0.6-0.3-0.6c-0.4,0-0.7,0.2-1,0.5c-0.1,0.1-0.2,0.3,0,0.5
			c0.1,0.1,0.3,0.2,0.5,0.1c0.4-0.3,0.7-0.7,0.8-1.1c0-0.2,0.1-0.5,0-0.7c0,0,0-0.1,0-0.1c-0.1,0.2-0.2,0.2-0.1,0.2c0,0,0.1,0,0.1,0
			c0.1,0,0.2,0,0.3,0.1c0.2,0.1,0.4,0.2,0.5,0.3c0,0,0.1,0.1,0.1,0.1c0,0,0,0.1,0,0.1c0,0-0.1,0.1-0.1,0.1c-0.1,0.1-0.3,0.3-0.4,0.4
			c-0.1,0-0.1,0.1-0.2,0.1c0,0-0.1,0-0.1-0.1c0,0.2,0,0.3,0.1,0.5c0.1-0.1,0,0,0,0c0,0,0.1,0,0,0c0,0,0.1,0,0,0c0,0,0.1,0,0.1,0
			c0,0,0,0,0,0c0,0,0.1,0,0.1,0c0,0,0,0,0,0c0,0,0.1,0,0.1,0c0.1,0-0.1,0,0,0c0,0,0,0,0,0c0,0,0.1,0.1,0,0c0,0,0,0,0,0.1
			c0,0,0,0,0,0c0,0,0,0,0,0c0,0,0,0.1,0,0.1c0,0,0,0.1,0,0.1c0,0.2-0.2,0.3-0.3,0.3c-0.2,0-0.4-0.1-0.5-0.3
			c-0.1-0.2-0.2-0.3-0.5-0.3c-0.2,0-0.3,0.3-0.3,0.5c0.2,0.5,0.7,0.9,1.2,0.9c0.5,0,1-0.4,1.1-0.9c0.1-0.5-0.1-1-0.6-1.2
			c-0.4-0.2-1,0-1.2,0.4c-0.1,0.2,0,0.3,0.1,0.5c0.4,0.4,1,0.3,1.4,0c0.4-0.3,0.9-0.8,0.7-1.3c-0.1-0.5-0.7-0.8-1.1-1
			c-0.3-0.1-0.6-0.1-0.9,0c-0.1,0.1-0.2,0.1-0.3,0.2c-0.1,0.2-0.1,0.3,0,0.5c0.1,0.4-0.1,0.8-0.4,1.1c0.2,0.2,0.3,0.4,0.5,0.6
			c0.1-0.1,0.3-0.2,0.4-0.2c-0.1-0.2-0.2-0.4-0.3-0.6C91,82.9,90.7,83,90.5,83c-0.1,0-0.2,0-0.3-0.1c-0.1,0-0.1-0.1-0.1-0.2
			c0-0.2,0.1-0.3,0.2-0.5c0-0.1,0.1-0.2,0.2-0.2c0,0,0,0,0,0c0,0,0,0,0,0.1c0,0.2-0.1,0.3-0.2,0.4c0.2,0.1,0.5,0.1,0.7,0.2
			c0,0,0,0,0-0.1c0,0,0,0,0.1,0c0.1,0,0.3,0,0.5,0.1c0,0,0.1,0,0.1,0.1c0,0,0-0.1,0,0c0,0.1-0.1,0.3-0.2,0.4
			c-0.1,0.1-0.1,0.2-0.2,0.2c-0.1,0-0.2,0-0.2,0c0,0,0,0,0,0c0,0,0,0,0,0c0-0.1,0,0.1,0,0c0,0,0-0.1,0,0c0-0.1,0.1-0.2,0.1-0.4
			C91.3,82.7,90.7,82.3,90.4,82.7L90.4,82.7z"/>
	</g>
</g>
<g>
	<g>
		<path class="st1" d="M90.6,82.1C90.6,82.1,90.6,82,90.6,82.1C90.6,82.2,90.6,82.1,90.6,82.1c0-0.1,0-0.1,0-0.1c0,0,0-0.1,0,0
			c0,0,0,0,0,0c0,0,0-0.1,0.1-0.1c0,0,0,0,0-0.1c0,0-0.1,0.1,0,0c0,0,0-0.1,0.1-0.1c0,0,0,0,0,0c0,0,0,0,0,0c0,0,0.1,0,0.1-0.1
			c0,0,0,0,0,0c0.1,0-0.1,0,0,0c0,0,0.1,0,0.1,0c0,0,0,0,0.1,0c0.1,0-0.1,0,0,0c0,0,0.1,0,0.1,0c0,0,0,0,0.1,0c0.1,0-0.1,0,0,0
			c0,0,0.1,0,0.1,0c0,0,0,0,0.1,0c0.1,0-0.1,0,0,0c0,0,0.1,0,0.1,0.1c0.2,0.1,0.4,0,0.5-0.1c0.1-0.2,0-0.4-0.1-0.5
			c-0.4-0.2-0.9-0.3-1.3,0c-0.4,0.2-0.6,0.6-0.7,1.1c0,0.2,0.2,0.4,0.4,0.4C90.4,82.5,90.6,82.3,90.6,82.1L90.6,82.1z"/>
	</g>
</g>
<g>
	<g>
		<path class="st1" d="M90,82.7c-0.3,0.3-0.4,0.8-0.2,1.3c0.1,0.2,0.3,0.4,0.5,0.4c0.3,0.1,0.5,0.1,0.8,0.1c0.2,0,0.5-0.1,0.7-0.2
			c0.2-0.1,0.2-0.4,0.1-0.5c-0.1-0.2-0.3-0.2-0.5-0.1c0,0-0.1,0-0.1,0c0,0,0,0,0,0c0,0,0,0,0,0c0,0-0.1,0-0.2,0.1
			c-0.1,0-0.2,0.1-0.3,0.1c0,0,0.1,0,0.1,0c-0.1,0-0.2,0-0.3,0c0,0,0.1,0,0.1,0c0,0-0.1,0-0.1,0c0,0,0,0-0.1,0c0,0,0.1,0,0,0
			c0,0-0.1,0-0.1-0.1c0.1,0,0.1,0.1,0,0c0,0,0,0,0,0c0,0,0,0,0,0c0,0,0-0.1,0,0c0,0,0,0,0,0c0,0,0-0.1,0-0.1c0-0.1,0,0.1,0,0
			c0,0,0,0,0,0c0,0,0-0.1,0-0.1c0,0,0,0.1,0,0.1c0-0.1,0-0.1,0-0.2c0,0,0,0.1,0,0.1c0,0,0-0.1,0-0.1c0,0,0,0,0,0c0,0,0-0.1,0,0
			c0,0,0-0.1,0-0.1c0,0,0,0,0,0c0,0,0,0,0,0c0,0,0,0,0,0c0.1-0.1,0.2-0.4,0-0.5C90.4,82.5,90.1,82.5,90,82.7L90,82.7z"/>
	</g>
</g>
<g>
	<g>
		<path class="st1" d="M92,82.6c0.1-0.1,0.2-0.3,0.3-0.4c0,0,0-0.1,0-0.1c0,0,0-0.1,0-0.1c0,0,0-0.1-0.1-0.1c0,0-0.1-0.1-0.1-0.1
			c-0.1,0-0.2-0.1-0.3,0c0,0-0.1,0-0.1,0c-0.1,0-0.1,0.1-0.1,0.1c-0.1,0.1-0.2,0.3-0.3,0.4c0,0,0,0.1,0,0.1c0,0,0,0.1,0,0.1
			c0,0,0,0.1,0.1,0.1c0,0,0.1,0.1,0.1,0.1c0.1,0,0.2,0.1,0.3,0c0,0,0.1,0,0.1,0C92,82.7,92,82.6,92,82.6L92,82.6z"/>
	</g>
</g>
<g>
	<g>
		<path class="st1" d="M123.9,85.2c0.1,0,0.2-0.1,0.2-0.1c0,0,0.1,0,0.1,0c0.1-0.1-0.1,0,0.1,0c0.2-0.1,0.3-0.1,0.5-0.1
			c-0.1,0,0,0,0.1,0c0,0,0.1,0,0.1,0c0,0,0.1,0,0.1,0c-0.1,0,0,0,0,0c0.1,0,0.1,0,0.2,0.1c0,0,0,0,0,0c0,0,0,0,0.1,0
			c0,0,0.1,0,0.1,0c0.1,0,0,0,0,0c0,0,0,0,0.1,0.1c0,0,0,0,0,0c0,0,0,0,0,0c0,0,0.1,0.1,0.1,0.1c0,0,0-0.1,0,0c0,0,0,0,0,0
			c0,0.1,0,0,0,0c0,0,0,0.1,0,0.1c0,0.1,0-0.1,0,0c0,0,0,0.1,0,0.1c0,0,0,0,0,0c0,0,0,0,0,0c0,0,0,0.1,0,0.1c0,0,0,0,0,0
			c0,0,0,0,0,0c0,0,0,0.1-0.1,0.1c0,0,0.1-0.1,0,0c-0.1,0,0.1,0,0,0c-0.1,0,0,0,0,0c-0.2,0-0.4,0.2-0.4,0.4c0,0.2,0.2,0.4,0.4,0.4
			c0.3,0,0.6-0.2,0.7-0.5c0.1-0.3,0.2-0.6,0.1-0.9c-0.2-0.6-0.9-0.9-1.6-0.8c-0.4,0.1-0.8,0.2-1.2,0.4c-0.2,0.1-0.2,0.4-0.1,0.5
			C123.5,85.2,123.8,85.3,123.9,85.2L123.9,85.2z"/>
	</g>
</g>
<g>
	<g>
		<path class="st1" d="M94.8,92.4c0.5,1.4,0.9,2.8,1.5,4.1c0.4,1,1,2,2,2.5c2.6,1.2,4.8-1.8,6.3-3.5c-0.4-0.1-0.8-0.1-1.2-0.2
			c1.3,1.9,2.9,5.4,5.7,5.1c2.8-0.3,4.3-3.8,5.6-5.8c0.5-0.8-0.8-1.6-1.3-0.8c-0.6,1-1.2,1.9-1.8,2.9c-0.6,0.9-1.3,2-2.4,2.2
			c-1.1,0.3-2-0.7-2.6-1.5c-0.7-0.9-1.3-1.9-1.9-2.8c-0.3-0.4-0.8-0.5-1.2-0.2c-1,1.1-3.1,4.4-4.9,3c-0.7-0.5-1-1.4-1.3-2.2
			c-0.4-1.1-0.7-2.1-1.1-3.2C95.9,91.1,94.5,91.5,94.8,92.4L94.8,92.4z"/>
	</g>
</g>
<g>
	<g>
		<path class="st1" d="M131.4,91.3c4.5-0.8,9.1-1.1,13.6-0.8c1,0.1,1-1.4,0-1.5c-4.7-0.3-9.4,0-14,0.9C130,90,130.4,91.4,131.4,91.3
			L131.4,91.3z"/>
	</g>
</g>
<g>
	<g>
		<path class="st1" d="M132.7,95c3.4,0.6,6.9,1.1,10.3,1.7c0.9,0.2,1.4-1.3,0.4-1.4c-3.4-0.6-6.9-1.1-10.3-1.7
			C132.2,93.4,131.8,94.9,132.7,95L132.7,95z"/>
	</g>
</g>
<g>
	<g>
		<path class="st1" d="M83.4,88.2c-4.7-2-9.7-3.5-14.7-4.4c-0.1,0.5-0.1,1-0.2,1.5c0.2,0,0.3,0,0.5,0.1c1,0.1,0.9-1.4,0-1.5
			c-0.2,0-0.3,0-0.5-0.1c-0.8-0.1-1,1.3-0.2,1.5c4.9,0.9,9.8,2.3,14.4,4.3C83.5,89.8,84.3,88.5,83.4,88.2L83.4,88.2z"/>
	</g>
</g>
<g>
	<g>
		<path class="st1" d="M81.1,91.9c-3,0-6,0-8.9,0c-1,0-1,1.5,0,1.5c3,0,6,0,8.9,0C82,93.4,82,91.9,81.1,91.9L81.1,91.9z"/>
	</g>
</g>
<path class="st2" d="M135.5,47.4c-0.6-0.3-1.2-0.2-1.7,0.1c0-0.4-0.1-0.8-0.2-1.1c-0.2-0.7-0.5-1.4-1-1.9c-1.1-1.2-3.1-1-4.7-1.2
	c-3.3-0.4-6.6-0.7-9.8-1.5c0.4-2.4,0.3-4.8-0.4-7.2c-0.3-1-1.8-1.6-2.5-0.7c-1.1,1.4-2.4,0.7-3.2-0.6c-0.9-1.4-1.6-2.7-3.1-3.4
	c-1.4-0.6-3.2-0.5-4.1,0.8c-0.5,0.6-0.6,1.4-0.7,2.1c0,0.3,0.1,0.7,0.1,1.1c-1.5-0.5-2.8-1.8-4.1-2.6c-1.9-1.2-4.1-1.7-6.3-0.6
	c-2.1,1-3.5,3.1-3.7,5.4c-0.2,2.1,0.5,4.1,1.6,5.8c-2.3,0.8-3.8,3.4-2.8,5.8c0.4,1.1,1.3,2,2.1,2.9c0.7,0.7,1.7,1.5,1.8,2.6
	c0,0.8-0.4,1.5-0.3,2.3c0.1,0.7,0.4,1.4,0.9,1.9c1.1,1,2.7,0.8,4,0.3c0.5-0.2,1.5-0.9,2-0.8c0.4,0.1,0.4,0.9,0.6,1.3
	c0.5,1.3,1.4,2.3,2.5,3.1c2.1,1.4,5.1,1.5,7.2,0c0.9-0.7,1.9-2.4,3.1-2.5c0.7,0,1.4,0.6,2,0.9c0.8,0.5,1.5,1,2.3,1.3
	c2.7,1.1,5.9,0.8,8.3-0.8c0.7-0.4,1.8-1.9,2.5-1.8c0.4,0.1,0.9,0.6,1.2,0.8c0.5,0.4,1,0.9,1.6,1.2c1.2,0.7,2.6,0.8,3.8,0
	c1.3-0.9,1.6-2.6,1.5-4.1c-0.1-1-0.6-1.9-0.6-2.9c0-1,0.8-1.6,1.2-2.4C137.2,50,137,48,135.5,47.4z"/>
<g>
	<g>
		<path class="st1" d="M135.4,57.3c-0.8,3.7-5.4,4.1-7,0.7c-0.5-1-2.1-0.9-2.6,0c-2.4,4.5-8.7,4.9-11.4,0.5c-0.6-1-2-1-2.6,0
			c-1.3,2.1-3.8,3.4-6.2,3c-2.5-0.4-4.4-2.4-5-4.9c-0.3-1.2-2.2-1.6-2.7-0.4c-0.5,1.2-1.9,1.5-3,0.8c-1.4-0.9-1.3-3.1-0.7-4.4
			c0.4-0.9,0.1-1.8-0.9-2.2c-1.7-0.6-3.6-1.9-4-3.8c-0.2-1.4,0.7-3.2,2.2-3.2c1.1,0,1.9-1.3,1.3-2.3c-1.9-3-1.6-7.9,1.8-9.7
			c2.9-1.5,7,0.2,7.6,3.4c1-0.3,1.9-0.5,2.9-0.8c-0.8-2.1,1.3-4.4,3.4-4.1c2.5,0.4,3.7,3.2,3.5,5.4c1,0,2,0,3,0
			c-0.1-0.7,0.4-1.3,1.1-1.3c0.7-0.1,1.3,0.5,1.6,1.1c1.1,1.9,0,4.2-0.8,5.9c-0.8,1.7,1.7,3.3,2.6,1.5c0.2-0.3,0.2-0.5,0.6-0.6
			c-0.6-0.2-1.1-0.5-1.7-0.7c0.8,1.3,1.8,2.4,3.1,3.2c0.6,0.4,1.3,0.2,1.8-0.2c0.6-0.5,1.8-1.8,2.7-1.5c0.2,0.1,0.4,0.3,0.5,0.5
			c0.1,0.3,0.2-0.1-0.1,0.1c0.8,0.5,1.7,1,2.5,1.5c1-2.5,4.9-0.7,3.6,1.8c0.9,0.4,1.8,0.8,2.7,1.2c0,0,0.4-0.1,0.7,0
			c0.7,0.3,0.6,1.5,0.4,2.1c-0.5,2-1.9,3.5-2.3,5.5c-0.4,1.9,2.5,2.7,2.9,0.8c0.7-3.2,4.1-6.6,1.7-10c-1.6-2.2-5.4-2-6.3,0.8
			c-0.5,1.6,1.9,2.7,2.7,1.2c1.3-2.5,0.4-5.9-2.3-7.1c-2.7-1.2-5.8,0.4-6.8,3c-0.6,1.6,1.5,2.3,2.5,1.5c1.7-1.4,1-4-0.6-5.1
			c-2.3-1.6-5,0.1-6.7,1.7c0.6-0.1,1.2-0.2,1.8-0.2c-0.9-0.6-1.5-1.3-2-2.1c-0.3-0.6-1.1-0.9-1.7-0.7c-1,0.3-1.9,1-2.4,2
			c0.9,0.5,1.7,1,2.6,1.5c1.5-3.3,2.8-7.8-0.5-10.5c-1.3-1.1-3.1-1.3-4.6-0.6c-1.5,0.7-2.6,2.2-2.4,3.9c0.2,1.9,2.8,2,3,0
			c0.4-4-2.5-8.3-6.7-8.4c-3.9-0.1-7.5,4.1-6.1,7.9c0.7,1.8,3.3,1.1,2.9-0.8c-1-5.1-7.3-7.5-11.8-5.3c-5,2.4-6,9.5-3.2,13.9
			c0.4-0.8,0.9-1.5,1.3-2.3c-3.1,0-5.4,3-5.2,6c0.2,3.5,3.2,5.8,6.2,6.9c-0.3-0.7-0.6-1.5-0.9-2.2c-1.3,2.8-1.1,6.7,1.8,8.5
			c2.3,1.4,6,0.8,7.1-1.9c-0.9-0.1-1.8-0.2-2.7-0.4c0.8,3.5,3.8,6.5,7.4,7c3.7,0.6,7.3-1.2,9.3-4.4c-0.9,0-1.7,0-2.6,0
			c1.8,2.9,5,4.8,8.4,4.6c3.4-0.1,6.5-2.1,8.1-5.1c-0.9,0-1.7,0-2.6,0c1.2,2.5,4,4.2,6.8,3.8c2.8-0.3,5.1-2.5,5.7-5.3
			C138.7,56.2,135.8,55.4,135.4,57.3L135.4,57.3z"/>
	</g>
</g>
<path class="st3" d="M152,62.8c-20.1,3.4-40.9,4.8-61.2,2.9c-5.8-0.6-11.5-1.5-17.1-2.9c-0.4-0.1-0.7-0.1-1,0.1
	c-0.5-0.2-1.1-0.2-1.6,0.3c-1.2,1.3-2.5,2.7-3.7,4c-0.7,0.7-0.5,2.3,0.7,2.5c21.5,3.2,43.2,4.7,64.9,4.4c6.2-0.1,12.3-0.3,18.4-0.7
	c0.9-0.1,1.4-0.7,1.5-1.5l0.9-7.7C154,63.2,152.8,62.7,152,62.8z"/>
<g>
	<g>
		<path class="st1" d="M65.1,70.8c25.1,5.3,50.9,5.9,76.5,4.2c3.5-0.2,7.1-0.3,10.5-0.8c1.2-0.2,2.5-1.1,2.1-2.5
			c-0.4-1.4-2.1-1.9-3.1-0.8c-1.3,1.4,0.8,3.5,2.1,2.1c0,0,0.1-0.1,0.1-0.1c-0.4,0.1-0.7,0.3-1.1,0.4c-0.2-0.7-0.3-1.4-0.5-2
			c-0.2,0-0.3,0-0.5,0c-0.4,0-0.8,0.1-1.2,0.1c-0.7,0.1-1.3,0.1-2,0.2c-1.5,0.1-2.9,0.2-4.4,0.3c-2.8,0.2-5.7,0.4-8.5,0.5
			c-5.6,0.3-11.3,0.5-16.9,0.5C107.2,72.9,96,72.4,85,71.1c-6.4-0.8-12.7-1.8-19-3.2C64,67.5,63.2,70.4,65.1,70.8L65.1,70.8z"/>
	</g>
</g>
<g>
	<g>
		<path class="st1" d="M70.4,63.9c13,2.4,26.1,3.9,39.4,4.2c10.5,0.2,20.9-0.8,31.4-1.9c4.1-0.5,8.2-0.9,12.3-1.4
			c0.8-0.1,1.2-1.1,1-1.8c-0.2-0.9-1-1.2-1.8-1c-2.9,0.4-6.9,0.8-10.2,1.2c-3.6,0.4-7.1,0.8-10.7,1.2c-12.8,1.3-25.6,1.2-38.4,0
			c-7.4-0.7-14.8-1.8-22.1-3.1C69.3,60.7,68.5,63.6,70.4,63.9L70.4,63.9z"/>
	</g>
</g>
<path class="st4" d="M158.1,121.1c-6.5-1.5-13-0.5-19.5,0.5c-3.3,0.5-6.6,1-9.9,1c-3.4,0-6.8-0.4-10.3-0.6
	c-6.8-0.3-13.5,0.9-20.3,0.9c-6.7,0-13.5-0.5-20.1-1.7c-7.4-1.4-14.8-3.5-21.9-6.3c-1-0.4-1.9,0.7-1.9,1.9
	c-0.2,7.2,6.5,7.2,10.3,8.1c4.6,1,9.2,2.7,13.5,5.1c4.3,2.4,8.4,5.5,12.1,9.1c3.6,3.5,7.7,7.8,8.9,13.7c0.6,2.8,1,6,3.1,7.7
	c1.4,1.1,3.1,1.2,4.4,0.2c0.5-0.1,0.9-0.5,1.1-1.3c0-0.1,0-0.1,0.1-0.2c0.1-0.2,0.1-0.4,0.2-0.6c1.2-4.2,4.8-5.6,7.5-8.1
	c3.4-3.1,7.6-5.4,11.2-8.1c7.1-5.2,13.3-11.5,21.3-13.8c2.2-0.6,4.4-1.1,6.6-1.4c1.9-0.3,7-2.4,7.6-5.1
	C162.4,120.8,158.9,121.3,158.1,121.1z"/>
<g>
	<g>
		<path class="st1" d="M55.4,125.1c6.4,1,12.7,2.6,18.9,4.8c1.4,0.5,2.9,1,4.3,1.6c0.9,0.4,2,0.7,2.8,1.2c0.9,0.5,1.7,1.4,2.6,2.3
			c5.3,5.7,9.4,12.6,13.6,19.1c1.8,2.8,3.6,5.7,5.7,8.4c1.2,1.5,3.3-0.6,2.1-2.1c0,0-0.1-0.2-0.3-0.4c-0.2-0.2-0.4-0.5-0.5-0.7
			c-0.4-0.6-0.8-1.2-1.2-1.8c-1-1.4-1.9-2.9-2.9-4.3c-2.3-3.5-4.6-7-7-10.5c-2.2-3.2-4.4-6.4-7-9.2c-0.9-1.1-1.9-2.1-3.1-2.9
			c-1.7-1.2-3.8-1.8-5.8-2.5c-6.9-2.6-14.1-4.6-21.4-5.7C54.3,122,53.5,124.8,55.4,125.1L55.4,125.1z"/>
	</g>
</g>
<path class="st3" d="M159.9,113.4c-13.5,0.2-27,0.5-40.5,0.7c-13.1,0.2-26.3,0.5-39.3-1.7c-3.6-0.6-7.2-1.3-10.8-2.1
	c-1.8-0.4-3.6-0.8-5.4-1.2c-1.6-0.4-3.5-0.6-5.1-1.2c-1.5-0.7-3.3-0.4-4.2,1.1c-0.8,1.3-0.4,3.4,1.1,4.1c3.1,1.3,6.5,1.8,9.7,2.5
	c3.3,0.7,6.5,1.4,9.8,2c6.8,1.2,13.6,2.1,20.5,2.4c13.6,0.6,27.4-0.1,41-0.3c7.7-0.1,15.4-0.3,23.1-0.4
	C163.8,119.3,163.9,113.3,159.9,113.4z"/>
<g>
	<g>
		<path class="st1" d="M108,161.6c1.5-3.5,5.2-5.7,7.7-8.4c3.2-3.5,6.6-6.8,10.3-9.8c6.4-5.3,13.6-9.7,21.4-12.7
			c4.1-1.5,8.3-2.6,12.6-3.3c1.9-0.3,1.1-3.2-0.8-2.9c-17.6,2.7-33,13-44.9,25.8c-3.1,3.4-7.3,6-9.1,10.4
			C104.3,162.5,107.2,163.3,108,161.6L108,161.6z"/>
	</g>
</g>
<g>
	<g>
		<path class="st1" d="M56.5,115.9c12.6,4.9,26.2,6.5,39.6,6.9c13.9,0.4,27.9-0.3,41.8-0.8c8.2-0.3,16.5-0.7,24.7-1
			c1.9-0.1,1.9-3.1,0-3c-14.5,0.7-29,1.2-43.5,1.6c-13.4,0.4-26.9,0.7-40.2-1.1c-7.4-1-14.7-2.8-21.7-5.5
			C55.5,112.3,54.7,115.2,56.5,115.9L56.5,115.9z"/>
	</g>
</g>
<g>
	<g>
		<path class="st1" d="M56.2,108c12.6,4.9,26.2,6.5,39.6,6.9c13.9,0.4,27.9-0.3,41.8-0.8c8.2-0.3,16.5-0.7,24.7-1
			c1.9-0.1,1.9-3.1,0-3c-14.5,0.7-29,1.2-43.5,1.6c-13.4,0.4-26.9,0.7-40.2-1.1c-7.4-1-14.7-2.8-21.7-5.5
			C55.2,104.4,54.4,107.3,56.2,108L56.2,108z"/>
	</g>
</g>
<path class="st1" d="M189.8,117.3"/>
<g>
	<path class="st5" d="M62.6,90.4c-1.5,0.1-3.8,0.2-4.8-1.2c-0.9-1.3-0.3-3.7-0.1-5.2c0.1-1.1,0.5-2.6,0.1-3.6
		c-0.5-1.1-1.6-1.3-2.6-1.5c-7-1.2-14.1-2.8-21.1-3.4c-0.2-0.2-0.4-0.3-0.8-0.3c-1.5-0.1-3-0.1-4.4-0.2c-0.5,0-1,0.6-0.9,1.1
		c1.2,5.6,1.2,11.1,0.8,16.9c-0.1,1.7-0.1,3.6,1.2,4.9c1.4,1.5,3.4,1.6,5.3,1.6c5.6,0,11.1-0.9,16.6-0.3c2.4,0.3,3.9,0,5.7-1.5
		c2.1-1.7,4.1-3.6,5.9-5.6C64.1,91.4,63.4,90.4,62.6,90.4z"/>
	<g>
		<g>
			<path class="st1" d="M27.1,74.3C27,82.5,27.6,90.8,28.2,99c0.1,1,1.6,1,1.5,0c-0.7-8.2-1.2-16.4-1.1-24.6
				C28.6,73.3,27.1,73.3,27.1,74.3L27.1,74.3z"/>
		</g>
	</g>
	<g>
		<g>
			<path class="st1" d="M29,99.7c8.8,0.5,17.6,0.8,26.4,0.7c1,0,1-1.5,0-1.5C46.6,99,37.8,98.8,29,98.2C28,98.2,28,99.7,29,99.7
				L29,99.7z"/>
		</g>
	</g>
	<g>
		<g>
			<path class="st1" d="M56.7,99.6c1.1-6.6,2-13.3,2.7-20c0.1-1-1.4-1-1.5,0c-0.7,6.6-1.5,13.1-2.6,19.6
				C55.1,100.1,56.5,100.5,56.7,99.6L56.7,99.6z"/>
		</g>
	</g>
	<g>
		<g>
			<path class="st1" d="M28.2,75.1c9.9,1.7,19.8,3.3,29.6,5.1c0.9,0.2,1.3-1.3,0.4-1.4c-9.9-1.7-19.8-3.3-29.6-5.1
				C27.6,73.5,27.2,74.9,28.2,75.1L28.2,75.1z"/>
		</g>
	</g>
	<g>
		<g>
			<g>
				<path class="st1" d="M56.4,100.2c3.4-1.8,5.3-5.5,8.5-7.6c0.7-0.4,0.4-1.3-0.4-1.4c-0.1,0-0.2,0-0.3,0c0.1,0.5,0.1,1,0.2,1.5
					c0.9-0.2,1.4-1.1,1.2-2c-0.1-0.3-0.4-0.5-0.7-0.6c-0.2,0-0.5-0.1-0.7-0.1c0.1,0.5,0.1,1,0.2,1.5c0.1,0,0.2,0,0.3-0.1
					c0.8-0.2,0.6-1.2,0-1.4c-2.3-0.9-4.6-1.4-7-1.6c-1-0.1-1,1.4,0,1.5c2.3,0.2,4.5,0.7,6.6,1.6c0-0.5,0-1,0-1.4
					c-0.1,0-0.2,0-0.3,0.1c-0.4,0.1-0.6,0.5-0.5,0.8c0.1,0.4,0.4,0.6,0.7,0.7c0.2,0,0.5,0.1,0.7,0.1c-0.2-0.2-0.5-0.4-0.7-0.6
					c0,0.1-0.1,0.1-0.2,0.2c-0.9,0.2-0.6,1.4,0.2,1.5c0.1,0,0.2,0,0.3,0c-0.1-0.5-0.3-0.9-0.4-1.4c-3.2,2.1-5.1,5.7-8.5,7.6
					C54.8,99.4,55.6,100.7,56.4,100.2L56.4,100.2z"/>
			</g>
		</g>
	</g>
	<g>
		<path class="st6" d="M44.9,86.3c-0.3,0.6-0.6,1.2-0.9,1.8c-0.5,0.8-1.1,1.7-2,2c-0.8,0.3-1.8,0-2.5-0.6c-0.7-0.6-1.1-1.4-1.1-2.3
			c0-0.4,0-0.9,0.4-1.1c0.2-0.1,0.4-0.1,0.6,0c1.4,0.2,2.5,1.1,3.5,2.1c0.9,1,1.7,2.2,2.6,3.2c0.2-1.6,0-3.2-0.5-4.7"/>
		<g>
			<path class="st1" d="M44.6,86.1c-0.5,1.1-1,2.3-1.9,3.1c-0.9,0.8-2.2,0.7-3-0.1c-0.4-0.4-0.7-1-0.8-1.6c-0.1-0.2-0.1-0.5-0.1-0.7
				c0.1-0.3,0.2-0.4,0.5-0.3c1.2,0.1,2.2,0.9,3,1.7c1,1.1,1.8,2.3,2.8,3.5c0.2,0.2,0.6,0.1,0.6-0.2c0.2-1.7,0.1-3.3-0.5-4.9
				c-0.2-0.4-0.9-0.3-0.7,0.2c0.5,1.4,0.7,3,0.5,4.5c0.2-0.1,0.4-0.1,0.6-0.2c-1-1.2-1.9-2.6-3-3.7c-0.5-0.5-1.1-1-1.8-1.3
				c-0.6-0.3-1.4-0.6-2-0.4c-1.4,0.4-0.6,2.7-0.1,3.4c0.8,1.1,2.3,1.8,3.6,1.2c1.5-0.6,2.3-2.4,2.9-3.8C45.4,86,44.8,85.6,44.6,86.1
				L44.6,86.1z"/>
		</g>
	</g>
</g>
<g>
	<path class="st6" d="M159.7,74.5c0.7-0.7,1.4-1.4,2.2-2.1c1-1,2.1-2,3.5-2.1c1.4-0.1,2.8,1.5,2.1,2.6c-0.4,0.8-1.4,0.9-2.3,1
		c-1.7,0.2-3.3,0.4-5,0.6"/>
</g>
<g>
	<path class="st6" d="M162.7,80.5c1-0.1,2-0.3,3-0.4c1.4-0.2,2.9-0.3,4.1,0.5c1.2,0.8,1.4,2.9,0.1,3.4c-0.8,0.3-1.7-0.1-2.5-0.6
		c-1.5-0.8-2.9-1.7-4.4-2.5"/>
</g>
</svg>
