<?xml version="1.0" encoding="utf-8"?>
<!-- Generator: Adobe Illustrator 26.3.1, SVG Export Plug-In . SVG Version: 6.00 Build 0)  -->
<svg version="1.1" id="Calque_1" xmlns="http://www.w3.org/2000/svg" xmlns:xlink="http://www.w3.org/1999/xlink" x="0px" y="0px"
	 viewBox="0 0 200 200" style="enable-background:new 0 0 200 200;" xml:space="preserve">
<style type="text/css">
	.st0{fill:#666666;}
	.st1{fill:#E7F4DF;}
	.st2{fill:#10101A;}
	.st3{fill:#CCCCCC;}
	.st4{fill:#79A2D8;}
	.st5{fill:#FD5A5C;}
	.st6{fill:#99FF99;}
</style>
<g>
	<g>
		<path class="st0" d="M46.6,115c-3.9-1.1-6.5-3.6-8.7-7c-2.3-3.3-4.1-7-6.9-9.9c-2.8-2.9-6.4-4.9-10.4-5.7
			c-2.1-0.4-4.3-0.5-6.4,0.1c-4,1.3-6.8,5.3-7.2,9.5c-0.4,4.2,1.5,8.4,4.5,11.3s4.9,4.3,9.5,6.2c-1.6,0.6-3.2,4.1-3.1,4.5
			c0.2,0.7,1.8-0.1,2.5-0.1c4.6-0.2,8.9,2.3,13.1,4.2c4.2,1.9,8.1,1.4,12.6,0.5"/>
		<g>
			<path class="st1" d="M47,113.5c-5.6-1.7-8.1-6.8-11-11.4c-3.2-4.9-7.3-8.9-13-10.7c-5.4-1.7-11.3-0.9-14.8,3.8
				c-3.4,4.5-3.2,10.5-0.5,15.2c2.8,4.9,7.7,8.2,12.8,10.3c0-0.9,0-1.7,0-2.6c-1.2,0.6-2,1.8-2.7,2.9c-0.5,0.8-1.2,1.9-1.1,2.8
				c0,1.7,1.7,2,3,1.7c1.7-0.3,3.2-0.3,4.9,0.2c3.8,1,7.1,3.4,10.9,4.4c3.7,1,7.6,0.5,11.3-0.2c1.9-0.4,1.1-3.2-0.8-2.9
				c-3.1,0.6-6.2,1.1-9.3,0.3c-3.1-0.8-5.9-2.6-8.9-3.7c-2.7-1-5.7-1.8-8.5-1.1c-0.7,0.2-0.7-0.1-0.1,0.9c1,1.5,0.3,0.8,0.5,0.5
				c0.2-0.2,0.3-0.7,0.5-1c0.5-0.8,1-1.8,1.8-2.2c0.9-0.5,1-2.2,0-2.6c-4-1.7-7.7-3.9-10.5-7.4c-3-3.9-4-9.3-1.1-13.5
				c3.1-4.6,8.8-4.4,13.4-2.5c5.2,2.1,8.2,6.4,11,11c2.9,4.6,6,9,11.5,10.6C48,117,48.8,114.1,47,113.5L47,113.5z"/>
		</g>
	</g>
	<g>
		<g>
			<path class="st1" d="M15.4,92.7c-1.5,3.8-2.4,7.8-2.6,11.9c-0.1,2.1-0.1,4.1,0.2,6.2c0.1,0.9,0.2,1.9,0.4,2.8
				c0.1,0.5,0.3,0.9,0.9,0.9c0.5,0,0.5-0.7,0-0.8c-0.5,0-0.7-4.8-0.7-5.4c-0.1-1.7,0-3.3,0.1-5c0.3-3.6,1.2-7,2.5-10.3
				C16.3,92.4,15.6,92.3,15.4,92.7L15.4,92.7z"/>
		</g>
	</g>
	<g>
		<g>
			<path class="st1" d="M20,92.4c-0.9,1.2-1,3.1-1.2,4.6c-0.3,2.6-0.4,5.3-0.4,7.9c0,2.8,0.1,5.5,0.4,8.3c0.1,1.1,0.3,2.2,0.5,3.3
				c0.1,0.6,0.3,1.8,0.9,2.1c0.1,0.1,0.3,0.1,0.5-0.1c0.2-0.2,0.2-0.3,0.1-0.5c0-0.2-0.2-0.3-0.4-0.3c0,0,0,0-0.1,0
				c-0.5,0-0.5,0.7,0,0.8c0,0,0,0,0.1,0c-0.1-0.1-0.2-0.2-0.4-0.3c0-0.1,0-0.1,0.1-0.2c0.2,0,0.3,0,0.5-0.1c-0.5-0.2-0.6-2-0.7-2.5
				c-0.2-1.1-0.3-2.2-0.4-3.3c-0.2-2.5-0.3-5.1-0.3-7.7c0-2.4,0.1-4.8,0.4-7.2c0.2-1.4,0.2-3.3,1.1-4.4C20.9,92.4,20.3,92,20,92.4
				L20,92.4z"/>
		</g>
	</g>
	<g>
		<g>
			<path class="st1" d="M17.9,92.8c-1.3,1.4-1.4,3.4-1.7,5.2c-0.3,2.2-0.5,4.3-0.6,6.5c-0.1,2.3,0,4.6,0.2,6.8
				c0.1,1.1,0.3,2.1,0.5,3.2c0.1,0.7,0.1,1.7,0.6,2.2c0.1,0.1,0.2,0.1,0.4,0.1c0,0,0.1,0,0.1,0c0.2-0.1,0.3-0.2,0.3-0.4
				c0,0,0-0.1,0-0.1c0-0.5-0.8-0.5-0.8,0c0,0,0,0.1,0,0.1c0.1-0.1,0.2-0.2,0.3-0.4c0.3,0.1,0.3,0,0.1-0.4c0-0.2-0.1-0.4-0.1-0.6
				c-0.1-0.5-0.2-1-0.3-1.5c-0.2-1-0.3-2-0.4-3c-0.2-1.9-0.2-3.8-0.2-5.7c0.1-1.9,0.2-3.8,0.5-5.7c0.2-1.8,0.3-4.2,1.6-5.7
				C18.7,93,18.2,92.4,17.9,92.8L17.9,92.8z"/>
		</g>
	</g>
	<g>
		<g>
			<path class="st1" d="M22,92.6c-1.5,6.9-1.1,14.3-0.5,21.2c0.1,0.9,0.1,1.8,0.2,2.7c0,0.4,0.1,0.8,0.1,1.2c0,0.2,0.1,0.5,0.1,0.7
				c0,0.2,0,0.3,0.3,0.4c0,0.1-0.2,0.3-0.2,0.4c0,0.2,0,0.5,0.1,0.7c0.1,0.6,0.2,3.4,1,3.6c0.5,0.1,0.7-0.6,0.2-0.7
				c0.3,0.1,0.2,0.2,0.1-0.1c0-0.1-0.1-0.2-0.1-0.3c-0.1-0.4-0.2-0.8-0.2-1.2c-0.1-0.4-0.1-0.8-0.2-1.1c0-0.2,0-0.4-0.1-0.5
				c-0.1-0.3,0.1-0.3-0.2-0.1c0.1-0.1,0.2-0.2,0.2-0.3c-0.5-4.4-0.8-8.8-0.9-13.2c-0.1-4.4-0.1-8.9,0.9-13.2
				C22.8,92.3,22.1,92.1,22,92.6L22,92.6z"/>
		</g>
	</g>
	<g>
		<g>
			<path class="st1" d="M23.8,94.8c-1.1,5-0.4,10.2,0.1,15.2c0.4,5.1,1,10.3,2.5,15.2c0.1,0.4,0.6,0.3,0.7,0
				c0.1-0.1,0.1-0.3,0.2-0.4c0.2-0.5-0.5-0.6-0.7-0.2c-0.1,0.1-0.1,0.3-0.2,0.4c0.2,0,0.5,0,0.7,0c-1.5-4.9-2-9.9-2.4-15
				c-0.4-5-1.2-10.1-0.1-15C24.7,94.6,23.9,94.4,23.8,94.8L23.8,94.8z"/>
		</g>
	</g>
	<g>
		<g>
			<path class="st1" d="M26,95.3c-0.2,5.7-0.1,11.4,0.5,17c0.3,2.6,0.6,5.1,1,7.6c0.2,1.4,0.5,2.7,0.9,4c0.2,0.6,0.3,1.9,1,2.2
				c0.2,0.1,0.4,0,0.5-0.1c0.1-0.2,0.1-0.3,0.1-0.5c-0.1-0.2-0.2-0.3-0.5-0.3c0,0,0,0-0.1,0c-0.5,0.1-0.3,0.8,0.2,0.7c0,0,0,0,0.1,0
				c-0.2-0.1-0.3-0.2-0.5-0.3c0,0,0-0.1,0-0.1c0.2,0,0.3-0.1,0.5-0.1c-0.3-0.2-0.6-1.4-0.7-1.8c-0.2-0.6-0.3-1.2-0.5-1.8
				c-0.3-1.2-0.5-2.4-0.7-3.6c-0.4-2.6-0.7-5.2-0.9-7.8c-0.4-5.1-0.5-10.2-0.3-15.3C26.7,94.8,26,94.8,26,95.3L26,95.3z"/>
		</g>
	</g>
	<g>
		<g>
			<path class="st1" d="M28.7,96.8c-0.8,10.3,1.2,20.5,3.2,30.6c0.1,0.3,0.5,0.4,0.7,0.1c0.1-0.2,0.2-0.4,0.3-0.5
				c0.2-0.4-0.4-0.8-0.6-0.4c-0.1,0.2-0.2,0.4-0.3,0.5c0.2,0,0.5,0.1,0.7,0.1c-2-10-3.9-20.1-3.2-30.4
				C29.5,96.3,28.8,96.3,28.7,96.8L28.7,96.8z"/>
		</g>
	</g>
	<g>
		<g>
			<path class="st1" d="M30.8,99.8c-0.3,4.9,0.5,9.9,1.3,14.7c0.4,2.5,0.9,5,1.3,7.5c0.4,2.2,0.7,4.4,1.7,6.5c0.1,0.2,0.5,0.2,0.6,0
				c0.1-0.2,0.2-0.3,0.3-0.5c0.2-0.4-0.4-0.8-0.6-0.4c-0.1,0.2-0.2,0.3-0.3,0.5c0.2,0,0.4,0,0.6,0c-1-2.1-1.3-4.5-1.7-6.8
				c-0.4-2.4-0.8-4.7-1.3-7.1c-0.9-4.8-1.6-9.6-1.3-14.5C31.6,99.3,30.8,99.3,30.8,99.8L30.8,99.8z"/>
		</g>
	</g>
	<g>
		<g>
			<path class="st1" d="M33.4,103.1c0.1,4.8,0.2,9.5,0.8,14.3c0.3,2.2,0.7,4.5,1.2,6.6c0.3,1,0.6,2,0.9,3c0.2,0.6,0.3,1.5,0.9,1.8
				c0.1,0.1,0.3,0.1,0.5-0.1c0.2-0.2,0.2-0.3,0.1-0.6c0-0.1-0.2-0.3-0.4-0.3c0,0-0.1,0-0.1,0c-0.5,0-0.5,0.8,0,0.8c0,0,0.1,0,0.1,0
				c-0.1-0.1-0.2-0.2-0.4-0.3c0-0.1,0-0.1,0.1-0.2c0.2,0,0.3,0,0.5-0.1c-0.5-0.2-0.9-2.5-1-3.1c-0.3-0.9-0.5-1.8-0.7-2.7
				c-0.5-2.2-0.8-4.5-1.1-6.7c-0.4-4.2-0.5-8.4-0.6-12.6C34.2,102.6,33.4,102.6,33.4,103.1L33.4,103.1z"/>
		</g>
	</g>
	<g>
		<g>
			<path class="st1" d="M36,107c0,4.3-0.1,8.6,0.5,12.8c0.2,1.8,0.6,3.6,1.2,5.3c0.3,0.9,0.7,1.7,1.1,2.5c0.2,0.4,0.5,1.3,1.1,1.4
				c0.1,0,0.4,0,0.4-0.2c0.1-0.2,0.1-0.3,0-0.5c-0.1-0.2-0.3-0.2-0.5-0.1c0,0,0,0,0,0c-0.4,0.2-0.1,0.8,0.4,0.6c0,0,0,0,0,0
				c-0.2,0-0.3-0.1-0.5-0.1c0-0.1,0-0.2,0-0.3c0.1-0.1,0.3-0.1,0.4-0.2c-0.4-0.1-1-1.7-1.2-2.1c-0.4-0.8-0.7-1.7-0.9-2.5
				c-0.5-1.7-0.8-3.5-0.9-5.3c-0.3-3.7-0.3-7.5-0.3-11.2C36.8,106.5,36,106.5,36,107L36,107z"/>
		</g>
	</g>
	<g>
		<g>
			<path class="st1" d="M38,109.7c0.3,3.4,0.1,6.9,0.6,10.3c0.5,3.2,1.5,6.2,3,9c0.2,0.4,0.9,0,0.6-0.4c-1.5-2.7-2.5-5.7-3-8.8
				c-0.5-3.3-0.3-6.7-0.6-10.1C38.7,109.3,37.9,109.3,38,109.7L38,109.7z"/>
		</g>
	</g>
	<g>
		<g>
			<path class="st1" d="M39.6,111.5c0.1,2.9,0.1,5.9,0.4,8.8c0.3,2.6,1,5.1,2.3,7.4c0.2,0.4,0.9,0,0.6-0.4c-1.3-2.4-2-5-2.2-7.6
				c-0.2-2.7-0.3-5.5-0.4-8.3C40.4,111,39.6,111,39.6,111.5L39.6,111.5z"/>
		</g>
	</g>
	<g>
		<g>
			<path class="st1" d="M42.5,114.3c-0.3,3.1-0.6,6.2-0.4,9.3c0.1,1.4,0.3,2.9,0.7,4.2c0.1,0.4,0.2,1,0.7,1c0.3,0,0.6-0.2,0.6-0.5
				c0-0.5-0.7-0.5-0.8,0c0.4,0,0.5-0.2,0.3-0.5c0-0.1-0.1-0.3-0.1-0.4c-0.1-0.3-0.2-0.6-0.2-0.9c-0.1-0.5-0.2-1-0.3-1.6
				c-0.2-1.2-0.2-2.5-0.2-3.7c0-2.4,0.2-4.7,0.5-7C43.3,113.8,42.6,113.8,42.5,114.3L42.5,114.3z"/>
		</g>
	</g>
	<g>
		<g>
			<path class="st1" d="M44.9,115.3c-0.2,2.4-0.6,4.8-0.9,7.2c-0.1,1.1-0.1,2.3-0.1,3.5c0,0.5,0.1,1,0.2,1.6
				c0.1,0.4,0.1,0.9,0.4,1.1c0.1,0.1,0.3,0,0.5-0.1c0.1-0.1,0.2-0.2,0.1-0.4c0-0.2-0.1-0.3-0.3-0.4c0,0,0,0,0,0
				c-0.5-0.1-0.7,0.6-0.2,0.7c0,0,0,0,0,0c-0.1-0.1-0.2-0.2-0.3-0.4c0-0.1,0-0.1,0.1-0.2c0.2,0,0.3,0,0.5-0.1c0.1,0.1,0-0.4-0.1-0.5
				c-0.1-0.3-0.1-0.7-0.1-1c0-0.5-0.1-1-0.1-1.5c0-1.1,0.1-2.1,0.2-3.2c0.2-2.2,0.6-4.3,0.8-6.5C45.7,114.8,45,114.8,44.9,115.3
				L44.9,115.3z"/>
		</g>
	</g>
	<g>
		<g>
			<path class="st1" d="M13.3,93.3c-2.5,5.5-3.8,11.5-3.7,17.5c0,0.2,0.2,0.4,0.4,0.4c0.3,0,0.5-0.1,0.8-0.1c0.5,0,0.5-0.8,0-0.8
				c-0.3,0-0.5,0.1-0.8,0.1c0.1,0.1,0.2,0.2,0.4,0.4c-0.1-5.9,1.1-11.8,3.6-17.1C14.2,93.2,13.5,92.8,13.3,93.3L13.3,93.3z"/>
		</g>
	</g>
</g>
<g>
	<path class="st0" d="M46,146.5c0.3-0.1,0.5-0.2,0.8-0.3c12.8-2.6,25.9-1.9,38.7-0.2c0,0,0,0,0,0c0,0,0,0,0,0
		c0.4,0.1,0.9,0.1,1.3,0.2c0.6,0.1,1.2,0.3,1.6,0.6c2.8-0.3,5.6-0.6,8.4-0.9c17.5-1.6,35.7-1.6,53.2-0.7c0.5,0,0.9,0.1,1.3,0.3
		c2.5-7.3,5.1-19.5,4.6-22.1c-0.6-0.6-1.6-5.4-1.8-6.4c-0.8-4.8-1.7-9-2.7-13.7c-0.2-0.5-0.3-1-0.4-1.6c-0.1-0.6-0.1-1.2-0.1-1.7
		c-0.2,0-0.3,0-0.5,0c0-0.1,0-0.2,0-0.3c-0.9-4.6-2.7-8.8-4.4-13.2c0.7-3.1,1.5-6.1,2-9.3c0.5-3.5,1.4-7.8-0.4-11.1
		c-0.7-1.4-2-2.5-3.4-3c-1.9-0.6-3.8,0-5.6,0.8c-3.5,1.6-6.8,3.7-10,5.8c-15.2-7.7-33.2-9.1-49.3-3.6c-1.3-1.2-2.8-2.4-4.3-3.4
		c-1.5-1.1-3.2-2-4.8-2.9c-1.8-0.9-3.8-1.8-5.8-1.1c-1.3,0.4-2.5,1.3-2.8,2.7c-0.2,0.7-0.3,1.4-0.4,2.1c-0.4,2.7-0.7,5.3-0.8,8
		c-0.1,2-0.2,4.1-0.1,6.2c-0.1,0.1-0.2,0.2-0.3,0.3c-3.5,5.4-7.8,10.5-10.1,16.5c-0.1,0-0.4,0-0.6,0c-0.1,0.4-0.2,0.7-0.4,1.1
		c-0.1,0.2-0.2,0.5-0.3,0.7c-0.4,0.7-2.4,3.6-2.6,4.4c0,0,0,0,0,0c0,0,0,0,0,0c0,3.8-5.9,22.1-5.8,22.3
		C40.1,123.4,41.9,135.3,46,146.5z"/>
</g>
<g>
	<g>
		<path class="st1" d="M80.3,68.4c15.7-5.3,33.3-4.1,48,3.5c1.7,0.9,3.2-1.7,1.5-2.6c-15.5-7.9-33.9-9.3-50.3-3.8
			C77.7,66.1,78.4,69,80.3,68.4L80.3,68.4z"/>
	</g>
</g>
<g>
	<g>
		<g>
			<path class="st1" d="M63.6,79.5c-0.6-2.2-0.5-4.6-0.4-6.9c0.1-2.6,0.3-5.1,0.7-7.7c0.1-0.8,0.2-1.6,0.4-2.4
				c0-0.3,0.1-0.5,0.1-0.8c0-0.1,0.2-0.4,0.1-0.3c0.9-1.5,3.3-0.3,4.3,0.3c1.5,0.8,3,1.6,4.4,2.6c3.1,2,5.8,4.5,8.2,7.3
				c1.3,1.4,3.4-0.7,2.1-2.1c-2.5-2.8-5.2-5.3-8.3-7.4c-1.6-1.1-3.2-2-4.9-2.9c-1.8-0.9-3.9-1.8-5.9-1.1c-1.3,0.4-2.5,1.4-2.9,2.7
				c-0.2,0.7-0.3,1.4-0.4,2.1c-0.4,2.7-0.7,5.4-0.9,8.1c-0.2,3.1-0.3,6.4,0.4,9.4C61.2,82.2,64,81.4,63.6,79.5L63.6,79.5z"/>
		</g>
	</g>
	<g>
		<g>
			<path class="st1" d="M147.3,86.5c0.8-3.3,1.6-6.5,2.1-9.9c0.5-3.6,1.4-7.9-0.4-11.2c-0.7-1.4-2-2.6-3.5-3c-1.9-0.6-3.9,0-5.7,0.8
				c-3.7,1.7-7.3,4-10.7,6.2c-1.2,0.8-0.8,2.7,0.8,2.8c0.7,0,1.3-0.2,1.8-0.7c1.5-1.2-0.6-3.3-2.1-2.1c0.1-0.1,0.2-0.1,0.3-0.2
				c0.3,0.9,0.5,1.9,0.8,2.8c2.9-1.9,5.8-3.7,8.9-5.3c1.4-0.7,3.1-1.8,4.8-1.5c1.2,0.2,2.1,1.4,2.4,2.6c0.5,1.7,0.3,3.5,0.1,5.2
				c-0.1,1.5-0.3,2.9-0.6,4.4c-0.5,2.8-1.2,5.6-1.9,8.4C143.9,87.6,146.8,88.4,147.3,86.5L147.3,86.5z"/>
		</g>
	</g>
	<g>
		<g>
			<path class="st1" d="M129.2,72.2c0.7,1.6,1.1,3.5,2.7,4.6c2.1,1.5,5.3,0.5,6.8-1.4c0.8-1.1,1.6-2.2,2.5-3.2
				c0.4-0.5,0.9-1,1.3-1.4c0.4-0.4,1-1,1.5-1c1.3,0,0.5,2.6,0.4,3.3c-0.2,1.6-0.3,3.2-0.4,4.8c-0.1,1.7-0.2,3.5-0.1,5.2
				c0.1,1.3,0.4,2.7,1.3,3.6c0.7,0.7,1.7-0.4,1.1-1.1c-0.8-0.8-0.9-2.2-0.9-3.2c-0.1-1.6,0-3.2,0.1-4.8c0.1-1.6,0.2-3.2,0.4-4.7
				c0.2-1.2,0.6-2.6-0.1-3.7c-1.7-2.7-4.7,0.7-5.9,2.1c-0.9,1-1.6,2.2-2.5,3.2c-0.8,1-2.3,1.6-3.7,1.4c-2.1-0.3-2.6-2.9-3.3-4.5
				C130.1,70.5,128.8,71.3,129.2,72.2L129.2,72.2z"/>
		</g>
	</g>
	<g>
		<g>
			<path class="st1" d="M82.2,70.6c-1.1,0.6-2.3,2.2-3.6,2c-1.6-0.2-3.1-2-4.2-3c-1.4-1.2-2.7-2.4-4.1-3.5c-0.9-0.7-2.1-1.6-3.3-1.7
				c-2.5-0.1-2.5,3.3-2.7,5c-0.4,3.5-1.7,6.8-2.2,10.3c-0.1,0.9,1.3,1.4,1.4,0.4c0.5-3.3,1.6-6.4,2.1-9.6c0.2-1.2,0.2-2.4,0.5-3.6
				c0.1-0.4,0.3-0.9,0.7-0.9c0.6-0.1,1.3,0.5,1.8,0.8c2.7,1.9,4.9,4.5,7.6,6.4c1,0.7,2.3,1.3,3.5,0.8c1.2-0.4,2-1.5,3.2-2.1
				C83.8,71.5,83.1,70.2,82.2,70.6L82.2,70.6z"/>
		</g>
	</g>
	<g>
		<g>
			<path class="st1" d="M67.1,64.5c-0.9-1.4-1.5-2.9-1.7-4.6c0-0.2-0.2-0.4-0.4-0.4c-0.2,0-0.4,0.2-0.4,0.4c0.2,1.8,0.8,3.5,1.8,4.9
				C66.7,65.3,67.4,64.9,67.1,64.5L67.1,64.5z"/>
		</g>
	</g>
	<g>
		<g>
			<path class="st1" d="M68.9,65.7c-0.4-1.9-0.8-3.7-1.2-5.6c-0.1-0.5-0.8-0.3-0.7,0.2c0.4,1.9,0.8,3.7,1.2,5.6
				C68.3,66.3,69,66.1,68.9,65.7L68.9,65.7z"/>
		</g>
	</g>
	<g>
		<g>
			<path class="st1" d="M70.7,66.6c-0.4-1.6-0.5-3.2-0.4-4.8c0-0.5-0.7-0.5-0.8,0c-0.1,1.7,0,3.4,0.4,5C70.1,67.2,70.9,67,70.7,66.6
				L70.7,66.6z"/>
		</g>
	</g>
	<g>
		<g>
			<path class="st1" d="M72.5,68.4c-0.3-1.9-0.4-3.9-0.3-5.9c0-0.5-0.7-0.5-0.8,0c0,2,0.1,4,0.4,6.1c0,0.2,0.3,0.3,0.5,0.3
				C72.4,68.9,72.5,68.6,72.5,68.4L72.5,68.4z"/>
		</g>
	</g>
	<g>
		<g>
			<path class="st1" d="M74.2,70c-0.3-1.8-0.3-3.6,0.1-5.4c0.1-0.5-0.6-0.7-0.7-0.2c-0.4,1.9-0.5,3.9-0.1,5.8
				C73.6,70.7,74.3,70.5,74.2,70L74.2,70z"/>
		</g>
	</g>
	<g>
		<g>
			<path class="st1" d="M75.8,71.3c-0.3-1.7-0.1-3.4,0.4-5.1c0.1-0.5-0.6-0.7-0.7-0.2c-0.6,1.8-0.7,3.6-0.4,5.5
				c0,0.2,0.3,0.3,0.5,0.3C75.7,71.7,75.8,71.5,75.8,71.3L75.8,71.3z"/>
		</g>
	</g>
	<g>
		<g>
			<path class="st1" d="M77.2,72.6c0-1.6,0.3-3.2,0.8-4.7c0.2-0.5-0.6-0.6-0.7-0.2c-0.6,1.6-0.8,3.2-0.8,4.9
				C76.4,73.1,77.2,73.1,77.2,72.6L77.2,72.6z"/>
		</g>
	</g>
	<g>
		<g>
			<path class="st1" d="M78.4,72.8c0.1-1.5,0.5-3,1.2-4.4c0.1-0.2,0.1-0.4-0.1-0.5c-0.2-0.1-0.4-0.1-0.5,0.1
				c-0.7,1.5-1.1,3.1-1.3,4.7C77.6,73.2,78.4,73.2,78.4,72.8L78.4,72.8z"/>
		</g>
	</g>
	<g>
		<g>
			<path class="st1" d="M65.7,66.2c-1-1.3-2.1-2.6-3.1-3.9c-0.1-0.2-0.4-0.1-0.5,0c-0.2,0.2-0.1,0.4,0,0.5c1,1.3,2.1,2.6,3.1,3.9
				c0.1,0.2,0.4,0.1,0.5,0C65.8,66.6,65.8,66.3,65.7,66.2L65.7,66.2z"/>
		</g>
	</g>
	<g>
		<g>
			<path class="st1" d="M65.2,68.8c-0.8-0.8-1.6-1.6-2.2-2.5c-0.1-0.2-0.3-0.2-0.5-0.1c-0.2,0.1-0.3,0.3-0.1,0.5
				c0.7,1,1.5,1.9,2.3,2.7c0.1,0.1,0.4,0.1,0.5,0C65.3,69.2,65.3,68.9,65.2,68.8L65.2,68.8z"/>
		</g>
	</g>
	<g>
		<g>
			<path class="st1" d="M65.2,71.6c-0.8-0.9-1.5-1.8-2.3-2.6c-0.1-0.2-0.4-0.1-0.5,0c-0.2,0.2-0.1,0.4,0,0.5
				c0.8,0.9,1.5,1.8,2.3,2.6c0.1,0.2,0.4,0.1,0.5,0C65.3,72,65.3,71.8,65.2,71.6L65.2,71.6z"/>
		</g>
	</g>
	<g>
		<g>
			<path class="st1" d="M64.5,73.7c-1.3-1-2.4-2.1-3.5-3.3c-0.3-0.4-0.9,0.2-0.5,0.5c1.1,1.2,2.3,2.3,3.5,3.3c0.2,0.1,0.4,0.2,0.5,0
				C64.6,74.1,64.6,73.8,64.5,73.7L64.5,73.7z"/>
		</g>
	</g>
	<g>
		<g>
			<path class="st1" d="M144.9,69.4c0.7-1.9,1.1-3.9,1.2-5.9c0-0.5-0.7-0.5-0.8,0c-0.1,1.9-0.5,3.9-1.2,5.7
				C144,69.6,144.7,69.8,144.9,69.4L144.9,69.4z"/>
		</g>
	</g>
	<g>
		<g>
			<path class="st1" d="M143.7,69.6c0-1.8,0.1-3.5,0.1-5.3c0-0.5-0.7-0.5-0.8,0c0,1.8-0.1,3.5-0.1,5.3
				C142.9,70.1,143.6,70.1,143.7,69.6L143.7,69.6z"/>
		</g>
	</g>
	<g>
		<g>
			<path class="st1" d="M142.2,70.3c0.1-2,0-4.1-0.3-6.1c-0.1-0.5-0.8-0.3-0.7,0.2c0.3,1.9,0.4,3.9,0.3,5.9
				C141.4,70.8,142.1,70.8,142.2,70.3L142.2,70.3z"/>
		</g>
	</g>
	<g>
		<g>
			<path class="st1" d="M140.6,71.7c0-2-0.2-4-0.4-6c0-0.2-0.2-0.4-0.4-0.4c-0.2,0-0.4,0.2-0.4,0.4c0.3,2,0.4,4,0.4,6
				C139.9,72.2,140.6,72.2,140.6,71.7L140.6,71.7z"/>
		</g>
	</g>
	<g>
		<g>
			<path class="st1" d="M139.5,73.6c-0.2-2.4-0.5-4.7-0.9-7.1c-0.1-0.5-0.8-0.3-0.7,0.2c0.4,2.3,0.7,4.6,0.9,6.9
				C138.8,74.1,139.5,74.1,139.5,73.6L139.5,73.6z"/>
		</g>
	</g>
	<g>
		<g>
			<path class="st1" d="M138.3,75.1c-0.4-2.6-0.9-5.1-1.3-7.7c-0.1-0.5-0.8-0.3-0.7,0.2c0.4,2.6,0.9,5.1,1.3,7.7
				C137.7,75.8,138.4,75.6,138.3,75.1L138.3,75.1z"/>
		</g>
	</g>
	<g>
		<g>
			<path class="st1" d="M137.1,75.6c-0.4-2.1-0.8-4.2-1.2-6.3c-0.1-0.5-0.8-0.3-0.7,0.2c0.4,2.1,0.8,4.2,1.2,6.3
				C136.5,76.3,137.2,76.1,137.1,75.6L137.1,75.6z"/>
		</g>
	</g>
	<g>
		<g>
			<path class="st1" d="M135.3,76c-0.6-2-1.1-4-1.4-6c-0.1-0.5-0.8-0.3-0.7,0.2c0.4,2,0.8,4,1.4,6C134.7,76.6,135.5,76.5,135.3,76
				L135.3,76z"/>
		</g>
	</g>
	<g>
		<g>
			<path class="st1" d="M133,75c-0.7-1.1-0.9-2.4-0.8-3.7c0-0.2-0.2-0.4-0.4-0.4c-0.2,0-0.3,0.2-0.4,0.4c-0.2,1.4,0.1,2.9,0.9,4.1
				C132.6,75.8,133.3,75.4,133,75L133,75z"/>
		</g>
	</g>
	<g>
		<g>
			<path class="st1" d="M146,71.2c0.4-0.8,0.8-1.5,1.2-2.3c0.1-0.2,0-0.4-0.1-0.5c-0.2-0.1-0.4,0-0.5,0.1c-0.4,0.8-0.8,1.5-1.2,2.3
				c-0.1,0.2,0,0.4,0.1,0.5C145.7,71.4,145.9,71.4,146,71.2L146,71.2z"/>
		</g>
	</g>
	<g>
		<g>
			<path class="st1" d="M145.7,73.9c0.5-1.1,1.3-1.9,2.3-2.6c0.2-0.1,0.2-0.3,0.1-0.5c-0.1-0.2-0.3-0.2-0.5-0.1
				c-1.1,0.7-2,1.7-2.5,2.8c-0.1,0.2,0,0.4,0.1,0.5C145.4,74.2,145.6,74.1,145.7,73.9L145.7,73.9z"/>
		</g>
	</g>
	<g>
		<g>
			<path class="st1" d="M145.5,77.7c0.3-1.3,1.2-2.4,2.3-3c0.4-0.2,0-0.9-0.4-0.6c-1.3,0.8-2.3,2-2.7,3.5
				C144.6,78,145.3,78.2,145.5,77.7L145.5,77.7z"/>
		</g>
	</g>
	<g>
		<g>
			<path class="st1" d="M145.5,80.7c0.7-1.2,1.6-2.4,2.6-3.4c0.3-0.4-0.2-0.9-0.5-0.5c-1,1.1-1.9,2.3-2.7,3.6
				C144.6,80.7,145.2,81.1,145.5,80.7L145.5,80.7z"/>
		</g>
	</g>
	<g>
		<g>
			<path class="st1" d="M79.8,72.5c0.2-1,0.6-2,1-2.9c0.1-0.2,0-0.4-0.1-0.5c-0.2-0.1-0.4,0-0.5,0.1c-0.5,1-0.8,2-1.1,3.1
				C79,72.8,79.7,73,79.8,72.5L79.8,72.5z"/>
		</g>
	</g>
</g>
<g>
	<g>
		<path class="st1" d="M123.2,98.4c-0.1-0.3-0.4-0.4-0.7-0.3c-0.3,0.1-0.5,0.3-0.6,0.5c-0.2,0.2-0.2,0.5,0,0.8
			c0.1,0.2,0.4,0.4,0.7,0.4c0.6,0,0.9-0.7,1-1.2c0.1-0.5,0-1.1-0.6-1.1c0.1,0.2,0.1,0.5,0.2,0.7c0.3-0.2,0.7-0.4,1-0.4
			c0.1,0,0.2,0,0.3,0.1c0.1,0.1,0.1,0.3,0.1,0.4c0,0.1,0,0.3,0,0.4c0,0.1-0.1,0.1-0.2,0.1c-0.2,0-0.4-0.2-0.4-0.5
			c-0.2,0-0.5,0.1-0.7,0.1c0,0.3,0.1,0.6,0.1,0.9c0,0.2,0.1,0.5,0.3,0.7c0.3,0.4,1,0.3,1.2-0.2c0.1-0.3-0.1-0.4-0.4-0.5
			c-0.4-0.1-1.2,0-1.4,0.5c-0.1,0.2,0,0.5,0.2,0.7c0.2,0.2,0.5,0.2,0.8,0.2c0.5,0,1-0.1,1.2-0.6c0.2-0.5-0.1-1-0.4-1.3
			c-0.2-0.1-0.5-0.2-0.7-0.3c-0.1,0-0.3-0.1-0.4-0.1c-0.2,0-0.3,0.1-0.5,0.1c0.1,0,0.1,0,0.2-0.1c0,0,0,0,0,0c0.1,0,0.1,0.1,0.2,0.1
			c0,0.1,0,0.2,0.1,0.3c0,0,0,0,0,0c0,0,0.1-0.1,0.1-0.1c0-0.1,0-0.2,0-0.3c0-0.2-0.1-0.3-0.3-0.4c-0.1-0.1-0.3-0.2-0.5-0.2
			c-0.2,0-0.3,0.1-0.5,0c0.1,0.2,0.2,0.3,0.3,0.5c0.1-0.3,0.2-0.7,0.5-0.9c0.3-0.2,0.5,0.1,0.7,0.3c0.3,0.4,0.9-0.2,0.5-0.5
			c-0.2-0.2-0.4-0.4-0.7-0.5c-0.3-0.1-0.6-0.1-0.9,0c-0.5,0.3-0.8,0.9-0.9,1.4c0,0.2,0.1,0.4,0.3,0.5c0.2,0,0.3,0,0.5,0
			c0.1,0,0.1,0,0.2,0c-0.1,0,0.1,0,0,0c0,0,0,0,0,0c0-0.1,0-0.2,0-0.1c0,0-0.1,0.1-0.1,0.2c0,0.1,0,0.3,0,0.4
			c0.1,0.2,0.3,0.3,0.5,0.2c0.1,0,0.1-0.1,0.3-0.1c0.2,0.1,0.5,0.1,0.7,0.2c0.1,0,0.1,0.1,0.1,0.1c0,0,0,0.1,0,0.1c0,0,0,0,0,0
			c0,0,0,0,0,0c0,0,0,0,0,0c0,0-0.1,0.1-0.1,0c-0.1,0-0.2,0-0.3,0c-0.1,0-0.2,0-0.3,0c-0.1,0,0,0-0.1,0.1c0,0,0,0,0,0.1
			c0,0,0.1,0,0.1,0c0.1,0,0.1,0,0.2,0c0.1,0,0.3,0,0.4,0c-0.1-0.2-0.2-0.3-0.4-0.5c0,0,0.1-0.1,0.1-0.1c0,0,0,0,0,0c0,0,0,0,0,0
			c0,0,0,0,0,0c0,0,0,0.1,0,0c0,0-0.1-0.1,0,0c0,0,0-0.1-0.1-0.2c-0.1-0.3-0.1-0.7-0.1-1c0-0.2-0.2-0.3-0.4-0.3
			c-0.2,0-0.3,0.2-0.3,0.4c0,0.6,0.5,1.2,1.1,1.2c0.6,0,1.1-0.5,1.1-1.1c0-0.6-0.2-1.3-0.8-1.4c-0.6-0.2-1.2,0.2-1.7,0.4
			c-0.1,0.1-0.2,0.3-0.2,0.4c0,0.2,0.2,0.3,0.4,0.3c0,0-0.1,0-0.1,0c0,0,0,0,0,0c0,0,0,0,0,0c0,0,0,0,0,0.1c0,0,0,0.1,0,0.1
			c0,0,0,0.1,0,0.1c0,0.2,0,0.4-0.2,0.5c0,0-0.1,0,0,0c0,0-0.1,0,0,0c0,0,0,0,0,0c0,0,0.1,0,0,0c0,0,0,0,0,0
			c0.1-0.1,0.1-0.1,0.2-0.2c0,0,0,0,0,0c0,0,0.1,0,0,0c0,0-0.1,0-0.1-0.1C122.8,99.2,123.4,98.9,123.2,98.4L123.2,98.4z"/>
	</g>
</g>
<g>
	<g>
		<path class="st1" d="M96,95.7c-0.3,0.5-0.4,1.2,0.2,1.5c0.6,0.3,1.2-0.1,1.5-0.6c0.2-0.3,0.3-0.6,0.2-0.9
			c-0.1-0.3-0.4-0.5-0.7-0.6c-0.3-0.1-0.7-0.2-1,0c-0.3,0.1-0.5,0.4-0.5,0.8c0,0.2,0.1,0.3,0.3,0.4c0.2,0,0.3,0,0.4-0.2
			c0.2-0.3,0.3-0.6,0.3-0.9c0-0.3-0.2-0.6-0.5-0.7c-0.3-0.1-0.7-0.1-0.9,0.2c-0.2,0.2-0.3,0.5-0.4,0.8c-0.1,0.3-0.1,0.7,0.2,0.9
			c0.2,0.2,0.5,0.3,0.8,0.4c0.6,0.1,1.1-0.2,1.5-0.7c0.2-0.2-0.1-0.6-0.3-0.6c-0.4,0-0.7,0.2-1,0.5c-0.1,0.1-0.2,0.3,0,0.5
			c0.1,0.1,0.3,0.2,0.5,0.1c0.4-0.3,0.7-0.7,0.8-1.1c0-0.2,0.1-0.5,0-0.7c0,0,0-0.1,0-0.1c-0.1,0.2-0.2,0.2-0.1,0.2c0,0,0.1,0,0.1,0
			c0.1,0,0.2,0,0.3,0.1c0.2,0.1,0.4,0.2,0.5,0.3c0,0,0.1,0.1,0.1,0.1c0,0,0,0.1,0,0.1c0,0-0.1,0.1-0.1,0.1c-0.1,0.1-0.3,0.3-0.4,0.4
			c-0.1,0-0.1,0.1-0.2,0.1c0,0-0.1,0-0.1-0.1c0,0.2,0,0.3,0.1,0.5c0.1-0.1,0,0,0,0c0,0,0.1,0,0,0c0,0,0.1,0,0,0c0,0,0.1,0,0.1,0
			c0,0,0,0,0,0c0,0,0.1,0,0.1,0c0,0,0,0,0,0c0,0,0.1,0,0.1,0c0.1,0-0.1,0,0,0c0,0,0,0,0,0c0,0,0.1,0.1,0,0c0,0,0,0,0,0.1
			c0,0,0,0,0,0c0,0,0,0,0,0c0,0,0,0.1,0,0.1c0,0,0,0.1,0,0.1c0,0.2-0.2,0.3-0.3,0.3c-0.2,0-0.4-0.1-0.5-0.3
			c-0.1-0.2-0.2-0.3-0.5-0.3c-0.2,0-0.3,0.3-0.3,0.5c0.2,0.5,0.7,0.9,1.2,0.9c0.5,0,1-0.4,1.1-0.9c0.1-0.5-0.1-1-0.6-1.2
			c-0.4-0.2-1,0-1.2,0.4c-0.1,0.2,0,0.3,0.1,0.5c0.4,0.4,1,0.3,1.4,0c0.4-0.3,0.9-0.8,0.7-1.3c-0.1-0.5-0.7-0.8-1.1-1
			c-0.3-0.1-0.6-0.1-0.9,0c-0.1,0.1-0.2,0.1-0.3,0.2c-0.1,0.2-0.1,0.3,0,0.5c0.1,0.4-0.1,0.8-0.4,1.1c0.2,0.2,0.3,0.4,0.5,0.6
			c0.1-0.1,0.3-0.2,0.4-0.2c-0.1-0.2-0.2-0.4-0.3-0.6C96.5,95.9,96.3,96,96,96c-0.1,0-0.2,0-0.3-0.1c-0.1,0-0.1-0.1-0.1-0.2
			c0-0.2,0.1-0.3,0.2-0.5c0-0.1,0.1-0.2,0.2-0.2c0,0,0,0,0,0c0,0,0,0,0,0.1c0,0.2-0.1,0.3-0.2,0.4c0.2,0.1,0.5,0.1,0.7,0.2
			c0,0,0,0,0-0.1c0,0,0,0,0.1,0c0.1,0,0.3,0,0.5,0.1c0,0,0.1,0,0.1,0.1c0,0,0-0.1,0,0c0,0.1-0.1,0.3-0.2,0.4
			c-0.1,0.1-0.1,0.2-0.2,0.2c-0.1,0-0.2,0-0.2,0c0,0,0,0,0,0c0,0,0,0,0,0c0-0.1,0,0.1,0,0c0,0,0-0.1,0,0c0-0.1,0.1-0.2,0.1-0.4
			C96.9,95.7,96.3,95.3,96,95.7L96,95.7z"/>
	</g>
</g>
<g>
	<g>
		<path class="st1" d="M96.2,95.1C96.2,95.1,96.2,95.1,96.2,95.1C96.1,95.2,96.2,95.1,96.2,95.1c0-0.1,0-0.1,0-0.1c0,0,0-0.1,0,0
			c0,0,0,0,0,0c0,0,0-0.1,0.1-0.1c0,0,0,0,0-0.1c0,0-0.1,0.1,0,0c0,0,0-0.1,0.1-0.1c0,0,0,0,0,0c0,0,0,0,0,0c0,0,0.1,0,0.1-0.1
			c0,0,0,0,0,0c0.1,0-0.1,0,0,0c0,0,0.1,0,0.1,0c0,0,0,0,0.1,0c0.1,0-0.1,0,0,0c0,0,0.1,0,0.1,0c0,0,0,0,0.1,0c0.1,0-0.1,0,0,0
			c0,0,0.1,0,0.1,0c0,0,0,0,0.1,0c0.1,0-0.1,0,0,0c0,0,0.1,0,0.1,0.1c0.2,0.1,0.4,0,0.5-0.1c0.1-0.2,0-0.4-0.1-0.5
			c-0.4-0.2-0.9-0.3-1.3,0c-0.4,0.2-0.6,0.6-0.7,1.1c0,0.2,0.2,0.4,0.4,0.4C96,95.5,96.1,95.4,96.2,95.1L96.2,95.1z"/>
	</g>
</g>
<g>
	<g>
		<path class="st1" d="M95.6,95.7c-0.3,0.3-0.4,0.8-0.2,1.3c0.1,0.2,0.3,0.4,0.5,0.4c0.3,0.1,0.5,0.1,0.8,0.1c0.2,0,0.5-0.1,0.7-0.2
			c0.2-0.1,0.2-0.4,0.1-0.5c-0.1-0.2-0.3-0.2-0.5-0.1c0,0-0.1,0-0.1,0c0,0,0,0,0,0c0,0,0,0,0,0c0,0-0.1,0-0.2,0.1
			c-0.1,0-0.2,0.1-0.3,0.1c0,0,0.1,0,0.1,0c-0.1,0-0.2,0-0.3,0c0,0,0.1,0,0.1,0c0,0-0.1,0-0.1,0c0,0,0,0-0.1,0c0,0,0.1,0,0,0
			c0,0-0.1,0-0.1-0.1c0.1,0,0.1,0.1,0,0c0,0,0,0,0,0c0,0,0,0,0,0c0,0,0-0.1,0,0c0,0,0,0,0,0c0,0,0-0.1,0-0.1c0-0.1,0,0.1,0,0
			c0,0,0,0,0,0c0,0,0-0.1,0-0.1c0,0,0,0.1,0,0.1c0-0.1,0-0.1,0-0.2c0,0,0,0.1,0,0.1c0,0,0-0.1,0-0.1c0,0,0,0,0,0c0,0,0-0.1,0,0
			c0,0,0-0.1,0-0.1c0,0,0,0,0,0c0,0,0,0,0,0c0,0,0,0,0,0c0.1-0.1,0.2-0.4,0-0.5C96,95.6,95.7,95.5,95.6,95.7L95.6,95.7z"/>
	</g>
</g>
<g>
	<g>
		<path class="st1" d="M97.6,95.6c0.1-0.1,0.2-0.3,0.3-0.4c0,0,0-0.1,0-0.1c0,0,0-0.1,0-0.1c0,0,0-0.1-0.1-0.1c0,0-0.1-0.1-0.1-0.1
			c-0.1,0-0.2-0.1-0.3,0c0,0-0.1,0-0.1,0c-0.1,0-0.1,0.1-0.1,0.1c-0.1,0.1-0.2,0.3-0.3,0.4c0,0,0,0.1,0,0.1c0,0,0,0.1,0,0.1
			c0,0,0,0.1,0.1,0.1c0,0,0.1,0.1,0.1,0.1c0.1,0,0.2,0.1,0.3,0c0,0,0.1,0,0.1,0C97.5,95.7,97.6,95.7,97.6,95.6L97.6,95.6z"/>
	</g>
</g>
<g>
	<g>
		<path class="st1" d="M122.9,98.1c0.1,0,0.2-0.1,0.2-0.1c0,0,0.1,0,0.1,0c0.1-0.1-0.1,0,0.1,0c0.2-0.1,0.3-0.1,0.5-0.1
			c-0.1,0,0,0,0.1,0c0,0,0.1,0,0.1,0c0,0,0.1,0,0.1,0c-0.1,0,0,0,0,0c0.1,0,0.1,0,0.2,0.1c0,0,0,0,0,0c0,0,0,0,0.1,0
			c0,0,0.1,0,0.1,0c0.1,0,0,0,0,0c0,0,0,0,0.1,0.1c0,0,0,0,0,0c0,0,0,0,0,0c0,0,0.1,0.1,0.1,0.1c0,0,0-0.1,0,0c0,0,0,0,0,0
			c0,0.1,0,0,0,0c0,0,0,0.1,0,0.1c0,0.1,0-0.1,0,0c0,0,0,0.1,0,0.1c0,0,0,0,0,0c0,0,0,0,0,0c0,0,0,0.1,0,0.1c0,0,0,0,0,0
			c0,0,0,0,0,0c0,0,0,0.1-0.1,0.1c0,0,0.1-0.1,0,0c-0.1,0,0.1,0,0,0c-0.1,0,0,0,0,0c-0.2,0-0.4,0.2-0.4,0.4c0,0.2,0.2,0.4,0.4,0.4
			c0.3,0,0.6-0.2,0.7-0.5c0.1-0.3,0.2-0.6,0.1-0.9c-0.2-0.6-0.9-0.9-1.6-0.8c-0.4,0.1-0.8,0.2-1.2,0.4c-0.2,0.1-0.2,0.4-0.1,0.5
			C122.5,98.2,122.7,98.2,122.9,98.1L122.9,98.1z"/>
	</g>
</g>
<g>
	<g>
		<path class="st1" d="M98,107.1c0.5,1.4,0.9,2.8,1.5,4.1c0.4,1,1,2,2,2.5c2.6,1.2,4.8-1.8,6.3-3.5c-0.4-0.1-0.8-0.1-1.2-0.2
			c1.3,1.9,2.9,5.4,5.7,5.1c2.8-0.3,4.3-3.8,5.6-5.8c0.5-0.8-0.8-1.6-1.3-0.8c-0.6,1-1.2,1.9-1.8,2.9c-0.6,0.9-1.3,2-2.4,2.2
			c-1.1,0.3-2-0.7-2.6-1.5c-0.7-0.9-1.3-1.9-1.9-2.8c-0.3-0.4-0.8-0.5-1.2-0.2c-1,1.1-3.1,4.4-4.9,3c-0.7-0.5-1-1.4-1.3-2.2
			c-0.4-1.1-0.7-2.1-1.1-3.2C99.1,105.8,97.7,106.2,98,107.1L98,107.1z"/>
	</g>
</g>
<g>
	<g>
		<path class="st1" d="M130.9,104.4c4.5-0.8,9.1-1.1,13.6-0.8c1,0.1,1-1.4,0-1.5c-4.7-0.3-9.4,0-14,0.9
			C129.5,103.2,129.9,104.6,130.9,104.4L130.9,104.4z"/>
	</g>
</g>
<g>
	<g>
		<path class="st1" d="M131.5,108.6c3.4,0.6,6.9,1.1,10.3,1.7c0.9,0.2,1.4-1.3,0.4-1.4c-3.4-0.6-6.9-1.1-10.3-1.7
			C131,107,130.6,108.4,131.5,108.6L131.5,108.6z"/>
	</g>
</g>
<g>
	<g>
		<path class="st1" d="M90.1,101.3c-4.7-2-9.7-3.5-14.7-4.4c-0.1,0.5-0.1,1-0.2,1.5c0.2,0,0.3,0,0.5,0.1c1,0.1,0.9-1.4,0-1.5
			c-0.2,0-0.3,0-0.5-0.1c-0.8-0.1-1,1.3-0.2,1.5c4.9,0.9,9.8,2.3,14.4,4.3C90.2,103,90.9,101.7,90.1,101.3L90.1,101.3z"/>
	</g>
</g>
<g>
	<g>
		<path class="st1" d="M86.4,107c-3,0-6,0-8.9,0c-1,0-1,1.5,0,1.5c3,0,6,0,8.9,0C87.3,108.5,87.3,107,86.4,107L86.4,107z"/>
	</g>
</g>
<g>
	<g>
		<g>
			<path class="st1" d="M155.5,142.5c6.3-14.6,2.4-30.2-3-44.4c-1.5-4-3.2-8-4.8-12c-0.7-1.8-3.6-1-2.9,0.8
				c5.4,13.3,11.9,27.3,11,42c-0.3,4.2-1.2,8.3-2.8,12.1C152.1,142.7,154.7,144.2,155.5,142.5L155.5,142.5z"/>
		</g>
	</g>
</g>
<g>
	<g>
		<g>
			<path class="st1" d="M45.3,141.4c-8-16.9-0.7-35.4,8.3-50.2c2.6-4.3,5.5-8.5,8.5-12.6c1.1-1.6-1.5-3.1-2.6-1.5
				c-5.6,7.7-10.9,15.7-14.8,24.4c-3.7,8.2-6.4,17.2-5.9,26.3c0.3,5.3,1.6,10.4,3.9,15.1C43.5,144.7,46.1,143.2,45.3,141.4
				L45.3,141.4z"/>
		</g>
	</g>
</g>
<g>
	<path class="st2" d="M179.1,147.9c-2.7-2.7-7.9-2.5-11.8-2.5c-10.7-0.1-21.3,1.4-31.9,0.7c-5.3-0.3-10.5-1.4-15.7-1.9
		c-5.3-0.5-10.7-0.2-16,0.1c-12.4,0.7-24.8,1.2-37.3,1.7c-6.2,0.2-12.4,0.4-18.7,0.6c-3.1,0.1-6.2,0.2-9.3,0.2
		c-2.7,0.1-5.4,0.1-7.7-1.1c-2.9-1.5-5.6,2.1-2.9,3.7c0,2.8,1.8,5.4,5.1,6.5c2.2,0.7,4.5,0.6,6.8,0.5c2.9-0.2,5.8-0.4,8.6-0.6
		c5.3-0.4,9.3,0.6,14.6,0.1c5.4-0.5,11.4,0.5,16.9,0.7c5.3,0.2,11.2-1.8,16.5-1.2c5.4,0.6,10.8,0.5,16.3,0.5
		c10.8,0.1,21.6,0.1,32.3-0.2c5.4-0.2,10.8-0.5,16.2-0.7c2.5-0.1,4.9,0.1,7.3,0.5c2.4,0.4,4.8,0.8,7.2,0.2
		C179.5,154.7,182.1,150.8,179.1,147.9z"/>
	<g>
		<g>
			<path class="st1" d="M28,148c0.2-0.9-0.2-1.8-1.2-2.1c-0.6-0.2-1.3-0.1-1.8,0.3c-1.1,0.9-0.6,2.3-0.4,3.5c0.4,2,0.9,4.1,1.3,6.1
				c0.2,0.8,1.1,1.3,1.8,1c0.8-0.3,1.2-1,1-1.8c-0.3-1.4-0.6-2.7-0.9-4.1c-0.1-0.7-0.3-1.4-0.4-2c-0.1-0.3-0.1-0.6-0.2-0.9
				c0-0.1-0.1-0.3-0.1-0.4c0.2,0.6-0.2,1-1.1,1.2c-0.3,0-0.5-0.1-0.7-0.3c-0.1-0.2-0.3-0.4-0.4-0.7c0,0,0,0,0,0.1c0-0.3,0-0.5,0-0.8
				c0,0,0,0,0,0.1c-0.1,0.8,0.2,1.7,1,1.8C26.9,149.2,27.9,148.8,28,148L28,148z"/>
		</g>
	</g>
	<g>
		<g>
			<path class="st1" d="M28,157.6c19.6,0,39.2,0,58.8,0c19.5,0,39-0.1,58.5-0.3c11-0.1,22.1-0.2,33.1-0.4c1.9,0,1.9-3,0-3
				c-19.6,0.2-39.1,0.4-58.7,0.5c-19.5,0.1-38.9,0.1-58.4,0.2c-11.1,0-22.2,0-33.2,0C26.1,154.6,26.1,157.6,28,157.6L28,157.6z"/>
		</g>
	</g>
	<g>
		<g>
			<path class="st1" d="M26,148.9c19.8-1,39.5-1.8,59.3-2.2c19.9-0.4,39.8-0.5,59.6-0.2c11.1,0.2,22.1,0.5,33.2,0.9
				c1.9,0.1,1.9-2.9,0-3c-19.8-0.8-39.6-1.1-59.3-1.1c-19.9,0-39.8,0.4-59.6,1.1c-11.1,0.4-22.1,0.9-33.2,1.4
				C24.1,146,24.1,149,26,148.9L26,148.9z"/>
		</g>
	</g>
	<g>
		<g>
			<path class="st1" d="M180.2,154.8c0-2.9,0-5.8,0-8.6c0-0.8-0.7-1.5-1.5-1.5c-0.8,0-1.5,0.7-1.5,1.5c0,2.9,0,5.8,0,8.6
				c0,0.8,0.7,1.5,1.5,1.5C179.6,156.3,180.2,155.7,180.2,154.8L180.2,154.8z"/>
		</g>
	</g>
</g>
<g>
	<path class="st3" d="M65.2,144.8c-1.5,0.1-3.8,0.2-4.8-1.2c-0.9-1.3-0.3-3.7-0.1-5.2c0.1-1.1,0.5-2.6,0.1-3.6
		c-0.5-1.1-1.6-1.3-2.6-1.5c-7-1.2-14.1-2.8-21.1-3.4c-0.2-0.2-0.4-0.3-0.8-0.3c-1.5-0.1-3-0.1-4.4-0.2c-0.5,0-1,0.6-0.9,1.1
		c1.2,5.6,1.2,11.1,0.8,16.9c-0.1,1.7-0.1,3.6,1.2,4.9c1.4,1.5,3.4,1.6,5.3,1.6c5.6,0,11.1-0.9,16.6-0.3c2.4,0.3,3.9,0,5.7-1.5
		c2.1-1.7,4.1-3.6,5.9-5.6C66.7,145.8,66,144.8,65.2,144.8z"/>
	<g>
		<g>
			<path class="st1" d="M29.7,128.7c-0.1,8.2,0.5,16.4,1.1,24.6c0.1,1,1.6,1,1.5,0c-0.7-8.2-1.2-16.4-1.1-24.6
				C31.2,127.7,29.7,127.7,29.7,128.7L29.7,128.7z"/>
		</g>
	</g>
	<g>
		<g>
			<path class="st1" d="M31.6,154.1c8.8,0.5,17.6,0.8,26.4,0.7c1,0,1-1.5,0-1.5c-8.8,0.1-17.6-0.2-26.4-0.7
				C30.6,152.6,30.6,154.1,31.6,154.1L31.6,154.1z"/>
		</g>
	</g>
	<g>
		<g>
			<path class="st1" d="M59.3,154c1.1-6.6,2-13.3,2.7-20c0.1-1-1.4-1-1.5,0c-0.7,6.6-1.5,13.1-2.6,19.6
				C57.7,154.5,59.1,154.9,59.3,154L59.3,154z"/>
		</g>
	</g>
	<g>
		<g>
			<path class="st1" d="M30.8,129.5c9.9,1.7,19.8,3.3,29.6,5.1c0.9,0.2,1.3-1.3,0.4-1.4c-9.9-1.7-19.8-3.3-29.6-5.1
				C30.2,127.8,29.8,129.3,30.8,129.5L30.8,129.5z"/>
		</g>
	</g>
	<g>
		<g>
			<g>
				<path class="st1" d="M59,154.6c3.4-1.8,5.3-5.5,8.5-7.6c0.7-0.4,0.4-1.3-0.4-1.4c-0.1,0-0.2,0-0.3,0c0.1,0.5,0.1,1,0.2,1.5
					c0.9-0.2,1.4-1.1,1.2-2c-0.1-0.3-0.4-0.5-0.7-0.6c-0.2,0-0.5-0.1-0.7-0.1c0.1,0.5,0.1,1,0.2,1.5c0.1,0,0.2,0,0.3-0.1
					c0.8-0.2,0.6-1.2,0-1.4c-2.3-0.9-4.6-1.4-7-1.6c-1-0.1-1,1.4,0,1.5c2.3,0.2,4.5,0.7,6.6,1.6c0-0.5,0-1,0-1.4
					c-0.1,0-0.2,0-0.3,0.1c-0.4,0.1-0.6,0.5-0.5,0.8c0.1,0.4,0.4,0.6,0.7,0.7c0.2,0,0.5,0.1,0.7,0.1c-0.2-0.2-0.5-0.4-0.7-0.6
					c0,0.1-0.1,0.1-0.2,0.2c-0.9,0.2-0.6,1.4,0.2,1.5c0.1,0,0.2,0,0.3,0c-0.1-0.5-0.3-0.9-0.4-1.4c-3.2,2.1-5.1,5.7-8.5,7.6
					C57.4,153.8,58.2,155.1,59,154.6L59,154.6z"/>
			</g>
		</g>
	</g>
	<g>
		<path class="st4" d="M47.5,140.7c-0.3,0.6-0.6,1.2-0.9,1.8c-0.5,0.8-1.1,1.7-2,2c-0.8,0.3-1.8,0-2.5-0.6c-0.7-0.6-1.1-1.4-1.1-2.3
			c0-0.4,0-0.9,0.4-1.1c0.2-0.1,0.4-0.1,0.6,0c1.4,0.2,2.5,1.1,3.5,2.1c0.9,1,1.7,2.2,2.6,3.2c0.2-1.6,0-3.2-0.5-4.7"/>
		<g>
			<path class="st1" d="M47.2,140.5c-0.5,1.1-1,2.3-1.9,3.1c-0.9,0.8-2.2,0.7-3-0.1c-0.4-0.4-0.7-1-0.8-1.6
				c-0.1-0.2-0.1-0.5-0.1-0.7c0.1-0.3,0.2-0.4,0.5-0.3c1.2,0.1,2.2,0.9,3,1.7c1,1.1,1.8,2.3,2.8,3.5c0.2,0.2,0.6,0.1,0.6-0.2
				c0.2-1.7,0.1-3.3-0.5-4.9c-0.2-0.4-0.9-0.3-0.7,0.2c0.5,1.4,0.7,3,0.5,4.5c0.2-0.1,0.4-0.1,0.6-0.2c-1-1.2-1.9-2.6-3-3.7
				c-0.5-0.5-1.1-1-1.8-1.3c-0.6-0.3-1.4-0.6-2-0.4c-1.4,0.4-0.6,2.7-0.1,3.4c0.8,1.1,2.3,1.8,3.6,1.2c1.5-0.6,2.3-2.4,2.9-3.8
				C48,140.4,47.4,140,47.2,140.5L47.2,140.5z"/>
		</g>
	</g>
</g>
<g>
	<g>
		<path class="st2" d="M151.1,86.8c-25,0.7-49.9,1-74.9,1.1c-7,0-14,0-21,0c-0.8,0-1.6,0.7-1.5,1.5c0.7,10.4,1.5,20.7,2.2,31.1
			c0.2,2.6,0.4,5.1,0.5,7.7c0.1,1.8-0.1,4.5,1.8,5.6c1,0.5,2.1,0.4,3.2,0.3c1.4,0,2.8-0.1,4.1-0.1c2.5,0,5,0,7.6,0
			c5.6,0.1,11.2,0.5,16.8,1.2c-1,5.5-4.7,10.4-9.7,13c-1.3,0.7-0.7,2.9,0.8,2.8c7.3-0.6,14.6-0.5,21.9-0.2c7.3,0.3,14.7,0.5,22,0.8
			c1.6,0.1,1.9-2,0.8-2.8c-3-2.1-5.6-4.6-7.8-7.6c-1-1.4-1.9-2.9-2.7-4.5c-0.1-0.3-0.3-0.7-0.4-1c1,0.1,2.1,0.1,3.2,0.1
			c8.8,0.4,17.6,0.8,26.4,1.2c0.8,0,1.5-0.7,1.5-1.5c-0.2-7.9,0.2-15.9,1.2-23.8c0.5-3.9,1.2-7.7,2-11.6c0.8-3.7,1.6-7.5,3.2-11
			C152.8,88.1,152.4,86.8,151.1,86.8z"/>
		<g>
			<g>
				<path class="st1" d="M53.5,89c25.6-0.4,51.2-0.9,76.8-1.3c7.3-0.1,14.6-0.2,21.9-0.4c1,0,1-1.5,0-1.5
					c-25.6,0.4-51.2,0.9-76.8,1.3c-7.3,0.1-14.6,0.2-21.9,0.4C52.5,87.5,52.5,89,53.5,89L53.5,89z"/>
			</g>
		</g>
		<g>
			<g>
				<path class="st1" d="M57.7,134.5c23.2,0.9,46.4,1.7,69.6,2.4c6.6,0.2,13.1,0.4,19.7,0.5c1,0,1-1.5,0-1.5
					c-23.2-0.6-46.4-1.3-69.6-2.2c-6.6-0.2-13.1-0.5-19.7-0.7C56.7,132.9,56.7,134.4,57.7,134.5L57.7,134.5z"/>
			</g>
		</g>
		<g>
			<g>
				<path class="st1" d="M89.9,135.8c0,7.6-7.1,11.9-13.5,13.9c-0.8,0.2-0.7,1.5,0.2,1.5c18.2,0.1,36.4,0.5,54.5,1.2
					c0.9,0,1-1.3,0.2-1.5c-6.8-1.8-12.4-7-14.7-13.6c-0.3-0.9-1.8-0.5-1.4,0.4c2.5,7.1,8.4,12.7,15.7,14.7c0.1-0.5,0.1-1,0.2-1.5
					c-18.2-0.8-36.4-1.2-54.5-1.2c0.1,0.5,0.1,1,0.2,1.5c7.1-2.2,14.6-7.1,14.6-15.3C91.4,134.8,89.9,134.8,89.9,135.8L89.9,135.8z"
					/>
			</g>
		</g>
	</g>
	<g>
		<g>
			<path class="st1" d="M53.9,88c0,0-0.1,0-0.1,0c0.2,0.1,0.4,0.2,0.6,0.4c-0.3,0.1-0.7,0.1-1,0.2c0,0,0-0.1-0.1-0.1
				c0,0,0,0.1,0,0.1c0,0.1,0,0.2,0,0.2c0,0.2,0.1,0.4,0.1,0.7c0.1,0.9,0.2,1.7,0.2,2.6c0.2,2.8,0.4,5.5,0.6,8.3
				c0.5,6.5,0.9,13,1.5,19.5c0.4,4.8,0.6,9.6,1.2,14.3c0.1,1,1.6,0.5,1.4-0.4c-0.7-4.8-0.8-9.7-1.2-14.5c-0.3-3.7-0.6-7.5-0.9-11.2
				c-0.5-6.3-0.7-12.6-1.4-18.8c-0.1-0.5,0-1.4-0.6-1.7c-1.4-0.8-2.2,2-0.5,2C54.9,89.5,54.9,88,53.9,88L53.9,88z"/>
		</g>
	</g>
	<g>
		<g>
			<path class="st1" d="M151.7,86.3c-1.7,8.5-3.4,17.1-4.5,25.7c-0.6,4.3-1,8.7-1.2,13.1c-0.1,2.1-0.1,4.2-0.1,6.3
				c0,1.1,0,2.3,0.1,3.4c0,0.4,0,0.8,0.2,1.1c0.3,0.5,1,0.5,1.3,0c0.4-0.7,0.2-2,0.3-2.9c0.1-1-1.4-0.9-1.5,0c0,0.4-0.1,0.8-0.1,1.2
				c0,0.2,0,0.4,0,0.6c0,0.2-0.2,0.6,0,0.3c0.4,0,0.9,0,1.3,0c0.2,0.3,0-0.4,0-0.6c0-0.6,0-1.1,0-1.7c0-1,0-1.9,0-2.9
				c0-2,0.1-4,0.2-6.1c0.2-4.1,0.6-8.2,1.2-12.3c1.1-8.3,2.7-16.6,4.4-24.8C153.3,85.8,151.9,85.4,151.7,86.3L151.7,86.3z"/>
		</g>
	</g>
</g>
<g>
	<path class="st5" d="M153.4,141.8c-0.7-0.5-1.6-0.8-2.4-0.6c-1,0.1-1.6,1.3-1.1,2.2c0.2,0.3,0.7,0.5,1,0.3c0.1-0.1,0.2-0.2,0.3-0.3
		c0.7,0.1,1.4,0,2.1-0.1c0.3-0.1,0.5-0.3,0.5-0.6C153.8,142.2,153.7,142,153.4,141.8z"/>
	<g>
		<path class="st6" d="M172.8,149.8c-0.4-2.6-2.7-4.1-4.7-5.6c-2.2-1.6-5.2-3.7-8-3.7c-2.4,0-4.3,1.2-6,2.9c-2.1,2-3.3,4-4.8,6.4
			c-0.3,0.5-0.1,1,0.1,1.3c0,0,0,0,0,0c0.1,0.1,0.1,0.1,0.2,0.2c0,0,0.1,0,0.1,0.1c0.2,0.1,0.4,0.1,0.6,0.1
			c7.1,0.3,14.2-1.9,21.3-0.4C172.4,151.1,172.9,150.4,172.8,149.8z"/>
		<g>
			<g>
				<path class="st1" d="M149.5,151.2c2.1-4.9,5.1-11,11.5-10.3c2.8,0.3,5.3,1.9,7.4,3.8c2,1.9,3.9,4.1,4.3,6.9
					c0.2-0.1,0.5-0.1,0.7-0.2c-0.1-0.2-0.2-0.5-0.3-0.7c-0.2-0.4-0.9-0.3-0.7,0.2c0.1,0.2,0.2,0.5,0.3,0.7c0.2,0.5,0.8,0.3,0.7-0.2
					c-0.4-2.9-2.4-5.3-4.5-7.2c-2.1-2-4.6-3.6-7.5-4c-6.8-1-10.3,5.3-12.5,10.6C148.7,151.3,149.3,151.6,149.5,151.2L149.5,151.2z"
					/>
			</g>
		</g>
		<g>
			<g>
				<path class="st1" d="M148.9,151.7c7.7-0.9,15.4-0.9,23.1-0.2c0.5,0,0.5-0.7,0-0.8c-7.7-0.7-15.4-0.6-23.1,0.2
					C148.4,151.1,148.4,151.8,148.9,151.7L148.9,151.7z"/>
			</g>
		</g>
		<g>
			<g>
				<path class="st1" d="M155,147.4c0.5,0,0.5-0.8,0-0.8C154.5,146.6,154.5,147.4,155,147.4L155,147.4z"/>
			</g>
		</g>
		<g>
			<g>
				<path class="st1" d="M158.7,144.1c-0.2-0.8,0.6-1.7,1.4-1.7c0.9,0,1.7,0.9,1.6,1.8c-0.1,0.5-0.4,1-0.8,1.3
					c-0.4,0.2,0,0.9,0.4,0.6c1.2-0.7,1.6-2.4,0.7-3.5c-0.4-0.5-1-0.9-1.7-1c-0.6,0-1.3,0.3-1.7,0.7c-0.5,0.5-0.8,1.3-0.6,2
					C158.1,144.7,158.9,144.5,158.7,144.1L158.7,144.1z"/>
			</g>
		</g>
		<g>
			<g>
				<path class="st1" d="M153,143.1c-0.6-0.1-1.3,0.1-1.9,0.1c-0.5,0-1.1,0-1.3-0.5c-0.2-0.3,0-0.8,0.3-1.1c0.4-0.4,0.9-0.6,1.4-0.5
					c0.8,0.1,1.5,0.6,2.2,1.1c0.2,0.1,0.4,0,0.5-0.1c0.1-0.2,0-0.4-0.1-0.5c-1.2-0.9-3.1-1.8-4.4-0.5c-0.4,0.5-0.7,1.1-0.6,1.8
					c0.1,0.7,0.8,1.1,1.5,1.2c0.8,0.1,1.6-0.2,2.5-0.1c0.2,0,0.4-0.2,0.4-0.4C153.3,143.2,153.2,143.1,153,143.1L153,143.1z"/>
			</g>
		</g>
		<g>
			<g>
				<path class="st1" d="M172.8,151.9c0.7,0.2-0.4,1.1-0.5,1.3c-0.3,0.3-0.5,0.6-0.7,1c-0.3,0.7-0.3,1.5,0,2.2
					c0.8,1.6,2.7,1.4,4.1,0.9c1.6-0.7,3.1-2.1,3.4-3.9c0.2-1.1-0.2-2.3,0.4-3.3c0.3-0.4,0.8-0.8,1.3-0.6c0.5,0.2,0.7,0.8,0.8,1.2
					c0.3,0.9,0.4,1.9,1.3,2.4c0.7,0.4,1.6,0.3,2-0.4c0.2-0.4-0.4-0.8-0.6-0.4c-0.2,0.4-0.7,0.3-1,0.1c-0.4-0.3-0.6-1-0.7-1.4
					c-0.2-0.7-0.4-1.5-1-2c-1.4-1.1-2.8,0.5-3,1.8c-0.1,1,0.1,2.1-0.3,3.1c-0.4,0.9-1.1,1.6-1.9,2.1c-0.7,0.5-1.6,0.9-2.5,0.8
					c-0.9,0-1.7-0.7-1.6-1.7c0-0.5,0.2-1.1,0.6-1.5c0.3-0.3,0.7-0.6,0.9-1c0.3-0.6,0.1-1.4-0.6-1.7
					C172.5,151,172.3,151.7,172.8,151.9L172.8,151.9z"/>
			</g>
		</g>
		<path class="st5" d="M148.8,149.4c-1.3-0.2-1.5,1.9-0.2,2C149.9,151.6,150.1,149.6,148.8,149.4z"/>
	</g>
	<path class="st5" d="M161.6,142.7c-0.1-0.1-0.3-0.2-0.5-0.3c-0.1-0.1-0.2-0.2-0.3-0.2c-0.7-0.2-1.5-0.2-2.1,0.3
		c-0.3,0.3-0.5,0.8-0.5,1.2c0,0.4,0.2,0.8,0.4,1.1c0.5,0.6,1.3,1,2.1,0.7c0.3-0.1,0.6-0.3,0.9-0.6c0.3-0.3,0.4-0.7,0.5-1.1
		C162.1,143.5,161.9,143.1,161.6,142.7z"/>
</g>
</svg>
