<?xml version="1.0" encoding="utf-8"?>
<!-- Generator: Adobe Illustrator 26.3.1, SVG Export Plug-In . SVG Version: 6.00 Build 0)  -->
<svg version="1.1" id="Calque_1" xmlns="http://www.w3.org/2000/svg" xmlns:xlink="http://www.w3.org/1999/xlink" x="0px" y="0px"
	 viewBox="0 0 200 200" style="enable-background:new 0 0 200 200;" xml:space="preserve">
<style type="text/css">
	.st0{fill:#666666;}
	.st1{fill:#E7F4DF;}
	.st2{fill:none;stroke:#E7F4DF;stroke-miterlimit:10;}
	.st3{fill:#FFFFFF;}
	.st4{fill:#FFFF66;}
	.st5{fill:#FFFFCC;}
	.st6{fill:none;stroke:#FFFFCC;stroke-width:0.5;stroke-miterlimit:10;}
	.st7{fill:#9999CC;}
	.st8{fill:#CCCCCC;}
	.st9{fill:#79A2D8;}
</style>
<g>
	<g>
		<path class="st0" d="M141.5,110.8c3.9-1.1,6.5-3.6,8.7-7c2.3-3.3,4.1-7,6.9-9.9c2.8-2.9,6.4-4.9,10.4-5.7c2.1-0.4,4.3-0.5,6.4,0.1
			c4,1.3,6.8,5.3,7.2,9.5c0.4,4.2-1.5,8.4-4.5,11.3c-3,2.9-4.9,4.3-9.5,6.2c1.6,0.6,3.2,4.1,3.1,4.5c-0.2,0.7-1.8-0.1-2.5-0.1
			c-4.6-0.2-8.9,2.3-13.1,4.2c-4.2,1.9-8.1,1.4-12.6,0.5"/>
		<g>
			<path class="st1" d="M141.9,112.3c4.7-1.4,7.9-4.9,10.4-8.9c2.9-4.5,5.4-9.1,10.3-11.8c4.2-2.3,10.3-3.5,14.1,0.3
				c3.6,3.6,3.5,9.1,1,13.3c-2.6,4.3-7,7-11.5,8.9c-1,0.4-0.9,2.1,0,2.6c0.8,0.4,1.3,1.3,1.8,2.1c0.2,0.3,0.3,0.7,0.5,1
				c0.1,0.1,0,0.3,0.1,0.3c1.2-0.9,1.5-1.4,0.8-1.5c-0.1,0-0.3-0.1-0.4-0.1c-2.8-0.7-5.8,0-8.5,1.1c-3,1.1-5.8,3-8.9,3.7
				c-3.1,0.8-6.3,0.3-9.3-0.3c-1.9-0.4-2.7,2.5-0.8,2.9c3.7,0.7,7.6,1.2,11.3,0.2c3.8-1,7.1-3.4,10.9-4.4c1.6-0.4,3.1-0.5,4.7-0.2
				c1.3,0.3,3.1,0.1,3.1-1.7c0-1-0.7-2-1.1-2.8c-0.7-1.1-1.5-2.3-2.7-2.9c0,0.9,0,1.7,0,2.6c4.5-1.9,8.7-4.6,11.7-8.6
				c3.3-4.4,4.3-10.5,1.6-15.4c-1.2-2.1-3-4-5.2-5.1c-2.7-1.3-5.7-1.3-8.7-0.8c-5.7,1.1-10.4,4.7-13.7,9.4
				c-3.5,5-5.9,11.3-12.2,13.2C139.2,109.9,140,112.8,141.9,112.3L141.9,112.3z"/>
		</g>
	</g>
	<g>
		<g>
			<path class="st1" d="M172,88.7c1.3,3.3,2.2,6.8,2.5,10.3c0.2,1.7,0.2,3.3,0.1,5c0,0.6-0.3,5.4-0.7,5.4c-0.5,0-0.5,0.8,0,0.8
				c0.5,0,0.7-0.3,0.8-0.7c0.3-0.9,0.3-1.9,0.4-2.8c0.2-2.1,0.3-4.2,0.2-6.3c-0.2-4.1-1.1-8.1-2.6-11.9
				C172.5,88.1,171.8,88.3,172,88.7L172,88.7z"/>
		</g>
	</g>
	<g>
		<g>
			<path class="st1" d="M167.4,88.6c0.9,1.1,0.9,3.1,1.1,4.4c0.3,2.4,0.4,4.8,0.4,7.2c0,2.6-0.1,5.1-0.3,7.7
				c-0.1,1.1-0.2,2.2-0.4,3.3c-0.1,0.4-0.3,2.3-0.7,2.5c0.2,0,0.3,0,0.5,0.1c0,0.1,0,0.1,0.1,0.2c-0.1,0.1-0.2,0.2-0.4,0.3
				c0,0,0,0,0.1,0c0.5,0,0.5-0.8,0-0.8c0,0,0,0-0.1,0c-0.2,0-0.3,0.1-0.4,0.3c0,0.2,0,0.4,0.1,0.5c0.1,0.1,0.3,0.1,0.5,0.1
				c0.6-0.3,0.8-1.5,0.9-2.1c0.2-1.1,0.4-2.2,0.5-3.3c0.3-2.7,0.4-5.5,0.4-8.3c0-2.6-0.1-5.3-0.4-7.9c-0.2-1.4-0.3-3.4-1.2-4.6
				C167.8,87.9,167.1,88.2,167.4,88.6L167.4,88.6z"/>
		</g>
	</g>
	<g>
		<g>
			<path class="st1" d="M169.6,89.2c1.3,1.5,1.3,3.8,1.6,5.7c0.2,1.9,0.4,3.8,0.5,5.7c0.1,1.9,0,3.8-0.2,5.7c-0.1,1-0.2,2-0.4,3
				c-0.1,0.4-0.2,0.9-0.2,1.3c-0.1,0.3-0.1,0.6-0.2,0.9c-0.2,0.4-0.2,0.5,0.1,0.4c0.1,0.1,0.2,0.2,0.3,0.4c0,0,0-0.1,0-0.1
				c0-0.5-0.7-0.5-0.8,0c0,0,0,0.1,0,0.1c0,0.2,0.1,0.3,0.3,0.4c0,0,0.1,0,0.1,0c0.1,0,0.3,0,0.4-0.1c0.5-0.5,0.5-1.5,0.6-2.2
				c0.2-1,0.3-2.1,0.5-3.2c0.3-2.3,0.3-4.6,0.2-6.8c-0.1-2.2-0.3-4.3-0.6-6.5c-0.3-1.8-0.4-3.8-1.7-5.2
				C169.8,88.3,169.3,88.8,169.6,89.2L169.6,89.2z"/>
		</g>
	</g>
	<g>
		<g>
			<path class="st1" d="M165.4,88.6c0.9,4.3,1,8.8,0.9,13.2c-0.1,4.4-0.4,8.8-0.9,13.2c0,0.1,0.1,0.3,0.2,0.3
				c-0.3-0.2-0.2,0.1-0.2,0.5c-0.1,0.4-0.1,0.8-0.2,1.2c-0.1,0.4-0.1,0.7-0.2,1.1c0,0.1-0.1,0.3-0.1,0.4c0,0.3-0.2,0.2,0.1,0.1
				c-0.5,0.1-0.3,0.8,0.2,0.7c0.8-0.2,0.9-2.9,0.9-3.5c0-0.2,0.1-0.5,0.1-0.8c0-0.1-0.2-0.4-0.2-0.4c0.1-0.1,0.1-0.1,0.2-0.2
				c0-0.2,0.1-0.5,0.1-0.7c0-0.4,0.1-0.8,0.1-1.2c0.1-1,0.2-2,0.3-2.9c0.5-7,1-14.4-0.5-21.2C166,87.9,165.3,88.1,165.4,88.6
				L165.4,88.6z"/>
		</g>
	</g>
	<g>
		<g>
			<path class="st1" d="M163.5,90.9c1.1,4.9,0.3,10.1-0.1,15c-0.4,5.1-1,10.1-2.4,15c0.2,0,0.5,0,0.7,0c-0.1-0.1-0.1-0.3-0.2-0.4
				c-0.2-0.4-0.9-0.3-0.7,0.2c0.1,0.1,0.1,0.3,0.2,0.4c0.1,0.3,0.6,0.4,0.7,0c1.5-5,2-10.1,2.5-15.2c0.4-5,1.2-10.2,0.1-15.2
				C164.1,90.2,163.4,90.4,163.5,90.9L163.5,90.9z"/>
		</g>
	</g>
	<g>
		<g>
			<path class="st1" d="M161.3,91.1c0.2,5.1,0.1,10.2-0.3,15.3c-0.2,2.6-0.5,5.2-0.9,7.8c-0.2,1.2-0.4,2.4-0.7,3.6
				c-0.1,0.6-0.3,1.2-0.5,1.8c-0.1,0.3-0.3,1.6-0.7,1.8c0.2,0,0.3,0.1,0.5,0.1c0,0,0,0.1,0,0.1c-0.2,0.1-0.3,0.2-0.5,0.3
				c0,0,0,0,0.1,0c0.5,0.1,0.7-0.6,0.2-0.7c0,0,0,0-0.1,0c-0.2,0-0.4,0.1-0.5,0.3c-0.1,0.2-0.1,0.3,0.1,0.5c0.1,0.2,0.3,0.2,0.5,0.1
				c0.6-0.3,0.8-1.4,1-2c0.4-1.3,0.7-2.7,1-4c0.5-2.6,0.8-5.2,1.1-7.9c0.6-5.7,0.7-11.3,0.5-17C162.1,90.6,161.3,90.6,161.3,91.1
				L161.3,91.1z"/>
		</g>
	</g>
	<g>
		<g>
			<path class="st1" d="M158.6,92.6c0.8,10.2-1.2,20.4-3.2,30.4c0.2,0,0.5-0.1,0.7-0.1c-0.1-0.2-0.2-0.4-0.3-0.5
				c-0.2-0.4-0.9,0-0.6,0.4c0.1,0.2,0.2,0.4,0.3,0.5c0.2,0.3,0.6,0.2,0.7-0.1c2-10.1,4-20.3,3.2-30.6
				C159.3,92.2,158.6,92.2,158.6,92.6L158.6,92.6z"/>
		</g>
	</g>
	<g>
		<g>
			<path class="st1" d="M156.5,95.7c0.3,4.9-0.4,9.7-1.3,14.5c-0.4,2.4-0.9,4.7-1.3,7.1c-0.4,2.3-0.7,4.7-1.7,6.8c0.2,0,0.4,0,0.6,0
				c-0.1-0.2-0.2-0.3-0.3-0.5c-0.2-0.4-0.9-0.1-0.6,0.4c0.1,0.2,0.2,0.3,0.3,0.5c0.1,0.2,0.5,0.2,0.6,0c1-2.1,1.4-4.3,1.7-6.5
				c0.4-2.5,0.9-5,1.3-7.5c0.9-4.9,1.6-9.8,1.3-14.7C157.2,95.2,156.5,95.2,156.5,95.7L156.5,95.7z"/>
		</g>
	</g>
	<g>
		<g>
			<path class="st1" d="M153.9,98.9c-0.1,4.2-0.2,8.4-0.6,12.6c-0.2,2.2-0.5,4.3-1,6.5c-0.2,1-0.5,2-0.7,2.9c-0.2,0.6-0.5,2.8-1,3.1
				c0.2,0,0.3,0,0.5,0.1c0,0.1,0,0.1,0.1,0.2c-0.1,0.1-0.2,0.2-0.4,0.3c0,0,0.1,0,0.1,0c0.5,0,0.5-0.7,0-0.8c0,0-0.1,0-0.1,0
				c-0.2,0-0.3,0.1-0.4,0.3c-0.1,0.2,0,0.4,0.1,0.6c0.1,0.1,0.3,0.1,0.5,0.1c0.6-0.3,0.7-1.2,0.9-1.8c0.3-1,0.6-2,0.9-3
				c0.6-2.2,0.9-4.4,1.2-6.6c0.6-4.7,0.7-9.5,0.8-14.3C154.6,98.4,153.9,98.4,153.9,98.9L153.9,98.9z"/>
		</g>
	</g>
	<g>
		<g>
			<path class="st1" d="M151.3,102.8c0,3.7,0,7.5-0.3,11.2c-0.2,1.7-0.4,3.5-0.9,5.1c-0.2,0.8-0.5,1.6-0.8,2.4
				c-0.2,0.4-0.4,0.8-0.6,1.2c-0.1,0.2-0.5,1.1-0.7,1.2c0.1,0.1,0.3,0.1,0.4,0.2c0,0.1,0,0.2,0,0.3c-0.2,0-0.3,0.1-0.5,0.1
				c0,0,0,0,0,0c0.4,0.2,0.8-0.5,0.4-0.6c0,0,0,0,0,0c-0.2-0.1-0.4-0.1-0.5,0.1c-0.1,0.2-0.1,0.3,0,0.5c0.1,0.2,0.3,0.2,0.4,0.2
				c0.5-0.1,0.8-0.8,1-1.2c0.4-0.8,0.8-1.6,1.1-2.5c0.7-1.7,1-3.6,1.3-5.4c0.6-4.2,0.5-8.5,0.5-12.8
				C152.1,102.3,151.3,102.3,151.3,102.8L151.3,102.8z"/>
		</g>
	</g>
	<g>
		<g>
			<path class="st1" d="M149.3,105.6c-0.3,3.3-0.1,6.7-0.6,10.1c-0.5,3.1-1.5,6.1-3,8.8c-0.2,0.4,0.4,0.8,0.6,0.4
				c1.5-2.8,2.6-5.8,3-9c0.5-3.4,0.3-6.9,0.6-10.3C150.1,105.1,149.4,105.1,149.3,105.6L149.3,105.6z"/>
		</g>
	</g>
	<g>
		<g>
			<path class="st1" d="M147.7,107.3c-0.1,2.7-0.2,5.5-0.4,8.3c-0.2,2.7-1,5.3-2.2,7.6c-0.2,0.4,0.4,0.8,0.6,0.4
				c1.2-2.3,2-4.8,2.3-7.4c0.3-2.9,0.3-5.9,0.4-8.8C148.4,106.9,147.7,106.9,147.7,107.3L147.7,107.3z"/>
		</g>
	</g>
	<g>
		<g>
			<path class="st1" d="M144.8,110.1c0.2,2.3,0.5,4.7,0.5,7c0,1.2-0.1,2.3-0.2,3.5c-0.1,0.6-0.2,1.2-0.3,1.8
				c-0.1,0.3-0.1,0.5-0.2,0.8c0,0.2-0.1,0.3-0.1,0.5c-0.2,0.3-0.1,0.4,0.3,0.5c0-0.5-0.8-0.5-0.8,0c0,0.3,0.2,0.5,0.5,0.5
				c0.5,0,0.6-0.6,0.7-0.9c0.4-1.4,0.6-2.9,0.8-4.4c0.2-3.1-0.1-6.2-0.4-9.3C145.5,109.6,144.7,109.6,144.8,110.1L144.8,110.1z"/>
		</g>
	</g>
	<g>
		<g>
			<path class="st1" d="M142.4,111.1c0.2,2.2,0.6,4.3,0.8,6.5c0.1,1.1,0.2,2.1,0.2,3.2c0,0.5,0,1-0.1,1.5c0,0.3-0.1,0.6-0.1,0.9
				c0,0.2-0.1,0.3-0.1,0.5c-0.1,0.3-0.1,0.3,0,0.2c0.2,0,0.3,0,0.5,0.1c0,0.1,0,0.1,0.1,0.2c-0.1,0.1-0.2,0.2-0.3,0.4c0,0,0,0,0,0
				c0.5-0.1,0.3-0.8-0.2-0.7c0,0,0,0,0,0c-0.2,0-0.3,0.2-0.3,0.4c0,0.1,0,0.3,0.1,0.4c0.1,0.1,0.3,0.2,0.5,0.1
				c0.3-0.2,0.3-0.6,0.4-1c0.1-0.6,0.2-1.1,0.2-1.7c0.1-1.2,0-2.3-0.1-3.5c-0.2-2.4-0.7-4.8-0.9-7.2
				C143.1,110.6,142.4,110.6,142.4,111.1L142.4,111.1z"/>
		</g>
	</g>
	<g>
		<g>
			<path class="st1" d="M174.1,89.5c2.5,5.4,3.7,11.2,3.6,17.1c0.1-0.1,0.2-0.2,0.4-0.4c-0.3,0-0.5-0.1-0.8-0.1
				c-0.5,0-0.5,0.7,0,0.8c0.3,0,0.5,0.1,0.8,0.1c0.2,0,0.4-0.2,0.4-0.4c0.1-6-1.2-12-3.7-17.5C174.6,88.7,173.9,89,174.1,89.5
				L174.1,89.5z"/>
		</g>
	</g>
</g>
<g>
	<path class="st0" d="M39.5,144.9c0.3-0.1,0.5-0.2,0.8-0.3c12.8-2.6,25.9-1.9,38.8-0.2c0,0,0,0,0,0c0,0,0,0,0,0
		c0.4,0.1,0.9,0.1,1.3,0.2c0.6,0.1,1.2,0.3,1.6,0.6c2.8-0.3,5.6-0.6,8.4-0.9c17.5-1.6,35.7-1.6,53.3-0.7c0.5,0,0.9,0.1,1.3,0.3
		c2.5-7.3,5.2-19.6,4.6-22.2c-0.6-0.6-1.6-5.5-1.8-6.4c-0.8-4.8-1.7-9-2.7-13.8c-0.2-0.5-0.3-1-0.4-1.6c-0.1-0.6-0.1-1.2-0.1-1.7
		c-0.2,0-0.3,0-0.5,0c0-0.1,0-0.2,0-0.3c-0.9-4.6-2.7-8.9-4.4-13.2c0.7-3.1,1.5-6.2,2-9.3c0.5-3.6,1.4-7.8-0.4-11.1
		c-0.7-1.4-2-2.5-3.5-3c-1.9-0.6-3.8,0-5.6,0.8c-3.5,1.6-6.8,3.7-10,5.9c-15.2-7.7-33.2-9.1-49.4-3.6C71.4,63.1,70,62,68.4,61
		c-1.5-1.1-3.2-2-4.8-2.9c-1.8-0.9-3.8-1.8-5.8-1.1c-1.3,0.4-2.5,1.4-2.8,2.7c-0.2,0.7-0.3,1.4-0.4,2.1c-0.4,2.7-0.7,5.4-0.8,8
		c-0.1,2-0.2,4.1-0.1,6.2c-0.1,0.1-0.2,0.2-0.3,0.3c-3.5,5.4-7.8,10.5-10.1,16.5c-0.1,0-0.4,0-0.6,0c-0.1,0.4-0.2,0.7-0.4,1.1
		c-0.1,0.2-0.2,0.5-0.3,0.7c-0.4,0.7-2.4,3.6-2.6,4.4c0,0,0,0,0,0c0,0,0,0,0,0c0,3.9-5.9,22.1-5.8,22.4
		C33.6,121.7,35.4,133.6,39.5,144.9z"/>
</g>
<g>
	<g>
		<path class="st1" d="M73.7,66.7c15.7-5.3,33.3-4.1,48,3.5c1.7,0.9,3.2-1.7,1.5-2.6c-15.5-7.9-33.9-9.3-50.3-3.8
			C71.1,64.5,71.9,67.3,73.7,66.7L73.7,66.7z"/>
	</g>
</g>
<g>
	<g>
		<g>
			<path class="st1" d="M57.1,77.9c-0.6-2.2-0.5-4.6-0.4-6.9c0.1-2.6,0.3-5.1,0.7-7.7c0.1-0.8,0.2-1.6,0.4-2.4
				c0-0.3,0.1-0.5,0.1-0.8c0-0.1,0.2-0.4,0.1-0.3c0.9-1.5,3.3-0.3,4.3,0.3c1.5,0.8,3,1.6,4.4,2.6c3.1,2,5.8,4.5,8.2,7.3
				c1.3,1.4,3.4-0.7,2.1-2.1c-2.5-2.8-5.2-5.3-8.3-7.4c-1.6-1.1-3.2-2-4.9-2.9c-1.8-0.9-3.9-1.8-5.9-1.1c-1.3,0.4-2.5,1.4-2.9,2.7
				c-0.2,0.7-0.3,1.4-0.4,2.1c-0.4,2.7-0.7,5.4-0.9,8.1c-0.2,3.1-0.3,6.4,0.4,9.4C54.6,80.6,57.5,79.8,57.1,77.9L57.1,77.9z"/>
		</g>
	</g>
	<g>
		<g>
			<path class="st1" d="M140.7,84.9c0.8-3.3,1.6-6.5,2.1-9.9c0.5-3.6,1.4-7.9-0.4-11.2c-0.7-1.4-2-2.6-3.5-3c-1.9-0.6-3.9,0-5.7,0.8
				c-3.7,1.7-7.3,4-10.7,6.2c-1.2,0.8-0.8,2.7,0.8,2.8c0.7,0,1.3-0.2,1.8-0.7c1.5-1.2-0.6-3.3-2.1-2.1c0.1-0.1,0.2-0.1,0.3-0.2
				c0.3,0.9,0.5,1.9,0.8,2.8c2.9-1.9,5.8-3.7,8.9-5.3c1.4-0.7,3.1-1.8,4.8-1.5c1.2,0.2,2.1,1.4,2.4,2.6c0.5,1.7,0.3,3.5,0.1,5.2
				c-0.1,1.5-0.3,2.9-0.6,4.4c-0.5,2.8-1.2,5.6-1.9,8.4C137.4,85.9,140.3,86.7,140.7,84.9L140.7,84.9z"/>
		</g>
	</g>
	<g>
		<g>
			<path class="st1" d="M122.7,70.5c0.7,1.6,1.1,3.5,2.7,4.6c2.1,1.5,5.3,0.5,6.8-1.4c0.8-1.1,1.6-2.2,2.5-3.2
				c0.4-0.5,0.9-1,1.3-1.4c0.4-0.4,1-1,1.5-1c1.3,0,0.5,2.6,0.4,3.3c-0.2,1.6-0.3,3.2-0.4,4.8c-0.1,1.7-0.2,3.5-0.1,5.2
				c0.1,1.3,0.4,2.7,1.3,3.6c0.7,0.7,1.7-0.4,1.1-1.1c-0.8-0.8-0.9-2.2-0.9-3.2c-0.1-1.6,0-3.2,0.1-4.8c0.1-1.6,0.2-3.2,0.4-4.7
				c0.2-1.2,0.6-2.6-0.1-3.7c-1.7-2.7-4.7,0.7-5.9,2.1c-0.9,1-1.6,2.2-2.5,3.2c-0.8,1-2.3,1.6-3.7,1.4c-2.1-0.3-2.6-2.9-3.3-4.5
				C123.6,68.9,122.3,69.6,122.7,70.5L122.7,70.5z"/>
		</g>
	</g>
	<g>
		<g>
			<path class="st1" d="M75.7,69c-1.1,0.6-2.3,2.2-3.6,2c-1.6-0.2-3.1-2-4.2-3c-1.4-1.2-2.7-2.4-4.1-3.5c-0.9-0.7-2.1-1.6-3.3-1.7
				c-2.5-0.1-2.5,3.3-2.7,5c-0.4,3.5-1.7,6.8-2.2,10.3c-0.1,0.9,1.3,1.4,1.4,0.4c0.5-3.3,1.6-6.4,2.1-9.6c0.2-1.2,0.2-2.4,0.5-3.6
				c0.1-0.4,0.3-0.9,0.7-0.9c0.6-0.1,1.3,0.5,1.8,0.8c2.7,1.9,4.9,4.5,7.6,6.4c1,0.7,2.3,1.3,3.5,0.8c1.2-0.4,2-1.5,3.2-2.1
				C77.3,69.8,76.5,68.5,75.7,69L75.7,69z"/>
		</g>
	</g>
	<g>
		<g>
			<path class="st1" d="M60.6,62.9c-0.9-1.4-1.5-2.9-1.7-4.6c0-0.2-0.2-0.4-0.4-0.4c-0.2,0-0.4,0.2-0.4,0.4c0.2,1.8,0.8,3.5,1.8,4.9
				C60.2,63.7,60.9,63.3,60.6,62.9L60.6,62.9z"/>
		</g>
	</g>
	<g>
		<g>
			<path class="st1" d="M62.4,64c-0.4-1.9-0.8-3.7-1.2-5.6c-0.1-0.5-0.8-0.3-0.7,0.2c0.4,1.9,0.8,3.7,1.2,5.6
				C61.8,64.7,62.5,64.5,62.4,64L62.4,64z"/>
		</g>
	</g>
	<g>
		<g>
			<path class="st1" d="M64.2,64.9c-0.4-1.6-0.5-3.2-0.4-4.8c0-0.5-0.7-0.5-0.8,0c-0.1,1.7,0,3.4,0.4,5
				C63.6,65.6,64.3,65.4,64.2,64.9L64.2,64.9z"/>
		</g>
	</g>
	<g>
		<g>
			<path class="st1" d="M65.9,66.8c-0.3-1.9-0.4-3.9-0.3-5.9c0-0.5-0.7-0.5-0.8,0c0,2,0.1,4,0.4,6.1c0,0.2,0.3,0.3,0.5,0.3
				C65.9,67.2,66,67,65.9,66.8L65.9,66.8z"/>
		</g>
	</g>
	<g>
		<g>
			<path class="st1" d="M67.7,68.4c-0.3-1.8-0.3-3.6,0.1-5.4c0.1-0.5-0.6-0.7-0.7-0.2c-0.4,1.9-0.5,3.9-0.1,5.8
				C67,69,67.8,68.8,67.7,68.4L67.7,68.4z"/>
		</g>
	</g>
	<g>
		<g>
			<path class="st1" d="M69.2,69.6c-0.3-1.7-0.1-3.4,0.4-5.1c0.1-0.5-0.6-0.7-0.7-0.2c-0.6,1.8-0.7,3.6-0.4,5.5
				c0,0.2,0.3,0.3,0.5,0.3C69.2,70,69.3,69.8,69.2,69.6L69.2,69.6z"/>
		</g>
	</g>
	<g>
		<g>
			<path class="st1" d="M70.7,70.9c0-1.6,0.3-3.2,0.8-4.7c0.2-0.5-0.6-0.6-0.7-0.2c-0.6,1.6-0.8,3.2-0.8,4.9
				C69.9,71.4,70.7,71.4,70.7,70.9L70.7,70.9z"/>
		</g>
	</g>
	<g>
		<g>
			<path class="st1" d="M71.9,71.1c0.1-1.5,0.5-3,1.2-4.4c0.1-0.2,0.1-0.4-0.1-0.5c-0.2-0.1-0.4-0.1-0.5,0.1
				c-0.7,1.5-1.1,3.1-1.3,4.7C71.1,71.6,71.9,71.6,71.9,71.1L71.9,71.1z"/>
		</g>
	</g>
	<g>
		<g>
			<path class="st1" d="M59.2,64.5c-1-1.3-2.1-2.6-3.1-3.9c-0.1-0.2-0.4-0.1-0.5,0c-0.2,0.2-0.1,0.4,0,0.5c1,1.3,2.1,2.6,3.1,3.9
				c0.1,0.2,0.4,0.1,0.5,0C59.3,64.9,59.3,64.7,59.2,64.5L59.2,64.5z"/>
		</g>
	</g>
	<g>
		<g>
			<path class="st1" d="M58.7,67.1c-0.8-0.8-1.6-1.6-2.2-2.5c-0.1-0.2-0.3-0.2-0.5-0.1c-0.2,0.1-0.3,0.3-0.1,0.5
				c0.7,1,1.5,1.9,2.3,2.7c0.1,0.1,0.4,0.1,0.5,0C58.8,67.5,58.8,67.3,58.7,67.1L58.7,67.1z"/>
		</g>
	</g>
	<g>
		<g>
			<path class="st1" d="M58.6,70c-0.8-0.9-1.5-1.8-2.3-2.6c-0.1-0.2-0.4-0.1-0.5,0c-0.2,0.2-0.1,0.4,0,0.5c0.8,0.9,1.5,1.8,2.3,2.6
				c0.1,0.2,0.4,0.1,0.5,0C58.8,70.4,58.8,70.1,58.6,70L58.6,70z"/>
		</g>
	</g>
	<g>
		<g>
			<path class="st1" d="M58,72.1c-1.3-1-2.4-2.1-3.5-3.3c-0.3-0.4-0.9,0.2-0.5,0.5c1.1,1.2,2.3,2.3,3.5,3.3c0.2,0.1,0.4,0.2,0.5,0
				C58.1,72.4,58.1,72.2,58,72.1L58,72.1z"/>
		</g>
	</g>
	<g>
		<g>
			<path class="st1" d="M138.3,67.7c0.7-1.9,1.1-3.9,1.2-5.9c0-0.5-0.7-0.5-0.8,0c-0.1,1.9-0.5,3.9-1.2,5.7
				C137.4,68,138.2,68.2,138.3,67.7L138.3,67.7z"/>
		</g>
	</g>
	<g>
		<g>
			<path class="st1" d="M137.1,67.9c0-1.8,0.1-3.5,0.1-5.3c0-0.5-0.7-0.5-0.8,0c0,1.8-0.1,3.5-0.1,5.3
				C136.4,68.4,137.1,68.4,137.1,67.9L137.1,67.9z"/>
		</g>
	</g>
	<g>
		<g>
			<path class="st1" d="M135.6,68.6c0.1-2,0-4.1-0.3-6.1c-0.1-0.5-0.8-0.3-0.7,0.2c0.3,1.9,0.4,3.9,0.3,5.9
				C134.9,69.1,135.6,69.1,135.6,68.6L135.6,68.6z"/>
		</g>
	</g>
	<g>
		<g>
			<path class="st1" d="M134.1,70c0-2-0.2-4-0.4-6c0-0.2-0.2-0.4-0.4-0.4c-0.2,0-0.4,0.2-0.4,0.4c0.3,2,0.4,4,0.4,6
				C133.4,70.5,134.1,70.5,134.1,70L134.1,70z"/>
		</g>
	</g>
	<g>
		<g>
			<path class="st1" d="M132.9,72c-0.2-2.4-0.5-4.7-0.9-7.1c-0.1-0.5-0.8-0.3-0.7,0.2c0.4,2.3,0.7,4.6,0.9,6.9
				C132.2,72.4,133,72.4,132.9,72L132.9,72z"/>
		</g>
	</g>
	<g>
		<g>
			<path class="st1" d="M131.8,73.4c-0.4-2.6-0.9-5.1-1.3-7.7c-0.1-0.5-0.8-0.3-0.7,0.2c0.4,2.6,0.9,5.1,1.3,7.7
				C131.2,74.1,131.9,73.9,131.8,73.4L131.8,73.4z"/>
		</g>
	</g>
	<g>
		<g>
			<path class="st1" d="M130.6,74c-0.4-2.1-0.8-4.2-1.2-6.3c-0.1-0.5-0.8-0.3-0.7,0.2c0.4,2.1,0.8,4.2,1.2,6.3
				C129.9,74.6,130.7,74.4,130.6,74L130.6,74z"/>
		</g>
	</g>
	<g>
		<g>
			<path class="st1" d="M128.8,74.3c-0.6-2-1.1-4-1.4-6c-0.1-0.5-0.8-0.3-0.7,0.2c0.4,2,0.8,4,1.4,6C128.2,75,128.9,74.8,128.8,74.3
				L128.8,74.3z"/>
		</g>
	</g>
	<g>
		<g>
			<path class="st1" d="M126.5,73.4c-0.7-1.1-0.9-2.4-0.8-3.7c0-0.2-0.2-0.4-0.4-0.4c-0.2,0-0.3,0.2-0.4,0.4
				c-0.2,1.4,0.1,2.9,0.9,4.1C126.1,74.2,126.7,73.8,126.5,73.4L126.5,73.4z"/>
		</g>
	</g>
	<g>
		<g>
			<path class="st1" d="M139.5,69.5c0.4-0.8,0.8-1.5,1.2-2.3c0.1-0.2,0-0.4-0.1-0.5c-0.2-0.1-0.4,0-0.5,0.1
				c-0.4,0.8-0.8,1.5-1.2,2.3c-0.1,0.2,0,0.4,0.1,0.5C139.1,69.8,139.4,69.7,139.5,69.5L139.5,69.5z"/>
		</g>
	</g>
	<g>
		<g>
			<path class="st1" d="M139.2,72.3c0.5-1.1,1.3-1.9,2.3-2.6c0.2-0.1,0.2-0.3,0.1-0.5c-0.1-0.2-0.3-0.2-0.5-0.1
				c-1.1,0.7-2,1.7-2.5,2.8c-0.1,0.2,0,0.4,0.1,0.5C138.8,72.5,139.1,72.5,139.2,72.3L139.2,72.3z"/>
		</g>
	</g>
	<g>
		<g>
			<path class="st1" d="M138.9,76.1c0.3-1.3,1.2-2.4,2.3-3c0.4-0.2,0-0.9-0.4-0.6c-1.3,0.8-2.3,2-2.7,3.5
				C138.1,76.4,138.8,76.6,138.9,76.1L138.9,76.1z"/>
		</g>
	</g>
	<g>
		<g>
			<path class="st1" d="M139,79c0.7-1.2,1.6-2.4,2.6-3.4c0.3-0.4-0.2-0.9-0.5-0.5c-1,1.1-1.9,2.3-2.7,3.6
				C138.1,79,138.7,79.4,139,79L139,79z"/>
		</g>
	</g>
	<g>
		<g>
			<path class="st1" d="M73.3,70.8c0.2-1,0.6-2,1-2.9c0.1-0.2,0-0.4-0.1-0.5c-0.2-0.1-0.4,0-0.5,0.1c-0.5,1-0.8,2-1.1,3.1
				C72.4,71.1,73.2,71.3,73.3,70.8L73.3,70.8z"/>
		</g>
	</g>
</g>
<g>
	<g>
		<path class="st1" d="M116.6,96.8c-0.1-0.3-0.4-0.4-0.7-0.3c-0.3,0.1-0.5,0.3-0.6,0.5c-0.2,0.2-0.2,0.5,0,0.8
			c0.1,0.2,0.4,0.4,0.7,0.4c0.6,0,0.9-0.7,1-1.2c0.1-0.5,0-1.1-0.6-1.1c0.1,0.2,0.1,0.5,0.2,0.7c0.3-0.2,0.7-0.4,1-0.4
			c0.1,0,0.2,0,0.3,0.1c0.1,0.1,0.1,0.3,0.1,0.4c0,0.1,0,0.3,0,0.4c0,0.1-0.1,0.1-0.2,0.1c-0.2,0-0.4-0.2-0.4-0.5
			c-0.2,0-0.5,0.1-0.7,0.1c0,0.3,0.1,0.6,0.1,0.9c0,0.2,0.1,0.5,0.3,0.7c0.3,0.4,1,0.3,1.2-0.2c0.1-0.3-0.1-0.4-0.4-0.5
			c-0.4-0.1-1.2,0-1.4,0.5c-0.1,0.2,0,0.5,0.2,0.7c0.2,0.2,0.5,0.2,0.8,0.2c0.5,0,1-0.1,1.2-0.6c0.2-0.5-0.1-1-0.4-1.3
			c-0.2-0.1-0.5-0.2-0.7-0.3c-0.1,0-0.3-0.1-0.4-0.1c-0.2,0-0.3,0.1-0.5,0.1c0.1,0,0.1,0,0.2-0.1c0,0,0,0,0,0c0.1,0,0.1,0.1,0.2,0.1
			c0,0.1,0,0.2,0.1,0.3c0,0,0,0,0,0c0,0,0.1-0.1,0.1-0.1c0-0.1,0-0.2,0-0.3c0-0.2-0.1-0.3-0.3-0.4c-0.1-0.1-0.3-0.2-0.5-0.2
			c-0.2,0-0.3,0.1-0.5,0c0.1,0.2,0.2,0.3,0.3,0.5c0.1-0.3,0.2-0.7,0.5-0.9c0.3-0.2,0.5,0.1,0.7,0.3c0.3,0.4,0.9-0.2,0.5-0.5
			c-0.2-0.2-0.4-0.4-0.7-0.5c-0.3-0.1-0.6-0.1-0.9,0c-0.5,0.3-0.8,0.9-0.9,1.4c0,0.2,0.1,0.4,0.3,0.5c0.2,0,0.3,0,0.5,0
			c0.1,0,0.1,0,0.2,0c-0.1,0,0.1,0,0,0c0,0,0,0,0,0c0-0.1,0-0.2,0-0.1c0,0-0.1,0.1-0.1,0.2c0,0.1,0,0.3,0,0.4
			c0.1,0.2,0.3,0.3,0.5,0.2c0.1,0,0.1-0.1,0.3-0.1c0.2,0.1,0.5,0.1,0.7,0.2c0.1,0,0.1,0.1,0.1,0.1c0,0,0,0.1,0,0.1c0,0,0,0,0,0
			c0,0,0,0,0,0c0,0,0,0,0,0c0,0-0.1,0.1-0.1,0c-0.1,0-0.2,0-0.3,0c-0.1,0-0.2,0-0.3,0c-0.1,0,0,0-0.1,0.1c0,0,0,0,0,0.1
			c0,0,0.1,0,0.1,0c0.1,0,0.1,0,0.2,0c0.1,0,0.3,0,0.4,0c-0.1-0.2-0.2-0.3-0.4-0.5c0,0,0.1-0.1,0.1-0.1c0,0,0,0,0,0c0,0,0,0,0,0
			c0,0,0,0,0,0c0,0,0,0.1,0,0c0,0-0.1-0.1,0,0c0,0,0-0.1-0.1-0.2c-0.1-0.3-0.1-0.7-0.1-1c0-0.2-0.2-0.3-0.4-0.3
			c-0.2,0-0.3,0.2-0.3,0.4c0,0.6,0.5,1.2,1.1,1.2c0.6,0,1.1-0.5,1.1-1.1c0-0.6-0.2-1.3-0.8-1.4c-0.6-0.2-1.2,0.2-1.7,0.4
			c-0.1,0.1-0.2,0.3-0.2,0.4c0,0.2,0.2,0.3,0.4,0.3c0,0-0.1,0-0.1,0c0,0,0,0,0,0c0,0,0,0,0,0c0,0,0,0,0,0.1c0,0,0,0.1,0,0.1
			c0,0,0,0.1,0,0.1c0,0.2,0,0.4-0.2,0.5c0,0-0.1,0,0,0c0,0-0.1,0,0,0c0,0,0,0,0,0c0,0,0.1,0,0,0c0,0,0,0,0,0
			c0.1-0.1,0.1-0.1,0.2-0.2c0,0,0,0,0,0c0,0,0.1,0,0,0c0,0-0.1,0-0.1-0.1C116.2,97.6,116.9,97.2,116.6,96.8L116.6,96.8z"/>
	</g>
</g>
<g>
	<g>
		<path class="st1" d="M89.5,94.1c-0.3,0.5-0.4,1.2,0.2,1.5c0.6,0.3,1.2-0.1,1.5-0.6c0.2-0.3,0.3-0.6,0.2-0.9
			c-0.1-0.3-0.4-0.5-0.7-0.6c-0.3-0.1-0.7-0.2-1,0c-0.3,0.1-0.5,0.4-0.5,0.8c0,0.2,0.1,0.3,0.3,0.4c0.2,0,0.3,0,0.4-0.2
			c0.2-0.3,0.3-0.6,0.3-0.9c0-0.3-0.2-0.6-0.5-0.7c-0.3-0.1-0.7-0.1-0.9,0.2c-0.2,0.2-0.3,0.5-0.4,0.8c-0.1,0.3-0.1,0.7,0.2,0.9
			c0.2,0.2,0.5,0.3,0.8,0.4c0.6,0.1,1.1-0.2,1.5-0.7c0.2-0.2-0.1-0.6-0.3-0.6c-0.4,0-0.7,0.2-1,0.5c-0.1,0.1-0.2,0.3,0,0.5
			c0.1,0.1,0.3,0.2,0.5,0.1c0.4-0.3,0.7-0.7,0.8-1.1c0-0.2,0.1-0.5,0-0.7c0,0,0-0.1,0-0.1c-0.1,0.2-0.2,0.2-0.1,0.2c0,0,0.1,0,0.1,0
			c0.1,0,0.2,0,0.3,0.1c0.2,0.1,0.4,0.2,0.5,0.3c0,0,0.1,0.1,0.1,0.1c0,0,0,0.1,0,0.1c0,0-0.1,0.1-0.1,0.1c-0.1,0.1-0.3,0.3-0.4,0.4
			c-0.1,0-0.1,0.1-0.2,0.1c0,0-0.1,0-0.1-0.1c0,0.2,0,0.3,0.1,0.5c0.1-0.1,0,0,0,0c0,0,0.1,0,0,0c0,0,0.1,0,0,0c0,0,0.1,0,0.1,0
			c0,0,0,0,0,0c0,0,0.1,0,0.1,0c0,0,0,0,0,0c0,0,0.1,0,0.1,0c0.1,0-0.1,0,0,0c0,0,0,0,0,0c0,0,0.1,0.1,0,0c0,0,0,0,0,0.1
			c0,0,0,0,0,0c0,0,0,0,0,0c0,0,0,0.1,0,0.1c0,0,0,0.1,0,0.1c0,0.2-0.2,0.3-0.3,0.3c-0.2,0-0.4-0.1-0.5-0.3
			c-0.1-0.2-0.2-0.3-0.5-0.3c-0.2,0-0.3,0.3-0.3,0.5c0.2,0.5,0.7,0.9,1.2,0.9c0.5,0,1-0.4,1.1-0.9c0.1-0.5-0.1-1-0.6-1.2
			c-0.4-0.2-1,0-1.2,0.4c-0.1,0.2,0,0.3,0.1,0.5c0.4,0.4,1,0.3,1.4,0c0.4-0.3,0.9-0.8,0.7-1.3c-0.1-0.5-0.7-0.8-1.1-1
			c-0.3-0.1-0.6-0.1-0.9,0c-0.1,0.1-0.2,0.1-0.3,0.2c-0.1,0.2-0.1,0.3,0,0.5c0.1,0.4-0.1,0.8-0.4,1.1c0.2,0.2,0.3,0.4,0.5,0.6
			c0.1-0.1,0.3-0.2,0.4-0.2c-0.1-0.2-0.2-0.4-0.3-0.6c-0.1,0.2-0.4,0.3-0.7,0.3c-0.1,0-0.2,0-0.3-0.1c-0.1,0-0.1-0.1-0.1-0.2
			c0-0.2,0.1-0.3,0.2-0.5c0-0.1,0.1-0.2,0.2-0.2c0,0,0,0,0,0c0,0,0,0,0,0.1c0,0.2-0.1,0.3-0.2,0.4c0.2,0.1,0.5,0.1,0.7,0.2
			c0,0,0,0,0-0.1c0,0,0,0,0.1,0c0.1,0,0.3,0,0.5,0.1c0,0,0.1,0,0.1,0.1c0,0,0-0.1,0,0c0,0.1-0.1,0.3-0.2,0.4
			c-0.1,0.1-0.1,0.2-0.2,0.2c-0.1,0-0.2,0-0.2,0c0,0,0,0,0,0c0,0,0,0,0,0c0-0.1,0,0.1,0,0c0,0,0-0.1,0,0c0-0.1,0.1-0.2,0.1-0.4
			C90.4,94.1,89.7,93.7,89.5,94.1L89.5,94.1z"/>
	</g>
</g>
<g>
	<g>
		<path class="st1" d="M89.6,93.5C89.6,93.5,89.6,93.4,89.6,93.5C89.6,93.5,89.6,93.5,89.6,93.5c0-0.1,0-0.1,0-0.1c0,0,0-0.1,0,0
			c0,0,0,0,0,0c0,0,0-0.1,0.1-0.1c0,0,0,0,0-0.1c0,0-0.1,0.1,0,0c0,0,0-0.1,0.1-0.1c0,0,0,0,0,0c0,0,0,0,0,0c0,0,0.1,0,0.1-0.1
			c0,0,0,0,0,0c0.1,0-0.1,0,0,0c0,0,0.1,0,0.1,0c0,0,0,0,0.1,0c0.1,0-0.1,0,0,0c0,0,0.1,0,0.1,0c0,0,0,0,0.1,0c0.1,0-0.1,0,0,0
			c0,0,0.1,0,0.1,0c0,0,0,0,0.1,0c0.1,0-0.1,0,0,0c0,0,0.1,0,0.1,0.1c0.2,0.1,0.4,0,0.5-0.1c0.1-0.2,0-0.4-0.1-0.5
			c-0.4-0.2-0.9-0.3-1.3,0c-0.4,0.2-0.6,0.6-0.7,1.1c0,0.2,0.2,0.4,0.4,0.4C89.5,93.9,89.6,93.7,89.6,93.5L89.6,93.5z"/>
	</g>
</g>
<g>
	<g>
		<path class="st1" d="M89.1,94c-0.3,0.3-0.4,0.8-0.2,1.3c0.1,0.2,0.3,0.4,0.5,0.4c0.3,0.1,0.5,0.1,0.8,0.1c0.2,0,0.5-0.1,0.7-0.2
			c0.2-0.1,0.2-0.4,0.1-0.5c-0.1-0.2-0.3-0.2-0.5-0.1c0,0-0.1,0-0.1,0c0,0,0,0,0,0c0,0,0,0,0,0c0,0-0.1,0-0.2,0.1
			c-0.1,0-0.2,0.1-0.3,0.1c0,0,0.1,0,0.1,0c-0.1,0-0.2,0-0.3,0c0,0,0.1,0,0.1,0c0,0-0.1,0-0.1,0c0,0,0,0-0.1,0c0,0,0.1,0,0,0
			c0,0-0.1,0-0.1-0.1c0.1,0,0.1,0.1,0,0c0,0,0,0,0,0c0,0,0,0,0,0c0,0,0-0.1,0,0c0,0,0,0,0,0c0,0,0-0.1,0-0.1c0-0.1,0,0.1,0,0
			c0,0,0,0,0,0c0,0,0-0.1,0-0.1c0,0,0,0.1,0,0.1c0-0.1,0-0.1,0-0.2c0,0,0,0.1,0,0.1c0,0,0-0.1,0-0.1c0,0,0,0,0,0c0,0,0-0.1,0,0
			c0,0,0-0.1,0-0.1c0,0,0,0,0,0c0,0,0,0,0,0c0,0,0,0,0,0c0.1-0.1,0.2-0.4,0-0.5C89.4,93.9,89.2,93.9,89.1,94L89.1,94z"/>
	</g>
</g>
<g>
	<g>
		<path class="st1" d="M91.1,94c0.1-0.1,0.2-0.3,0.3-0.4c0,0,0-0.1,0-0.1c0,0,0-0.1,0-0.1c0,0,0-0.1-0.1-0.1c0,0-0.1-0.1-0.1-0.1
			c-0.1,0-0.2-0.1-0.3,0c0,0-0.1,0-0.1,0c-0.1,0-0.1,0.1-0.1,0.1c-0.1,0.1-0.2,0.3-0.3,0.4c0,0,0,0.1,0,0.1c0,0,0,0.1,0,0.1
			c0,0,0,0.1,0.1,0.1c0,0,0.1,0.1,0.1,0.1c0.1,0,0.2,0.1,0.3,0c0,0,0.1,0,0.1,0C91,94.1,91.1,94,91.1,94L91.1,94z"/>
	</g>
</g>
<g>
	<g>
		<path class="st1" d="M116.4,96.5c0.1,0,0.2-0.1,0.2-0.1c0,0,0.1,0,0.1,0c0.1-0.1-0.1,0,0.1,0c0.2-0.1,0.3-0.1,0.5-0.1
			c-0.1,0,0,0,0.1,0c0,0,0.1,0,0.1,0c0,0,0.1,0,0.1,0c-0.1,0,0,0,0,0c0.1,0,0.1,0,0.2,0.1c0,0,0,0,0,0c0,0,0,0,0.1,0
			c0,0,0.1,0,0.1,0c0.1,0,0,0,0,0c0,0,0,0,0.1,0.1c0,0,0,0,0,0c0,0,0,0,0,0c0,0,0.1,0.1,0.1,0.1c0,0,0-0.1,0,0c0,0,0,0,0,0
			c0,0.1,0,0,0,0c0,0,0,0.1,0,0.1c0,0.1,0-0.1,0,0c0,0,0,0.1,0,0.1c0,0,0,0,0,0c0,0,0,0,0,0c0,0,0,0.1,0,0.1c0,0,0,0,0,0
			c0,0,0,0,0,0c0,0,0,0.1-0.1,0.1c0,0,0.1-0.1,0,0c-0.1,0,0.1,0,0,0c-0.1,0,0,0,0,0c-0.2,0-0.4,0.2-0.4,0.4c0,0.2,0.2,0.4,0.4,0.4
			c0.3,0,0.6-0.2,0.7-0.5c0.1-0.3,0.2-0.6,0.1-0.9c-0.2-0.6-0.9-0.9-1.6-0.8c-0.4,0.1-0.8,0.2-1.2,0.4c-0.2,0.1-0.2,0.4-0.1,0.5
			C116,96.5,116.2,96.6,116.4,96.5L116.4,96.5z"/>
	</g>
</g>
<g>
	<g>
		<path class="st1" d="M91.4,105.4c0.5,1.4,0.9,2.8,1.5,4.1c0.4,1,1,2,2,2.5c2.6,1.2,4.8-1.8,6.3-3.5c-0.4-0.1-0.8-0.1-1.2-0.2
			c1.3,1.9,2.9,5.4,5.7,5.1c2.8-0.3,4.3-3.8,5.6-5.8c0.5-0.8-0.8-1.6-1.3-0.8c-0.6,1-1.2,1.9-1.8,2.9c-0.6,0.9-1.3,2-2.4,2.2
			c-1.1,0.3-2-0.7-2.6-1.5c-0.7-0.9-1.3-1.9-1.9-2.8c-0.3-0.4-0.8-0.5-1.2-0.2c-1,1.1-3.1,4.4-4.9,3c-0.7-0.5-1-1.4-1.3-2.2
			c-0.4-1.1-0.7-2.1-1.1-3.2C92.6,104.1,91.1,104.5,91.4,105.4L91.4,105.4z"/>
	</g>
</g>
<g>
	<g>
		<path class="st1" d="M124.3,102.8c4.5-0.8,9.1-1.1,13.6-0.8c1,0.1,1-1.4,0-1.5c-4.7-0.3-9.4,0-14,0.9
			C123,101.5,123.4,102.9,124.3,102.8L124.3,102.8z"/>
	</g>
</g>
<g>
	<g>
		<path class="st1" d="M125,106.9c3.4,0.6,6.9,1.1,10.3,1.7c0.9,0.2,1.4-1.3,0.4-1.4c-3.4-0.6-6.9-1.1-10.3-1.7
			C124.5,105.3,124.1,106.8,125,106.9L125,106.9z"/>
	</g>
</g>
<g>
	<g>
		<path class="st1" d="M83.5,99.7c-4.7-2-9.7-3.5-14.7-4.4c-0.1,0.5-0.1,1-0.2,1.5c0.2,0,0.3,0,0.5,0.1c1,0.1,0.9-1.4,0-1.5
			c-0.2,0-0.3,0-0.5-0.1c-0.8-0.1-1,1.3-0.2,1.5c4.9,0.9,9.8,2.3,14.4,4.3C83.7,101.3,84.4,100,83.5,99.7L83.5,99.7z"/>
	</g>
</g>
<g>
	<g>
		<path class="st1" d="M79.8,105.4c-3,0-6,0-8.9,0c-1,0-1,1.5,0,1.5c3,0,6,0,8.9,0C80.8,106.9,80.8,105.4,79.8,105.4L79.8,105.4z"/>
	</g>
</g>
<path class="st2" d="M99.5,129.6"/>
<path class="st2" d="M99.5,129.6"/>
<g>
	<g>
		<g>
			<path class="st1" d="M149,140.8c6.3-14.6,2.4-30.2-3-44.4c-1.5-4-3.2-8-4.8-12c-0.7-1.8-3.6-1-2.9,0.8c5.4,13.3,11.9,27.3,11,42
				c-0.3,4.2-1.2,8.3-2.8,12.1C145.6,141.1,148.2,142.6,149,140.8L149,140.8z"/>
		</g>
	</g>
</g>
<g>
	<g>
		<g>
			<path class="st1" d="M38.7,139.8c-8-16.9-0.7-35.4,8.3-50.2c2.6-4.3,5.5-8.5,8.5-12.6c1.1-1.6-1.5-3.1-2.6-1.5
				c-5.6,7.7-10.9,15.7-14.8,24.4c-3.7,8.2-6.4,17.2-5.9,26.3c0.3,5.3,1.6,10.4,3.9,15.1C37,143,39.5,141.5,38.7,139.8L38.7,139.8z"
				/>
		</g>
	</g>
</g>
<g>
	<path class="st3" d="M154.4,135.6c-2.2-2.7-6.4-2.4-9.6-2.4c-8.6,0-17.2,1.6-25.9,1c-4.3-0.3-8.5-1.3-12.8-1.7
		c-4.3-0.4-8.7-0.1-13,0.3c-10.1,0.8-20.1,1.5-30.2,2c-5,0.3-10.1,0.6-15.1,0.8c-2.5,0.1-5,0.2-7.6,0.3c-2.2,0.1-4.4,0.2-6.3-1
		c-2.4-1.5-4.5,2.2-2.3,3.7c0,2.8,1.5,5.3,4.2,6.4c1.8,0.7,3.6,0.6,5.5,0.4c2.3-0.2,4.7-0.4,7-0.7c4.3-0.4,7.5,0.5,11.8-0.1
		c4.4-0.6,9.2,0.4,13.7,0.5c4.3,0.1,9.1-1.9,13.4-1.4c4.4,0.5,8.8,0.4,13.2,0.4c8.7,0,17.5-0.1,26.2-0.5c4.4-0.2,8.8-0.6,13.1-0.8
		c2-0.1,3.9,0,5.9,0.4c1.9,0.4,3.9,0.8,5.8,0.1C154.7,142.4,156.8,138.5,154.4,135.6z"/>
	<g>
		<g>
			<path class="st1" d="M32.2,136.7c0.1-0.7-0.5-1.5-1.3-1.7c-0.7-0.2-1.4,0-1.9,0.6c-0.8,1-0.3,2.3-0.1,3.5
				c0.4,1.9,0.7,3.9,1.1,5.8c0.1,0.8,1.1,1.3,1.8,1c0.8-0.3,1.2-1,1-1.8c-0.2-1.3-0.5-2.6-0.7-3.9c-0.1-0.6-0.2-1.2-0.3-1.9
				c-0.1-0.3-0.1-0.6-0.2-0.9c0-0.2-0.1-0.4-0.1-0.5c0-0.1,0-0.1,0,0.1c0-0.4-0.1-0.2-0.3,0.6c-0.2,0.1-0.4,0.3-0.7,0.4
				c-0.4,0.1-0.7,0-1.1-0.3c-0.1-0.2-0.3-0.4-0.4-0.7c0-0.1,0-0.2,0-0.3c-0.1,0.8,0.8,1.5,1.5,1.5C31.6,138.2,32.1,137.6,32.2,136.7
				L32.2,136.7z"/>
		</g>
	</g>
	<g>
		<g>
			<path class="st1" d="M32,146.7c31.7-0.4,63.3-0.7,95-1.5c9-0.2,17.9-0.4,26.9-0.7c1.9-0.1,1.9-3.1,0-3
				c-31.6,0.9-63.3,1.4-94.9,1.8c-9,0.1-17.9,0.2-26.9,0.3C30,143.8,30,146.8,32,146.7L32,146.7z"/>
		</g>
	</g>
	<g>
		<g>
			<path class="st1" d="M30.3,138c15.9-1.2,31.9-2.1,47.8-2.7c16.2-0.6,32.4-0.9,48.6-0.7c9,0.1,17.9,0.3,26.9,0.6
				c1.9,0.1,1.9-2.9,0-3c-16-0.6-31.9-0.7-47.9-0.5c-16.2,0.2-32.4,0.8-48.5,1.6c-9,0.5-17.9,1.1-26.9,1.8
				C28.3,135.1,28.3,138.1,30.3,138L30.3,138z"/>
		</g>
	</g>
	<g>
		<g>
			<path class="st1" d="M155.6,142.5c0-2.9,0-5.8,0-8.6c0-0.8-0.7-1.5-1.5-1.5c-0.8,0-1.5,0.7-1.5,1.5c0,2.9,0,5.8,0,8.6
				c0,0.8,0.7,1.5,1.5,1.5C154.9,144,155.6,143.3,155.6,142.5L155.6,142.5z"/>
		</g>
	</g>
</g>
<g>
	<path class="st4" d="M73.7,119.9c-3-2.5-6.7-3.7-10.6-4.3c-1.9-0.3-4.4-1.5-6.3-2.3c-1.9-0.7-3.3-2.2-5.4-2.4c-1-0.1-2,0-2.9,0.6
		c-1,0.6-1.4,1.5-2.2,2.3c-1,1-2.4,1.3-3.6,1.9c-0.4-0.1-0.8,0-1.2,0.2c-6,2.6-11.5,7.4-12.1,14.3c-0.5,6.1,4.3,12.2,10.7,11.7
		c1.2-0.1,2.1-0.9,2.2-2.2c0.2-2.3-1.5-3.2-2.6-4.9c-1-1.5-1.3-3.9,0.5-4.9c1.8-1.1,4,0.9,5.4,2c1.6,1.3,3.2,2.9,5.1,3.8
		c4.1,2,8.4-1.7,12.3-2.8c1.7-0.5,3.6-0.6,5.2,0.1c1.7,0.7,2.2,2.6,3.7,3.6c3.8,2.5,6.2-3.3,6.5-6.1
		C78.8,126.2,76.9,122.5,73.7,119.9z"/>
	<g>
		<g>
			<path class="st5" d="M42.9,139.6c0-2.1-1.3-3.6-2.4-5.2c-0.5-0.8-1.1-1.7-0.9-2.7c0.2-1.2,1.4-1.7,2.5-1.7c2.6,0.1,4.2,2.1,6,3.8
				c1.8,1.7,3.9,2.9,6.5,2.5c2.9-0.5,5.2-2.4,7.8-3.7c2.2-1.1,6-1.6,7,1.3c0.6,1.7,0.6,4.4,3.1,4.4c2.2,0,4.2-2.2,5.3-3.9
				c2.5-4.1,2-9.3-1.3-12.8c-3.7-4-9.2-5.2-14.1-7.1c-1.3-0.5-2.6-1.1-3.9-1.8c-1.3-0.7-2.3-1.8-3.6-2.6c-2.5-1.4-5.1,0.8-7.3,1.8
				c-5.2,2.5-10.7,5.1-14.4,9.8c-3.4,4.3-4.9,10.3-1.6,15.2c1.4,2.1,3.5,3.8,6.1,4.2c1.2,0.2,5.1,0.4,4.9-1.7c-0.1-1-1.6-1-1.5,0
				c0,0.1-1.8,0.3-2.2,0.3c-1.2,0-2.3-0.4-3.4-1.1c-2-1.2-3.4-3.3-4-5.5c-1.3-4.9,1.6-9.8,5.1-13c4.1-3.8,9.5-5.8,14.5-8.3
				c0.6-0.3,1.3-0.8,2-0.8c0.8,0,1.6,0.7,2.2,1.1c1,0.8,1.9,1.5,3,2c2.2,1.2,4.5,2,6.8,2.8c4.5,1.6,9.9,3.5,12.1,8.1
				c1,2.1,0.9,4.6,0.1,6.7c-0.4,1-1,2-1.7,2.9c-0.7,0.8-2.3,2.3-3.5,1.8c-1-0.4-1-1.8-1.2-2.7c-0.2-0.9-0.6-1.7-1.3-2.3
				c-1.4-1.3-3.4-1.7-5.2-1.4c-4.9,0.8-9.6,7.2-14.6,3.2c-1.8-1.5-3.2-3.5-5.4-4.4c-1.6-0.7-3.8-0.9-5.3,0.3
				c-3.9,3.2,2.2,6.9,2.2,10.2C41.4,140.5,42.9,140.5,42.9,139.6L42.9,139.6z"/>
		</g>
	</g>
	<g>
		<g>
			<path class="st5" d="M30.8,129.2c2.1,1.9,4.8,3.1,7.6,3.4c0.4,0,0.8-0.4,0.8-0.8c0-0.4-0.3-0.7-0.8-0.8c-2.4-0.3-4.7-1.3-6.5-3
				C31.1,127.5,30.1,128.5,30.8,129.2L30.8,129.2z"/>
		</g>
	</g>
	<g>
		<g>
			<path class="st5" d="M37.2,119.8c1.9,2.7,2.9,5.9,3.1,9.2c0,1,1.5,1,1.5,0c-0.2-3.6-1.3-7-3.3-10C38,118.3,36.7,119,37.2,119.8
				L37.2,119.8z"/>
		</g>
	</g>
	<g>
		<g>
			<path class="st5" d="M45,114.5c-0.2,5.9,0.5,11.8,2.1,17.4c0.3,0.9,1.7,0.5,1.4-0.4c-1.5-5.6-2.2-11.3-2-17
				C46.6,113.6,45.1,113.6,45,114.5L45,114.5z"/>
		</g>
	</g>
	<g>
		<g>
			<path class="st5" d="M53.4,111.4c-0.3,4-0.2,8,0.2,11.9c0.2,1.9,0.4,3.7,0.8,5.6c0.2,1,0.4,2,0.6,3c0.2,0.8,0.5,1.6,0.7,2.4
				c0.1-0.2,0.1-0.5,0.2-0.7c0,0-0.1,0.1-0.1,0.1c0.2-0.1,0.5-0.1,0.7-0.2c0,0,0.1,0,0.1,0.1c-0.1,0.4-0.1,0.8-0.2,1.2
				c0,0,0,0,0.1,0c0.8-0.5,0.1-1.8-0.8-1.3c0,0,0,0-0.1,0c-0.4,0.3-0.5,0.8-0.2,1.2c0.4,0.4,0.9,0.5,1.3,0.1c0.6-0.5,0.2-1.1,0-1.7
				c-0.8-2.3-1.1-4.9-1.4-7.3c-0.6-4.7-0.7-9.5-0.4-14.3C54.9,110.4,53.4,110.4,53.4,111.4L53.4,111.4z"/>
		</g>
	</g>
	<g>
		<g>
			<path class="st5" d="M59,115.1c1.6,5.5,2,11.3,0.9,16.9c-0.2,0.9,1.3,1.3,1.4,0.4c1.1-5.9,0.8-12-0.9-17.7
				C60.2,113.7,58.8,114.1,59,115.1L59,115.1z"/>
		</g>
	</g>
	<g>
		<g>
			<path class="st5" d="M66.3,129.9c2-4.5,1.3-9.8-1.9-13.6c-0.6-0.7-1.7,0.3-1.1,1.1c2.7,3.2,3.3,7.9,1.6,11.7
				C64.6,130,65.9,130.8,66.3,129.9L66.3,129.9z"/>
		</g>
	</g>
	<g>
		<g>
			<path class="st5" d="M70.3,131.6c2.8-2.9,3.8-7.3,2.4-11.1c-0.3-0.9-1.8-0.5-1.4,0.4c1.2,3.3,0.4,7.1-2,9.6
				C68.6,131.2,69.6,132.3,70.3,131.6L70.3,131.6z"/>
		</g>
	</g>
</g>
<g>
	<path class="st3" d="M108.8,121.1c-0.3-1.8-0.3-4.1-2.4-4.7c-2.4-0.7-5.1-1-7.6-1.5c-0.2,0-0.4,0-0.6,0c-1.2-0.2-2.3,0.2-3.4,0.9
		c-0.5,0.3-1.1,0.7-1.6,1c-0.6,0.3-1.3,0.3-1.9,0.5c-3.4,1.1-2.3,5.1-2,7.8c0.2,1.7,0.4,3.4,0.7,5.2c0.2,1.7,0.3,3.6,0.9,5.2
		c1,2.6,3.8,3.2,6.3,3.3c4,0.1,8.1-0.4,11.9-1.5c0.5-0.1,0.8-0.6,0.8-1.1C110.4,131.1,109.7,126,108.8,121.1z"/>
	<g>
		<g>
			<path class="st1" d="M87.7,117.9c-2.1,4.5,6.2,4.6,8.7,4.6c2.6,0,5.1-0.1,7.6-0.3c1.9-0.1,4.4,0,5.7-1.6c2.7-3.3-3.4-5.6-5.8-6
				c-1.5-0.3-3.1-0.2-4.6-0.2c-1.5,0-2.8,0-4.2,0.2C92.6,115,89.3,115.5,87.7,117.9c-0.5,0.8,0.8,1.6,1.3,0.8c0.9-1.4,3-2,4.5-2.3
				c2.3-0.5,4.4-0.5,6.6-0.5c2.6,0,4.9,0.3,7.3,1.5c0.7,0.4,1.6,0.9,1.4,1.8c-0.2,1-1.6,1.2-2.5,1.3c-1.8,0.2-3.7,0.3-5.6,0.4
				c-2.1,0.1-4.2,0.1-6.4,0c-1,0-6.3-0.3-5.4-2.3C89.4,117.8,88.1,117,87.7,117.9z"/>
		</g>
	</g>
	<g>
		<g>
			<path class="st1" d="M87.2,119.3c0.6,4.3,1.3,8.6,1.9,12.9c0.3,1.7,0.2,3.7,1.4,5.1c0.9,1,2.2,1.6,3.5,1.9
				c3.5,0.9,7.4,0.7,10.9-0.1c1.8-0.4,3.5-0.9,5.2-1.6c0.8-0.3,1.3-0.5,1.6-1.4c0.3-1,0.3-2,0.2-2.9c-0.2-4.8-0.9-9.6-1.4-14.4
				c-0.1-1-1.6-1-1.5,0c0.5,4.7,1.1,9.4,1.4,14.2c0,0.6,0.1,1.1,0,1.7c-0.1,0.8,0,1-0.7,1.3c-1,0.5-2.2,0.8-3.2,1.2
				c-2.1,0.6-4.2,0.9-6.4,1c-2,0.1-4.1,0-6-0.5c-0.8-0.2-1.7-0.6-2.3-1.2c-0.8-0.8-0.8-2-1-3c-0.7-4.8-1.4-9.7-2.1-14.5
				C88.5,117.9,87,118.3,87.2,119.3L87.2,119.3z"/>
		</g>
	</g>
	<path class="st6" d="M89.8,108.5"/>
	<g>
		<g>
			<g>
				<path class="st7" d="M94.9,126.8c-0.5,1-0.8,2-1.1,3.1c-0.1,0.4-0.2,0.9-0.3,1.3c0,0.2-0.2,0.5-0.1,0.7c0.1,0.2,0.2,0.3,0.5,0.3
					c0.1,0,0.2-0.1,0.2-0.2c0.2-0.4-0.4-0.8-0.6-0.4c0,0,0,0,0,0c0.1-0.1,0.1-0.1,0.2-0.2c0,0,0,0,0,0c0.2,0.1,0.3,0.2,0.5,0.3
					c0,0,0,0.2,0,0.1c0,0,0-0.1,0-0.1c0-0.1,0.1-0.3,0.1-0.4c0.1-0.4,0.2-0.8,0.3-1.3c0.3-1,0.6-2,1-2.9
					C95.8,126.7,95.1,126.4,94.9,126.8L94.9,126.8z"/>
			</g>
		</g>
		<g>
			<g>
				<path class="st7" d="M94.9,127.2c0.4,0.7,0.8,1.4,1.1,2.2c0.2,0.4,0.4,0.7,0.5,1.1c0.1,0.2,0.2,0.4,0.3,0.5
					c0.1,0.2,0.2,0.4,0.2,0.6c0-0.1,0-0.1,0-0.2c0,0,0,0,0,0.1c0-0.1,0.1-0.1,0.1-0.2c0,0,0,0,0,0c0.1,0,0.1,0,0.2-0.1c0,0,0,0,0,0
					c0.1,0,0.1,0,0.2,0.1c0,0,0,0,0,0c0,0,0.1,0.1,0.1,0.1c0,0,0,0,0,0c-0.2-0.4-0.9-0.1-0.6,0.4c0.1,0.2,0.4,0.3,0.6,0.2
					c0.3-0.1,0.3-0.4,0.2-0.7c-0.2-0.5-0.5-1-0.7-1.5c-0.5-1-1-1.9-1.5-2.9C95.4,126.4,94.7,126.8,94.9,127.2L94.9,127.2z"/>
			</g>
		</g>
		<g>
			<g>
				<path class="st7" d="M94.2,130.6c0.9,0.1,1.8,0,2.6-0.3c0.2-0.1,0.2-0.4,0.1-0.5c-0.1-0.2-0.3-0.2-0.5-0.1c0,0,0,0,0,0
					c0,0-0.1,0-0.1,0c0,0-0.1,0-0.1,0c-0.1,0-0.2,0.1-0.3,0.1c-0.1,0-0.2,0-0.2,0.1c-0.1,0-0.1,0-0.2,0c0,0-0.1,0-0.1,0
					c-0.3,0-0.8,0-1.1,0c-0.2,0-0.4,0-0.5,0.3C93.9,130.3,94,130.6,94.2,130.6L94.2,130.6z"/>
			</g>
		</g>
		<g>
			<g>
				<path class="st7" d="M100.8,127.6c0.6,0.4,1,1.1,0.9,1.9c-0.1,0.7-0.6,1.3-1.3,1.5c-0.4,0.1-0.8,0.1-1.1-0.1
					c-0.3-0.2-0.5-0.6-0.6-0.9c-0.2-0.7-0.3-1.6,0.3-2.1c0.2-0.2,0.6-0.4,0.9-0.4C100.3,127.4,100.6,127.4,100.8,127.6
					c0.3,0.4,0.8-0.1,0.5-0.5c-0.6-0.7-1.8-0.5-2.5-0.1c-0.9,0.6-1.1,1.8-0.9,2.8c0.2,1,1,2.1,2.1,2c1.1-0.1,2-0.9,2.3-1.9
					c0.4-1.1-0.2-2.4-1.2-3C100.8,126.7,100.4,127.4,100.8,127.6L100.8,127.6z"/>
			</g>
		</g>
		<g>
			<g>
				<path class="st7" d="M106.2,127.3c-1.3-0.7-3.1,0-3.5,1.6c-0.2,0.7,0,1.5,0.5,2.1c0.5,0.6,1.2,0.9,1.9,1c0.4,0,0.9,0,1.2-0.2
					c0.2-0.1,0.4-0.4,0.3-0.7c-0.1-0.2-0.3-0.4-0.5-0.4c-0.5,0-0.5,0.8,0,0.8c-0.1,0-0.1-0.3-0.2-0.3c0,0-0.1,0-0.1,0
					c-0.1,0-0.1,0-0.2,0c-0.1,0-0.2,0-0.4,0c-0.2,0-0.5,0-0.7-0.1c-0.5-0.1-0.9-0.4-1.1-0.9c-0.5-0.8-0.1-2,0.8-2.4
					c0.5-0.2,1-0.2,1.4,0C106.2,128.1,106.6,127.5,106.2,127.3L106.2,127.3z"/>
			</g>
		</g>
	</g>
</g>
<g>
	<path class="st8" d="M118.6,132c1.5,0.1,3.8,0.2,4.8-1.2c0.9-1.3,0.3-3.7,0.1-5.2c-0.1-1.1-0.5-2.6-0.1-3.6
		c0.5-1.1,1.6-1.3,2.6-1.5c7-1.2,14.1-2.8,21.1-3.4c0.2-0.2,0.4-0.3,0.8-0.3c1.5-0.1,3-0.1,4.4-0.2c0.5,0,1,0.6,0.9,1.1
		c-1.2,5.6-1.2,11.1-0.8,16.9c0.1,1.7,0.1,3.6-1.2,4.9c-1.4,1.5-3.4,1.6-5.3,1.6c-5.6,0-11.1-0.9-16.6-0.3c-2.4,0.3-3.9,0-5.7-1.5
		c-2.1-1.7-4.1-3.6-5.9-5.6C117.1,133,117.8,132,118.6,132z"/>
	<g>
		<g>
			<path class="st1" d="M152.6,115.9c0.1,8.2-0.5,16.4-1.1,24.6c-0.1,1,1.4,1,1.5,0c0.7-8.2,1.2-16.4,1.1-24.6
				C154.1,115,152.6,115,152.6,115.9L152.6,115.9z"/>
		</g>
	</g>
	<g>
		<g>
			<path class="st1" d="M152.3,139.8c-8.8,0.5-17.6,0.8-26.4,0.7c-1,0-1,1.5,0,1.5c8.8,0.1,17.6-0.2,26.4-0.7
				C153.2,141.3,153.2,139.8,152.3,139.8L152.3,139.8z"/>
		</g>
	</g>
	<g>
		<g>
			<path class="st1" d="M126,140.8c-1.1-6.5-1.9-13.1-2.6-19.6c-0.1-1-1.6-1-1.5,0c0.7,6.7,1.6,13.4,2.7,20
				C124.7,142.2,126.2,141.8,126,140.8L126,140.8z"/>
		</g>
	</g>
	<g>
		<g>
			<path class="st1" d="M152.6,115.2c-9.9,1.7-19.8,3.3-29.6,5.1c-0.9,0.2-0.5,1.6,0.4,1.4c9.9-1.7,19.8-3.3,29.6-5.1
				C154,116.5,153.6,115.1,152.6,115.2L152.6,115.2z"/>
		</g>
	</g>
	<g>
		<g>
			<g>
				<path class="st1" d="M125.6,140.6c-3.4-1.8-5.3-5.5-8.5-7.6c-0.1,0.5-0.3,0.9-0.4,1.4c0.1,0,0.2,0,0.3,0
					c0.8-0.1,1.1-1.3,0.2-1.5c-0.1,0-0.2,0-0.2-0.2c-0.2,0.2-0.5,0.4-0.7,0.6c0.2,0,0.5-0.1,0.7-0.1c0.4,0,0.7-0.3,0.7-0.7
					c0-0.3-0.2-0.7-0.5-0.8c-0.1,0-0.2,0-0.3-0.1c0,0.5,0,1,0,1.4c2.1-0.8,4.4-1.4,6.6-1.6c1-0.1,1-1.6,0-1.5
					c-2.4,0.2-4.8,0.7-7,1.6c-0.6,0.2-0.8,1.3,0,1.4c0.1,0,0.2,0,0.3,0.1c0.1-0.5,0.1-1,0.2-1.5c-0.2,0-0.5,0.1-0.7,0.1
					c-0.3,0-0.6,0.2-0.7,0.6c-0.2,0.9,0.3,1.8,1.2,2c0.1-0.5,0.1-1,0.2-1.5c-0.1,0-0.2,0-0.3,0c-0.7,0.1-1,1-0.4,1.4
					c3.2,2.1,5.1,5.7,8.5,7.6C125.7,142.3,126.4,141,125.6,140.6L125.6,140.6z"/>
			</g>
		</g>
	</g>
	<g>
		<path class="st9" d="M136.4,127.9c0.3,0.6,0.6,1.2,0.9,1.8c0.5,0.8,1.1,1.7,2,2c0.8,0.3,1.8,0,2.5-0.6c0.7-0.6,1.1-1.4,1.1-2.3
			c0-0.4,0-0.9-0.4-1.1c-0.2-0.1-0.4-0.1-0.6,0c-1.4,0.2-2.5,1.1-3.5,2.1c-0.9,1-1.7,2.2-2.6,3.2c-0.2-1.6,0-3.2,0.5-4.7"/>
		<g>
			<path class="st1" d="M136,128.1c0.6,1.3,1.3,2.8,2.5,3.6c1.2,0.8,2.8,0.5,3.7-0.6c0.5-0.5,0.8-1.2,0.9-1.9
				c0.1-0.6,0.2-1.3-0.3-1.7c-0.5-0.5-1.4-0.2-2,0c-0.7,0.3-1.3,0.6-1.8,1.1c-1.4,1.1-2.3,2.7-3.5,4.1c0.2,0.1,0.4,0.1,0.6,0.2
				c-0.2-1.5,0-3.1,0.5-4.5C137,127.9,136.2,127.7,136,128.1c-0.6,1.6-0.7,3.3-0.5,5c0,0.3,0.5,0.4,0.6,0.2c1.6-1.8,2.9-4.4,5.3-5.1
				c0.2-0.1,0.7-0.2,0.9-0.1c0.2,0.1,0.2,0.4,0.1,0.6c0,0.6-0.2,1.1-0.6,1.6c-0.6,1-2,1.4-3,0.8c-0.6-0.3-1-0.9-1.3-1.4
				c-0.4-0.6-0.7-1.3-1-2C136.5,127.3,135.8,127.6,136,128.1L136,128.1z"/>
		</g>
	</g>
</g>
</svg>
