<?xml version="1.0" encoding="utf-8"?>
<!-- Generator: Adobe Illustrator 26.3.1, SVG Export Plug-In . SVG Version: 6.00 Build 0)  -->
<svg version="1.1" id="Calque_1" xmlns="http://www.w3.org/2000/svg" xmlns:xlink="http://www.w3.org/1999/xlink" x="0px" y="0px"
	 viewBox="0 0 200 200" style="enable-background:new 0 0 200 200;" xml:space="preserve">
<style type="text/css">
	.st0{fill:#666666;}
	.st1{fill:#E7F4DF;}
	.st2{fill:#CCCCCC;}
	.st3{fill:#79A2D8;}
	.st4{fill:#CCDBED;}
	.st5{fill:#99FF99;}
	.st6{fill:#FFCC99;}
	.st7{fill:#FD5A5C;}
	.st8{fill:#FD1015;}
	.st9{fill:#FFFF66;}
</style>
<g>
	<g>
		<path class="st0" d="M143.2,163c3.9,1.1,6.5,3.6,8.7,7s4.1,7,6.9,9.9c2.8,2.9,6.4,4.9,10.4,5.7c2.1,0.4,4.3,0.5,6.4-0.1
			c4-1.3,6.8-5.3,7.2-9.5c0.4-4.2-1.5-8.4-4.5-11.3c-3-2.9-4.9-4.3-9.5-6.2c1.6-0.6,3.2-4.1,3.1-4.5c-0.2-0.7-1.8,0.1-2.5,0.1
			c-4.6,0.2-8.9-2.3-13.1-4.2c-4.2-1.9-8.1-1.4-12.6-0.5"/>
		<g>
			<path class="st1" d="M142.8,164.4c5.6,1.7,8.1,6.8,11,11.4c3.2,4.9,7.3,8.9,13,10.7c5.4,1.7,11.3,0.9,14.8-3.8
				c3.4-4.5,3.2-10.5,0.5-15.2c-2.8-4.9-7.7-8.2-12.8-10.3c0,0.9,0,1.7,0,2.6c1.2-0.6,2-1.8,2.7-2.9c0.5-0.8,1.2-1.9,1.1-2.8
				c0-1.7-1.7-2-3-1.7c-1.7,0.3-3.2,0.3-4.9-0.2c-3.8-1-7.1-3.4-10.9-4.4c-3.7-1-7.6-0.5-11.3,0.2c-1.9,0.4-1.1,3.2,0.8,2.9
				c3.1-0.6,6.2-1.1,9.3-0.3c3.1,0.8,5.9,2.6,8.9,3.7c2.7,1,5.7,1.8,8.5,1.1c0.7-0.2,0.7,0.1,0.1-0.9c-1-1.5-0.3-0.8-0.5-0.5
				c-0.2,0.2-0.3,0.7-0.5,1c-0.5,0.8-1,1.8-1.8,2.2c-0.9,0.5-1,2.2,0,2.6c4,1.7,7.7,3.9,10.5,7.4c3,3.9,4,9.3,1.1,13.5
				c-3.1,4.6-8.8,4.4-13.4,2.5c-5.2-2.1-8.2-6.4-11-11c-2.9-4.6-6-9-11.5-10.6C141.7,161,140.9,163.9,142.8,164.4L142.8,164.4z"/>
		</g>
	</g>
	<g>
		<g>
			<path class="st1" d="M174.4,185.2c1.5-3.8,2.4-7.8,2.6-11.9c0.1-2.1,0.1-4.1-0.2-6.2c-0.1-0.9-0.2-1.9-0.4-2.8
				c-0.1-0.5-0.3-0.9-0.9-0.9c-0.5,0-0.5,0.7,0,0.8c0.5,0,0.7,4.8,0.7,5.4c0.1,1.7,0,3.3-0.1,5c-0.3,3.6-1.2,7-2.5,10.3
				C173.5,185.5,174.2,185.7,174.4,185.2L174.4,185.2z"/>
		</g>
	</g>
	<g>
		<g>
			<path class="st1" d="M169.8,185.5c0.9-1.2,1-3.1,1.2-4.6c0.3-2.6,0.4-5.3,0.4-7.9c0-2.8-0.1-5.5-0.4-8.3
				c-0.1-1.1-0.3-2.2-0.5-3.3c-0.1-0.6-0.3-1.8-0.9-2.1c-0.1-0.1-0.3-0.1-0.5,0.1c-0.2,0.2-0.2,0.3-0.1,0.5c0,0.2,0.2,0.3,0.4,0.3
				c0,0,0,0,0.1,0c0.5,0,0.5-0.7,0-0.8c0,0,0,0-0.1,0c0.1,0.1,0.2,0.2,0.4,0.3c0,0.1,0,0.1-0.1,0.2c-0.2,0-0.3,0-0.5,0.1
				c0.5,0.2,0.6,2,0.7,2.5c0.2,1.1,0.3,2.2,0.4,3.3c0.2,2.5,0.3,5.1,0.3,7.7c0,2.4-0.1,4.8-0.4,7.2c-0.2,1.4-0.2,3.3-1.1,4.4
				C168.8,185.5,169.5,185.9,169.8,185.5L169.8,185.5z"/>
		</g>
	</g>
	<g>
		<g>
			<path class="st1" d="M171.9,185.1c1.3-1.4,1.4-3.4,1.7-5.2c0.3-2.2,0.5-4.3,0.6-6.5c0.1-2.3,0-4.6-0.2-6.8
				c-0.1-1.1-0.3-2.1-0.5-3.2c-0.1-0.7-0.1-1.7-0.6-2.2c-0.1-0.1-0.2-0.1-0.4-0.1c0,0-0.1,0-0.1,0c-0.2,0.1-0.3,0.2-0.3,0.4
				c0,0,0,0.1,0,0.1c0,0.5,0.8,0.5,0.8,0c0,0,0-0.1,0-0.1c-0.1,0.1-0.2,0.2-0.3,0.4c-0.3-0.1-0.3,0-0.1,0.4c0,0.2,0.1,0.4,0.1,0.6
				c0.1,0.5,0.2,1,0.3,1.5c0.2,1,0.3,2,0.4,3c0.2,1.9,0.2,3.8,0.2,5.7c-0.1,1.9-0.2,3.8-0.5,5.7c-0.2,1.8-0.3,4.2-1.6,5.7
				C171,185,171.6,185.5,171.9,185.1L171.9,185.1z"/>
		</g>
	</g>
	<g>
		<g>
			<path class="st1" d="M167.8,185.4c1.5-6.9,1.1-14.3,0.5-21.2c-0.1-0.9-0.1-1.8-0.2-2.7c0-0.4-0.1-0.8-0.1-1.2
				c0-0.2-0.1-0.5-0.1-0.7c0-0.2,0-0.3-0.3-0.4c0-0.1,0.2-0.3,0.2-0.4c0-0.2,0-0.5-0.1-0.7c-0.1-0.6-0.2-3.4-1-3.6
				c-0.5-0.1-0.7,0.6-0.2,0.7c-0.3-0.1-0.2-0.2-0.1,0.1c0,0.1,0.1,0.2,0.1,0.3c0.1,0.4,0.2,0.8,0.2,1.2c0.1,0.4,0.1,0.8,0.2,1.1
				c0,0.2,0,0.4,0.1,0.5c0.1,0.3-0.1,0.3,0.2,0.1c-0.1,0.1-0.2,0.2-0.2,0.3c0.5,4.4,0.8,8.8,0.9,13.2c0.1,4.4,0.1,8.9-0.9,13.2
				C167,185.7,167.7,185.9,167.8,185.4L167.8,185.4z"/>
		</g>
	</g>
	<g>
		<g>
			<path class="st1" d="M165.9,183.1c1.1-5,0.4-10.2-0.1-15.2c-0.4-5.1-1-10.3-2.5-15.2c-0.1-0.4-0.6-0.3-0.7,0
				c-0.1,0.1-0.1,0.3-0.2,0.4c-0.2,0.5,0.5,0.6,0.7,0.2c0.1-0.1,0.1-0.3,0.2-0.4c-0.2,0-0.5,0-0.7,0c1.5,4.9,2,9.9,2.4,15
				c0.4,5,1.2,10.1,0.1,15C165.1,183.4,165.8,183.6,165.9,183.1L165.9,183.1z"/>
		</g>
	</g>
	<g>
		<g>
			<path class="st1" d="M163.8,182.7c0.2-5.7,0.1-11.4-0.5-17c-0.3-2.6-0.6-5.1-1-7.6c-0.2-1.4-0.5-2.7-0.9-4
				c-0.2-0.6-0.3-1.9-1-2.2c-0.2-0.1-0.4,0-0.5,0.1c-0.1,0.2-0.1,0.3-0.1,0.5c0.1,0.2,0.2,0.3,0.5,0.3c0,0,0,0,0.1,0
				c0.5-0.1,0.3-0.8-0.2-0.7c0,0,0,0-0.1,0c0.2,0.1,0.3,0.2,0.5,0.3c0,0,0,0.1,0,0.1c-0.2,0-0.3,0.1-0.5,0.1
				c0.3,0.2,0.6,1.4,0.7,1.8c0.2,0.6,0.3,1.2,0.5,1.8c0.3,1.2,0.5,2.4,0.7,3.6c0.4,2.6,0.7,5.2,0.9,7.8c0.4,5.1,0.5,10.2,0.3,15.3
				C163,183.2,163.8,183.2,163.8,182.7L163.8,182.7z"/>
		</g>
	</g>
	<g>
		<g>
			<path class="st1" d="M161.1,181.1c0.8-10.3-1.2-20.5-3.2-30.6c-0.1-0.3-0.5-0.4-0.7-0.1c-0.1,0.2-0.2,0.4-0.3,0.5
				c-0.2,0.4,0.4,0.8,0.6,0.4c0.1-0.2,0.2-0.4,0.3-0.5c-0.2,0-0.5-0.1-0.7-0.1c2,10,3.9,20.1,3.2,30.4
				C160.3,181.6,161,181.6,161.1,181.1L161.1,181.1z"/>
		</g>
	</g>
	<g>
		<g>
			<path class="st1" d="M159,178.1c0.3-4.9-0.5-9.9-1.3-14.7c-0.4-2.5-0.9-5-1.3-7.5c-0.4-2.2-0.7-4.4-1.7-6.5
				c-0.1-0.2-0.5-0.2-0.6,0c-0.1,0.2-0.2,0.3-0.3,0.5c-0.2,0.4,0.4,0.8,0.6,0.4c0.1-0.2,0.2-0.3,0.3-0.5c-0.2,0-0.4,0-0.6,0
				c1,2.1,1.3,4.5,1.7,6.8c0.4,2.4,0.8,4.7,1.3,7.1c0.9,4.8,1.6,9.6,1.3,14.5C158.2,178.6,158.9,178.6,159,178.1L159,178.1z"/>
		</g>
	</g>
	<g>
		<g>
			<path class="st1" d="M156.3,174.8c-0.1-4.8-0.2-9.5-0.8-14.3c-0.3-2.2-0.7-4.5-1.2-6.6c-0.3-1-0.6-2-0.9-3
				c-0.2-0.6-0.3-1.5-0.9-1.8c-0.1-0.1-0.3-0.1-0.5,0.1c-0.2,0.2-0.2,0.3-0.1,0.6c0,0.1,0.2,0.3,0.4,0.3c0,0,0.1,0,0.1,0
				c0.5,0,0.5-0.8,0-0.8c0,0-0.1,0-0.1,0c0.1,0.1,0.2,0.2,0.4,0.3c0,0.1,0,0.1-0.1,0.2c-0.2,0-0.3,0-0.5,0.1c0.5,0.2,0.9,2.5,1,3.1
				c0.3,0.9,0.5,1.8,0.7,2.7c0.5,2.2,0.8,4.5,1.1,6.7c0.4,4.2,0.5,8.4,0.6,12.6C155.6,175.3,156.3,175.3,156.3,174.8L156.3,174.8z"
				/>
		</g>
	</g>
	<g>
		<g>
			<path class="st1" d="M153.8,170.9c0-4.3,0.1-8.6-0.5-12.8c-0.2-1.8-0.6-3.6-1.2-5.3c-0.3-0.9-0.7-1.7-1.1-2.5
				c-0.2-0.4-0.5-1.3-1.1-1.4c-0.1,0-0.4,0-0.4,0.2c-0.1,0.2-0.1,0.3,0,0.5c0.1,0.2,0.3,0.2,0.5,0.1c0,0,0,0,0,0
				c0.4-0.2,0.1-0.8-0.4-0.6c0,0,0,0,0,0c0.2,0,0.3,0.1,0.5,0.1c0,0.1,0,0.2,0,0.3c-0.1,0.1-0.3,0.1-0.4,0.2c0.4,0.1,1,1.7,1.2,2.1
				c0.4,0.8,0.7,1.7,0.9,2.5c0.5,1.7,0.8,3.5,0.9,5.3c0.3,3.7,0.3,7.5,0.3,11.2C153,171.4,153.8,171.4,153.8,170.9L153.8,170.9z"/>
		</g>
	</g>
	<g>
		<g>
			<path class="st1" d="M151.8,168.2c-0.3-3.4-0.1-6.9-0.6-10.3c-0.5-3.2-1.5-6.2-3-9c-0.2-0.4-0.9,0-0.6,0.4c1.5,2.7,2.5,5.7,3,8.8
				c0.5,3.3,0.3,6.7,0.6,10.1C151.1,168.7,151.9,168.7,151.8,168.2L151.8,168.2z"/>
		</g>
	</g>
	<g>
		<g>
			<path class="st1" d="M150.1,166.4c-0.1-2.9-0.1-5.9-0.4-8.8c-0.3-2.6-1-5.1-2.3-7.4c-0.2-0.4-0.9,0-0.6,0.4c1.3,2.4,2,5,2.2,7.6
				c0.2,2.7,0.3,5.5,0.4,8.3C149.4,166.9,150.2,166.9,150.1,166.4L150.1,166.4z"/>
		</g>
	</g>
	<g>
		<g>
			<path class="st1" d="M147.2,163.7c0.3-3.1,0.6-6.2,0.4-9.3c-0.1-1.4-0.3-2.9-0.7-4.2c-0.1-0.4-0.2-1-0.7-1
				c-0.3,0-0.6,0.2-0.6,0.5c0,0.5,0.7,0.5,0.8,0c-0.4,0-0.5,0.2-0.3,0.5c0,0.1,0.1,0.3,0.1,0.4c0.1,0.3,0.2,0.6,0.2,0.9
				c0.1,0.5,0.2,1,0.3,1.6c0.2,1.2,0.2,2.5,0.2,3.7c0,2.4-0.2,4.7-0.5,7C146.4,164.2,147.2,164.2,147.2,163.7L147.2,163.7z"/>
		</g>
	</g>
	<g>
		<g>
			<path class="st1" d="M144.8,162.7c0.2-2.4,0.6-4.8,0.9-7.2c0.1-1.1,0.1-2.3,0.1-3.5c0-0.5-0.1-1-0.2-1.6
				c-0.1-0.4-0.1-0.9-0.4-1.1c-0.1-0.1-0.3,0-0.5,0.1c-0.1,0.1-0.2,0.2-0.1,0.4c0,0.2,0.1,0.3,0.3,0.4c0,0,0,0,0,0
				c0.5,0.1,0.7-0.6,0.2-0.7c0,0,0,0,0,0c0.1,0.1,0.2,0.2,0.3,0.4c0,0.1,0,0.1-0.1,0.2c-0.2,0-0.3,0-0.5,0.1c-0.1-0.1,0,0.4,0.1,0.5
				c0.1,0.3,0.1,0.7,0.1,1c0,0.5,0.1,1,0.1,1.5c0,1.1-0.1,2.1-0.2,3.2c-0.2,2.2-0.6,4.3-0.8,6.5
				C144.1,163.2,144.8,163.2,144.8,162.7L144.8,162.7z"/>
		</g>
	</g>
	<g>
		<g>
			<path class="st1" d="M176.5,184.7c2.5-5.5,3.8-11.5,3.7-17.5c0-0.2-0.2-0.4-0.4-0.4c-0.3,0-0.5,0.1-0.8,0.1c-0.5,0-0.5,0.8,0,0.8
				c0.3,0,0.5-0.1,0.8-0.1c-0.1-0.1-0.2-0.2-0.4-0.4c0.1,5.9-1.1,11.8-3.6,17.1C175.6,184.7,176.3,185.1,176.5,184.7L176.5,184.7z"
				/>
		</g>
	</g>
</g>
<g>
	<path class="st0" d="M159.8,121c0.1-1.3-1.1,0.9-2.6-4.2c-0.3-0.9,0.6-4.5-0.8-4.6c-2-0.1-4.4-6.9-6.5-6.9c0-0.1,0-0.2,0-0.3
		c-0.9-4.6-2.8-8.9-4.5-13.3c0.7-3.1,1.5-6.2,2-9.4c0.5-3.6,1.4-7.9-0.4-11.2c-0.7-1.4-2-2.6-3.5-3c-1.9-0.6-3.9,0-5.7,0.8
		c-3.5,1.6-6.9,3.8-10.2,5.9c-15.4-7.8-33.7-9.2-50.1-3.7c-1.4-1.2-2.8-2.4-4.3-3.4c-1.6-1.1-3.2-2-4.9-2.9
		c-1.8-0.9-3.9-1.8-5.9-1.1c-1.3,0.4-2.5,1.4-2.9,2.7c-0.2,0.7-0.3,1.4-0.4,2.1c-0.4,2.7-0.7,5.4-0.9,8.1c-0.1,2-0.2,4.2-0.1,6.2
		c-0.1,0.1-0.2,0.2-0.3,0.3c-3.6,5.4-7.9,10.6-10.2,16.7c-0.3,0.1-1.4-0.2-1.6-0.2c-0.7-0.1-1.5-0.1-2.2-0.1c-1.6,0-3.1,0.3-4.6,0.7
		c-2.8,0.8-5.5,2.6-5.5,5.9c0.1,2.9,1.9,5.6,3.4,8c1.7,2.6,3.6,5.1,4.8,8c0.1,0.3,0.3,0.6,0.6,0.8c-1.2,14.5-1.1,30.1,7.7,42.3
		c-0.1,0.3-0.2,0.5-0.3,0.8c-0.5,1.6-1.1,3.1-1.4,4.8c-0.3,1.7-0.5,3.6-0.3,5.3c0.2,1.7,1.5,2.7,3.1,3c3.4,0.7,6.8-0.6,9.7-2.2
		c0.9-0.5,1.8-1.1,2.7-1.7c16.3,7.1,36.3,11.3,53.2,4.1c0.1,0,0.3-0.1,0.4-0.2c0.8-0.5,2.1-0.2,3,0.1c1.3,0.4,2.3,1.1,3.5,1.8
		c2.7,1.7,6,4.2,9.3,2.8c3.1-1.3,4-5,3.9-8c-0.1-1-0.2-2-0.4-3.1c2.3-2.7,4.9-5.1,7-7.9c2.3-3.2,4.2-6.9,5.8-10.5
		c2.8-6.1,4.6-12.7,4.4-19.5c-0.1-3.6-0.7-7.2-1.6-10.7c1.8-1.9,3.5,2.4,5.1,0.2C159.1,122.4,159.6,123.8,159.8,121z"/>
</g>
<g>
	<g>
		<path class="st1" d="M63.4,175.1c16.5,7.2,36.9,11.7,54.1,4.2c1.8-0.8,0.2-3.4-1.5-2.6c-7.9,3.5-16.7,4-25.2,3
			c-8.9-1-17.7-3.6-25.9-7.2C63.1,171.8,61.6,174.3,63.4,175.1L63.4,175.1z"/>
	</g>
</g>
<g>
	<g>
		<path class="st1" d="M51,161.5c0.2,0.3-0.1,1.5-0.2,2c-0.2,0.9-0.4,1.7-0.7,2.5c-0.5,1.6-1.1,3.1-1.4,4.8
			c-0.3,1.7-0.5,3.6-0.3,5.3c0.2,1.7,1.5,2.7,3.1,3c3.4,0.7,6.8-0.6,9.7-2.2c3.1-1.8,6-3.9,8.6-6.3c1.4-1.3-0.7-3.4-2.1-2.1
			c-2.3,2.1-4.8,3.9-7.5,5.5c-2.4,1.4-5.4,2.9-8.3,2.2c-0.7-0.2-0.6-0.3-0.6-1c0-0.7,0.1-1.5,0.1-2.2c0.1-1.6,0.5-3.1,1-4.6
			c0.5-1.4,1-2.7,1.3-4.1c0.3-1.4,0.6-3.1-0.1-4.4C52.7,158.3,50.1,159.8,51,161.5L51,161.5z"/>
	</g>
</g>
<g>
	<g>
		<path class="st1" d="M117.5,179.3c0.8-0.5,2.1-0.2,3,0.1c1.3,0.4,2.3,1.1,3.5,1.8c2.7,1.7,6,4.2,9.3,2.8c3.1-1.3,4-5,3.9-8
			c-0.2-3.6-1.3-7.2-2-10.8c-0.4-1.9-3.3-1.1-2.9,0.8c0.4,1.8,0.8,3.6,1.1,5.3c0.3,1.5,0.7,2.9,0.8,4.4c0.1,2.2-0.4,6.1-3.5,5.5
			c-2.9-0.5-5.1-3-7.7-4.2c-2-0.9-5-1.7-7-0.4C114.3,177.7,115.8,180.3,117.5,179.3L117.5,179.3z"/>
	</g>
</g>
<g>
	<g>
		<path class="st1" d="M136.3,173.6c2.4-2.9,5.2-5.4,7.5-8.5c2.3-3.2,4.2-6.9,5.8-10.5c2.8-6.1,4.6-12.7,4.4-19.5
			c-0.1-3.9-0.8-7.8-1.8-11.6c-0.5-1.9-3.4-1.1-2.9,0.8c2.2,8,2.3,15.9-0.4,23.8c-1.5,4.4-3.6,8.5-5.9,12.5
			c-2.4,4.1-5.8,7.1-8.8,10.7C132.9,172.9,135.1,175,136.3,173.6L136.3,173.6z"/>
	</g>
</g>
<g>
	<g>
		<path class="st1" d="M147.1,106.5c3.3,3.5,7.4,6.6,9.9,10.7c0.6,1,1.3,2.3,1.2,3.5c-0.1,1.3-1,1.5-2.1,1.6
			c-3.3,0.2-6.6,0.2-9.9,0.1c-1.9-0.1-1.9,2.9,0,3c1.9,0.1,3.9,0.1,5.8,0.1c1.8,0,3.7,0,5.5-0.3c1.6-0.3,3-1.3,3.5-3
			c0.5-1.6,0.1-3.3-0.6-4.8c-1.1-2.6-3.1-4.8-5.1-6.8c-2-2.1-4.1-4-6.1-6.1C147.9,103,145.8,105.1,147.1,106.5L147.1,106.5z"/>
	</g>
</g>
<g>
	<g>
		<path class="st1" d="M53,163.9c-9.2-12.5-8.6-28.7-7.2-43.4c0.2-1.9-2.8-1.9-3,0c-1.4,15.2-1.9,32,7.6,44.9
			C51.6,167,54.2,165.5,53,163.9L53,163.9z"/>
	</g>
</g>
<g>
	<g>
		<path class="st1" d="M44.9,121.4c-1.1-2.6-2.6-5-4.2-7.4c-1.4-2.2-3.4-4.6-3.9-7.2c-0.5-2.9,3-3.7,5.2-4c1.4-0.2,2.9-0.2,4.3,0
			c1.3,0.2,2.4,0.1,3.5-0.8c1.5-1.3-0.7-3.4-2.1-2.1c-0.2,0.2-1.4-0.1-1.6-0.2c-0.7-0.1-1.5-0.1-2.2-0.1c-1.6,0-3.1,0.3-4.6,0.7
			c-2.8,0.8-5.5,2.6-5.5,5.9c0.1,2.9,1.9,5.6,3.4,8c1.7,2.6,3.6,5.1,4.8,8c0.3,0.8,1,1.3,1.8,1C44.6,123,45.2,122.1,44.9,121.4
			L44.9,121.4z"/>
	</g>
</g>
<g>
	<g>
		<path class="st1" d="M49.4,105.1c1.4-7.9,6.9-13.9,11.2-20.3c1.1-1.6-1.5-3.1-2.6-1.5c-4.4,6.7-10,12.9-11.5,21.1
			C46.1,106.2,49,107,49.4,105.1L49.4,105.1z"/>
	</g>
</g>
<g>
	<g>
		<path class="st1" d="M149.9,105c-1-4.7-2.9-9.1-4.6-13.6c-0.3-0.8-1-1.3-1.8-1c-0.7,0.2-1.3,1.1-1,1.8c1.7,4.5,3.6,8.9,4.6,13.6
			c0.2,0.8,1.1,1.3,1.8,1C149.7,106.6,150.1,105.8,149.9,105L149.9,105z"/>
	</g>
</g>
<g>
	<g>
		<path class="st1" d="M78.3,74.1c15.7-5.3,33.3-4.1,48,3.5c1.7,0.9,3.2-1.7,1.5-2.6c-15.5-7.9-33.9-9.3-50.3-3.8
			C75.7,71.8,76.5,74.7,78.3,74.1L78.3,74.1z"/>
	</g>
</g>
<g>
	<g>
		<g>
			<path class="st1" d="M61.6,85.2c-0.6-2.2-0.5-4.6-0.4-6.9c0.1-2.6,0.3-5.1,0.7-7.7c0.1-0.8,0.2-1.6,0.4-2.4
				c0-0.3,0.1-0.5,0.1-0.8c0-0.1,0.2-0.4,0.1-0.3c0.9-1.5,3.3-0.3,4.3,0.3c1.5,0.8,3,1.6,4.4,2.6c3.1,2,5.8,4.5,8.2,7.3
				c1.3,1.4,3.4-0.7,2.1-2.1c-2.5-2.8-5.2-5.3-8.3-7.4c-1.6-1.1-3.2-2-4.9-2.9c-1.8-0.9-3.9-1.8-5.9-1.1c-1.3,0.4-2.5,1.4-2.9,2.7
				c-0.2,0.7-0.3,1.4-0.4,2.1c-0.4,2.7-0.7,5.4-0.9,8.1C58.1,79.7,58,83,58.7,86C59.2,87.9,62.1,87.1,61.6,85.2L61.6,85.2z"/>
		</g>
	</g>
	<g>
		<g>
			<path class="st1" d="M145.3,92.2c0.8-3.3,1.6-6.5,2.1-9.9c0.5-3.6,1.4-7.9-0.4-11.2c-0.7-1.4-2-2.6-3.5-3c-1.9-0.6-3.9,0-5.7,0.8
				c-3.7,1.7-7.3,4-10.7,6.2c-1.2,0.8-0.8,2.7,0.8,2.8c0.7,0,1.3-0.2,1.8-0.7c1.5-1.2-0.6-3.3-2.1-2.1c0.1-0.1,0.2-0.1,0.3-0.2
				c0.3,0.9,0.5,1.9,0.8,2.8c2.9-1.9,5.8-3.7,8.9-5.3c1.4-0.7,3.1-1.8,4.8-1.5c1.2,0.2,2.1,1.4,2.4,2.6c0.5,1.7,0.3,3.5,0.1,5.2
				c-0.1,1.5-0.3,2.9-0.6,4.4c-0.5,2.8-1.2,5.6-1.9,8.4C142,93.3,144.9,94.1,145.3,92.2L145.3,92.2z"/>
		</g>
	</g>
	<g>
		<g>
			<path class="st1" d="M127.2,77.9c0.7,1.6,1.1,3.5,2.7,4.6c2.1,1.5,5.3,0.5,6.8-1.4c0.8-1.1,1.6-2.2,2.5-3.2
				c0.4-0.5,0.9-1,1.3-1.4c0.4-0.4,1-1,1.5-1c1.3,0,0.5,2.6,0.4,3.3c-0.2,1.6-0.3,3.2-0.4,4.8c-0.1,1.7-0.2,3.5-0.1,5.2
				c0.1,1.3,0.4,2.7,1.3,3.6c0.7,0.7,1.7-0.4,1.1-1.1c-0.8-0.8-0.9-2.2-0.9-3.2c-0.1-1.6,0-3.2,0.1-4.8c0.1-1.6,0.2-3.2,0.4-4.7
				c0.2-1.2,0.6-2.6-0.1-3.7c-1.7-2.7-4.7,0.7-5.9,2.1c-0.9,1-1.6,2.2-2.5,3.2c-0.8,1-2.3,1.6-3.7,1.4c-2.1-0.3-2.6-2.9-3.3-4.5
				C128.2,76.2,126.9,77,127.2,77.9L127.2,77.9z"/>
		</g>
	</g>
	<g>
		<g>
			<path class="st1" d="M80.3,76.3c-1.1,0.6-2.3,2.2-3.6,2c-1.6-0.2-3.1-2-4.2-3c-1.4-1.2-2.7-2.4-4.1-3.5c-0.9-0.7-2.1-1.6-3.3-1.7
				c-2.5-0.1-2.5,3.3-2.7,5c-0.4,3.5-1.7,6.8-2.2,10.3c-0.1,0.9,1.3,1.4,1.4,0.4c0.5-3.3,1.6-6.4,2.1-9.6c0.2-1.2,0.2-2.4,0.5-3.6
				c0.1-0.4,0.3-0.9,0.7-0.9c0.6-0.1,1.3,0.5,1.8,0.8c2.7,1.9,4.9,4.5,7.6,6.4c1,0.7,2.3,1.3,3.5,0.8c1.2-0.4,2-1.5,3.2-2.1
				C81.9,77.2,81.1,75.9,80.3,76.3L80.3,76.3z"/>
		</g>
	</g>
	<g>
		<g>
			<path class="st1" d="M65.2,70.2c-0.9-1.4-1.5-2.9-1.7-4.6c0-0.2-0.2-0.4-0.4-0.4c-0.2,0-0.4,0.2-0.4,0.4c0.2,1.8,0.8,3.5,1.8,4.9
				C64.8,71,65.4,70.6,65.2,70.2L65.2,70.2z"/>
		</g>
	</g>
	<g>
		<g>
			<path class="st1" d="M67,71.4c-0.4-1.9-0.8-3.7-1.2-5.6c-0.1-0.5-0.8-0.3-0.7,0.2c0.4,1.9,0.8,3.7,1.2,5.6
				C66.3,72,67.1,71.8,67,71.4L67,71.4z"/>
		</g>
	</g>
	<g>
		<g>
			<path class="st1" d="M68.8,72.3c-0.4-1.6-0.5-3.2-0.4-4.8c0-0.5-0.7-0.5-0.8,0c-0.1,1.7,0,3.4,0.4,5
				C68.2,72.9,68.9,72.7,68.8,72.3L68.8,72.3z"/>
		</g>
	</g>
	<g>
		<g>
			<path class="st1" d="M70.5,74.2c-0.3-1.9-0.4-3.9-0.3-5.9c0-0.5-0.7-0.5-0.8,0c0,2,0.1,4,0.4,6.1c0,0.2,0.3,0.3,0.5,0.3
				C70.5,74.6,70.5,74.3,70.5,74.2L70.5,74.2z"/>
		</g>
	</g>
	<g>
		<g>
			<path class="st1" d="M72.3,75.7c-0.3-1.8-0.3-3.6,0.1-5.4c0.1-0.5-0.6-0.7-0.7-0.2c-0.4,1.9-0.5,3.9-0.1,5.8
				C71.6,76.4,72.3,76.2,72.3,75.7L72.3,75.7z"/>
		</g>
	</g>
	<g>
		<g>
			<path class="st1" d="M73.8,77c-0.3-1.7-0.1-3.4,0.4-5.1c0.1-0.5-0.6-0.7-0.7-0.2c-0.6,1.8-0.7,3.6-0.4,5.5c0,0.2,0.3,0.3,0.5,0.3
				C73.8,77.4,73.8,77.2,73.8,77L73.8,77z"/>
		</g>
	</g>
	<g>
		<g>
			<path class="st1" d="M75.2,78.3c0-1.6,0.3-3.2,0.8-4.7c0.2-0.5-0.6-0.6-0.7-0.2c-0.6,1.6-0.8,3.2-0.8,4.9
				C74.5,78.8,75.2,78.8,75.2,78.3L75.2,78.3z"/>
		</g>
	</g>
	<g>
		<g>
			<path class="st1" d="M76.5,78.5c0.1-1.5,0.5-3,1.2-4.4c0.1-0.2,0.1-0.4-0.1-0.5c-0.2-0.1-0.4-0.1-0.5,0.1
				c-0.7,1.5-1.1,3.1-1.3,4.7C75.7,78.9,76.4,78.9,76.5,78.5L76.5,78.5z"/>
		</g>
	</g>
	<g>
		<g>
			<path class="st1" d="M63.7,71.9c-1-1.3-2.1-2.6-3.1-3.9c-0.1-0.2-0.4-0.1-0.5,0c-0.2,0.2-0.1,0.4,0,0.5c1,1.3,2.1,2.6,3.1,3.9
				c0.1,0.2,0.4,0.1,0.5,0C63.9,72.3,63.9,72.1,63.7,71.9L63.7,71.9z"/>
		</g>
	</g>
	<g>
		<g>
			<path class="st1" d="M63.2,74.5c-0.8-0.8-1.6-1.6-2.2-2.5c-0.1-0.2-0.3-0.2-0.5-0.1c-0.2,0.1-0.3,0.3-0.1,0.5
				c0.7,1,1.5,1.9,2.3,2.7c0.1,0.1,0.4,0.1,0.5,0C63.4,74.9,63.4,74.6,63.2,74.5L63.2,74.5z"/>
		</g>
	</g>
	<g>
		<g>
			<path class="st1" d="M63.2,77.3c-0.8-0.9-1.5-1.8-2.3-2.6c-0.1-0.2-0.4-0.1-0.5,0c-0.2,0.2-0.1,0.4,0,0.5
				c0.8,0.9,1.5,1.8,2.3,2.6c0.1,0.2,0.4,0.1,0.5,0C63.4,77.7,63.3,77.5,63.2,77.3L63.2,77.3z"/>
		</g>
	</g>
	<g>
		<g>
			<path class="st1" d="M62.5,79.4c-1.3-1-2.4-2.1-3.5-3.3c-0.3-0.4-0.9,0.2-0.5,0.5c1.1,1.2,2.3,2.3,3.5,3.3c0.2,0.1,0.4,0.2,0.5,0
				C62.7,79.8,62.7,79.5,62.5,79.4L62.5,79.4z"/>
		</g>
	</g>
	<g>
		<g>
			<path class="st1" d="M142.9,75.1c0.7-1.9,1.1-3.9,1.2-5.9c0-0.5-0.7-0.5-0.8,0c-0.1,1.9-0.5,3.9-1.2,5.7
				C142,75.3,142.7,75.5,142.9,75.1L142.9,75.1z"/>
		</g>
	</g>
	<g>
		<g>
			<path class="st1" d="M141.7,75.3c0-1.8,0.1-3.5,0.1-5.3c0-0.5-0.7-0.5-0.8,0c0,1.8-0.1,3.5-0.1,5.3
				C140.9,75.8,141.7,75.8,141.7,75.3L141.7,75.3z"/>
		</g>
	</g>
	<g>
		<g>
			<path class="st1" d="M140.2,76c0.1-2,0-4.1-0.3-6.1c-0.1-0.5-0.8-0.3-0.7,0.2c0.3,1.9,0.4,3.9,0.3,5.9
				C139.4,76.5,140.2,76.5,140.2,76L140.2,76z"/>
		</g>
	</g>
	<g>
		<g>
			<path class="st1" d="M138.7,77.4c0-2-0.2-4-0.4-6c0-0.2-0.2-0.4-0.4-0.4c-0.2,0-0.4,0.2-0.4,0.4c0.3,2,0.4,4,0.4,6
				C137.9,77.9,138.7,77.9,138.7,77.4L138.7,77.4z"/>
		</g>
	</g>
	<g>
		<g>
			<path class="st1" d="M137.5,79.3c-0.2-2.4-0.5-4.7-0.9-7.1c-0.1-0.5-0.8-0.3-0.7,0.2c0.4,2.3,0.7,4.6,0.9,6.9
				C136.8,79.8,137.6,79.8,137.5,79.3L137.5,79.3z"/>
		</g>
	</g>
	<g>
		<g>
			<path class="st1" d="M136.4,80.8c-0.4-2.6-0.9-5.1-1.3-7.7c-0.1-0.5-0.8-0.3-0.7,0.2c0.4,2.6,0.9,5.1,1.3,7.7
				C135.7,81.5,136.5,81.3,136.4,80.8L136.4,80.8z"/>
		</g>
	</g>
	<g>
		<g>
			<path class="st1" d="M135.2,81.3c-0.4-2.1-0.8-4.2-1.2-6.3c-0.1-0.5-0.8-0.3-0.7,0.2c0.4,2.1,0.8,4.2,1.2,6.3
				C134.5,82,135.3,81.8,135.2,81.3L135.2,81.3z"/>
		</g>
	</g>
	<g>
		<g>
			<path class="st1" d="M133.4,81.7c-0.6-2-1.1-4-1.4-6c-0.1-0.5-0.8-0.3-0.7,0.2c0.4,2,0.8,4,1.4,6
				C132.8,82.4,133.5,82.2,133.4,81.7L133.4,81.7z"/>
		</g>
	</g>
	<g>
		<g>
			<path class="st1" d="M131.1,80.7c-0.7-1.1-0.9-2.4-0.8-3.7c0-0.2-0.2-0.4-0.4-0.4c-0.2,0-0.3,0.2-0.4,0.4
				c-0.2,1.4,0.1,2.9,0.9,4.1C130.7,81.5,131.3,81.1,131.1,80.7L131.1,80.7z"/>
		</g>
	</g>
	<g>
		<g>
			<path class="st1" d="M144,76.9c0.4-0.8,0.8-1.5,1.2-2.3c0.1-0.2,0-0.4-0.1-0.5c-0.2-0.1-0.4,0-0.5,0.1c-0.4,0.8-0.8,1.5-1.2,2.3
				c-0.1,0.2,0,0.4,0.1,0.5C143.7,77.1,143.9,77.1,144,76.9L144,76.9z"/>
		</g>
	</g>
	<g>
		<g>
			<path class="st1" d="M143.8,79.6c0.5-1.1,1.3-1.9,2.3-2.6c0.2-0.1,0.2-0.3,0.1-0.5c-0.1-0.2-0.3-0.2-0.5-0.1
				c-1.1,0.7-2,1.7-2.5,2.8c-0.1,0.2,0,0.4,0.1,0.5C143.4,79.9,143.7,79.8,143.8,79.6L143.8,79.6z"/>
		</g>
	</g>
	<g>
		<g>
			<path class="st1" d="M143.5,83.4c0.3-1.3,1.2-2.4,2.3-3c0.4-0.2,0-0.9-0.4-0.6c-1.3,0.8-2.3,2-2.7,3.5
				C142.7,83.7,143.4,83.9,143.5,83.4L143.5,83.4z"/>
		</g>
	</g>
	<g>
		<g>
			<path class="st1" d="M143.5,86.4c0.7-1.2,1.6-2.4,2.6-3.4c0.3-0.4-0.2-0.9-0.5-0.5c-1,1.1-1.9,2.3-2.7,3.6
				C142.6,86.4,143.3,86.8,143.5,86.4L143.5,86.4z"/>
		</g>
	</g>
	<g>
		<g>
			<path class="st1" d="M77.9,78.2c0.2-1,0.6-2,1-2.9c0.1-0.2,0-0.4-0.1-0.5c-0.2-0.1-0.4,0-0.5,0.1c-0.5,1-0.8,2-1.1,3.1
				C77,78.5,77.7,78.7,77.9,78.2L77.9,78.2z"/>
		</g>
	</g>
</g>
<g>
	<g>
		<path class="st1" d="M113.9,105.2c-0.1-0.3-0.4-0.4-0.7-0.3c-0.3,0.1-0.5,0.3-0.6,0.5c-0.2,0.2-0.2,0.5,0,0.8
			c0.1,0.2,0.4,0.4,0.7,0.4c0.6,0,0.9-0.7,1-1.2c0.1-0.5,0-1.1-0.6-1.1c0.1,0.2,0.1,0.5,0.2,0.7c0.3-0.2,0.7-0.4,1-0.4
			c0.1,0,0.2,0,0.3,0.1c0.1,0.1,0.1,0.3,0.1,0.4c0,0.1,0,0.3,0,0.4c0,0.1-0.1,0.1-0.2,0.1c-0.2,0-0.4-0.2-0.4-0.5
			c-0.2,0-0.5,0.1-0.7,0.1c0,0.3,0.1,0.6,0.1,0.9c0,0.2,0.1,0.5,0.3,0.7c0.3,0.4,1,0.3,1.2-0.2c0.1-0.3-0.1-0.4-0.4-0.5
			c-0.4-0.1-1.2,0-1.4,0.5c-0.1,0.2,0,0.5,0.2,0.7c0.2,0.2,0.5,0.2,0.8,0.2c0.5,0,1-0.1,1.2-0.6c0.2-0.5-0.1-1-0.4-1.3
			c-0.2-0.1-0.5-0.2-0.7-0.3c-0.1,0-0.3-0.1-0.4-0.1c-0.2,0-0.3,0.1-0.5,0.1c0.1,0,0.1,0,0.2-0.1c0,0,0,0,0,0c0.1,0,0.1,0.1,0.2,0.1
			c0,0.1,0,0.2,0.1,0.3c0,0,0,0,0,0c0,0,0.1-0.1,0.1-0.1c0-0.1,0-0.2,0-0.3c0-0.2-0.1-0.3-0.3-0.4c-0.1-0.1-0.3-0.2-0.5-0.2
			c-0.2,0-0.3,0.1-0.5,0c0.1,0.2,0.2,0.3,0.3,0.5c0.1-0.3,0.2-0.7,0.5-0.9c0.3-0.2,0.5,0.1,0.7,0.3c0.3,0.4,0.9-0.2,0.5-0.5
			c-0.2-0.2-0.4-0.4-0.7-0.5c-0.3-0.1-0.6-0.1-0.9,0c-0.5,0.3-0.8,0.9-0.9,1.4c0,0.2,0.1,0.4,0.3,0.5c0.2,0,0.3,0,0.5,0
			c0.1,0,0.1,0,0.2,0c-0.1,0,0.1,0,0,0c0,0,0,0,0,0c0-0.1,0-0.2,0-0.1c0,0-0.1,0.1-0.1,0.2c0,0.1,0,0.3,0,0.4
			c0.1,0.2,0.3,0.3,0.5,0.2c0.1,0,0.1-0.1,0.3-0.1c0.2,0.1,0.5,0.1,0.7,0.2c0.1,0,0.1,0.1,0.1,0.1c0,0,0,0.1,0,0.1c0,0,0,0,0,0
			c0,0,0,0,0,0c0,0,0,0,0,0c0,0-0.1,0.1-0.1,0c-0.1,0-0.2,0-0.3,0c-0.1,0-0.2,0-0.3,0c-0.1,0,0,0-0.1,0.1c0,0,0,0,0,0.1
			c0,0,0.1,0,0.1,0c0.1,0,0.1,0,0.2,0c0.1,0,0.3,0,0.4,0c-0.1-0.2-0.2-0.3-0.4-0.5c0,0,0.1-0.1,0.1-0.1c0,0,0,0,0,0c0,0,0,0,0,0
			c0,0,0,0,0,0c0,0,0,0.1,0,0c0,0-0.1-0.1,0,0c0,0,0-0.1-0.1-0.2c-0.1-0.3-0.1-0.7-0.1-1c0-0.2-0.2-0.3-0.4-0.3
			c-0.2,0-0.3,0.2-0.3,0.4c0,0.6,0.5,1.2,1.1,1.2c0.6,0,1.1-0.5,1.1-1.1c0-0.6-0.2-1.3-0.8-1.4c-0.6-0.2-1.2,0.2-1.7,0.4
			c-0.1,0.1-0.2,0.3-0.2,0.4c0,0.2,0.2,0.3,0.4,0.3c0,0-0.1,0-0.1,0c0,0,0,0,0,0c0,0,0,0,0,0c0,0,0,0,0,0.1c0,0,0,0.1,0,0.1
			c0,0,0,0.1,0,0.1c0,0.2,0,0.4-0.2,0.5c0,0-0.1,0,0,0c0,0-0.1,0,0,0c0,0,0,0,0,0c0,0,0.1,0,0,0c0,0,0,0,0,0
			c0.1-0.1,0.1-0.1,0.2-0.2c0,0,0,0,0,0c0,0,0.1,0,0,0c0,0-0.1,0-0.1-0.1C113.5,106,114.2,105.6,113.9,105.2L113.9,105.2z"/>
	</g>
</g>
<g>
	<g>
		<path class="st1" d="M80.2,102.4c-0.3,0.5-0.4,1.2,0.2,1.5c0.6,0.3,1.2-0.1,1.5-0.6c0.2-0.3,0.3-0.6,0.2-0.9
			c-0.1-0.3-0.4-0.5-0.7-0.6c-0.3-0.1-0.7-0.2-1,0c-0.3,0.1-0.5,0.4-0.5,0.8c0,0.2,0.1,0.3,0.3,0.4c0.2,0,0.3,0,0.4-0.2
			c0.2-0.3,0.3-0.6,0.3-0.9c0-0.3-0.2-0.6-0.5-0.7c-0.3-0.1-0.7-0.1-0.9,0.2c-0.2,0.2-0.3,0.5-0.4,0.8c-0.1,0.3-0.1,0.7,0.2,0.9
			c0.2,0.2,0.5,0.3,0.8,0.4c0.6,0.1,1.1-0.2,1.5-0.7c0.2-0.2-0.1-0.6-0.3-0.6c-0.4,0-0.7,0.2-1,0.5c-0.1,0.1-0.2,0.3,0,0.5
			c0.1,0.1,0.3,0.2,0.5,0.1c0.4-0.3,0.7-0.7,0.8-1.1c0-0.2,0.1-0.5,0-0.7c0,0,0-0.1,0-0.1c-0.1,0.2-0.2,0.2-0.1,0.2c0,0,0.1,0,0.1,0
			c0.1,0,0.2,0,0.3,0.1c0.2,0.1,0.4,0.2,0.5,0.3c0,0,0.1,0.1,0.1,0.1c0,0,0,0.1,0,0.1c0,0-0.1,0.1-0.1,0.1c-0.1,0.1-0.3,0.3-0.4,0.4
			c-0.1,0-0.1,0.1-0.2,0.1c0,0-0.1,0-0.1-0.1c0,0.2,0,0.3,0.1,0.5c0.1-0.1,0,0,0,0c0,0,0.1,0,0,0c0,0,0.1,0,0,0c0,0,0.1,0,0.1,0
			c0,0,0,0,0,0c0,0,0.1,0,0.1,0c0,0,0,0,0,0c0,0,0.1,0,0.1,0c0.1,0-0.1,0,0,0c0,0,0,0,0,0c0,0,0.1,0.1,0,0c0,0,0,0,0,0.1
			c0,0,0,0,0,0c0,0,0,0,0,0c0,0,0,0.1,0,0.1c0,0,0,0.1,0,0.1c0,0.2-0.2,0.3-0.3,0.3c-0.2,0-0.4-0.1-0.5-0.3
			c-0.1-0.2-0.2-0.3-0.5-0.3c-0.2,0-0.3,0.3-0.3,0.5c0.2,0.5,0.7,0.9,1.2,0.9c0.5,0,1-0.4,1.1-0.9c0.1-0.5-0.1-1-0.6-1.2
			c-0.4-0.2-1,0-1.2,0.4c-0.1,0.2,0,0.3,0.1,0.5c0.4,0.4,1,0.3,1.4,0c0.4-0.3,0.9-0.8,0.7-1.3c-0.1-0.5-0.7-0.8-1.1-1
			c-0.3-0.1-0.6-0.1-0.9,0c-0.1,0.1-0.2,0.1-0.3,0.2c-0.1,0.2-0.1,0.3,0,0.5c0.1,0.4-0.1,0.8-0.4,1.1c0.2,0.2,0.3,0.4,0.5,0.6
			c0.1-0.1,0.3-0.2,0.4-0.2c-0.1-0.2-0.2-0.4-0.3-0.6c-0.1,0.2-0.4,0.3-0.7,0.3c-0.1,0-0.2,0-0.3-0.1c-0.1,0-0.1-0.1-0.1-0.2
			c0-0.2,0.1-0.3,0.2-0.5c0-0.1,0.1-0.2,0.2-0.2c0,0,0,0,0,0c0,0,0,0,0,0.1c0,0.2-0.1,0.3-0.2,0.4c0.2,0.1,0.5,0.1,0.7,0.2
			c0,0,0,0,0-0.1c0,0,0,0,0.1,0c0.1,0,0.3,0,0.5,0.1c0,0,0.1,0,0.1,0.1c0,0,0-0.1,0,0c0,0.1-0.1,0.3-0.2,0.4
			c-0.1,0.1-0.1,0.2-0.2,0.2c-0.1,0-0.2,0-0.2,0c0,0,0,0,0,0c0,0,0,0,0,0c0-0.1,0,0.1,0,0c0,0,0-0.1,0,0c0-0.1,0.1-0.2,0.1-0.4
			C81.1,102.3,80.4,102,80.2,102.4L80.2,102.4z"/>
	</g>
</g>
<g>
	<g>
		<path class="st1" d="M80.3,101.8C80.3,101.8,80.3,101.7,80.3,101.8C80.3,101.8,80.3,101.8,80.3,101.8c0-0.1,0-0.1,0-0.1
			c0,0,0-0.1,0,0c0,0,0,0,0,0c0,0,0-0.1,0.1-0.1c0,0,0,0,0-0.1c0,0-0.1,0.1,0,0c0,0,0-0.1,0.1-0.1c0,0,0,0,0,0c0,0,0,0,0,0
			c0,0,0.1,0,0.1-0.1c0,0,0,0,0,0c0.1,0-0.1,0,0,0c0,0,0.1,0,0.1,0c0,0,0,0,0.1,0c0.1,0-0.1,0,0,0c0,0,0.1,0,0.1,0c0,0,0,0,0.1,0
			c0.1,0-0.1,0,0,0c0,0,0.1,0,0.1,0c0,0,0,0,0.1,0c0.1,0-0.1,0,0,0c0,0,0.1,0,0.1,0.1c0.2,0.1,0.4,0,0.5-0.1c0.1-0.2,0-0.4-0.1-0.5
			c-0.4-0.2-0.9-0.3-1.3,0c-0.4,0.2-0.6,0.6-0.7,1.1c0,0.2,0.2,0.4,0.4,0.4C80.2,102.2,80.3,102,80.3,101.8L80.3,101.8z"/>
	</g>
</g>
<g>
	<g>
		<path class="st1" d="M79.7,102.3c-0.3,0.3-0.4,0.8-0.2,1.3c0.1,0.2,0.3,0.4,0.5,0.4c0.3,0.1,0.5,0.1,0.8,0.1
			c0.2,0,0.5-0.1,0.7-0.2c0.2-0.1,0.2-0.4,0.1-0.5c-0.1-0.2-0.3-0.2-0.5-0.1c0,0-0.1,0-0.1,0c0,0,0,0,0,0c0,0,0,0,0,0
			c0,0-0.1,0-0.2,0.1c-0.1,0-0.2,0.1-0.3,0.1c0,0,0.1,0,0.1,0c-0.1,0-0.2,0-0.3,0c0,0,0.1,0,0.1,0c0,0-0.1,0-0.1,0c0,0,0,0-0.1,0
			c0,0,0.1,0,0,0c0,0-0.1,0-0.1-0.1c0.1,0,0.1,0.1,0,0c0,0,0,0,0,0c0,0,0,0,0,0c0,0,0-0.1,0,0c0,0,0,0,0,0c0,0,0-0.1,0-0.1
			c0-0.1,0,0.1,0,0c0,0,0,0,0,0c0,0,0-0.1,0-0.1c0,0,0,0.1,0,0.1c0-0.1,0-0.1,0-0.2c0,0,0,0.1,0,0.1c0,0,0-0.1,0-0.1c0,0,0,0,0,0
			c0,0,0-0.1,0,0c0,0,0-0.1,0-0.1c0,0,0,0,0,0c0,0,0,0,0,0c0,0,0,0,0,0c0.1-0.1,0.2-0.4,0-0.5C80.1,102.2,79.9,102.2,79.7,102.3
			L79.7,102.3z"/>
	</g>
</g>
<g>
	<g>
		<path class="st1" d="M81.8,102.2c0.1-0.1,0.2-0.3,0.3-0.4c0,0,0-0.1,0-0.1c0,0,0-0.1,0-0.1c0,0,0-0.1-0.1-0.1c0,0-0.1-0.1-0.1-0.1
			c-0.1,0-0.2-0.1-0.3,0c0,0-0.1,0-0.1,0c-0.1,0-0.1,0.1-0.1,0.1c-0.1,0.1-0.2,0.3-0.3,0.4c0,0,0,0.1,0,0.1c0,0,0,0.1,0,0.1
			c0,0,0,0.1,0.1,0.1c0,0,0.1,0.1,0.1,0.1c0.1,0,0.2,0.1,0.3,0c0,0,0.1,0,0.1,0C81.7,102.3,81.7,102.3,81.8,102.2L81.8,102.2z"/>
	</g>
</g>
<g>
	<g>
		<path class="st1" d="M113.7,104.9c0.1,0,0.2-0.1,0.2-0.1c0,0,0.1,0,0.1,0c0.1-0.1-0.1,0,0.1,0c0.2-0.1,0.3-0.1,0.5-0.1
			c-0.1,0,0,0,0.1,0c0,0,0.1,0,0.1,0c0,0,0.1,0,0.1,0c-0.1,0,0,0,0,0c0.1,0,0.1,0,0.2,0.1c0,0,0,0,0,0c0,0,0,0,0.1,0
			c0,0,0.1,0,0.1,0c0.1,0,0,0,0,0c0,0,0,0,0.1,0.1c0,0,0,0,0,0c0,0,0,0,0,0c0,0,0.1,0.1,0.1,0.1c0,0,0-0.1,0,0c0,0,0,0,0,0
			c0,0.1,0,0,0,0c0,0,0,0.1,0,0.1c0,0.1,0-0.1,0,0c0,0,0,0.1,0,0.1c0,0,0,0,0,0c0,0,0,0,0,0c0,0,0,0.1,0,0.1c0,0,0,0,0,0
			c0,0,0,0,0,0c0,0,0,0.1-0.1,0.1c0,0,0.1-0.1,0,0c-0.1,0,0.1,0,0,0c-0.1,0,0,0,0,0c-0.2,0-0.4,0.2-0.4,0.4c0,0.2,0.2,0.4,0.4,0.4
			c0.3,0,0.6-0.2,0.7-0.5c0.1-0.3,0.2-0.6,0.1-0.9c-0.2-0.6-0.9-0.9-1.6-0.8c-0.4,0.1-0.8,0.2-1.2,0.4c-0.2,0.1-0.2,0.4-0.1,0.5
			C113.3,104.9,113.5,104.9,113.7,104.9L113.7,104.9z"/>
	</g>
</g>
<g>
	<g>
		<path class="st1" d="M84.5,112.1c0.5,1.4,0.9,2.8,1.5,4.1c0.4,1,1,2,2,2.5c2.6,1.2,4.8-1.8,6.3-3.5c-0.4-0.1-0.8-0.1-1.2-0.2
			c1.3,1.9,2.9,5.4,5.7,5.1c2.8-0.3,4.3-3.8,5.6-5.8c0.5-0.8-0.8-1.6-1.3-0.8c-0.6,1-1.2,1.9-1.8,2.9c-0.6,0.9-1.3,2-2.4,2.2
			c-1.1,0.3-2-0.7-2.6-1.5c-0.7-0.9-1.3-1.9-1.9-2.8c-0.3-0.4-0.8-0.5-1.2-0.2c-1,1.1-3.1,4.4-4.9,3c-0.7-0.5-1-1.4-1.3-2.2
			c-0.4-1.1-0.7-2.1-1.1-3.2C85.7,110.8,84.2,111.2,84.5,112.1L84.5,112.1z"/>
	</g>
</g>
<g>
	<g>
		<path class="st1" d="M121.1,110.9c4.5-0.8,9.1-1.1,13.6-0.8c1,0.1,1-1.4,0-1.5c-4.7-0.3-9.4,0-14,0.9
			C119.7,109.7,120.2,111.1,121.1,110.9L121.1,110.9z"/>
	</g>
</g>
<g>
	<g>
		<path class="st1" d="M122.4,114.7c3.4,0.6,6.9,1.1,10.3,1.7c0.9,0.2,1.4-1.3,0.4-1.4c-3.4-0.6-6.9-1.1-10.3-1.7
			C121.9,113.1,121.5,114.5,122.4,114.7L122.4,114.7z"/>
	</g>
</g>
<g>
	<g>
		<path class="st1" d="M73.1,107.8c-4.7-2-9.7-3.5-14.7-4.4c-0.1,0.5-0.1,1-0.2,1.5c0.2,0,0.3,0,0.5,0.1c1,0.1,0.9-1.4,0-1.5
			c-0.2,0-0.3,0-0.5-0.1c-0.8-0.1-1,1.3-0.2,1.5c4.9,0.9,9.8,2.3,14.4,4.3C73.3,109.5,74,108.2,73.1,107.8L73.1,107.8z"/>
	</g>
</g>
<g>
	<g>
		<path class="st1" d="M70.8,111.5c-3,0-6,0-8.9,0c-1,0-1,1.5,0,1.5c3,0,6,0,8.9,0C71.8,113,71.8,111.5,70.8,111.5L70.8,111.5z"/>
	</g>
</g>
<g>
	<path class="st2" d="M136.1,123.1c1.5,0.1,3.8,0.2,4.8-1.2c0.9-1.3,0.3-3.7,0.1-5.2c-0.1-1.1-0.5-2.6-0.1-3.6
		c0.5-1.1,1.6-1.3,2.6-1.5c7-1.2,14.1-2.8,21.1-3.4c0.2-0.2,0.4-0.3,0.8-0.3c1.5-0.1,3-0.1,4.4-0.2c0.5,0,1,0.6,0.9,1.1
		c-1.2,5.6-1.2,11.1-0.8,16.9c0.1,1.7,0.1,3.6-1.2,4.9c-1.4,1.5-3.4,1.6-5.3,1.6c-5.6,0-11.1-0.9-16.6-0.3c-2.4,0.3-3.9,0-5.7-1.5
		c-2.1-1.7-4.1-3.6-5.9-5.6C134.6,124.1,135.2,123.1,136.1,123.1z"/>
	<g>
		<g>
			<path class="st1" d="M170,107c0.1,8.2-0.5,16.4-1.1,24.6c-0.1,1,1.4,1,1.5,0c0.7-8.2,1.2-16.4,1.1-24.6
				C171.5,106.1,170,106.1,170,107L170,107z"/>
		</g>
	</g>
	<g>
		<g>
			<path class="st1" d="M169.7,130.9c-8.8,0.5-17.6,0.8-26.4,0.7c-1,0-1,1.5,0,1.5c8.8,0.1,17.6-0.2,26.4-0.7
				C170.7,132.4,170.7,130.9,169.7,130.9L169.7,130.9z"/>
		</g>
	</g>
	<g>
		<g>
			<path class="st1" d="M143.4,131.9c-1.1-6.5-1.9-13.1-2.6-19.6c-0.1-1-1.6-1-1.5,0c0.7,6.7,1.6,13.4,2.7,20
				C142.1,133.3,143.6,132.9,143.4,131.9L143.4,131.9z"/>
		</g>
	</g>
	<g>
		<g>
			<path class="st1" d="M170.1,106.3c-9.9,1.7-19.8,3.3-29.6,5.1c-0.9,0.2-0.5,1.6,0.4,1.4c9.9-1.7,19.8-3.3,29.6-5.1
				C171.4,107.6,171,106.2,170.1,106.3L170.1,106.3z"/>
		</g>
	</g>
	<g>
		<g>
			<g>
				<path class="st1" d="M143,131.7c-3.4-1.8-5.3-5.5-8.5-7.6c-0.1,0.5-0.3,0.9-0.4,1.4c0.1,0,0.2,0,0.3,0c0.8-0.1,1.1-1.3,0.2-1.5
					c-0.1,0-0.2,0-0.2-0.2c-0.2,0.2-0.5,0.4-0.7,0.6c0.2,0,0.5-0.1,0.7-0.1c0.4,0,0.7-0.3,0.7-0.7c0-0.3-0.2-0.7-0.5-0.8
					c-0.1,0-0.2,0-0.3-0.1c0,0.5,0,1,0,1.4c2.1-0.8,4.4-1.4,6.6-1.6c1-0.1,1-1.6,0-1.5c-2.4,0.2-4.8,0.7-7,1.6
					c-0.6,0.2-0.8,1.3,0,1.4c0.1,0,0.2,0,0.3,0.1c0.1-0.5,0.1-1,0.2-1.5c-0.2,0-0.5,0.1-0.7,0.1c-0.3,0-0.6,0.2-0.7,0.6
					c-0.2,0.9,0.3,1.8,1.2,2c0.1-0.5,0.1-1,0.2-1.5c-0.1,0-0.2,0-0.3,0c-0.7,0.1-1,1-0.4,1.4c3.2,2.1,5.1,5.7,8.5,7.6
					C143.1,133.4,143.8,132.1,143,131.7L143,131.7z"/>
			</g>
		</g>
	</g>
	<g>
		<path class="st3" d="M153.8,119c0.3,0.6,0.6,1.2,0.9,1.8c0.5,0.8,1.1,1.7,2,2c0.8,0.3,1.8,0,2.5-0.6c0.7-0.6,1.1-1.4,1.1-2.3
			c0-0.4,0-0.9-0.4-1.1c-0.2-0.1-0.4-0.1-0.6,0c-1.4,0.2-2.5,1.1-3.5,2.1s-1.7,2.2-2.6,3.2c-0.2-1.6,0-3.2,0.5-4.7"/>
		<g>
			<path class="st1" d="M153.4,119.2c0.6,1.3,1.3,2.8,2.5,3.6c1.2,0.8,2.8,0.5,3.7-0.6c0.5-0.5,0.8-1.2,0.9-1.9
				c0.1-0.6,0.2-1.3-0.3-1.7c-0.5-0.5-1.4-0.2-2,0c-0.7,0.3-1.3,0.6-1.8,1.1c-1.4,1.1-2.3,2.7-3.5,4.1c0.2,0.1,0.4,0.1,0.6,0.2
				c-0.2-1.5,0-3.1,0.5-4.5C154.4,119,153.7,118.8,153.4,119.2c-0.6,1.6-0.7,3.3-0.5,5c0,0.3,0.5,0.4,0.6,0.2
				c1.6-1.8,2.9-4.4,5.3-5.1c0.2-0.1,0.7-0.2,0.9-0.1c0.2,0.1,0.2,0.4,0.1,0.6c0,0.6-0.2,1.1-0.6,1.6c-0.6,1-2,1.4-3,0.8
				c-0.6-0.3-1-0.9-1.3-1.4c-0.4-0.6-0.7-1.3-1-2C153.9,118.3,153.3,118.7,153.4,119.2L153.4,119.2z"/>
		</g>
	</g>
</g>
<g>
	<g>
		<path class="st4" d="M26.9,75.1c3.5-0.5,7.1-0.9,10.6-1.4c1.4-0.2,2.7-0.4,4.1-0.3c1.8,0.1,3.6,0.6,5.4,1.1
			c0.4,0.1,0.9,0.3,1.1,0.6c0.3,0.4,0.2,0.9,0.1,1.4c-0.7,2.5-2.4,4.4-4.1,6.3c-1.3,1.4-2.6,2.9-3.9,4.3c-0.3,0.3-0.6,0.6-0.7,1
			c-0.1,0.3-0.2,0.7-0.2,1c-0.5,3.6-1,7.4,0.1,10.8c1.6-0.6,3.4-0.7,5-0.1c0.4,0.1,0.7,0.3,0.9,0.6c0.3,0.4,0.1,1-0.3,1.4
			c-0.4,0.4-0.9,0.5-1.3,0.7c-3.2,0.9-6.7,1-10,0.3c-0.5-0.1-1.1-0.3-1.4-0.7c-0.4-0.4-0.4-1.1,0-1.4c0.1-0.1,0.3-0.2,0.5-0.2
			c1-0.3,2.1-0.6,3.1-0.9c0.4-0.1,0.9-0.3,1.2-0.6c0.5-0.6,0.3-1.4,0.1-2.1c-0.6-2.4-0.8-4.9-0.7-7.4c0.1-0.8,0.1-1.7-0.2-2.4
			c-0.2-0.6-0.7-1-1.1-1.5c-1.6-1.6-3.5-3-5.1-4.6c-1.6-1.6-3-3.6-3.4-5.8"/>
		<g>
			<path class="st4" d="M26.9,76.6c4.3-0.6,8.6-1.3,12.9-1.7c2.1-0.2,4.1,0.2,6.1,0.8c0.2,0.1,0.4,0.1,0.7,0.2
				c0.3,0.2,0.4,0.1,0.2-0.2c0,0.3-0.2,0.8-0.3,1.1c-0.3,0.9-0.9,1.7-1.4,2.4c-1.1,1.5-2.5,2.9-3.8,4.2c-1.3,1.4-3.2,2.9-3.6,4.8
				c-0.8,3.8-1,8.2,0.1,12c0.2,0.7,1.1,1.3,1.8,1c1.1-0.4,2.2-0.6,3.4-0.3c-0.1,0,1.7,0.5,0.8-0.3c0,0-1.4,0.5-1.6,0.5
				c-2.1,0.5-4.3,0.6-6.4,0.4c-0.6-0.1-1.3-0.4-1.9-0.3c-0.5-0.2-0.8,0-0.9,0.6c0.3-0.1,0.6-0.2,0.9-0.3c1-0.3,2-0.5,2.9-0.9
				c2-0.8,2.1-2.7,1.6-4.6c-0.5-2.2-0.7-4.5-0.6-6.7c0.1-2.1-0.3-3.6-1.9-5.1c-3-2.8-7-5.3-7.9-9.6c-0.4-1.9-3.3-1.1-2.9,0.8
				c0.9,4.2,4.3,7,7.3,9.7c0.7,0.6,1.6,1.3,2.1,2.1c0.5,0.8,0.2,2.1,0.2,3.1c-0.1,2.3,0.3,4.6,0.8,6.8c0.1,0.4,0.2,0.6-0.1,0.9
				c-0.3,0.3-1.1,0.3-1.5,0.4c-0.9,0.3-2.1,0.4-2.8,1c-1.6,1.3-0.8,3.5,0.8,4.3c1.9,0.9,4.5,1,6.5,0.9c2-0.1,4.4-0.3,6.3-1.1
				c1.9-0.8,2.8-3.4,0.9-4.7c-1.9-1.3-4.8-1.1-6.9-0.4c0.6,0.3,1.2,0.7,1.8,1c-0.7-2.2-0.7-4.5-0.5-6.8c0.1-1.1,0.2-2.1,0.4-3.2
				c0.2-1.1,0.8-1.7,1.6-2.5c2.7-2.9,6.3-6,7.4-10c0.6-2-0.2-3.4-2.2-4.1c-2.1-0.7-4.3-1.2-6.4-1.1c-2.3,0-4.5,0.5-6.8,0.8
				c-2.4,0.3-4.8,0.6-7.2,1c-0.8,0.1-1.5,0.6-1.5,1.5C25.4,75.8,26.1,76.7,26.9,76.6L26.9,76.6z"/>
		</g>
	</g>
	<path class="st5" d="M36.1,58.9c0-0.1,0-0.1-0.1-0.2c-0.1-0.1-0.2-0.2-0.3-0.3c0,0-0.1,0-0.1,0c-0.1,0-0.2,0-0.3,0.1
		c-0.3,0.1-0.5,0.3-0.8,0.4l-0.1,0.1c-0.1,0.1-0.1,0.1-0.1,0.2c0,0,0,0.1,0,0.1c0,0.1,0,0.1,0,0.2c0,0.1,0,0.1,0.1,0.2
		c0,0,0,0.1,0,0.1c0,0.1,0.1,0.1,0.1,0.2c0.1,0,0.1,0.1,0.2,0.1c0.1,0.1,0.3,0.1,0.4,0.1c0,0,0.1,0,0.1,0c0.1,0,0.2,0,0.2,0
		c0.1,0,0.1-0.1,0.2-0.1c0.1,0,0.1-0.1,0.1-0.2c0-0.1,0.1-0.1,0.1-0.2c0-0.1,0-0.1,0-0.2c0,0,0,0,0,0c0,0,0,0,0.1,0
		c0.1,0,0.1-0.1,0.2-0.1c0-0.1,0.1-0.1,0.1-0.2C36.1,59,36.1,58.9,36.1,58.9z"/>
	<path class="st5" d="M39.5,63.5c0-0.1-0.1-0.1-0.2-0.2c0,0,0-0.1-0.1-0.1c-0.1-0.1-0.2-0.2-0.3-0.3c-0.3-0.1-0.7,0-1,0.1
		c-0.1,0.1-0.3,0.2-0.3,0.3c-0.1,0.1-0.1,0.2-0.2,0.3c-0.1,0.2-0.1,0.3-0.1,0.4c0,0.4,0.2,0.7,0.5,0.9C38,65,38.2,65,38.4,65
		c0.2,0,0.4-0.1,0.5-0.2c0.3-0.2,0.5-0.6,0.7-0.9C39.6,63.8,39.6,63.6,39.5,63.5z"/>
	<g>
		<path class="st5" d="M33.9,69.2C33.9,69.2,33.9,69.2,33.9,69.2C33.9,69.2,33.9,69.2,33.9,69.2C33.9,69.2,33.9,69.2,33.9,69.2
			C33.9,69.2,33.9,69.2,33.9,69.2C33.9,69.2,33.9,69.2,33.9,69.2z"/>
		<path class="st5" d="M35.1,68C35.1,68,35.1,68,35.1,68c0-0.1,0-0.2,0-0.3c0-0.1-0.1-0.3-0.2-0.4c-0.1-0.1-0.2-0.1-0.4-0.2
			c-0.5-0.1-1.1-0.1-1.5,0.2c-0.3,0.2-0.5,0.5-0.5,0.8c-0.1,0.3,0,0.6,0.1,1c0.1,0.3,0.2,0.6,0.4,0.8c0.2,0.2,0.6,0.4,0.9,0.3
			c0.3,0,0.6-0.2,0.9-0.4c0.2-0.2,0.4-0.5,0.4-0.8C35.2,68.7,35.3,68.4,35.1,68z"/>
	</g>
	<g>
		<path class="st5" d="M29.5,79.8c5-1.7,10.5-2.3,15.8-1.6c0.3,0,0.7,0.1,0.9,0.4c0.3,0.4,0,1-0.3,1.4c-0.9,1.2-1.8,2.5-2.7,3.7
			c-0.8,1.1-1.6,2.3-2.8,2.9c-2.1,1-4.6,0.1-6.4-1.3s-3.1-3.3-4.8-4.9"/>
		<g>
			<path class="st5" d="M29.9,81.2c2.5-0.9,5.2-1.5,7.9-1.7c1.4-0.1,2.7-0.2,4.1-0.1c0.6,0,1.3,0,1.9,0.1c0.3,0,0.6,0.1,0.9,0.1
				c0.1,0,0.3,0,0.4,0c0.3,0.1,0.3,0.1-0.1-0.1c-0.1-0.3-0.1-0.5-0.2-0.8c0,0.3-0.4,0.7-0.6,0.9c-0.3,0.4-0.6,0.8-0.9,1.2
				c-0.6,0.8-1.1,1.6-1.7,2.3c-0.9,1.3-2,2.4-3.7,2.2c-3.4-0.4-5.4-4-7.8-6.1c-1.4-1.3-3.6,0.8-2.1,2.1c2.1,1.9,3.8,4.5,6.4,5.9
				c2.6,1.5,5.7,1.6,8.1-0.5c1.1-1,2-2.4,2.8-3.6c0.5-0.7,1-1.3,1.4-2c0.5-0.7,1-1.4,1-2.2c0-1.9-1.7-2.3-3.1-2.4
				c-1.6-0.2-3.1-0.2-4.7-0.2c-3.7,0.1-7.4,0.8-10.9,1.9C27.2,78.9,28,81.8,29.9,81.2L29.9,81.2z"/>
		</g>
	</g>
	<g>
		<g>
			<path class="st1" d="M34.9,88C35,90.5,35,93,35,95.4c0,1.5,0,3,0.1,4.5c0.1,0.8,0.6,1.5,1.5,1.5c0.8,0,1.6-0.7,1.5-1.5
				c-0.1-1.5-0.1-3-0.1-4.5c0-2.5,0-4.9-0.1-7.4c0-0.8-0.7-1.5-1.5-1.5C35.6,86.5,34.9,87.2,34.9,88L34.9,88z"/>
		</g>
	</g>
	<g>
		<g>
			<path class="st1" d="M37.4,87.3c0.6,4.3-0.5,8.6,0.1,12.8c0.1,0.8,0.6,1.5,1.5,1.5c0.7,0,1.6-0.7,1.5-1.5
				c-0.6-4.3,0.5-8.6-0.1-12.8c-0.1-0.8-0.6-1.5-1.5-1.5C38.2,85.8,37.3,86.5,37.4,87.3L37.4,87.3z"/>
		</g>
	</g>
	<g>
		<g>
			<path class="st1" d="M35.9,97.5c-2.3,0.3-5.5,1.2-6.1,3.8c-0.9,3.9,5.1,4.1,7.6,4.2c1.7,0,3.5-0.1,5.2-0.5c1.5-0.3,3.2-0.7,4.1-2
				c0.7-1.2,0.7-2.8-0.1-4c-0.7-1-1.6-1.5-2.8-1.6c-0.9-0.1-1.9-0.1-2.8-0.1c-0.4,0-0.9,0-1.3,0c-0.2,0-0.3,0-0.5,0
				c-0.5,0,0.3,0.1,0.4,0.2c0.2,0.2,0.4,0.4,0.5,0.5c0,0,0,0,0,0c0,0.5,0,1,0,1.5c0,0,0,0,0,0c-0.2,0.2-0.4,0.4-0.5,0.5
				c-0.5,0.3-0.3,0.1-0.1,0.1c0.8-0.1,1.2-1.1,1-1.8c-0.2-0.8-1-1.2-1.8-1c-0.5,0.1-0.9,0.3-1.2,0.8c-0.3,0.4-0.3,1.1,0,1.5
				c0.7,1.1,2.6,0.8,3.7,0.8c0.7,0,1.4,0,2.1,0c0.1,0,0.3,0,0.4,0c0.1,0-0.3-0.1,0,0c0.2,0,0.3,0.1,0.1,0c0.2,0.1,0.1,0.1,0.2,0.2
				c0.1,0.2,0.1,0.2,0.1,0.4c0,0,0,0.2,0,0.1c0,0.1,0,0.2-0.1,0.3c0.1-0.2,0,0.1-0.1,0.1c0.1-0.1-0.3,0.2-0.3,0.2
				c-1,0.5-2.4,0.6-3.5,0.7c-2.4,0.3-5.2,0.2-7.5-0.6c-0.1,0-0.1-0.1-0.1-0.1c0,0,0.1,0.2,0.1,0.2c0.1,0-0.1,0.1,0.1-0.1
				c0.2-0.3-0.2,0.2,0.1-0.1c0,0,0.2-0.2,0,0c0.1-0.1,0.2-0.1,0.3-0.2c0.2-0.1,0.5-0.3,0.6-0.3c0.9-0.4,1.9-0.6,2.9-0.8
				c0.8-0.1,1.2-1.1,1-1.8C37.5,97.7,36.7,97.4,35.9,97.5L35.9,97.5z"/>
		</g>
	</g>
	<g>
		<g>
			<path class="st1" d="M26.3,76.3c1.5-1,3.2-1.1,4.9-1.4c1.9-0.3,3.9-0.6,5.8-0.8c4-0.3,8.2-0.3,12,1.2c1.8,0.7,2.6-2.2,0.8-2.9
				c-4.2-1.6-8.8-1.7-13.2-1.3c-2.1,0.2-4.3,0.5-6.4,0.9c-2,0.3-3.7,0.6-5.4,1.7C23.2,74.7,24.7,77.3,26.3,76.3L26.3,76.3z"/>
		</g>
	</g>
	<g>
		<g>
			<path class="st6" d="M38.2,87.3c1.3-1.3,2.4-3,3.3-4.5c1.4-2.2,2.7-4.5,4.1-6.8c2.2-3.9,4.2-8,6.9-11.6c0.4-0.5,0.2-1.4-0.2-1.8
				c0,0,0,0,0,0c0.1,0.6,0.2,1.2,0.2,1.8c-0.1,0.2,0.3-0.3,0.4-0.4c0.4-0.5,0.2-1.4-0.2-1.8c0,0,0,0,0,0c-1.4-1.4-3.5,0.8-2.1,2.1
				c0,0,0,0,0,0c-0.1-0.6-0.2-1.2-0.2-1.8c0.1-0.2-0.3,0.3-0.4,0.4c-0.4,0.5-0.2,1.4,0.2,1.8c0,0,0,0,0,0c-0.1-0.6-0.2-1.2-0.2-1.8
				c-2.6,3.5-4.6,7.6-6.7,11.4c-1.3,2.3-2.6,4.5-4,6.7c-1,1.5-1.8,3-3.1,4.2C34.7,86.5,36.8,88.7,38.2,87.3L38.2,87.3z"/>
		</g>
	</g>
	<g>
		<g>
			<path class="st1" d="M35.1,69.3c0.9-0.4,1.3-1.6,1-2.5c-0.1-0.3-0.3-0.6-0.5-0.8c-0.2-0.2-0.6-0.4-0.9-0.3
				c-0.6,0.1-1.2,0.1-1.7,0.3c-0.2,0.1-0.4,0.2-0.6,0.3c-0.2,0.1-0.4,0.2-0.5,0.4c-0.2,0.2-0.5,0.5-0.6,0.7c-0.2,0.3-0.3,0.7-0.4,1
				c-0.1,0.4,0,0.8,0.1,1.1c0.3,0.7,0.7,1.3,1.4,1.7c0.5,0.3,1.1,0.4,1.7,0.5c0.6,0,1.2-0.1,1.7-0.4c0.3-0.1,0.5-0.3,0.7-0.5
				c0.1-0.1,0.3-0.3,0.4-0.4c0.1-0.1,0.1-0.1,0.1-0.2c0.2-0.5,0.4-1,0.3-1.6c0-0.4-0.1-0.7-0.3-1c-0.1-0.3-0.3-0.6-0.5-0.9
				c-0.1-0.1-0.1-0.1-0.2-0.2c-0.2-0.1-0.3-0.3-0.5-0.4c-0.4-0.2-0.7-0.3-1.2-0.3c-0.4,0-0.8,0.2-1.1,0.4c-0.3,0.3-0.5,0.7-0.4,1.1
				c0,0.4,0.1,0.8,0.4,1.1c0.1,0.1,0.2,0.2,0.3,0.2c0.2,0.1,0.5,0.2,0.8,0.2c0,0,0,0,0,0c-0.1,0-0.3,0-0.4-0.1c0.1,0,0.2,0,0.3,0.1
				c-0.1-0.1-0.2-0.1-0.4-0.2c0.1,0,0.2,0.1,0.2,0.1c-0.1-0.1-0.2-0.2-0.3-0.2c0.1,0.1,0.2,0.2,0.3,0.3c-0.1-0.1-0.2-0.2-0.2-0.3
				c0.1,0.1,0.1,0.2,0.2,0.3c-0.1-0.1-0.1-0.2-0.2-0.4c0.1,0.1,0.1,0.3,0.1,0.4c0-0.1,0-0.3-0.1-0.4c0,0.1,0,0.3,0,0.4
				c0-0.1,0-0.3,0.1-0.4c0,0.1,0,0.3-0.1,0.4c0.1-0.1,0.1-0.2,0.2-0.4c0,0.1-0.1,0.2-0.2,0.3c0.1-0.1,0.2-0.2,0.2-0.3
				c-0.1,0.1-0.2,0.2-0.2,0.2c0.1-0.1,0.2-0.2,0.3-0.2c-0.1,0.1-0.2,0.2-0.4,0.2c0.1-0.1,0.2-0.1,0.4-0.2c-0.1,0.1-0.3,0.1-0.5,0.1
				c0.1,0,0.3,0,0.4-0.1c-0.2,0-0.3,0-0.5,0c0.1,0,0.3,0,0.4,0.1c-0.2,0-0.4-0.1-0.5-0.1c0.1,0.1,0.2,0.1,0.4,0.2
				c-0.1-0.1-0.3-0.1-0.4-0.2c0.1,0.1,0.2,0.2,0.3,0.2c-0.1-0.1-0.2-0.2-0.3-0.3c0.1,0.1,0.2,0.2,0.2,0.3c-0.1-0.1-0.1-0.2-0.2-0.3
				c0.1,0.1,0.1,0.2,0.2,0.4c0-0.1-0.1-0.2-0.1-0.3c0,0.1,0,0.3,0.1,0.4c0-0.1,0-0.2,0-0.3c0,0.1,0,0.3-0.1,0.4c0-0.1,0-0.2,0.1-0.3
				c-0.1,0.1-0.1,0.2-0.2,0.4c0.1-0.1,0.1-0.2,0.2-0.3c-0.1,0.1-0.2,0.2-0.2,0.3c0.1-0.1,0.2-0.2,0.3-0.3c-0.1,0.1-0.2,0.2-0.3,0.2
				c0.1-0.1,0.3-0.2,0.5-0.3c-0.1,0.1-0.2,0.1-0.4,0.2c0.3-0.1,0.7-0.2,1.1-0.2c-0.1,0-0.3,0-0.4,0.1c0.1,0,0.2,0,0.3,0
				c-0.5-0.4-1-0.7-1.4-1.1c0,0,0,0.1,0,0.1c0-0.1,0-0.3-0.1-0.4c0,0.1,0,0.1,0,0.2c0-0.1,0-0.3,0.1-0.4c0,0.1,0,0.1,0,0.2
				c0.1-0.1,0.1-0.2,0.2-0.4c0,0.1-0.1,0.1-0.1,0.2c0.1-0.1,0.2-0.2,0.2-0.3c0,0-0.1,0.1-0.1,0.1c0.1-0.1,0.2-0.2,0.3-0.2
				c0,0-0.1,0-0.1,0.1c-0.3,0.2-0.6,0.6-0.7,0.9c-0.1,0.4-0.1,0.8,0.2,1.2c0.2,0.3,0.5,0.6,0.9,0.7C34.3,69.5,34.7,69.5,35.1,69.3
				L35.1,69.3z"/>
		</g>
	</g>
	<g>
		<g>
			<path class="st1" d="M39.1,61.7c-0.9-0.3-1.9,0-2.6,0.7c-0.3,0.3-0.6,0.7-0.7,1.2c0,0.2-0.1,0.3-0.1,0.5c0,0.1,0,0.1,0,0.2
				c0,0.2,0,0.5,0.1,0.7c0.2,0.4,0.4,0.9,0.7,1.2c0.4,0.3,0.8,0.6,1.2,0.7c0.2,0,0.5,0.1,0.7,0.1c0.4,0,0.6-0.1,0.9-0.2
				c0.4-0.2,0.7-0.4,1-0.7c0.2-0.2,0.3-0.4,0.4-0.6c0.1-0.2,0.2-0.4,0.2-0.7c0-0.2,0.1-0.5,0.1-0.7c0-0.2,0-0.4-0.1-0.5
				c0-0.2-0.1-0.3-0.2-0.5c-0.1-0.2-0.2-0.3-0.4-0.4c-0.1-0.1-0.3-0.2-0.5-0.3c-0.2-0.1-0.4-0.1-0.6,0c-0.2,0-0.4,0.1-0.6,0.2
				c-0.3,0.2-0.6,0.5-0.7,0.9c0,0.1,0,0.3-0.1,0.4c0,0.3,0.1,0.5,0.2,0.8c0,0,0,0,0,0c-0.1-0.1-0.1-0.2-0.2-0.4
				c0,0.1,0.1,0.2,0.1,0.3c0-0.1,0-0.3-0.1-0.4c0,0.1,0,0.2,0,0.3c0-0.1,0-0.3,0.1-0.4c0,0.1,0,0.2-0.1,0.3c0.1-0.1,0.1-0.2,0.2-0.4
				c0,0.1-0.1,0.2-0.2,0.3c0.1-0.1,0.2-0.2,0.2-0.3C38.2,63.9,38.1,64,38,64c0.1-0.1,0.2-0.2,0.3-0.2c-0.1,0.1-0.2,0.1-0.2,0.1
				c0.1-0.1,0.2-0.1,0.4-0.2c-0.1,0-0.2,0.1-0.2,0.1c0.1,0,0.3,0,0.4-0.1c-0.1,0-0.2,0-0.3,0c0.1,0,0.3,0,0.4,0.1
				c-0.1,0-0.2,0-0.3-0.1c0.1,0.1,0.2,0.1,0.4,0.2c-0.1,0-0.2-0.1-0.3-0.2c0.1,0.1,0.2,0.2,0.3,0.2c-0.1-0.1-0.2-0.1-0.2-0.2
				c0.1,0.1,0.2,0.2,0.2,0.3c-0.1-0.1-0.1-0.2-0.2-0.3c0.1,0.1,0.1,0.2,0.2,0.4c0-0.1-0.1-0.2-0.1-0.3c0,0.1,0,0.3,0.1,0.4
				c0-0.1,0-0.2,0-0.3c0,0.1,0,0.3-0.1,0.4c0-0.1,0-0.2,0.1-0.2c-0.1,0.1-0.1,0.2-0.2,0.4c0-0.1,0.1-0.2,0.1-0.2
				c-0.1,0.1-0.2,0.2-0.2,0.3c0.1-0.1,0.1-0.2,0.2-0.2c-0.1,0.1-0.2,0.2-0.3,0.2c0.1-0.1,0.2-0.1,0.3-0.2c-0.1,0.1-0.2,0.1-0.4,0.2
				c0.1,0,0.2-0.1,0.3-0.1c-0.1,0-0.3,0-0.4,0.1c0.1,0,0.2,0,0.3,0c-0.1,0-0.3,0-0.4-0.1c0.1,0,0.1,0,0.2,0c0.2,0.1,0.4,0.1,0.6,0
				c0.2,0,0.4-0.1,0.6-0.2c0.3-0.2,0.6-0.5,0.7-0.9c0.1-0.4,0.1-0.8-0.2-1.2C39.8,62,39.5,61.8,39.1,61.7L39.1,61.7z"/>
		</g>
	</g>
	<g>
		<g>
			<path class="st1" d="M32.3,58.5c-0.1,0.5-0.1,1,0,1.4c0.1,0.5,0.4,0.9,0.7,1.2c0.2,0.2,0.3,0.3,0.5,0.4c0,0,0.1,0.1,0.2,0.1
				c0.2,0.1,0.3,0.2,0.5,0.2c0.5,0.1,1,0.1,1.4,0c0.9-0.2,1.7-1,1.9-1.9c0.1-0.6,0.1-1.3-0.2-1.8c-0.3-0.5-0.8-0.9-1.4-1
				c-0.2,0-0.4-0.1-0.6-0.1c-0.2,0-0.4,0-0.6,0.1c-0.3,0-0.5,0.2-0.7,0.3c-0.2,0.1-0.5,0.3-0.6,0.5c-0.2,0.2-0.4,0.4-0.5,0.6
				c-0.2,0.3-0.3,0.8-0.2,1.2c0.1,0.3,0.4,0.7,0.7,0.9c0.3,0.2,0.8,0.3,1.2,0.2c0.4-0.1,0.7-0.3,0.9-0.7c0-0.1,0.1-0.1,0.1-0.2
				c-0.1,0.1-0.2,0.2-0.2,0.3c0.1-0.1,0.1-0.2,0.2-0.2c-0.1,0.1-0.2,0.2-0.3,0.2c0.1-0.1,0.2-0.1,0.3-0.2c-0.1,0.1-0.2,0.1-0.4,0.2
				c0.1,0,0.2-0.1,0.3-0.1c-0.1,0-0.3,0-0.4,0.1c0.1,0,0.2,0,0.3,0c-0.1,0-0.3,0-0.4-0.1c0.1,0,0.2,0,0.3,0.1
				C35,60,34.9,60,34.8,59.9c0.1,0,0.1,0.1,0.2,0.1c-0.1-0.1-0.2-0.2-0.3-0.2c0,0,0.1,0.1,0.1,0.1c-0.1-0.1-0.2-0.2-0.2-0.3
				c0,0,0.1,0.1,0.1,0.1c-0.1-0.1-0.1-0.2-0.2-0.4c0,0.1,0,0.1,0.1,0.2c0-0.1,0-0.3-0.1-0.4c0,0.1,0,0.2,0,0.2c0-0.1,0-0.3,0.1-0.4
				c0,0.1,0,0.2-0.1,0.3c0.1-0.1,0.1-0.2,0.2-0.4c0,0.1-0.1,0.2-0.1,0.2c0.1-0.1,0.2-0.2,0.2-0.3c-0.1,0.1-0.1,0.2-0.2,0.2
				c0.1-0.1,0.2-0.2,0.3-0.2c-0.1,0.1-0.2,0.1-0.3,0.2c0.1-0.1,0.2-0.1,0.4-0.2c-0.1,0-0.2,0.1-0.3,0.1c0.1,0,0.3,0,0.4-0.1
				c-0.1,0-0.2,0-0.3,0c0.1,0,0.3,0,0.4,0.1c-0.1,0-0.2,0-0.3-0.1c0.1,0.1,0.2,0.1,0.4,0.2c-0.1,0-0.2-0.1-0.3-0.1
				c0.1,0.1,0.2,0.2,0.3,0.2c-0.1-0.1-0.1-0.1-0.2-0.2c0.1,0.1,0.2,0.2,0.2,0.3c-0.1-0.1-0.1-0.2-0.2-0.3c0.1,0.1,0.1,0.2,0.2,0.4
				c0-0.1-0.1-0.2-0.1-0.3c0,0.1,0,0.3,0.1,0.4c0-0.1,0-0.2,0-0.3c0,0.1,0,0.3-0.1,0.4c0-0.1,0-0.1,0-0.2c0.1-0.4,0-0.8-0.2-1.2
				c-0.2-0.3-0.5-0.6-0.9-0.7c-0.4-0.1-0.8-0.1-1.2,0.2C32.6,57.8,32.4,58.1,32.3,58.5L32.3,58.5z"/>
		</g>
	</g>
	<g>
		<g>
			<path class="st1" d="M29.4,81.1c5.4-2.1,11.3-2.8,17-1.9c-0.2-0.8-0.4-1.7-0.7-2.5c-0.7,0.8-2.1,0.8-3.1,0.8
				c-1.6,0.2-3.1,0.2-4.7,0.3c-3.1,0.1-6.2,0.2-9.2,0.6c-0.8,0.1-1.5,0.6-1.5,1.5c0,0.7,0.7,1.6,1.5,1.5C32.2,81,35.6,81,39,80.8
				c1.7-0.1,3.4-0.2,5-0.4c1.4-0.2,2.8-0.4,3.8-1.6c0.6-0.8,0.6-2.3-0.7-2.5c-6.3-1-12.7-0.4-18.6,1.9c-0.8,0.3-1.3,1-1,1.8
				C27.7,80.8,28.6,81.4,29.4,81.1L29.4,81.1z"/>
		</g>
	</g>
	<g>
		<g>
			<path class="st1" d="M36.4,85.9c-4.2-2.6-7-7.3-9.5-11.4c-0.4,0.8-0.9,1.5-1.3,2.3c1.9,0.2,3.6,1.5,5.4,1.9
				c2.1,0.4,4.5,0.3,6.7,0.2c2.2-0.1,4.3-0.4,6.4-1.2c2.1-0.8,4-1.9,6.2-2.3c-0.6-0.7-1.1-1.5-1.7-2.2c-1.7,3.3-3.1,6.6-5.5,9.5
				c-0.7,0.9-1.5,2.2-2.4,2.8c-1.1,0.8-3.2,0.5-4.5,0.5c-1.9,0.1-1.9,3.1,0,3c1.8,0,3.7,0.1,5.4-0.6c1.4-0.6,2.3-2,3.2-3.1
				c1-1.3,2.1-2.6,3-4c1.3-2.1,2.2-4.4,3.3-6.6c0.6-1.2-0.4-2.5-1.7-2.2c-2.1,0.4-4,1.5-6,2.2c-2,0.8-4.1,1.1-6.2,1.2
				c-1.9,0.1-4.3,0.3-6.2-0.3c-1.9-0.6-3.5-1.6-5.5-1.8c-1.2-0.1-1.8,1.3-1.3,2.3c2.8,4.6,5.9,9.6,10.6,12.5
				C36.5,89.5,38.1,86.9,36.4,85.9L36.4,85.9z"/>
		</g>
	</g>
	<g>
		<g>
			<path class="st7" d="M44,66.1c-1.4,0.5-2.6,1.6-3.1,3c-0.1,0.3-0.2,0.6-0.1,0.9c0.1,0.2,0.3,0.4,0.6,0.5c1.8,1.1,3.4,2.3,5,3.6
				c0.3,0.3,0.6,0.5,1,0.6c0.4,0.1,0.8-0.1,1.1-0.3c1.7-0.9,3.6-1.9,4.3-3.8c0.1-0.2,0.1-0.3,0-0.5c-0.1-0.1-0.2-0.2-0.3-0.3
				c-2.5-1.3-5-2.7-7.6-4c-0.2-0.1-0.4-0.2-0.5-0.1s-0.3,0.3-0.1,0.4"/>
			<g>
				<path class="st7" d="M43.6,64.6c-1.2,0.5-2.3,1.1-3.1,2.2c-0.8,1.1-1.7,2.6-1,4c0.3,0.6,0.9,0.9,1.5,1.3
					c0.6,0.4,1.2,0.8,1.8,1.2c1.1,0.8,2,1.7,3.1,2.4c1.4,1,2.8,0.3,4.1-0.4c1-0.5,2-1.2,2.8-2c0.9-0.9,2-2.4,1.4-3.7
					c-0.3-0.7-1-1-1.7-1.4c-0.7-0.4-1.3-0.7-2-1.1c-1.5-0.8-2.9-1.6-4.4-2.4c-0.8-0.4-1.7-0.9-2.6-0.3c-1,0.6-1,1.9-0.3,2.7
					c0.5,0.6,1.6,0.5,2.1,0c0.6-0.6,0.5-1.5,0-2.1c0,0,0-0.1-0.1-0.1c0.1,0.4,0.3,0.7,0.4,1.1c0,0.1,0,0.1,0,0.2
					c-0.1,0.2-0.3,0.4-0.4,0.7c0,0-0.1,0.1-0.1,0.1c-0.3,0.1-0.5,0.1-0.8,0.2c-0.1,0-0.1,0-0.2-0.1c0.1,0.1,0.2,0.1,0.3,0.2
					c0.2,0.1,0.4,0.2,0.5,0.3c0.3,0.2,0.6,0.3,0.9,0.5c0.7,0.4,1.3,0.7,2,1.1c0.6,0.3,1.3,0.7,1.9,1c0.4,0.2,0.7,0.4,1.1,0.6
					c0.1,0.1,0.3,0.1,0.4,0.2c0.1,0.1,0.2,0.1,0.3,0.2c0.3,0.2,0.2,0-0.2-0.4c0-0.3,0-0.5,0-0.8c-0.1,0.5-0.4,1-0.9,1.4
					c-0.5,0.5-0.9,0.7-1.5,1.1c-0.5,0.3-1.1,0.6-1.5,0.9c0.2-0.1,0.4,0.3,0,0c-0.1-0.1-0.3-0.3-0.5-0.4c-0.3-0.3-0.7-0.6-1-0.8
					c-0.7-0.6-1.4-1.1-2.2-1.6c-0.3-0.2-0.7-0.5-1-0.7c-0.2-0.1-0.4-0.2-0.6-0.4c-0.1-0.1-0.2-0.1-0.3-0.2c0,0,0,0,0.1,0.1
					c0,0.2,0.1,0.4,0.2,0.5c0-0.1,0-0.1,0.1-0.2c0,0,0.1-0.2,0.2-0.3c0.2-0.3,0.3-0.5,0.5-0.7c0.4-0.4,0.9-0.8,1.4-1
					c0.8-0.3,1.3-1,1-1.8C45.3,65,44.4,64.3,43.6,64.6L43.6,64.6z"/>
			</g>
		</g>
		<g>
			<g>
				<path class="st1" d="M43.7,63.8c-2,0.9-4,2.1-4.9,4.1c-0.4,1-0.6,2.2-0.3,3.2c0.4,1.2,1.6,1.8,2.8,1.8c1.1,0,2.1-0.6,3-1.2
					c0.9-0.6,1.7-1.3,2.3-2.3c1-1.6,0.5-4.1-0.9-5.3c-0.6,0.8-1.2,1.6-1.8,2.4c1.3,0.7,2.6,1.4,4,2c0.9,0.4,1.8,0.8,2.7,1.3
					c0.2,0.1,0.4,0.2,0.6,0.3c0.3,0.1,0.2,0.2-0.1-0.1c0.4-0.9,0.7-1.7,1.1-2.6c0.2,0,0.5,0.1,0.7,0.2c0,0,0,0-0.1,0
					c-0.1,0-0.1,0-0.2-0.1c-0.3-0.1-0.3-0.3,0.1,0.1c-0.2,0.8-0.4,1.7-0.7,2.5c0,0,0,0,0,0c-0.3,0-0.5,0-0.8,0
					c0.4,0.1-0.3-0.1,0.1,0c0.5,0.2,0.9,0.4,1.4,0.6c0.7,0.3,1.6,0.2,2.1-0.5c0.4-0.6,0.2-1.7-0.5-2.1c-0.5-0.2-1-0.5-1.6-0.7
					c-0.5-0.2-0.9-0.4-1.4-0.3c-1.1,0.4-1.5,1.7-0.7,2.5c0.3,0.4,1.1,0.7,1.6,0.7c1.4,0,1.9-1.6,1.1-2.6c-0.2-0.3-0.6-0.4-0.9-0.5
					c-0.9-0.4-1.8-0.9-2.7-1.3c-1.4-0.6-2.8-1.4-4.2-2.1c-0.7-0.3-1.5-0.2-1.9,0.4c-0.4,0.6-0.5,1.5,0.1,2c0.3,0.2,0.4,0.5,0.5,0.9
					c0,0.2,0.1,0.3,0.1,0.6c0,0.3,0-0.2,0,0.1c0,0.1,0,0.1,0,0c0,0.1-0.1,0.1-0.1,0.2c-0.3,0.4-0.7,0.8-1.1,1.1
					c-0.5,0.3-1,0.8-1.6,0.9c0,0-0.1,0-0.1,0c0.1-0.1,0,0.4,0.1,0.1c0,0.1,0-0.3,0-0.2c0-0.5,0.3-1,0.6-1.3c0.8-1,2.1-1.6,3.3-2.1
					c0.7-0.3,0.9-1.4,0.5-2.1C45.3,63.6,44.4,63.4,43.7,63.8L43.7,63.8z"/>
			</g>
		</g>
		<g>
			<g>
				<path class="st1" d="M40.4,72.8c1.4,1.1,2.8,2.1,4.3,3c1.6,1,3.2,1.8,5.1,1.1c1.5-0.6,3-1.6,4-2.9c1-1.3,1.9-2.9,1.5-4.5
					c-0.5-1.9-3.4-1.1-2.9,0.8c0-0.1,0,0,0,0.1c0-0.1-0.1,0.2-0.1,0.2c-0.1,0.2-0.2,0.4-0.3,0.6c-0.2,0.4-0.5,0.8-0.8,1.2
					c-0.7,0.7-1.8,1.6-2.8,1.8c-0.4,0.1-0.8-0.2-1.2-0.4c-0.6-0.3-1.2-0.7-1.8-1.1c-1.2-0.8-2.4-1.6-3.5-2.5
					c-0.6-0.5-1.7-0.1-2.1,0.5C39.4,71.5,39.8,72.3,40.4,72.8L40.4,72.8z"/>
			</g>
		</g>
	</g>
</g>
<g>
	<path class="st8" d="M124.8,73c-0.5-1.5-1.3-3-1.9-4.4c-0.6-1.5-1.2-3-1.8-4.5c-2.4-6.1-4.6-12.2-6.6-18.4c-1.1-3.3-2-6.7-2.6-10.2
		c-0.4-2.8-0.4-6-2.7-8c-0.1-0.1-0.1-0.1-0.2-0.1c-0.2-0.6-1.2-0.7-1.6,0C102,39.7,96.1,51.9,89.8,64c-1.6,3.1-3.3,6.2-5.7,8.7
		c-0.4,0.4-0.4,1.2,0.2,1.4c3.2,1.1,6.3,2.1,9.5,3.2c3,1,6,2,9.2,2.5c5.6,0.9,11.4,0.2,16.7-1.9c1.3-0.5,2.6-1.1,3.8-1.8
		C124.6,75.4,125.3,74.4,124.8,73z"/>
	<path class="st9" d="M108,51.4c0.6-0.6,1.1-1.3,0.9-2.2c-0.1-0.5-0.5-0.7-0.9-0.7c-1.1,0.1-2.2,0.2-3.3,0.3c-0.1,0-0.1,0-0.2,0
		c0,0,0,0,0-0.1c0-0.2-0.1-0.4-0.2-0.6c-0.1-0.5-0.3-1-0.6-1.4c-0.2-0.4-0.6-0.8-1.1-0.8c-0.6,0-0.9,0.4-1.1,0.8
		c-0.5,1-0.9,2.1-1.4,3.1c-0.1,0.1-0.1,0.3-0.1,0.4c-0.7-0.3-1.4-0.5-2.1,0c-0.9,0.6-1,1.9-0.1,2.5c0.4,0.3,0.8,0.3,1.2,0.5
		c0,0,0.2,0.1,0.3,0.1c0,0,0,0,0,0c-0.7,0.9-1,1.9-0.9,3.1c0,0.4,0.4,0.7,0.7,0.7c1.4,0.1,2.4-0.8,3.3-1.7c0,0,0.3-0.3,0.5-0.5
		c0,0,0.1,0,0.1,0.1c0.1,0.1,0.2,0.2,0.3,0.3c0.4,0.5,0.8,1,1.3,1.4c0.5,0.4,1.2,0.7,1.8,0.7c0.9-0.1,1.2-0.8,1.1-1.6
		c-0.1-0.6-0.3-1.1-0.6-1.7c-0.2-0.4-0.5-0.9-0.3-1.3C106.7,52.1,107.6,51.8,108,51.4z"/>
	<path class="st9" d="M121.2,71.7c-0.2-0.2-0.4-0.3-0.7-0.5c0,0-0.2-0.2-0.4-0.3c0.1,0,0.1-0.1,0.1-0.1c0.3-0.2,0.5-0.3,0.7-0.6
		c0.4-0.5,0.6-1.2,0.5-1.8c0-0.4-0.4-0.6-0.7-0.7c-0.6-0.1-1.1,0-1.7,0.3c-0.3,0.1-0.7,0.3-1.1,0.2c0,0,0,0-0.1,0c0,0,0,0,0,0
		c0-0.1,0-0.2,0.1-0.4c0.1-0.4,0.1-0.8,0-1.2c0-0.3-0.2-0.7-0.5-0.8c-0.4-0.2-0.9,0-1.1,0.5c-0.2,0.6-0.4,1.3-0.6,1.9
		c0,0,0,0.1-0.1,0.2c0,0,0,0,0,0c-0.3,0-0.8-0.1-1.1-0.1c-1.1-0.1-2.4,0.2-2.8,1.3c-0.4,1,0.3,1.9,1.2,2.2c0.4,0.1,0.7,0.2,1.1,0.2
		c0.1,0,0.2,0.1,0.3,0.1c-0.1,0.6-0.2,1.2-0.4,1.8c-0.1,0.6-0.4,1.3,0.1,1.8c1,1.1,2.3-0.4,2.8-1.2c0.2-0.3,0.5-0.8,0.9-0.9
		c0.4-0.1,0.9,0.5,1.2,0.6c0.9,0.5,2.4,0.2,2.6-1C122,72.7,121.7,72.1,121.2,71.7z"/>
	<path class="st9" d="M94.7,67.4c-0.7-0.4-1.5-0.3-2.3-0.1c-0.2,0-0.8,0.2-0.9,0c-0.1-0.2,0.1-0.8,0.2-1c0.2-1,0.3-2.1,0.2-3.1
		c-0.1-1.1-1.8-0.8-1.6,0.3c0,0,0,0,0,0.1c0,0-0.1,0-0.1,0c-0.8-0.1-1.4,0.5-1.6,1.2c-0.3,0.8-0.6,1.6-1,2.4
		c-0.4,0.8-0.9,1.5-1.4,2.2c-0.5,0.7-1,1.5-1,2.4c0,0.5,0.3,0.8,0.7,0.9c0.6,0.1,1.3,0.1,1.9,0.1c0.3,0,0.6-0.1,0.8-0.2
		c0.1,0,0.4-0.2,0.7-0.3c0.1,0.2,0.2,0.4,0.2,0.5c0.2,0.3,0.4,0.7,0.6,1c0.4,0.6,1.1,1.1,1.8,1.2c1,0.1,1.5-0.7,1.4-1.6
		c0-0.8-0.6-1.4-0.6-2.2c-0.1-0.7,0.7-0.6,1.2-0.7c0.7-0.2,1.4-0.6,1.7-1.3C95.8,68.5,95.4,67.7,94.7,67.4z"/>
	<path class="st9" d="M113,39.2c-0.1-0.8-0.4-1.6-0.6-2.4c-0.2-0.8-0.3-1.7-0.3-2.5c0-0.7,0.2-1.9-0.7-2.3c-0.2-0.1-0.4-0.1-0.5,0
		c-0.5-0.3-1.2-0.1-1.2,0.6c-0.1,1.2-1.2,2.2-2.5,2c-0.8-0.1-1.4-0.4-2.2-0.1c-0.7,0.3-1.2,1-1.1,1.8c0.1,0.8,0.7,1.3,1.3,1.7
		c0.4,0.2,0.9,0.5,0.8,1c-0.1,0.5-0.5,1-0.8,1.5c-0.3,0.6-0.5,1.2-0.3,1.9c0.1,0.6,0.8,0.9,1.3,0.5c0.6-0.5,2.4-2,2.9-0.6
		c0.2,0.7,0.3,1.3,0.9,1.8c0.6,0.4,1.4,0.5,1.9,0c0.5-0.5,0.6-1.4,0.8-2.1C113.1,41,113.1,40.1,113,39.2z"/>
	<path class="st9" d="M109,66.6c0.3-0.2,0.7-0.4,0.9-0.6c0.5-0.5,0.7-1.3,0.4-1.9c-0.3-0.8-1.2-1-2-0.7c-0.5,0.2-0.9,0.5-1.3,0.5
		c0.1-0.9,0.1-1.7,0-2.6c-0.1-0.6-0.6-0.8-1.1-0.6c-0.1,0-0.2-0.1-0.2-0.1c-0.5-0.1-0.8,0.3-0.9,0.7c-0.1,0.4-0.4,0.8-0.8,1
		c-0.5,0.3-1,0.2-1.6,0c-0.7-0.2-1.3-0.3-2,0c-0.7,0.3-1.1,0.9-1,1.6c0.1,0.8,0.6,1.3,1.1,1.9c0.3,0.3,0.5,0.6,0.8,0.9
		c0.1,0.2,0.3,0.3,0.2,0.4c-0.1,0.3-0.7,0.6-1,0.9c-0.4,0.5-0.5,1.1-0.3,1.6c0.2,0.6,0.8,0.9,1.4,1c0.7,0.1,1.3-0.1,1.8-0.5
		c0.4-0.3,0.9-0.9,1.4-1c0.4-0.1,0.6,0.6,0.7,0.9c0.3,0.6,0.7,1.1,1.2,1.3c0.6,0.3,1.4,0.1,1.8-0.4c0.5-0.6,0.4-1.5,0.2-2.2
		c-0.1-0.4-0.2-0.7-0.4-1.1c-0.1-0.2-0.3-0.5-0.2-0.7C108.4,66.9,108.8,66.7,109,66.6z"/>
	<path class="st9" d="M118.8,58c-0.3-0.6-0.5-1.3-0.6-1.9c-0.3-1.4-0.3-2.8-0.5-4.3c-0.1-0.6-0.7-0.8-1.1-0.6c0-0.4-0.4-0.7-0.7-0.8
		c-0.5-0.1-0.8,0.3-0.9,0.7c-0.1,0.5-0.3,1-0.6,1.4c-0.2,0.3-0.5,0.4-0.9,0.4c-0.9,0-1.9-0.1-2.6,0.7c-0.8,1-0.2,2.4,0.7,3.1
		c0.2,0.2,0.9,0.5,0.9,0.7c0,0.2-0.2,0.5-0.3,0.6c-0.2,0.3-0.4,0.5-0.6,0.8c-0.6,1-0.2,2.3,1,2.7c1.1,0.4,2.1-0.1,2.9-0.8
		c0.1-0.1,0.3-0.2,0.4-0.4c0,0,0,0,0.1,0c0.3,0.3,0.6,0.6,1,0.8c1.1,0.5,2.1-0.4,2.3-1.5C119.3,59.2,119,58.6,118.8,58z"/>
	<path class="st9" d="M106.1,79.2c-0.1-0.9-0.2-1.9-0.4-2.8c-0.1-0.5-0.1-1.2-0.5-1.6c-0.5-0.4-1.1-0.2-1.6,0.1
		c-0.9,0.6-0.9,0.3-1.7,1.1c-0.4,0-1.6,1.3-1.7,1.7c-0.1,0.3-0.2,0.6-0.3,0.9c-0.1,0.4,0,0.8,0.4,1c0.3,0.2,0.6,0.1,0.9,0
		c1.3,0.2,2.7,0.3,4,0.4C105.7,80.2,106.2,79.8,106.1,79.2z"/>
	<g>
		<g>
			<path class="st1" d="M84.4,74.5c10.5-15.1,15.7-33.3,26.4-48.3c-0.9-0.1-1.8-0.2-2.7-0.4c4.3,16.7,9.7,33.2,16,49.2
				c0.1-0.5,0.3-1,0.4-1.5c-4.7,4.8-11.7,6.2-18.2,5.6c-7.6-0.8-15.5-3.2-22.3-6.6c-1.7-0.9-3.2,1.7-1.5,2.6
				c7.5,3.7,15.9,6.3,24.2,7.1c7.1,0.6,14.8-1.2,19.9-6.5c0.3-0.4,0.6-1,0.4-1.5c-6.4-16.1-11.7-32.5-16-49.2
				c-0.3-1.3-2-1.4-2.7-0.4C97.5,39.7,92.4,57.9,81.8,73C80.7,74.6,83.3,76.1,84.4,74.5L84.4,74.5z"/>
		</g>
	</g>
</g>
</svg>
