<?xml version="1.0" encoding="utf-8"?>
<!-- Generator: Adobe Illustrator 26.3.1, SVG Export Plug-In . SVG Version: 6.00 Build 0)  -->
<svg version="1.1" id="Calque_1" xmlns="http://www.w3.org/2000/svg" xmlns:xlink="http://www.w3.org/1999/xlink" x="0px" y="0px"
	 viewBox="0 0 200 200" style="enable-background:new 0 0 200 200;" xml:space="preserve">
<style type="text/css">
	.st0{fill:#FD5A5C;}
	.st1{fill:#666666;}
	.st2{fill:#FFCC99;}
	.st3{fill:#E7F4DF;}
	.st4{fill:none;stroke:#FFFFCC;stroke-miterlimit:10;}
	.st5{fill:#0F0F23;}
	.st6{fill:#FFFFCC;}
	.st7{fill:#CCCCCC;}
	.st8{fill:#79A2D8;}
</style>
<g>
	<path class="st0" d="M91.6,182.4c-0.3-1.5-1.1-2.8-2.3-3.7c-0.1-0.1-0.1-0.1-0.2-0.2c-0.1-0.1-0.3-0.2-0.4-0.3
		c-0.3-0.2-0.6-0.4-0.9-0.6c-0.7-0.4-1.5-0.7-2.3-0.9c-1.2-0.3-2.3-0.2-3.3,0.6c-0.7,0.6-1.2,1.4-1.8,2.1c-0.7,0.8-1.5,1.6-1.9,2.6
		c-0.4,1.2,0.3,2.5,1.5,2.8c1,0.2,2.1,0,3.1-0.1c2.4-0.1,4.7-0.3,7.1-0.4C91.2,184.2,91.8,183.4,91.6,182.4z"/>
	<path class="st0" d="M57.1,181.6c-0.5-1-1.3-1.8-2.3-2.5c-2.1-1.4-5-1.3-7.1,0c-1.1,0.7-2.1,1.7-3,2.7c-1,1.1-1.7,2.3-1.7,3.8
		c0,0.8,0.5,1.2,1.1,1.4c1.8,1.5,4.3,1.3,6.4,1c1.3-0.2,2.6-0.4,3.9-0.8c1.2-0.3,3.1-0.7,3.5-2.1C58.1,183.9,57.6,182.5,57.1,181.6z
		"/>
	<path class="st1" d="M62.2,117.3c0-4,0.2-8,0.6-12c0.1-1-1-1.6-1.8-1.4c-3.9,1.1-7.8,2.3-11.7,3.4c-0.4-0.3-1-0.4-1.5-0.2
		c-2,0.9-4,1.7-6.1,2.4c-0.8,0.2-1.5,0.4-2.3,0.7c-1,0.3-1.2,1.3-0.9,2c-1,0.6-1.9,1.2-2.9,1.8c-0.1,0-0.1,0.1-0.2,0.1
		c-0.1,0.1-0.2,0.1-0.3,0.2c-1.9,1.2-3.9,2.5-5.8,3.9c-0.7,0.5-0.8,1.3-0.5,1.9c-1.4,1.2-2.8,2.3-4.2,3.4c-0.6,0.5-0.9,1.2-0.5,1.9
		c-0.2,0.1-0.3,0.3-0.5,0.5c-4.4,7.3-3.8,26.6-0.2,27.2c3.5,0.6,11.6,0,15.1-0.4c7-0.7,14.3-2.3,21.2,0c1.2,0.4,1.9-0.8,1.8-1.8
		c-0.5-3.7,0.2-7.5,0.8-11.1c0.6-3.7,0.8-7.4,0.6-11.1C62.5,124.9,62.2,121.1,62.2,117.3z"/>
	<path class="st2" d="M192,174.7c-0.2-7.6-0.4-15.1-0.6-22.7c-0.1-3.7-0.1-7.4-0.3-11c-0.2-3.1,1.6-9.1-0.3-11.7
		c-1.5-2.1-6.3-0.7-8.9-1c-1.2-0.1-2.4,0-3.5,0.5c-0.6,0.3-1.1,0.6-1.6,1c-0.7,0.6-0.7,1.3-0.7,2.2c-0.1,3.7-0.4,7.5-0.8,11.2
		c-0.2,1.7-0.4,3.5-0.7,5.2c-0.1,0.9-0.3,1.8-0.5,2.7c-0.2,0.9,5.7,0.5,4.8,0.6c-1.6,0.2-3.3,0.1-4.9,0.1c-2.1,0-4.2,0.1-6.3,0.1
		c-3.7,0.1-7.4,0.2-11.2,0.2c-7.8,0.2-15.5,0.3-23.3,0.5c-16.8,0.3-33.7,0.7-50.5,1c-0.2-0.4-0.6-0.6-1.2-0.6
		c-10.4-0.1-20.7,0-31.1,0.3c-9.8,0.3-19.7,1.1-29.6,0.5c-5.1-0.3,2.9-1.3-2-2.7c0-0.5,0-0.9,0-1.4c0.1-0.3,0.1-0.7-0.1-1.1
		c-0.5-1.1-1-2.3-1.4-3.4c0.7-0.1,1.3-0.6,1.3-1.4c-0.1-2.9-0.8-5.7-1.9-8.3c-0.1-2.3-0.1-4.7-0.1-6.9c-0.1-5.4-0.2-10.7-0.3-16.1
		c-0.2-10.7-0.3-21.5-0.4-32.2C16,74.3,16,68.2,15.9,62.1c0-0.8-0.7-1.4-1.5-1.5c-1.9,0-3.8-0.1-5.8-0.1C8,59.5,6,59.9,6,61.3
		c0.2,16.5,0.6,33,1.2,49.5s1.2,33,2.1,49.5c0.5,9.3,1,18.7,1.6,28c0.1,1.1,1.2,1.8,2.2,1.3c2.1-1.2,4.2-2,6.5-2.5
		c0.8-0.2,1.2-1.1,1-1.8c-0.3-1.4,0.6-1.9,0.4-3.3c0.8-0.1,0.4-1.8,0.2-2.8c-0.4-2-0.6-4.1-0.8-6.1c0.7-0.1,1.3-0.6,1.3-1.4
		c0.1-1.3-0.1-2.6-0.5-3.8c0.5-0.7-3-1.3-2.3-1.5c2.4-0.9,0.6-0.4,3.1-0.5c6-0.2,7.7-0.4,13.7-0.6c12.1-0.4,24.2-0.6,36.3-0.8
		c24.2-0.4,48.4-0.5,72.5-0.2c13.1,0.1,20,1.1,33.1,1.4c0.6,5.7-3,12.6,2.8,16.2c2.1,1.3,6.9,2.2,9,0.8
		C192,180.8,192.1,177.5,192,174.7z"/>
	<g>
		<g>
			<g>
				<path class="st3" d="M4.2,60.9c-1,16.5,0.1,33,0.8,49.4c0.8,16.7,1.5,33.4,2.3,50.1c0.4,9.4,0.8,18.8,1.3,28.2
					c0,0.7,0.7,1.6,1.5,1.5c3.9-0.5,7.7-0.6,11.6-0.7c0.8,0,1.5-0.7,1.5-1.5c0.2-7.3,0.8-14.6,0.5-21.8c-0.4,0.5-0.7,1-1.1,1.4
					c1.5-0.2,2.2-0.3,3.8-0.5c1.8-0.2,3.5-0.3,5.3-0.4c4.4-0.3,8.9-0.5,13.3-0.6c11.4-0.4,22.8-0.4,34.3-0.4
					c12.9,0,25.8,0.1,38.6,0.2c11.6,0.1,23.3,0.3,34.9,0.4c7.9,0.1,15.7,0.2,23.6,0.1c0.6,0,1.2,0,1.8,0c-0.5-0.5-1-1-1.5-1.5
					c0.1,6,0.1,11.9,0.2,17.9c0,0.9,0.7,1.4,1.5,1.5c4.3,0.4,8.7,0.7,13,1.1c0.8,0.1,1.5-0.7,1.5-1.5c1-18.5,0.6-37-1.2-55.4
					c-0.1-0.8-0.6-1.5-1.5-1.5c-4.7-0.2-9.4,0-14.1,0.5c-0.8,0.1-1.5,0.6-1.5,1.5c0.2,7.6,0,15.1-0.7,22.7c0.4-0.5,0.7-1,1.1-1.4
					c-0.4,0.1-0.7,0.2-1.1,0.2c-0.2,0-0.4,0.1-0.6,0.1c-0.4,0.1,0.1,0-0.1,0c-0.1,0-0.3,0-0.4,0.1c-1.4,0.2-2.7,0.3-4.1,0.4
					c-3.9,0.3-7.9,0.4-11.9,0.5c-11.5,0.3-23,0.4-34.6,0.5c-13.5,0.1-27.1,0-40.6,0c-12.4,0-24.7-0.1-37.1-0.1
					c-7.8,0-15.7-0.1-23.5,0.2c-0.5,0-1,0-1.5,0.1c-1.9,0.1-1.9,3.1,0,3c7.1-0.4,14.2-0.2,21.3-0.2c12,0,24.1,0.1,36.1,0.1
					c13.6,0,27.1,0.1,40.7,0.1c12,0,23.9-0.1,35.9-0.4c4.3-0.1,8.6-0.2,12.9-0.5c2.7-0.2,5.5-0.3,8.2-0.8c0.4-0.1,0.7-0.1,1-0.2
					c0.7-0.2,1-0.8,1.1-1.4c0.7-7.5,0.9-15.1,0.7-22.7c-0.5,0.5-1,1-1.5,1.5c4.7-0.5,9.4-0.7,14.1-0.5c-0.5-0.5-1-1-1.5-1.5
					c1.8,18.4,2.2,36.9,1.2,55.4c0.5-0.5,1-1,1.5-1.5c-4.3-0.4-8.7-0.7-13-1.1c0.5,0.5,1,1,1.5,1.5c-0.1-6-0.1-11.9-0.2-17.9
					c0-0.8-0.7-1.5-1.5-1.5c-7.2,0.2-14.5,0.1-21.7,0c-11.4-0.1-22.7-0.3-34.1-0.4c-12.9-0.1-25.7-0.3-38.6-0.3
					c-11.8,0-23.6,0-35.4,0.3c-8.1,0.2-16.3,0.4-24.4,1.5c-0.7,0.1-1.4,0.2-2.2,0.3c-0.6,0.1-1.1,0.8-1.1,1.4
					c0.2,7.3-0.4,14.6-0.5,21.8c0.5-0.5,1-1,1.5-1.5c-3.9,0.1-7.7,0.2-11.6,0.7c0.5,0.5,1,1,1.5,1.5c-0.7-16.6-1.5-33.3-2.2-49.9
					c-0.7-16.7-1.6-33.3-2.2-50c-0.3-9.3-0.4-18.6,0.1-27.9C7.3,59,4.3,59,4.2,60.9L4.2,60.9z"/>
			</g>
		</g>
		<g>
			<g>
				<path class="st3" d="M20.7,152.8c-1.8-23.9-2.4-47.9-2.5-71.8c-0.1-6.9-0.1-13.8-0.1-20.7c0-0.8-0.7-1.6-1.5-1.5
					c-3.4,0.3-6.8,0.1-10.1,0.4c-1.9,0.1-1.9,3.1,0,3c3.4-0.3,6.8-0.1,10.1-0.4c-0.5-0.5-1-1-1.5-1.5c0,24.2,0.2,48.4,1.4,72.6
					c0.3,6.6,0.7,13.2,1.2,19.9C17.9,154.7,20.9,154.8,20.7,152.8L20.7,152.8z"/>
			</g>
		</g>
		<path class="st4" d="M178.2,176.7"/>
	</g>
	<g>
		<g>
			<path class="st3" d="M40.8,148.2c0.7,0.4,1.4,0.7,2.1,1.1c0.8,0.4,1.5,0.9,2.4,0.6c1.8-0.7,2.1-3.3,2.1-4.9
				c-0.3,0.2-0.6,0.5-0.9,0.7c1.2,0.3,2.5,0.7,3.7,0.6c1.2-0.1,2.2-0.9,2.4-2.1c0.1-0.7,0-1.5-0.1-2.3c-0.1-0.7-0.3-1.5-0.4-2.2
				c-0.2-0.9-1.6-0.5-1.4,0.4c0.2,1.1,0.5,2.3,0.6,3.4c0,0.8-0.4,1.3-1.2,1.3c-1,0-2-0.4-3-0.6c-0.5-0.1-1,0.2-0.9,0.7
				c0,0.7-0.1,1.2-0.2,1.8c-0.1,0.4-0.2,0.8-0.4,1.1c-0.2,0.3-0.4,0.5-0.6,0.6c-0.1,0-0.1,0-0.2,0c-0.2,0-0.1,0,0.2,0.1c0,0,0,0,0,0
				c-0.1-0.1-0.2-0.1-0.3-0.1c-0.4-0.2-0.7-0.4-1.1-0.6c-0.6-0.3-1.2-0.6-1.8-0.9C40.7,146.5,39.9,147.8,40.8,148.2L40.8,148.2z"/>
		</g>
	</g>
	<g>
		<g>
			<path class="st3" d="M22,151.1c-1.1-9.3,0-19.1,4.6-27.5c4.6-8.4,12.6-13.9,21.6-16.9c5.1-1.7,10.5-2.7,15.9-3.1
				c-0.5-0.5-1-1-1.5-1.5c1,9.9,0.6,19.8-0.2,29.6c-0.7,9.8-1.6,19.6-2.3,29.4c-0.2,1.9,2.8,1.9,3,0c0.8-9.8,1.6-19.6,2.3-29.4
				c0.7-9.9,1.2-19.8,0.2-29.6c-0.1-0.7-0.6-1.6-1.5-1.5c-10,0.9-20.3,3.3-28.7,9.1c-8.3,5.8-13.7,14.5-15.7,24.4
				c-1.1,5.6-1.3,11.3-0.6,17C19.3,153,22.3,153,22,151.1L22,151.1z"/>
		</g>
	</g>
	<g>
		<g>
			<path class="st3" d="M63.7,161.6c1.7-2.7,4-4.9,6.8-6.3c3.1-1.6,6.5-2.1,10-2.1c8-0.2,16.1-0.2,24.1-0.3c8-0.1,16.1-0.3,24.1,0
				c8,0.2,16,1.3,24.1,0.8c8.9-0.5,17.8-1.9,26.7-1c1.2,0.1,1.8-1.3,1.3-2.3c-8-15.1-23-24.3-37.3-32.6c-8.5-4.9-17.1-9.8-26.5-12.5
				c-9.8-2.9-19.9-4.9-30-6c-5.7-0.7-11.5-0.9-17.3-0.6c-1.8,0.1-3.1,0.7-4.5,1.9c-1.2,1-2.4,2.4-1.6,4c0.9,1.7,3.4,0.2,2.6-1.5
				c0,0,0.1,0.7,0.1,0.7c0,0,0.1-0.2,0.1-0.2c0.2-0.1,0.4-0.4,0.6-0.6c0.5-0.4,1-0.9,1.6-1.2c0.6-0.2,1.3-0.2,2-0.2
				c1.3-0.1,2.6-0.1,3.9-0.1c4.7,0,9.5,0.3,14.2,0.9c9.3,1.2,18.8,3.1,27.8,5.8c8.9,2.6,16.9,7.2,24.9,11.8
				c6.8,3.9,13.5,7.9,19.7,12.6c6.9,5.3,13.1,11.6,17.2,19.3c0.4-0.8,0.9-1.5,1.3-2.3c-8.2-0.8-16.4,0.3-24.5,0.9
				c-4.1,0.3-8.1,0.4-12.2,0.2c-4.2-0.2-8.4-0.6-12.6-0.8c-8.3-0.3-16.6-0.1-24.9,0c-8.3,0.1-16.6,0.1-24.9,0.3
				c-4,0.1-7.9,0.7-11.5,2.6c-3.2,1.7-6,4.3-7.9,7.4C60,161.7,62.6,163.2,63.7,161.6L63.7,161.6z"/>
		</g>
	</g>
	<g>
		<g>
			<path class="st3" d="M31.2,189.3c4.9,0,9.8,0,14.7,0c2.4,0,4.8,0,7.2,0c1.2,0,2.3,0,3.5,0c1.1,0,2.3,0.2,3.2-0.6
				c1.2-1,1-3.5,0.9-4.8c-0.1-1.7-0.5-3.4-1.6-4.8c-2.3-3.1-7.2-3.4-10.7-2.4c-4.2,1.3-7.2,5.2-6.4,9.7c0.5-0.6,1-1.3,1.4-1.9
				c-0.3,0-0.5,0.1-0.8,0.1c-1.9,0.2-1.9,3.2,0,3c0.3,0,0.5-0.1,0.8-0.1c1-0.1,1.6-0.9,1.4-1.9c-0.8-4.1,3.7-6.4,7.2-6.4
				c1.8,0,3.7,0.3,4.7,2c0.9,1.4,0.9,3.3,0.7,4.9c0,0.2,0,0.3-0.1,0.5c-0.2,0.5,0,0.4,0.5-0.2c0,0-1.8,0-2,0c-1.2,0-2.3,0-3.5,0
				c-2.3,0-4.6,0-7,0c-4.8,0-9.6,0-14.4,0C29.2,186.3,29.2,189.3,31.2,189.3L31.2,189.3z"/>
		</g>
	</g>
	<g>
		<g>
			<path class="st3" d="M68.4,189.4c8.1-2.1,16.5-3.2,24.9-3.1c0.8,0,1.5-0.7,1.5-1.5c0.2-5-3.8-8.9-8.6-9.6c-2.4-0.3-4.8,0-6.6,1.8
				c-1.8,1.8-2.4,4.4-2.8,6.9c-0.3,1.9,2.6,2.7,2.9,0.8c0.3-1.7,0.5-3.6,1.6-5c1.1-1.5,2.8-1.8,4.5-1.5c3.4,0.5,6.2,3.1,6,6.6
				c0.5-0.5,1-1,1.5-1.5c-8.7,0-17.3,1-25.7,3.2C65.8,187,66.6,189.9,68.4,189.4L68.4,189.4z"/>
		</g>
	</g>
	<path class="st5" d="M177.3,149c-2.6-6.7-8-11.5-13.7-15.7c-6.6-4.8-13.3-9.4-20.3-13.7c-14.2-8.7-29.7-15.1-46.2-18
		c-4.5-0.8-9.1-1.3-13.6-1.6c-4.9-0.3-9.8-0.3-14.7,0.5c-0.4,0.1-0.6,0.2-0.8,0.4c-1.8,0.5-3.4,2.2-3.8,4c-0.4,1.9-0.1,3.8,0.2,5.7
		c0.3,2.2,0.4,4.4,0.5,6.6c0.3,8.7-0.6,17.5-1.5,26.1c-0.5,5-1.2,9.9-1.9,14.9c-0.2,1.2,1.4,2.7,2.4,1.4c2.1-2.5,4.3-5,7.4-6.2
		c3.2-1.3,6.8-1.5,10.2-1.8c7.5-0.6,14.9-0.3,22.4-0.1c15.3,0.5,30.5,0.6,45.8,0.2c8.7-0.2,17.3-0.5,26-1
		C176.7,150.8,177.6,150,177.3,149z"/>
	<g>
		<g>
			<g>
				<g>
					<path class="st6" d="M75.7,108.1c0.1,1.7,0.2,3.5,0.3,5.2c0,0.4,0,0.8,0.1,1.2c0,0.3,0.1,0.6,0.4,0.8c0.5,0.3,1.3-0.3,0.9-0.8
						c-0.3-0.4-0.9,0-0.6,0.4c0.2-0.1,0.3-0.2,0.2-0.3c0,0,0-0.1,0-0.1c0-0.1,0-0.3,0-0.4c0-0.3,0-0.6,0-0.8c0-0.6-0.1-1.1-0.1-1.7
						c-0.1-1.1-0.1-2.3-0.2-3.4C76.4,107.6,75.6,107.6,75.7,108.1L75.7,108.1z"/>
				</g>
			</g>
			<g>
				<g>
					<path class="st6" d="M72.5,111.5c2.4,0,4.9-0.2,7.3-0.4c0.5,0,0.5-0.8,0-0.8c-2.4,0.2-4.9,0.3-7.3,0.4
						C72,110.8,72,111.5,72.5,111.5L72.5,111.5z"/>
				</g>
			</g>
			<g>
				<g>
					<path class="st6" d="M73.4,115.3c1.6-1.9,3.1-3.9,4.4-6c0.3-0.4-0.4-0.8-0.6-0.4c-1.3,2-2.7,4-4.2,5.8
						C72.6,115.1,73.1,115.6,73.4,115.3L73.4,115.3z"/>
				</g>
			</g>
			<g>
				<g>
					<path class="st6" d="M72.8,108c1.9,2.4,3.9,4.6,6.2,6.6c0.4,0.3,0.9-0.2,0.5-0.5c-2.2-2.1-4.3-4.3-6.2-6.6
						C73,107.1,72.5,107.7,72.8,108L72.8,108z"/>
				</g>
			</g>
		</g>
		<g>
			<g>
				<g>
					<path class="st6" d="M93.1,121.4c-0.1,2.1,0,4.1,0.4,6.1c0.1,0.5,0.8,0.3,0.7-0.2c-0.4-2-0.5-3.9-0.4-5.9
						C93.8,120.9,93.1,120.9,93.1,121.4L93.1,121.4z"/>
				</g>
			</g>
			<g>
				<g>
					<path class="st6" d="M89.9,124.9c2.6,0,5.2,0,7.7,0c0.5,0,0.5-0.8,0-0.8c-2.6,0-5.2,0-7.7,0C89.5,124.2,89.5,124.9,89.9,124.9
						L89.9,124.9z"/>
				</g>
			</g>
			<g>
				<g>
					<path class="st6" d="M96.1,121.5c-1.5,1.9-3.1,3.7-4.8,5.4c-0.3,0.3,0.2,0.9,0.5,0.5c1.7-1.7,3.3-3.5,4.8-5.4
						c0.1-0.2,0.2-0.4,0-0.5C96.5,121.3,96.3,121.3,96.1,121.5L96.1,121.5z"/>
				</g>
			</g>
			<g>
				<g>
					<path class="st6" d="M91.6,123.2c0.9,1.1,1.8,2,2.9,2.9c0.3,0.2,0.5,0.4,0.8,0.7c0.2,0.2,0.4,0.4,0.7,0.4
						c0.5,0.1,1.2-0.2,0.9-0.8c-0.2-0.4-0.9-0.1-0.6,0.4c0,0,0.1-0.3,0.1-0.3c0,0,0.2,0,0,0c-0.1,0-0.1,0-0.2,0
						c-0.2-0.1-0.4-0.3-0.5-0.4c-0.4-0.3-0.8-0.7-1.2-1.1c-0.8-0.7-1.5-1.5-2.2-2.3C91.9,122.3,91.3,122.8,91.6,123.2L91.6,123.2z"
						/>
				</g>
			</g>
		</g>
		<g>
			<g>
				<g>
					<path class="st6" d="M89.6,107.8c0,1.4,0,2.9,0,4.3c0,0.3,0,0.5,0.2,0.7c0.2,0.2,0.5,0.3,0.7,0.1c0.5-0.3,0.1-1.2-0.4-0.9
						c-0.4,0.2-0.1,0.9,0.4,0.6c0,0,0,0,0,0c-0.1,0-0.1,0-0.2,0.1c0,0,0,0,0,0c-0.1,0-0.1,0-0.2-0.1c0,0,0,0,0,0
						c0-0.1-0.1-0.1-0.1-0.2c0,0.1,0,0,0-0.1c0.3,0.1,0.4,0,0.4-0.1c0,0,0-0.1,0-0.1c0-0.2,0-0.4,0-0.6c0-0.4,0-0.9,0-1.3
						c0-0.8,0-1.7,0-2.5C90.4,107.3,89.7,107.3,89.6,107.8L89.6,107.8z"/>
				</g>
			</g>
			<g>
				<g>
					<path class="st6" d="M87.7,111c1.6,0,3.1,0.1,4.6,0.4c0.5,0.1,0.7-0.6,0.2-0.7c-1.6-0.3-3.2-0.5-4.8-0.5
						C87.2,110.3,87.2,111,87.7,111L87.7,111z"/>
				</g>
			</g>
			<g>
				<g>
					<path class="st6" d="M91.1,108.2c-0.6,0.8-1.2,1.6-1.9,2.3c-0.3,0.4-0.7,0.7-1,1.1c-0.2,0.2-0.3,0.4-0.5,0.5
						c-0.1,0.1-0.3,0.4-0.5,0.4c0.1,0,0.1,0,0.2,0.1c0.1,0,0.1,0.2,0,0.3c-0.1,0-0.1,0.1-0.2,0.1c0,0,0,0,0,0c0.5,0,0.5-0.7,0-0.8
						c-0.3,0-0.5,0.3-0.5,0.5c0,0.3,0.3,0.5,0.6,0.5c0.4,0,0.6-0.4,0.8-0.6c0.3-0.3,0.5-0.5,0.8-0.8c1-1.1,1.9-2.2,2.8-3.3
						c0.1-0.2,0-0.4-0.1-0.5C91.4,108,91.2,108.1,91.1,108.2L91.1,108.2z"/>
				</g>
			</g>
			<g>
				<g>
					<path class="st6" d="M88.1,109c1.4,1.4,2.8,2.8,4.2,4.2c0.3,0.3,0.9-0.2,0.5-0.5c-1.4-1.4-2.8-2.8-4.2-4.2
						C88.2,108.1,87.7,108.7,88.1,109L88.1,109z"/>
				</g>
			</g>
		</g>
		<g>
			<g>
				<g>
					<path class="st6" d="M102.1,111c-0.1,2.1,0,4.1,0.4,6.1c0.1,0.5,0.8,0.3,0.7-0.2c-0.4-2-0.5-3.9-0.4-5.9
						C102.9,110.5,102.2,110.5,102.1,111L102.1,111z"/>
				</g>
			</g>
			<g>
				<g>
					<path class="st6" d="M99,114.5c2.6,0,5.2,0,7.7,0c0.5,0,0.5-0.8,0-0.8c-2.6,0-5.2,0-7.7,0C98.5,113.8,98.5,114.5,99,114.5
						L99,114.5z"/>
				</g>
			</g>
			<g>
				<g>
					<path class="st6" d="M105.2,111.1c-1.5,1.9-3.1,3.7-4.8,5.4c-0.3,0.3,0.2,0.9,0.5,0.5c1.7-1.7,3.3-3.5,4.8-5.4
						c0.1-0.2,0.2-0.4,0-0.5C105.6,110.9,105.3,110.9,105.2,111.1L105.2,111.1z"/>
				</g>
			</g>
			<g>
				<g>
					<path class="st6" d="M100.7,112.8c0.9,1.1,1.8,2,2.9,2.9c0.3,0.2,0.5,0.4,0.8,0.7c0.2,0.2,0.4,0.4,0.7,0.4
						c0.5,0.1,1.2-0.2,0.9-0.8c-0.2-0.4-0.9-0.1-0.6,0.4c0,0,0.1-0.3,0.1-0.3c0,0,0.2,0,0,0c-0.1,0-0.1,0-0.2,0
						c-0.2-0.1-0.4-0.3-0.5-0.4c-0.4-0.3-0.8-0.7-1.2-1.1c-0.8-0.7-1.5-1.5-2.2-2.3C100.9,111.9,100.4,112.4,100.7,112.8
						L100.7,112.8z"/>
				</g>
			</g>
		</g>
	</g>
	<g>
		<g>
			<g>
				<g>
					<path class="st6" d="M107,122.2c0.1,1.7,0.2,3.5,0.3,5.2c0,0.4,0,0.8,0.1,1.2c0,0.3,0.1,0.6,0.4,0.8c0.5,0.3,1.3-0.3,0.9-0.8
						c-0.3-0.4-0.9,0-0.6,0.4c0.2-0.1,0.3-0.2,0.2-0.3c0,0,0-0.1,0-0.1c0-0.1,0-0.3,0-0.4c0-0.3,0-0.6,0-0.8c0-0.6-0.1-1.1-0.1-1.7
						c-0.1-1.1-0.1-2.3-0.2-3.4C107.7,121.7,107,121.7,107,122.2L107,122.2z"/>
				</g>
			</g>
			<g>
				<g>
					<path class="st6" d="M103.9,125.6c2.4,0,4.9-0.2,7.3-0.4c0.5,0,0.5-0.8,0-0.8c-2.4,0.2-4.9,0.3-7.3,0.4
						C103.4,124.9,103.4,125.6,103.9,125.6L103.9,125.6z"/>
				</g>
			</g>
			<g>
				<g>
					<path class="st6" d="M104.8,129.4c1.6-1.9,3.1-3.9,4.4-6c0.3-0.4-0.4-0.8-0.6-0.4c-1.3,2-2.7,4-4.2,5.8
						C103.9,129.2,104.4,129.7,104.8,129.4L104.8,129.4z"/>
				</g>
			</g>
			<g>
				<g>
					<path class="st6" d="M104.2,122.2c1.9,2.4,3.9,4.6,6.2,6.6c0.4,0.3,0.9-0.2,0.5-0.5c-2.2-2.1-4.3-4.3-6.2-6.6
						C104.4,121.2,103.9,121.8,104.2,122.2L104.2,122.2z"/>
				</g>
			</g>
		</g>
		<g>
			<g>
				<g>
					<path class="st6" d="M124.4,135.5c-0.1,2.1,0,4.1,0.4,6.1c0.1,0.5,0.8,0.3,0.7-0.2c-0.4-2-0.5-3.9-0.4-5.9
						C125.2,135.1,124.4,135.1,124.4,135.5L124.4,135.5z"/>
				</g>
			</g>
			<g>
				<g>
					<path class="st6" d="M121.3,139c2.6,0,5.2,0,7.7,0c0.5,0,0.5-0.8,0-0.8c-2.6,0-5.2,0-7.7,0C120.8,138.3,120.8,139,121.3,139
						L121.3,139z"/>
				</g>
			</g>
			<g>
				<g>
					<path class="st6" d="M127.5,135.6c-1.5,1.9-3.1,3.7-4.8,5.4c-0.3,0.3,0.2,0.9,0.5,0.5c1.7-1.7,3.3-3.5,4.8-5.4
						c0.1-0.2,0.2-0.4,0-0.5C127.9,135.5,127.6,135.4,127.5,135.6L127.5,135.6z"/>
				</g>
			</g>
			<g>
				<g>
					<path class="st6" d="M123,137.3c0.9,1.1,1.8,2,2.9,2.9c0.3,0.2,0.5,0.4,0.8,0.7c0.2,0.2,0.4,0.4,0.7,0.4
						c0.5,0.1,1.2-0.2,0.9-0.8c-0.2-0.4-0.9-0.1-0.6,0.4c0,0,0.1-0.3,0.1-0.3c0,0,0.2,0,0,0c-0.1,0-0.1,0-0.2,0
						c-0.2-0.1-0.4-0.3-0.5-0.4c-0.4-0.3-0.8-0.7-1.2-1.1c-0.8-0.7-1.5-1.5-2.2-2.3C123.2,136.4,122.7,136.9,123,137.3L123,137.3z"
						/>
				</g>
			</g>
		</g>
		<g>
			<g>
				<g>
					<path class="st6" d="M121,121.9c0,1.4,0,2.9,0,4.3c0,0.3,0,0.5,0.2,0.7c0.2,0.2,0.5,0.3,0.7,0.1c0.5-0.3,0.1-1.2-0.4-0.9
						c-0.4,0.2-0.1,0.9,0.4,0.6c0,0,0,0,0,0c-0.1,0-0.1,0-0.2,0.1c0,0,0,0,0,0c-0.1,0-0.1,0-0.2-0.1c0,0,0,0,0,0
						c0-0.1-0.1-0.1-0.1-0.2c0,0.1,0,0,0-0.1c0.3,0.1,0.4,0,0.4-0.1c0,0,0-0.1,0-0.1c0-0.2,0-0.4,0-0.6c0-0.4,0-0.9,0-1.3
						c0-0.8,0-1.7,0-2.5C121.8,121.5,121,121.5,121,121.9L121,121.9z"/>
				</g>
			</g>
			<g>
				<g>
					<path class="st6" d="M119,125.1c1.6,0,3.1,0.1,4.6,0.4c0.5,0.1,0.7-0.6,0.2-0.7c-1.6-0.3-3.2-0.5-4.8-0.5
						C118.5,124.4,118.5,125.1,119,125.1L119,125.1z"/>
				</g>
			</g>
			<g>
				<g>
					<path class="st6" d="M122.4,122.3c-0.6,0.8-1.2,1.6-1.9,2.3c-0.3,0.4-0.7,0.7-1,1.1c-0.2,0.2-0.3,0.4-0.5,0.5
						c-0.1,0.1-0.3,0.4-0.5,0.4c0.1,0,0.1,0,0.2,0.1c0.1,0,0.1,0.2,0,0.3c-0.1,0-0.1,0.1-0.2,0.1c0,0,0,0,0,0c0.5,0,0.5-0.7,0-0.8
						c-0.3,0-0.5,0.3-0.5,0.5c0,0.3,0.3,0.5,0.6,0.5c0.4,0,0.6-0.4,0.8-0.6c0.3-0.3,0.5-0.5,0.8-0.8c1-1.1,1.9-2.2,2.8-3.3
						c0.1-0.2,0-0.4-0.1-0.5C122.8,122.1,122.6,122.2,122.4,122.3L122.4,122.3z"/>
				</g>
			</g>
			<g>
				<g>
					<path class="st6" d="M119.4,123.1c1.4,1.4,2.8,2.8,4.2,4.2c0.3,0.3,0.9-0.2,0.5-0.5c-1.4-1.4-2.8-2.8-4.2-4.2
						C119.6,122.2,119.1,122.8,119.4,123.1L119.4,123.1z"/>
				</g>
			</g>
		</g>
		<g>
			<g>
				<g>
					<path class="st6" d="M133.5,125.1c-0.1,2.1,0,4.1,0.4,6.1c0.1,0.5,0.8,0.3,0.7-0.2c-0.4-2-0.5-3.9-0.4-5.9
						C134.3,124.7,133.5,124.7,133.5,125.1L133.5,125.1z"/>
				</g>
			</g>
			<g>
				<g>
					<path class="st6" d="M130.4,128.6c2.6,0,5.2,0,7.7,0c0.5,0,0.5-0.8,0-0.8c-2.6,0-5.2,0-7.7,0
						C129.9,127.9,129.9,128.6,130.4,128.6L130.4,128.6z"/>
				</g>
			</g>
			<g>
				<g>
					<path class="st6" d="M136.6,125.2c-1.5,1.9-3.1,3.7-4.8,5.4c-0.3,0.3,0.2,0.9,0.5,0.5c1.7-1.7,3.3-3.5,4.8-5.4
						c0.1-0.2,0.2-0.4,0-0.5C137,125.1,136.7,125,136.6,125.2L136.6,125.2z"/>
				</g>
			</g>
			<g>
				<g>
					<path class="st6" d="M132.1,126.9c0.9,1.1,1.8,2,2.9,2.9c0.3,0.2,0.5,0.4,0.8,0.7c0.2,0.2,0.4,0.4,0.7,0.4
						c0.5,0.1,1.2-0.2,0.9-0.8c-0.2-0.4-0.9-0.1-0.6,0.4c0,0,0.1-0.3,0.1-0.3c0,0,0.2,0,0,0c-0.1,0-0.1,0-0.2,0
						c-0.2-0.1-0.4-0.3-0.5-0.4c-0.4-0.3-0.8-0.7-1.2-1.1c-0.8-0.7-1.5-1.5-2.2-2.3C132.3,126,131.8,126.5,132.1,126.9L132.1,126.9z
						"/>
				</g>
			</g>
		</g>
	</g>
	<g>
		<g>
			<g>
				<path class="st6" d="M81,120.7c1.1,0.1,2.2,0.2,3.4,0.4c0.5,0.1,1.1,0.1,1.6,0.2c0.3,0,0.5,0.1,0.8,0.1c0.2,0,0.3,0,0.5,0
					c0.1,0,0.1,0,0.2,0c0.1,0.1,0.3,0,0.4-0.1c-0.4-0.3-0.9,0.2-0.5,0.5c0.5,0.4,1.2-0.1,0.9-0.7c-0.1-0.3-0.4-0.4-0.7-0.5
					c-0.4-0.1-0.8-0.1-1.3-0.1c-1.7-0.2-3.5-0.4-5.2-0.5C80.5,119.9,80.6,120.7,81,120.7L81,120.7z"/>
			</g>
		</g>
		<g>
			<g>
				<path class="st6" d="M83.9,116.9c-0.2,2.4-0.4,4.8-0.7,7.2c-0.1,0.5,0.7,0.7,0.7,0.2c0.3-2.5,0.6-4.9,0.7-7.4
					C84.7,116.4,83.9,116.5,83.9,116.9L83.9,116.9z"/>
			</g>
		</g>
		<g>
			<g>
				<path class="st6" d="M87.8,117.5c-1.9,1.5-3.9,2.8-6,4c-0.4,0.2,0,0.9,0.4,0.6c2.2-1.2,4.2-2.6,6.2-4.1
					C88.7,117.7,88.2,117.2,87.8,117.5L87.8,117.5z"/>
			</g>
		</g>
		<g>
			<g>
				<path class="st6" d="M80.6,117.6c2.3,2,4.4,4.2,6.3,6.5c0.3,0.4,0.8-0.2,0.5-0.5c-1.9-2.3-4.1-4.5-6.3-6.5
					C80.8,116.8,80.2,117.3,80.6,117.6L80.6,117.6z"/>
			</g>
		</g>
	</g>
	<g>
		<g>
			<g>
				<path class="st6" d="M93.5,138.7c2,0,4,0.2,5.9,0.7c0.5,0.1,0.7-0.6,0.2-0.7c-2-0.5-4-0.8-6.1-0.7
					C93.1,138,93.1,138.7,93.5,138.7L93.5,138.7z"/>
			</g>
		</g>
		<g>
			<g>
				<path class="st6" d="M96.5,135c-0.1,2.6-0.2,5.1-0.4,7.7c0,0.5,0.7,0.5,0.8,0c0.1-2.6,0.2-5.1,0.4-7.7
					C97.2,134.5,96.5,134.5,96.5,135L96.5,135z"/>
			</g>
		</g>
		<g>
			<g>
				<path class="st6" d="M93.9,141.7c2-1.4,3.9-2.9,5.7-4.6c0.4-0.3-0.2-0.9-0.5-0.5c-1.7,1.6-3.6,3.1-5.5,4.5
					C93.1,141.3,93.5,141.9,93.9,141.7L93.9,141.7z"/>
			</g>
		</g>
		<g>
			<g>
				<path class="st6" d="M94.9,137.2c0.8,0.7,1.5,1.5,2.2,2.3c0.3,0.4,0.6,0.8,0.9,1.2c0.1,0.2,0.3,0.4,0.4,0.6c0,0.1,0,0.1,0,0.2
					c0,0,0,0,0,0c0,0,0,0,0,0c0.1-0.1,0.2-0.1,0.3-0.1c-0.4-0.2-0.8,0.4-0.4,0.6c0.6,0.3,0.9-0.3,0.8-0.8c0-0.3-0.2-0.5-0.4-0.8
					c-0.2-0.3-0.4-0.6-0.6-0.8c-0.8-1.1-1.8-2.1-2.8-3C95,136.3,94.5,136.8,94.9,137.2L94.9,137.2z"/>
			</g>
		</g>
	</g>
	<g>
		<g>
			<g>
				<path class="st6" d="M80.1,134.7c0.8,0,1.6,0.1,2.4,0.1c0.4,0,0.8,0,1.2,0.1c0.2,0,0.4,0,0.6,0c0.1,0,0.2,0,0.2,0c0,0,0,0,0.1,0
					c0.1,0,0.1,0,0-0.2c0-0.1,0.1-0.1,0.1-0.2c0.1-0.1,0.2,0,0.3,0c0,0.1,0.1,0.1,0.1,0.2c0,0,0,0,0,0.1c0,0.1,0,0.1-0.1,0.2
					c0,0,0,0,0,0c0.2-0.4-0.4-0.8-0.6-0.4c-0.3,0.5,0.5,0.9,0.8,0.5c0.2-0.2,0.1-0.5-0.1-0.7c-0.2-0.2-0.5-0.2-0.7-0.2
					c-1.4-0.1-2.9-0.1-4.3-0.2C79.6,133.9,79.6,134.6,80.1,134.7L80.1,134.7z"/>
			</g>
		</g>
		<g>
			<g>
				<path class="st6" d="M82.7,132.1c-0.1,1.6,0,3.2,0.2,4.9c0,0.2,0.3,0.3,0.5,0.3c0.2-0.1,0.3-0.3,0.3-0.5
					c-0.2-1.5-0.3-3.1-0.2-4.7C83.4,131.6,82.7,131.6,82.7,132.1L82.7,132.1z"/>
			</g>
		</g>
		<g>
			<g>
				<path class="st6" d="M80.8,136c1.2-0.8,2.4-1.7,3.5-2.7c0.3-0.2,0.5-0.5,0.8-0.7c0.2-0.2,0.6-0.4,0.6-0.8c0.1-0.7-1-0.9-1-0.2
					c0,0.5,0.7,0.5,0.8,0c0,0,0,0,0,0c0,0.1,0,0.1-0.1,0.2c-0.1,0.1-0.2,0.1-0.3,0.1c0-0.1-0.1-0.1-0.1-0.2c0,0,0,0,0,0
					c0,0-0.1,0.1-0.1,0.1c-0.1,0.1-0.2,0.2-0.3,0.2c-0.2,0.2-0.4,0.3-0.6,0.5c-0.4,0.3-0.8,0.7-1.2,1c-0.8,0.6-1.6,1.2-2.4,1.8
					C80.1,135.6,80.4,136.3,80.8,136L80.8,136z"/>
			</g>
		</g>
		<g>
			<g>
				<path class="st6" d="M80.8,132.9c1.3,1.5,2.7,2.9,4,4.4c0.3,0.4,0.9-0.2,0.5-0.5c-1.3-1.5-2.7-2.9-4-4.4
					C81.1,132,80.5,132.5,80.8,132.9L80.8,132.9z"/>
			</g>
		</g>
	</g>
	<g>
		<g>
			<g>
				<path class="st6" d="M82.7,147.3c2,0,4,0.2,5.9,0.7c0.5,0.1,0.7-0.6,0.2-0.7c-2-0.5-4-0.8-6.1-0.7
					C82.2,146.5,82.2,147.3,82.7,147.3L82.7,147.3z"/>
			</g>
		</g>
		<g>
			<g>
				<path class="st6" d="M85.6,143.6c-0.1,2.6-0.2,5.1-0.4,7.7c0,0.5,0.7,0.5,0.8,0c0.1-2.6,0.2-5.1,0.4-7.7
					C86.4,143.1,85.6,143.1,85.6,143.6L85.6,143.6z"/>
			</g>
		</g>
		<g>
			<g>
				<path class="st6" d="M83.1,150.2c2-1.4,3.9-2.9,5.7-4.6c0.4-0.3-0.2-0.9-0.5-0.5c-1.7,1.6-3.6,3.1-5.5,4.5
					C82.3,149.9,82.7,150.5,83.1,150.2L83.1,150.2z"/>
			</g>
		</g>
		<g>
			<g>
				<path class="st6" d="M84,145.7c0.8,0.7,1.5,1.5,2.2,2.3c0.3,0.4,0.6,0.8,0.9,1.2c0.1,0.2,0.3,0.4,0.4,0.6c0,0.1,0,0.1,0,0.2
					c0,0,0,0,0,0c0,0,0,0,0,0c0.1-0.1,0.2-0.1,0.3-0.1c-0.4-0.2-0.8,0.4-0.4,0.6c0.6,0.3,0.9-0.3,0.8-0.8c0-0.3-0.2-0.5-0.4-0.8
					c-0.2-0.3-0.4-0.6-0.6-0.8c-0.8-1.1-1.8-2.1-2.8-3C84.2,144.9,83.7,145.4,84,145.7L84,145.7z"/>
			</g>
		</g>
	</g>
	<g>
		<g>
			<g>
				<g>
					<path class="st6" d="M129.3,143.5c1.1,1.3,2.1,2.6,3.2,3.9c0.3,0.3,0.5,0.6,0.8,1c0.2,0.3,0.5,0.5,0.8,0.5c0.6,0,0.8-1,0.2-1.2
						c-0.5-0.1-0.7,0.6-0.2,0.7c-0.1,0-0.2-0.2-0.1-0.2c0-0.1,0.1,0,0.1-0.1c0-0.1-0.2-0.2-0.2-0.2c-0.2-0.2-0.4-0.5-0.6-0.7
						c-0.4-0.5-0.8-0.9-1.2-1.4c-0.8-0.9-1.5-1.8-2.3-2.8C129.6,142.6,129,143.1,129.3,143.5L129.3,143.5z"/>
				</g>
			</g>
			<g>
				<g>
					<path class="st6" d="M128.7,148.1c2-1.5,3.9-3.1,5.8-4.7c0.4-0.3-0.2-0.8-0.5-0.5c-1.8,1.6-3.7,3.1-5.6,4.6
						C128,147.8,128.4,148.4,128.7,148.1L128.7,148.1z"/>
				</g>
			</g>
			<g>
				<g>
					<path class="st6" d="M131.7,150.6c0.2-2.4,0.2-4.9,0-7.3c0-0.5-0.8-0.5-0.8,0c0.2,2.4,0.2,4.9,0,7.3
						C131,151,131.7,151,131.7,150.6L131.7,150.6z"/>
				</g>
			</g>
			<g>
				<g>
					<path class="st6" d="M127,145.1c3,0.8,6,1.4,9,1.7c0.5,0.1,0.5-0.7,0-0.8c-3-0.3-5.9-0.9-8.8-1.7
						C126.7,144.3,126.5,145,127,145.1L127,145.1z"/>
				</g>
			</g>
		</g>
		<g>
			<g>
				<g>
					<path class="st6" d="M151.2,144c1.1,1.7,2.5,3.3,4,4.7c0.4,0.3,0.9-0.2,0.5-0.5c-1.5-1.3-2.8-2.9-3.9-4.5
						C151.6,143.2,151,143.6,151.2,144L151.2,144z"/>
				</g>
			</g>
			<g>
				<g>
					<path class="st6" d="M150.8,148.7c2.1-1.5,4.2-3,6.2-4.6c0.4-0.3,0-0.9-0.4-0.6c-2.1,1.5-4.2,3-6.2,4.6
						C150,148.3,150.4,149,150.8,148.7L150.8,148.7z"/>
				</g>
			</g>
			<g>
				<g>
					<path class="st6" d="M153.8,142.3c-0.1,2.4-0.3,4.7-0.7,7c-0.1,0.5,0.6,0.7,0.7,0.2c0.4-2.4,0.6-4.8,0.7-7.2
						C154.5,141.8,153.8,141.8,153.8,142.3L153.8,142.3z"/>
				</g>
			</g>
			<g>
				<g>
					<path class="st6" d="M151.1,146.2c1.4,0.4,2.8,0.6,4.2,0.7c0.3,0,0.7,0,1,0c0.3,0,0.5,0,0.8-0.1c0.4-0.2,0.7-0.8,0.2-1.1
						c-0.4-0.2-0.8,0.4-0.4,0.6c0-0.3,0-0.4-0.1-0.3c0,0-0.1,0-0.1,0.1c0,0-0.1,0-0.1,0c-0.2,0-0.6,0-0.8,0c-0.5,0-1-0.1-1.5-0.1
						c-1-0.1-2-0.3-3-0.6C150.8,145.4,150.6,146.1,151.1,146.2L151.1,146.2z"/>
				</g>
			</g>
		</g>
		<g>
			<g>
				<g>
					<path class="st6" d="M140.4,135c0.8,1.1,1.5,2.1,2.3,3.2c0.2,0.2,0.3,0.6,0.6,0.7c0.3,0.2,0.6,0.2,0.8-0.1
						c0.3-0.5-0.5-1.2-0.8-0.6c-0.1,0.2,0,0.4,0.1,0.5c0.2,0.1,0.4,0,0.5-0.1c0,0,0,0,0,0c-0.1,0-0.1,0.1-0.2,0.1c0,0,0,0-0.1,0
						c-0.1,0-0.1,0-0.2-0.1c0.1,0-0.1-0.1-0.1-0.1c-0.1-0.2,0.3-0.2,0.2-0.3c0,0-0.1-0.1-0.1-0.1c-0.1-0.2-0.3-0.4-0.4-0.5
						c-0.2-0.3-0.5-0.7-0.7-1c-0.5-0.7-1-1.4-1.5-2c-0.1-0.2-0.3-0.2-0.5-0.1C140.4,134.6,140.3,134.8,140.4,135L140.4,135z"/>
				</g>
			</g>
			<g>
				<g>
					<path class="st6" d="M140.7,138.8c1.3-1,2.6-1.8,4.1-2.4c0.2-0.1,0.2-0.4,0.1-0.5c-0.1-0.2-0.3-0.2-0.5-0.1
						c-1.4,0.7-2.8,1.5-4.1,2.4c-0.2,0.1-0.2,0.3-0.1,0.5C140.3,138.8,140.5,138.9,140.7,138.8L140.7,138.8z"/>
				</g>
			</g>
			<g>
				<g>
					<path class="st6" d="M141.8,134.5c0,1-0.1,2-0.2,3c0,0.5-0.1,1-0.2,1.4c0,0.2-0.1,0.5-0.1,0.7c0,0.1,0,0.3-0.1,0.4
						c0,0,0,0.1,0,0.1c-0.1,0.2,0,0.3,0.2,0.4c0.4-0.3-0.2-0.8-0.5-0.5c-0.5,0.4,0.1,1.1,0.6,0.8c0.3-0.1,0.4-0.4,0.4-0.7
						c0.1-0.4,0.1-0.7,0.2-1.1c0.2-1.5,0.3-3,0.3-4.6C142.6,134,141.9,134,141.8,134.5L141.8,134.5z"/>
				</g>
			</g>
			<g>
				<g>
					<path class="st6" d="M139.8,136.9c2,0.3,3.9,0.6,5.9,0.9c0.5,0.1,0.7-0.6,0.2-0.7c-2-0.3-3.9-0.6-5.9-0.9
						C139.6,136.1,139.3,136.8,139.8,136.9L139.8,136.9z"/>
				</g>
			</g>
		</g>
		<g>
			<g>
				<g>
					<path class="st6" d="M152.4,130.2c1.1,1.7,2.5,3.3,4,4.7c0.4,0.3,0.9-0.2,0.5-0.5c-1.5-1.3-2.8-2.9-3.9-4.5
						C152.8,129.4,152.1,129.8,152.4,130.2L152.4,130.2z"/>
				</g>
			</g>
			<g>
				<g>
					<path class="st6" d="M151.9,134.9c2.1-1.5,4.2-3,6.2-4.6c0.4-0.3,0-0.9-0.4-0.6c-2.1,1.5-4.2,3-6.2,4.6
						C151.2,134.6,151.6,135.2,151.9,134.9L151.9,134.9z"/>
				</g>
			</g>
			<g>
				<g>
					<path class="st6" d="M154.9,128.5c-0.1,2.4-0.3,4.7-0.7,7c-0.1,0.5,0.6,0.7,0.7,0.2c0.4-2.4,0.6-4.8,0.7-7.2
						C155.7,128,155,128,154.9,128.5L154.9,128.5z"/>
				</g>
			</g>
			<g>
				<g>
					<path class="st6" d="M152.3,132.5c1.4,0.4,2.8,0.6,4.2,0.7c0.3,0,0.7,0,1,0c0.3,0,0.5,0,0.8-0.1c0.4-0.2,0.7-0.8,0.2-1.1
						c-0.4-0.2-0.8,0.4-0.4,0.6c0-0.3,0-0.4-0.1-0.3c0,0-0.1,0-0.1,0.1c0,0-0.1,0-0.1,0c-0.2,0-0.6,0-0.8,0c-0.5,0-1-0.1-1.5-0.1
						c-1-0.1-2-0.3-3-0.6C152,131.6,151.8,132.4,152.3,132.5L152.3,132.5z"/>
				</g>
			</g>
		</g>
	</g>
	<g>
		<g>
			<g>
				<path class="st6" d="M106.1,142.1c1.8,0,3.5,0.2,5.2,0.7c0.5,0.1,0.7-0.6,0.2-0.7c-1.8-0.5-3.6-0.7-5.4-0.7
					C105.6,141.3,105.6,142.1,106.1,142.1L106.1,142.1z"/>
			</g>
		</g>
		<g>
			<g>
				<path class="st6" d="M108.6,138.3c-0.1,2.6-0.2,5.1-0.4,7.7c0,0.5,0.7,0.5,0.8,0c0.1-2.6,0.2-5.1,0.4-7.7
					C109.4,137.9,108.7,137.9,108.6,138.3L108.6,138.3z"/>
			</g>
		</g>
		<g>
			<g>
				<path class="st6" d="M106.5,144.9c1.7-1.4,3.4-2.9,5-4.6c0.3-0.3-0.2-0.9-0.5-0.5c-1.6,1.6-3.2,3.1-5,4.6
					c-0.2,0.1-0.1,0.4,0,0.5C106.1,145.1,106.3,145.1,106.5,144.9L106.5,144.9z"/>
			</g>
		</g>
		<g>
			<g>
				<path class="st6" d="M107.2,140.5c0.7,0.7,1.4,1.5,2,2.3c0.3,0.4,0.6,0.8,0.8,1.2c0.1,0.2,0.3,0.4,0.3,0.5c0,0.1,0,0.1,0,0.2
					c0,0,0,0.1,0,0.1c0,0,0,0,0,0c0-0.1,0.1-0.1,0.3-0.1c-0.4-0.3-0.8,0.4-0.4,0.6c0.5,0.3,0.8-0.3,0.8-0.7c0-0.3-0.2-0.5-0.3-0.8
					c-0.2-0.3-0.4-0.6-0.5-0.8c-0.7-1.1-1.6-2.1-2.5-3.1C107.4,139.6,106.9,140.2,107.2,140.5L107.2,140.5z"/>
			</g>
		</g>
	</g>
	<g>
		<g>
			<g>
				<path class="st6" d="M68.4,144.1c2,0,4,0.2,5.9,0.7c0.5,0.1,0.7-0.6,0.2-0.7c-2-0.5-4-0.8-6.1-0.7C68,143.4,68,144.1,68.4,144.1
					L68.4,144.1z"/>
			</g>
		</g>
		<g>
			<g>
				<path class="st6" d="M71.3,140.4c-0.1,2.6-0.2,5.1-0.4,7.7c0,0.5,0.7,0.5,0.8,0c0.1-2.6,0.2-5.1,0.4-7.7
					C72.1,139.9,71.4,139.9,71.3,140.4L71.3,140.4z"/>
			</g>
		</g>
		<g>
			<g>
				<path class="st6" d="M68.8,147.1c2-1.4,3.9-2.9,5.7-4.6c0.4-0.3-0.2-0.9-0.5-0.5c-1.7,1.6-3.6,3.1-5.5,4.5
					C68,146.7,68.4,147.3,68.8,147.1L68.8,147.1z"/>
			</g>
		</g>
		<g>
			<g>
				<path class="st6" d="M69.7,142.6c0.8,0.7,1.5,1.5,2.2,2.3c0.3,0.4,0.6,0.8,0.9,1.2c0.1,0.2,0.3,0.4,0.4,0.6c0,0.1,0,0.1,0,0.2
					c0,0,0,0,0,0c0,0,0,0,0,0c0.1-0.1,0.2-0.1,0.3-0.1c-0.4-0.2-0.8,0.4-0.4,0.6c0.6,0.3,0.9-0.3,0.8-0.8c0-0.3-0.2-0.5-0.4-0.8
					c-0.2-0.3-0.4-0.6-0.6-0.8c-0.8-1.1-1.8-2.1-2.8-3C69.9,141.7,69.4,142.2,69.7,142.6L69.7,142.6z"/>
			</g>
		</g>
	</g>
	<g>
		<g>
			<g>
				<path class="st6" d="M70.7,126.8c0.8,0,1.6,0.1,2.4,0.1c0.4,0,0.8,0,1.2,0.1c0.2,0,0.4,0,0.6,0c0.1,0,0.2,0,0.2,0c0,0,0,0,0.1,0
					c0.1,0,0.1,0,0-0.2c0-0.1,0.1-0.1,0.1-0.2c0.1-0.1,0.2,0,0.3,0c0,0.1,0.1,0.1,0.1,0.2c0,0,0,0,0,0.1c0,0.1,0,0.1-0.1,0.2
					c0,0,0,0,0,0c0.2-0.4-0.4-0.8-0.6-0.4c-0.3,0.5,0.5,0.9,0.8,0.5c0.2-0.2,0.1-0.5-0.1-0.7c-0.2-0.2-0.5-0.2-0.7-0.2
					c-1.4-0.1-2.9-0.1-4.3-0.2C70.3,126.1,70.3,126.8,70.7,126.8L70.7,126.8z"/>
			</g>
		</g>
		<g>
			<g>
				<path class="st6" d="M73.3,124.2c-0.1,1.6,0,3.2,0.2,4.9c0,0.2,0.3,0.3,0.5,0.3c0.2-0.1,0.3-0.3,0.3-0.5
					c-0.2-1.5-0.3-3.1-0.2-4.7C74.1,123.8,73.3,123.8,73.3,124.2L73.3,124.2z"/>
			</g>
		</g>
		<g>
			<g>
				<path class="st6" d="M71.5,128.2c1.2-0.8,2.4-1.7,3.5-2.7c0.3-0.2,0.5-0.5,0.8-0.7c0.2-0.2,0.6-0.4,0.6-0.8c0.1-0.7-1-0.9-1-0.2
					c0,0.5,0.7,0.5,0.8,0c0,0,0,0,0,0c0,0.1,0,0.1-0.1,0.2c-0.1,0.1-0.2,0.1-0.3,0.1c0-0.1-0.1-0.1-0.1-0.2c0,0,0,0,0,0
					c0,0-0.1,0.1-0.1,0.1c-0.1,0.1-0.2,0.2-0.3,0.2c-0.2,0.2-0.4,0.3-0.6,0.5c-0.4,0.3-0.8,0.7-1.2,1c-0.8,0.6-1.6,1.2-2.4,1.8
					C70.7,127.8,71.1,128.5,71.5,128.2L71.5,128.2z"/>
			</g>
		</g>
		<g>
			<g>
				<path class="st6" d="M71.5,125.1c1.3,1.5,2.7,2.9,4,4.4c0.3,0.4,0.9-0.2,0.5-0.5c-1.3-1.5-2.7-2.9-4-4.4
					C71.7,124.2,71.1,124.7,71.5,125.1L71.5,125.1z"/>
			</g>
		</g>
	</g>
	<g>
		<g>
			<g>
				<path class="st6" d="M114.2,116.4c0.8,0,1.6,0.1,2.4,0.1c0.4,0,0.8,0,1.2,0.1c0.2,0,0.4,0,0.6,0c0.1,0,0.2,0,0.2,0
					c0,0,0,0,0.1,0c0.1,0,0.1,0,0-0.2c0-0.1,0.1-0.1,0.1-0.2c0.1-0.1,0.2,0,0.3,0c0,0.1,0.1,0.1,0.1,0.2c0,0,0,0,0,0.1
					c0,0.1,0,0.1-0.1,0.2c0,0,0,0,0,0c0.2-0.4-0.4-0.8-0.6-0.4c-0.3,0.5,0.5,0.9,0.8,0.5c0.2-0.2,0.1-0.5-0.1-0.7
					c-0.2-0.2-0.5-0.2-0.7-0.2c-1.4-0.1-2.9-0.1-4.3-0.2C113.7,115.6,113.7,116.3,114.2,116.4L114.2,116.4z"/>
			</g>
		</g>
		<g>
			<g>
				<path class="st6" d="M116.7,113.8c-0.1,1.6,0,3.2,0.2,4.9c0,0.2,0.3,0.3,0.5,0.3c0.2-0.1,0.3-0.3,0.3-0.5
					c-0.2-1.5-0.3-3.1-0.2-4.7C117.5,113.3,116.7,113.3,116.7,113.8L116.7,113.8z"/>
			</g>
		</g>
		<g>
			<g>
				<path class="st6" d="M114.9,117.7c1.2-0.8,2.4-1.7,3.5-2.7c0.3-0.2,0.5-0.5,0.8-0.7c0.2-0.2,0.6-0.4,0.6-0.8
					c0.1-0.7-1-0.9-1-0.2c0,0.5,0.7,0.5,0.8,0c0,0,0,0,0,0c0,0.1,0,0.1-0.1,0.2c-0.1,0.1-0.2,0.1-0.3,0.1c0-0.1-0.1-0.1-0.1-0.2
					c0,0,0,0,0,0c0,0-0.1,0.1-0.1,0.1c-0.1,0.1-0.2,0.2-0.3,0.2c-0.2,0.2-0.4,0.3-0.6,0.5c-0.4,0.3-0.8,0.7-1.2,1
					c-0.8,0.6-1.6,1.2-2.4,1.8C114.1,117.3,114.5,118,114.9,117.7L114.9,117.7z"/>
			</g>
		</g>
		<g>
			<g>
				<path class="st6" d="M114.9,114.6c1.3,1.5,2.7,2.9,4,4.4c0.3,0.4,0.9-0.2,0.5-0.5c-1.3-1.5-2.7-2.9-4-4.4
					C115.1,113.7,114.6,114.2,114.9,114.6L114.9,114.6z"/>
			</g>
		</g>
	</g>
	<g>
		<g>
			<g>
				<path class="st6" d="M163.2,145.8c0.8,0,1.6,0.1,2.4,0.1c0.4,0,0.8,0,1.2,0.1c0.2,0,0.4,0,0.6,0c0.1,0,0.2,0,0.2,0
					c0,0,0,0,0.1,0c0.1,0,0.1,0,0-0.2c0-0.1,0.1-0.1,0.1-0.2c0.1-0.1,0.2,0,0.3,0c0,0.1,0.1,0.1,0.1,0.2c0,0,0,0,0,0.1
					c0,0.1,0,0.1-0.1,0.2c0,0,0,0,0,0c0.2-0.4-0.4-0.8-0.6-0.4c-0.3,0.5,0.5,0.9,0.8,0.5c0.2-0.2,0.1-0.5-0.1-0.7
					c-0.2-0.2-0.5-0.2-0.7-0.2c-1.4-0.1-2.9-0.1-4.3-0.2C162.7,145.1,162.7,145.8,163.2,145.8L163.2,145.8z"/>
			</g>
		</g>
		<g>
			<g>
				<path class="st6" d="M165.7,143.3c-0.1,1.6,0,3.2,0.2,4.9c0,0.2,0.3,0.3,0.5,0.3c0.2-0.1,0.3-0.3,0.3-0.5
					c-0.2-1.5-0.3-3.1-0.2-4.7C166.5,142.8,165.8,142.8,165.7,143.3L165.7,143.3z"/>
			</g>
		</g>
		<g>
			<g>
				<path class="st6" d="M163.9,147.2c1.2-0.8,2.4-1.7,3.5-2.7c0.3-0.2,0.5-0.5,0.8-0.7c0.2-0.2,0.6-0.4,0.6-0.8
					c0.1-0.7-1-0.9-1-0.2c0,0.5,0.7,0.5,0.8,0c0,0,0,0,0,0c0,0.1,0,0.1-0.1,0.2c-0.1,0.1-0.2,0.1-0.3,0.1c0-0.1-0.1-0.1-0.1-0.2
					c0,0,0,0,0,0c0,0-0.1,0.1-0.1,0.1c-0.1,0.1-0.2,0.2-0.3,0.2c-0.2,0.2-0.4,0.3-0.6,0.5c-0.4,0.3-0.8,0.7-1.2,1
					c-0.8,0.6-1.6,1.2-2.4,1.8C163.1,146.8,163.5,147.5,163.9,147.2L163.9,147.2z"/>
			</g>
		</g>
		<g>
			<g>
				<path class="st6" d="M163.9,144.1c1.3,1.5,2.7,2.9,4,4.4c0.3,0.4,0.9-0.2,0.5-0.5c-1.3-1.5-2.7-2.9-4-4.4
					C164.1,143.2,163.6,143.7,163.9,144.1L163.9,144.1z"/>
			</g>
		</g>
	</g>
	<g>
		<g>
			<g>
				<path class="st6" d="M127.8,117.8c0.8,0,1.6,0.1,2.4,0.1c0.4,0,0.8,0,1.2,0.1c0.2,0,0.4,0,0.6,0c0.1,0,0.2,0,0.2,0
					c0,0,0,0,0.1,0c0.1,0,0.1,0,0-0.2c0-0.1,0.1-0.1,0.1-0.2c0.1-0.1,0.2,0,0.3,0c0,0.1,0.1,0.1,0.1,0.2c0,0,0,0,0,0.1
					c0,0.1,0,0.1-0.1,0.2c0,0,0,0,0,0c0.2-0.4-0.4-0.8-0.6-0.4c-0.3,0.5,0.5,0.9,0.8,0.5c0.2-0.2,0.1-0.5-0.1-0.7
					c-0.2-0.2-0.5-0.2-0.7-0.2c-1.4-0.1-2.9-0.1-4.3-0.2C127.3,117,127.3,117.7,127.8,117.8L127.8,117.8z"/>
			</g>
		</g>
		<g>
			<g>
				<path class="st6" d="M130.3,115.2c-0.1,1.6,0,3.2,0.2,4.9c0,0.2,0.3,0.3,0.5,0.3c0.2-0.1,0.3-0.3,0.3-0.5
					c-0.2-1.5-0.3-3.1-0.2-4.7C131.1,114.7,130.3,114.7,130.3,115.2L130.3,115.2z"/>
			</g>
		</g>
		<g>
			<g>
				<path class="st6" d="M128.5,119.1c1.2-0.8,2.4-1.7,3.5-2.7c0.3-0.2,0.5-0.5,0.8-0.7c0.2-0.2,0.6-0.4,0.6-0.8
					c0.1-0.7-1-0.9-1-0.2c0,0.5,0.7,0.5,0.8,0c0,0,0,0,0,0c0,0.1,0,0.1-0.1,0.2c-0.1,0.1-0.2,0.1-0.3,0.1c0-0.1-0.1-0.1-0.1-0.2
					c0,0,0,0,0,0c0,0-0.1,0.1-0.1,0.1c-0.1,0.1-0.2,0.2-0.3,0.2c-0.2,0.2-0.4,0.3-0.6,0.5c-0.4,0.3-0.8,0.7-1.2,1
					c-0.8,0.6-1.6,1.2-2.4,1.8C127.7,118.7,128.1,119.4,128.5,119.1L128.5,119.1z"/>
			</g>
		</g>
		<g>
			<g>
				<path class="st6" d="M128.5,116c1.3,1.5,2.7,2.9,4,4.4c0.3,0.4,0.9-0.2,0.5-0.5c-1.3-1.5-2.7-2.9-4-4.4
					C128.7,115.1,128.2,115.6,128.5,116L128.5,116z"/>
			</g>
		</g>
	</g>
	<g>
		<g>
			<g>
				<path class="st6" d="M94.3,105.2c0.8,0,1.6,0.1,2.4,0.1c0.4,0,0.8,0,1.2,0.1c0.2,0,0.4,0,0.6,0c0.1,0,0.2,0,0.2,0c0,0,0,0,0.1,0
					c0.1,0,0.1,0,0-0.2c0-0.1,0.1-0.1,0.1-0.2c0.1-0.1,0.2,0,0.3,0c0,0.1,0.1,0.1,0.1,0.2c0,0,0,0,0,0.1c0,0.1,0,0.1-0.1,0.2
					c0,0,0,0,0,0c0.2-0.4-0.4-0.8-0.6-0.4c-0.3,0.5,0.5,0.9,0.8,0.5c0.2-0.2,0.1-0.5-0.1-0.7c-0.2-0.2-0.5-0.2-0.7-0.2
					c-1.4-0.1-2.9-0.1-4.3-0.2C93.8,104.4,93.8,105.2,94.3,105.2L94.3,105.2z"/>
			</g>
		</g>
		<g>
			<g>
				<path class="st6" d="M96.8,102.6c-0.1,1.6,0,3.2,0.2,4.9c0,0.2,0.3,0.3,0.5,0.3c0.2-0.1,0.3-0.3,0.3-0.5
					c-0.2-1.5-0.3-3.1-0.2-4.7C97.6,102.1,96.9,102.1,96.8,102.6L96.8,102.6z"/>
			</g>
		</g>
		<g>
			<g>
				<path class="st6" d="M95,106.6c1.2-0.8,2.4-1.7,3.5-2.7c0.3-0.2,0.5-0.5,0.8-0.7c0.2-0.2,0.6-0.4,0.6-0.8c0.1-0.7-1-0.9-1-0.2
					c0,0.5,0.7,0.5,0.8,0c0,0,0,0,0,0c0,0.1,0,0.1-0.1,0.2c-0.1,0.1-0.2,0.1-0.3,0.1c0-0.1-0.1-0.1-0.1-0.2c0,0,0,0,0,0
					c0,0-0.1,0.1-0.1,0.1c-0.1,0.1-0.2,0.2-0.3,0.2c-0.2,0.2-0.4,0.3-0.6,0.5c-0.4,0.3-0.8,0.7-1.2,1c-0.8,0.6-1.6,1.2-2.4,1.8
					C94.2,106.2,94.6,106.8,95,106.6L95,106.6z"/>
			</g>
		</g>
		<g>
			<g>
				<path class="st6" d="M95,103.4c1.3,1.5,2.7,2.9,4,4.4c0.3,0.4,0.9-0.2,0.5-0.5c-1.3-1.5-2.7-2.9-4-4.4
					C95.2,102.5,94.7,103.1,95,103.4L95,103.4z"/>
			</g>
		</g>
	</g>
	<g>
		<g>
			<g>
				<path class="st6" d="M115.7,149.2c0.8,0,1.6,0.1,2.4,0.1c0.4,0,0.8,0,1.2,0.1c0.2,0,0.4,0,0.6,0c0.1,0,0.2,0,0.2,0
					c0,0,0,0,0.1,0c0.1,0,0.1,0,0-0.2c0-0.1,0.1-0.1,0.1-0.2c0.1-0.1,0.2,0,0.3,0c0,0.1,0.1,0.1,0.1,0.2c0,0,0,0,0,0.1
					c0,0.1,0,0.1-0.1,0.2c0,0,0,0,0,0c0.2-0.4-0.4-0.8-0.6-0.4c-0.3,0.5,0.5,0.9,0.8,0.5c0.2-0.2,0.1-0.5-0.1-0.7
					c-0.2-0.2-0.5-0.2-0.7-0.2c-1.4-0.1-2.9-0.1-4.3-0.2C115.3,148.4,115.3,149.1,115.7,149.2L115.7,149.2z"/>
			</g>
		</g>
		<g>
			<g>
				<path class="st6" d="M118.3,146.6c-0.1,1.6,0,3.2,0.2,4.9c0,0.2,0.3,0.3,0.5,0.3c0.2-0.1,0.3-0.3,0.3-0.5
					c-0.2-1.5-0.3-3.1-0.2-4.7C119.1,146.1,118.3,146.1,118.3,146.6L118.3,146.6z"/>
			</g>
		</g>
		<g>
			<g>
				<path class="st6" d="M116.5,150.5c1.2-0.8,2.4-1.7,3.5-2.7c0.3-0.2,0.5-0.5,0.8-0.7c0.2-0.2,0.6-0.4,0.6-0.8
					c0.1-0.7-1-0.9-1-0.2c0,0.5,0.7,0.5,0.8,0c0,0,0,0,0,0c0,0.1,0,0.1-0.1,0.2c-0.1,0.1-0.2,0.1-0.3,0.1c0-0.1-0.1-0.1-0.1-0.2
					c0,0,0,0,0,0c0,0-0.1,0.1-0.1,0.1c-0.1,0.1-0.2,0.2-0.3,0.2c-0.2,0.2-0.4,0.3-0.6,0.5c-0.4,0.3-0.8,0.7-1.2,1
					c-0.8,0.6-1.6,1.2-2.4,1.8C115.7,150.1,116.1,150.8,116.5,150.5L116.5,150.5z"/>
			</g>
		</g>
		<g>
			<g>
				<path class="st6" d="M116.5,147.4c1.3,1.5,2.7,2.9,4,4.4c0.3,0.4,0.9-0.2,0.5-0.5c-1.3-1.5-2.7-2.9-4-4.4
					C116.7,146.5,116.2,147,116.5,147.4L116.5,147.4z"/>
			</g>
		</g>
	</g>
	<g>
		<g>
			<path class="st3" d="M51.5,116.6c-0.8-1.5-1.6-3.1-2.6-4.6c-1.1-1.7-2.4-3.7-4.4-4.5c-2.3-0.8-4.2,0.6-5.1,2.6
				c-0.9,2-1.5,4.2-2.1,6.3c-0.2,0.6,0.1,1.4,0.7,1.7c0.6,0.4,1.3,0.2,1.8-0.2c0.3-0.2,0.5-0.6,0.6-1c0.1-0.8-0.2-1.6-1-1.8
				c-0.7-0.2-1.7,0.2-1.8,1c0.1-0.1,0.1-0.2,0.2-0.3c0.8,0.5,1.7,1,2.5,1.5c0.5-1.9,1.1-3.7,1.8-5.5c0.2-0.4,0.4-1.1,0.8-1.4
				c-0.2,0.1,0.2-0.1,0,0c0.2-0.1,0.1-0.1,0.3,0c0.3,0,0.5,0.1,0.8,0.3c0.5,0.4,1,1,1.3,1.5c0.5,0.6,0.9,1.3,1.3,1.9
				c0.8,1.3,1.5,2.7,2.2,4c0.4,0.7,1.4,0.9,2.1,0.5C51.6,118.2,51.8,117.3,51.5,116.6L51.5,116.6z"/>
		</g>
	</g>
	<g>
		<g>
			<path class="st3" d="M38.7,117.9c1,0.5,1.9,1.1,3,0.9c1.6-0.3,2.5-2,2.3-3.5c-0.1-0.7-0.1-1.4-0.1-2.1c0-0.3,0-1.1,0.2-1.4
				c0,0-0.1,0,0,0c0.1,0.1,0.2,0.2,0.2,0.3c0.2,0.3,0.4,0.6,0.6,0.9c0.5,0.7,1,1.4,1.5,2.1c0.9,1.2,2,2.8,3.7,3c1,0.1,1-1.4,0-1.5
				c-0.4,0-0.9-0.6-1.2-0.9c-0.6-0.6-1.1-1.2-1.6-1.9c-0.5-0.6-1-1.2-1.4-1.9c-0.3-0.5-0.7-1.2-1.3-1.5c-0.6-0.3-1.3-0.1-1.7,0.4
				c-0.4,0.5-0.5,1.2-0.5,1.8c0,0.6-0.1,1.3,0,1.9c0.1,0.9,0.2,1.6-0.3,2.3c-0.8,0.9-1.8,0.1-2.7-0.3
				C38.6,116.2,37.9,117.5,38.7,117.9L38.7,117.9z"/>
		</g>
	</g>
	<g>
		<g>
			<path class="st3" d="M44.3,111.2c-0.4-1-0.9-1.9-1.5-2.7c-0.1-0.2-0.3-0.2-0.5-0.1c-0.2,0.1-0.3,0.4-0.1,0.5
				c0.6,0.8,1.1,1.7,1.5,2.6c0.1,0.2,0.3,0.3,0.5,0.3C44.2,111.6,44.4,111.3,44.3,111.2L44.3,111.2z"/>
		</g>
	</g>
	<g>
		<g>
			<path class="st3" d="M43.8,111.5c-0.6-0.7-1.2-1.4-1.7-2.1c-0.1-0.2-0.4-0.1-0.5,0c-0.1,0.2-0.1,0.4,0,0.5
				c0.6,0.7,1.2,1.4,1.7,2.1c0.1,0.2,0.4,0.1,0.5,0C44,111.9,44,111.7,43.8,111.5L43.8,111.5z"/>
		</g>
	</g>
	<g>
		<g>
			<path class="st3" d="M43.6,112.4c-0.6-0.8-1.4-1.6-2.2-2.3c-0.2-0.1-0.4-0.2-0.5,0c-0.1,0.1-0.2,0.4,0,0.5c0.4,0.3,0.8,0.7,1.1,1
				c0.2,0.2,0.3,0.4,0.5,0.6c0.1,0.1,0.2,0.2,0.2,0.3c0,0.1,0.1,0.1,0.1,0.2c0,0,0,0,0,0c0,0,0,0.1,0.1,0.1c0.1,0.2,0.3,0.3,0.5,0.1
				C43.6,112.8,43.7,112.6,43.6,112.4L43.6,112.4z"/>
		</g>
	</g>
	<g>
		<g>
			<path class="st3" d="M43.4,113.4c-0.7-0.8-1.4-1.5-2.2-2.2c-0.1-0.1-0.4-0.2-0.5,0c-0.1,0.1-0.2,0.4,0,0.5
				c0.8,0.7,1.5,1.4,2.2,2.2c0.1,0.1,0.4,0.1,0.5,0C43.5,113.7,43.5,113.5,43.4,113.4L43.4,113.4z"/>
		</g>
	</g>
	<g>
		<g>
			<path class="st3" d="M43.6,114.5c-0.9-0.8-1.8-1.6-2.7-2.4c-0.2-0.1-0.4-0.2-0.5,0c-0.1,0.1-0.2,0.4,0,0.5
				c0.9,0.8,1.8,1.6,2.7,2.4c0.1,0.1,0.4,0.1,0.5,0C43.7,114.9,43.7,114.7,43.6,114.5L43.6,114.5z"/>
		</g>
	</g>
	<g>
		<g>
			<path class="st3" d="M43.7,115.5c-1-0.8-2.1-1.7-3.1-2.5c-0.2-0.1-0.4-0.2-0.5,0c-0.1,0.1-0.2,0.4,0,0.5c1,0.8,2.1,1.7,3.1,2.5
				c0.2,0.1,0.4,0.2,0.5,0C43.8,115.9,43.8,115.6,43.7,115.5L43.7,115.5z"/>
		</g>
	</g>
	<g>
		<g>
			<path class="st3" d="M43.4,116.1c-0.9-0.7-1.7-1.4-2.6-2c-0.2-0.1-0.4-0.2-0.5,0c-0.1,0.1-0.2,0.4,0,0.5c0.9,0.7,1.7,1.4,2.6,2
				c0.2,0.1,0.4,0.2,0.5,0C43.5,116.5,43.5,116.3,43.4,116.1L43.4,116.1z"/>
		</g>
	</g>
	<g>
		<g>
			<path class="st3" d="M42.7,116.8c-0.9-0.5-1.7-1.1-2.5-1.8c-0.2-0.1-0.4-0.2-0.5,0c-0.1,0.1-0.2,0.4,0,0.5
				c0.9,0.7,1.7,1.3,2.7,1.9c0.2,0.1,0.4,0,0.5-0.1C43,117.2,42.9,116.9,42.7,116.8L42.7,116.8z"/>
		</g>
	</g>
	<g>
		<g>
			<path class="st3" d="M41.5,117.2c-0.1,0-0.2-0.1-0.2-0.1c0,0,0,0,0,0c0,0,0,0-0.1,0c0,0-0.1,0-0.1-0.1c-0.1-0.1-0.3-0.2-0.4-0.3
				c0,0,0,0,0,0c0.1,0,0,0,0,0c0,0-0.1-0.1-0.1-0.1c-0.1-0.1-0.1-0.1-0.2-0.2c-0.1-0.1-0.1-0.1-0.2-0.2c0,0,0,0,0,0c0.1,0.1,0,0,0,0
				c0,0-0.1-0.1-0.1-0.1c-0.1-0.2-0.3-0.2-0.5-0.1c-0.2,0.1-0.3,0.3-0.1,0.5c0.4,0.7,1.1,1.2,1.9,1.4c0.2,0.1,0.4-0.1,0.5-0.3
				C41.8,117.5,41.7,117.3,41.5,117.2L41.5,117.2z"/>
		</g>
	</g>
	<g>
		<g>
			<path class="st3" d="M45.3,111.4c-0.1-0.4-0.2-0.9-0.3-1.3c0-0.2-0.3-0.3-0.5-0.3c-0.2,0.1-0.3,0.3-0.3,0.5
				c0.1,0.4,0.2,0.9,0.3,1.3c0,0.2,0.3,0.3,0.5,0.3C45.3,111.8,45.4,111.6,45.3,111.4L45.3,111.4z"/>
		</g>
	</g>
	<g>
		<g>
			<path class="st3" d="M46.2,112.6c0-0.1,0-0.2-0.1-0.2c0,0,0-0.1,0-0.1c0,0,0-0.1,0,0c0-0.2,0-0.3,0-0.5c0-0.1,0-0.1,0-0.2
				c0,0,0-0.1,0-0.1c0,0,0,0,0-0.1c0,0,0,0,0,0c0,0,0,0,0,0c0,0,0,0,0-0.1c0,0,0-0.1,0-0.1c0-0.1,0-0.2,0.1-0.2
				c0.1-0.2-0.1-0.4-0.3-0.5c-0.2,0-0.4,0.1-0.5,0.3c-0.2,0.7-0.2,1.4,0,2.1c0.1,0.2,0.3,0.3,0.5,0.3
				C46.1,113,46.2,112.8,46.2,112.6L46.2,112.6z"/>
		</g>
	</g>
	<g>
		<g>
			<path class="st3" d="M47.3,114.1C47.3,114.1,47.3,114,47.3,114.1c-0.1-0.1-0.1-0.1-0.1-0.2c0-0.1-0.1-0.2-0.1-0.2
				c0-0.1,0-0.2-0.1-0.2c0,0,0,0,0-0.1c0,0,0,0,0,0c0,0,0-0.1,0-0.1c0-0.1,0-0.2,0-0.3c0,0,0-0.1,0-0.1c0,0,0,0,0-0.1c0,0,0,0,0,0
				c0,0,0,0,0,0c0,0,0,0,0-0.1c0,0,0-0.1,0-0.1c0-0.1,0-0.2,0.1-0.3c0.1-0.2-0.1-0.4-0.3-0.5c-0.2,0-0.4,0.1-0.5,0.3
				c-0.3,0.8-0.2,1.7,0.2,2.4c0.1,0.2,0.4,0.2,0.5,0.1C47.4,114.5,47.4,114.3,47.3,114.1L47.3,114.1z"/>
		</g>
	</g>
	<g>
		<g>
			<path class="st3" d="M48.4,115.3c-0.1-0.7-0.2-1.4-0.2-2.1c0-0.2-0.2-0.4-0.4-0.4c-0.2,0-0.4,0.2-0.4,0.4c0,0.8,0.1,1.6,0.2,2.3
				c0,0.2,0.3,0.3,0.5,0.3C48.3,115.7,48.4,115.5,48.4,115.3L48.4,115.3z"/>
		</g>
	</g>
	<g>
		<g>
			<path class="st0" d="M86.4,175c-0.3,1.4-0.5,2.9-0.8,4.3c-0.1,0.5,0.6,0.7,0.7,0.2c0-0.2,0.1-0.4,0.1-0.6
				c0.1-0.5-0.6-0.7-0.7-0.2c0,0.2-0.1,0.4-0.1,0.6c0.2,0.1,0.5,0.1,0.7,0.2c0.3-1.4,0.5-2.9,0.8-4.3c0-0.2-0.1-0.4-0.3-0.5
				C86.6,174.7,86.4,174.8,86.4,175L86.4,175z"/>
		</g>
	</g>
	<g>
		<g>
			<path class="st0" d="M87.3,174.2c-0.2,1.6-0.5,3.2-1,4.8c-0.1,0.3,0.3,0.6,0.6,0.4c0.3-0.2,0.4-0.5,0.4-0.8
				c0-0.2-0.2-0.4-0.4-0.4c-0.2,0-0.4,0.2-0.4,0.4c0,0,0,0.1,0,0.1c0.2,0.1,0.4,0.3,0.6,0.4c0.5-1.6,0.9-3.3,1-5
				C88.1,173.7,87.4,173.7,87.3,174.2L87.3,174.2z"/>
		</g>
	</g>
	<g>
		<g>
			<path class="st0" d="M88.7,174c-0.4,1.8-1,3.5-1.7,5.2c-0.2,0.4,0.5,0.6,0.7,0.3c0.2-0.3,0.3-0.6,0.4-1c0.1-0.5-0.6-0.7-0.7-0.2
				c-0.1,0.3-0.2,0.5-0.4,0.8c0.2,0.1,0.5,0.2,0.7,0.3c0.7-1.7,1.3-3.4,1.7-5.2C89.6,173.8,88.8,173.6,88.7,174L88.7,174z"/>
		</g>
	</g>
	<g>
		<g>
			<path class="st0" d="M89.5,174.2c-0.4,1.5-0.9,2.9-1.5,4.4c-0.1,0.2,0.1,0.4,0.3,0.5c0.2,0.1,0.4-0.1,0.5-0.3
				c0.6-1.4,1.1-2.9,1.5-4.4C90.3,173.9,89.6,173.7,89.5,174.2L89.5,174.2z"/>
		</g>
	</g>
	<g>
		<g>
			<path class="st0" d="M90.8,174.8c-0.5,1-1,2-1.5,3c-0.1,0.2-0.2,0.5-0.3,0.7c-0.1,0.2-0.3,0.5-0.3,0.7c-0.1,0.3,0.1,0.6,0.4,0.6
				c0.3,0,0.5-0.3,0.4-0.5c-0.1-0.5-0.8-0.3-0.7,0.2c0,0,0,0,0,0c0-0.1,0.1-0.2,0.1-0.4c0,0,0,0,0,0c0.1,0,0.1-0.1,0.2-0.1
				c0,0,0,0,0,0c0.1,0,0.2,0,0.3,0c0,0,0,0,0,0c0.1,0.1,0.1,0.1,0.2,0.2c0,0,0,0,0-0.1c0,0.1,0,0.1,0,0.2c0-0.2,0.2-0.3,0.2-0.5
				c0.1-0.2,0.2-0.4,0.3-0.6c0.2-0.4,0.3-0.7,0.5-1.1c0.4-0.7,0.7-1.5,1.1-2.2C91.6,174.7,91,174.3,90.8,174.8L90.8,174.8z"/>
		</g>
	</g>
	<g>
		<g>
			<path class="st0" d="M91.5,175.3c-0.7,1.3-1.5,2.6-2.3,3.9c-0.2,0.3,0.1,0.6,0.4,0.6c0.3-0.1,0.4-0.2,0.5-0.5
				c0.1-0.5-0.6-0.7-0.7-0.2c0,0,0,0,0,0c0.1,0.2,0.3,0.4,0.4,0.6c0.8-1.3,1.5-2.6,2.3-3.9C92.3,175.3,91.7,174.9,91.5,175.3
				L91.5,175.3z"/>
		</g>
	</g>
	<g>
		<g>
			<path class="st0" d="M91.4,177.4c-0.6,0.8-1.2,1.6-1.8,2.5c-0.1,0.2-0.3,0.4-0.4,0.6c-0.1,0.3,0,0.6,0.3,0.7
				c0.2,0.1,0.5-0.1,0.6-0.3c0.1-0.3-0.1-0.6-0.4-0.6c-0.2,0-0.4,0.2-0.4,0.4c0,0.2,0.2,0.4,0.4,0.4c0,0,0,0,0,0
				c-0.1,0-0.1,0-0.2-0.1c0,0,0,0,0,0c0,0-0.1-0.1-0.1-0.1c0,0,0,0,0,0c0-0.1,0-0.1-0.1-0.2c0-0.1,0-0.1,0.1-0.2c0.1,0,0.1-0.1,0,0
				c0.1,0,0.1,0,0.2-0.1c0,0,0,0,0.1,0c0.1,0,0.1,0.1,0.2,0.1c0,0.1,0.1,0.1,0.1,0.2c0,0,0-0.1,0.1-0.1c0-0.1,0.1-0.1,0.2-0.2
				c0.1-0.1,0.2-0.2,0.3-0.4c0.2-0.3,0.4-0.5,0.6-0.8c0.4-0.5,0.8-1,1.1-1.5c0.1-0.2,0-0.4-0.1-0.5
				C91.7,177.1,91.5,177.2,91.4,177.4L91.4,177.4z"/>
		</g>
	</g>
	<g>
		<g>
			<path class="st0" d="M92.4,177.8c-0.7,0.9-1.5,1.8-2.2,2.7c-0.1,0.2-0.2,0.4,0,0.5c0.1,0.1,0.4,0.2,0.5,0
				c0.7-0.9,1.5-1.8,2.2-2.7c0.1-0.2,0.2-0.4,0-0.5C92.8,177.7,92.5,177.7,92.4,177.8L92.4,177.8z"/>
		</g>
	</g>
	<g>
		<g>
			<path class="st0" d="M93.7,178.3c-0.8,0.8-1.6,1.6-2.5,2.4c-0.2,0.2-0.4,0.4-0.6,0.6c-0.2,0.2-0.4,0.5-0.3,0.8
				c0.2,0.3,0.5,0.3,0.7,0c0.2-0.3,0-0.7-0.3-0.7c-0.5,0-0.5,0.7,0,0.8c0,0,0,0,0,0c-0.1,0-0.2-0.1-0.3-0.1c0,0,0,0,0,0
				c0-0.1-0.1-0.2-0.1-0.3c0.1-0.1,0.1-0.2,0.2-0.3c0.1,0,0.1,0,0.2,0c0,0,0,0,0,0c0.1,0,0.1,0.1,0.2,0.1c0,0,0,0,0,0
				c0,0.1,0,0.1,0.1,0.2c0,0.1-0.1,0.1,0,0.1c0,0,0.1-0.1,0.1-0.1c0.1-0.1,0.1-0.1,0.2-0.2c0.1-0.1,0.3-0.3,0.4-0.4
				c0.3-0.3,0.5-0.5,0.8-0.8c0.5-0.5,1.1-1,1.6-1.6C94.5,178.5,94,178,93.7,178.3L93.7,178.3z"/>
		</g>
	</g>
	<g>
		<g>
			<path class="st0" d="M94.4,180c-1.2,0.7-2.5,1.4-3.8,1.9c0.1,0.2,0.2,0.5,0.3,0.7c0.2-0.1,0.3-0.2,0.5-0.3c0.4-0.3,0-0.9-0.4-0.6
				c-0.2,0.1-0.3,0.2-0.5,0.3c-0.2,0.1-0.2,0.3-0.2,0.5c0.1,0.2,0.3,0.3,0.4,0.2c1.4-0.5,2.7-1.2,4-2
				C95.2,180.4,94.9,179.8,94.4,180L94.4,180z"/>
		</g>
	</g>
	<g>
		<g>
			<path class="st0" d="M95.8,180.8c-1.2,0.5-2.4,0.9-3.7,1.2c-0.4,0.1-0.4,0.6,0,0.7c0.1,0,0.2,0.1,0.4,0.1
				c0.5,0.1,0.7-0.6,0.2-0.7c-0.1,0-0.2-0.1-0.4-0.1c0,0.2,0,0.5,0,0.7c1.2-0.3,2.5-0.7,3.7-1.2c0.2-0.1,0.3-0.3,0.3-0.5
				C96.2,180.9,96,180.7,95.8,180.8L95.8,180.8z"/>
		</g>
	</g>
	<g>
		<g>
			<path class="st0" d="M95.8,182.4c-1.5,0-3-0.2-4.5-0.4c0.1,0.2,0.1,0.4,0.2,0.6c0.1-0.1,0.2-0.1,0.3-0.1c0.5,0.1,0.7-0.6,0.2-0.7
				c-0.4-0.1-0.7,0-1,0.3c-0.2,0.2-0.1,0.6,0.2,0.6c1.5,0.3,3.1,0.4,4.7,0.5C96.3,183.2,96.3,182.4,95.8,182.4L95.8,182.4z"/>
		</g>
	</g>
	<g>
		<g>
			<path class="st0" d="M85.3,172.6c0,2.2-0.1,4.4-0.3,6.5c0,0.5,0.7,0.5,0.8,0c0.2-2.2,0.3-4.4,0.3-6.5
				C86.1,172.1,85.3,172.1,85.3,172.6L85.3,172.6z"/>
		</g>
	</g>
	<g>
		<g>
			<path class="st0" d="M83.4,174.3c0.1,1.7,0.3,3.4,0.4,5.1c0.2,0,0.5,0,0.8,0c0-0.3-0.1-0.7-0.1-1c0-0.2-0.2-0.4-0.4-0.4
				c-0.2,0-0.4,0.2-0.4,0.4c0,0.3,0.1,0.7,0.1,1c0,0.2,0.2,0.4,0.4,0.4c0.2,0,0.4-0.2,0.4-0.4c-0.1-1.7-0.3-3.4-0.4-5.1
				C84.1,173.8,83.4,173.8,83.4,174.3L83.4,174.3z"/>
		</g>
	</g>
	<g>
		<g>
			<path class="st0" d="M82.4,174.9c0.4,1.5,0.9,2.9,1.3,4.4c0.1,0.5,0.9,0.3,0.7-0.2c-0.4-1.5-0.9-2.9-1.3-4.4
				C83,174.2,82.3,174.4,82.4,174.9L82.4,174.9z"/>
		</g>
	</g>
	<g>
		<g>
			<path class="st0" d="M80,176.4c0.9,1.2,1.7,2.5,2.4,3.7c0.1-0.2,0.1-0.4,0.2-0.6c0,0,0,0,0,0c-0.2-0.1-0.4-0.1-0.5,0
				c-0.1,0.1-0.2,0.4,0,0.5c0.2,0.2,0.5,0.3,0.7,0.2c0.2-0.1,0.3-0.3,0.2-0.6c-0.7-1.3-1.5-2.5-2.4-3.7c-0.1-0.2-0.3-0.2-0.5-0.1
				C80,176,79.9,176.3,80,176.4L80,176.4z"/>
		</g>
	</g>
	<g>
		<g>
			<path class="st0" d="M79.7,178.2c0.7,1,1.5,2,2.3,2.9c0.1-0.2,0.2-0.4,0.3-0.6c0,0,0,0,0,0c0,0,0,0,0,0c0,0-0.1,0,0,0
				c0,0-0.1-0.1,0,0c-0.1-0.2-0.3-0.2-0.5-0.1c-0.2,0.1-0.3,0.3-0.1,0.5c0.2,0.3,0.5,0.4,0.8,0.5c0.1,0,0.3-0.1,0.3-0.2
				c0.1-0.1,0-0.3-0.1-0.4c-0.8-0.8-1.6-1.7-2.2-2.7c-0.1-0.2-0.3-0.2-0.5-0.1C79.6,177.8,79.5,178.1,79.7,178.2L79.7,178.2z"/>
		</g>
	</g>
	<g>
		<g>
			<path class="st0" d="M77.9,179.3c1,1.2,2.2,2.1,3.6,2.7c0.1-0.2,0.1-0.5,0.2-0.7c-0.3,0-0.6,0-0.8-0.2c-0.4-0.2-0.8,0.4-0.4,0.6
				c0.4,0.2,0.8,0.3,1.2,0.3c0.2,0,0.3-0.1,0.4-0.3c0-0.1,0-0.4-0.2-0.4c-1.3-0.6-2.5-1.5-3.5-2.6c-0.1-0.2-0.4-0.1-0.5,0
				C77.8,178.9,77.8,179.1,77.9,179.3L77.9,179.3z"/>
		</g>
	</g>
	<g>
		<g>
			<path class="st0" d="M76.8,179.8c1.1,1.2,2.4,2.1,3.9,2.7c0-0.2,0.1-0.5,0.1-0.7c-0.2,0-0.4,0-0.6,0c-0.2,0-0.4,0.2-0.4,0.4
				c0,0.2,0.2,0.4,0.4,0.4c0.2,0,0.4,0,0.6,0c0.4,0,0.5-0.6,0.1-0.7c-1.4-0.5-2.6-1.4-3.6-2.5C77,178.9,76.5,179.4,76.8,179.8
				L76.8,179.8z"/>
		</g>
	</g>
	<g>
		<g>
			<path class="st0" d="M75.8,181.7c1.4,0.7,2.8,1.1,4.3,1.3c0-0.2,0-0.5,0-0.8c-0.1,0-0.3,0-0.4,0c-0.5,0-0.5,0.7,0,0.8
				c0.1,0,0.3,0,0.4,0c0.2,0,0.4-0.2,0.4-0.4c0-0.2-0.2-0.3-0.4-0.4c-1.4-0.2-2.7-0.6-3.9-1.2C75.7,180.9,75.4,181.5,75.8,181.7
				L75.8,181.7z"/>
		</g>
	</g>
	<g>
		<g>
			<path class="st0" d="M76.1,182.6c1.3,0.6,2.7,0.9,4.2,0.7c0.4-0.1,0.3-0.8-0.1-0.7c-0.1,0-0.2,0-0.4,0c-0.2,0-0.4,0.2-0.4,0.4
				c0,0.2,0.2,0.4,0.4,0.4c0.1,0,0.2,0,0.4,0c0-0.2-0.1-0.5-0.1-0.7c-1.2,0.2-2.5,0-3.6-0.6c-0.2-0.1-0.4,0-0.5,0.1
				C75.9,182.3,75.9,182.5,76.1,182.6L76.1,182.6z"/>
		</g>
	</g>
	<g>
		<g>
			<path class="st0" d="M76,183.9c1.6,0.4,3.3,0,4.5-1.2c0.3-0.3-0.2-0.9-0.5-0.5c-1,0.9-2.4,1.3-3.8,1
				C75.8,183,75.6,183.8,76,183.9L76,183.9z"/>
		</g>
	</g>
	<g>
		<g>
			<path class="st0" d="M77.2,183c1.6-0.3,3.1-0.8,4.4-1.6c0.4-0.2,0-0.9-0.4-0.6c-1.3,0.7-2.8,1.2-4.3,1.5c-0.2,0-0.3,0.3-0.3,0.5
				C76.8,183,77,183.1,77.2,183L77.2,183z"/>
		</g>
	</g>
	<g>
		<g>
			<path class="st0" d="M76.3,179.3c0.6,0.8,1.5,1.4,2.4,1.8c0.5,0.2,0.9,0.4,1.4,0.5c0.5,0.1,1.1-0.2,0.8-0.8
				c-0.1-0.2-0.4-0.2-0.5-0.1c-0.2,0.1-0.2,0.3-0.1,0.5c0,0,0,0,0,0c0-0.1,0-0.1,0-0.2c0,0,0.1-0.1,0.1-0.1c0,0,0,0,0,0
				c0,0-0.1,0-0.2,0c-0.2,0-0.4-0.1-0.5-0.1c-0.4-0.1-0.7-0.3-1-0.4c-0.7-0.4-1.2-0.8-1.7-1.4c-0.1-0.2-0.4-0.1-0.5,0
				C76.1,178.9,76.1,179.1,76.3,179.3L76.3,179.3z"/>
		</g>
	</g>
	<g>
		<g>
			<path class="st0" d="M76.8,177.8c0.6,0.7,1.2,1.4,1.8,2c0.3,0.3,0.6,0.6,0.9,0.9c0.3,0.3,0.8,0.5,1.2,0.3
				c0.5-0.2,0.3-0.9-0.2-0.7c-0.3,0.1-0.5-0.2-0.7-0.4c-0.3-0.3-0.6-0.6-0.9-0.9c-0.6-0.6-1.1-1.2-1.6-1.8c-0.1-0.2-0.4-0.1-0.5,0
				C76.6,177.4,76.7,177.7,76.8,177.8L76.8,177.8z"/>
		</g>
	</g>
	<g>
		<g>
			<path class="st0" d="M78,176.8c1,1.6,2.2,3.1,3.6,4.4c0.2,0.2,0.5,0.1,0.6-0.1c0.2-0.4,0.2-0.8-0.1-1.2c-0.1-0.2-0.4-0.1-0.5,0
				c-0.2,0.2-0.1,0.4,0,0.5c0.1,0.1,0,0.2,0,0.3c0.2,0,0.4-0.1,0.6-0.1c-1.4-1.2-2.5-2.6-3.4-4.2C78.4,176,77.7,176.4,78,176.8
				L78,176.8z"/>
		</g>
	</g>
	<g>
		<g>
			<path class="st0" d="M79.1,175.9c1,1.6,2.1,3.2,3.3,4.7c0.2,0.2,0.7,0,0.6-0.3c0-0.4,0-0.7-0.1-1.1c0-0.5-0.8-0.5-0.8,0
				c0,0.4,0,0.7,0.1,1.1c0.2-0.1,0.4-0.2,0.6-0.3c-1.2-1.4-2.2-2.9-3.2-4.5C79.5,175.1,78.8,175.5,79.1,175.9L79.1,175.9z"/>
		</g>
	</g>
	<g>
		<g>
			<path class="st0" d="M80.3,174.9c0.9,1.9,1.7,3.7,2.6,5.6c0.1,0.1,0.3,0.2,0.4,0.2c0.2,0,0.3-0.2,0.3-0.4
				c0.1-0.6-0.1-1.2-0.4-1.7c-0.3-0.4-0.9,0-0.6,0.4c0.3,0.4,0.4,0.8,0.3,1.3c0.2-0.1,0.5-0.1,0.7-0.2c-0.9-1.9-1.7-3.7-2.6-5.6
				C80.7,174,80.1,174.4,80.3,174.9L80.3,174.9z"/>
		</g>
	</g>
	<g>
		<g>
			<path class="st0" d="M80.8,174.4c0.9,2.1,1.7,4.1,2.6,6.2c0.2,0.4,0.7,0.3,0.7-0.1c0-0.6,0-1.1-0.2-1.7c-0.2-0.4-0.9-0.3-0.7,0.2
				c0.2,0.5,0.3,1,0.2,1.5c0.2,0,0.5-0.1,0.7-0.1c-0.9-2.1-1.7-4.1-2.6-6.2c-0.1-0.2-0.2-0.3-0.5-0.3
				C80.9,174,80.7,174.2,80.8,174.4L80.8,174.4z"/>
		</g>
	</g>
	<g>
		<g>
			<path class="st0" d="M81.7,173.4c0.9,2.2,1.8,4.5,2.5,6.7c0.1,0.3,0.7,0.4,0.7,0c0.1-0.5,0.1-0.9-0.1-1.4
				c-0.2-0.4-0.9-0.3-0.7,0.2c0.1,0.3,0.2,0.6,0.1,1c0.2,0,0.5,0,0.7,0c-0.7-2.3-1.6-4.7-2.6-6.9C82.2,172.6,81.5,173,81.7,173.4
				L81.7,173.4z"/>
		</g>
	</g>
	<g>
		<g>
			<path class="st0" d="M82.9,173.5c0.6,2.4,1.1,4.8,1.7,7.2c0.1,0.3,0.5,0.4,0.7,0.1c0.2-0.4,0.3-0.8,0.2-1.2
				c-0.1-0.5-0.8-0.3-0.7,0.2c0.1,0.2,0,0.4-0.1,0.7c0.2,0,0.5,0.1,0.7,0.1c-0.6-2.4-1.1-4.8-1.7-7.2
				C83.5,172.8,82.8,173,82.9,173.5L82.9,173.5z"/>
		</g>
	</g>
	<g>
		<g>
			<path class="st0" d="M84.6,173.2c0.4,2.5,0.5,5,0.4,7.5c0,0.5,0.7,0.5,0.8,0c0-0.1,0-0.2,0-0.4c0-0.5-0.7-0.5-0.8,0
				c0,0.1,0,0.2,0,0.4c0.2,0,0.5,0,0.8,0c0.1-2.6,0-5.1-0.5-7.7C85.3,172.5,84.5,172.7,84.6,173.2L84.6,173.2z"/>
		</g>
	</g>
	<g>
		<g>
			<path class="st0" d="M85.2,174c0.2,2.1,0.1,4.3,0,6.4c0.2,0,0.5-0.1,0.7-0.1c0-0.1-0.1-0.3-0.1-0.4c-0.1-0.5-0.8-0.3-0.7,0.2
				c0,0.1,0.1,0.3,0.1,0.4c0.1,0.4,0.7,0.3,0.7-0.1c0.2-2.1,0.2-4.3,0-6.4C85.9,173.5,85.2,173.5,85.2,174L85.2,174z"/>
		</g>
	</g>
	<g>
		<g>
			<path class="st0" d="M83.9,173.7c0.4,2.5,0.8,5.1,1,7.6c0,0.5,0.8,0.5,0.8,0c-0.3-2.6-0.6-5.2-1.1-7.8
				C84.5,173.1,83.8,173.3,83.9,173.7L83.9,173.7z"/>
		</g>
	</g>
	<g>
		<g>
			<path class="st0" d="M85.9,174.3c0,2.3-0.1,4.5-0.3,6.8c0,0.5,0.7,0.5,0.8,0c0.2-2.3,0.3-4.5,0.3-6.8
				C86.6,173.8,85.9,173.8,85.9,174.3L85.9,174.3z"/>
		</g>
	</g>
	<g>
		<g>
			<path class="st0" d="M87,174.3c-0.2,2.3-0.4,4.6-0.7,6.9c-0.1,0.4,0.6,0.5,0.7,0.1c0.1-0.2,0.1-0.4,0.2-0.6
				c0.2-0.5-0.6-0.7-0.7-0.2c-0.1,0.2-0.1,0.4-0.2,0.6c0.2,0,0.5,0.1,0.7,0.1c0.3-2.3,0.5-4.6,0.7-6.9C87.8,173.8,87,173.8,87,174.3
				L87,174.3z"/>
		</g>
	</g>
	<g>
		<g>
			<path class="st0" d="M88.1,174c-0.2,1.6-0.5,3.2-0.8,4.7c-0.1,0.4-0.2,0.7-0.2,1.1c0,0.2-0.1,0.4-0.1,0.6c0,0.1-0.1,0.3-0.1,0.4
				c0,0.6,0.9,0.6,0.9,0c0-0.2-0.1-0.3-0.3-0.4c0,0,0,0,0,0c-0.4-0.2-0.6,0.5-0.2,0.7c0,0,0,0,0,0c-0.1-0.1-0.2-0.2-0.3-0.4
				c0,0,0,0,0,0c0-0.1,0.1-0.2,0.1-0.3c0,0,0.1,0,0.1,0c0.1,0,0.2,0.1,0.3,0.1c0,0.2,0.1,0.2,0.1,0.1c0-0.1,0-0.1,0.1-0.2
				c0-0.1,0.1-0.3,0.1-0.4c0.1-0.3,0.1-0.6,0.2-0.9c0.1-0.6,0.2-1.1,0.3-1.7c0.2-1.2,0.4-2.4,0.6-3.5
				C88.9,173.6,88.1,173.6,88.1,174L88.1,174z"/>
		</g>
	</g>
	<g>
		<g>
			<path class="st0" d="M89,174.5c-0.5,1.5-1,3.1-1.4,4.7c-0.1,0.4-0.2,0.8-0.3,1.2c-0.1,0.3-0.2,0.7-0.2,1c0.1,0.7,1.1,0.5,0.9-0.1
				c-0.1-0.1-0.2-0.3-0.4-0.3c0,0,0,0,0,0c-0.5,0.1-0.5,0.8,0,0.8c0,0,0,0,0,0c-0.1-0.1-0.2-0.2-0.4-0.3c0-0.1,0-0.1,0-0.2
				c0.1-0.1,0.2-0.1,0.3-0.2c0,0,0,0,0,0c0.1,0,0.2,0.1,0.3,0.1c0,0.2,0,0.2,0.1,0c0-0.1,0-0.1,0-0.2c0-0.2,0.1-0.3,0.1-0.5
				c0.1-0.3,0.1-0.5,0.2-0.8c0.1-0.6,0.3-1.2,0.4-1.7c0.3-1.1,0.6-2.2,1-3.3C89.9,174.2,89.2,174,89,174.5L89,174.5z"/>
		</g>
	</g>
	<g>
		<g>
			<path class="st0" d="M90.4,175c-0.8,1.9-1.5,3.8-2,5.7c-0.1,0.4,0.5,0.6,0.7,0.3c0.1-0.2,0.3-0.4,0.4-0.6
				c0.3-0.4-0.4-0.8-0.6-0.4c-0.1,0.2-0.3,0.4-0.4,0.6c0.2,0.1,0.5,0.2,0.7,0.3c0.5-1.9,1.2-3.7,2-5.5c0.1-0.2,0.1-0.4-0.1-0.5
				C90.7,174.8,90.4,174.8,90.4,175L90.4,175z"/>
		</g>
	</g>
	<g>
		<g>
			<path class="st0" d="M91.2,175.8c-0.5,0.9-0.9,1.7-1.4,2.6c-0.2,0.4-0.5,0.8-0.7,1.3c-0.1,0.2-0.2,0.4-0.3,0.6
				c-0.1,0.2-0.3,0.4-0.3,0.6c-0.1,0.3,0.1,0.4,0.4,0.5c0.3,0,0.5-0.3,0.5-0.5c0-0.2-0.2-0.4-0.4-0.4c-0.2,0-0.4,0.2-0.4,0.4
				c0-0.1,0.1-0.1,0.1-0.2c0.1,0,0.1,0,0.2-0.1c0,0,0,0,0,0c0.1,0.2,0.2,0.3,0.4,0.5c0-0.2,0.2-0.4,0.3-0.5c0.1-0.2,0.2-0.4,0.3-0.6
				c0.2-0.4,0.5-0.8,0.7-1.3c0.4-0.8,0.9-1.7,1.3-2.5C92.1,175.7,91.5,175.4,91.2,175.8L91.2,175.8z"/>
		</g>
	</g>
	<g>
		<g>
			<path class="st0" d="M92.5,176.9c-0.9,1.3-1.8,2.5-2.7,3.8c-0.1,0.2,0,0.4,0.1,0.5c0.2,0.1,0.4,0,0.5-0.1
				c0.9-1.3,1.8-2.5,2.7-3.8c0.1-0.2,0-0.4-0.1-0.5C92.8,176.6,92.6,176.7,92.5,176.9L92.5,176.9z"/>
		</g>
	</g>
	<g>
		<g>
			<path class="st0" d="M93.7,177.6c-1.2,1.3-2.4,2.6-3.7,3.8c0.2,0.2,0.4,0.4,0.5,0.5c0-0.1,0.1-0.1,0.1-0.2c0.1-0.2,0.2-0.4,0-0.5
				c-0.1-0.1-0.4-0.2-0.5,0c0,0.1-0.1,0.1-0.1,0.2c-0.1,0.2-0.2,0.4,0,0.5c0.1,0.1,0.4,0.1,0.5,0c1.3-1.2,2.5-2.5,3.7-3.8
				C94.6,177.7,94,177.2,93.7,177.6L93.7,177.6z"/>
		</g>
	</g>
	<g>
		<g>
			<path class="st0" d="M94.5,178.6c-1,0.8-1.9,1.6-2.9,2.3c-0.2,0.1-0.1,0.4,0,0.5c0.2,0.2,0.4,0.1,0.5,0c1-0.8,1.9-1.6,2.9-2.3
				c0.2-0.1,0.1-0.4,0-0.5C94.8,178.5,94.6,178.5,94.5,178.6L94.5,178.6z"/>
		</g>
	</g>
	<g>
		<g>
			<path class="st0" d="M95.2,180c-1.3,0.9-2.7,1.5-4.2,1.8c-0.5,0.1-0.3,0.8,0.2,0.7c1.6-0.4,3.1-1,4.4-1.9
				C96,180.4,95.6,179.8,95.2,180L95.2,180z"/>
		</g>
	</g>
	<g>
		<g>
			<path class="st0" d="M94.9,181.2c-1.2,0.3-2.3,0.4-3.5,0.5c-0.5,0-0.5,0.7,0,0.8c0.2,0,0.3,0,0.5,0c0.5,0,0.5-0.7,0-0.8
				c-0.2,0-0.3,0-0.5,0c0,0.2,0,0.5,0,0.8c1.3,0,2.5-0.2,3.7-0.5C95.6,181.8,95.4,181,94.9,181.2L94.9,181.2z"/>
		</g>
	</g>
	<g>
		<g>
			<path class="st0" d="M95.6,181.9c-1.2,0.4-2.4,0.5-3.6,0.3c-0.2,0-0.4,0.1-0.5,0.3c0,0.2,0.1,0.4,0.3,0.5c1.3,0.2,2.7,0.1,4-0.3
				C96.2,182.4,96,181.7,95.6,181.9L95.6,181.9z"/>
		</g>
	</g>
	<g>
		<g>
			<path class="st0" d="M95.3,182.3c-1.5,0.1-3.1,0.1-4.6-0.1c-0.2,0-0.4,0.2-0.4,0.4c0,0.2,0.2,0.3,0.4,0.4
				c1.5,0.2,3.1,0.2,4.6,0.1C95.7,183.1,95.7,182.3,95.3,182.3L95.3,182.3z"/>
		</g>
	</g>
	<g>
		<g>
			<path class="st0" d="M75.2,181.7c2.1,0.2,4.2,0.4,6.3,0.6c0.5,0,0.5-0.7,0-0.8c-2.1-0.2-4.2-0.4-6.3-0.6
				C74.8,180.9,74.8,181.6,75.2,181.7L75.2,181.7z"/>
		</g>
	</g>
	<g>
		<g>
			<path class="st0" d="M75.8,180.2c1.5,0.5,3.1,0.9,4.7,1.2c0.5,0.1,0.7-0.6,0.2-0.7c-1.6-0.3-3.2-0.7-4.7-1.2
				C75.5,179.4,75.3,180.1,75.8,180.2L75.8,180.2z"/>
		</g>
	</g>
	<g>
		<g>
			<path class="st0" d="M76.2,178.4c1.4,1,3,1.9,4.7,2.4c0.5,0.2,0.7-0.6,0.2-0.7c-1.6-0.5-3.1-1.3-4.5-2.4c-0.2-0.1-0.4,0-0.5,0.1
				C76,178.1,76.1,178.3,76.2,178.4L76.2,178.4z"/>
		</g>
	</g>
	<g>
		<g>
			<path class="st0" d="M78.3,177.2c0.9,1.3,2,2.5,3,3.6c0.3,0.4,0.9-0.2,0.5-0.5c-1-1.1-2-2.3-2.9-3.5c-0.1-0.2-0.3-0.2-0.5-0.1
				C78.3,176.8,78.2,177.1,78.3,177.2L78.3,177.2z"/>
		</g>
	</g>
	<g>
		<g>
			<path class="st0" d="M79.3,176.9c0.7,1.5,1.7,2.8,2.9,3.9c0.3,0.3,0.9-0.2,0.5-0.5c-1.1-1.1-2-2.4-2.7-3.8
				C79.7,176.1,79,176.5,79.3,176.9L79.3,176.9z"/>
		</g>
	</g>
	<g>
		<g>
			<path class="st0" d="M80.8,174.6c0.8,1.7,1.7,3.3,2.5,5c0.2,0.4,0.9,0.1,0.6-0.4c-0.8-1.7-1.7-3.3-2.5-5
				C81.3,173.8,80.6,174.1,80.8,174.6L80.8,174.6z"/>
		</g>
	</g>
	<g>
		<g>
			<path class="st0" d="M82.1,174.6c0.7,1.7,1.5,3.3,2.4,4.8c0.2,0.4,0.9,0,0.6-0.4c-0.9-1.5-1.6-3-2.3-4.6
				c-0.1-0.2-0.2-0.3-0.5-0.3C82.2,174.2,82,174.5,82.1,174.6L82.1,174.6z"/>
		</g>
	</g>
	<g>
		<g>
			<path class="st0" d="M75.2,183.9c0,0.4,0.4,0.6,0.7,0.6c0.5,0,0.9-0.2,1.4-0.4c1-0.3,2.1-0.7,3.1-1c0.5-0.2,0.3-0.9-0.2-0.7
				c-0.8,0.3-1.6,0.5-2.5,0.8c-0.4,0.1-0.8,0.3-1.2,0.4c-0.1,0-0.3,0.1-0.5,0.1c0,0-0.1,0-0.1,0c-0.1,0,0-0.1,0,0.1
				C76,183.4,75.3,183.4,75.2,183.9L75.2,183.9z"/>
		</g>
	</g>
	<g>
		<g>
			<path class="st0" d="M75.6,184.9c1.7,0.1,3.3-0.4,4.8-1.2c0.4-0.2,0-0.9-0.4-0.6c-1.3,0.8-2.8,1.2-4.4,1.1
				C75.1,184.2,75.1,184.9,75.6,184.9L75.6,184.9z"/>
		</g>
	</g>
	<g>
		<g>
			<path class="st0" d="M74.5,180.8c1.9,0.8,3.9,1.3,5.9,1.5c0.5,0,0.5-0.7,0-0.8c-1.9-0.2-3.8-0.6-5.6-1.4
				C74.5,179.9,74.1,180.6,74.5,180.8L74.5,180.8z"/>
		</g>
	</g>
	<g>
		<g>
			<path class="st0" d="M75.4,178.6c1.5,1.3,3.3,2.2,5.3,2.5c0.2,0,0.4-0.1,0.5-0.3c0.1-0.2-0.1-0.4-0.3-0.5c-1.8-0.3-3.5-1-4.9-2.3
				C75.5,177.8,75,178.3,75.4,178.6L75.4,178.6z"/>
		</g>
	</g>
	<g>
		<g>
			<path class="st0" d="M77.5,176.8c0.6,0.9,1.2,1.8,2,2.6c0.4,0.4,0.7,0.8,1.1,1.2c0.2,0.2,0.6,0.4,0.8,0.1
				c0.2-0.2,0.2-0.6-0.1-0.7c-0.2-0.1-0.4,0-0.5,0.1c-0.1,0.2,0,0.4,0.1,0.5c0,0,0,0,0,0c-0.1-0.1-0.1-0.1-0.2-0.2c0,0,0,0,0,0
				c0-0.1,0-0.1,0.1-0.2c0,0,0,0,0,0c0.1,0,0.1-0.1,0.2-0.1c0.1,0,0.1,0.1,0.1,0c0,0-0.1-0.1-0.1-0.1c-0.1-0.1-0.1-0.1-0.2-0.2
				c-0.1-0.1-0.3-0.3-0.4-0.4c-0.3-0.3-0.6-0.6-0.8-0.9c-0.5-0.6-1-1.3-1.4-2C77.9,176,77.3,176.4,77.5,176.8L77.5,176.8z"/>
		</g>
	</g>
	<g>
		<g>
			<path class="st0" d="M77.9,177.5c0.9,1.3,2,2.5,3.2,3.4c0.2,0.1,0.4,0,0.5-0.1c0.1-0.2,0-0.4-0.1-0.5c-1.2-0.9-2.2-1.9-3-3.2
				C78.3,176.7,77.7,177.1,77.9,177.5L77.9,177.5z"/>
		</g>
	</g>
	<g>
		<g>
			<path class="st0" d="M78.2,176.4c0.9,1.4,2,2.7,3.4,3.8c0.2,0.1,0.4,0.2,0.5,0c0.1-0.1,0.2-0.4,0-0.5c-1.3-1-2.4-2.3-3.3-3.7
				C78.6,175.7,77.9,176,78.2,176.4L78.2,176.4z"/>
		</g>
	</g>
	<g>
		<g>
			<path class="st0" d="M81.1,175.5c0.7,1.1,1.3,2.3,1.7,3.6c0.1,0.2,0.3,0.3,0.5,0.3c0.2,0,0.3-0.3,0.3-0.5
				c-0.5-1.3-1.1-2.6-1.8-3.8C81.5,174.7,80.8,175.1,81.1,175.5L81.1,175.5z"/>
		</g>
	</g>
	<g>
		<g>
			<path class="st0" d="M80.2,175c1,1.4,1.9,2.9,2.9,4.3c0.3,0.4,0.9,0,0.6-0.4c-1-1.4-1.9-2.9-2.9-4.3
				C80.5,174.2,79.9,174.6,80.2,175L80.2,175z"/>
		</g>
	</g>
	<g>
		<g>
			<path class="st0" d="M40.9,183.7c1.6,1,3.4,1.6,5.3,1.8c0.5,0,0.5-0.7,0-0.8c-1.8-0.2-3.5-0.8-5-1.7
				C40.8,182.8,40.4,183.4,40.9,183.7L40.9,183.7z"/>
		</g>
	</g>
	<g>
		<g>
			<path class="st0" d="M40.1,184.7c1.5,0.9,3.3,1.1,5,0.7c0.5-0.1,0.3-0.8-0.2-0.7c-1.5,0.4-3.1,0.1-4.5-0.7
				C40,183.9,39.7,184.5,40.1,184.7L40.1,184.7z"/>
		</g>
	</g>
	<g>
		<g>
			<path class="st0" d="M39.4,185.9c0.7,0.3,1.4,0.4,2.2,0.4c0.9,0,1.7,0.1,2.6,0.1c0.4,0,0.8,0,1.3,0.1c0.3,0,0.7,0.1,1,0
				c0.6-0.3,0-1.3-0.5-0.8c-0.4,0.3,0.2,0.8,0.5,0.5c0,0,0,0,0,0c-0.1,0-0.2,0.1-0.4,0.1c0,0-0.1,0-0.1-0.1c0-0.1,0-0.2,0-0.3
				c0.2-0.1,0.2-0.1,0.1-0.1c-0.1,0-0.1,0-0.2,0c-0.1,0-0.3,0-0.4,0c-0.3,0-0.6,0-0.9,0c-0.6,0-1.1-0.1-1.7-0.1
				c-0.5,0-1.1,0-1.6-0.1c-0.5,0-1.1-0.1-1.5-0.3C39.4,185.1,39,185.7,39.4,185.9L39.4,185.9z"/>
		</g>
	</g>
	<g>
		<g>
			<path class="st0" d="M41.5,182.2c1,0.5,2.1,0.9,3.1,1.4c0.2,0.1,0.5,0.2,0.7,0.3c0.2,0.1,0.5,0.3,0.7,0.3c0.5,0,0.8-0.7,0.3-0.9
				c-0.2-0.1-0.4,0.1-0.5,0.3c-0.1,0.2,0.1,0.4,0.3,0.5c0,0,0,0,0,0c-0.1-0.1-0.1-0.1-0.2-0.2c0,0,0,0,0,0c0-0.1,0-0.2,0-0.3
				c0-0.1,0.1-0.2,0.2-0.2c-0.1,0-0.1,0-0.2-0.1c-0.1,0-0.2-0.1-0.2-0.1c-0.2-0.1-0.4-0.2-0.6-0.3c-0.4-0.2-0.7-0.3-1.1-0.5
				c-0.7-0.3-1.5-0.7-2.2-1c-0.2-0.1-0.4-0.1-0.5,0.1C41.2,181.9,41.3,182.2,41.5,182.2L41.5,182.2z"/>
		</g>
	</g>
	<g>
		<g>
			<path class="st0" d="M42.3,181c1.2,0.8,2.3,1.6,3.5,2.5c0.2,0.1,0.4,0,0.5-0.1c0.1-0.2,0-0.4-0.1-0.5c-0.2-0.1-0.3-0.2-0.5-0.4
				c-0.2-0.1-0.4,0-0.5,0.1c-0.1,0.2,0,0.4,0.1,0.5c0.2,0.1,0.3,0.2,0.5,0.4c0.1-0.2,0.3-0.4,0.4-0.6c-1.2-0.8-2.3-1.6-3.5-2.5
				c-0.2-0.1-0.4,0-0.5,0.1C42.1,180.7,42.2,180.9,42.3,181L42.3,181z"/>
		</g>
	</g>
	<g>
		<g>
			<path class="st0" d="M42.1,182.2c1.2,0.9,2.4,1.7,3.6,2.4c0.4,0.2,0.8-0.4,0.4-0.6c-1.3-0.7-2.5-1.5-3.6-2.4
				c-0.2-0.1-0.4,0-0.5,0.1C41.8,181.9,41.9,182.1,42.1,182.2L42.1,182.2z"/>
		</g>
	</g>
	<g>
		<g>
			<path class="st0" d="M42.6,182.7c0.9,0.6,1.9,1,2.9,1.3c0.5,0.1,0.7-0.6,0.2-0.7c-1-0.3-1.9-0.7-2.8-1.2c-0.2-0.1-0.4,0-0.5,0.1
				C42.4,182.4,42.4,182.6,42.6,182.7L42.6,182.7z"/>
		</g>
	</g>
	<g>
		<g>
			<path class="st0" d="M42.1,181.2c0.8,0.5,1.6,1,2.4,1.5c0.2,0.1,0.4,0.2,0.6,0.4c0.2,0.1,0.4,0.3,0.6,0.3c0.5,0.1,1-0.2,0.8-0.7
				c-0.1-0.5-0.8-0.3-0.7,0.2c0-0.1,0-0.2,0.1-0.2c0,0-0.1,0-0.1,0c-0.1,0-0.1-0.1-0.2-0.1c-0.2-0.1-0.3-0.2-0.5-0.3
				c-0.3-0.2-0.6-0.4-0.9-0.5c-0.6-0.4-1.2-0.7-1.8-1.1C42.1,180.3,41.7,181,42.1,181.2L42.1,181.2z"/>
		</g>
	</g>
	<g>
		<g>
			<path class="st0" d="M43.3,179.9c0.8,1.2,1.7,2.4,2.6,3.6c0.2,0.2,0.5,0.1,0.6-0.2c0.1-0.4,0.1-0.7-0.1-1.1
				c-0.2-0.4-0.9,0-0.6,0.4c0.1,0.2,0.1,0.3,0,0.5c0.2-0.1,0.4-0.1,0.6-0.2c-0.9-1.1-1.7-2.3-2.5-3.5c-0.1-0.2-0.3-0.2-0.5-0.1
				C43.3,179.5,43.2,179.8,43.3,179.9L43.3,179.9z"/>
		</g>
	</g>
	<g>
		<g>
			<path class="st0" d="M43.9,178.5c0.8,1.4,1.6,2.7,2.6,4c0.2,0.2,0.6,0.3,0.7-0.1c0.1-0.3,0-0.5-0.2-0.7c-0.3-0.3-0.9,0.2-0.5,0.5
				c0,0,0,0,0,0c0.2,0,0.5-0.1,0.7-0.1c-0.9-1.3-1.8-2.7-2.6-4C44.3,177.7,43.7,178.1,43.9,178.5L43.9,178.5z"/>
		</g>
	</g>
	<g>
		<g>
			<path class="st0" d="M44.7,177.8c0.7,1.6,1.5,3.2,2.5,4.6c0.3,0.4,0.9,0,0.6-0.4c-1-1.4-1.8-2.9-2.4-4.5
				c-0.1-0.2-0.3-0.3-0.5-0.3C44.8,177.3,44.6,177.6,44.7,177.8L44.7,177.8z"/>
		</g>
	</g>
	<g>
		<g>
			<path class="st0" d="M46.7,177.4c0.6,1.4,1.1,2.8,1.5,4.2c0.1,0.4,0.7,0.3,0.7-0.1c0-0.1,0-0.2,0-0.4c0-0.5-0.7-0.5-0.8,0
				c0,0.1,0,0.2,0,0.4c0.2,0,0.5-0.1,0.7-0.1c-0.4-1.5-1-3-1.6-4.4c-0.1-0.2-0.4-0.2-0.5-0.1C46.6,176.9,46.6,177.2,46.7,177.4
				L46.7,177.4z"/>
		</g>
	</g>
	<g>
		<g>
			<path class="st0" d="M47.6,176.7c0.3,1.2,0.6,2.4,0.9,3.6c0.2,0.6,0.3,1.2,0.5,1.7c0.1,0.2,0.3,0.4,0.5,0.4
				c0.2-0.1,0.4-0.3,0.3-0.5c0-0.2-0.2-0.3-0.4-0.3c0,0,0,0,0,0c-0.2,0-0.4,0.2-0.4,0.4c0,0.2,0.2,0.4,0.4,0.4c0,0,0,0,0,0
				c-0.1-0.1-0.2-0.2-0.4-0.3c0,0,0-0.1,0-0.1c0.1-0.1,0.1-0.1,0.2-0.2c0,0,0,0,0,0c0.1,0,0.3,0,0.4,0c0.1,0.1,0.1,0.1,0,0
				c0-0.1,0-0.1,0-0.2c0-0.1-0.1-0.2-0.1-0.4c-0.1-0.2-0.1-0.4-0.2-0.6c-0.1-0.4-0.2-0.9-0.4-1.3c-0.2-0.9-0.5-1.8-0.7-2.7
				C48.2,176.1,47.4,176.3,47.6,176.7L47.6,176.7z"/>
		</g>
	</g>
	<g>
		<g>
			<path class="st0" d="M48.1,176.2c0.7,1.7,1.1,3.6,1.1,5.4c0,0.5,0.7,0.5,0.8,0c0-2-0.4-4-1.2-5.8
				C48.6,175.3,47.9,175.7,48.1,176.2L48.1,176.2z"/>
		</g>
	</g>
	<g>
		<g>
			<path class="st0" d="M47,177.1c0.5,1.4,0.9,2.8,1.2,4.3c0.2-0.1,0.5-0.1,0.7-0.2c0-0.1-0.1-0.2-0.1-0.4c-0.1-0.5-0.9-0.3-0.7,0.2
				c0,0.1,0.1,0.2,0.1,0.4c0.2,0.5,0.8,0.3,0.7-0.2c-0.2-1.5-0.6-2.9-1.2-4.3c-0.1-0.2-0.3-0.3-0.5-0.3
				C47.1,176.7,46.9,176.9,47,177.1L47,177.1z"/>
		</g>
	</g>
	<g>
		<g>
			<path class="st0" d="M46.4,178c0.4,1.5,0.9,3.1,1.4,4.6c0.2,0.5,0.9,0.3,0.7-0.2c-0.5-1.5-1-3-1.4-4.6
				C47,177.4,46.2,177.6,46.4,178L46.4,178z"/>
		</g>
	</g>
	<g>
		<g>
			<path class="st0" d="M45.4,179.2c0.4,1.4,1,2.7,1.7,3.9c0.3,0.4,0.9,0,0.6-0.4c-0.7-1.2-1.3-2.4-1.7-3.7
				C46,178.6,45.3,178.8,45.4,179.2L45.4,179.2z"/>
		</g>
	</g>
	<g>
		<g>
			<path class="st0" d="M44,179.7c0.6,1.3,1.4,2.5,2.5,3.4c0.4,0.3,0.9-0.2,0.5-0.5c-1-0.9-1.8-2-2.4-3.3c-0.1-0.2-0.4-0.2-0.5-0.1
				C44,179.3,43.9,179.5,44,179.7L44,179.7z"/>
		</g>
	</g>
	<g>
		<g>
			<path class="st0" d="M41.9,179.5c0.8,1.1,1.7,2.1,2.7,2.9c0.5,0.4,1,0.8,1.6,1.2c0.2,0.2,0.5,0.4,0.7,0.4
				c0.3,0.1,0.6-0.1,0.7-0.4c0.2-0.5-0.6-0.7-0.7-0.2c0.1,0,0.1-0.1,0.2-0.1c0,0,0,0,0,0c0,0-0.1-0.1-0.1,0
				c-0.1-0.1-0.2-0.1-0.3-0.2c-0.2-0.2-0.4-0.3-0.7-0.5c-0.4-0.3-0.8-0.7-1.2-1.1c-0.8-0.7-1.5-1.5-2.2-2.4
				c-0.1-0.2-0.3-0.2-0.5-0.1C41.8,179.1,41.7,179.3,41.9,179.5L41.9,179.5z"/>
		</g>
	</g>
	<g>
		<g>
			<path class="st0" d="M43.2,178.3c0.9,0.9,1.7,1.7,2.6,2.5c0.4,0.4,0.8,0.8,1.3,1c0.5,0.1,1-0.1,1.2-0.6c0.1-0.5-0.6-0.7-0.7-0.2
				c0,0.1-0.1,0.1-0.2,0.1c-0.2,0-0.4-0.2-0.5-0.3c-0.4-0.3-0.7-0.6-1.1-1c-0.7-0.7-1.4-1.3-2.1-2C43.4,177.4,42.9,178,43.2,178.3
				L43.2,178.3z"/>
		</g>
	</g>
	<g>
		<g>
			<path class="st0" d="M45.7,176.8c0.6,1,1.2,2.1,1.8,3.1c0.1,0.3,0.3,0.5,0.4,0.8c0.1,0.2,0.2,0.5,0.5,0.6
				c0.5,0.3,1.1-0.4,0.5-0.8c-0.4-0.3-0.8,0.4-0.4,0.6c0,0,0,0,0,0c-0.1-0.1-0.1-0.1-0.2-0.2c0,0,0-0.1,0-0.1c0-0.1,0.1-0.1,0.1-0.2
				c0,0,0,0,0.1,0c0.1,0,0.1,0,0.2,0c0.1,0.1,0.1,0.1,0,0c0-0.1-0.1-0.1-0.1-0.2c-0.1-0.1-0.1-0.2-0.2-0.3c-0.1-0.2-0.2-0.4-0.3-0.6
				c-0.2-0.4-0.4-0.7-0.6-1.1c-0.4-0.7-0.9-1.5-1.3-2.2C46.1,176,45.5,176.4,45.7,176.8L45.7,176.8z"/>
		</g>
	</g>
	<g>
		<g>
			<path class="st0" d="M47.8,176.3c0.4,1.7,0.9,3.3,1.6,4.9c0.1,0.2,0.4,0.2,0.5,0.1c0.2-0.1,0.2-0.3,0.1-0.5
				c-0.6-1.5-1.1-3.1-1.5-4.7C48.4,175.7,47.7,175.9,47.8,176.3L47.8,176.3z"/>
		</g>
	</g>
	<g>
		<g>
			<path class="st0" d="M49.9,175.4c0.2,1.2,0.3,2.3,0.3,3.5c0,0.2,0,0.5,0.1,0.8c0.1,0.2,0.4,0.3,0.6,0.2c0.5-0.3,0-1.2-0.5-0.7
				c-0.4,0.3,0.2,0.9,0.5,0.5c0,0,0,0,0,0c-0.1,0-0.2,0.1-0.3,0.1c0,0,0,0,0,0c-0.1,0-0.2-0.1-0.3-0.1c0-0.1,0-0.2,0-0.3
				c0,0,0.1-0.1,0.1-0.1c0,0,0,0,0,0c0.1,0,0.1,0,0.2-0.1c0,0,0,0,0,0c0.1,0,0.1,0.1,0.2,0.1c0.1,0,0,0.1,0,0c0-0.1,0-0.2,0-0.3
				c0-0.2,0-0.3,0-0.5c0-0.4,0-0.7-0.1-1.1c-0.1-0.7-0.2-1.5-0.3-2.2C50.5,174.8,49.8,175,49.9,175.4L49.9,175.4z"/>
		</g>
	</g>
	<g>
		<g>
			<path class="st0" d="M51.2,174.5c0,2-0.1,4.1-0.1,6.1c0,0.4,0.5,0.5,0.7,0.2c0.1-0.2,0.2-0.3,0.1-0.5c0-0.5-0.8-0.5-0.8,0
				c0,0.1,0,0.1,0,0.2c0.2,0.1,0.5,0.1,0.7,0.2c0-2,0.1-4.1,0.1-6.1C52,174.1,51.2,174.1,51.2,174.5L51.2,174.5z"/>
		</g>
	</g>
	<g>
		<g>
			<path class="st0" d="M52.4,175.1c-0.1,1.7-0.3,3.4-0.5,5c0,0.2,0.1,0.3,0.3,0.4c0.2,0,0.3,0,0.4-0.2c0.2-0.2,0.3-0.5,0.2-0.8
				c0-0.5-0.8-0.5-0.8,0c0,0.2,0,0.3-0.1,0.4c0.2,0.1,0.5,0.1,0.7,0.2c0.2-1.7,0.3-3.4,0.5-5C53.2,174.6,52.4,174.6,52.4,175.1
				L52.4,175.1z"/>
		</g>
	</g>
	<g>
		<g>
			<path class="st0" d="M53.5,175.1c-0.3,2-0.7,4-1.1,6c-0.1,0.4,0.5,0.7,0.7,0.3c0.1-0.1,0.1-0.2,0.2-0.4c0.3-0.4-0.4-0.8-0.6-0.4
				c-0.1,0.1-0.1,0.2-0.2,0.4c0.2,0.1,0.5,0.2,0.7,0.3c0.4-2,0.8-4,1.1-6C54.3,174.8,53.6,174.6,53.5,175.1L53.5,175.1z"/>
		</g>
	</g>
	<g>
		<g>
			<path class="st0" d="M54.7,175.5c-0.3,1-0.6,2.1-0.9,3.1c-0.1,0.3-0.2,0.5-0.2,0.8c-0.1,0.2-0.2,0.5-0.1,0.7
				c0.2,0.6,1,0.3,0.8-0.2c0-0.1-0.1-0.2-0.3-0.3c0,0,0,0,0,0c-0.5-0.1-0.7,0.6-0.2,0.7c0,0,0,0,0,0c-0.1-0.1-0.2-0.2-0.3-0.3
				c0,0,0,0,0,0c0-0.1,0-0.1,0-0.2c0,0,0,0,0,0c0,0,0.1-0.1,0.1-0.1c0,0,0,0,0,0c0.1,0,0.2,0,0.3,0c0,0,0,0,0,0
				c0.1,0,0.1,0.1,0.2,0.1c0,0,0,0,0,0c0,0.1,0.1,0.1,0.1,0.2c0,0.1,0.1-0.2,0.1-0.2c0-0.1,0.1-0.2,0.1-0.3c0.1-0.2,0.1-0.4,0.2-0.6
				c0.1-0.4,0.2-0.7,0.3-1.1c0.2-0.7,0.4-1.5,0.7-2.2C55.6,175.2,54.9,175,54.7,175.5L54.7,175.5z"/>
		</g>
	</g>
	<g>
		<g>
			<path class="st0" d="M55.9,175.9c-0.7,1.6-1.4,3.3-2.1,4.9c-0.1,0.2,0.1,0.4,0.2,0.4c0.2,0.1,0.4,0,0.5-0.2
				c0.1-0.2,0.2-0.3,0.3-0.5c0.3-0.4-0.4-0.8-0.6-0.4c-0.1,0.2-0.2,0.3-0.3,0.5c0.2,0.1,0.5,0.2,0.7,0.3c0.7-1.6,1.4-3.3,2.1-4.9
				c0.1-0.2-0.1-0.4-0.3-0.5C56.2,175.6,56,175.7,55.9,175.9L55.9,175.9z"/>
		</g>
	</g>
	<g>
		<g>
			<path class="st0" d="M56.6,177c-0.6,1.2-1.2,2.4-1.7,3.6c-0.1,0.2-0.1,0.4,0.1,0.5c0.1,0.1,0.4,0.1,0.5,0
				c0.1-0.1,0.2-0.2,0.3-0.4c0.1-0.2,0.2-0.4,0-0.5c-0.1-0.1-0.4-0.2-0.5,0c-0.1,0.1-0.2,0.2-0.3,0.4c0.2,0.2,0.4,0.3,0.6,0.5
				c0.6-1.2,1.2-2.4,1.7-3.6c0.1-0.2,0.1-0.4-0.1-0.5C56.9,176.7,56.7,176.8,56.6,177L56.6,177z"/>
		</g>
	</g>
	<g>
		<g>
			<path class="st0" d="M57.7,177.4c-0.8,1.5-1.7,2.8-2.7,4.2c-0.1,0.1,0,0.4,0.1,0.5c0.2,0.1,0.4,0.1,0.5,0
				c0.1-0.1,0.2-0.2,0.2-0.2c0.4-0.3-0.2-0.9-0.5-0.5c-0.1,0.1-0.2,0.2-0.2,0.2c0.2,0.2,0.4,0.3,0.6,0.5c1-1.3,1.9-2.7,2.7-4.2
				C58.6,177.3,58,176.9,57.7,177.4L57.7,177.4z"/>
		</g>
	</g>
	<g>
		<g>
			<path class="st0" d="M58.3,178.3c-0.7,1-1.4,2-2,3c-0.2,0.4,0.4,0.8,0.6,0.4c0.6-1,1.3-2,2-3c0.1-0.2,0-0.4-0.1-0.5
				C58.6,178,58.4,178.1,58.3,178.3L58.3,178.3z"/>
		</g>
	</g>
	<g>
		<g>
			<path class="st0" d="M59.4,179c-1,1.2-2.1,2.3-3.3,3.4c-0.2,0.1-0.1,0.4,0,0.5c0.2,0.2,0.4,0.1,0.5,0c1.2-1,2.3-2.2,3.3-3.4
				c0.1-0.2,0.2-0.4,0-0.5C59.8,178.9,59.6,178.9,59.4,179L59.4,179z"/>
		</g>
	</g>
	<g>
		<g>
			<path class="st0" d="M60,180.4c-0.8,0.5-1.7,1.1-2.5,1.7c-0.2,0.1-0.4,0.3-0.6,0.4c-0.2,0.1-0.4,0.3-0.6,0.5
				c-0.2,0.3,0,0.6,0.3,0.7c0.1,0,0.3,0,0.4-0.1c0.1-0.1,0.1-0.3,0.1-0.4c0-0.2-0.3-0.3-0.5-0.3c-0.2,0.1-0.3,0.3-0.3,0.5
				c0,0,0,0,0,0c0-0.1,0.1-0.2,0.1-0.4c0,0,0,0,0,0c0.1,0,0.1-0.1,0.2-0.1c0,0,0,0,0,0c0.1,0,0.1,0,0.2,0.1c0,0,0,0,0,0
				c0,0,0.1,0.1,0.1,0.1c0,0,0,0,0,0c0,0.1,0,0.1,0.1,0.2c0,0,0,0,0,0c0,0.1,0,0.1-0.1,0.2c0-0.1,0.2-0.2,0.3-0.3
				c0.1-0.1,0.3-0.2,0.4-0.3c0.3-0.2,0.6-0.4,0.9-0.6c0.6-0.4,1.2-0.8,1.8-1.2C60.7,180.8,60.4,180.2,60,180.4L60,180.4z"/>
		</g>
	</g>
	<g>
		<g>
			<path class="st0" d="M59.4,182.2c-0.7,0.3-1.3,0.6-2,0.8c-0.1,0-0.2,0.1-0.2,0.2c0,0.1-0.1,0.2,0,0.3c0.1,0.2,0.3,0.3,0.5,0.3
				c0.7-0.3,1.3-0.6,2-0.8c0.1,0,0.2-0.1,0.2-0.2c0-0.1,0.1-0.2,0-0.3C59.8,182.3,59.6,182.1,59.4,182.2L59.4,182.2z"/>
		</g>
	</g>
	<g>
		<g>
			<path class="st0" d="M60.4,183.4c-1.1,0.2-2.2,0.1-3.3-0.1c0,0.2-0.1,0.5-0.1,0.7c0.2,0,0.3,0,0.5,0c0.2,0,0.4-0.2,0.4-0.4
				c0-0.2-0.2-0.4-0.4-0.4c-0.2,0-0.3,0-0.5,0c-0.4,0-0.5,0.6-0.1,0.7c1.2,0.3,2.5,0.4,3.7,0.1c0.2,0,0.3-0.3,0.3-0.5
				C60.8,183.4,60.6,183.3,60.4,183.4L60.4,183.4z"/>
		</g>
	</g>
	<g>
		<g>
			<path class="st0" d="M61.2,184.3c-1-0.1-2.1-0.3-3.1-0.5c0,0.2-0.1,0.5-0.1,0.7c0.2,0,0.3,0,0.5,0c0.5,0,0.5-0.7,0-0.8
				c-0.2,0-0.3,0-0.5,0c-0.4,0-0.5,0.7-0.1,0.7c1,0.2,2.1,0.4,3.1,0.5c0.2,0,0.4,0,0.5-0.3C61.5,184.5,61.4,184.3,61.2,184.3
				L61.2,184.3z"/>
		</g>
	</g>
	<g>
		<g>
			<path class="st0" d="M60.8,184.9c-1.3,0-2.7,0-4,0c0,0.2,0,0.5,0,0.8c0.2,0,0.4,0,0.6,0c0.5,0,0.5-0.7,0-0.8c-0.2,0-0.4,0-0.6,0
				c-0.5,0-0.5,0.7,0,0.8c1.3,0,2.7,0,4,0C61.3,185.6,61.3,184.9,60.8,184.9L60.8,184.9z"/>
		</g>
	</g>
	<g>
		<g>
			<path class="st0" d="M62.4,180.2c-1.7,0.4-3.3,1-4.9,1.8c-0.4,0.2-0.1,0.9,0.4,0.6c1.5-0.8,3.1-1.3,4.7-1.7
				C63.1,180.8,62.9,180.1,62.4,180.2L62.4,180.2z"/>
		</g>
	</g>
	<g>
		<g>
			<path class="st0" d="M61.1,179.7c-1.6,1-3.1,2.1-4.7,3.1c-0.4,0.3,0,0.9,0.4,0.6c1.6-1,3.1-2.1,4.7-3.1
				C61.8,180.1,61.5,179.5,61.1,179.7L61.1,179.7z"/>
		</g>
	</g>
	<g>
		<g>
			<path class="st0" d="M59.5,178.3c-0.9,1.6-1.9,3.1-3,4.5c-0.1,0.2,0,0.4,0.1,0.5c0.2,0.1,0.4,0,0.5-0.1c1.1-1.4,2.1-2.9,3-4.5
				C60.4,178.2,59.7,177.9,59.5,178.3L59.5,178.3z"/>
		</g>
	</g>
	<g>
		<g>
			<path class="st0" d="M56.7,177.8c0.1,1.1-0.1,2.2-0.3,3.3c-0.1,0.5-0.1,0.9-0.2,1.4c0,0.2-0.2,0.5-0.2,0.7c0,0.3,0.2,0.4,0.5,0.4
				c0.2,0,0.3-0.2,0.3-0.4c0.2-0.4-0.5-0.6-0.7-0.2c0,0.1,0,0,0,0.1c0.1-0.1,0.1-0.1,0.2-0.2c0,0,0,0,0,0c0.2,0.1,0.3,0.2,0.5,0.4
				c0,0,0,0.1,0,0c0-0.1,0-0.1,0-0.2c0-0.1,0.1-0.2,0.1-0.4c0.1-0.5,0.2-1,0.3-1.5c0.2-1.1,0.4-2.2,0.3-3.3
				C57.4,177.3,56.6,177.3,56.7,177.8L56.7,177.8z"/>
		</g>
	</g>
	<g>
		<g>
			<path class="st0" d="M55.3,177.7c0.2,1.4,0.2,2.9-0.1,4.3c0-0.1,0.1-0.1,0.1-0.2c0,0,0,0,0,0c0.1,0,0.2-0.1,0.3-0.1c0,0,0,0,0,0
				c0.1,0,0.1,0,0.2,0.1c0,0,0,0.1,0.1,0.1c0-0.2-0.2-0.4-0.4-0.4c-0.2,0-0.4,0.2-0.4,0.4c0,0.2,0.1,0.4,0.3,0.5
				c0.2,0.1,0.5,0,0.6-0.3c0.1-0.2,0.1-0.5,0.1-0.8c0-0.3,0.1-0.5,0.1-0.8c0.1-1,0-2.1-0.1-3.1c0-0.2-0.3-0.3-0.5-0.3
				C55.3,177.3,55.2,177.5,55.3,177.7L55.3,177.7z"/>
		</g>
	</g>
	<g>
		<g>
			<path class="st0" d="M53.1,176.8c0.4,1.5,0.6,2.9,0.6,4.5c0.2,0,0.5,0,0.8,0c0-0.2,0-0.3,0-0.5c0-0.5-0.8-0.5-0.8,0
				c0,0.2,0,0.3,0,0.5c0,0.5,0.8,0.5,0.8,0c0-1.6-0.2-3.1-0.6-4.7C53.7,176.2,53,176.4,53.1,176.8L53.1,176.8z"/>
		</g>
	</g>
	<g>
		<g>
			<path class="st0" d="M50.5,175.7c0.5,2,1,4.1,1.5,6.1c0.2-0.1,0.5-0.1,0.7-0.2c-0.1-0.2-0.1-0.3-0.2-0.5
				c-0.1-0.5-0.9-0.3-0.7,0.2c0.1,0.2,0.1,0.3,0.2,0.5c0.1,0.5,0.8,0.3,0.7-0.2c-0.5-2-1-4.1-1.5-6.1
				C51.1,175,50.4,175.2,50.5,175.7L50.5,175.7z"/>
		</g>
	</g>
	<g>
		<g>
			<path class="st0" d="M49.5,176.6c0.4,1.3,0.8,2.7,1.3,4c0.1,0.5,0.9,0.3,0.7-0.2c0-0.2-0.1-0.3-0.1-0.5c-0.1-0.5-0.9-0.3-0.7,0.2
				c0,0.2,0.1,0.3,0.1,0.5c0.2-0.1,0.5-0.1,0.7-0.2c-0.4-1.3-0.8-2.7-1.3-4C50.1,175.9,49.4,176.1,49.5,176.6L49.5,176.6z"/>
		</g>
	</g>
	<g>
		<g>
			<path class="st0" d="M48.7,176.8c0.6,1.5,1.1,2.9,1.7,4.4c0.1,0.3,0.5,0.4,0.7,0.1c0.2-0.4,0.1-0.8-0.3-1
				c-0.4-0.2-0.8,0.4-0.4,0.6c0,0,0.1,0,0,0c0,0,0,0.1,0,0c0.2,0,0.5,0.1,0.7,0.1c-0.6-1.5-1.1-2.9-1.7-4.4
				c-0.1-0.2-0.3-0.3-0.5-0.3C48.7,176.4,48.6,176.6,48.7,176.8L48.7,176.8z"/>
		</g>
	</g>
	<g>
		<g>
			<path class="st0" d="M46.4,177c0.7,1.9,1.6,3.7,2.7,5.4c0.1,0.2,0.4,0.3,0.6,0.1c0.2-0.3,0.3-0.7,0-0.9c-0.4-0.3-0.9,0.2-0.5,0.5
				c0,0,0-0.1,0-0.1c0.2,0,0.4,0.1,0.6,0.1c-1.1-1.6-2-3.4-2.7-5.2C47,176.3,46.2,176.5,46.4,177L46.4,177z"/>
		</g>
	</g>
	<g>
		<g>
			<path class="st0" d="M44.1,178.8c0.5,1.7,1.4,3.2,2.7,4.4c0.4,0.3,0.9-0.2,0.5-0.5c-1.2-1.1-2-2.5-2.5-4.1
				C44.7,178.2,43.9,178.4,44.1,178.8L44.1,178.8z"/>
		</g>
	</g>
	<g>
		<g>
			<path class="st0" d="M43.4,180.8c1.2,1,2.4,2,3.5,3c0.2,0.1,0.4,0.2,0.5,0c0.1-0.1,0.2-0.4,0-0.5c-1.2-1-2.4-2-3.5-3
				c-0.2-0.1-0.4-0.2-0.5,0C43.3,180.4,43.2,180.6,43.4,180.8L43.4,180.8z"/>
		</g>
	</g>
	<g>
		<g>
			<path class="st0" d="M41.7,182.6c1.6,1.1,3.3,1.9,5.2,2.3c0.5,0.1,0.7-0.6,0.2-0.7c-1.8-0.4-3.5-1.2-5-2.3
				C41.6,181.7,41.3,182.3,41.7,182.6L41.7,182.6z"/>
		</g>
	</g>
	<g>
		<g>
			<path class="st0" d="M41,184.3c1.5,0.4,3.1,0.5,4.7,0.4c0.5,0,0.5-0.8,0-0.8c-1.5,0.1-3,0-4.5-0.3
				C40.7,183.4,40.5,184.1,41,184.3L41,184.3z"/>
		</g>
	</g>
	<g>
		<g>
			<path class="st0" d="M40.4,185.6c1.9,0.3,3.8,0.1,5.6-0.6c0.4-0.2,0.3-0.9-0.2-0.7c-1.7,0.6-3.4,0.9-5.2,0.6
				c-0.2,0-0.4,0.1-0.5,0.3C40.1,185.3,40.2,185.6,40.4,185.6L40.4,185.6z"/>
		</g>
	</g>
	<g>
		<g>
			<path class="st0" d="M51.1,174.3c-0.2,2-0.5,3.9-0.7,5.9c0,0.2,0.2,0.4,0.4,0.4c0.4,0,0.8-0.2,1-0.6c0.2-0.4-0.4-0.8-0.6-0.4
				c-0.1,0.1-0.2,0.2-0.4,0.2c0.1,0.1,0.2,0.2,0.4,0.4c0.2-2,0.4-3.9,0.7-5.9c0-0.2-0.2-0.4-0.4-0.4
				C51.3,173.9,51.2,174.1,51.1,174.3L51.1,174.3z"/>
		</g>
	</g>
	<g>
		<g>
			<path class="st0" d="M53,173.9c0,2-0.1,4-0.4,6c-0.1,0.5,0.7,0.7,0.7,0.2c0.3-2.1,0.5-4.2,0.5-6.2C53.8,173.4,53,173.4,53,173.9
				L53,173.9z"/>
		</g>
	</g>
	<g>
		<g>
			<path class="st0" d="M54.3,175.5c-0.1,1.8-0.4,3.5-0.7,5.2c-0.1,0.5,0.6,0.7,0.7,0.2c0.3-1.8,0.6-3.6,0.7-5.4
				C55.1,175,54.3,175,54.3,175.5L54.3,175.5z"/>
		</g>
	</g>
	<g>
		<g>
			<path class="st0" d="M56,176.4c-0.4,0.9-0.7,1.8-1,2.8c-0.1,0.5-0.3,0.9-0.4,1.4c-0.1,0.3,0.1,0.5,0.3,0.6
				c0.2,0.1,0.5-0.1,0.6-0.3c0.3-0.4-0.4-0.8-0.6-0.4c0,0,0,0,0,0c0,0,0.1-0.1,0.1-0.1c0.1,0,0.1,0,0.2,0c0,0.1,0.1,0.2,0.1,0.4
				c0.4-1.4,0.9-2.8,1.5-4.2c0.1-0.2-0.1-0.4-0.3-0.5C56.3,176.1,56.1,176.2,56,176.4L56,176.4z"/>
		</g>
	</g>
	<g>
		<g>
			<path class="st0" d="M57.8,176.6c-0.8,1.6-1.6,3.1-2.4,4.7c-0.2,0.4,0.4,0.8,0.6,0.4c0.8-1.6,1.6-3.1,2.4-4.7
				C58.6,176.5,58,176.2,57.8,176.6L57.8,176.6z"/>
		</g>
	</g>
	<g>
		<g>
			<path class="st0" d="M59.1,177.4c-0.8,1.2-1.5,2.3-2.3,3.5c-0.1,0.2,0,0.4,0.1,0.5c0.2,0.1,0.4,0,0.5-0.1
				c0.8-1.2,1.5-2.3,2.3-3.5c0.1-0.2,0-0.4-0.1-0.5C59.5,177.2,59.2,177.2,59.1,177.4L59.1,177.4z"/>
		</g>
	</g>
	<g>
		<g>
			<path class="st0" d="M60.3,178.8c-1,1-2,2.1-3,3.1c-0.3,0.3,0.2,0.9,0.5,0.5c1-1,2-2.1,3-3.1C61.2,178.9,60.7,178.4,60.3,178.8
				L60.3,178.8z"/>
		</g>
	</g>
	<g>
		<g>
			<path class="st0" d="M61.2,180.9c-1,0.5-2.1,1-3.1,1.4c-0.2,0.1-0.2,0.4-0.1,0.5c0.1,0.2,0.3,0.2,0.5,0.1c1-0.5,2.1-1,3.1-1.4
				c0.2-0.1,0.2-0.4,0.1-0.5C61.6,180.8,61.4,180.8,61.2,180.9L61.2,180.9z"/>
		</g>
	</g>
	<g>
		<g>
			<path class="st0" d="M61.8,182c-1.3,0.5-2.6,1.1-3.8,1.6c-0.2,0.1-0.3,0.2-0.3,0.5c0,0.2,0.3,0.3,0.5,0.3
				c1.3-0.5,2.6-1.1,3.8-1.6c0.2-0.1,0.3-0.2,0.3-0.5C62.2,182.1,62,181.9,61.8,182L61.8,182z"/>
		</g>
	</g>
	<g>
		<g>
			<path class="st0" d="M61,183.4c-1.1,0.3-2.2,0.6-3.3,0.9c-0.5,0.1-0.3,0.9,0.2,0.7c1.1-0.3,2.2-0.6,3.3-0.9
				C61.7,184,61.5,183.3,61,183.4L61,183.4z"/>
		</g>
	</g>
	<g>
		<g>
			<path class="st0" d="M61.6,184.5c-1.3-0.1-2.5,0-3.8,0.2c-0.2,0-0.3,0.2-0.3,0.4c0,0.4,0.3,0.6,0.7,0.6c0.2,0,0.3-0.3,0.3-0.5
				c-0.1-0.2-0.3-0.3-0.5-0.3c0.1,0.1,0.2,0.1,0.2,0.2c-0.1,0.1-0.2,0.2-0.3,0.4c1.2-0.2,2.4-0.2,3.6-0.2c0.2,0,0.4-0.2,0.4-0.4
				C62,184.7,61.8,184.5,61.6,184.5L61.6,184.5z"/>
		</g>
	</g>
	<g>
		<path class="st3" d="M31.1,148.8"/>
		<g>
			<g>
				<path class="st3" d="M45.4,132.3c-0.2-0.1-0.5,0.1-0.6,0.3c-0.1,0.2-0.1,0.4,0,0.6c0.1,0.2,0.2,0.4,0.4,0.4c0.2,0,0.4,0,0.5-0.2
					c0.3-0.3,0.2-0.7,0-1c-0.1-0.1-0.2-0.3-0.4-0.4c-0.2-0.1-0.5-0.1-0.6,0.1c0.2,0.1,0.4,0.2,0.6,0.4c0-0.1,0-0.2,0.1-0.3
					c0,0,0,0,0-0.1c0,0,0,0,0,0c0,0,0,0,0,0c0,0,0-0.1,0.1-0.1c0-0.1,0,0,0,0c0,0,0,0,0,0c0,0-0.1,0,0,0c0,0,0,0,0,0c0,0,0,0,0,0
					c0,0,0,0,0,0c0.1,0,0,0,0,0c0,0,0,0,0,0c0,0,0.1,0.1,0.1,0.1c0.1,0,0,0,0,0c0,0,0,0,0.1,0.1c0.1,0.1,0,0,0,0c0,0,0,0,0,0
					c0,0,0,0,0,0c0,0,0,0,0,0c0,0,0,0,0,0c0,0,0,0.1,0,0.1c0,0,0-0.1,0,0c0,0,0-0.1,0,0c0,0,0,0,0,0c0,0,0,0,0,0c0,0,0,0,0,0
					c0,0,0,0,0,0c0,0,0,0,0,0c0,0,0,0,0,0c0,0,0,0,0,0c0,0,0,0,0,0c0.1,0,0.1,0,0,0c0,0,0,0,0,0c0.1,0,0.1,0,0,0c0,0,0,0,0,0
					c0,0,0,0,0,0c0,0,0,0,0,0c-0.1,0,0.1,0,0,0c-0.2,0.2-0.3,0.4-0.5,0.6c0.1,0.1,0.2,0.2,0.4,0.3c0.1,0.1,0.3,0.2,0.5,0.2
					c0.4,0,0.7-0.5,0.5-0.8c-0.1-0.2-0.4-0.2-0.6-0.1c-0.2,0.2-0.5,0.6-0.3,0.9c0.1,0.2,0.3,0.3,0.5,0.3c0.2,0,0.4-0.1,0.5-0.3
					c0.2-0.3,0.4-0.6,0.2-1c-0.2-0.3-0.5-0.4-0.8-0.3c-0.2,0.1-0.3,0.2-0.5,0.3c-0.1,0.1-0.1,0.1-0.2,0.2c0,0-0.1,0.1-0.1,0.2
					c0,0,0,0,0,0.1c0,0.1,0,0,0-0.1C45.2,132.4,45.3,132.4,45.4,132.3C45.3,132.4,45.3,132.4,45.4,132.3c0,0.1,0,0.1,0.1,0
					C45.5,132.3,45.5,132.3,45.4,132.3c0.1,0.1,0.2,0.1,0.3,0.1c0.1,0,0.1,0.2,0.1,0.1c0,0,0-0.1-0.1-0.1c0-0.1-0.1-0.1-0.2-0.2
					c-0.1-0.1-0.3-0.1-0.4,0c-0.1,0.1-0.2,0.1-0.3,0.3c0,0,0,0.1-0.1,0.1c0,0.1,0,0,0,0c0,0,0,0-0.1,0c0.2,0,0.4,0.1,0.6,0.1
					c0-0.1-0.1-0.1-0.1-0.2c0,0,0-0.1,0-0.1c0-0.1,0,0.1,0,0c0,0,0-0.1,0-0.1c0,0,0,0,0,0c0,0,0,0,0,0c0,0,0-0.1,0-0.1c0,0,0,0,0,0
					c0,0,0,0,0,0c0,0,0-0.1,0-0.1c0,0,0,0.1,0,0c0-0.1-0.1,0,0,0c-0.1,0.1,0,0,0,0c0,0,0,0,0,0c0,0,0,0,0,0c0,0,0,0,0,0c0,0,0,0,0,0
					c0,0,0,0,0,0c0,0,0,0,0,0c0,0,0.1,0,0.1,0c0.2,0,0.4-0.2,0.4-0.4c0-0.2-0.2-0.4-0.4-0.4c-0.2,0-0.4,0-0.5,0.1
					c-0.2,0.1-0.3,0.3-0.4,0.5c-0.1,0.4,0.1,0.7,0.2,1.1c0.1,0.1,0.2,0.2,0.3,0.2c0.1,0,0.2,0,0.3-0.1c0.1-0.1,0.1-0.1,0.2-0.2
					c0,0,0-0.1,0.1-0.1c0,0,0,0,0,0c0,0-0.1,0,0,0c-0.1,0-0.1,0-0.2,0c0-0.1-0.1-0.1-0.1-0.2c0,0,0,0,0,0.1c0,0.2,0.2,0.3,0.3,0.3
					c0.2,0.1,0.4,0,0.5-0.2c0-0.1,0-0.1,0-0.1c0-0.1,0-0.1,0,0c0,0,0,0.1,0,0.1c0,0,0.1-0.1,0.1-0.1c-0.1,0.1,0,0,0,0
					c0,0,0.1,0,0.1-0.1c0,0,0,0,0,0c0,0,0,0,0,0c0,0,0,0,0,0c-0.1,0-0.1,0,0,0c0.1,0-0.1,0,0,0c0,0,0,0,0,0c0,0,0,0,0,0
					c0,0-0.1,0,0,0c0,0,0,0,0,0c0,0,0,0,0,0c0,0,0,0,0,0c0,0.1,0-0.1,0,0c0,0,0,0,0,0c0,0,0,0,0,0.1c0,0-0.1,0.1,0,0
					c0,0,0,0.1-0.1,0.1c0,0-0.1,0.1,0,0c0,0,0.1,0,0.2,0c0.1,0,0.2,0.2,0.2,0.3c0,0,0,0,0,0c0,0,0,0,0,0c0,0,0-0.1,0.1-0.1
					c0,0,0,0,0,0c0,0,0,0,0,0c0,0,0.1-0.1,0.1-0.1c-0.2,0-0.4-0.1-0.6-0.1c0-0.1,0-0.2,0-0.2c0,0,0,0,0,0c0,0,0,0,0,0
					c0,0,0.1,0,0.1,0c0.1,0,0.1,0,0,0c0.1,0,0,0,0,0c-0.1-0.1-0.3-0.2-0.4-0.3c-0.2-0.1-0.4,0-0.5,0.1c-0.1,0.1-0.1,0.4,0,0.5
					c0.3,0.2,0.6,0.3,0.9,0.1c0.3-0.2,0.4-0.5,0.4-0.8c0-0.3-0.3-0.5-0.5-0.7c-0.2-0.1-0.3-0.1-0.5-0.1c-0.1,0-0.3,0.1-0.4,0.2
					c-0.2,0.2-0.3,0.6-0.4,0.9c0,0.2,0,0.3,0.2,0.4c0.1,0.1,0.3,0.1,0.5-0.1c-0.1,0.1-0.2,0.1-0.2,0.1c0,0,0,0,0,0c0.1,0,0-0.1,0,0
					c0,0,0,0,0.1,0.1c0,0,0.1,0.1,0,0c0,0,0,0,0,0.1c0,0,0,0,0,0.1c0,0,0,0,0,0c0,0,0,0,0,0c0,0,0,0,0,0c0,0,0,0,0,0.1c0,0,0,0,0,0
					c0,0,0,0,0,0c0-0.1,0-0.1,0,0c0,0,0,0,0.1-0.1c0,0,0,0,0,0c0.1,0,0.1,0,0,0c0,0,0.1,0,0.1,0c0,0,0.1,0,0.1,0.1c0,0.1,0,0,0,0
					c0,0,0,0,0,0c0,0.1,0,0.1,0,0c0,0,0-0.1,0,0c0,0.1-0.2,0.2-0.3,0.1c0.2,0,0.4-0.1,0.5-0.3C45.7,132.5,45.6,132.3,45.4,132.3
					L45.4,132.3z"/>
			</g>
		</g>
		<g>
			<g>
				<path class="st3" d="M32.5,145.9c0.1,0.3,0.3,0.6,0.6,0.6c0.4,0.1,0.7-0.2,0.8-0.6c0-0.2,0-0.3,0-0.5c0-0.2-0.1-0.3-0.2-0.4
					c-0.2-0.2-0.4-0.2-0.6-0.1c-0.1,0.1-0.3,0.1-0.4,0.3c-0.1,0.1-0.2,0.3-0.2,0.5c0,0.2,0.1,0.4,0.3,0.5c0.1,0.1,0.3,0.1,0.4,0
					c0.1-0.1,0.2-0.2,0.1-0.4c0-0.1-0.1-0.3-0.2-0.4c-0.1-0.2-0.3-0.3-0.5-0.3c-0.4-0.1-0.7,0.3-0.7,0.7c0,0.2,0.1,0.3,0.2,0.5
					c0.1,0.1,0.2,0.3,0.3,0.3c0.3,0.1,0.7,0,0.9-0.2c0.2-0.3,0.3-0.6,0.2-1c0-0.1-0.2-0.3-0.3-0.3c-0.2,0-0.3,0.1-0.4,0.2
					C32.6,145.5,32.5,145.7,32.5,145.9c0.1,0.1,0.1,0.2,0.2,0.3c0.1,0.1,0.2,0.1,0.3,0.1c0.2,0,0.4-0.2,0.4-0.4
					c0-0.3-0.1-0.6-0.2-0.8c-0.1-0.1-0.2-0.3-0.4-0.3c0.1,0.1,0.2,0.2,0.1,0.3c0,0,0,0,0,0c0,0,0,0,0,0c0,0,0,0,0,0c0,0,0,0,0,0
					c0,0,0,0,0,0c0,0,0.1,0,0.1,0c0,0,0,0,0,0c-0.1,0-0.1,0,0,0c0,0,0.1,0,0.1,0c0,0,0.1,0,0.2,0c-0.1,0-0.1,0,0,0c0,0,0,0,0,0
					c-0.1,0-0.1,0,0,0c0,0,0,0,0,0c0.1,0-0.1-0.1,0,0c0,0,0-0.1,0,0c0-0.1,0-0.1,0,0c0,0,0,0,0,0c0,0,0,0,0,0c0,0,0,0.1,0,0.1
					c0,0,0,0.2,0,0.2c0-0.1,0-0.1,0,0c0,0,0,0,0,0.1c0,0,0,0,0,0c0,0,0,0,0,0c0,0,0,0,0,0c0,0,0,0,0,0c0,0,0,0,0,0c0.1,0,0.1,0,0,0
					c0.1,0.1,0.2,0.2,0.4,0.3c0-0.1,0,0.1,0,0c0,0,0-0.1,0,0c0,0.1,0,0,0,0c0,0.1,0,0.1,0,0c0,0,0,0,0,0c0-0.1,0,0,0,0c0,0,0,0,0,0
					c0,0-0.1,0.1,0,0c0.1,0,0,0,0,0c0,0,0,0,0,0c0,0,0,0-0.1,0c0.1,0-0.1,0,0,0c0.1,0,0,0,0,0c0,0,0,0,0,0c0,0,0,0,0,0c0,0,0,0,0,0
					c0,0,0,0,0,0c0,0,0,0,0,0c0,0,0,0,0,0.1c0,0.1,0-0.1,0,0c0,0,0,0,0,0c0,0,0,0.1,0,0c0-0.1,0,0,0,0c0,0,0,0,0,0c0,0,0,0,0,0
					c0,0,0,0,0,0c0,0,0-0.1,0,0c0,0,0,0,0,0.1c0,0,0.1-0.1,0,0c0,0,0,0,0,0c0,0,0,0-0.1,0c0,0,0,0,0,0c0,0,0,0-0.1,0
					c-0.1,0,0.1,0,0,0c0,0,0,0-0.1,0c0,0,0,0,0,0c0,0,0,0,0,0c0,0,0,0-0.1,0c-0.2-0.1-0.4,0.1-0.5,0.3c0,0.2,0.1,0.4,0.3,0.5
					c0.3,0.1,0.7,0,0.9-0.2c0.2-0.3,0.3-0.6,0.1-1c-0.2-0.3-0.5-0.5-0.9-0.3c-0.3,0.1-0.5,0.5-0.4,0.9c0,0.2,0.2,0.3,0.4,0.3
					c0.2,0,0.4-0.1,0.5-0.3c0.1-0.2,0.1-0.4,0.1-0.5c0-0.1,0-0.3,0-0.4c-0.1-0.2-0.2-0.4-0.4-0.4c-0.2,0-0.3,0-0.5,0
					c-0.1,0-0.3,0.1-0.4,0.2c-0.2,0.1-0.3,0.2-0.3,0.4c0,0.1,0,0.3,0,0.4c0.1,0.1,0.1,0.2,0.2,0.2c0,0,0,0,0,0c0,0,0,0,0,0
					c0,0,0,0,0,0c0,0,0.1,0.1,0,0c0,0,0,0,0,0c0,0,0,0,0,0c0,0,0,0.1,0,0.1c0-0.1,0-0.1,0,0c0,0,0,0,0,0.1c0,0,0,0.1,0,0.1
					c0,0,0-0.1,0,0c0,0,0,0,0,0C32.6,145.8,32.6,145.9,32.5,145.9c0.3,0,0.6,0,0.8,0c0,0,0-0.1,0-0.1c0,0,0,0,0-0.1c0,0.1,0,0.1,0,0
					c0,0,0,0,0,0c0,0,0,0,0,0c0,0,0-0.1,0.1-0.1c-0.2,0-0.5-0.1-0.7-0.1c0,0.1,0-0.1,0,0c0,0,0,0,0,0.1c0,0,0,0.1,0,0.1
					c0,0,0-0.1,0,0c0,0,0,0.1,0,0.1c0-0.1,0-0.1,0,0c0,0,0,0,0,0c0,0,0,0,0,0.1c0,0,0-0.1,0,0c0,0,0,0,0,0
					C32.6,145.9,32.6,145.9,32.5,145.9C32.6,145.9,32.6,145.9,32.5,145.9c0,0.1,0.1,0,0.1,0c-0.1,0,0,0,0,0c-0.1,0,0.1,0,0,0
					c0.1,0,0.1,0,0,0c0,0,0,0,0,0c-0.1-0.1,0,0.1,0,0c0,0,0-0.1-0.1-0.1c0,0,0-0.1,0,0c0,0.1,0,0,0,0c0,0,0,0,0-0.1c0,0,0,0,0,0
					c0,0,0,0,0,0c0,0,0,0,0,0c0,0,0,0,0-0.1c0,0,0,0,0,0.1c0,0,0,0,0,0C32.6,145.7,32.5,145.8,32.5,145.9
					C32.5,145.8,32.4,145.8,32.5,145.9c-0.1-0.1-0.1-0.1-0.1-0.1c0,0-0.1,0,0,0c0,0,0,0,0,0c0,0,0,0,0,0c0,0,0,0,0,0c0,0,0,0,0,0
					c0,0.1,0-0.1,0,0c0,0.1,0,0.1,0,0.2c0.2-0.1,0.4-0.3,0.6-0.4c0,0,0,0,0.1,0.1c0,0,0,0,0,0c0,0,0,0,0,0.1c0,0,0,0,0,0
					c0,0,0-0.1,0,0c0,0.1,0,0,0,0c0,0.1,0,0.1,0,0c0,0,0,0,0,0c0,0,0,0,0,0c0,0,0,0,0,0c0,0,0.1,0,0,0c-0.1,0,0,0,0,0
					c0,0,0.1-0.1,0.1-0.1c0,0,0,0,0,0c0,0,0,0-0.1,0c0,0-0.1,0-0.1-0.1c0.1,0,0-0.1,0,0c0,0,0,0,0,0.1c0,0,0-0.1,0,0
					c0,0,0,0.1,0,0.1c0,0,0,0,0,0.1c0,0,0,0,0,0c0,0,0,0,0,0c0,0,0,0.1,0,0.1c0,0,0,0,0,0c0-0.1,0-0.1,0,0c0,0.1,0,0,0,0
					c0,0,0,0.1,0,0.1c0,0,0,0,0,0c0,0,0,0,0,0c-0.1,0,0.1,0,0,0c0,0,0.1,0,0,0c0.1,0,0.1,0,0.1,0c0,0,0,0,0,0c-0.1,0,0.1,0.1,0,0
					c0,0,0-0.1,0,0c0,0.1,0,0,0,0c0,0,0,0,0-0.1c0-0.1,0,0.1,0,0c0,0,0,0,0-0.1c-0.1-0.2-0.3-0.3-0.5-0.3
					C32.5,145.5,32.4,145.7,32.5,145.9L32.5,145.9z"/>
			</g>
		</g>
		<g>
			<g>
				<path class="st3" d="M32.6,145.5C32.6,145.5,32.6,145.4,32.6,145.5C32.6,145.5,32.6,145.5,32.6,145.5
					C32.6,145.5,32.6,145.4,32.6,145.5C32.6,145.4,32.6,145.5,32.6,145.5c0,0,0-0.1,0-0.1C32.6,145.4,32.6,145.4,32.6,145.5
					c0-0.1,0-0.1,0-0.2C32.6,145.3,32.6,145.3,32.6,145.5c0-0.1,0-0.2,0-0.2c0,0,0,0.1,0,0.1c0,0,0-0.1,0.1-0.1c0,0,0,0.1-0.1,0.1
					c0,0,0.1-0.1,0.1-0.1c0,0-0.1,0-0.1,0.1c0,0,0.1,0,0.1-0.1c0,0-0.1,0-0.1,0c0,0,0,0,0,0c0.1,0,0.2-0.1,0.2-0.2
					c0-0.1,0.1-0.2,0-0.3c0-0.1-0.1-0.2-0.2-0.2c-0.1,0-0.2-0.1-0.3,0c-0.3,0.1-0.5,0.3-0.6,0.6c0,0.2,0,0.3,0,0.5
					c0,0.2,0.1,0.3,0.2,0.4c0.1,0.1,0.2,0.1,0.3,0.1c0.1,0,0.2,0,0.3-0.1c0.1-0.1,0.1-0.2,0.1-0.3C32.7,145.6,32.7,145.5,32.6,145.5
					L32.6,145.5z"/>
			</g>
		</g>
		<g>
			<g>
				<path class="st3" d="M32.3,146c0,0.1,0,0.1,0,0.2c0,0.1,0,0.1,0.1,0.1c0,0.1,0.1,0.1,0.1,0.2c0,0.1,0.1,0.1,0.2,0.1
					c0.1,0,0.1,0.1,0.2,0.1c0.2,0,0.4,0,0.5-0.1c0.1-0.1,0.2-0.2,0.3-0.3c0.1-0.1,0.1-0.3,0.2-0.4c0-0.1,0-0.2,0-0.3
					c0-0.1-0.1-0.2-0.2-0.2c-0.1,0-0.2,0-0.3,0c-0.1,0.1-0.1,0.1-0.2,0.2c0,0.1,0,0.1-0.1,0.2c0,0,0-0.1,0-0.1
					c0,0.1-0.1,0.1-0.1,0.2c0,0,0-0.1,0.1-0.1c0,0-0.1,0.1-0.1,0.1c0,0,0.1,0,0.1-0.1c0,0-0.1,0-0.1,0c0,0,0.1,0,0.1,0
					c0,0-0.1,0-0.1,0c0,0,0.1,0,0.1,0c0,0-0.1,0-0.1,0c0,0,0.1,0,0.1,0c0,0-0.1,0-0.1,0c0,0,0.1,0,0.1,0c0,0-0.1,0-0.1,0
					c0,0,0.1,0,0.1,0.1c0,0,0,0-0.1-0.1c0,0,0,0.1,0.1,0.1c0,0,0-0.1-0.1-0.1c0,0,0,0.1,0,0.1c0,0,0-0.1,0-0.1c0,0,0,0.1,0,0.1
					c0,0,0,0,0,0c0-0.1,0-0.2-0.1-0.3c-0.1-0.1-0.2-0.1-0.3-0.1c-0.1,0-0.2,0-0.3,0.1C32.3,145.8,32.3,145.9,32.3,146L32.3,146z"/>
			</g>
		</g>
		<g>
			<g>
				<path class="st3" d="M33.3,145.1c0-0.1,0-0.2-0.1-0.3c0,0,0-0.1-0.1-0.1c0,0-0.1-0.1-0.1-0.1c0,0-0.1,0-0.1,0c0,0-0.1,0-0.1,0
					c0,0-0.1,0-0.1,0c-0.1,0-0.1,0.1-0.1,0.1c0,0,0,0.1,0,0.1c0,0.1,0,0.1,0,0.2c0,0.1,0,0.2,0.1,0.3c0,0,0,0.1,0.1,0.1
					c0,0,0.1,0.1,0.1,0.1c0,0,0.1,0,0.1,0c0,0,0.1,0,0.1,0c0,0,0.1,0,0.1,0c0.1,0,0.1-0.1,0.1-0.1c0,0,0-0.1,0-0.1
					C33.3,145.2,33.3,145.1,33.3,145.1L33.3,145.1z"/>
			</g>
		</g>
		<g>
			<g>
				<path class="st3" d="M45.3,132.5c0-0.1,0.1-0.3,0.1-0.4c0,0,0,0.1,0,0.1c0-0.1,0.1-0.2,0.1-0.2c0,0,0,0.1-0.1,0.1
					c0,0,0.1-0.1,0.1-0.1c0,0-0.1,0-0.1,0.1c0,0,0.1-0.1,0.1-0.1c0,0-0.1,0-0.1,0c0,0,0.1,0,0.1,0c0,0-0.1,0-0.1,0c0,0,0.1,0,0.1,0
					c0,0-0.1,0-0.1,0c0,0,0.1,0,0.1,0c0,0-0.1,0-0.1,0c0,0,0,0,0.1,0c0,0-0.1,0-0.1-0.1c0,0,0,0,0.1,0.1c0,0,0-0.1-0.1-0.1
					c0,0,0,0.1,0.1,0.1c0,0,0-0.1,0-0.1c0,0,0,0.1,0,0.1c0,0,0-0.1,0-0.1c0,0,0,0.1,0,0.1c0,0,0-0.1,0-0.1c0,0,0,0.1,0,0.1
					c0,0,0-0.1,0-0.1c0,0,0,0,0,0.1c-0.1,0.1-0.1,0.2,0,0.3c0,0.1,0.1,0.2,0.2,0.2c0.1,0,0.2,0.1,0.3,0c0.1,0,0.2-0.1,0.2-0.2
					c0.1-0.2,0.1-0.4,0.1-0.6c-0.1-0.2-0.2-0.4-0.4-0.5c-0.4-0.2-0.9,0.1-1.1,0.5c-0.1,0.2-0.2,0.4-0.2,0.6c0,0.1,0,0.2,0,0.3
					c0,0.1,0.1,0.2,0.2,0.2C45,132.8,45.2,132.7,45.3,132.5L45.3,132.5z"/>
			</g>
		</g>
		<g>
			<g>
				<path class="st3" d="M50.3,131.7c1.2-2.2,2.6-4.3,4.3-6.1c0.3-0.3,0.3-0.8,0-1.1c-0.3-0.3-0.8-0.3-1.1,0
					c-1.8,1.9-3.3,4.1-4.5,6.4C48.6,131.8,49.9,132.6,50.3,131.7L50.3,131.7z"/>
			</g>
		</g>
		<g>
			<g>
				<path class="st3" d="M52.3,132.6c1.4-1.3,2.8-2.5,4.2-3.8c0.3-0.3,0.3-0.8,0-1.1c-0.3-0.3-0.7-0.3-1.1,0
					c-1.4,1.3-2.8,2.5-4.2,3.8c-0.3,0.3-0.3,0.8,0,1.1C51.5,132.8,52,132.8,52.3,132.6L52.3,132.6z"/>
			</g>
		</g>
		<g>
			<g>
				<path class="st3" d="M32.1,150.7c-2.5,1.3-4.8,2.9-6.8,4.7c0.4,0.4,0.7,0.7,1.1,1.1c0.1-0.1,0.1-0.1,0.2-0.2
					c0.7-0.7-0.4-1.7-1.1-1.1c-0.1,0.1-0.1,0.1-0.2,0.2c-0.7,0.7,0.3,1.7,1.1,1.1c2-1.8,4.2-3.3,6.5-4.5
					C33.7,151.5,32.9,150.3,32.1,150.7L32.1,150.7z"/>
			</g>
		</g>
		<g>
			<g>
				<path class="st3" d="M32.7,153.1c-1,1.3-2,2.6-3.1,3.8c-0.2,0.3-0.3,0.8,0,1.1c0.3,0.2,0.8,0.3,1.1,0c1-1.3,2-2.6,3.1-3.8
					c0.2-0.3,0.3-0.8,0-1.1C33.5,152.9,33,152.8,32.7,153.1L32.7,153.1z"/>
			</g>
		</g>
	</g>
	<g>
		<path class="st7" d="M49.8,150.3c1-0.2,2.5-0.4,3-1.5c0.4-1-0.3-2.5-0.6-3.4c-0.2-0.7-0.7-1.6-0.6-2.4c0.1-0.8,0.9-1.1,1.5-1.3
			c4.4-1.8,8.9-3.8,13.5-5.2c0.1-0.2,0.2-0.3,0.4-0.3c1-0.2,1.9-0.5,2.9-0.7c0.3-0.1,0.8,0.3,0.8,0.6c0,3.9,0.7,7.5,1.8,11.3
			c0.3,1.1,0.6,2.4-0.1,3.4c-0.7,1.2-2,1.5-3.3,1.8c-3.7,0.7-7.4,1-11,2.1c-1.5,0.5-2.5,0.5-4-0.2c-1.6-0.8-3.2-1.8-4.7-2.9
			C49,151.2,49.3,150.4,49.8,150.3z"/>
		<g>
			<g>
				<path class="st3" d="M69.8,135.1c1.2,5.4,1.9,10.8,2.6,16.2c0.1,0.9,1.6,1,1.5,0c-0.7-5.6-1.5-11.1-2.7-16.6
					C71.1,133.7,69.6,134.1,69.8,135.1L69.8,135.1z"/>
			</g>
		</g>
		<g>
			<g>
				<path class="st3" d="M73,150.6c-5.7,1.6-11.5,2.9-17.4,4.1c-0.9,0.2-0.5,1.6,0.4,1.4c5.8-1.2,11.6-2.6,17.4-4.1
					C74.4,151.8,74,150.3,73,150.6L73,150.6z"/>
			</g>
		</g>
		<g>
			<g>
				<path class="st3" d="M56.2,155.1c-1.6-4.2-3.1-8.4-4.5-12.7c-0.3-0.9-1.7-0.5-1.4,0.4c1.4,4.3,2.9,8.5,4.5,12.7
					C55.1,156.4,56.5,156,56.2,155.1L56.2,155.1z"/>
			</g>
		</g>
		<g>
			<g>
				<path class="st3" d="M70,134.3c-6.3,2.5-12.6,4.9-18.9,7.4c-0.9,0.4-0.5,1.8,0.4,1.4c6.3-2.5,12.6-4.9,18.9-7.4
					C71.3,135.3,70.9,133.9,70,134.3L70,134.3z"/>
			</g>
		</g>
		<g>
			<g>
				<g>
					<path class="st3" d="M55.6,154.8c-1.2-0.4-2.2-1.1-3.3-1.8c-1.1-0.8-2.2-1.5-3.4-2c0,0.5,0,1,0,1.4c0.1,0,0.1,0,0.2-0.1
						c0.8-0.2,0.7-1.5-0.2-1.5c0,0,0.1,0.1,0.1,0.1c-0.2,0.2-0.4,0.5-0.6,0.7c0.2-0.1,0.3-0.1,0.5-0.2c0.8-0.3,0.7-1.5-0.2-1.5
						c-0.1,0-0.2,0-0.2,0c0.1,0.5,0.3,0.9,0.4,1.4c1.3-0.8,2.6-1.5,4.1-1.9c0.9-0.3,0.5-1.7-0.4-1.4c-1.6,0.5-3.1,1.2-4.5,2.1
						c-0.6,0.4-0.4,1.4,0.4,1.4c0.1,0,0.2,0,0.2,0c-0.1-0.5-0.1-1-0.2-1.5c-0.2,0.1-0.3,0.1-0.5,0.2c-0.3,0.1-0.5,0.4-0.6,0.7
						c0,0.8,0.6,1.4,1.4,1.4c-0.1-0.5-0.1-1-0.2-1.5c-0.1,0-0.1,0-0.2,0.1c-0.7,0.2-0.7,1.2,0,1.4c1.2,0.4,2.2,1.3,3.2,2
						c1.1,0.7,2.2,1.5,3.4,1.9C56.2,156.5,56.6,155,55.6,154.8L55.6,154.8z"/>
				</g>
			</g>
		</g>
		<g>
			<path class="st8" d="M61,145.1c0.3,0.4,0.5,0.7,0.9,1.1c0.4,0.5,1,0.9,1.6,1c0.6,0.1,1.2-0.2,1.6-0.7c0.4-0.5,0.5-1.1,0.4-1.7
				c0-0.3-0.1-0.6-0.4-0.7c-0.1,0-0.3,0-0.4,0c-0.9,0.3-1.5,1.1-2,1.9s-0.8,1.7-1.3,2.5c-0.4-1-0.5-2.1-0.3-3.2"/>
			<g>
				<path class="st3" d="M60.6,145.3c0.6,0.8,1.3,1.8,2.3,2.1c1,0.4,2.1-0.1,2.6-1c0.2-0.4,0.4-1,0.3-1.5c0-0.4-0.1-0.9-0.6-1.1
					c-0.5-0.2-1,0.1-1.4,0.3c-0.4,0.3-0.8,0.6-1.1,1c-0.8,1-1.2,2.1-1.7,3.2c0.2,0,0.5,0.1,0.7,0.1c-0.3-1-0.5-2-0.3-3
					c0-0.2-0.1-0.4-0.3-0.5C61,144.9,60.7,145,60.6,145.3c-0.1,1.1,0,2.2,0.4,3.3c0.1,0.3,0.5,0.4,0.7,0.1c0.8-1.4,1.2-3.2,2.7-4
					c0.1-0.1,0.3-0.2,0.5-0.2c0.1,0,0,0,0.1,0c0,0,0.1,0.1,0.1,0.2c0.1,0.3,0,0.7-0.1,1.1c-0.2,0.7-0.9,1.2-1.7,1
					c-0.4-0.1-0.7-0.4-1-0.7c-0.3-0.4-0.7-0.7-0.9-1.1c-0.1-0.2-0.3-0.2-0.5-0.1C60.6,144.9,60.5,145.2,60.6,145.3L60.6,145.3z"/>
			</g>
		</g>
	</g>
</g>
</svg>
