<?xml version="1.0" encoding="utf-8"?>
<!-- Generator: Adobe Illustrator 26.3.1, SVG Export Plug-In . SVG Version: 6.00 Build 0)  -->
<svg version="1.1" id="Calque_1" xmlns="http://www.w3.org/2000/svg" xmlns:xlink="http://www.w3.org/1999/xlink" x="0px" y="0px"
	 viewBox="0 0 200 200" style="enable-background:new 0 0 200 200;" xml:space="preserve">
<style type="text/css">
	.st0{fill:#666666;}
	.st1{fill:#E7F4DF;}
	.st2{fill:#FD5A5C;}
	.st3{fill:#FFFF66;}
	.st4{fill:#FFFFCC;}
</style>
<g>
	<g>
		<path class="st0" d="M88.6,154.6c-0.9,3.1-3,5.1-5.7,6.8c-2.7,1.7-5.7,3.1-8,5.3c-2.3,2.2-4,5-4.7,8.2c-0.4,1.7-0.5,3.4,0,5.1
			c0.9,3.2,4.1,5.5,7.4,5.9c3.3,0.3,6.7-1.1,9.1-3.4c2.4-2.3,3.5-3.8,5.1-7.5c0.5,1.2,3.2,2.6,3.5,2.5c0.5-0.1-0.1-1.5-0.1-2
			c-0.1-3.7,2-7,3.5-10.3s1.2-6.4,0.6-10"/>
		<g>
			<path class="st1" d="M87.1,154.2c-1.4,4.4-5.7,6.3-9.3,8.5c-4,2.5-7.2,5.7-8.7,10.2c-1.5,4.5-0.8,9.3,3.1,12.3
				c3.5,2.7,8.2,2.6,12.1,0.7c4.1-2.1,6.9-6.1,8.8-10.2c-0.9,0-1.7,0-2.6,0c0.7,1.4,3.1,3.3,4.7,3.3c1.2,0,1.8-1.1,1.8-2.2
				c0-0.6-0.2-1.1-0.3-1.7c0-0.8,0.1-1.5,0.3-2.3c0.8-3.1,2.7-5.7,3.7-8.7c1-3.1,0.6-6.3,0.1-9.4c-0.3-1.9-3.2-1.1-2.9,0.8
				c0.4,2.4,0.7,5,0,7.4c-0.7,2.4-2.1,4.6-3.1,6.9c-0.8,2-1.5,4.4-1.1,6.5c0,0.2,0.1,0.5,0.1,0.6c0.1,0.1,1.5-0.9,1.5-1
				c-0.1-0.1-0.6-0.3-0.7-0.4c-0.6-0.4-1.3-0.8-1.7-1.4c-0.5-1-2.1-1-2.6,0c-1.4,3.1-3.2,6-6,8.1c-3,2.3-7.3,3-10.5,0.6
				c-3.6-2.6-3-7.4-1.2-11c1.9-3.8,5.3-5.9,8.9-8c3.7-2.2,7-4.7,8.4-8.9C90.6,153.1,87.7,152.4,87.1,154.2L87.1,154.2z"/>
		</g>
	</g>
	<g>
		<g>
			<path class="st1" d="M70.3,179.1c3,1.3,6.2,2,9.4,2.3c1.6,0.1,3.2,0.1,4.8,0c0.8-0.1,1.6-0.1,2.3-0.3c0.4-0.1,0.8-0.3,0.8-0.7
				c0-0.5-0.7-0.5-0.8,0c0,0.2-3.8,0.4-4.2,0.4c-1.4,0-2.7,0-4.1-0.2c-2.8-0.3-5.6-1.1-8.2-2.2C70.1,178.2,69.9,179,70.3,179.1
				L70.3,179.1z"/>
		</g>
	</g>
	<g>
		<g>
			<path class="st1" d="M70,175.4c1,0.8,2.4,0.9,3.6,1.1c2.1,0.3,4.2,0.4,6.3,0.5c2.3,0.1,4.5,0,6.8-0.2c0.8-0.1,1.7-0.2,2.5-0.4
				c0.5-0.1,1.5-0.2,1.8-0.7c0.1-0.2,0.1-0.3-0.1-0.5c-0.2-0.1-0.3-0.2-0.5-0.1c-0.2,0-0.3,0.2-0.3,0.4c0,0,0,0,0,0.1
				c0,0.5,0.7,0.5,0.8,0c0,0,0,0,0-0.1c-0.1,0.1-0.2,0.2-0.3,0.4c-0.1,0-0.2,0-0.2-0.1c0-0.2,0-0.3-0.1-0.5
				c-0.1,0.3-1.5,0.4-1.8,0.5c-0.9,0.2-1.8,0.2-2.7,0.3c-2,0.1-4,0.2-6,0.1c-1.9,0-3.8-0.2-5.7-0.4c-1-0.1-2.7-0.2-3.5-0.9
				C70.2,174.6,69.7,175.1,70,175.4L70,175.4z"/>
		</g>
	</g>
	<g>
		<g>
			<path class="st1" d="M70.4,177.1c1.1,1,2.7,1.2,4.2,1.4c1.7,0.3,3.4,0.5,5.2,0.6c1.8,0.1,3.6,0.1,5.4-0.1
				c0.8-0.1,1.7-0.2,2.5-0.3c0.5-0.1,1.3-0.1,1.8-0.5c0.1-0.1,0.1-0.2,0.1-0.4c0,0,0-0.1,0-0.1c-0.1-0.2-0.2-0.3-0.4-0.3
				c0,0-0.1,0-0.1,0c-0.5,0-0.5,0.7,0,0.8c0,0,0.1,0,0.1,0c-0.1-0.1-0.2-0.2-0.4-0.3c0,0,0,0.1,0,0.1c0-0.1,0.1-0.2,0.1-0.4
				c-0.3,0.3-1.7,0.3-2.1,0.4c-0.8,0.1-1.6,0.2-2.3,0.2c-1.5,0.1-3,0.1-4.6,0c-1.6-0.1-3.2-0.2-4.8-0.5c-1.4-0.2-3.1-0.3-4.2-1.3
				C70.6,176.3,70,176.8,70.4,177.1L70.4,177.1z"/>
		</g>
	</g>
	<g>
		<g>
			<path class="st1" d="M70.3,173.9c5.4,1.3,11.2,1.1,16.6,0.8c1.4-0.1,2.8-0.3,4.2-0.4c0.3,0,0.7,0,1.1,0c0.5-0.1,2.5-0.1,2.8-0.7
				c0.2-0.4-0.4-0.8-0.6-0.4c0.1-0.2-0.2,0-0.4,0c-0.3,0-0.6,0.1-0.9,0.2c-0.3,0.1-0.7,0.1-1,0.1c0,0-0.7,0.1-0.4,0.1
				c-0.2,0-0.5-0.1-0.7-0.1c-0.6,0-1.3,0.1-1.9,0.2c-1.2,0.1-2.4,0.2-3.6,0.2c-5,0.2-10.1,0.3-15-0.8
				C70,173.1,69.8,173.8,70.3,173.9L70.3,173.9z"/>
		</g>
	</g>
	<g>
		<g>
			<path class="st1" d="M72.1,172.4c3.9,1,7.9,0.5,11.9,0.2c4.2-0.3,8.4-0.6,12.5-1.7c0.4-0.1,0.3-0.6,0-0.7c-0.1,0-0.2-0.1-0.3-0.1
				c-0.4-0.2-0.6,0.5-0.2,0.7c0.1,0,0.2,0.1,0.3,0.1c0-0.2,0-0.5,0-0.7c-4,1.1-8.1,1.5-12.3,1.7c-3.9,0.2-7.8,0.7-11.7-0.2
				C71.9,171.6,71.7,172.3,72.1,172.4L72.1,172.4z"/>
		</g>
	</g>
	<g>
		<g>
			<path class="st1" d="M72.5,170.8c4.6,0.3,9.1,0.2,13.7-0.1c2.1-0.2,4.1-0.4,6.1-0.7c1.1-0.2,2.1-0.4,3.2-0.7
				c0.5-0.1,1.5-0.2,1.7-0.8c0.1-0.1,0.1-0.3-0.1-0.5c-0.2-0.1-0.3-0.2-0.5-0.1c-0.1,0-0.3,0.2-0.3,0.4c0,0,0,0,0,0.1
				c0.1,0.5,0.8,0.5,0.8,0c0,0,0,0,0-0.1c-0.1,0.1-0.2,0.2-0.3,0.4c-0.1,0-0.1-0.1-0.2-0.1c0-0.2,0-0.3-0.1-0.5
				c-0.2,0.4-2.4,0.7-2.9,0.8c-1.1,0.2-2.2,0.4-3.3,0.5c-1.9,0.2-3.9,0.4-5.9,0.5c-4,0.3-8,0.2-12,0C72.1,170,72.1,170.7,72.5,170.8
				L72.5,170.8z"/>
		</g>
	</g>
	<g>
		<g>
			<path class="st1" d="M73.8,168.6c8.2,0.8,16.4-0.6,24.4-2c0.3-0.1,0.3-0.5,0.1-0.7c-0.1-0.1-0.3-0.2-0.4-0.3
				c-0.4-0.3-0.8,0.4-0.4,0.6c0.1,0.1,0.3,0.2,0.4,0.3c0-0.2,0.1-0.5,0.1-0.7c-8,1.4-16.1,2.8-24.2,2
				C73.3,167.8,73.3,168.6,73.8,168.6L73.8,168.6z"/>
		</g>
	</g>
	<g>
		<g>
			<path class="st1" d="M76.2,167c3.9,0.3,7.8-0.2,11.7-0.8c2-0.3,4-0.7,6-0.9c1.8-0.3,3.6-0.5,5.3-1.3c0.3-0.1,0.2-0.5,0-0.6
				c-0.1-0.1-0.3-0.1-0.4-0.2c-0.4-0.2-0.8,0.4-0.4,0.6c0.1,0.1,0.3,0.1,0.4,0.2c0-0.2,0-0.4,0-0.6c-1.7,0.8-3.6,1-5.5,1.3
				c-1.9,0.3-3.7,0.6-5.6,0.9c-3.8,0.6-7.6,1.1-11.5,0.8C75.8,166.2,75.8,166.9,76.2,167L76.2,167z"/>
		</g>
	</g>
	<g>
		<g>
			<path class="st1" d="M78.9,164.9c3.8,0,7.5,0,11.2-0.4c1.7-0.2,3.4-0.4,5.1-0.8c0.9-0.2,1.8-0.4,2.7-0.7c0.5-0.1,1.3-0.2,1.6-0.7
				c0.1-0.1,0.1-0.3-0.1-0.5c-0.2-0.2-0.3-0.2-0.5-0.1c-0.2,0-0.3,0.2-0.3,0.4c0,0,0,0,0,0.1c0,0.5,0.8,0.5,0.8,0c0,0,0,0,0-0.1
				c-0.1,0.1-0.2,0.2-0.3,0.4c-0.1,0-0.1,0-0.2-0.1c0-0.2,0-0.3-0.1-0.5c-0.2,0.4-2.1,0.6-2.5,0.8c-0.8,0.2-1.6,0.4-2.5,0.6
				c-1.7,0.3-3.4,0.5-5.1,0.7c-3.3,0.3-6.6,0.3-9.9,0.3C78.4,164.2,78.4,164.9,78.9,164.9L78.9,164.9z"/>
		</g>
	</g>
	<g>
		<g>
			<path class="st1" d="M82,163c3.4,0.1,6.8,0.2,10.2-0.2c1.5-0.2,2.9-0.4,4.3-0.9c0.7-0.2,1.3-0.5,1.9-0.8c0.4-0.2,1.1-0.4,1.2-0.9
				c0-0.2,0-0.4-0.2-0.4c-0.2-0.1-0.3-0.1-0.5,0c-0.1,0.1-0.2,0.3-0.2,0.4c0,0,0,0,0,0c0.2,0.4,0.9,0.2,0.7-0.2c0,0,0,0,0,0
				c-0.1,0.1-0.1,0.3-0.2,0.4c0,0,0,0,0.1,0c-0.1,0-0.3,0-0.4,0c0,0,0,0,0,0c-0.1-0.1-0.1-0.3-0.2-0.4c0,0.1-0.8,0.4-0.9,0.5
				c-0.3,0.2-0.6,0.3-1,0.4c-0.6,0.2-1.3,0.5-1.9,0.6c-1.4,0.4-2.8,0.5-4.2,0.6c-2.9,0.2-5.9,0.1-8.9,0.1
				C81.6,162.2,81.6,163,82,163L82,163z"/>
		</g>
	</g>
	<g>
		<g>
			<path class="st1" d="M84.3,161.4c2.8-0.2,5.5,0,8.3-0.3c2.5-0.3,4.9-1.1,7.1-2.3c0.4-0.2,0.1-0.9-0.4-0.6
				c-2.3,1.2-4.7,1.9-7.2,2.2c-2.6,0.3-5.2,0.1-7.8,0.3C83.8,160.7,83.8,161.5,84.3,161.4L84.3,161.4z"/>
		</g>
	</g>
	<g>
		<g>
			<path class="st1" d="M85.7,160.1c2.3-0.1,4.7,0,7-0.2c2.1-0.2,4.1-0.8,6-1.7c0.4-0.2,0.1-0.9-0.4-0.6c-1.9,1-4,1.5-6.2,1.6
				c-2.2,0.1-4.3,0.1-6.5,0.2C85.2,159.4,85.2,160.1,85.7,160.1L85.7,160.1z"/>
		</g>
	</g>
	<g>
		<g>
			<path class="st1" d="M87.9,157.9c2.4,0.3,4.9,0.6,7.4,0.5c1.1-0.1,2.3-0.2,3.4-0.5c0.3-0.1,0.9-0.2,0.9-0.6
				c0-0.3-0.2-0.5-0.5-0.5c-0.5,0-0.5,0.7,0,0.8c0,0,0,0,0.1,0c-0.1-0.1-0.2-0.1-0.3-0.2c0.1-0.3,0.1-0.3-0.1-0.2
				c-0.1,0-0.2,0.1-0.3,0.1c-0.2,0.1-0.5,0.1-0.7,0.2c-0.4,0.1-0.9,0.2-1.3,0.2c-0.9,0.1-1.9,0.1-2.8,0.1c-1.9,0-3.7-0.3-5.6-0.5
				C87.4,157.1,87.4,157.8,87.9,157.9L87.9,157.9z"/>
		</g>
	</g>
	<g>
		<g>
			<path class="st1" d="M88.8,156c1.9,0.2,3.8,0.6,5.7,0.8c0.9,0.1,1.8,0.2,2.7,0.1c0.4,0,0.8-0.1,1.3-0.1c0.4,0,0.7,0,0.9-0.4
				c0.1-0.1,0-0.3-0.1-0.5c-0.1-0.1-0.2-0.1-0.3-0.1c-0.2,0-0.3,0.1-0.4,0.3c0,0,0,0,0,0c-0.1,0.5,0.6,0.7,0.7,0.2c0,0,0,0,0,0
				c-0.1,0.1-0.2,0.2-0.4,0.3c0,0,0,0,0,0c-0.1,0-0.2-0.1-0.3-0.1c0,0,0,0,0,0c0-0.2,0-0.3-0.1-0.5c0,0,0,0,0,0.1
				c0.1-0.1,0.1-0.1,0.2-0.2c-0.8,0.3-1.7,0.2-2.5,0.2c-0.9,0-1.7-0.1-2.6-0.2c-1.7-0.2-3.4-0.6-5.1-0.7
				C88.3,155.2,88.3,155.9,88.8,156L88.8,156z"/>
		</g>
	</g>
	<g>
		<g>
			<path class="st1" d="M70.7,180.8c4.3,2.1,9.1,3.2,13.9,3.2c0.2,0,0.4-0.2,0.4-0.4c0-0.2,0-0.4-0.1-0.6c0-0.5-0.8-0.5-0.8,0
				c0,0.2,0,0.4,0.1,0.6c0.1-0.1,0.2-0.2,0.4-0.4c-4.7,0-9.3-1.1-13.5-3.1C70.6,179.9,70.3,180.6,70.7,180.8L70.7,180.8z"/>
		</g>
	</g>
</g>
<g>
	<g>
		<path class="st0" d="M147.7,99.9c0.1-1.1-0.3-2.2-1.1-2.9c-0.8-0.8-1.9-1-3-1c-1.6-0.1-3.3-0.1-4.9-0.1c0-0.1,0-0.1,0-0.2
			c-0.8-3.7-2.2-7.1-3.6-10.6c0.6-2.5,1.2-4.9,1.6-7.5c0.4-2.8,1.1-6.3-0.3-8.9c-0.6-1.1-1.6-2-2.8-2.4c-1.5-0.5-3.1,0-4.5,0.6
			c-2.8,1.3-5.5,3-8.1,4.7c-12.3-6.2-26.8-7.3-39.9-2.9c-1.1-1-2.2-1.9-3.5-2.7c-1.2-0.8-2.6-1.6-3.9-2.3c-1.4-0.7-3.1-1.4-4.7-0.9
			c-1,0.3-2,1.1-2.3,2.2c-0.1,0.5-0.2,1.1-0.3,1.7c-0.3,2.1-0.6,4.3-0.7,6.5c-0.1,1.6-0.2,3.3-0.1,5c-0.1,0.1-0.2,0.2-0.3,0.3
			c-2.9,4.3-6.3,8.4-8.2,13.3c-0.2,0.1-1.1-0.1-1.2-0.1c-0.6-0.1-1.2-0.1-1.8-0.1c-1.2,0-2.5,0.2-3.7,0.6c-2.3,0.7-4.4,2.1-4.3,4.7
			c0,2.3,1.5,4.5,2.7,6.4c1.4,2.1,2.9,4.1,3.8,6.4c0.1,0.2,0.3,0.5,0.5,0.6c-1,11.5-0.9,24,6.1,33.7c-0.1,0.2-0.1,0.4-0.2,0.6
			c-0.4,1.3-0.9,2.5-1.1,3.8c-0.2,1.4-0.4,2.9-0.3,4.2c0.2,1.4,1.2,2.1,2.5,2.4c2.7,0.6,5.4-0.4,7.7-1.8c0.7-0.4,1.5-0.9,2.2-1.3
			c13,5.6,28.9,9,42.3,3.3c0.1,0,0.2-0.1,0.3-0.1c0.6-0.4,1.7-0.1,2.4,0.1c1,0.3,1.9,0.9,2.8,1.5c2.1,1.4,4.8,3.3,7.4,2.2
			c2.4-1,3.2-4,3.1-6.4c0-0.8-0.1-1.6-0.3-2.4c1.8-2.1,3.9-4,5.5-6.3c1.8-2.5,3.3-5.5,4.6-8.3c2.2-4.9,3.7-10.1,3.5-15.5
			c-0.1-2.9-0.6-5.7-1.3-8.5c1.4-1.5,2.8-3.1,4.1-4.8C146,104.4,147.5,102.1,147.7,99.9z"/>
	</g>
</g>
<g>
	<g>
		<path class="st1" d="M69.9,151.8c13.3,5.8,29.6,9.4,43.4,3.3c1.8-0.8,0.2-3.4-1.5-2.6c-6.2,2.7-13.2,3.1-19.9,2.4
			c-7-0.8-14-2.8-20.5-5.7C69.7,148.4,68.2,151,69.9,151.8L69.9,151.8z"/>
	</g>
</g>
<g>
	<g>
		<path class="st1" d="M60,140.8C59.9,140.5,59.9,140.5,60,140.8c0,0.2,0,0.3,0,0.5c0,0.3-0.1,0.6-0.1,0.9c-0.1,0.7-0.4,1.4-0.6,2
			c-0.4,1.3-0.9,2.5-1.1,3.8c-0.2,1.4-0.4,2.9-0.3,4.3c0.2,1.5,1.3,2.4,2.7,2.7c2.8,0.6,5.6-0.4,8-1.8c2.5-1.4,4.8-3.1,6.9-5.1
			c1.4-1.3-0.7-3.4-2.1-2.1c-1.8,1.6-3.8,3.1-5.9,4.3c-1.8,1.1-4.2,2.3-6.4,1.7c-0.1,0-0.3-0.1-0.4-0.2c0.3,0.2,0.1,0,0.1-0.3
			c0-0.6,0-1.2,0.1-1.7c0.1-1.2,0.4-2.4,0.8-3.6c0.4-1.1,0.8-2.2,1-3.3c0.3-1.2,0.5-2.6-0.1-3.7C61.6,137.6,59,139.1,60,140.8
			L60,140.8z"/>
	</g>
</g>
<g>
	<g>
		<path class="st1" d="M113.3,155.1C113.5,155,113.5,155,113.3,155.1c0.1-0.1,0.2-0.1,0.3-0.1c-0.1,0,0.4,0,0.5,0
			c0.5,0,0.9,0.1,1.3,0.2c1,0.3,1.8,0.9,2.7,1.4c2.2,1.4,4.9,3.4,7.7,2.3c2.6-1.1,3.4-4.1,3.3-6.6c-0.2-2.9-1-5.8-1.6-8.6
			c-0.4-1.9-3.3-1.1-2.9,0.8c0.3,1.4,0.6,2.8,0.9,4.3c0.2,1.1,0.5,2.3,0.6,3.5c0.1,1.5-0.2,4.5-2.4,4.1c-1.1-0.2-2.2-0.9-3.1-1.5
			c-1-0.6-1.9-1.3-2.9-1.8c-1.7-0.8-4.2-1.4-5.9-0.4C110.2,153.5,111.7,156.1,113.3,155.1L113.3,155.1z"/>
	</g>
</g>
<g>
	<g>
		<path class="st1" d="M128.4,150.5c2.5-3,5.3-5.5,7.3-8.9c2-3.4,3.8-7,5.1-10.8c2.3-6.7,2.2-13.6,0.3-20.4
			c-0.5-1.9-3.4-1.1-2.9,0.8c1.7,6.3,1.8,12.6-0.3,18.8c-1.2,3.4-2.8,6.7-4.6,9.8c-1.9,3.3-4.6,5.7-7,8.5
			C125,149.8,127.1,151.9,128.4,150.5L128.4,150.5z"/>
	</g>
</g>
<g>
	<g>
		<path class="st1" d="M140.7,111.8c1.6-1.7,3.2-3.4,4.6-5.3c1.4-1.9,2.9-4.2,3-6.5c0.1-1.1-0.3-2.3-1.2-3.1
			c-0.9-0.9-2.1-1.1-3.2-1.1c-2.6-0.2-5.2-0.2-7.9,0c-0.8,0-1.5,0.7-1.5,1.5c0,0.8,0.7,1.5,1.5,1.5c2.2-0.1,4.5-0.1,6.7,0
			c0.6,0,1.8-0.1,2.3,0.3c0.4,0.3,0.3,1.1,0.2,1.5c-0.5,1.8-1.7,3.4-2.8,4.9c-1.2,1.5-2.5,2.9-3.8,4.3
			C137.3,111.1,139.4,113.2,140.7,111.8L140.7,111.8z"/>
	</g>
</g>
<g>
	<g>
		<path class="st1" d="M62.1,142.4c-7.3-9.9-6.8-22.7-5.7-34.4c0.2-1.9-2.8-1.9-3,0c-1.1,12.1-1.5,25.6,6.1,35.9
			C60.6,145.5,63.3,144,62.1,142.4L62.1,142.4z"/>
	</g>
</g>
<g>
	<g>
		<path class="st1" d="M55.7,108.6c-0.9-2.1-2.1-4-3.4-5.9c-1.1-1.7-2.7-3.6-3.1-5.7c-0.3-2.1,2.4-2.6,3.9-2.8
			c1.1-0.2,2.2-0.1,3.3,0c1.2,0.2,2.1,0.1,3.1-0.7c0.6-0.5,0.5-1.6,0-2.1c-0.6-0.6-1.5-0.5-2.1,0c0.2-0.2,0-0.1-0.2-0.1
			c-0.3,0-0.6-0.1-0.8-0.1c-0.6-0.1-1.2-0.1-1.8-0.1c-1.3,0-2.5,0.2-3.8,0.6c-2.4,0.7-4.6,2.2-4.6,5c0,2.4,1.5,4.6,2.8,6.5
			c1.3,2,2.8,4,3.8,6.3c0.3,0.7,1,1.3,1.8,1C55.4,110.3,56,109.4,55.7,108.6L55.7,108.6z"/>
	</g>
</g>
<g>
	<g>
		<path class="st1" d="M59.2,95.8c1.1-6.2,5.5-11,8.9-16.1c1.1-1.6-1.5-3.1-2.6-1.5c-3.5,5.3-8,10.3-9.2,16.8
			c-0.1,0.8,0.2,1.6,1,1.8C58.1,97.1,59.1,96.6,59.2,95.8L59.2,95.8z"/>
	</g>
</g>
<g>
	<g>
		<path class="st1" d="M139.3,95.6c-0.8-3.8-2.3-7.3-3.7-10.8c-0.3-0.8-1-1.3-1.8-1c-0.7,0.2-1.3,1.1-1,1.8
			c1.4,3.6,2.9,7.1,3.7,10.8c0.2,0.8,1.1,1.3,1.8,1C139.1,97.2,139.4,96.4,139.3,95.6L139.3,95.6z"/>
	</g>
</g>
<g>
	<g>
		<path class="st1" d="M82.1,71.4c12.4-4.2,26.3-3.2,38,2.7c1.7,0.9,3.2-1.7,1.5-2.6c-12.4-6.3-27.1-7.5-40.3-3
			C79.5,69.1,80.2,72,82.1,71.4L82.1,71.4z"/>
	</g>
</g>
<g>
	<g>
		<g>
			<path class="st1" d="M69,79.9c-0.4-1.6-0.4-3.6-0.3-5.4c0.1-2,0.3-4.1,0.5-6.1c0-0.3,0-0.4,0.1-0.8c0-0.3,0.1-0.7,0.2-1
				c0-0.2,0.1-0.4,0.1-0.6c0-0.2,0.2-0.3,0-0.2c0.8-0.8,2.2-0.1,3,0.3c1.2,0.6,2.4,1.3,3.5,2c2.4,1.6,4.5,3.6,6.5,5.8
				c1.3,1.4,3.4-0.7,2.1-2.1c-2-2.2-4.2-4.3-6.7-6c-1.2-0.8-2.6-1.6-3.9-2.3c-1.5-0.8-3.2-1.5-4.9-0.9c-1.1,0.4-2.2,1.2-2.5,2.4
				c-0.2,0.5-0.2,1.1-0.3,1.7c-0.3,2.2-0.6,4.3-0.7,6.5c-0.2,2.5-0.3,5.1,0.3,7.6C66.6,82.5,69.5,81.7,69,79.9L69,79.9z"/>
		</g>
	</g>
	<g>
		<g>
			<path class="st1" d="M135.6,85.6c0.6-2.6,1.3-5.2,1.7-7.9c0.4-2.9,1.1-6.4-0.4-9.2c-0.6-1.2-1.7-2.2-3-2.5
				c-1.6-0.5-3.3,0-4.7,0.7c-3,1.4-5.8,3.2-8.5,5c-1.2,0.8-0.8,2.7,0.8,2.8c0.7,0,1.2-0.2,1.7-0.6c0.6-0.5,0.5-1.6,0-2.1
				c-0.6-0.6-1.5-0.5-2.1,0c-0.1,0-0.1,0.1-0.2,0.1c0.2-0.1,0.4-0.3,0.7-0.4c0,0,0,0,0,0c0.3,0.9,0.5,1.9,0.8,2.8
				c2.3-1.5,4.7-2.9,7.1-4.2c1-0.5,2.3-1.4,3.6-1.2c0.9,0.2,1.5,1,1.7,1.8c0.4,1.3,0.2,2.7,0.1,4c-0.1,1.1-0.2,2.3-0.4,3.4
				c-0.4,2.3-1,4.5-1.5,6.7C132.3,86.7,135.2,87.5,135.6,85.6L135.6,85.6z"/>
		</g>
	</g>
	<g>
		<g>
			<path class="st1" d="M120.8,74.2c0.6,1.3,0.9,2.8,2.2,3.7c1.7,1.2,4.4,0.4,5.6-1.1c0.7-0.8,1.3-1.7,2-2.5
				c0.3-0.4,0.7-0.8,1.1-1.2c0.3-0.2,0.7-0.7,1.1-0.7c0.8,0,0.2,2,0.2,2.5c-0.2,1.3-0.2,2.6-0.3,3.9c-0.1,1.4-0.2,2.8-0.1,4.1
				c0.1,1.1,0.3,2.2,1.1,3c0.7,0.7,1.7-0.4,1.1-1.1c-0.6-0.6-0.6-1.7-0.7-2.5c-0.1-1.3,0-2.5,0.1-3.8c0.1-1.2,0.1-2.5,0.3-3.7
				c0.2-1,0.5-2.2-0.1-3.1c-0.6-0.9-1.7-1-2.6-0.5c-0.9,0.5-1.7,1.4-2.4,2.2c-0.7,0.8-1.3,1.7-2,2.6c-0.6,0.8-1.8,1.2-2.8,1.1
				c-1.6-0.2-2-2.3-2.5-3.5C121.7,72.5,120.4,73.3,120.8,74.2L120.8,74.2z"/>
		</g>
	</g>
	<g>
		<g>
			<path class="st1" d="M83.5,72.7c-0.8,0.4-1.8,1.7-2.7,1.6c-1.2-0.1-2.4-1.6-3.3-2.3c-1.1-0.9-2.1-1.9-3.2-2.8
				c-0.7-0.6-1.7-1.4-2.7-1.4c-2.1-0.1-2.1,2.7-2.3,4.1c-0.3,2.8-1.3,5.4-1.7,8.1c-0.1,0.9,1.3,1.4,1.4,0.4c0.4-2.6,1.2-5.1,1.7-7.7
				c0.2-0.9,0.1-1.9,0.4-2.9c0.1-0.3,0.1-0.6,0.4-0.6c0.4-0.1,1,0.4,1.3,0.6c2.2,1.5,3.9,3.6,6,5.1c0.8,0.6,1.9,1,2.9,0.7
				c1-0.4,1.6-1.2,2.6-1.7C85.1,73.6,84.3,72.3,83.5,72.7L83.5,72.7z"/>
		</g>
	</g>
	<g>
		<g>
			<path class="st1" d="M71.6,68c-0.7-1.1-1.2-2.3-1.3-3.6c0-0.2-0.2-0.4-0.4-0.4c-0.2,0-0.4,0.2-0.4,0.4c0.1,1.4,0.6,2.8,1.4,4
				c0.1,0.2,0.3,0.2,0.5,0.1C71.6,68.4,71.7,68.1,71.6,68L71.6,68z"/>
		</g>
	</g>
	<g>
		<g>
			<path class="st1" d="M73,68.9c-0.3-1.5-0.6-3-1-4.5c-0.1-0.5-0.8-0.3-0.7,0.2c0.3,1.5,0.6,3,1,4.5C72.4,69.5,73.1,69.3,73,68.9
				L73,68.9z"/>
		</g>
	</g>
	<g>
		<g>
			<path class="st1" d="M74.5,69.6c-0.3-1.3-0.4-2.5-0.3-3.8c0-0.2-0.2-0.4-0.4-0.4c-0.2,0-0.4,0.2-0.4,0.4c-0.1,1.3,0,2.7,0.3,4
				C73.9,70.3,74.6,70.1,74.5,69.6L74.5,69.6z"/>
		</g>
	</g>
	<g>
		<g>
			<path class="st1" d="M75.8,71.1c-0.2-1.5-0.3-3.1-0.3-4.6c0-0.5-0.7-0.5-0.8,0c0,1.6,0.1,3.2,0.3,4.8c0,0.2,0.3,0.3,0.5,0.3
				C75.8,71.5,75.9,71.3,75.8,71.1L75.8,71.1z"/>
		</g>
	</g>
	<g>
		<g>
			<path class="st1" d="M77.2,72.4c-0.3-1.4-0.2-2.9,0.1-4.3c0.1-0.5-0.6-0.7-0.7-0.2c-0.3,1.5-0.4,3.1-0.1,4.7
				c0,0.2,0.3,0.3,0.5,0.3C77.2,72.8,77.3,72.6,77.2,72.4L77.2,72.4z"/>
		</g>
	</g>
	<g>
		<g>
			<path class="st1" d="M78.5,73.3c-0.2-1.3-0.1-2.7,0.3-4c0.1-0.5-0.6-0.7-0.7-0.2c-0.4,1.4-0.5,2.9-0.3,4.4c0,0.2,0.3,0.3,0.5,0.3
				C78.4,73.7,78.5,73.5,78.5,73.3L78.5,73.3z"/>
		</g>
	</g>
	<g>
		<g>
			<path class="st1" d="M79.6,74.4c0-1.3,0.2-2.5,0.6-3.7c0.1-0.2-0.1-0.4-0.3-0.5c-0.2-0.1-0.4,0.1-0.5,0.3
				c-0.5,1.2-0.7,2.6-0.7,3.9C78.9,74.9,79.6,74.9,79.6,74.4L79.6,74.4z"/>
		</g>
	</g>
	<g>
		<g>
			<path class="st1" d="M80.6,74.5c0.1-1.2,0.4-2.4,0.9-3.4c0.1-0.2,0.1-0.4-0.1-0.5c-0.2-0.1-0.4-0.1-0.5,0.1
				c-0.6,1.2-0.9,2.5-1,3.8c0,0.2,0.2,0.4,0.4,0.4C80.4,74.9,80.6,74.7,80.6,74.5L80.6,74.5z"/>
		</g>
	</g>
	<g>
		<g>
			<path class="st1" d="M70.4,69.3c-0.8-1-1.7-2.1-2.5-3.1c-0.1-0.2-0.4-0.1-0.5,0c-0.2,0.2-0.1,0.4,0,0.5c0.8,1,1.7,2.1,2.5,3.1
				c0.1,0.2,0.4,0.1,0.5,0C70.6,69.6,70.6,69.4,70.4,69.3L70.4,69.3z"/>
		</g>
	</g>
	<g>
		<g>
			<path class="st1" d="M70,71.3c-0.3-0.3-0.6-0.6-0.9-1c-0.1-0.2-0.3-0.3-0.4-0.5c0,0-0.1-0.1,0,0c0,0,0,0,0-0.1
				c0,0-0.1-0.1-0.1-0.1c-0.1-0.1-0.1-0.2-0.2-0.3c-0.1-0.2-0.3-0.3-0.5-0.1c-0.2,0.1-0.3,0.3-0.1,0.5c0.5,0.8,1.2,1.5,1.9,2.2
				c0.1,0.1,0.4,0.2,0.5,0C70.2,71.7,70.2,71.5,70,71.3L70,71.3z"/>
		</g>
	</g>
	<g>
		<g>
			<path class="st1" d="M70,73.6c-0.6-0.7-1.2-1.4-1.8-2.1c-0.1-0.1-0.4-0.1-0.5,0c-0.1,0.2-0.1,0.4,0,0.5c0.6,0.7,1.2,1.4,1.8,2.1
				c0.1,0.1,0.4,0.1,0.5,0C70.2,74,70.2,73.7,70,73.6L70,73.6z"/>
		</g>
	</g>
	<g>
		<g>
			<path class="st1" d="M69.5,75.2c-1-0.8-1.9-1.7-2.8-2.6c-0.1-0.2-0.4-0.1-0.5,0c-0.2,0.2-0.1,0.4,0,0.5c0.9,1,1.8,1.8,2.8,2.6
				c0.2,0.1,0.4,0.2,0.5,0C69.6,75.6,69.6,75.4,69.5,75.2L69.5,75.2z"/>
		</g>
	</g>
	<g>
		<g>
			<path class="st1" d="M133.5,71.9c0.5-1.5,0.9-3.1,1-4.7c0-0.5-0.7-0.5-0.8,0c-0.1,1.5-0.4,3.1-0.9,4.5
				C132.6,72.1,133.3,72.3,133.5,71.9L133.5,71.9z"/>
		</g>
	</g>
	<g>
		<g>
			<path class="st1" d="M132.5,72c0-1.4,0.1-2.8,0.1-4.2c0-0.5-0.7-0.5-0.8,0c0,1.4-0.1,2.8-0.1,4.2C131.8,72.5,132.5,72.5,132.5,72
				L132.5,72z"/>
		</g>
	</g>
	<g>
		<g>
			<path class="st1" d="M131.4,72.6c0.1-1.6,0-3.2-0.2-4.8c0-0.2-0.3-0.3-0.5-0.3c-0.2,0.1-0.3,0.3-0.3,0.5c0.3,1.5,0.3,3.1,0.2,4.6
				C130.6,73.1,131.3,73.1,131.4,72.6L131.4,72.6z"/>
		</g>
	</g>
	<g>
		<g>
			<path class="st1" d="M130.1,73.7c0-1.6-0.1-3.2-0.3-4.7c0-0.2-0.2-0.4-0.4-0.4c-0.2,0-0.4,0.2-0.4,0.4c0.2,1.6,0.3,3.2,0.3,4.7
				C129.4,74.2,130.1,74.2,130.1,73.7L130.1,73.7z"/>
		</g>
	</g>
	<g>
		<g>
			<path class="st1" d="M129.2,75.2c-0.2-1.9-0.4-3.8-0.7-5.7c-0.1-0.5-0.8-0.3-0.7,0.2c0.3,1.8,0.5,3.6,0.7,5.5
				C128.5,75.7,129.2,75.7,129.2,75.2L129.2,75.2z"/>
		</g>
	</g>
	<g>
		<g>
			<path class="st1" d="M128.3,76.4c-0.3-2-0.7-4.1-1-6.1c-0.1-0.5-0.8-0.3-0.7,0.2c0.3,2,0.7,4.1,1,6.1
				C127.7,77.1,128.4,76.9,128.3,76.4L128.3,76.4z"/>
		</g>
	</g>
	<g>
		<g>
			<path class="st1" d="M127.3,76.8c-0.3-1.7-0.6-3.4-0.9-5c-0.1-0.5-0.8-0.3-0.7,0.2c0.3,1.7,0.6,3.4,0.9,5
				C126.7,77.5,127.4,77.3,127.3,76.8L127.3,76.8z"/>
		</g>
	</g>
	<g>
		<g>
			<path class="st1" d="M125.9,77.1c-0.5-1.6-0.9-3.2-1.2-4.8c0-0.2-0.3-0.3-0.5-0.3c-0.2,0.1-0.3,0.3-0.3,0.5
				c0.3,1.6,0.7,3.2,1.2,4.8C125.3,77.8,126,77.6,125.9,77.1L125.9,77.1z"/>
		</g>
	</g>
	<g>
		<g>
			<path class="st1" d="M124,76.3c-0.5-0.9-0.7-1.9-0.6-2.9c0-0.2-0.2-0.4-0.4-0.4c-0.2,0-0.3,0.2-0.4,0.4c-0.1,1.1,0.1,2.3,0.7,3.3
				C123.7,77.1,124.3,76.7,124,76.3L124,76.3z"/>
		</g>
	</g>
	<g>
		<g>
			<path class="st1" d="M134.4,73.3c0.3-0.6,0.7-1.2,1-1.8c0.1-0.2,0-0.4-0.1-0.5c-0.2-0.1-0.4,0-0.5,0.1c-0.3,0.6-0.7,1.2-1,1.8
				c-0.1,0.2,0,0.4,0.1,0.5C134,73.6,134.3,73.5,134.4,73.3L134.4,73.3z"/>
		</g>
	</g>
	<g>
		<g>
			<path class="st1" d="M134.2,75.5c0.1-0.2,0.2-0.4,0.4-0.6c0.1-0.1,0.1-0.2,0.2-0.3c0,0,0,0,0,0c0,0,0-0.1,0.1-0.1
				c0,0,0.1-0.1,0.1-0.1c0.2-0.2,0.3-0.3,0.5-0.5c0,0,0.1-0.1,0.1-0.1c0,0,0.1,0,0.1-0.1c0,0,0,0,0,0c0.1-0.1,0.2-0.1,0.3-0.2
				c0.2-0.1,0.2-0.3,0.1-0.5c-0.1-0.2-0.3-0.2-0.5-0.1c-0.9,0.6-1.6,1.4-2,2.3c-0.1,0.2-0.1,0.4,0.1,0.5
				C133.8,75.8,134.1,75.7,134.2,75.5L134.2,75.5z"/>
		</g>
	</g>
	<g>
		<g>
			<path class="st1" d="M134,78.5c0.1-0.5,0.4-1,0.7-1.4c0,0,0,0,0,0c0,0,0-0.1,0.1-0.1c0-0.1,0.1-0.1,0.1-0.1
				c0.1-0.1,0.2-0.2,0.3-0.3c0.2-0.2,0.4-0.3,0.6-0.4c0.4-0.2,0-0.9-0.4-0.6c-1.1,0.6-1.9,1.6-2.2,2.8C133.1,78.8,133.9,79,134,78.5
				L134,78.5z"/>
		</g>
	</g>
	<g>
		<g>
			<path class="st1" d="M134,80.9c0.6-1,1.3-1.9,2-2.7c0.1-0.1,0.1-0.4,0-0.5c-0.1-0.1-0.4-0.2-0.5,0c-0.8,0.9-1.5,1.8-2.1,2.9
				C133.1,80.9,133.7,81.3,134,80.9L134,80.9z"/>
		</g>
	</g>
	<g>
		<g>
			<path class="st1" d="M81.7,74.4c0.2-0.8,0.5-1.6,0.8-2.3c0.1-0.2,0.1-0.4-0.1-0.5c-0.2-0.1-0.4-0.1-0.5,0.1
				c-0.4,0.8-0.7,1.6-0.9,2.5c0,0.2,0.1,0.4,0.3,0.5C81.4,74.7,81.7,74.6,81.7,74.4L81.7,74.4z"/>
		</g>
	</g>
</g>
<g>
	<path class="st2" d="M97.6,106.4c-0.5-0.1-1.1,0.1-1.3,0.5c-0.2-0.4-0.4-0.7-0.8-1c-0.1-0.3-0.3-0.5-0.5-0.7
		c-0.6-0.5-1.4-0.6-2-0.1c-0.3,0.3-0.4,0.6-0.5,1c-0.2-0.6-0.9-1-1.5-0.8c-0.6,0.2-1,0.8-0.8,1.5c0.2,0.9,0.5,1.8,0.8,2.7
		c0.3,0.9,0.6,1.9,1.2,2.6c0.7,0.9,2,1.1,3,0.6c0.9-0.4,1.5-1.2,2-2c0.5-0.9,0.9-2,1.1-3C98.6,107.3,98.3,106.6,97.6,106.4z
		 M94.2,108.2C94.2,108.3,94.2,108.3,94.2,108.2C94.2,108.3,94.2,108.3,94.2,108.2C94.2,108.2,94.2,108.2,94.2,108.2
		C94.2,108.2,94.2,108.2,94.2,108.2z"/>
	<g>
		<g>
			<path class="st1" d="M110.4,95.8c-0.1-0.2-0.4-0.3-0.7-0.3c-0.2,0.1-0.4,0.2-0.5,0.4c-0.1,0.2-0.2,0.5,0,0.7
				c0.1,0.2,0.4,0.3,0.6,0.3c0.5,0,0.8-0.6,0.8-1c0.1-0.4-0.1-0.9-0.6-1c0.1,0.2,0.1,0.5,0.2,0.7c0.1-0.1,0.3-0.2,0.4-0.2
				c0.1,0,0.1,0,0.2-0.1c0,0,0.1,0,0.1,0c-0.1,0,0,0,0.1,0c0,0,0.1,0,0.1,0c0,0,0,0,0.1,0c-0.1,0,0,0,0,0c0,0,0,0,0,0
				c0,0,0,0.1,0,0.1c0-0.1,0,0.1,0,0.1c0,0.1,0,0.2,0,0.2c0,0,0,0.1,0,0.2c0-0.1,0,0,0,0c0,0,0,0,0,0c0,0,0,0,0,0c0,0,0,0,0,0
				c0,0,0,0,0,0c0,0,0,0,0,0c0,0-0.1,0,0,0c0,0-0.1,0-0.1,0c0,0,0,0-0.1,0c0,0,0,0,0,0c0,0,0,0,0,0c-0.1-0.1,0,0,0,0c0,0,0,0,0,0
				c0,0,0-0.1,0-0.1c0,0.1,0-0.1,0-0.1c0-0.1,0,0,0-0.1c-0.2,0-0.5,0.1-0.7,0.1c0,0.2,0.1,0.5,0.1,0.7c0,0.2,0.1,0.4,0.2,0.6
				c0.3,0.3,0.9,0.3,1.1-0.2c0.1-0.3-0.1-0.4-0.4-0.5c-0.4,0-1,0-1.2,0.5c-0.1,0.2,0,0.5,0.2,0.6c0.2,0.2,0.4,0.2,0.7,0.2
				c0.4,0,0.8-0.1,1-0.5c0.2-0.4,0-0.9-0.4-1.1c-0.2-0.1-0.4-0.2-0.6-0.2c-0.1,0-0.2-0.1-0.4-0.1c-0.2,0-0.3,0.1-0.4,0.1
				c0.1,0,0.1,0,0.2-0.1c0,0,0,0,0,0c0.1,0,0.1,0.1,0.2,0.1c0,0.1,0,0.2,0.1,0.3c0,0,0,0,0,0c0,0,0-0.1,0.1-0.1c0-0.1,0-0.2,0-0.3
				c0-0.2-0.1-0.3-0.2-0.4c-0.1-0.1-0.3-0.1-0.4-0.1c-0.1,0-0.1,0-0.2,0c0,0-0.2,0-0.2,0c0.1,0.2,0.2,0.3,0.3,0.5
				c0-0.1,0-0.2,0.1-0.2c0,0,0-0.1,0-0.1c0,0,0-0.1,0,0c0,0,0-0.1,0.1-0.1c0,0,0.1-0.1,0-0.1c0.1-0.1,0.1-0.1,0.1-0.1c0,0,0.1,0,0,0
				c0,0,0.1,0,0,0c0,0,0.1,0,0.1,0c0,0,0.1,0,0.1,0c0,0,0.1,0.1,0.1,0.1c0.1,0.1,0.1,0.1,0.2,0.2c0.1,0.1,0.4,0.1,0.5,0
				c0.1-0.1,0.1-0.4,0-0.5c-0.2-0.2-0.3-0.3-0.6-0.4c-0.3-0.1-0.5-0.1-0.8,0c-0.5,0.2-0.6,0.7-0.7,1.2c0,0.2,0.1,0.4,0.3,0.5
				c0.1,0,0.3,0,0.4,0c0,0,0.1,0,0.1,0c0,0,0,0,0,0c0,0,0,0,0,0c0,0,0,0,0-0.1c0-0.2,0-0.2,0-0.1c0,0-0.1,0.1-0.1,0.2
				c0,0.1,0,0.3,0,0.4c0.1,0.2,0.3,0.2,0.5,0.2c0.1,0,0.1-0.1,0.2-0.1c0,0-0.1,0,0,0c0.2,0,0.4,0.1,0.5,0.2c0,0,0,0,0.1,0.1
				c-0.1-0.1,0.1,0.1,0,0c0,0,0,0.1,0,0.1c0,0,0,0,0,0c0,0,0,0,0,0c0,0,0,0,0,0c0,0,0,0,0,0c0,0-0.1,0.1,0,0c0,0-0.1,0-0.1,0
				c0.1,0-0.1,0-0.1,0c0,0-0.1,0-0.1,0c0,0-0.2,0-0.1,0c-0.1,0,0,0,0,0c0,0.1,0,0.1,0,0.2c0,0,0,0.1-0.1,0.1c0,0,0.1,0,0.1,0
				c0,0,0.1,0,0.1,0c0.1,0,0.2,0,0.3,0c-0.1-0.2-0.2-0.3-0.4-0.5c0-0.1,0.1-0.1,0.1-0.1c0,0,0,0,0,0c0,0,0,0,0,0c0.1,0,0,0,0,0
				c0,0,0,0,0,0c0,0,0,0,0,0c0,0,0,0,0,0c0-0.1,0,0,0,0c0,0,0-0.1,0-0.1c-0.1-0.3-0.1-0.5-0.1-0.8c0-0.2-0.2-0.3-0.4-0.3
				c-0.2,0-0.3,0.2-0.3,0.4c0,0.5,0.4,1,0.9,1c0.5,0,0.9-0.4,1-0.9c0-0.5-0.2-1.1-0.7-1.2c-0.5-0.1-1,0.1-1.4,0.4
				c-0.1,0.1-0.2,0.3-0.2,0.4c0,0.2,0.2,0.3,0.4,0.3c-0.1,0-0.1,0-0.1-0.1c0,0,0,0,0,0c0,0,0,0,0,0c0-0.1,0,0,0,0.1c0,0,0,0.1,0,0.1
				c0,0.1,0,0.2-0.1,0.3c0,0,0,0.1,0,0.1c0,0,0,0,0,0c0,0,0,0-0.1,0.1c0.1,0,0,0,0,0c0,0,0,0,0,0c0,0,0,0,0,0c0,0,0.1,0,0,0
				c0,0,0,0.1,0,0.1c0,0,0,0,0,0c0,0,0,0,0,0c0,0,0.1-0.1,0.1-0.1c0,0-0.1,0-0.1,0c0,0,0,0,0,0c0,0-0.1,0-0.1-0.1
				C110,96.6,110.7,96.2,110.4,95.8L110.4,95.8z"/>
		</g>
	</g>
	<g>
		<g>
			<path class="st1" d="M83.4,93.6c-0.2,0.4-0.3,1,0.2,1.3c0.5,0.3,1.1-0.1,1.3-0.5c0.1-0.2,0.2-0.5,0.2-0.8
				c-0.1-0.3-0.4-0.4-0.6-0.5c-0.3-0.1-0.6-0.1-0.8,0c-0.2,0.1-0.4,0.4-0.4,0.7c0,0.2,0.1,0.3,0.3,0.4c0.2,0,0.3,0,0.4-0.2
				c0.1-0.2,0.3-0.5,0.3-0.7c0-0.3-0.2-0.5-0.4-0.7c-0.3-0.1-0.6-0.1-0.8,0.2c-0.2,0.2-0.3,0.4-0.4,0.7c-0.1,0.3,0,0.6,0.2,0.8
				c0.2,0.2,0.4,0.3,0.7,0.3c0.5,0.1,1-0.2,1.3-0.6c0.2-0.2-0.1-0.6-0.3-0.6c-0.3,0-0.6,0.1-0.8,0.4c-0.1,0.1-0.2,0.3,0,0.5
				c0.1,0.1,0.3,0.2,0.5,0.1c0.3-0.2,0.6-0.6,0.6-1c0-0.2,0-0.4,0-0.6c0,0,0,0,0-0.1c-0.2,0.2-0.2,0.3-0.1,0.2c0,0,0,0,0,0
				c0,0,0,0,0,0c0,0,0.1,0,0.1,0c0,0,0.1,0,0.1,0c0.1,0,0.2,0.1,0.2,0.1c0,0,0.1,0,0.1,0.1c0,0,0.1,0.1,0.1,0.1c0,0,0,0,0,0
				c0,0,0,0,0,0c0,0,0,0,0,0c0,0,0,0,0,0c0,0,0,0,0,0c0,0,0,0,0,0c0,0,0,0,0,0c0,0-0.1,0.1-0.1,0.1c-0.1,0.1-0.1,0.1-0.2,0.1
				c0,0,0,0-0.1,0c0,0,0,0,0,0c0,0,0,0-0.1,0c0.1,0,0,0,0,0c0,0,0.1,0.1,0,0c0,0.2,0,0.3,0.1,0.5c0-0.1,0,0,0,0c0,0,0.1,0,0,0
				c0,0,0.1,0,0,0c-0.1,0,0,0,0,0c0,0,0,0,0,0c0,0,0.1,0,0.1,0c0,0-0.1,0,0,0c0,0,0,0,0.1,0c0,0-0.1,0,0,0c0,0,0,0,0,0
				c0,0,0.1,0.1,0,0c0,0,0,0,0,0.1c0-0.1,0,0,0,0c0,0,0-0.1,0,0c0,0,0,0.1,0,0c0-0.1,0,0,0,0c0,0,0,0,0,0.1c0-0.1,0,0,0,0
				c0,0,0,0.1,0,0c0,0,0,0-0.1,0.1c0,0,0.1,0,0,0c0,0-0.1,0,0,0c0,0-0.1,0-0.1,0c0,0,0,0,0,0c0,0-0.1,0-0.1,0c0,0,0,0-0.1,0
				c-0.1,0,0,0,0,0c0,0-0.1,0-0.1,0c0,0,0,0,0,0c0,0,0,0-0.1-0.1c0,0,0,0,0,0c0,0-0.1-0.1,0,0C84.2,94,84,93.9,83.8,94
				c-0.2,0-0.3,0.3-0.3,0.5c0.2,0.4,0.6,0.7,1,0.7c0.4,0,0.8-0.3,0.9-0.8c0.1-0.5-0.1-0.9-0.6-1c-0.4-0.1-0.8,0-1.1,0.4
				c-0.1,0.2,0,0.3,0.1,0.5c0.3,0.4,0.9,0.3,1.2,0c0.4-0.3,0.7-0.6,0.6-1.1c-0.1-0.4-0.5-0.7-0.9-0.8c-0.2-0.1-0.5-0.1-0.7,0
				c-0.1,0-0.2,0.1-0.3,0.2c-0.1,0.1-0.1,0.3,0,0.5c0,0,0,0.1,0,0c0,0,0,0,0,0c0,0,0,0.1,0,0.1c0,0,0,0,0,0c0,0,0,0.1,0,0.1
				c0,0,0,0.1,0,0.1c0,0,0,0.1,0,0c0,0,0,0,0,0.1c0,0-0.1,0.1-0.1,0.1c0,0,0,0,0,0.1c0,0,0,0-0.1,0.1c0,0-0.1,0.1,0,0
				c0.2,0.2,0.3,0.4,0.5,0.6c0,0,0.1-0.1,0.1-0.1c0,0,0,0,0.1,0c0.1,0,0,0,0.1,0c0,0,0,0,0.1,0c0,0,0,0,0,0
				c-0.1-0.2-0.2-0.4-0.3-0.6c0,0,0,0,0,0c0,0,0,0-0.1,0.1c0,0,0,0,0,0c0,0-0.1,0-0.1,0c0,0,0,0,0,0c0,0,0,0,0,0c0,0-0.1,0-0.1,0
				c0,0-0.1,0-0.1,0c0,0-0.1,0-0.1,0c0,0-0.1,0-0.1,0c-0.1,0,0.1,0,0,0c0,0-0.1,0-0.1,0c0,0-0.1,0,0,0c-0.1,0,0,0,0,0c0,0-0.1,0,0,0
				c0,0,0,0,0,0c0,0,0,0,0,0c0,0,0,0,0,0c0-0.1,0.1-0.3,0.1-0.4c0,0,0-0.1,0,0c0,0,0.1-0.1,0,0c0,0,0.1,0,0,0c0.1,0,0,0,0,0
				c0,0,0,0,0,0c0,0,0,0,0,0c0,0,0,0,0,0c0,0,0,0,0,0c0,0,0,0,0,0c0,0,0,0,0,0c0,0,0,0,0,0c0,0,0,0,0,0c0,0,0,0,0,0c0,0,0,0,0,0.1
				c0,0.1-0.1,0.1-0.1,0.2c0.2,0.1,0.5,0.1,0.7,0.2c0-0.1,0,0,0,0c0,0,0-0.1,0,0c0,0,0,0,0,0c-0.1,0,0,0,0,0c0,0,0.1,0,0.1,0
				c0.1,0,0.1,0,0.2,0.1c0,0,0.1,0,0.1,0c0,0,0,0,0,0c0,0,0,0,0,0c0,0,0,0,0,0c0,0,0,0.1,0,0c0,0,0,0.1,0,0.1c0,0.1-0.1,0.1-0.1,0.2
				c0,0,0,0,0,0.1c0,0,0,0,0,0c0,0-0.1,0.1,0,0c0,0,0,0-0.1,0c0,0,0,0,0,0c0,0,0,0,0,0c0,0,0,0,0,0c0,0,0,0,0,0c-0.1,0,0,0,0,0
				c0,0,0,0,0,0c0,0,0,0,0,0c0,0,0,0.1,0,0c0,0,0,0.1,0,0c0,0,0,0,0,0c0-0.1,0-0.1,0-0.2c0,0,0,0,0,0c0,0,0-0.1,0.1-0.1
				c0.1-0.2,0-0.4-0.1-0.5C83.7,93.3,83.5,93.4,83.4,93.6L83.4,93.6z"/>
		</g>
	</g>
	<g>
		<g>
			<path class="st1" d="M83.7,93.1C83.7,93.1,83.7,93.1,83.7,93.1C83.7,93.1,83.7,93.1,83.7,93.1c0,0,0-0.1,0-0.1
				C83.7,93,83.7,93.1,83.7,93.1c0-0.1,0.1-0.1,0.1-0.2c0,0,0,0.1-0.1,0.1c0-0.1,0.1-0.1,0.1-0.1c0,0-0.1,0-0.1,0.1
				c0,0,0.1-0.1,0.2-0.1c0,0-0.1,0-0.1,0c0.1,0,0.1,0,0.2,0c0,0-0.1,0-0.1,0c0.1,0,0.1,0,0.2,0c0,0-0.1,0-0.1,0c0.1,0,0.1,0,0.2,0
				c0,0-0.1,0-0.1,0c0,0,0.1,0,0.1,0.1c0.2,0.1,0.4,0,0.5-0.1c0.1-0.2,0-0.4-0.1-0.5c-0.3-0.2-0.8-0.2-1.1,0
				c-0.2,0.1-0.3,0.2-0.4,0.4c-0.1,0.2-0.2,0.3-0.2,0.5c0,0.1,0,0.2,0.1,0.3c0.1,0.1,0.2,0.1,0.3,0.1C83.5,93.5,83.6,93.3,83.7,93.1
				L83.7,93.1z"/>
		</g>
	</g>
	<g>
		<g>
			<path class="st1" d="M83.1,93.5c-0.3,0.3-0.3,0.7-0.1,1.1c0.1,0.2,0.2,0.3,0.4,0.4c0.1,0.1,0.2,0.1,0.4,0.1c0.1,0,0.2,0,0.3,0
				c0.2,0,0.4-0.1,0.6-0.2c0.1,0,0.1-0.1,0.2-0.2c0-0.1,0-0.2,0-0.3c-0.1-0.1-0.1-0.2-0.2-0.2c-0.1,0-0.2,0-0.3,0c0,0-0.1,0-0.1,0
				c0,0,0.1,0,0.1,0c-0.1,0.1-0.2,0.1-0.4,0.1c0,0,0.1,0,0.1,0c-0.1,0-0.2,0-0.2,0c0,0,0.1,0,0.1,0c-0.1,0-0.1,0-0.2,0
				c0,0,0.1,0,0.1,0c0,0-0.1,0-0.1-0.1c0,0,0.1,0,0.1,0.1c0,0-0.1-0.1-0.1-0.1c0,0,0,0.1,0.1,0.1c0,0-0.1-0.1-0.1-0.1
				c0,0,0,0.1,0,0.1c0,0,0-0.1,0-0.1c0,0,0,0.1,0,0.1c0-0.1,0-0.1,0-0.2c0,0,0,0.1,0,0.1c0,0,0-0.1,0-0.1c0,0,0,0.1,0,0.1
				c0,0,0-0.1,0.1-0.1c0,0,0,0.1-0.1,0.1c0,0,0,0,0,0c0.1-0.1,0.2-0.4,0-0.5C83.5,93.4,83.2,93.3,83.1,93.5L83.1,93.5z"/>
		</g>
	</g>
	<g>
		<g>
			<path class="st1" d="M84.8,93.5c0.1-0.1,0.1-0.2,0.2-0.3c0,0,0-0.1,0-0.1c0,0,0-0.1,0-0.1c0,0,0-0.1-0.1-0.1c0,0-0.1-0.1-0.1-0.1
				c0,0-0.1,0-0.1,0c-0.1,0-0.1,0-0.2,0c0,0-0.1,0-0.1,0c-0.1,0-0.1,0.1-0.1,0.1c-0.1,0.1-0.1,0.2-0.2,0.3c0,0,0,0.1,0,0.1
				c0,0,0,0.1,0,0.1c0,0,0,0.1,0.1,0.1c0,0,0.1,0.1,0.1,0.1c0,0,0.1,0,0.1,0c0.1,0,0.1,0,0.2,0c0,0,0.1,0,0.1,0
				C84.7,93.6,84.8,93.6,84.8,93.5L84.8,93.5z"/>
		</g>
	</g>
	<g>
		<g>
			<path class="st1" d="M110.2,95.6c0.1,0,0.1-0.1,0.2-0.1c0,0,0.1,0,0.1,0c0.1,0-0.1,0,0,0c0.1,0,0.1,0,0.2-0.1c0,0,0.1,0,0.2,0
				c0,0-0.1,0,0,0c0,0,0,0,0,0c0,0,0.1,0,0.1,0c0,0,0.1,0,0.1,0c0,0-0.1,0,0,0c0.1,0,0.1,0,0.2,0c0,0,0,0,0,0c0,0,0,0,0,0
				c0,0,0,0,0.1,0c0.1,0-0.1-0.1,0,0c0,0,0,0,0.1,0c0,0,0,0,0,0c0,0,0-0.1,0,0c0,0,0,0.1,0,0.1c0-0.1,0-0.1,0,0c0,0,0,0,0,0
				c0,0.1,0,0,0,0c0,0,0,0.1,0,0.1c0,0.1,0-0.1,0,0c0,0,0,0,0,0.1c0,0,0,0,0,0c0,0,0,0,0,0.1c0,0.1,0,0,0,0c0,0,0,0,0,0
				c0,0,0.1,0,0,0c0,0,0,0,0,0c-0.1,0,0.1,0,0,0c-0.1,0,0.1,0,0,0c-0.2,0-0.4,0.2-0.4,0.4c0,0.2,0.2,0.4,0.4,0.4
				c0.3,0,0.5-0.2,0.7-0.4c0.1-0.2,0.2-0.5,0.1-0.7c-0.2-0.5-0.8-0.8-1.3-0.7c-0.3,0-0.6,0.2-0.9,0.3c-0.2,0.1-0.2,0.4-0.1,0.5
				C109.8,95.7,110,95.7,110.2,95.6L110.2,95.6z"/>
		</g>
	</g>
	<g>
		<g>
			<path class="st1" d="M86.8,101.4c0.4,1.1,0.7,2.2,1.2,3.3c0.3,0.8,0.8,1.6,1.7,2c2.2,1,3.9-1.4,5.2-2.8c-0.4-0.1-0.8-0.1-1.2-0.2
				c1.1,1.6,2.4,4.4,4.7,4.1c2.3-0.2,3.5-3,4.6-4.7c0.5-0.8-0.8-1.6-1.3-0.8c-0.5,0.8-0.9,1.5-1.4,2.3c-0.4,0.7-1,1.5-1.8,1.7
				c-0.8,0.2-1.4-0.5-1.9-1.1c-0.5-0.7-1-1.5-1.5-2.2c-0.3-0.4-0.8-0.5-1.2-0.2c-0.7,0.8-2.4,3.3-3.7,2.4c-0.5-0.4-0.7-1.1-0.9-1.7
				c-0.3-0.8-0.6-1.7-0.9-2.5C87.9,100,86.5,100.4,86.8,101.4L86.8,101.4z"/>
		</g>
	</g>
	<g>
		<g>
			<path class="st1" d="M116.1,100.6c3.6-0.7,7.2-0.9,10.8-0.6c1,0.1,1-1.4,0-1.5c-3.8-0.2-7.5,0-11.2,0.7
				C114.7,99.3,115.1,100.7,116.1,100.6L116.1,100.6z"/>
		</g>
	</g>
	<g>
		<g>
			<path class="st1" d="M117.1,103.5c2.7,0.4,5.5,0.9,8.2,1.3c0.4,0.1,0.8-0.1,0.9-0.5c0.1-0.4-0.1-0.9-0.5-0.9
				c-2.7-0.4-5.5-0.9-8.2-1.3c-0.4-0.1-0.8,0.1-0.9,0.5C116.5,103,116.7,103.5,117.1,103.5L117.1,103.5z"/>
		</g>
	</g>
	<g>
		<g>
			<path class="st1" d="M78,97.8c-3.8-1.6-7.7-2.8-11.8-3.6c-0.1,0.5-0.1,1-0.2,1.5c0.1,0,0.3,0,0.4,0c0.4,0.1,0.7-0.4,0.8-0.8
				c0-0.4-0.3-0.7-0.8-0.8c-0.1,0-0.3,0-0.4,0c-0.8-0.1-1,1.3-0.2,1.5c3.9,0.7,7.8,1.8,11.4,3.4C78.1,99.5,78.8,98.2,78,97.8
				L78,97.8z"/>
		</g>
	</g>
	<g>
		<g>
			<path class="st1" d="M76,100.7c-2.4,0-4.7,0-7.1,0c-1,0-1,1.5,0,1.5c2.4,0,4.7,0,7.1,0C77,102.2,77,100.7,76,100.7L76,100.7z"/>
		</g>
	</g>
</g>
<g>
	<path class="st3" d="M51.5,82.9c-0.5,0.8-0.9,1.7-1,2.7c0,0.2,0,0.4,0,0.5c0.1,0.3,0.5,0.5,0.9,0.4c1.3-0.1,2-1.7,3.2-1.9
		c0.5-0.1,1.1,0.1,1.6,0.3c0.5,0.2,1,0.4,1.6,0.3c0.5-0.1,1-0.6,0.9-1.1c0-0.2-0.2-0.5-0.4-0.6c-0.4-0.5-0.7-0.9-1.1-1.4
		c-0.1-0.1-0.2-0.3-0.2-0.5c0-0.2,0.2-0.4,0.4-0.5c0.8-0.7,1.4-1.7,1.5-2.8c-1.4-0.9-3.6,0.5-4.9-0.5c-0.4-0.3-0.6-0.8-1-1.2
		c-0.4-0.4-1-0.6-1.4-0.2c-0.2,0.2-0.2,0.5-0.2,0.7c-0.1,0.7-0.2,1.5-0.3,2.2c0,0.1,0,0.3-0.1,0.4c-0.1,0.1-0.2,0.1-0.4,0.1
		c-0.9,0.1-1.8,0.5-2.5,1c-0.1,0.1-0.2,0.2-0.3,0.3c-0.1,0.3,0.3,0.6,0.7,0.7c0.9,0.2,1.9,0.5,2.8,0.7"/>
	<g>
		<path class="st4" d="M50.8,82.5c-0.4,0.7-0.8,1.5-1,2.3c-0.2,0.7-0.3,1.6,0.3,2.1c1.1,1,2.5-0.1,3.4-0.8c0.5-0.4,0.9-0.8,1.6-0.6
			c0.9,0.2,1.6,0.7,2.5,0.5c0.7-0.1,1.4-0.6,1.6-1.3c0.2-0.8-0.3-1.4-0.7-2c-0.2-0.2-0.3-0.4-0.5-0.6c-0.1-0.1-0.1-0.2-0.2-0.3
			c0-0.1-0.1-0.1-0.1-0.2c-0.1-0.1-0.1-0.1-0.1,0c-0.2,0.2,0.1,0,0.1,0c0.1,0,0.2-0.2,0.3-0.2c0.2-0.2,0.3-0.3,0.5-0.5
			c0.5-0.7,0.9-1.5,1-2.4c0-0.3,0-0.7-0.3-0.8c-1.2-0.7-2.4-0.3-3.6-0.2c-0.6,0-1.1,0-1.4-0.5c-0.4-0.6-0.8-1.2-1.6-1.4
			c-0.7-0.2-1.4,0.1-1.7,0.7c-0.4,0.7-0.3,1.7-0.4,2.4c0,0.1-0.1,0.6-0.1,0.6c-0.1,0,0.3-0.1,0.1-0.2c0,0-0.2,0-0.2,0
			c-0.4,0.1-0.8,0.2-1.1,0.3c-0.6,0.3-1.5,0.6-1.9,1.3c-0.5,0.8,0.2,1.5,1,1.8c1,0.3,2,0.5,2.9,0.8c0.9,0.2,1.3-1.2,0.4-1.4
			c-0.9-0.2-1.9-0.4-2.8-0.7c0,0-0.1,0-0.1,0c-0.2-0.1-0.2,0-0.1,0.4c0.1,0,0.4-0.2,0.4-0.3c0.4-0.2,0.7-0.4,1.1-0.5
			c0.7-0.2,1.5-0.2,1.7-1c0.1-0.4,0.1-0.9,0.2-1.3c0.1-0.4,0.1-0.8,0.2-1.2c0-0.1,0-0.1,0-0.2c-0.1,0-0.1,0.1,0,0.1
			c0.1,0,0.2,0.1,0.3,0.2c0.3,0.3,0.5,0.7,0.7,0.9c0.5,0.5,1.1,0.8,1.7,0.8c1.1,0.1,2.6-0.6,3.6,0c-0.1-0.3-0.2-0.6-0.3-0.8
			c-0.1,0.8-0.4,1.5-1,2.1c-0.5,0.6-1.3,1-0.8,1.9c0.2,0.4,0.5,0.7,0.8,1c0.2,0.2,0.3,0.4,0.5,0.6c0,0,0.3,0.3,0.3,0.4
			c0,0.7-1.6,0-1.8-0.1c-0.8-0.3-1.6-0.3-2.4,0c-0.6,0.3-1,0.7-1.5,1.1c-0.2,0.2-0.4,0.4-0.7,0.4c-0.1,0-0.2,0.1-0.3,0.1
			c-0.3-0.1,0,0.1,0,0c-0.1-0.2,0.3-1.1,0.3-1.3c0.2-0.4,0.4-0.8,0.6-1.2C52.6,82.5,51.3,81.7,50.8,82.5L50.8,82.5z"/>
	</g>
</g>
<g>
	<path class="st3" d="M150.4,87.8c0.5,0.8,0.9,1.8,1.1,2.8c0,0.2,0,0.4,0,0.5c-0.1,0.3-0.5,0.5-0.9,0.5c-1.3-0.1-2-1.7-3.3-1.9
		c-0.5-0.1-1.1,0.1-1.6,0.3c-0.5,0.2-1.1,0.4-1.6,0.3s-1-0.6-0.9-1.2c0-0.3,0.2-0.5,0.4-0.7c0.4-0.5,0.8-0.9,1.1-1.4
		c0.1-0.1,0.2-0.3,0.2-0.5c0-0.2-0.2-0.4-0.4-0.5c-0.9-0.7-1.4-1.7-1.6-2.8c1.4-1,3.7,0.6,5-0.5c0.4-0.3,0.6-0.8,1-1.2
		c0.4-0.4,1-0.6,1.4-0.2c0.2,0.2,0.2,0.5,0.3,0.7c0.1,0.8,0.2,1.5,0.3,2.3c0,0.1,0,0.3,0.1,0.4c0.1,0.1,0.3,0.1,0.4,0.1
		c0.9,0.1,1.8,0.5,2.5,1c0.1,0.1,0.2,0.2,0.3,0.3c0.1,0.4-0.4,0.6-0.7,0.7c-1,0.2-1.9,0.5-2.9,0.7"/>
	<g>
		<path class="st4" d="M149.7,88.1c0.2,0.4,0.5,0.8,0.6,1.2c0.1,0.2,0.1,0.4,0.2,0.6c0,0.1,0.2,0.6,0.2,0.8c-0.1,0.1,0.1,0-0.1,0.1
			c-0.1,0-0.3,0-0.3-0.1c-0.3-0.1-0.5-0.3-0.7-0.5c-0.5-0.4-0.9-0.9-1.5-1.1c-0.8-0.4-1.6-0.3-2.4,0c-0.3,0.1-2,0.8-1.9,0
			c0-0.3,0.5-0.7,0.7-0.9c0.3-0.4,0.7-0.7,0.9-1.1c0.4-0.9-0.3-1.4-0.9-1.9c-0.6-0.6-0.9-1.3-1-2.2c-0.1,0.3-0.2,0.6-0.3,0.8
			c1-0.6,2.5,0.1,3.7,0c0.7-0.1,1.3-0.3,1.8-0.9c0.3-0.3,0.4-0.7,0.7-1c0.1-0.1,0.2-0.1,0.3-0.2c0.1,0,0.1,0,0,0c0,0.1,0,0.1,0,0.2
			c0,0.4,0.1,0.8,0.2,1.3c0.1,0.4,0.1,0.9,0.2,1.4c0.2,0.9,1,0.9,1.8,1.1c0.4,0.1,0.8,0.3,1.2,0.5c0.1,0,0.4,0.3,0.4,0.3
			c0.1-0.4,0.1-0.5,0-0.4c-0.1,0-0.1,0.1-0.2,0.1c-0.9,0.3-1.9,0.5-2.9,0.7c-0.9,0.2-0.5,1.7,0.4,1.4c0.9-0.2,1.8-0.5,2.7-0.7
			c0.7-0.2,1.5-0.5,1.5-1.3c0-0.8-0.8-1.3-1.4-1.6c-0.3-0.2-0.7-0.3-1-0.4c-0.2-0.1-0.4-0.1-0.5-0.1c-0.1,0-0.2,0-0.3,0
			c-0.1,0-0.1,0-0.2,0c-0.1,0-0.1,0,0.1,0.2c0.1,0-0.3-2.2-0.3-2.5c-0.1-0.7-0.6-1.4-1.4-1.4c-0.7,0-1.4,0.4-1.8,1
			c-0.4,0.5-0.7,1-1.4,1.1c-1.5,0.1-2.9-0.6-4.2,0.2c-0.3,0.2-0.4,0.5-0.3,0.8c0.1,0.8,0.4,1.5,0.8,2.1c0.2,0.3,0.5,0.6,0.7,0.9
			c0,0,0.4,0.3,0.3,0.2c0,0,0-0.1,0-0.1c0,0.1-0.1,0.1-0.1,0.2c-0.1,0.1-0.2,0.2-0.3,0.3c-0.5,0.6-1.2,1.3-1.3,2.1
			c-0.1,0.7,0.4,1.4,1,1.7c0.8,0.4,1.7,0.2,2.5-0.1c0.8-0.3,1.3-0.4,2,0.1c1,0.7,2,1.9,3.4,1.5c2-0.7,0.6-3.7-0.2-4.8
			C150.5,86.6,149.2,87.3,149.7,88.1L149.7,88.1z"/>
	</g>
</g>
<g>
	<path class="st3" d="M45.3,63.9c-0.8,0.2-1.6,0.5-2.4,0.8c-0.2,0.1-0.5,0.3-0.5,0.6c0,0.2,0.2,0.3,0.4,0.4c0.6,0.3,1.3,0.5,1.9,0.8
		c-0.5,0.6-0.9,1.3-1.1,2.1c0,0.2-0.1,0.3,0,0.5c0.1,0.2,0.2,0.3,0.4,0.3c0.4,0.1,0.7,0.1,1.1,0c0.7-0.2,1.1-0.8,1.7-1.1
		c0.7-0.3,1.5-0.3,2.3-0.2c0.3,0.1,0.6,0.1,1,0.1c0.3,0,0.7-0.2,0.8-0.5c0.3-0.7-0.7-1.3-0.9-2.1c-0.1-0.8,0.7-1.4,1.2-2.1
		c0.1-0.1,0.2-0.3,0.1-0.4c0-0.1-0.1-0.1-0.2-0.1c-0.7-0.2-1.4-0.3-2-0.2c-0.3,0-0.6,0-0.8-0.2c-0.1-0.1-0.1-0.3-0.2-0.4
		c-0.2-0.7-0.8-1.3-1.5-1.6c-0.5,1-0.9,2-1.3,3.1"/>
	<g>
		<path class="st4" d="M45.1,63.2c-0.7,0.2-1.3,0.4-1.9,0.6c-0.6,0.2-1.3,0.5-1.5,1.1c-0.2,0.7,0.3,1.2,0.8,1.4
			c0.7,0.3,1.3,0.5,2,0.8c-0.1-0.4-0.2-0.8-0.3-1.3c-0.6,0.7-1,1.5-1.3,2.4c-0.3,1.2,0.6,1.9,1.7,1.8c1,0,1.6-0.6,2.3-1.1
			c0.8-0.5,1.6-0.3,2.4-0.2c0.9,0.2,2,0,2.3-1.1c0.2-0.8-0.3-1.4-0.7-2c-0.1-0.2-0.2-0.3-0.1-0.6c0.1-0.3,0.4-0.6,0.7-0.8
			c0.3-0.3,0.5-0.6,0.6-1c0.1-0.6-0.3-1-0.8-1.1c-0.5-0.2-1.1-0.2-1.6-0.3c-0.3,0-0.5,0-0.8,0c0,0-0.2,0-0.2,0
			c0.2,0.2,0.2,0.2,0.2,0.1c0,0,0-0.1,0-0.1c-0.1-0.4-0.4-0.9-0.7-1.3c-0.3-0.4-0.7-0.6-1.1-0.8c-0.4-0.2-0.8-0.1-1,0.3
			c-0.5,1.1-1,2.1-1.4,3.3c-0.3,0.9,1.1,1.3,1.4,0.4c0.4-1,0.8-2,1.2-2.9c-0.3,0.1-0.7,0.2-1,0.3c0.4,0.2,0.7,0.4,1,0.8
			c0.2,0.4,0.3,0.9,0.7,1.2c0.4,0.4,1,0.3,1.5,0.3c0.6,0,1.1,0.1,1.6,0.3c-0.1-0.1-0.2-0.1-0.3-0.2c0,0,0.1,0,0.1,0.1
			c-0.1-0.1-0.1-0.2-0.2-0.3c0-0.2,0-0.2,0-0.1c-0.1,0.1-0.1,0.1-0.2,0.2c-0.1,0.1-0.2,0.2-0.3,0.3c-0.2,0.2-0.4,0.5-0.6,0.7
			c-0.3,0.5-0.4,1.1-0.2,1.6c0.1,0.3,0.2,0.5,0.4,0.7c0.1,0.2,0.2,0.4,0.4,0.6c0.1,0.1,0,0.1,0,0.1c0-0.1,0,0,0,0
			c-0.3,0.1-0.6,0-0.9-0.1c-0.7-0.1-1.4-0.2-2.1,0c-0.6,0.2-1.1,0.5-1.6,0.9c-0.2,0.2-0.5,0.4-0.8,0.4c-0.1,0-0.2,0-0.3,0
			c-0.1,0-0.1,0-0.2,0c-0.1,0-0.1,0,0.1,0.1c0.1,0,0.3-0.8,0.4-0.9c0.2-0.3,0.3-0.6,0.5-0.8c0.4-0.5,0.2-1-0.3-1.3
			c-0.4-0.1-0.7-0.3-1.1-0.4c-0.2-0.1-0.3-0.1-0.5-0.2c-0.1,0-0.2-0.1-0.2-0.1c-0.1-0.1-0.1-0.1,0,0c0,0.1,0.1,0.3,0.1,0.4
			c0,0.2-0.2,0.2,0,0.1c0.1,0,0.2-0.1,0.2-0.1c0.2-0.1,0.5-0.2,0.7-0.3c0.4-0.2,0.9-0.3,1.4-0.4C46.5,64.4,46.1,62.9,45.1,63.2
			L45.1,63.2z"/>
	</g>
</g>
<g>
	<path class="st3" d="M155.8,67.9c0.8,0.2,1.7,0.5,2.4,0.8c0.3,0.1,0.6,0.3,0.5,0.6c0,0.2-0.2,0.3-0.4,0.4c-0.6,0.3-1.3,0.5-1.9,0.8
		c0.5,0.6,0.9,1.3,1.1,2.1c0,0.2,0.1,0.3,0,0.5c-0.1,0.2-0.2,0.3-0.4,0.3c-0.4,0.1-0.8,0.1-1.1,0c-0.7-0.2-1.2-0.8-1.8-1.1
		c-0.7-0.4-1.6-0.3-2.4-0.2c-0.3,0.1-0.6,0.2-1,0.1s-0.7-0.2-0.8-0.5c-0.3-0.7,0.7-1.3,0.9-2.1c0.2-0.8-0.8-1.4-1.2-2.2
		c-0.1-0.1-0.2-0.3-0.1-0.4c0.1-0.1,0.1-0.1,0.2-0.1c0.7-0.2,1.4-0.3,2.1-0.2c0.3,0,0.6,0,0.8-0.2c0.1-0.1,0.1-0.3,0.2-0.4
		c0.2-0.7,0.8-1.4,1.5-1.7c0.5,1,1,2.1,1.3,3.2"/>
	<g>
		<path class="st4" d="M155.6,68.6c0.5,0.1,0.9,0.3,1.4,0.4c0.2,0.1,0.4,0.2,0.6,0.2c0.1,0,0.2,0.1,0.3,0.1c0,0,0.1,0,0.1,0.1
			c0.1,0.1,0.1,0,0-0.1c0-0.1,0.1-0.3,0.1-0.4c0.1,0,0.1,0,0,0c-0.1,0-0.2,0.1-0.3,0.1c-0.2,0.1-0.3,0.1-0.5,0.2
			c-0.4,0.2-0.8,0.3-1.1,0.5c-0.6,0.2-0.7,0.8-0.3,1.3c0.4,0.5,0.7,1.1,0.9,1.8c0-0.1,0.2-0.1-0.1,0c-0.1,0-0.2,0-0.3,0
			c-0.3-0.1-0.6-0.3-0.8-0.4c-0.5-0.4-1-0.8-1.7-0.9c-0.7-0.2-1.4-0.1-2.1,0c-0.3,0-0.6,0.2-0.9,0.1c-0.1,0-0.1,0,0-0.1
			c0.2-0.5,0.6-0.8,0.8-1.3c0.2-0.6,0.1-1.2-0.2-1.7c-0.2-0.3-0.4-0.5-0.6-0.7c-0.1-0.1-0.2-0.2-0.3-0.3c-0.1-0.1-0.1-0.1-0.2-0.2
			c-0.1-0.1-0.1-0.1,0,0.1c-0.1,0.1-0.1,0.2-0.2,0.3c0,0,0.1,0,0.1-0.1c-0.1,0.1-0.2,0.1-0.3,0.2c0.5-0.2,1.1-0.3,1.7-0.3
			c0.5,0,1.1,0.1,1.5-0.3c0.4-0.3,0.4-0.8,0.7-1.2c0.2-0.4,0.6-0.6,1-0.8c-0.3-0.1-0.7-0.2-1-0.3c0.5,1,0.9,2,1.3,3
			c0.3,0.9,1.8,0.5,1.4-0.4c-0.4-1.1-0.9-2.3-1.4-3.3c-0.2-0.4-0.7-0.4-1-0.3c-0.7,0.3-1.4,1-1.7,1.7c0,0-0.2,0.6-0.2,0.6
			c0,0,0.1,0,0.1-0.1c0.1-0.1,0.1-0.1,0-0.1c-0.1,0-0.2,0-0.2,0c-0.5,0-1.1,0-1.6,0.1c-0.4,0.1-0.9,0.2-1.3,0.5
			c-0.4,0.4-0.3,1,0,1.4c0.2,0.3,0.5,0.6,0.7,0.9c0.2,0.2,0.4,0.5,0.4,0.7c-0.1,0.3-0.3,0.5-0.4,0.7c-0.2,0.3-0.5,0.7-0.5,1.1
			c-0.1,0.9,0.7,1.6,1.6,1.6c0.9,0.1,1.8-0.4,2.7-0.1c0.8,0.2,1.4,1,2.2,1.3c1,0.3,2.5,0,2.5-1.2c0-0.5-0.3-1.1-0.5-1.6
			c-0.2-0.5-0.5-0.9-0.9-1.4c-0.1,0.4-0.2,0.8-0.3,1.3c0.6-0.3,1.3-0.5,1.9-0.8c0.6-0.2,1.1-0.7,0.9-1.4c-0.2-0.6-0.8-0.9-1.4-1.1
			c-0.7-0.3-1.4-0.5-2-0.7C155.1,66.9,154.7,68.4,155.6,68.6L155.6,68.6z"/>
	</g>
</g>
<g>
	<path class="st3" d="M79.8,19.4c0.1-0.7,0.8-1.5,1.3-2.2c0.2-0.3,0.6-0.3,0.7,0c0.3,0.5,0.5,1.1,0.8,1.7c0.2,0.4,3.2-0.5,4.4-0.4
		c0.3,0,0.6,0.1,0.7,0.3c0.2,0.3,0.1,0.7-0.1,1c-0.6,1-2.1,1.5-2.4,2.6c-0.1,0.5-0.1,1,0.1,1.5c0.2,0.7,0.4,1.4,0.3,2.1
		c0,0.1,0,0.2-0.1,0.3c-0.1,0.2-0.4,0.2-0.6,0.2c-1-0.1-3.3-2-3.7-1.9c-0.2,0-0.3,0.1-0.4,0.2l-2.2,1.3c-0.4,0.3-0.9,0.3-1.2-0.2
		c-0.3-0.5-0.2-1,0-1.5c0.3-0.8,1.2-1.6,1.8-2.2c0.3-0.2-1.6-1-1.8-1.2c-0.3-0.2-0.7-0.7-0.7-1.1c0-0.3,0.2-0.6,0.6-0.5
		c0.5,0.1,1.9-0.2,2.4-0.1c0,0,0,0,0.1,0"/>
	<g>
		<path class="st4" d="M80.5,19.6c0.1-0.4,0.2-0.7,0.5-1c0.1-0.2,0.3-0.4,0.4-0.5c0.1-0.1,0.1-0.1,0.2-0.2c0,0,0.1-0.1,0.1-0.1
			c-0.3-0.1-0.5-0.1-0.3,0.1c0,0.1,0.2,0.4,0.2,0.5c0.1,0.2,0.2,0.4,0.3,0.6c0.1,0.3,0.3,0.6,0.6,0.7c0.4,0.2,1,0.1,1.4,0
			c0.6-0.1,1.2-0.2,1.8-0.3c0.4-0.1,1.1-0.2,1.5-0.1c0.2,0.1,0,0,0,0c0,0,0,0.1-0.1,0.2c-0.1,0.1-0.2,0.2-0.3,0.4
			c-0.3,0.3-0.5,0.5-0.8,0.7c-0.5,0.4-1.1,0.9-1.3,1.6c-0.3,1,0,1.8,0.2,2.7c0,0.1,0.1,1.4,0.1,1.4C85,26,85,26,85,26
			c0.1-0.1,0.1-0.1,0-0.1c0,0.1-0.1,0,0,0c-0.1-0.1-0.3-0.1-0.4-0.1c-0.5-0.2-1-0.6-1.5-0.9c-0.4-0.3-0.8-0.6-1.2-0.8
			c-0.5-0.3-1-0.2-1.5,0.2c-0.7,0.4-1.4,0.8-2.1,1.2c-0.1,0-0.2,0.2-0.3,0.2c0.1,0,0-0.2,0-0.2c0-0.2,0-0.4,0.1-0.6
			c0.3-0.7,1-1.3,1.5-1.8c1.2-1.1-0.8-2-1.6-2.3c-0.3-0.1-0.4-0.3-0.6-0.4c-0.1-0.1,0-0.3-0.2,0c-0.1,0.3-0.1,0.1,0,0.2
			c0.1,0,0.3,0,0.4,0c0.4,0,0.7-0.1,1.1-0.1c0.4,0,0.6,0,0.8,0c1,0,1-1.5,0-1.5c0.2,0-0.2,0-0.3,0c-0.2,0-0.4,0-0.5,0
			c-0.4,0-0.8,0.1-1.1,0.1c-0.4,0-0.7,0-1,0.1C76.3,19.1,76,19.5,76,20c0,0.8,0.6,1.5,1.3,1.9c0.3,0.1,0.5,0.2,0.8,0.4
			c0.2,0.1,0.6,0.4,0.7,0.4c0,0,0,0,0,0c-0.2-0.2-0.1-0.5,0.1-0.8c-0.1,0-0.2,0.2-0.2,0.2c-0.2,0.1-0.3,0.3-0.5,0.5
			c-0.4,0.4-0.7,0.8-1,1.2c-0.5,0.8-0.7,2-0.1,2.8c0.9,1.3,2.4,0.1,3.4-0.4c0.1-0.1,1.1-0.5,1.1-0.7c0,0.1-0.4-0.1-0.2,0
			c0.1,0.1,0.2,0.1,0.3,0.2c0.3,0.2,0.6,0.3,0.8,0.5c0.9,0.6,3.4,2.2,4,0.4c0.2-0.5,0.1-1.1,0-1.6c-0.1-0.6-0.3-1.1-0.4-1.6
			c-0.1-1,0.6-1.5,1.3-2c0.7-0.5,1.4-1.3,1.3-2.2c-0.1-1-1-1.3-1.9-1.4c-0.8,0-1.6,0.2-2.4,0.3c-0.3,0.1-0.7,0.1-1,0.2
			c-0.1,0-0.4,0-0.4,0c0,0,0.1,0.1,0.2,0.1c0.2,0.2,0.2,0.2,0.1,0c0-0.1,0-0.1-0.1-0.2c-0.4-0.9-0.9-2.5-2.2-1.8
			c-0.4,0.3-0.8,0.9-1.1,1.3c-0.3,0.5-0.6,0.9-0.7,1.5c-0.1,0.4,0.1,0.8,0.5,0.9C79.9,20.2,80.5,20,80.5,19.6L80.5,19.6z"/>
	</g>
</g>
<g>
	<path class="st3" d="M128.5,19.5c-0.1-0.7-0.8-1.5-1.3-2.3c-0.2-0.3-0.6-0.3-0.7,0c-0.3,0.5-0.5,1.2-0.8,1.7
		c-0.2,0.4-3.2-0.5-4.5-0.4c-0.3,0-0.6,0.1-0.8,0.3c-0.2,0.3-0.1,0.7,0.1,1c0.7,1,2.1,1.5,2.4,2.7c0.1,0.5,0.1,1.1-0.1,1.6
		c-0.3,0.7-0.4,1.4-0.3,2.2c0,0.1,0,0.3,0.1,0.4c0.1,0.2,0.4,0.2,0.6,0.2c1.1-0.1,3.4-2,3.8-2c0.2,0,0.3,0.1,0.5,0.2l2.2,1.3
		c0.4,0.3,1,0.3,1.2-0.2c0.3-0.5,0.2-1,0-1.5c-0.3-0.8-1.2-1.7-1.9-2.2c-0.3-0.3,1.6-1.1,1.9-1.2c0.3-0.2,0.7-0.7,0.8-1.1
		c0-0.4-0.3-0.6-0.6-0.5c-0.5,0.1-2-0.2-2.5-0.1c0,0,0,0-0.1,0"/>
	<g>
		<path class="st4" d="M129.3,19.3c-0.1-0.5-0.3-0.9-0.6-1.3c-0.3-0.4-0.6-0.9-0.9-1.3c-0.3-0.3-0.8-0.5-1.2-0.4
			c-0.5,0.1-0.8,0.6-1,1.1c-0.1,0.2-0.2,0.5-0.3,0.7c0,0.1-0.1,0.2-0.2,0.4c-0.1,0.3,0.2-0.3,0.3-0.2c0,0,0,0-0.1,0
			c-0.1,0-0.1,0-0.2,0c-0.1,0-0.2,0-0.4,0c-0.8-0.1-1.5-0.3-2.3-0.4c-0.7-0.1-1.6-0.2-2.3,0.2c-1,0.5-0.8,1.7-0.2,2.5
			c0.5,0.7,1.3,1.1,1.9,1.8c0.7,0.9,0,1.9-0.1,2.9c-0.1,1-0.2,2.4,1.1,2.5c0.7,0.1,1.4-0.3,2-0.6c0.6-0.4,1.2-0.8,1.9-1.2
			c0.1-0.1,0.2-0.1,0.3-0.2c0.2-0.1,0,0,0,0c0,0.2-0.4-0.3,0,0.1c0,0,0,0,0,0c0.1,0.1,0.1,0.1,0.2,0.1c0.5,0.3,1,0.6,1.5,0.9
			c0.5,0.3,1,0.6,1.5,0.6c1.1,0,1.5-1.2,1.4-2.2c-0.1-1-0.8-1.8-1.5-2.6c-0.2-0.2-0.4-0.4-0.6-0.6c0,0,0,0-0.1,0
			c-0.2-0.2-0.2,0,0.1,0.7c0.1,0-0.2,0.1,0,0.1c0.3-0.1,0.6-0.4,0.9-0.5c0.7-0.4,1.4-0.7,1.7-1.5c0.2-0.5,0.2-1.1-0.2-1.6
			c-0.3-0.4-0.8-0.4-1.2-0.4c-0.4,0-0.8-0.1-1.2-0.1c-0.2,0-0.4,0-0.6,0c-0.1,0-0.1,0-0.2,0c-0.1,0-0.4,0-0.2,0c-1,0-1,1.5,0,1.5
			c0.5,0,1.1,0,1.7,0.1c0.2,0,0.6,0.1,0.7,0c0,0,0,0,0,0c0.1,0,0.1-0.1-0.1-0.3c0,0-0.1,0.2-0.1,0.2c-0.1,0.1-0.2,0.3-0.3,0.4
			c-0.7,0.4-2,0.7-2.3,1.6c-0.2,0.8,0.8,1.3,1.2,1.7c0.3,0.3,0.5,0.6,0.7,0.9c0.1,0.1,0.3,0.9,0.1,1c-0.1,0-0.7-0.4-0.8-0.5
			c-0.4-0.3-0.9-0.5-1.3-0.8c-0.4-0.2-0.8-0.5-1.2-0.5c-0.4,0-0.8,0.3-1.2,0.5c-0.5,0.3-1,0.7-1.5,1c-0.2,0.1-0.5,0.3-0.7,0.4
			c-0.1,0-0.2,0.1-0.3,0.1c0,0-0.1,0-0.1,0c0,0,0,0-0.1,0c-0.1,0-0.1,0.1,0.1,0.2c0,0,0.1-1.2,0.1-1.3c0.1-0.5,0.3-0.9,0.4-1.5
			c0.1-0.9-0.2-1.7-0.7-2.3c-0.5-0.5-1.1-0.9-1.6-1.4c-0.1-0.1-0.2-0.2-0.3-0.4c0-0.1-0.1-0.1-0.1-0.2c0-0.1-0.1,0,0,0
			c0.1-0.1,0.6,0,0.7,0c1.2,0.1,2.5,0.6,3.7,0.5c0.9-0.1,1-0.9,1.4-1.6c0-0.1,0.1-0.2,0.1-0.3c0.1-0.2,0.1-0.2-0.1-0.2
			c-0.2-0.1-0.2,0-0.1,0.1c0,0.2,0.3,0.5,0.5,0.6c0.3,0.4,0.6,0.8,0.6,1.3c0.1,0.4,0.6,0.6,0.9,0.5
			C129.2,20.1,129.3,19.7,129.3,19.3L129.3,19.3z"/>
	</g>
</g>
<g>
	<path class="st3" d="M48.6,49.7c-0.2,0.6-0.4,1.1-0.6,1.7c-0.1,0.3-0.1,0.6,0.1,0.8c0.2,0.2,0.6,0,0.9-0.1c0.6-0.4,1.1-0.8,1.7-1.1
		c0.1,0,0.1-0.1,0.2-0.1c0.1,0,0.2,0.1,0.3,0.1c0.5,0.5,1,0.9,1.6,1.3c0.2,0.1,0.3,0.3,0.6,0.3c0.2,0.1,0.5,0,0.6-0.2
		c0.1-0.2,0.1-0.4,0.1-0.5c-0.1-0.4-0.2-0.8-0.4-1.2c-0.1-0.2-0.2-0.4-0.1-0.6c0.1-0.2,0.3-0.3,0.4-0.3c0.4-0.2,0.7-0.3,1-0.6
		c0.3-0.2,0.5-0.4,0.6-0.7c0.1-0.3,0.1-0.6-0.1-0.9c-0.1-0.1-0.3-0.2-0.4-0.3c-0.5-0.2-1-0.5-1.5-0.7c-0.2-0.1-0.3-0.1-0.4-0.3
		c-0.1-0.2-0.2-0.4-0.2-0.6c-0.1-0.5-0.3-1-0.6-1.4c-0.1-0.1-0.2-0.2-0.3-0.3c-0.3-0.1-0.6,0.1-0.7,0.3c-0.4,0.5-0.7,1-0.9,1.5
		c-0.1,0.1-0.1,0.3-0.3,0.4c-0.1,0.1-0.3,0.1-0.4,0.1c-0.5,0.1-1.1,0.1-1.6,0.2c-0.3,0-0.7,0.1-0.8,0.4c-0.1,0.2,0,0.4,0.1,0.5
		c0.2,0.4,0.6,0.6,0.9,0.9c0.3,0.3,0.5,0.7,0.4,1.2"/>
	<g>
		<path class="st4" d="M47.8,49.5c-0.4,0.9-1.3,2.7-0.1,3.4c0.6,0.3,1.2,0.1,1.7-0.2c0.3-0.2,0.6-0.4,0.9-0.6
			c0.2-0.1,0.6-0.5,0.8-0.5c-0.1,0-0.3,0-0.4,0c-0.2,0,0.1,0.1,0.1,0.1c0.1,0.1,0.2,0.2,0.3,0.3c0.2,0.2,0.4,0.3,0.5,0.5
			c0.4,0.3,0.7,0.6,1.1,0.8c1,0.5,2-0.2,1.9-1.3c0-0.5-0.2-1-0.4-1.4c0-0.1-0.1-0.3-0.1-0.3c0,0,0,0.1-0.1,0.1
			c-0.1,0.1-0.1,0.2,0,0.1c0.2,0,0.5-0.2,0.7-0.3c0.8-0.5,1.6-1.1,1.5-2.1c-0.1-1.1-1.3-1.4-2.1-1.7c-0.2-0.1-0.5-0.1-0.6-0.3
			c-0.1-0.1-0.1-0.3-0.1-0.5c-0.1-0.5-0.3-1-0.6-1.5c-0.6-1-1.6-0.8-2.3,0c-0.3,0.4-0.5,0.7-0.8,1.1c-0.1,0.2-0.2,0.4-0.3,0.6
			c0,0,0,0,0,0.1c0.2-0.1,0.1-0.1-0.1-0.1c-0.1,0-0.3,0-0.5,0c-0.9,0.1-2.4,0-2.5,1.3c-0.1,0.6,0.3,1.1,0.7,1.5
			C47.5,48.8,48,49.1,47.8,49.5c0,0.5,0.4,0.8,0.8,0.8c0.4,0,0.7-0.3,0.8-0.8c0.1-0.6-0.2-1.1-0.6-1.6c-0.2-0.3-0.9-0.7-0.9-1.1
			c0,0.1-0.1,0.3-0.1,0.4c0.1-0.3,0,0,0,0c0,0,0.1,0,0.1,0c0.2,0,0.3,0,0.5-0.1c0.5,0,1-0.1,1.5-0.2c0.9-0.2,1.1-1.2,1.5-1.8
			c0.1-0.1,0.2-0.3,0.3-0.4c0,0,0,0,0,0c0.2-0.1,0-0.2-0.3-0.1c0,0,0.2,0.3,0.1,0.2c0.2,0.4,0.3,0.8,0.4,1.2
			c0.1,0.4,0.3,0.8,0.7,1.1c0.4,0.2,0.8,0.4,1.2,0.6c0.2,0.1,0.9,0.3,0.9,0.4c0,0,0-0.1,0,0c0,0.1,0,0.1-0.1,0.1
			c-0.1,0.1-0.3,0.2-0.4,0.3c-0.6,0.4-1.7,0.6-1.7,1.6c0,0.4,0.2,0.8,0.3,1.1c0.1,0.2,0.1,0.4,0.2,0.6c0,0,0,0.2,0,0.2
			c0-0.2,0.1-0.2,0.2-0.2c0.1,0,0.1,0,0,0c-0.1-0.1-0.3-0.2-0.4-0.3c-0.2-0.1-0.3-0.3-0.5-0.4c-0.4-0.3-0.7-0.7-1.1-0.9
			c-0.5-0.3-0.9-0.2-1.3,0.1c-0.5,0.3-0.9,0.6-1.3,0.9c-0.1,0.1-0.2,0.1-0.3,0.2c-0.2,0.1-0.2,0,0,0.2c0.4,0.2,0.1,0.1,0.2,0
			c0.1-0.1,0.1-0.2,0.1-0.4c0.1-0.5,0.3-1,0.5-1.4c0.2-0.4-0.2-0.8-0.5-0.9C48.3,48.9,48,49.1,47.8,49.5L47.8,49.5z"/>
	</g>
</g>
<g>
	<path class="st3" d="M155.7,52.9c0.2,0.6,0.4,1.2,0.6,1.8c0.1,0.3,0.1,0.6-0.1,0.8c-0.2,0.2-0.6,0-0.9-0.1
		c-0.6-0.4-1.2-0.8-1.7-1.2c-0.1,0-0.1-0.1-0.2-0.1c-0.1,0-0.2,0.1-0.3,0.2c-0.5,0.5-1.1,0.9-1.6,1.3c-0.2,0.1-0.4,0.3-0.6,0.3
		c-0.2,0.1-0.5,0-0.6-0.2c-0.1-0.2-0.1-0.4-0.1-0.6c0.1-0.4,0.2-0.9,0.4-1.3c0.1-0.2,0.2-0.4,0.1-0.6c-0.1-0.2-0.3-0.3-0.5-0.3
		c-0.4-0.2-0.7-0.4-1-0.6c-0.3-0.2-0.5-0.4-0.7-0.7c-0.1-0.3-0.1-0.7,0.1-0.9c0.1-0.1,0.3-0.2,0.4-0.3c0.5-0.2,1.1-0.5,1.6-0.7
		c0.2-0.1,0.3-0.2,0.5-0.3c0.1-0.2,0.2-0.4,0.2-0.6c0.1-0.5,0.3-1,0.6-1.5c0.1-0.1,0.2-0.2,0.3-0.3c0.3-0.1,0.6,0.1,0.8,0.4
		c0.4,0.5,0.7,1,0.9,1.5c0.1,0.1,0.1,0.3,0.3,0.4c0.1,0.1,0.3,0.1,0.4,0.1c0.6,0.1,1.1,0.1,1.7,0.2c0.3,0,0.7,0.1,0.8,0.4
		c0.1,0.2,0,0.4-0.1,0.6c-0.2,0.4-0.6,0.6-0.9,1c-0.3,0.3-0.5,0.8-0.5,1.2"/>
	<g>
		<path class="st4" d="M155,53.1c0.2,0.4,0.3,0.8,0.4,1.2c0.1,0.2,0.1,0.4,0.2,0.6c-0.1-0.1,0,0.2,0,0.2c0.4-0.1,0.5-0.2,0.3-0.2
			c-0.1,0-0.1,0-0.1-0.1c-0.4-0.2-0.8-0.5-1.1-0.7c-0.4-0.3-0.8-0.7-1.3-0.7c-0.4,0-0.7,0.3-1.1,0.6c-0.3,0.3-0.7,0.6-1,0.9
			c-0.1,0.1-0.4,0.2-0.5,0.4c-0.1,0.1,0-0.1,0,0c0,0,0.1,0.1,0.1,0.1c0.1,0.2,0.1,0.2,0.1,0c0.1-0.1,0.1-0.4,0.1-0.6
			c0.1-0.2,0.2-0.4,0.2-0.7c0.2-0.4,0.2-0.8,0-1.2c-0.2-0.4-0.6-0.5-1-0.7c-0.3-0.2-0.7-0.4-1-0.6c-0.1-0.1-0.2-0.2-0.2-0.3
			c0,0,0.1-0.1,0.2-0.1c0.4-0.2,0.8-0.4,1.3-0.6c0.4-0.2,0.9-0.4,1.1-0.8c0.2-0.3,0.2-0.8,0.4-1.2c0.1-0.2,0.1-0.4,0.2-0.6
			c0,0,0.2-0.2,0.2-0.3c0.1-0.1,0.1-0.1-0.1,0c-0.2,0-0.2,0-0.1,0.1c0.1,0.2,0.3,0.3,0.4,0.5c0.1,0.2,0.2,0.4,0.3,0.6
			c0.2,0.4,0.4,0.9,0.8,1.1c0.4,0.2,1.1,0.2,1.5,0.3c0.3,0,0.6,0,0.8,0.1c0,0,0.1,0,0.1,0c0.1,0-0.1-0.2,0,0c0-0.1-0.1-0.3-0.1-0.4
			c0,0.4-0.7,0.8-0.9,1.1c-0.4,0.5-0.7,1-0.6,1.6c0,0.4,0.3,0.8,0.8,0.8c0.4,0,0.8-0.3,0.8-0.8c-0.1-0.5,0.3-0.7,0.6-1
			c0.3-0.3,0.7-0.7,0.8-1.2c0.1-0.5,0-1-0.5-1.3c-0.4-0.3-0.9-0.3-1.4-0.4c-0.2,0-0.5,0-0.7-0.1c-0.1,0-0.2,0-0.3,0
			c0,0-0.5-0.1-0.3,0c0.1,0.1,0-0.1-0.1-0.2c0-0.1-0.1-0.2-0.1-0.3c-0.1-0.2-0.3-0.5-0.4-0.7c-0.5-0.8-1.4-1.8-2.4-1.1
			c-0.4,0.3-0.6,0.8-0.7,1.2c-0.1,0.2-0.2,0.4-0.2,0.6c-0.1,0.2-0.1,0.5-0.2,0.6c-0.1,0.1-0.4,0.2-0.6,0.3c-0.3,0.1-0.5,0.2-0.8,0.4
			c-0.5,0.2-1,0.4-1.2,0.8c-0.5,0.9,0.1,1.9,0.8,2.4c0.4,0.3,0.7,0.5,1.2,0.7c0,0,0.2,0.1,0.2,0.1c0-0.1-0.1-0.2-0.1-0.2
			c0,0.1,0,0.1-0.1,0.2c-0.2,0.2-0.2,0.6-0.3,0.9c-0.1,0.5-0.3,1.1,0,1.6c0.3,0.5,0.8,0.7,1.4,0.6c0.5-0.1,1-0.5,1.4-0.8
			c0.2-0.2,0.4-0.3,0.6-0.5c0.1-0.1,0.2-0.2,0.3-0.3c0.1-0.1,0.1-0.1,0.2-0.2c0.1-0.1,0.2-0.1,0.1-0.1c-0.1,0-0.3,0-0.4,0
			c0.3,0.1,0.6,0.4,0.8,0.5c0.3,0.2,0.6,0.4,0.9,0.6c0.5,0.3,1.2,0.6,1.8,0.3c1.2-0.7,0.2-2.5-0.1-3.4c-0.2-0.4-0.5-0.6-0.9-0.5
			C155.1,52.3,154.8,52.7,155,53.1L155,53.1z"/>
	</g>
</g>
<g>
	<path class="st3" d="M61.9,33.9c-0.6,0.6-1.1,1.4-1.4,2.2c-0.1,0.1-0.1,0.3-0.1,0.5c0.1,0.3,0.4,0.5,0.7,0.5c1.1,0.1,2-1.1,3.1-1.1
		c0.5,0,0.9,0.3,1.3,0.5c0.4,0.2,0.8,0.5,1.3,0.5c0.5,0,1-0.3,1-0.8c0-0.2-0.1-0.4-0.2-0.6c-0.2-0.5-0.5-0.9-0.7-1.4
		c-0.1-0.1-0.1-0.3-0.1-0.4c0-0.2,0.2-0.3,0.4-0.4c0.8-0.4,1.5-1.2,1.8-2.1c-1.1-1.1-3.2-0.1-4.2-1.3c-0.3-0.3-0.4-0.8-0.6-1.2
		c-0.2-0.4-0.8-0.7-1.1-0.4c-0.2,0.1-0.3,0.4-0.3,0.6c-0.2,0.6-0.4,1.2-0.6,1.9c0,0.1-0.1,0.2-0.2,0.3c-0.1,0.1-0.2,0.1-0.4,0.1
		c-0.8,0-1.6,0.1-2.3,0.5c-0.1,0.1-0.2,0.1-0.3,0.2c-0.1,0.3,0.2,0.6,0.5,0.7c0.8,0.4,1.5,0.7,2.3,1.1"/>
	<g>
		<path class="st4" d="M61.3,33.4c-0.5,0.6-1,1.2-1.3,1.9c-0.3,0.7-0.6,1.5,0,2.1c1.1,1.1,2.5,0,3.6-0.5c0.6-0.3,1.1,0.1,1.6,0.4
			c0.6,0.4,1.4,0.7,2.1,0.4c0.7-0.2,1.2-0.9,1.1-1.6c0-0.4-0.3-0.8-0.5-1.2c-0.1-0.2-0.2-0.3-0.3-0.5c-0.1-0.1-0.3-0.4-0.3-0.6
			c0,0.1-0.1,0.3-0.1,0.4c0.1-0.2,0.5-0.3,0.6-0.4c0.3-0.2,0.5-0.4,0.7-0.6c0.4-0.5,0.7-1,0.9-1.6c0.1-0.2,0-0.6-0.2-0.7
			c-0.6-0.5-1.2-0.7-1.9-0.8c-0.6-0.1-1.3,0-1.8-0.2c-0.7-0.3-0.7-1.2-1.2-1.7c-0.6-0.6-1.7-0.7-2.2,0.1c-0.3,0.4-0.4,0.8-0.5,1.2
			c-0.1,0.2-0.2,0.5-0.2,0.7c0,0.1-0.1,0.2-0.1,0.4c-0.1,0.3-0.1,0.3,0.3,0c0-0.1-0.6,0-0.6,0c-0.2,0-0.5,0-0.7,0.1
			c-0.5,0.1-0.9,0.2-1.3,0.4c-0.9,0.4-1.1,1.4-0.4,2c0.4,0.3,0.9,0.5,1.3,0.7c0.5,0.2,0.9,0.5,1.4,0.7c0.9,0.4,1.6-0.9,0.8-1.3
			c-0.5-0.2-0.9-0.5-1.4-0.7c-0.2-0.1-1-0.4-1.1-0.6c0,0.1,0,0.3,0,0.4c-0.2,0.2-0.2,0.2-0.1,0.1c0.1,0,0.1-0.1,0.2-0.1
			c0.1-0.1,0.3-0.1,0.4-0.1c0.3-0.1,0.6-0.1,0.9-0.2c0.6,0,1.2,0.1,1.6-0.5c0.3-0.5,0.5-1.3,0.7-1.9c0-0.1,0.1-0.3,0.1-0.4
			c0,0,0-0.1,0.1-0.1c-0.2,0-0.2,0.1-0.1,0.1c0,0,0.1,0.1,0.2,0.1c0.1,0.1,0.2,0.3,0.2,0.4c0.5,1,1.1,1.6,2.2,1.8
			c0.7,0.1,1.9-0.1,2.5,0.5c-0.1-0.2-0.1-0.5-0.2-0.7c-0.2,0.6-0.6,1.1-1.1,1.4c-0.6,0.4-1.3,0.7-1.1,1.6c0.1,0.4,0.4,0.8,0.5,1.1
			c0.1,0.2,0.5,0.8,0.5,0.9c-0.1,0.3-1.2-0.4-1.4-0.5c-0.6-0.4-1.3-0.6-2-0.5c-0.6,0.1-1.1,0.4-1.6,0.7c-0.2,0.1-0.5,0.3-0.7,0.3
			c-0.1,0-0.2,0-0.2,0c-0.1-0.1-0.1,0,0,0.1c0-0.1,0-0.2,0.1-0.2c0.3-0.7,0.7-1.2,1.1-1.8C63.1,33.8,62,32.7,61.3,33.4L61.3,33.4z"
			/>
	</g>
</g>
<g>
	<path class="st3" d="M143.3,36.1c0.6,0.6,1.1,1.4,1.4,2.2c0.1,0.2,0.1,0.3,0.1,0.5c-0.1,0.3-0.4,0.5-0.7,0.5
		c-1.1,0.1-2-1.1-3.2-1.1c-0.5,0-0.9,0.3-1.3,0.5c-0.4,0.3-0.9,0.5-1.3,0.5s-1-0.3-1-0.8c0-0.2,0.1-0.4,0.2-0.6
		c0.2-0.5,0.5-0.9,0.7-1.4c0.1-0.1,0.1-0.3,0.1-0.4c0-0.2-0.2-0.3-0.4-0.4c-0.9-0.5-1.6-1.3-1.9-2.2c1.1-1.1,3.3-0.2,4.3-1.3
		c0.3-0.4,0.4-0.8,0.6-1.2c0.2-0.4,0.8-0.7,1.2-0.4c0.2,0.1,0.3,0.4,0.3,0.6c0.2,0.6,0.4,1.3,0.6,1.9c0,0.1,0.1,0.2,0.2,0.3
		c0.1,0.1,0.2,0.1,0.4,0.1c0.8,0,1.6,0.1,2.4,0.5c0.1,0.1,0.2,0.1,0.3,0.2c0.1,0.3-0.2,0.6-0.5,0.7c-0.8,0.4-1.6,0.8-2.4,1.1"/>
	<g>
		<path class="st4" d="M142.8,36.6c0.5,0.5,0.9,1.1,1.1,1.7c0,0.1,0.1,0.2,0.1,0.3c0.1-0.1,0.1-0.1,0-0.1c-0.1,0-0.2,0-0.2,0
			c-0.2,0-0.5-0.2-0.7-0.3c-0.5-0.3-1-0.6-1.6-0.8c-0.8-0.2-1.4,0.1-2.1,0.5c-0.2,0.1-1.2,0.9-1.4,0.5c-0.1-0.1,0.4-0.8,0.5-1
			c0.2-0.4,0.4-0.7,0.5-1.1c0.3-0.9-0.5-1.2-1.1-1.6c-0.5-0.4-1-0.9-1.2-1.5c-0.1,0.2-0.1,0.5-0.2,0.7c0.6-0.6,1.8-0.4,2.6-0.5
			c1.1-0.2,1.8-0.8,2.3-1.8c0.1-0.1,0.1-0.2,0.2-0.3c0,0,0.2-0.1,0.2-0.2c0.1,0,0.1-0.1-0.1-0.1c0,0,0,0,0,0.1
			c0,0.1,0.1,0.4,0.2,0.5c0.2,0.6,0.3,1.4,0.7,1.9c0.4,0.6,0.9,0.5,1.5,0.5c0.3,0,0.6,0.1,0.9,0.1c0.2,0,0.3,0.1,0.5,0.2
			c0,0,0.1,0,0.1,0.1c0.2,0.1,0.2,0.1,0-0.1c0-0.1,0-0.3,0-0.4c0,0.2-0.9,0.5-1.1,0.6c-0.5,0.2-1,0.5-1.5,0.7
			c-0.9,0.4-0.1,1.7,0.8,1.3c0.5-0.2,1-0.5,1.5-0.7c0.4-0.2,0.9-0.4,1.3-0.7c0.8-0.7,0.5-1.6-0.4-2c-0.4-0.2-0.9-0.3-1.4-0.4
			c-0.2,0-1.3-0.2-1.4-0.1c0.3,0.3,0.4,0.3,0.2,0c0-0.1-0.1-0.3-0.1-0.4c-0.1-0.3-0.2-0.5-0.3-0.8c-0.1-0.4-0.2-0.9-0.5-1.2
			c-0.6-0.8-1.6-0.7-2.3,0c-0.5,0.5-0.5,1.5-1.2,1.8c-0.6,0.2-1.3,0.2-1.9,0.2c-0.7,0.1-1.4,0.3-2,0.8c-0.2,0.2-0.3,0.5-0.2,0.7
			c0.2,0.6,0.5,1.2,1,1.7c0.2,0.2,0.5,0.5,0.7,0.6c0.2,0.1,0.6,0.3,0.7,0.4c0-0.1-0.1-0.3-0.1-0.4c0,0.2-0.2,0.4-0.3,0.6
			c-0.1,0.2-0.2,0.4-0.3,0.5c-0.2,0.4-0.4,0.8-0.5,1.2c-0.1,0.8,0.4,1.4,1.2,1.7c0.8,0.2,1.5-0.1,2.2-0.4c0.6-0.3,1-0.7,1.7-0.4
			c1.1,0.5,2.5,1.6,3.6,0.5c0.7-0.6,0.4-1.5,0-2.2c-0.3-0.7-0.8-1.3-1.3-1.9C143.1,34.8,142.1,35.9,142.8,36.6L142.8,36.6z"/>
	</g>
</g>
<g>
	<path class="st3" d="M106.8,18.2c0.8,0.6,1.5,1.3,2.1,2.1c0.1,0.2,0.2,0.3,0.2,0.5c0,0.4-0.3,0.7-0.6,0.8c-1.2,0.4-2.5-0.8-3.8-0.5
		c-0.5,0.1-1,0.5-1.4,0.9c-0.4,0.4-0.8,0.8-1.4,0.9s-1.2-0.1-1.3-0.7c-0.1-0.3,0-0.5,0.1-0.8c0.2-0.6,0.3-1.1,0.5-1.7
		c0-0.2,0.1-0.4,0-0.5c-0.1-0.2-0.3-0.3-0.6-0.3c-1.1-0.3-2-1-2.6-2c0.9-1.5,3.6-0.9,4.4-2.5c0.2-0.5,0.2-1,0.4-1.5
		c0.2-0.5,0.7-0.9,1.2-0.7c0.2,0.1,0.4,0.3,0.5,0.6c0.4,0.7,0.8,1.3,1.1,2c0.1,0.1,0.1,0.2,0.3,0.3c0.1,0.1,0.3,0,0.4,0
		c0.9-0.2,1.9-0.3,2.8,0c0.1,0,0.3,0.1,0.4,0.2c0.2,0.3-0.1,0.7-0.4,0.9c-0.8,0.6-1.6,1.2-2.4,1.8"/>
	<g>
		<path class="st4" d="M106.4,18.9c0.7,0.5,1.2,1,1.7,1.7c0.1,0.1,0.1,0.2,0.2,0.3c0,0-0.1,0-0.1,0c-0.1,0.1-0.3,0.1-0.4,0.1
			c-0.3,0-0.6-0.1-0.9-0.2c-0.7-0.2-1.4-0.5-2.1-0.4c-0.9,0.1-1.5,0.7-2.1,1.2c-0.2,0.2-1.3,1.1-1.4,0.4c0-0.4,0.3-1,0.4-1.4
			c0.1-0.4,0.3-0.9,0.3-1.3c-0.1-0.9-0.9-1-1.5-1.3c-0.7-0.3-1.3-0.8-1.7-1.5c0,0.3,0,0.5,0,0.8c0.6-0.8,2-0.9,2.9-1.2
			c0.6-0.2,1.1-0.5,1.4-1.1c0.2-0.3,0.3-0.6,0.4-0.9c0.1-0.3,0.1-0.9,0.4-1.1c0.2-0.1,0-0.1,0.1,0c0.1,0.1,0.3,0.4,0.3,0.6
			c0.2,0.4,0.5,0.8,0.7,1.2c0.4,0.8,0.8,1.2,1.8,1c0.4-0.1,0.8-0.2,1.3-0.2c0.3,0,0.5,0,0.8,0.1c0.1,0,0.2,0,0.3,0.1
			c0-0.4-0.1-0.5-0.2-0.3c-0.2,0-0.4,0.3-0.5,0.4c-0.2,0.1-0.4,0.3-0.5,0.4c-0.4,0.3-0.8,0.7-1.3,1c-0.3,0.2-0.5,0.6-0.3,1
			c0.2,0.3,0.7,0.5,1,0.3c0.8-0.6,1.5-1.2,2.3-1.7c0.6-0.4,1.2-1.2,0.8-1.9c-0.4-0.7-1.4-0.7-2.1-0.8c-0.4,0-0.8,0-1.3,0.1
			c-0.2,0-0.4,0.1-0.6,0.1c0.2,0,0.1,0.2,0.1,0c0-0.1-0.2-0.3-0.2-0.4c-0.4-0.7-0.8-1.6-1.4-2.1c-0.6-0.5-1.5-0.4-2,0.1
			c-0.6,0.6-0.6,1.4-0.9,2.1c-0.2,0.4-0.6,0.7-1,0.8c-1.3,0.4-2.6,0.6-3.4,1.8c-0.1,0.2-0.1,0.5,0,0.8c0.4,0.7,0.9,1.2,1.6,1.7
			c0.3,0.2,0.6,0.4,0.9,0.5c0.1,0.1,0.4,0.2,0.6,0.2c0.2,0-0.1,0-0.1-0.1c-0.1,0.1-0.1,0.3-0.1,0.4c-0.2,0.8-0.7,1.8-0.4,2.6
			c0.2,0.7,0.9,1.1,1.6,1.1c0.8,0.1,1.4-0.3,2-0.8c0.6-0.5,1-1.1,1.9-1c1.4,0.2,2.9,1.2,4.1,0c1.4-1.4-1.1-3.5-2.2-4.3
			C106.4,17,105.6,18.3,106.4,18.9L106.4,18.9z"/>
	</g>
</g>
<g>
	<path class="st3" d="M79.8,19.4c0.1-0.7,0.8-1.5,1.3-2.2c0.2-0.3,0.6-0.3,0.7,0c0.3,0.5,0.5,1.1,0.8,1.7c0.2,0.4,3.2-0.5,4.4-0.4
		c0.3,0,0.6,0.1,0.7,0.3c0.2,0.3,0.1,0.7-0.1,1c-0.6,1-2.1,1.5-2.4,2.6c-0.1,0.5-0.1,1,0.1,1.5c0.2,0.7,0.4,1.4,0.3,2.1
		c0,0.1,0,0.2-0.1,0.3c-0.1,0.2-0.4,0.2-0.6,0.2c-1-0.1-3.3-2-3.7-1.9c-0.2,0-0.3,0.1-0.4,0.2l-2.2,1.3c-0.4,0.3-0.9,0.3-1.2-0.2
		c-0.3-0.5-0.2-1,0-1.5c0.3-0.8,1.2-1.6,1.8-2.2c0.3-0.2-1.6-1-1.8-1.2c-0.3-0.2-0.7-0.7-0.7-1.1c0-0.3,0.2-0.6,0.6-0.5
		c0.5,0.1,1.9-0.2,2.4-0.1c0,0,0,0,0.1,0"/>
	<g>
		<path class="st4" d="M80.5,19.6c0.1-0.4,0.2-0.7,0.5-1c0.1-0.2,0.3-0.4,0.4-0.5c0.1-0.1,0.1-0.1,0.2-0.2c0,0,0.1-0.1,0.1-0.1
			c-0.3-0.1-0.5-0.1-0.3,0.1c0,0.1,0.2,0.4,0.2,0.5c0.1,0.2,0.2,0.4,0.3,0.6c0.1,0.3,0.3,0.6,0.6,0.7c0.4,0.2,1,0.1,1.4,0
			c0.6-0.1,1.2-0.2,1.8-0.3c0.4-0.1,1.1-0.2,1.5-0.1c0.2,0.1,0,0,0,0c0,0,0,0.1-0.1,0.2c-0.1,0.1-0.2,0.2-0.3,0.4
			c-0.3,0.3-0.5,0.5-0.8,0.7c-0.5,0.4-1.1,0.9-1.3,1.6c-0.3,1,0,1.8,0.2,2.7c0,0.1,0.1,1.4,0.1,1.4C85,26,85,26,85,26
			c0.1-0.1,0.1-0.1,0-0.1c0,0.1-0.1,0,0,0c-0.1-0.1-0.3-0.1-0.4-0.1c-0.5-0.2-1-0.6-1.5-0.9c-0.4-0.3-0.8-0.6-1.2-0.8
			c-0.5-0.3-1-0.2-1.5,0.2c-0.7,0.4-1.4,0.8-2.1,1.2c-0.1,0-0.2,0.2-0.3,0.2c0.1,0,0-0.2,0-0.2c0-0.2,0-0.4,0.1-0.6
			c0.3-0.7,1-1.3,1.5-1.8c1.2-1.1-0.8-2-1.6-2.3c-0.3-0.1-0.4-0.3-0.6-0.4c-0.1-0.1,0-0.3-0.2,0c-0.1,0.3-0.1,0.1,0,0.2
			c0.1,0,0.3,0,0.4,0c0.4,0,0.7-0.1,1.1-0.1c0.4,0,0.6,0,0.8,0c1,0,1-1.5,0-1.5c0.2,0-0.2,0-0.3,0c-0.2,0-0.4,0-0.5,0
			c-0.4,0-0.8,0.1-1.1,0.1c-0.4,0-0.7,0-1,0.1C76.3,19.1,76,19.5,76,20c0,0.8,0.6,1.5,1.3,1.9c0.3,0.1,0.5,0.2,0.8,0.4
			c0.2,0.1,0.6,0.4,0.7,0.4c0,0,0,0,0,0c-0.2-0.2-0.1-0.5,0.1-0.8c-0.1,0-0.2,0.2-0.2,0.2c-0.2,0.1-0.3,0.3-0.5,0.5
			c-0.4,0.4-0.7,0.8-1,1.2c-0.5,0.8-0.7,2-0.1,2.8c0.9,1.3,2.4,0.1,3.4-0.4c0.1-0.1,1.1-0.5,1.1-0.7c0,0.1-0.4-0.1-0.2,0
			c0.1,0.1,0.2,0.1,0.3,0.2c0.3,0.2,0.6,0.3,0.8,0.5c0.9,0.6,3.4,2.2,4,0.4c0.2-0.5,0.1-1.1,0-1.6c-0.1-0.6-0.3-1.1-0.4-1.6
			c-0.1-1,0.6-1.5,1.3-2c0.7-0.5,1.4-1.3,1.3-2.2c-0.1-1-1-1.3-1.9-1.4c-0.8,0-1.6,0.2-2.4,0.3c-0.3,0.1-0.7,0.1-1,0.2
			c-0.1,0-0.4,0-0.4,0c0,0,0.1,0.1,0.2,0.1c0.2,0.2,0.2,0.2,0.1,0c0-0.1,0-0.1-0.1-0.2c-0.4-0.9-0.9-2.5-2.2-1.8
			c-0.4,0.3-0.8,0.9-1.1,1.3c-0.3,0.5-0.6,0.9-0.7,1.5c-0.1,0.4,0.1,0.8,0.5,0.9C79.9,20.2,80.5,20,80.5,19.6L80.5,19.6z"/>
	</g>
</g>
<g>
	<path class="st3" d="M128.5,19.5c-0.1-0.7-0.8-1.5-1.3-2.3c-0.2-0.3-0.6-0.3-0.7,0c-0.3,0.5-0.5,1.2-0.8,1.7
		c-0.2,0.4-3.2-0.5-4.5-0.4c-0.3,0-0.6,0.1-0.8,0.3c-0.2,0.3-0.1,0.7,0.1,1c0.7,1,2.1,1.5,2.4,2.7c0.1,0.5,0.1,1.1-0.1,1.6
		c-0.3,0.7-0.4,1.4-0.3,2.2c0,0.1,0,0.3,0.1,0.4c0.1,0.2,0.4,0.2,0.6,0.2c1.1-0.1,3.4-2,3.8-2c0.2,0,0.3,0.1,0.5,0.2l2.2,1.3
		c0.4,0.3,1,0.3,1.2-0.2c0.3-0.5,0.2-1,0-1.5c-0.3-0.8-1.2-1.7-1.9-2.2c-0.3-0.3,1.6-1.1,1.9-1.2c0.3-0.2,0.7-0.7,0.8-1.1
		c0-0.4-0.3-0.6-0.6-0.5c-0.5,0.1-2-0.2-2.5-0.1c0,0,0,0-0.1,0"/>
	<g>
		<path class="st4" d="M129.3,19.3c-0.1-0.5-0.3-0.9-0.6-1.3c-0.3-0.4-0.6-0.9-0.9-1.3c-0.3-0.3-0.8-0.5-1.2-0.4
			c-0.5,0.1-0.8,0.6-1,1.1c-0.1,0.2-0.2,0.5-0.3,0.7c0,0.1-0.1,0.2-0.2,0.4c-0.1,0.3,0.2-0.3,0.3-0.2c0,0,0,0-0.1,0
			c-0.1,0-0.1,0-0.2,0c-0.1,0-0.2,0-0.4,0c-0.8-0.1-1.5-0.3-2.3-0.4c-0.7-0.1-1.6-0.2-2.3,0.2c-1,0.5-0.8,1.7-0.2,2.5
			c0.5,0.7,1.3,1.1,1.9,1.8c0.7,0.9,0,1.9-0.1,2.9c-0.1,1-0.2,2.4,1.1,2.5c0.7,0.1,1.4-0.3,2-0.6c0.6-0.4,1.2-0.8,1.9-1.2
			c0.1-0.1,0.2-0.1,0.3-0.2c0.2-0.1,0,0,0,0c0,0.2-0.4-0.3,0,0.1c0,0,0,0,0,0c0.1,0.1,0.1,0.1,0.2,0.1c0.5,0.3,1,0.6,1.5,0.9
			c0.5,0.3,1,0.6,1.5,0.6c1.1,0,1.5-1.2,1.4-2.2c-0.1-1-0.8-1.8-1.5-2.6c-0.2-0.2-0.4-0.4-0.6-0.6c0,0,0,0-0.1,0
			c-0.2-0.2-0.2,0,0.1,0.7c0.1,0-0.2,0.1,0,0.1c0.3-0.1,0.6-0.4,0.9-0.5c0.7-0.4,1.4-0.7,1.7-1.5c0.2-0.5,0.2-1.1-0.2-1.6
			c-0.3-0.4-0.8-0.4-1.2-0.4c-0.4,0-0.8-0.1-1.2-0.1c-0.2,0-0.4,0-0.6,0c-0.1,0-0.1,0-0.2,0c-0.1,0-0.4,0-0.2,0c-1,0-1,1.5,0,1.5
			c0.5,0,1.1,0,1.7,0.1c0.2,0,0.6,0.1,0.7,0c0,0,0,0,0,0c0.1,0,0.1-0.1-0.1-0.3c0,0-0.1,0.2-0.1,0.2c-0.1,0.1-0.2,0.3-0.3,0.4
			c-0.7,0.4-2,0.7-2.3,1.6c-0.2,0.8,0.8,1.3,1.2,1.7c0.3,0.3,0.5,0.6,0.7,0.9c0.1,0.1,0.3,0.9,0.1,1c-0.1,0-0.7-0.4-0.8-0.5
			c-0.4-0.3-0.9-0.5-1.3-0.8c-0.4-0.2-0.8-0.5-1.2-0.5c-0.4,0-0.8,0.3-1.2,0.5c-0.5,0.3-1,0.7-1.5,1c-0.2,0.1-0.5,0.3-0.7,0.4
			c-0.1,0-0.2,0.1-0.3,0.1c0,0-0.1,0-0.1,0c0,0,0,0-0.1,0c-0.1,0-0.1,0.1,0.1,0.2c0,0,0.1-1.2,0.1-1.3c0.1-0.5,0.3-0.9,0.4-1.5
			c0.1-0.9-0.2-1.7-0.7-2.3c-0.5-0.5-1.1-0.9-1.6-1.4c-0.1-0.1-0.2-0.2-0.3-0.4c0-0.1-0.1-0.1-0.1-0.2c0-0.1-0.1,0,0,0
			c0.1-0.1,0.6,0,0.7,0c1.2,0.1,2.5,0.6,3.7,0.5c0.9-0.1,1-0.9,1.4-1.6c0-0.1,0.1-0.2,0.1-0.3c0.1-0.2,0.1-0.2-0.1-0.2
			c-0.2-0.1-0.2,0-0.1,0.1c0,0.2,0.3,0.5,0.5,0.6c0.3,0.4,0.6,0.8,0.6,1.3c0.1,0.4,0.6,0.6,0.9,0.5
			C129.2,20.1,129.3,19.7,129.3,19.3L129.3,19.3z"/>
	</g>
</g>
<g>
	<path class="st3" d="M61.9,33.9c-0.6,0.6-1.1,1.4-1.4,2.2c-0.1,0.1-0.1,0.3-0.1,0.5c0.1,0.3,0.4,0.5,0.7,0.5c1.1,0.1,2-1.1,3.1-1.1
		c0.5,0,0.9,0.3,1.3,0.5c0.4,0.2,0.8,0.5,1.3,0.5c0.5,0,1-0.3,1-0.8c0-0.2-0.1-0.4-0.2-0.6c-0.2-0.5-0.5-0.9-0.7-1.4
		c-0.1-0.1-0.1-0.3-0.1-0.4c0-0.2,0.2-0.3,0.4-0.4c0.8-0.4,1.5-1.2,1.8-2.1c-1.1-1.1-3.2-0.1-4.2-1.3c-0.3-0.3-0.4-0.8-0.6-1.2
		c-0.2-0.4-0.8-0.7-1.1-0.4c-0.2,0.1-0.3,0.4-0.3,0.6c-0.2,0.6-0.4,1.2-0.6,1.9c0,0.1-0.1,0.2-0.2,0.3c-0.1,0.1-0.2,0.1-0.4,0.1
		c-0.8,0-1.6,0.1-2.3,0.5c-0.1,0.1-0.2,0.1-0.3,0.2c-0.1,0.3,0.2,0.6,0.5,0.7c0.8,0.4,1.5,0.7,2.3,1.1"/>
	<g>
		<path class="st4" d="M61.3,33.4c-0.5,0.6-1,1.2-1.3,1.9c-0.3,0.7-0.6,1.5,0,2.1c1.1,1.1,2.5,0,3.6-0.5c0.6-0.3,1.1,0.1,1.6,0.4
			c0.6,0.4,1.4,0.7,2.1,0.4c0.7-0.2,1.2-0.9,1.1-1.6c0-0.4-0.3-0.8-0.5-1.2c-0.1-0.2-0.2-0.3-0.3-0.5c-0.1-0.1-0.3-0.4-0.3-0.6
			c0,0.1-0.1,0.3-0.1,0.4c0.1-0.2,0.5-0.3,0.6-0.4c0.3-0.2,0.5-0.4,0.7-0.6c0.4-0.5,0.7-1,0.9-1.6c0.1-0.2,0-0.6-0.2-0.7
			c-0.6-0.5-1.2-0.7-1.9-0.8c-0.6-0.1-1.3,0-1.8-0.2c-0.7-0.3-0.7-1.2-1.2-1.7c-0.6-0.6-1.7-0.7-2.2,0.1c-0.3,0.4-0.4,0.8-0.5,1.2
			c-0.1,0.2-0.2,0.5-0.2,0.7c0,0.1-0.1,0.2-0.1,0.4c-0.1,0.3-0.1,0.3,0.3,0c0-0.1-0.6,0-0.6,0c-0.2,0-0.5,0-0.7,0.1
			c-0.5,0.1-0.9,0.2-1.3,0.4c-0.9,0.4-1.1,1.4-0.4,2c0.4,0.3,0.9,0.5,1.3,0.7c0.5,0.2,0.9,0.5,1.4,0.7c0.9,0.4,1.6-0.9,0.8-1.3
			c-0.5-0.2-0.9-0.5-1.4-0.7c-0.2-0.1-1-0.4-1.1-0.6c0,0.1,0,0.3,0,0.4c-0.2,0.2-0.2,0.2-0.1,0.1c0.1,0,0.1-0.1,0.2-0.1
			c0.1-0.1,0.3-0.1,0.4-0.1c0.3-0.1,0.6-0.1,0.9-0.2c0.6,0,1.2,0.1,1.6-0.5c0.3-0.5,0.5-1.3,0.7-1.9c0-0.1,0.1-0.3,0.1-0.4
			c0,0,0-0.1,0.1-0.1c-0.2,0-0.2,0.1-0.1,0.1c0,0,0.1,0.1,0.2,0.1c0.1,0.1,0.2,0.3,0.2,0.4c0.5,1,1.1,1.6,2.2,1.8
			c0.7,0.1,1.9-0.1,2.5,0.5c-0.1-0.2-0.1-0.5-0.2-0.7c-0.2,0.6-0.6,1.1-1.1,1.4c-0.6,0.4-1.3,0.7-1.1,1.6c0.1,0.4,0.4,0.8,0.5,1.1
			c0.1,0.2,0.5,0.8,0.5,0.9c-0.1,0.3-1.2-0.4-1.4-0.5c-0.6-0.4-1.3-0.6-2-0.5c-0.6,0.1-1.1,0.4-1.6,0.7c-0.2,0.1-0.5,0.3-0.7,0.3
			c-0.1,0-0.2,0-0.2,0c-0.1-0.1-0.1,0,0,0.1c0-0.1,0-0.2,0.1-0.2c0.3-0.7,0.7-1.2,1.1-1.8C63.1,33.8,62,32.7,61.3,33.4L61.3,33.4z"
			/>
	</g>
</g>
<g>
	<path class="st3" d="M106.8,18.2c0.8,0.6,1.5,1.3,2.1,2.1c0.1,0.2,0.2,0.3,0.2,0.5c0,0.4-0.3,0.7-0.6,0.8c-1.2,0.4-2.5-0.8-3.8-0.5
		c-0.5,0.1-1,0.5-1.4,0.9c-0.4,0.4-0.8,0.8-1.4,0.9s-1.2-0.1-1.3-0.7c-0.1-0.3,0-0.5,0.1-0.8c0.2-0.6,0.3-1.1,0.5-1.7
		c0-0.2,0.1-0.4,0-0.5c-0.1-0.2-0.3-0.3-0.6-0.3c-1.1-0.3-2-1-2.6-2c0.9-1.5,3.6-0.9,4.4-2.5c0.2-0.5,0.2-1,0.4-1.5
		c0.2-0.5,0.7-0.9,1.2-0.7c0.2,0.1,0.4,0.3,0.5,0.6c0.4,0.7,0.8,1.3,1.1,2c0.1,0.1,0.1,0.2,0.3,0.3c0.1,0.1,0.3,0,0.4,0
		c0.9-0.2,1.9-0.3,2.8,0c0.1,0,0.3,0.1,0.4,0.2c0.2,0.3-0.1,0.7-0.4,0.9c-0.8,0.6-1.6,1.2-2.4,1.8"/>
	<g>
		<path class="st4" d="M106.4,18.9c0.7,0.5,1.2,1,1.7,1.7c0.1,0.1,0.1,0.2,0.2,0.3c0,0-0.1,0-0.1,0c-0.1,0.1-0.3,0.1-0.4,0.1
			c-0.3,0-0.6-0.1-0.9-0.2c-0.7-0.2-1.4-0.5-2.1-0.4c-0.9,0.1-1.5,0.7-2.1,1.2c-0.2,0.2-1.3,1.1-1.4,0.4c0-0.4,0.3-1,0.4-1.4
			c0.1-0.4,0.3-0.9,0.3-1.3c-0.1-0.9-0.9-1-1.5-1.3c-0.7-0.3-1.3-0.8-1.7-1.5c0,0.3,0,0.5,0,0.8c0.6-0.8,2-0.9,2.9-1.2
			c0.6-0.2,1.1-0.5,1.4-1.1c0.2-0.3,0.3-0.6,0.4-0.9c0.1-0.3,0.1-0.9,0.4-1.1c0.2-0.1,0-0.1,0.1,0c0.1,0.1,0.3,0.4,0.3,0.6
			c0.2,0.4,0.5,0.8,0.7,1.2c0.4,0.8,0.8,1.2,1.8,1c0.4-0.1,0.8-0.2,1.3-0.2c0.3,0,0.5,0,0.8,0.1c0.1,0,0.2,0,0.3,0.1
			c0-0.4-0.1-0.5-0.2-0.3c-0.2,0-0.4,0.3-0.5,0.4c-0.2,0.1-0.4,0.3-0.5,0.4c-0.4,0.3-0.8,0.7-1.3,1c-0.3,0.2-0.5,0.6-0.3,1
			c0.2,0.3,0.7,0.5,1,0.3c0.8-0.6,1.5-1.2,2.3-1.7c0.6-0.4,1.2-1.2,0.8-1.9c-0.4-0.7-1.4-0.7-2.1-0.8c-0.4,0-0.8,0-1.3,0.1
			c-0.2,0-0.4,0.1-0.6,0.1c0.2,0,0.1,0.2,0.1,0c0-0.1-0.2-0.3-0.2-0.4c-0.4-0.7-0.8-1.6-1.4-2.1c-0.6-0.5-1.5-0.4-2,0.1
			c-0.6,0.6-0.6,1.4-0.9,2.1c-0.2,0.4-0.6,0.7-1,0.8c-1.3,0.4-2.6,0.6-3.4,1.8c-0.1,0.2-0.1,0.5,0,0.8c0.4,0.7,0.9,1.2,1.6,1.7
			c0.3,0.2,0.6,0.4,0.9,0.5c0.1,0.1,0.4,0.2,0.6,0.2c0.2,0-0.1,0-0.1-0.1c-0.1,0.1-0.1,0.3-0.1,0.4c-0.2,0.8-0.7,1.8-0.4,2.6
			c0.2,0.7,0.9,1.1,1.6,1.1c0.8,0.1,1.4-0.3,2-0.8c0.6-0.5,1-1.1,1.9-1c1.4,0.2,2.9,1.2,4.1,0c1.4-1.4-1.1-3.5-2.2-4.3
			C106.4,17,105.6,18.3,106.4,18.9L106.4,18.9z"/>
	</g>
</g>
</svg>
