<?xml version="1.0" encoding="utf-8"?>
<!-- Generator: Adobe Illustrator 26.3.1, SVG Export Plug-In . SVG Version: 6.00 Build 0)  -->
<svg version="1.1" id="Calque_1" xmlns="http://www.w3.org/2000/svg" xmlns:xlink="http://www.w3.org/1999/xlink" x="0px" y="0px"
	 viewBox="0 0 200 200" style="enable-background:new 0 0 200 200;" xml:space="preserve">
<style type="text/css">
	.st0{fill:#666666;}
	.st1{fill:#E7F4DF;}
	.st2{fill:#666666;stroke:#666666;stroke-width:0.5;stroke-miterlimit:10;}
	.st3{fill:none;stroke:#E7F4DF;stroke-miterlimit:10;}
	.st4{fill:#FFFF66;}
	.st5{fill:#FFFFCC;}
</style>
<g>
	<g>
		<path class="st0" d="M181.7,96.5c0.4-1,2.1-1.6,1.9-2.6c-0.1-0.5-0.4-1-0.7-1.3c-0.3-0.3-0.6-0.5-0.9-0.7
			c-0.1-0.1-0.7-0.3-0.8-0.5c-0.2-0.6,1.3-2,1.6-2.4c0.7-1.1,1.3-2.3,1.6-3.5c1.5-6-2.1-12-8-13.7c-0.6-0.2-1.1,0.1-1.4,0.4
			c-3.3-1-6.7,1.1-8.7,3.9c-1.3,1.8-2.6,4.1-3.1,6.2c-0.5,2,0.1,4,0.2,6c0.3,4.5-0.2,9.1-1.7,13.4c-0.7,2.1-1.7,4-3.3,5.5
			c-1.4,1.3-3,2.3-4.6,3.3c-3.5,2.2-7.2,4.6-8.5,8.8c-0.3,0.8,0.4,1.8,1.3,1.8c10.2-0.5,20.1-4.8,27.5-11.8
			C177.8,105.8,179.8,101.1,181.7,96.5z"/>
	</g>
	<g>
		<g>
			<g>
				<path class="st1" d="M147.8,114.8c4.9-0.5,9.3-2.6,12.4-6.4c2.4-2.9,4.1-6.5,4.9-10.2c0.3-1.2,0.5-2.5,0.4-3.7
					c-0.1-3.3-1.1-6.4-0.9-9.7c0.3-5.9,5.2-14.2,12.1-11.1c3.2,1.4,4.9,4.8,5.1,8.2c0.2,3.6-1,6.9-2.6,10.1
					c-0.6,1.2,0.4,2.5,1.7,2.2c0.6-0.1,1.3,0.2,1.8,0.3c0.3,0.1,0.5,0.2,0.8,0.3c0.7,0.3,0,0.2-0.1-0.4c0.1-0.4,0.1-0.8,0.2-1.2
					c0.1-0.3,0.2-0.1-0.1,0c-0.2,0.1-0.4,0.2-0.6,0.3c-0.3,0.2-0.6,0.4-0.9,0.6c-0.9,0.7-1.6,1.5-2.3,2.4c-1.3,1.8-2.2,3.8-3.2,5.8
					c-1,2.1-1.9,3.2-3.5,4.9c-4.8,4.8-10.7,9.1-17.1,11.4c-3.9,1.4-8.2,2.2-12.3,1.4c-1.9-0.4-2.7,2.5-0.8,2.9
					c9.3,1.8,18.5-2.6,25.8-8c2.9-2.1,5.6-4.5,8-7.2c2.4-2.8,3.3-6.3,5.4-9.3c0.8-1.1,1.6-2,2.8-2.6c1.1-0.5,2.1-1.6,1.4-2.9
					c-0.5-0.8-1.6-1.2-2.5-1.5c-1.1-0.4-2.3-0.7-3.5-0.4c0.6,0.7,1.1,1.5,1.7,2.2c2.9-5.7,4.6-13.1,0.6-18.7
					c-1.9-2.7-4.9-4.4-8.2-4.6c-3.4-0.2-6.4,1.5-8.6,4.1c-2.3,2.7-3.7,6.1-4,9.6c-0.4,3.7,0.7,7.1,0.8,10.8c0.1,2.8-1,6.1-2.4,8.7
					c-2.5,4.8-6.9,8.1-12.3,8.7C145.9,112,145.9,115,147.8,114.8L147.8,114.8z"/>
			</g>
		</g>
	</g>
	<g>
		<g>
			<path class="st1" d="M166.1,112.9c-1.8,0.2-3.5-0.2-5.2-0.9c-1.7-0.7-3.3-1.6-4.9-2.5c-0.4-0.2-0.8,0.4-0.4,0.6
				c1.6,1,3.3,1.9,5.1,2.6c1.7,0.7,3.5,1.2,5.4,0.9C166.6,113.6,166.6,112.9,166.1,112.9L166.1,112.9z"/>
		</g>
	</g>
	<g>
		<g>
			<path class="st1" d="M153.4,111.9c1.6,1.8,2.9,3.8,4,6c0.2,0.4,0.9,0.1,0.6-0.4c-1.1-2.2-2.5-4.2-4.1-6.1
				C153.6,111.1,153.1,111.6,153.4,111.9L153.4,111.9z"/>
		</g>
	</g>
	<g>
		<g>
			<path class="st1" d="M152.6,112.3c0.3,2.8,0.9,5.6,1.9,8.3c0.2,0.5,0.9,0.3,0.7-0.2c-0.9-2.6-1.6-5.3-1.9-8.1
				C153.3,111.9,152.5,111.9,152.6,112.3L152.6,112.3z"/>
		</g>
	</g>
	<g>
		<g>
			<path class="st1" d="M150.6,112.9c0,1.4,0,2.7-0.1,4.1c0,0.7,0,1.3,0,2c0,0.3,0,0.7,0,1c0,0.2,0,0.4,0,0.6c0,0.1,0,0.1,0,0.2
				c-0.1,0.2,0,0.3,0.3,0.3c-0.1,0.1-0.1,0.1-0.2,0.2c0,0-0.1,0-0.1,0c0.5,0,0.5-0.7,0-0.8c-0.7,0-0.6,1,0,1.1c0.9,0,0.7-1.5,0.7-2
				c0-2.2,0.1-4.4,0.1-6.6C151.4,112.4,150.6,112.4,150.6,112.9L150.6,112.9z"/>
		</g>
	</g>
	<g>
		<g>
			<path class="st1" d="M150,112.7c-0.5,1.4-1,2.8-1.4,4.2c-0.4,1.3-0.8,2.6-0.6,4c0.1,0.4,0.7,0.3,0.7-0.1c0-0.1,0-0.2,0-0.3
				c0-0.5-0.7-0.5-0.8,0c0,0.1,0,0.2,0,0.3c0.2,0,0.5-0.1,0.7-0.1c-0.2-1.3,0.3-2.6,0.7-3.8c0.4-1.3,0.9-2.6,1.3-3.9
				C150.9,112.5,150.1,112.3,150,112.7L150,112.7z"/>
		</g>
	</g>
	<g>
		<g>
			<path class="st1" d="M155.9,111.9c1.3,1,2.6,1.9,4,2.7c1.2,0.7,2.6,1.3,4.1,1.1c0.5-0.1,0.3-0.8-0.2-0.7
				c-1.4,0.2-2.7-0.5-3.9-1.2c-1.2-0.7-2.4-1.6-3.6-2.4C155.9,111,155.6,111.6,155.9,111.9L155.9,111.9z"/>
		</g>
	</g>
	<g>
		<g>
			<path class="st1" d="M154.3,111.4c1.2,1.4,2.4,2.8,3.6,4.2c0.6,0.7,1.2,1.4,1.8,2.1c0.5,0.5,1.1,1,1.8,0.8
				c0.5-0.2,0.3-0.9-0.2-0.7c-0.6,0.2-1.2-0.7-1.6-1.1c-0.6-0.6-1.1-1.3-1.7-1.9c-1.1-1.3-2.2-2.5-3.3-3.8
				C154.5,110.5,153.9,111,154.3,111.4L154.3,111.4z"/>
		</g>
	</g>
	<g>
		<g>
			<path class="st1" d="M151.7,112.7c0,2-0.2,4-0.1,5.9c0,0.8,0.1,1.6,0.6,2.2c0.3,0.5,1.1,0.9,1.5,0.2c0.2-0.4-0.4-0.8-0.6-0.4
				c0.1,0,0.1,0,0,0c-0.1,0-0.1-0.1-0.2-0.1c-0.1-0.1-0.1-0.2-0.2-0.3c-0.1-0.3-0.2-0.6-0.3-0.9c-0.1-0.7-0.1-1.3,0-2
				c0-1.5,0.1-3.1,0.1-4.6C152.4,112.2,151.7,112.2,151.7,112.7L151.7,112.7z"/>
		</g>
	</g>
	<g>
		<g>
			<path class="st1" d="M153.1,112.7c0.7,1.5,1.3,3.1,2,4.6c0.6,1.2,1.4,2.2,2.6,2.7c0.5,0.2,0.6-0.6,0.2-0.7
				c-1.2-0.4-1.8-1.6-2.3-2.6c-0.7-1.4-1.3-2.9-1.9-4.3C153.6,111.9,152.9,112.3,153.1,112.7L153.1,112.7z"/>
		</g>
	</g>
	<g>
		<g>
			<path class="st1" d="M157.7,109.6c0.7-0.2,1.3,0.1,1.9,0.4c0.5,0.2,1,0.5,1.5,0.7c1.1,0.4,2.2,0.8,3.3,1c1.1,0.2,2.2,0.3,3.3,0.2
				c0.5,0,1.1-0.1,1.6-0.2c0.4-0.1,0.8-0.2,1.1-0.5c0.1-0.1,0.1-0.3,0-0.4c-0.1-0.2-0.2-0.2-0.4-0.3c-0.1,0-0.3,0-0.4,0.1
				c0,0,0,0-0.1,0.1c-0.3,0.4,0.2,0.9,0.5,0.5c0,0,0,0,0.1-0.1c-0.1,0-0.2,0.1-0.4,0.1c0,0-0.1,0-0.1-0.1c0-0.1,0-0.3,0-0.4
				c-0.1,0.1-0.7,0.2-0.8,0.2c-0.3,0.1-0.6,0.1-1,0.2c-0.5,0.1-1,0.1-1.5,0.1c-1.1,0-2.2-0.2-3.2-0.5c-1.1-0.3-2.1-0.7-3.1-1.2
				c-0.8-0.4-1.7-0.8-2.6-0.5C157.1,109.1,157.3,109.8,157.7,109.6L157.7,109.6z"/>
		</g>
	</g>
	<g>
		<g>
			<path class="st1" d="M159.6,108.7c2.7,0.7,5.5,1,8.2,0.8c2.3-0.1,4.9-0.4,6.8-1.9c0.4-0.3-0.2-0.8-0.5-0.5
				c-1.8,1.5-4.6,1.6-6.8,1.7c-2.5,0.1-5-0.2-7.5-0.8C159.3,107.9,159.1,108.6,159.6,108.7L159.6,108.7z"/>
		</g>
	</g>
	<g>
		<g>
			<path class="st1" d="M160.5,106.7c0.1,0,0.1,0.1,0.2,0.1c-0.1,0.2-0.2,0.3-0.4,0.5c1.7,0.2,3.4,0.4,5.1,0.7
				c1.7,0.2,3.5,0.5,5.2,0.3c1.5-0.1,3.2-0.6,4.5-1.2c0.3-0.1,0.6-0.3,0.6-0.7c0-0.3-0.4-0.5-0.7-0.4c-0.2,0.1-0.3,0.2-0.3,0.4
				c0,0,0,0,0,0.1c0,0.5,0.7,0.5,0.8,0c0,0,0,0,0-0.1c-0.1,0.1-0.2,0.2-0.3,0.4c-0.2-0.3-0.5-0.4-0.8-0.2c-0.1,0-0.3,0.1-0.4,0.1
				c-0.3,0.1-0.5,0.2-0.8,0.3c-0.6,0.2-1.2,0.4-1.8,0.5c-1.2,0.2-2.5,0.2-3.8,0.1c-2.5-0.2-5-0.6-7.4-1c-0.2,0-0.4,0.3-0.4,0.5
				c0.2,0.4,0.5,0.6,0.9,0.4C161.3,107.1,160.9,106.5,160.5,106.7L160.5,106.7z"/>
		</g>
	</g>
	<g>
		<g>
			<path class="st1" d="M160.6,105.8c2.8,0.8,5.8,1.2,8.8,0.9c1.4-0.1,2.9-0.3,4.3-0.7c0.7-0.2,1.5-0.4,2.2-0.7
				c0.5-0.2,1-0.3,1.3-0.7c0.1-0.1,0.1-0.3,0-0.4c-0.1-0.2-0.2-0.3-0.4-0.3c-0.2,0-0.3,0-0.4,0.2c0,0,0,0.1,0,0.1
				c-0.3,0.4,0.4,0.8,0.6,0.4c0,0,0-0.1,0-0.1c-0.1,0.1-0.3,0.1-0.4,0.2c0,0,0,0,0-0.1c0-0.1,0-0.3,0-0.4c-0.2,0.4-1.5,0.6-1.9,0.8
				c-0.6,0.2-1.3,0.4-1.9,0.5c-1.3,0.3-2.6,0.5-4,0.5c-2.7,0.1-5.3-0.2-7.9-0.9C160.3,104.9,160.1,105.6,160.6,105.8L160.6,105.8z"
				/>
		</g>
	</g>
	<g>
		<g>
			<path class="st1" d="M161.9,105.2c6.1,0.4,12.3-1.3,17.4-4.7c0.4-0.3,0-0.9-0.4-0.6c-5,3.4-11,5-17,4.6
				C161.4,104.4,161.4,105.1,161.9,105.2L161.9,105.2z"/>
		</g>
	</g>
	<g>
		<g>
			<path class="st1" d="M162.5,104c3.7-0.2,7.3-0.9,10.8-2.2c1.7-0.6,3.3-1.3,4.8-2.2c0.5-0.3,3.1-1.4,1.9-2.3
				c-0.4-0.3-0.9,0.2-0.5,0.5c0.1,0.1-1.7,1.1-1.9,1.2c-0.7,0.4-1.4,0.7-2,1c-1.4,0.6-2.8,1.1-4.2,1.6c-2.9,0.9-5.9,1.4-8.9,1.6
				C162,103.2,162,104,162.5,104L162.5,104z"/>
		</g>
	</g>
	<g>
		<g>
			<path class="st1" d="M163.2,102.7c7.1-2,13.8-5.3,19.7-9.9c0.3-0.2,0.2-0.7-0.2-0.7c-0.3,0-0.5,0-0.8-0.1c-0.5,0-0.5,0.7,0,0.8
				c0.3,0,0.5,0,0.8,0.1c-0.1-0.2-0.1-0.5-0.2-0.7c-5.8,4.5-12.4,7.8-19.5,9.8C162.6,102.1,162.8,102.8,163.2,102.7L163.2,102.7z"/>
		</g>
	</g>
	<g>
		<g>
			<path class="st1" d="M164,98.7c1.6,0,3-0.6,4.4-1.2c1.6-0.7,3.2-1.5,4.7-2.3c1.5-0.8,2.9-1.7,4.3-2.6c0.7-0.5,1.4-1,2.1-1.5
				c0.3-0.2,0.7-0.5,1-0.8c0.3-0.2,0.9-0.6,1-0.8c0.1-0.5-0.6-0.7-0.7-0.2c-0.4,1.3,1.9,1.4,1.6,0.2c-0.1-0.5-0.7-0.8-1.2-0.6
				c-0.5,0.2-1,0.7-1.4,1.1c-0.5,0.4-1.1,0.8-1.7,1.2c-2.1,1.5-4.2,2.8-6.5,3.9c-1.1,0.6-2.3,1.1-3.4,1.6c-1.3,0.6-2.7,1.2-4.2,1.2
				C163.5,98,163.5,98.7,164,98.7L164,98.7z"/>
		</g>
	</g>
	<g>
		<g>
			<path class="st1" d="M164.4,96.7c1.8-0.3,3.5-1,5.1-1.8c1.7-0.8,3.4-1.6,5-2.6c1.5-0.9,2.9-1.9,4.3-3c0.8-0.6,1.5-1.2,2.2-1.8
				c0.4-0.4,1.2-0.8,1.2-1.5c0-0.2-0.1-0.3-0.3-0.4c-0.2-0.1-0.3,0-0.5,0.1c-0.1,0.1-0.1,0.3-0.1,0.5c0,0,0,0,0,0
				c0.3,0.4,0.9,0,0.6-0.4c0,0,0,0,0,0c0,0.2,0,0.3-0.1,0.5c0,0,0,0,0.1-0.1c-0.1,0-0.2,0.1-0.4,0.1c0,0,0.1,0,0.1,0
				c-0.1-0.1-0.2-0.2-0.3-0.4c0,0.1-0.6,0.5-0.7,0.6c-0.3,0.3-0.6,0.5-0.9,0.8c-0.7,0.6-1.4,1.2-2.2,1.7c-1.3,1-2.7,1.9-4.2,2.8
				c-1.4,0.8-2.8,1.6-4.3,2.2c-1.6,0.7-3.3,1.5-5,1.8C163.7,96,163.9,96.7,164.4,96.7L164.4,96.7z"/>
		</g>
	</g>
	<g>
		<g>
			<path class="st1" d="M164.5,95.3c7-2.9,13.1-7.6,17.6-13.7c0.3-0.4-0.4-0.8-0.6-0.4c-4.4,5.9-10.3,10.6-17.1,13.3
				C163.8,94.7,164,95.5,164.5,95.3L164.5,95.3z"/>
		</g>
	</g>
	<g>
		<g>
			<path class="st1" d="M163.9,93.1c0,0.6,0.5,1,1.1,0.8c0.5-0.2,1-0.6,1.4-1c0.5-0.3,0.9-0.7,1.4-1c1.9-1.4,3.8-2.9,5.5-4.5
				c3.2-3,6-6.6,7.4-10.8c0.2-0.5-0.6-0.7-0.7-0.2c-1.2,3.6-3.4,6.7-6.1,9.4c-1.3,1.4-2.8,2.6-4.3,3.8c-0.8,0.7-1.7,1.3-2.5,1.9
				c-0.4,0.3-0.8,0.6-1.3,0.9c-0.1,0.1-1.2,0.8-1.2,0.7C164.7,92.6,163.9,92.6,163.9,93.1L163.9,93.1z"/>
		</g>
	</g>
	<g>
		<g>
			<path class="st1" d="M164.6,92.8c6.7-4.3,11.6-11.2,13.4-19c0.1-0.5-0.6-0.7-0.7-0.2c-1.8,7.6-6.5,14.3-13.1,18.5
				C163.8,92.4,164.2,93.1,164.6,92.8L164.6,92.8z"/>
		</g>
	</g>
	<g>
		<g>
			<path class="st1" d="M164.2,91.4c5.8-4.7,9.3-11.9,9.5-19.4c0-0.5-0.7-0.5-0.8,0c-0.2,7.3-3.6,14.3-9.3,18.9
				C163.3,91.2,163.8,91.7,164.2,91.4L164.2,91.4z"/>
		</g>
	</g>
	<g>
		<g>
			<path class="st1" d="M169.7,74.1c0.8,1.4,0.2,2.9-0.2,4.3c-0.4,1.3-0.9,2.6-1.4,3.9c-1.1,2.7-2.4,5.4-4.3,7.6
				c0.2,0.1,0.4,0.1,0.6,0.2c0-0.2,0-0.4,0-0.5c0.1-0.5-0.6-0.7-0.7-0.2c-0.1,0.3-0.1,0.6,0,0.9c0.1,0.3,0.4,0.4,0.6,0.2
				c2.1-2.4,3.4-5.2,4.6-8.2c0.6-1.5,1.1-3,1.6-4.5c0.4-1.3,0.6-2.8-0.1-4C170.1,73.3,169.4,73.7,169.7,74.1L169.7,74.1z"/>
		</g>
	</g>
	<g>
		<g>
			<path class="st1" d="M162.5,101.2c5.3-1,10.3-3.1,14.7-6.3c1-0.8,2-1.6,3-2.4c0.5-0.5,1.7-1.2,1.6-2c-0.2-1.6-2.6-0.2-1.1,0.8
				c0.4,0.3,0.8-0.4,0.4-0.6c0,0-3.3,3-3.6,3.2c-1.5,1.1-3,2.1-4.6,3c-3.3,1.7-6.8,2.9-10.4,3.6C161.8,100.6,162,101.3,162.5,101.2
				L162.5,101.2z"/>
		</g>
	</g>
	<g>
		<g>
			<path class="st1" d="M167.6,74.1c-0.3,4.7-1.7,9.3-4.1,13.4c-0.3,0.4,0.4,0.8,0.6,0.4c2.5-4.2,4-8.9,4.2-13.8
				C168.4,73.6,167.7,73.6,167.6,74.1L167.6,74.1z"/>
		</g>
	</g>
</g>
<g>
	<g>
		<path class="st1" d="M47.9,114.4c-2.7-2.8-6-5-9-7.5c-0.2-0.2-0.5-0.4-0.7-0.6c-0.1-0.1-0.2-0.2-0.3-0.3c-0.3-0.3,0.1,0.2,0,0
			c-0.1-0.2,0.2,0.5,0.1,0.5c0,0,0.1-0.6,0.1-0.6c0.1-0.2,0.1-0.2,0.2-0.4c0.1-0.2,0.2-0.2,0-0.1c0,0,0.1-0.1,0.1-0.1
			c1.3-0.8,2.5-1.2,3.8-1.7c1.1-0.4,2.2-0.8,3.3-1.1c0.5-0.1,1-0.2,1.5-0.3c0.3-0.1,0.1,0,0,0c0.1,0,0.3,0,0.4,0c0.2,0,0.4,0,0.6,0
			c1.9,0.1,1.9-2.9,0-3c-2.1-0.1-4.2,0.7-6.1,1.4c-1.7,0.6-3.5,1.2-5,2.2c-1,0.6-1.7,1.7-1.9,2.8c-0.2,1.1,0,1.8,0.7,2.6
			c1.2,1.3,2.7,2.4,4.1,3.5c2,1.6,4,3.1,5.8,4.9C47.1,117.9,49.2,115.8,47.9,114.4L47.9,114.4z"/>
	</g>
</g>
<g>
	<path class="st2" d="M153.8,103.9c-0.8-4.5-1.6-8.4-2.6-12.8c-0.2-0.5-0.3-1-0.4-1.5c-0.1-0.6-0.1-1.1-0.1-1.6c-0.1,0-0.3,0-0.4,0
		c0-0.1,0-0.2,0-0.2c-0.9-4.3-2.6-8.3-4.1-12.3c0.7-2.9-2.4,0.9-2-2c0.5-3.3-3.6-2.7-5.2-5.8c-0.7-1.3-1.8-2.4-3.2-2.8
		c-1.8-0.6-3.1-1.4-3.1-1.4s-0.8-5.3-3.8-3.3c-14.3-7.2-29.6-7.1-44.8-2c-1.3-1.1-7,3.5-8.4,2.6c-1.5-1-2.1-0.6-7.2-0.7
		c-1.9,0-5,0.1-6.9,0.7c-1.2,0.4-2.3,1.3-2.7,2.5c-0.2,0.6-0.2,1.3-0.3,1.9c-0.4,2.5,2.7,1.4,2.5,3.9c-0.1,1.9,0.4,0.7,0.5,2.7
		c-0.1,0.1-3.7,5.6-5.8,11.3c-0.1,0-0.3,0-0.6,0c-0.1,0.3-0.2,0.7-0.4,1c-0.1,0.2-0.2,0.4-0.3,0.6c-0.4,0.7-2.3,3.3-2.4,4.1
		c0,0,0,0,0,0c0,0,0,0,0,0c0,3.6-5.6,20.6-5.5,20.9c0.1,0.3,3.4,22.6,11.6,33.9c0,0,0,0,0,0c-0.5,1.7-1.2,3.4-1.6,5.2
		c-0.3,1.6-0.5,3.3-0.3,4.9c0.2,1.6,1.4,2.5,2.9,2.8c3.1,0.7,6.3-0.5,9-2.1c0.9-0.5,1.7-1,2.5-1.6c15.1,6.5,33.6,10.5,49.2,3.8
		c0.1,0,0.3-0.1,0.4-0.2c0.8-0.5,2-0.1,2.8,0.1c1.2,0.3,2.2,1.1,3.2,1.7c2.5,1.6,5.6,3.9,8.6,2.6c2.8-1.2,3.7-4.6,3.6-7.4
		c-0.1-0.9-0.2-1.9-0.3-2.8c2.1-2.5,4.5-4.7,6.4-7.3c2.1-3,3.8-6.4,5.4-9.7c2.6-5.7,6.1-20.9,5.5-23.7
		C154.9,109.3,154,104.8,153.8,103.9z"/>
</g>
<g>
	<g>
		<path class="st1" d="M62.9,150.1c6.8,4.1,13.8,8.7,21.5,10.9c7.5,2.1,15.8,2.9,23.5,1.4c4.5-0.9,8.7-2.7,12.8-4.8
			c1.7-0.9,0.2-3.5-1.5-2.6c-6.7,3.5-13.7,5.5-21.3,5.1c-4-0.2-8-0.8-11.8-1.8c-3.6-0.9-7-2.5-10.3-4.2c-3.9-2-7.6-4.3-11.3-6.6
			C62.8,146.5,61.3,149.1,62.9,150.1L62.9,150.1z"/>
	</g>
</g>
<g>
	<g>
		<path class="st1" d="M57.6,146.3c0,0.1,0-0.9,0-0.6c0,0.1,0-0.1,0.1-0.1c-0.1,0.1-0.1,0.3-0.2,0.4c-0.1,0.2-0.3,0.5-0.4,0.7
			c-0.4,0.8-0.3,1.6-0.5,2.4c-0.3,0.9-0.6,1.8-0.9,2.8c-0.3,1-0.5,2.1-0.6,3.1c-0.1,1-0.2,2.1,0.4,3c0.7,1,1.8,1.2,2.9,1.3
			c2.1,0.2,4.1-0.7,5.9-1.6c2-1.1,3.9-2.5,5.6-4c0.6-0.5,0.5-1.6,0-2.1c-0.6-0.6-1.5-0.5-2.1,0c-1.7,1.4-3.5,2.7-5.5,3.8
			c-0.8,0.4-1.8,0.8-2.7,1c-0.4,0.1-0.9,0.1-1.3,0c-0.1,0-0.5-0.1-0.5-0.1c0.2,0.1,0.2,0.2,0.2,0.4c0-0.1,0-0.3,0-0.4
			c0-1.1,0.1-2.1,0.4-3.2c0.3-1,0.7-2,1-3.1c0.2-0.6,0.3-1.2,0.3-1.9c0-0.3,0-0.3,0-0.1c-0.1,0.3-0.1,0.3-0.1,0.2
			c0.1-0.1,0.1-0.2,0.2-0.3c0.4-0.7,0.9-1.5,0.7-2.3c-0.3-0.8-1-1.3-1.8-1C57.9,144.7,57.3,145.6,57.6,146.3L57.6,146.3z"/>
	</g>
</g>
<g>
	<g>
		<path class="st1" d="M120.7,157.7c0.7-0.4,1.9-0.1,2.6,0.1c1.2,0.3,2.2,1.1,3.3,1.7c2.4,1.5,5.4,3.8,8.4,2.7
			c2.3-0.8,3.4-3,3.8-5.2c0.4-2.1,0.5-4.2,0.6-6.3c0.1-1.9,0.2-3.9-0.2-5.8c-0.4-1.9-3.3-1.1-2.9,0.8c0,0.1,0.1,0.4,0,0.2
			c0-0.2,0,0.2,0,0.3c0,0.3,0,0.7,0.1,1c0,0.9,0,1.8,0,2.7c0,1.9-0.1,3.8-0.4,5.6c-0.2,1.5-0.5,3.7-2.3,4c-1.2,0.2-2.6-0.7-3.6-1.3
			c-1.3-0.8-2.5-1.6-3.8-2.4c-2-1.1-5.1-2-7.2-0.7C117.6,156.1,119.1,158.7,120.7,157.7L120.7,157.7z"/>
	</g>
</g>
<path class="st3" d="M141.6,161.4"/>
<g>
	<g>
		<path class="st1" d="M63.4,69.3c-1.5-1.6-2.9-3.2-4-5.1c-0.1-0.2-0.3-0.6-0.4-0.7c0,0,0.2,0.4,0.1,0.4c0.1,0,0.3-0.3,0.4-0.4
			c0.7-0.5,1.5-1,2.3-1.5c1.8-1.2,4.4-1.4,6.7-1.4c2.4,0,4.8,0.5,7.1,1.2c1.9,0.5,2.6-2.4,0.8-2.9c-2.8-0.8-5.7-1.4-8.7-1.3
			c-1.7,0-3.4,0.3-5,0.7c-1.2,0.3-2.1,0.9-3.2,1.7c-1,0.7-2.2,1.2-2.8,2.3c-0.6,1-0.6,2-0.1,3c1.2,2.2,3,4.3,4.8,6.2
			C62.6,72.8,64.7,70.6,63.4,69.3L63.4,69.3z"/>
	</g>
</g>
<g>
	<g>
		<path class="st1" d="M70.1,89c-0.1-0.2-0.4-0.4-0.7-0.3c-0.3,0.1-0.5,0.3-0.6,0.5c-0.2,0.2-0.2,0.5,0,0.8c0.1,0.2,0.4,0.4,0.7,0.3
			c0.6,0,0.9-0.6,0.9-1.1c0.1-0.5,0-1-0.6-1.1c0.1,0.2,0.1,0.5,0.2,0.7c0.2-0.1,0.3-0.2,0.5-0.2c0.1,0,0.2-0.1,0.2-0.1
			c0.1,0,0.1,0,0.2,0c0.1,0,0.2,0,0.2,0.1c0.1,0.1,0.1,0.3,0.1,0.4c0,0.1,0,0.2,0,0.3c0,0.1,0,0,0,0.1c0,0,0,0,0,0c0,0,0,0,0,0
			c0,0-0.1,0-0.1,0c-0.1,0-0.2,0-0.3-0.1c-0.1-0.1-0.1-0.2-0.1-0.3c-0.2,0-0.5,0.1-0.7,0.1c0,0.3,0.1,0.5,0.1,0.8
			c0,0.2,0.1,0.5,0.3,0.6c0.3,0.3,1,0.3,1.1-0.2c0.1-0.3-0.1-0.4-0.4-0.5c-0.4,0-1.2,0-1.3,0.5c-0.1,0.2,0,0.5,0.2,0.7
			c0.2,0.2,0.5,0.2,0.7,0.2c0.4,0,0.9-0.1,1.1-0.5c0.2-0.4,0-0.9-0.4-1.2c-0.2-0.1-0.4-0.2-0.7-0.3c-0.1,0-0.3-0.1-0.4-0.1
			c-0.2,0-0.3,0.1-0.4,0.1c0.1,0,0.1,0,0.2-0.1c0,0,0,0,0,0c0.1,0,0.1,0.1,0.2,0.1c0,0.1,0,0.2,0.1,0.3c0,0,0,0,0,0
			c0,0,0-0.1,0.1-0.1c0-0.1,0-0.2,0-0.3c0-0.2-0.1-0.3-0.3-0.4c-0.1-0.1-0.3-0.2-0.5-0.2c-0.1,0-0.3,0.1-0.4,0
			c0.1,0.2,0.2,0.3,0.3,0.5c0.1-0.3,0.2-0.7,0.4-0.8c0.1-0.1,0.2-0.1,0.3,0c0.1,0.1,0.3,0.2,0.4,0.3c0.3,0.4,0.9-0.2,0.5-0.5
			c-0.2-0.2-0.4-0.4-0.6-0.5c-0.3-0.1-0.6-0.1-0.8,0c-0.5,0.2-0.7,0.8-0.8,1.3c0,0.2,0.1,0.4,0.3,0.5c0.2,0,0.3,0,0.5,0
			c0.1,0,0.1,0,0.2,0c0,0,0,0,0,0c0,0,0,0,0,0c0,0,0,0,0,0c0-0.1,0-0.2,0-0.1c0,0-0.1,0.1-0.1,0.2c0,0.1,0,0.3,0,0.4
			c0.1,0.2,0.3,0.3,0.5,0.2c0.1,0,0.1-0.1,0.2-0.1c0.2,0.1,0.4,0.1,0.6,0.2c0,0,0.1,0,0.1,0.1c0,0,0.1,0.1,0,0c0,0,0,0.1,0,0.1
			c0,0,0,0,0,0c0,0,0,0,0,0c0,0-0.1,0,0,0c0,0-0.1,0.1-0.1,0c-0.1,0-0.2,0-0.3,0c-0.1,0-0.2,0-0.3,0c-0.2,0,0,0,0,0c0,0,0,0.2,0,0.1
			c0,0,0,0.1-0.1,0.1c0,0,0.1,0,0.1,0c0.1,0,0.1,0,0.2,0c0.1,0,0.3,0,0.4,0c-0.1-0.2-0.2-0.3-0.4-0.5c0,0,0.1-0.1,0.1-0.1
			c0,0,0,0,0,0c0,0,0,0,0,0c0,0,0,0,0,0c0,0,0,0,0,0c0.1,0,0,0,0,0c0,0,0-0.1,0-0.1c-0.1-0.3-0.1-0.6-0.1-0.9c0-0.2-0.2-0.3-0.4-0.3
			c-0.2,0-0.3,0.2-0.3,0.4c0,0.6,0.4,1.1,1,1.1c0.6,0,1-0.5,1.1-1c0-0.5-0.2-1.2-0.8-1.3c-0.6-0.1-1.1,0.1-1.6,0.4
			c-0.1,0.1-0.2,0.3-0.2,0.4c0,0.2,0.2,0.3,0.4,0.3c0,0-0.1,0-0.1,0c0,0,0,0,0,0c0,0,0,0,0,0c0,0,0,0,0,0.1c0-0.1,0,0.1,0,0.1
			c0,0,0,0.1,0,0.1c0,0.2-0.1,0.4-0.2,0.5c0,0-0.1,0,0,0c0,0-0.1,0,0,0c0,0,0,0,0,0c0,0,0.1,0.1,0,0c0,0,0,0.1,0,0.1
			c0,0,0.1-0.1,0.1-0.2c0,0,0,0,0,0c0,0,0,0,0,0c0,0-0.1,0-0.1-0.1C69.7,89.8,70.3,89.5,70.1,89L70.1,89z"/>
	</g>
</g>
<g>
	<g>
		<path class="st1" d="M69.9,88.8c0.1,0,0.2-0.1,0.2-0.1c0,0,0.1,0,0.1,0c0.1,0-0.1,0,0,0c0.1-0.1,0.3-0.1,0.4-0.1c-0.1,0,0,0,0,0
			c0,0,0.1,0,0.1,0c0,0,0.1,0,0.1,0c0,0,0,0,0,0c0,0,0,0,0.1,0c0.1,0,0.1,0,0.2,0.1c0,0,0,0,0,0c0,0,0,0,0,0c0,0,0,0,0.1,0
			c0.1,0-0.1-0.1,0,0c0,0,0,0,0.1,0.1c0,0,0,0,0,0c0,0,0,0,0,0c0,0,0.1,0.1,0,0.1c0-0.1,0-0.1,0,0c0,0,0,0,0,0c0,0.1,0,0,0,0
			c0,0,0,0.1,0,0.1c0,0.1,0-0.1,0,0c0,0,0,0,0,0.1c0,0,0,0,0,0c0,0,0,0,0,0c0,0,0,0.1,0,0.1c0,0,0,0,0,0c0,0,0-0.1,0,0c0,0,0,0,0,0
			c0,0,0.1,0,0,0c0,0,0,0,0,0c-0.1,0,0.1,0,0,0c-0.1,0,0.1,0,0,0c-0.2,0-0.4,0.2-0.4,0.4c0,0.2,0.2,0.4,0.4,0.4
			c0.3,0,0.6-0.2,0.7-0.4c0.1-0.2,0.2-0.5,0.1-0.8c-0.2-0.6-0.9-0.9-1.5-0.8c-0.4,0.1-0.7,0.2-1.1,0.4c-0.2,0.1-0.2,0.4-0.1,0.5
			C69.5,88.8,69.7,88.9,69.9,88.8L69.9,88.8z"/>
	</g>
</g>
<g>
	<g>
		<path class="st1" d="M73.4,98.1c4.2-0.8,8.4-1,12.6-0.8c1,0.1,1-1.4,0-1.5c-4.4-0.3-8.7,0-13,0.8C72,96.8,72.4,98.2,73.4,98.1
			L73.4,98.1z"/>
	</g>
</g>
<g>
	<g>
		<path class="st1" d="M73.6,102.5c3.2,0.5,6.4,1,9.6,1.6c0.4,0.1,0.8-0.1,0.9-0.5c0.1-0.4-0.1-0.9-0.5-0.9c-3.2-0.5-6.4-1-9.6-1.6
			c-0.4-0.1-0.8,0.1-0.9,0.5C73,102,73.2,102.5,73.6,102.5L73.6,102.5z"/>
	</g>
</g>
<path class="st3" d="M106.8,119.9"/>
<path class="st3" d="M106.8,119.9"/>
<path class="st0" d="M51,112.4c1.3-2.8,2.2-5.8,2.5-8.9c0.1-0.7,0-1.5-0.5-2c-0.6-0.7-1.5-0.7-2.3-0.5c-1.2,0.4-2.3,0.6-3.5,0.7
	c-2.5,0.2-5.2,0.3-7.5,1.7c-1.3,0.8-2.3,2-1.8,3.6c0.4,1.3,1.7,2.3,2.8,3.1c2.5,2,5.3,3.4,8.4,4.3c0.6,0.2,1,0,1.3-0.4
	c0.2,0.1,0.5,0.3,0.7,0.4c0.4,0.2,0.8-0.4,0.4-0.6c-0.2-0.1-0.5-0.3-0.7-0.4c0.1-0.2,0.1-0.4,0-0.6C50.8,112.6,50.9,112.5,51,112.4z
	"/>
<g>
	<g>
		<g>
			<path class="st1" d="M63.7,147c-4-2-6.6-5.6-8.8-9.4c-2.2-4-4-8.2-5.1-12.6c-1.2-4.6-1.8-9.4-1.7-14.1c0-2.8,0.2-4.3,0.9-6.8
				c1.4-5,3.1-9.8,4.9-14.6c1-2.7,1.8-5.4,3.1-8c1.6-3.3,3.7-6.4,6.2-9.1c3.5-3.9,7.7-7.2,12.5-9.6c1.7-0.9,0.2-3.5-1.5-2.6
				c-4.3,2.2-8.3,5.1-11.7,8.6c-2.6,2.7-4.9,5.7-6.8,8.9c-1.9,3.3-3.2,6.8-4.4,10.4c-1.6,4.7-3.4,9.4-4.8,14.2
				c-0.3,1.1-0.6,2.1-0.8,3.2c-0.1,0.5-0.2,0.9-0.2,1.4c0,0.4,0-0.2,0,0.1c0,0.6-0.1,1.3-0.2,1.9c-0.3,4.8,0.2,9.7,1.2,14.4
				c1.1,5.3,3.1,10.3,5.6,15.1c2.4,4.5,5.5,8.8,10.2,11.2C63.9,150.5,65.4,147.9,63.7,147L63.7,147z"/>
		</g>
	</g>
</g>
<path class="st0" d="M54,120.7c1.3-2.8,2.2-5.8,2.5-8.9c0.1-0.7,0-1.5-0.5-2c-0.6-0.7-1.5-0.7-2.3-0.5c-1.2,0.4-2.3,0.6-3.5,0.7
	c-2.5,0.2-5.2,0.3-7.5,1.7c-1.3,0.8-2.3,2-1.8,3.6c0.4,1.3,1.7,2.3,2.8,3.1c2.5,2,5.3,3.4,8.4,4.3c0.6,0.2,1,0,1.3-0.4
	c0.2,0.1,0.5,0.3,0.7,0.4c0.4,0.2,0.8-0.4,0.4-0.6c-0.2-0.1-0.5-0.3-0.7-0.4c0.1-0.2,0.1-0.4,0-0.6C53.8,120.9,53.9,120.8,54,120.7z
	"/>
<g>
	<g>
		<path class="st1" d="M52.6,122.3c-2.6-2.7-5.7-4.8-8.6-7.2c-0.5-0.4-0.9-0.8-1.3-1.2c-0.2-0.2-0.1-0.1,0,0.1c-0.1-0.3,0,0,0,0.1
			c0,0.1,0,0.6,0,0.1c0-0.1,0-0.3,0-0.4c0-0.1,0.1-0.3,0.1-0.4c0.2-0.3,0.9-0.5,1.2-0.7c0.6-0.3,1.2-0.6,1.9-0.9
			c0.9-0.4,1.6-0.8,2.5-1.1c0.8-0.3,1.5-0.5,2.3-0.6c-0.3,0.1,0.2,0,0.3,0c0.2,0,0.4,0,0.6,0c0.4,0,0.8,0,1.2,0c1.9,0.1,1.9-2.9,0-3
			c-1.6-0.1-3.2,0.1-4.8,0.6c-1,0.4-2.1,0.8-3.1,1.3c-0.6,0.3-1.2,0.6-1.8,0.9c-0.7,0.4-1.5,0.7-2.2,1.2c-1,0.8-1.4,2.2-1.3,3.4
			c0,0.8,0.5,1.3,1.1,1.9c1.3,1.3,2.8,2.3,4.2,3.5c1.8,1.5,3.7,2.9,5.4,4.6C51.8,125.8,53.9,123.7,52.6,122.3L52.6,122.3z"/>
	</g>
</g>
<g>
	<path class="st4" d="M24.8,100c-1.1,1.8-1.9,3.7-2.2,5.8c-0.1,0.4-0.1,0.8,0,1.1c0.3,0.7,1.1,1,1.9,0.9c2.7-0.2,4.2-3.6,6.9-4
		c1.1-0.2,2.3,0.2,3.4,0.6c1.1,0.4,2.2,0.8,3.4,0.6c1.1-0.2,2.2-1.3,2-2.4c-0.1-0.5-0.5-1-0.8-1.4c-0.8-1-1.6-1.9-2.4-2.9
		c-0.2-0.3-0.5-0.6-0.5-1c0-0.5,0.4-0.8,0.8-1.1c1.8-1.5,3-3.6,3.3-5.9c-3-2-7.7,1.2-10.5-1.1c-0.8-0.7-1.3-1.8-2.1-2.5
		c-0.8-0.8-2.2-1.2-2.9-0.4c-0.4,0.4-0.5,1-0.5,1.5c-0.2,1.6-0.4,3.1-0.6,4.7c0,0.3-0.1,0.6-0.3,0.8c-0.2,0.2-0.5,0.2-0.8,0.3
		c-1.9,0.3-3.8,1-5.3,2.2c-0.2,0.2-0.5,0.4-0.6,0.7c-0.2,0.7,0.7,1.2,1.5,1.4c2,0.5,4,1,6,1.5"/>
	<g>
		<path class="st5" d="M24.1,99.6c-0.9,1.5-1.6,3.1-2,4.7c-0.3,1.3-0.7,2.8,0.5,3.7c2.1,1.6,4.6-0.5,6.1-1.8c1.2-1.1,2.4-2,4.2-1.6
			c1.8,0.4,3.4,1.4,5.2,1.1c1.2-0.2,2.3-1,2.7-2.2c0.4-1.4-0.6-2.4-1.4-3.4c-0.5-0.6-2.1-2.1-1.9-2.8c0.1-0.5,0.6-0.7,0.9-1
			c0.4-0.3,0.7-0.7,1-1.1c1.1-1.4,1.7-3,2-4.7c0-0.3,0-0.7-0.3-0.8c-2.3-1.4-4.9-0.5-7.4-0.4c-1.6,0.1-2.8-0.2-3.8-1.6
			c-0.8-1.1-1.5-2.2-2.9-2.6c-3.4-0.9-3.2,3.7-3.5,5.8c0,0.4,0,1.3-0.2,1.6c-0.2,0.3-0.6,0.3-0.9,0.3c-0.8,0.1-1.6,0.4-2.4,0.7
			c-1.1,0.5-2.9,1.2-3.5,2.3c-0.6,1.2,0.5,2.2,1.6,2.6c2,0.7,4.2,1.1,6.3,1.6c0.9,0.2,1.3-1.2,0.4-1.4c-2-0.5-4.1-0.9-6-1.5
			c-0.3-0.1-1-0.2-0.8-0.7c0.1-0.2,0.9-0.6,1-0.7c0.8-0.5,1.7-0.9,2.7-1.1c1.2-0.3,2.7-0.2,3.1-1.6c0.4-1.8,0.3-3.7,0.7-5.5
			c0.6-2.7,3,1,3.6,1.8c0.8,0.9,1.9,1.4,3.1,1.6c2.6,0.3,5.7-1.3,8.1,0.2c-0.1-0.3-0.2-0.6-0.3-0.8c-0.3,1.8-1,3.5-2.3,4.9
			c-0.9,0.9-2.3,1.6-1.7,3.1c0.7,1.7,2.6,2.7,3.3,4.3c0.6,1.3-0.9,2-1.9,1.9c-1,0-2-0.5-2.9-0.8c-1.5-0.5-3-0.7-4.4,0
			c-1.1,0.5-2,1.5-3,2.3c-0.7,0.6-3.6,2.5-3.7,0.4c-0.1-1.9,1.2-4.2,2.1-5.8C25.9,99.5,24.6,98.8,24.1,99.6L24.1,99.6z"/>
	</g>
</g>
<g>
	<g>
		<path class="st1" d="M84.7,79.1c-0.2-3.4-1-6.7-1.6-10c-0.1-0.3-0.4-1.4-0.2-1.6c0.2-0.2,0.8-0.1,1.2-0.1c1.4,0.1,2.7,0.4,4,0.8
			c2.5,0.9,4.5,2.5,6,4.6c0.8,1.2,1.5,2.4,2,3.7c0.3,0.6,0.5,1.3,0.7,2c0.1,0.4,0.2,0.7,0.3,1.1c0.1,0.2,0.1,0.4,0.2,0.5
			c0.1,0.3,0.1,0.4,0,0.2c0.1-0.4,0.3-0.7,0.4-1.1c0,0-0.1,0.1-0.1,0.1c0.5-0.1,1-0.3,1.5-0.4c0,0-0.1,0-0.1,0c0.3,0.3,0.7,0.7,1,1
			c0,0,0-0.1,0-0.1c0,0.3,0,0.5,0,0.8c0,0,0-0.1,0-0.1c-0.6,0.3-1.2,0.7-1.8,1c0,0,0,0,0.1,0c0.8,0.1,1.6-0.2,1.8-1
			c0.2-0.7-0.2-1.7-1-1.8c0,0,0,0-0.1,0c-0.8-0.1-1.7,0.2-1.8,1c-0.5,2.1,2.5,2.9,3.1,0.9c0.2-0.7-0.1-1.4-0.3-2.1
			c-0.2-0.7-0.5-1.5-0.7-2.2c-1.1-2.8-2.6-5.6-4.8-7.7c-2-2-4.7-3.3-7.5-4c-1.4-0.3-3-0.6-4.4-0.4c-1.5,0.2-2.6,1.5-2.7,3
			c-0.1,0.9,0.2,1.9,0.4,2.8c0.2,1,0.4,2,0.6,3c0.4,1.9,0.7,3.9,0.9,5.9C81.8,81,84.8,81.1,84.7,79.1L84.7,79.1z"/>
	</g>
</g>
<g>
	<path class="st4" d="M21.1,75.8c-1.2,1.3-2.2,2.8-2.8,4.4c-0.1,0.3-0.2,0.6-0.2,0.9c0.1,0.6,0.8,1,1.4,1.1c2.3,0.3,4.1-2.3,6.4-2.2
		c1,0,1.9,0.6,2.7,1.1c0.8,0.5,1.7,1,2.7,1c1,0,2-0.7,2-1.7c0-0.5-0.2-0.9-0.4-1.3c-0.5-0.9-1-1.9-1.5-2.8c-0.1-0.3-0.3-0.6-0.2-0.9
		c0.1-0.4,0.5-0.6,0.8-0.8c1.7-0.9,3.1-2.5,3.7-4.4c-2.2-2.2-6.6-0.3-8.5-2.7c-0.6-0.7-0.8-1.7-1.3-2.4s-1.6-1.4-2.3-0.8
		c-0.4,0.3-0.5,0.7-0.7,1.2c-0.4,1.3-0.8,2.5-1.3,3.8c-0.1,0.2-0.2,0.5-0.4,0.6c-0.2,0.1-0.5,0.1-0.7,0.1c-1.6-0.1-3.3,0.2-4.8,0.9
		c-0.2,0.1-0.5,0.2-0.6,0.5c-0.3,0.6,0.4,1.1,1,1.4c1.6,0.8,3.2,1.5,4.8,2.3"/>
	<g>
		<path class="st5" d="M20.6,75.2c-1,1.1-1.9,2.3-2.5,3.6c-0.5,1-1.1,2.3-0.2,3.3c1.7,1.9,4.3,0.2,6-0.7c1.3-0.7,2.4-0.8,3.7-0.1
			c1.2,0.6,2.3,1.5,3.6,1.5c1.1,0.1,2.2-0.5,2.7-1.4c0.7-1.2-0.2-2.4-0.7-3.5c-0.2-0.4-0.4-0.8-0.6-1.2c-0.3-0.5-0.6-0.9,0-1.3
			c0.5-0.4,1.2-0.7,1.7-1.2c1.1-1,1.9-2.2,2.4-3.6c0.1-0.2,0-0.6-0.2-0.7c-2.2-2-5.1-0.8-7.6-1.9c-1.5-0.7-1.5-2.5-2.6-3.6
			c-0.9-0.9-2.5-1.2-3.4-0.1c-0.5,0.6-0.7,1.5-0.9,2.3c-0.2,0.5-0.3,1-0.5,1.5c-0.1,0.3-0.2,1.1-0.5,1.3c-0.2,0.1-1,0-1.3,0
			c-0.4,0-0.8,0.1-1.2,0.1c-0.9,0.1-1.7,0.4-2.5,0.7c-1.3,0.6-1.8,1.9-0.6,2.9c0.7,0.6,1.7,0.9,2.5,1.3c1,0.5,2,0.9,2.9,1.4
			c0.9,0.4,1.6-0.9,0.8-1.3c-1.6-0.8-3.2-1.4-4.8-2.3c-0.2-0.1-0.6-0.3-0.6-0.5c0-0.1,1-0.4,1.2-0.5c0.8-0.3,1.6-0.4,2.4-0.4
			c1.1-0.1,2.2,0.2,2.8-1c0.3-0.7,0.5-1.4,0.7-2.1c0.2-0.7,0.4-1.7,0.8-2.3c1-1.5,2.2,1.9,2.6,2.5c0.6,0.9,1.4,1.4,2.4,1.7
			c2,0.6,4.8-0.1,6.4,1.4c-0.1-0.2-0.1-0.5-0.2-0.7c-0.5,1.4-1.4,2.6-2.6,3.4c-0.9,0.6-2.2,1-2,2.4c0.1,0.7,0.6,1.4,0.9,2
			c0.3,0.6,1.2,1.8,1.2,2.5c-0.1,0.9-1.2,1-1.9,0.8c-0.7-0.2-1.4-0.6-2-1c-1.1-0.6-2.2-1.2-3.5-1c-1.1,0.2-2.1,0.8-3.1,1.3
			c-0.9,0.5-3.4,1.7-3.1-0.3c0.1-0.7,0.6-1.4,1-2c0.5-0.7,1-1.4,1.6-2.1C22.3,75.6,21.2,74.5,20.6,75.2L20.6,75.2z"/>
	</g>
</g>
<g>
	<path class="st4" d="M30.9,57.3c-0.1-0.8-1-1.8-1.5-2.7c-0.2-0.3-0.7-0.3-0.9,0c-0.4,0.6-0.6,1.3-0.9,2c-0.2,0.5-3.8-0.6-5.2-0.4
		c-0.3,0-0.7,0.1-0.9,0.4c-0.3,0.3-0.1,0.8,0.1,1.2c0.8,1.2,2.5,1.8,2.8,3.2c0.2,0.6,0.1,1.2-0.1,1.8c-0.3,0.8-0.4,1.7-0.4,2.5
		c0,0.1,0,0.3,0.1,0.4c0.2,0.2,0.5,0.2,0.7,0.2c1.3-0.1,4-2.4,4.4-2.3c0.2,0,0.4,0.1,0.5,0.3l2.6,1.6c0.5,0.4,1.1,0.4,1.4-0.2
		c0.3-0.5,0.2-1.2,0-1.8c-0.3-0.9-1.4-1.9-2.2-2.6c-0.4-0.3,1.9-1.2,2.2-1.4c0.4-0.2,0.9-0.8,0.9-1.3c0-0.4-0.3-0.7-0.7-0.6
		c-0.6,0.1-2.3-0.2-2.9-0.1c0,0,0,0-0.1,0"/>
	<g>
		<path class="st5" d="M31.7,57.1c-0.1-0.5-0.4-1-0.7-1.5c-0.3-0.5-0.7-1.1-1.1-1.5c-0.3-0.4-0.8-0.5-1.3-0.4
			c-0.6,0.2-0.9,0.7-1.1,1.2c-0.1,0.3-0.2,0.5-0.3,0.8C27.2,55.9,27,56,27,56.2c0,0.4,0.2-0.3,0.3-0.2c0,0-0.6,0-0.8-0.1
			c-0.9-0.1-1.7-0.3-2.6-0.4c-0.8-0.1-1.8-0.2-2.6,0.2c-1,0.6-0.8,1.9-0.2,2.7c0.6,0.8,1.5,1.3,2.2,2c0.9,1,0.1,2.3-0.1,3.5
			c-0.2,1.1-0.2,2.6,1.2,2.7c0.8,0.1,1.6-0.3,2.2-0.7c0.7-0.4,1.4-0.9,2.2-1.4c0.1-0.1,0.2-0.1,0.4-0.2c0.2-0.1,0,0,0,0
			c0,0,0,0-0.1,0c0.1,0,0.1,0.1,0.2,0.1c0,0,0,0,0.1,0c0.1,0.1,0.2,0.1,0.3,0.2c0.6,0.3,1.2,0.7,1.7,1c0.5,0.3,1.1,0.7,1.7,0.7
			c1.2-0.1,1.7-1.4,1.5-2.4c-0.2-1.2-0.9-2.1-1.7-2.9c-0.2-0.2-0.5-0.5-0.7-0.7c0,0,0,0-0.1-0.1c-0.2-0.2-0.2,0,0,0.7
			c0.1,0-0.2,0.1,0,0c0.3-0.1,0.7-0.4,1.1-0.6c0.8-0.4,1.6-0.8,2-1.7c0.2-0.6,0.3-1.2-0.2-1.7c-0.4-0.4-0.8-0.4-1.4-0.4
			c-0.9,0-2-0.1-2.7-0.1c-1,0-1,1.5,0,1.5c0.6,0,1.3,0,2,0.1c0.3,0,0.6,0.1,0.9,0c0.2,0,0,0.1,0-0.2c0,0.1-0.1,0.2-0.1,0.2
			c-0.1,0.2-0.3,0.3-0.4,0.5c-0.8,0.5-2.3,0.8-2.6,1.8c-0.2,0.8,0.9,1.4,1.4,1.9c0.3,0.3,0.6,0.7,0.8,1.1c0.1,0.2,0.4,1.1,0,1.3
			c-0.2,0.1-0.9-0.5-1-0.5c-0.5-0.3-1-0.6-1.5-0.9c-0.4-0.2-0.8-0.6-1.3-0.6c-0.5,0-0.9,0.3-1.3,0.6c-0.6,0.4-1.2,0.8-1.8,1.1
			c-0.3,0.2-0.6,0.3-0.9,0.5c-0.1,0-0.2,0.1-0.4,0.1c-0.1,0-0.3,0-0.2,0.1c-0.1-0.1,0-0.6,0-0.7c0-0.3,0.1-0.6,0.1-0.8
			c0.1-0.6,0.4-1.1,0.4-1.7c0.1-1-0.2-1.9-0.8-2.6c-0.5-0.6-1.2-1-1.8-1.6c-0.2-0.2-0.7-0.6-0.4-0.8c0.2-0.2,0.7-0.1,0.9-0.1
			c1.4,0.1,2.9,0.7,4.3,0.6c1-0.1,1.1-1,1.5-1.8c0-0.1,0.1-0.2,0.1-0.3c0.2-0.2,0.2-0.2,0-0.2c-0.1,0-0.1,0,0,0.1
			c0,0.2,0.4,0.5,0.5,0.7c0.3,0.5,0.7,0.9,0.8,1.5C30.4,58.4,31.8,58,31.7,57.1L31.7,57.1z"/>
	</g>
</g>
<g>
	<path class="st4" d="M36.4,83.5c-1.1,1.2-2,2.6-2.6,4.2c-0.1,0.3-0.2,0.6-0.2,0.9c0.1,0.6,0.7,1,1.3,1c2.1,0.3,3.8-2.2,6-2.1
		c0.9,0,1.7,0.5,2.5,1s1.6,1,2.5,1c0.9,0,1.9-0.6,1.9-1.6c0-0.4-0.2-0.8-0.4-1.2c-0.5-0.9-0.9-1.8-1.4-2.6c-0.1-0.3-0.3-0.5-0.2-0.8
		c0.1-0.4,0.5-0.5,0.8-0.7c1.6-0.9,2.9-2.4,3.5-4.1c-2-2-6.2-0.3-8-2.5c-0.6-0.7-0.7-1.6-1.2-2.3c-0.5-0.7-1.5-1.3-2.2-0.8
		c-0.3,0.3-0.5,0.7-0.6,1.1c-0.4,1.2-0.8,2.4-1.2,3.6c-0.1,0.2-0.2,0.4-0.3,0.6c-0.2,0.1-0.4,0.1-0.7,0.1c-1.5-0.1-3.1,0.2-4.5,0.9
		c-0.2,0.1-0.4,0.2-0.5,0.4c-0.3,0.5,0.4,1.1,0.9,1.3c1.5,0.7,3,1.4,4.5,2.1"/>
	<g>
		<path class="st5" d="M35.8,83c-0.9,0.9-1.7,2-2.2,3.2c-0.5,1-1.1,2.2-0.4,3.2c1.4,2,4,0.5,5.6-0.4c1.2-0.7,2.2-1,3.5-0.3
			c1.1,0.6,2.1,1.4,3.4,1.5c1.1,0.1,2.2-0.4,2.7-1.3c0.6-1.2-0.1-2.3-0.7-3.4c-0.3-0.5-1.2-1.8-0.8-2.2c0.2-0.2,0.6-0.3,0.9-0.5
			c0.3-0.2,0.6-0.4,0.8-0.7c1-0.9,1.8-2.1,2.3-3.4c0.1-0.2,0-0.6-0.2-0.7c-0.9-0.9-2-1.2-3.3-1.3c-1.3-0.1-2.7,0-3.8-0.5
			c-1.4-0.6-1.4-2.4-2.4-3.4c-0.9-0.9-2.4-1.1-3.2,0c-0.5,0.6-0.6,1.5-0.9,2.2c-0.2,0.5-0.3,1-0.5,1.4c-0.1,0.2-0.2,1-0.4,1.2
			c-0.2,0.1-1,0-1.2,0c-0.4,0-0.8,0.1-1.2,0.1c-0.8,0.1-1.6,0.4-2.4,0.7c-1.3,0.6-1.7,1.8-0.5,2.8c0.7,0.6,1.6,0.9,2.3,1.2
			c0.9,0.4,1.8,0.9,2.7,1.3c0.9,0.4,1.6-0.9,0.8-1.3c-1.5-0.7-3-1.3-4.5-2.1c-0.1-0.1-0.6-0.3-0.6-0.4c0-0.1,1-0.4,1.1-0.5
			c0.7-0.2,1.5-0.4,2.2-0.4c1.1-0.1,2.1,0.2,2.7-1c0.3-0.6,0.5-1.3,0.7-2c0.2-0.7,0.4-1.6,0.8-2.2c0.9-1.3,2,1.8,2.3,2.3
			c0.5,0.8,1.4,1.3,2.3,1.6c1.9,0.5,4.5-0.1,6,1.3c-0.1-0.2-0.1-0.5-0.2-0.7c-0.5,1.3-1.3,2.4-2.4,3.2c-0.9,0.6-2.1,1-1.9,2.3
			c0.1,0.7,0.6,1.4,1,2c0.3,0.6,1,1.5,1,2.1c-0.1,0.9-1.2,0.9-1.8,0.7c-0.7-0.2-1.3-0.6-1.9-1c-1-0.6-2.1-1-3.3-0.8
			c-1.1,0.2-2,0.8-2.9,1.3c-0.7,0.4-3.4,1.5-2.7-0.4c0.5-1.4,1.4-2.6,2.4-3.7C37.5,83.3,36.5,82.3,35.8,83L35.8,83z"/>
	</g>
</g>
<g>
	<path class="st4" d="M45.4,68c1,0.7,1.8,1.5,2.4,2.5c0.1,0.2,0.2,0.4,0.2,0.6c0,0.4-0.4,0.8-0.8,0.9c-1.4,0.5-2.9-0.9-4.4-0.6
		c-0.6,0.2-1.1,0.6-1.6,1.1s-1,0.9-1.6,1s-1.4-0.2-1.5-0.8c-0.1-0.3,0-0.6,0.1-0.9c0.2-0.7,0.4-1.3,0.6-2c0.1-0.2,0.1-0.4,0-0.6
		c-0.1-0.2-0.4-0.3-0.6-0.4c-1.2-0.4-2.3-1.2-3-2.3c1.1-1.7,4.2-1.1,5.1-2.9c0.3-0.5,0.3-1.2,0.5-1.8s0.8-1.1,1.4-0.8
		c0.3,0.1,0.4,0.4,0.6,0.7c0.4,0.8,0.9,1.5,1.3,2.3c0.1,0.1,0.2,0.3,0.3,0.3c0.2,0.1,0.3,0,0.5,0c1-0.3,2.2-0.3,3.2,0
		c0.2,0,0.3,0.1,0.4,0.2c0.3,0.3-0.1,0.8-0.4,1.1c-0.9,0.7-1.8,1.4-2.8,2.1"/>
	<g>
		<path class="st5" d="M45,68.7c0.8,0.5,1.5,1.2,2,2c0.2,0.2,0.3,0.4,0,0.6c-0.1,0.1-0.4,0.1-0.5,0.1c-0.4,0-0.7-0.1-1.1-0.2
			c-0.8-0.3-1.6-0.5-2.4-0.4c-1,0.1-1.7,0.7-2.4,1.4c-0.3,0.3-1.8,1.4-1.8,0.3c0-0.5,0.3-1.1,0.4-1.6c0.1-0.5,0.3-1,0.3-1.5
			c-0.1-1-1-1.1-1.7-1.4c-0.9-0.4-1.6-1-2.1-1.8c0,0.3,0,0.5,0,0.8c0.7-1,2.4-1,3.4-1.5c0.6-0.3,1.2-0.6,1.6-1.2
			c0.2-0.3,0.4-0.7,0.5-1.1c0.1-0.4,0.1-1.1,0.4-1.3c0.2-0.1,0.2-0.1,0.3,0c0.2,0.2,0.3,0.5,0.4,0.7c0.3,0.5,0.5,0.9,0.8,1.4
			c0.5,0.8,0.9,1.3,1.9,1.1c0.5-0.1,1-0.2,1.5-0.2c0.3,0,0.6,0,0.9,0.1c0.1,0,0.2,0,0.4,0.1c0-0.3-0.1-0.3-0.2-0.1
			c-0.2,0.1-0.5,0.4-0.6,0.5c-0.2,0.2-0.4,0.3-0.6,0.5c-0.5,0.4-1,0.8-1.5,1.1c-0.8,0.6,0,1.9,0.8,1.3c0.9-0.7,1.8-1.4,2.6-2
			c0.6-0.5,1.3-1.2,0.9-2.1c-0.4-0.8-1.6-0.8-2.4-0.8c-0.5,0-1,0-1.4,0.1c-0.2,0-0.6,0.2-0.7,0.2c0,0,0.2,0.2,0-0.1
			c-0.1-0.1-0.2-0.3-0.3-0.5c-0.5-0.8-0.9-1.8-1.6-2.4c-0.7-0.6-1.6-0.4-2.2,0.1c-0.7,0.7-0.7,1.6-1,2.4c-0.2,0.6-0.7,0.8-1.3,1
			c-1.4,0.5-3,0.7-3.9,2c-0.1,0.2-0.1,0.5,0,0.8c0.5,0.8,1.1,1.4,1.8,1.9c0.3,0.2,0.7,0.4,1.1,0.6c0.2,0.1,0.5,0.1,0.7,0.2
			c0.1,0.1-0.1,0.3-0.1,0.5c-0.2,0.9-0.8,2-0.5,2.9c0.2,0.7,1,1.2,1.7,1.2c0.8,0.1,1.6-0.4,2.2-0.9c0.7-0.6,1.3-1.4,2.3-1.2
			c1.5,0.2,3.3,1.4,4.6,0c1.5-1.6-1.4-4-2.6-4.8C45,66.8,44.3,68.1,45,68.7L45,68.7z"/>
	</g>
</g>
<g>
	<g>
		<path class="st1" d="M85,67.3c1,0,1-1.5,0-1.5C84,65.8,84,67.3,85,67.3L85,67.3z"/>
	</g>
</g>
<g>
	<g>
		<path class="st1" d="M85.1,65.9c-1.7-0.6-3.4,1.1-3.4,2.8c0,1.9,1.9,3.2,3.5,3.9c1,0.4,2.1,0.7,3,1.3c0.8,0.5,1.4,1.2,1.9,2
			c1,1.7,1.3,3.7,1.6,5.6c0.5-0.2,0.9-0.4,1.4-0.6c-0.1-0.1-0.1-0.2-0.2-0.3c-0.5-0.8-1.8-0.1-1.3,0.8c0.1,0.1,0.1,0.2,0.2,0.3
			c0.4,0.8,1.5,0.2,1.4-0.6c-0.5-3.1-1.2-6.5-3.9-8.3c-1.5-1-3.4-1.2-4.8-2.3c-0.6-0.4-1.2-1.2-1.1-1.9c0.1-0.7,0.7-1.4,1.5-1.2
			C85.6,67.7,86,66.3,85.1,65.9L85.1,65.9z"/>
	</g>
</g>
<g>
	<g>
		<path class="st1" d="M91.6,80.2c-0.7,1.7,1,3.5,2.6,3.6c1.8,0.2,3.3-1.3,4.2-2.7c0.2-0.3,0.1-0.8-0.3-1c-0.4-0.2-0.8-0.1-1,0.3
			c-0.3,0.5-0.7,1-1.2,1.4c0.1-0.1-0.1,0.1-0.1,0.1c-0.1,0-0.1,0.1-0.2,0.1c-0.1,0-0.1,0.1-0.2,0.1c0,0-0.2,0.1-0.1,0.1
			c-0.3,0.1-0.6,0.2-0.8,0.2c-0.2,0-0.5-0.1-0.6-0.1c-0.1,0-0.1-0.1-0.2-0.1c0,0-0.2-0.1-0.1-0.1c-0.1-0.1-0.2-0.2-0.3-0.3
			c-0.1-0.1-0.2-0.4-0.3-0.5c0,0,0-0.1,0-0.1c0,0.1,0,0.1,0,0c0-0.1,0-0.1,0-0.2c0-0.1,0,0,0,0c0,0,0-0.1,0-0.1
			c0-0.1,0.1-0.2,0.1-0.2c0.2-0.4-0.2-0.8-0.5-0.9C92.1,79.6,91.8,79.8,91.6,80.2L91.6,80.2z"/>
	</g>
</g>
<g>
	<g>
		<path class="st1" d="M86.2,66.2c-0.2,1.8-1,3.6-2,5.1c-0.3,0.4,0.4,0.8,0.6,0.4c1.2-1.6,1.9-3.5,2.2-5.5c0-0.2-0.2-0.4-0.4-0.4
			C86.3,65.8,86.2,66,86.2,66.2L86.2,66.2z"/>
	</g>
</g>
<g>
	<g>
		<path class="st1" d="M87.5,67.7c0,1.4-0.3,2.8-1,4c-0.2,0.4,0.4,0.8,0.6,0.4c0.8-1.3,1.1-2.9,1.1-4.4
			C88.2,67.2,87.5,67.2,87.5,67.7L87.5,67.7z"/>
	</g>
</g>
<g>
	<g>
		<path class="st1" d="M89.8,68.7c-0.3,0.8-0.7,1.5-1,2.3c-0.2,0.4-0.4,0.7-0.6,1.1c-0.1,0.3-0.3,0.5-0.5,0.8
			c-0.2,0.3,0.2,0.7,0.5,0.5c0.1-0.1,0.2-0.2,0.3-0.3c0.1-0.2,0.2-0.3,0.2-0.5c0-0.2-0.3-0.3-0.5-0.3c0,0,0,0,0,0
			c-0.2,0.1-0.3,0.3-0.3,0.5c0.1,0.2,0.3,0.3,0.5,0.3c0,0,0,0,0,0c-0.2-0.1-0.3-0.2-0.5-0.3c0,0,0,0,0,0c0-0.1,0-0.1,0-0.2
			c0.1-0.1,0,0,0,0c0,0-0.1,0.1-0.1,0.1c0,0-0.1,0.1-0.1,0.1c-0.1,0.1,0,0,0.1,0c0.2,0.2,0.3,0.3,0.5,0.5c0.1-0.2,0.3-0.5,0.4-0.7
			c0.2-0.4,0.4-0.7,0.6-1.1c0.4-0.8,0.7-1.5,1-2.3c0.1-0.2,0.1-0.4-0.1-0.5C90.1,68.5,89.8,68.6,89.8,68.7L89.8,68.7z"/>
	</g>
</g>
<g>
	<g>
		<path class="st1" d="M91.7,69.6c-0.8,1.5-1.7,3-2.7,4.4c-0.1,0.2,0,0.4,0.1,0.5c0.2,0.1,0.4,0,0.5-0.1c1-1.4,1.9-2.9,2.7-4.4
			C92.6,69.5,91.9,69.2,91.7,69.6L91.7,69.6z"/>
	</g>
</g>
<g>
	<g>
		<path class="st1" d="M94.1,70.8c-1,1.4-2.1,2.7-3.3,3.9c-0.3,0.3,0.2,0.9,0.5,0.5c1.2-1.2,2.4-2.6,3.4-4c0.1-0.2,0-0.4-0.1-0.5
			C94.4,70.6,94.2,70.6,94.1,70.8L94.1,70.8z"/>
	</g>
</g>
<g>
	<g>
		<path class="st1" d="M96.1,74.2c-1.2,1-2.5,2-3.6,3.1c-0.4,0.3,0.2,0.9,0.5,0.5c1.2-1.1,2.4-2.1,3.6-3.1c0.2-0.1,0.1-0.4,0-0.5
			C96.5,74.1,96.3,74.1,96.1,74.2L96.1,74.2z"/>
	</g>
</g>
<g>
	<g>
		<path class="st1" d="M96.5,77c-1.2,0.9-2.4,1.7-3.6,2.5c-0.4,0.3,0,0.9,0.4,0.6c1.3-0.8,2.5-1.6,3.6-2.5c0.2-0.1,0.2-0.3,0.1-0.5
			C96.9,77,96.7,76.9,96.5,77L96.5,77z"/>
	</g>
</g>
<g>
	<g>
		<path class="st1" d="M97.1,78.7c-1.2,1.1-2.6,2-4,2.8c-0.4,0.2,0,0.9,0.4,0.6c1.5-0.8,2.9-1.8,4.2-2.9c0.2-0.1,0.1-0.4,0-0.5
			C97.5,78.6,97.3,78.6,97.1,78.7L97.1,78.7z"/>
	</g>
</g>
<g>
	<g>
		<path class="st1" d="M76.8,61.8c3.7-3.2,9.4-3.6,14-4.4c2.9-0.5,5.7-1.1,8.6-1.3c3.3-0.2,6.6,0,9.9,0.3c6.2,0.6,12.5,1.4,18.2,4
			c5.4,2.5,10.2,6.1,14.5,10.2c1.6,1.6,2.5,3.3,3.5,5.4c0.4,0.9,0.9,1.9,1.3,2.9c0.2,0.4,0.4,0.8,0.5,1.1c0,0.1,0.4,0.8,0.2,0.3
			c1.1,2.5,1.6,5.3,2.2,7.9c0.9,4,1.8,7.9,2.5,11.9c0.6,3.2,1.1,6.4,1,9.7c-0.2,7.1-1.8,14.1-4.4,20.7c-2.6,6.6-6,13.1-11.9,17.3
			c-1.6,1.1-0.1,3.7,1.5,2.6c2.6-1.8,4.8-4,6.7-6.6c2-2.7,3.5-5.8,4.9-8.8c2.9-6.1,4.8-12.6,5.7-19.4c0.6-4.5,0.6-8.7-0.1-13.2
			c-0.7-4.2-1.5-8.3-2.5-12.4c-0.7-3.3-1.5-6.7-2.6-9.9c-0.4-1.2-1-2.3-1.6-3.4c-0.9-2.1-1.8-4.2-3.1-6.1c-1.6-2.3-4-4.2-6.2-5.9
			c-2.4-1.9-4.9-3.7-7.6-5.2c-2.8-1.6-5.7-2.9-8.7-3.8c-3.2-0.9-6.4-1.3-9.7-1.8c-3.9-0.5-7.8-1-11.7-1c-3.7,0-7.2,0.6-10.9,1.2
			c-5.7,1-12.2,1.4-16.7,5.4C73.3,61,75.4,63.1,76.8,61.8L76.8,61.8z"/>
	</g>
</g>
<g>
	<g>
		<path class="st1" d="M48.4,98c0.2,1.2,0.3,2.4,0.6,3.5c0.2,0.9,0.4,1.9,1,2.5c1.9,1.8,3.7-1.8,4.5-3.1c-0.5-0.1-0.9-0.1-1.4-0.2
			c0.4,1.1,0.8,2.3,1.2,3.4c0.4,0.8,1,1.8,2.1,1.7c1.1,0,1.8-1.1,2.3-1.9c0.6-1.1,1-2.2,1.5-3.3c0.2-0.4,0.1-0.8-0.3-1
			c-0.3-0.2-0.9-0.1-1,0.3c-0.4,0.8-0.8,1.7-1.1,2.5c-0.2,0.4-0.3,0.8-0.6,1.1c-0.2,0.3-0.4,0.8-0.8,0.9c-0.5,0.1-0.8-0.9-0.9-1.2
			c-0.3-0.9-0.7-1.8-1-2.7c-0.2-0.6-1-0.8-1.4-0.2c-0.5,0.8-0.9,1.6-1.5,2.3c-0.1,0.1-0.5,0.5-0.6,0.5c-0.2,0-0.3-0.4-0.4-0.5
			c-0.3-0.7-0.4-1.4-0.5-2.1c-0.1-0.9-0.3-1.9-0.4-2.8c-0.1-0.4-0.6-0.6-0.9-0.5C48.5,97.2,48.4,97.6,48.4,98L48.4,98z"/>
	</g>
</g>
</svg>
