<?xml version="1.0" encoding="utf-8"?>
<!-- Generator: Adobe Illustrator 26.3.1, SVG Export Plug-In . SVG Version: 6.00 Build 0)  -->
<svg version="1.1" id="Calque_1" xmlns="http://www.w3.org/2000/svg" xmlns:xlink="http://www.w3.org/1999/xlink" x="0px" y="0px"
	 viewBox="0 0 200 200" style="enable-background:new 0 0 200 200;" xml:space="preserve">
<style type="text/css">
	.st0{fill:#666666;}
	.st1{fill:#FFFF66;}
	.st2{fill:#FFFFCC;}
	.st3{fill:#E7F4DF;}
</style>
<path class="st0" d="M78.5,55.4c-0.8-1.4-2.4-2.3-3.7-3.2c-2.8-1.7-7.2-4.2-9.4-0.4c-1.3,2.2,0.2,4.5-0.5,6.6
	c-1,1.4-1.3,3.2-0.4,4.8c1,1.9,3.3,2.3,5.2,1.9c1.1-0.2,2-1.1,2.4-2.1c0.2,0,0.4-0.1,0.6-0.1c1.8-0.2,3.5-0.7,4.8-2
	C78.8,59.6,79.6,57.2,78.5,55.4z"/>
<path class="st0" d="M131.7,58c1.7-2.9-1.7-7.4-5.3-5.3c-3.2,1.8-11.5,1.6-10,7.4c1.1,4.2,5.7,7.5,9.2,9.6c2,1.2,5.2,0.2,5.7-2.3
	c0.5-2.7,0.7-5.5,0.6-8.3C131.8,58.7,131.8,58.3,131.7,58z"/>
<path class="st0" d="M121.2,153.5c-0.4-1.7-2.2-2.9-3.9-2.8c-0.7-0.8-1.8-1.3-2.8-1.3c-2.1,0.1-3.8,1.7-3.9,3.9
	c-0.1,1.9-0.1,3.8-0.2,5.6c-0.1,3.4,4.3,5,6.6,2.7C119.5,159.3,122,157.2,121.2,153.5z"/>
<path class="st1" d="M181.3,84.9c-12.7-5.3-25.5-10.7-38.2-16c-3.6-1.5-7.2-3-10.8-4.5c-1-0.4-1.7,0.9-1.3,1.7
	c0.4,0.8-0.3,1.8-1,2.2c-1.1,0.6-2.5,0.4-3.6,0.1c-2.1-0.5-4.3-1.4-6-2.8c-2.9-2.5-4.2-7.4-0.8-10.2c0.5-0.4,0.4-1.3,0-1.6l-9.5-8.4
	c-1.6-1.4-3.3-2.9-4.9-4.3c-1.4-1.2-2.8-2.7-4.3-3.7c-1.5-1-3.2-1.2-4.7-0.3c-1.3,0.8-2.3,2.2-3.2,3.5c-2,2.7-3.8,5.6-5.7,8.4
	c-1.9,2.8-4,5.5-6.7,7.7c-2.8,2.3-6.3,3.8-9.7,5.1c-7.7,2.9-15.6,5.5-23.4,8.2c-9,3.2-18,6.3-27,9.4c-0.8,0.3-0.9,1-0.7,1.6
	c-1-0.3-2.1,1-1.2,1.9c4.1,3.7,8.4,7.2,12.8,10.5c2.2,1.6,4.4,3.2,6.7,4.7c2.1,1.4,4.4,2.7,6.4,4.1c2.1,1.5,3.5,3.3,3.4,6
	c-0.1,2.6-1.1,5.2-1.9,7.6c-1.7,5.2-3.4,10.5-5.2,15.7c-2.2,6-4.6,11.8-7.6,17.5c-0.3,0.6-0.1,1.6,0.7,1.7c14.7,2.4,30,0.1,43.3-6.7
	c0.8-0.4,1.6-0.8,2.4-1.3c0.8-0.5,1.7-1,2.6-1.2c0.9-0.2,1.8,0.2,2.7,0.6c1,0.4,1.9,0.9,2.9,1.4c3.9,1.9,7.8,3.8,11.8,5.7
	c1.8,0.9,3.5,1.8,5.5,2.1c2,0.2,4-0.2,5.9-0.5c3.5-0.5,7.5-0.6,10.1,2.1c0.6,0.6,1,1.3,1.2,2.1c0.2,0.9,0,1.7,0,2.6
	c-0.1,2.1,1.7,2.9,3.4,3.5c4.2,1.6,8.8,2.3,13.3,2.2c0.8,0,1.2-0.7,1.1-1.5c-1.1-6.5-2.3-12.9-3.4-19.4c-0.5-3-1-6-2-8.9
	c-0.9-2.8-2.2-5.3-3.8-7.8c-1.6-2.4-3.3-4.7-4.7-7.2c15.3-6.1,29.9-13.9,43.5-23.1c4-2.7,7.9-5.5,11.8-8.5
	C182.4,86.3,182.3,85.3,181.3,84.9z"/>
<path class="st0" d="M63.9,147.2c-2-1.8-5.5-1.5-7.8-0.7c-1.9,0.7-3.4,2.6-2.7,4.7c0.5,1.6,2.3,3.1,4.1,2.9c0.2,0.5,0.5,0.9,0.9,1.3
	c0.1,0.1,0.2,0.2,0.4,0.3c1,0.8,2,1.2,3.2,1.1c1.1-0.2,2.3-0.8,2.8-1.8C65.9,152.5,66,149.2,63.9,147.2z"/>
<path class="st0" d="M122.4,74.2c-5.3-3.1-12.3-3.7-18.7-4c-8.1-0.4-16.3,0-24.4,0.2c-0.7,0-1.3,0.2-1.9,0.4
	c-0.6-0.2-1.3-0.4-2.1-0.3c-5,0.2-10.4,0.9-13.8,4.4c-3.7,3.8-3.4,10.2-3.4,14.8c0,4.6,2.2,9.6,8,10.8c2.8,0.6,5.7,0,8.5,0.4
	c3.5,0.5,6.4,1.5,10.1,1.2c6.8-0.4,13.4,0,20.2,0c5.8,0,13.7-0.5,18.5-3.6c4.2-2.7,5.4-8,5.7-12.1C129.3,81.6,127.3,77,122.4,74.2z"
	/>
<g>
	<g>
		<path class="st2" d="M96.3,68.8c-7.3,0.4-14.7-0.3-22,0.5c-3.4,0.4-6.8,1-10,2.3c-2.9,1.1-5.7,2.8-7.2,5.6c-1.6,3-1.6,6.6-1.2,9.9
			c0.4,3.4,1.2,7,2.8,10.1c1.7,3.2,4.8,4.2,8.1,5c3.5,0.9,7.1,1.5,10.8,1.8c7.4,0.8,14.9,0.6,22.3,0.2c3.7-0.2,7.4-0.5,11.1-0.9
			c3.3-0.3,6.7-0.6,9.8-1.9c5.6-2.3,8.6-7.4,9.2-13.2c0.3-2.8,0.1-5.9-1-8.5c-1.2-2.6-3.8-4.8-6.2-6.4c-2.3-1.6-4.9-2.2-7.5-2.7
			c-2.8-0.5-5.6-0.9-8.4-1.1C103.3,69.2,99.8,68.9,96.3,68.8c-1.9-0.1-1.9,2.9,0,3c6.8,0.2,13.7,0.6,20.3,2.2c2.3,0.6,4.2,1.5,6,3
			c2.1,1.8,3.8,3.5,4.2,6.4c0.7,4.7-0.3,10.3-4.1,13.5c-2.2,1.9-5.2,2.6-8,3c-3.2,0.5-6.6,0.7-9.8,0.9c-6.7,0.5-13.4,0.9-20.1,0.7
			c-6.6-0.2-13.2-0.9-19.5-2.8c-1.5-0.5-2.9-1-3.7-2.4c-0.8-1.3-1.3-2.8-1.7-4.3c-0.9-3.1-1.3-6.3-1.1-9.5c0.1-1.7,0.5-3.4,1.6-4.8
			c0.9-1.2,2.3-2,3.6-2.7c3-1.5,6.6-2.2,9.9-2.6c7.5-0.9,15-0.1,22.5-0.5C98.2,71.7,98.3,68.7,96.3,68.8z"/>
	</g>
</g>
<g>
	<g>
		<g>
			<path class="st3" d="M66.3,64.6c-0.4-1.6-0.4-3.4-0.3-5.3c0.1-2,0.3-4,0.5-5.9c0-0.1,0-0.2,0-0.2c0-0.3,0,0.2,0-0.1
				c0-0.2,0-0.3,0.1-0.5c0-0.3,0.1-0.7,0.2-1c0-0.2,0.1-0.4,0.1-0.6c0-0.2,0.1-0.3,0-0.1c0.8-0.8,2.1-0.1,2.9,0.4
				c1.2,0.6,2.3,1.3,3.4,2c2.4,1.6,4.4,3.5,6.3,5.6c1.3,1.4,3.4-0.7,2.1-2.1c-1.9-2.2-4.1-4.1-6.5-5.8c-1.2-0.8-2.5-1.6-3.8-2.2
				c-1.5-0.8-3.1-1.4-4.8-0.9c-1.1,0.4-2.1,1.2-2.5,2.3c-0.1,0.5-0.2,1.1-0.3,1.6c-0.3,2.1-0.5,4.2-0.7,6.3c-0.1,2.4-0.3,5,0.3,7.4
				C63.9,67.2,66.8,66.4,66.3,64.6L66.3,64.6z"/>
		</g>
	</g>
	<g>
		<g>
			<path class="st3" d="M130.9,70.1c0.6-2.5,1.3-5,1.6-7.6c0.4-2.9,1.1-6.2-0.4-8.9c-0.6-1.1-1.7-2.1-2.9-2.5
				c-1.6-0.5-3.2,0-4.6,0.7c-2.9,1.3-5.6,3.1-8.3,4.8c-1.2,0.8-0.8,2.7,0.8,2.8c0.7,0,1.1-0.2,1.6-0.6c0.6-0.5,0.5-1.6,0-2.1
				c-0.6-0.6-1.5-0.5-2.1,0c-0.1,0-0.1,0.1-0.2,0.1c0.2-0.1,0.4-0.3,0.7-0.4c0,0,0,0,0,0c0.3,0.9,0.5,1.9,0.8,2.8
				c2.2-1.5,4.5-2.9,6.9-4.1c1-0.5,2.3-1.3,3.4-1.1c0.8,0.1,1.4,1,1.6,1.7c0.4,1.3,0.2,2.6,0.1,3.9c-0.1,1.1-0.2,2.2-0.4,3.3
				c-0.4,2.2-0.9,4.3-1.4,6.5C127.5,71.2,130.4,72,130.9,70.1L130.9,70.1z"/>
		</g>
	</g>
	<g>
		<g>
			<path class="st3" d="M116.5,59c0.6,1.3,0.9,2.7,2.1,3.6c1.7,1.2,4.2,0.4,5.4-1.1c0.7-0.8,1.2-1.7,1.9-2.5c0.3-0.4,0.7-0.8,1-1.1
				c0.2-0.2,0.7-0.7,1.1-0.7c0.8,0,0.2,1.9,0.2,2.3c-0.2,1.2-0.2,2.5-0.3,3.7c-0.1,1.3-0.2,2.7-0.1,4c0.1,1,0.3,2.1,1.1,2.9
				c0.7,0.7,1.7-0.4,1.1-1.1c-0.6-0.6-0.6-1.6-0.7-2.4c-0.1-1.2,0-2.5,0.1-3.7c0.1-1.2,0.1-2.4,0.3-3.6c0.2-1,0.5-2.1-0.1-3
				c-0.6-0.9-1.7-1-2.5-0.5c-0.9,0.5-1.6,1.3-2.3,2.1c-0.7,0.8-1.3,1.7-1.9,2.5c-0.6,0.7-1.7,1.2-2.7,1.1c-1.5-0.2-1.9-2.2-2.4-3.4
				C117.4,57.4,116.1,58.2,116.5,59L116.5,59z"/>
		</g>
	</g>
	<g>
		<g>
			<path class="st3" d="M80.3,57.6c-0.8,0.4-1.7,1.6-2.6,1.5c-1.2-0.1-2.3-1.5-3.2-2.2c-1-0.9-2.1-1.8-3.1-2.7
				c-0.7-0.6-1.7-1.3-2.7-1.3c-2.1-0.1-2.1,2.6-2.3,4c-0.3,2.7-1.3,5.2-1.7,7.9c-0.1,0.9,1.3,1.4,1.4,0.4c0.4-2.5,1.2-4.9,1.6-7.4
				c0.1-0.9,0.1-1.9,0.4-2.8c0.1-0.3,0.1-0.5,0.4-0.6c0.4-0.1,1,0.4,1.3,0.6c2.1,1.4,3.8,3.5,5.8,4.9c0.8,0.6,1.9,1,2.8,0.7
				c0.9-0.3,1.6-1.2,2.5-1.6C81.9,58.5,81.1,57.2,80.3,57.6L80.3,57.6z"/>
		</g>
	</g>
	<g>
		<g>
			<path class="st3" d="M68.8,53c-0.7-1-1.2-2.2-1.3-3.5c0-0.2-0.2-0.4-0.4-0.4c-0.2,0-0.4,0.2-0.4,0.4c0.1,1.4,0.6,2.7,1.4,3.9
				c0.1,0.2,0.3,0.2,0.5,0.1C68.8,53.4,68.9,53.2,68.8,53L68.8,53z"/>
		</g>
	</g>
	<g>
		<g>
			<path class="st3" d="M70.2,53.9c-0.3-1.4-0.6-2.9-0.9-4.3c-0.1-0.5-0.8-0.3-0.7,0.2c0.3,1.4,0.6,2.9,0.9,4.3
				C69.5,54.6,70.3,54.4,70.2,53.9L70.2,53.9z"/>
		</g>
	</g>
	<g>
		<g>
			<path class="st3" d="M71.6,54.6c-0.3-1.2-0.4-2.5-0.3-3.7c0-0.2-0.2-0.4-0.4-0.4c-0.2,0-0.4,0.2-0.4,0.4c-0.1,1.3,0,2.6,0.3,3.9
				C71,55.3,71.7,55.1,71.6,54.6L71.6,54.6z"/>
		</g>
	</g>
	<g>
		<g>
			<path class="st3" d="M72.9,56.1c-0.2-1.5-0.3-3-0.3-4.5c0-0.5-0.7-0.5-0.8,0c0,1.6,0.1,3.1,0.3,4.7c0,0.2,0.3,0.3,0.5,0.3
				C72.8,56.5,72.9,56.3,72.9,56.1L72.9,56.1z"/>
		</g>
	</g>
	<g>
		<g>
			<path class="st3" d="M74.2,57.3c-0.2-1.4-0.2-2.8,0.1-4.1c0.1-0.5-0.6-0.7-0.7-0.2c-0.3,1.5-0.4,3-0.1,4.5c0,0.2,0.3,0.3,0.5,0.3
				C74.2,57.7,74.3,57.5,74.2,57.3L74.2,57.3z"/>
		</g>
	</g>
	<g>
		<g>
			<path class="st3" d="M75.4,58.2c-0.2-1.3-0.1-2.6,0.3-3.9c0.1-0.5-0.6-0.7-0.7-0.2c-0.4,1.4-0.5,2.8-0.3,4.3
				c0,0.2,0.3,0.3,0.5,0.3C75.4,58.6,75.5,58.4,75.4,58.2L75.4,58.2z"/>
		</g>
	</g>
	<g>
		<g>
			<path class="st3" d="M76.5,59.3c0-1.2,0.2-2.4,0.6-3.6c0.1-0.2-0.1-0.4-0.3-0.5c-0.2-0.1-0.4,0.1-0.5,0.3
				c-0.4,1.2-0.7,2.5-0.6,3.8C75.8,59.8,76.6,59.8,76.5,59.3L76.5,59.3z"/>
		</g>
	</g>
	<g>
		<g>
			<path class="st3" d="M77.5,59.4c0.1-1.1,0.4-2.3,0.9-3.3c0.1-0.2,0.1-0.4-0.1-0.5c-0.2-0.1-0.4-0.1-0.5,0.1
				c-0.5,1.2-0.9,2.4-1,3.7c0,0.2,0.2,0.4,0.4,0.4C77.4,59.8,77.5,59.6,77.5,59.4L77.5,59.4z"/>
		</g>
	</g>
	<g>
		<g>
			<path class="st3" d="M67.6,54.3c-0.8-1-1.6-2-2.4-3c-0.1-0.2-0.4-0.1-0.5,0c-0.2,0.2-0.1,0.4,0,0.5c0.8,1,1.6,2,2.4,3
				c0.1,0.2,0.4,0.1,0.5,0C67.8,54.7,67.8,54.4,67.6,54.3L67.6,54.3z"/>
		</g>
	</g>
	<g>
		<g>
			<path class="st3" d="M67.3,56.3c-0.3-0.3-0.6-0.6-0.9-1c-0.1-0.2-0.3-0.3-0.4-0.5c0,0-0.1-0.1,0,0c0,0,0,0,0-0.1
				c0,0-0.1-0.1-0.1-0.1c-0.1-0.1-0.1-0.2-0.2-0.3c-0.1-0.2-0.3-0.3-0.5-0.1c-0.2,0.1-0.3,0.3-0.1,0.5c0.5,0.8,1.1,1.5,1.8,2.1
				c0.1,0.1,0.4,0.2,0.5,0C67.4,56.7,67.4,56.4,67.3,56.3L67.3,56.3z"/>
		</g>
	</g>
	<g>
		<g>
			<path class="st3" d="M67.2,58.5c-0.6-0.7-1.2-1.4-1.8-2c-0.1-0.1-0.4-0.1-0.5,0c-0.1,0.2-0.1,0.4,0,0.5c0.6,0.7,1.2,1.4,1.8,2
				c0.1,0.1,0.4,0.1,0.5,0C67.4,58.8,67.4,58.6,67.2,58.5L67.2,58.5z"/>
		</g>
	</g>
	<g>
		<g>
			<path class="st3" d="M66.7,60.1c-1-0.8-1.9-1.6-2.7-2.6c-0.1-0.2-0.4-0.1-0.5,0c-0.2,0.2-0.1,0.4,0,0.5c0.8,0.9,1.7,1.8,2.7,2.6
				c0.2,0.1,0.4,0.2,0.5,0C66.8,60.5,66.9,60.2,66.7,60.1L66.7,60.1z"/>
		</g>
	</g>
	<g>
		<g>
			<path class="st3" d="M128.8,56.8c0.5-1.5,0.8-3,0.9-4.6c0-0.5-0.7-0.5-0.8,0c-0.1,1.5-0.4,3-0.9,4.4
				C127.9,57.1,128.6,57.3,128.8,56.8L128.8,56.8z"/>
		</g>
	</g>
	<g>
		<g>
			<path class="st3" d="M127.9,57c0-1.4,0.1-2.7,0.1-4.1c0-0.5-0.7-0.5-0.8,0c0,1.4-0.1,2.7-0.1,4.1C127.1,57.5,127.8,57.5,127.9,57
				L127.9,57z"/>
		</g>
	</g>
	<g>
		<g>
			<path class="st3" d="M126.7,57.5c0.1-1.6,0-3.1-0.2-4.7c0-0.2-0.3-0.3-0.5-0.3c-0.2,0.1-0.3,0.3-0.3,0.5c0.3,1.5,0.3,3,0.2,4.5
				C125.9,58,126.7,58,126.7,57.5L126.7,57.5z"/>
		</g>
	</g>
	<g>
		<g>
			<path class="st3" d="M125.5,58.6c0-1.5-0.1-3.1-0.3-4.6c0-0.2-0.2-0.4-0.4-0.4c-0.2,0-0.4,0.2-0.4,0.4c0.2,1.5,0.3,3.1,0.3,4.6
				C124.8,59.1,125.5,59.1,125.5,58.6L125.5,58.6z"/>
		</g>
	</g>
	<g>
		<g>
			<path class="st3" d="M124.6,60.1c-0.2-1.8-0.4-3.7-0.7-5.5c-0.1-0.5-0.8-0.3-0.7,0.2c0.3,1.8,0.5,3.5,0.7,5.3
				C123.9,60.6,124.7,60.6,124.6,60.1L124.6,60.1z"/>
		</g>
	</g>
	<g>
		<g>
			<path class="st3" d="M123.7,61.2c-0.3-2-0.7-4-1-5.9c-0.1-0.5-0.8-0.3-0.7,0.2c0.3,2,0.7,4,1,5.9
				C123.1,61.9,123.8,61.7,123.7,61.2L123.7,61.2z"/>
		</g>
	</g>
	<g>
		<g>
			<path class="st3" d="M122.8,61.6c-0.3-1.6-0.6-3.2-0.9-4.9c-0.1-0.5-0.8-0.3-0.7,0.2c0.3,1.6,0.6,3.2,0.9,4.9
				C122.2,62.3,122.9,62.1,122.8,61.6L122.8,61.6z"/>
		</g>
	</g>
	<g>
		<g>
			<path class="st3" d="M121.4,61.9c-0.5-1.5-0.8-3.1-1.1-4.6c0-0.2-0.3-0.3-0.5-0.3c-0.2,0.1-0.3,0.3-0.3,0.5
				c0.3,1.6,0.6,3.1,1.1,4.6C120.8,62.5,121.6,62.3,121.4,61.9L121.4,61.9z"/>
		</g>
	</g>
	<g>
		<g>
			<path class="st3" d="M119.6,61.1c-0.5-0.8-0.7-1.8-0.6-2.8c0-0.2-0.2-0.4-0.4-0.4c-0.2,0-0.3,0.2-0.4,0.4
				c-0.1,1.1,0.1,2.2,0.7,3.2C119.2,61.9,119.9,61.5,119.6,61.1L119.6,61.1z"/>
		</g>
	</g>
	<g>
		<g>
			<path class="st3" d="M129.6,58.2c0.3-0.6,0.6-1.2,0.9-1.8c0.1-0.2,0-0.4-0.1-0.5c-0.2-0.1-0.4,0-0.5,0.1
				c-0.3,0.6-0.6,1.2-0.9,1.8c-0.1,0.2,0,0.4,0.1,0.5C129.3,58.5,129.5,58.4,129.6,58.2L129.6,58.2z"/>
		</g>
	</g>
	<g>
		<g>
			<path class="st3" d="M129.4,60.4c0.1-0.2,0.2-0.4,0.3-0.6c0.1-0.1,0.1-0.2,0.2-0.3c0,0,0,0,0,0c0,0,0-0.1,0.1-0.1
				c0,0,0.1-0.1,0.1-0.1c0.1-0.2,0.3-0.3,0.5-0.5c0,0,0.1-0.1,0.1-0.1c0,0,0.1,0,0.1-0.1c0,0,0,0,0,0c0.1-0.1,0.2-0.1,0.3-0.2
				c0.2-0.1,0.2-0.3,0.1-0.5c-0.1-0.2-0.3-0.2-0.5-0.1c-0.8,0.6-1.5,1.3-2,2.2c-0.1,0.2-0.1,0.4,0.1,0.5
				C129.1,60.6,129.3,60.6,129.4,60.4L129.4,60.4z"/>
		</g>
	</g>
	<g>
		<g>
			<path class="st3" d="M129.3,63.3c0-0.1,0.1-0.2,0.1-0.4c0,0,0-0.1,0-0.1c0-0.1,0,0,0,0c0-0.1,0.1-0.1,0.1-0.2
				c0.1-0.2,0.3-0.5,0.4-0.7c0,0,0,0,0,0c0,0,0,0,0.1-0.1c0,0,0.1-0.1,0.1-0.1c0.1-0.1,0.2-0.2,0.3-0.3c0.2-0.2,0.4-0.3,0.6-0.4
				c0.2-0.1,0.2-0.3,0.1-0.5c-0.1-0.2-0.3-0.2-0.5-0.1c-1,0.6-1.8,1.6-2.1,2.7c-0.1,0.2,0.1,0.4,0.3,0.5
				C129,63.6,129.2,63.5,129.3,63.3L129.3,63.3z"/>
		</g>
	</g>
	<g>
		<g>
			<path class="st3" d="M129.3,65.6c0.6-0.9,1.2-1.8,2-2.6c0.1-0.1,0.1-0.4,0-0.5c-0.1-0.1-0.4-0.2-0.5,0c-0.8,0.9-1.5,1.8-2.1,2.8
				c-0.1,0.2,0,0.4,0.1,0.5C128.9,65.8,129.2,65.7,129.3,65.6L129.3,65.6z"/>
		</g>
	</g>
	<g>
		<g>
			<path class="st3" d="M78.6,59.2c0.2-0.8,0.5-1.5,0.8-2.2c0.1-0.2,0.1-0.4-0.1-0.5c-0.2-0.1-0.4-0.1-0.5,0.1
				c-0.4,0.8-0.7,1.6-0.9,2.4c0,0.2,0.1,0.4,0.3,0.5C78.3,59.5,78.5,59.4,78.6,59.2L78.6,59.2z"/>
		</g>
	</g>
</g>
<g>
	<g>
		<path class="st3" d="M103.8,78.5c-0.2-0.2-0.5-0.2-0.7-0.1c-0.2,0.1-0.3,0.3-0.4,0.5c-0.1,0.2-0.1,0.5,0.1,0.7
			c0.2,0.2,0.4,0.2,0.6,0.2c0.5-0.1,0.7-0.6,0.7-1.1c0-0.4-0.2-0.9-0.7-0.9c0.1,0.2,0.2,0.4,0.3,0.6c0.1-0.1,0.2-0.2,0.3-0.2
			c0,0,0.1-0.1,0.2-0.1c0,0,0.1,0,0.2-0.1c-0.1,0,0,0,0,0c0.1,0,0,0,0,0c0,0,0,0,0,0c0,0,0,0,0,0c0,0,0,0,0,0c0,0,0,0.1,0,0.1
			c0,0,0,0.1,0,0.1c0,0,0,0.1,0,0.1c0,0.1,0,0.1,0,0.1c0,0,0,0.1,0,0c0,0,0,0,0,0c0,0,0,0,0,0c0,0,0,0,0,0c0,0,0,0,0,0c0,0,0,0,0,0
			c0,0,0,0,0,0c0,0,0,0,0,0c0,0-0.1,0,0,0c0,0-0.1,0-0.1,0c0,0,0.1,0,0,0c-0.1,0,0.1,0,0,0c0,0,0,0,0,0c0,0,0,0,0,0c0,0,0,0-0.1-0.1
			c0,0.1,0,0,0,0c0-0.1,0,0,0,0c0,0,0-0.1,0-0.1c-0.2,0.1-0.5,0.1-0.7,0.2c0.1,0.2,0.1,0.4,0.2,0.6c0.1,0.2,0.1,0.4,0.3,0.5
			c0.2,0.2,0.4,0.2,0.6,0.1c0.3-0.1,0.4-0.3,0.4-0.5c0-0.2-0.2-0.4-0.4-0.4c-0.4,0-1,0.1-1.1,0.6c0,0.2,0.1,0.5,0.3,0.6
			c0.2,0.1,0.5,0.1,0.7,0.1c0.4-0.1,0.7-0.2,0.9-0.6c0.1-0.4-0.1-0.9-0.5-1c-0.2-0.1-0.5-0.1-0.7-0.2
			C104.1,78.5,104,78.5,103.8,78.5c0,0.1-0.1,0.1-0.1,0.1c0,0,0,0-0.1,0.1c0,0,0,0,0,0c0,0,0,0,0.1,0c0.1,0,0.1,0,0.2,0c0,0,0,0,0,0
			c0.1,0,0.1,0.1,0.2,0.1c0,0.1,0,0.2,0.1,0.2c0,0,0,0,0,0c0,0,0-0.1,0.1-0.1c0-0.1,0-0.2,0-0.3c0-0.2-0.2-0.3-0.3-0.4
			c-0.2-0.1-0.3-0.1-0.5-0.1c-0.1,0-0.1,0-0.2,0c0,0-0.1,0-0.1,0c0,0-0.1,0-0.1,0c0.1,0.1,0.2,0.2,0.4,0.4c0-0.2,0-0.2,0.1-0.4
			c0-0.1,0-0.1,0.1-0.2c0-0.1,0,0,0,0c0,0,0-0.1,0.1-0.1c0,0,0,0,0,0c0,0,0,0,0,0c0,0,0,0,0,0c0,0,0,0,0,0c0,0,0,0,0,0c0,0,0,0,0,0
			c0,0,0,0,0,0c0.1,0,0.2,0.1,0.3,0.2c0.2,0.1,0.4,0.2,0.5,0c0.1-0.1,0.2-0.4,0-0.5c-0.2-0.2-0.4-0.3-0.6-0.4
			c-0.2-0.1-0.5,0-0.7,0.1c-0.4,0.3-0.5,0.8-0.6,1.3c0,0.2,0.2,0.4,0.4,0.4c0.1,0,0.3,0,0.4-0.1c0,0,0.1,0,0.1,0c0,0,0.1,0,0,0
			c0,0,0,0,0,0c0,0,0,0,0,0c0,0,0,0-0.1-0.1c0-0.1,0-0.1,0-0.2c0,0,0,0.1-0.1,0.1c0,0,0,0,0,0.1c0,0.2,0,0.3,0.1,0.4
			c0.1,0.1,0.4,0.2,0.5,0.1c0,0,0.1,0,0.1-0.1c0,0,0,0,0,0c-0.1,0,0,0,0,0c0.1,0,0.2,0,0.3,0c0,0,0.1,0,0.1,0c0,0,0.1,0,0.1,0
			c0,0,0,0,0.1,0c0,0,0,0,0,0c0,0,0,0,0,0.1c0,0,0,0,0,0c0,0,0,0,0,0c0,0,0,0,0,0c0,0,0,0,0,0c0,0,0,0,0,0c0,0,0,0,0,0c0,0,0,0,0,0
			c0,0,0,0,0,0c0,0,0,0-0.1,0c0,0,0,0,0,0c0,0,0,0-0.1,0c0,0-0.1,0-0.1,0c0,0-0.1,0-0.1,0c0.1,0-0.1,0-0.1,0c0,0-0.1,0,0,0
			c0,0-0.1,0,0,0c0,0,0.1,0.1,0.1,0.1c0,0.1,0,0.1-0.1,0.2c0,0,0,0,0.1,0c0,0,0.1,0,0,0c0,0,0.1,0,0.1,0c0.1,0,0.2,0,0.3,0
			c-0.1-0.1-0.2-0.2-0.4-0.4c0-0.1,0-0.1,0.1-0.2c0,0,0.1,0,0,0c0,0,0,0,0,0c0,0,0,0,0,0c0,0,0,0,0,0c0,0,0,0,0,0c0,0,0,0,0,0
			c0,0,0,0,0,0c0,0,0,0,0,0c0,0,0,0,0,0c0,0,0,0,0,0c0,0,0-0.1,0,0c-0.1-0.2-0.2-0.5-0.2-0.7c-0.1-0.2-0.3-0.3-0.5-0.3
			c-0.2,0.1-0.3,0.3-0.3,0.5c0.1,0.5,0.5,0.9,1,0.8c0.5,0,0.9-0.5,0.9-1c-0.1-0.5-0.4-1.1-0.9-1.1c-0.5,0-0.9,0.3-1.3,0.6
			c-0.3,0.2,0,0.7,0.3,0.6c0.1,0,0,0-0.1,0c0,0,0,0,0,0c0,0,0,0,0,0c0,0,0,0,0,0c0,0,0,0.1,0,0.1c0-0.1,0,0.1,0,0.1
			c0,0.1,0,0.2,0,0.3c0,0,0,0.1,0,0.1c0,0,0,0,0,0.1c0,0,0,0,0,0c0,0,0,0,0,0c0,0,0,0,0,0c0,0,0,0,0.1,0c0,0,0,0,0,0c0,0,0,0,0,0
			c0,0,0,0,0,0c0,0,0,0.1,0,0.1c0,0,0,0,0,0c0,0,0,0,0-0.1c0,0,0-0.1,0-0.1c0,0,0,0,0,0c0,0,0,0,0,0c0,0-0.1,0-0.1,0
			c-0.1-0.1-0.1-0.1-0.1,0c0.1,0.2,0.4,0.1,0.5,0C104,78.9,103.9,78.7,103.8,78.5L103.8,78.5z"/>
	</g>
</g>
<g>
	<g>
		<path class="st3" d="M77.6,80.6c-0.1,0.3-0.1,0.7,0.1,1c0.3,0.3,0.8,0.3,1.1,0c0.1-0.1,0.2-0.3,0.3-0.4c0.1-0.2,0.1-0.4,0.1-0.6
			c0-0.2-0.1-0.5-0.3-0.6c-0.2-0.1-0.4-0.1-0.6-0.2c-0.2,0-0.5,0-0.7,0.2c-0.2,0.2-0.3,0.4-0.2,0.7c0,0.1,0.2,0.2,0.3,0.3
			c0.1,0,0.3,0,0.4-0.2c0.1-0.2,0.2-0.4,0.2-0.6c0-0.2-0.1-0.4-0.2-0.6c-0.3-0.4-0.9-0.2-1.1,0.2c-0.1,0.2-0.2,0.3-0.2,0.5
			c0,0.2,0,0.4,0.1,0.7c0.2,0.3,0.6,0.5,1,0.4c0.4-0.1,0.8-0.3,1-0.7c0.1-0.3-0.1-0.6-0.4-0.6c-0.3,0.1-0.6,0.3-0.7,0.5
			c-0.2,0.4,0.3,0.8,0.6,0.5c0.3-0.3,0.4-0.7,0.5-1.1c0-0.2,0-0.4-0.1-0.5c0,0,0,0,0,0c0,0.1,0,0.2-0.1,0.2c0,0,0,0,0,0c0,0,0,0,0,0
			c0,0,0.1,0,0.1,0c0,0,0.1,0,0.1,0c0,0,0.1,0,0.1,0c0,0,0.1,0,0,0c0.1,0,0.1,0.1,0.2,0.1c0,0,0,0,0,0c0,0,0,0,0,0c0.1,0.1,0,0,0,0
			c0,0,0,0,0,0c0,0,0,0,0,0c0-0.1,0,0,0,0c0,0,0,0,0,0.1c0,0,0,0,0,0.1c0,0,0,0,0,0c-0.1,0.1-0.1,0.1-0.2,0.2c0,0,0,0,0,0
			c0,0,0,0,0,0c0,0,0,0-0.1,0c0,0,0,0,0,0c0,0,0,0,0,0c0,0,0,0,0,0c0,0,0,0,0,0c0,0.1,0.1,0.2,0.1,0.4c-0.1,0.1,0,0,0,0c0,0,0,0,0,0
			c0,0,0,0,0,0c0,0,0,0,0,0c0,0,0,0,0,0c0,0,0.1,0,0.1,0c0.1,0,0,0,0,0c0,0,0.1,0,0.1,0c0,0-0.1,0,0,0c0,0,0,0,0,0c0,0,0,0,0.1,0
			c0,0-0.1,0,0,0c0,0,0,0,0,0c0,0,0,0,0,0c0,0,0,0.1,0,0c0,0,0,0.1,0,0c0,0,0,0,0,0.1c0,0,0,0.1,0,0c0,0,0,0,0,0.1c0,0,0,0.1,0,0
			c0,0,0,0,0,0.1c0,0,0,0,0,0c0,0-0.1,0.1,0,0c0,0,0,0,0,0c0.1,0,0,0,0,0c0,0-0.1,0,0,0c0,0-0.1,0-0.1,0c0,0,0,0,0,0
			c0,0-0.1,0-0.1,0c-0.1,0,0,0,0,0c0,0-0.1,0-0.1,0c-0.1,0,0,0,0,0c0,0,0,0-0.1-0.1c0,0,0,0,0,0c-0.1-0.2-0.3-0.2-0.5-0.1
			c-0.2,0.1-0.2,0.3-0.1,0.5c0.2,0.4,0.7,0.6,1.1,0.5c0.4-0.1,0.7-0.5,0.8-0.9c0-0.4-0.2-0.8-0.7-0.9c-0.2,0-0.4,0-0.6,0.1
			c-0.2,0.1-0.3,0.3-0.4,0.5c0,0.1,0,0.3,0.1,0.4c0.4,0.3,0.9,0.2,1.2-0.1c0.3-0.3,0.6-0.8,0.4-1.2c-0.2-0.3-0.6-0.5-1-0.6
			c-0.2,0-0.5,0-0.7,0.1c-0.1,0.1-0.2,0.2-0.3,0.3c0,0.1,0,0.3,0,0.4c0,0,0,0.1,0,0.1c0,0,0,0,0,0.1c0-0.1,0,0,0,0c0,0,0,0.1,0,0.1
			c0,0,0,0,0,0c0,0,0,0.1,0,0.1c0,0,0,0.1,0,0.1c0,0,0,0,0,0c0,0,0,0.1,0,0.1c0,0,0,0.1-0.1,0.1c0,0,0,0,0,0c0,0,0,0.1-0.1,0.1
			c0.2,0.2,0.4,0.3,0.6,0.5c0,0,0,0,0-0.1c0,0,0,0,0,0c0,0,0,0,0.1,0c0,0,0,0,0,0c0,0,0.1,0,0.1-0.1c-0.1,0,0.1,0,0.1,0
			c-0.1-0.2-0.3-0.4-0.4-0.6c0,0,0,0.1-0.1,0.1c0,0.1,0,0,0,0c0,0,0,0-0.1,0.1c0,0-0.1,0.1,0,0c0,0-0.1,0.1-0.2,0.1c0,0,0,0,0,0
			c0,0-0.1,0-0.1,0c-0.1,0,0.1,0,0,0c0,0-0.1,0-0.1,0c0,0,0.1,0,0,0c0,0-0.1,0-0.1,0c0.1,0,0,0,0,0c0,0,0,0,0,0c0,0,0,0,0,0
			c-0.1-0.1,0,0.1,0,0c0,0,0,0.1,0,0c0,0,0-0.1,0-0.1c0,0,0,0,0,0c0,0,0,0,0,0c0-0.1,0-0.1,0-0.2c0,0,0,0,0,0c0,0,0,0,0,0
			c0,0,0,0,0,0c0,0,0,0,0,0c0,0,0,0,0,0c-0.1,0,0,0,0,0c0,0-0.1,0,0,0c0,0,0,0,0,0c0,0,0,0,0,0c0,0,0,0,0,0c0,0,0,0,0,0c0,0,0,0,0,0
			c0-0.1,0,0,0,0c0,0,0,0,0,0c0,0,0,0,0,0c0,0,0,0.1,0,0.1c0,0,0,0.1,0,0.1c0.2,0,0.5,0.1,0.7,0.1c0-0.1,0,0,0,0c0,0.1,0,0,0,0
			c0,0,0,0,0,0c0,0,0,0,0,0c0,0,0,0,0,0c0,0,0,0,0,0c0.1,0,0.2,0,0.3,0c0,0,0.1,0,0.1,0c0,0,0,0,0,0c0,0,0,0,0-0.1c0-0.1,0-0.1,0,0
			c0,0,0-0.1,0,0c0,0.1,0-0.1,0,0c0,0,0,0,0,0.1c0,0,0,0.1,0,0.1c0,0.1,0,0,0,0c0,0,0,0.1,0,0.1c0,0,0,0,0,0c0,0,0,0,0,0
			c0,0,0,0-0.1,0.1c0,0,0,0,0,0c0,0,0.1,0,0,0c-0.1,0,0,0,0,0c0,0,0,0,0,0c0,0,0,0,0,0c0,0,0,0,0,0c0,0,0,0,0,0c0,0,0,0,0,0
			c0-0.1,0,0,0,0c0,0,0-0.1,0,0c0,0,0-0.1,0-0.1c0,0,0-0.1,0,0c0,0,0-0.1,0-0.1c0-0.1,0-0.1,0.1-0.2c0.1-0.2-0.1-0.4-0.3-0.5
			C77.8,80.2,77.7,80.4,77.6,80.6L77.6,80.6z"/>
	</g>
</g>
<g>
	<g>
		<path class="st3" d="M77.8,80.1c0,0,0-0.1,0-0.1C77.8,80,77.8,80,77.8,80.1c0-0.1,0-0.2,0-0.2c0,0,0,0.1,0,0.1
			c0-0.1,0.1-0.1,0.1-0.2c0,0,0,0.1-0.1,0.1c0,0,0.1-0.1,0.1-0.1c0,0-0.1,0-0.1,0.1c0,0,0.1-0.1,0.1-0.1c0,0-0.1,0-0.1,0
			c0.1,0,0.1,0,0.2-0.1c0,0-0.1,0-0.1,0c0.1,0,0.1,0,0.2,0c0,0-0.1,0-0.1,0c0.1,0,0.1,0,0.2,0c0.1,0,0.2,0,0.3,0
			c0.1,0,0.2-0.1,0.2-0.2c0-0.1,0-0.2,0-0.3c0,0,0-0.1-0.1-0.1c0,0-0.1-0.1-0.2-0.1c-0.3-0.1-0.7-0.1-1,0.1
			c-0.1,0.1-0.3,0.2-0.4,0.4c-0.1,0.2-0.1,0.4-0.1,0.5c0,0.1,0,0.2,0.1,0.3c0.1,0.1,0.2,0.1,0.3,0.1c0.1,0,0.2,0,0.3-0.1
			C77.8,80.3,77.8,80.2,77.8,80.1L77.8,80.1z"/>
	</g>
</g>
<g>
	<g>
		<path class="st3" d="M77.3,80.5c-0.1,0.2-0.2,0.5-0.1,0.7c0,0.2,0.2,0.4,0.4,0.6c0.4,0.3,1,0.1,1.4-0.2c0.1-0.1,0.1-0.1,0.2-0.2
			c0-0.1,0-0.2,0-0.3c-0.1-0.2-0.3-0.3-0.5-0.1c-0.1,0.1-0.2,0.1-0.3,0.2c0,0,0.1,0,0.1,0c-0.1,0-0.2,0.1-0.3,0.1c0,0,0.1,0,0.1,0
			c-0.1,0-0.1,0-0.2,0c0,0,0.1,0,0.1,0c0,0-0.1,0-0.1,0c0,0,0.1,0,0.1,0c0,0-0.1,0-0.1-0.1c0,0,0.1,0,0.1,0.1c0,0-0.1-0.1-0.1-0.1
			c0,0,0,0.1,0.1,0.1c0,0-0.1-0.1-0.1-0.1c0,0,0,0.1,0,0.1c0,0,0-0.1,0-0.2c0,0,0,0.1,0,0.1c0,0,0-0.1,0-0.1c0,0,0,0.1,0,0.1
			c0,0,0-0.1,0-0.1c0,0,0,0.1,0,0.1c0,0,0-0.1,0-0.1c0.1-0.2,0-0.4-0.1-0.5C77.6,80.3,77.4,80.4,77.3,80.5L77.3,80.5z"/>
	</g>
</g>
<g>
	<g>
		<path class="st3" d="M79,80.3c0-0.1,0.1-0.2,0.1-0.3c0,0,0-0.1,0-0.1c0,0,0-0.1,0-0.1c0,0,0-0.1-0.1-0.1c0,0-0.1-0.1-0.1-0.1
			c0,0-0.1,0-0.1,0c-0.1,0-0.1,0-0.2,0c0,0-0.1,0-0.1,0c-0.1,0-0.1,0.1-0.1,0.1c0,0.1-0.1,0.2-0.1,0.3c0,0,0,0.1,0,0.1
			c0,0,0,0.1,0,0.1c0,0,0,0.1,0.1,0.1c0,0,0.1,0.1,0.1,0.1c0,0,0.1,0,0.1,0c0.1,0,0.1,0,0.2,0c0,0,0.1,0,0.1,0
			C78.9,80.4,78.9,80.4,79,80.3L79,80.3z"/>
	</g>
</g>
<g>
	<g>
		<path class="st3" d="M103.5,78.5c0.1-0.1,0.2-0.2,0.3-0.2c0.1,0,0.1-0.1,0.2-0.1c0,0,0,0,0,0c0,0,0,0,0,0c0,0,0.1,0,0.1,0
			c0.1,0,0.1,0,0.2,0c0.1,0-0.1,0,0,0c0,0,0.1,0,0.1,0c0,0,0.1,0,0.1,0c0.1,0-0.1,0,0,0c0,0,0.1,0,0.1,0c0,0,0,0,0,0c0,0,0,0,0,0
			c0,0,0,0,0.1,0c0,0,0,0,0,0c0,0,0,0,0,0c0,0,0,0,0,0c0,0,0,0,0,0c0,0,0,0,0,0c0,0,0,0.1,0,0.1c0,0,0-0.1,0,0c0,0,0,0,0,0.1
			c0-0.1,0-0.1,0,0c0,0,0,0,0,0c0,0,0,0.1,0,0c0,0,0,0,0,0.1c0,0,0,0,0,0c0,0,0,0,0,0c0,0,0,0,0,0c0,0,0,0,0,0c0,0,0-0.1,0,0
			c0,0,0,0,0,0c0,0,0,0,0,0c0,0,0,0,0,0c0.1,0,0.1,0,0,0c0,0,0,0,0,0c-0.2,0-0.3,0.3-0.3,0.5c0.1,0.2,0.3,0.3,0.5,0.3
			c0.5-0.1,0.7-0.8,0.5-1.2c-0.3-0.5-0.9-0.6-1.4-0.5c-0.3,0.1-0.5,0.3-0.8,0.4c-0.2,0.1-0.3,0.3-0.1,0.5
			C103.1,78.5,103.4,78.6,103.5,78.5L103.5,78.5z"/>
	</g>
</g>
<g>
	<g>
		<path class="st3" d="M82.1,87.6c0.5,1,1,2,1.6,3c0.5,0.7,1.1,1.4,2,1.7c2.2,0.5,3.5-2.1,4.4-3.6c-0.4,0.1-0.8,0.1-1.2,0.2
			c1.2,1.3,2.8,3.7,4.9,3.2c2.3-0.5,3-3.3,3.7-5.2c0.4-0.9-0.9-1.6-1.3-0.8c-0.3,0.8-0.7,1.6-1,2.4c-0.3,0.8-0.7,1.7-1.6,2
			c-0.8,0.2-1.4-0.4-1.9-0.9c-0.6-0.6-1.2-1.3-1.8-1.9c-0.3-0.4-0.9-0.2-1.2,0.2c-0.5,0.8-1.7,3.5-3.1,2.8c-0.5-0.3-0.9-0.9-1.2-1.4
			c-0.4-0.8-0.9-1.6-1.3-2.4C82.9,85.9,81.6,86.7,82.1,87.6L82.1,87.6z"/>
	</g>
</g>
<g>
	<g>
		<path class="st3" d="M109.9,82.3c3.3-1.2,6.8-2,10.2-2.3c1-0.1,1-1.6,0-1.5c-3.6,0.4-7.2,1.1-10.6,2.3
			C108.6,81.2,109,82.6,109.9,82.3L109.9,82.3z"/>
	</g>
</g>
<g>
	<g>
		<path class="st3" d="M111.5,85c2.7,0,5.4,0,8.1,0c1,0,1-1.5,0-1.5c-2.7,0-5.4,0-8.1,0C110.5,83.5,110.5,85,111.5,85L111.5,85z"/>
	</g>
</g>
<g>
	<g>
		<path class="st3" d="M73,85.4c-3.9-1-7.8-1.5-11.8-1.6c0,0.5,0,1,0,1.5c0.1,0,0.3,0,0.4,0c1,0,1-1.5,0-1.5c-0.1,0-0.3,0-0.4,0
			c-1,0-1,1.5,0,1.5c3.9,0.1,7.7,0.6,11.4,1.5C73.5,87.1,73.9,85.6,73,85.4L73,85.4z"/>
	</g>
</g>
<g>
	<g>
		<path class="st3" d="M71.5,88.5c-2.3,0.4-4.5,0.7-6.8,1.1c-0.4,0.1-0.6,0.6-0.5,0.9c0.1,0.4,0.5,0.6,0.9,0.5
			c2.3-0.4,4.5-0.7,6.8-1.1c0.4-0.1,0.6-0.6,0.5-0.9C72.3,88.6,71.9,88.4,71.5,88.5L71.5,88.5z"/>
	</g>
</g>
<g>
	<g>
		<path class="st3" d="M108.9,153.6c0,0-0.3-0.4-0.2-0.2c0.1,0.2-0.2-0.4-0.1-0.1c0.1,0.2,0.2,0.5,0.3,0.7c0.6,1.1,2.2,1.2,2.8-0.1
			c0.3-0.7,0.1-1.5,0-2.1c-0.1-0.7-0.1-1.4-0.6-2c-0.6-0.7-1.9-0.5-2.4,0.3c-0.5,0.8-0.1,2,0,2.8c0.1,1.4,0.3,2.8,0.5,4.2
			c0.2,1.9,0.6,3.8,1.3,5.6c0.5,1.3,1.6,2.1,3,2c1.2-0.1,2.3-0.4,3.4-1c1.1-0.6,2.1-1.5,3-2.4c0.4-0.4,0.8-0.8,1.1-1.3
			c0.2-0.2,0.3-0.4,0.5-0.6c0,0,0.1-0.1,0.1-0.1c0,0,0,0,0,0c-0.3,0.3-0.8,0.4-1.3,0.3c-0.2-0.1-0.4-0.3-0.7-0.4
			c-1.6-1.5-0.4-1.4-0.4-1c0,0.3,0.1,0.5,0.2,0.8c0.3,0.5,1.1,0.9,1.7,0.7c0.8-0.3,1.1-1,1.4-1.7c0.4-0.7,0.2-1.6-0.5-2.1
			c-0.7-0.4-1.7-0.2-2.1,0.5c-0.1,0.3-0.3,0.5-0.4,0.8c-0.1,0.2-0.3,0.4,0.1-0.1c0.2-0.1,0.4-0.3,0.7-0.4c0,0,0,0,0,0
			c0.6,0.2,1.1,0.5,1.7,0.7c0,0,0,0,0,0c0.1,0.3,0.1,0.5,0.2,0.8c-0.1-1-0.9-1.8-2-1.5c-0.8,0.2-1.3,1.1-1.9,1.7
			c-1.3,1.5-2.8,3-4.8,3.3c0,0-0.4,0-0.5,0c0,0,0.2,0,0.2,0.1c-0.1-0.3-0.3-1-0.5-1.5c-0.3-0.9-0.5-1.8-0.6-2.7c0.1,0.4,0,0,0-0.1
			s0-0.3-0.1-0.5c0-0.4-0.1-0.7-0.1-1.1c-0.1-0.7-0.2-1.4-0.2-2.1c-0.1-0.7-0.1-1.4-0.2-2.1c0-0.3-0.1-0.6-0.1-0.9
			c-0.1,0.3-0.1,0.5-0.2,0.8c0,0,0,0,0,0c-0.8,0.1-1.6,0.2-2.4,0.3c0,0,0,0,0,0c-0.1-0.2-0.3-0.4-0.4-0.7c0,0,0,0.1,0,0.2
			c0,0.1,0.1,0.3,0,0c-0.1-0.4,0.1,0.4,0.1,0.5c0,0.3,0.1,0.6,0.1,1c0,0.6-0.2,0.4,0.2-0.3c0.2-0.2,0.4-0.4,0.5-0.5c0,0,0,0,0,0
			c0.4-0.1,0.8-0.1,1.2-0.2c0,0,0,0,0,0c0.2,0.1,0.4,0.3,0.7,0.4c-0.1-0.1,0.3,0.4,0.2,0.2c-0.1-0.2,0.1,0.2,0.1,0.2
			c0-0.1-0.1-0.2-0.1-0.3c-0.1-0.3-0.3-0.7-0.6-1c-0.6-0.5-1.5-0.6-2.1,0C108.3,152,108.2,153.1,108.9,153.6L108.9,153.6z"/>
	</g>
</g>
<g>
	<g>
		<path class="st3" d="M50.9,152.2c1.3-0.1,3,1.2,4,2c1.7,1.5,3.5,3.3,5.7,3.9c2.2,0.6,4.7-0.3,5.6-2.4c0.9-2,0.6-4.6,0.6-6.8
			c0-1.9-3-1.9-3,0c0,1.1,0,2.2,0,3.3c0,0.7,0,1.5-0.2,2.1c-0.7,1.7-2.6,0.8-3.7,0.1c-1.6-1.1-2.8-2.5-4.4-3.6
			c-1.3-0.9-3-1.7-4.6-1.6c-0.8,0.1-1.5,0.7-1.5,1.5C49.4,151.5,50.1,152.2,50.9,152.2L50.9,152.2z"/>
	</g>
</g>
<g>
	<g>
		<path class="st2" d="M50.1,106.7c-7.5-4.6-15.4-8.8-21.8-14.8c-1.5-1.4-2.9-2.9-4.2-4.5c-1.2-1.6-2.8-3.6-3.4-5.5
			c-0.1-0.2-0.3-1-0.1-1.2c0.1-0.1,1.1-0.2,1.4-0.3c1.1-0.3,2.3-0.6,3.4-0.9c1.6-0.4,3.2-0.9,4.8-1.4c5.2-1.6,10.3-3.6,15.5-5.4
			c2.4-0.9,4.9-1.7,7.3-2.6c2.2-0.7,4.2-1.4,6.1-2.6c0.8-0.4,1.6-1,2.5-1.2c0.9-0.2,1.7,0.2,2.5,0.3c1.9,0.2,3.8,0,5.7-0.4
			c3.9-0.8,8-2.8,10.7-5.8c0.7-0.8,1.4-1.8,1.5-3c0-0.5-0.1-0.9-0.2-1.3c-0.3-1.9-3.2-1.1-2.9,0.8c0,0.1,0.1,0.2,0.1,0.3
			c0.1,0.2,0.2,0.2,0-0.1c0.1,0.1-0.1,0.4,0,0.2c0.1-0.3-0.2,0.4,0,0.2c0.1-0.1-0.1,0.3-0.2,0.3c-0.3,0.5-0.8,0.9-1.2,1.3
			c-2.8,2.5-6.6,4.1-10.4,4.5c-0.8,0.1-1.7,0.1-2.6,0.1c-0.9-0.1-1.8-0.5-2.8-0.4c-2,0.1-3.7,1.4-5.4,2.3c-2.2,1.2-4.7,1.7-7,2.6
			c-2.5,0.9-5,1.8-7.5,2.7c-4.8,1.7-9.6,3.5-14.5,4.9c-2,0.6-3.9,1.1-5.9,1.6c-0.9,0.3-2.2,0.4-3,1.1c-0.7,0.7-0.9,1.8-0.9,2.7
			c0,2.1,1.5,4.1,2.6,5.8c1.2,1.8,2.5,3.4,4,5c6.9,7.3,16,12.2,24.5,17.4C50.2,110.3,51.7,107.7,50.1,106.7L50.1,106.7z"/>
	</g>
</g>
<g>
	<g>
		<path class="st2" d="M81.7,57.2c2.8-2.2,5.1-4.9,7-7.8c2-3,3.7-6.2,5.9-9.1c1.2-1.6,2.3-3.8,4.6-2.7c1.6,0.8,3.1,1.8,4.5,2.9
			c2.9,2.4,5.4,5.2,7.9,8c2.5,2.8,5,5.7,8.1,7.9c1.6,1.1,3.1-1.5,1.5-2.6c-2.8-2.1-5.1-4.8-7.5-7.4c-2.6-3-5.3-6-8.4-8.4
			c-2.8-2.2-7.1-5.5-10.5-2.5c-1.6,1.4-2.9,3.5-4.1,5.3c-1.1,1.6-2,3.2-3,4.8c-2.2,3.6-4.7,6.9-8,9.6C78.1,56.3,80.2,58.4,81.7,57.2
			L81.7,57.2z"/>
	</g>
</g>
<g>
	<g>
		<path class="st2" d="M47.3,108.1c-3.6,14.6-9,28.6-16.2,41.7c-0.6,1,0.1,2.2,1.3,2.3c6,0.1,12-0.1,18,0c1.9,0,1.9-3,0-3
			c-6-0.1-12,0.1-18,0c0.4,0.8,0.9,1.5,1.3,2.3c7.3-13.4,12.9-27.7,16.5-42.5C50.6,107,47.7,106.2,47.3,108.1L47.3,108.1z"/>
	</g>
</g>
<g>
	<g>
		<path class="st2" d="M66.5,150.8c5.9-2.6,11.9-5.1,17.8-7.7c-0.6-0.1-1.2-0.2-1.8-0.2c1.3,1.5,3.3,2.2,5.2,2.9
			c2.3,0.9,4.7,1.7,7,2.4c4.7,1.4,9.3,2.7,13.8,4.5c1.8,0.7,2.6-2.2,0.8-2.9c-4.2-1.7-8.6-3-12.9-4.3c-2.1-0.6-4.3-1.3-6.3-2.1
			c-1.8-0.6-4.1-1.2-5.4-2.7c-0.5-0.5-1.2-0.5-1.8-0.2c-5.9,2.6-11.9,5.1-17.8,7.7C63.2,149,64.8,151.5,66.5,150.8L66.5,150.8z"/>
	</g>
</g>
<g>
	<g>
		<path class="st2" d="M120,159.1c6.1,3.8,13.1,5.9,20.3,6.2c0.9,0,1.7-1,1.4-1.9c-2.7-8.2-2.2-16.9-3.7-25.3
			c-1.4-7.7-5-14.9-10.3-20.7c-0.4,0.9-0.7,1.7-1.1,2.6c4.3-0.3,8.3-2,12.1-3.9c3.9-1.9,7.7-3.9,11.5-6c7.6-4.2,15-8.9,22.2-13.8
			c4.1-2.9,8.1-5.8,12-8.9c0.5-0.4,0.6-1.3,0.2-1.8c-1.4-2-4-3.2-6.2-4.2c-3.8-1.8-7.7-3.4-11.5-4.9c-8.6-3.4-17.4-6.4-25.9-10
			c-1.8-0.8-3.5-1.6-5.3-2.5c-0.6-0.3-1.3-0.7-1.9-1.1c-0.6-0.4-0.6-0.3-1.1-0.9c-1.4-1.4-3.5,0.8-2.1,2.1c1.9,1.9,4.7,3.1,7.1,4.2
			c3.9,1.8,7.9,3.3,11.9,4.9c8.5,3.3,17.1,6.2,25.4,9.9c1.6,0.7,3.3,1.5,4.8,2.4c0.5,0.3,1.1,0.7,1.6,1c-0.3-0.2,0.3,0.2,0.4,0.4
			c0.1,0.1,0.1,0.2,0.2,0.2c0.3,0.2-0.1-0.1,0,0c0.1-0.6,0.2-1.2,0.2-1.8c-13.2,10.4-27.4,19.4-42.4,27c-4.2,2.1-8.5,4.4-13.3,4.8
			c-1.3,0.1-2,1.6-1.1,2.6c5.2,5.7,8.4,12.7,9.7,20.3c1.3,8.1,0.9,16.5,3.5,24.4c0.5-0.6,1-1.3,1.4-1.9c-6.7-0.3-13.1-2.3-18.8-5.8
			C119.8,155.5,118.3,158,120,159.1L120,159.1z"/>
	</g>
</g>
<g>
	<g>
		<path class="st2" d="M118.9,53.4c-3.1-0.1-4.7,3.1-4.3,5.8c0.2,1.4,1,2.8,1.7,4c0.8,1.3,1.7,2.6,2.6,3.7c1.7,2,3.8,3.5,6.2,4.5
			c2.1,0.9,5,1.3,6.7-0.5c1.8-1.8,1.7-4.9,1.4-7.3c-0.1-0.8-1.1-1.2-1.8-1c-0.9,0.2-1.2,1-1,1.8c0.1,0.7,0.2,1.8,0.1,2.7
			c-0.1,0.4-0.2,0.9-0.3,1.2c-0.2,0.4-0.3,0.5-0.6,0.7c-0.6,0.3-1.7,0.1-2.6-0.2c-1.1-0.3-2.1-0.9-3-1.5c-2.2-1.4-3.6-3.6-5-5.7
			c-0.7-1.1-1.5-2.4-1.4-3.7c0.1-0.8,0.5-1.7,1.4-1.6C120.8,56.4,120.8,53.4,118.9,53.4L118.9,53.4z"/>
	</g>
</g>
<g>
	<g>
		<path class="st2" d="M110.4,151.5c0-0.1,0-0.2,0.1-0.2c-0.1,0.2-0.1,0.2,0,0.1C110.4,151.4,110.3,151.5,110.4,151.5
			C110.5,151.3,110.5,151.3,110.4,151.5c0-0.1,0.4-0.2,0.1-0.1c0.1,0,0.3-0.1,0.4-0.1c0.1,0,0.3-0.1,0.4-0.1c0.2,0,0.2,0,0,0
			c0.1,0,0.2,0,0.3,0c0.3,0,0.7-0.1,1-0.1c0.8-0.1,1.5-0.2,2.3-0.1c1,0.1,1.9,0.4,2.9,0.8c0.7,0.2,1.4,0.5,1.8,1
			c0.1,0.1,0.2,0.2,0.3,0.3c-0.2-0.2,0.1,0.1,0.1,0.1c0.2,0.3,0.4,0.6,0.6,0.8c0.1,0.2,0.2,0.3,0.3,0.5c0.1,0.3,0-0.2,0.1,0.2
			c0,0.2,0.1,0.3,0.1,0.5c0,0.1,0,0.1,0-0.1c0,0.1,0,0.2,0,0.3c0,0.2,0,0.2,0,0.1c0-0.1,0-0.1,0,0.1c-0.1,0.2,0,0.2,0,0
			c0,0.1-0.1,0.2-0.1,0.2c0.1-0.2-0.1,0.1-0.1,0.1c-0.1,0.1-0.2,0.1-0.4,0.3c-1.7,1-0.2,3.6,1.5,2.6c1.6-0.9,2.4-2.5,2-4.3
			c-0.3-1.4-1.2-2.6-2.1-3.7c-1.2-1.5-3.4-2.1-5.2-2.5c-1.7-0.4-3.3-0.3-5-0.1c-1.7,0.2-3.7,0.7-4.1,2.6c-0.2,0.8,0.2,1.6,1,1.8
			C109.3,152.7,110.3,152.3,110.4,151.5L110.4,151.5z"/>
	</g>
</g>
<g>
	<g>
		<path class="st2" d="M53,151.2c1.4-1.7,3.2-4,5.6-4.3c1.2-0.2,2.6,0.4,3.6,1.1c1,0.7,1.8,1.8,2.7,2.7c1.4,1.3,3.5-0.8,2.1-2.1
			c-1.1-1.1-2.1-2.4-3.4-3.2c-1.4-1-3.3-1.6-5-1.5c-3.3,0.3-5.7,2.8-7.7,5.2c-0.5,0.6-0.6,1.5,0,2.1C51.4,151.7,52.5,151.8,53,151.2
			L53,151.2z"/>
	</g>
</g>
</svg>
