<?xml version="1.0" encoding="utf-8"?>
<!-- Generator: Adobe Illustrator 26.3.1, SVG Export Plug-In . SVG Version: 6.00 Build 0)  -->
<svg version="1.1" id="Calque_1" xmlns="http://www.w3.org/2000/svg" xmlns:xlink="http://www.w3.org/1999/xlink" x="0px" y="0px"
	 viewBox="0 0 200 200" style="enable-background:new 0 0 200 200;" xml:space="preserve">
<style type="text/css">
	.st0{fill:#666666;stroke:#666666;stroke-width:0.5;stroke-miterlimit:10;}
	.st1{fill:#E7F4DF;}
	.st2{fill:none;stroke:#E7F4DF;stroke-miterlimit:10;}
	.st3{fill:#666666;}
	.st4{fill:#9999CC;}
	.st5{fill:#79A2D8;}
	.st6{fill:#FFFF66;}
	.st7{fill:#FFFFCC;}
</style>
<g>
	<path class="st0" d="M63.4,93.2c0.8-4.8,1.7-9.1,2.8-13.9c0.2-0.5,0.3-1,0.4-1.6c0.1-0.6,0.1-1.2,0.1-1.7c0.2,0,0.3,0,0.5,0
		c0-0.1,0-0.2,0-0.3c0.9-4.6,2.8-8.9,4.5-13.3c-0.7-3.1,2.6,1,2.1-2.1c-0.5-3.6,3.9-2.9,5.7-6.3c0.7-1.4,2-2.6,3.5-3
		c1.9-0.6,3.3-1.5,3.3-1.5s0.9-5.8,4.1-3.6c15.4-7.8,32-7.7,48.4-2.2c1.4-1.2,7.6,3.8,9.1,2.8c1.6-1.1,2.3-0.7,7.8-0.8
		c2,0,5.4,0.1,7.4,0.7c1.3,0.4,2.5,1.4,2.9,2.7c0.2,0.7,0.3,1.4,0.4,2.1c0.4,2.7-2.9,1.5-2.7,4.3c0.1,2-0.4,0.8-0.5,2.9
		c0.1,0.1,4,6.1,6.3,12.2c0.1,0,0.4,0,0.6,0c0.1,0.4,0.2,0.7,0.4,1.1c0.1,0.2,0.2,0.5,0.3,0.7c0.4,0.8,2.5,3.6,2.6,4.5c0,0,0,0,0,0
		c0,0,0,0,0,0c0,3.9,6,22.3,5.9,22.6c-0.1,0.3-3.7,24.4-12.5,36.6c0,0,0,0,0,0c0.6,1.9-0.5,4.4-0.2,6.4c0.3,1.7,2.4,2.8,2.2,4.6
		c-0.2,1.7-1.5,2.7-3.1,3c-3.4,0.7-6.8-0.6-9.7-2.2c-0.9-0.5-1.8-1.1-2.7-1.7c-16.3,7.1-36.3,11.3-53.2,4.1c-0.1,0-0.3-0.1-0.4-0.2
		c-0.8-0.5-2.1-0.2-3,0.1c-1.3,0.4-2.3,1.1-3.5,1.8c-2.7,1.7-6,4.2-9.3,2.8c-3.1-1.3-4-5-3.9-8c0.1-1,0.2-2,0.4-3.1
		c-2.3-2.7-4.9-5.1-7-7.9c-2.3-3.2-4.2-6.9-5.8-10.5c-2.8-6.1-6.6-22.6-5.9-25.6C62.1,99.1,63.2,94.1,63.4,93.2z"/>
</g>
<g>
	<g>
		<path class="st1" d="M160,140.4c-7,4.3-14.1,8.9-22,11.3c-4,1.2-8.3,1.9-12.5,2.2c-3.8,0.3-7.7,0.2-11.5-0.6
			c-4.6-0.9-9-2.7-13.2-4.9c-1.7-0.9-3.2,1.7-1.5,2.6c7.6,4,15.6,6.3,24.2,5.9c4.5-0.2,9-0.9,13.3-1.9c4.1-0.9,8-2.7,11.7-4.6
			c4.4-2.3,8.7-4.9,12.9-7.5C163.1,142,161.6,139.4,160,140.4L160,140.4z"/>
	</g>
</g>
<g>
	<g>
		<path class="st1" d="M164.3,138.2c-0.3,0.8,0.3,1.7,0.7,2.4c0.1,0.1,0.1,0.2,0.2,0.3c0.1,0.2,0.1,0.1-0.1-0.1
			c-0.1-0.2-0.1-0.2,0,0.1c0,0.6,0.2,1.3,0.3,2c0.3,1.1,0.8,2.2,1.1,3.3c0.3,1.1,0.4,2.3,0.5,3.4c0,0.1,0,0.3,0,0.4
			c0-0.1,0.1-0.3,0.2-0.3c0,0-0.5,0.2-0.5,0.2c-0.5,0.1-1,0.1-1.4,0c-1.1-0.1-2.1-0.6-3-1c-2.1-1.1-4.1-2.5-6-4.1
			c-0.6-0.5-1.5-0.6-2.1,0c-0.5,0.5-0.6,1.6,0,2.1c1.7,1.4,3.5,2.7,5.3,3.9c1.9,1.1,4,2.1,6.2,2.2c1,0,2.1-0.1,3-0.6
			c1.1-0.7,1.3-1.9,1.3-3.1c0-1.1-0.1-2.3-0.4-3.4c-0.3-1-0.7-2-1-3c-0.2-0.5-0.4-1.1-0.4-1.7c-0.1-0.5,0-1-0.2-1.4
			c-0.1-0.3-0.3-0.6-0.4-0.9c-0.1-0.2-0.2-0.3-0.3-0.5c-0.1-0.1-0.1-0.1,0,0c0,0.1,0,0.1,0,0c-0.1-0.2-0.1,0,0,0.6
			c0.3-0.8-0.3-1.6-1-1.8C165.3,136.9,164.5,137.4,164.3,138.2L164.3,138.2z"/>
	</g>
</g>
<g>
	<g>
		<path class="st1" d="M100.6,148.6c-2-1.3-5-0.5-7,0.4c-2.6,1.2-4.8,3.6-7.6,4.2c-2.4,0.5-3.2-1.6-3.5-3.5c-0.4-2-0.5-4-0.6-6.1
			c0-1.1-0.1-2.2,0-3.3c0-0.4,0-0.8,0.1-1.3c0-0.2,0-0.4,0-0.5c0-0.2,0,0.1,0,0.1c0-0.1,0-0.2,0-0.3c0.4-1.9-2.5-2.7-2.9-0.8
			c-0.3,1.7-0.3,3.5-0.2,5.3c0.1,2.3,0.2,4.6,0.6,6.9c0.3,2.2,1,4.5,3,5.8c3,1.9,6.4,0,9-1.6c1.4-0.9,2.7-2,4.3-2.5
			c1-0.3,2.5-0.8,3.4-0.2C100.8,152.2,102.3,149.6,100.6,148.6L100.6,148.6z"/>
	</g>
</g>
<path class="st2" d="M76.6,155.3"/>
<g>
	<g>
		<path class="st1" d="M163.2,58c1.9-2,3.8-4.2,5.1-6.6c0.6-1.1,0.6-2.1,0-3.1c-0.7-1.2-2-1.7-3-2.4c-1.1-0.8-2-1.4-3.4-1.8
			c-1.7-0.4-3.5-0.7-5.2-0.8c-3.2-0.1-6.4,0.5-9.5,1.4c-1.8,0.5-1.1,3.4,0.8,2.9c2.4-0.7,4.9-1.2,7.5-1.3c2.5,0,5.5,0.1,7.5,1.5
			c0.8,0.5,1.6,1,2.4,1.6c0.3,0.2,0.6,0.8,0.6,0.3c0-0.2,0,0.1-0.1,0.2c-0.1,0.1-0.2,0.3-0.3,0.4c-1.2,2-2.8,3.9-4.4,5.6
			C159.7,57.3,161.9,59.4,163.2,58L163.2,58z"/>
	</g>
</g>
<g>
	<g>
		<path class="st1" d="M154.4,77.5C154.4,77.6,154.4,77.6,154.4,77.5C154.3,77.6,154.3,77.6,154.4,77.5
			C154.4,77.6,154.3,77.6,154.4,77.5c0,0.1,0,0.2,0.1,0.2c0,0,0,0,0,0c0,0,0,0,0,0c0,0,0,0.1,0,0c0,0-0.1,0,0,0c0,0,0,0,0,0
			c0,0-0.1,0,0,0c-0.2-0.1-0.2-0.4-0.2-0.5c0,0,0-0.1,0-0.1c0,0,0-0.2,0-0.1c0,0,0,0,0,0c0,0,0,0,0,0c0,0,0,0,0,0c0,0-0.1,0-0.1,0
			c0.2,0,0.3-0.1,0.4-0.3c0-0.2,0-0.3-0.2-0.4c-0.5-0.3-1.1-0.6-1.7-0.4c-0.6,0.2-0.8,0.8-0.8,1.4c0,0.6,0.5,1.1,1.1,1.1
			c0.6,0,1.1-0.6,1.1-1.2c0-0.2-0.1-0.3-0.3-0.4c-0.2,0-0.4,0.1-0.4,0.3c0,0.3-0.1,0.7-0.1,1c0,0,0,0.1,0,0.1c0,0-0.1,0.1,0,0.1
			c0,0,0,0,0,0c0,0,0,0,0,0c0,0,0,0,0,0c0,0,0.1,0,0.1,0.1c-0.1,0.2-0.2,0.3-0.4,0.5c0.1,0,0.3,0,0.4,0c0.1,0,0.1,0,0.2,0
			c0,0,0.1,0,0.1,0c0,0,0,0,0-0.1c-0.1-0.1,0-0.1-0.1-0.1c-0.1,0-0.2,0-0.3,0c-0.1,0-0.2,0-0.3,0c0,0-0.1,0-0.1-0.1c0,0,0-0.1,0,0
			c0,0,0-0.1,0,0c0,0,0-0.1,0-0.1c0,0,0.1-0.1,0.1-0.1c0.2-0.1,0.4-0.2,0.7-0.2c0.1,0,0.1,0,0.3,0.1c0.2,0.1,0.4,0,0.5-0.2
			c0.1-0.1,0.1-0.3,0.1-0.5c0-0.1-0.1-0.1-0.1-0.2c0-0.1,0-0.1,0,0.1c-0.1,0.1-0.1,0.1,0,0c-0.1,0,0.1,0,0,0c0.1,0,0.1,0,0.2,0
			c0.2,0,0.3,0,0.5,0c0.2,0,0.3-0.3,0.3-0.5c-0.1-0.5-0.3-1.1-0.9-1.4c-0.3-0.1-0.6-0.2-0.9-0.1c-0.3,0.1-0.5,0.3-0.7,0.5
			c-0.3,0.4,0.2,0.9,0.5,0.5c0.2-0.2,0.4-0.5,0.7-0.3c0.3,0.2,0.4,0.6,0.5,0.9c0.1-0.2,0.2-0.3,0.3-0.5c-0.1,0-0.3,0-0.5,0
			c-0.2,0-0.4,0.1-0.5,0.2c-0.1,0.1-0.2,0.2-0.3,0.4c0,0.1,0,0.2,0,0.3c0,0.1,0,0.1,0.1,0.2c0.1,0.2,0-0.1,0.1-0.2
			c0.1,0,0.1-0.1,0.2-0.1c0,0,0,0,0,0c0.1,0,0.1,0,0.2,0.1c-0.1-0.1-0.2-0.1-0.3-0.1c-0.2,0-0.3,0-0.5,0c-0.2,0.1-0.5,0.1-0.7,0.2
			c-0.4,0.2-0.7,0.7-0.7,1.2c0.1,0.5,0.6,0.7,1.1,0.7c0.5,0,1.1-0.1,1.2-0.7c0-0.7-0.9-0.8-1.4-0.7c-0.2,0-0.4,0.2-0.4,0.5
			c0.1,0.5,0.8,0.6,1.2,0.2c0.2-0.2,0.2-0.4,0.3-0.7c0-0.3,0.1-0.6,0.1-0.9c-0.2,0-0.5-0.1-0.7-0.1c0,0.1,0,0.2-0.1,0.3
			c-0.1,0.1-0.2,0.1-0.3,0.1c-0.1,0-0.2-0.1-0.2-0.1c-0.1-0.1-0.1-0.3-0.1-0.4c0-0.1,0-0.3,0.1-0.4c0.1-0.1,0.2-0.1,0.3-0.1
			c0.3,0,0.7,0.2,1,0.4c0.1-0.2,0.1-0.5,0.2-0.7c-0.6,0.1-0.7,0.6-0.6,1.1c0.1,0.5,0.3,1.2,1,1.2c0.3,0,0.5-0.1,0.7-0.4
			c0.2-0.2,0.1-0.6,0-0.8c-0.1-0.2-0.4-0.4-0.6-0.5c-0.3-0.1-0.6,0-0.7,0.3C153.5,77.6,154.2,78,154.4,77.5L154.4,77.5z"/>
	</g>
</g>
<g>
	<g>
		<path class="st1" d="M154.4,76.2c-0.6-0.3-1.3-0.6-1.9-0.3c-0.3,0.1-0.6,0.3-0.7,0.6c-0.1,0.3-0.1,0.6,0,0.9
			c0.1,0.3,0.4,0.6,0.8,0.6c0.2,0,0.4-0.2,0.4-0.4c0-0.2-0.2-0.4-0.4-0.4c-0.1,0,0.1,0,0,0c0,0,0,0,0,0c0.1,0,0.1,0,0,0c0,0,0,0,0,0
			c0,0,0,0,0,0c0,0,0,0-0.1-0.1c0,0,0,0.1,0,0c0,0,0-0.1,0-0.1c0,0,0,0,0,0c0,0,0,0,0,0c0,0,0,0,0-0.1c0-0.1,0,0.1,0,0
			c0,0,0-0.1,0-0.1c0,0,0,0,0,0c0,0,0,0,0,0c0,0,0,0,0,0c0,0,0,0,0,0c0,0,0-0.1,0-0.1c0-0.1,0,0,0,0c0,0,0,0,0.1-0.1
			c0.1-0.1-0.1,0,0,0c0,0,0.1,0,0.1,0c0,0,0.1,0,0,0c0.1,0,0.1,0,0.2-0.1c0,0,0.1,0,0,0c0,0,0.1,0,0.1,0c0,0,0.1,0,0.1,0
			c0,0,0.1,0,0.1,0c0.2,0,0.3,0.1,0.5,0.1c0.1,0,0,0,0.1,0c0,0,0.1,0,0.1,0c0.1,0,0.2,0.1,0.2,0.1c0.2,0.1,0.4,0.1,0.5-0.1
			C154.6,76.6,154.6,76.3,154.4,76.2L154.4,76.2z"/>
	</g>
</g>
<g>
	<g>
		<path class="st1" d="M150.6,85.4c-4.6-0.9-9.3-1.2-14-0.9c-1,0.1-1,1.6,0,1.5c4.6-0.3,9.1,0,13.6,0.8
			C151.2,87,151.6,85.6,150.6,85.4L150.6,85.4z"/>
	</g>
</g>
<g>
	<g>
		<path class="st1" d="M149.6,90.2c-3.4,0.6-6.9,1.1-10.3,1.7c-1,0.2-0.5,1.6,0.4,1.4c3.4-0.6,6.9-1.1,10.3-1.7
			C150.9,91.5,150.5,90.1,149.6,90.2L149.6,90.2z"/>
	</g>
</g>
<path class="st2" d="M114.1,110.5"/>
<path class="st2" d="M114.1,110.5"/>
<g>
	<g>
		<g>
			<path class="st1" d="M162.3,142.5c4.4-2.2,7.5-6.1,10-10.2c2.6-4.4,4.7-9.2,6.1-14.2c1.4-5.1,2.2-10.4,2.3-15.7
				c0-1.2,0-2.4-0.1-3.6c0-0.5-0.1-1-0.1-1.5c0-0.3-0.1-0.6-0.1-0.8c0-0.2,0.1,0.3,0,0c-0.1-1-0.3-2-0.6-3
				c-1.5-5.6-3.5-11.1-5.5-16.5c-1.1-3-2-6.1-3.4-9c-1.9-3.9-4.2-7.4-7.1-10.7c-4-4.6-9-8.5-14.4-11.2c-1.7-0.9-3.2,1.7-1.5,2.6
				c4.4,2.2,8.4,5.1,11.8,8.6c2.7,2.7,5,5.7,6.9,9c2,3.4,3.2,6.9,4.5,10.6c1.7,4.9,3.5,9.7,5,14.7c0.4,1.2,0.7,2.4,1,3.6
				c0.3,1.1,0.3,1.2,0.3,2.5c0.3,4.9,0,9.8-0.9,14.6c-1.1,5.6-3,10.9-5.6,16c-2.4,4.6-5.4,9.2-10.2,11.6
				C159,140.7,160.6,143.3,162.3,142.5L162.3,142.5z"/>
		</g>
	</g>
</g>
<g>
	<g>
		<path class="st1" d="M141.1,66.5c0.2-3.8,1.3-7.5,1.8-11.2c0.3-1.6,0-3.2-1.6-4.1c-1.3-0.7-3.1-0.4-4.5-0.2
			c-3.1,0.5-6,1.7-8.4,3.7c-2.5,2-4.3,4.9-5.5,7.8c-0.4,0.9-0.7,1.8-1,2.7c-0.3,0.8-0.7,1.8-0.7,2.6c0,1,0.8,1.9,1.8,1.8
			c1.1-0.1,1.6-1.1,1.3-2.1c-0.2-0.8-1.1-1.2-1.8-1c0,0,0,0-0.1,0c-0.8,0.1-1.2,1.1-1,1.8c0.2,0.8,1,1.2,1.8,1c0,0,0,0,0.1,0
			c-0.6-0.3-1.2-0.7-1.8-1c0,0,0,0.1,0,0.1c0-0.3,0-0.5,0-0.8c0,0,0,0.1,0,0.1c0.3-0.3,0.7-0.7,1-1c0,0-0.1,0-0.1,0
			c0.5,0.1,1,0.3,1.5,0.4c0,0-0.1-0.1-0.1-0.1c0.1,0.4,0.3,0.7,0.4,1.1c0-0.4,0.4-1.5,0.6-2c0.2-0.7,0.5-1.4,0.8-2
			c0.6-1.4,1.3-2.7,2.2-4c1.7-2.4,3.9-4.2,6.7-5.2c1.3-0.5,2.7-0.8,4.2-0.9c0.4,0,1.2-0.2,1.5,0.1c0.3,0.4-0.1,1.3-0.2,1.7
			c-0.6,3.6-1.5,7.2-1.8,10.9C138,68.4,141,68.4,141.1,66.5L141.1,66.5z"/>
	</g>
</g>
<g>
	<g>
		<path class="st1" d="M137.7,53.6c1,0,1-1.5,0-1.5C136.7,52.1,136.7,53.6,137.7,53.6L137.7,53.6z"/>
	</g>
</g>
<g>
	<g>
		<path class="st1" d="M138,53.7c0.8-0.3,1.5,0.4,1.7,1.2c0.1,0.9-0.5,1.7-1.1,2.2c-1.5,1.3-3.7,1.5-5.3,2.6c-2.9,2-3.7,5.7-4.2,9
			c-0.1,0.8,0.9,1.4,1.4,0.6c0.1-0.1,0.1-0.2,0.2-0.3c0.5-0.8-0.8-1.6-1.3-0.8c-0.1,0.1-0.1,0.2-0.2,0.3c0.5,0.2,0.9,0.4,1.4,0.6
			c0.3-2.1,0.7-4.2,1.7-6c0.5-0.9,1.2-1.7,2-2.2c1-0.6,2.2-1,3.2-1.4c1.7-0.7,3.7-2.1,3.7-4.2c0-1.8-1.7-3.6-3.6-3
			C136.7,52.6,137.1,54.1,138,53.7L138,53.7z"/>
	</g>
</g>
<g>
	<g>
		<path class="st1" d="M129,68c0,0.1,0.1,0.1,0.1,0.2c0,0,0,0.2,0,0.1c0,0.1,0,0.1,0,0.2c0,0.2,0,0,0,0.1c0,0.1,0,0.1-0.1,0.2
			c0-0.1,0,0.1,0,0.1c-0.1,0.1-0.1,0.2-0.2,0.3c-0.2,0.3-0.4,0.4-0.7,0.5c-0.1,0-0.2,0.1-0.3,0.1c-0.2,0-0.1,0-0.4,0
			c-0.6,0-1.1-0.3-1.6-0.6c-0.6-0.4-1-1-1.3-1.5c-0.5-0.8-1.8-0.1-1.3,0.8c0.9,1.5,2.5,3.1,4.5,2.9c1.7-0.2,3.6-2,2.8-3.8
			c-0.2-0.4-0.5-0.6-0.9-0.5C129.2,67.2,128.8,67.6,129,68L129,68z"/>
	</g>
</g>
<g>
	<g>
		<path class="st1" d="M135.6,52.5c0.3,2.1,1.1,4.2,2.3,5.9c0.3,0.4,0.9,0,0.6-0.4c-1.2-1.6-2-3.5-2.2-5.5c0-0.2-0.2-0.4-0.4-0.4
			C135.8,52.1,135.6,52.3,135.6,52.5L135.6,52.5z"/>
	</g>
</g>
<g>
	<g>
		<path class="st1" d="M134.2,54.1c-0.1,1.7,0.4,3.3,1.2,4.8c0.2,0.4,0.9,0,0.6-0.4c-0.8-1.3-1.1-2.9-1.1-4.4
			C135,53.6,134.2,53.6,134.2,54.1L134.2,54.1z"/>
	</g>
</g>
<g>
	<g>
		<path class="st1" d="M131.9,55.6c0.4,0.8,0.7,1.7,1.1,2.5c0.2,0.4,0.4,0.8,0.6,1.2c0.2,0.3,0.3,0.5,0.5,0.8
			c0.2-0.2,0.3-0.3,0.5-0.5c0,0,0.1,0.1,0.1,0.1c0,0-0.1-0.1-0.1-0.1c0,0-0.1-0.1-0.1-0.1c0,0-0.1-0.2,0,0c0,0.1,0,0.1,0,0.2
			c0,0,0,0,0,0c-0.2,0.1-0.3,0.2-0.5,0.3c0,0,0,0,0,0c0.5,0.2,0.7-0.6,0.2-0.7c0,0,0,0,0,0c-0.2-0.1-0.4,0.1-0.5,0.3
			c0,0.2,0.1,0.3,0.2,0.5c0.1,0.1,0.2,0.3,0.3,0.4c0.3,0.2,0.7-0.2,0.5-0.5c-0.1-0.3-0.3-0.5-0.5-0.8c-0.2-0.4-0.4-0.8-0.6-1.2
			c-0.4-0.8-0.7-1.6-1.1-2.5c-0.1-0.2-0.4-0.2-0.5-0.1C131.8,55.2,131.8,55.5,131.9,55.6L131.9,55.6z"/>
	</g>
</g>
<g>
	<g>
		<path class="st1" d="M129.8,56.6c0.9,1.6,1.9,3.2,2.9,4.7c0.1,0.2,0.3,0.2,0.5,0.1c0.2-0.1,0.3-0.3,0.1-0.5
			c-1.1-1.5-2.1-3.1-2.9-4.7C130.2,55.8,129.5,56.1,129.8,56.6L129.8,56.6z"/>
	</g>
</g>
<g>
	<g>
		<path class="st1" d="M127.2,57.9c1.1,1.5,2.3,3,3.6,4.3c0.3,0.3,0.9-0.2,0.5-0.5c-1.3-1.3-2.5-2.7-3.5-4.2
			c-0.1-0.2-0.3-0.2-0.5-0.1C127.2,57.4,127.1,57.7,127.2,57.9L127.2,57.9z"/>
	</g>
</g>
<g>
	<g>
		<path class="st1" d="M125.1,61.7c1.3,1.1,2.7,2.2,3.9,3.3c0.4,0.3,0.9-0.2,0.5-0.5c-1.3-1.2-2.6-2.3-3.9-3.3
			c-0.2-0.1-0.4-0.2-0.5,0C125,61.3,125,61.6,125.1,61.7L125.1,61.7z"/>
	</g>
</g>
<g>
	<g>
		<path class="st1" d="M124.9,64.8c1.3,1,2.6,1.9,3.9,2.7c0.4,0.3,0.8-0.4,0.4-0.6c-1.4-0.9-2.7-1.8-3.9-2.7c-0.2-0.1-0.4,0-0.5,0.1
			C124.6,64.5,124.7,64.7,124.9,64.8L124.9,64.8z"/>
	</g>
</g>
<g>
	<g>
		<path class="st1" d="M124,66.6c1.4,1.2,2.9,2.2,4.5,3.1c0.4,0.2,0.8-0.4,0.4-0.6c-1.6-0.8-3-1.8-4.4-3
			C124.2,65.7,123.7,66.3,124,66.6L124,66.6z"/>
	</g>
</g>
<g>
	<g>
		<path class="st1" d="M148.7,45.6c-4.4-3.8-10.6-4.6-16.1-5.5c-3.2-0.5-6.3-1.2-9.5-1.5c-3.7-0.3-7.4-0.2-11.1,0.2
			c-7.1,0.7-14.3,1.5-20.8,4.4C85,45.9,79.4,50,74.5,54.6c-1.9,1.8-3.2,3.6-4.4,6c-0.9,1.9-1.8,3.9-2.8,5.9c-1.3,2.8-1.9,6-2.6,8.9
			c-1.1,4.5-2,9-2.9,13.5c-0.7,3.9-1.3,7.7-1.1,11.7c0.3,8.1,2.2,16.1,5.3,23.6c3.1,7.5,7,14.6,13.8,19.4c1.6,1.1,3.1-1.5,1.5-2.6
			c-5.7-4.1-9-10-11.8-16.3c-2.9-6.3-4.8-13.2-5.5-20.1c-0.4-4.3-0.4-8.4,0.3-12.6c0.7-4.3,1.6-8.6,2.6-12.8
			c0.8-3.4,1.5-6.9,2.6-10.2c0.1-0.2,0.2-0.5,0.2-0.7c0.1-0.2,0.2-0.6,0.1-0.2c0.3-0.7,0.7-1.3,1-2c1-2.2,1.9-4.4,3.2-6.5
			c1.4-2.2,3.8-4,5.8-5.6c2.5-2.1,5.1-3.9,7.9-5.6c2.8-1.6,5.6-3,8.7-3.9c3.2-1,6.6-1.4,9.9-1.9c3.9-0.6,7.9-1,11.9-1.1
			c3.8,0,7.5,0.5,11.3,1.1c3.1,0.5,6.2,0.9,9.2,1.6c2.8,0.7,5.7,1.5,7.9,3.5C148,49,150.2,46.9,148.7,45.6L148.7,45.6z"/>
	</g>
</g>
<g>
	<g>
		<path class="st1" d="M175.7,86.5c-0.2,1-0.3,2-0.5,3c-0.1,0.8-0.2,1.6-0.5,2.3c-0.1,0.1-0.2,0.5-0.4,0.5c-0.2,0-0.5-0.4-0.7-0.5
			c-0.6-0.7-1.1-1.7-1.6-2.5c-0.4-0.6-1.2-0.4-1.4,0.2c-0.3,0.9-0.7,1.9-1,2.9c-0.1,0.4-0.5,1.6-1.1,1.4c-0.7-0.2-1.1-1.5-1.4-2.1
			c-0.4-0.9-0.8-1.9-1.3-2.8c-0.4-0.9-1.7-0.1-1.3,0.8c0.5,1.2,1,2.4,1.6,3.5c0.5,0.9,1.3,2.1,2.4,2.2c1.1,0,1.7-0.9,2.1-1.7
			c0.5-1.2,0.9-2.5,1.4-3.7c-0.5,0.1-0.9,0.1-1.4,0.2c0.8,1.3,2.7,5.2,4.7,3.3c0.7-0.6,0.9-1.7,1.1-2.6c0.3-1.3,0.4-2.6,0.6-3.9
			C177.3,85.9,175.8,85.5,175.7,86.5L175.7,86.5z"/>
	</g>
</g>
<g>
	<g>
		<path class="st3" d="M38,146.9c-1-0.6-2.9-0.1-3.3-1.2c-0.2-0.5-0.2-1.1-0.2-1.6c0.1-0.4,0.2-0.8,0.4-1.2c0.1-0.1,0.5-0.7,0.4-0.9
			c-0.2-0.6-2.4-1-2.9-1.2c-1.3-0.5-2.5-1.2-3.6-2.2c-5-4.4-5.5-12-1.3-17.1c0.4-0.5,1-0.6,1.5-0.5c2.4-2.9,6.6-3.1,10.1-1.9
			c2.2,0.8,4.8,2,6.6,3.6c1.6,1.5,2.4,3.6,3.5,5.4c2.5,4.2,5.8,8,9.7,10.9c1.9,1.4,4,2.5,6.3,2.8c2,0.3,4.1,0.2,6.1,0.2
			c4.5-0.2,9.2-0.3,12.9,2.6c0.7,0.6,0.7,1.9-0.1,2.4c-9.4,5.9-20.8,8.1-31.7,6.5C47.3,152.8,42.6,149.7,38,146.9z"/>
	</g>
	<g>
		<g>
			<g>
				<path class="st1" d="M77.8,139.6c-5.4,2.9-11.5,2.7-16.9-0.2c-2-1.1-3.8-2.4-5.4-4c-1.5-1.5-2.2-2.8-3.2-4.8
					c-1.6-3.2-3.2-6.4-5.8-8.8c-2.5-2.3-5.6-4.1-9-4.8c-3.5-0.7-6.8-0.1-9.5,2.3c-2.4,2.1-3.8,5.1-3.9,8.3
					c-0.3,7.5,5.8,13.2,11.9,16.5c0.1-0.9,0.2-1.8,0.4-2.7c-1.7,0.7-3.7,2.8-4.1,4.7c-0.3,1.4,0.9,2.3,2.1,2.2
					c0.5,0,0.9-0.2,1.4-0.2c0.9-0.1,1.8,0.2,2.7,0.4c4,1.2,7.1,4.2,11.2,5.2c8,2,17,2.1,25,0.3c5.3-1.2,10.4-3.5,14.2-7.5
					c1.3-1.4-0.8-3.5-2.1-2.1c-5.9,6.1-15,7.7-23.2,7.8c-3.6,0-7.2-0.3-10.7-0.9c-1.2-0.2-2.4-0.5-3.6-0.8c-0.4-0.1-0.8-0.2-1.1-0.4
					c0.4,0.2,0,0-0.1-0.1c-0.6-0.4-1.3-0.7-1.9-1.1c-2.9-1.7-5.9-3.4-9.2-3.8c-0.6-0.1-1.3-0.1-2,0.1c-0.1,0-0.4,0-0.4,0.1
					c0.8,0.5,1,1,0.8,1.6c0.1-0.1,0.1-0.2,0.2-0.4c0.4-0.7,1.1-1.9,1.9-2.2c1.1-0.4,1.6-2.1,0.4-2.7c-5-2.7-10.3-7.1-10.4-13.3
					c0-2.9,1.4-5.8,3.9-7.3c2.8-1.8,6.4-1.1,9.3,0.3c3.1,1.5,5.5,3.8,7.3,6.8c1.4,2.4,2.4,5.2,4,7.5c2.2,3.2,5.7,5.7,9.1,7.4
					c6.1,2.9,12.7,2.8,18.7-0.4C81,141.3,79.5,138.7,77.8,139.6L77.8,139.6z"/>
			</g>
		</g>
	</g>
	<g>
		<g>
			<path class="st1" d="M62.5,152.6c1.7-0.9,3-2.3,4.1-3.9c1.2-1.8,2.2-3.7,3.1-5.7c0.2-0.4-0.4-0.8-0.6-0.4
				c-0.9,1.9-1.8,3.7-2.9,5.4c-1,1.6-2.3,3-4,3.9C61.7,152.1,62,152.8,62.5,152.6L62.5,152.6z"/>
		</g>
	</g>
	<g>
		<g>
			<path class="st1" d="M72,143.1c-0.3,2.6-0.2,5.3,0.2,7.9c0.1,0.5,0.8,0.3,0.7-0.2c-0.4-2.6-0.4-5.2-0.1-7.7
				C72.8,142.7,72,142.7,72,143.1L72,143.1z"/>
		</g>
	</g>
	<g>
		<g>
			<path class="st1" d="M73,143.5c1.4,2.6,2.5,5.4,3.3,8.3c0.1,0.5,0.8,0.3,0.7-0.2c-0.8-3-1.9-5.8-3.4-8.5
				C73.5,142.7,72.8,143.1,73,143.5L73,143.5z"/>
		</g>
	</g>
	<g>
		<g>
			<path class="st1" d="M75.1,142.8c1.3,1.8,2.6,3.6,3.9,5.5c0.3,0.4,0.6,0.9,1,1.3c0.2,0.3,0.6,0.6,1,0.4c0.7-0.3,0.1-1.4-0.6-0.9
				c-0.4,0.3,0.2,0.8,0.5,0.5c-0.5,0.1-0.5,0-0.2-0.3c-0.1,0-0.1-0.1-0.2-0.2c-0.1-0.1-0.2-0.3-0.3-0.5c-0.2-0.3-0.4-0.6-0.7-0.9
				c-0.4-0.6-0.8-1.2-1.3-1.8c-0.9-1.2-1.7-2.4-2.6-3.6C75.5,142,74.8,142.4,75.1,142.8L75.1,142.8z"/>
		</g>
	</g>
	<g>
		<g>
			<path class="st1" d="M75.8,142.4c1.3,0.9,2.6,1.9,3.8,2.8c1.1,0.8,2.1,1.6,2.7,2.8c0.2-0.1,0.4-0.3,0.6-0.4
				c-0.1-0.1-0.1-0.2-0.2-0.3c-0.3-0.4-0.9,0-0.6,0.4c0.1,0.1,0.1,0.2,0.2,0.3c0.3,0.4,0.9,0.1,0.6-0.4c-0.6-1.3-1.7-2.2-2.8-3
				c-1.3-1-2.7-2-4-2.9C75.8,141.5,75.4,142.2,75.8,142.4L75.8,142.4z"/>
		</g>
	</g>
	<g>
		<g>
			<path class="st1" d="M69.7,144.5c-0.5,1.6-1.2,3.2-1.9,4.8c-0.6,1.2-1.3,2.4-2.6,3c-0.4,0.2-0.1,0.8,0.4,0.6
				c1.3-0.6,2.2-1.9,2.8-3.2c0.8-1.6,1.4-3.3,2-5.1C70.6,144.2,69.9,144,69.7,144.5L69.7,144.5z"/>
		</g>
	</g>
	<g>
		<g>
			<path class="st1" d="M70.8,143.2c-0.2,1.8-0.4,3.6-0.6,5.4c-0.1,0.9-0.2,1.8-0.3,2.7c-0.1,0.5,0,1.7-0.7,1.9
				c-0.5,0.1-0.3,0.9,0.2,0.7c0.7-0.2,1-0.8,1.1-1.4c0.2-0.9,0.2-1.9,0.3-2.9c0.2-2.2,0.5-4.3,0.7-6.5
				C71.6,142.7,70.9,142.7,70.8,143.2L70.8,143.2z"/>
		</g>
	</g>
	<g>
		<g>
			<path class="st1" d="M74,143.2c1,1.3,1.9,2.6,2.9,3.9c0.4,0.6,0.9,1.1,1.2,1.8c0.2,0.3,0.3,0.6,0.4,1c0,0.2,0.1,0.4,0.1,0.6
				c0,0.1,0,0.1-0.1,0.2c-0.1,0.1-0.1,0.1,0,0.1c-0.4-0.2-0.8,0.4-0.4,0.6c0.7,0.4,1.2-0.5,1.2-1.1c0-0.9-0.5-1.7-0.9-2.4
				c-1.1-1.7-2.4-3.4-3.6-5C74.4,142.5,73.7,142.8,74,143.2L74,143.2z"/>
		</g>
	</g>
	<g>
		<g>
			<path class="st1" d="M72.7,143.9c0.3,1.6,0.6,3.2,0.9,4.8c0.2,1.3,0.4,2.8-0.4,4c-0.3,0.4,0.4,0.8,0.6,0.4
				c0.8-1.2,0.8-2.7,0.6-4.1c-0.3-1.7-0.7-3.5-1-5.2C73.3,143.2,72.6,143.4,72.7,143.9L72.7,143.9z"/>
		</g>
	</g>
	<g>
		<g>
			<path class="st1" d="M67.2,143.1c-1.1,0.3-1.6,1.3-2.1,2.2c-0.6,1-1.3,2-2.1,2.9c-0.8,0.9-1.6,1.7-2.5,2.4
				c-0.5,0.3-0.9,0.6-1.4,0.9c-0.3,0.2-0.6,0.3-0.9,0.4c-0.1,0-0.7,0.3-0.8,0.3c0.1,0.1,0.1,0.1,0.2,0.2c0,0,0-0.1,0-0.1
				c0,0.1,0,0.2,0,0.3c0,0,0,0,0,0c-0.1,0-0.3,0-0.4,0c0,0,0,0,0.1,0c0.4,0.2,0.8-0.4,0.4-0.6c-0.4-0.2-0.9,0.2-0.6,0.7
				c0.3,0.5,1.2,0,1.6-0.1c1.3-0.5,2.4-1.3,3.5-2.2c1.1-0.9,2-2,2.8-3.2c0.4-0.6,0.8-1.2,1.2-1.9c0.3-0.6,0.7-1.3,1.4-1.5
				C67.9,143.7,67.7,143,67.2,143.1L67.2,143.1z"/>
		</g>
	</g>
	<g>
		<g>
			<path class="st1" d="M64.6,143.6c-1.7,2-3.6,3.7-5.8,5.2c-2.2,1.4-4.8,3-7.5,2.9c-0.5,0-0.5,0.7,0,0.8c2.7,0.2,5.5-1.4,7.7-2.8
				c2.3-1.5,4.4-3.3,6.2-5.4C65.5,143.8,64.9,143.3,64.6,143.6L64.6,143.6z"/>
		</g>
	</g>
	<g>
		<g>
			<path class="st1" d="M63.2,143.7c0.5-0.1,0.7-0.4,0.6-0.8c-0.1-0.3-0.4-0.3-0.6-0.2c-2,1.8-4,3.7-6.1,5.5c-1,0.8-2.1,1.6-3.3,2.1
				c-0.7,0.3-1.3,0.5-2,0.7c-0.3,0.1-0.6,0.2-1,0.3c-0.2,0-0.7,0.3-0.9,0.2c0.1,0.1,0.1,0.2,0.2,0.3c0,0.1-0.1,0.1-0.1,0.2
				c-0.1-0.1-0.3-0.1-0.4-0.2c0,0,0,0,0,0.1c0.3,0.4,0.9,0,0.6-0.4c0,0,0,0,0-0.1c-0.1-0.1-0.2-0.2-0.4-0.2
				c-0.4,0.1-0.6,0.5-0.3,0.8c0.4,0.4,1.1,0.1,1.5,0c1.7-0.4,3.3-1,4.8-1.9c1.4-0.9,2.5-2,3.7-3.1c1.4-1.3,2.8-2.5,4.2-3.8
				c-0.2-0.1-0.4-0.1-0.6-0.2c0,0,0.1-0.1,0.1-0.1C62.7,143,62.7,143.7,63.2,143.7L63.2,143.7z"/>
		</g>
	</g>
	<g>
		<g>
			<path class="st1" d="M61.9,141.6c-1.8,2.3-4,4.2-6.5,5.7c-1.2,0.8-2.5,1.4-3.8,2c-0.7,0.3-1.3,0.5-2,0.7c-0.3,0.1-0.7,0.2-1,0.3
				c-0.2,0-0.3,0.1-0.5,0.1c-0.1,0-0.2,0.1-0.3,0.1c-0.2,0-0.2,0.1-0.1,0.4c-0.1,0-0.3,0-0.4,0c0,0,0,0,0.1,0
				c0.4,0.3,0.8-0.4,0.4-0.6c0,0,0,0-0.1,0c-0.1-0.1-0.3-0.1-0.4,0c-0.4,0.2-0.4,0.7-0.1,0.9c0.5,0.3,1.5-0.1,2-0.3
				c1.7-0.5,3.4-1.2,4.9-2c3.2-1.7,6-4,8.3-6.8C62.8,141.8,62.3,141.2,61.9,141.6L61.9,141.6z"/>
		</g>
	</g>
	<g>
		<g>
			<path class="st1" d="M60.5,141.8c-5.1,4-11.4,6.2-17.9,6.3c-0.5,0-0.5,0.8,0,0.8c6.7-0.1,13.2-2.4,18.4-6.5
				C61.4,142,60.9,141.5,60.5,141.8L60.5,141.8z"/>
		</g>
	</g>
	<g>
		<g>
			<path class="st1" d="M59.3,141.1c-2.8,1.7-5.8,3.1-8.9,4.1c-1.5,0.5-3,0.8-4.5,1.1c-0.8,0.2-1.7,0.3-2.5,0.4
				c-0.2,0-2.6,0.2-2.6,0.1c0.1-0.5-0.6-0.7-0.7-0.2c-0.4,1.4,2.1,1,2.8,0.9c2-0.2,3.9-0.5,5.9-1c3.9-1,7.6-2.6,11-4.7
				C60.1,141.4,59.7,140.8,59.3,141.1L59.3,141.1z"/>
		</g>
	</g>
	<g>
		<g>
			<path class="st1" d="M58,140.3c-7.5,2.6-15.4,3.7-23.3,3.3c0.1,0.2,0.2,0.4,0.3,0.6c0.2-0.2,0.4-0.3,0.6-0.5
				c0.4-0.3-0.2-0.8-0.5-0.5c-0.2,0.2-0.4,0.3-0.6,0.5c-0.3,0.2,0,0.6,0.3,0.6c8,0.4,16-0.7,23.5-3.3
				C58.7,140.8,58.5,140.1,58,140.3L58,140.3z"/>
		</g>
	</g>
	<g>
		<g>
			<path class="st1" d="M54.8,137.3c-2.3,1.6-5.7,1.9-8.4,2.2c-3,0.4-6.1,0.5-9.1,0.5c-0.7,0-1.5,0-2.2-0.1c-0.4,0-0.9-0.2-1.2,0
				c-0.4,0.2-0.6,0.8-0.4,1.3c0.6,1.1,2.1-0.4,1.2-1.2c-0.4-0.3-0.9,0.2-0.5,0.5c0.3,0.2,1,0.1,1.4,0.2c0.4,0,0.8,0,1.2,0.1
				c0.9,0,1.9,0,2.8,0c2,0,3.9-0.2,5.9-0.4c1.8-0.2,3.6-0.5,5.3-0.8c1.6-0.3,3.2-0.7,4.5-1.6C55.6,137.7,55.2,137,54.8,137.3
				L54.8,137.3z"/>
		</g>
	</g>
	<g>
		<g>
			<path class="st1" d="M53.2,135.7c-1.6,0.8-3.4,1.1-5.1,1.4c-1.9,0.4-3.7,0.6-5.6,0.8c-1.8,0.1-3.6,0.2-5.4,0.1
				c-0.8,0-1.6-0.1-2.5-0.1c-0.5,0-2.6,0-2.8-0.3c0,0.2,0,0.3-0.1,0.5c-0.1,0-0.1,0-0.2,0c-0.1-0.1-0.2-0.2-0.3-0.4c0,0,0,0,0,0.1
				c0,0.5,0.8,0.5,0.8,0c0,0,0,0,0-0.1c0-0.1-0.1-0.3-0.3-0.4c-0.2,0-0.4,0-0.5,0.1c-0.1,0.1-0.2,0.3-0.1,0.5
				c0.3,0.5,0.9,0.4,1.4,0.5c1.1,0.1,2.2,0.2,3.3,0.3c2.1,0.1,4.1,0.1,6.2,0c2-0.1,3.9-0.4,5.8-0.7c1.9-0.4,3.9-0.7,5.7-1.6
				C54,136.1,53.7,135.5,53.2,135.7L53.2,135.7z"/>
		</g>
	</g>
	<g>
		<g>
			<path class="st1" d="M52.4,134.5c-7.8,1.7-15.9,1.2-23.5-1.4c-0.5-0.2-0.7,0.6-0.2,0.7c7.7,2.6,16,3.1,23.9,1.4
				C53.1,135.1,52.9,134.4,52.4,134.5L52.4,134.5z"/>
		</g>
	</g>
	<g>
		<g>
			<path class="st1" d="M51.2,133.3c0.1,0.2-1.7,0.2-1.9,0.2c-0.5,0-1,0-1.4,0c-1.1,0-2.2-0.1-3.3-0.2c-2.2-0.2-4.5-0.4-6.7-0.9
				c-3.8-0.8-7.5-2.2-10.7-4.6c-0.4-0.3-0.8,0.4-0.4,0.6c4,2.9,8.7,4.4,13.6,5.1c2.6,0.4,5.3,0.5,8,0.6c0.5,0,4.7,0.4,3.5-1.3
				C51.5,132.6,50.9,132.9,51.2,133.3L51.2,133.3z"/>
		</g>
	</g>
	<g>
		<g>
			<path class="st1" d="M51,132.3c-8.4,0.3-16.7-2.8-23-8.4c-0.4-0.3-0.9,0.2-0.5,0.5c6.4,5.8,14.9,8.9,23.5,8.6
				C51.4,133.1,51.4,132.3,51,132.3L51,132.3z"/>
		</g>
	</g>
	<g>
		<g>
			<path class="st1" d="M50.6,130.8c-7.8-0.6-15.2-4.7-19.8-11.1c-0.3-0.4-0.9,0-0.6,0.4c4.8,6.6,12.3,10.8,20.4,11.4
				C51,131.6,51,130.9,50.6,130.8L50.6,130.8z"/>
		</g>
	</g>
	<g>
		<g>
			<path class="st1" d="M34.2,119.7c0.1,1.4,1,2.5,2.1,3.4c1.3,1.1,2.7,2,4.1,3c2.9,2,6,3.8,9.4,4.7c0.3,0.1,0.5-0.2,0.5-0.5
				c-0.1-0.3-0.3-0.6-0.5-0.8c-0.4-0.3-0.9,0.2-0.5,0.5c0.2,0.1,0.3,0.3,0.3,0.5c0.2-0.2,0.3-0.3,0.5-0.5c-3.1-0.8-5.9-2.4-8.5-4.2
				c-1.3-0.9-2.5-1.8-3.7-2.7c-1.2-0.9-2.6-2-2.7-3.6C35,119.2,34.2,119.2,34.2,119.7L34.2,119.7z"/>
		</g>
	</g>
	<g>
		<g>
			<path class="st1" d="M57.7,138.6c-3.7,1.7-7.6,2.8-11.6,3.2c-1.9,0.2-3.8,0.3-5.7,0.2c-0.5,0-5.2-0.7-5.2-0.6
				c-0.1,0.5,0.6,0.7,0.7,0.2c0.5-1.5-1.9-1.6-1.6-0.2c0.2,1,1.6,0.9,2.4,1c1.4,0.2,2.7,0.3,4.1,0.4c6,0.2,11.9-1,17.3-3.5
				C58.5,139.1,58.2,138.4,57.7,138.6L57.7,138.6z"/>
		</g>
	</g>
	<g>
		<g>
			<path class="st1" d="M36.2,118.8c3.2,4.2,7.4,7.5,12.2,9.6c0.4,0.2,0.8-0.5,0.4-0.6c-4.7-2.1-8.8-5.3-11.9-9.4
				C36.5,118,35.9,118.4,36.2,118.8L36.2,118.8z"/>
		</g>
	</g>
</g>
<path class="st4" d="M107.5,59.9c0.5-0.2,1.1-0.3,1.7-0.2c0.1,0,0.2,0,0.4,0c0,0,0.1,0,0.1,0c0.3,0,0.6,0.1,0.8,0.1
	c1,0.2,1.9,0.5,2.8,1c0.2,0.1,0.4,0.3,0.5,0.5c0.2,0.1,0.4,0.2,0.5,0.4c2.2,2.7,4.2,5.6,5.8,8.8c0.3,0.6,0.2,1.5-0.3,1.9
	c2.5,2.8,4.6,6,6.8,9c1.3,1.7,2.5,3.5,3.8,5.1c0.6,0.8,1.3,1.6,1.9,2.4c0.3,0.4,0.6,0.7,0.9,1.1c0.1,0.1,0.3,0.3,0.4,0.4
	c0.9-0.6,2.4-0.2,2.5,1.2c0.1,1.9-2.1,2.9-3.6,1.9c-1.6-1-2.9-2.9-4-4.4c-2.8-3.6-5.4-7.3-8.1-11c-2.2-3-4.6-6.2-8.2-7.5
	c-3.2-1.1-7-2.4-7.3-6.4C104.7,62.3,105.7,60.5,107.5,59.9z"/>
<path class="st4" d="M110.6,134.2C110.6,134.1,110.6,134.1,110.6,134.2c-0.7-0.6-1-1.8,0.1-2.5c0.9-0.5,1.7-1.1,2.6-1.6
	c0,0,0.1-0.1,0.1-0.1c1.3-1,2.6-1.9,3.9-2.9c0.1-0.1,0.2-0.1,0.2-0.1c0.1-0.1,0.2-0.2,0.3-0.3c0.7-0.5,1.4-1,2-1.5
	c0.1-0.3,0.3-0.5,0.6-0.7c0.9-0.5,1.8-1.1,2.7-1.8c0.1-0.1,0.1-0.2,0.3-0.3c0.5-0.4,0.9-0.7,1.4-1c0.5-0.4,1.1-0.7,1.6-1.1
	c0-0.4,0.3-0.8,0.7-1.1c2.1-1.2,4.3-2.4,6-4.1c0.6-0.6,1.1-1.2,1.6-1.9c0.4-0.5,1-0.7,1.5-0.6c1.1-1.3,2.1-2.7,2.8-4.2
	c0.9-1.7,3.5-0.2,2.6,1.5c-2,3.9-5,7.2-8.7,9.6c-1.7,1.5-3.6,2.9-5.7,4c-0.1,0-0.1,0.1-0.2,0.1c0,0,0,0-0.1,0.1
	c-0.9,0.9-1.9,1.7-3,2.3c-0.3,0.3-0.7,0.5-1,0.7c-0.2,0.1-0.4,0.3-0.6,0.4c-0.1,0.2-0.3,0.4-0.5,0.5c-0.8,0.6-1.5,1.2-2.1,1.8
	c0,0.3-0.2,0.6-0.4,0.9c-0.3,0.3-0.5,0.5-0.8,0.8c-0.3,0.2-0.5,0.5-0.8,0.7c-0.2,0.2-0.4,0.3-0.7,0.3c-0.3,0.2-0.6,0.4-0.9,0.6
	c-0.2,0.1-0.3,0.1-0.5,0.2c0.1,0.5,0.1,1-0.3,1.4c-0.9,0.9-1.8,1.9-2.7,2.8c-1.3,1.4-3.4-0.6-2.2-2
	C110.4,134.7,110.4,134.4,110.6,134.2z"/>
<g>
	<path class="st5" d="M59.8,86.4c0.5-2,0.7-3.9,0.5-5.9c-0.2-1.7-0.4-3.2,0.2-4.9c0.6-1.7,1.4-3.4,2.1-5.1c0.7-1.6,1.2-3.4,2.2-4.8
		c1.7-2.4,4.8-2.3,7-3.9c0.6-0.4,1-0.9,1.7-1.2c0.7-0.3,1.5-0.3,2.2-0.3c0.8,0,1.7-0.1,2.5-0.1c0.9-0.2,1.8-0.2,2.7-0.3
		c0.1,0,0.2-0.1,0.3-0.1c0.2,0,0.4,0,0.5,0.1c2,0,4.1,0.4,6.1,0.8c0.5,0,0.9,0,1.4,0c1.8,0,3.5,0.4,5.1,0.9c0.4,0.1,0.6,0.5,0.5,0.8
		c0.4,0.1,0.8,0.2,1.2,0.3c0.4,0.1,0.6,0.6,0.5,0.9c0.7,0.4,1.4,0.8,1.9,1.5c1,1.2,1.4,2.8,1.6,4.4c0.4,4-0.9,7.9-2.1,11.6
		c-1.4,4.5-2.5,9.1-3.3,13.7c-0.1,0.8-1.2,0.6-1.4,0c-0.9-2.8-1-6-3.4-8.1c-2.5-2.2-5.9-2.5-9.1-2.6c-3.3-0.1-6.7-0.2-10,0.4
		c-3.4,0.6-6.7,1.8-10,2.8C60.1,87.5,59.6,86.9,59.8,86.4z"/>
	<path class="st4" d="M59,89.9c0.1-0.1,0.3-0.2,0.4-0.3c-0.3-0.7-0.2-1.5,0.6-1.8c2-0.9,4-1.7,6-2.6c0.6-0.2,1.2-0.1,1.6,0.2
		c0.8-0.4,1.7-0.5,2.7-0.6c1.3-0.1,2.7-0.1,4-0.2c0.9-0.1,1.8-0.2,2.7-0.2c2.4-0.2,4.8-0.3,7,0.6c2.1,0,3.9,0.8,5.3,2.3
		c2.2,2.4,3.5,5.6,3.9,8.9c0,0,0,0,0,0c0.1-0.4,0.4-0.8,0.8-1c1.6-4.6,3-9.3,4.1-14.1c0.5-2.4,1-4.8,1.4-7.3c0.4-2.4,0.7-4.7,0-7.1
		c-0.2-0.5,0-1,0.3-1.3c-0.6-0.7-1.3-1.4-2-1.9c-0.8-0.6-1.6-1.2-2.5-1.7c-0.5-0.2-1-0.4-1.5-0.6c-1.7-0.7-3.4-1-5.2-1.3
		c-1.4-0.2-2.7-1.1-2.4-2.7c0.3-1.4,1.5-2.2,2.8-2.7c1.9-0.7,3.8-1.2,5.7-1.8c1.9-0.4,2.7,2.3,0.8,2.9c-0.1,0-0.1,0.2-0.2,0.4
		c-0.1,0.3-0.2,0.5-0.3,0.8c-0.1,0.3-0.3,0.6-0.5,0.8c0.7,0.5,1.4,0.9,2.1,1.4c1.1,0.5,2.2,1.1,3.3,1.7c1.1,0.6,2.2,1.2,3.2,1.8
		c0.4-0.8,1.2-1.5,1.9-2.1c0,0.7,0.1,1.5,0.3,2.2c0.4,1.4,1.3,3,2.4,4.2c1.3,1.9,2.1,4,2.5,6.2c1,6-0.3,12.2-1.4,18
		c-1.3,6.4-2.7,12.8-2.3,19.4c0.4,6.4,2.5,12.5,3.2,18.8c0.1,0.7,0.1,1.4,0.2,2.1c0,0,0,0,0,0l1.6-0.5c0,0.1,0,0.2,0,0.3
		c0.2,1.6,1,2.8,2,3.6c-0.1,0.1-0.3,0.1-0.5,0.2c-0.1,0.2-0.2,0.3-0.2,0.5c0.1,0.3,0.1,0.8-0.2,1.2c-0.3,0.5-0.7,0.8-1.1,1.2
		c-0.5,0.8-1,1.7-1.5,2.5c-0.4,0.7-1.3,0.8-2,0.5c-0.3,0.2-0.6,0.4-1,0.5c-1.5,0.4-3.4,0.1-4.9,0c-3.4-0.1-6.8-0.3-10.3-0.4
		c-3.2-0.1-6.4,0.3-9.6,0.1c-3.2-0.2-6.2-1.3-9.1-2.4c-2.6-1-5.2-2-7.2-3.9c-2.4-2.3-3.2-5.6-4-8.7c-0.9-3.6-1.6-7.2-2.1-10.9
		c-0.5-3.7-0.7-7.4-0.7-11.1c0-1.9,0.1-3.8,0.2-5.7c0-0.1,0-0.4,0-0.6c-0.2,0-0.3,0-0.5,0c-0.7,0.1-1.3,0.1-1.9-0.1
		c-0.7-0.2-1-0.8-1.1-1.4C55.4,93.8,57,91.5,59,89.9z"/>
	<g>
		<g>
			<path class="st1" d="M108.3,69.8c3.1,7.2,0.8,15.3-0.8,22.6c-0.8,3.7-1.5,7.4-1.7,11.2c-0.2,4.3,0.1,8.5,0.7,12.7
				c0.6,4.9,1.6,9.7,2.6,14.5c0.2,0.9,1.6,0.5,1.4-0.4c-1.8-8.7-3.6-17.5-3.3-26.4c0.3-7.8,3.1-15.2,3.8-23
				c0.4-4.1,0.1-8.2-1.5-12.1C109.3,68.2,108,69,108.3,69.8L108.3,69.8z"/>
		</g>
	</g>
	<g>
		<g>
			<path class="st1" d="M141.4,103.7c0.4,9.6-8.5,15.4-15.3,20.4c-3.6,2.7-7.1,5.6-10.3,8.7c-3,2.9-5.5,6.6-9.2,8.7
				c-0.8,0.5-0.1,1.8,0.8,1.3c2.9-1.7,5.1-4.3,7.3-6.7c2.5-2.8,5.3-5.3,8.2-7.7c5.6-4.6,12.3-8.2,16.5-14.2
				c2.2-3.1,3.6-6.8,3.5-10.6C142.9,102.7,141.4,102.7,141.4,103.7L141.4,103.7z"/>
		</g>
	</g>
	<g>
		<g>
			<path class="st1" d="M106.8,141.7c-8.5-1.4-17.1-0.3-25.6-1.2c-4.2-0.4-8.4-1.4-12.1-3.6c-1.9-1.1-3.6-2.5-5.1-4.2
				c-0.9-0.9-1.1-2.3-1.5-3.5c-0.4-1.4-0.8-2.9-1.1-4.3c-2.5-11.1-2.2-22.5-1.5-33.8c0.2-2.8,0.3-5.7,0.5-8.5
				c0.2-2.8,0.7-5.5,1.2-8.2c0.8-4,2.4-7.9,5.9-10.3c5.6-3.8,12.6-4.3,19.1-5c0.7-0.1,1-0.8,0.5-1.3c-2.8-3.3,6.9-4.6,8.8-4.6
				c1,0,1-1.5,0-1.5c-3.2,0.1-14.2,1.9-9.8,7.2c0.2-0.4,0.4-0.9,0.5-1.3c-6.1,0.6-12.3,1.1-17.9,4c-3.3,1.7-5.7,4.2-7.1,7.6
				c-2.2,5-2.6,10.6-2.9,16c-0.7,11.7-1.5,23.6,0.3,35.3c0.5,2.9,1.1,5.8,1.9,8.6c0.3,1.2,0.6,2.7,1.2,3.8c0.6,1,1.6,1.8,2.5,2.6
				c3.2,2.8,7.1,4.7,11.2,5.6c10,2.3,20.4,0.4,30.5,2C107.4,143.3,107.8,141.8,106.8,141.7L106.8,141.7z"/>
		</g>
	</g>
	<g>
		<g>
			<path class="st1" d="M95.3,54c-1.2,1.3-1.4,3-2.1,4.6c-0.2,0.5,0.3,1,0.7,0.9c3.4,0,6.9,1.7,9.7,3.5c0.8,0.5,1.6-0.8,0.8-1.3
				c-3-2-6.8-3.8-10.5-3.7c0.2,0.3,0.5,0.6,0.7,0.9c0.5-1.3,0.7-2.8,1.7-3.9C97,54.4,96,53.3,95.3,54L95.3,54z"/>
		</g>
	</g>
	<g>
		<g>
			<path class="st1" d="M96.6,54.7c0,0,0.1-0.1,0.1-0.1c0.1-0.1,0.1-0.2,0.2-0.3c0.1-0.1,0.1-0.3,0.2-0.5c0.1-0.3,0.1-0.6,0.1-0.9
				c0,0.1,0,0.1,0,0.2c0-0.1,0-0.3,0.1-0.4c0.1-0.2,0-0.4-0.1-0.6c-0.1-0.2-0.3-0.3-0.4-0.3c-0.2,0-0.4,0-0.6,0.1
				c-0.2,0.1-0.3,0.3-0.3,0.4c-0.1,0.3-0.1,0.7-0.2,1c0-0.1,0-0.1,0-0.2c0,0.2-0.1,0.4-0.1,0.5c0-0.1,0.1-0.1,0.1-0.2
				c0,0.1-0.1,0.1-0.1,0.2c0-0.1,0.1-0.1,0.1-0.2c0,0-0.1,0.1-0.1,0.1c-0.1,0.1-0.2,0.4-0.2,0.5c0,0.2,0.1,0.4,0.2,0.5
				c0.1,0.1,0.3,0.2,0.5,0.2c0.1,0,0.1,0,0.2,0C96.4,54.8,96.5,54.8,96.6,54.7L96.6,54.7z"/>
		</g>
	</g>
	<g>
		<g>
			<path class="st1" d="M83.4,141.4c6.1-1.7,8.1-8.4,7.9-14.1c-0.2-3.8-1.1-7.4-1.5-11.2c-0.3-3.7,0.1-7.3,1.4-10.7
				c1.3-3.3,2.9-6.4,3.8-9.9c1-3.5,1.8-7.1,2.7-10.6c0.9-3.6,2-7.1,2.6-10.8c0.5-3,0.4-6-0.9-8.8c-1.4-3-4.2-4.7-7.3-5.4
				c-3.7-0.9-7.5-1.1-11.3-1.6c-1-0.1-0.9,1.4,0,1.5c3.2,0.4,6.5,0.6,9.7,1.3c2.9,0.5,5.7,1.6,7.2,4.3c1.6,2.8,1.5,6.2,0.9,9.3
				c-0.6,3.3-1.6,6.6-2.4,9.8c-0.8,3.2-1.6,6.5-2.5,9.7c-0.9,3.2-2.1,6.2-3.4,9.3c-1.2,2.8-2,5.7-2.2,8.8c-0.2,3.3,0.4,6.6,1,9.8
				c1,6.1,1.5,15.6-6.2,17.8C82.1,140.3,82.5,141.7,83.4,141.4L83.4,141.4z"/>
		</g>
	</g>
	<g>
		<g>
			<path class="st1" d="M80.5,96.3c-0.5,0.7-0.3,1.6,0.1,2.3c0.3,0.7,1,1.4,0.7,2.2c-0.2,0.7-1,0.6-1.4,0.1
				c-0.6-0.7-0.2-1.6,0.2-2.3c0.3-0.5,0.5-0.9,0.7-1.4c0.2-0.5,0.2-1.1,0.1-1.6c-0.1-0.5-0.8-0.5-0.8,0c0.1,0.5,0,1.1-0.2,1.6
				c-0.2,0.5-0.5,0.9-0.7,1.4c-0.4,0.8-0.6,1.9,0,2.7c0.5,0.6,1.4,0.9,2.1,0.5c0.7-0.4,0.8-1.4,0.6-2.2c-0.3-0.9-1.5-2.1-0.9-3.1
				C81.4,96.3,80.7,95.9,80.5,96.3L80.5,96.3z"/>
		</g>
	</g>
	<g>
		<g>
			<path class="st1" d="M104.1,82.1c-2.1,0.8-4.2,1.8-6.2,2.8c-0.4,0.2-0.1,0.9,0.4,0.6c2-1,4-1.9,6.1-2.8
				C104.7,82.6,104.6,81.9,104.1,82.1L104.1,82.1z"/>
		</g>
	</g>
	<g>
		<g>
			<path class="st1" d="M98.5,81.4c2.1-0.2,4.2-0.8,6.2-1.8c-0.2-0.1-0.4-0.2-0.6-0.3c0,0.9,0,1.8,0,2.7c0,0.5-0.1,1.2,0.3,1.6
				c0.9,1,2.5-0.8,2.9-1.6c0.5-1.1,0.4-2.6-0.8-3.3c-0.5-0.3-1.1-0.3-1.7-0.1c-0.5,0.2-0.9,0.7-0.5,1.2c0.3,0.3,0.9-0.2,0.5-0.5
				c0,0,0,0.1,0,0.1c0,0,0.1-0.1,0.2-0.1c0.1,0,0.1-0.1,0.2-0.1c0.2,0,0.4,0,0.5,0c0.4,0.1,0.7,0.4,0.8,0.7c0.4,0.8,0.1,1.7-0.5,2.3
				c-0.3,0.3-0.6,0.6-0.9,0.7c-0.2,0.1-0.3,0.1-0.4-0.2c0-0.2,0-0.3,0-0.5c0-1,0-2,0-3.1c0-0.3-0.3-0.4-0.6-0.3
				c-1.8,0.9-3.8,1.5-5.8,1.7C98,80.7,98,81.4,98.5,81.4L98.5,81.4z"/>
		</g>
	</g>
	<g>
		<g>
			<path class="st1" d="M109.2,86.8c-1-1.9-0.4-4.2-1.1-6.2c-0.7-2-2.6-3-4.4-3.9c-0.4-0.2-0.8,0.4-0.4,0.6c1.8,0.9,3.7,1.9,4.2,4.1
				c0.5,1.9,0.1,4,1,5.8C108.8,87.6,109.4,87.2,109.2,86.8L109.2,86.8z"/>
		</g>
	</g>
	<g>
		<g>
			<path class="st1" d="M62.8,130.8c3.6,2.1,8.3,4.9,12.7,3.9c2.1-0.5,3.2-2.1,4.4-3.7c1.5-2,3-4.1,4.4-6.2
				c5.5-8.1,10.2-16.8,14.2-25.7c1.1-2.5,2.1-5,3.1-7.5c0.5-1.2,0.9-2.4,1-3.7c0.2-1.5,0.1-3,0.5-4.5c0.1-0.5-0.6-0.7-0.7-0.2
				c-0.5,2.3-0.3,4.6-1,6.8c-0.7,2.1-1.6,4.2-2.5,6.3c-1.8,4.2-3.7,8.4-5.9,12.5c-4.2,8-9,15.8-14.6,22.9c-1.1,1.4-2.2,2.3-4,2.4
				c-1.3,0.1-2.6-0.2-3.9-0.5c-2.6-0.7-5-2.1-7.3-3.5C62.8,129.9,62.4,130.5,62.8,130.8L62.8,130.8z"/>
		</g>
	</g>
	<g>
		<g>
			<path class="st1" d="M103,79.3c0.7-2.5,1.1-5,1.2-7.6c0.1-2.2,0.2-4.6-0.7-6.7c-1.6-3.7-5.8-5-9.4-6c-0.5-0.1-0.7,0.6-0.2,0.7
				c3.5,0.9,7.7,2.2,9.1,5.9c0.7,2,0.7,4.2,0.5,6.3c-0.2,2.4-0.6,4.8-1.2,7.2C102.1,79.6,102.9,79.8,103,79.3L103,79.3z"/>
		</g>
	</g>
	<g>
		<g>
			<path class="st1" d="M64.3,129.2c1.3-0.6,2.6-1.3,4-1.9c-0.2-0.1-0.4-0.3-0.6-0.4c-0.3,1.1-0.7,2.2-1,3.2
				c-0.1,0.5,0.6,0.7,0.7,0.2c0.3-1.1,0.7-2.2,1-3.2c0.1-0.3-0.3-0.6-0.6-0.4c-1.3,0.6-2.6,1.3-4,1.9c-0.2,0.1-0.2,0.3-0.1,0.5
				C63.9,129.3,64.1,129.3,64.3,129.2L64.3,129.2z"/>
		</g>
	</g>
	<g>
		<g>
			<path class="st1" d="M65.3,129.2c0.6,0,1.2-0.1,1.8-0.1c0.2,0,0.4-0.2,0.4-0.4c0-0.2-0.2-0.4-0.4-0.4c-0.6,0-1.2,0.1-1.8,0.1
				c-0.2,0-0.4,0.2-0.4,0.4C65,129,65.1,129.2,65.3,129.2L65.3,129.2z"/>
		</g>
	</g>
	<g>
		<g>
			<path class="st1" d="M71.1,128.3c-0.6-0.1-1.3,0.1-1.8,0.5c-0.6,0.4-1,1.1-0.8,1.8c0.1,0.6,0.7,1,1.2,1c0.6,0,1.1-0.2,1.5-0.6
				c0.5-0.6,0.6-1.4,0.7-2.1c0-0.2-0.2-0.4-0.4-0.4c-0.2,0-0.4,0.2-0.4,0.4c-0.1,0.4-0.2,1-0.4,1.4c0,0.1-0.1,0.1-0.1,0.2
				c0,0-0.1,0.1,0,0c0,0,0,0-0.1,0.1c0,0-0.1,0.1-0.1,0.1c0,0,0,0,0,0c0.1-0.1,0,0,0,0c0,0-0.1,0.1-0.1,0.1c0,0,0,0-0.1,0
				c0.1,0,0,0,0,0c0,0-0.1,0-0.1,0c0,0,0,0-0.1,0c0,0-0.1,0,0,0c-0.1,0-0.2,0-0.3,0c-0.1,0,0.1,0,0,0c0,0,0,0-0.1,0c0,0,0,0-0.1,0
				c0,0-0.1,0-0.1,0c0,0-0.1,0-0.1,0c0,0-0.1-0.1,0,0c0,0,0,0,0,0c0,0,0,0,0,0c0,0-0.1-0.1,0,0c0,0,0,0,0,0c0,0,0-0.1,0-0.1
				c0,0,0,0,0,0c0,0,0-0.1,0-0.1c0-0.1,0,0.1,0,0c0,0,0-0.1,0-0.1c0,0,0-0.1,0-0.1c0,0,0-0.1,0-0.1c0-0.1,0-0.1,0.1-0.2c0,0,0,0,0,0
				c0,0,0-0.1,0-0.1c0,0,0.1-0.1,0.1-0.1c0,0,0-0.1,0,0c0,0,0,0,0.1-0.1c0,0,0.1-0.1,0.1-0.1c0.1-0.1,0.2-0.1,0.3-0.2
				c0.1-0.1,0.2-0.1,0.3-0.1c0.1,0,0.1,0,0.2,0c0,0,0.1,0,0.1,0c-0.1,0,0.1,0,0.1,0c0.1,0,0.3,0,0.4,0c0.2,0,0.4-0.2,0.4-0.4
				C71.5,128.4,71.3,128.3,71.1,128.3L71.1,128.3z"/>
		</g>
	</g>
	<g>
		<g>
			<path class="st1" d="M74.2,129.1c-0.9,0.3-1.9,0.6-2.3,1.6c-0.1,0.4-0.2,0.8,0,1.2c0.2,0.5,0.6,0.8,1.1,0.9
				c0.6,0.1,1.2-0.2,1.7-0.5c0.2-0.1,0.2-0.3,0.1-0.5c-0.1-0.2-0.3-0.2-0.5-0.1c-0.2,0.1-0.3,0.2-0.5,0.3c-0.1,0-0.2,0.1-0.3,0.1
				c-0.1,0-0.2,0-0.3,0c-0.1,0-0.1,0-0.2,0c-0.1,0-0.1,0-0.2-0.1c0.1,0,0,0,0,0c0,0-0.1-0.1-0.1-0.1c0,0,0,0,0-0.1c0,0,0,0,0-0.1
				c0,0,0-0.1,0,0c0,0,0-0.1,0-0.1c0,0,0-0.1,0-0.1c0,0,0-0.1,0,0c0,0,0,0,0,0c0,0,0-0.1,0-0.1c0,0,0,0,0-0.1c0,0,0-0.1,0,0
				c0,0,0-0.1,0-0.1c0-0.1,0-0.2,0.1-0.2c0,0.1,0,0,0,0c0,0,0-0.1,0.1-0.1c0,0,0-0.1,0.1-0.1c0,0,0,0,0,0c0,0,0,0,0.1-0.1
				c0.1-0.1,0.2-0.2,0.4-0.3c0.4-0.2,0.8-0.3,1.2-0.4c0.2-0.1,0.3-0.3,0.3-0.5C74.6,129.1,74.4,129,74.2,129.1L74.2,129.1z"/>
		</g>
	</g>
	<path class="st4" d="M57.1,96c0.2-0.1,0.4-0.2,0.6-0.3c0-0.1,0-0.1,0.1-0.2c0-0.1,0.1-0.1,0.1-0.2c0-0.1,0-0.1,0-0.2
		c0-0.2,0.1-0.3,0.2-0.4c-0.1-0.1-0.2-0.3-0.2-0.5c0-0.2,0.1-0.3,0.1-0.4c0-0.1,0-0.2,0-0.3c0-0.1,0.1-0.1,0.1-0.2c0,0,0,0,0,0
		c0,0,0,0,0,0c0-0.1,0.1-0.2,0.1-0.2c-0.3-0.2-0.3-0.6-0.2-0.9c0-0.1,0-0.2,0-0.3c0.1-0.2,0.1-0.4,0.2-0.6c0.3-1.1,0.8-2,1.6-2.8
		c0.1-0.1,0.2-0.1,0.3-0.2c0.4-0.4,1.2-0.1,1.3,0.5c0.1,0,0.1,0,0.2,0.1c0.3,0.3,0.3,0.6,0.2,1c-0.3,0.6-0.5,1.2-0.7,1.8
		c0.3,0.1,0.6,0.4,0.6,0.8c0.3,0.1,0.5,0.5,0.4,0.8c0.3,0.2,0.5,0.6,0.3,0.9c0.1,0.3,0.1,0.7-0.3,0.9c0,0,0,0-0.1,0c0,0,0,0,0,0
		c0.2,0.4-0.2,0.8-0.5,0.9c-0.3,0.1-0.6,0-0.8-0.3c-0.1,0-0.1,0.1-0.2,0.1c-0.2,0.2-0.5,0.3-0.7,0.5c-0.1,0.1-0.1,0.1-0.2,0.2
		c0,0-0.1,0-0.1,0.1c-0.1,0.1-0.3,0.2-0.4,0.3C59,96.9,58.8,97,58.7,97c-0.3,0.2-0.7,0.3-1,0.4C56.9,97.7,56.4,96.4,57.1,96z"/>
	<g>
		<g>
			<path class="st6" d="M65.8,76.2c1.4-0.1,2.9,0.1,4.2,0.6c0.2,0.1,0.5,0.2,0.7,0.4c0.3,0.4,0.2,1-0.1,1.4c-1,1.5-3.6,1.3-4.7,2.8
				c-0.5,0.6-0.6,1.4-0.8,2.2c-0.1,0.8-0.3,1.6-0.8,2.2c-0.5,0.6-1.5,0.9-2.1,0.4c-0.3-0.2-0.4-0.6-0.6-0.9
				c-0.3-0.8-0.6-1.6-0.9-2.4c-0.1-0.2-0.2-0.5-0.4-0.6c-0.3-0.1-0.6,0-0.9,0.1c-1.5,0.6-3.2,0.6-4.6,0c-0.2-2.5,3.3-4.2,2.9-6.6
				c-0.1-0.7-0.6-1.4-0.8-2.1c-0.2-0.7,0-1.7,0.7-1.9c0.4-0.1,0.7,0.1,1.1,0.2c1,0.4,2,0.8,3,1.2c0.2,0.1,0.4,0.1,0.6,0.1
				c0.2-0.1,0.3-0.2,0.4-0.4c0.8-1.1,1.9-1.9,3.1-2.4c0.2-0.1,0.4-0.2,0.6-0.1c0.5,0.1,0.5,0.9,0.4,1.4c-0.4,1.4-0.7,2.7-1.1,4.1"/>
			<g>
				<path class="st7" d="M65.8,76.9c1.2-0.1,2.9,0,4,0.6c1.1,0.6-0.9,1.5-1.4,1.7c-0.8,0.3-1.7,0.6-2.5,1.1
					c-0.9,0.7-1.3,1.7-1.4,2.8c-0.1,0.5-0.2,1.1-0.4,1.6c-0.2,0.4-0.7,1.1-1.3,0.8c-0.5-0.2-0.6-1.2-0.8-1.7
					c-0.2-0.6-0.4-1.1-0.7-1.7c-0.6-1.2-1.6-0.8-2.6-0.5c-1.3,0.4-2.5,0.3-3.7-0.2c0.2,0.2,0.4,0.5,0.6,0.7c-0.1-1.7,1.7-3,2.4-4.4
					c0.4-0.7,0.6-1.6,0.4-2.4c-0.1-0.6-0.4-1-0.6-1.6c-0.1-0.3-0.5-1.1-0.1-1.4c0.3-0.3,1.6,0.4,1.9,0.6c0.6,0.3,1.3,0.6,1.9,0.8
					c1.3,0.4,1.7-0.6,2.6-1.4c0.4-0.4,0.9-0.8,1.4-1.1c0.2-0.1,0.5-0.3,0.7-0.3C65.9,71,65.9,71,66,71.2c0,0.1,0,0.2-0.1,0.3
					c-0.3,1.4-0.7,2.7-1.1,4.1C64.5,76.6,66,77,66.2,76c0.4-1.3,0.7-2.6,1.1-4c0.2-0.8,0.3-1.8-0.5-2.3c-0.9-0.5-2,0.2-2.7,0.7
					c-0.4,0.3-0.8,0.6-1.2,1c-0.2,0.2-0.4,0.4-0.5,0.5c-0.1,0.1-0.2,0.2-0.2,0.3c-0.2,0.2-0.1,0.2-0.4,0.2c-0.5,0-1.2-0.5-1.6-0.7
					c-0.6-0.2-1.2-0.6-1.9-0.7c-0.9-0.2-1.8,0.2-2.1,1.2c-0.3,1,0,1.8,0.4,2.7c0.4,0.9,0.5,1.6-0.1,2.5c-0.9,1.6-2.6,2.9-2.5,4.9
					c0,0.4,0.2,0.6,0.6,0.7c1.1,0.4,2.2,0.6,3.4,0.4c0.6-0.1,1.1-0.3,1.6-0.4c0.4-0.1,0.3-0.1,0.5,0.2c0.2,0.3,0.3,0.7,0.4,1.1
					c0.4,0.9,0.6,2.1,1.6,2.6c0.8,0.4,1.9,0.1,2.6-0.5c1.6-1.5,0.6-4.3,2.7-5.3c1.5-0.7,3.7-0.9,4.2-2.9c0.7-2.8-4-3-5.7-2.9
					C64.8,75.5,64.8,77,65.8,76.9L65.8,76.9z"/>
			</g>
		</g>
		<g>
			<path class="st6" d="M52.6,65.9c1.2-0.3,2.4-0.4,3.6-0.2c0.2,0,0.4,0.1,0.6,0.2c0.3,0.3,0.3,0.8,0.2,1.2
				c-0.6,1.4-2.7,1.7-3.4,3.1c-0.3,0.6-0.3,1.3-0.3,2c0,0.7,0,1.4-0.3,2c-0.3,0.6-1.1,1-1.7,0.7c-0.3-0.2-0.4-0.4-0.6-0.7
				c-0.4-0.6-0.8-1.2-1.2-1.8c-0.1-0.2-0.2-0.4-0.4-0.4c-0.3-0.1-0.5,0.1-0.7,0.2c-1.1,0.7-2.5,1-3.8,0.8c-0.6-2,2-4,1.3-6
				c-0.2-0.6-0.7-1-1-1.6s-0.3-1.4,0.3-1.7c0.3-0.1,0.6-0.1,0.9,0c0.9,0.2,1.8,0.3,2.7,0.5c0.2,0,0.3,0.1,0.5,0
				c0.2-0.1,0.2-0.2,0.3-0.4c0.5-1,1.2-1.9,2.1-2.5c0.1-0.1,0.3-0.2,0.5-0.2c0.4,0,0.5,0.6,0.5,1.1c-0.1,1.2-0.2,2.4-0.2,3.6"/>
			<g>
				<path class="st7" d="M52.8,66.6c0.6-0.2,1.2-0.2,1.8-0.3c0.3,0,1.5-0.1,1.7,0.2c0.2,0.5-1,1.2-1.3,1.4c-0.6,0.4-1.3,0.7-1.7,1.3
					c-0.6,0.7-0.8,1.6-0.7,2.6c0,0.5,0.1,1,0,1.5c-0.1,0.3-0.3,1-0.8,0.8c-0.3-0.1-0.6-0.8-0.8-1.1c-0.3-0.5-0.6-1-0.9-1.4
					c-0.7-0.8-1.4-0.5-2.2,0c-0.9,0.5-2,0.7-3.1,0.6c0.2,0.2,0.3,0.3,0.5,0.5c-0.2-0.8,0.2-1.5,0.5-2.2c0.3-0.7,0.7-1.5,0.9-2.2
					c0.1-0.8,0-1.6-0.5-2.3c-0.2-0.3-0.6-0.7-0.7-1c-0.1-0.1-0.2-0.4-0.1-0.5c0.1-0.2,0.2-0.1,0.4-0.1c0.6,0.1,1.2,0.2,1.7,0.3
					c0.5,0.1,1,0.3,1.5,0.2c1-0.1,1.2-1.1,1.7-1.8c0.3-0.4,0.7-0.8,1.1-1.2c0.1-0.1,0.2-0.1,0.3-0.2c0.2-0.1,0.1-0.1-0.2-0.1
					c0,0,0,0.4,0,0.4c0,1.2-0.2,2.4-0.2,3.6c-0.1,1,1.4,1,1.5,0c0.1-1.1,0.2-2.2,0.2-3.3c0-0.7,0-1.5-0.7-1.9
					c-0.8-0.5-1.6,0.2-2.2,0.7c-0.7,0.7-1.2,1.4-1.7,2.3c-0.1,0.2,0,0,0.1,0c-0.1,0-0.3-0.1-0.4-0.1c-0.3-0.1-0.5-0.1-0.8-0.2
					c-0.6-0.1-1.1-0.2-1.7-0.3c-0.9-0.1-1.7,0.1-2,1c-0.3,0.7,0,1.5,0.4,2.2c0.5,0.7,1,1.2,0.8,2c-0.4,1.7-1.8,3.1-1.3,5
					c0.1,0.2,0.3,0.5,0.5,0.5c0.9,0.2,1.9,0.2,2.8-0.1c0.5-0.1,0.9-0.3,1.3-0.5c0.1,0,0.6-0.3,0.4-0.4c0.1,0,0.4,0.6,0.4,0.7
					c0.5,0.8,0.9,1.8,1.8,2.2c0.8,0.4,1.7,0.1,2.3-0.5c0.6-0.7,0.7-1.7,0.7-2.6c0-0.9-0.1-1.8,0.7-2.4c1.1-0.9,2.8-1.4,3.1-3
					c0.5-2.8-3.8-2.2-5.4-1.8C51.4,65.4,51.8,66.9,52.8,66.6L52.8,66.6z"/>
			</g>
		</g>
		<g>
			<path class="st6" d="M38.3,65.6c-0.5-0.3-0.7-1.2-1.1-1.8c-0.1-0.2,0-0.5,0.3-0.5c0.5,0,1,0.1,1.5,0.1c0.4,0,0.9-2.4,1.5-3.3
				c0.1-0.2,0.3-0.4,0.5-0.4c0.3,0,0.5,0.2,0.7,0.5c0.5,0.9,0.2,2.1,0.9,2.7c0.3,0.3,0.7,0.5,1.1,0.5c0.6,0.1,1.1,0.3,1.6,0.6
				c0.1,0.1,0.2,0.1,0.2,0.2c0.1,0.2,0,0.4-0.1,0.5c-0.5,0.7-2.7,1.6-2.8,1.9c-0.1,0.1,0,0.3,0,0.4l0.1,2.1c0,0.4-0.2,0.8-0.6,0.8
				c-0.4,0-0.8-0.3-1.1-0.6c-0.4-0.5-0.7-1.5-0.8-2.1c-0.1-0.3-1.4,0.7-1.6,0.8c-0.3,0.2-0.8,0.2-1.1,0.1c-0.3-0.1-0.3-0.4-0.1-0.6
				c0.2-0.3,0.6-1.5,0.9-1.7C38.4,65.7,38.4,65.7,38.3,65.6"/>
			<g>
				<path class="st7" d="M38.8,65c-0.2-0.2-0.4-0.4-0.5-0.7c-0.1-0.1-0.1-0.3-0.2-0.4c0-0.1-0.1-0.2-0.1-0.3
					c-0.1-0.3-0.2-0.2-0.3,0.3c0.1,0.1,0.5,0,0.6,0c0.2,0,0.4,0.1,0.7,0.1c0.3,0,0.5-0.1,0.7-0.3c0.3-0.3,0.4-0.7,0.6-1.1
					c0.2-0.5,0.3-1,0.5-1.5c0.1-0.2,0.2-0.4,0.3-0.6c0,0,0.1-0.2,0.2-0.2c-0.2,0-0.3,0-0.2,0.1c0,0,0,0.1,0,0.1c0,0.3,0.2,0.6,0.2,1
					c0.1,0.3,0.1,0.6,0.2,0.9c0.2,0.7,0.7,1.2,1.4,1.4c0.4,0.2,0.8,0.2,1.2,0.3c0.2,0,0.3,0.1,0.5,0.2c0.1,0.1,0.2,0.1,0.3,0.2
					c0.2,0.1,0.2,0.1,0,0c0-0.1,0-0.3,0-0.4c0,0.2-0.1,0.2-0.3,0.4c-0.2,0.2-0.5,0.3-0.8,0.5c-0.5,0.3-0.9,0.5-1.4,0.8
					c-0.5,0.3-0.6,0.7-0.6,1.3c0,0.4,0,0.7,0,1.1c0,0.3-0.1,0.7,0,1c0,0.1,0,0.1,0,0.1c0,0,0.1-0.1,0.1-0.1c0,0-0.3-0.2-0.4-0.2
					c-0.3-0.3-0.4-0.6-0.5-0.9c-0.2-0.6-0.2-1.5-0.9-1.6c-0.5-0.1-1,0.3-1.4,0.5c-0.2,0.1-0.4,0.3-0.6,0.4c-0.1,0.1-0.2,0.1-0.3,0.1
					c-0.1,0.1-0.2-0.2,0,0.2c0.1,0.3,0.1,0.2,0.2,0.1c0.2-0.2,0.3-0.6,0.4-0.9c0.1-0.3,0.3-0.6,0.4-0.8c0.5-0.8-0.8-1.6-1.3-0.8
					c0.1-0.2-0.1,0.2-0.2,0.3c-0.1,0.1-0.1,0.2-0.2,0.4c-0.1,0.3-0.3,0.6-0.4,0.9c-0.2,0.3-0.3,0.5-0.4,0.9c0,0.4,0.2,0.8,0.6,1
					c0.6,0.3,1.4,0.2,2-0.2c0.2-0.1,0.4-0.3,0.6-0.4c0.1-0.1,0.2-0.1,0.3-0.2c0.1-0.1,0.2-0.1,0.2-0.1c0,0.1-0.7-0.7-0.7-0.4
					c0,0.1,0,0.2,0.1,0.3c0,0.2,0.1,0.3,0.1,0.5c0.1,0.4,0.3,0.8,0.5,1.2c0.4,0.7,1.1,1.3,2,1.3c1.4,0,1.3-1.6,1.3-2.6
					c0-0.3,0.1-0.7,0-1c-0.1-0.3-0.1,0.1-0.2,0.1c0,0,0.1,0,0.2-0.1c0.2-0.1,0.5-0.3,0.7-0.4c0.9-0.5,3.1-1.6,2-2.9
					c-0.6-0.7-1.6-0.8-2.4-1.1c-0.8-0.2-0.9-0.9-1-1.6c-0.1-0.7-0.4-1.6-1.1-1.9c-0.8-0.4-1.5,0.1-1.9,0.8c-0.4,0.6-0.6,1.3-0.8,1.9
					c-0.1,0.2-0.2,0.5-0.3,0.8c0,0,0,0.1-0.1,0.1c-0.1,0.1-0.1,0.1,0,0.1c0,0,0.1-0.1,0.2-0.1c0.1-0.1,0.1-0.1-0.1-0.1
					c-0.1,0-0.1,0-0.2,0c-0.5-0.1-1-0.2-1.5,0.1c-0.4,0.2-0.6,0.7-0.5,1.2c0.1,0.4,0.4,0.9,0.6,1.3c0.2,0.4,0.4,0.7,0.7,1
					c0.3,0.3,0.7,0.3,1.1,0C39.1,65.8,39.1,65.3,38.8,65L38.8,65z"/>
			</g>
		</g>
		<g>
			<path class="st6" d="M52.1,77.6c1.1-0.3,2.2-0.3,3.4-0.2c0.2,0,0.4,0.1,0.6,0.2c0.3,0.3,0.3,0.7,0.2,1.1
				c-0.6,1.4-2.6,1.6-3.2,2.9c-0.3,0.6-0.3,1.2-0.2,1.8c0,0.6,0,1.3-0.3,1.8c-0.3,0.5-1,0.9-1.6,0.6c-0.3-0.1-0.4-0.4-0.6-0.6
				c-0.4-0.6-0.7-1.1-1.1-1.7c-0.1-0.2-0.2-0.3-0.4-0.4c-0.2-0.1-0.5,0.1-0.7,0.2c-1.1,0.7-2.4,0.9-3.6,0.7
				c-0.5-1.9,1.9-3.8,1.2-5.6c-0.2-0.6-0.7-1-1-1.5c-0.3-0.5-0.3-1.3,0.3-1.6c0.3-0.1,0.6-0.1,0.9,0c0.8,0.2,1.7,0.3,2.5,0.5
				c0.2,0,0.3,0.1,0.5,0c0.1-0.1,0.2-0.2,0.3-0.4c0.5-0.9,1.2-1.8,2-2.4c0.1-0.1,0.3-0.2,0.4-0.2c0.4,0,0.5,0.6,0.5,1
				c-0.1,1.1-0.1,2.2-0.2,3.4"/>
			<g>
				<path class="st7" d="M52.3,78.3c0.6-0.1,1.1-0.2,1.7-0.2c0.3,0,1.4-0.1,1.5,0.2c0.3,0.5-1,1.1-1.2,1.3c-0.6,0.3-1.2,0.7-1.6,1.2
					c-0.6,0.7-0.7,1.5-0.7,2.4c0,0.4,0.2,2.4-0.7,2.1c-0.3-0.1-0.6-0.8-0.7-1c-0.3-0.4-0.5-0.9-0.9-1.3c-0.6-0.7-1.4-0.5-2.1-0.1
					c-0.9,0.5-1.9,0.7-2.9,0.5c0.2,0.2,0.3,0.3,0.5,0.5c-0.2-0.7,0.2-1.4,0.5-2c0.3-0.7,0.7-1.4,0.8-2.1c0.1-0.8,0-1.5-0.5-2.2
					c-0.2-0.3-0.5-0.6-0.7-1c0-0.1-0.1-0.3-0.1-0.5c0.1-0.1,0.2-0.1,0.4,0c0.5,0.1,1.1,0.2,1.6,0.3c0.4,0.1,0.9,0.2,1.4,0.2
					c0.9-0.1,1.2-1.1,1.6-1.7c0.3-0.4,0.6-0.8,1-1.1c0.1-0.1,0.2-0.1,0.3-0.2c0.2-0.1,0.1-0.1-0.3-0.2c0,0,0,0.3,0,0.4
					c0,1.1-0.1,2.2-0.2,3.4c-0.1,1,1.4,1,1.5,0c0.1-1,0.1-2.1,0.2-3.1c0-0.7,0-1.5-0.7-1.8c-0.8-0.5-1.5,0.2-2.1,0.7
					c-0.3,0.3-0.6,0.6-0.8,0.9c-0.2,0.2-0.8,0.9-0.8,1.2c0,0.2,0-0.1,0.1,0c-0.1-0.1-0.3-0.1-0.4-0.1c-0.3,0-0.5-0.1-0.8-0.1
					c-0.5-0.1-1.1-0.2-1.6-0.3c-0.8-0.1-1.6,0.1-1.9,1c-0.2,0.7,0,1.5,0.4,2.1c0.4,0.6,0.9,1.1,0.7,1.9c-0.4,1.6-1.7,2.9-1.2,4.7
					c0.1,0.2,0.3,0.5,0.5,0.5c0.9,0.2,1.8,0.1,2.7-0.1c0.4-0.1,0.9-0.3,1.2-0.5c0.2-0.1,0.5-0.2,0.3-0.4c0.2,0.1,0.3,0.5,0.4,0.6
					c0.5,0.7,0.9,1.7,1.7,2.1c0.7,0.4,1.6,0.1,2.2-0.5c0.6-0.6,0.7-1.6,0.7-2.4c0-0.8-0.1-1.7,0.6-2.2c1.1-0.9,2.6-1.3,2.9-2.8
					c0.5-2.7-3.6-2.1-5.1-1.8C50.9,77.1,51.3,78.5,52.3,78.3L52.3,78.3z"/>
			</g>
		</g>
		<g>
			<path class="st6" d="M39.8,77.8c0.1,0.8,0.3,1.6,0.7,2.3c0.1,0.1,0.2,0.3,0.3,0.3c0.2,0.2,0.6,0,0.8-0.1c0.8-0.7,0.4-2.1,1.1-2.8
				c0.3-0.3,0.7-0.5,1.2-0.6c0.4-0.1,0.9-0.3,1.1-0.6s0.4-0.9,0-1.2c-0.2-0.1-0.4-0.2-0.6-0.2c-0.5-0.1-0.9-0.2-1.4-0.3
				c-0.1,0-0.3-0.1-0.4-0.2c-0.1-0.1,0-0.3,0-0.5c0.2-0.9,0.1-1.8-0.4-2.6c-1.4,0.1-2.1,2.1-3.4,2.1c-0.4,0-0.8-0.2-1.2-0.3
				c-0.4-0.1-0.9,0.1-1,0.5c0,0.2,0.1,0.4,0.2,0.6c0.3,0.5,0.6,1,0.9,1.6c0.1,0.1,0.1,0.2,0.1,0.3c0,0.1-0.1,0.2-0.2,0.3
				c-0.5,0.5-0.9,1.2-1.1,1.9c0,0.1-0.1,0.2,0,0.3c0.1,0.3,0.5,0.2,0.8,0.1c0.7-0.3,1.5-0.6,2.2-0.9"/>
			<g>
				<path class="st7" d="M39.1,77.8c0.1,1.1,0.6,3.7,2.2,3.4c0.7-0.1,1.1-0.7,1.3-1.3c0.2-0.5,0.2-1.1,0.4-1.6
					c0.2-0.6,0.9-0.6,1.4-0.8c0.7-0.3,1.3-0.7,1.5-1.4c0.2-0.7-0.1-1.4-0.7-1.7c-0.3-0.2-0.6-0.2-1-0.3c-0.2,0-0.4-0.1-0.6-0.1
					c-0.1,0-0.2-0.1-0.3-0.1c-0.2,0-0.1,0,0,0c0,0.1,0.1,0.3,0.1,0.4c0-0.2,0.1-0.5,0.1-0.8c0-0.3,0-0.6,0-0.9
					c-0.1-0.6-0.3-1.2-0.5-1.7c-0.1-0.2-0.4-0.4-0.6-0.4c-0.8,0.1-1.5,0.5-2.1,1.1c-0.4,0.4-0.9,1-1.4,1c-0.5-0.1-0.9-0.3-1.4-0.3
					c-0.5,0-1,0.3-1.3,0.7c-0.3,0.5-0.1,1.1,0.1,1.5c0.2,0.3,0.3,0.6,0.5,0.9c0.1,0.2,0.4,0.5,0.4,0.8c0-0.1,0-0.3,0-0.4
					c0-0.1-0.2,0.2-0.2,0.2c-0.1,0.1-0.2,0.3-0.3,0.4c-0.2,0.3-0.3,0.5-0.5,0.8c-0.2,0.6-0.5,1.3-0.1,1.8c0.4,0.5,1.1,0.4,1.7,0.2
					c0.7-0.3,1.5-0.6,2.2-0.9c0.4-0.2,0.5-0.7,0.3-1c-0.2-0.4-0.7-0.4-1-0.3c-0.4,0.2-0.9,0.4-1.3,0.6c-0.2,0.1-0.4,0.2-0.7,0.3
					c-0.1,0-0.1,0.1-0.2,0.1c-0.1,0,0,0,0.1,0c0.1,0.1,0.2,0.2,0.3,0.3c0,0.2,0,0.2,0.1,0.1c0-0.1,0-0.1,0.1-0.2
					c0-0.1,0.1-0.2,0.2-0.4c0.1-0.2,0.3-0.4,0.4-0.6c0.4-0.5,0.8-0.8,0.6-1.5c-0.1-0.3-0.3-0.6-0.5-0.9c-0.2-0.3-0.3-0.7-0.5-0.9
					c0,0-0.1-0.1-0.1-0.1c0,0.1,0,0.1-0.1,0.1c0,0,0,0,0,0c0.1,0,0.2,0,0.3,0.1c0.2,0,0.3,0.1,0.4,0.1c1,0.3,1.8-0.1,2.5-0.7
					c0.4-0.4,1-1.2,1.6-1.3c-0.2-0.1-0.4-0.2-0.6-0.4c0.3,0.6,0.4,1.2,0.3,1.8c-0.1,0.4-0.2,0.7,0,1.1c0.1,0.3,0.4,0.5,0.7,0.6
					c0.3,0.1,0.7,0.2,1,0.2c0.2,0.1,0.7,0.1,0.9,0.2c-0.2-0.1,0-0.1-0.1,0c-0.1,0.1-0.1,0.2-0.2,0.2c-0.2,0.2-0.5,0.2-0.8,0.3
					c-0.6,0.2-1.2,0.5-1.6,1.1c-0.3,0.5-0.4,1-0.5,1.5c0,0.2-0.1,0.4-0.2,0.6c0,0.1-0.1,0.2-0.1,0.2C41,79.7,41,79.7,41,79.7
					c0.2,0.1,0.2,0.1,0.1,0c-0.1-0.3-0.3-0.6-0.4-0.8c-0.1-0.3-0.2-0.7-0.2-1c0-0.4-0.3-0.8-0.8-0.8C39.4,77,39,77.4,39.1,77.8
					L39.1,77.8z"/>
			</g>
		</g>
	</g>
	<g>
		<g>
			<path class="st6" d="M75.8,77.1c0.8,1.2,1.3,2.6,1.5,4c0,0.3,0.1,0.5,0,0.8c-0.2,0.5-0.8,0.7-1.3,0.6c-1.8-0.1-2.9-2.5-4.7-2.8
				c-0.8-0.1-1.6,0.2-2.3,0.4s-1.5,0.5-2.3,0.4c-0.8-0.1-1.5-0.9-1.3-1.6c0.1-0.4,0.3-0.7,0.5-0.9c0.5-0.7,1.1-1.3,1.6-2
				c0.2-0.2,0.3-0.4,0.3-0.7c0-0.3-0.3-0.5-0.5-0.7c-1.2-1-2.1-2.5-2.2-4.1c2.1-1.4,5.3,0.8,7.2-0.8c0.6-0.5,0.9-1.2,1.4-1.7
				s1.5-0.8,2-0.3c0.3,0.3,0.3,0.7,0.4,1c0.1,1.1,0.3,2.1,0.4,3.2c0,0.2,0.1,0.4,0.2,0.5c0.1,0.1,0.4,0.2,0.6,0.2
				c1.3,0.2,2.6,0.7,3.6,1.5c0.2,0.1,0.3,0.3,0.4,0.5c0.1,0.5-0.5,0.8-1,1c-1.4,0.4-2.7,0.7-4.1,1.1"/>
			<g>
				<path class="st7" d="M75.2,77.4c0.4,0.6,0.7,1.2,0.9,1.9c0.2,0.6,0.5,1.4,0.5,2c-0.1,1.1-1.7-0.1-2.1-0.4
					c-0.7-0.6-1.3-1.2-2.1-1.6c-1-0.5-2.1-0.4-3.2,0c-0.6,0.2-1.3,0.5-1.9,0.6c-0.6,0-1.4-0.3-1.1-1c0.2-0.5,0.7-1,1.1-1.4
					c0.4-0.5,0.9-1,1.2-1.6c0.5-1.1-0.5-1.7-1.2-2.4c-0.9-0.9-1.3-2-1.5-3.2c-0.1,0.3-0.2,0.6-0.3,0.8c1.6-1,3.7,0.1,5.4-0.1
					c0.9-0.1,1.7-0.5,2.3-1.1c0.3-0.4,1.8-2.7,2.1-1.3c0.3,1.2,0.2,2.5,0.5,3.7c0.3,1.1,1.4,1,2.3,1.3c0.6,0.2,1.2,0.4,1.8,0.8
					c0.1,0.1,0.7,0.4,0.7,0.5c0.1-0.2-0.4,0-0.5,0.1c-1.3,0.4-2.8,0.7-4.1,1.1c-0.9,0.2-0.5,1.7,0.4,1.4c1.3-0.3,2.6-0.6,3.8-1
					c0.8-0.2,1.8-0.6,1.9-1.6c0-1-1.2-1.6-1.9-2c-0.4-0.2-0.9-0.4-1.4-0.6c-0.3-0.1-0.5-0.1-0.8-0.2c-0.1,0-0.7,0-0.7-0.1
					C77,71.9,77,71.2,77,71.1c0-0.3-0.1-0.6-0.1-0.9c-0.1-0.6-0.1-1.2-0.2-1.8c-0.1-0.9-0.7-1.7-1.7-1.8c-2.2-0.1-2.4,2.8-4.5,2.9
					c-2,0.1-4-0.9-5.9,0.3c-0.3,0.2-0.4,0.5-0.3,0.8c0.2,1.1,0.5,2.1,1.1,3c0.3,0.4,0.6,0.8,1,1.2c0.1,0.1,0.5,0.3,0.5,0.5
					c0,0.2-0.4,0.7-0.6,0.9c-0.6,0.8-1.7,1.7-1.8,2.7c-0.1,0.9,0.5,1.8,1.3,2.2c1.1,0.5,2.2,0.2,3.3-0.2c1.2-0.4,2.1-0.6,3.1,0.1
					c1.3,1,2.7,2.7,4.5,2.1c2.6-0.9,0.5-5-0.4-6.4C76,75.9,74.7,76.6,75.2,77.4L75.2,77.4z"/>
			</g>
		</g>
		<g>
			<path class="st6" d="M78.3,60.5c0.8,0.9,1.5,1.9,1.9,3c0.1,0.2,0.1,0.4,0.1,0.6c-0.1,0.4-0.5,0.7-1,0.7c-1.6,0.2-2.8-1.6-4.4-1.5
				c-0.7,0-1.3,0.4-1.8,0.7c-0.6,0.3-1.2,0.7-1.8,0.7c-0.7,0-1.4-0.5-1.4-1.1c0-0.3,0.1-0.6,0.3-0.9c0.3-0.6,0.7-1.3,1-1.9
				c0.1-0.2,0.2-0.4,0.1-0.6c-0.1-0.3-0.3-0.4-0.6-0.5c-1.2-0.6-2.1-1.7-2.5-3c1.5-1.5,4.5-0.2,5.8-1.8c0.4-0.5,0.5-1.1,0.9-1.7
				c0.3-0.5,1.1-0.9,1.6-0.6c0.3,0.2,0.4,0.5,0.5,0.8c0.3,0.9,0.6,1.7,0.9,2.6c0.1,0.2,0.1,0.3,0.3,0.4c0.1,0.1,0.3,0.1,0.5,0.1
				c1.1-0.1,2.3,0.2,3.3,0.6c0.2,0.1,0.3,0.2,0.4,0.3c0.2,0.4-0.3,0.8-0.7,1c-1.1,0.5-2.2,1-3.2,1.6"/>
			<g>
				<path class="st7" d="M77.8,61.1c0.7,0.7,1.5,1.7,1.7,2.7c0.2,1-1.4,0.2-1.8-0.1c-0.7-0.4-1.4-0.8-2.2-0.9
					c-0.9-0.1-1.8,0.2-2.6,0.7c-0.4,0.2-0.8,0.5-1.2,0.6c-0.3,0.1-1,0.2-1.1-0.3c-0.1-0.4,0.5-1.1,0.7-1.4c0.2-0.5,0.6-1,0.7-1.5
					c0.2-1.1-0.8-1.4-1.5-1.9c-0.8-0.5-1.3-1.3-1.7-2.2c-0.1,0.2-0.1,0.5-0.2,0.7c1.1-1,3-0.5,4.3-0.9c0.7-0.2,1.4-0.6,1.8-1.3
					c0.2-0.3,0.9-2.2,1.3-1.7c0.3,0.3,0.4,1.2,0.5,1.6c0.2,0.5,0.3,1,0.5,1.4c0.4,1,1.2,0.8,2.1,0.9c0.5,0,1,0.1,1.5,0.3
					c0.2,0,0.7,0.3,0.8,0.3c0.2,0.1,0.2,0,0-0.3c-0.1,0.1-0.2,0.2-0.3,0.2c-1,0.6-2.2,1-3.2,1.6c-0.9,0.4-0.1,1.7,0.8,1.3
					c0.7-0.3,1.3-0.6,2-1c0.6-0.3,1.3-0.5,1.7-0.9c1-0.8,0.6-1.9-0.4-2.4c-0.6-0.3-1.2-0.4-1.8-0.5C80,56,79.7,56,79.4,56
					c-0.2,0-0.7,0.1-0.9,0c0.2,0.1,0.2,0.1,0.1-0.2c-0.1-0.2-0.1-0.3-0.2-0.5c-0.1-0.3-0.2-0.7-0.3-1c-0.2-0.5-0.3-1.2-0.7-1.6
					c-0.7-0.9-1.9-0.7-2.7,0C74,53.3,74,54.6,73,55c-0.8,0.4-1.8,0.3-2.7,0.4c-0.9,0.1-1.8,0.3-2.5,1c-0.2,0.2-0.3,0.5-0.2,0.7
					c0.3,0.9,0.8,1.6,1.4,2.3c0.3,0.3,0.6,0.6,1,0.8c0.2,0.1,0.5,0.2,0.6,0.4c0.1,0.1-0.1,0.3-0.2,0.5c-0.4,0.8-1.2,1.9-1.1,2.9
					c0.1,0.8,0.8,1.4,1.6,1.6c0.9,0.2,1.8-0.1,2.5-0.6c0.8-0.5,1.5-1,2.5-0.7c1.4,0.5,2.8,2,4.4,1.1c2.2-1.2-0.3-4.3-1.4-5.5
					C78.2,59.3,77.1,60.4,77.8,61.1L77.8,61.1z"/>
			</g>
		</g>
		<g>
			<path class="st6" d="M71.6,47.9c0.1-0.6,0.7-1.2,1.1-1.8c0.1-0.2,0.5-0.2,0.6,0c0.3,0.4,0.4,0.9,0.6,1.4c0.2,0.3,2.6-0.4,3.6-0.3
				c0.2,0,0.5,0.1,0.6,0.3c0.2,0.2,0.1,0.6-0.1,0.8c-0.5,0.8-1.7,1.2-1.9,2.2c-0.1,0.4-0.1,0.8,0.1,1.2c0.2,0.5,0.3,1.1,0.3,1.7
				c0,0.1,0,0.2-0.1,0.3c-0.1,0.1-0.3,0.2-0.5,0.1c-0.9-0.1-2.7-1.6-3-1.6c-0.1,0-0.3,0.1-0.4,0.2l-1.8,1.1c-0.4,0.2-0.8,0.3-1-0.1
				c-0.2-0.4-0.1-0.8,0-1.2c0.2-0.6,1-1.3,1.5-1.8c0.2-0.2-1.3-0.8-1.5-1c-0.3-0.1-0.6-0.6-0.6-0.9c0-0.3,0.2-0.5,0.5-0.4
				c0.4,0.1,1.6-0.1,2-0.1c0,0,0,0,0,0"/>
			<g>
				<path class="st7" d="M72.3,48.1c0.1-0.3,0.3-0.6,0.5-0.9c0.1-0.2,0.3-0.3,0.4-0.5c0.2-0.2,0.1-0.3-0.5-0.1
					c0,0.1,0.1,0.2,0.1,0.3c0.2,0.5,0.4,1.3,1,1.4c0.4,0.1,0.9,0,1.4-0.1c0.5-0.1,1-0.2,1.5-0.2c0.2,0,0.5,0,0.7,0
					c-0.1,0,0.1,0,0.1,0c-0.1-0.2-0.1-0.2-0.1-0.1c0,0-0.1,0.1-0.1,0.1c-0.3,0.5-0.9,0.7-1.3,1.1c-0.5,0.5-0.8,1.2-0.7,1.9
					c0,0.8,0.7,1.7,0.3,2.4c0.1-0.1,0.1-0.2,0.2-0.3c0.2-0.2,0.1,0,0-0.1c0,0,0.1,0,0,0c0,0-0.2-0.1-0.2-0.1
					c-0.3-0.1-0.5-0.3-0.8-0.4c-0.4-0.3-0.9-0.6-1.3-0.8c-0.5-0.3-0.9-0.2-1.4,0.1c-0.3,0.2-0.7,0.4-1,0.6c-0.3,0.2-0.6,0.3-0.8,0.5
					c-0.1,0.1-0.1,0-0.1,0c0,0,0.2,0.1,0.2,0.1c0,0,0-0.4,0-0.4c0.1-0.4,0.3-0.7,0.6-0.9c0.4-0.5,1.4-1,0.9-1.8
					c-0.2-0.4-0.8-0.6-1.2-0.9c-0.2-0.1-0.4-0.2-0.6-0.3c-0.1-0.1-0.2-0.2-0.2-0.3c0,0,0,0,0-0.1c-0.1,0.1-0.2,0.3-0.3,0.4
					c0,0,0.2,0,0.2,0c0.3,0,0.6,0,0.9-0.1c0.2,0,0.3,0,0.5,0c0.1,0,0.1,0,0.2,0c-0.2,0,0.1,0,0.2,0c1,0,1-1.5,0-1.5c0.2,0,0,0-0.1,0
					c-0.1,0-0.1,0-0.2,0c-0.1,0-0.3,0-0.4,0c-0.3,0-0.6,0.1-0.9,0.1c-0.3,0-0.7,0-1,0.1c-0.4,0.2-0.6,0.7-0.6,1.1
					c0.1,0.7,0.6,1.3,1.2,1.5c0.2,0.1,0.4,0.2,0.7,0.3c0.1,0.1,0.2,0.1,0.3,0.2c0.2,0.1,0,0,0-0.2c0-0.1,0-0.3,0-0.4c0,0,0,0,0,0
					c0.1-0.1,0.1-0.2,0.2-0.3c-0.2,0.2-0.4,0.3-0.6,0.5c-0.3,0.3-0.5,0.5-0.7,0.8c-0.4,0.5-0.6,1.2-0.5,1.9c0.1,0.7,0.6,1.3,1.3,1.3
					c0.4,0,0.8-0.2,1.1-0.4c0.3-0.2,0.6-0.4,0.9-0.6c0.2-0.1,0.5-0.2,0.7-0.4c0,0,0.1-0.1,0.1-0.1c0,0-0.3,0-0.3,0c0,0-0.1-0.1,0,0
					c0.2,0.1,0.3,0.2,0.5,0.3c0.4,0.3,0.8,0.5,1.2,0.7c0.4,0.2,0.8,0.5,1.3,0.5c0.7,0.1,1.4-0.2,1.5-1c0.1-0.7-0.1-1.5-0.3-2.2
					c-0.2-0.6,0-1,0.4-1.4c0.8-0.7,2.4-1.9,1.3-3.1c-0.7-0.8-2.1-0.5-3-0.3c-0.5,0.1-1,0.2-1.4,0.2c0,0-0.1,0-0.1,0
					c-0.1,0-0.1,0-0.1,0c0,0,0.4,0.3,0.4,0.3c0,0-0.1-0.2-0.1-0.2c-0.2-0.4-0.3-0.8-0.5-1.1c-0.5-0.7-1.4-0.7-1.9,0
					c-0.4,0.6-1,1.2-1.1,2c-0.1,0.4,0.1,0.8,0.5,0.9C71.7,48.7,72.2,48.5,72.3,48.1L72.3,48.1z"/>
			</g>
		</g>
		<g>
			<path class="st6" d="M67.9,65.8c0.8,0.8,1.4,1.8,1.8,2.8c0.1,0.2,0.1,0.4,0.1,0.6c-0.1,0.4-0.5,0.7-0.9,0.7
				c-1.5,0.2-2.6-1.5-4.1-1.4c-0.6,0-1.2,0.4-1.7,0.7c-0.5,0.3-1.1,0.7-1.7,0.7c-0.6,0-1.3-0.4-1.3-1.1c0-0.3,0.1-0.6,0.3-0.8
				c0.3-0.6,0.6-1.2,0.9-1.8c0.1-0.2,0.2-0.4,0.1-0.6c-0.1-0.2-0.3-0.4-0.5-0.5c-1.1-0.6-2-1.6-2.4-2.8c1.4-1.4,4.2-0.2,5.5-1.7
				c0.4-0.5,0.5-1.1,0.8-1.6c0.3-0.5,1-0.9,1.5-0.5c0.2,0.2,0.3,0.5,0.4,0.8c0.3,0.8,0.5,1.6,0.8,2.4c0,0.1,0.1,0.3,0.2,0.4
				c0.1,0.1,0.3,0.1,0.5,0.1c1-0.1,2.1,0.1,3.1,0.6c0.1,0.1,0.3,0.2,0.4,0.3c0.2,0.4-0.3,0.7-0.6,0.9c-1,0.5-2,1-3,1.5"/>
			<g>
				<path class="st7" d="M67.4,66.3c0.6,0.7,1.2,1.5,1.5,2.3c0.1,0.2,0.3,0.4,0,0.6c-0.1,0.1-0.3,0-0.4,0c-0.3-0.1-0.6-0.2-0.9-0.4
					c-0.7-0.4-1.3-0.8-2-1c-0.9-0.2-1.7,0.1-2.5,0.6c-0.3,0.2-1.9,1.3-2.2,0.4c-0.1-0.3,0.5-1.1,0.6-1.4c0.2-0.4,0.5-0.9,0.7-1.4
					c0.3-1-0.6-1.4-1.3-1.9c-0.7-0.5-1.3-1.3-1.6-2.1c-0.1,0.2-0.1,0.5-0.2,0.7c1-0.9,2.8-0.5,4-0.8c0.7-0.2,1.3-0.6,1.7-1.2
					c0.2-0.3,0.7-1.9,1.2-1.6c0.1,0.1,0.2,0.5,0.2,0.6c0.1,0.3,0.2,0.6,0.3,0.9c0.2,0.5,0.3,0.9,0.5,1.4c0.4,1,1.2,0.8,2,0.9
					c0.5,0,0.9,0.1,1.3,0.2c0.2,0.1,0.6,0.3,0.7,0.3c0.2,0.1,0.2,0,0-0.3c-0.1,0.1-0.2,0.2-0.3,0.2c-1,0.6-2,1-3,1.5
					c-0.9,0.4-0.1,1.7,0.8,1.3c0.6-0.3,1.2-0.6,1.9-0.9c0.5-0.3,1.2-0.5,1.6-0.9c0.9-0.8,0.6-1.8-0.4-2.3c-0.5-0.2-1.1-0.4-1.7-0.5
					c-0.3,0-0.6-0.1-0.9-0.1c-0.2,0-0.6,0.1-0.8,0c0.2,0.2,0.3,0.1,0.1-0.2c-0.1-0.2-0.1-0.3-0.2-0.5c-0.1-0.3-0.2-0.6-0.3-1
					c-0.2-0.5-0.3-1.1-0.6-1.5c-0.7-0.9-1.8-0.7-2.6,0c-0.7,0.7-0.7,1.9-1.6,2.3c-0.8,0.3-1.7,0.2-2.5,0.3c-0.9,0.1-1.7,0.3-2.4,1
					c-0.2,0.2-0.3,0.5-0.2,0.7c0.3,0.8,0.7,1.6,1.3,2.2c0.3,0.3,0.6,0.6,1,0.8c0.2,0.1,0.4,0.2,0.5,0.3c0.2,0.2,0,0,0,0
					c0,0.1-0.2,0.4-0.2,0.4c-0.4,0.8-1.2,1.8-1.1,2.7c0.1,0.8,0.8,1.4,1.5,1.6c0.9,0.2,1.7-0.2,2.5-0.6c0.8-0.4,1.4-0.9,2.3-0.5
					c1.3,0.6,2.8,1.9,4.3,0.9c1.8-1.2-0.4-4.1-1.4-5.1C67.8,64.6,66.7,65.6,67.4,66.3L67.4,66.3z"/>
			</g>
		</g>
		<g>
			<path class="st6" d="M61.7,55.2c-0.7,0.4-1.2,1-1.6,1.7c-0.1,0.1-0.2,0.3-0.2,0.4c0,0.3,0.2,0.5,0.5,0.6c1,0.3,2-0.6,3-0.4
				c0.4,0.1,0.8,0.4,1.1,0.7s0.7,0.6,1.1,0.7c0.4,0.1,1-0.1,1-0.5c0-0.2,0-0.4-0.1-0.6c-0.1-0.5-0.3-0.9-0.4-1.4
				c0-0.1-0.1-0.3,0-0.4c0.1-0.2,0.3-0.2,0.4-0.3c0.8-0.2,1.6-0.8,2-1.6c-0.7-1.2-2.9-0.7-3.5-2c-0.2-0.4-0.2-0.8-0.3-1.2
				c-0.1-0.4-0.6-0.7-1-0.6c-0.2,0.1-0.3,0.3-0.4,0.5c-0.3,0.5-0.6,1-0.9,1.6c-0.1,0.1-0.1,0.2-0.2,0.2c-0.1,0-0.2,0-0.3,0
				c-0.7-0.2-1.5-0.2-2.2,0c-0.1,0-0.2,0.1-0.3,0.2c-0.2,0.2,0.1,0.5,0.3,0.7c0.6,0.5,1.3,1,1.9,1.4"/>
			<g>
				<path class="st7" d="M61.3,54.6c-0.5,0.4-1,0.8-1.4,1.3c-0.4,0.5-0.9,1.1-0.6,1.8c0.5,1.4,2.2,0.9,3.3,0.6
					c0.6-0.2,0.9-0.1,1.3,0.3c0.5,0.4,1,0.9,1.6,1.1c0.6,0.1,1.2-0.1,1.6-0.5c0.5-0.6,0.3-1.3,0.1-2c-0.1-0.2-0.1-0.4-0.2-0.6
					c0-0.1,0-0.2-0.1-0.3c0-0.1-0.1-0.1-0.1,0.1c-0.1,0.1-0.1,0.2,0,0.1c0.3,0,0.7-0.3,0.9-0.4c0.6-0.4,1.2-0.9,1.5-1.5
					c0.1-0.2,0.1-0.5,0-0.8c-0.6-0.8-1.5-1.1-2.4-1.4c-0.3-0.1-0.7-0.2-0.9-0.4c-0.3-0.4-0.3-1.1-0.5-1.5c-0.3-0.5-1-0.9-1.6-0.8
					c-0.7,0.2-1,0.9-1.3,1.5c-0.1,0.1-0.6,0.9-0.5,0.9c0.1,0,0.1,0,0.2-0.1c0.2,0,0.2-0.1,0.1-0.1c0,0-0.2,0-0.2-0.1
					c-0.2,0-0.4-0.1-0.6-0.1c-0.6-0.1-1.5,0-2,0.3c-0.8,0.5-0.6,1.4,0,1.9c0.7,0.6,1.4,1.1,2.1,1.6c0.3,0.2,0.8,0,1-0.3
					c0.2-0.4,0.1-0.8-0.3-1c-0.4-0.3-0.7-0.6-1.1-0.8c-0.2-0.1-0.3-0.3-0.5-0.4c-0.1-0.1-0.2-0.1-0.2-0.2c-0.1-0.1-0.1-0.1,0,0
					c0,0.1-0.1,0.3-0.1,0.4c-0.1,0.1-0.1,0.1,0,0.1c0.1,0,0.2,0,0.3,0c0.2,0,0.3,0,0.5,0c0.3,0,0.5,0,0.8,0.1
					c0.6,0.1,1.1,0.1,1.5-0.4c0.4-0.5,0.6-1.1,1-1.6c0-0.1,0.1-0.1,0.1-0.2c-0.1,0-0.1,0-0.2,0c0,0,0.1,0.1,0.1,0.1
					c0.1,0.2,0.1,0.5,0.2,0.8c0.3,0.9,1,1.5,1.9,1.7c0.6,0.2,1.5,0.2,1.9,0.8c0-0.3,0-0.5,0-0.8c-0.3,0.5-0.7,0.9-1.2,1.1
					c-0.6,0.2-1.2,0.3-1.3,1c-0.1,0.4,0.1,0.8,0.2,1.2c0,0.2,0.1,0.3,0.1,0.5c0,0.1,0.1,0.4,0.1,0.5c0,0.1,0,0.1,0,0.1
					c0.1-0.1,0.1-0.1,0,0c0,0-0.1,0-0.1,0c-0.3-0.1-0.5-0.3-0.7-0.5c-0.5-0.5-1-0.9-1.7-1c-0.6-0.1-1.2,0.1-1.8,0.3
					c-0.2,0.1-0.5,0.2-0.7,0.2c0,0-0.3,0-0.3,0c0.1,0,0.1,0.1,0,0.2c0-0.1,0.1-0.1,0.1-0.2c0.3-0.5,0.8-1,1.3-1.4
					C62.9,55.3,62.1,54,61.3,54.6L61.3,54.6z"/>
			</g>
		</g>
	</g>
	<g>
		<g>
			<path class="st6" d="M91.3,76.3c-1-1-2.2-1.8-3.6-2.3c-0.2-0.1-0.5-0.2-0.8-0.1c-0.5,0.1-0.8,0.6-0.9,1.1
				c-0.2,1.8,1.8,3.3,1.7,5.2c0,0.8-0.5,1.5-0.9,2.2C86.5,83,86,83.7,86,84.5c0,0.8,0.5,1.6,1.3,1.7c0.4,0,0.7-0.2,1-0.3
				c0.8-0.4,1.5-0.8,2.3-1.2c0.2-0.1,0.5-0.2,0.7-0.2c0.3,0.1,0.5,0.4,0.6,0.7c0.7,1.4,2,2.5,3.5,3c1.8-1.7,0.3-5.3,2.2-6.9
				c0.6-0.5,1.4-0.6,2-1s1.1-1.3,0.7-1.9c-0.2-0.3-0.6-0.4-0.9-0.6c-1-0.3-2-0.7-3.1-1c-0.2-0.1-0.4-0.1-0.5-0.3
				c-0.1-0.2-0.1-0.4-0.1-0.6c0.1-1.3-0.2-2.7-0.7-3.9c-0.1-0.2-0.2-0.4-0.4-0.5c-0.5-0.2-0.9,0.3-1.2,0.8c-0.6,1.3-1.2,2.5-1.9,3.8
				"/>
			<g>
				<path class="st7" d="M91.8,75.7c-0.8-0.8-1.7-1.5-2.7-2c-0.9-0.4-2-1-2.9-0.4c-1.8,1.2-0.5,3.6,0.3,4.9c0.6,1,0.8,1.8,0.2,2.9
					c-0.5,1-1.2,1.8-1.3,3c-0.1,0.9,0.3,2,1.2,2.4c1,0.6,2.1-0.1,3-0.6c0.4-0.2,1.4-1,1.8-0.7c0.2,0.2,0.3,0.5,0.4,0.7
					c0.2,0.3,0.4,0.5,0.6,0.7c0.8,0.9,1.9,1.6,3,2c0.2,0.1,0.6,0,0.7-0.2c0.8-0.8,1-1.8,1.2-2.9c0.1-1.1,0-2.3,0.5-3.2
					c0.5-1.2,2.1-1.2,2.9-2.1c0.8-0.8,1-2.2,0-2.9c-0.5-0.4-1.3-0.6-1.9-0.8c-0.4-0.1-0.8-0.3-1.2-0.4c-0.1,0-0.9-0.2-0.9-0.3
					c-0.1-0.1,0-0.9,0-1.1c0-0.3-0.1-0.7-0.1-1c-0.1-0.7-0.3-1.4-0.6-2.1c-0.5-1.2-1.7-1.6-2.6-0.5c-0.5,0.6-0.8,1.4-1.1,2
					c-0.4,0.8-0.8,1.6-1.1,2.4c-0.4,0.9,0.9,1.6,1.3,0.8c0.6-1.3,1.2-2.6,1.9-3.8c0.1-0.1,0.5-0.4,0.1-0.5c0.2,0,0.3,0.8,0.4,0.9
					c0.2,0.6,0.3,1.2,0.3,1.9c0,1-0.2,1.9,0.9,2.4c0.6,0.2,1.1,0.4,1.7,0.6c0.5,0.2,1.4,0.3,1.9,0.7c0.9,0.7-1.6,1.6-2,1.8
					c-0.7,0.5-1.2,1.2-1.4,2c-0.5,1.6,0.1,3.8-1.1,5.1c0.2-0.1,0.5-0.1,0.7-0.2c-1.1-0.4-2-1.1-2.7-2c-0.5-0.8-0.9-1.9-2.1-1.7
					c-0.6,0.1-1.2,0.6-1.8,0.8c-0.5,0.2-1.3,0.9-1.8,0.8c-0.7-0.1-0.6-1-0.5-1.5c0.2-0.6,0.5-1.1,0.8-1.6c0.5-0.9,0.9-1.9,0.7-2.9
					c-0.2-0.9-0.7-1.7-1.1-2.5c-0.3-0.6-1.2-2.7,0.3-2.1c1.2,0.5,2.2,1.2,3.1,2C91.4,77.4,92.5,76.4,91.8,75.7L91.8,75.7z"/>
			</g>
		</g>
		<g>
			<path class="st6" d="M102.3,83.1c0.1-0.7,0.6-1.2,1.1-1.7s0.9-1,1.1-1.6c0.4-1.5-1.1-3.1-0.6-4.6c0.1-0.4,0.5-0.8,0.9-0.8
				c0.2,0,0.4,0.1,0.6,0.2c1,0.6,1.9,1.5,2.6,2.5l0.4,0c0.7-1,1.5-1.9,2.2-2.9c0.3-0.4,0.7-0.7,1.1-0.5c0.1,0.1,0.2,0.3,0.2,0.5
				c0.3,1.1,0.2,2.2-0.1,3.3c0,0.2-0.1,0.3,0,0.5c0.1,0.2,0.2,0.2,0.4,0.3c0.8,0.5,1.6,0.9,2.4,1.4c0.1,0,0.2,0.1,0.3,0.2
				c-0.3,0.6,2.7,1-0.7,2c-0.5,0.2-1.1,0.2-1.6,0.5c-1.8,1-1.2,4.2-3,5.3c-1.2-0.7-2-1.8-2.4-3.1c-0.1-0.3-0.1-0.5-0.4-0.7
				c-0.2-0.1-0.4,0-0.6,0c-0.7,0.2-1.4,0.4-2.1,0.6c-0.3,0.1-0.6,0.2-0.9,0.1C102.4,84.6,102.1,83.8,102.3,83.1z"/>
			<g>
				<path class="st7" d="M103,83.3c0.3-1.1,1.4-1.7,1.9-2.7c0.5-0.9,0.3-1.9,0-2.9c-0.2-0.5-0.4-1-0.4-1.5c0-0.2,0-0.4,0-0.6
					c0.1-0.4,0.2-0.4,0.5-0.3c0.5,0.2,1,0.7,1.3,1.1c0.4,0.4,0.7,0.9,1.1,1.3c0.2,0.2,0.6,0.2,0.9,0.2c0.6-0.1,1-0.8,1.3-1.3
					c0.4-0.5,0.8-1,1.2-1.5c0.1-0.1,0.2-0.3,0.3-0.4c0.2-0.1,0.2-0.2-0.1-0.2c0.1,0.4,0.1,0.7,0.2,1.1c0,0.6-0.1,1.2-0.2,1.8
					c-0.1,0.5-0.1,1,0.2,1.4c0.4,0.4,0.9,0.6,1.4,0.9c0.6,0.3,1.1,0.6,1.7,1c-0.1-0.3-0.2-0.6-0.3-0.8c-0.2,0.6,0.4,1.4,1,1.6
					c-0.1,0,0.1,0,0,0c-0.1,0,0-0.5,0-0.5c-0.2-0.1,0.6,0-0.1,0c-0.1,0-0.2,0.1-0.3,0.1c-0.8,0.3-1.6,0.3-2.3,0.7
					c-1.1,0.5-1.6,1.5-1.9,2.5c-0.3,0.9-0.4,2.3-1.3,2.9c0.3,0,0.5,0,0.8,0c-0.7-0.4-1.3-1-1.7-1.7c-0.3-0.6-0.4-1.5-1-1.9
					c-0.7-0.5-1.6,0-2.4,0.2C104.3,83.7,102.8,84.5,103,83.3c0.2-0.9-1.3-1.4-1.4-0.4c-0.1,0.8,0,1.7,0.7,2.2
					c0.9,0.7,2.1,0.1,3.1-0.2c0.3-0.1,0.6-0.2,0.9-0.3c0-0.2,0-0.2,0,0c0,0.1,0,0.2,0.1,0.3c0.2,0.5,0.3,0.9,0.6,1.3
					c0.5,0.9,1.3,1.6,2.1,2.1c0.2,0.1,0.5,0.1,0.8,0c1-0.7,1.4-1.8,1.8-3c0.2-0.6,0.3-1.2,0.6-1.7c0.4-0.6,0.9-0.8,1.6-0.9
					c0.8-0.2,2.7-0.5,2.6-1.7c0-0.4-0.3-0.7-0.6-1c-0.1-0.1-0.2-0.2-0.4-0.3c-0.1,0-0.1-0.1-0.1-0.1c0,0,0,0,0,0
					c0.1,0.1,0.2,0.3,0.1,0.5c0.1-0.3-0.1-0.7-0.3-0.8c-0.5-0.4-1.1-0.7-1.7-1c-0.2-0.1-0.7-0.3-0.8-0.5c-0.1-0.1-0.2-0.1-0.1,0
					c0-0.2,0.1-0.3,0.1-0.5c0.2-1.1,0.3-2.5-0.2-3.6c-0.5-1-1.6-0.8-2.3-0.1c-0.9,0.9-1.6,2.1-2.4,3.2c0.2-0.1,0.4-0.2,0.6-0.4
					c-0.1,0-0.2,0-0.4,0c0.2,0.1,0.4,0.2,0.6,0.4c-0.8-1.1-1.8-2.2-3-2.9c-1.3-0.7-2.5,0.4-2.6,1.8c-0.1,1.3,0.8,2.4,0.7,3.6
					c0,0.7-0.6,1.2-1.1,1.8c-0.5,0.5-0.9,1.1-1.1,1.8C101.3,83.9,102.7,84.2,103,83.3z"/>
			</g>
		</g>
		<g>
			<path class="st6" d="M100.7,86.3c-0.6-0.9-1.5-1.7-2.4-2.3c-0.2-0.1-0.4-0.2-0.6-0.2c-0.4,0-0.7,0.3-0.9,0.7
				c-0.5,1.4,0.9,2.9,0.5,4.3c-0.2,0.6-0.6,1.1-1,1.5s-0.9,0.9-1,1.6c-0.1,0.6,0.2,1.4,0.8,1.5c0.3,0.1,0.6,0,0.9-0.1
				c0.6-0.2,1.3-0.4,1.9-0.6c0.2-0.1,0.4-0.1,0.6,0c0.2,0.1,0.3,0.4,0.4,0.6c0.3,1.2,1.2,2.3,2.3,2.9c1.6-1.1,1-4.1,2.8-5
				c0.5-0.3,1.2-0.3,1.7-0.5c0.6-0.2,1.1-0.8,0.8-1.4c-0.1-0.3-0.4-0.4-0.6-0.6c-0.7-0.4-1.5-0.9-2.2-1.3c-0.1-0.1-0.3-0.2-0.3-0.3
				c-0.1-0.1,0-0.3,0-0.5c0.3-1,0.3-2.1,0-3.1c0-0.2-0.1-0.3-0.2-0.4c-0.3-0.3-0.8,0.1-1,0.4c-0.7,0.9-1.4,1.8-2,2.7"/>
			<g>
				<path class="st7" d="M101.3,85.9c-0.5-0.8-1.1-1.4-1.8-2c-0.6-0.5-1.5-1.2-2.3-0.8c-1.8,0.7-1.1,2.9-0.7,4.3
					c0.3,0.9,0.2,1.5-0.5,2.2c-0.6,0.7-1.2,1.3-1.4,2.2c-0.1,0.7,0.1,1.5,0.7,2c0.8,0.6,1.7,0.3,2.5,0.1c0.3-0.1,0.6-0.2,0.9-0.2
					c0.1,0,0.2-0.1,0.4-0.1c0.2,0,0-0.2,0.1,0c0.2,0.4,0.3,0.9,0.5,1.3c0.5,0.9,1.2,1.6,2.1,2.1c0.2,0.1,0.5,0.1,0.8,0
					c1.1-0.8,1.4-2,1.8-3.3c0.1-0.5,0.3-1.1,0.7-1.5c0.6-0.5,1.6-0.4,2.2-0.8c0.6-0.4,1.1-1.1,1-1.9c-0.2-0.9-1.2-1.3-1.9-1.7
					c-0.2-0.1-0.4-0.3-0.7-0.4c-0.1-0.1-0.6-0.3-0.7-0.4c0.1,0.2,0.1-0.3,0.1-0.4c0-0.3,0.1-0.5,0.1-0.8c0.1-0.8,0.1-2-0.4-2.7
					c-0.6-0.9-1.7-0.6-2.2,0.1c-0.8,0.9-1.5,1.9-2.2,2.9c-0.6,0.8,0.7,1.5,1.3,0.8c0.4-0.5,0.7-1,1.1-1.4c0.2-0.2,0.3-0.4,0.5-0.6
					c0.1-0.1,0.4-0.4,0.5-0.6c0.2-0.1,0.2-0.2-0.1-0.2c0,0.1,0,0.2,0.1,0.2c0,0.2,0.1,0.6,0.1,0.9c0,0.6-0.1,1.1-0.2,1.6
					c-0.2,1,0.3,1.4,1.1,1.9c0.4,0.3,0.9,0.5,1.3,0.8c0.2,0.1,0.5,0.2,0.6,0.4c0.2,0.2,0.2,0.1,0.1,0.3c-0.3,0.3-0.9,0.3-1.3,0.4
					c-0.4,0.1-0.7,0.2-1,0.4c-0.5,0.4-0.9,0.9-1.1,1.5c-0.4,1-0.4,2.6-1.4,3.3c0.3,0,0.5,0,0.8,0c-0.7-0.5-1.3-1.1-1.7-1.9
					c-0.3-0.7-0.4-1.6-1.3-1.8c-1-0.2-2,0.6-3,0.7c-1.1,0.1,0-1.4,0.2-1.7c0.6-0.7,1.2-1.3,1.3-2.2c0.1-0.8-0.1-1.6-0.4-2.4
					c-0.1-0.4-0.6-2.2,0.2-1.6c0.8,0.5,1.5,1.2,2.1,2C100.6,87.5,101.9,86.7,101.3,85.9L101.3,85.9z"/>
			</g>
		</g>
		<g>
			<path class="st6" d="M107.8,92.3c0-0.4-0.3-0.8-0.5-1.2c-0.2-0.4-0.5-0.8-0.5-1.2c0-0.4,0.3-0.9,0.7-0.9c0.2,0,0.4,0.1,0.6,0.2
				c0.4,0.2,0.8,0.4,1.3,0.7c0.1,0.1,0.3,0.1,0.4,0.1c0.2,0,0.3-0.2,0.3-0.4c0.4-0.8,1.1-1.4,2-1.7c1,1,0.1,3,1.2,3.8
				c0.3,0.3,0.8,0.4,1.1,0.6c0.1,0.1,0.2,0.1,0.2,0.2c0,0.3,0,0.6,0,0.9c-0.1,0.1-0.3,0.2-0.4,0.2c-0.6,0.2-1.1,0.4-1.7,0.6
				c-0.1,0-0.2,0.1-0.3,0.2c-0.1,0.1-0.1,0.2,0,0.3c0,0.7-0.1,1.5-0.4,2.1c0,0.1-0.1,0.2-0.2,0.3c-0.3,0.1-0.5-0.2-0.6-0.4
				c-0.3-0.7-0.7-1.4-1-2.1l-0.2-0.1c-0.6,0.6-1.3,1-2,1.3c-0.1,0.1-0.3,0.1-0.4,0.1c-0.3,0-0.5-0.3-0.5-0.6
				C106.7,94.2,107.9,93.4,107.8,92.3z"/>
			<g>
				<path class="st7" d="M108.6,92.3c0-0.4-0.2-0.8-0.4-1.2c-0.2-0.3-0.4-0.6-0.5-1c0-0.1,0-0.2,0-0.3c0-0.1,0.1-0.1,0-0.1
					c0.2,0,0.4,0.2,0.5,0.3c0.2,0.1,0.4,0.2,0.6,0.3c0.4,0.2,0.8,0.5,1.3,0.3c0.4-0.1,0.6-0.4,0.8-0.7c0.4-0.6,0.8-1.1,1.5-1.3
					c-0.2-0.1-0.5-0.1-0.7-0.2c0.2,0.3,0.3,0.7,0.3,1c0,0.5,0.1,1,0.1,1.5c0.1,0.5,0.3,0.9,0.7,1.3c0.4,0.4,1,0.5,1.4,0.9
					c-0.1-0.2-0.1-0.4-0.2-0.5c0,0.3,0,0.6,0,0.9c0.1-0.2,0.2-0.4,0.4-0.6c-0.4,0.3-1,0.4-1.4,0.6c-0.5,0.2-1,0.3-1.3,0.8
					c-0.2,0.4-0.1,0.9-0.1,1.3c0,0.4-0.2,0.9-0.4,1.3c0.1-0.1,0.2-0.2,0.3-0.3c0,0,0,0,0,0c0.1,0,0.3,0,0.4,0c0,0,0,0.1,0,0
					c0-0.1-0.1-0.2-0.2-0.4c-0.1-0.2-0.2-0.4-0.3-0.7c-0.2-0.4-0.4-1.2-0.8-1.4c-0.3-0.2-0.8-0.3-1.1-0.1c-0.4,0.2-0.7,0.6-1.1,0.8
					c-0.2,0.1-0.3,0.2-0.5,0.3c-0.1,0-0.2,0.1-0.3,0.1c-0.1,0-0.1,0,0,0.1c0.1,0.1,0.1,0.1,0.1,0c0,0,0-0.3,0-0.3
					c0-0.1,0.1-0.2,0.2-0.4C108.1,93.8,108.6,93.2,108.6,92.3c0-1-1.5-1-1.5,0c0,0.5-0.4,1-0.7,1.5c-0.3,0.6-0.5,1.4-0.1,2.1
					c0.9,1.6,3.1,0,4-0.8c-0.2,0.1-0.5,0.1-0.7,0.2c0.1,0,0.2,0,0.2,0.1c-0.1-0.1-0.3-0.2-0.4-0.3c0.3,0.7,0.6,1.3,0.9,2
					c0.3,0.6,0.8,1.2,1.5,1c0.6-0.2,0.9-0.9,1-1.5c0.1-0.3,0.1-0.6,0.2-1c0-0.2,0-0.6,0-0.8c-0.1,0.1-0.1,0.2-0.2,0.3
					c-0.1,0.1,0.1,0,0.2-0.1c0.1,0,0.3-0.1,0.4-0.1c0.3-0.1,0.5-0.2,0.8-0.3c0.5-0.2,1.2-0.4,1.2-1c0-0.5,0-1.2-0.3-1.5
					c-0.3-0.3-0.8-0.4-1.2-0.7c-0.5-0.3-0.5-1.1-0.5-1.6c-0.1-0.8-0.2-1.6-0.8-2.2c-0.2-0.2-0.5-0.3-0.7-0.2
					c-0.6,0.2-1.1,0.5-1.5,0.9c-0.2,0.2-0.4,0.4-0.6,0.7c-0.1,0.1-0.3,0.5-0.4,0.6c0.1,0,0.3-0.1,0.4-0.1c-0.2,0-0.7-0.3-0.9-0.4
					c-0.3-0.2-0.6-0.3-0.9-0.4c-0.6-0.2-1.3,0.1-1.6,0.7c-0.3,0.5-0.3,1.1-0.1,1.7c0.2,0.5,0.7,1.1,0.8,1.7c0,0.4,0.3,0.8,0.8,0.8
					C108.2,93.1,108.6,92.7,108.6,92.3z"/>
			</g>
		</g>
	</g>
	<g>
		<g>
			<path class="st6" d="M91.9,46c-0.3-1.4-0.2-2.8,0.1-4.2c0.1-0.3,0.1-0.5,0.3-0.7c0.3-0.4,1-0.3,1.4-0.1c1.7,0.8,1.7,3.4,3.3,4.3
				c0.7,0.4,1.5,0.4,2.3,0.5c0.8,0,1.6,0.1,2.3,0.5s1.1,1.4,0.6,2c-0.2,0.3-0.5,0.5-0.9,0.7c-0.7,0.4-1.5,0.8-2.2,1.2
				c-0.2,0.1-0.5,0.3-0.5,0.5c-0.1,0.3,0.1,0.6,0.2,0.9c0.8,1.4,1,3.1,0.6,4.6c-2.4,0.5-4.6-2.7-6.9-2c-0.7,0.2-1.3,0.8-2,1.1
				c-0.7,0.3-1.7,0.2-1.9-0.5c-0.1-0.3,0-0.7,0.1-1.1c0.3-1,0.6-2.1,0.8-3.1c0-0.2,0.1-0.4,0-0.6c-0.1-0.2-0.3-0.3-0.4-0.4
				C88,48.9,87,48,86.3,46.8c-0.1-0.2-0.2-0.4-0.2-0.6c0.1-0.5,0.8-0.6,1.3-0.5c1.4,0.2,2.8,0.4,4.2,0.6"/>
			<g>
				<path class="st7" d="M92.7,45.8c-0.1-0.7-0.2-1.5-0.1-2.2c0-0.5,0-2,0.6-2.1c0.8-0.1,1.4,1.3,1.6,1.8c0.4,0.7,0.7,1.5,1.4,2.1
					c0.8,0.7,1.8,1,2.9,1c0.6,0,1.2,0,1.8,0.2c0.5,0.2,1.2,0.6,0.9,1.3c-0.2,0.4-1,0.6-1.4,0.8c-0.6,0.3-1.2,0.6-1.7,1
					c-0.9,0.7-0.6,1.6-0.1,2.4c0.6,1.2,0.7,2.5,0.4,3.8c0.2-0.2,0.3-0.3,0.5-0.5c-1.7,0.3-3.3-1.5-4.9-1.9c-0.8-0.3-1.7-0.2-2.5,0.1
					c-0.4,0.2-2.1,1.6-2.6,0.9c-0.3-0.3,0.3-1.7,0.4-2.1c0.2-0.6,0.4-1.3,0.5-1.9c0.2-1.1-0.7-1.5-1.5-2c-0.5-0.4-1-0.8-1.4-1.3
					c0,0-0.5-0.6-0.5-0.7c-0.1,0-0.1,0,0.1,0c0.1,0,0.1,0,0.2,0c1.4,0,2.8,0.4,4.2,0.6c0.9,0.1,1.4-1.3,0.4-1.4
					c-1.3-0.2-2.6-0.4-3.9-0.5c-0.8-0.1-1.8-0.2-2.3,0.5c-0.6,0.8,0.1,1.8,0.6,2.4c0.4,0.5,0.7,0.9,1.2,1.2c0.2,0.2,0.4,0.3,0.6,0.4
					c0.2,0.1,0.7,0.3,0.8,0.5c0.2,0.3-0.3,1.4-0.4,1.8c-0.2,0.6-0.4,1.3-0.5,2c-0.1,0.9,0.3,1.8,1.2,2c1,0.3,1.8-0.1,2.6-0.6
					c0.9-0.6,1.5-0.8,2.5-0.4c1.8,0.7,3.3,2.2,5.4,1.9c0.2,0,0.5-0.3,0.5-0.5c0.3-1.1,0.3-2.2,0.1-3.3c-0.1-0.5-0.3-1.1-0.5-1.6
					c0-0.1-0.3-0.5-0.3-0.6c0.1-0.2,0.7-0.4,0.9-0.5c0.9-0.5,2.2-0.9,2.7-1.9c0.5-0.8,0.2-1.9-0.5-2.6c-1.6-1.7-4.5-0.2-5.8-2.1
					c-0.9-1.4-1.4-3.4-3.2-3.8c-3.1-0.7-2.6,4.4-2.3,6.1C91.4,47.2,92.8,46.8,92.7,45.8L92.7,45.8z"/>
			</g>
		</g>
		<g>
			<path class="st6" d="M83.4,60.4c-0.5-1.1-0.7-2.3-0.6-3.5c0-0.2,0-0.5,0.1-0.6c0.2-0.4,0.7-0.4,1.2-0.3c1.5,0.4,2,2.5,3.5,3
				c0.6,0.2,1.3,0.1,2,0c0.7-0.1,1.4-0.2,2,0c0.6,0.2,1.1,1,0.9,1.6c-0.1,0.3-0.4,0.5-0.6,0.7c-0.5,0.5-1.1,0.9-1.6,1.4
				c-0.2,0.1-0.3,0.3-0.4,0.5c0,0.3,0.2,0.5,0.3,0.7c0.9,1,1.3,2.4,1.2,3.7c-1.9,0.8-4.2-1.5-6.1-0.5c-0.6,0.3-0.9,0.9-1.4,1.2
				s-1.4,0.5-1.7-0.1C82,67.9,82,67.6,82,67.3c0.1-0.9,0.1-1.8,0.2-2.7c0-0.2,0-0.3-0.1-0.5c-0.1-0.1-0.3-0.2-0.4-0.3
				c-1.1-0.4-2-1-2.8-1.8c-0.1-0.1-0.2-0.3-0.3-0.4c0-0.4,0.6-0.6,1-0.6c1.2-0.1,2.4-0.1,3.6-0.2"/>
			<g>
				<path class="st7" d="M84.1,60.2c-0.2-0.5-0.4-1.1-0.5-1.6c-0.1-0.5-0.3-1.3-0.1-1.7c0.1-0.2,0-0.3,0.4-0.3
					c0.1,0,0.3,0.1,0.4,0.2c0.3,0.2,0.5,0.5,0.8,0.8c0.5,0.6,0.9,1.2,1.5,1.6c0.8,0.6,1.7,0.7,2.6,0.6c0.5-0.1,2.6-0.6,2.6,0.5
					c0,0.3-0.6,0.7-0.9,0.9c-0.5,0.4-1,0.7-1.4,1.2c-0.8,0.8-0.3,1.6,0.3,2.3c0.6,0.9,0.9,1.9,0.9,3c0.2-0.2,0.4-0.5,0.6-0.7
					c-1.4,0.5-3-0.6-4.4-0.8c-0.8-0.1-1.5,0.1-2.2,0.6c-0.3,0.2-1.7,1.8-1.8,0.9c-0.1-1.1,0.3-2.2,0.2-3.3c-0.1-1-1-1.1-1.8-1.5
					c-0.4-0.2-0.9-0.5-1.2-0.8c-0.1-0.1-0.3-0.4-0.5-0.5c-0.2,0.2-0.1,0.3,0.1,0.2c0.1,0,0.2,0,0.3,0c1.2-0.1,2.3-0.1,3.5-0.2
					c1-0.1,1-1.6,0-1.5c-1.1,0.1-2.2,0.1-3.3,0.2c-0.7,0-1.6,0.2-1.9,1c-0.3,0.9,0.4,1.5,1,2c0.8,0.6,1.6,1,2.5,1.4
					c0,0-0.1-0.3,0-0.1c0,0.1,0,0.2,0,0.4c0,0.3,0,0.5-0.1,0.8c0,0.6-0.1,1.2-0.1,1.7c0,0.8,0.3,1.6,1.1,1.9
					c0.8,0.2,1.5-0.1,2.1-0.6c0.7-0.5,1.1-1.2,2-1.1c1.7,0.2,3.2,1.4,5,0.7c0.3-0.1,0.5-0.4,0.6-0.7c0-1-0.1-1.9-0.5-2.8
					c-0.2-0.4-0.4-0.8-0.7-1.2c-0.1-0.1-0.3-0.5-0.3-0.3c0,0.2,0.1,0,0.2-0.1c0.2-0.1,0.4-0.3,0.5-0.4c0.7-0.6,1.7-1.2,1.9-2.1
					c0.2-0.8-0.2-1.6-0.8-2.1c-1.6-1.2-3.8,0.6-5.2-0.9c-1-1-1.7-2.6-3.4-2.6c-2.7,0-1.6,4-1,5.5C83,61.5,84.5,61.1,84.1,60.2
					L84.1,60.2z"/>
			</g>
		</g>
		<g>
			<path class="st6" d="M84.9,74.6c-0.3,0.5-1.1,0.9-1.7,1.3c-0.2,0.1-0.5,0-0.5-0.2c-0.1-0.5,0-1-0.1-1.5c0-0.4-2.5-0.6-3.4-1.1
				c-0.2-0.1-0.4-0.2-0.5-0.5c-0.1-0.3,0.1-0.6,0.4-0.7c0.8-0.6,2-0.5,2.6-1.3c0.3-0.3,0.4-0.8,0.4-1.2c0-0.6,0.2-1.2,0.4-1.7
				c0-0.1,0.1-0.2,0.2-0.2c0.2-0.1,0.4,0,0.5,0c0.8,0.4,1.9,2.5,2.2,2.6c0.1,0,0.3,0,0.4,0l2-0.3c0.4-0.1,0.8,0.1,0.9,0.5
				c0,0.4-0.2,0.8-0.5,1.1c-0.5,0.5-1.4,0.9-2,1.1c-0.3,0.1,0.9,1.3,1,1.5c0.2,0.2,0.3,0.7,0.2,1.1c-0.1,0.3-0.4,0.4-0.6,0.2
				c-0.3-0.2-1.5-0.5-1.8-0.7c0,0,0,0,0,0"/>
			<g>
				<path class="st7" d="M84.2,74.2c-0.1,0.2-0.4,0.4-0.6,0.5c-0.3,0.2-0.6,0.4-0.9,0.5c0.1,0,0.3-0.1,0.4-0.1
					c0.2,0.4,0.3,0.4,0.3,0.1c0-0.1,0-0.3,0-0.4c0-0.2,0-0.4,0-0.6c0-0.3,0-0.6-0.3-0.8c-0.3-0.3-0.7-0.4-1.1-0.5
					c-0.5-0.1-1-0.2-1.5-0.3c-0.3-0.1-1-0.2-1.2-0.5c0,0.1,0.1,0.3,0.1,0.4c0-0.2,0.7-0.4,0.9-0.5c0.4-0.1,0.9-0.3,1.3-0.5
					c0.4-0.3,0.7-0.6,0.9-1c0.2-0.5,0.2-1.1,0.3-1.6c0-0.1,0.3-0.8,0.3-0.8c-0.1,0-0.2,0.1-0.3,0.1c0,0,0,0,0.1,0c0,0,0.1,0,0.1,0.1
					c0.3,0.2,0.5,0.5,0.7,0.8c0.4,0.5,0.7,1.1,1.1,1.5c0.5,0.4,1.1,0.2,1.7,0.2c0.5-0.1,1.1-0.1,1.6-0.2c0,0,0.1,0,0.1,0
					c0,0-0.1-0.1-0.1-0.1c-0.1-0.1-0.1-0.1-0.1,0c0,0-0.1,0.2-0.1,0.2c-0.2,0.4-0.7,0.7-1.2,0.8c-0.4,0.2-0.9,0.2-1.2,0.6
					c-0.2,0.3-0.1,0.7,0.1,1c0.2,0.3,0.5,0.6,0.7,0.9c0.1,0.1,0.2,0.2,0.3,0.3c0,0,0.1,0.1,0.1,0.1c0-0.1,0.1,0.3,0.1,0.3
					c0,0,0,0,0,0c0,0.2,0.1,0.1,0.4-0.2c0-0.1-0.3-0.1-0.3-0.1c-0.2-0.1-0.4-0.1-0.6-0.2c-0.4-0.1-0.7-0.3-1.1-0.4
					C84.8,73.6,84.3,74,84.2,74.2c-0.1,0.5,0.1,0.8,0.5,1c-0.2-0.1,0.2,0.1,0.3,0.1c0.1,0.1,0.3,0.1,0.4,0.1
					c0.3,0.1,0.6,0.2,0.9,0.3c0.3,0.1,0.6,0.3,1,0.2c0.4-0.1,0.8-0.4,0.9-0.9c0.2-0.7-0.1-1.4-0.6-1.9c-0.2-0.2-0.3-0.4-0.5-0.6
					c-0.1-0.1-0.1-0.2-0.2-0.2c-0.1-0.2,0-0.2,0,0c0,0.1-0.1,0.3-0.1,0.4c0,0.1-0.4,0.2-0.2,0.2c0.1,0,0.1-0.1,0.2-0.1
					c0.1-0.1,0.3-0.1,0.4-0.2c0.3-0.1,0.6-0.3,0.9-0.5c0.6-0.4,1-0.9,1.2-1.5c0.2-0.6,0.1-1.4-0.5-1.7C88.4,69,88,69,87.5,69.1
					c-0.3,0.1-0.7,0.1-1,0.2c-0.3,0-0.7,0-0.9,0.1c0,0-0.1,0-0.1,0c-0.1,0.1,0.3,0,0.3,0.2c0,0-0.1,0-0.1-0.1c0-0.1-0.2-0.2-0.3-0.3
					c-0.3-0.4-0.6-0.8-0.9-1.2c-0.6-0.7-1.8-2-2.7-0.8c-0.4,0.6-0.6,1.5-0.6,2.2c0,0.6-0.3,1-0.8,1.2c-1,0.4-2.9,0.8-2.5,2.3
					c0.3,1,1.7,1.3,2.6,1.5c0.5,0.1,1,0.2,1.5,0.4c0.1,0,0,0,0,0c0,0,0.1,0,0.1,0.1c0-0.1-0.1-0.1-0.1-0.2c-0.1-0.2-0.2-0.2-0.1-0.1
					c0,0.1,0,0.3,0,0.4c0,0.4,0,0.9,0.2,1.2c0.2,0.3,0.5,0.6,0.9,0.6c0.4,0,0.7-0.1,1-0.4c0.6-0.4,1.2-0.7,1.6-1.3
					C86,74.2,84.7,73.4,84.2,74.2L84.2,74.2z"/>
			</g>
		</g>
		<g>
			<path class="st6" d="M95.1,59.4c-0.4-1-0.6-2.2-0.6-3.3c0-0.2,0-0.4,0.1-0.6c0.2-0.3,0.7-0.4,1.1-0.3c1.4,0.4,1.9,2.3,3.3,2.8
				c0.6,0.2,1.2,0.1,1.9,0c0.6-0.1,1.3-0.2,1.8,0c0.6,0.2,1,0.9,0.8,1.5c-0.1,0.3-0.3,0.5-0.6,0.7c-0.5,0.4-1,0.9-1.5,1.3
				c-0.2,0.1-0.3,0.3-0.3,0.5c0,0.2,0.2,0.5,0.3,0.6c0.8,1,1.2,2.2,1.2,3.5c-1.8,0.8-4-1.4-5.7-0.5c-0.5,0.3-0.9,0.8-1.4,1.1
				c-0.5,0.3-1.3,0.4-1.6-0.1c-0.2-0.3-0.1-0.6-0.1-0.9c0.1-0.9,0.1-1.7,0.2-2.6c0-0.2,0-0.3-0.1-0.4c-0.1-0.1-0.3-0.2-0.4-0.2
				c-1-0.3-1.9-0.9-2.6-1.7c-0.1-0.1-0.2-0.3-0.2-0.4c0-0.4,0.5-0.6,0.9-0.6c1.1-0.1,2.2-0.1,3.4-0.2"/>
			<g>
				<path class="st7" d="M95.8,59.2c-0.2-0.5-0.3-1-0.4-1.5c-0.1-0.4-0.2-1.2-0.1-1.6c0.1-0.2,0-0.2,0.3-0.2c0.1,0,0.3,0.1,0.4,0.2
					c0.3,0.2,0.5,0.5,0.7,0.7c0.4,0.5,0.8,1.1,1.4,1.5c0.7,0.6,1.6,0.7,2.5,0.5c0.4-0.1,2.4-0.5,2.3,0.4c0,0.3-0.6,0.6-0.8,0.8
					c-0.4,0.4-0.9,0.7-1.3,1.1c-0.7,0.8-0.3,1.5,0.3,2.2c0.6,0.8,0.8,1.8,0.8,2.8c0.2-0.2,0.4-0.5,0.6-0.7c-1.4,0.5-2.9-0.6-4.3-0.7
					c-0.8-0.1-1.5,0.2-2.1,0.7c-0.3,0.2-0.6,0.6-0.9,0.8c-0.3,0.2-0.6,0.3-0.6-0.1c0-1,0.3-2.1,0.2-3.1c-0.1-1-1.1-1.1-1.8-1.4
					c-0.4-0.2-0.8-0.5-1.2-0.9c-0.1-0.1-0.2-0.1-0.2-0.2c-0.1-0.2-0.2-0.1-0.2,0.3c0,0,0.3-0.1,0.3-0.1c0.5-0.1,1.1-0.1,1.7-0.1
					c0.6,0,1.1-0.1,1.7-0.1c1-0.1,1-1.6,0-1.5c-1,0.1-2.1,0.1-3.1,0.2c-0.7,0-1.5,0.2-1.8,0.8c-0.4,0.8,0.3,1.5,0.9,2
					c0.3,0.3,0.6,0.5,1,0.7c0.3,0.2,1,0.7,1.3,0.6c0.2,0,0,0,0-0.2c0,0.1,0,0.2,0,0.3c0,0.3,0,0.5,0,0.8c0,0.6-0.1,1.1-0.1,1.7
					c0,0.8,0.2,1.6,1,1.9c0.8,0.3,1.5,0,2.1-0.5c0.6-0.5,1-1.1,1.8-1c1.6,0.1,3.1,1.3,4.8,0.7c0.3-0.1,0.5-0.4,0.6-0.7
					c0-0.9-0.1-1.8-0.5-2.6c-0.2-0.4-0.4-0.8-0.7-1.2c-0.1-0.1-0.1-0.2-0.2-0.2c-0.1-0.1-0.1-0.2-0.1,0c-0.1,0.3,0.1,0,0.1,0
					c0.2-0.1,0.3-0.3,0.5-0.4c0.6-0.5,1.6-1.1,1.8-2c0.2-0.8-0.2-1.6-0.8-2c-0.7-0.5-1.6-0.5-2.5-0.4c-0.9,0.1-1.7,0.3-2.4-0.4
					c-0.9-1-1.6-2.4-3.2-2.4c-2.5,0-1.6,3.8-1,5.2C94.7,60.5,96.1,60.1,95.8,59.2L95.8,59.2z"/>
			</g>
		</g>
		<g>
			<path class="st6" d="M96.8,71.5c0.8-0.2,1.5-0.5,2.2-1c0.1-0.1,0.2-0.2,0.3-0.3c0.1-0.3,0-0.6-0.2-0.8c-0.8-0.7-2.1-0.2-2.9-0.8
				c-0.4-0.3-0.5-0.7-0.7-1.1s-0.4-0.8-0.7-1.1s-0.9-0.3-1.2,0.1c-0.1,0.2-0.1,0.4-0.2,0.6c-0.1,0.5-0.1,0.9-0.2,1.4
				c0,0.1,0,0.3-0.1,0.4c-0.1,0.1-0.3,0.1-0.5,0.1c-0.9-0.1-1.8,0.2-2.5,0.7c0.3,1.4,2.4,1.8,2.5,3.1c0,0.4-0.1,0.8-0.1,1.2
				c0,0.4,0.2,0.9,0.7,0.9c0.2,0,0.4-0.1,0.6-0.3c0.5-0.4,1-0.7,1.4-1.1c0.1-0.1,0.2-0.1,0.3-0.1c0.1,0,0.2,0.1,0.3,0.1
				c0.6,0.4,1.3,0.7,2,0.9c0.1,0,0.2,0,0.3,0c0.3-0.1,0.1-0.5,0-0.8c-0.4-0.7-0.8-1.4-1.2-2"/>
			<g>
				<path class="st7" d="M97,72.3c1.1-0.2,3.4-1,3-2.5c-0.2-0.7-0.8-1.1-1.4-1.2c-0.6-0.1-1.1-0.1-1.7-0.2c-0.6-0.1-0.8-0.8-1-1.3
					c-0.3-0.6-0.8-1.1-1.5-1.3c-0.7-0.1-1.4,0.1-1.7,0.7c-0.2,0.4-0.2,0.8-0.2,1.2c0,0.3,0,0.8-0.2,1.1c0.1-0.1,0.2-0.2,0.3-0.3
					c0,0-0.5-0.1-0.6,0c-0.3,0-0.6,0.1-0.9,0.1c-0.5,0.1-1.1,0.4-1.5,0.7c-0.3,0.2-0.4,0.5-0.3,0.8c0.2,0.8,0.8,1.4,1.4,1.8
					c0.4,0.3,1.1,0.7,1.1,1.3c0,0.5-0.2,1-0.1,1.5c0.1,0.5,0.5,0.9,0.9,1.1c0.6,0.2,1-0.1,1.5-0.4c0.3-0.2,0.5-0.4,0.8-0.6
					c0.2-0.1,0.4-0.4,0.6-0.4c-0.1,0-0.3,0-0.4,0c0.2,0,0.5,0.3,0.7,0.4c0.3,0.2,0.6,0.3,0.9,0.4c0.6,0.2,1.4,0.4,1.8-0.1
					c0.4-0.5,0.3-1.1,0-1.6c-0.4-0.7-0.8-1.4-1.2-2c-0.5-0.8-1.8-0.1-1.3,0.8c0.2,0.4,0.5,0.8,0.7,1.3c0.1,0.2,0.2,0.4,0.4,0.6
					c0.1,0.1,0.1,0.2,0.1,0.3c0,0.1,0,0.1,0.1-0.2c0.1-0.1,0.2-0.1,0.3-0.2c-0.2,0.1-0.5-0.1-0.7-0.2c-0.3-0.1-0.5-0.2-0.7-0.4
					c-0.5-0.3-1-0.7-1.6-0.3c-0.5,0.3-1,0.8-1.5,1.2c-0.1,0.1-0.1,0.1-0.2,0.1c-0.1,0.1-0.1,0.1,0.2,0.1c0,0-0.1-0.3-0.1-0.2
					c0-0.2,0.1-0.5,0.1-0.7c0.1-1-0.3-1.8-1-2.4c-0.5-0.4-1.3-0.8-1.5-1.5c-0.1,0.3-0.2,0.6-0.3,0.8c0.5-0.4,1-0.6,1.7-0.6
					c0.7,0,1.5,0.1,1.7-0.7c0.1-0.3,0.1-0.7,0.1-1c0-0.1,0-1,0.1-1c-0.1,0,0,0,0,0c0.1,0,0.2,0.1,0.2,0.1c0.2,0.2,0.3,0.5,0.4,0.8
					c0.3,0.6,0.6,1.1,1.2,1.4c0.5,0.3,1.1,0.3,1.7,0.3c0.2,0,0.4,0,0.7,0.1c0.1,0,0.1,0.1,0.2,0.1c0,0,0,0,0.1,0.1
					c0-0.2,0-0.2-0.1-0.1c-0.1,0-0.3,0.2-0.4,0.3c-0.1,0.1-0.3,0.2-0.4,0.2c-0.3,0.1-0.7,0.2-1,0.3C95.7,71,96.1,72.5,97,72.3
					L97,72.3z"/>
			</g>
		</g>
	</g>
	<g>
		<g>
			<path class="st6" d="M44.5,111.4c-0.3,0.7-0.6,1.5-0.8,2.2c-0.1,0.3-0.2,0.7,0.1,1c0.3,0.3,0.8,0,1.1-0.2c0.7-0.5,1.5-1,2.2-1.5
				c0.1-0.1,0.2-0.1,0.3-0.1c0.1,0,0.3,0.1,0.4,0.2c0.7,0.6,1.3,1.2,2,1.7c0.2,0.2,0.4,0.3,0.7,0.4c0.3,0.1,0.6,0,0.7-0.2
				c0.1-0.2,0.1-0.5,0.1-0.7c-0.1-0.5-0.2-1.1-0.5-1.6c-0.1-0.3-0.2-0.5-0.1-0.8c0.1-0.2,0.3-0.3,0.6-0.4c0.5-0.2,0.9-0.4,1.3-0.7
				c0.3-0.2,0.6-0.5,0.8-0.9c0.2-0.4,0.2-0.8-0.1-1.1c-0.1-0.2-0.3-0.2-0.5-0.3c-0.7-0.3-1.3-0.6-2-0.9c-0.2-0.1-0.4-0.2-0.6-0.4
				c-0.2-0.2-0.2-0.5-0.3-0.8c-0.2-0.7-0.4-1.3-0.8-1.9c-0.1-0.2-0.2-0.3-0.4-0.4c-0.3-0.2-0.7,0.2-1,0.5c-0.5,0.6-0.9,1.2-1.2,1.9
				c-0.1,0.2-0.2,0.4-0.3,0.5c-0.1,0.1-0.3,0.1-0.5,0.1c-0.7,0.1-1.4,0.1-2.1,0.2c-0.4,0-0.9,0.2-1.1,0.6c-0.1,0.2,0,0.5,0.2,0.7
				c0.3,0.5,0.8,0.8,1.1,1.2c0.4,0.4,0.7,0.9,0.6,1.5"/>
			<g>
				<path class="st7" d="M43.7,111.2c-0.3,0.7-0.6,1.5-0.8,2.2c-0.2,0.7-0.2,1.4,0.4,1.8c0.6,0.4,1.3,0.2,1.9-0.2
					c0.2-0.1,2.2-1.5,2.2-1.5c-0.1,0-0.2,0-0.3,0c0.1,0.1,0.2,0.2,0.3,0.3c0.2,0.1,0.3,0.3,0.5,0.4c0.3,0.2,0.5,0.4,0.8,0.6
					c0.6,0.5,1.2,1.1,2,1c1.8-0.1,1.3-2.2,0.9-3.3c0-0.1-0.2-0.4-0.2-0.5c0,0.2,0.1,0,0.2-0.1c0.3-0.2,0.7-0.3,1-0.5
					c0.6-0.4,1.2-0.8,1.5-1.5c0.2-0.6,0.2-1.3-0.2-1.8c-0.5-0.6-1.4-0.8-2.1-1.1c-0.3-0.1-0.8-0.2-1-0.5c-0.2-0.2-0.2-0.6-0.2-0.9
					c-0.2-0.7-0.5-1.6-1.1-2.1c-1.3-1.1-2.6,0.8-3.1,1.8c-0.1,0.3-0.3,0.8-0.5,0.9c-0.1,0.1-0.5,0-0.6,0.1c-0.3,0-0.6,0.1-0.8,0.1
					c-0.7,0.1-1.6,0.1-2.1,0.6c-0.6,0.6-0.4,1.5,0.1,2.1C42.9,109.9,43.9,110.4,43.7,111.2c0,0.4,0.5,0.8,0.8,0.8
					c0.4,0,0.7-0.3,0.8-0.8c0.2-1.4-1-2-1.7-2.9c-0.1-0.1-0.1-0.3-0.2-0.3c-0.1,0.1,0.1,0,0.1,0c0.2-0.1,0.4-0.1,0.7-0.1
					c0.7-0.1,1.4-0.1,2-0.2c0.5-0.1,0.9-0.5,1.1-1c0.3-0.6,0.6-1.1,0.9-1.6c0,0,0.2-0.2,0.2-0.3c0,0,0.1-0.1,0.1-0.1
					c-0.2-0.1-0.2-0.1-0.1,0c0,0.2,0.3,0.6,0.4,0.8c0.2,0.6,0.3,1.2,0.6,1.8c0.6,1.1,2.2,1.1,3.1,1.8c0.8,0.5-1.6,1.6-1.9,1.8
					c-0.5,0.2-0.8,0.7-0.8,1.2c0,0.6,0.4,1.2,0.5,1.7c0,0.2,0.1,0.3,0.1,0.5c0,0,0,0.1,0,0.1c0,0.2,0,0.2,0.1,0.1
					c-0.2-0.1-0.3-0.2-0.5-0.3c-0.5-0.4-1-0.8-1.5-1.2c-0.5-0.4-1-1-1.7-0.7c-0.6,0.2-1.2,0.8-1.8,1.1c-0.2,0.1-0.4,0.2-0.5,0.4
					c-0.1,0.1-0.4,0.2-0.5,0.3c0,0,0,0-0.1,0c-0.1,0-0.1,0.1,0.2,0.1c0,0,0.1-0.5,0.1-0.4c0.2-0.7,0.4-1.4,0.7-2
					c0.2-0.4-0.2-0.8-0.5-0.9C44.2,110.6,43.9,110.9,43.7,111.2L43.7,111.2z"/>
			</g>
		</g>
	</g>
	<g>
		<path class="st6" d="M32.5,116.2c-0.8,0.8-1.4,1.8-1.8,2.8c-0.1,0.2-0.1,0.4-0.1,0.6c0.1,0.4,0.5,0.6,0.9,0.7
			c1.4,0.2,2.6-1.4,4-1.4c0.6,0,1.2,0.4,1.7,0.7c0.5,0.3,1.1,0.6,1.7,0.6c0.6,0,1.3-0.4,1.3-1c0-0.3-0.1-0.6-0.3-0.8
			c-0.3-0.6-0.6-1.2-0.9-1.8c-0.1-0.2-0.2-0.4-0.1-0.6c0.1-0.2,0.3-0.4,0.5-0.5c1.1-0.6,1.9-1.6,2.3-2.7c-1.4-1.4-4.1-0.2-5.4-1.7
			c-0.4-0.4-0.5-1.1-0.8-1.5c-0.3-0.5-1-0.9-1.5-0.5c-0.2,0.2-0.3,0.5-0.4,0.7c-0.3,0.8-0.5,1.6-0.8,2.4c0,0.1-0.1,0.3-0.2,0.4
			c-0.1,0.1-0.3,0.1-0.5,0.1c-1-0.1-2.1,0.1-3,0.6c-0.1,0.1-0.3,0.2-0.4,0.3c-0.2,0.4,0.3,0.7,0.6,0.9c1,0.5,2,1,3,1.4"/>
		<g>
			<path class="st7" d="M32,115.7c-0.6,0.6-1.1,1.4-1.5,2.2c-0.4,0.7-0.8,1.6-0.3,2.4c1,1.5,2.9,0.5,4.1-0.2
				c0.7-0.4,1.3-0.6,2.1-0.2c0.8,0.4,1.5,1,2.4,1.1c0.8,0.1,1.6-0.3,2-1c0.5-0.9,0-1.7-0.5-2.5c-0.1-0.3-0.3-0.5-0.4-0.8
				c-0.1-0.1-0.1-0.2-0.2-0.3c-0.1-0.2-0.1,0,0-0.1c0.4-0.3,0.8-0.5,1.2-0.8c0.7-0.7,1.2-1.5,1.6-2.4c0.1-0.2,0-0.6-0.2-0.7
				c-0.7-0.6-1.5-0.8-2.4-0.9c-0.8-0.1-1.7,0-2.4-0.3c-0.9-0.4-0.9-1.6-1.6-2.2c-0.7-0.7-1.9-0.8-2.5,0c-0.3,0.4-0.5,1-0.6,1.5
				c-0.1,0.3-0.2,0.6-0.3,1c-0.1,0.2-0.1,0.3-0.2,0.5c-0.2,0.3-0.1,0.3,0.1,0.1c-0.2,0.1-0.6,0-0.8,0c-0.3,0-0.6,0-0.9,0.1
				c-0.6,0.1-1.1,0.3-1.7,0.5c-1,0.5-1.3,1.5-0.4,2.3c0.5,0.4,1.1,0.6,1.6,0.9c0.6,0.3,1.2,0.6,1.8,0.9c0.9,0.4,1.6-0.9,0.8-1.3
				c-1-0.5-2-0.9-3-1.4c-0.1,0-0.2-0.1-0.3-0.2c0,0.1-0.1,0.2-0.1,0.4c0,0,0.6-0.3,0.7-0.3c0.5-0.2,0.9-0.3,1.4-0.3
				c0.9,0,1.6,0.1,2-0.8c0.2-0.4,0.3-0.9,0.5-1.3c0.1-0.2,0.2-0.5,0.2-0.7c0-0.1,0.1-0.6,0.3-0.7c0.5-0.3,0.9,1.3,1.1,1.6
				c0.4,0.6,1,1,1.7,1.2c1.2,0.3,2.9-0.1,3.9,0.8c-0.1-0.2-0.1-0.5-0.2-0.7c-0.3,0.8-0.8,1.5-1.5,2c-0.7,0.5-1.6,0.8-1.4,1.8
				c0.1,0.5,0.4,1,0.7,1.4c0.1,0.3,0.7,1,0.6,1.3c-0.2,0.9-1.8-0.2-2.1-0.4c-0.7-0.4-1.5-0.7-2.4-0.6c-0.7,0.1-1.4,0.6-2,0.9
				c-0.3,0.2-0.6,0.4-1,0.4c-0.1,0-0.3,0.1-0.4,0c-0.2-0.1-0.1-0.2,0-0.4c0.3-0.9,0.9-1.7,1.5-2.4C33.7,116.1,32.7,115,32,115.7
				L32,115.7z"/>
		</g>
	</g>
	<g>
		<path class="st6" d="M39.4,96c-0.1-0.9-1-1.9-1.7-2.9c-0.2-0.3-0.7-0.3-0.9,0c-0.4,0.7-0.6,1.5-1,2.2c-0.3,0.5-4.1-0.7-5.7-0.5
			c-0.4,0-0.7,0.1-0.9,0.4c-0.3,0.4-0.1,0.9,0.1,1.3c0.8,1.3,2.7,1.9,3.1,3.4c0.2,0.7,0.1,1.3-0.1,2c-0.3,0.9-0.5,1.8-0.4,2.7
			c0,0.2,0,0.3,0.1,0.5c0.2,0.2,0.5,0.3,0.8,0.2c1.4-0.1,4.3-2.5,4.8-2.5c0.2,0,0.4,0.2,0.6,0.3l2.8,1.7c0.6,0.4,1.2,0.4,1.5-0.2
			c0.3-0.6,0.2-1.3,0-1.9c-0.4-1-1.5-2.1-2.3-2.8c-0.4-0.3,2-1.3,2.4-1.5c0.4-0.2,0.9-0.9,1-1.4c0-0.4-0.3-0.7-0.8-0.7
			c-0.6,0.1-2.5-0.2-3.1-0.1c0,0-0.1,0-0.1,0"/>
		<g>
			<path class="st7" d="M40.1,95.8c-0.1-0.6-0.4-1.1-0.7-1.6c-0.4-0.5-0.7-1.1-1.2-1.6c-0.3-0.4-0.8-0.6-1.3-0.4
				c-0.6,0.2-0.9,0.8-1.1,1.3c-0.1,0.3-0.2,0.6-0.4,0.8c-0.1,0.1-0.2,0.3-0.2,0.5c0,0.4,0.2-0.4,0.3-0.1c0,0-0.7,0-0.9-0.1
				c-0.9-0.1-1.9-0.3-2.8-0.5c-0.9-0.1-1.9-0.3-2.7,0.2c-1.1,0.6-0.9,2-0.2,2.8c0.7,0.9,1.6,1.4,2.3,2.2c1,1.2,0.1,2.5-0.1,3.8
				c-0.2,1.1-0.3,2.7,1.2,2.9c0.8,0.1,1.7-0.3,2.4-0.7c0.8-0.5,1.6-1,2.4-1.5c0.1-0.1,0.3-0.2,0.4-0.2c0.2-0.1,0.1,0,0.1,0
				c-0.1-0.1,0.1,0.1,0.2,0.2c0.1,0.1,0.2,0.1,0.3,0.2c0.6,0.4,1.2,0.7,1.9,1.1c0.6,0.3,1.1,0.8,1.8,0.7c1.3-0.1,1.7-1.4,1.6-2.5
				c-0.2-1.3-0.9-2.3-1.8-3.1c-0.2-0.2-0.5-0.6-0.8-0.7c0,0,0,0-0.1-0.1c-0.2-0.2-0.2,0,0,0.7c0.1,0-0.2,0.1,0,0
				c0.4-0.1,0.8-0.5,1.1-0.6c0.9-0.4,1.7-0.8,2.1-1.8c0.2-0.6,0.3-1.3-0.2-1.7c-0.4-0.4-0.9-0.4-1.4-0.4c-0.9,0-2.1-0.1-2.9-0.1
				c-1,0-1,1.5,0,1.5c0.7,0,1.4,0,2.1,0.1c0.3,0,0.6,0,0.9,0c0.1,0,0.2,0,0.1-0.1c0,0-0.1,0.2-0.1,0.3c-0.1,0.2-0.3,0.4-0.5,0.5
				c-0.8,0.5-2.5,0.8-2.7,1.9c-0.2,0.8,1,1.5,1.5,2c0.3,0.4,0.7,0.8,0.9,1.3c0.1,0.3,0.4,1.3,0,1.5c-0.2,0.1-0.9-0.5-1.1-0.6
				c-0.5-0.3-1.1-0.7-1.6-1c-0.4-0.3-0.9-0.6-1.4-0.7c-0.5,0-1,0.4-1.4,0.6c-0.6,0.4-1.3,0.8-1.9,1.2c-0.3,0.2-0.6,0.4-0.9,0.5
				c-0.1,0.1-0.7,0.2-0.7,0.2c-0.1-0.1,0-0.6,0-0.8c0-0.3,0.1-0.6,0.1-0.9c0.1-0.6,0.4-1.2,0.5-1.8c0.1-1-0.2-2-0.8-2.8
				c-0.6-0.7-1.3-1.1-2-1.7c-0.2-0.2-0.8-0.8-0.4-1c0.2-0.2,0.8-0.1,1-0.1c1.5,0.1,3.1,0.7,4.6,0.6c1-0.1,1.2-1.1,1.5-1.9
				c0-0.1,0.1-0.2,0.2-0.3c0.1-0.4,0-0.2,0.1-0.1c0.2,0.2,0.4,0.5,0.6,0.8c0.4,0.5,0.7,1,0.8,1.6C38.8,97.1,40.2,96.7,40.1,95.8
				L40.1,95.8z"/>
		</g>
	</g>
	<path class="st4" d="M85.6,86.7c0.1-0.1,0.2-0.3,0.3-0.4c0.1-0.1,0.3-0.2,0.5-0.2C86.6,86,86.8,86,87,86c0.4,0,0.8,0.1,1.1,0.3
		l0.2,0.2c0.1,0.2,0.2,0.4,0.2,0.6c0,0.5,0.1,0.9,0.1,1.4c0,0.2,0,0.3-0.1,0.4c-0.1,0.1-0.2,0.3-0.3,0.4c-0.1,0.1-0.3,0.2-0.5,0.2
		c-0.2,0.1-0.4,0.1-0.6,0.1c-0.4,0-0.8-0.1-1.1-0.3l-0.2-0.2c-0.1-0.2-0.2-0.4-0.2-0.6c0-0.5-0.1-0.9-0.1-1.4
		C85.5,86.9,85.5,86.8,85.6,86.7z"/>
	<g>
		<path class="st4" d="M60.9,93.1c0.2-0.1,0.3-0.2,0.5-0.3c0,0,0,0,0,0c0,0,0,0,0,0c0,0,0,0,0,0c0.1-0.1,0.1-0.1,0.1-0.1
			c0.1,0,0.1-0.1,0.1-0.1c0.3-0.3,0.6-0.5,0.8-0.8c0.1-0.1,0.3-0.3,0.3-0.4c0,0,0,0,0,0c0,0,0,0,0,0c0.1-0.1,0.1-0.2,0.2-0.3
			c0,0,0-0.1,0-0.1c-0.3-0.5-0.3-1-0.1-1.6c-0.5-0.2-0.9-0.5-1-1c-0.1-0.6,0.1-1.4,0.7-1.7c0.7-0.4,1.4-0.6,2.2-0.5
			c0.6,0.1,1.3,0.4,1.4,1.1c0,0.1,0,0.3,0,0.4c0.1,0.3,0.2,0.6,0.1,0.9c-0.1,0.2-0.2,0.4-0.3,0.5c-0.1,0.2-0.1,0.4-0.2,0.5
			c0.5,0.5,0.5,1.2,0.2,1.8c-0.8,1.7-2.2,3.1-3.7,4.1c-0.7,0.4-1.7,0.2-2.1-0.5C60,94.4,60.2,93.6,60.9,93.1z"/>
		<path class="st4" d="M61.4,92.8C61.4,92.8,61.4,92.8,61.4,92.8C61.5,92.7,61.5,92.7,61.4,92.8C61.5,92.7,61.4,92.8,61.4,92.8z"/>
	</g>
	<g>
		<g>
			<path class="st1" d="M87.8,84.9C83,83.3,78,83.1,73,83.5c-4,0.3-8.7,0.5-12.2,2.6c-3.6,2.1-5.1,6.5-5.6,10.4
				c-0.2,1.4,0.6,2.9,2.3,2.3c1.8-0.6,3.1-2.1,5.1-2.2c1-0.1,1-1.6,0-1.5c-1.5,0.1-2.7,0.8-4,1.5c-0.5,0.3-1.7,1.2-1.9,0.3
				c-0.2-0.7,0.4-2.1,0.6-2.8c0.5-1.8,1.1-3.7,2.4-5.1c1.1-1.2,2.6-2,4.2-2.4c3.5-1.1,7.4-1.3,11.1-1.5c4.2-0.2,8.4,0.2,12.5,1.5
				C88.3,86.6,88.7,85.2,87.8,84.9L87.8,84.9z"/>
		</g>
	</g>
	<g>
		<path class="st6" d="M50,90.3c0.1-0.9,1-1.9,1.7-2.9c0.2-0.3,0.7-0.3,0.9,0c0.4,0.7,0.6,1.5,1,2.2c0.3,0.5,4.1-0.7,5.7-0.5
			c0.4,0,0.7,0.1,0.9,0.4c0.3,0.4,0.1,0.9-0.1,1.3c-0.8,1.3-2.7,1.9-3.1,3.4c-0.2,0.7-0.1,1.3,0.1,2c0.3,0.9,0.5,1.8,0.4,2.7
			c0,0.2,0,0.3-0.1,0.5c-0.2,0.2-0.5,0.3-0.8,0.2c-1.4-0.1-4.3-2.5-4.8-2.5c-0.2,0-0.4,0.2-0.6,0.3l-2.8,1.7
			c-0.6,0.4-1.2,0.4-1.5-0.2c-0.3-0.6-0.2-1.3,0-1.9c0.4-1,1.5-2.1,2.3-2.8c0.4-0.3-2-1.3-2.4-1.5c-0.4-0.2-0.9-0.9-1-1.4
			c0-0.4,0.3-0.7,0.8-0.7c0.6,0.1,2.5-0.2,3.1-0.1c0,0,0.1,0,0.1,0"/>
		<g>
			<path class="st7" d="M50.7,90.5c0.1-0.5,0.3-0.9,0.6-1.3c0.2-0.2,0.3-0.5,0.5-0.7c0.1-0.1,0.2-0.2,0.2-0.3c0-0.1,0.1-0.1,0.1-0.2
				c-0.1,0-0.2,0-0.1,0.1c0.3,0.7,0.5,1.9,1.3,2.3c0.5,0.2,1.2,0.1,1.7,0c0.8-0.1,1.5-0.3,2.3-0.4c0.5-0.1,1.5-0.3,2-0.1
				c0.7,0.4-1.1,1.6-1.4,1.9c-0.7,0.5-1.3,1.1-1.6,2c-0.4,1.2,0,2.2,0.3,3.4c0.1,0.3,0.1,0.6,0.2,0.9c0,0.1,0.1,0.8,0,0.9
				c0,0-0.5-0.2-0.6-0.2c-0.7-0.3-1.4-0.7-2-1.1c-0.5-0.3-1-0.7-1.6-1c-0.6-0.3-1.1-0.2-1.7,0.2c-0.9,0.5-1.8,1.1-2.7,1.6
				c-0.1,0.1-0.3,0.3-0.5,0.2c-0.5-0.1-0.2-1.1-0.1-1.4c0.4-1,1.3-1.7,2-2.4c1.4-1.3-1.2-2.3-2.1-2.7c-0.3-0.2-0.6-0.3-0.8-0.7
				c-0.1-0.1-0.1-0.3-0.1-0.2c-0.1,0.1,0.1,0.1,0.2,0.1c0.2,0,0.4,0,0.6,0c0.8,0,1.6-0.1,2.5-0.1c1,0,1-1.5,0-1.5
				c-0.7,0-1.7,0.1-2.6,0.1c-0.4,0-0.9-0.1-1.3,0.1c-0.5,0.2-0.9,0.7-0.9,1.2c0,1,0.7,1.8,1.6,2.3c0.3,0.2,0.7,0.3,1,0.5
				c0.2,0.1,0.7,0.5,0.9,0.5c0,0,0,0,0,0c-0.1-0.2-0.1-0.5,0.1-0.8c-0.1,0-0.3,0.2-0.3,0.3c-0.2,0.2-0.4,0.4-0.6,0.6
				c-0.5,0.5-0.9,1-1.3,1.5c-0.6,1-0.9,2.4-0.2,3.4c1.1,1.5,2.9,0,4-0.6c0.5-0.3,1-0.5,1.4-0.9c0,0-0.2-0.1,0,0
				c0.1,0.1,0.3,0.2,0.4,0.2c0.4,0.2,0.7,0.5,1.1,0.7c1,0.7,4.2,2.8,4.9,0.6c0.2-0.6,0.1-1.4,0-2c-0.1-0.7-0.4-1.4-0.5-2.1
				c-0.2-1.4,0.8-2,1.7-2.8c0.8-0.7,1.7-1.6,1.6-2.7c-0.1-1.1-1.2-1.5-2.2-1.5c-1,0-2.1,0.2-3.1,0.4c-0.4,0.1-0.9,0.2-1.4,0.2
				c0,0-0.5,0-0.5,0c0,0,0,0,0.2,0.1c0.2,0.2,0.2,0.2,0-0.1c0-0.1-0.1-0.2-0.1-0.3c-0.4-1-1.1-3-2.6-2.1c-0.5,0.3-0.9,1.1-1.3,1.6
				c-0.4,0.6-0.8,1.2-0.9,1.9C49.1,91,50.6,91.4,50.7,90.5L50.7,90.5z"/>
		</g>
	</g>
	<g>
		<g>
			<path class="st1" d="M93.3,99.8c0.8-3.2,0.5-6.6-0.9-9.7c-1.1-2.5-3.4-6.1-6.6-5.4c-3.4,0.7-4.4,4.4-5.1,7.3
				c-0.4,1.8-1,3.8-2.7,4.8c-1.7,1-3.9-0.2-5.6-0.7c-4-1.2-8.3-1.8-12.3-0.2c0.2,0.4,0.5,0.8,0.7,1.3c0.1-0.1,1-0.6,1.3-0.9
				c0.7-0.7-0.4-1.8-1.1-1.1c-0.1,0.1-1,0.6-1.3,0.9c-0.5,0.5,0,1.6,0.7,1.3c4.3-1.8,8.9-0.7,13.2,0.7c1.7,0.6,3.2,1.1,4.9,0.2
				c1.5-0.8,2.5-2.3,3.1-3.9c0.7-2,0.8-4.3,2-6.1c0.5-0.8,1.3-1.6,2.3-1.9c1.3-0.4,2.3,0.4,3.2,1.3c2.8,3.2,3.7,7.8,2.8,11.9
				C91.6,100.4,93,100.8,93.3,99.8L93.3,99.8z"/>
		</g>
	</g>
</g>
<g>
	<g>
		<path class="st1" d="M110.4,131.9c6.7-3.2,12.4-7.7,18-12.5c2.6-2.2,5.3-4.4,8-6.5c2.6-2,5.1-4.4,5.3-7.9c0.1-1-1.4-1-1.5,0
			c-0.2,3.6-3.6,5.9-6.2,7.9c-2.5,1.9-4.8,3.9-7.1,5.9c-5.3,4.6-10.7,8.7-17.1,11.8C108.7,131,109.5,132.3,110.4,131.9L110.4,131.9z
			"/>
	</g>
</g>
<g>
	<g>
		<path class="st1" d="M108.8,69.9c10.6,3.6,15,15.4,22.3,22.9c0.7,0.7,1.7-0.4,1.1-1.1c-7.5-7.8-11.9-19.5-22.9-23.3
			C108.2,68.1,107.8,69.6,108.8,69.9L108.8,69.9z"/>
	</g>
</g>
<g>
	<g>
		<path class="st1" d="M137.6,92.5c-3.3-3.6-6.5-7.4-9.6-11.2c-2.9-3.7-6.1-7.4-8.2-11.6c-1.8-3.7-3.3-7.8-7.1-9.8
			c-3.2-1.7-6.8-0.8-9.1,1.9c-0.6,0.7,0.4,1.8,1.1,1.1c1.1-1.3,2.8-2.4,4.5-2.4c1.9,0,3.7,1.1,5.1,2.4c2.9,2.9,3.8,7.2,6,10.6
			c2.2,3.5,5,6.8,7.6,10c2.8,3.5,5.7,6.9,8.7,10.1C137.2,94.3,138.3,93.2,137.6,92.5L137.6,92.5z"/>
	</g>
</g>
<g>
	<g>
		<path class="st1" d="M134.7,110.4c3-3.1,6.8-5.5,10-8.4c0.4-0.4,0.9-0.8,1.2-1.4c0.6-1.1,0.2-2.8-0.4-3.7
			c-0.8-1.3-2.6-1.9-3.9-2.5c-1.2-0.6-2.3-1.1-3.5-1.6c-1.9-0.7-3.8-1-5.9-0.9c-1.9,0.1-1.9,3.1,0,3c0.7,0,1.5,0,2.2,0
			c0.3,0-0.2,0,0.2,0c0.2,0,0.3,0.1,0.5,0.1c0.4,0.1,0.8,0.2,1.2,0.3c2.2,0.7,4.2,1.8,6.2,2.9c0.4,0.2,0.5,0.3,0.6,0.8
			c0,0.1,0.1,0.6,0,0.7c0,0,0.3-0.9,0.1-0.5c0,0,0.2-0.2,0,0c-0.1,0.1-0.2,0.2-0.3,0.3c-0.2,0.2-0.5,0.5-0.7,0.7
			c-1.5,1.3-3,2.5-4.5,3.7c-1.8,1.4-3.6,2.8-5.2,4.5C131.2,109.7,133.4,111.8,134.7,110.4L134.7,110.4z"/>
	</g>
</g>
</svg>
