<?xml version="1.0" encoding="utf-8"?>
<!-- Generator: Adobe Illustrator 27.0.1, SVG Export Plug-In . SVG Version: 6.00 Build 0)  -->
<svg version="1.1" id="Calque_1" xmlns="http://www.w3.org/2000/svg" xmlns:xlink="http://www.w3.org/1999/xlink" x="0px" y="0px"
	viewBox="0 0 200 200" style="enable-background:new 0 0 200 200;" xml:space="preserve">
	<style type="text/css">
	.st0{fill:#666666;}
	.st1{fill:#E7F4DF;}
	.st2{fill:#FFFF66;}
	.st3{opacity:0.6;}
	.st4{fill:#0F0F23;}
</style>
	<path class="st0" d="M47.8,114.8c0-0.4,0-0.8-0.2-1.2c-0.3-0.7-0.7-1.3-1.1-2c-0.8-1.2-1.6-2.4-2.5-3.6c-0.5-0.8-1.1-1.5-1.6-2.3
	c-0.1-1.5-0.8-2.9-1.6-4.1c-1-1.5-2.1-2.9-3.3-4.2c-1.1-1.2-2.3-2.3-3.6-3.3c-1.6-2.1-3.7-4.2-6.1-4.4c-1.6-1.1-3.5-1.8-5.2-2
	c-4.1-0.6-8.3,0.5-11.2,3.6c-2.9,3-4.5,7-3.7,11.1c0.5,2.2,1.8,4.2,3.1,6c1.3,1.9,2.8,3.7,4.4,5.4c1.7,1.9,3.5,3.5,5.5,5.1
	c1.1,0.9,2.3,1.7,3.5,2.5c0.5,0.3,1,0.6,1.5,0.9c-0.3,0-0.6,0-0.9,0c-1.2,0.1-2.4,0.2-3.5,0.4c-1.1,0.2-1.1,2,0,2.2
	c2.3,0.5,4.9,0.7,7.2,0.6c1.6-0.1,3-1,4.3-1.9c2-1,4-1.8,6-2.7c2.7-1.2,5.6-2.4,8.6-3C48.7,117.7,48.8,115.7,47.8,114.8z" />
	<path class="st0" d="M169.8,101.8c-0.2-6.6-0.5-13.6-3.7-19.5c-1-3.2-2.2-6.3-3.6-9.4c-1.8-6.1-4.6-11.8-8.4-16.9
	c-0.3-0.3-0.6-0.5-0.9-0.6c1.4-4.7,3.3-9.8,2.7-14.7c-0.1-1-2.3-1.6-3.4-1.4c-4.8,1.2-9.5,2.7-14.1,4.4c-4.1-1.2-8.4-1.7-12.7-1.5
	c-1.6-0.3-3.2-0.4-4.8-0.5c-2.1-0.1-4.1,0-6.1,0.2c-1.5,0-3,0-4.4,0.1c-6,0.5-11.7,2-17.2,4.5c-0.1-0.2-0.2-0.4-0.3-0.5
	c-3.8-4.1-8.7-6.7-14.1-7.7c-0.6-0.1-1.1-0.2-1.7-0.3c-0.6-0.1-1.1,0.4-1.4,0.9C75.1,39,74.4,39,73.6,39c-0.8,0-1.5,0.7-1.5,1.5
	c0.2,2.8,0.3,5.5,0.5,8.3c0,0.7,0,1.4,0.1,2.2c0,2-0.1,3.9-0.3,5.9c-2.1,2.1-4,4.3-5.8,6.6c0,0,0,0.1-0.1,0.1
	c-4.9,4.7-8.7,10.4-9.8,17.2c-1.8,4-3.2,8.2-4.1,12.5c-0.1,0.6-0.3,1.3-0.4,1.9c-0.4,1.5-0.6,2.9-0.9,4.4c-0.3,0.1-0.6,0.3-0.8,0.7
	c-0.1,0.1-0.1,0.2-0.1,0.4c0,0,0,0,0,0c0,0,0,0,0,0c-1.4,3.3-1.6,6.9-0.7,10.2c0,1.3,0.1,2.6,0.2,3.9c0.1,0.8-0.4,3,0.5,3
	c2.3,0,5.5-1.8,7.7-2.6c1.8,1.3,3.6,2.7,5.4,4l-14,3.8c-0.6,0.2-0.9,0.6-1,1.1c-0.2-0.7-0.8-1.2-1.6-1c-0.1,0-0.3,0.1-0.4,0.1
	c-0.3-0.2-0.6-0.3-0.9-0.3c-0.9-0.1-1.7,0.3-2.2,1.1c-0.1,0.1-0.2,0.3-0.3,0.4c-3.1,1.2-6.1,2.7-8.6,4.8c-0.8,0.7-0.5,2.2,0.3,2.7
	c0.9,0.5,1.8,1,2.8,1.4c0.9,0.3,1.8,0.6,2.7,0.8c2,0.4,4.1,0.9,6.1,0.6c1.1-0.2,2.1-0.7,2.7-1.6c0.8-1.2,0.6-2.5,0.1-3.7
	c-0.2-0.4-0.4-0.7-0.5-1c-0.1-0.2-0.2-0.3-0.2-0.5c0,0.1-0.2-0.5-0.2-0.5c-0.1-0.3-0.2-0.7-0.3-1c0.1-0.2,0.2-0.4,0.2-0.7
	c0.2-0.2,0.4-0.4,0.5-0.6c0,0.1,0.1,0.3,0.1,0.4c-1.1,0.8-0.3,2.8,1.1,2.7c-0.1,1.1,0.1,2.3,0.5,3.5c0.1,0.5,0.2,1,0.4,1.5
	c0,0.2,0,0.4,0.1,0.6c1,3.4,2.6,6.5,4.6,9.4c0.9,1.7,1.9,3.3,3.6,4.4c0.9,1,2,1.9,3,2.8c1.2,1.7,2.4,3.3,3.8,4.9
	c2.3,2.8,5,5.9,8.3,7.6c-0.2,1.2-0.4,2.3-0.3,3.5c0,1,0.1,1.9,0.3,2.9c0.2,0.8,0.4,1.6,1,2.1c-0.1,0.3-0.3,0.6-0.4,1
	c-0.3,1,0.8,2.3,1.8,1.8c3.8-1.4,7-4.1,9.2-7.5c0.3,0,0.5,0,0.8,0c0.2,0.2,0.4,0.3,0.7,0.4c6.1,1.3,12.3,2.1,18.5,2.4
	c2.4,0.3,4.9,0.5,7.3,0.6c0.2,0.1,0.4,0.2,0.6,0.2c3.5,0.3,6.9-0.2,10.4-0.8c1.6-0.2,3.3-0.5,4.9-0.8c0.8-0.1,1.5-0.2,2.3-0.3
	c4.6-0.4,9.8,2.8,12.9,3.7c1,0.3,2.3,0.5,2.5-0.7c0.4-2.7,0.3-5.4-0.3-8.1c5-3.3,9-7.9,11.7-13.3c4.7-6.5,8.1-13.8,9.3-21.8
	c0-0.3,0-0.7-0.2-1c1.2-7,3-13.3,2.8-20.4c0.1-0.8,0.1-1.1,0.2-1.9C170.7,104.6,169.9,102.7,169.8,101.8z" />
	<path class="st0" d="M45.3,123c-0.3,0.1-0.7,0.2-1,0.3c-0.2,0.1-0.4,0.2-0.6,0.3c1.7,1,3.5,2.1,5.3,3.1c-0.1-0.6-0.1-1.2-0.2-1.7
	C47.6,124.3,46.5,123.7,45.3,123z" />
	<path class="st1" d="M46.5,122.6c-0.3,0.1-0.6,0.2-0.9,0.3c0.5,0.3,1,0.6,1.5,1c0.6,0.3,1.2,0.7,1.7,1c0-0.3,0-0.6-0.1-0.9
	C48,123.6,47.2,123.1,46.5,122.6z" />
	<g>
		<g>
			<path class="st1" d="M107,60.8c0.5,0.8,0.9,1.7,1.3,2.6c0.3,0.6,1,1.8,1.8,1.2c0.5-0.4,0.9-1.1,1.2-1.6c0.5-0.7,1-1.4,1.3-2.2
			c-0.5,0.1-0.9,0.1-1.4,0.2c0.4,0.7,0.8,1.4,1.2,2.1c0.3,0.5,0.7,1.1,1.3,1.3c0.8,0.4,1.4-0.1,1.9-0.7c0.6-0.7,1-1.5,1.5-2.3
			c0.4-0.7,0.8-1.4,0.9-2.2c0.2-0.9-1.2-1.3-1.4-0.4c-0.3,1.2-1.1,2.5-1.8,3.5c-0.2,0.2-0.3,0.4-0.5,0.6c0,0-0.1,0.1-0.1,0.1
			c-0.1,0.1,0-0.1,0,0c-0.1,0.1-0.1,0,0,0c0,0,0.3-0.1,0.3,0c0,0-0.4-0.3-0.4-0.4c-0.2-0.2-0.3-0.5-0.4-0.7c-0.3-0.6-0.7-1.2-1-1.8
			c-0.3-0.6-1.1-0.4-1.4,0.2c0.1-0.2-0.1,0.2-0.1,0.3c-0.1,0.2-0.2,0.3-0.3,0.5c-0.2,0.4-0.5,0.7-0.7,1.1c-0.2,0.3-0.4,0.6-0.7,0.9
			c0,0.1-0.3,0.4-0.2,0.2c-0.1,0.2-0.2,0,0.2,0c0.1,0,0.3,0,0.4,0c0,0,0.2,0.1,0.2,0.1c0,0-0.1-0.1,0,0c-0.1-0.1-0.2-0.2-0.2-0.4
			c-0.2-0.3-0.3-0.6-0.5-0.9c-0.3-0.7-0.7-1.4-1-2C107.8,59.2,106.5,60,107,60.8L107,60.8z" />
		</g>
		<g>
			<path class="st1" d="M139.7,63c3.2-1.1,6.5-2.1,9.8-3c0.9-0.3,0.5-1.7-0.4-1.4c-3.3,0.9-6.5,1.9-9.8,3
			C138.4,61.9,138.8,63.3,139.7,63L139.7,63z" />
		</g>
		<g>
			<path class="st1" d="M143.1,64.9c2.8-0.3,5.5-0.5,8.3-0.7c1,0,1-1.5,0-1.5c-2.8,0.1-5.5,0.4-8.3,0.7c-0.4,0-0.8,0.3-0.8,0.8
			C142.4,64.5,142.7,64.9,143.1,64.9L143.1,64.9z" />
		</g>
		<g>
			<path class="st1" d="M88.4,61.4c-2.7-0.9-5.4-1.7-8-2.7c-0.4-0.2-0.8,0.2-0.9,0.5c-0.1,0.4,0.1,0.8,0.5,0.9c2.6,1.1,5.4,1.9,8,2.7
			C88.9,63.1,89.3,61.7,88.4,61.4L88.4,61.4z" />
		</g>
		<g>
			<path class="st1" d="M87.3,63.7c-3-0.3-6-0.4-8.9-0.4c-1,0-1,1.5,0,1.5c3,0,6,0.1,8.9,0.4C88.2,65.3,88.2,63.8,87.3,63.7
			L87.3,63.7z" />
		</g>
		<g>
			<path class="st1" d="M95.9,52.8c-0.1,3.7-0.1,7.3,0.1,11c0,0.8,0.7,1.5,1.5,1.5c0.8,0,1.5-0.7,1.5-1.5c-0.2-3.7-0.2-7.3-0.1-11
			c0-0.8-0.7-1.5-1.5-1.5C96.6,51.3,95.9,52,95.9,52.8L95.9,52.8z" />
		</g>
		<g>
			<path class="st1" d="M125.1,50.9c0.1,3.9,0.1,7.7-0.1,11.6c0,0.8,0.7,1.5,1.5,1.5c0.8,0,1.5-0.7,1.5-1.5c0.1-3.9,0.2-7.7,0.1-11.6
			C128.1,49,125.1,49,125.1,50.9L125.1,50.9z" />
		</g>
	</g>
	<g>
		<path class="st2" d="M72.2,95.6l-2.9-6c-0.1-0.3,0.1-0.6,0.5-0.5l5.3,1.5c0.2,0.1,0.5-0.1,0.5-0.3l1.2-14.9c0-0.3,0.4-0.5,0.6-0.3
		c3.9,3.1,6.7,6.3,10.9,9.5c0.2,0.2,0.5,0.2,0.6-0.1l5.6-12.1c0.1-0.3,0.5-0.3,0.6-0.1l7.1,8.2c0.2,0.2,0.5,0.2,0.6-0.1
		c1.9-3.7,4-7.4,6.3-10.9c0.2-0.3,0.6-0.2,0.7,0.1l4.4,11.1c0.1,0.3,0.4,0.3,0.6,0.1l10-10.3c0.2-0.2,0.6-0.2,0.6,0.1
		c0.3,2.9,0.6,4.3,1.2,7.3c0.1,0.3,0.3,0.5,0.6,0.4c4.4-2.3,8.6-4.8,12.7-7.6c0.3-0.2,0.6,0,0.6,0.4l-1.3,12c0,0.3,0.2,0.5,0.5,0.4
		l7.5-1.7c0.3-0.1,0.6,0.3,0.4,0.6l-1.9,3.7c-0.1,0.2,0,0.5,0.3,0.6l3.5,0.9c0.3,0.1,0.4,0.4,0.2,0.6l-3.3,4.6
		c-0.2,0.3,0.1,0.7,0.4,0.6l11-0.3c0.4-0.1,0.6,0.3,0.4,0.6l-11.5,9.9c-0.2,0.2-0.1,0.6,0.3,0.6l10.5,2.4c0.4,0,0.5,0.5,0.2,0.7
		l-12.8,8c-0.3,0.1-0.3,0.5,0,0.7l9.8,6c0.3,0.2,0.2,0.6-0.1,0.7c-2.6,1-9.9,3.1-12.7,3.9c-0.3,0.1-0.4,0.6-0.1,0.7
		c1,0.5,4,2.8,4.6,3.4c0.2,0.2,0.2,0.6-0.1,0.7c-4.7,0.5-7.1,0.2-9.9,0.3c-0.4,0-0.5,0.5-0.2,0.7c3.3,2.8,6.2,6,8.8,9.4
		c0.2,0.3,0,0.6-0.3,0.6c-4.8-0.2-9.7-0.8-14.4-1.8c-0.3-0.1-0.5,0.2-0.5,0.5c0.8,3.4,2.2,9.1,2.4,12.6c0,0.3-0.3,0.5-0.6,0.4
		c-3.9-1.7-8.3-6.3-11.5-9.2c-0.2-0.2-0.5-0.1-0.6,0.2c-1.5,4.4-3.2,8.8-5.1,13.1c-0.1,0.3-0.5,0.3-0.7,0
		c-2.9-4.9-5.6-10.1-7.9-15.4c-0.1-0.3-0.5-0.3-0.7,0l-8.6,15.2c-0.2,0.3-0.6,0.3-0.7-0.1c-1.8-5.6-3.3-11.3-4.5-17.1
		c-0.1-0.3-0.4-0.4-0.6-0.2c-4,3.2-8.4,5.9-13.2,7.8c-0.3,0.1-0.6-0.1-0.5-0.4c1.9-6.9,2.6-8.6,4.2-13.7c0.1-0.3-0.1-0.5-0.3-0.6
		c-3.9-0.1-6.1-0.5-9.6-1.3c-0.3-0.1-0.4-0.4-0.2-0.6c1.3-1.6,2.7-3.1,4.4-4.4c0.2-0.2,0.2-0.5,0-0.6l-8.8-5.3
		c-0.3-0.2-0.2-0.6,0-0.7l8-3.9c0.3-0.2,0.3-0.6,0-0.7l-8.4-4.3c-0.7-0.2-0.6-1.3,0.1-1.4l7.6-3.4c0.3-0.1,0.4-0.5,0.2-0.7
		l-10.5-8.2c-0.3-0.2-0.2-0.6,0.2-0.7l8.1-1.1C72.2,96.1,72.3,95.8,72.2,95.6z" />
	</g>
	<g class="st3">
		<g>
			<path class="st4" d="M90.5,125.4c1.1,0,2.2-0.1,3.3-0.2c-0.7-0.7-1.2-1.6-1.6-2.6c-3.2-7-4.5-14.8-3.8-22.5c0.3-3.2,0.9-6.6,2-9.7
			c-3.2,1-6.3,2.1-9,4.1c-0.4,0.3-0.7,0.6-1.1,0.9c-2.4,6.6-2.7,13.8-0.8,20.7c1.2,3.2,2.2,6.5,5.3,8.5c0.2,0.1,0.4,0.2,0.6,0.3
			c1.1,0.3,2.2,0.5,3.3,0.6c0,0,0,0,0.1,0C89.3,125.4,89.9,125.4,90.5,125.4z" />
			<path class="st4" d="M96.3,88.3c-1.3,0.2-2.6,0.6-3.9,0.9c0,0,0,0,0,0c0,0.1,0,0.2-0.1,0.3c-2.4,6.5-3.2,13.6-2.3,20.4
			c0.5,3.5,1.4,6.9,2.7,10.2c0.7,1.6,1.4,3.9,3.2,4.6c0.1,0.1,0.3,0.1,0.4,0.1c0.1,0,0.1,0,0.2,0c1,0.2,2.1,0.1,3.1-0.1
			c-0.3-0.3-0.6-0.6-0.9-1c-2-2.5-2.5-5.8-3.2-8.9c-0.7-3.3-1.2-6.7-1.6-10.1c-0.3-3.1-0.5-6.2-0.2-9.3
			C94.1,93.1,94.8,90.4,96.3,88.3z" />
		</g>
		<path class="st4" d="M105.2,106.1c-0.2-2.7-0.5-5.4-1.1-8.1c-0.6-2.6-1.2-5.3-2.3-7.7c-0.4-0.9-1-2.1-2.1-2.3
		c-1.4-0.3-2.3,1.2-2.8,2.2c-1.1,2.2-1.6,4.7-1.8,7.2c-0.3,5.3,0.5,10.7,1.6,15.8c0.3,1.5,0.6,3,1,4.5c0.3,1.2,0.5,2.5,1,3.7
		c0.6,1.2,2.8,4.4,4.1,2.2c1.3-2.7,1.8-5.5,2.1-8.5C105.3,112.1,105.4,109.1,105.2,106.1z M99.3,114.1c-1.5-4.7-2.2-9.6-2.7-14.5
		c-0.1-1,1.4-1,1.5,0c0.5,4.7,1.2,9.6,2.6,14.1C101.1,114.6,99.6,115,99.3,114.1z M102.8,110.9c-1.1-3.9-1.8-8.1-2-12.1
		c0-1,1.5-1,1.5,0c0.1,3.9,0.8,8,1.9,11.7C104.5,111.4,103,111.8,102.8,110.9z" />
		<g>
			<path class="st4" d="M134,89.1c-0.4-0.1-0.8-0.1-1.2-0.2c-0.4,0-0.8,0-1.3,0c0.2,0.2,0.5,0.4,0.7,0.7c2.8,3,4.2,7,4.9,11
			c0.7,3.9,1,8.1,0.9,12.1c-0.1,3.6-0.5,7.7-3,10.5c-0.4,0.5-0.9,0.9-1.3,1.2c3.2-0.2,6.3-0.6,9.2-2c2.5-1.3,5-3.8,5.5-6.4
			c0.4-2.1,0.5-4.2,0.6-6.3c0.1-2.8,0.1-5.6-0.1-8.4c-0.2-1.7-0.4-3.5-1.1-5.1c0,0,0,0,0,0c-0.7-1.1-1.6-2.2-2.5-3.1
			c-1.3-1.3-2.8-2.5-4.5-3.2c-0.8-0.3-1.6-0.5-2.5-0.6C136.9,89.2,135.4,89.3,134,89.1z" />
			<path class="st4" d="M156.3,102.9c-0.3,0-0.5,0-0.7-0.3c-0.5-0.9-1.3-1.7-2.1-2.4c0,0,0,0,0,0c-2.1-2-2.6-1.7-3.6-2.8
			c0.4,1.6,0.6,3.3,0.7,4.8c0.2,3.1,0.2,6.2,0,9.2c-0.1,1.8-0.2,3.9-0.7,5.6c-0.1,0.4-1.3,1.7-1.5,2.1c0.2-0.1,1.8,0.1,2,0
			c1.3-0.5,2-2,3.2-2.4c0.2-0.1,0.3-0.2,0.5-0.3c1.1-0.7,2.8-1.9,3.9-2.6c0.2-0.4-0.3-0.5-0.3-1.1c0.1-1.5,0-3.2-0.1-4.7
			c-0.1-1.5-0.3-3.2-0.8-4.6C156.5,103.2,156.4,103.1,156.3,102.9z" />
			<path class="st4" d="M128.1,124.5c3.7,0.2,6.7-2.3,7.8-6.1c1.2-4.1,0.8-8.5,0.4-12.7c-0.4-4.5-1.1-9.2-3.6-13.1
			c-1.1-1.8-2.7-3.7-4.8-4.3c-0.9-0.3-1.9-0.3-2.9-0.2c1.8,1.5,3.1,4.3,3.9,5.9c1.8,3.8,3,7.8,3.6,11.9c0.5,4.1,0.6,8.7-0.7,12.7
			C131.1,120.8,130,123.3,128.1,124.5z" />
		</g>
		<path class="st4" d="M131.1,105.8c-0.5-3.6-1.5-7.1-3-10.4c-0.7-1.5-1.4-3-2.4-4.3c-0.7-0.9-1.8-2.3-3.1-2.4
		c-0.2,0.1-0.3,0.3-0.5,0.4c-0.1,0.3-0.3,0.6-0.3,0.7c-0.2,0.4-0.4,0.9-0.6,1.3c-0.3,0.9-0.6,1.8-0.8,2.8c-0.1,0.7-0.2,1.3-0.3,2
		c0,1.2-0.2,2.3,0,3.5c-0.1,0,0.1,0,0,0c0,0,0,0,0,0c0,0.1,0,0.2,0,0.4c0.1,0.7-0.8,0.9-1.2,0.5c-0.1,0.1-0.2,0.1-0.4,0.1
		c-1.1-0.1-3-0.2-3.5,0.8c0,0,0,0,0,0c-0.1,0.2-0.1,0.3-0.1,0.5c-0.1,1.7,0,3.4,0.1,5.1c0,0.9,0.1,1.8,0.2,2.7c0,0.2,0,0.5,0.1,0.8
		c0.1,0.1-0.4,2.1-0.4,2.2c0.9,1.4,2.8,0.4,4.5,0.7c0.2,0,0.4,0,0.6,0c0,0,0,0,0,0c0.4-0.1,0.9,0.1,1,0.7c0.1,1.5,0.4,2.9,0.9,4.4
		c0,0,0.1,0.1,0.1,0.1c0.1,0.3,0.1,0.5,0.2,0.8c0.1,0.4,0.3,0.7,0.4,1.1c0.4,1,1,2,1.7,2.7c0.3,0.3,0.8,0.6,1.3,0.8c0,0,0,0,0,0
		c1.7-0.1,2.5-1.1,3.3-2.5c0.9-1.5,1.6-3,2-4.8C131.7,113.2,131.6,109.4,131.1,105.8z" />
		<path class="st4" d="M66.7,116.8c0,0,4.2,1.9,5.9,2.7c1.7,0.9,8.4,2.7,8.4,2.7s-4.2-9.9-3.8-13.5s1.3-12.6,1.3-12.6l-3.9,6.1
		l-7.9,8V116.8z" />
	</g>
	<g>
		<path class="st2" d="M105.2,95.8c-0.6-2.6-1.3-5.7-3-7.9c-0.9-1.1-2.1-1.6-3.3-1.4c0,0-0.1,0-0.1,0c-1.3,0-2.6,0.3-3.9,0.6
		c-1.1,0.2-3.1,0.3-3.7,1.4c-3.7,1.1-7.4,2.3-10.5,4.6c-1.4,1-2.6,2.2-3.6,3.6c-1.1,1.6-1.6,3.5-2.8,4.9c-2.2,2-4.5,4-6,6.5
		c-0.5,0.3-0.9,0.6-1.3,1c-0.1,0.1-0.3,0.2-0.4,0.3c-0.1,0.1-0.1,0.1-0.2,0.2c0,0,0,0-0.1,0.1c-0.1,0.1-0.2,0.2-0.3,0.2
		c0,0-0.1,0.1-0.1,0.1c0,0,0,0-0.1,0c-0.1,0,0,0,0,0c-0.2,0.1-0.3,0.2-0.4,0.3c-0.1,0.2-0.1,0.4-0.1,0.6c0.1,0.4,0.5,0.7,0.9,0.5
		c0.6-0.2,1.1-0.7,1.6-1.1c0.1-0.1,0.3-0.2,0.4-0.3c0.1-0.1,0.1-0.1,0.2-0.2c0,0,0,0,0.1-0.1c0.1-0.1,0.2-0.2,0.3-0.2
		c0,0,0.1-0.1,0.1-0.1c0,0,0,0,0.1,0c0.1,0,0,0,0,0c0,0,0,0,0,0c0.1,0,0.1,0,0.2-0.1c0.1-0.1,0.1-0.1,0.2-0.2
		c1.5-2.5,3.8-4.4,5.9-6.3c1.1-1.3,1.7-3,2.6-4.5c0,0,0-0.1,0.1-0.1c-1.5,5.9-1.5,12.2,0.2,18.1c0.6,1.6,1.1,3.3,1.9,4.8
		c0,0.1,0.1,0.2,0.1,0.2c-1.6-0.1-3.2-0.7-4.7-1.3c-1.8-0.8-3.5-1.8-5.2-2.7c-0.1-0.1-0.2-0.1-0.3-0.1c-0.7-0.3-1.5-0.4-2.3-0.5
		c-1.1-0.1-2.2-0.1-3.2,0.3c-0.4,0.2-0.5,0.7-0.3,1c0.2,0.4,0.7,0.4,1,0.3c-0.2,0.1,0,0,0.1,0c0.1,0,0.2,0,0.3-0.1c0,0,0.1,0,0.1,0
		c0,0,0,0,0.1,0c0.1,0,0.2,0,0.3,0c0.5,0,1,0,1.5,0.1c0.1,0,0.1,0,0.2,0c-0.2,0,0.1,0,0.1,0c0.1,0,0.2,0,0.4,0.1
		c0.2,0,0.5,0.1,0.7,0.2c0.2,0.1,0.4,0.1,0.6,0.2c0,0,0,0,0.1,0c0,0,0,0,0,0c0.1,0,0.2,0.1,0.2,0.1c0,0,0,0,0,0
		c1.6,0.9,3.3,1.8,5,2.6c1.9,0.8,3.9,1.5,5.9,1.4c0.1,0,0.1,0,0.1,0c0.8,1,1.7,2,2.7,2.7c1.7,1.2,3.8,1.3,5.8,1.3
		c2.2,0,4.3-0.2,6.5-0.4c1.7,0.4,3.6,0,5.2-0.4c0.2,0,0.3-0.1,0.4-0.2c1,0,1.9-0.6,2.5-1.5c0.6-1.1,1.1-2.2,1.4-3.4
		c0.4-1.7,0.7-3.4,0.9-5.1c0.4-3.3,0.5-6.6,0.3-9.9C106.6,102.5,106,99.1,105.2,95.8z M84.9,124.5c-3-2-4-5.3-5.3-8.5
		c-1.9-6.8-1.6-14,0.8-20.7c0.3-0.3,0.7-0.6,1.1-0.9c2.7-2,5.8-3.1,9-4.1c-1.1,3.1-1.7,6.5-2,9.7c-0.7,7.7,0.6,15.5,3.8,22.5
		c0.4,1,0.9,1.9,1.6,2.6c-1.1,0.1-2.2,0.2-3.3,0.2C88.7,125.4,86.5,125.5,84.9,124.5z M96.6,125c0,0-0.1,0-0.2,0
		c-0.1,0-0.3-0.1-0.4-0.1c-1.8-0.7-2.5-3-3.2-4.6c-1.3-3.3-2.2-6.7-2.7-10.2c-0.9-6.9-0.1-13.9,2.3-20.4c0-0.1,0.1-0.2,0.1-0.3
		c0,0,0,0,0,0c1.3-0.4,2.6-0.7,3.9-0.9c-1.5,2.1-2.2,4.8-2.5,7.3c-0.4,3.1-0.2,6.2,0.2,9.3c0.4,3.4,0.9,6.8,1.6,10.1
		c0.7,3.1,1.1,6.4,3.2,8.9c0.3,0.3,0.6,0.7,0.9,1C98.7,125.1,97.6,125.2,96.6,125z M105.1,115.1c-0.3,3-0.8,5.8-2.1,8.5
		c-1.3,2.2-3.5-1-4.1-2.2c-0.5-1.1-0.7-2.5-1-3.7c-0.4-1.5-0.7-3-1-4.5c-1-5.1-1.8-10.6-1.6-15.8c0.1-2.5,0.6-5,1.8-7.2
		c0.5-1,1.4-2.6,2.8-2.2c1,0.2,1.7,1.4,2.1,2.3c1.1,2.4,1.7,5.1,2.3,7.7c0.6,2.7,0.9,5.4,1.1,8.1
		C105.5,109.1,105.4,112.1,105.1,115.1z" />
		<path class="st2" d="M98.2,99.5c-0.1-1-1.6-1-1.5,0c0.5,4.9,1.2,9.8,2.7,14.5c0.3,0.9,1.7,0.5,1.4-0.4
		C99.4,109.1,98.7,104.3,98.2,99.5z" />
		<path class="st2" d="M102.4,98.7c0-1-1.5-1-1.5,0c0.2,4.1,0.8,8.2,2,12.1c0.3,0.9,1.7,0.5,1.4-0.4
		C103.2,106.7,102.5,102.7,102.4,98.7z" />
		<path class="st2" d="M126.9,115c0.9-0.1,1-1.6,0-1.5c-0.9,0.1-1.8,0.1-2.7-0.1c-0.5-0.1-0.6-0.3-0.6-0.7c-0.1-0.4-0.2-0.9-0.3-1.3
		c-0.3-1.9-0.6-3.8-0.7-5.7c-0.1-1.8-0.2-3.6,0-5.4c0-0.5,0.2-0.7,0.6-0.7c0.4-0.1,0.9-0.1,1.3,0c1,0,2,0.2,3,0.4
		c0.9,0.2,1.3-1.2,0.4-1.4c-1.2-0.3-2.4-0.5-3.7-0.5c-0.9,0-2,0-2.7,0.8c-0.6,0.8-0.5,2.1-0.5,3c0,1.2,0,2.5,0,3.7
		c0.1,2.4,0.4,4.8,0.9,7.2c0.2,1,0.4,1.8,1.5,2.1C124.5,115.1,125.8,115.2,126.9,115z" />
		<path class="st2" d="M158.9,113.2c-1.7,1-3.3,2.2-5,3.3c-1.6,1-3.3,1.8-5.1,2.3c0.3-0.6,0.6-1.2,0.8-1.8c0.6-1.8,0.6-3.8,0.7-5.6
		c0.2-3.1,0.3-6.2,0-9.2c-0.1-1.6-0.3-3.5-0.8-5.2c0.8,0.6,1.5,1.2,2.3,1.9c1.3,1.1,2.7,2.3,3.6,3.7c0.5,0.8,1.8,0.1,1.3-0.8
		c-0.9-1.5-2.4-2.8-3.7-3.9c-1.4-1.2-2.8-2.2-4.2-3.5c-0.1-0.1-0.3-0.2-0.5-0.2c-0.1-0.1-0.1-0.2-0.2-0.3c-0.1-0.1-0.2-0.2-0.3-0.3
		c-1.7-2.2-4-4.2-6.4-5.2c-1.8-0.8-3.9-0.9-5.8-0.9c-2.2-0.1-4.4-0.1-6.7-0.3c-0.4-0.2-0.9-0.3-1.3-0.4c-1.9-0.4-3.9,0.1-5.7,0.5
		c-1,0.1-1.4,1.3-1.8,2.2c-0.5,1.1-0.9,2.2-1.2,3.4c-0.5,2-0.7,4.1-0.6,6.2c0,0-0.1,0-0.1,0c-1.7-0.1-3.8-0.1-4.8,1.6
		c-0.5,0.8-0.3,1.9-0.3,2.8c0,1.1,0,2.3,0.1,3.4c0.1,1.1,0.1,2.3,0.3,3.4c0.1,0.9,0.1,2,0.6,2.8c1,1.6,3.1,1.7,4.8,2
		c0.2,0,0.3,0,0.5-0.1c0.3,2.4,0.9,4.8,2,6.9c0.5,1.1,1.3,2.3,2.3,3c0.6,0.4,1.4,0.8,2.2,0.9c0.1,0.1,0.2,0.2,0.4,0.2
		c1,0.2,2.1,0.3,3.1,0.2c0,0,0,0,0,0c4.4-0.2,8.8-0.2,13-1.8c2-0.8,3.9-2,5.3-3.6c0.1,0,0.2,0,0.3,0c2.4-0.4,4.6-1.4,6.6-2.7
		c1.7-1.1,3.3-2.4,5.1-3.4C160.5,114,159.8,112.7,158.9,113.2z M122.4,120.5c-0.9-2-1.4-4.2-1.6-6.4c-0.1-0.6-0.8-0.8-1.2-0.6
		c-0.1-0.1-0.2-0.1-0.3-0.1c-1.2-0.2-3.2-0.1-3.9-1.4c-0.4-0.6-0.3-1.6-0.4-2.3c-0.1-0.9-0.2-1.8-0.2-2.7c-0.1-1.7-0.2-3.4-0.1-5.1
		c0.1-1.7,2.5-1.5,3.7-1.4c0.2,0,0.3,0,0.4-0.1c0.5,0.4,1.3,0.2,1.2-0.5c-0.2-1.9-0.1-3.9,0.3-5.8c0.2-0.9,0.5-1.9,0.8-2.8
		c0.2-0.5,0.4-0.9,0.6-1.3c0.1-0.2,0.5-1.2,0.6-1.2c1.4-0.2,2.6,1.4,3.3,2.4c0.9,1.3,1.7,2.8,2.4,4.3c1.5,3.3,2.5,6.8,3,10.4
		c0.5,3.5,0.6,7.3-0.1,10.8c-0.4,1.8-1.1,3.3-2,4.8c-0.8,1.3-1.6,2.4-3.3,2.5c0,0,0,0,0,0c-0.5-0.2-1-0.5-1.3-0.8
		C123.4,122.5,122.9,121.5,122.4,120.5z M128.1,124.6c1.9-1.3,3-3.7,3.7-5.8c1.3-4,1.2-8.6,0.7-12.7c-0.5-4.1-1.7-8.2-3.6-11.9
		c-0.8-1.6-2.1-4.4-3.9-5.9c1-0.1,2-0.1,2.9,0.2c2.1,0.7,3.6,2.6,4.8,4.3c2.5,3.9,3.2,8.5,3.6,13.1c0.3,4.2,0.7,8.6-0.4,12.7
		C134.8,122.3,131.8,124.8,128.1,124.6z M143,122.3c-2.9,1.4-6,1.9-9.2,2c0.5-0.4,0.9-0.7,1.3-1.2c2.5-2.9,2.9-6.9,3-10.5
		c0.1-4-0.2-8.1-0.9-12.1c-0.7-4-2.2-7.9-4.9-11c-0.2-0.2-0.4-0.5-0.7-0.7c1.2,0.1,2.5,0.1,3.7,0.1c1.8,0,3.8,0.1,5.6,0.8
		c1.7,0.7,3.2,1.9,4.5,3.2c0.9,0.9,1.9,1.9,2.5,3.1c0,0,0,0,0,0c0.7,1.6,0.9,3.4,1.1,5.1c0.3,2.8,0.3,5.6,0.1,8.4
		c-0.1,2.1-0.2,4.3-0.6,6.3C148,118.5,145.5,121.1,143,122.3z" />
	</g>
	<path class="st1" d="M192.3,131.7c-2.8-7.6-7.2-14.4-12.8-20.3c-2.3-2.4-5-4.3-8.1-5.3c0.1-1.4,0.1-2.9,0.1-4.3c0-0.1,0-0.3-0.1-0.4
	c-2-15.2-5.3-30.7-14.3-43.5c-0.3-0.4-0.6-0.8-0.9-1.2c0.6-3.1,1.1-6.3,1.3-9.5c0.1-1.5,0.2-3,0.1-4.5c-0.1-1.4-0.2-3-1.2-4.1
	c-1.2-1.3-2.9-1.2-4.5-1c-1.6,0.2-3.1,0.5-4.6,0.9c-3.1,0.9-6,2.2-8.8,3.7c-6.8-2.9-14.2-3.4-21.6-2.8c-7.6,0.6-15.5,1.4-22.9,3.7
	c-3.1-1.8-6.2-3.6-9.5-5c-3.3-1.4-7-2.5-10.5-1.7c-1.7,0.3-3.2,1.3-4,2.9c-0.8,1.7-0.7,3.6-0.6,5.4c0.2,4,0.5,8,0.7,12
	c-4.3,3.9-7.6,8.9-10.8,13.9c-2.7,4.2-5.3,8.4-7,13.1c-1.7,4.6-3,9.5-3.7,14.4c0,0,0,0,0,0c0,0.1-0.1,0.3-0.1,0.4c0,0,0,0,0,0.1
	c-0.5,4-0.7,8.1-0.8,12.2c-1.8-2.6-3.2-5.7-4.6-8.5c-3.2-6.4-7.3-12-14-15c-3.3-1.5-7-2.5-10.6-2c-3.1,0.4-6,1.9-8.1,4.2
	c-4.6,4.9-5.3,12-2.7,18.1c2.4,5.7,7.1,10,12.4,13.2c-1.1,1-2,2.3-2.6,3.5c-0.5,0.9-0.7,1.9,0.2,2.7c1,0.9,2.4,0.4,3.6,0.3
	c1.3-0.1,2.7,0.1,4,0.6c-1.1,1-2.1,2.2-3,3.5c-2.2,3-3.7,6.5-4.8,10c-0.3,0.9,1.2,1.3,1.4,0.4c1.2-3.9,3-7.7,5.5-10.8
	c2.7-3.4,6.4-5.5,10.3-7.4c7-3.3,14.7-4.6,22-7.4c0.4,0.3,0.7,0.6,1.1,0.9c0.6,0.4,1.3,0.9,2.2,1.3c-3.3,1.4-7,1.8-10.5,2.7
	c-0.2,0-0.3,0.1-0.5,0.1c-0.4,0-0.8,0.1-1.1,0.3c-3.5,1-6.8,2.2-10,3.9c-3.7,1.9-7.2,4.4-10.4,7.1c-2.4,2.1-3.6,5.3-4.7,8.2
	c-1.4,3.7-2.4,7.5-3.3,11.3c-0.2,0.9,1.2,1.3,1.4,0.4c0.8-3.2,1.6-6.4,2.6-9.5c1-3,2.2-6.6,4.5-8.9c1.1-1.1,2.3-2,3.6-2.9
	c2.8,1.7,5.5,3.5,8.6,4.5c3,0.9,6.2,1,9.4,0.9c0.7,1.5,1.4,3,2.2,4.4c3.1,5.6,6.9,11,11.5,15.5c2.5,2.4,5.2,4.6,8.1,6.6
	c0.2,3.2,0.8,6.4,1.3,9.6c0.1,1,0.6,1.9,1.5,2.4c0.9,0.5,2.2,0.5,3.2,0.4c2-0.3,3.6-1.5,5.1-2.7c1.5-1.3,3-2.6,4.4-4
	c4.3,0.6,8.5,1.9,12.9,2.5c4.2,0.7,8.6,1.1,12.9,1.1c7.1,0,14.4-0.9,21.3-2.6c1.8,0.9,3.7,1.9,5.5,2.8c1.9,1,3.9,2.3,6.2,2
	c1-0.2,1.9-0.7,2.4-1.5c0.7-1,0.6-2.2,0.6-3.3c0-2.1,0-4.3,0-6.4c5.3-4,9.7-9,13.1-14.7c4-6.6,5.7-14.3,6.9-21.9
	c0.7-4.3,1.2-8.6,1.7-12.8c0-0.1,0-0.2,0-0.3c6.1,2.4,9.6,8.8,12.8,14.2c4.7,8,5.4,17.4,4.5,26.5c-0.1,1,1.4,1,1.5,0
	c0.8-7.9,0.4-16-2.7-23.4c-1-2.5-2.6-4.8-4-7.2c-1.5-2.5-3.1-5-5.2-7.1c-2.1-2.2-4.5-3.9-7.4-4.8c0.2-0.5,0.3-0.9,0.5-1.3
	c0.3-0.9,0.5-1.8,0.6-2.7c2.6,0.8,4.8,2.3,6.7,4.3c2.6,2.6,5.1,5.6,7.1,8.6c4.5,6.6,7.4,14.4,8.2,22.3c0.5,4.9,0.5,9.8,0,14.7
	c-0.1,1,1.4,1,1.5,0C195.6,149.1,195.4,139.9,192.3,131.7z M25.3,89c2.8,1.9,5.1,4.8,7.1,7.4c2.5,3.3,4.7,6.9,7,10.3
	c1.9,2.9,3.9,5.7,6.1,8.5c0,0,0.1,0.1,0.1,0.1c-3.6-3.1-6.7-6.6-9.5-10.6c-3.8-5.5-7.3-11.3-11.9-16.1C24.5,88.8,24.9,88.9,25.3,89z
	 M22.4,124.6c1.4-0.1,3,0.3,4.4,0.9C25.4,125,23.9,124.6,22.4,124.6z M28.6,125.5c-0.5-0.2-0.9-0.4-1.4-0.6
	c-1.8-0.7-3.8-1.4-5.7-0.9c0.4-0.5,0.8-1,1.3-1.4c1.3-0.5,2.9,0,4.2,0.3c1.2,0.3,2.4,0.8,3.6,1.3C29.8,124.6,29.2,125,28.6,125.5z
	 M31.3,123.8c-0.8-0.3-1.5-0.7-2.3-1c-1.4-0.5-3.1-1.1-4.8-1.2c0.5-0.7,0.5-1.7-0.4-2.2c-4.8-2.7-9.3-6.1-12.2-10.9
	c-1.5-2.6-2.3-5.7-2.2-8.7c1.3,3.3,2.7,6.7,4.8,9.6c1.8,2.4,4.2,4.3,6.5,6.1c3.7,2.8,7.6,5.3,11.6,7.6
	C32,123.4,31.6,123.6,31.3,123.8z M33.2,122.8c-0.6-0.3-1.1-0.6-1.7-0.9c-3-1.8-6-3.7-8.8-5.7c-2.3-1.6-4.6-3.4-6.5-5.4
	c-3.3-3.5-4.9-8.1-6.7-12.5c0.1-0.4,0.2-0.9,0.3-1.3c2.3,6.3,7.6,11.3,12.4,15.8c3.7,3.5,7.7,6.7,12,9.5
	C33.8,122.5,33.5,122.7,33.2,122.8z M35,122c-7-4.4-13.2-10.2-18.6-16.1c-2.7-3-5-6.2-6.2-10.1c0.1-0.3,0.3-0.7,0.4-1
	c3.1,6.2,8,11.3,13.1,15.9c4.2,3.8,8.7,7.3,13.5,10.4C36.4,121.4,35.7,121.7,35,122z M38,120.8c-7.6-4.8-14.5-10.6-20.4-17.2
	c-2.6-2.9-4.9-6.1-6.6-9.6c0.2-0.3,0.3-0.5,0.5-0.8c4,6,8.6,11.6,13.9,16.4c2.3,2,4.5,4.1,6.9,6c1.6,1.3,3.1,2.7,4.8,3.9
	c0.5,0.3,1,0.7,1.5,1C38.5,120.6,38.2,120.7,38,120.8z M33.5,115.6c-4.6-3.8-9.4-7.7-13.2-12.3c-2.9-3.5-5.7-7-8.2-10.8
	c0.1-0.2,0.3-0.3,0.4-0.5c0.2-0.2,0.4-0.4,0.6-0.7c7.7,10.3,15.6,20.8,26,28.5C37.1,118.6,35.3,117.1,33.5,115.6z M40.5,119.9
	c-3.6-2.6-6.9-5.5-10.1-8.7c-6.2-6.3-11.5-13.3-16.8-20.4c0.3-0.3,0.7-0.6,1-0.8c3,3.7,5.9,7.5,8.9,11.2c2.9,3.7,5.8,7.5,9,10.9
	c2.6,2.8,5.4,5.3,8.5,7.6C40.8,119.8,40.6,119.9,40.5,119.9z M41.9,119.5c-0.6-0.5-1.2-0.9-1.8-1.4c-6.3-5.1-11.1-11.3-16.1-17.6
	c-2.9-3.6-5.7-7.2-8.6-10.9c0.7-0.4,1.4-0.7,2.2-1c7.3,11,15.2,22.2,25.6,30.4C42.7,119.2,42.3,119.4,41.9,119.5z M44.1,118.8
	c-10.5-8.1-18.5-19.3-25.8-30.3c0.5-0.1,1-0.2,1.5-0.2c0.1,0,0.2,0,0.3,0c5.4,5.8,8.9,13,14,19.1c0.6,0.7,1.2,1.4,1.8,2c0,0,0,0,0,0
	c0,0,0.1,0.1,0.1,0.1c0.1,0.1,0.3,0.3,0.4,0.4c0.5,0.6,1.1,1.2,1.6,1.7c1.3,1.4,2.7,2.6,4.1,3.9c0.5,0.4,1,0.9,1.4,1.3
	c0.6,0.5,1.1,1,1.7,1.5C44.9,118.6,44.5,118.7,44.1,118.8z M46.5,118.1c-1.3-1-2.6-2-3.9-3.1c-1.4-1.2-2.7-2.5-4-3.8
	c-1.5-1.5-2.9-3.1-4.3-4.7c-4.8-5.8-8.2-12.6-13.2-18.3c0.5,0,1.1,0.1,1.6,0.2c5.3,5.2,9,11.7,13.4,17.7c3.2,4.5,7,8.4,11.3,11.7
	C47.1,117.9,46.8,118,46.5,118.1z M47.7,116.7c-0.9-0.9-1.8-1.9-2.6-3c-2.2-3-4.4-6-6.4-9.2c-2.2-3.4-4.4-6.8-6.9-10
	c-1.3-1.6-2.7-3.3-4.2-4.7c0.6,0.3,1.2,0.5,1.7,0.8c2.8,1.5,5.2,3.5,7.1,6c2.1,2.7,3.6,5.8,5.1,8.9c1,2.1,2.1,4.2,3.3,6.2
	c0,0.1,0,0.1,0.1,0.2c0.8,1.3,1.8,2.5,2.8,3.6C47.8,116,47.8,116.4,47.7,116.7z M47.5,123.4c0,0.9,0,1.8,0.1,2.7
	c-1.1-0.5-2.2-1.1-3.3-1.7C45.3,124.1,46.4,123.7,47.5,123.4z M43.4,124.8c1.4,0.8,2.8,1.5,4.2,2.2c0,0.3,0.1,0.7,0.1,1
	c-2.1-0.7-4.1-1.5-6.1-2.4C42.1,125.3,42.7,125,43.4,124.8z M40.6,126c0.3,0.2,0.6,0.3,0.9,0.5c2,0.9,4.1,1.7,6.2,2.4
	c0,0.1,0,0.2,0,0.3c-2.6-0.7-5.2-1.7-7.7-2.9C40.2,126.2,40.4,126.1,40.6,126z M38.1,127.2c0.4-0.2,0.7-0.4,1.1-0.6
	c0.3,0.1,0.6,0.3,0.8,0.4c2.6,1.1,5.2,2.1,7.9,2.9c0,0.3,0.1,0.6,0.1,0.8c-1.3-0.2-2.7-0.5-4-0.9C41.9,129.2,40,128.3,38.1,127.2
	C38.1,127.3,38.1,127.2,38.1,127.2z M37.3,127.7c0.2,0.1,0.4,0.2,0.6,0.3c3.3,1.7,6.7,3,10.3,3.5c0,0.2,0.1,0.4,0.1,0.5
	c-1.6,0-3.3-0.2-4.9-0.5c-2.7-0.6-5.3-1.6-7.8-2.8C36.1,128.4,36.7,128,37.3,127.7z M41,132.8c-2.3-0.7-4.4-2-6.6-3.3
	c0.1-0.1,0.2-0.2,0.4-0.2c0.8,0.4,1.6,0.8,2.5,1.1c3.6,1.5,7.3,2.4,11.1,2.4c0.1,0.3,0.2,0.6,0.3,0.9
	C46.1,133.7,43.5,133.6,41,132.8z M147.3,41.8c1.3-0.4,2.7-0.7,4.1-1c0.7-0.1,2.6-0.6,3,0.1c0.5,0.7,0.3,2.2,0.3,3.1
	c0,1.4-0.1,2.9-0.2,4.3c-0.2,1.8-0.4,3.7-0.7,5.5c-3.4-3.9-7.3-7.3-11.9-9.8C143.7,43.1,145.5,42.4,147.3,41.8z M50.7,116.9
	c0.1-2.4,0.2-4.7,0.3-7.1c0.6,1.2,1.4,2.2,2.4,3.2c0.7,0.7,1.5,1.5,2.2,2.3C54,115.8,52.4,116.4,50.7,116.9z M156.7,108.1
	c0.4,2.7,0.7,5.7,2,8.2c1.8,3.4,6,3.3,8.4,0.7c0,0,0,0,0,0c-0.8,6.2-1.6,12.5-3.1,18.6c-1.9,7.2-5.2,13.5-10.1,19.1
	c-2.8,3.2-6,6-9.6,8.3c-1.6,1-0.1,3.6,1.5,2.6c0,0,0.1,0,0.1-0.1c0,1.1,0,2.2,0,3.3c0,0.5,0,1,0,1.5c0,0.3,0.1,0.7,0,1
	c-0.1,0.2-0.1,0.2-0.3,0.3c-0.1,0.1-0.4,0.1-0.6,0.1c-0.7,0-1.3-0.4-1.9-0.7c-0.9-0.5-1.8-0.9-2.7-1.4c-1.7-0.9-3.5-1.8-5.2-2.6
	c0,0-0.1,0-0.1,0c-0.3-0.2-0.7-0.2-1.1-0.1c-6.9,1.8-14.3,2.7-21.4,2.7c-4.2,0-8.6-0.4-12.7-1.1c-4.4-0.8-8.8-2-13.3-2.6
	c-0.6-0.1-1.1,0.2-1.3,0.6c0,0-0.1,0-0.1,0.1c-1.4,1.5-2.9,2.8-4.5,4.1c-0.8,0.6-1.6,1.2-2.5,1.7c-0.4,0.2-0.9,0.3-1.3,0.4
	c-0.2,0-0.9,0.1-1.1,0c0,0-0.1-0.4-0.1-0.5c-0.1-0.5-0.2-1.1-0.3-1.6c-0.2-1-0.3-2.1-0.5-3.1c-0.3-1.7-0.5-3.2-0.5-5
	c0-0.5-0.3-1-0.7-1.3c0,0,0,0-0.1,0c-6.5-4.4-11.9-10-16.2-16.6c-2.3-3.6-4.6-7.3-5.9-11.4c-1.1-3.3-1.2-6.7-1.2-10.2
	c0-0.1,0-0.2,0-0.2c4-1,8-1.4,11.7-3.3c2.3,0.6,4.5,0.3,4.8-2.7c0.2-2.4,0-4.9-0.1-7.4c-0.1-2.6-0.3-5.2-0.6-7.7
	c-0.1-0.8-0.6-1.5-1.5-1.5c-0.7,0-1.6,0.7-1.5,1.5c0.4,3.9,0.6,7.8,0.7,11.7c0,0.9,0,1.9,0,2.8c0,0.7-0.1,0.7-0.8,0.5
	c-1.5-0.4-2.9-1.2-4.1-2.2c-1.2-1.1-2.3-2.3-3.5-3.5c-0.4-0.4-1-1.1-1.2-1.4c-0.5-0.7-0.9-1.4-1.3-2.2c-1.1-2.7-1.3-5.8-1.4-8.7
	c0.5-4.1,1.6-8.1,2.9-12C56.2,82,58.4,78,61,73.9c2.3-3.6,4.5-7.2,7.1-10.5c3.1-3.8,6.7-7,11.2-9c1.8-0.8,0.2-3.4-1.5-2.6
	c-1.7,0.8-3.2,1.7-4.6,2.7c-0.2-2.7-0.4-4.8-0.5-7.9c-0.1-1.6-0.4-3.4-0.1-5c0.3-1.6,1.5-2.2,3-2.3c3.1-0.3,6.2,0.8,9,2.1
	c2,0.9,4,2,5.9,3.1c-0.7,0.3-1.4,0.5-2,0.8c-1.8,0.8-0.2,3.4,1.5,2.6c7.5-3.3,15.9-4.3,24-5.1c8-0.9,16.3-1.1,23.9,2.4
	c13.2,6,21,19,25.5,32.2c2.7,7.9,4.1,16.2,5.2,24.5c0,2.2,0,4.6-0.5,6.7c-0.4,1.7-1,2.8-1.8,4.4c-0.6,1.1-1.3,2.4-2.6,2.8
	c-1.2,0.4-2-0.2-2.4-1.3c-0.5-1-0.7-2.2-0.9-3.3c-0.3-1.2-0.5-2.4-0.7-3.7c-0.4-2.7-0.8-5.4-0.9-8c-0.1-1.9-3.1-1.9-3,0
	C155.8,102.4,156.2,105.3,156.7,108.1z" />
</svg>