<svg xmlns="http://www.w3.org/2000/svg" viewBox="0 0 200 200">
	<style>
		.code_of_conduct_1 {
			fill: #fd1015
		}

		.code_of_conduct_2 {
			fill: #ccc
		}

		.code_of_conduct_4 {
			fill: #e7f4df
		}
	</style>
	<path
		d="M66.4 70.5c-.2-.6-.6-1-1.2-1.2-.2-.5-.4-1-.7-1.5l-2.7-7.2-.3-4.5v-4.2c.6-.2.9-.8 1-1.4.2-1.5 0-3-.4-4.5-.2-.7-.8-1-1.5-1-.2-1-.4-2.1-.7-3.1-.2-.8-1.2-1.4-2-1.1-.9.3-1.3 1.1-1.1 2l.3 1.8c0 .1-.1.4-.1.7-.2 5.3-.3 10.6.3 15.8-.3.3-.4.7-.5 1.2-.6 4.8-.4 9.6.4 14.4-.9.3-1.4 1.5-.6 2.4 2.3 2.7 5.5 4.8 9.1 5.5 1.3.3 2.5-.6 2.6-2 .1-4.1-.4-8.3-1.9-12.1zm-8.8 68.7c-.2 0-.4 0-.6.1-.1-.1-.3-.1-.5-.1-2.8.1-5.5.1-8.3.2-.7 0-1.4.1-2.1.1-.6 0-1.2 0-1.8.2-.6.3-.9 1-.9 1.6-.6.6-.4 1.8.6 1.9 0 .1 0 .1-.1.2 0 .5.4.9.8 1 .6.2 1.3.4 2 .5.3.1.5.2.8.3.7.1 1.4.2 2 .1 1.1-.1 2.1-.5 3-1 1.6-.5 3.1-1.3 4.4-2.6.3-.1.6-.1.9-.2 1.5-.2 1.3-2.5-.2-2.3zm95.7 2.2v-.5c0-1.2-1.2-1.7-2.2-1.3-3.3 1.4-7.4 1.1-10.4-1-.8-.5-1.8 0-2.1.8-.5 1.7.9 3 2.3 3.5.1 0 .1 0 .2.1.1.4.4.7.8.8.3.1.6.1.9.2 0 .1.1.1.1.2.9.9 2.5 1 3.7.9 1.1-.1 2.1-.3 3.1-.7 1-.3 2-.7 2.9-1.2.7-.5.8-1.2.7-1.8zm-69.9 29c-.1-.4-.2-.8-.3-1.3 0-.6 0-1.2-.1-1.8-.1-1.1-.3-2.2-.4-3.3-.3-2.1-.7-4.2-1.1-6.3l-1.5-6.3c1.1-1.2 2-2.5 2.7-4 .5-1.1.9-2.2.3-3.4-.5-.9-1.4-1.7-2.1-2.5-3-3.3-6.1-6.5-9.5-9.3-.3-1.3-2.2-1.7-3.2-.8-3.1 2.9-5.1 6.7-5.7 10.9-.5 1-.9 2-1.3 3-.5 1.2 1 2.5 2.1 2.1.5-.2 1.1-.3 1.6-.5 2.4.8 4.4 2.2 5.9 4.1 0 .1.1.1.1.2-.7 4.3-1.4 8.5-2.1 12.8-2 .1-4.1.2-6.1.4-.3-.6-1.1-1-2-.9-3.3.5-6.4 2.1-8.6 4.6-.1.1-.2.2-.3.4-.8.7-1.5 1.5-2.2 2.4-.8 1.1.3 2.5 1.5 2.6 5.1.3 10.3-.1 15.4-.9.2.1.4.1.7.1 1.7.2 3.4.3 5.1.4 3.3.1 6.7-.2 10-.6.9-.2 1.3-1.3 1.1-2.1zm59.1.8c-.7-1.2-1.6-2.1-2.7-2.7-1.1-1.3-2.5-2.2-4.2-2.9-.2-.1-.5-.2-.8-.3-.1-.1-.3-.2-.4-.4-.6-.5-1.2-.9-1.8-1.2.1-1.1-.8-2.5-2.1-1.9-1.1.4-2.2.6-3.4.8-1.8 0-3.5 0-5.3.1h-.3c-.2-4.1-.8-8.2-1.7-12.3.7-1.5 1.4-2.9 2.1-4.4.1 0 .1 0 .2-.1 1.5-.6 3.5-1.4 5.1-.7 1.2.5 2.5-.7 2.5-1.9 0-1.8-1.2-2.9-2.4-4.2.1-.9-.5-1.8-1.3-2h-.2c-.3-.4-.5-.9-.7-1.3 0-.3-.1-.6-.2-.9-.2-.4-.4-.7-.7-1-.1-.1-.1-.3-.2-.4-.4-.9-.8-1.9-1.9-2.3-1.2-.4-2 .5-2.7 1.3-.3.4-.6.8-1 1.2-1.1.7-2.1 1.7-3 2.7-1.7 1.8-3.3 3.6-4.9 5.4v.1c-1.2.6-2.2 1.4-3 2.5-.4.6-.2 1.5.3 2 1 1.1 2.1 2.2 3.3 3.2-.5 4.2-1 8.4-1.2 12.6-.3.7-.6 1.4-.8 2.2-.5 1.6-.8 3.2-.9 4.9 0 .3.1.6.2.8h-.1c-1 .3-1 1.8 0 2 3.7.9 7.7.6 11.4.6h4.4c.2.2.5.4.8.4.1 0 .3 0 .4.1 3.1.4 6.2.6 9.3.4 2.2.1 4.3.3 6.5.4 1.3 0 2.1-1.6 1.4-2.8zM59 110.6c-.2-.2-.3-.4-.5-.5.1-.2.2-.4.2-.6 0-1.5-.8-3-1.5-4.3-.1-.2-.3-.5-.4-.7.1-.2.1-.3.2-.5s.1-.4.1-.7c0-.3-.2-.6-.4-.7-.2-.1-.6-.2-.9 0-.1 0-.1.1-.2.1-.1.1-.2.1-.3.2-.6-.2-1.3-.1-1.9.2-1.3.6-2.4 1.2-3.9 1.4-1.4.2-2.9-.1-4.2.7-.2.1-.4.3-.5.5h-.3c-.4.1-.8.6-.8 1 0 1 .1 2 0 3 0 .8.6 1.3 1.4 1.4 2.2.2 4.4-.1 6.6-.1H55c.7 0 1.4 0 2.1-.1.3.2.7.5 1 .7.7.4 1.3-.5.9-1zm95.1.1c-.1-.3-.4-.6-.6-.9 0-.5 0-1-.1-1.5s-.6-1-1.1-1.1c-.8-.2-1.7-.2-2.5.1-1.6-.6-3.2-1.1-4.7-1.7-.5-.2-.9 0-1.2.3-.2 0-.3-.1-.5-.1v-.2c-.2-1.5-.7-3-1.3-4.5.1-4.2-.1-8.5-.6-12.7.2-.2.4-.4.5-.7.6-2.2.3-4.5-1.1-6.4-.2-.2-.4-.4-.6-.5 0 0 0-.1-.1-.1-.2-.4-.7-.5-1.1-.5.2-.4.5-.7.7-1.2.8-1.8.6-3.7 0-5.5.1-1.7 0-3.5-.1-5.2.2-.3.3-.6.3-.9 0-1.1-.1-2.2-.1-3.3 0-.6 0-1.2-.2-1.8-.1-.3-.2-.6-.4-.8.1-.8.2-1.6.2-2.4.1-1.3.2-2.6.4-3.9.2-2 .2-4 .2-6 0-2.1-.3-4.2-.2-6.2.1-1-1.6-1.5-2-.5-1.3 3-2.3 5.9-2.8 9.1-.5 3.3-.7 6.5-.3 9.7 0 .3.1.6.2.8l-.6 1.2c-.5.5-.9 1.1-1.3 1.6-.2.2-.3.4-.4.6-1.4.7-2.4 2.3-3 3.7-.3.7-.4 1.4-.6 2.1-1 1.7-1.6 3.7-1.8 5.7-.1 1.1-.1 2.4.3 3.5 0 .5.1.9.3 1.3-.1.1-.1.2-.2.3-.6 1.3.1 3.1 1.8 3.1 2.1-.1 4.1-.7 5.8-1.9l1.2-.6c0 .9.2 1.8.7 2.6.1.8.2 1.6.5 2.3 0 .1.1.2.1.3-.2 2.9-.4 5.8-.4 8.7-.4 2.6-.8 5.1-1.1 7.7-.1.8-.2 1.6-.3 2.3 0 .9.8 1.2 1.5.9.1.3.4.6.7.8-.1.3-.2.7-.2 1.1.1 1.5 1.2 2.8 2.8 3 .8.1 1.7.1 2.5.2.9.1 1.8.2 2.6.2 1.7.2 3.4.5 5.1.8.9.2 1.9.5 2.7-.3.6-.7.7-1.8.4-2.6z"
		fill="#79a2d8" />
	<path class="code_of_conduct_1"
		d="M101.6 104.6c.1 0 .1 0 0 0 .1 0 .1 0 0 0 .1 0 .1 0 0 0zm35.7-17.9c-.2-.9-.6-1.7-1.4-2.1-.4-.2-.8-.3-1.2-.3-.3-.1-.6-.1-.9.1-.1 0-.2.1-.3.1-.2 0-.3.1-.5.2-1.7.6-3.4 1.2-5.1 1.9-2 .7-3.9 1.4-5.9 2.2h-.1c-1.8.2-3.6.4-5.4.7-3 .4-6 .8-9.1 1.3-1.4.2-2.8.5-4.2 1-1.1-.9-2.9-.8-3.3.9-.1.3-.1.6-.2.8-.9.7-1.4 1.8-.8 2.9.1.2.2.3.3.5-.2 1.9-.2 3.8 0 5.7.1 1.2.9 2.2 2.2 2.2h.2c-.1 0-.2-.2.1 0 .2 0 .1 0 0 0l.1.1c.2.2.2.1.4.4.3.3.5.9.7 1.3.5 1.4 1.1 2.7 2.4 3.4-.9 4.9-1.2 9.9-1 14.8 0 .2 0 .4.1.6-.2 1.2-.4 2.4-.5 3.6-.2 1 .2 2.3 1.4 2.5 3.7.6 7.3.1 10.9-.8 1.7-.4 3.6-.7 4.9-1.9 1.1-1 1.8-2.5 2.6-3.8 3-5 5.7-10.2 6.9-15.9 1.2-.3 2.2-.8 3-2 .9-1.5 1.2-3.4 1.6-5.1.9-3.9 1.5-7.9 1.8-11.9.4-1.2.5-2.3.3-3.4zm-43 12.1c0-2-.1-3.9-.1-5.9 0-1.1-.9-1.9-2-2-3.8-.2-7.6-.4-11.5-.6h-.3c-3.8-1.3-7.6-2.4-11.5-3.4-.1-.4-.4-.7-.7-.8-1.2-.6-2.5-1.2-3.7-1.8-1.2-.6-2.5-1.4-3.7-1.8-1.1-.4-2.1-.2-2.9.3-.6 0-1.1.3-1.3.8.3-1.7.6-3.4.5-5.1-.1-1.2-.3-2.5-.9-3.6-.7-1.4-2.9-1.2-4.3-1.4-2.7-.4-5.4-.7-8-1.1-2.3-.3-4.9-1.1-7.2-.6-1.1.2-2.1 1-2.6 2-.7 1.3-.4 2.8-.1 4.2.4 2.6.6 5.3.7 8 .1 2.7 0 5.3-.3 8-.1 1.2-.2 2.5-.4 3.7-.2 1.4-.4 2.8.3 4.1.4.8 1.1 1.3 1.8 1.6.1.6.5 1.2 1.3 1.1 3.1-.2 6.1-.7 9.1-1.4 1.1.2 2.3.2 3.5.1 1.2-.1 2.3-.3 3.5-.5 1.3-.3 2.6-.6 3.3-1.8.2-.4.3-.9.4-1.4.5 2.2 1.2 4.3 1.8 6.4.2.6.5 1 1 1.3-.1.5 0 1.1.3 1.6 1.4 3.2 2.8 6.3 4.2 9.5.7 1.5 1.3 3.1 2 4.6.6 1.4 1.2 3 1.9 4.4 1.8 3.1 5.3 3.1 8.4 3.5 3.5.5 6.9.9 10.4 1.3 1.2.1 2.5-1.2 2.4-2.4-.5-6.4-1.2-12.7-2.4-19 .5-.2 1-.5 1.4-1 .7-.8 1.1-1.9 1.4-3l.3-1.2c.1-.5 0 .1.1-.3h.7c.9-.1 1.7-.4 2.3-1.1 1.1-1.7.9-3.6.9-5.3zm72-13.5c0-1.6-.1-3.2-.2-4.7-.1-1.6-.1-3.2-1.5-4.1-.8-.5-1.8-.5-2.7-.6l-2.7-.2c-1.8-.1-3.6-.3-5.3-.4-3.7-.3-7.4-.7-11.1-.7-1.1 0-2.3 1.2-1.8 2.4-.1.1-.2.2-.2.4-.3.5-.4 1.2-.3 1.8.2.7.6 1.1 1.2 1.5.2.1.3.2.5.3.2.6.3 1.3.6 1.9l.3.6c0 .1 0 .2.1.3.1 5.6 0 11.2-.1 16.9 0 1.8-.1 3.5 1.4 4.7 1.2.9 2.8 1.2 4.2 1.6 2.9.7 6 1 9.1.9 1.5-.1 3.1-.3 4.6-.6 1.6-.3 3.2-.9 3.7-2.6.4-1.5.3-3.3.3-4.9 0-1.6.1-3.2.1-4.7-.1-3.3-.1-6.6-.2-9.8z" />
	<path class="code_of_conduct_1"
		d="M59.6 128.4c-.4-2.4-.7-4.8-1.1-7.2 0-.1 0-.3-.1-.4v-2.9c0-1.4.3-3.2-.3-4.5-.7-1.6-2.3-1.6-3.9-1.8-1.6-.1-3.2-.3-4.8-.5h-.5c-1.7-.2-3.4-.2-5.1-.1-1 .1-1.8.8-1.8 1.8v1.4c-.1.3-.1.6-.1.9v1.8c0 .3.1.6.2.9-.7 3.4-1.1 7-1.5 10.4-.2 2.1-.4 4.2-.5 6.2 0 1.1.3 2.2 1.2 3 .8.8 1.9.9 3 1.1 2.1.2 4.2.4 6.3.4 2 0 4.2.2 6.2-.3 5-1.1 3.3-6.7 2.8-10.2zm96.9 3.7c-.2-1.3-.5-2.6-.7-4 .3-3.4.5-6.8.4-10.3 0-.7-.4-1.4-1-1.7-4.9-2.6-10.2-3.9-15.8-3.9-.9 0-1.7.8-1.7 1.7v1.4c-.1.9-.2 1.8 0 2.6.1.5.2.9.5 1.2-.1 3.5-.3 7-.4 10.5-.1 1.9-.3 3.8-.2 5.7.2 2.1 1.5 3.3 3.5 3.7 3.6.7 7.6 1.2 11.2.8 1.8-.2 3.3-1.1 4.1-2.8.7-1.6.4-3.3.1-4.9zm9.3-56.6l-.2-.2c-.1-.1-.2-.1-.4-.1h-.1l-.1-.1c-.1-.1-.3-.2-.5-.2-.2-.1-.5-.1-.7 0-.1.1-.3.1-.4.2l-.3.2c-.1.1-.2.2-.3.4 0 0 0 .1-.1.1-.1.2-.2.3-.2.5 0 .1-.1.2 0 .3v.6c0 .2.2.4.3.6v.2c0 .1.1.2.1.3.1.1.1.2.2.3.1.1.3.2.4.3.1.1.2.1.3.1h.4c.1 0 .2 0 .3-.1.2-.1.3-.1.4-.3.2-.2.3-.4.5-.6.1-.2.2-.5.3-.7.1-.2.1-.4.1-.6v-.6c.3-.1.2-.4 0-.6z" />
	<path class="code_of_conduct_2"
		d="M67.5 148.6c-1.7-1.8-4.6-2.3-6.4-.2-1.5 1.7-1.4 3.8-.9 5.8 0 .2-.1.3-.1.5-.2.7-.2 1.5-.3 2.3.1-.6-.1 1-.1.5-.1.5-.1 1-.1 1.5 0 .8-.1 1.6.2 2.4.3 1.1 1.3 1.9 2.4 2.1.9.2 1.8.2 2.6.3 1.1.1 2.1.1 2.9-.7.8-.8.9-1.9 1.1-3 .1-.8.2-1.6.2-2.4V156c.8-2.6.3-5.5-1.5-7.4zm65.1 8.6c-.1-1-.2-2-.3-2.9-.2-1.7-.1-3.7-.8-5.3-.7-1.9-2.3-3.1-4.3-3.2-1.6-.1-3.3.6-4.4 1.7-1.4 1.4-1.9 3.5-1.8 5.5.1 1 .3 2.1.5 3.1.1.5.3 1 .4 1.4.1.2.1.4.2.6 0 .1.1.9.1.5 0 .4.2.7.3 1 .1.5.2 1 .4 1.4.7 1.3 2 1.5 3.3 1.5 1-.1 2-.2 2.9-.5 1.1-.3 2.4-.7 3-1.8.7-1 .6-2 .5-3zm-29-49.4c-1.1-2.4-3.3-4.6-6-5.2.1-1.1.1-2.2.1-3.3v-3.9c0-1.3 0-3.1-1.1-4-.3-.2-.8-.2-1.1 0-1.2.7-1.3 2.7-1.4 4-.2 1.3-.3 2.6-.5 3.9-.1 1.3-.3 2.5-.4 3.8-1.1.5-2.1 1.2-2.8 2.2-1.9 2.4-3.1 5.6-3.3 8.7-.1 1.7.3 3.4.6 5.1.3 1.8.7 3.6 1 5.4-.1 1.9-.1 3.8.9 5.4 1.8 2.7 5.6 2 8.4 1.8.9-.1 1.8-.1 2.6-.3.1.2.3.3.5.4.2.1.4.2.6.2h.7c.1-.1.3-.1.4-.2.2-.1.4-.3.6-.6.1-.1.1-.3.2-.4.1-.3.1-.6 0-.9 0-.2-.1-.3-.2-.5.5-.9.6-1.9.7-2.9.2-3.2.5-6.5.7-9.7 0-3 .1-6.1-1.2-9zM33.3 75.5c0-.6-.3-1.1-.7-1.3.1-.1.2-.2.2-.3v-.1c.1-1 0-2 0-3s-.1-2.1-.1-3.1v-6.4c0-.1 0-.2-.1-.3v-1.9c0-1.4-2-1.4-2.1 0-.1 1.7-.2 3.3-.1 4.9v8.5c0 .6.5 1 1 .9 0 .2.1.3.1.5 0 0 0 .1.1.1-.7.1-1.4.6-1.4 1.5-.2.2-.2.4-.2.6v1.2c-.1.1-.1.3-.1.5-.2 3.1-.3 6.1-.5 9.2 0 .7.5 1.3 1.2 1.5.6.2 1.4.2 2 0 .6-.3 1.2-.8 1.2-1.5l-.5-11.5zm137.5 2.2c0-1-.2-2-.2-3 0-.6-.4-.9-.8-1 0-1.8-.1-3.5-.1-5.3 0-.5-.3-.8-.6-1.1 0-.7-.1-1.4-.1-2.1 0-.2-.1-.3-.1-.4-.1-.8-.2-1.7-.4-2.5-.2-1-1.6-.7-1.7.2-.2.8-.3 1.6-.4 2.4 0 .1-.1.2-.1.4-.3 2.2-.1 4.4-.1 6.6 0 .3.1.6.2.8-.1 1.4 0 2.8.2 4.3-.1.3.2.6.4.7 0 3.2-.1 6.4-.1 9.6 0 1.3 1.8 1.8 2.4.7.4-.7.6-1.4.8-2.1.5-1.7.6-3.5.7-5.3v-2.9z" />
	<path class="code_of_conduct_2"
		d="M117.4 130.9c-2.4.4-4.7.8-7 1.3-2.1.4-4.3.7-6.4 1.1-2 0-4-.1-6 0-2.1 0-4.2 0-6.3-.1-2.4-.1-4.8-.2-7.2-.2-1.1-.2-2.2-.5-3.4-.7-.2-.1-.5-.1-.7-.2-.1 0-.1-.1-.2-.1-.4-.3-.9-.3-1.4-.2-.4-.1-.7-.2-1.1-.3-1.2-.3-2.4-.8-3.5-1.3-.6-.3-1.3-.2-1.7.3-.4.5-.4 1.4.1 1.8 1.5 1.2 2.8 2.5 4.1 3.8 1.3 1.2 2.6 2.5 4 3.7.5.4 1 .9 1.5 1.3.8 2.4 3 4.3 5.4 4.9 1.4.4 2.9.4 4.4.3 1.8.1 3.7.1 5.5-.2 2.5.4 5.2 0 7.5-1.1 3.2-1.5 5.6-4.1 7.8-6.7 1-.5 1.9-1.1 2.8-1.7.7-.5.9-1.4.5-2.1.3-.2.6-.3.9-.5.2-.1.4-.3.5-.4.2-.2.5-.3.7-.5 1.1-.9.5-2.4-.8-2.2z" />
	<path
		d="M127.7 64.7c-.3-1.6-.3-3.2-.3-4.8.1-3.5 0-7.1.4-10.6.1-.9-.7-1.8-1.4-2.1-.9-.4-1.8-.1-2.5.5-2.3 1.9-5.3 2.8-8.2 2.5-3.5-.4-6.7-2-10.2-2.7-3.8-.8-7.7-.7-11.5 0-1.7.3-3.4.8-5.1 1.3-1.4.3-2.8.7-4.2.3-1.4-.3-2.1-1.3-3.1-2.3-1.2-1.1-2.4-2.3-4.1-2.5-1-.1-1.9.1-2.5 1-1.2 2-1.5 4.4-1.6 6.8-.1 2-.2 4-1.3 5.8-.1.2-.2.3-.3.5-1.9 1.8-3.5 4.1-4.5 6.5-.9 2.1-1.6 5.5.9 6.8 0 4.2.6 8.6.1 12.6-.1 1 .6 1.7 1.5 1.8l.6.3C76 88.5 82 89.3 88 90.2c6.1.9 12.2 1.7 18.3 1 6-.7 11.9-2.3 17.7-4 1.8-.5 2.7-1.4 2.9-3.3.2-1.6.4-3.3.6-4.9.4-3 .9-6 .9-8.9 0-1.9-.4-3.6-.7-5.4z"
		fill="#666" />
	<path class="code_of_conduct_4"
		d="M138.8 78.7c-8.8 6.3-19.8 8-30.2 9.8-5.9 1.1-11.8 1.7-17.8 1.1-6-.6-11.8-2.1-17.5-3.9-5.8-1.8-11.7-3.7-16.6-7.4-1.5-1.2-3 1.4-1.5 2.6 4.5 3.4 9.8 5.3 15.1 7 5.8 1.8 11.7 3.5 17.8 4.3 6.2.9 12.3.6 18.4-.4 5.7-.9 11.4-1.9 17-3.4 5.9-1.5 11.8-3.7 16.8-7.3 1.6-.9.1-3.5-1.5-2.4zM64.1 51c2.6-6.2 8.9-10.6 14.6-13.9 4.9-2.8 10.4-4.8 16.1-5.5 3.9-.5 7.9-.4 11.7.7 4.8 1.5 9.5 3.7 13.8 6.4 6 3.8 11.4 8.6 13.5 15.6.5 1.8 3.4 1.1 2.9-.8-2-6.6-6.6-11.6-12.1-15.5-4.8-3.4-10.1-6.1-15.6-8-9.7-3.4-20.6-1.2-29.6 3.4-3.7 1.9-7.2 4.2-10.4 6.9-3.1 2.5-5.9 5.5-7.5 9.2-.7 1.8 1.8 3.3 2.6 1.5zm3.7 18.4c.9-4.9 4.3-8.6 6.9-12.6.4-.7.1-1.7-.5-2.1-.7-.4-1.6-.1-2.1.5-2.8 4.2-6.3 8.2-7.2 13.3-.1.8.2 1.6 1 1.8.7.4 1.7-.1 1.9-.9zm62.6-.8c-.6-2.8-1.7-5.4-2.7-8-.3-.7-1-1.3-1.8-1-.7.2-1.3 1.1-1 1.8 1 2.6 2.1 5.2 2.7 8 .2.8 1.1 1.3 1.8 1 .8-.2 1.2-1 1-1.8z" />
	<path class="code_of_conduct_4"
		d="M85.5 50.4c9.7-3.2 20.5-2.5 29.6 2.1 1.7.9 3.2-1.7 1.5-2.6-9.8-5-21.4-5.9-31.9-2.4-1.9.7-1.1 3.6.8 2.9z" />
	<path class="code_of_conduct_4"
		d="M75.4 56.7c0-.1-.1-.3-.1-.4 0-.1-.1-.5 0-.3v-3.4c.1-1.6.2-3.2.4-4.8v-.2c0-.2 0 .3 0 0 0-.1 0-.3.1-.4 0-.3.1-.5.1-.8 0-.2.1-.3.1-.5s0-.4 0 0v-.1c.2-.1.3-.1.4-.1.5 0 1 .3 1.5.5.9.5 1.9 1 2.7 1.6 1.9 1.2 3.5 2.8 5 4.5.5.6 1.6.6 2.1 0 .6-.6.5-1.5 0-2.1-1.6-1.8-3.3-3.4-5.3-4.7-1-.7-2-1.3-3.1-1.8-1.3-.7-2.7-1.2-4.1-.8-1 .3-1.9 1-2.2 2.1-.1.4-.2.9-.2 1.3-.3 1.7-.5 3.5-.6 5.2-.1 2-.2 4.1.3 6 .5 1.9 3.4 1.1 2.9-.8zm52.3 4.7c.5-2 1-4.1 1.3-6.2.3-2.4.9-5.2-.3-7.4-.5-1-1.4-1.8-2.5-2.1-1.4-.4-2.7 0-4 .6-2.3 1.1-4.6 2.5-6.7 3.9-1.2.8-.8 2.7.8 2.8.6 0 1.1-.2 1.5-.6.6-.5.5-1.6 0-2.1-.6-.6-1.5-.5-2.1 0l-.1.1c.2-.1.4-.3.7-.4h.1c.3.9.5 1.9.8 2.8 1.8-1.2 3.7-2.3 5.6-3.3.7-.4 1.7-1 2.6-.9.6.1 1 .7 1.1 1.2.3 1 .2 2.1.1 3.1-.1.9-.2 1.7-.3 2.6-.3 1.8-.8 3.5-1.2 5.3-.7 1.7 2.2 2.5 2.6.6z" />
	<path class="code_of_conduct_4"
		d="M115.6 52.4c0 .1.1.4.2.6.1.3.2.6.4.9.3.6.7 1.1 1.2 1.5 1.4 1 3.6.3 4.6-.9.5-.7 1-1.3 1.6-2 .3-.3.5-.6.8-.9.2-.2.5-.5.8-.5.4 0 0 1.4 0 1.7-.1 1-.2 2-.3 3.1-.1 1.1-.1 2.2 0 3.2.1.9.3 1.8.9 2.5.7.7 1.7-.4 1.1-1.1-.4-.4-.5-1.2-.5-1.8-.1-1 0-2 .1-3 .1-.9.1-1.9.2-2.9.1-.8.4-1.8-.1-2.5-.5-.8-1.5-.9-2.3-.5-.8.4-1.3 1.1-1.9 1.7-.6.6-1 1.3-1.6 2-.5.6-1.3.9-2.1.8-1.2-.1-1.4-1.7-1.8-2.7-.4-.8-1.7-.1-1.3.8zm-29.2-1.3c-.6.3-1.3 1.3-2 1.2-.4 0-.9-.4-1.2-.6-.5-.4-.9-.8-1.3-1.2-.8-.7-1.7-1.5-2.5-2.2-.6-.5-1.4-1.1-2.3-1.1-1.8-.1-1.8 2.2-2 3.4-.3 2.1-1.1 4.2-1.4 6.3-.1.4.1.8.5.9.4.1.9-.1.9-.5.3-2 1-4 1.3-6 .1-.7.1-1.5.3-2.2 0-.1.1-.3.2-.4.2-.1.8.4 1 .5 1.7 1.2 3 2.8 4.7 4 .7.5 1.6.8 2.4.5.8-.3 1.3-1 2-1.3 1-.5.2-1.8-.6-1.3z" />
	<path class="code_of_conduct_4"
		d="M77.2 47.4c-.6-.8-.9-1.8-1-2.8 0-.2-.2-.4-.4-.4s-.4.2-.4.4c.1 1.1.5 2.2 1.1 3.2.1.2.3.2.5.1s.3-.3.2-.5zm1.2.8c-.3-1.2-.5-2.3-.8-3.5 0-.2-.3-.3-.5-.3-.2.1-.3.3-.3.5.3 1.2.5 2.3.8 3.5 0 .2.3.3.5.3.2-.1.3-.3.3-.5zm1.1.5c-.2-1-.3-2-.2-3 0-.2-.2-.4-.4-.4s-.4.2-.4.4c-.1 1.1 0 2.1.2 3.2.2.5.9.3.8-.2zm1.1 1.2c-.2-1.2-.2-2.4-.2-3.6 0-.5-.7-.5-.8 0 0 1.3.1 2.6.2 3.8 0 .2.3.3.5.3.2-.1.3-.3.3-.5zm1.1 1c-.2-1.1-.2-2.2.1-3.3.1-.5-.6-.7-.7-.2-.3 1.2-.3 2.5-.1 3.7 0 .2.3.3.5.3.1-.1.2-.3.2-.5z" />
	<path class="code_of_conduct_4"
		d="M82.6 51.7c-.2-1-.1-2.1.2-3.1.1-.5-.6-.7-.7-.2-.4 1.1-.4 2.3-.2 3.5 0 .2.3.3.5.3.2-.1.3-.3.2-.5zm.9.8c0-1 .2-2 .5-2.9.1-.2-.1-.4-.3-.5-.2-.1-.4.1-.5.3-.4 1-.5 2-.5 3.1.1.5.8.5.8 0zm.8.1c.1-.9.3-1.8.7-2.7.1-.2.1-.4-.1-.5-.2-.1-.4-.1-.5.1-.4 1-.7 2-.8 3 0 .2.2.4.4.4.1.1.3-.1.3-.3zm-8-4.2c-.7-.8-1.3-1.6-2-2.4-.1-.2-.4-.1-.5 0-.2.2-.1.4 0 .5.7.8 1.3 1.6 2 2.4.1.2.4.1.5 0 .2-.1.1-.3 0-.5zm-.3 1.7c-.3-.2-.5-.5-.7-.8-.1-.1-.2-.3-.3-.4l-.1-.1c-.1-.1-.1-.2-.2-.2-.1-.2-.3-.3-.5-.1-.2.1-.3.3-.1.5.4.6.9 1.2 1.5 1.7.1.1.4.2.5 0 0-.3 0-.5-.1-.6zm0 1.7c-.5-.5-.9-1.1-1.4-1.6-.1-.1-.4-.1-.5 0-.1.2-.1.4 0 .5.5.5.9 1.1 1.4 1.6.1.1.4.1.5 0 .1-.1.1-.3 0-.5zm-.5 1.3c-.8-.6-1.5-1.3-2.2-2.1-.1-.1-.4-.1-.5 0-.1.2-.1.4 0 .5.7.8 1.4 1.4 2.2 2.1.2.1.4.2.5 0 .2-.1.2-.3 0-.5zm50.3-2.6c.4-1.2.7-2.5.8-3.7 0-.2-.2-.4-.4-.4s-.4.2-.4.4c-.1 1.2-.3 2.4-.7 3.5-.1.2.1.4.3.5.1.1.3-.1.4-.3z" />
	<path class="code_of_conduct_4"
		d="M125.1 50.7c0-1.1.1-2.2.1-3.3 0-.5-.7-.5-.8 0 0 1.1-.1 2.2-.1 3.3 0 .4.7.4.8 0zm-1 .4c.1-1.3 0-2.6-.2-3.8 0-.2-.3-.3-.5-.3-.2.1-.3.3-.3.5.2 1.2.3 2.4.2 3.6 0 .2.2.4.4.4.3 0 .4-.2.4-.4zm-.9.9c0-1.2-.1-2.5-.3-3.7 0-.2-.2-.4-.4-.4s-.4.2-.4.4c.2 1.2.2 2.5.3 3.7 0 .5.8.5.8 0zm-.8 1.2c-.1-1.5-.3-3-.6-4.5 0-.2-.3-.3-.5-.3-.2.1-.3.3-.3.5.2 1.4.4 2.8.5 4.3.2.4 1 .5.9 0z" />
	<path class="code_of_conduct_4"
		d="M121.7 54.1c-.3-1.6-.5-3.2-.8-4.8-.1-.5-.8-.3-.7.2.3 1.6.5 3.2.8 4.8.1.4.8.2.7-.2z" />
	<path class="code_of_conduct_4"
		d="M121 54.4c-.2-1.3-.5-2.6-.7-3.9 0-.2-.3-.3-.5-.3-.2.1-.3.3-.3.5.2 1.3.5 2.6.7 3.9 0 .2.3.3.5.3.2-.1.3-.3.3-.5zm-1.2.2c-.4-1.2-.7-2.5-.9-3.7 0-.2-.3-.3-.5-.3-.2.1-.3.3-.3.5.2 1.3.5 2.5.9 3.7.3.5 1 .3.8-.2zm-1.4-.6c-.2-.4-.3-.7-.4-1.1 0-.2-.1-.3-.1-.5v-.6c0-.2-.2-.4-.4-.4s-.3.2-.4.4c-.1.9.1 1.8.6 2.6.1.2.3.2.5.1s.3-.3.2-.5zm8.1-2.3c.3-.5.5-.9.8-1.4.1-.2 0-.4-.1-.5-.2-.1-.4 0-.5.1-.3.5-.5.9-.8 1.4-.1.2 0 .4.1.5.2.1.4.1.5-.1zm-.2 1.7c.1-.2.2-.3.3-.5l.2-.2s0 .1 0 0l.1-.1.1-.1c.1-.1.2-.3.4-.4l.1-.1s.1 0 .1-.1c0 0-.1 0 0 0 .1-.1.2-.1.2-.2.2-.1.2-.3.1-.5s-.3-.2-.5-.1c-.7.5-1.3 1.1-1.6 1.8-.1.2-.1.4.1.5.1.3.3.2.4 0zm-.1 2.4c0-.1.1-.2.1-.3v-.1c0-.1 0 0 0 0s0-.1.1-.1c.1-.2.2-.4.3-.5v-.1l.1-.1.2-.2.1-.1c.1-.1-.1 0 0 0h.1c.1-.1.2-.1.3-.2.2-.1.2-.3.1-.5s-.3-.2-.5-.1c-.9.5-1.5 1.3-1.7 2.3-.1.2.1.4.3.5.2-.2.4-.3.5-.5zm0 1.8c.2-.4.5-.8.8-1.1l.1-.1v-.1c.1-.1.1-.2.2-.3.1-.2.3-.4.5-.5.1-.1.2-.4 0-.5-.1-.1-.4-.2-.5 0-.6.7-1.2 1.5-1.7 2.3-.1.2 0 .4.1.5.2.1.4 0 .5-.2zm-41-5.1l.3-.9c.1-.2.1-.3.2-.5 0 .1 0 0 0 0s0-.1.1-.1c0-.1.1-.1.1-.2.1-.2.1-.4-.1-.5-.2-.1-.4-.1-.5.1-.3.6-.5 1.3-.7 1.9 0 .2.1.4.3.5 0 0 .2-.1.3-.3zM107.7 69.2c-.1-.2-.4-.3-.6-.3-.2.1-.4.2-.5.4-.1.2-.1.4 0 .6.1.2.3.3.6.3.2 0 .4-.1.6-.3.1-.2.2-.4.2-.6v-.5c-.1-.2-.3-.4-.5-.4.1.2.1.5.2.7-.1.1-.1.1 0 .1l.1-.1c.1 0-.1 0 0 0s.1 0 .2-.1h.1c-.1 0 0 0 0 0s.1 0 0 0c0 0-.1 0 0 0 0-.1 0 0 0 0v.2c0-.1 0 0 0 0v.1c0-.1 0 0 0 0 0 .1.1 0 0 0 0 0 .1 0 0 0 0 0-.1 0 0 0-.1-.1 0 .1 0 0v-.1c0 .1 0 0 0 0 0-.1 0 .1 0 0-.2 0-.5.1-.7.1 0 .2 0 .4.1.5 0 .2.1.4.2.5.3.3.9.2 1-.2.1-.3-.1-.4-.4-.5-.3 0-.9 0-1 .4-.1.2 0 .4.2.6.2.1.4.2.6.2.3 0 .7-.1.9-.4.2-.4 0-.7-.3-1-.1-.1-.3-.2-.5-.2-.3.1-.4 0-.5 0-.1 0-.2 0-.3.1.1 0 .1 0 .2-.1-.1.1 0 .1.1 0 0 .1 0 .1.1.1 0 .1 0 .2.1.3 0 0 0-.1.1-.1v-.2c0-.2-.1-.3-.2-.4-.1-.1-.2-.1-.4-.1h-.2s-.1 0 0 0c.1.2.2.3.3.5 0-.1 0-.1.1-.2V69s0-.1 0 0v-.1s.1-.1 0 0l.1-.1s.1 0 0 0c0 0 .1 0 0 0 0 0 .1 0 0 0 .1 0 0 0 0 0l.1.1c.1.1.4.1.5 0 .1-.2.1-.4 0-.5-.1-.2-.3-.3-.5-.4-.2-.1-.5-.1-.7 0-.4.2-.5.6-.6 1 0 .2.1.4.3.5h.5c-.1 0-.1 0 0 0h-.1v-.1c.1-.2.1-.2 0-.2l-.1.1v.4c.1.2.3.2.5.2 0 0 .1 0 .1-.1h-.1c.1 0 .2 0 .2.1 0 0 .1.1.1 0 0 0 .1 0 .1.1v.1c0-.1 0-.1 0 0 0-.1 0-.1 0 0 0 0 0-.1 0 0l.1-.1h-.1c.1 0 0 0 0 0h-.2c.1.1.1.2 0 .2 0 .1-.1.1-.1.1h.4c-.1-.2-.2-.3-.4-.5 0-.1.1-.1.2-.1h.1c.1 0 0 0 0 0s.1.1.1 0c0 0 0 .1 0 0v-.1c0-.2-.1-.4-.1-.6 0-.2-.2-.3-.4-.3s-.3.2-.3.4c0 .5.3.9.8.9s.8-.4.8-.8-.2-.9-.6-1c-.4-.1-.8.1-1.2.3-.1.1-.2.3-.2.4.1.2.2.3.4.3-.1 0-.1 0-.2-.1 0 0 0-.1 0 0 0-.1 0-.1 0 0 0-.1 0-.1 0 0v.4c0-.1 0 0 0 0 .1 0 .1 0 0 0h.1c0 .1.1.1.1.2l.1-.1h-.1c-.1 0-.1-.1-.1-.1.1.2.3.2.5.1 0 0 .1-.2 0-.4zm-21.4-1.7c-.2.4-.3.9.1 1.1.2.1.5.1.7 0 .2-.1.3-.3.4-.4.1-.2.2-.4.1-.7-.1-.3-.3-.4-.6-.5-.2-.1-.5-.1-.7 0-.2.1-.4.3-.4.6 0 .2.1.3.3.4.2 0 .3 0 .4-.2.1-.2.2-.4.2-.6 0-.2-.1-.5-.4-.6-.3-.1-.6-.1-.8.1-.2.1-.2.4-.3.6-.1.3 0 .5.2.7.1.2.4.2.6.3.4 0 .8-.2 1.1-.5.2-.2-.1-.6-.3-.6-.3 0-.5.1-.7.3-.1.1-.1.3 0 .5.1.1.3.2.5.1.3-.2.5-.5.5-.8v-.6c-.2.2-.2.3-.1.3-.1 0 0 0 0 0 .1 0 .1.1.2.1l.1.1c-.1-.1 0 0 0 0 .1 0 0-.1 0 0s0-.1 0 0c0-.1 0-.1 0 0 0-.1 0-.1 0 0v.1c0-.1 0 0 0 0l-.1.1s-.1.1 0 0c0 0-.1 0-.1.1h-.1s.1 0 0 0h.1c0 .2 0 .3.1.5 0-.1 0 0 0 0 0-.1 0 0 0 0s.1 0 0 0c.1 0 0 0 0 0h.1s-.1 0 0 0h.1s-.1 0 0 0c0 0 0-.1 0 0 0 0 0-.1 0 0 0 0 0-.1 0 0 0 0 .1 0 0 0 0 0 .1 0 0 0 0 0-.1 0 0 0-.1 0 0 0 0 0h-.1c-.1 0 0 0 0 0s0 .1 0 0c0 0 0-.1 0 0-.1-.2-.3-.3-.5-.3-.2.1-.3.3-.3.5.2.4.5.6.9.6s.7-.3.8-.7c.1-.4-.1-.8-.5-.9-.3-.1-.7 0-.9.3-.1.2 0 .3.1.5.3.3.7.3 1 0 .3-.2.6-.6.5-1-.1-.3-.5-.6-.8-.7-.2-.1-.4-.1-.7 0-.1 0-.2.1-.2.2-.1.1-.1.3 0 .4 0 0 0 .1 0 0v.3s0 .1 0 0v.1s0 .1-.1.1c0-.1 0 0 0 0s-.1.1 0 0c.2.2.3.4.5.6l.1-.1c.1 0-.1 0 0 0h.1c-.1 0-.1 0 0 0l-.3-.6c0-.1 0 0 0 0l-.1.1c0-.1 0 0 0 0h-.1c-.1 0 0 0 0 0h-.1s-.1 0 0 0h-.1s.1 0 0 0c-.3.2-.4.2-.4.1.1.1 0 .1 0 0 0 .1.1.1 0 0 0 .1 0 0 0 0s.1.1 0 0v.1s.1-.1 0-.1c.1 0 .1-.1 0 0l.1-.1s.1-.1 0 0c.1 0 0 0 0 0s-.1 0 0 0c0 0 0-.1 0 0 0-.1 0 0 0 0 0 .1-.1.1-.1.2.2.1.5.1.7.2 0-.1 0 0 0 0-.1.1 0 0 0 0h.1c.1 0 .1 0 .2.1 0 0 .1 0 0 0v-.1c0-.1 0 0 0 0s0 .1-.1.1v.1c0-.1 0 0 0 0s-.1.1 0 0h-.1c-.1 0 0 0 0 0s0 .1 0 0c0 0 0 .1 0 0v-.1s0 .1 0 0v-.1c.1-.2 0-.4-.1-.5-.3 0-.6 0-.7.2z" />
	<path class="code_of_conduct_4"
		d="M86.7 67.2s0-.1.1-.1c-.1 0-.1 0-.1.1 0-.1.1-.1.1-.2 0 .1 0 .1-.1.2l.2-.2h-.1.2c.2.1.4 0 .5-.1.1-.2 0-.4-.1-.5-.3-.2-.7-.2-1 0-.1.1-.3.2-.3.3-.1.2-.1.3-.2.5 0 .1 0 .2.1.3.1.1.2.1.3.1.1 0 .2 0 .3-.1.1-.1.1-.2.1-.3z" />
	<path class="code_of_conduct_4"
		d="M86.1 67.4c-.1.1-.1.2-.1.2 0 .1-.1.2-.1.3 0 .2 0 .3.1.5 0 .1.1.1.1.2.1.1.1.1.2.1s.1 0 .2.1h.5c.2 0 .3-.1.5-.2.1 0 .1-.1.2-.2v-.3c-.1-.1-.1-.2-.2-.2h-.4.1c-.1 0-.2.1-.3.1h.1-.2.1s-.1 0-.1-.1c0 0 .1 0 .1.1l-.1-.1s0 .1.1.1c0 0 0-.1-.1-.1v.1s0-.1.1-.1c0 0 0 .1-.1.1.1-.1.1-.2.1-.3 0-.1 0-.2-.1-.3-.1-.1-.2-.1-.3-.1-.2 0-.3.1-.4.1z" />
	<path class="code_of_conduct_4"
		d="M87.6 67.6c.1-.1.1-.2.2-.2v-.2s0-.1-.1-.1l-.1-.1h-.4c-.1 0-.1.1-.1.1-.1-.1-.1 0-.2.1v.2s0 .1.1.1l.1.1h.4c0 .1.1 0 .1 0zm19.9 1.6c.1 0 .1 0 .2-.1h.1c.1 0-.1 0 0 0s.2-.1.3-.1h-.1.3c.1 0 0 0 0 0s.1.1 0 0c-.1 0 0 0 0 0s-.1-.1 0 0v.1c0-.1 0-.1 0 0 0 0-.1.1 0 0 0-.1 0 0 0 0s.1-.1 0 0c-.1 0 0 0 0 0h-.1.1c-.2 0-.4.2-.4.4s.2.4.4.4.5-.1.6-.4c.1-.2.1-.4.1-.6-.2-.5-.7-.7-1.1-.6-.3 0-.5.2-.8.3-.2.1-.2.4-.1.5.1.2.3.2.5.1zm-18.6 4.5c.3.9.6 1.8.9 2.6.3.7.7 1.3 1.4 1.6 1.8.9 3.2-1.1 4.2-2.2-.4-.1-.8-.1-1.2-.2.9 1.3 1.9 3.5 3.8 3.3 1.9-.2 2.8-2.4 3.7-3.8.5-.8-.8-1.6-1.3-.8-.4.6-.7 1.2-1.1 1.8-.3.5-.7 1.1-1.3 1.3-.6.1-1-.4-1.3-.8l-1.2-1.8c-.3-.4-.8-.5-1.2-.2-.5.5-1.8 2.5-2.7 1.9-.4-.3-.5-.8-.7-1.2-.2-.7-.5-1.3-.7-2-.2-.8-1.6-.4-1.3.5zm23.2-.5c2.8-.5 5.6-.7 8.4-.5 1 .1 1-1.4 0-1.5-3-.2-5.9 0-8.8.6-.4.1-.6.6-.5.9.1.4.5.6.9.5zm.7 2.3c2.1.3 4.3.7 6.4 1 .4.1.8-.1.9-.5.1-.4-.1-.9-.5-.9-2.1-.3-4.3-.7-6.4-1-.4-.1-.8.1-.9.5-.1.4.1.9.5.9zm-30.6-4.8c-3-1.3-6.1-2.2-9.3-2.8-.1.5-.1 1-.2 1.5h.3c.4.1.8-.4.8-.8s-.3-.7-.8-.8h-.3c-.8-.1-1 1.3-.2 1.5 3.1.5 6.1 1.4 8.9 2.7.4.2.8.1 1-.3.3-.3.2-.8-.2-1zM80.6 73H75c-1 0-1 1.5 0 1.5h5.6c1 0 1-1.5 0-1.5zM71 128.7l-4.5-8.4c-2.2-4.3-4.6-8.7-6.2-13.3-.6-1.8-3.5-1-2.9.8 1.7 4.7 4.1 9.3 6.4 13.7 1.5 2.9 3 5.8 4.6 8.6 1 1.8 3.6.3 2.6-1.4z" />
	<path class="code_of_conduct_4"
		d="M69.7 130.9c17.2 3.8 35 3.8 52.2.1 1.9-.4 1.1-3.3-.8-2.9-16.6 3.6-34 3.5-50.6-.1-1.9-.4-2.7 2.5-.8 2.9z" />
	<path class="code_of_conduct_4"
		d="M122.7 130.4c4.1-6.2 7.2-13.1 10.7-19.7.9-1.7-1.7-3.2-2.6-1.5-3.6 6.5-6.6 13.5-10.7 19.7-1 1.6 1.6 3.1 2.6 1.5z" />
	<path class="code_of_conduct_4"
		d="M68.3 130.7l7.2 7.2 5.1 5.1c1.6 1.6 2.9 4 5.2 4.6 1.4.4 3 .2 4.5.2 2.3 0 4.6 0 6.9-.1 2.2 0 4.3-.1 6.5-.2.5 0 1 0 1.4-.1.7-.2 1.1-.9 1.6-1.3 1.3-1.3 2.6-2.5 3.9-3.8 2.5-2.4 5.2-4.8 7.7-7.2 1.6-1.5 3.3-3 4.5-4.8 1-1.6-1.5-3.1-2.6-1.5-1.5 2.3-4.2 4.4-6.3 6.4-3.5 3.2-6.9 6.4-10.2 9.8.4-.1.7-.3 1.1-.4-5.7.2-11.4.5-17 .2-.4 0-.8 0-1.2-.1.3 0 .1 0 0 0-.3-.1-.5-.3-.8-.5-1.3-1.1-2.2-2.6-3.5-3.8-2.4-2.3-4.7-4.7-7.1-7-1.6-1.6-3.2-3.2-4.7-4.8-1.4-1.4-3.5.7-2.2 2.1zM98.1 105.7c.7 0 2.4-.2 3 .5.2.3.2.7.2 1 .1.9.2 1.7.6 2.4.9 1.7 2.6 2.5 4.5 2.4 2.6-.1 5.3-.3 7.9-.4 3.8-.2 7.7-.4 11.5-.6 2.1-.1 4.4-.1 6.5-.4 2.1-.3 2.9-1.6 3.4-3.5.5-2 1-4 1.4-6 .9-4.3 1.5-8.7 1.8-13.1.1-1.9-2.9-1.9-3 0-.3 3.8-.8 7.6-1.5 11.4-.3 1.7-.7 3.4-1.1 5.1-.2.8-.4 1.5-.6 2.3-.2.7-.3.8-1.1.9-2 .2-4 .2-5.9.3-6.4.3-12.7.7-19.1 1-.3 0-.5.1-.8 0-1.7-.2-1.4-2-1.6-3.2-.7-2.9-3.6-3.1-6-3.1-2.1 0-2.1 3-.1 3z" />
	<path class="code_of_conduct_4"
		d="M99.6 104.2l.3-7.8c0-.6 0-1.3.1-1.9 0-.4-.1-1.2.1-1.5.4-.6 2.1-.5 2.8-.5 3.9-.4 7.8-.8 11.7-1.3 7.4-.8 14.8-1.4 22.3-1.8 1.9-.1 1.9-3.1 0-3-6.5.3-13 .8-19.5 1.5-2.9.3-5.8.6-8.7 1-1.8.2-3.7.4-5.5.6-1.7.2-3.9 0-5.2 1.4-1.4 1.4-1.1 4-1.1 5.8l-.3 7.5c-.1 2 2.9 2 3 0zM56.4 87.8c7.4.8 14.7 1.7 22.1 2.9 3.8.6 7.7 1.2 11.5 1.8.7.1 2.5 0 2.9.8.2.4.1 1.1.1 1.5v1.9c0 2.5-.1 5-.1 7.5l1.5-1.5c-2.4-.1-5.1.3-6 2.9-.5 1.5 0 3.6-2.2 3.4-2.3-.2-4.6-.5-7-.7-6.1-.6-12.2-1.2-18.3-1.9-.8-.1-1-.2-1.2-1.1-.5-2.1-.8-4.1-1.2-6.2-.6-4.2-1-8.5-1.1-12.7 0-1.9-3-1.9-3 0 .1 4 .4 8.1 1 12.1.2 1.8.5 3.5.9 5.3.3 1.6.4 3.8 1.9 4.8 1 .7 2.2.8 3.4.9 1.3.1 2.5.3 3.8.4 6.7.7 13.5 1.4 20.2 2.1 1.5.2 3 0 4.2-1.2.6-.6 1-1.3 1.1-2 .2-.7.1-1.5.4-2.2.5-1.1 2.2-.8 3.2-.8.8 0 1.5-.7 1.5-1.5 0-2.1.1-4.2.1-6.3 0-1.8.4-3.8-.2-5.5-.6-2-2.5-2.3-4.3-2.6l-5.7-.9c-5.7-.9-11.4-1.9-17.1-2.7-4.1-.6-8.2-1-12.3-1.4-2-.3-2 2.7-.1 2.9z" />
	<path class="code_of_conduct_4"
		d="M91.3 131.4c-1.1-6.7-1.3-13.6-2.4-20.3-.3-1.9-3.2-1.1-2.9.8 1.1 6.7 1.3 13.6 2.4 20.3.1.8 1.1 1.2 1.8 1 .9-.1 1.2-1 1.1-1.8zM104.7 131.4c.6-6.6 1.2-13.2 1.7-19.8.2-1.9-2.8-1.9-3 0-.6 6.6-1.2 13.2-1.7 19.8-.1 1.9 2.9 1.9 3 0zM139.6 81.6c1.2.3 1.1 2.7 1.2 3.7.1 2.1.3 4.2.4 6.3.2 2.3.3 4.5.5 6.8.1 1.9 0 4.2.6 6.1.6 1.8 2.4 2.3 4.1 2.6 2.1.4 4.2.8 6.4 1.1 4.4.6 8.8.9 13.2.8.8 0 1.5-.7 1.5-1.5.5-10.7.7-21.5.5-32.3 0-.9-.7-1.4-1.5-1.5-4.7-.3-9.5-.1-14.2.1l-10.1.3c-1.9.1-1.9 3.1 0 3l10.1-.3c4.7-.1 9.5-.4 14.2-.1l-1.5-1.5c.2 10.8 0 21.5-.5 32.3l1.5-1.5c-4.4.1-8.7-.2-13-.8-2.1-.3-4.1-.6-6.2-1.1-1-.2-1.6-.2-1.7-1.3-.1-1-.1-2.1-.2-3.2l-.9-12.9c-.2-2.8-.1-7.1-3.5-8-2-.5-2.8 2.4-.9 2.9zM55.5 99.6c-.1.9-.4 1-1.2 1.2-.9.2-1.9.4-2.8.6-1.8.3-3.7.6-5.5.8-3.7.4-7.5.6-11.3.6l1.5 1.5c-.5-10.5-.7-21-.5-31.5l-1.5 1.5c4.3-.3 8.7.1 13 .4 3 .2 5.9.4 8.9.7 1.9.2 1.9-2.8 0-3-3.1-.3-6.1-.5-9.1-.7-4.3-.3-8.7-.7-13-.4-.8.1-1.5.6-1.5 1.5-.2 10.5 0 21 .5 31.5 0 .8.7 1.5 1.5 1.5 4.7.1 9.4-.3 14.1-.9 2.2-.3 4.6-.6 6.7-1.2 2.1-.6 2.9-1.9 3.1-4 .3-2-2.7-2-2.9-.1z" />
	<path class="code_of_conduct_4"
		d="M167.2 90.6c1.3-.1 2.6-.4 3.8-.7.6-.2 1.1-.8 1.1-1.4 0-9.1-.7-18.1-1.1-27.2 0-.9-.7-1.4-1.5-1.5-1-.1-1.9-.2-2.9-.3-.8-.1-1.5.7-1.5 1.5-.2 4.5-.5 9.1-.7 13.6-.1 1.9 2.9 1.9 3 0 .2-4.5.5-9.1.7-13.6l-1.5 1.5c1 .1 1.9.2 2.9.3l-1.5-1.5c.4 9.1 1.2 18.1 1.1 27.2.4-.5.7-1 1.1-1.4-1 .2-2 .5-3 .6-2 0-2 3 0 2.9zM34 87.7c-.8-.2-1.6-.4-2.5-.6l-1.2-.3c-1-.3-.6-.4.1.7.2.3 0 .4 0 0v-.8c.1-2.1.2-4.3.3-6.4.3-5.9.7-11.8 1.2-17.7.1-1.1.2-2.3.3-3.4 0-.2 0-.4.1-.6-.1.5 0 0 0-.1 0-.3.3-.7 0-.2-.4.2-.9.5-1.3.7.4.1.8.1 1.2.2.2 0 .4.1.7.1h.2c.4.1.2-.2-.8-.8-.1.2 0 .7 0 1v14.1c0 1.9 3 1.9 3 0V63.3c0-1.5.1-3 0-4.5-.1-2.5-2.4-2.4-4.3-2.7-.5-.1-1.1.3-1.3.7-.7 1.3-.6 3.3-.7 4.7-.3 3-.5 5.9-.7 8.9-.4 5.5-.8 11-.9 16.5 0 .6-.1 1.3.2 1.9.4.7 1.5.9 2.2 1.1 1.1.3 2.2.5 3.3.8 2 .3 2.8-2.6.9-3zM67.8 128.5c-1.6 2.6-3.1 5.3-4.7 7.9-1.5 2.6-3.1 5.1-3.7 8.1-.6 2.9-.9 5.9-1.2 8.9L57 163c-.2 1.9 2.8 1.9 3 0 .4-2.9.7-5.9 1.1-8.8.4-2.9.6-5.9 1.2-8.8.6-2.8 2.1-5.1 3.5-7.6 1.5-2.6 3-5.2 4.6-7.7 1-1.8-1.6-3.3-2.6-1.6zM83.3 144.6c-1.1 1.7-3.1 2.8-3.8 4.8-.4 1 0 2.1.1 3.1.2 1.3.5 2.7.7 4 1 5.4 2.2 10.9 3.1 16.3.3 1.9 3.2 1.1 2.9-.8-.8-5.1-1.9-10.1-2.9-15.2-.2-1.2-.5-2.4-.7-3.6-.1-.7-.6-2.1-.5-2.8.2-.7 1.1-1.5 1.6-2 .7-.7 1.4-1.4 2-2.3 1.1-1.6-1.5-3.1-2.5-1.5z" />
	<path class="code_of_conduct_4"
		d="M57.6 162.1c-4.4 2.2-13.1 6.2-9.9 12.6.2.5.8.7 1.3.7 12 .2 24-.3 35.9-1.5 1.9-.2 1.9-3.2 0-3-11.9 1.3-23.9 1.7-35.9 1.5.4.2.9.5 1.3.7-1-2.1 1.1-4 2.6-5 2-1.3 4.1-2.4 6.2-3.5 1.8-.8.2-3.4-1.5-2.5zM121 130c1.5 2.5 3 5 4.4 7.5 1.5 2.5 3.1 4.9 3.7 7.8.6 2.8.8 5.7 1.2 8.6.4 3 .7 6.1 1.1 9.1.2 1.9 3.2 1.9 3 0-.4-3.1-.8-6.2-1.1-9.3-.4-3-.6-6.1-1.3-9.1-.6-2.9-2.1-5.4-3.6-7.9l-4.8-8.1c-1-1.8-3.6-.3-2.6 1.4zM104.7 147.1c1 1.6 3 2 4.3 3.4 0 0 .2.2.1.2-.2-.3-.1.1-.1.3l-.3 1.8c-.2 1.3-.5 2.5-.7 3.8-1 5.2-2.1 10.4-3 15.6-.3 1.9 2.6 2.7 2.9.8.9-5.6 2.1-11.1 3.2-16.7.2-1.3.5-2.5.7-3.8.2-1.1.5-2.2-.1-3.2-.5-.9-1.4-1.4-2.2-2-.7-.5-1.8-.9-2.2-1.6-1-1.8-3.6-.3-2.6 1.4z" />
	<path class="code_of_conduct_4"
		d="M132.3 164.7c2.1 1.1 4.2 2.2 6.2 3.5 1.5 1 3.6 3 2.6 5 .4-.2.9-.5 1.3-.7-12 .2-24-.3-35.9-1.5-1.9-.2-1.9 2.8 0 3 11.9 1.2 23.9 1.6 35.9 1.5.5 0 1.1-.3 1.3-.7 3.2-6.4-5.5-10.4-9.9-12.6-1.7-1-3.2 1.6-1.5 2.5zM152.5 107.2c-.2 2.1-.3 4.2-.5 6.3-.1.8.7 1.5 1.5 1.5.9 0 1.4-.7 1.5-1.5.2-2.1.3-4.2.5-6.3.1-.8-.7-1.5-1.5-1.5-.8.1-1.4.7-1.5 1.5zM42.5 104.8v5.2c0 .8.7 1.5 1.5 1.5s1.5-.7 1.5-1.5v-5.2c0-.8-.7-1.5-1.5-1.5-.9 0-1.5.7-1.5 1.5z" />
	<path class="code_of_conduct_4"
		d="M59.3 110.8c-2.6-1.3-5.8-1.4-8.7-1.5-2.9-.1-6-.2-8.9.5-.5.1-1 .6-1 1-1.4 9-2.3 18-2.7 27.1-.1 1.9 2.9 1.9 3 0 .4-8.8 1.3-17.6 2.6-26.3l-1 1c2.5-.6 5.2-.5 7.8-.4 2.3.1 5.5.1 7.5 1.1 1.6 1 3.1-1.6 1.4-2.5zM137.4 113.8c3.3-.2 6.6-.3 9.8.3 2.8.5 5.4 1.4 8.1 2.4 1.8.7 2.6-2.2.8-2.9-2.8-1-5.5-2-8.5-2.4-3.4-.6-6.8-.5-10.3-.3-1.9 0-1.9 3 .1 2.9z" />
	<path class="code_of_conduct_4"
		d="M154.7 115.5c.9 7.6.5 15.2 1.4 22.7.1.8.6 1.5 1.5 1.5.7 0 1.6-.7 1.5-1.5-.9-7.6-.5-15.2-1.4-22.7-.1-.8-.6-1.5-1.5-1.5-.7 0-1.6.7-1.5 1.5z" />
	<linearGradient id="dijkstra_code_of_conduct" gradientUnits="userSpaceOnUse" x1="58.51" y1="128.048" x2="60.941"
		y2="128.048">
		<stop offset="0" stop-color="#fff" />
		<stop offset="1" />
	</linearGradient>
	<path d="M60.9 144c.2-11.1-.6-20.8-2.4-31.8" fill="url(#dijkstra_code_of_conduct)" />
	<path class="code_of_conduct_4"
		d="M62.4 144c.2-10.8-.7-21.6-2.5-32.2-.3-1.9-3.2-1.1-2.9.8 1.7 10.4 2.5 20.9 2.4 31.4 0 1.9 3 1.9 3 0zM135.9 113.1c.2 8.3-.6 16.5-.4 24.8.1 1.9 3.1 1.9 3 0-.2-8.3.6-16.5.4-24.8-.1-2-3.1-2-3 0zM129 85.4c0-2.5.1-4.9.1-7.4 0-1.2 0-2.3.1-3.5v-2c0-.1.1-.2.1-.3-.2.2.1-.2.1-.3.1-.2.2-.5.4-.7.3-.7.7-1.3 1.1-2 .8-1.4 1.6-2.8 2.5-4.1.8-1.2 1.8-2 2.6-3.2 1.2-1.9.7-4.1.8-6.2.1-3.8.8-7.5 2-11.1.6-1.8 1.3-3.6 2-5.4.5-1.3 1.1-2.7 1.1-4h-3c.3 14.8 0 29.7 0 44.5 0 1.9 3 1.9 3 0 0-14.8.3-29.7 0-44.5 0-1.9-3-1.9-3 0v-.1c0 .1 0 .2-.1.4s-.1.5-.2.7c-.2.7-.5 1.4-.7 2.1-.6 1.7-1.2 3.3-1.8 5-1.3 3.5-1.9 7.1-2.2 10.8-.1 1-.1 2-.1 3 0 1.1.3 2.4-.3 3.3-.4.5-.9.9-1.3 1.5-.4.5-.8 1.1-1.2 1.7-1.6 2.4-3.1 4.9-4.2 7.5-.8 1.8-.4 4.1-.4 6.1 0 2.8-.1 5.6-.1 8.4-.3 1.8 2.7 1.8 2.7-.2zM69.3 84.8c.1-3.9.2-7.7.2-11.6 0-.9-.1-1.6-.5-2.4-.6-1.2-1.3-2.3-1.9-3.5-.9-1.7-1.7-3.4-2.3-5.1-.7-1.9-.9-3.5-.8-5.5.1-1.4.2-2.9.3-4.3.1-1.5.3-3.3-.1-4.7-.2-.8-.7-1.5-1.1-2.3-.8-1.7-1.6-3.5-2.2-5.3-.5-1.6-1.2-3.3-1.1-5 .1-1.7-2.7-2.1-2.9-.4-1.3 7.4-1.7 14.9-2 22.4-.3 7.5-.4 15-.4 22.6 0 1.9 3 1.9 3 0 0-7.4.1-14.8.4-22.2.3-7.3.7-14.8 1.9-22-1-.1-2-.3-2.9-.4-.3 3.3 1.5 6.9 2.8 9.8.5 1.2 1 2.3 1.6 3.5.1.1.1.2.2.4v.1c-.3-.9-.1.6-.1.7.1 1.6 0 3.2-.1 4.8-.2 2.3-.4 4.6.1 6.8.5 1.8 1.2 3.5 2 5.2.7 1.6 1.5 3.1 2.4 4.7.2.4.5.9.7 1.3.4.7.1-.4.1.1.1 4.1-.1 8.3-.1 12.4-.3 1.8 2.7 1.8 2.8-.1zM122.2 163.3c1.7.5 3.5.5 5.2.3 1.8-.2 3.5-.6 5.2-1.2.7-.3 1.3-1 1-1.8-.2-.7-1.1-1.4-1.8-1-.7.3-1.4.5-2.2.7l-1.2.3c-.2 0-.4.1-.6.1h-.4c-.8.1-1.6.1-2.4.1-.8 0-1.1-.1-2-.3-.8-.2-1.7.3-1.8 1-.2.7.2 1.6 1 1.8zM67.1 161.8c-.1 0-.1 0 0 0h-1.5c-.6 0-1.3 0-1.9-.1-.1 0-.5-.1-.2 0-.1 0-.3 0-.4-.1-.3-.1-.6-.1-.9-.2-.6-.1-1.2-.3-1.8-.5-.7-.3-1.7.3-1.8 1-.2.8.3 1.6 1 1.8 2.7 1 5.6 1.2 8.5.8.8-.1 1.3-1.1 1-1.8-.4-.7-1.1-1-2-.9zM30.6 75.4c.1-.1.3-.2.4-.2l-.4.2c.4-.2.7-.3 1-.3-.1 0-.3 0-.4.1h1c-.1 0-.3 0-.4-.1.3 0 .7.1 1 .3-.1-.1-.2-.1-.4-.2.2.1.3.2.5.3.7.4 1.7.2 2.1-.5.4-.7.2-1.6-.5-2.1-1.6-1-3.8-1-5.5-.1-.7.4-1 1.4-.5 2.1.5.6 1.4.9 2.1.5zM167.1 76.5l.2-.2c-.1.1-.2.2-.3.2.1-.1.3-.2.5-.3-.1.1-.2.2-.4.3.2-.1.4-.2.6-.2-.1 0-.3 0-.4.1h.7c-.1 0-.3 0-.4-.1.2 0 .4.1.6.2-.1-.1-.2-.1-.4-.2.1 0 .2.1.2.1.3.2.8.3 1.2.2.3-.1.7-.4.9-.7.2-.3.3-.8.2-1.2-.1-.4-.3-.7-.7-.9-1.5-.9-3.4-.6-4.6.6-.3.3-.4.7-.4 1.1 0 .4.2.8.4 1.1.3.3.7.5 1.1.4.4-.1.7-.3 1-.5zM88.5 118.4c5-.7 10.1-.5 15.1.7.9.2 1.3-1.2.4-1.4-5.2-1.2-10.6-1.4-15.9-.7-1 .1-.6 1.6.4 1.4zm1.8 3.8c4.2-.4 8.4-.2 12.6.5.9.2 1.4-1.3.4-1.4-4.3-.7-8.6-.9-13-.6-.9.1-.9 1.6 0 1.5zm.2 3.8c4.1-.4 8.3-.4 12.4.1 1 .1.9-1.4 0-1.5-4.1-.5-8.3-.5-12.4-.1-.9.1-.9 1.6 0 1.5zm.3 3.5c3.7.1 7.4.2 11.2.3 1 0 1-1.5 0-1.5-3.7-.1-7.4-.2-11.2-.3-1 0-1 1.5 0 1.5zm29.7 19.8c.3 1 1.3 1 2.2 1 .9 0 1.8 0 2.8-.1 1.8-.2 3.7-.4 5.4-1 .9-.3.5-1.7-.4-1.4-1.4.4-2.9.7-4.4.9-.8.1-1.6.1-2.4.1h-1.8c-.2 0-.1-.2 0 .1-.3-.9-1.7-.5-1.4.4zm1 5.3c3 .6 6.1.4 9-.7.9-.3.5-1.8-.4-1.4-2.6.9-5.5 1.2-8.2.7-.4-.1-.8.1-.9.5-.2.4.1.9.5.9zm.6 4.2c3 .4 6 0 8.8-1 .4-.1.6-.5.5-.9-.1-.4-.5-.7-.9-.5-2.7 1-5.6 1.3-8.4.9-.4-.1-.8.4-.8.8s.3.6.8.7zm-53.4-9.1c-1.6.2-3.2.4-4.8.4-.8 0-2 .1-2.7-.4-.8-.5-1.6.8-.8 1.3.5.3 1.1.4 1.6.5.6.1 1.1.1 1.7.1 1.8 0 3.5-.2 5.3-.5.4-.1.6-.6.5-.9 0-.4-.4-.5-.8-.5zm0 4.2c-2.4.4-5.1.7-7.5-.3-.4-.2-.8-.1-1 .3-.2.3-.1.9.3 1 2.7 1.3 5.7.9 8.6.5.4-.1.6-.6.5-.9-.1-.6-.5-.7-.9-.6zm-.7 4.6c-2.6.4-5.3.1-7.8-1-.4-.2-.8-.1-1 .3-.2.3-.1.9.3 1 2.8 1.3 5.9 1.7 8.9 1.2.4-.1.6-.6.5-.9-.1-.5-.5-.7-.9-.6zm20.8-44.2c5.1-1 10.2-.5 15.2.5.9.2 1.3-1.3.4-1.4-5.4-1-10.6-1.5-16-.5-.9.1-.5 1.6.4 1.4zm.5-4.3c4.6-1 9.6-.5 14.2.4.9.2 1.3-1.3.4-1.4-4.9-1-10.1-1.5-15-.4-.9.2-.5 1.6.4 1.4z" />
	<path class="code_of_conduct_4"
		d="M124 161.8c-1-3.6-1.6-7.3-1.7-11.1 0-.6 0-1.3.4-1.8s1.3-.7 1.9-1c1.8-.6 3.6-.9 5.4-1 1.9-.1 1.9-3.1 0-3-2.2.1-4.4.5-6.5 1.2-2 .7-3.7 1.8-4.1 4.1-.3 2.1 0 4.4.3 6.5.3 2.3.8 4.6 1.4 6.9.5 1.9 3.4 1.1 2.9-.8zM69.9 163.8c.4-2.2.8-4.3 1.2-6.5.2-1.2.3-2.4.5-3.5.1-1.1.3-2.2.2-3.3-.7-4.8-7.4-4.8-11.1-4.8-1.9 0-1.9 3 0 3 2 0 4 0 5.9.5.6.2 1.3.4 1.7.8.6.5.6 1.1.5 1.8-.3 3.7-1 7.5-1.8 11.1-.4 2 2.5 2.8 2.9.9zM60.3 136.7c-3.4.5-6.9.9-10.4 1-3.1.1-6.5.4-9.4-.9-.7-.3-1.6-.2-2.1.5-.4.6-.2 1.7.5 2.1 3.3 1.4 6.9 1.4 10.5 1.3 3.9-.1 7.7-.5 11.6-1.1.8-.1 1.2-1.1 1-1.8-.1-.9-.9-1.2-1.7-1.1z" />
	<path class="code_of_conduct_4"
		d="M41.3 139.3c-.3 2.2.3 4.5 2.1 6 2 1.6 4.6 1.7 7 1.4 4.9-.6 9.6-2.9 11.4-7.7.3-.8-.3-1.6-1-1.8-.8-.2-1.6.3-1.8 1-1.3 3.3-4.8 4.9-8 5.4-1.6.3-3.5.5-5-.2-1.2-.6-2.1-2-1.8-3.3.1-.8-.2-1.6-1-1.8-.8-.2-1.8.2-1.9 1z" />
	<g>
		<path class="code_of_conduct_4"
			d="M136.6 139.2c3.6 1.5 7.5 2.3 11.4 2.3 1.9 0 3.8-.2 5.6-.5 1-.2 2-.4 3-.7.9-.3 1.8-.4 2.3-1.3.3-.6.3-1.4-.2-1.8-.5-.5-1-.6-1.7-.4-.7.1-1.1.8-1.1 1.4v.1c-.1 1.9 2.9 1.9 3 0v-.1c-.4.5-.7 1-1.1 1.4h.1c-.5-.1-1-.3-1.5-.4 0 0 .1 0 .1.1-.1-.6-.2-1.2-.2-1.8.4-.4.3-.4-.1-.2-.2.1-.4.1-.6.2-.4.1-.9.2-1.3.3-.7.2-1.5.3-2.2.4-1.6.3-3.3.3-5 .3-3.3-.1-6.6-1-9.7-2.2-.8-.3-1.6.3-1.8 1-.3.9.3 1.6 1 1.9z" />
	</g>
	<g>
		<path class="code_of_conduct_4"
			d="M136.2 139.8c1.1 1.9 2.2 3.8 4 5.1 1.7 1.2 3.8 1.9 5.9 1.9 4.2.1 8.1-2.3 9.6-6.2.3-.8-.3-1.6-1-1.8-.9-.2-1.5.3-1.8 1-1.1 2.7-4.2 4.2-7 4-1.5-.1-3-.6-4.1-1.5-1.3-1-2.2-2.6-3-4-.9-1.7-3.5-.2-2.6 1.5z" />
	</g>
	<g>
		<path class="code_of_conduct_4"
			d="M139.7 111.6c-.9-2.9-1.9-5.7-2.8-8.6-.2-.7-1-1.3-1.8-1-.7.2-1.3 1-1 1.8.9 2.9 1.9 5.7 2.8 8.6.2.7 1 1.3 1.8 1 .7-.2 1.3-1 1-1.8z" />
	</g>
	<g>
		<path class="code_of_conduct_4"
			d="M57.1 86.8c.5-1.6 1-3.1 1.6-4.6.1-.3 0-.9-.2-1.2-.2-.3-.5-.6-.9-.7-.4-.1-.8-.1-1.2.2-.3.2-.5.5-.7.9-.6 1.5-1.1 3.1-1.6 4.6-.2.8.3 1.7 1 1.8.9.2 1.7-.2 2-1z" />
	</g>
	<g>
		<path class="code_of_conduct_4"
			d="M139 87.3c-.7-1.6-1.5-3.2-2.5-4.6-.4-.7-1.3-1-2.1-.5-.7.4-1 1.3-.5 2.1 1 1.5 1.8 3 2.5 4.6.1.3.6.6.9.7.4.1.8.1 1.2-.2.3-.2.6-.5.7-.9 0-.4-.1-.8-.2-1.2z" />
	</g>
</svg>