<svg xmlns="http://www.w3.org/2000/svg" viewBox="0 0 200 200">
	<style>
		.prefix__prefix__st0 {
			fill: #666
		}

		.prefix__prefix__st1 {
			fill: #e7f4df
		}

		.prefix__prefix__st3 {
			fill: #fd5a5c
		}

		.prefix__prefix__st5 {
			fill: #fc9
		}

		.prefix__prefix__st7 {
			fill: #ccc
		}
	</style>
	<path class="prefix__prefix__st0"
		d="M47.8 131.4c-4-.8-6.7-3.1-9.2-6.3-2.5-3.2-4.6-6.7-7.6-9.4s-6.8-4.4-10.8-4.9c-2.1-.3-4.3-.2-6.3.6-3.9 1.6-6.4 5.8-6.4 10s2.2 8.2 5.4 10.9 5.2 3.9 10 5.5c-1.5.8-2.9 4.4-2.8 4.7.2.6 1.8-.2 2.5-.3 4.6-.6 9 1.6 13.3 3.1s8.2.8 12.6-.4" />
	<path class="prefix__prefix__st1"
		d="M48.2 130c-5.7-1.2-8.7-6.1-12-10.4-3.6-4.8-8.1-8.5-14.1-9.8-5.6-1.2-11.3.1-14.4 5.2-2.7 4.7-2.1 10.6 1 15 3.3 4.8 8.4 7.6 13.8 9.4-.1-.9-.2-1.8-.4-2.7-1.1.7-1.9 1.8-2.5 2.9-.4.9-1.1 2-1 3 0 1.5 1.6 2 2.9 1.7.5-.1 1-.4 1.6-.5 1-.2 2.1-.1 3.1.1 3.9.6 7.3 2.7 11.2 3.5 3.9.9 7.8.1 11.6-1 1.9-.5 1.1-3.4-.8-2.9-3.1.8-6.4 1.6-9.6 1-3.2-.6-6.1-2.2-9.2-3.1-1.5-.4-3-.7-4.5-.8-1.2-.1-2.8-.1-3.9.5-.5.3-.7-.3.1.7.4.2.6.5.5.8v-.1c.2-.3.3-.8.4-1.2.4-.8.8-1.8 1.6-2.2 1.2-.7.8-2.3-.4-2.7-4.2-1.4-8.2-3.5-11.1-6.9-3.1-3.6-4.2-8.8-1.8-13 2.8-4.7 8.3-5 13.1-3.5 5.3 1.7 8.6 5.6 11.8 10 3.2 4.4 6.6 8.5 12.2 9.7 1.9.6 2.7-2.3.8-2.7z" />
	<path class="prefix__prefix__st1"
		d="M15 111.6c-1.2 3.9-1.8 8-1.7 12.1 0 2 .2 4 .6 5.9.2 1 .3 2.1.7 3.1.2.4.4.7.9.7s.5-.8 0-.8-1.1-5-1.2-5.4c-.2-1.7-.3-3.4-.2-5.1.1-3.5.6-7 1.7-10.3.1-.4-.7-.6-.8-.2zm4.6-.6c-.8 1.3-.8 3.2-.8 4.6-.1 2.7 0 5.4.2 8.1.2 2.7.5 5.5 1.1 8.1.2 1.1.5 2.2.8 3.3.2.6.4 1.7 1.1 1.9.1 0 .3 0 .4-.1.1-.2.2-.3.1-.5 0-.2-.2-.3-.4-.3H22c-.5 0-.5.7 0 .8h.1c-.1-.1-.2-.2-.4-.3.4-.1.5-.2.3-.4-.1-.1-.1-.2-.2-.3-.1-.2-.1-.3-.2-.5-.2-.4-.3-.9-.4-1.3-.3-1-.5-2-.7-3.1-.5-2.6-.7-5.2-.9-7.8-.2-2.4-.3-4.8-.2-7.3 0-1.4 0-3.3.7-4.5.4-.4-.2-.8-.5-.4zm-2.1.6c-1.1 1.5-1.1 3.5-1.2 5.3-.1 2.2-.2 4.5 0 6.7.1 2.1.3 4.2.7 6.3.2 1.1.5 2.3.8 3.4.2.6.3 1.6.8 2.1.1.1.3.1.5.1 0 0 .1 0 .1-.1.1 0 .2-.2.2-.3v-.1c0-.5-.8-.5-.8 0 0 0 0-.1.1-.1.2 0 .3 0 .5.1-.5-.4-.7-2.4-.9-3-.2-.8-.4-1.7-.5-2.5-.3-2-.6-4.1-.6-6.1-.1-1.9-.1-3.8 0-5.6.1-1.8 0-4 1.1-5.6.1-.6-.5-.9-.8-.6z" />
	<path class="prefix__prefix__st1"
		d="M21.5 111c-.9 6.9 0 14 1 20.8.3 1.8.7 3.5.9 5.3.2 0 .2.1.1.2l-.1.1v.2c0 .2.1.5.1.7.1.6.5 3.4 1.2 3.5.5.1.7-.7.2-.7.2 0 .2.2.1-.1 0-.1-.1-.3-.1-.4l-.3-1.2c-.1-.4-.2-.7-.3-1.1 0-.2-.1-.4-.1-.5-.1-.3.1-.2-.1 0 .1-.1.1-.2.1-.4-.8-4.4-1.5-8.8-1.9-13.2-.4-4.3-.7-8.7-.1-13 .1-.5-.6-.7-.7-.2zm2.1 2.1c-.7 5 .4 9.9 1.2 14.8.8 5.2 1.8 10.4 3.7 15.3.1.3.6.4.7 0 0-.1.1-.3.1-.4.1-.5-.6-.7-.7-.2 0 .1-.1.3-.1.4h.7c-1.8-4.7-2.8-9.5-3.6-14.4-.8-5-2.1-10.2-1.3-15.3.1-.5-.6-.7-.7-.2zm2.2.3c.2 5.6.8 11.2 1.8 16.8.5 2.7 1 5.5 1.8 8.1.3 1.3.7 2.5 1.2 3.7.3.6.5 1.7 1.2 2 .2.1.3 0 .4-.2.1-.2.1-.3 0-.6-.1-.2-.3-.2-.4-.2h-.1c-.5.1-.3.8.2.7h.1c-.1-.1-.3-.1-.4-.2v-.2c.1-.1.3-.1.4-.2-.3-.1-.6-1.3-.7-1.6-.2-.6-.4-1.1-.6-1.7-.4-1.2-.7-2.3-1-3.5-.6-2.4-1.1-4.9-1.5-7.3-.9-5.2-1.4-10.4-1.6-15.6-.1-.5-.9-.5-.8 0zm2.8 1.3c0 10.3 2.8 20.4 5.6 30.2.1.3.5.4.7.1l.3-.6c.2-.4-.4-.8-.6-.4l-.3.6c.2 0 .5.1.7.1-2.8-9.8-5.5-19.8-5.5-30-.1-.5-.9-.5-.9 0zm2.3 2.8c.1 5 1.2 9.8 2.5 14.6.6 2.5 1.3 4.9 1.9 7.4.5 2.2 1.1 4.4 2.2 6.3.2.3.6.2.7-.1.1-.2.1-.4.2-.5.2-.4-.5-.6-.7-.2-.1.2-.1.4-.2.5.2 0 .5-.1.7-.1-1.2-2.1-1.7-4.3-2.3-6.6-.6-2.3-1.2-4.6-1.8-7-1.2-4.7-2.3-9.5-2.4-14.4 0-.4-.8-.4-.8.1z" />
	<path class="prefix__prefix__st1"
		d="M33.8 120.6c.5 4.7.9 9.4 1.9 14 .5 2.3 1 4.5 1.8 6.7.4 1.1.8 2.2 1.3 3.4.2.6.3 1.1.9 1.4.2.1.3-.1.4-.2.1-.2.1-.3.1-.5-.1-.2-.2-.3-.5-.3h-.1c-.5.1-.3.8.2.7h.1c-.2-.1-.3-.2-.5-.3v-.1c.1-.1.3-.1.4-.2-.3-.1-.6-1.4-.7-1.7-.2-.4-.3-.8-.5-1.2-.4-1-.7-2-1-3.1-.6-1.9-1-3.9-1.4-5.9-.8-4.2-1.2-8.6-1.7-12.9 0-.3-.7-.3-.7.2z" />
	<path class="prefix__prefix__st1"
		d="M36.7 124.3c.3 4.2.6 8.4 1.5 12.5.4 1.8.9 3.6 1.7 5.4.4.9.9 1.7 1.4 2.5.3.4.6 1.1 1.2 1.1.2 0 .3-.1.4-.3.1-.2 0-.3-.1-.5-.1-.1-.3-.1-.5-.1-.4.2 0 .9.4.6-.2 0-.3 0-.5-.1 0-.1 0-.2-.1-.2.1-.1.2-.2.4-.3-.1 0-.6-.9-.7-1.1-.2-.4-.5-.8-.7-1.2-.4-.8-.8-1.6-1.1-2.4-.6-1.6-1-3.2-1.3-4.9-.7-3.7-.9-7.5-1.2-11.3-.1-.2-.9-.2-.8.3z" />
	<path class="prefix__prefix__st1"
		d="M38.9 127c.6 3.4.6 6.9 1.4 10.3.7 3 2 5.9 3.7 8.5.3.4.9 0 .6-.4-1.7-2.6-3-5.6-3.7-8.6-.8-3.3-.8-6.7-1.4-10 0-.5-.7-.3-.6.2z" />
	<path class="prefix__prefix__st1"
		d="M40.7 128.5c.3 2.9.6 5.8 1.1 8.6.5 2.6 1.4 5.1 2.9 7.4.3.4.9 0 .6-.4-1.4-2.2-2.3-4.7-2.8-7.2-.5-2.8-.7-5.6-1.1-8.4-.1-.5-.8-.5-.7 0z" />
	<path class="prefix__prefix__st1"
		d="M43.7 131c-.1 3-.1 6.1.3 9.1.2 1.5.5 2.9 1 4.3.1.4.3 1 .7 1.1.3.1.6-.2.6-.5 0-.5-.8-.5-.8 0 .3-.2.3-.4.2-.7-.1-.2-.1-.3-.2-.5s-.2-.5-.2-.7c-.2-.6-.3-1.1-.4-1.7-.2-1.1-.4-2.3-.5-3.4-.2-2.3-.1-4.6-.1-6.9.2-.6-.5-.6-.6-.1zm2.5.8c0 2.4-.3 4.8-.3 7.2 0 1.1 0 2.2.2 3.4.1.6.2 1.1.3 1.7.1.4.1.9.5 1.1.1.1.3.1.5-.1.1-.1.2-.3.1-.5 0-.2-.2-.3-.4-.3-.5 0-.5.7 0 .8-.1-.1-.2-.2-.4-.3v.1c0-.1.1-.2.1-.4.2 0 .3 0 .5-.1-.1 0-.1-.6-.2-.7-.1-.3-.1-.6-.2-.8-.1-.5-.1-1-.2-1.6-.1-1.1-.1-2.1 0-3.2.1-2.1.3-4.2.3-6.4 0-.4-.8-.4-.8.1zm-33.3-19.3c-2.1 5.6-2.8 11.7-2.3 17.6 0 .3.2.4.5.4s.5-.1.8-.1c.5-.1.3-.8-.2-.7-.3 0-.5.1-.8.1.2.1.3.2.5.4-.5-5.9.2-11.9 2.3-17.4.1-.6-.6-.8-.8-.3z" />
	<path class="prefix__prefix__st0"
		d="M154.5 91.6c0-1.3-.6-2.7-1.6-3.6-1.1-.9-2.5-1-3.9-1-2 0-4.1.1-6.1.3V87c-1.3-4.5-3.5-8.7-5.5-13 .5-3.2 1-6.3 1.2-9.5.2-3.6.8-6-1.2-9.2-.8-1.3-2.5-1.9-4-2.3-2-.4-3.6-2.2-5.3-1.2-3.4 1.9-6.6 4.3-9.7 6.7-15.9-6.6-34.2-6.5-50.1.2-1.5-1.1-3-2.2-4.6-3.1-1.6-.9-3.4-1.8-5.1-2.5-1.9-.8-4-1.5-5.9-.7-1.3.5-2.4 1.6-2.6 2.9-.1.7-.1 1.4-.2 2.1-.2 2.7-.3 5.4-.2 8.2 0 2.1.1 4.2.4 6.3-.1.1-.2.2-.3.4-3.2 5.7-5.6 17-7.4 23.3-.3.1-5 17.5-4.7 17.6-.1 14.6 1.2 30.2 11 41.7-.1.3-.1.5-.2.8-.4 1.6-.9 3.2-1 4.9-.2 1.7-.3 3.7.1 5.4.3 1.7 1.7 2.6 3.3 2.8 3.4.5 6.7-1.1 9.5-3 .9-.6 1.7-1.2 2.6-1.9 16.7 5.8 36.9 8.5 53.2 0 .1 0 .3-.1.4-.2.8-.6 2.1-.3 3-.1 1.3.3 2.4 1 3.6 1.6 2.8 1.5 6.3 3.7 9.5 2.1 3-1.5 3.6-5.3 3.2-8.3-.1-1-.3-2-.6-3 2.1-2.8 4.5-5.4 6.3-8.5 2.1-3.4 3.6-7.2 4.9-10.9 2.3-6.4 3.6-13.1 2.9-19.8-.4-3.6-1.3-7.2-2.4-10.6 1.6-2 3.2-4.1 4.6-6.4 1.2-2.3 2.9-5.3 2.9-8.2zM35 102.5" />
	<path class="prefix__prefix__st1"
		d="M52.2 72c-.7-2.2-.9-4.5-1-6.8-.1-2.6-.1-5.1 0-7.7 0-.9.1-1.8.2-2.8 0-.3.1-.6.1-.9v-.1c1.2-1.2 2.7-.8 4.1-.2 1.6.7 3.2 1.4 4.7 2.2 3.3 1.8 6.2 4.1 8.8 6.6 1.4 1.3 3.5-.8 2.1-2.1-2.7-2.6-5.6-5-8.9-6.8-1.7-1-3.4-1.8-5.2-2.6-1.9-.8-3.9-1.4-5.9-.6-1.2.5-2.3 1.5-2.6 2.8-.2.8-.2 1.6-.2 2.4-.2 2.6-.3 5.3-.2 7.9.1 3.1.1 6.4 1.1 9.3.6 2 3.5 1.2 2.9-.6z" />
	<path class="prefix__prefix__st1"
		d="M70.1 61.5c-.9.5-1.5 1.3-2.3 1.9-1.1.8-2.4 0-3.4-.6-2.3-1.6-4.5-3.4-6.8-5-1.3-.9-3.6-2.1-4.8-.3-1 1.5-.6 3.8-.8 5.5-.3 3.1-1.1 6.2-1.3 9.3-.1 1 1.4 1 1.5 0 .2-3.3 1.1-6.5 1.3-9.8.1-1.2 0-2.4.2-3.5.1-.5.2-.9.8-1 .6 0 1.2.4 1.7.7 2.8 1.6 5.1 4.1 8 5.7 1.1.6 2.4 1.1 3.6.6 1.2-.5 1.9-1.6 3-2.3.9-.4.1-1.7-.7-1.2z" />
	<path class="prefix__prefix__st1"
		d="M54.5 56.6c-1-1.3-1.7-2.8-2-4.4 0-.2-.3-.3-.5-.3-.2.1-.3.3-.3.5.3 1.8 1.1 3.4 2.2 4.8.1.2.4.1.5 0 .2-.3.2-.5.1-.6zm1.9 1c-.5-1.8-1.1-3.7-1.6-5.5-.1-.5-.9-.3-.7.2.5 1.8 1.1 3.7 1.6 5.5.1.5.8.3.7-.2zm1.9.8c-.5-1.6-.8-3.2-.7-4.8 0-.5-.7-.5-.8 0 0 1.7.2 3.4.8 5 .1.4.8.2.7-.2zm1.8 1.7c-.4-1.9-.7-3.9-.8-5.8 0-.5-.8-.5-.8 0 .1 2 .4 4 .8 6 .2.5.9.3.8-.2zm1.9 1.5c-.5-1.8-.6-3.6-.3-5.4 0-.2 0-.4-.3-.5-.2-.1-.4.1-.5.3-.3 1.9-.2 3.9.3 5.8.2.4.9.2.8-.2zm1.7 1.1c-.4-1.7-.4-3.4 0-5.1.1-.5-.6-.7-.7-.2-.4 1.8-.4 3.7 0 5.5 0 .4.8.2.7-.2zm1.5 1.2c-.1-1.6 0-3.2.4-4.7.1-.5-.6-.7-.7-.2-.4 1.6-.6 3.3-.5 4.9 0 .2.2.4.4.4.2-.1.4-.2.4-.4zm1.2 0c0-1.6.3-3.1.8-4.5.2-.5-.6-.6-.7-.2-.6 1.5-.8 3.1-.9 4.7.1.5.8.5.8 0zm-13.2-5.5c-1.1-1.2-2.3-2.4-3.4-3.6-.3-.4-.9.2-.5.5 1.1 1.2 2.3 2.4 3.4 3.6.3.4.9-.2.5-.5zm-.3 2.6c-.9-.7-1.7-1.5-2.5-2.4-.1-.2-.4-.1-.5 0-.2.2-.1.4 0 .5.7.9 1.6 1.7 2.5 2.4.2.1.4.2.5 0 .2-.1.2-.4 0-.5zm.2 2.8c-.8-.8-1.6-1.6-2.5-2.4-.1-.1-.4-.1-.5 0-.1.1-.1.4 0 .5.8.8 1.6 1.6 2.5 2.4.1.1.4.1.5 0 .2-.1.2-.3 0-.5zm-.6 2.1c-1.3-.9-2.5-1.9-3.7-3-.3-.3-.9.2-.5.5 1.2 1.1 2.5 2.2 3.8 3.1.5.3.8-.3.4-.6zm15.3-2.3c.2-1 .4-2.1.8-3 .1-.2-.1-.4-.3-.5-.2-.1-.4.1-.5.3-.4 1-.7 2-.8 3 0 .2.1.4.3.5.2 0 .4-.1.5-.3zM62.6 164.1c9 3.1 18.5 5.1 28 5.3 8.9.3 18-1.2 25.9-5.5 1.7-.9.2-3.5-1.5-2.6-7.6 4.1-16.3 5.3-24.9 5-9.1-.3-18.2-2.2-26.7-5.2-1.8-.5-2.6 2.4-.8 3z" />
	<path class="prefix__prefix__st1"
		d="M48.9 151.3c.3.5.1 1.6.1 2.1-.1.8-.3 1.7-.5 2.5-.4 1.7-.9 3.5-1.1 5.3-.2 1.6-.2 3.4.1 5 .3 1.7 1.6 2.6 3.2 2.9 3.4.5 6.7-1 9.5-2.9 2.9-2 5.7-4.3 8.1-6.9 1.3-1.4-.8-3.5-2.1-2.1-2.1 2.2-4.5 4.3-7 6.1-2.3 1.6-5.2 3.4-8.1 2.9-.5-.1-.7-.1-.8-.6-.1-.7-.1-1.5-.1-2.3 0-1.6.2-3 .6-4.6.4-1.5.8-3 1-4.5.2-1.4.4-3.1-.4-4.4-1-1.6-3.6-.1-2.5 1.5zM116.5 164c.8-.6 1.9-.4 2.9-.3 1.3.3 2.3.8 3.4 1.4 2.7 1.4 6.2 3.8 9.4 2.5 3.3-1.3 4.2-5.2 3.8-8.4-.5-3.6-1.8-7.1-2.8-10.6-.5-1.8-3.4-1.1-2.9.8l1.5 5.1c.5 1.6 1 3.1 1.2 4.8.3 2.4-.1 6.2-3.4 5.6-2.9-.5-5.2-2.7-7.9-3.7-1.9-.7-4.9-1.2-6.7.1-.7.5-1 1.3-.5 2.1.3.7 1.4 1.1 2 .6z" />
	<path class="prefix__prefix__st1"
		d="M135.1 156.5c2.2-3.1 4.9-5.8 6.8-9.1 2-3.3 3.5-7.1 4.8-10.7 2.3-6.3 3.6-12.9 2.9-19.6-.4-3.9-1.4-7.7-2.7-11.4-.6-1.8-3.5-1-2.9.8 2.1 6 3.2 12.2 2.5 18.6-.8 6.9-3.5 13.9-6.8 20-1.9 3.6-4.8 6.5-7.2 9.8-1.1 1.7 1.5 3.2 2.6 1.6z" />
	<path class="prefix__prefix__st1"
		d="M146.5 107.2c1.9-2.3 3.7-4.6 5.3-7.2.7-1.2 1.4-2.5 1.9-3.8.6-1.4 1.2-2.9 1.1-4.5-.1-1.3-.5-2.6-1.5-3.4-1.1-1-2.6-1.1-4-1.1-3.2 0-6.5.3-9.7.7-.8.1-1.5.6-1.5 1.5 0 .7.7 1.6 1.5 1.5 2.7-.3 5.4-.6 8-.7 1 0 2.5-.3 3.4.1.8.4.9 1.5.7 2.3-.4 2.3-1.8 4.6-3.1 6.6s-2.8 3.9-4.3 5.8c-.5.6-.6 1.5 0 2.1.6.6 1.7.7 2.2.1zM51.2 155c-8.3-11.1-10.2-25.6-10.8-39-.2-4-.2-8-.2-12 0-1.9-3-1.9-3 0 0 14.1.2 29.1 5.7 42.3 1.5 3.6 3.3 7.1 5.7 10.2 1.1 1.5 3.7 0 2.6-1.5zM45.2 108.6c5.1 2.1 9.9-3.4 14.9-1.4 1 .4 2.1 1 2.6 2 .6 1.4-.6 3.2-1.3 4.4-.8 1.3-1.9 2.5-3.2 3.5-1.3 1-2.4 1.7-2.6 3.5-.1.8.7 1.5 1.5 1.5.9 0 1.4-.7 1.5-1.5 0 .2.1-.1.2-.2.2-.2.4-.3.6-.5.6-.4 1.2-.9 1.7-1.4 1-.9 1.8-1.9 2.6-3 1.5-2.3 3-5.3 1.4-8-1.1-2-3.6-3.3-5.8-3.7-2.3-.4-4.5.2-6.6 1-2.1.7-4.6 1.8-6.8.9-.7-.3-1.6.3-1.8 1-.2.9.4 1.6 1.1 1.9z" />
	<path class="prefix__prefix__st1"
		d="M40.3 103.8c.8-11 7.6-19.9 12.1-29.5.8-1.7-1.8-3.3-2.6-1.5-4.7 10.2-11.6 19.5-12.5 31.1-.1 1.8 2.9 1.8 3-.1zM143.2 87.5c-1.4-4.7-3.7-9.1-5.8-13.6-.3-.7-1.4-.9-2.1-.5-.7.4-.9 1.3-.5 2.1 2 4.2 4.2 8.3 5.5 12.8.5 1.8 3.4 1 2.9-.8zM69.6 62c15.2-6.5 32.9-6.4 48.2-.1 1.8.7 2.6-2.2.8-2.9-16.1-6.7-34.5-6.4-50.5.4-1.8.8-.3 3.3 1.5 2.6zM107.3 90.3c-.2-.2-.4-.4-.7-.3-.3.1-.5.3-.6.5-.1.3-.2.6 0 .8.2.2.4.3.7.3.6-.1.9-.7.9-1.2s-.1-1.1-.7-1.1c.1.2.1.5.2.7.3-.2.6-.4 1-.5.1 0 .2 0 .3.1.1.1.1.3.2.4v.4c0 .1-.2.1-.2.1-.2 0-.4-.2-.5-.4-.2 0-.5.1-.7.1.1.3.1.6.2.8.1.2.1.5.3.6.3.3 1.1.3 1.2-.3 0-.2-.1-.5-.4-.5-.4 0-1.2.1-1.3.6-.1.3.1.6.3.7.2.1.5.1.7.1.5 0 1-.2 1.1-.7.2-.5-.2-1-.6-1.2-.2-.1-.5-.2-.8-.2h-.4c-.1 0-.2 0-.2.1 0 0-.1 0-.1.1-.1.1 0 0-.1 0 .1 0 .1 0 .2-.1.1 0 .1.1.2.1 0 0 0 .4.1.2 0 0 0-.1.1-.1v-.3c0-.2-.2-.3-.3-.4-.1-.1-.3-.1-.5-.1s-.4.1-.5.1c.1.2.2.3.4.5.1-.3.1-.8.4-1 .3-.2.5 0 .7.2.4.3.9-.2.5-.5-.2-.2-.4-.4-.7-.5-.3-.1-.6-.1-.9.1-.5.3-.7.9-.8 1.5 0 .3.1.4.4.5.2 0 .3 0 .5-.1h.2l-.1-.2-.1.2c0 .2 0 .3.1.5.1.1.4.2.5.1.1 0 .1-.1.1-.1-.1.1 0 0 0 0 .2 0 .5.1.7.2.1 0 .1.1.2.1 0 0 0 .1.1.1 0 0 0 .1 0 0 0 0 0 .1 0 0 0 .1 0 .1-.1.1l-.2.1h-.4v.1c-.1.2-.1.1 0 .1s.2-.1.2-.1h.4c-.1-.2-.2-.3-.4-.5 0 .1 0 0 0 0 .1-.1.1-.1 0-.1 0-.1 0-.1-.1-.1-.1-.3-.2-.7-.2-1-.1-.4-.8-.3-.7.1.1.6.5 1.1 1.1 1.1.6 0 1.1-.5 1.1-1.1 0-.6-.3-1.3-.9-1.4-.6-.1-1.2.2-1.7.6-.3.2-.2.7.2.7l-.1-.1v.3c0 .2 0 .4-.1.6h-.1c.1 0-.1 0 0 0v.1l.1-.2-.1-.1c.1.2.3.2.5.1.2.1.3-.1.2-.3zM73.4 90.1c-.2.4-.3.9-.1 1.2.3.4.9.5 1.3.2s.7-.8.7-1.2c0-.6-.5-.8-1-.9-.3-.1-.6 0-.9.2-.2.2-.3.5-.3.8.1.3.5.4.7.1.2-.5.4-1 0-1.4-.3-.4-.9-.3-1.3.1-.3.4-.5 1-.3 1.5.2.4.7.6 1.1.5.5 0 1-.3 1.3-.8.1-.1.1-.3 0-.4-.1-.1-.2-.2-.4-.1-.4.1-.7.3-.9.6-.1.1 0 .4.1.5.2.1.3.1.5 0 .4-.3.6-.7.6-1.2V89c0 .1-.1.1-.1.2h.1c.1 0 .2 0 .3.1.2.1.4.2.5.3l.1.1s0 .1 0 0v.1c-.1.2-.3.3-.4.4-.1.1-.1.1-.2.1h-.1c0 .2 0 .3.1.5v-.1c-.1 0 .1 0 0 0h.1c-.1 0 0 0 0 0h.1c-.1 0 0 0 0 0 .1 0 .1 0 .1.1v.2c0 .1 0 .2-.1.2 0 0-.1.1-.2.1-.2 0-.4-.1-.5-.3-.1-.2-.3-.2-.5-.1s-.2.3-.1.5c.2.5.8.8 1.3.7.5-.1.9-.4 1-.9.1-.5-.2-1-.7-1.1-.4-.1-1 0-1.2.5-.1.2-.1.3.1.5.4.4 1 .3 1.4-.1.4-.4.8-.9.5-1.4-.2-.4-.7-.7-1.2-.8-.3-.1-.6-.1-.9.1l-.3.3v1c-.1.2-.2.4-.4.5.2.2.4.3.6.5.1-.2.3-.2.5-.2-.1-.2-.3-.4-.4-.6-.1.2-.4.4-.6.4h-.3c-.1 0-.1-.1-.1-.2s0-.3.1-.4c0-.1.1-.1.1-.2h.1c.1 0 0 0 0 0v.1c0 .2-.1.3-.2.5.2 0 .5.1.7.1h.1c.1 0 .3 0 .5.1h.1c0 .1-.1.2-.2.4-.1.1-.1.2-.2.2h-.2v-.1c0-.1 0 .1 0 0v-.1c0-.1.1-.2.1-.3.1-.2 0-.4-.1-.5-.1-.5-.4-.4-.5-.3z" />
	<path class="prefix__prefix__st1"
		d="M73.5 89.6V89.3s0-.1.1-.1c0 0 .1-.1 0 0-.1 0 0 0 0 0h.1s.1 0 0 0h.4c.2.1.4.1.5-.1.1-.2.1-.4-.1-.5-.4-.2-.9-.2-1.3 0s-.6.7-.6 1.1c0 .2.2.4.4.4.3-.1.5-.3.5-.5z" />
	<path class="prefix__prefix__st1"
		d="M73 90.1c-.1.1-.1.2-.2.3 0 .1-.1.2-.1.3 0 .2 0 .4.1.6.1.2.3.4.5.5.2.1.5.1.7 0 .2 0 .5-.2.7-.3.2-.1.2-.3.1-.5s-.3-.2-.5-.1l-.1.1h-.5c.1 0 .1 0 0 0h-.2c-.1 0 .1 0 0 0h-.1c.1 0 .1 0 0 0h-.1c.1 0 0 0 0 0v-.1s0 .1 0 0v-.1c0 .1 0 .1 0 0v-.1c0 .1 0 .1 0 0v-.2c0 .1 0 .1 0 0v-.1c0-.1 0 0 0 0s.1-.2 0-.1c.1-.1.1-.2.1-.3 0-.1 0-.2-.1-.3-.1-.1-.2-.1-.3-.1.2.4.1.5 0 .5zM75 89.9c.1-.1.1-.3.2-.4 0-.1.1-.2 0-.3 0 0 0-.1-.1-.1L75 89c-.1 0-.2-.1-.3 0-.1 0-.2.1-.2.2-.1.1-.1.3-.2.4 0 .1-.1.2 0 .3 0 0 0 .1.1.1l.1.1c.1 0 .2.1.3 0 .1 0 .1-.1.2-.2zM107 90c.2-.1.3-.2.5-.3h.1c.1 0-.1 0 0 0s.2-.1.2-.1h.1c-.1 0 0 0 0 0h.2c-.1 0 0 0 0 0h.2c-.1 0 0 0 0 0s.1 0 .1.1c-.1 0 0 0 0 0l.1.1c-.1-.1 0 0 0 0 0 .1 0-.1 0 0v.3c0-.1 0-.1 0 0v.1s0-.1 0 0v.1s0-.1 0 0c-.1.1.1 0 0 0h-.1c-.2 0-.3.3-.3.5.1.2.3.3.5.3.6-.1.9-.9.6-1.4-.3-.6-1-.8-1.6-.6-.4.1-.7.3-1.1.5-.2.1-.2.3-.1.5.2 0 .4 0 .6-.1zM78.6 99.6c.6 1.3 1.1 2.7 1.8 4 .5 1 1.3 1.9 2.4 2.2 2.7.7 4.5-2.4 5.8-4.2-.4.1-.8.1-1.2.2 1.4 1.8 3.2 5.1 6 4.5 2.8-.5 3.9-4 5.1-6.2.4-.9-.8-1.6-1.3-.8-.5 1-1.1 2.1-1.6 3.1-.5.9-1.1 2.1-2.2 2.3-1.1.3-1.9-.6-2.6-1.3-.8-.9-1.5-1.8-2.2-2.8-.3-.4-.9-.2-1.2.2-.9 1.1-2.7 4.5-4.6 3.2-.7-.5-1.1-1.4-1.4-2.1-.5-1.1-.9-2.1-1.4-3.2-.5-.7-1.8 0-1.4.9zM114.8 95.5c4.4-1.2 9-1.8 13.5-1.9 1 0 1-1.5 0-1.5-4.7.1-9.4.7-13.9 2-.9.2-.5 1.7.4 1.4zM116.7 99.2c3.5.3 6.9.6 10.4.9 1 .1 1-1.4 0-1.5-3.5-.3-6.9-.6-10.4-.9-1-.1-1 1.4 0 1.5zM66.7 96.1c-4.9-1.7-9.9-2.7-15.1-3.2v1.5h.5c1 0 1-1.5 0-1.5h-.5c-1 0-.9 1.4 0 1.5 5 .5 9.9 1.6 14.7 3.2.9.3 1.3-1.2.4-1.5zM64.8 100c-3 .2-5.9.5-8.9.7-1 .1-1 1.6 0 1.5 3-.2 5.9-.5 8.9-.7 1-.1 1-1.6 0-1.5z" />
	<path
		d="M127.1 46.5c-.8-1.7-1.7-3.4-2.7-5.1-.9-1.5-2.1-2.6-3.8-3.1-1.7-.5-3.6-.5-5.3-.9-1.8-.5-3.6-1.1-5.3-1.7-3.8-1.3-7.6-1.9-11.7-1.4-4 .5-7.9 1.8-11.7 3.1-2.8 1-5.9 2.1-8 4.3-1 1-1.7 2.3-2 3.7-.3 1.8.2 3.5.4 5.3.3 3.1-1.9 5-4.2 6.6-1.9 1.4-4 2.8-5.5 4.6-3.4 2-2.8 7.3 0 9.6 3.8 3.2 9.6 2.5 14.1 1.6 5.5-1.2 10.6-3.6 15.5-6.2 4.7-2.5 9.7-6.1 15.2-6.3 5.8-.2 10.2 4.5 15 7.1.6.3 1.3.1 1.6-.4 3.8-6.5 1.5-14.4-1.6-20.8z"
		fill="#333340" />
	<path class="prefix__prefix__st3"
		d="M70.3 70.3c3.5-5.3 7.4-10.2 11.8-14.7 1.3-1.4-.8-3.5-2.1-2.1-4.6 4.7-8.7 9.8-12.3 15.3-1 1.7 1.5 3.2 2.6 1.5zm16.9-18.2c-.7-5.1 1.4-10.5 5.5-13.6.6-.5 1-1.3.5-2.1-.4-.6-1.4-1-2.1-.5-5 3.7-7.8 10-7 16.2.1.8.6 1.5 1.5 1.5s1.7-.7 1.6-1.5zm10.2.5c.8-6.3 4.6-12.2 9.9-15.7h-1.5c0-.3-.1-.4-.3-.4-.3.8.3 1.6 1 1.8.8.2 1.6-.3 1.8-1 .4-1.2-.1-2.2-1.1-2.9-.4-.3-1.1-.3-1.5 0-6.3 4.2-10.4 10.9-11.4 18.3-.1.8.8 1.5 1.5 1.5 1-.1 1.5-.8 1.6-1.6zm10.2 2.5c.8-2.7 1.6-5.5 2.6-8.2.7-2 1.8-4 3.7-5.1 1.7-1 .2-3.6-1.5-2.6-2.4 1.4-3.8 3.8-4.8 6.3-1.1 2.9-1.9 5.9-2.8 8.8-.6 1.9 2.3 2.7 2.8.8z" />
	<path class="prefix__prefix__st3"
		d="M79.3 72.6c4.9-6.5 10.2-12.8 15.8-18.7 1.3-1.4-.8-3.5-2.1-2.1-5.8 6-11.2 12.5-16.3 19.2-.5.6-.1 1.7.5 2.1.8.4 1.6.1 2.1-.5zm14.3-4.7c1.3.8 2.7 0 3.6-1 .9-1 1.8-1.9 2.7-2.9 1.8-1.9 3.5-3.9 5.3-5.8.5-.6.6-1.5 0-2.1-.6-.6-1.6-.6-2.1 0-1.6 1.7-3.1 3.4-4.7 5.1-.8.8-1.5 1.7-2.3 2.5-.4.4-.8.9-1.2 1.3l-.3.3c-.1.1-.1.1 0 0-.2.2 0 0 0 0-.2 0-.2.1.1 0h.4c-.7-.4-1.7-.1-2.1.5-.3.8-.1 1.7.6 2.1z" />
	<path class="prefix__prefix__st3"
		d="M69.6 64.5c1.8 1.2 4.5.8 6.6.9 2.5.1 5.1.1 7.6.2l15.5.3c1.9 0 1.9-3 0-3l-14.5-.3c-2.4-.1-4.7-.1-7.1-.2-1.1 0-2.3-.1-3.4-.1-1 0-2.2.2-3.1-.4-1.7-1.1-3.2 1.5-1.6 2.6zm8.6-7c5-.3 10-.6 14.9-.9 4.8-.3 9.2.2 13.3 2.9 1.6 1.1 3.1-1.5 1.5-2.6-4.2-2.8-8.9-3.6-13.8-3.3-5.3.2-10.6.6-15.9.9-1.9.1-1.9 3.1 0 3zm-.1-10.1c2.8.6 5.5-.4 8.2-.8 2.7-.4 5.5-.5 8.3-.4 5.4.3 10.8 1.7 15.7 4.2.7.3 1.3.2 1.8-.2.9-.7 1-2 .4-2.9-1.1-1.6-3.7-.1-2.6 1.5 0-.2 0-.5.1-.7.6-.1 1.2-.2 1.8-.2-5-2.5-10.4-4-15.9-4.5-2.7-.2-5.5-.2-8.2.1-1.4.2-2.7.4-4 .6-1.5.3-3.1.8-4.7.5-2-.4-2.8 2.5-.9 2.8zm15.3-8.5c5.4.2 10.8 1.6 15.7 4 1.7.9 3.2-1.7 1.5-2.6-5.4-2.7-11.2-4.2-17.2-4.4-2-.1-2 2.9 0 3z" />
	<path class="prefix__prefix__st3"
		d="M111.3 50.4c5.5 3.2 11 6.5 16.5 9.7 1.7 1 3.2-1.6 1.5-2.6-.2-.1-.3-.2-.5-.3-1.7-1-3.2 1.6-1.5 2.6.2.1.3.2.5.3.5-.9 1-1.7 1.5-2.6-5.5-3.2-11-6.5-16.5-9.7-1.7-1-3.2 1.6-1.5 2.6z" />
	<path class="prefix__prefix__st3"
		d="M120.7 60.3c3.5-4.7 3.7-11.6.4-16.4-1.1-1.6-3.7-.1-2.6 1.5 2.7 4.1 2.5 9.5-.4 13.4-.5.6-.1 1.7.5 2.1.8.3 1.6 0 2.1-.6z" />
	<path class="prefix__prefix__st3"
		d="M127.3 64.3c1-5.5.9-11-.2-16.4-.4-1.9-3.3-1.1-2.9.8 1 4.9 1.1 9.9.2 14.9-.1.8.2 1.6 1 1.8.8.2 1.7-.3 1.9-1.1z" />
	<path class="prefix__prefix__st1"
		d="M75.2 54.2c-3 2.3-6 4.7-8.8 7.3-2.3 2.2-4.3 5.2-3 8.4 2.9 7 13.1 4.8 18.7 3.5 7.3-1.8 14.3-5 21-8.5 3.2-1.6 6.5-3.1 9.3-5.3 2.3-1.9 3.9-4.6 4.6-7.5.8-3.2.6-6.7-.4-9.8-.8-2.4-3.2-8.3-6.6-5.5-1.5 1.2.6 3.3 2.1 2.1-.6.5-.4.1 0 .7.1.2.2.4.4.6.3.5.5 1 .8 1.6.5 1.2.9 2.5 1.1 3.7.4 2.3.3 4.6-.4 6.8-1.7 5.5-7.4 7.6-12.1 10-5.5 2.8-11.1 5.5-17 7.3-2.9.9-5.8 1.6-8.7 1.9-2.7.3-6.2.8-8.5-1-2.9-2.2-1.1-5 1-6.9 2.6-2.4 5.3-4.7 8.2-6.8 1.3-1.1-.2-3.7-1.7-2.6z" />
	<path class="prefix__prefix__st1"
		d="M77.5 55.2c-.1-3.5 0-8.1 2.1-11.1 2-3 5.9-4.5 9.1-5.5 3.5-1.1 7.2-1.9 10.8-2.4 3.4-.4 7.1-.1 9.5 2.6 1.3 1.5 3.4-.7 2.1-2.1-2.7-3.1-7-3.9-10.9-3.6-4.2.4-8.7 1.4-12.7 2.7-3.8 1.2-7.9 3.1-10.3 6.4-2.5 3.5-2.8 8.8-2.7 13 .1 2 3.1 2 3 0z" />
	<path class="prefix__prefix__st1"
		d="M76.9 56.1c6-1 12.1-2.1 18.3-1.4 2.7.3 5.5 1 8 2.1 2.3 1.1 4.6 3.5 7.4 3.2 1.9-.2 1.9-3.2 0-3-1.4.2-2.6-1-3.8-1.7-1.2-.7-2.5-1.3-3.8-1.8-2.6-1-5.4-1.6-8.2-1.8-6.2-.6-12.5.5-18.6 1.6-2 .2-1.2 3.1.7 2.8zm52.8 11.4c1.6-4.2 1.9-8.7 1-13.1-.4-2.1-1.1-4.2-2-6.1-.6-1.3-1.5-2.5-2.3-3.7-3.1-4.7-7.5-10.8-13.8-7.5-1.7.9-.2 3.5 1.5 2.6 4.7-2.4 8.1 4 10.2 7.2.8 1.1 1.5 2.2 2 3.5.7 1.7 1.3 3.6 1.6 5.4.7 3.7.3 7.5-1.1 11-.7 1.7 2.2 2.5 2.9.7z" />
	<path class="prefix__prefix__st1"
		d="M111.7 60.3c5.6 1.2 9.9 5.3 13.8 9.2 1.4 1.4 3.5-.7 2.1-2.1-4.3-4.3-9-8.7-15.1-10-1.9-.4-2.7 2.5-.8 2.9zm-.3-23.8c-2.7-.7-5.2-1.9-7.4-3.6-.5-.4-1-.8-1.4-1.2-.1-.1-.5-.3-.5-.5 0-.1 0 0 .1-.1.2-.4.9-.8 1.3-.9.5-.2 1.1-.4 1.6-.5 1.2-.2 2.4-.2 3.6-.1 1.3.1 2.8 0 3.9.8.3.2.6.5.7.9.1.4 0 .6-.3 1-.5.7-1.5 1.2-2.3 1.8-.7.4-1.4.9-1.7 1.6-.5.9-.2 2.1.7 2.6 1.9 1 3.9-1.9 1.9-3-1.7-1-3.2 1.6-1.5 2.6 0 0 .1 0 .1.1l-.5-.5v.1c-.1-.4-.1-.8-.2-1.2.3-.3.7-.5 1-.8.3.1.5.1.8.2l.1.1c.1.2.3.4.4.7v-.2.8c0-.1.8-.5 1-.7.6-.4 1.1-.7 1.7-1.2 1-.8 1.8-1.9 1.9-3.3.1-1.5-.7-2.9-1.8-3.8-1.3-1-3-1.3-4.6-1.4-2.7-.2-5.6-.3-8.1 1-1.3.7-2.7 2-2.7 3.5 0 1.6 1.4 2.6 2.5 3.5 2.7 2.1 5.8 3.7 9.1 4.6 1.7.5 2.5-2.4.6-2.9z" />
	<path class="prefix__prefix__st1"
		d="M112.5 35.7c.2 0 .2 0 0 0-.2.1-.2.1 0 0h-.2c.2 0 .2 0 0 0-.2-.1-.2 0 0 0-.1 0-.2-.1-.2-.1.2.1 0 0-.1-.1.1.1.1.1 0 0 .1.2.1.2 0 0 0-.2 0-.2 0 0v-.3c0 .5.1-.2 0 0s.3-.3 0-.1l.2-.2c-.1.1-.1.1 0 0-.2.1-.2.1 0 0h1.3c.9 0 1.9-.2 2.8-.3.4 0 .9-.1 1.3 0h.1c.1 0 .2 0 .3.1.1 0 .5.2.3.1.2.1.3.2.5.3-.2-.1.1.1.1.1l.2.2c-.1-.1-.1-.1 0 0 .1.2.1.1 0 0 0 .1 0 .2.1.2-.1-.4 0 .2 0-.2 0 .1 0 .2-.1.2.1-.2.1-.2 0 0-.1.1-.1.1 0 0l-.2.2-.2.2c.1-.1.1-.1 0 0s-.2.1-.3.2c-.1 0-.2.1-.2.1.2-.1.1-.1 0 0-.3.1-.7.2-1 .3-.8.2-1.3 1.1-1 1.8.2.8 1.1 1.3 1.8 1 1.7-.4 3.5-1.2 4-3 .6-2.1-.9-3.9-2.8-4.6-2-.8-4 .1-6.1 0-1.1-.1-2.2.1-3 .8-.7.6-1.1 1.6-1.1 2.6 0 2.5 2.9 3.9 5 2.8.7-.4.9-1.4.5-2.1-.4-.4-1.3-.5-2-.2z" />
	<path class="prefix__prefix__st0"
		d="M137 54.9c-2-2.5-5.1-3-7.9-1.5-1.5.8-2.8 1.9-4.1 2.8-1.6 1.1-3.2 2.3-4.7 3.4-.9.7-.8 1.8-.2 2.4-.5.6-1 1.3-1.3 2.1v.1c-.1.1-.1.2-.2.4-.6 1.6 2 2.7 2.7 1.2.2-.3.3-.6.5-.9h.1c-.2 1.3 0 2.6.6 3.8-.1.6-.1 1.2-.1 1.8-.8 2.4-.8 5.1.1 7.3.7 1.8 3.6 1 2.9-.8-.4-.9-.6-1.9-.6-2.9 1 .2 2.1-.1 3-.9 1-.8 2-1.9 2.5-3.1.4-.5.8-1.1.9-1.7.2.2.4.3.6.3l-.6 1.8c-.4 1.2.9 2.1 1.9 1.9 0 .5-.1 1-.1 1.4-.2 1.4 2.2 2.1 2.8.8 1.4-3.3 2.4-6.7 2.8-10.2.4-3.4.5-6.9-1.6-9.5z" />
	<g>
		<path class="prefix__prefix__st1"
			d="M137.7 76.2c.5-3.3 1.1-6.7 1.4-10.1.2-3.5.8-8-1.2-11.1-.9-1.4-2.2-2.5-3.9-2.8-2-.4-3.9.3-5.6 1.3-3.6 2.1-7 4.6-10.3 7.2-1 .8-.2 2.6 1.1 2.6.7 0 1.3-.2 1.8-.8 1.4-1.3-.7-3.5-2.1-2.1.1 0 .2-.1.3-.1.4.9.7 1.7 1.1 2.6 2.7-2.1 5.6-4.1 8.5-6 1.3-.8 3-2 4.7-1.7 1.2.3 2 1.4 2.4 2.5.5 1.5.5 3.2.4 4.8 0 1.5-.1 3-.2 4.5-.2 2.8-.7 5.6-1.2 8.5-.1.8.2 1.6 1 1.8.7.2 1.7-.3 1.8-1.1z" />
		<path class="prefix__prefix__st1"
			d="M118.6 63.2c.9 1.6 1.5 3.5 3.2 4.5 2.3 1.2 5.4-.1 6.7-2.2.7-1.1 1.4-2.3 2.3-3.4.5-.7 1.7-2.6 2.7-2.5 1.1.1.5 2.7.5 3.4-.1 1.6 0 3.2 0 4.8 0 1.7.1 3.4.3 5 .2 1.2.6 2.6 1.5 3.5.7.6 1.8-.4 1.1-1.1-.8-.7-1-2-1.2-3-.2-1.5-.2-3.1-.3-4.7 0-1.6-.1-3.2 0-4.7.1-1.2.4-2.6-.3-3.7-.6-1-1.9-1.2-2.9-.7-1.2.6-2 1.8-2.7 2.8-.8 1.1-1.5 2.1-2.2 3.2-.8 1.3-2 2.1-3.6 2.2-2.3.1-3-2.6-3.9-4.2-.4-.8-1.7-.1-1.2.8z" />
		<path class="prefix__prefix__st1"
			d="M134 59.2c.5-1.9.8-4 .7-6 0-.5-.8-.5-.8 0 0 2-.2 3.9-.7 5.8-.1.5.7.7.8.2zm-1.2.4c-.1-1.7-.2-3.5-.3-5.2 0-.5-.8-.5-.8 0 .1 1.7.2 3.5.3 5.2.1.5.8.5.8 0zm-1.4.8c0-2-.3-4.1-.8-6-.1-.5-.8-.3-.7.2.5 1.9.7 3.9.7 5.8 0 .5.8.5.8 0zm-1.4 1.5c-.2-2-.5-4-.9-6-.1-.5-.8-.3-.7.2.4 1.9.7 3.9.9 5.8 0 .5.7.5.7 0zm-1.1 1.9c-.4-2.3-.9-4.6-1.4-6.9-.1-.5-.8-.3-.7.2.6 2.3 1 4.6 1.4 6.9.1.5.8.3.7-.2zm-.9 1.7c-.6-2.5-1.3-5-1.9-7.6-.1-.5-.8-.3-.7.2.6 2.5 1.3 5 1.9 7.6 0 .4.8.2.7-.2zm-1.2.6c-.6-2.1-1.1-4.1-1.7-6.2-.1-.5-.8-.3-.7.2.6 2.1 1.1 4.1 1.7 6.2.1.5.8.3.7-.2zm-1.8.5c-.8-1.9-1.4-3.9-1.9-5.9-.1-.5-.8-.3-.7.2.5 2 1.2 3.9 1.9 5.9.2.4.9.2.7-.2zm-2.4-.8c-.8-1-1.1-2.3-1.1-3.6 0-.5-.7-.5-.8 0-.1 1.4.3 2.8 1.2 4 .1.2.3.2.5.1.3-.1.4-.3.2-.5zm12.7-4.8c.3-.8.7-1.6 1-2.4.1-.2.1-.4-.1-.5-.2-.1-.4-.1-.5.1-.3.8-.7 1.6-1 2.4-.1.2-.1.4.1.5.1.1.4.1.5-.1zm-.1 2.7c.4-1 1.1-2 2-2.7.2-.1.2-.3.1-.5s-.4-.3-.5-.1c-1.1.8-1.9 1.9-2.4 3.1-.1.2.1.4.3.5.3 0 .5-.2.5-.3zm0 3.9c.2-1.3 1-2.5 2.1-3.2.2-.1.2-.3.1-.5s-.3-.2-.5-.1c-1.2.9-2.1 2.2-2.4 3.7 0 .2.1.4.3.5.2-.1.4-.2.4-.4zm.3 2.9c.6-1.3 1.4-2.5 2.3-3.6.1-.2.2-.4 0-.5-.1-.1-.4-.2-.5 0-.9 1.2-1.7 2.4-2.4 3.8-.1.2 0 .4.1.5.1 0 .4-.1.5-.2z" />
	</g>
	<g>
		<path class="prefix__prefix__st3"
			d="M192.1 79.8c-.5-1.8-1.9-3.2-3.7-4.3-.5-.3-1.1-.6-1.6-.9-.5-.3-.8-.6-1-1.1-.3-.7-.9-1.1-1.7-1.3-.1 0-.1 0-.2-.1h-.2c-.2 0-.3 0-.5-.1-.2 0-.4.1-.5.2-.3-.1-.7-.2-1-.3-.8-.2-1.6-.4-2.5-.6l-4.9-1.2c-3.2-.8-6.3-1.6-9.6-1.7-1.5-.1-3.1 0-4.5.5-2 .3-4.1-.1-6.1.2-1.6.3-3.3 1.1-3.9 2.5-.1.2-.1.4-.2.5 0 0 0 .1-.1.1s-.3-.1-.4-.2c-.4-.2-.8-.3-1.2-.4-.8-.1-1.7-.1-2.4.4-.3.2-.5.5-.6.8-.2.3-.2.7-.5.9-.2.3-.6.2-.9.1-.4-.1-.8-.2-1.3 0s-.7.6-.8 1c-.1.5-.1 1.1-.2 1.6-.2.8-.4 1.5-.7 2.2-.1.1-.2.1-.2.3-.9 2.6-.3 5.5 1.6 7.6 2 2.2 5.1 3.1 7.7 4.7.6.4 1.2.8 1.8 1.3.6.5 1.2.9 2.1 1 1 .1 2 .1 3 .2s2 .1 3 .2c3.9.2 7.5 1.1 11.5.9 3.9-.3 8.1-1.6 11.9-2.5h.3c.3-.1.5-.2.8-.3.4-.2.4-.6.2-.8.9-1.1 2.3-1.9 3.6-2.8 1.6-1.1 2.8-2.3 3.5-4 .7-1.3.9-3 .4-4.6z" />
		<path
			d="M193.1 89.5c-.9.3-1.5.9-2.2 1.5-.3.3-.7.6-1.1.7-.3.1-.7.2-1 .3-.5 0-.9.3-1.2.7-.2.2-.4.3-.6.5-.1.1-.2.3-.4.4-.1.1-.2.2-.4.3-.3.2-.5.3-.8.5-.4 0-.8 0-1.2.1-.2 0-.4.1-.6.2h-.2c-.4-.2-.9 0-1.2.3l-.2.2c-.3.1-.6.3-.9.5-.3 0-.6.1-.9.3-.1.1-.3.2-.4.3-.3.1-.7.1-1.1.1-.1 0-.2 0-.3.1-.6-.1-1.4.1-1.9.3h-.4c-.5.3-.9.7-1.4 1-.5.2-1 .4-1.4.6h-.1l-.9-.3c-.2-.1-.4-.1-.6 0-.2-.2-.4-.3-.6-.4-1-.4-2.2-.1-2.8.7-.4.1-.9.1-1.3 0-.1 0-.2 0-.2-.1-1-.3-1.9-.9-2.8-1.4-.2-.1-.3-.1-.5 0-.1-.1-.3-.1-.5-.2-1.4-.2-2.4 1-2.6 2.1-.2.1-.4.1-.6.1-.1 0-.2 0-.4-.1-.2 0-.3 0-.4.2-.1-.1-.2-.1-.3-.2-.4-.3-.8-.6-1.3-.8 0-.1-.1-.1-.1-.1-.5-.5-1.1-.9-1.8-1.3-.1 0-.1-.1-.2-.1-.1-.1-.3-.1-.4 0-.2-.1-.3-.1-.5-.1s-.5 0-.7.1c-.1 0-.3.1-.5.2-.2 0-.5 0-.7.1-.1 0-.3.1-.4.1l-.1-.1c-.1 0-.2-.1-.2-.1-.1 0-.1-.1-.2-.1-.2-.1-.5-.1-.6.1-.1-.1-.2-.1-.2-.1-.1-.1-.3-.2-.4-.3-.2-.5-.5-.9-.9-1.3-.1-.1-.2-.1-.4-.1-.5-.2-1.1-.3-1.6-.3-.1 0-.2 0-.3-.1-.2 0-.4 0-.5.1-.4-.4-.9-.8-1.3-1.3 0 0 0-.1-.1-.1-.5-.7-1.2-1.2-2-1.6-.5-.3-1.1-.6-1.7-.7-.5-.1-.9.4-.5.8l.2.2.1.1c.9.8 1.9 1.4 3.1 1.8l.4.4c1.1 1.1 2.3 2.2 3.7 3 0 0 .1 0 .1.1.3.2.5.1.7-.1.2.2.5.4.8.5.4.4 1 .7 1.7.7h.1c.1 0 .1.1.2.1.2.3.5.5.8.5h.4c0 .1.2.2.4.3.8.2 1.6.3 2.4.4.1.1.1.1.3.2 1.1.4 2.2.6 3.4.7.1.1.1.1.3.1 1.2.2 2.5.3 3.7.3h.1c.6.3 1.3.2 1.9.1h.9c0 .3.3.5.7.4.7-.2 1.5-.1 2.3-.2.7 0 1.4-.2 2-.3.3 0 .6 0 .9.1.2 0 .4-.1.5-.2.1 0 .2.1.3.1 1.5-.1 3.1-.4 4.6-.8.3-.1.6-.1.8-.2.3.1.7.1 1 0h.2c1.1-.1 2.1-.5 2.9-1.2.1 0 .2 0 .3-.1.6-.3 1-.8 1.3-1.2.2-.2.3-.5.5-.7.3-.1.6-.3.9-.6.1-.1.1-.2.1-.3h.4c.3-.1.6-.3.8-.5.5-.4 1-.8 1.6-1.2h.4c.1 0 .2-.1.3-.2 1.7-.9 3.3-2.1 4.6-3.4-.2-.7-.5-1.3-1.1-1.1z"
			fill="#ccdbed" />
		<path class="prefix__prefix__st5"
			d="M178 80.3zm5.6-.9c-.3-.5-.8-.8-1.4-1-.4-.2-.9-.4-1.4-.5-.1-.1-.3-.1-.5 0h-.1c-.2 0-.4.1-.4.2h-.1c-.1 0-.2.1-.2.1-.2-.1-.5-.1-.7.1-.1-.1-.2-.1-.3-.1h-.5s-.1-.1-.2-.1-.2-.1-.4-.1c-.1 0-.2 0-.3.1h-.3c-.2 0-.4 0-.6.2h-.1c-.2 0-.4 0-.6.2-.3-.2-.8 0-.8.4-.2-.2-.5-.3-.8-.3-.3-.1-.6-.1-.8 0 0 0-.1 0-.1.1h-.1c.1-.1.1-.3.1-.4-.1-.3-.3-.5-.7-.6l-.1-.1h-.1c-.2-.2-.4-.4-.8-.5h-.3c-.1 0-.1 0-.2.1h-.4c-.1 0-.1-.1-.2-.1v-.2c0-.4-.5-.5-.9-.6h-.8.1c.2 0 .4-.2.4-.4.1-.1.2-.2.2-.3v-.1c.2.1.3.1.5 0 .3-.1.4-.4.3-.6.2 0 .4-.1.5-.2l.1-.1c.2 0 .3-.1.4-.2h.1c.3.1.6-.1.8-.3.3 0 .5-.2.7-.4h.4c.1 0 .2.1.3.1h.5c.2 0 .4-.1.5-.2.1.1.1.2.3.3.1.2.2.3.5.3.2 0 .4-.1.6-.1.1 0 .2.1.3.1.3.2.7 0 .8-.3h.3c.2-.1.3-.1.5-.1.1.4.6.5.9.2h.3c.1 0 .2.1.3.1.1.1.3.1.4 0 .1.1.3.1.4.1.3.1.5.2.8.3.4.2.9-.1.8-.5-.1-.3-.4-.6-.7-.7-.3-.2-.6-.3-.9-.6-.2-.2-.6-.2-.8 0h-.8c-.1 0-.3 0-.4.1-.3 0-.7 0-1 .1-.1 0-.1-.1-.2-.1h-.9c-.1 0-.2 0-.3.1h-.1l-.1-.1c0-.1-.1-.1-.1-.2-.1-.3-.6-.3-.8-.1-.2-.2-.5-.2-.7-.1-.2-.2-.6-.3-.8-.1-.1 0-.1.1-.2.2h-.2c-.1-.1-.3-.2-.5-.2-.1 0-.2 0-.3.1h-.2c-.1 0-.2.1-.3.1-.2-.1-.5 0-.6.2-.1.1-.3.2-.4.2-.1 0-.2 0-.3.1h-.1c-.3 0-.7 0-1 .2-.1.1-.2.2-.2.3-.1-.2-.2-.3-.3-.5-.2-.2-.5-.2-.7 0-.1.1-.2.2-.2.3v.2h-.2c-.2 0-.4.1-.5.3h-.1c-.2 0-.4.1-.5.2-.1.2-.1.3 0 .5s.2.3.4.4v.3l-.1-.1c-.4-.3-1 0-.9.4.1.3.2.6.2.9 0 .1.1.3.1.4l-.2.2c-.2.3.2.8.6.7.1 0 .1 0 .1-.1.1.2.2.3.4.4h.4c.1.3.6.4.9.2.1.2.2.3.4.5.3.1.5 0 .7-.1 0 0 .1.1.2.1.2.3.6.5 1 .4h.1c.1 0 .2.1.3.1-.1 0-.2.1-.2.2s-.1.1-.1.2c0 0 0-.1-.1-.1-.3-.3-.7-.1-.9.2h-.1c-.3 0-.4.1-.6.3-.2-.1-.4-.1-.6.1-.1.1-.3.1-.4.1-.2 0-.4.1-.5.2v.1c-.3-.1-.6 0-.7.3v.1c-.3-.2-.9-.1-.9.3-.1.1-.3.1-.4.1-.8.2-1.6.4-2.2.8-.5.3-.2 1 .4.8.1 0 .3-.1.4-.1v.1c-.2.3.1.8.6.7.2 0 .3-.1.5-.2v.1c.1.1.2.2.3.2.1.1.4.2.7.1h.1c.1 0 .3.1.5 0 .1 0 .2-.1.3-.1.1 0 .1.1.2.1.3.2.8.2.9-.2.1-.3.8-.5 1.1-.6.2.2.8.2.9-.2v-.1c.2.1.4.1.6 0 .1 0 .2-.1.3-.2h.1c.1 0 .1 0 .2-.1.2.1.6 0 .8-.2h.1c.3.2.8 0 .8-.3.3.2.8.1.9-.3.3.2.8 0 .8-.4v-.3c.1.1.3.2.4.2.2.3.9.3 1-.1 0-.1 0-.2.1-.3.2.1.5.1.8 0 .1 0 .2-.1.3-.2h.3c.2-.1.3-.2.3-.4 0 0 .1 0 .1-.1 0 .1.1.1.2.1.1.1.2.1.3.1-.1 0-.1-.1-.1-.2 0 .1.1.1.1.2h.1c.1 0 0 0 0 0 .1.1.3.1.4.1.3 0 .4-.2.4-.4h.5c.1 0 .2-.1.4-.2.2.1.5 0 .6-.2.1.1.2.3.3.4.2.2.5.2.7 0 .3.1.6-.1.6-.3.1 0 .1.1.2.1.2.2.4.2.6.1h.1c.2.5.7 0 .4-.4z" />
		<path class="prefix__prefix__st5"
			d="M195.7 82c0-.2-.1-.4-.3-.4.4-.4.7-.8.5-1.4-.1-.2-.3-.3-.5-.3l-.1-.1c0-.1 0-.2-.1-.3-.1-.1-.2-.2-.2-.3.1-.2.1-.4 0-.6-.3-.3-.6-.7-.9-1-.2-.2-.4-.5-.6-.7.2-.4-.1-.8-.4-1.1-.4-.4-.9-.7-1.4-1.1-1-.7-1.9-1.5-2.9-2.2-.8-.7-1.7-1.3-2.7-1.8-1-.5-2.1-.7-3.2-.7-.1-.2-.3-.4-.6-.5-.2-.1-.4-.1-.6 0-.7-.5-1.6-.7-2.5-.9-.9-.1-1.9-.2-2.8-.3-.7-.4-1.4-.7-2.3-.6-.1 0-.2 0-.2.1-.3-.1-.6-.2-.9-.2l-.3-.3c-.5-.2-1.2-.2-1.8-.1-.4-.2-.9-.3-1.3-.3-.6-.1-1.3 0-1.9.3h-2c-.2 0-.4 0-.6.1h-.1c-1.1-.2-2.3-.2-3.4.1-.1-.1-.3-.2-.5-.2s-.4.1-.6.2h-.4c-.1 0-.1 0-.2.1-.5 0-1 .1-1.5.2h-.1c-.5 0-1 0-1.5.1-.1 0-.2.1-.3.2-.8 0-1.5.1-2.3.2-.9.2-1.8.5-2.5.9s-1.4 1-2.4 1.1h-.8c-.5 0-.9 0-1.2.3-.2-.1-.4-.1-.6 0-.3.1-.4.2-.6.4-.1 0-.2-.1-.3-.1-.7 0-1.1.4-1.2 1-.2.1-.4.3-.5.4-.2 0-.5 0-.7.1-.3-.2-.7 0-.8.3v.1h-.1l-.1.1-.1.1c-.1.1-.2.1-.3.2-.9.7-1.6 1.5-2.1 2.5v.1c-.2.1-.4.2-.5.3-.1 0-.2.1-.2.1-.3.3-.6.7-.8 1.1-.2 0-.4.1-.5.2-.5.8-.7 1.7-.6 2.5-.3 0-.5.2-.5.4-.1 1.1-.1 2.1.2 3.2l-.1.1c-.6 1.1-.4 2.3.6 3.2.1.1.2.1.3.1.2.2.5.4.8.6.1.4.3.9.5 1.3.2.3.5.5.8.7 0 .1.1.2.1.3.7.6 1.6 1 2.6 1 0 .1.1.1.1.1.6.4 1.3.8 1.9 1.2.1.1.3.2.4.3.2.2.5.3.7.5 0 .1-.1.2 0 .3.1.4.7.7 1.1.5.2.1.4.2.6.4.2.1.5.1.6-.1h.1c.4.2.8.4 1.1.6.2.1.4.1.5 0 .1.1.2.1.3.2v.2c0 .1.1.2.1.3.1.8 1 1.3 1.9 1 .1 0 .2.1.2.1 1.2 0 2.5.1 3.6.4.2.1.3.2.5.2.2.1.3.2.5.3-.1.2 0 .4.2.6l.6.3c.5.3 1.1.5 1.7.5.1 0 .3-.1.4-.1h.6c.4 0 .7-.4.5-.7-.1-.1-.1-.2-.2-.2h.1c.1 0 .2-.1.3-.2.1-.1.1-.2.1-.3.3-.1.6-.3.8-.5 0 0 0-.1.1-.1h.1c.5.1 1 .2 1.5.2 0 .3.2.5.5.6h.6c.4.4 1 .7 1.5.9.5.2 1.1.3 1.6.2.3-.1.5-.3.7-.5.1 0 .1-.1.2-.1h.2c.4 0 .7-.2 1-.4.2 0 .3.1.5.1h.6c.2.4.7.5 1.2.6 0 .3.3.6.7.4 1.3-.4 2.4-1.1 3.3-1.9.3.1.7.1 1-.2.3.1.7 0 .9-.2h.1c1.8.7 3.3-.4 4.5-1.5.1-.1.1-.1.1-.2 1.2.6 2.7.4 3.6-.5 1.2-.5 1.7-1.8 3.1-1.9.2 0 .4 0 .5-.2.1 0 .3 0 .4-.1.1-.1.2-.2.3-.2 0 0 .1 0 .1-.1.1-.1.2-.1.3-.2h.4c.5-.2.9-.6 1.1-1 .3-.1.5-.3.7-.6h.1c.4-.1.6-.3.8-.6.1 0 .1-.1.2-.1.3.1.7-.1.8-.4 0-.2 0-.4-.1-.6-.1-.4-.1-.9 0-1.4.1 0 .3-.1.3-.2.1-.1.2-.3.2-.4.2-.1.3-.2.4-.4.2 0 .3-.1.4-.3v-.3c.1-.3.1-.7 0-1-.6-.9-.6-1.5-.7-2.1zm-52.2 3l-.1-.1c-.1-.1-.2-.1-.4-.1s-.3 0-.4.1c-.2.1-.1.1-.3 0-.2-.1-.6 0-.7.2l-1-1.3-.1-.1c-.1-.4-.2-.9-.4-1.3-.1-.4-.2-.9-.2-1.3 0-.1 0-.2-.1-.2.1-.2.1-.3.1-.5.1 0 .2-.1.3-.2.3-.5.5-1 .6-1.6 0-.1.1-.1.1-.2.1-.1.1-.2.2-.3h.1c.1-.1.2-.1.2-.2.1-.2.2-.3.3-.5.1-.2.2-.5.3-.7v-.1c0-.1 0-.2-.1-.4 0-.1-.1-.2-.2-.2 0-.1 0-.1-.1-.2l.1-.1c.4-.6.7-1.2 1.1-1.7h.2c.1.1.3.2.6.3.2 0 .3 0 .4-.1.2.3.6.3.8.1.1-.1.2-.2.3-.4 0 0 .1 0 .1-.1.5-.3.8-.8.7-1.3v-.1c.2 0 .3-.1.5-.2 0 0 0-.1.1-.1.2 0 .3-.1.4-.2.1.1.3.2.6.1.1.1.3.1.4.1l.1.1s.1 0 .1.1l.3.3c.3.3.8.1.9-.2v-.1c.1 0 .1-.1.2-.1s.1-.1.2-.1c.2-.2.4-.4.5-.7.3-.1.6-.2.7-.5v-.1c.3-.2.6-.3.9-.5.8-.5 1.6-.8 2.5-1 .6-.1 1.1-.2 1.7-.2l.1.1c.1.1.2.2.4.1h1c.2 0 .4.1.6.1.3.1.6-.1.6-.3.4 0 .9.1 1.3.1.3 0 .5-.1.5-.3.1 0 .2-.1.2-.1v.2c0 .3.4.5.7.4.1.1.2.2.3.2v.1c.1.3.4.3.6.2.1 0 .2 0 .4-.1.1 0 .2 0 .3-.1.1-.1.2-.3.3-.4.1 0 .2-.1.3-.1.2-.1.4-.1.6-.2.1 0 .2 0 .3-.1h.2c.4 0 .7 0 1.1.1h.1c0 .1.1.2.1.3.1.3.4.6.7.8l.1.1c-.2 0-.4.1-.5.3h-.1c-.2-.2-.5-.2-.7 0-.1 0-.3-.1-.4 0-.2 0-.5.1-.6.3-.2-.1-.3-.1-.5 0h-.4c-.2-.1-.3-.1-.5-.1-.1-.1-.4-.1-.5-.1-.1-.1-.2-.1-.3-.1-.1-.1-.2-.1-.5-.1h-.1l-.1-.1c-.2-.2-.4-.2-.6-.1h-.2c-.1-.1-.2-.1-.3 0-.2 0-.5.1-.6.2h-.1c-.2-.1-.4-.1-.6.1 0 0 0-.1-.1-.1-.2-.2-.5-.3-.8-.1-.3.2-.3.4-.2.7-.1 0-.1-.1-.2-.1-.2-.1-.6-.1-.7.2 0 0 0 .1-.1.1s-.3 0-.4-.1c-.4-.1-.6.2-.7.4h-.4c-.1 0-.1-.1-.2-.1-.3-.1-.5 0-.6.2h-.2c-.2 0-.3.1-.5.1-.1 0-.1.1-.2.1-.2.1-.5.1-.7 0-.3 0-.6.1-.7.4 0 0-.1.1-.1.2-.2.1-.3.2-.4.3-.1-.1-.3-.1-.5 0h-.4c-.3 0-.4.2-.4.4h-.3c-.2 0-.3.1-.5.2-.1 0-.1-.1-.2-.1h-.3c-.2-.1-.4-.1-.6 0h-.1c-.5 0-1 .2-1.3.5-.2.1-.4.3-.5.5-.1-.1-.3-.1-.5-.1 0 0-.1 0-.1.1-.6.2-1 .5-1.3 1-.3.4.4.9.8.6h.1c.1 0 .2.1.3.1h.3c.2.2.6.2.8 0 .2.2.5.2.7 0 .1.2.3.3.4.4.2.1.4.1.6 0 .3.1.6 0 .8-.2.1.1.2.1.2.2.2.1.6.1.7-.1.1.1.2.1.4.1h.4c-.4.2-.7.4-1.1.6-.1 0-.1 0-.2.1s-.2.1-.2.2l-.9.6c-.1.1-.2.2-.1.4-.4.3-.8.5-1.3.7-.2-.2-.4-.2-.6-.1-.1 0-.2-.1-.3-.1-.1-.1-.3 0-.4 0v-.1c-.1-.2-.4-.4-.7-.3-.1 0-.2.1-.3.1-.1-.2-.3-.3-.6-.2-.1 0-.2 0-.3.1-.2-.1-.5-.2-.7 0-.2-.2-.5-.3-.8-.2-.1-.3-.6-.3-.9-.1-1.1.8-1.5 2-1.3 3.2.1.4.6.4.9.2.2.1.4.1.6-.1.2.2.6.2.8 0l.2.2c.2.2.7.2.9-.1h.2c.1 0 .2 0 .3-.1.2.1.3.3.5.4.3.2.6 0 .7-.2h.1c.2.1.4.1.6 0 .1.1.3.2.5.2h.4c.1.1.2.1.2.2.2.2.6.3.9.1h.1c.1.1.3.1.4 0h.1c-.4.2-.8.4-1.3.7-.2.1-.4.3-.5.5-.1-.1-.3-.1-.5 0-.9.4-1.8.9-2.5 1.5-.2.2-.2.4 0 .6v.1s-.1 0-.1.1h-.1c-.2-.5-.5-.5-.7-.5zm10.9 2c-.1 0-.3 0-.4.1-.2 0-.4.2-.4.4-.2-.1-.4-.1-.5 0-.2.1-.3.2-.4.4v.2s-.1 0-.1-.1c-.3-.1-.6 0-.7.2-.1-.2-.2-.3-.4-.5-.1-.1-.2-.1-.3-.2-.1-.1-.3-.1-.4 0h-.2c-.1-.2-.3-.3-.5-.3-.1 0-.1-.1-.2-.1h-.1l-.1-.1c-.1-.2-.3-.2-.5-.2l-.1-.1c-.1-.1-.2-.1-.4-.1l-.1-.1c-.1-.1-.1-.2-.2-.3l-.3-.3c-.2-.1-.5-.2-.7-.1h-.1l-.2-.2c.3 0 .7-.1.7-.4h.2c.3.1.8-.1.7-.5.2-.1.4-.3.4-.5.3 0 .7-.2.6-.6v-.1s.1 0 .1-.1c.1-.1.2-.2.2-.3h.2c.4 0 .7-.2 1-.4.3-.1.6-.3.7-.5.1 0 .2-.1.3-.1.1.1.1.1.2.1.1.2.4.3.6.3.2.2.4.3.6.4.1.1.2.2.3.2.1.2.4.3.6.3l.2.2c.2.1.4 0 .6-.1h.1c.2.2.6.2.8 0 .3.3.7.5 1.2.6.2 0 .5 0 .7-.1 0 .1.1.3.3.4.1.1.2.1.3.1-.1.1-.1.2-.1.3h-.3c-.3 0-.5.2-.5.4-.1 0-.2 0-.2-.1-.3-.1-.8 0-.8.4 0 .3-.2.3-.4.2-.3-.1-.6.1-.7.4-.2 0-.5 0-.7.2-.4.2-.6.5-.6.7zm.6-8.3c-.1.1-.3.1-.4.2-.2 0-.3.1-.4.3-.2.1-.4.2-.6.4-.1 0-.2.1-.2.1h-.4c-.1-.1-.2-.1-.4-.1h-.4c-.1 0-.2 0-.3.1-.2-.2-.6-.3-1-.4-.4-.1-.7-.2-1.1-.3-.2-.1-.4-.1-.7-.1.4-.3.8-.4 1.2-.7.2-.1.3-.2.4-.3.1 0 .2 0 .3-.1.7-.6 1.5-1.2 2.3-1.7.1.1.2.1.4 0 .1 0 .2-.1.2-.1.2 0 .4-.1.6-.2.1 0 .1-.1.1-.1.1-.1.2-.1.3-.2 0 .1.1.3.2.3.1.2.4.3.7.3.1 0 .2 0 .3-.1l.1.1c.2.2.5.2.7.2.1.1.2.1.3.1.3.1.6 0 .8-.1.1 0 .2 0 .3-.1.2.2.5.4.8.4.2 0 .3 0 .4-.1 0 .1.1.2.2.3-.2 0-.4 0-.5.2l-.1.1h-.3c-.1 0-.2.1-.3.1-.3 0-.6.1-.8.3h-.4c-.2 0-.4.2-.4.3-.4 0-.7.2-1 .4-.2.1-.4.2-.5.3 0 0 0 .1-.1.1-.2 0-.3.1-.4.2.4-.2.3-.1.1-.1zm15 16c-.6.1-1.2.1-1.8.1h-.2c-.5 0-1 0-1.5.1-.1 0-.2.1-.3.1-.3 0-.6-.1-.9-.1-.6-.2-1.2-.4-1.8-.5-.9-.3-1.9-.3-2.8-.2-2.2-.7-4.5-.8-6.8-.3-.2 0-.3.1-.3.2-.7-.3-1.4-.6-1.9-1.2l-.1-.1-.2-.2c0-.1-.1-.2-.2-.3-.5-.5-1-.9-1.8-1-.1-.1-.3-.1-.4-.2h-.1c-1.4-.8-2.8-1.6-4.2-2.5-.1-.1-.2-.1-.3-.1-.1-.1-.2-.3-.3-.4h.1c.1.1.3.2.5.2l.1.1c.2.2.6.2.9.1.1-.1.2-.1.3-.2.3.1.7.1 1 0 .2.2.5.2.7.3.2.1.4.3.7.4.2.1.5.1.7 0 0 .1.1.2.1.3.1.2.3.3.5.3-.2.1-.4.3-.3.5 0 0 0 .1.1.1.2.3.1.5.5.7.2.1.4.2.7.2 0 .3.2.5.6.6.3.1.6-.1.7-.3 0-.1 0-.1.1-.2.2 0 .4-.2.5-.3.4.1.7-.2.7-.5.2 0 .3-.1.4-.3.2 0 .4-.1.5-.2.2 0 .3-.1.4-.2h.3c.1.2.4.4.7.3.3-.1.5-.2.8-.3 0 .2.1.4.3.6.1.1.1.1.2.1.2.1.4.1.6 0 .3.2.6.2.9.1.1 0 .2.1.3.1.1.1.2.1.4.2h.1s0 .1.1.1c.1.2.3.4.6.3h.1c.2.3.7.3.9 0 0 0 .1 0 .1-.1 0 .1 0 .2.1.2.1.3.6.5.9.2 0 0 0-.1.1-.1h.2c.2.2.4.2.6.1.2.2.5.3.7.1l.1.1c.1.1.2.1.2.2h-.4c-.2-.1-.5 0-.7.1-.1 0-.1.1-.2.1s-.2 0-.3.1h-.1c-.1 0-.2 0-.3.1-.1.1-.2.1-.3.2v.1c-.4.1-.5.8.1.9h.6c.1.1.2.1.3.1.1 0 .3 0 .4-.1.1.2.2.3.5.3h.3c.1 0 .1.1.2.1h.5c.1 0 .1.1.2.1.2.1.3.1.5 0 .1 0 .2-.1.3-.2l.3-.3v-.1s.1 0 .1.1c.4.2.8.1 1-.2.1-.1.1-.2.1-.4h.5c.2.2.5.3.7.1v.1c.1.2.2.3.4.5.1.1.2.1.3.2.2.3.6.6 1.1.5.1 0 .1 0 .2-.1-.1.3-.2.4-.2.5zm.3-5.2c-.2 0-.3.1-.4.2-.2.2-.3.5-.1.8 0 0 0 .1-.1.1s-.2 0-.2.1c0-.1-.1-.1-.1-.2-.3-.4-.7-.6-1.2-.6h-.6v-.1c-.1-.3-.4-.4-.7-.3h-.1c-.1-.2-.4-.3-.6-.2-.3.1-.4.2-.6.3-.1-.2-.3-.4-.5-.3-.4 0-.7.2-.9.4-.1 0-.1-.1-.2-.1-.2-.1-.4-.1-.5 0-.1-.1-.1-.1-.2-.1-.3-.2-.5-.2-.9-.2-.2 0-.4.1-.4.2-.1 0-.2-.1-.3-.2-.1-.2-.4-.2-.6-.2-.1-.3-.4-.4-.6-.3-.2-.2-.5-.4-.7-.5-.1-.1-.2-.1-.3-.1h-.5c-.2-.1-.3-.1-.5-.1h-.2c0-.1.1-.1 0-.2.3.3.9 0 .9-.3.2.4 1 .2 1-.2v-.1h.1c.5-.3.9-.7 1.2-1.1.1-.1.2-.1.3-.2h.2c.1.2.3.3.5.3.3 0 .3.4.6.5.3.1.5.1.7-.1 0 0 .1 0 .1-.1l.3.3h.6c.2.2.5.2.8.1l.1.1c.3.3.8.3 1.1 0h.1c0 .2.1.3.3.4.3.2.7.1.9-.2v.1c0 .4.5.5.8.4 0 .1.1.2.1.3.1.2.3.3.5.3 0 .1.1.1.1.2-.1.2 0 .4.1.7.1.2.3.2.5.2h.1c.1 0 .1 0 0 0 .1 0 .1 0 0 0zm1.4-3.9c-.1-.3-.5-.4-.8-.3-.1-.1-.3-.2-.4-.2 0-.1 0-.1-.1-.2-.1-.3-.5-.3-.7-.1l-.3-.3c-.2-.3-.6-.3-.9 0-.2-.1-.5-.2-.8-.3-.1 0-.3-.1-.4 0-.1-.1-.1-.1-.2-.1-.2-.2-.4-.1-.6-.1-.1-.1-.3-.2-.5-.2-.1-.1-.2-.1-.4-.2-.1-.1-.2-.1-.4-.2-.2 0-.3 0-.4.1h-.1c-.1-.1-.2-.1-.3-.1h-.1c.1-.3-.2-.6-.5-.6h-1.6c-.1 0-.2-.2-.3-.3l-.6-.3c-.3-.1-.6-.2-.9-.2-.5-.2-1-.4-1.5-.5 0 0 0-.1-.1-.1l-.1-.1h-.1c-.1 0-.1-.1-.2-.1h-.3c-.1 0-.1 0-.2.1l-1.2-.5c-.2-.1-.6 0-.7.2h-.2v-.4l.1.1c.2.1.4.1.6-.1.2.1.4 0 .6-.1.1-.1.2-.1.2-.2.2 0 .3 0 .4-.1l.3-.3h.3c.1 0 .2-.1.3-.2.1 0 .3.1.4 0l.6-.3c.1.1.3.2.5.1.6-.2 1-.6 1.2-1.1.4-.2.8-.2 1.1-.2.4.1.7-.2.7-.5.1 0 .2 0 .2-.1 0 0 .1 0 .1-.1.2.1.5.1.7 0 .1-.1.2-.1.2-.2 0 .2.1.5.3.6.3.3.9.3 1.1-.1.1-.2.2-.4.1-.5V77c0-.2 0-.5-.2-.6 0-.1-.1-.2-.1-.3v-.4c0-.2-.1-.3-.3-.4-.2-.1-.4-.2-.6-.1-.1 0-.2.1-.2.1-.2-.1-.4 0-.5 0 0-.1-.1-.2-.2-.3-.1-.1-.2-.1-.3-.1h-.2c-.1-.1-.1-.1-.2-.1-.1-.1-.2-.2-.4-.2h-.2s0-.1-.1-.1c-.1-.2-.4-.3-.6-.2 0 0-.1 0-.1.1-.1 0-.2-.1-.3-.1-.2 0-.4.1-.5.2h-.1c-.3-.4-.9-.5-1.4-.3-.1 0-.2.1-.2.2h-.3c-.1 0-.2 0-.2.1-.1 0-.2.1-.3.1.2-.1.3-.2.4-.4h.1c.2 0 .4 0 .5-.1.1 0 .1-.1.2-.1s.3.1.4.1c.3 0 .4 0 .6-.1.2 0 .5-.1.6-.3.2 0 .3-.1.5-.1.1 0 .2.1.3.1h.3c.3 0 .5-.2.5-.4.1-.1.2-.3.1-.5s-.4-.3-.6-.3c-.5.2-1.1.3-1.7.4-.2 0-.3.1-.3.2 0 0-.1 0-.1.1h-1c-.1 0-.2.1-.2.1s-.1 0-.1.1h-.4c-.4 0-.8.1-1.1.3h-.3c-.5 0-1 .2-1.4.5-.3-.1-.8.1-.8.4h-.1v-.2c-.1-.2-.4-.4-.7-.4h.1l.1-.1h.1c.5.1.8-.3.6-.6.1 0 .2-.1.2-.1.3.2.6.1.8 0 .3-.1.5-.2.7-.4h.1c.3.1.7 0 .8-.3l.1.1c.3.2.8.1 1-.1.1-.1.1-.1.1-.2.1 0 .1.1.1.2.1.2.4.3.6.2.2-.1.3-.2.4-.4.1.1.3.1.5.1.4.2.7-.1.8-.4.2.1.3.1.5 0 .1 0 .2-.1.4-.1.2.2.4.4.8.4.1 0 .2 0 .3-.1h.1c.2.3.7.3.9.1h.1c.1.1.2.1.4.2.1.1.3.1.4.1.2 0 .4-.1.5-.3.2 0 .3 0 .4-.2.1.2.3.2.5.2.1.1.3.1.5.1h.2c.1.1.2.2.4.3l.1.1c.1.1.3.1.5 0 .1.2.3.4.5.5.1.1.4.1.5 0l.3-.3.2.2c.3.2.8.1.9-.2.1 0 .2-.1.3-.1.2 0 .3-.1.4-.2.2-.1.3-.2.3-.4 0-.3-.1-.5-.4-.6.1 0 .1-.1.2-.1s.2 0 .4-.1c.1-.1.3-.2.4-.3h.1c.3.2.7.2 1 0h.2c.2 0 .5 0 .6-.2.1 0 .2.1.4.1h.1c.2.1.4.2.7.2.2 0 .5-.1.6-.2.3.2.7.3 1.1.2.4.3 1.1.4 1.6.2.2.1.4.1.5.1 0 .1.1.1.1.2.2.2.5.2.7.1.3.2.8.2 1.2.2.2 0 .4 0 .6-.1.3.5.9.8 1.6.8.2 0 .4-.1.5-.3.4.2 1 .3 1.5.3h.1c.1.2.2.3.2.5-.1.1-.2.3-.1.4.1.4.4.6.8.7.1.1.3.2.4.3.1.1.2.3.3.4.1.1.3.1.5.1.1.1.3.3.5.4.2.1.3.1.5 0 .1.1.2.3.3.4.1.2.3.2.5.2l.6.6.3.3h-.1c-.3-.1-.6-.1-.7.2h-.1c-.1-.1-.3-.1-.4-.1-.2 0-.3.1-.4.3h-.1c-.2-.1-.4-.1-.5 0-.3-.1-.6 0-.7.3-.1-.1-.2-.1-.4-.1s-.4.1-.5.2c-.2.1-.3.2-.4.4v.2c-.1-.3-.3-.3-.5-.3 0-.1-.1-.2-.2-.3-.1-.1-.3-.1-.5-.1-.2-.1-.4-.3-.6-.4-.2-.1-.4-.1-.6 0-.1-.1-.1-.2-.2-.3-.1-.2-.4-.3-.6-.2l-.3-.3c-.2-.2-.4-.3-.6-.5-.2-.2-.4-.5-.8-.4h-.1l-.1-.1c-.1-.2-.3-.2-.6-.2-.1-.1-.2-.1-.3-.2-.2-.2-.4-.3-.7-.4-.2-.1-.4 0-.5.1-.1-.1-.2-.1-.3-.1h-.4c-.3-.1-.7-.1-1 .1-.1.1-.2.1-.2.2-.3.1-.5.3-.5.6s.3.5.7.5h.4c0 .1.1.2.1.2.2.2.5.4.9.4.1.2.3.4.5.5.1 0 .3.1.4.1.1.1.2.2.3.2.1.1.3.1.4 0h.3c.1.1.2.1.3.2h.1c.3.2.6.5.9.7.2.1.3.1.5 0 0 0 0 .1.1.1 0 0 0 .1.1.1.1.1.2.2.4.2h.4c0 .1.1.3.2.4.1.1.2.1.4.1.1.1.2.1.3.1 0 .1.1.2.2.3.1.2.4.3.6.2h.1c0 .1.1.2.1.3 0 .3.3.5.6.6 0 .1.1.2.2.3.1.1.3.2.4.2.1 0 .2 0 .2.1 0 .2.2.5.5.5h.1c0 .1 0 .1.1.2.2.3.6.3.8.1h.1c.1.1.3.2.5.1h.2l-.3.3c-.2 0-.3.1-.4.2-.2 0-.4.2-.6.3-.2.1-.4.2-.5.4h-.3c-.2.1-.4.2-.5.3-.2 0-.4.1-.5.2h-.1c-.2.1-.3.3-.3.4-.1.2 0 .4.2.5h-.1l-.1-.1c0-.1-.1-.2-.1-.3-.1-.2-.4-.3-.7-.2-.1-.1-.3-.2-.5-.2h-.3c-.1-.1-.2-.2-.4-.2-.2-.1-.4-.1-.5 0 0-.4-.5-.5-.8-.4 0-.1 0-.3-.1-.4-.1-.3-.6-.4-.9-.2-.1 0-.2-.1-.3-.1 0-.1 0-.2-.1-.3-.1-.2-.3-.2-.4-.3-.1-.1-.3-.2-.4-.1h-.1l-.1-.1c-.1-.1-.3-.2-.4-.2 0-.1-.1-.1-.1-.2-.1-.1-.2-.1-.3-.2-.1-.1-.1-.3-.2-.4-.1-.2-.4-.3-.7-.2-.2-.1-.5-.2-.8-.2-.3 0-.6.2-.5.5 0 .1 0 .2.1.3-.1 0-.2-.1-.4-.1-.4-.2-.9-.1-1.1.2h-.1c-.1 0-.1.1-.2.1-.2 0-.4.2-.4.5s.2.6.6.7h.4c0 .1.1.1.2.2s.3.2.4.2c.2.3.5.6.9.7 0 0 0 .1.1.1.2.3.5.4.8.3.1.3.3.5.7.4 0 .3.3.6.7.5.1 0 .2 0 .3-.1.1 0 .1-.1.1-.1.1.2.4.4.7.3.1.1.1.2.2.3 0 .1-.1.1-.1.2-.1-.1-.3-.1-.4 0-.1 0-.1-.1-.2-.1h-.2c-.1 0-.1 0-.2.1s-.2.2-.2.3v.1c0 .1 0 .2.1.2v.1h-.4c-.1 0-.2 0-.2.1h-.3c-.3.1-.5.2-.7.4-.1.1-.3.3-.5.4-.1 0-.3 0-.4.1h-.4c-.1-.2-.3-.5-.5-.6-.3-.1-.5-.4-.8-.5v-.1c-.1-.4-.6-.4-.9-.2.1-.1 0 0 0 0-.1-.2-.4-.4-.7-.3-1.2-.4-1.5-.4-1.7-.3zm12.6 7c-.9-.1-1.7.1-2.5.3-.5.1-1 .2-1.5.4h-.2c-.8.1-1.5.2-2.3.5-.7.1-1.3.1-2 .1-.1 0-.2 0-.3.1-.4-.1-.9 0-1.2.1 0 0-.1 0-.1.1-.1 0-.3-.1-.5-.1.4-.1.5-.6.1-.8l-.1-.1c-.1 0-.1-.1-.2-.1l-.1-.1v-.3c-.2-.4-.5-.8-.9-1 0-.1-.1-.1-.2-.2s-.1-.1-.2-.1v-.1h.4c.4 0 .8-.2.9-.6 0-.1 0-.2.1-.3.3 0 .7 0 1-.1.1.1.2.1.3.1.3.1.7.1 1 .2.3.1.6.2.9 0 .1 0 .2-.1.2-.2.2-.1.3-.2.3-.4 0-.1 0-.2-.1-.3v-.1c.1 0 .1.1.2.1.2 0 .4 0 .5-.1.1 0 .2.1.3.1l.1.1c.1.2.3.4.5.4 0 0 0 .1.1.1.1.1.2.2.4.2.3 0 .5-.1.7-.1.2 0 .3-.1.4-.2.3.1.6 0 .9-.2.1.1.2.1.3.1.8.2 1.5.3 2.3.2h.8s0 .1.1.1c.1.2.2.3.4.3 0 .1.1.1.1.1-.4.7-.7 1.2-.9 1.8zm1.8-2.2l-.2-.2c-.1-.1-.1-.2-.1-.3-.1-.3-.4-.4-.7-.3h-.1c-.1-.2-.3-.3-.5-.3-.1 0-.2 0-.2-.1-.1-.2-.2-.3-.4-.4-.1-.1-.3-.1-.5 0l-.1-.1c-.1-.1-.3-.1-.4-.1-.1-.1-.1-.2-.3-.3-.1-.1-.3-.1-.4-.1h-.2c.1 0 .3-.1.3-.2.1-.1.1-.2.2-.3h.2c.3.2.8.1.9-.2v-.1h.4l.1.1c.1.1.2.2.4.3.1 0 .2.1.3.1 0 0 .1 0 .1.1v.1c.2.2.5.3.8.2v.1c-.2.2-.1.5.2.6l.8.3c.2.1.3.1.5 0 .1 0 .1-.1.2-.1h.3c-.7.2-1.2.7-1.6 1.2zm6.6-8.9l-.3 1.8-1 1.9c-.1.2 0 .4.1.5-.5.4-1 .9-1.5 1.4l-.1.1c-.1.1-.1.1-.1.2 0 0-.1 0-.1.1 0-.2-.2-.3-.4-.3-.1-.1-.2-.1-.4-.1h-.1v-.5c0-.2-.2-.4-.5-.5h-.1V86c-.1-.4-.5-.5-.8-.3v-.2c0-.4-.7-.6-1-.3h-.1l-.2-.2c.1-.1.2-.2.1-.3h.2c.1 0 .3.1.4 0 .1.2.2.3.5.3.2 0 .4-.1.5-.2.1 0 .3-.1.4-.1h.3c.2 0 .3-.1.4-.2.3.1.8 0 .8-.4.1 0 .2 0 .3-.1.2 0 .4-.1.6-.2.2-.1.4-.2.4-.4.1 0 .2 0 .4.1h.1c.4.1.6-.2.7-.4v-.2c0-.1 0-.1-.1-.2 0-.1 0-.3-.1-.4-.1-.3-.4-.4-.7-.3h-.1c-.1 0-.1 0-.2.1-.1 0-.1-.1-.2-.1s-.2-.1-.4 0h-.5c-.1-.1-.2-.2-.4-.2h-.1v-.4s0-.1.1-.1c0-.1.1-.1.1-.2V81c0-.1 0-.1-.1-.2 0-.1-.1-.1-.2-.2-.1 0-.1-.1-.2-.1h-.2c0-.1 0-.1-.1-.2 0-.1-.1-.1-.2-.2h.1c.1 0 .2-.1.3-.2 0 0 0-.1.1-.1.1.5 1 .5 1.1-.1v-.1c.2-.1.2-.3.2-.5.1-.1.3-.3.3-.5.1 0 .2-.1.2-.1l.1-.1c.2-.1.4-.3.5-.5l.3.6s0 .1.1.1c0 .1.1.1.2.2 0 0 0 .1.1.1 0 .1.1.2.2.2.1.6.1 1.1.1 1.7 0 .3.3.4.5.4-.3.2-.3.2-.3.3z" />
		<path class="prefix__prefix__st1"
			d="M137.8 79.9c.2-.9.1-2 .8-2.6.8-.7 1.7-1.5 2.5-2.2.4-.3.7-.6 1-1 .2-.3.3-.7.6-.9.3-.2.8-.2 1.2-.2.4-.1.7-.2 1-.4.3-.2.5-.6.8-.9.4-.3.8-.4 1.3-.5.8-.2 1.7-.3 2.5-.4 1.6-.3 3.2-.7 4.3-2 .6-.7-.5-1.8-1.1-1.1-1.1 1.4-3 1.6-4.7 1.8-.9.1-1.8.2-2.7.6l-.9.6c-.2.2-.3.5-.5.6-.2.1-.5.1-.6.1-.8.1-1.5.2-2 .9-.2.4-.4.7-.7 1.1-.4.4-.8.7-1.2 1.1-.8.7-1.7 1.3-2.4 2.2-.6.8-.6 1.9-.8 2.8 0 .9 1.4 1.3 1.6.4z" />
		<path class="prefix__prefix__st1"
			d="M153 68.9c4.1-.5 8.2-1.1 12.3-1.2 2.1 0 4.1 0 6.2.2 1.9.2 3.7.9 5.7 1.1 2.2.2 4 .8 6.1 1.6.9.3 1.9.7 2.8 1.1 1 .4 1.8 1.1 2.7 1.7.8.6 1.6 1.1 2.5 1.7.4.3.9.5 1.2.9.5.5.4.6.4 1.3 0 .6.5 1 .9 1.4.7.8 1.5 1.6 2.2 2.4.1-.4.2-.8.3-1.3-.9.3-1.4 1-1.4 1.9 0 .6.2 1.1.3 1.6.3.9.3 1.1-.5 1.6-1.2.7-.5 1.8-.9 2.8-.3 1-1.3 1-2.1 1.5-.5.3-.9.8-1.2 1.2-.6.7-1.2.7-2.1.9-.5.1-.9.3-1.3.6-.5.4-.8 1-1.3 1.4-.8.7-1.7.4-2.6.5-1.5.1-2.2 1.1-3.6 1.5-1.5.4-2.9 0-4.4.7-1.3.6-2.1 1.9-3.6 1.2-1.2-.6-2-.8-3.2-.1-.8.4-1.4.7-2.3.3-.7-.3-1.2-.8-1.9-1.1-1-.5-2.3-.7-3.3 0-.4.3-.5.7-.8 1.1-.6.8-1.5.6-2.4.1-1.1-.6-1.8-1.6-3.1-1.9-1.2-.3-3.3.7-4.1-.4-.3-.5-.4-1-1-1.3-.5-.3-1.1-.3-1.7-.4-1.7-.1-2.5-1.3-3.8-2.2-1.1-.8-2.6-.9-3.8-1.6-.7-.5-.7-1.2-1.1-1.8-.5-.7-1.4-.8-1.7-1.8-.6-1.8-.4-4.2-.2-6.1.1-1-1.4-1-1.5 0-.2 1.8-.2 3.6.1 5.5.1.6.2 1.3.5 1.9.4.8 1.4 1 1.8 1.8.5 1 .8 1.6 2 2 1.4.6 2.7.9 3.8 1.9.9.8 1.8 1.6 3 1.8.6.1 1.5-.1 2 .4s.5 1.1 1.2 1.5c1.3.7 2.7-.2 4.1.1 1.4.3 2.2 1.7 3.5 2.1 1 .4 2.3.5 3.1-.4.6-.5.6-1.4 1.5-1.5.9-.1 1.8.8 2.5 1.2 1 .6 2.1.9 3.2.4.9-.4 1.4-1 2.4-.5.6.3 1.1.7 1.9.7 1.2 0 2-.8 3-1.4 1.5-1 3.3-.4 4.9-1 .6-.2 1.1-.7 1.7-1 .9-.4 1.8-.2 2.7-.3 1.4-.1 2-1 2.9-1.9.8-.7 1.7-.5 2.6-.9.6-.3 1-.7 1.5-1.2.2-.3.4-.6.7-.8.5-.3 1-.3 1.5-.6s.9-.7 1.1-1.3c.3-.7.1-1.3.3-2 .2-.7.9-.7 1.3-1.3.3-.5.3-1.2.2-1.7-.1-.5-.9-2.1-.1-2.3.5-.2.7-.8.3-1.3-.7-.8-1.6-1.5-2.2-2.4-.4-.5-.2-.7-.4-1.3-.1-.2-.1-.4-.2-.6-.4-.7-1.2-1.1-1.8-1.5-1-.7-1.9-1.3-2.9-2-1.6-1.1-3.1-1.9-5-2.6-2-.7-4-1.6-6.1-1.9-1.1-.1-2.2-.2-3.3-.5-.9-.3-1.8-.5-2.7-.6-2-.3-4.1-.3-6.2-.3-4.4 0-8.9.7-13.3 1.2-.8.1-.8 1.6.2 1.5z" />
		<path class="prefix__prefix__st1"
			d="M139.1 90.7c3.3 2.4 6.4 5.1 9.9 7.2 3.5 2.1 7.9 3 11.9 3.5 4.5.6 9.1.5 13.6-.1 2-.3 4.1-.5 6.1-1.2 1.8-.6 3.2-1.8 4.7-3.1.9-.8 1.7-1.5 2.7-2 1-.5 2.1-1 3-1.6 1.7-1.1 3.1-2.7 4-4.5.4-.9-.9-1.6-1.3-.8-.8 1.7-2.1 3-3.6 4.1-1.5 1-3.2 1.6-4.7 2.7s-2.7 2.6-4.4 3.4c-1.8.9-4 1.1-6 1.4-4.2.6-8.5.7-12.7.3-4-.4-8.4-1.2-12-3.1-3.7-2.1-7-5-10.5-7.6-.7-.5-1.4.8-.7 1.4z" />
		<path class="prefix__prefix__st1"
			d="M141.3 79.8c.5-1 1.7-2.5 1.6-3.6 0-.4-.5-1 0-1.4.4-.3 1.5.3 2 .2.8-.2 1.2-.9 1.5-1.6.4-.8.7-1 1.5-.7.4.1.9.3 1.4.3 1.1 0 1.4-.8 2-1.5 1-1.1 2.5-1.7 4-1.7 1.3 0 2.7.2 4 .1 1.5-.2 2.8-.8 4.3-.8 1.4.1 2.8.5 4.2.6.8.1 1.5 0 2.2.1.8.1 1.6.5 2.3.8 2.6 1 5.4 1.1 8.1 1.7 1.1.2 2.2.8 3.3.7 1-.1 1.2.3 1.5 1.1.2.4.4.7.8 1 1 .6 2.2.9 3.2 1.7 1.1.9 1.9 2 2.3 3.3.9 2.8-.5 5.7-2.9 7.3-1.8 1.3-4.2 2.3-4.8 4.7l.5-.5c-4.6 1.2-9.3 1.6-14 2.1-2.2.2-4.3.6-6.5 0-2-.6-4-.4-6-.4-1.1 0-2.2.1-3.3 0-1.2 0-2-.4-2.8-1.3-1.2-1.4-2.9-1.4-4.3-2.4-.7-.5-1.2-1.1-2.1-1.5-1-.4-1.7-1-2.3-1.8-1.4-1.7-3.3-4-2-6.2.5-.8-.8-1.6-1.3-.8-1.7 3 .5 6.1 2.4 8.3 1.1 1.3 2.7 1.8 4 2.9 1.2 1 3.1 1.1 4.2 2.2 1.1 1.2 1.8 1.8 3.5 2 1.9.2 3.8 0 5.7 0 1 0 2 0 3 .2.8.2 1.6.5 2.5.6 1.9.2 4-.3 6-.5 4.6-.5 9.2-.9 13.7-2.1.2-.1.5-.3.5-.5.6-2.4 3.8-3.3 5.5-4.9 1.8-1.7 2.8-4.2 2.4-6.7-.3-2.4-1.8-4.4-3.8-5.8-.6-.4-1.2-.6-1.8-1-.5-.2-.7-.1-1-.8-.1-.2-.1-.5-.3-.8-.5-.8-1.6-1.2-2.5-1.2-1.3.1-2.7-.6-4-.8-1.5-.3-3.1-.4-4.6-.7-1.5-.3-2.9-1.1-4.4-1.4-1.6-.4-3.4-.2-5-.5-1.5-.3-2.8-.4-4.3-.1-.7.1-1.3.4-2 .5-1 .2-1.9.1-2.9 0-1.4-.1-2.7-.1-4.1.5-1.2.5-2 1.3-2.9 2.3-.5.6-1 .2-1.7 0-.6-.2-1.2-.2-1.8 0-.5.2-.8.6-1 1.1-.1.1-.1.3-.2.5-.1.5-.4.7-1 .6-.2-.1-.3-.1-.5-.1-1-.2-2 .4-2.4 1.3-.2.5-.1.9 0 1.4.2 1.1-.7 2.2-1.2 3.1-.2 1 1.1 1.8 1.6.9z" />
		<path class="prefix__prefix__st1"
			d="M140.5 80.2c-.5 1.1 1.2 1.6 1.5.5-.2.1-.4.1-.6.2.5.2 1 .1 1.3-.3-.2-.1-.4-.3-.6-.4-.2.4 0 1 .6 1 .5 0 .8-.5.7-1-.2-.4-.8-.1-.7.3.3.8 1.4.9 1.7.1-.2-.1-.5-.2-.7-.3-.2 1 1.3 1.3 1.4.3.1-.3-.4-.7-.6-.4-.3.4-.2.9.3 1.1.5.2 1-.3 1.1-.7.1-.4-.5-.7-.7-.3-.2.4 0 .9.5 1 .5.1 1-.2 1.1-.7.1-.3-.4-.7-.6-.4-.3.4-.3 1 .2 1.2.5.2 1 0 1.2-.5-.2 0-.5.1-.7.1.1.3.4.6.7.7.3.1.7 0 .8-.4.2-.4-.3-.8-.6-.5-.3.3-.2.8.2 1 .4.2.8 0 1.1-.3.3-.3-.2-.9-.5-.5l-.1.1c-.1.1-.1.2-.1.3-.2-.2-.4-.3-.6-.5-.1.1-.3-.3-.3-.3-.1-.3-.6-.2-.7.1 0 .1-.1 0-.1 0-.2-.1-.4-.2-.6-.4 0 .1-.1.1-.2.3-.2-.1-.5-.2-.7-.3 0 .1-.2.3-.2.4-.2-.1-.4-.2-.6-.4v.1c.1-.4-.5-.7-.7-.3-.1.1-.3.3-.4.1-.2.1-.5.2-.7.3l.1-.1c.2-.4-.4-.8-.6-.4-.1.1-.2.1-.3 0-.2-.1-.5 0-.6.2 0 .1-.1.1-.1.1.3-.1-.3-.5-.6-.1zm1.9-2.5l.1.1c-.1.4.5.4.7.2.1-.1.3 0 .3.1.2.3.6.2.7-.1-.1 0-.2-.1-.2-.1-.2.4.3.7.6.5.1-.1.3 0 .3.1.2-.1.4-.2.6-.4 0 .2.1.3.1.5.1.3.6.4.7 0 .1.1.1.2.2.3.2.3.7.2.7-.2v-.3c-.2.1-.3.2-.5.3.2 0 .3.1.3.3.1.3.5.3.7.1h.1c0 .5.7.5.8 0V79c0 .1-.1.2-.1.3.1 0 .2.1.2.2.2.3.7.2.7-.2V79c-.1.1-.2.2-.3.4.1 0 .1.1.2.1.1.3.7.4.7 0h.1c0 .4.5.5.7.2 0-.1.1-.2.1-.3-.2 0-.3.1-.5.1.2.1.3.2.3.4.1.4.7.3.7-.1v-.3l-.4.4c.2 0 .3.1.3.3.1.4.6.3.7 0 0-.1.1-.2.1-.3-.1.1-.2.2-.4.3h.1c.1.2.3.2.5.1.1 0 .2-.1.3-.1.4-.2 0-.9-.4-.6-.1 0-.2.1-.3.1.2 0 .3.1.5.1-.2-.3-.4-.4-.7-.4-.2 0-.3.1-.4.3 0 .1-.1.2-.1.3h.7c-.1-.5-.5-.8-1-.8-.2 0-.4.2-.4.4v.3c.2 0 .5-.1.7-.1-.1-.4-.3-.7-.6-.9-.2-.1-.4 0-.5.1 0 .1-.1.2-.1.3.2.1.5.1.7.2 0-1-1.4-1.1-1.6-.2h.7c-.1-.5-.6-.7-1.1-.6-.2 0-.3.2-.3.4v.3c.2-.1.5-.1.7-.2-.2-.3-.5-.6-.9-.6s-.6.3-.6.6h.8c0-.8-1-1-1.5-.4.2 0 .5.1.7.1-.1-.4-.4-.7-.9-.8-.2-.1-.4.1-.5.3 0 .2-.1.3 0 .5.2-.1.5-.1.7-.2-.2-.3-.4-.7-.9-.7-.3 0-.6.2-.7.5h.7c-.1-.5-.5-1-1.1-.8-.4.1-.7.7-.3 1 .3.3.7 0 .6-.4-.2-.7-1.1-.9-1.6-.4.2.2.4.3.6.5.4-.8-.8-1.3-1.1-.4.2 0 .5-.1.7-.1-.3-.6-1.2-.6-1.6-.1.2.1.5.1.7.2.1-1.1-1.8-1.1-1.6.1.5.3 1.2.1 1.1-.4zm9.6 4.8c0 .8 1.1.9 1.4.2-.2 0-.5.1-.7.1.4.5 1.7 1.6 2.1.5h-.7c.1.4.3.8.8.9.4 0 .7-.2.7-.6l-.6.3c.4.3 1 .5 1.4 0 .3-.3.2-.8-.1-1-.2-.1-.6 0-.6.3 0 .5.3 1 .9 1.1.5.1.9-.2 1-.7h-.8c.1.4.2.9.7 1.1.4.1.9-.1.9-.5h-.7c.1.3.3.7.7.8.3.1.7-.1.8-.4h-.6c.3.5 1.2 1.2 1.7.5h-.5c.2.3.3.6.7.7.3.1.6 0 .7-.3h-.6c.2.4.6.7 1.1.6.4-.1.6-.5.4-.9-.2-.4-.9 0-.6.4-.1-.1-.2-.3-.2-.4-.1-.2-.5-.3-.6 0 .1-.2.1-.1 0-.3-.1-.1-.1-.2-.2-.3-.1-.1-.4-.2-.5 0-.2.2-.5-.2-.6-.3-.1-.2-.5-.3-.6 0l-.1-.2c-.1-.3-.6-.4-.7 0 0 0-.1-.2-.1-.4-.1-.5-.7-.5-.8 0h-.2c-.1-.1-.1-.2-.1-.3l-.6.3c-.1-.1-.1-.2-.3-.2-.1 0-.2-.1-.2-.1-.3-.2-.5.1-.6.3.1-.1.1-.1 0-.2 0-.1-.1-.2-.1-.3-.1-.4-.6-.3-.7 0 .1-.1.1-.1 0-.1s-.2-.1-.2-.1c-.2-.1-.4-.3-.5-.5-.2-.3-.6-.2-.7.1h.1c-.3-.6-1.1-.6-1-.1z" />
		<path class="prefix__prefix__st1"
			d="M161.6 85.3c-.5.9.6 1.6 1.3 1l-.6-.3c-.1.9 1 1.3 1.6.8-.2-.1-.4-.3-.6-.4-.1.3 0 .6.3.8.4.2.8 0 1.1-.2-.2-.1-.4-.1-.6-.2.2.8 1.3.9 1.7.2-.2-.1-.5-.1-.7-.2.1.8 1 1.2 1.6.8-.2-.1-.4-.1-.6-.2.4.9 1.4 1 2 .2.3-.3-.3-.8-.6-.5-.3.3-.3.7 0 1 .3.4.9.3 1.3.2l-.5-.5c-.3.7.4 1.4 1.1.8-.2-.1-.4-.2-.6-.4-.1.5-.1 1.2.5 1.4.4.2 1 0 1.1-.5.1-.5-.6-.6-.7-.2-.1.2-.1.4 0 .6 0 .2.2.3.4.3h1.1c.5 0 .5-.8 0-.8h-1.1c.1.1.2.2.4.3v-.2c-.2-.1-.5-.1-.7-.2 0 .1-.2-.1-.2-.1-.1-.1 0-.3 0-.4.1-.4-.4-.6-.6-.4.1 0 .2 0 .2-.1.1-.3-.2-.5-.5-.5-.1 0-.5 0-.6.1-.2-.2-.4-.3-.6-.5-.1.2-.5.2-.6-.1-.1-.2-.3-.4-.6-.2-.1.1-.5.1-.5-.1 0-.3-.5-.5-.7-.2h-.3c-.1-.2-.3-.4-.6-.2-.1.1-.2.1-.3.3.1-.3-.3-.6-.6-.4-.2.1-.5.1-.5-.2 0-.3-.3-.5-.6-.3-.1.1-.2.1-.3 0 .6-.4-.1-.8-.3-.3zm-5.8-4.4c.3 0 .5 0 .8-.1-.1.3.4.7.6.4v-.1c0 .4.5.5.7.2.1-.2.8.4.9.5.1 0 .5 0 .5.1 0 .3.2.4.5.4.4-.1.8 0 1.2.3.1.1.3.1.5.1 0 0 .1 0 .1.1s.2.3.4.3c.6-.1.9.2 1.4.3.1 0 .6.1.6.1 0 .3.4.6.6.3.1-.1.2-.1.3 0 0 .3.3.5.6.3.1 0 .3.1.4.1 0 .4.6.5.7.1 0 0 2 1.2 2.3.6-.1.3.1.7.4.6h.2c0 .4.5.5.7.2-.1.4.4.6.6.4.1 0 .1-.1.2-.1-.1.4.5.7.7.3 0 0 0-.1.1-.1 0 .2.2.5.5.4.1-.1.2-.2.4-.3-.3.4.2.9.5.5.1-.1.3-.1.4-.2-.1-.1-.3-.1-.4-.2-.3.3.1.9.5.6.1-.1.2-.3.2-.4-.3.2-.2.6.1.7.4.2.9.3 1.3.5-.1-.2-.1-.4-.2-.6-.1.1-.2.3-.4.4-.3.4.2.9.5.5.1-.1.2-.3.4-.4.2-.2.1-.5-.2-.6-.4-.2-.9-.3-1.3-.5 0 .2.1.5.1.7.9-.5-.2-1.5-1-.9.2.2.3.4.5.6.3-.3.3-.6.1-.9-.1-.2-.3-.2-.4-.2-.3 0-.5.2-.8.4l.5.5c.6-.8-.4-1.2-1.1-.9.2.1.3.2.5.4-.1-.8-1.1-1.1-1.4-.3.2.1.5.2.7.3.2-1-.8-1.2-1.5-.6.2.1.4.2.6.4.2-.9-.9-1.2-1.4-.5.2.1.5.1.7.2 0-.6-.6-1-1.2-.8.1.2.3.4.4.6 0 0 0-.1.1-.1.1-.1.1-.3 0-.4-.2-.3-.4-.4-.8-.5h-.7c-.4-.1-.6-.3-.9-.5-.5-.2-1.2-.3-1.4.4.2 0 .5.1.7.1.1-.8-.9-1.2-1.5-.8l.6.3c0-.8-1.1-1.1-1.6-.5l.6.3c-.1-.5-.3-.7-.8-.8-.6-.2-1.2-.4-1.9-.3.1.1.2.2.4.3-.1-.6-.8-.8-1.2-.5.2 0 .3 0 .5.1-.6-.5-1.2-.6-1.9-.4.2.1.3.2.5.4 0-.8-.6-.7-1.1-.9-.4-.2-.6-.5-1-.5-.3 0-.6.2-.7.5.2.1.5.1.7.2-.1-.7-.9-1-1.3-.4.2.1.4.2.6.4.3-1.2-1.1-1.1-1.9-.8-.4-.8 0-.1.4-.3zm-11.2 3.9c.1-.2.1-.4.2-.5-.1.1-.2.1-.3.2 0 0 .1 0 .1.1.2.3.7.2.7-.2 0 0 .1 0 .1-.1.2.1.5 0 .6-.2.3-.8 1.1-.6 1.6-1 .6-.4 1.2-.7 1.9-.9.1 0 .3-.2.3-.4 0-.1.1-.2.1-.3h-.4c.1.1.3.2.4.3.3.2.7-.1.6-.4.1 0 .1 0 .2-.1.2.1.5 0 .6-.2.1-.2.2-.3.4-.2.2 0 .5-.1.5-.4 0-.1 0-.2.1-.3-.1.1-.2.2-.4.3.4 0 .7 0 1 .1.3.1.5-.2.5-.5 0 .1 1.6-.8 1.6-1 0 .5.7.5.8 0h.4c.3.2.6-.1.6-.4l-.1-.1c.1.2.3.2.5.1.4-.2 1.1-1 1.6-.8.3.1.5 0 .6-.3h.1c.1.1.3.1.5-.1.2-.3.4-.4.8-.4.5-.1.5-.8 0-.8-.5.1-.9.2-1.3.6.2 0 .3 0 .5-.1-.6-.3-1.2 0-1.3.6l.6-.3c-1-.5-1.5.4-2.4.8.2 0 .3.1.5.1-.2-.3-.5-.4-.9-.3-.4.2-.5.6-.4 1 .2-.1.4-.3.6-.4-.6-.4-1.4-.1-1.5.7h.8c-.1-.9-1.1-.5-1.6-.2-.2.2-.5.4-.7.4-.2.1-.3.1-.5.2-.3.2-.4.5-.3.8l.5-.5c-.4-.1-.8-.2-1.2-.1-.2 0-.3.1-.4.3-.1.3-.1.3-.1.5.2-.1.3-.2.5-.4-.6-.1-1.2.1-1.4.8.2-.1.4-.1.6-.2-.6-.3-1.6.2-1.3.9.2-.1.4-.3.6-.4-.1-.1-.3-.2-.4-.3-.1-.1-.3-.1-.4 0-.3.2-.5.5-.5.9.1-.1.2-.2.3-.4-.4.1-.9.3-1.3.5s-.7.5-1.1.6c-.8.3-1.3.4-1.7 1.3.2-.1.4-.1.6-.2-.6-.2-1.3 0-1.3.7.2-.1.5-.1.7-.2-.2-.3-.4-.4-.8-.4-.1 0-.3.1-.3.2-.2.3-.2.6-.3.9-.3.6.4.6.4.1z" />
		<path class="prefix__prefix__st1"
			d="M146.5 85.9c.7.4 1.6-.1 1.4-.9-.2.1-.4.3-.6.4.6.4 1.7-.1 1.4-.9-.1.2-.2.3-.3.5.5-.1.8-.4.8-.9-.2.1-.3.2-.5.4.3.1.5.1.8 0 .2 0 .3-.2.3-.4v-.5l-.4.4c.5-.1.9-.3.9-.9l-.6.3c.6.3 1.4.1 1.6-.6l-.3.3c1-.3 3.1-.5 3.3-1.8l-.6.3c.6.3 1.3-.1 1.2-.8l-.5.5c.7.2 1.5-.1 1.6-.9-.2.1-.4.1-.6.2.6.4 1.4.1 1.6-.6-.2.1-.4.1-.6.2.7.3 1.5 0 1.5-.8l-.4.4c1.1-.1 1.9-.6 2.8-1.1.5-.2.8-.6 1.4-.8.8-.3 1.5-.4 2.3-.6.5-.1.3-.8-.2-.7-1.2.2-2.4.5-3.5 1.1-.9.5-1.7 1.3-2.8 1.4-.2 0-.4.2-.4.4-.1 0-.3.1-.4.1-.2-.1-.5 0-.6.2-.2 0-.3.1-.5.1-.2-.1-.5 0-.6.2-.1.4-.4.5-.7.3-.3-.1-.5.2-.5.5l-.1-.1c-.3-.1-.5 0-.6.3-.1.5-1.9.8-2.3.9-.2.1-.4.1-.6.2-.2.1-.2.5-.5.3-.2-.1-.6 0-.6.3l-.2.2c-.2 0-.4.2-.4.4v.5c.1-.1.2-.2.3-.4h-.4c-.2-.1-.5.1-.5.4-.1.1-.2.1-.2.2-.2 0-.3.3-.3.5-.1 0-.2.1-.3.1-.3-.2-.6.1-.6.4 0 .1-.1.2-.3.1.3-.2-.1.5.3.7zm-1.8-11.4c-.2.4-.1 1 .4 1.2.4.1 1-.2 1-.6 0-.3-.4-.5-.6-.3-.3.3-.2.8.2 1 .4.2.9 0 1-.4h-.7c.2.8 1.5.8 1.7 0 .1-.4-.3-.6-.6-.4-.4.3-.1.9.3 1 .5.2.9-.2 1-.7-.2-.1-.5-.1-.7-.2-.1.4 0 .7.4.9.3.2.7.1.9-.1-.2 0-.4-.1-.6-.1.4.7 1.5.6 1.8-.2-.2 0-.5-.1-.7-.1 0 .4.3.7.7.7.4 0 .8-.2 1-.6-.2-.1-.5-.2-.7-.3-.3.7.8 1.1 1.2.5.2-.4-.4-.8-.6-.4.1 0 .1.1.2.1.2-.4-.5-.6-.7-.3-.1.1-.1.2-.2.2h-.2c0-.4-.6-.5-.7-.1-.1.2-.3.2-.4 0-.1-.2-.4-.3-.6-.1v-.1c.1-.5-.6-.7-.7-.2 0 .1-.1.1-.1.2s.2.1 0 .3c-.2-.1-.4-.2-.6-.4 0 .1-.2.2-.2 0-.1-.4-.6-.3-.7 0 0-.1.1-.1.1.1l-.6-.3c.1-.1.1-.1 0-.1v-.1c-.2-.2-.8-.6-1-.1zm4.9 4.5c1.3-.4 2.2-1.1 3.1-2 .3-.2.6-.5.9-.6.3-.1.7-.1 1-.2.5-.1.8-.5.8-.9-.2.1-.3.2-.5.4.9.4 1.8-.5 2.6-.9.6-.2 1.2 0 1.5-.8-.2.1-.3.2-.5.3.5.2 1.1-.1 1.3-.6-.2.1-.4.1-.6.2.1.1.2.1.4.2s.3 0 .5-.1c.1-.1.6 0 .7 0 .2 0 .4-.1.5-.2.2-.3.2-.6 0-.9l-.3.6h1.7c.5 0 .5-.7 0-.8H161c-.3 0-.5.4-.3.6-.4-.4-.8-.3-1.2 0 .2 0 .3 0 .5-.1-.1-.1-.2-.1-.4-.2s-.5 0-.6.2c-.1.2-.2.2-.4.1s-.4.1-.5.3c-.1.4-.5.1-.7.2-.2 0-.4.2-.6.3-.5.3-1.2.9-1.8.7-.2-.1-.5.2-.5.4 0 .3-1.3.4-1.6.5-.4.2-.7.4-1 .7-.8.8-1.6 1.4-2.7 1.8-.3.2-.1.9.4.8z" />
		<path class="prefix__prefix__st1"
			d="M147.7 78.6c1 0 1.5-.8 2.2-1.4.5-.4 1-.7 1.5-1 .5-.3.6-.3.8-.9l-.3.3c.1 0 .9-.3.9-.3.1.2.4.1.5 0 .5-.4 1-.6 1.5-.8.2-.1.3-.2.3-.4h.2c.2.1.4.1.5 0 .4-.4.9-.5 1.4-.6.6-.1 1.2-.3 1.8-.4 1.2-.3 2.5-.7 3.7-.7.5 0 .5-.8 0-.8-1.4 0-2.8.5-4.2.8-1.1.3-2.5.4-3.3 1.2h.5c-.5-.5-1.5-.2-1.5.5.1-.1.2-.2.3-.4-.7.2-1.3.5-1.9 1h.5c-.5-.6-1.1 0-1.6.1-.1 0-.2.1-.3.3-.1.3-.4.4-.7.6-.3.2-.7.4-1 .7-.6.5-1.2 1.4-2 1.4-.2.1-.2.9.2.8z" />
		<path class="prefix__prefix__st1"
			d="M146.1 74.2c0-.1.2-.3.1-.3.1.2.3.3.5.1.3-.2.6-.3.9-.5.2-.1.3-.2.5-.2.1 0 .2-.1.2-.1h.1c.2.2.5.1.6-.1.1-.1.1-.1.2 0 .1.2.4.2.6.1.1 0 .1-.1.1-.2.1.2.3.4.6.2.4-.2.6.2.9.3.3.1.5-.1.7.2.2.4.7.1.7-.2h-.2c.1.2.2.3.4.3.4.1.8.2 1.2.4.4.2.8-.4.4-.6-.5-.3-1-.4-1.6-.5.1.1.2.2.4.3-.2-.7-1.2-.6-1.2.2.2-.1.5-.1.7-.2-.2-.5-.8-.7-1.3-.5.1 0 .2.1.4.1-.5-.4-1.1-.8-1.7-.4.2.1.4.1.6.2-.2-.7-1-.5-1.4-.2.2 0 .4.1.6.1-.3-.6-1.2-.6-1.5 0 .2 0 .4-.1.6-.1-.3-.3-.7-.2-1.1-.1-.5.2-1.1.5-1.5.8.2 0 .3.1.5.1-.4-.7-1.2-.2-1.4.3-.4.5.2.9.4.5zm8.9 1.1c-.1.8.9 1.1 1.4.8-.2-.1-.4-.1-.6-.2.2.7 1 .8 1.5.4l-.6-.3c.1.9 1.2 1.1 1.6.3-.2 0-.4.1-.6.1.4.3.8.4 1.3.1-.2-.1-.4-.1-.6-.2.2.6.9.8 1.4.4-.2-.1-.4-.1-.6-.2.2.5.7.7 1.2.4-.2-.1-.4-.1-.6-.2.2.6.9.7 1.4.3-.2-.1-.4-.1-.6-.2.2.6.6.5 1.1.6.5.1.9.2 1.4.2.5 0 .9 0 1.4-.1l-.5-.5c-.1.8.9 1.2 1.4.7-.2-.1-.4-.2-.6-.4-.1.3-.1.3 0 .6.1.2.2.3.4.3.3 0 .5 0 .8-.2-.2-.1-.4-.1-.6-.2.2.8 1.3.9 1.7.3-.2-.1-.5-.1-.7-.2v.4c0 .2.2.3.4.4.4 0 .6 0 .9-.2-.2-.1-.4-.1-.6-.2.2.7 1 .9 1.6.6-.2 0-.3-.1-.5-.1.3.4.6.6 1.1.6.5 0 .5-.7 0-.8-.2-.1-.3-.2-.5-.3-.1-.2-.3-.2-.5-.1s-.3.1-.5-.1c-.1-.2-.3-.3-.6-.2-.2.1-.4.1-.6.1l.4.4V78c0-.4-.5-.5-.7-.2-.1.1-.2.1-.3-.1-.1-.2-.3-.3-.6-.2-.1 0-.3.1-.4.1.1.1.2.2.4.3v-.2c.1-.4-.3-.6-.6-.4h-.2c0-.3-.2-.5-.5-.5-.6.1-1.2.1-1.8 0l-1.1-.2c-.1-.3-.4-.4-.6-.2h-.1c-.1-.2-.3-.4-.6-.2l-.1.1c-.1-.2-.3-.4-.6-.2h-.3c-.1-.2-.3-.4-.6-.2h-.3c-.2-.1-.5-.2-.6.1-.1 0-.1 0-.2.1 0-.3-.4-.5-.6-.3-.1.1-.2 0-.3 0-.1-.2-.3-.4-.6-.2-.1 0-.2-.1-.3-.1.4-.6-.3-.6-.4-.2z" />
		<path class="prefix__prefix__st1"
			d="M163.1 82.4c.1 0 .2 0 .2-.1.3.4.9 0 .6-.4v.1c.2.2.5.1.6-.1.2-.3.5-.4.9-.3.3.1.6-.2.5-.5h.2c.2.4.8.1.7-.3v-.3c.1.5.8.5.8 0 .1-.2.1-.3.2-.5-.2 0-.3 0-.5-.1.1.1.1.2.2.3.1.4.8.4.7-.1v-.2c.2.3.6.2.7-.1h.2c.2-.1.4-.3.6-.4v-.3c-.1 0-.2.1-.4.1.2.1.3.2.5.3.2.2.6.1.6-.2 0-.1 0-.3.1-.4 0 .3.5.6.7.2.1-.2.2-.2.4 0 .3.4.9 0 .6-.4 0 0 0 .1.1.1.1.4.6.3.7 0h.2c.2-.1.5-.2.7-.3.1.1.2.3.3.5.2.3.6.2.7-.1.1-.2.2-.3.3-.5-.2 0-.3 0-.5.1l.2.2c.1.3.5.4.7.1.1-.2.3-.4.5-.5-.2 0-.3 0-.5-.1 0 .1 0 .2.1.2 0 .4.6.5.7.1l.2-.2c-.2-.1-.3-.2-.5-.3.1.2.2.4.2.5.2.4.8.3.7-.2h.4c.1.3.4.4.6.2.1-.2.3-.3.4-.5h-.5c.2.1.3.3.5.4.2.2.6.1.6-.3h.1c.2.3.7.2.7-.2h.2c.3.3.9-.2.5-.5-.6-.6-1.6-.3-1.5.6.2-.1.5-.1.7-.2-.4-.7-1.4-.5-1.5.3l.6-.3c-.2-.1-.3-.3-.5-.4-.2-.1-.4-.2-.5 0-.1.2-.3.3-.4.5.2.1.4.1.6.2-.4-1.1-2-.8-1.8.4.2-.1.5-.1.7-.2-.1-.2-.2-.4-.2-.5-.1-.2-.2-.3-.5-.3-.4.1-.6.3-.7.7.2 0 .5.1.7.1 0-.3-.1-.5-.3-.8-.1-.1-.3-.1-.5-.1-.3.2-.5.4-.7.7.2 0 .5.1.7.1-.1-.3-.2-.5-.5-.6-.1-.1-.3-.1-.5.1-.3.3-.4.5-.5.9.2 0 .5-.1.7-.1-.2-.4-.7-.9-1.2-.7-.4.1-.6.6-.4 1 .2.4.8.1.7-.3-.2-.9-1.4-.9-1.6 0h.7c-.2-1.2-2.1-.6-1.4.5.2-.1.4-.3.6-.4-.4-.6-1.4-.6-1.7 0 .2.1.5.1.7.2-.1-1.1-1.3-.7-1.5.2.2-.1.4-.1.6-.2-.2-.3-.5-.4-.8-.5-.1 0-.3 0-.4.1-.3.4-.4.7-.1 1.2.2.4.9 0 .6-.4-.4-.6-1.4-.5-1.6.2.2 0 .5-.1.7-.1-.5-.8-1.4-.2-1.4.6.2 0 .5-.1.7-.1-.1-.3-.2-.4-.4-.6-.1-.1-.3-.2-.5-.1-.4.3-.6.6-.6 1.1h.8c-.1-1.2-1.8-.6-1.4.5.2-.1.5-.2.7-.3-.4-.9-1.9-.5-1.5.6l.5-.5c-.7-.2-1.4 0-1.8.6.2 0 .4-.1.6-.1-.6-.7-1.7-.1-1.2.8.2-.1.4-.3.6-.4-.4-.5-1.3-.6-1.5.1.1 1 .8 1.3 1 .9zm3.4.8c-.2 1.3 1.8 1.2 1.5 0-.2.1-.5.1-.7.2.1.3.3.5.6.6.1 0 .3 0 .4-.1.2-.3.3-.5.4-.8.1-.5-.6-.7-.7-.2-.2.9 1.3.9 1.2-.2l-.6.3c.2.2.4.4.7.5.1.1.3.1.5.1.4-.2.6-.4.6-.8l-.6.3c.6.6 1.8.3 1.8-.6-.2.1-.5.1-.7.2.5.7 1.7.6 1.7-.4l-.6.3c.1.1.2.1.4.2.1.1.3.1.4 0 .3-.2.4-.3.6-.6-.2 0-.4.1-.6.1.5.4 1.6.2 1.5-.6l-.6.3c.7.6 1.9.2 1.6-.8-.2.1-.4.2-.6.4.8.7 2 .3 2-.8-.2 0-.5.1-.7.1.4 1 1.4.6 1.9 0-.2 0-.3 0-.5.1.1.1.2.1.4.2.3.1.5 0 .6-.3v-.4l-.6.3c.5.3.9.4 1.5.4.2 0 .4-.2.4-.4 0-.3 0-.5-.1-.8-.2.1-.5.2-.7.3.4.8 1.6.7 1.8-.2.1-.5-.6-.7-.7-.2-.2.9 1.1 1.2 1.3.3-.2 0-.5.1-.7.1.3.4.6.6 1.1.7.2 0 .3-.1.4-.3.1-.3.1-.5-.1-.8-.2-.4-.9-.3-.7.2.1.4.5.9 1 .7.4-.1.6-.5.5-.8-.2.1-.4.3-.6.4.4.3.8.4 1.2.4.2 0 .4 0 .6-.1.1 0 .5-.3.6-.3.2 0 .3-.1.4-.3 0-.2 0-.3-.1-.4-.1-.2-.3-.2-.4-.2h-.1c-.5.1-.3.8.2.7h.1c-.1-.1-.3-.1-.4-.2v-.1c.1-.1.2-.2.4-.3-.2 0-.4.2-.6.2-.5.2-1 .1-1.4-.2-.3-.2-.7.1-.6.4v-.3c-.2.1-.5.1-.7.2 0 .1 0 .3.1.4.1-.1.2-.2.4-.3-.1-.1-.3-.2-.4-.3-.2-.3-.6-.2-.7.1.1 0 .1.1.2.1-.2-.1-.5-.1-.7-.2h-.4c-.2-.4-.8-.1-.7.3.1.2.1.4.1.6l.4-.4c-.4 0-.8-.1-1.1-.3-.3-.1-.5 0-.6.3v.4l.6-.3c-.1-.1-.2-.1-.4-.2-.1-.1-.3-.1-.5.1-.1.2-.4.3-.6.3-.1-.4-.7-.3-.7.1-.2.1-.5.2-.7.3-.3-.2-.7 0-.6.4-.1 0-.3.1-.4.1-.2-.2-.7-.1-.6.3-.1 0-.1.1-.2.1-.2-.1-.5-.2-.6.1l-.3.3h.4c-.1-.1-.2-.1-.4-.2s-.6 0-.6.3c-.1 0-.2 0-.3.1-.2-.3-.7-.2-.7.2-.1.2-.2.2-.5.1-.2-.2-.6-.1-.6.3l-.2.2c.2 0 .3 0 .5.1-.2-.2-.4-.4-.7-.5-.2-.2-.7-.1-.6.3l.1.1c0 .1.1.2.1.4v-.1c-.2-.1-.5-.1-.7-.2-.1.2-.1.3-.2.5.1 0 .2-.1.4-.1l-.1-.1c-.2-.4-.9-.3-.7.2-.9-.8-1.6-1-1.7-.6z" />
		<path class="prefix__prefix__st1"
			d="M173.1 82.2c.1.6.7.8 1.2.7-.1 0-.2-.1-.4-.1.6.5 1.2 1.3 2 1.3-.1-.2-.2-.3-.4-.5-.4.9.9 1.3 1.4.6h-.6c.1.2.2.3.2.5.1.1.2.2.3.2h.6l-.4-.4c-.1.9 1 1.2 1.6.6-.2-.1-.4-.2-.6-.4-.2 1 1.2 1.3 1.5.3-.2 0-.5-.1-.7-.1 0 1 1.1 1.3 1.7.6l-.6-.3c-.1.9 1 .9 1.6.8-.1-.2-.2-.4-.4-.6-.3.3-.3.7 0 1 .4.4 1 .2 1.4-.1-.2-.2-.3-.4-.5-.6-.9 1 .3 2 1.4 1.5-.2-.1-.4-.1-.6-.2.2.7 1 1 1.7.8.3-.1.4-.5.1-.7-.4-.2-1 0-1 .5 0 .7.8.6 1.2.5-.2-.1-.3-.2-.5-.4-.1.8 1 1 1.5.6.4-.3-.2-.8-.5-.5-.3.2-.4.4-.4.8 0 .2.1.3.3.4.3.1.6.2.8.4.4.3.8-.4.4-.6-.3-.2-.6-.4-1-.4.1.1.2.2.3.4 0-.1.1-.2.1-.2l-.5-.5c-.1 0-.1 0-.2-.1 0-.2-.3-.4-.5-.4-.3 0-.4.1-.4.4 0-.2.1-.5.1-.7-.3.1-.7.1-.8-.3-.1-.2-.3-.3-.6-.2-.4.2-.6 0-.5-.4.3-.3-.1-.8-.5-.6l-.6.3c.3-.3 0-.7-.4-.6-.1 0-.7.2-.6-.1 0-.3-.4-.5-.6-.3-.2 0-.3-.1-.5-.1 0-.4-.6-.5-.7-.1 0 0-.1 0-.1.1 0-.3-.4-.7-.6-.4h-.3c0-.2-.2-.4-.4-.4h-.6c.1.1.2.1.3.2-.1-.2-.2-.3-.2-.5-.1-.3-.5-.2-.6 0 .1-.2-.1-.5-.4-.5-.5 0-1-.6-1.3-.9-.1-.1-.2-.2-.3-.2-.1-.1-.5.2-.5-.2.2-.6-.5-.4-.4.1zm4.1-.9h.2c-.1.2.1.4.3.5-.1.3.4.6.6.4.2 0 .4.1.5.3.1.2.4.3.6.1h-.2c.2.2.4.3.6.5h.1c-.1.3.4.7.6.4h.2c.2.1.4.3.6.4 0-.1 0-.1.1 0 .1 0 .2.2.1.3-.1.4.5.7.7.3h.3c0 .3.4.5.6.3.1-.1.2-.3.3-.4-.1.3.2.8.5.5h.2c-.1.4.4.6.7.3h.1c-.1.3.3.6.6.4.2-.1.3-.1.4.1.1.3.5.3.7.1h.2c-.2.3.2.8.5.5h.3c-.2.4.4.8.6.4v-.1c-.4.2 0 .9.4.6V87c-.4.3 0 .9.4.6.1 0 .1 0 .2-.1-.4.3 0 .9.4.6.9-.7 0-1.9-.9-1.2.1.2.3.4.4.6.8-.6.1-1.5-.8-1.1.1.2.3.4.4.6.4-.2.6-.8.2-1.2-.4-.4-1-.2-1.2.2.2.1.4.3.6.4.5-.8-.6-1.6-1.3-1l.5.5c.6-1-.8-1.6-1.4-.8.2 0 .5.1.7.1-.1-.7-.9-.9-1.5-.6.2.1.4.3.6.4.3-1-.9-1.3-1.4-.6.2.1.5.2.7.3.2-.7-.7-1.2-1.3-.8l.5.5c.2-.4.1-.7-.3-.9-.4-.2-.9.1-1.1.4l.6.3c.1-1-1.2-1.2-1.7-.4.2.1.5.2.7.3.1-.5 0-1-.5-1.3-.4-.2-.9-.1-1.1.3-.2.4.4.8.6.4.5-.9-.8-1.6-1.4-.9.2.1.4.2.6.4.2-1-1-1.3-1.5-.5-.2.4.3.7.6.5.7-.7-.2-1.8-.8-1.1.2 0 .4.1.6.1-.3-.5-1.2-1.1-1.7-.5.2.1.4.2.6.4.2-.5-.1-.8-.6-1 .1.2.2.3.3.5.4-1-1.1-1.5-1.6-.6-.4.5.3.9.5.5zm-16 12.1l-.1-.1s0 .1.1.1h-.1l-.1.1-.2-.2c0 .1 0 .1.1.2 0 0 .1.1.2.1h.2c.2 0 .3-.1.3-.3.1-.1.1-.3 0-.4 0 .1 0 .1-.1.1h-.1s.1 0 0 0l.1.1.1.1c.2.2.7.1.6-.3v-.2c0-.1 0 0 0 0v-.1s-.1 0 0 0c0 0-.1 0 0 0h.1s-.1 0 0 0l-.1-.1v-.1c0 .4.7.5.7.1 0-.2.1-.3.1-.5l-.3.3s.1 0 0 0h.2c.3.3.9-.2.5-.5-.2-.2-.6-.3-1-.2-.1 0-.2.1-.3.3 0 .2-.1.3-.1.5.2 0 .5.1.7.1 0-.5-.5-.7-.9-.6-.5.1-.6.6-.6 1.1l.6-.3c-.2-.3-.5-.5-.9-.4-.2 0-.3.1-.4.3 0 .1-.1.2-.1.3v.2c0 .1.1.1.2-.3h.2l.3.3c-.1-.2-.2-.3-.4-.4-.2 0-.4 0-.5.2-.3.3-.1.8.1 1 .1.1.4.1.5 0 .6-.1.6-.3.4-.5zm3.2 1.2c.5.4 1.3.1 1.5-.4 0-.1.1-.2.1-.2v-.1c0 .1-.1.1-.1.2 0 0-.1 0 0 0 0 0-.1 0 0 0h.1c.1 0 .2.1.3.1.4.1.8-.2 1-.4.2-.2.3-.4.3-.6 0-.2-.1-.5-.3-.6-.2-.1-.4 0-.5.1-.1.2 0 .4.1.5.1 0-.1-.1 0 0l-.2.2-.1.1h-.1c.1 0-.1 0 0 0h-.1c-.1 0-.1-.1-.2-.1-.2-.1-.4-.1-.6.1-.1.1-.2.2-.2.3v.1s0 .1 0 0c0 0-.1.1 0 0l-.1.1c-.1.1.1 0 0 0H165c-.1 0 .1 0 0 0h-.1c.1 0 0 0 0 0s-.1 0 0 0c0 0-.1 0-.1-.1-.2-.1-.4 0-.5.1-.2.3-.1.5.1.6zm-14.8-4.4c0-.1 0-.1 0 0 .3-.1.7-.3.6-.6-.1-.2.2-.2.3-.1.2.3.6.2.7-.1.1-.3.4-.4.8-.4.2 0 .4-.3.4-.5-.1-.3.3-.2.4-.1.2.2.7.1.6-.3 0-.3.3-.6.5-.3.2-.1.4-.3.6-.4l-.3-.3c.1.4.8.3.7-.1v-.4s.1-.2.2-.1c.2-.1.4-.3.6-.4.1-.1.1-.1.2.1.2.4.7.1.7-.2 0-.2 0-.5.2-.6.1-.1.2-.1.3 0 .2-.1.4-.3.6-.4.1 0 .1 0 .2.1.2.2.6.1.6-.2 0-.2.1-.4.1-.6l-.3.3h.1c-.1 0-.2-.1-.4-.1v-.2l.2-.2h-.1c-.4.2-.1.9.4.6.5-.3.1-.9-.4-.8-.1 0-.2.1-.3.3 0 .2-.1.4-.1.6.2-.1.4-.1.6-.2-.6-.7-1.8 0-1.4.8.2.4.8.1.6-.4-.2-.4-.7-.5-1.1-.4-.6.2-.7.8-.8 1.3.2-.1.5-.1.7-.2-.4-1-2.1-.3-1.5.7.3.4.9 0 .6-.4-.2-.4-.7-.5-1.1-.3-.5.2-.6.7-.6 1.2.2 0 .5-.1.7-.1-.1-.4-.6-.6-1-.4-.5.3-.4.9-.1 1.2.3.4.9.1.6-.4-.5-1-2-.4-1.9.6l.6-.3c-.6-.7-2-.2-1.6.8.1-.2.2-.3.4-.5-.7-.1-1.3.3-1.5 1 .2 0 .5-.1.7-.1-.3-.4-.7-.6-1.2-.4-.4.2-.6.6-.5 1.1l.5-.5c-.9-.2-1.6.9-.7 1.5.9.6 1.3 0 .9-.2z" />
		<path class="prefix__prefix__st1"
			d="M142.1 85.1c.1.2.5.4.6.2.1-.1.4-.2.4 0 .1.2.4.4.6.2h1.1v-.1c-.1.4.4.7.7.3.1 0 .1 0 .2.1.2 0 .5.1.7.1 0 .3.2.4.5.4.1.2.4.4.6.2.1 0 .1-.1.2-.1-.1.3.2.8.5.5.1 0 .1 0 .2-.1l-.3-.3v.2c.2.1.5.2.7.3v-.1l.5.5c.1-.1.1-.1.2-.1-.2.4.3.8.6.5.1-.1.2-.2.3-.1l-.3-.3c-.2.3.2.7.5.5.1-.1.8-.1.8.1v-.3.1c-.2.4.4.8.6.4.5-1-1.2-1.3-1.8-1l.5.5c.6-.9-.7-1.2-1.2-.6.2.2.4.3.6.5.4-.9-.8-1.6-1.4-.8-.3.4.2.9.5.5.8-.9-.8-1.7-1.2-.6-.2.4.5.6.7.3.2-.3.2-.5.1-.8 0-.1-.1-.2-.3-.3-.3-.1-.5 0-.8.1l.5.5c.3-.8-.5-1.4-1.2-.9.2.1.4.1.6.2-.1-.4-.5-.6-.9-.5.2.1.3.2.5.4-.1-1-1.5-1-1.5 0 0 .4.6.5.7.1.4-1-1.1-1.4-1.6-.6.2.1.5.2.7.3.2-1.1-1.5-1.2-1.5-.1 0 .5.7.5.8 0 0-.9-1-1.2-1.6-.5.2.1.4.1.6.2-.3-.7-1.2-.9-1.7-.3.2.1.4.1.6.2-.2-.8-1.3-.8-1.4 0 0 .4.7.6.8.1zm7.5 4.1c-.1.1-.4.1-.3 0 .1-.3-.3-.6-.6-.4-.2.1-.4 0-.6-.1-.3-.2-.5-.3-.8-.4-.7-.2-1.4-.2-2.1-.1-.2 0-.4.2-.4.4s.2.4.4.4c.4 0 .8-.1 1.2 0 .3 0 .7 0 1 .2.3.2.5.4.9.5.3.1.6.1.9-.1-.2-.1-.4-.3-.6-.4-.1.4.1.9.6 1 .4.1.9 0 1.1-.4.2-.7-.4-1-.7-.6zm4.4.9c.4.7 1.6.9 2.1.2-.2-.1-.4-.2-.6-.4-.2 1.1 1 1.5 1.7.9l-.6-.3c0 .4.2.6.6.7.4.1.8-.2 1.1-.5l-.6-.3c-.1.9 1 1.1 1.4.4-.2 0-.5-.1-.7-.1.1.2.2.5.2.7 0 .1.1.2.3.3.5.1.9-.1 1-.6.1-.5-.5-.6-.7-.2-.4 1.1 1.4 1.5 1.6.4-.2 0-.5-.1-.7-.1 0 1 1.3 1.3 1.8.4-.2-.1-.5-.1-.7-.2-.1 1 1.3 1.1 1.5.2.1-.5-.6-.6-.7-.2-.2.4.1.8.5 1 .5.2 1-.1 1.3-.6-.2-.1-.5-.1-.7-.2 0 .4.1.7.4 1 .1.1.3.1.4.1.4-.2.6-.4.8-.7-.2 0-.5-.1-.7-.1.1 1.2 1.7 1.3 2.1.2.2-.4-.5-.6-.7-.3-.8 1 .9 1.9 1.5.8-.2-.1-.5-.2-.7-.3-.2 1.1 1.3 1.6 1.9.6-.2-.1-.4-.3-.6-.4-.1.2-.2.4-.2.7 0 .2.1.3.3.4.4.1.8.1 1.1-.1l-.5-.5c-.5 1 .8 1.6 1.4.7-.2-.1-.5-.2-.7-.3-.2.5-.2 1.1.4 1.2.4.1.8-.2.8-.6 0-.5-.7-.5-.8 0 .1-.1.2-.3.2-.4.2-.4-.5-.6-.7-.3h-.1c.2-.3-.2-.7-.5-.5h-.6c.1.1.2.2.3.4 0-.1 0-.2.1-.3.2-.4-.4-.8-.6-.4h-.5c.1-.4-.5-.7-.7-.3-.1 0-.2 0-.2-.1-.2-.1-.5-.2-.7-.3h-.6c0-.4-.6-.5-.7-.1-.1.1-.2.1-.3.2.1 0 .2.1.4.1-.1-.2-.1-.3-.2-.5 0-.4-.5-.5-.7-.2-.1 0-.2.1-.4.1-.2-.1-.5-.1-.7-.2 0-.4-.5-.5-.7-.2h-.4c0-.4-.6-.5-.7-.1h-.2c-.2-.1-.5-.1-.7-.2 0 0-.1 0-.1.1l.3.3c-.1-.2-.2-.5-.2-.7-.1-.3-.5-.4-.7-.1 0-.3-.4-.5-.6-.3-.1.1-.2.2-.4.3 0-.4-.4-.5-.6-.3-.2-.1-.3-.1-.5-.2.1-.3-.4-.7-.6-.4-.2.3-.8.3-1 0-.6-.1-1.2.2-1 .7zm20.5 3.9c.1-.8-.7-1.4-1.5-1.3.1.2.1.5.2.7 1-.5.3-1.7-.6-1.5.1.2.3.4.4.6.5-.7-.4-1.5-1.1-1.3l.5.5c.3-1-.8-1.5-1.5-1.1.2 0 .3 0 .5.1-.5-.6-1.4-.6-2-.1.2 0 .4.1.6.1-.5-.8-1.3-1.4-2.3-.9.2.1.4.1.6.2-.2-.7-1.1-.9-1.6-.4l.6.3c0-.4-.3-.7-.7-.8-.5-.1-.9.2-1.3.6.2.1.4.1.6.2-.2-1-1.4-1.1-1.9-.3.2 0 .5.1.7.1-.3-.7-1.2-.7-1.5 0 .2 0 .5-.1.7-.1-.4-.7-1.5-.8-2.1-.2.2.1.4.1.6.2-.1-.6-.7-.8-1.2-.6.2.1.3.2.5.4 0-.7-.8-1-1.3-.7.2 0 .3.1.5.1-.5-.8-1.5-1.2-2.4-1-.5.1-.3.8.2.7.6-.1 1.2.1 1.6.6.1.2.3.2.5.1h.2c0 .2.3.4.5.4.1 0 .2.1.3.1.1.3.4.4.6.2.2-.3.7-.2.9.1.2.3.6.2.7-.1h.1c.1.3.5.4.7.1.2 0 .4.1.5.1 0 .3.4.4.6.2.1-.2.4-.3.6-.3 0 .3.4.5.6.3.1-.1.2-.1.4.1.1.2.3.3.6.2.6-.3 1 .3 1.2.6.1.2.4.2.6.1.3-.2.7-.1.9.1.1.1.3.1.5.1.1.1.3.1.4.2-.1.3.2.5.5.5.1.1.2.1.2.2-.2.3.1.6.4.6 0 0 0 .1.1.1-.3.2-.2.7.2.7s.8.1.8.6c-.2.1.5.1.6-.4z" />
		<path class="prefix__prefix__st1"
			d="M150.5 91.7c-.2.5.4.9.8.8.6-.1.7-.8.5-1.3-.2.1-.5.2-.7.3.2.2.3.4.6.5.1.1.3.1.4 0 .4-.3.6-.8.3-1.3-.2.2-.4.3-.6.5.2.2.4.3.7.4.1 0 .4 0 .4-.2.2-.4.2-.7.1-1.1-.2.1-.5.1-.7.2.2 1 1.9.4 1.3-.7-.2-.4-.8-.1-.7.3.1.5.8.7 1.2.4.5-.4.3-1-.1-1.3-.3-.2-.7.2-.5.5.7 1.1 2.5.3 1.8-.9-.2.2-.4.3-.6.5.7.7 2.1.4 2-.7l-.6.3c.8.6 1.9-.2 1.4-1.1-.3-.4-.9 0-.6.4.4.8 1.8.6 1.7-.4l-.6.3c.5.5 1.6.3 1.7-.5-.2.1-.4.1-.6.2.3.2.6.4.9.3.1 0 .3-.1.3-.2.1-.2.1-.4.2-.6-.1.1-.1.2-.2.3.4-.3.6-.7.5-1.2-.2.1-.4.2-.6.4.7.6 1.7 0 1.3-.9l-.5.5c.7.5 1.7-.2 1.2-1-.3-.4-.9 0-.6.4h-.2c-.3-.2-.7.2-.5.5h-.1c-.3-.2-.7 0-.6.4.1.3-.2.3-.3.4-.1.1-.1.3-.1.4.1-.1.2-.1.3-.2-.2 0-.3 0-.4-.1-.2-.2-.6-.1-.6.2 0 .2-.3.3-.5.1-.2-.2-.7-.1-.6.3h-.3c-.2.1-.4.3-.6.4-.1.2-.2.2-.3.1-.2-.2-.6.1-.6.3 0 .5-.5.5-.7.2-.3-.3-.8.1-.6.5.2.3-.4.4-.5.1l-.5.5c-.2.1-.5.2-.7.3l.1.1c-.1-.5-.8-.3-.7.2 0 .2 0 .3-.1.5.1-.1.3-.1.4-.2-.2 0-.3-.1-.4-.2-.3-.3-.8.1-.6.5 0 .1 0 .2-.1.2h.4c-.1-.1-.2-.1-.3-.3-.2-.3-.8-.1-.7.3 0 .1.1.4.1.5 0-.4-.7-.6-.8-.1zm21.4-.3c.3.3.9.4 1.2.1.2-.2.3-.5.5-.6.3-.2.8-.1 1.2-.1.6.1 1.2.4 1.8.2.5-.1.9-.4.8-1l-.6.3c.2.2.6.2.8 0 .3-.3.2-.7 0-.9-.3-.4-.9 0-.6.4.4.6 1.4.5 1.5-.4 0-.5-.7-.5-.8 0 0 .5.5.7.9.6.6-.2.6-.8.5-1.3-.2.1-.4.2-.6.4.2.2.4.3.6.5.1.1.3.1.4 0 .4-.3.6-.7.5-1.3-.2.1-.5.2-.7.3.4.8 1.3.3 1.6-.3-.2 0-.5-.1-.7-.1.5 1.2 2.4.4 1.7-.7-.3-.4-.8-.1-.6.4.2.4.6.5 1 .4.4-.1.7-.5.8-.9-.2 0-.5.1-.7.1.2.3.5.6 1 .5.4-.1.6-.4.5-.8-.1.2-.2.3-.3.5.2 0 .3.1.5.1s.3-.2.4-.3c.1-.1.1-.3-.1-.5v-.1c-.3-.4-.9.2-.5.5v.1c0-.2 0-.3-.1-.5.1-.2-.4-.1-.4-.1-.2 0-.3.3-.3.5 0-.1-.1-.2-.1-.3-.2-.3-.6-.2-.7.1 0 .2-.2.3-.4.3-.2.1-.4.3-.6.4-.1.2-.2.2-.3.1-.1-.3-.5-.4-.7-.1-.1.2-.2.3-.3.3-.2-.4-.8-.1-.7.3 0 .2 0 .3-.2.4h.4c-.2-.1-.3-.2-.4-.4-.3-.3-.7 0-.6.4 0 .1.1.4.1.5h-.9c-.2.1-.4.3-.6.4.1.2.2.2.4 0-.2-.2-.7-.1-.6.3 0 .6-2.2-.1-2.5-.1-.3 0-.7.1-.9.2-.2.1-.6.8-.8.6-.7-.2-1.2.3-.8.6zm-1.8-1c0-.3.2-.5.5-.4.4.2.7-.3.5-.6.1 0 .2.1.2.2.1.5.8.3.7-.2 0-.1.2-.6.4-.4.2.3.7.2.7-.2v-.3s.2-.2.2-.1c.1.4.7.3.7-.1 0-.3.4-.2.5 0 .2.3.6.2.7-.1 0-.1.1-.3.2-.4 0 0 .2-.2.3-.1.2-.1.5-.2.7-.3.1-.1.2-.1.3 0 .3.2.7-.2.5-.5-.1-.3.3-.2.4-.1.1.3.5.2.6 0 .1-.2.7-.8.6-.9.2.4.8.1.6-.4-.2-.4-.6-.4-1-.2s-.7.8-.9 1.2h.6c-.6-1.1-2.3-.3-1.7.8l.5-.5c-.7-.5-1.8.2-1.3 1 .2.4.7.1.7-.3-.1-.4-.6-.6-1-.6-.5.1-.8.6-.9 1.1.2 0 .5-.1.7-.1-.5-.9-1.8-.6-1.9.4.2 0 .5-.1.7-.1-.1-.5-.6-.6-1-.5-.5.1-.7.7-.7 1.2.2-.1.5-.1.7-.2-.3-.4-.8-.5-1.2-.3-.5.2-.6.8-.6 1.3.2-.1.5-.1.7-.2-.1-.5-.7-.9-1.2-.7-.5.2-.6.8-.3 1.2.2-.2.3-.4.5-.6-.4-.2-.8-.2-1.2.1-.4.3-.4.7-.4 1.2.3.4 1 .2.9-.3z" />
		<path class="prefix__prefix__st1"
			d="M178 89.7c-.2.3 0 .7.3.8.3.1.6-.1.7-.4-.2-.1-.5-.1-.7-.2 0 .2 0 .4.1.5.1.1.2.3.3.3.3.2.7.2 1 .1.2-.1.2-.4.1-.5-.1-.2-.3-.2-.5-.1h.1-.1.1c-.1 0-.1 0-.2-.1h.1c-.1 0-.1-.1-.2-.1 0 0 .1 0 .1.1l-.1-.1s0 .1.1.1c0 0 0-.1-.1-.1v-.2c0-.1-.1-.2-.2-.2-.2 0-.4.1-.5.3v-.1s0-.1.1-.1c0 0 .1 0 .1-.1h.3s.1 0 .1.1c0 0 0 .1.1.1v.4c.1-.2 0-.4-.1-.5-.7-.3-.9-.2-1 0zm3.8-1.2c.1-.2.5-.2.5.1-.1.4.4.6.6.4 0 0-.1-.1 0-.2.2.2.4.3.6.5.1-.1.4-.1.3.1-.1.4.4.6.6.4h.2c.2 0 .5.1.7.1-.1.1-.1.2 0 .2 0 0 0-.1.1-.1h.2c-.5-.1-.7.6-.2.7.3.1.6-.1.7-.5.1-.3-.1-.6-.3-.8-.5-.4-1.3-.1-1.2.6 0 .3.5.3.7.1.2-.4.1-.8-.2-1-.4-.2-.8-.2-1.1.1.2.1.4.2.6.4.2-.4-.1-.9-.5-1-.4-.2-.9 0-1.2.4-.2.3.3.8.6.5.2-.3.3-.7-.1-1-.3-.2-.7-.2-1 .1.2.1.4.2.6.4.1-.5-.2-1-.6-1.1-.4-.1-1 .1-1.2.5-.2.1.4.5.6.1zm-21.4-14.3s.1 0 .1-.1c0 .5.7.5.8 0 0 .4.6.5.7.1 0 .1-.1.2-.1.3 0 .4.5.5.7.2l.1-.1c-.1.5.6.7.7.2 0-.1.1-.1.1-.2-.2 0-.3 0-.5-.1.1.1.1.2.2.3 0 .3.4.5.6.3.1-.1.3 0 .3.1 0 .4.7.5.7.1 0-.2.1-.4.1-.6-.2.1-.3.2-.5.3.3 0 .4.1.4.4.1.4.8.3.7-.1 0-.1.1-.2.1-.3-.1.1-.3.1-.4.2.1.1.2.2.2.4 0 .4.7.5.7.1 0-.1.1-.2.1-.3-.1.1-.3.1-.4.2.2.1.4.2.4.5.2-.1.5-.1.7-.2v.4c.1.4.8.3.7-.1l.1-.1c.2 0 .5.1.7.1 0 .1-.1.3-.1.4 0 .4.5.5.7.2h.3c-.2.4.4.8.6.4-.2.4.5.6.7.3h.3c.2 0 .5.1.7.1h-.1c0 .3.3.4.6.3v-.2c.1.2.2.4.4.6.1-.2.3-.2.5-.1.4.3.9-.2.5-.5-.5-.4-1.2-.4-1.6.1-.2.3 0 .8.4.6 1-.3.4-1.6-.5-1.2l.6.3c0-.9-1.4-.9-1.4 0 0 .4.6.5.7.1.3-1.1-1.1-1.4-1.6-.6.2.1.5.2.7.3.4-.9-.9-1.3-1.4-.6.2.1.4.3.6.4.5-1.1-.9-1.7-1.6-.8.2.1.5.1.7.2 0-.4-.2-.9-.7-.9-.4 0-.7.3-.7.7.1.3.6.4.7.1.6-1.3-1.7-1.6-1.5-.3.2 0 .5-.1.7-.1-.1-.4-.4-.9-.9-.8-.4.1-.7.4-.6.8.2.5.8.3.7-.2-.1-.5-.4-.8-.9-1-.1-.1-.4 0-.4.2-.1.2-.1.2-.2.5.2 0 .5.1.7.1 0-.5-.3-.9-.8-1.1-.2-.1-.3 0-.4.2-.1.2-.2.4-.2.7.2 0 .5-.1.7-.1-.1-.5-.5-.8-1-.9-.2 0-.4 0-.5.3 0 .2-.1.4-.1.6.2 0 .5.1.7.1 0-.8-1-1.1-1.6-.6l.6.3c0-.4-.1-.6-.4-.9-.1-.1-.3-.1-.5-.1-.3.2-.4.3-.5.6.2.1.5.1.7.2.1-.9-1.1-1.3-1.5-.5.2.1.5.1.7.2 0-.4-.1-.9-.6-1-.4-.1-.7.1-.8.4.2 0 .5.1.7.1 0-1-1.4-1-1.5 0h.8c0-.9-1.4-1.1-1.6-.1.7.4 1.4.6 1.5.2z" />
		<path class="prefix__prefix__st1"
			d="M166.2 74.2c-.1 0-.1 0 0 0-.1 0-.1-.1-.1-.1-.1.1-.1.1.1.1-.1 0-.1 0 0 0-.1 0 0-.1 0 0-.1-.1.1 0 0 0 .1 0 .1 0 0 0 .3-.2.4-.4.6-.6 0 0 .1.1.1.2s-.1 0 0 0h.4c.4.1.6-.4.4-.6-.1-.1 0 0 0 0s0-.1 0 0c.1-.1 0 0 0 0 .1 0 .2 0 .2.1l.5-.5c.1.1 0 .1 0 .2 0 0 .1 0 0 0l.1.1c.1.1.3.2.4.2.1 0 .2 0 .3-.1h.1-.2c0-.1-.1-.1-.1-.2 0 .2.3.3.5.3.2-.1.3-.3.3-.5s-.2-.3-.3-.3c-.1 0-.4 0-.5.1-.1 0-.1 0 0 0h.1l-.2-.2c-.1-.1-.3-.1-.4-.1-.3 0-.6.2-.7.4-.1.3 0 .6.3.8.1.1.3 0 .5-.1.1-.1.1-.3.1-.5-.2-.4-.8-.6-1.2-.3-.4.3-.5.8-.2 1.2.1-.2.2-.4.4-.6-.4-.1-.8-.1-1.1.2-.3.3-.2.8.1 1 .3.2.7-.2.5-.5-.3-.5-1-.6-1.4-.1-.4.4-.1 1.2.5 1.3.2 0 .4-.1.5-.3-.3-.3-.4-.5-.6-.6zm1.4 1.7c.6 1.1 2.3.4 1.8-.8-.2-.4-.8-.1-.7.3.1.5.6.6 1.1.4.5-.2.5-.8.4-1.3-.2.1-.4.2-.6.4.6.6 1.7.2 1.4-.7-.2.1-.5.2-.7.3.3.4.8.5 1.2.3.4-.2.6-.5 1-.5.2 0 .4 0 .6-.2.2-.1.1-.4 0-.5l-.5.5c.6.5 1.5.5 2-.1l-.6-.3c0 1 1.1 1.3 1.8.7-.2 0-.3 0-.5.1.6.3 1.7.4 1.6-.5-.2.1-.3.2-.5.4.5.2 1.2.1 1.6-.4-.2-.1-.4-.2-.6-.4-.2 1 1.1 1.4 1.5.5-.2 0-.3.1-.5.1.8.5 1.7.7 2.6.6.5 0 .5-.8 0-.8-.8.1-1.5-.1-2.2-.5-.2-.1-.4 0-.5.1l-.1.1c.1-.3-.4-.7-.6-.4-.2.3-.5.3-.8.2-.2-.1-.5.1-.5.4-.2 0-.3 0-.5-.1s-.3 0-.5.1c-.2-.1-.3-.1-.5-.2 0-.3-.4-.5-.6-.3-.2.3-.6.3-.9.1-.4-.3-.9.2-.5.5v-.5h-.3c-.1 0-.3.1-.4.2-.1.1-.8.7-.9.5-.2-.3-.8-.1-.7.3h-.2c-.3-.3-.7 0-.6.4.1.1.1.2 0 .4 0 0-.1.1-.1.2-.2.1-.5.2-.7.3-.2 0-.3 0-.5.1-.4-.8-1-.4-.8 0z" />
		<path class="prefix__prefix__st1"
			d="M176.5 74.3c-.6 0-1.3.5-1 1.2.2.6 1 .7 1.5.4-.2 0-.3-.1-.5-.1.3.5.8 1 1.4.8-.2-.1-.3-.2-.5-.3.1.6.7.9 1.3.9-.1-.1-.2-.1-.3-.2.2.3.5.5.9.6.2 0 .3 0 .5.1.3.2.6.3.9.5.3.1.7.3.9 0 .2-.3.1-.6-.2-.7-.3-.1-.5.2-.5.5.1.5.4.8.9 1 .1 0 .3 0 .4-.1.2-.2.3-.4.2-.7-.2.1-.5.1-.7.2.2.5.6 1.2 1.2 1.4.5.1 1-.3.7-.8-.2-.2-.6-.3-.7.1-.2.9.8 1.4 1.5 1-.2-.1-.4-.1-.6-.2.2.5.2 1 .8 1 .4 0 .7-.3.6-.7-.1-.3-.6-.4-.7 0-.2.8.6 1.3 1.3 1.2-.2-.1-.3-.2-.5-.3.1.4.3.8.8.8.4 0 .7-.3.7-.6 0-.5-.8-.5-.8 0s.2 1 .8 1.1c.4.1.9-.2.9-.7 0-.5-.8-.5-.8 0-.1-.1-.1-.3-.1-.4h-.8c.1-.1.1-.2 0-.4 0-.2-.3-.3-.5-.3s-.4-.1-.4-.3h-.7c.1-.2.1-.3.1-.5 0-.1 0-.2-.1-.2-.1-.2-.3-.3-.6-.2-.1 0-.4 0-.4-.2-.2 0-.5.1-.7.1.2-.2.2-.4 0-.4-.1-.1-.2-.1-.2-.2-.1-.2-.2-.3-.3-.5-.2-.4-.8-.3-.7.2.1 0 .2-.1.4-.1-.2-.1-.3-.2-.4-.5l-.5.5h.1l-.3-.3v.1c0-.1.1-.2.1-.4.1-.1-1-.6-1.1-.7-.1-.1-.2-.1-.4-.1-.3 0-.5.2-.6-.1-.1-.1-.2-.2-.3-.2-.2 0-.5 0-.6-.3 0-.2-.3-.3-.5-.3-.3.1-.5-.3-.6-.5-.1-.2-.3-.2-.5-.1-.3.2-.7-.2-.2-.2.9-.1.9-.9.4-.9z" />
		<path class="prefix__prefix__st1"
			d="M185 84.1c0-.2.3-.1.4 0 .2-.2.4-.3.6-.5h.2c.2-.1.4-.3.6-.4 0 0-.1-.1-.1-.2h.8v-.3c.1 0 0 0-.1-.1h.8c0-.2 0-.3.1-.5-.2.1-.4.1-.6.2.1.1.2.1.2.2.1.4.7.3.7-.1 0-.1 0-.4.1-.4h.1c.1-.1 0 .2.1-.1.2 0 .5-.1.7-.1 0-.1-.1-.1-.2 0-.2 0-.2.1 0 .2 0 .1.2.2.3.3.3.3.8-.1.6-.5v.1h.1c.1.1.1.1.1.2.1.4.8.3.7-.1v-.1c-.1.5.6.7.7.2.1-.4-.2-.9-.7-.9-.4 0-.9.3-.8.8.2 0 .5-.1.7-.1-.1-.5-.6-.8-1.1-.7-.5.1-.7.6-.5 1 .2-.2.4-.3.6-.5-.3-.3-.5-.8-1-.6-.4.2-.4.7-.2 1 .2.2.6.3.7-.1.1-.5-.4-.9-.9-.9-.6.1-.9.7-.9 1.2.2 0 .5-.1.7-.1-.1-.3-.3-.5-.6-.7-.2-.1-.5 0-.6.2-.1.2-.1.5-.1.7.1.5.7.5.8 0 0-.4-.5-.7-.8-.6-.5.1-.7.6-.6 1.1.1.5.7.5.8 0 0-.5-.5-.8-.9-.7-.5.2-.6.8-.4 1.2.2.4.9 0 .6-.4-.2-.4-.8-.6-1.2-.4-.5.3-.5.8-.2 1.2.3.3.8-.1.6-.5-.5-.7-1.7-.5-1.8.4.1.9.8.9.9.4z" />
		<path class="prefix__prefix__st1"
			d="M186.5 84.4c-.2.4.1.8.5.9.5.1.8-.2 1.1-.6-.2 0-.4.1-.6.1.3.2.7.3 1.1.1.4-.2.5-.7.3-1-.2.2-.4.3-.6.5.4.4 1 .5 1.4.1.4-.3.3-.9-.1-1.2-.1.2-.3.4-.4.6.3.2.7.3 1.1.3.1 0 .3-.1.4-.3 0-.3.1-.5 0-.8l-.6.3c.1.2.3.3.5.3.3.1.4-.1.6-.3-.2 0-.3 0-.5.1.3.2.6.4 1 .3.3-.1.6-.5.4-.8-.1-.2-.3-.3-.5-.3s-.3.3-.3.5v-.1h-.1c-.1 0-.2-.1-.3-.2-.1-.1-.3 0-.5.1l-.2.2c.1 0 .2-.1.4-.1-.1 0-.2 0-.2-.1-.2-.2-.7-.1-.6.3v.6c.1-.1.2-.2.4-.3-.3 0-.5-.1-.7-.2-.4-.3-.8.4-.4.6 0 0 0-.1 0 0-.1 0-.2 0-.3-.1-.3-.3-.8.1-.6.5h-.1c-.2-.2-.4-.1-.6.1 0 0-.3.3-.3.2v.2c.2-.5-.4-.9-.7-.5zm2.6-2.9c.1 0 .2-.1.4-.1.1 0 .2-.1.3-.3.1-.7-.4-1.2-1.1-1.1l.4.4c-.1-.7-.8-1.1-1.4-.9.2.1.3.2.5.3-.1-.3-.2-.5-.4-.7-.3-.2-.3-.2-.5-.4-.4-.5-1-.7-1.7-.8.1.2.2.3.4.5.2-.7-.5-1.2-1.1-1 .1.2.3.4.4.6.4-.8-.5-1.1-1.1-1.1.1.2.2.3.4.5.1-.5-.3-.8-.8-.9-.4 0-.5-.2-.9-.4-.2-.1-.4-.2-.7-.1l.5.5c.2-.6-.4-1-1-.8l.5.5c.3-.9-.8-1.3-1.4-.8.2.2.4.3.6.5.3-.6-.4-1.3-1-1 .2.1.3.2.5.3v-.3c0-.1-.1-.2-.3-.3-.4-.1-.7 0-1 .1.2.1.3.2.5.3-.2-.7-.8-.9-1.5-.8-.5.1-.3.8.2.7.2 0 .5.1.5.3.1.2.3.3.5.3.2-.1.4-.1.6-.1l-.3-.3v.3c0 .2.3.3.5.3.1 0 .1-.1.2-.1-.2.4.3.7.6.5h.2c-.1.3.2.6.5.5 0 0 0-.1.1-.1-.1.3.2.5.5.5.1 0 .4.3.6.4.1 0 .8.2.8 0-.1.2.1.5.4.5.1 0 .4 0 .5-.1-.2.3.1.7.4.6.2 0 .2 0 .2.1-.1.2.1.5.4.5.4 0 .9.2 1.2.6.1.1.1.3.3.3.2.1.4.1.5.4.1.2.3.3.5.3.1 0 .5 0 .5.2s.2.4.4.4.3 0 .3.2l.3-.3c-.1 0-.2.1-.4.1-1.1-.3-.9.4-.5.3z" />
		<path class="prefix__prefix__st1"
			d="M186.1 77.8c.1-.3.5-.3.6-.1.2-.2.4-.3.6-.5-.1-.1 0 0 0 0 0-.1 0-.1 0 0 .2-.1.5-.1.7-.2 0 .1-.1.1-.1.1.1.4.8.3.7-.1v-.2s.2-1-.1-.2h.7v.1h.1l.3.3c.1.2.3.2.5.1s.3-.3.1-.5c-.2-.3-.6-.7-1-.7s-.9.4-.7.9c.1.3.6.4.7 0 .1-.4-.3-.8-.7-.8-.5 0-.7.5-.7 1 .2 0 .5-.1.7-.1-.1-.4-.5-.6-.9-.5-.4.1-.6.5-.5.8.1.5.8.3.7-.2-.1-.5-.7-.7-1.1-.5-.4.2-.5.8-.2 1.1.3.3.8-.1.6-.5-.4-.8-1.8-.7-2 .3 0 .2.1.4.3.5.4.2.6.1.7-.1zm1.2 2.3c.4.3.9.6 1.4.4.5-.1.8-.6.6-1.1-.2.1-.4.3-.6.4.2.5.6.8 1.2.8.3 0 .5-.2.6-.4.1-.2.1-.5 0-.7l-.5.5c.1 0 .2.1.3.1.2.1.4-.1.5-.3.1-.2 0-.3 0-.5v-.2c.1-.2.4-.3.6-.3.2-.1.3-.3.3-.5s-.3-.3-.5-.3c-.3.1-.7.3-.9.5-.1.1-.2.3-.2.5v.6c.2-.1.3-.2.5-.3-.1 0-.2-.1-.3-.1-.3-.1-.5.2-.5.5v.2c-.2-.1-.3-.2-.4-.4-.1-.2-.3-.2-.5-.1s-.2.3-.1.5v-.1c-.1 0-.1.1-.2.1-.2 0-.4-.1-.5-.2-.2-.1-.4-.2-.5 0-.4 0-.4.2-.3.4zm-35.9-7.3c.1-.3.2-.4.4-.2.3.2.7-.2.5-.5 0 0 0 .1.1.1.2.4.7.2.7-.2 0 0 .2-.1.2 0 .3.2.7 0 .6-.4h.1c.2.4.8.1.7-.3.2.2.5.3.6 0 .1-.1.2-.1.3 0 .2.3.7.2.7-.2.1-.3.3-.4.5-.2s.8 0 .6-.4c.2 0 .4.1.5.2.3.2.7-.2.5-.5-.1-.3.5-.5.6 0 .2 0 .5-.1.7-.1v-.3l-.4.4c.2 0 .4 0 .5.2.2.2.8 0 .6-.4 0 0 .1 0 .1-.1h.7c0 .1.1.3.1.4.1.3.5.4.7.1h.1c.1.5.8.3.7-.2-.1-.7-1.1-.8-1.5-.2.2 0 .5.1.7.1-.2-.4-.4-.9-1-.9-.4 0-.8.4-.6.8.1.3.7.4.7 0 .2-1.4-2-1.1-1.6.1.2-.1.4-.2.6-.4-.3-.3-.6-.4-1-.4-.2 0-.4.2-.4.4s0 .3.1.5c.1.4.8.3.7-.1-.1-1.6-2.7-1-2 .4l.5-.5c-.4-.2-.8-.4-1.3-.2-.3.2-.5.5-.4.9.2-.1.4-.2.6-.4-.6-.6-1.9-.3-1.7.7.2-.1.5-.1.7-.2-.4-.6-1.3-.6-1.6 0h.6c-.5-.7-1.6-.4-1.4.5.2-.1.5-.2.7-.3-.5-.8-1.7-.4-1.5.5.2-.1.4-.2.6-.4-.6-.4-1.4-.2-1.5.6.2-.1.5-.1.7-.2-.5-.9-1.9-.3-1.4.7l.5-.5c-.9-.4-2 .3-1.4 1.2.8.7 1.4.3 1.2-.1z" />
		<path class="prefix__prefix__st1"
			d="M153.5 73.8c.8.5 2.1-.1 1.7-1.2-.2.1-.4.3-.6.4.7.5 1.8.2 2-.7-.2.1-.4.1-.6.2.3.2.6.2.9.3.1 0 .3-.1.3-.2.1-.2.2-.4.2-.5-.2 0-.4.1-.6.1.4.3.8.6 1.3.5.4-.1.6-.5.5-.9-.2.1-.4.2-.6.4.7.6 1.8.8 2-.3l-.6.3c.5.3 1.2.6 1.6 0 .3-.4.2-.8-.2-1.1-.3-.2-.7.2-.5.5.3.7 1.4.6 1.6-.1-.2 0-.5.1-.7.1.3.7 1.1.8 1.8.5l-.5-.5c-.2.4 0 .8.4 1 .5.2 1-.2 1.3-.6-.2-.1-.5-.1-.7-.2 0 .5.4.8.9.9.6.1 1.1-.3 1.5-.7-.2-.1-.4-.1-.6-.2.1.9 1.3 1 1.7.2-.2-.1-.5-.2-.7-.3-.1.8.9 1.4 1.5.9-.2-.1-.4-.1-.6-.2.1.5.3 1 .9 1 .4 0 .8-.3.8-.7-.2 0-.5.1-.7.1.2.9 1.2.8 1.5.1.2-.4-.5-.6-.7-.2 0 0-.1 0-.1-.1-.1-.4-.8-.3-.7.1-.1-.1-.2-.3-.2-.5s-.4-.4-.6-.2c-.2.1-.3.1-.4 0 .1-.4-.5-.7-.7-.3-.1 0-.2 0-.4-.1 0-.3-.4-.3-.6-.2-.1.1-1.1 1-1.2.3 0-.4-.5-.5-.7-.2l-.4.4c.2-.3-.2-.7-.5-.5-.3.1-.6.1-.7-.2-.2-.3-.6-.2-.7.1-.1.1-.2.1-.2 0l-.5.5c-.2 0-.5-.1-.6-.3-.3-.2-.5.1-.6.3-.3.1-.5 0-.7-.2-.3-.2-.8 0-.6.4-.2 0-.4-.1-.6-.3-.2-.1-.5-.2-.6.1-.1.2-.2.4-.2.5.1-.1.2-.1.3-.2-.2-.1-.4-.1-.5-.2-.2-.1-.5 0-.6.2-.1.4-.6.4-.9.2-.3-.2-.7.1-.6.4l-.6.3c-.1-.1-.5.6-.1.8z" />
		<path class="prefix__prefix__st1"
			d="M170.1 73.1c0-.3.5-.3.7-.2.2-.2.3-.4.5-.6.2.1.4.2.5.4l.5-.5s-.1 0-.1.1c0 .4.6.5.7.1.1.1.2.2.2.3.2.2.6.3.7-.1v-.1c-.1.5.6.7.7.2v-.1h-.4c.2.1.4.3.5.5.2.4.8.1.7-.3-.1 0-.2.1-.3.1.1.4.5.3.7.1.1 0 .1 0 .2.1.1.4.7.3.7-.1v-.3c-.2.1-.3.2-.5.4.1.1.1.2.2.2.1.4.7.3.7-.1.2.5.8.3.7-.2l.1-.1c-.2 0-.3 0-.5.1.2.1.3.2.4.3.3.3.7 0 .6-.4 0-.1 0-.1-.1-.2-.1.4.4.6.6.4.1-.1.2-.1.4 0 .1.2.5.3.6 0 .1.1.3.1.5.1.2-.1.4-.1.6-.1.4.2.6-.5.2-.7-.4-.2-.8-.1-1.2.1.2 0 .3 0 .5.1-.3-.3-1-.3-1.2.1h.6c-.3-.5-1.1-.6-1.5-.2.2.1.4.2.6.4.1-.5-.3-.9-.7-.8-.6 0-.8.6-.7 1.1.2-.1.4-.2.6-.4-.2-.2-.3-.3-.6-.5-.1-.1-.3-.1-.5.1-.3.2-.3.5-.3.8.2-.1.5-.1.7-.2-.3-.8-1.5-.7-1.5.2.2 0 .5-.1.7-.1-.1-.4-.3-.6-.7-.8-.3-.1-.5.1-.5.4v.3c.2 0 .5-.1.7-.1-.2-.8-1.1-.8-1.6-.2.2 0 .5.1.7.1-.2-.8-1.4-.6-1.2.3.2-.1.5-.2.7-.3-.2-.3-.5-.6-.8-.8-.1-.1-.3-.1-.4 0-.2.1-.3.3-.4.5.2.1.5.1.7.2.2-1-1.3-1.3-1.5-.3.2 0 .5-.1.7-.1-.2-.3-.5-.6-.9-.6-.3 0-.6.2-.7.5.2 0 .5.1.7.1-.1-.5-.5-.9-1-.7-.5.2-.5.8-.2 1.1.3.3.8-.2.5-.5-.4-.4-1-.7-1.5-.3-.4.3-.3.8.1 1.1.4.2.8-.3.5-.6-.8-.6-1.8-.3-2 .7.8.5 1.6.5 1.6 0z" />
		<path class="prefix__prefix__st1"
			d="M182.4 73.7c-.4.1-.8.1-1.1.2.1.2.2.5.3.7.3-.2.5-.6.3-1-.2-.3-.6-.4-.9-.3l.5.5c.1-.4-.2-.6-.5-.7-.3-.1-.5-.2-.8-.4-.2-.1-.4 0-.5.1-.1.2 0 .4.1.5l.6.3c.1 0 .2.1.3.1 0 0 .1 0 .1.1 0-.1-.1-.1 0-.2-.1.3.2.6.5.5V74c-.2.1-.2.3-.2.5.1.2.3.2.4.2.4-.1.8-.1 1.1-.2.2 0 .3-.3.3-.5-.1-.2-.3-.3-.5-.3zm-19.3-2.8l.5-.3c0 .4.6.5.7.1h-.1c.1.3.4.4.6.2.1-.1.2-.2.2-.3.2.5.8.3.7-.2l.4.4.5-.5c0 .1.1.2.1.2.1 0 .2.1.2.2.3.4.9 0 .6-.4.1.2.2.4.2.6.1.3.6.4.7 0 0-.1 0-.2.1-.3-.1.1-.3.1-.4.2.3.1.6.2.7.5.2.2.6.2.7-.1 0 .1 0 .2.1.2.1.4.8.3.7-.1V71c-.1.1-.3.1-.4.2.2 0 .4.1.5.3.2.3.6 0 .6-.3 0 0 0 .1.1 0 .3.4.8-.2.5-.5l-.1-.1c0 .1.1.2.1.3v.3c.2.2.6.2.7-.1.1-.1 0-.2-.1-.2.1.4.6.3.7 0h.1c.5.2.7-.6.2-.7-.4-.2-.9.1-1 .5h.7c-.1-.3-.4-.5-.7-.5-.4 0-.6.4-.6.7.2 0 .5-.1.7-.1-.2-.3-.6-.6-1-.4-.4.2-.4.6-.2.9l.5-.5c-.4-.5-1.3-.2-1.4.5l.6-.3c-.2-.3-.5-.4-.8-.5-.2 0-.3 0-.4.2-.1.2-.2.4-.2.7.2 0 .5-.1.7-.1-.1-.4-.4-.7-.8-.8-.3 0-.7.2-.7.5.2 0 .5-.1.7-.1-.3-.4-.7-.7-1.2-.8-.1 0-.4 0-.4.2-.1.2-.1.3-.2.5h.7c-.1-.5-.5-1.1-1.1-1-.5.1-.8.5-.5 1 .2-.1.4-.3.6-.4-.3-.4-.8-.8-1.3-.6-.4.2-.6.8-.2 1.1.4.3.9-.2.5-.5-.3-.3-.7-.6-1.1-.5-.4.1-.6.4-.5.8.2-.1.5-.1.7-.2-.2-.7-1.1-.5-1.5-.1.2.1.4.1.6.2-.2-.7-1.2-.7-1.3 0 .2 0 .5.1.7.1 0-.9-1.1-.8-1.6-.4.1.2.5.9.9.6zM180 91c.3-.2.7-.5 1.1-.5.5 0 .9.1 1.4.2.4.1.8.1 1.2.1.3 0 .7 0 .9.2.3.3.9-.2.5-.5-.7-.7-1.7-.3-2.6-.5-.5-.1-1-.3-1.6-.2-.5.1-.9.3-1.4.6-.2.2.1.8.5.6z" />
		<path class="prefix__prefix__st1"
			d="M160.5 69.3c.3.5 1 .6 1.5.2-.2-.1-.4-.1-.6-.2.2.6.8 1 1.4.9.3-.1.4-.3.7-.5.2-.2.5-.3.8-.3.5-.1 1.2-.2 1.6.1.2.2.3.5.5.7.3.2.6.2.9.1.4-.2 0-.9-.4-.6-.1 0-.3-.4-.3-.5-.1-.2-.3-.3-.6-.4-.5-.2-1-.2-1.4-.1-.5 0-1 .1-1.4.4-.1.1-.2.1-.3.2-.1.1-.1.2-.2.3-.2.1-.5-.2-.6-.4-.1-.3-.4-.3-.6-.2-.1.1-.3 0-.3 0-.3-.5-1-.1-.7.3z" />
	</g>
	<g>
		<path
			d="M59.1 105.6c0-.3 0-.6-.2-.9 0 0 0-.1-.1-.1-.2-.3-.3-.7-.4-1-.1-.4-.1-.8-.1-1.1v-.1c0-.3 0-.6-.2-.9-.2-.3-.5-.5-.8-.5-.3 0-.6 0-.9.2-.3.2-.5.5-.5.8-.1.7-.1 1.3.1 2 .1.4.2.7.3 1.1.1.4.3.7.5 1 .1.3.5.5.8.5.3.1.7 0 .9-.2.3-.2.6-.4.6-.8z"
			fill="#10101a" />
		<path class="prefix__prefix__st3"
			d="M56 103.2c-.5-1-1.7-1-2.2-.1-.1.1-.3.1-.4.3-.1.1-.1.2-.2.3H53c.4-1.2.5-2.7.4-3.9-.2-1.7-.1-3.7-1.7-4.4-.3-.1-.3-.9-.6-.9-.1-.2-1.2 0-1.5-.1-2.2-1-4.6-1.1-6.9-.6-1.4.1-4.1.6-5.5 1-.6.2.2 1 .2 1.5-.1 0-.2 0-.3.1-.4 0-1.5-.7-1.7-.2-.3.7.2 2.4.1 3.2 0 0-.1 0-.1.1.1 2.5 1.3 4.2 1.2 6.7 0 .7 1.2 1 1.9 1.4 0 .1.1.1.1.2.5.9 1.4 1.6 2.4 1.8.6.4 1.2.7 2 .6.2 0 1.3 1 1.4 1 .6 0 1.5-.4 2.1-.8.2 0 2.5 1.2 3.7.1 0 0 2.5-.4 3.3-1.1.3.3 1.9-1.5 2.4-1.7 2.2-.9 1.1-2.5.1-4.5z" />
		<path class="prefix__prefix__st7"
			d="M80.8 103.2c-5.3-3.8-13.6-3.8-19.6-2.5-.3 0-1 .6-1.3.6-.9-.2-1.9.2-2 1.3-.1 1 .7 2.6 1.6 2.4.5-.1 1.6-.2 2.2-.3l2.4-1.3c1.5-.1 3-.4 4.5-.3 1.5 0 3 .5 4.4.9 1.6.4 5.6.9 7.1 1.3 1.1.2 1.7-1.4.7-2.1z" />
		<path class="prefix__prefix__st1"
			d="M35.5 95.5c.6 1.3 2.1 1.5 3.3 1.8.8.2 1.6.6 2.4.8.9.2 1.8.3 2.7.4 1.6.1 3.3-.4 4.8-1 1.4-.6 2.5-2 2.8-3.5.1-.4-.1-.8-.5-.9-4.4-1.6-9.2-.3-13.5.8-.8.2-1.8.2-2.4.8-.7.8-.7 2.3-.6 3.2.1 2.1.7 4.2 1.3 6.2 1.1 3.5 3.3 7 7.2 7.5 4.1.6 8-1.9 10-5.3 2.3-4.1 1.7-9.1-1.2-12.7-.6-.7-1.7.3-1.1 1.1 2.2 2.7 2.9 6.6 1.4 9.9-1.3 3.1-4.4 5.6-7.9 5.7-3.5.1-5.7-2.6-6.9-5.6-.6-1.6-1-3.2-1.3-4.8-.2-.9-.3-1.9-.3-2.8 0-.5 0-1.1.6-1.3.4-.2.9-.2 1.3-.3 4.1-1 8.6-2.3 12.7-.8-.2-.3-.3-.6-.5-.9-.6 2.7-4.1 3.6-6.4 3.4-1.4-.1-2.6-.6-4-1-.9-.3-2.4-.2-2.9-1.2-.1-1.1-1.4-.3-1 .5z" />
		<path class="prefix__prefix__st1"
			d="M46.3 111.4c3.5-.3 6.8-1.9 10-3.3 2.9-1.3 5.7-3.1 8.9-3.4 4.7-.5 9.6.2 14.1 1.1.9.2 1.3-1.3.4-1.4-4.6-.9-9.5-1.6-14.3-1.2-3.1.3-5.5 1.6-8.2 2.9-3.4 1.6-7.1 3.5-10.9 3.9-1 0-1 1.5 0 1.4z" />
		<path class="prefix__prefix__st1"
			d="M54.2 103.7c4.7-2.2 9.8-3.9 15.1-3.7 2.4.1 4.8.6 6.9 1.5 1 .4 1.9 1 2.8 1.6.2.2 1.6 1 1.5 1.4 0 .3-.1 0-.3 0-.3 0-.6-.2-.9-.2-.9-.1-1.4 1.3-.4 1.4 1 .1 2.1.8 2.9-.1.8-.8.1-2.1-.6-2.7-2.1-2.1-5.2-3.3-8.1-4-6.8-1.5-13.5.5-19.7 3.4-.8.5-.1 1.8.8 1.4z" />
		<path class="prefix__prefix__st3" d="M50.1 107.2l-2.9-2.2" />
	</g>
	<path class="prefix__prefix__st7"
		d="M36.7 83.2c-.2-.4-.3-.7-.5-1.1-1-1.8-2.5-3-4.2-4.1-1.5-1-3-2.1-3.6-3.8-.7-2-.7-8.5-.8-8.8-.8-3.1-4-4.2-6.8-4.7-.8-.1-5.8.3-6.1.9-.3.8 4.2 1.9 5.3 2.1 1.2.2 2.6.4 3.7 1.2 1.2.9 1.2 2.3 1 3.7-.6 2.9-1.6 5.4-.9 8.4.7 2.7 2.5 4.7 5.1 5.7 1.8.7 3.9 1.1 5.4 2.3.5 1.1 1.6 4 1.7 4.4 1.6 4.6 2.4-.2 2.3-1.4.4-.5-.7-4-1.6-4.8z" />
</svg>