<svg xmlns="http://www.w3.org/2000/svg" x="0" y="0" viewBox="0 0 200 200">
	<style>
		.stats_gold_1 {
			fill: #ffc
		}

		.stats_gold_2 {
			fill: #ff6
		}
	</style>
	<path
		d="M145.5 38.7c-.4-2.2-2.7-3.2-4.5-4.1-2.3-1-4.7-1.8-7.1-2.2-2.4-.5-4.9-.7-7.4-.5-2.5.1-5.2.7-7.7.2-2.3-.5-4.1-2.1-6.3-3-2.4-.9-5-.7-7.5-.3-4.9.7-9.8 1.6-14.5 3-2.4.7-4.7 1.6-6.9 2.6-2.2 1.1-4.2 2.5-6.4 3.7-2.1 1.2-4.2 1.9-6.7 2.1-2.3.2-4.6.1-6.8.4-2.2.3-4.4.7-6.3 2-1.9 1.3-2 3.6-.4 5.3.8.9 1.9 1.3 3 1.7 1 .4 2 1 2.1 2.1.2 2.3-1.6 4.7-2.7 6.6-2.7 5.1-4.8 10.5-6.2 16.1-.3 1.2 1.3 2.4 2.2 1.3 3.5-4.1 8.4-6.6 13.7-7-.8 2.9-1.2 6-1.3 9-.1 3.9.6 7.7 1.2 11.6.7 4.1.9 8 .1 12.1-.7 3.8-1.8 7.6-3 11.4-.6 1.8-1.2 3.7-2 5.4-.9 1.7-1.9 3.4-3 5-2 3.1-3.7 6.3-4.8 9.8-2.1 6.5-1.7 14 2.6 19.5 1.1 1.4 2.5 2.8 4.3 3.3 1.7.5 3.5-.1 4.8-1.2 2.7-2.4 2.6-5.9 1.9-9.1.4.2.8.5 1.1.9.9 1.2 2.7.5 2.4-1-1.3-7-.8-14.2 1.2-21 .5-1.7 1.1-3.4 1.9-5.1.3-.8.7-1.5 1.1-2.3.2-.4.4-.7.6-1.1.1.1.2.2.3.4 1.8 2.3 3.5 4.7 5.7 6.8 2.1 1.9 4.5 3.4 7.4 3.7.5 0 1.5-.1 1.8.3.2.2.1.8.1 1.1 0 .5.1 1.1.1 1.6.2 1.8.5 3.6 1 5.3.4 1.5 1.1 3.1 2.8 3.3 1.4.2 2.7-.6 3.5-1.7 1-1.5.8-3.4.9-5.1.1-1.4.7-2.9 1.7-3.9 1.2-1.2 3-1.7 4.5-1 1.3.6 1.9 2 2.2 3.2.9 2.8 1.2 5.7 3.7 7.6.6.5 1.5.1 1.8-.5 1.5-2.3 2-4.9 2.2-7.5.3-2.6.2-5.5 1.1-8 .5-1.3 1.4-1.9 2.6-2.5 1.2-.5 2.3-1.1 3.3-1.9 2.1-1.8 3.6-4.2 5-6.5 6-10.4 7.5-22.8 7.3-34.6-.1-6.5-.7-12.9-1.3-19.3 1.5 1.1 3.2 2.2 4.9 3 .9.4 2.4-.3 2-1.5l-5.4-13.5c1.7-.6 3.6-.5 5.3-1.4 1.7-.6 3.2-2.5 2.8-4.6z"
		fill="#666" />
	<path class="stats_gold_1"
		d="M132.6 36.8c2.6.2 5.1 1.2 7.1 2.8.1-.4.1-.8.2-1.2-1.9 1.2-4 2-6.3 2.1-1 .1-1 1.6 0 1.5 2.5-.1 5-.9 7.1-2.3.4-.2.6-.9.2-1.2-2.3-1.9-5.2-3-8.1-3.2-.4 0-.8.4-.8.8-.2.4.2.7.6.7zM66.3 48c-.7-.6-1.2-1.3-1.5-2.2-.1-.2-.3-.7-.2-1 .1-.2.8-.3 1-.3 2.1-.3 4.2-.1 6.1.6.4.1.8-.2.9-.5.1-.4-.1-.8-.5-.9-1.3-.5-2.6-.7-3.9-.8-1.2-.1-2.6 0-3.8.3-2.9.8-.5 4.6.8 5.8.8.7 1.8-.4 1.1-1z" />
	<path class="stats_gold_1"
		d="M61.8 50.7c-.1-.6.1-1.2.4-1.7.3-.5.8-.9 1.4-1 .5-.1.3-.8-.2-.7-1.6.4-2.6 2.1-2.4 3.6 0 .2.3.3.5.3.3-.1.3-.3.3-.5zM58.9 48.2l3.9-1.5c.2-.1.3-.3.3-.5s-.3-.3-.5-.3l-3.9 1.5c-.2.1-.3.3-.3.5s.3.4.5.3zM59.9 44.1c1.2.6 2.4 1.2 3.5 1.9.4.2.8-.4.4-.6-1.2-.6-2.4-1.2-3.5-1.9-.5-.3-.9.3-.4.6zM62.6 42.3c.4.8.8 1.5 1.2 2.3.1.2.3.2.5.1s.2-.3.1-.5c-.4-.8-.8-1.5-1.2-2.3-.1-.2-.3-.2-.5-.1-.1.1-.2.3-.1.5zM65 41.2c.1.4.3.9.4 1.3.1.2.1.4.2.6.1.2.1.4.3.5.2.2.4.2.6.2.2-.1.3-.3.3-.5s-.1-.3-.2-.4c-.1-.1-.2-.1-.3-.1-.2 0-.3.1-.4.2-.1.2 0 .4.1.5.2.1.4 0 .5-.1-.1 0-.2.1-.3.1-.1 0-.2 0-.2-.1 0 0 0-.1 0 0 0-.1.1-.1.2-.2h.2v-.1s0 .1 0 0-.1-.3-.1-.4c-.2-.5-.3-1.1-.5-1.6-.1-.2-.3-.3-.5-.3-.3 0-.4.2-.3.4zM67.1 40.6c.1.9.2 1.7.4 2.6 0 .2.3.3.5.3.2-.1.3-.3.3-.5-.1-.9-.2-1.7-.4-2.6 0-.2-.3-.3-.5-.3-.2.1-.3.3-.3.5zM69 40.6c.3.8.4 1.6.2 2.4 0 .2.1.4.3.5.2.1.4-.1.5-.3.2-.9.1-1.9-.2-2.8-.1-.2-.3-.3-.5-.3-.2.1-.3.3-.3.5zM70.3 41.1s0 .1.1.1c0-.1 0 0 0 0 0 .1.1.1.1.2 0 .2.1.3.1.5 0 0 0 .1 0 0v.8c0 .2.2.4.4.4s.3-.2.4-.4c.1-.7-.1-1.5-.4-2.1-.1-.2-.4-.2-.5-.1-.3.2-.3.4-.2.6z" />
	<path class="stats_gold_1"
		d="M58.7 45.4l3.9 1.2c.5.1.7-.6.2-.7l-3.9-1.2c-.5-.2-.7.5-.2.7zM63.3 51.3c.6-.9 1.2-1.8 1.8-2.6.1-.2 0-.4-.1-.5-.2-.1-.4 0-.5.1-.6.9-1.2 1.8-1.8 2.6-.1.2 0 .4.1.5.2.2.4.1.5-.1zM137 40.8c.5.7.9 1.5 1.4 2.2.1.2.3.2.5.1s.2-.3.1-.5c-.5-.7-.9-1.5-1.4-2.2-.1-.2-.3-.2-.5-.1s-.2.3-.1.5zM138.7 39.5c.6.8 1.3 1.5 1.9 2.3.1.2.4.1.5 0 .1-.2.1-.4 0-.5-.6-.8-1.3-1.5-1.9-2.3-.1-.2-.4-.1-.5 0-.1.1-.1.4 0 .5zM139.7 38.7c1.3.6 2.6 1.3 3.8 1.9.4.2.8-.4.4-.6-1.3-.6-2.6-1.3-3.8-1.9-.4-.3-.8.3-.4.6zM139.6 37.7c1.4.1 2.8-.2 4.1-.7.2-.1.2-.4.1-.5-.1-.2-.3-.2-.5-.1-1.2.5-2.5.7-3.7.6-.5-.1-.5.6 0 .7zM138.3 37.7c.8-.6 1.3-1.5 1.6-2.5.1-.2-.1-.4-.3-.5-.2 0-.4.1-.5.3 0 .1-.1.2-.1.3v.1c0 .1 0 0 0 0 0 .1 0 .1-.1.2l-.3.6c-.1.1-.1.2-.2.3l-.1.1-.1.1-.5.5c-.2.1-.1.4 0 .5.2.1.4.1.6 0zM136.4 36.7c.8-.6 1.2-1.6 1.3-2.5 0-.2-.2-.4-.4-.4s-.3.2-.4.4V34.5c0 .1 0 .2-.1.3 0 .1 0 .1-.1.2v.1c0 .1 0 0 0 0 0 .1-.1.2-.1.3 0 .1-.1.2-.2.3l-.1.1s0 .1 0 0c-.1.2-.3.3-.5.5-.2.1-.1.4 0 .5.2 0 .4 0 .6-.1zM135.2 35.9c.2-.6.5-1.3.7-1.9.1-.2-.1-.4-.3-.5-.2 0-.4.1-.5.3-.2.6-.5 1.3-.7 1.9-.1.2.1.4.3.5.2 0 .4-.1.5-.3zM132.6 36.3c.4-.5.5-1.3.3-1.9-.1-.2-.3-.3-.5-.3-.2.1-.3.3-.3.5 0 .1 0 .1.1.2v.1c0-.1 0-.1 0 0v.5c0-.1 0-.1 0 0v.4s0-.1 0 0v.1c0 .1-.1.1-.1.2-.1.2 0 .4.1.5.1-.1.3-.1.4-.3zM56.8 148.6c3.2 2.1 6.6 4 10.1 5.6.4.2.8-.4.4-.6-3.5-1.6-6.9-3.5-10.1-5.6-.4-.3-.8.4-.4.6zM56.8 145.5c3.6 2.4 7.3 4.6 11.1 6.5.4.2.8-.4.4-.6-3.8-1.9-7.6-4.1-11.1-6.5-.4-.3-.8.3-.4.6zM56.2 142.1c4.3 3.5 8.9 6.6 13.8 9.3.4.2.8-.4.4-.6-4.8-2.7-9.4-5.8-13.6-9.2-.4-.3-.9.2-.6.5zM55.3 137.9c4 3.8 8.6 7.1 13.5 9.7.4.2.8-.4.4-.6-4.8-2.6-9.3-5.8-13.3-9.6-.4-.4-.9.1-.6.5zM56.2 135.5c3.3 3.2 6.9 6.1 10.7 8.6 1.9 1.2 3.9 2.6 6 3.4.4.2 1.1.2 1.2-.3.1-.4-.4-.7-.8-.6-.2.1-.3.2-.3.4v.1c-.1.5.7.5.8 0v-.1c-.1.1-.2.2-.3.4.1 0-.5-.5-.6-.6-.2-.1-.4-.2-.5-.3l-1.2-.6c-.8-.4-1.5-.8-2.2-1.3-1.5-.9-2.9-1.8-4.3-2.8-2.8-2-5.5-4.3-8-6.7-.4-.5-.9 0-.5.4zM57.2 131.9c4.9 5.5 10.6 10.3 16.8 14.1.4.3.8-.4.4-.6-6.2-3.8-11.8-8.6-16.7-14-.3-.4-.8.1-.5.5zM57.4 127.5c4.9 4.8 10.1 9.3 15.5 13.6.3.2.9-.1.6-.5-.3-.4-.6-.9-1-1.3-.3-.4-.9 0-.6.4.3.4.6.9 1 1.3.2-.2.4-.3.6-.5-5.4-4.3-10.6-8.8-15.5-13.6-.4-.2-1 .3-.6.6zM58.6 125.1c2.9 2.9 5.8 5.7 8.8 8.5.7.7 1.5 1.4 2.2 2.1.7.7 1.4 1.4 2.2 2 .3.3.9.4 1.1-.1.2-.4-.2-.8-.6-.7-.5.1-.3.8.2.7h.1c-.1 0-.2-.1-.4-.1v-.4l-.2-.2c-.1-.2-.3-.3-.5-.4-.3-.2-.5-.5-.8-.7-.6-.5-1.2-1.1-1.8-1.6-1.1-1-2.3-2.1-3.4-3.1-2.2-2.1-4.4-4.3-6.6-6.4-.1-.5-.7 0-.3.4zM61.2 123.1c3.7 3.9 7.5 7.7 11.2 11.6.3.3.7 0 .6-.4-.1-.4-.3-.9-.4-1.3-.1-.5-.9-.3-.7.2.1.4.3.9.4 1.3.2-.1.4-.2.6-.4-3.8-3.9-7.5-7.7-11.2-11.6-.3-.3-.8.2-.5.6zM63 120.3c3.2 3.8 6.5 7.4 9.9 11 .2.2.5.1.6-.2.2-.8-.1-1.6-.9-1.9-.4-.2-.8.4-.4.6.4.2.7.6.5 1.1.2-.1.4-.1.6-.2-3.4-3.5-6.7-7.2-9.9-11-.1-.3-.7.2-.4.6zM65.1 118.2c2.8 3.6 5.8 6.9 9 10.1.3.3.8-.1.6-.5-.2-.4-.5-.9-.7-1.3-.2-.4-.9 0-.6.4.2.4.5.9.7 1.3.2-.2.4-.3.6-.5-3.2-3.2-6.2-6.6-9-10.1-.4-.3-.9.3-.6.6zM66.8 114.9c2.3 4 5.3 7.6 8.8 10.6.3.3.8-.1.6-.5-.2-.4-.5-.7-.7-1.1-.3-.4-.9 0-.6.4.2.4.5.7.7 1.1.2-.2.4-.3.6-.5-3.5-2.9-6.5-6.4-8.7-10.4-.3-.4-1 0-.7.4zM67.9 112.1c1.7 2.6 3.5 5.1 5.4 7.4.5.6 1 1.2 1.5 1.7.4.5.9 1.2 1.5 1.4.4.2.9-.1.8-.6-.1-.4-.6-.6-.8-.3-.3.4.2.9.5.5-.1 0-.2.1-.3.1-.1-.2-.1-.4-.2-.6l-.1-.1-.3-.3-.6-.6c-.4-.4-.7-.8-1.1-1.2-.7-.8-1.4-1.6-2.1-2.5-1.3-1.7-2.6-3.5-3.8-5.3 0-.4-.6 0-.4.4zM69.7 109.2c1.7 3.7 4.1 6.9 7.2 9.6.2-.2.3-.4.5-.6-.3-.2-.6-.3-.8-.5-.4-.3-.8.4-.4.6.3.2.6.3.8.5.4.2.8-.3.5-.6-3-2.6-5.4-5.8-7-9.4-.4-.4-1-.1-.8.4zM69.9 106.2c1 1.7 2.1 3.3 3.4 4.8.6.8 1.3 1.5 2 2.2l1.1 1.1c.2.1.3.3.5.4.1.1.9.3.9.3l-.2.2h.1c.4-.2.1-.8-.4-.6-.4.2-.3.7 0 .9.4.2.9-.1.8-.5 0-.6-.6-.6-1-.9-.3-.2-.6-.5-.8-.8l-.7-.7c-1.9-2-3.6-4.2-5-6.6-.3-.6-.9-.3-.7.2zM69.7 103.2c1 1.4 1.9 2.8 2.9 4.1.1.2.3.2.5.1s.3-.3.1-.5c-1-1.4-1.9-2.8-2.9-4.1-.1-.2-.3-.2-.5-.1-.1.1-.2.4-.1.5zM80.4 43.4c-.1.4-.2.8.1 1.1.3.4.9.3 1.2 0 .2-.1.3-.3.4-.5.1-.2.1-.4.1-.6 0-.3-.2-.5-.4-.6-.2-.1-.4-.1-.7-.1-.3 0-.5.1-.7.2-.2.2-.3.5-.2.7 0 .2.2.3.4.3s.3-.1.4-.3c.2-.4.2-.9-.1-1.3-.4-.4-1-.2-1.2.2-.1.2-.2.4-.2.6 0 .2 0 .4.1.6.2.4.7.5 1.1.4.4-.1.8-.4 1-.8.1-.3-.1-.6-.4-.6-.3.1-.6.3-.8.6-.2.4.3.8.6.5.3-.3.5-.7.5-1.2 0-.2 0-.4-.1-.6 0-.1-.1-.1-.1.2 0 0 .1 0 0 0h.2c.2.1.3.1.5.2.1 0 0 0 0 0l.1.1v.1c-.1.1-.2.3-.3.4l-.1.1s-.1 0 0 0h-.1c0 .1.1.2.1.4 0 .1 0 0 0 0s-.1 0 0 0c0 0 .1 0 0 0 .1 0-.1 0 0 0h.1s-.1 0 0 0c0 0 .1 0 0 0 .1 0-.1 0 0 0 0 0 0 .1 0 0v.1s0-.1 0 0v.1c0-.1 0 .1 0 0v.1s0 .1 0 0l-.1.1h-.1-.1s-.1 0 0 0h-.1s-.1 0 0 0c0 0-.1 0-.1-.1 0 0-.1 0-.1-.1-.1-.1 0 0 0 0-.1-.2-.3-.2-.5-.1s-.2.3-.1.5c.3.4.8.7 1.3.5.5-.1.8-.5.8-1 0-.4-.3-.9-.7-1-.5-.1-.9.1-1.1.6 0 .1 0 .3.1.4.4.4 1 .2 1.3-.2.3-.4.7-.9.4-1.3-.2-.4-.7-.6-1.1-.6-.3 0-.5 0-.7.1-.3.2-.3.4-.2.7v.6c0 .2-.1.3-.3.5.2.2.4.3.6.5.1-.1.2-.2.3-.2-.1-.2-.3-.4-.4-.6-.1.1-.1.2-.2.3h-.1-.1-.1-.1c-.1 0 0 0 0 0h-.1c-.1 0 0 0 0 0s0-.1 0 0c0-.1 0-.3.1-.4v-.1c-.1 0 .1 0 0 0 0-.1 0 .1 0 0 0 0 0 .1 0 0 0 .2-.1.3-.1.5h.7c0-.1 0 0 0 0 0 .1 0-.1 0 0 0 0 .1 0 0 0 .1-.1.3 0 .4 0h.2s0 .1 0 0V43.7c0 .1-.1.1-.1.2l-.1.1s-.1 0 0 0c0 0-.1 0 0 0 0 0 0-.1 0 0 0 0 0-.1 0 0v-.1-.1c0 .1 0 0 0 0 0-.1 0-.1.1-.2.1-.2-.1-.4-.3-.5-.5 0-.7.2-.8.3z" />
	<path class="stats_gold_1"
		d="M80.5 42.9v-.2V42.6v.1c0-.1.1-.1.1-.2 0 0 0 .1-.1.1 0-.1.1-.1.1-.1s-.1 0-.1.1c.1 0 .1-.1.2-.1h-.1c.1 0 .1 0 .2-.1h-.1.1c.1 0 .1 0 .2.1h.3c.1 0 .2-.1.2-.2V42l-.2-.2c-.4-.1-.8-.1-1.1.2-.3.2-.5.6-.5 1 0 .1 0 .2.1.3.1.1.2.1.3.1.3-.1.5-.3.4-.5z" />
	<path class="stats_gold_1"
		d="M80 43.4c-.1.2-.2.5-.1.8.1.2.2.5.4.6.2.2.6.2.8.1.3-.1.5-.2.7-.3l.2-.2v-.3c-.1-.2-.3-.3-.5-.1-.1.1-.2.1-.3.2 0 0 .1 0 0 0H80.9h.1-.2 0c.1 0 .1 0 0 0l-.1-.1s0-.1 0 0V44s0 .1 0 0v-.1-.1 0c0-.1 0 .1 0 0v-.1c.1-.2 0-.4-.1-.5-.3 0-.5.1-.6.2zM81.9 43.1c.1-.1.1-.3.2-.4v-.1-.1s0-.1-.1-.1l-.1-.1c-.1 0-.2-.1-.3 0h-.1c-.1 0-.1.1-.1.1-.1.1-.1.3-.2.4v.2s0 .1.1.1l.1.1c.1 0 .2.1.3 0h.1l.1-.1zM117.3 40.3c-.2-.2-.5-.2-.7-.1-.2.1-.4.3-.5.6-.2.5.3 1.1.8.9.5-.1.7-.7.7-1.2 0-.4-.2-1-.7-1l.3.6c.2-.2.5-.4.8-.5.1 0 .2 0 .2.1.1.1.1.2.2.4V40.4s-.1.1-.2.1c0 0-.1 0-.2-.1l-.1-.1v-.1-.1c-.2.1-.5.1-.7.2.1.2.2.5.2.7l.3.6c.4.3 1.1.1 1.1-.4 0-.2-.2-.4-.4-.4-.4 0-1.2.2-1.2.7 0 .2.1.5.3.6.2.1.5.1.7.1.4-.1.8-.2.9-.7.1-.4-.2-.9-.6-1.1-.2-.1-.5-.1-.8-.2h-.4c-.1 0-.1 0-.2.1l-.1.1h-.1H117.2l.1.1v.1s0-.1.1-.2v-.3c0-.2-.2-.3-.3-.4-.2-.1-.3-.1-.5-.1-.1 0-.3.1-.4.1l.4.4c0-.2 0-.3.1-.5 0-.1.1-.2.2-.3h.2c.1 0 .3.2.4.3.2.1.4 0 .5-.1.1-.2 0-.4-.1-.5-.2-.2-.4-.3-.7-.3-.3 0-.5 0-.7.2-.5.3-.6.9-.6 1.4 0 .2.2.4.4.4.1 0 .3 0 .4-.1h.1c.1 0 .1 0 0 0v-.1c0-.1 0-.1 0 0 0 0 0 .1-.1.1 0 .2 0 .4.1.5.1.1.4.2.5.1l.1-.1c-.1 0 0 0 0 0 .2 0 .5 0 .6.1l.1.1.1.1v.1h-.1-.4s-.1 0 0 0c0 0-.1 0 0 0v.1c0 .1 0 .1-.1.2h.1s.1 0 .1-.1c.1 0 .2-.1.3-.1l-.4-.4c0-.1 0-.1.1-.1s-.1 0 0 0l-.1-.1-.3-.9c-.1-.2-.3-.3-.5-.3-.2.1-.3.3-.3.5.1.4.4.7.8.9.4.1.8 0 1.1-.3.3-.4.2-.9 0-1.3s-.6-.7-1-.6c-.5.1-.9.4-1.3.7-.2.2 0 .7.3.6h-.1v.5c0 .1 0 .1-.1.2v.1s0-.1.1-.1h-.1c-.1-.1-.1-.1-.1 0 .1.2.4.1.5 0 .7-.3.7-.5.6-.7z" />
	<path class="stats_gold_1"
		d="M117 40.2c.1-.1.2-.2.4-.3.1 0 .1-.1.2-.1h.1c-.1 0 0 0 0 0 .1 0 .1 0 .2-.1.1 0-.1 0 0 0h.2c.1 0-.1 0 0 0 0 0 .1 0 .2.1 0 0-.1 0 0 0l.1.1v.1s0-.1 0 0v.1c0-.1 0-.1 0 0v.1c0-.1 0-.1 0 0v.1s0-.1 0 0l-.1.1s.1 0 0 0c0 0 .1 0 0 0-.2 0-.3.3-.3.5.1.2.3.3.5.3.6-.1.8-.9.5-1.4-.3-.5-1-.7-1.6-.5-.3.1-.6.3-.9.5-.2.1-.3.3-.1.5.2-.1.4 0 .6-.1z" />
	<g>
		<path class="stats_gold_1"
			d="M92.2 49.4c.6 1.1 1.2 2.3 1.9 3.4.6.9 1.3 1.7 2.4 1.8 2.4.4 3.8-2.5 4.8-4.1-.4.1-.8.1-1.2.2 1.4 1.5 3.3 4.2 5.7 3.6 2.5-.7 3.3-4 4.1-6.1.4-.9-1.1-1.3-1.4-.4-.4 1-.8 1.9-1.2 2.9-.4.8-.9 1.9-1.9 2.2-.9.2-1.6-.5-2.2-1-.7-.7-1.4-1.4-2.1-2.2-.3-.4-.9-.3-1.2.2-.6 1-1.9 4-3.5 3.4-.7-.3-1.1-1.1-1.5-1.7l-1.5-2.7c-.4-1.1-1.7-.3-1.2.5z" />
	</g>
	<g>
		<path class="stats_gold_1"
			d="M118.1 48.5c3.6 2 6.9 4.3 9.8 7.1.7.7 1.8-.4 1.1-1.1-3.1-2.8-6.5-5.3-10.1-7.3-.9-.5-1.6.8-.8 1.3zM117.1 51.9c2.1 2.3 4.1 4.6 6.2 7 .6.7 1.7-.3 1.1-1.1-2.1-2.3-4.1-4.6-6.2-7-.7-.6-1.8.4-1.1 1.1z" />
	</g>
	<g>
		<path class="stats_gold_1"
			d="M84 48.6c-4 2.3-7.7 5-11 8.2l1.1 1.1.3-.3c.7-.7-.4-1.8-1.1-1.1l-.3.3c-.7.7.4 1.7 1.1 1.1 3.2-3.1 6.8-5.7 10.7-7.9.8-.6.1-1.9-.8-1.4zM85.4 52.3c-1.6 2.1-3.2 4.2-4.7 6.4-.2.3-.1.8.3 1 .4.2.8.1 1-.3 1.6-2.1 3.2-4.2 4.7-6.4.2-.3.1-.8-.3-1-.3-.2-.7 0-1 .3z" />
	</g>
	<g>
		<path class="stats_gold_1"
			d="M78.8 128.9c.2-.3-.1-.7-.4-.5-.1.1-.3.1-.4.2 0 0-.1 0 0 0-.1 0-.1-.1-.2-.2v-.1-.1c0-.1 0-.2-.1-.3 0-.2-.2-.3-.4-.2-.2.1-.3.2-.2.4v.1l-.1.1s-.1 0-.1.1c-.1.1-.2.1-.4.2-.1 0-.3.1-.5.1s-.3.4-.1.6c.2.2.6.3.9.3v.4c0 .2 0 .4.1.6.1.1.2.2.4.2.1 0 .3-.2.2-.3v-.4c0-.1.1-.1.1-.1h.3l.3.3c.1.1.3.2.4.1.1-.1.3-.2.2-.4v-.1c-.1-.2-.2-.3-.4-.5l-.1-.1c.1-.1.3-.2.5-.4zM77.6 135.9h-.8c0-.2-.1-.5-.1-.7 0-.1 0-.1-.1-.1 0-.1 0-.3-.1-.4-.1-.2-.3-.2-.5-.1s-.2.3-.1.5v.2c0 .1-.1.2-.1.2l-.1.1h-.1-.1-.1-.1-.1c-.2-.1-.4.1-.4.2-.1.2.1.3.2.4 0 0 .1.1 0 0 .1 0 .1.1.1.1v.2c-.1.1-.1.1-.1.2-.2.3-.1.6.1.9.1.1.4.1.5 0 .2-.2.3-.4.3-.7h.1s.1 0 .1.1c.2.2.4.5.5.7.1.2.3.2.5.1s.2-.3.1-.5c-.1-.3-.3-.6-.6-.8.1 0 .2-.1.3-.1h.4c.2 0 .3-.2.3-.3.4-.1.2-.2 0-.2zM82.1 134.3c0-.2-.2-.3-.3-.3h-.4s-.1 0-.1-.1v-.1c0-.1-.1-.1-.1-.2v-.2c0-.2-.1-.3-.3-.3-.2 0-.4.1-.3.3 0 .2 0 .4-.1.6h-.1c-.2-.1-.5 0-.7.1-.3.1-.2.6.2.6h.5l.1.1c0-.1 0 0 0 0v.1c-.1.1-.2.3-.2.5 0 .1.1.3.2.3.1.1.3 0 .4-.1.1-.1.2-.3.2-.4.1.2.3.4.5.5.2.1.5 0 .5-.3s-.2-.5-.4-.7H82c0-.1.1-.3.1-.4zM82.5 141.5c-.1-.2-.3-.2-.5-.1h-.1-.1-.1-.1s-.1 0-.1-.1l-.1-.1s-.1-.1 0 0v-.1s0-.1 0 0v-.1s0-.1 0 0v-.2-.1c0-.2-.1-.4-.3-.6-.1-.1-.4-.1-.5 0-.1.1-.1.3 0 .5.2.2.2.5 0 .7l-.1.1h-.1s-.1 0-.1.1h-.1-.1H79.8c-.4 0-.5.6-.1.7h.1c.2 0 .4 0 .5.1v.1c-.1.2-.2.4-.2.6 0 .2 0 .3.2.4.2.1.3 0 .4-.1.1-.2.2-.3.2-.5.2.1.4.3.6.4.2.2.6.1.6-.2v-.7-.1c.1 0 .1 0 .2-.1.2-.2.3-.4.2-.6zM87 138.3h-.7c.1-.1 0-.2 0-.3.2-.2.3-.4.3-.6 0-.2-.2-.3-.3-.3-.2 0-.3.1-.3.3h-.1-.1-.1c.1 0 0 0 0 0-.2-.1-.4 0-.5.1-.1.2 0 .4.1.5h.1s0 .1.1.1v.4c-.2.2-.3.4-.3.6 0 .2.3.4.5.3.2-.1.3-.2.4-.4.1.1.1.3.2.4.1.1.2.3.3.2.2 0 .3-.1.3-.2v-.3c.3 0 .5-.2.7-.4-.2-.1-.4-.4-.6-.4zM81.7 150h-.6v-.5c0-.1-.1-.2-.1-.3 0-.1-.1-.3-.2-.4-.3-.3-.8.2-.5.5.1.1 0 0 0 0 0 .1 0 0 0 0v.2s0 .1-.1.1c-.2.2-.5.2-.8.2-.3 0-.4.4-.2.6.2.1.5.2.7.2v.2c-.1.2-.1.4-.2.6 0 .2 0 .3.2.4.1.1.3 0 .4-.1v-.1c.1-.2.1-.4.2-.6.1.1.3.3.4.5.1.2.3.2.5.1s.2-.3.1-.5l-.3-.6.5-.1c.5.1.4-.4 0-.4zM72.5 166.5c.2.3-.1.7-.4.5-.1-.1-.3-.1-.4-.2 0 0-.1 0 0 0-.1 0-.1.1-.2.2v.2c0 .1 0 .2-.1.3 0 .2-.2.3-.4.2-.2-.1-.3-.2-.2-.4v-.1l-.1-.1s-.1 0-.1-.1c-.1-.1-.2-.1-.4-.2-.1 0-.3-.1-.5-.1s-.3-.4-.1-.6c.2-.2.6-.3.9-.3v-.4c0-.2 0-.4.1-.6.1-.1.2-.2.4-.2.1 0 .3.2.2.3v.4c0 .1.1.1.1.1h.3l.3-.3c.1-.1.3-.2.4-.1.1.1.3.2.2.4v.1c-.1.2-.2.3-.4.5l-.1.1c.1.1.3.2.5.4zM75.8 161.2c0 .2-.2.3-.3.3h-.4s-.1 0-.1.1v.1c0 .1-.1.1-.1.2v.2c0 .2-.1.3-.3.3-.2 0-.4-.1-.3-.3 0-.2 0-.4-.1-.6h-.1c-.2.1-.5 0-.7-.1-.3-.1-.2-.6.2-.6h.5l.1-.1c0 .1 0 0 0 0v-.1c-.1-.1-.2-.3-.2-.5 0-.1.1-.3.2-.3.1-.1.3 0 .4.1.1.1.2.3.2.4.1-.2.3-.4.5-.5.2-.1.5 0 .5.3s-.2.5-.4.7H75.7c0 .1.1.2.1.4zM76.2 153.9c-.1.2-.3.2-.5.1h-.1-.1-.1-.1s-.1 0-.1.1l-.1.1s-.1.1 0 0v.1s0 .1 0 0v.1s0 .1 0 0V154.7c0 .2-.1.4-.3.6-.1.1-.4.1-.5 0-.1-.1-.1-.3 0-.5.2-.2.2-.5 0-.7l-.1-.1h-.1s-.1 0-.1-.1h-.1-.1H73.5c-.4 0-.5-.6-.1-.7h.1c.2 0 .4 0 .5-.1v-.1c-.1-.2-.2-.4-.2-.6 0-.2 0-.3.2-.4.2-.1.3 0 .4.1.1.2.2.3.2.5.2-.1.4-.3.6-.4.2-.2.6-.1.6.2V153.2c.1 0 .1 0 .2.1.3.2.3.4.2.6zM80.7 157.2H80c.1.1 0 .2 0 .3.2.2.3.4.3.6 0 .2-.2.3-.3.3-.2 0-.3-.1-.3-.3h-.1-.1-.1c.1 0 0 0 0 0-.2.1-.4 0-.5-.1-.1-.2 0-.4.1-.5h.1s0-.1.1-.1v-.1-.1-.1-.1c-.2-.2-.3-.4-.3-.6 0-.2.3-.4.5-.3.2.1.3.2.4.4.1-.1.1-.3.2-.4.1-.1.2-.3.3-.2.2 0 .3.1.3.2v.3c.3 0 .5.2.7.4-.2.1-.4.4-.6.4zM75.4 145.5h-.6v.5c0 .1-.1.2-.1.3 0 .1-.1.3-.2.4-.3.3-.8-.2-.5-.5.1-.1 0 0 0 0 0-.1 0 0 0 0v-.1-.1s0-.1-.1-.1c-.2-.2-.5-.2-.8-.2-.3 0-.4-.4-.2-.6.2-.1.5-.2.7-.2v-.2c-.1-.2-.1-.4-.2-.6 0-.2 0-.3.2-.4.1-.1.3 0 .4.1v.1c.1.2.1.4.2.6.1-.1.3-.3.4-.5.1-.2.3-.2.5-.1s.2.3.1.5l-.3.6.5.1c.5-.2.4.4 0 .4zM71 101.4c.6 1 1.2 1.9 1.8 2.9" />
		<path class="stats_gold_2"
			d="M70.7 101.6c.6 1 1.2 1.9 1.8 2.9.3.4.9 0 .6-.4-.6-1-1.2-1.9-1.8-2.9-.2-.4-.8 0-.6.4z" />
		<path class="stats_gold_1"
			d="M148.9 70.1c.2-.3-.1-.7-.4-.5-.1.1-.3.1-.4.2 0 0-.1 0 0 0-.1 0-.1-.1-.2-.2v-.1-.1c0-.1 0-.2-.1-.3 0-.2-.2-.3-.4-.2-.2.1-.3.2-.2.4v.1l-.1.1s-.1 0-.1.1c-.1.1-.2.1-.4.2-.1 0-.3.1-.5.1s-.3.4-.1.6c.2.2.6.3.9.3v.4c0 .2 0 .4.1.6.1.1.2.2.4.2.1 0 .3-.2.2-.3v-.4c0-.1.1-.1.1-.1h.3l.3.3c.1.1.3.2.4.1.1-.1.3-.2.2-.4v-.1c-.1-.2-.2-.3-.4-.5l-.1-.1c.1-.1.3-.2.5-.4zM147.8 77.1h-.8c0-.2-.1-.5-.1-.7 0-.1 0-.1-.1-.1 0-.1 0-.3-.1-.4-.1-.2-.3-.2-.5-.1s-.2.3-.1.5v.2c0 .1-.1.2-.1.2l-.1.1h-.1-.1-.1-.1-.1c-.2-.1-.4.1-.4.2-.1.2.1.3.2.4 0 0 .1.1 0 0 .1 0 .1.1.1.1v.2c-.1.1-.1.1-.1.2-.2.3-.1.6.1.9.1.1.4.1.5 0 .2-.2.3-.4.3-.7h.1s.1 0 .1.1c.2.2.4.5.5.7.1.2.3.2.5.1s.2-.3.1-.5c-.1-.3-.3-.6-.6-.8.1 0 .2-.1.3-.1h.4c.2 0 .3-.2.3-.3.3-.1.1-.2 0-.2zM152.2 75.4c0-.2-.2-.3-.3-.3h-.4s-.1 0-.1-.1v-.1c0-.1-.1-.1-.1-.2v-.2c0-.2-.1-.3-.3-.3-.2 0-.4.1-.3.3 0 .2 0 .4-.1.6h-.1c-.2-.1-.5 0-.7.1-.3.1-.2.6.2.6h.5l.1.1c0-.1 0 0 0 0v.1c-.1.1-.2.3-.2.5 0 .1.1.3.2.3.1.1.3 0 .4-.1.1-.1.2-.3.2-.4.1.2.3.4.5.5.2.1.5 0 .5-.3s-.2-.5-.4-.7H152.1s.1-.2.1-.4zM152.7 82.7c-.1-.2-.3-.2-.5-.1h-.1-.1-.1-.1s-.1 0-.1-.1l-.1-.1s-.1-.1 0 0v-.1s0-.1 0 0v-.1s0-.1 0 0V82v-.1c0-.2-.1-.4-.3-.6-.1-.1-.4-.1-.5 0-.1.1-.1.3 0 .5.2.2.2.5 0 .7l-.1.1h-.1s-.1 0-.1.1h-.1-.1H150c-.4 0-.5.6-.1.7h.1c.2 0 .4 0 .5.1v.1c-.1.2-.2.4-.2.6 0 .2 0 .3.2.4.2.1.3 0 .4-.1.1-.2.2-.3.2-.5.2.1.4.3.6.4.2.2.6.1.6-.2v-.7-.1c.1 0 .1 0 .2-.1.2-.2.2-.4.2-.6zM157.1 79.5h-.7c.1-.1 0-.2 0-.3.2-.2.3-.4.3-.6 0-.2-.2-.3-.3-.3-.2 0-.3.1-.3.3h-.1-.1-.1c.1 0 0 0 0 0-.2-.1-.4 0-.5.1-.1.2 0 .4.1.5h.1s0 .1.1.1v.4c-.2.2-.3.4-.3.6 0 .2.3.4.5.3.2-.1.3-.2.4-.4.1.1.1.3.2.4.1.1.2.3.3.2.2 0 .3-.1.3-.2v-.3c.3 0 .5-.2.7-.4-.2-.2-.4-.5-.6-.4zM151.9 91.1h-.6v-.5c0-.1-.1-.2-.1-.3 0-.1-.1-.3-.2-.4-.3-.3-.8.2-.5.5.1.1 0 0 0 0 0 .1 0 0 0 0v.2s0 .1-.1.1c-.2.2-.5.2-.8.2-.3 0-.4.4-.2.6.2.1.5.2.7.2v.2c-.1.2-.1.4-.2.6 0 .2 0 .3.2.4.1.1.3 0 .4-.1v-.1c.1-.2.1-.4.2-.6.1.1.3.3.4.5.1.2.3.2.5.1s.2-.3.1-.5l-.3-.6.5-.1c.4.2.3-.3 0-.4zM50.7 83.5c-.2-.3.1-.7.4-.5.1.1.3.1.4.2 0 0 .1 0 0 0 .1 0 .1-.1.2-.2v-.1-.1c0-.1 0-.2.1-.3 0-.2.2-.3.4-.2.2.1.3.2.2.4v.1l.1.1s.1 0 .1.1c.1.1.2.1.4.2.1 0 .3.1.5.1s.3.4.1.6c-.2.2-.6.3-.9.3v.4c0 .2 0 .4-.1.6-.1.1-.2.2-.4.2-.1 0-.3-.2-.2-.3v-.4c0-.1-.1-.1-.1-.1h-.3l-.3.3c-.1.1-.3.2-.4.1-.1-.1-.3-.2-.2-.4v-.1c.1-.2.2-.3.4-.5l.1-.1c-.1-.1-.4-.2-.5-.4zM51.8 90.5h.8c0-.2.1-.5.1-.7 0-.1 0-.1.1-.1 0-.1 0-.3.1-.4.1-.2.3-.2.5-.1s.2.3.1.5v.2c0 .1.1.2.1.2l.1.1h.5c.2-.1.4.1.4.2.1.2-.1.3-.2.4 0 0-.1.1 0 0-.1 0-.1.1-.1.1v.2c.1.1.1.1.1.2.2.3.1.6-.1.9-.1.1-.4.1-.5 0-.2-.2-.3-.4-.3-.7h-.1s-.1 0-.1.1c-.2.2-.4.5-.5.7-.1.2-.3.2-.5.1s-.2-.3-.1-.5c.1-.3.3-.6.6-.8-.1 0-.2-.1-.3-.1h-.4c-.2 0-.3-.2-.3-.3-.3-.1-.2-.2 0-.2zM47.4 88.9c0-.2.2-.3.3-.3h.4s.1 0 .1-.1v-.1c0-.1.1-.1.1-.2V88c0-.2.1-.3.3-.3.2 0 .4.1.3.3 0 .2 0 .4.1.6h.1c.2-.1.5 0 .7.1.3.1.2.6-.2.6h-.5l-.1.1c0-.1 0 0 0 0v.1c.1.1.2.3.2.5 0 .1-.1.3-.2.3-.1.1-.3 0-.4-.1-.1-.1-.2-.3-.2-.4-.1.2-.3.4-.5.5-.2.1-.5 0-.5-.3s.2-.5.4-.7h-.2-.1c-.1-.1-.2-.3-.1-.4zM46.9 96.1c.1-.2.3-.2.5-.1h.4s.1 0 .1-.1l.1-.1s.1-.1 0 0v-.1s0-.1 0 0v-.1s0-.1 0 0v-.2-.1c0-.2.1-.4.3-.6.1-.1.4-.1.5 0 .1.1.1.3 0 .5-.2.2-.2.5 0 .7l.1.1h.1s.1 0 .1.1h.5c.4 0 .5.6.1.7h-.1c-.2 0-.4 0-.5.1v.1c.1.2.2.4.2.6 0 .2 0 .3-.2.4-.2.1-.3 0-.4-.1-.1-.2-.2-.3-.2-.5-.2.1-.4.3-.6.4-.2.2-.6.1-.6-.2v-.7-.1c-.1 0-.1 0-.2-.1-.2-.2-.3-.4-.2-.6zM42.5 92.9h.7c-.1-.1 0-.2 0-.3-.2-.2-.3-.4-.3-.6 0-.2.2-.3.3-.3.2 0 .3.1.3.3H43.8c-.1 0 0 0 0 0 .2-.1.4 0 .5.1.1.2 0 .4-.1.5h-.1s0 .1-.1.1v.4c.2.2.3.4.3.6 0 .2-.3.4-.5.3-.2-.1-.3-.2-.4-.4-.1.1-.1.3-.2.4-.1.1-.2.3-.3.2-.2 0-.3-.1-.3-.2v-.3c-.3 0-.5-.2-.7-.4.1-.1.3-.5.6-.4zM47.7 104.6h.6v-.5c0-.1.1-.2.1-.3 0-.1.1-.3.2-.4.3-.3.8.2.5.5-.1.1 0 0 0 0 0 .1 0 0 0 0v.2s0 .1.1.1c.2.2.5.2.8.2.3 0 .4.4.2.6-.2.1-.5.2-.7.2v.2c.1.2.1.4.2.6 0 .2 0 .3-.2.4-.1.1-.3 0-.4-.1v-.1c-.1-.2-.1-.4-.2-.6-.1.1-.3.3-.4.5-.1.2-.3.2-.5.1s-.2-.3-.1-.5l.3-.6-.5-.1c-.5.1-.4-.4 0-.4zM142.6 107.7c.2.3-.1.7-.4.5-.1-.1-.3-.1-.4-.2 0 0-.1 0 0 0-.1 0-.1.1-.2.2v.2c0 .1 0 .2-.1.3 0 .2-.2.3-.4.2-.2-.1-.3-.2-.2-.4v-.1l-.1-.1s-.1 0-.1-.1c-.1-.1-.2-.1-.4-.2-.1 0-.3-.1-.5-.1s-.3-.4-.1-.6c.2-.2.6-.3.9-.3v-.4c0-.2 0-.4.1-.6.1-.1.2-.2.4-.2.1 0 .3.2.2.3v.4c0 .1.1.1.1.1h.3l.3-.3c.1-.1.3-.2.4-.1.1.1.3.2.2.4v.1c-.1.2-.2.3-.4.5l-.1.1c.1.1.3.2.5.4zM141.5 100.7h-.8c0 .2-.1.5-.1.7 0 .1 0 .1-.1.1 0 .1 0 .3-.1.4-.1.2-.3.2-.5.1s-.2-.3-.1-.5v-.1-.1c0-.1-.1-.2-.1-.2l-.1-.1h-.1-.1-.1-.1-.1c-.2.1-.4-.1-.4-.2-.1-.2.1-.3.2-.4 0 0 .1-.1 0 0 .1 0 .1-.1.1-.1v-.1-.1c-.1-.1-.1-.1-.1-.2-.2-.3-.1-.6.1-.9.1-.1.4-.1.5 0 .2.2.3.4.3.7h.1s.1 0 .1-.1c.2-.2.4-.5.5-.7.1-.2.3-.2.5-.1s.2.3.1.5c-.1.3-.3.6-.6.8.1 0 .2.1.3.1h.4c.2 0 .3.2.3.3.3.1.1.2 0 .2zM145.9 102.3c0 .2-.2.3-.3.3h-.4s-.1 0-.1.1v.1c0 .1-.1.1-.1.2v.2c0 .2-.1.3-.3.3-.2 0-.4-.1-.3-.3 0-.2 0-.4-.1-.6h-.1c-.2.1-.5 0-.7-.1-.3-.1-.2-.6.2-.6h.5l.1-.1c0 .1 0 0 0 0v-.1c-.1-.1-.2-.3-.2-.5 0-.1.1-.3.2-.3.1-.1.3 0 .4.1.1.1.2.3.2.4.1-.2.3-.4.5-.5.2-.1.5 0 .5.3s-.2.5-.4.7H145.8c0 .1.1.3.1.4zM146.4 95.1c-.1.2-.3.2-.5.1h-.1-.1-.1-.1s-.1 0-.1.1l-.1.1s-.1.1 0 0v.1s0 .1 0 0v.1s0 .1 0 0V95.9c0 .2-.1.4-.3.6-.1.1-.4.1-.5 0-.1-.1-.1-.3 0-.5.2-.2.2-.5 0-.7l-.1-.1h-.1s-.1 0-.1-.1h-.1-.1H143.7c-.4 0-.5-.6-.1-.7h.1c.2 0 .4 0 .5-.1v-.1c-.1-.2-.2-.4-.2-.6 0-.2 0-.3.2-.4.2-.1.3 0 .4.1.1.2.2.3.2.5.2-.1.4-.3.6-.4.2-.2.6-.1.6.2V94.4c.1 0 .1 0 .2.1.2.2.2.4.2.6zM150.8 98.3h-.7c.1.1 0 .2 0 .3.2.2.3.4.3.6 0 .2-.2.3-.3.3-.2 0-.3-.1-.3-.3h-.1-.1-.1c.1 0 0 0 0 0-.2.1-.4 0-.5-.1-.1-.2 0-.4.1-.5h.1s0-.1.1-.1v-.1-.1-.1-.1c-.2-.2-.3-.4-.3-.6 0-.2.3-.4.5-.3.2.1.3.2.4.4.1-.1.1-.3.2-.4.1-.1.2-.3.3-.2.2 0 .3.1.3.2v.3c.3 0 .5.2.7.4-.2.1-.3.4-.6.4zM145.6 86.6h-.6v.5c0 .1-.1.2-.1.3 0 .1-.1.3-.2.4-.3.3-.8-.2-.5-.5.1-.1 0 0 0 0 0-.1 0 0 0 0v-.1-.1s0-.1-.1-.1c-.2-.2-.5-.2-.8-.2-.3 0-.4-.4-.2-.6.2-.1.5-.2.7-.2v-.2c-.1-.2-.1-.4-.2-.6 0-.2 0-.3.2-.4.1-.1.3 0 .4.1v.1c.1.2.1.4.2.6.1-.1.3-.3.4-.5.1-.2.3-.2.5-.1s.2.3.1.5l-.3.6.5.1c.4-.1.4.4 0 .4zM56 98.7c.2-.3-.1-.7-.4-.5-.1.1-.3.1-.4.2 0 0-.1 0 0 0-.1 0-.1-.1-.2-.2v-.1-.1c0-.1 0-.2-.1-.3 0-.2-.2-.3-.4-.2-.2.1-.3.2-.2.4v.1l-.1.1s-.1 0-.1.1c-.1.1-.2.1-.4.2-.1 0-.3.1-.5.1s-.3.4-.1.6c.2.2.6.3.9.3v.4c0 .2 0 .4.1.6.1.1.2.2.4.2.1 0 .3-.2.2-.3v-.4c0-.1.1-.1.1-.1h.3l.3.3c.1.1.3.2.4.1.1-.1.3-.2.2-.4v-.1c-.1-.2-.2-.3-.4-.5l-.1-.1c.1-.1.3-.2.5-.4zM54.8 105.6H54c0-.2-.1-.5-.1-.7 0-.1 0-.1-.1-.1 0-.1 0-.3-.1-.4-.1-.2-.3-.2-.5-.1s-.2.3-.1.5v.2c0 .1-.1.2-.1.2l-.1.1h-.1-.1-.1-.1-.1c-.2-.1-.4.1-.4.2-.1.2.1.3.2.4 0 0 .1.1 0 0 .1 0 .1.1.1.1v.2c-.1.1-.1.1-.1.2-.2.3-.1.6.1.9.1.1.4.1.5 0 .2-.2.3-.4.3-.7h.1s.1 0 .1.1c.2.2.4.5.5.7.1.2.3.2.5.1s.2-.3.1-.5c-.1-.3-.3-.6-.6-.8.1 0 .2-.1.3-.1h.4c.2 0 .3-.2.3-.3.4 0 .2-.1 0-.2zM59.3 104c0-.2-.2-.3-.3-.3h-.4s-.1 0-.1-.1v-.1c0-.1-.1-.1-.1-.2v-.2c0-.2-.1-.3-.3-.3-.2 0-.4.1-.3.3 0 .2 0 .4-.1.6h-.1c-.2-.1-.5 0-.7.1-.3.1-.2.6.2.6h.5l.1.1c0-.1 0 0 0 0v.1c-.1.1-.2.3-.2.5 0 .1.1.3.2.3.1.1.3 0 .4-.1.1-.1.2-.3.2-.4.1.2.3.4.5.5.2.1.5 0 .5-.3s-.2-.5-.4-.7H59.2c0-.1.1-.2.1-.4zM59.7 111.3c-.1-.2-.3-.2-.5-.1h-.1-.1-.1-.1s-.1 0-.1-.1l-.1-.1s-.1-.1 0 0v-.1s0-.1 0 0v-.1s0-.1 0 0v-.2-.1c0-.2-.1-.4-.3-.6-.1-.1-.4-.1-.5 0-.1.1-.1.3 0 .5.2.2.2.5 0 .7l-.1.1h-.1s-.1 0-.1.1h-.1-.1H57c-.4 0-.5.6-.1.7h.1c.2 0 .4 0 .5.1v.1c-.1.2-.2.4-.2.6 0 .2 0 .3.2.4.2.1.3 0 .4-.1.1-.2.2-.3.2-.5.2.1.4.3.6.4.2.2.6.1.6-.2v-.7-.1c.1 0 .1 0 .2-.1.3-.2.3-.4.2-.6zM64.2 108h-.7c.1-.1 0-.2 0-.3.2-.2.3-.4.3-.6 0-.2-.2-.3-.3-.3-.2 0-.3.1-.3.3h-.1-.1-.1c.1 0 0 0 0 0-.2-.1-.4 0-.5.1-.1.2 0 .4.1.5h.1s0 .1.1.1v.4c-.2.2-.3.4-.3.6 0 .2.3.4.5.3.2-.1.3-.2.4-.4.1.1.1.3.2.4.1.1.2.3.3.2.2 0 .3-.1.3-.2v-.3c.3 0 .5-.2.7-.4-.2-.1-.4-.4-.6-.4zM59 119.7h-.6v-.5c0-.1-.1-.2-.1-.3 0-.1-.1-.3-.2-.4-.3-.3-.8.2-.5.5.1.1 0 0 0 0 0 .1 0 0 0 0v.2s0 .1-.1.1c-.2.2-.5.2-.8.2-.3 0-.4.4-.2.6.2.1.5.2.7.2v.2c-.1.2-.1.4-.2.6 0 .2 0 .3.2.4.1.1.3 0 .4-.1v-.1c.1-.2.1-.4.2-.6.1.1.3.3.4.5.1.2.3.2.5.1s.2-.3.1-.5l-.3-.6.5-.1c.4.2.3-.4 0-.4zM135.1 110.1c-.2-.3.1-.7.4-.5.1.1.3.1.4.2 0 0 .1 0 0 0 .1 0 .1-.1.2-.2v-.1-.1c0-.1 0-.2.1-.3 0-.2.2-.3.4-.2.2.1.3.2.2.4v.1l.1.1s.1 0 .1.1c.1.1.2.1.4.2.1 0 .3.1.5.1s.3.4.1.6c-.2.2-.6.3-.9.3v.4c0 .2 0 .4-.1.6-.1.1-.2.2-.4.2-.1 0-.3-.2-.2-.3v-.4c0-.1-.1-.1-.1-.1h-.3l-.3.3c-.1.1-.3.2-.4.1-.1-.1-.3-.2-.2-.4v-.1c.1-.2.2-.3.4-.5l.1-.1c-.1-.1-.4-.2-.5-.4zM136.2 117.1h.8c0-.2.1-.5.1-.7 0-.1 0-.1.1-.1 0-.1 0-.3.1-.4.1-.2.3-.2.5-.1s.2.3.1.5v.2c0 .1.1.2.1.2l.1.1h.5c.2-.1.4.1.4.2.1.2-.1.3-.2.4 0 0-.1.1 0 0-.1 0-.1.1-.1.1v.2c.1.1.1.1.1.2.2.3.1.6-.1.9-.1.1-.4.1-.5 0-.2-.2-.3-.4-.3-.7h-.1s-.1 0-.1.1c-.2.2-.4.5-.5.7-.1.2-.3.2-.5.1s-.2-.3-.1-.5c.1-.3.3-.6.6-.8-.1 0-.2-.1-.3-.1h-.4c-.2 0-.3-.2-.3-.3-.3-.1-.1-.2 0-.2zM131.8 115.4c0-.2.2-.3.3-.3h.4s.1 0 .1-.1v-.1c0-.1.1-.1.1-.2v-.2c0-.2.1-.3.3-.3.2 0 .4.1.3.3 0 .2 0 .4.1.6h.1c.2-.1.5 0 .7.1.3.1.2.6-.2.6h-.5l-.1.1c0-.1 0 0 0 0v.1c.1.1.2.3.2.5 0 .1-.1.3-.2.3-.1.1-.3 0-.4-.1-.1-.1-.2-.3-.2-.4-.1.2-.3.4-.5.5-.2.1-.5 0-.5-.3s.2-.5.4-.7h-.2-.1s-.1-.2-.1-.4zM131.3 122.7c.1-.2.3-.2.5-.1h.4s.1 0 .1-.1l.1-.1s.1-.1 0 0v-.1s0-.1 0 0v-.1s0-.1 0 0v-.2-.1c0-.2.1-.4.3-.6.1-.1.4-.1.5 0 .1.1.1.3 0 .5-.2.2-.2.5 0 .7l.1.1h.1s.1 0 .1.1h.5c.4 0 .5.6.1.7h-.1c-.2 0-.4 0-.5.1v.1c.1.2.2.4.2.6 0 .2 0 .3-.2.4-.2.1-.3 0-.4-.1-.1-.2-.2-.3-.2-.5-.2.1-.4.3-.6.4-.2.2-.6.1-.6-.2v-.7-.1c-.1 0-.1 0-.2-.1-.2-.2-.2-.4-.2-.6zM126.9 119.4h.7c-.1-.1 0-.2 0-.3-.2-.2-.3-.4-.3-.6 0-.2.2-.3.3-.3.2 0 .3.1.3.3H128.2c-.1 0 0 0 0 0 .2-.1.4 0 .5.1.1.2 0 .4-.1.5h-.1s0 .1-.1.1v.4c.2.2.3.4.3.6 0 .2-.3.4-.5.3-.2-.1-.3-.2-.4-.4-.1.1-.1.3-.2.4-.1.1-.2.3-.3.2-.2 0-.3-.1-.3-.2v-.3c-.3 0-.5-.2-.7-.4.1-.1.3-.4.6-.4zM132.1 131.1h.6v-.5c0-.1.1-.2.1-.3 0-.1.1-.3.2-.4.3-.3.8.2.5.5-.1.1 0 0 0 0 0 .1 0 0 0 0v.2s0 .1.1.1c.2.2.5.2.8.2.3 0 .4.4.2.6-.2.1-.5.2-.7.2v.2c.1.2.1.4.2.6 0 .2 0 .3-.2.4-.1.1-.3 0-.4-.1v-.1c-.1-.2-.1-.4-.2-.6-.1.1-.3.3-.4.5-.1.2-.3.2-.5.1s-.2-.3-.1-.5l.3-.6-.5-.1c-.5.2-.4-.3 0-.4zM141.4 147.7c-.2.3.1.7.4.5.1-.1.3-.1.4-.2 0 0 .1 0 0 0 .1 0 .1.1.2.2v.2c0 .1 0 .2.1.3 0 .2.2.3.4.2.2-.1.3-.2.2-.4v-.1l.1-.1s.1 0 .1-.1c.1-.1.2-.1.4-.2.1 0 .3-.1.5-.1s.3-.4.1-.6c-.2-.2-.6-.3-.9-.3v-.4c0-.2 0-.4-.1-.6-.1-.1-.2-.2-.4-.2-.1 0-.3.2-.2.3v.4c0 .1-.1.1-.1.1h-.3l-.3-.3c-.1-.1-.3-.2-.4-.1-.1.1-.3.2-.2.4v.1c.1.2.2.3.4.5l.1.1c-.1.1-.4.2-.5.4zM138.1 142.3c0 .2.2.3.3.3h.4s.1 0 .1.1v.1c0 .1.1.1.1.2v.2c0 .2.1.3.3.3.2 0 .4-.1.3-.3 0-.2 0-.4.1-.6h.1c.2.1.5 0 .7-.1.3-.1.2-.6-.2-.6h-.5l-.1-.1c0 .1 0 0 0 0v-.1c.1-.1.2-.3.2-.5 0-.1-.1-.3-.2-.3-.1-.1-.3 0-.4.1-.1.1-.2.3-.2.4-.1-.2-.3-.4-.5-.5-.2-.1-.5 0-.5.3s.2.5.4.7h-.2-.1c0 .1-.1.3-.1.4zM137.6 135.1c.1.2.3.2.5.1h.4s.1 0 .1.1l.1.1s.1.1 0 0v.1s0 .1 0 0v.1s0 .1 0 0V135.9c0 .2.1.4.3.6.1.1.4.1.5 0 .1-.1.1-.3 0-.5-.2-.2-.2-.5 0-.7l.1-.1h.1s.1 0 .1-.1h.5c.4 0 .5-.6.1-.7h-.1c-.2 0-.4 0-.5-.1v-.1c.1-.2.2-.4.2-.6 0-.2 0-.3-.2-.4-.2-.1-.3 0-.4.1-.1.2-.2.3-.2.5-.2-.1-.4-.3-.6-.4-.2-.2-.6-.1-.6.2V134.4c-.1 0-.1 0-.2.1-.2.2-.2.4-.2.6zM133.2 138.3h.7c-.1.1 0 .2 0 .3-.2.2-.3.4-.3.6 0 .2.2.3.3.3.2 0 .3-.1.3-.3H134.5c-.1 0 0 0 0 0 .2.1.4 0 .5-.1.1-.2 0-.4-.1-.5h-.1s0-.1-.1-.1v-.1-.1-.1-.1c.2-.2.3-.4.3-.6 0-.2-.3-.4-.5-.3-.2.1-.3.2-.4.4-.1-.1-.1-.3-.2-.4-.1-.1-.2-.3-.3-.2-.2 0-.3.1-.3.2v.3c-.3 0-.5.2-.7.4.1.1.3.4.6.4zM138.4 126.6h.6v.5c0 .1.1.2.1.3 0 .1.1.3.2.4.3.3.8-.2.5-.5-.1-.1 0 0 0 0 0-.1 0 0 0 0v-.1-.1s0-.1.1-.1c.2-.2.5-.2.8-.2.3 0 .4-.4.2-.6-.2-.1-.5-.2-.7-.2v-.2c.1-.2.1-.4.2-.6 0-.2 0-.3-.2-.4-.1-.1-.3 0-.4.1v.1c-.1.2-.1.4-.2.6-.1-.1-.3-.3-.4-.5-.1-.2-.3-.2-.5-.1s-.2.3-.1.5l.3.6-.5.1c-.5-.1-.4.4 0 .4zM100.1 144.8s.1 0 0 0c0 0 .1 0 0 0h.1c.2 0 .3 0 .5-.1.1-.1.3-.2.3-.3.1-.2 0-.4-.1-.5-.2-.1-.4 0-.5.1 0 0-.1 0-.1.1h-.2-.1c-.2-.1-.2-.2-.2-.4s0-.3-.1-.4h-.1c0-.1-.1-.2-.1-.3-.1-.1-.4-.1-.5 0-.1.1-.1.3 0 .5 0 0 0 .1 0 0v.2c0 .1-.1.2-.2.3-.2.2-.4.2-.7.3h-.2-.1-.1c-.1.1-.2.3-.1.4.1.2.2.2.4.2H98.3c.1 0 .2.1.2.2v.1c-.1.3-.1.5-.1.8 0 .4.5.5.7.1.1-.2.1-.5.1-.7.2.2.3.4.5.5.1.1.2.1.3.2.2.1.4 0 .5-.1.1-.1 0-.4-.1-.5-.2-.1-.3-.3-.5-.5l-.2-.2-.1-.1v-.1c.3.2.4.2.5.2-.1 0 0 0 0 0zM95 150.9c.2-.3-.2-.7-.5-.5-.1.1-.2.2-.4.3 0 0-.1 0 0 0-.1 0-.1-.1-.2-.2v-.8c0-.4-.7-.4-.7 0v.7c-.4.1-.9.3-1.2.7-.3.3.1.7.4.5h.2s.1 0 0 0c.1 0 .1 0 .2.1 0 0 .1 0 .1.1-.1.3-.1.6-.1.9 0 .2.4.3.6.1.2-.2.3-.5.3-.7.2.3.5.5.9.6.1.1.3 0 .4-.2.1-.1 0-.3-.1-.4-.2-.2-.4-.4-.6-.5h-.1c.1 0 .1-.1.2-.1.3-.2.5-.3.6-.6zM102.1 153.6c.1-.1.1-.3 0-.4-.1-.1-.3-.2-.4-.1-.2.1-.3.2-.5.2-.1-.2-.1-.4-.2-.6 0 0 0-.1-.1-.1v-.1c0-.2-.2-.3-.4-.2-.2.1-.3.2-.2.4.1.2.1.5.1.8-.3 0-.7.1-1 .3-.2.1-.2.5.1.6.2 0 .4.1.6 0-.1.2 0 .5.1.7.1.3.6.2.6-.1v-.5h.1c-.1 0 0 0 0 0s.1 0 .1.1c.1.1.2.2.3.4v.1c.1.1.3.1.4 0 .1-.1.2-.3.1-.4-.1-.2-.2-.3-.3-.5 0-.1-.1-.1-.1-.2.2-.1.5-.2.7-.4zM108.6 154.8c-.1-.1-.3-.2-.4-.1-.1 0-.1.1-.2.1s-.3.1-.4 0c-.1 0 0 0-.1-.1v-.1-.1-.6c0-.4-.7-.4-.7 0v1c-.4 0-.8.1-1.1.3-.3.2-.1.7.3.6.1 0 .3-.1.4-.1-.1.1-.1.3-.1.5s0 .3.2.4c.1.1.3 0 .4-.1.1-.1.1-.3.2-.4l.5.5c.1.1.3.1.5 0 .1-.1.1-.3 0-.5-.1-.1-.2-.3-.2-.4l.5-.3c.1 0 .1-.1.2-.1 0 0 .1 0 .1-.1h.1c-.1-.1-.1-.3-.2-.4zM115.6 156.1c-.2 0-.5.1-.7 0v-.1s0-.1 0 0c.2-.2.1-.4-.1-.5 0-.1 0-.2.1-.2.1-.2-.1-.4-.2-.4-.2 0-.4.1-.4.2-.1.3-.2.8-.4 1l-.1.1c-.1 0-.3-.1-.4-.1-.1-.1-.3-.1-.4.1-.1.1-.1.3-.1.4l.1.1c.2.2.5.2.8.2v.2c-.2.2-.3.4-.3.7 0 .1.1.3.2.3s.3 0 .4-.2c.1-.1.1-.3.2-.4 0 0 .1-.1.2 0 .1.2.1.3.2.5.2.3.6.2.6-.2 0-.3-.1-.5-.2-.7.3 0 .6-.1.9-.3.2-.3 0-.8-.4-.7zM111.9 161.9v-.1-.1c.3 0 .6-.1.8-.3.2-.2.1-.5-.1-.6-.3 0-.6 0-.8.2h-.1s-.1-.1 0-.1c0-.2 0-.3.1-.5 0-.1-.1-.2-.2-.3l-.1-.1c-.2-.1-.3.1-.4.2-.1.3-.2.6-.4 1-.2 0-.4.1-.6.1-.4.1-.2.7.2.6H110.6l.1.1s.1.1 0 0v.5c0 .1.2.2.3.2.2 0 .3-.1.3-.2s.1-.2.1-.3c.1.2.2.4.5.6h.1c.4.1.6-.4.3-.6-.1 0-.2-.2-.2-.2v-.1c-.2.1-.2.1-.2 0 0 .1 0 0 0 0zM119.1 163.3h-.9v-.6-.1-.4c0-.2-.1-.3-.3-.3-.2 0-.3.2-.3.3 0 .1 0 .3-.1.4-.1.2-.1.2-.3.4l-.1.1c-.1 0-.1 0-.2.1h-.5c-.4 0-.4.6-.1.7H116.9c.1 0 .1.1.2.1v.1c-.1.1-.2.3-.3.5v.3c0 .2.2.3.4.2.2 0 .2-.2.2-.4l.1-.1c0-.1.1-.1.1-.2h.1c0 .2.1.4.2.5.1.2.6.2.6-.1 0-.3 0-.5-.2-.7.3-.1.5-.2.8-.2.2 0 .3-.2.2-.4.1-.1 0-.2-.2-.2zM112.6 167.3c-.3 0-.6 0-.8.1v-.1c.1-.1.2-.2.2-.4 0-.1-.1-.1-.1-.2.1-.4-.5-.6-.6-.2-.1.2-.1.4-.2.6H110c-.2 0-.3.1-.3.3 0 .2.2.3.3.3h.5c.1 0 .1 0 .1.1v.1s-.1.1 0 .1c0 0-.1.1-.1.2-.1.1-.2.3-.2.5s.1.3.3.3c.2 0 .3-.2.3-.3 0 0 0-.1 0 0 0 0 0-.1.1-.1 0 0 .1-.1.2-.1.1.2.3.4.4.5.2.2.6.1.6-.2 0-.2-.1-.5-.3-.6.3 0 .6 0 .9-.1.2-.1.3-.2.2-.4-.1-.3-.2-.4-.4-.4zM111.8 167.2zM108.1 172.2c.3-.2.1-.7-.3-.6-.2 0-.3.1-.5.1-.1 0-.1-.1-.1-.1-.1-.2-.1-.4.1-.5.1-.1.1-.3 0-.5-.1-.1-.2-.1-.3-.1v-.2c-.1-.2-.2-.3-.4-.2-.2 0-.3.2-.2.4.1.3.1.6-.2.8-.2.2-.5.2-.8.1-.1 0-.2 0-.3.1-.2.2-.2.5 0 .7.2.2.4.2.7.1.1 0 .2 0 .2.1 0 0 0 .1-.1.1 0 .1 0 .1-.1.2s-.1.4 0 .5c.1.1.3.1.5 0s.3-.3.3-.6c0 .1.1.1.1.2l.3.6c.2.3.7.1.6-.3-.1-.2-.2-.4-.2-.6.2-.1.4-.1.7-.3zM102.6 174.7h-.7v-.3c0-.1 0-.2-.1-.3 0-.1 0-.3-.1-.4-.1-.2-.3-.2-.5-.1s-.2.3-.1.5v.2s0 .1-.1.1l-.1.1c-.2.2-.6.2-.9.2-.4 0-.4.7 0 .7h.6c0 .1 0 .1-.1.2-.1.2-.2.4-.1.6.1.3.5.3.6 0 0-.1 0-.2.1-.2.1.2.3.4.4.5.3.3.7-.1.5-.4-.1-.1-.2-.3-.3-.4.2-.1.5-.2.7-.3.5-.2.5-.7.2-.7zM97.1 171.9c.2 0 .5 0 .7-.2.2-.2.1-.5-.1-.6-.2 0-.4 0-.6.1H97l-.1-.1v-.1c0-.3-.1-.5-.3-.7-.1-.1-.3-.1-.5 0-.1.1-.1.4 0 .5l.1.1v.4c0 .1-.1.1-.1.1-.1.1-.3.2-.5.2h-.5c-.2 0-.4 0-.4.2-.1.2.1.4.2.4s.3.1.4.1c.1 0 .1.1.1.1.1 0 .1.1.1.1s0 .1 0 0c-.1.1-.1.2-.2.3-.2.3.2.6.5.5.2-.1.3-.3.4-.6 0-.1.1-.1.1-.2l.2.2c.1.3.4.5.7.6.1 0 .3 0 .4-.2.1-.1.1-.3-.1-.4-.2-.2-.4-.3-.5-.5v-.1-.1l.1-.1c-.1.1 0 0 0 0zM107.8 148.8c-.2-.1-.5-.1-.7 0 0-.1-.1-.2-.1-.3.1-.2.2-.5.1-.8 0-.2-.2-.3-.4-.2-.2 0-.3.2-.2.4 0 .1 0 .2-.1.4l-.3.3c-.3.2-.8.2-1.1.2-.2 0-.4.3-.3.5.1.2.3.3.6.3h.4l.1.1-.3.6c-.1.3.2.5.5.4.3-.2.5-.5.5-.9 0 0 0 .1.1.1.1.2.2.5.4.6.3.2.6-.2.5-.5-.1-.1-.2-.3-.3-.4 0 0 0-.1 0 0 .2-.1.4-.1.6-.2.2 0 .3-.4 0-.6zM97.3 179.4c-.1-.1-.2-.2-.3-.2 0 0 0-.1-.1-.1v-.1-.1c.1-.2.1-.4 0-.6 0-.1.1-.2.1-.4s-.1-.4-.2-.4c-.2 0-.4.1-.4.2 0 .2-.1.4-.3.6-.1-.2-.3-.3-.4-.5-.3-.3-.7.1-.5.4.1.2.3.4.4.7l-.1.1-.1.1h-.3c-.2 0-.3.2-.3.3 0 .2.2.3.3.3h.6c-.1.1-.1.3-.1.5 0 .3.4.5.6.2l.3-.6h.4c.1.1.2.2.3.2.1.1.3.1.4-.1-.2-.2-.2-.3-.3-.5zM103.4 181.3c-.1-.1-.3-.1-.4-.1h-.1l-.1-.1v-.1c0-.1 0-.1-.1-.2 0-.2-.1-.3-.3-.3-.2 0-.4.1-.3.3v.2c0-.1 0 0 0 0s-.1.1 0 0l-.1.1-.1.1h-.1c-.1.1-.2.1-.4.1-.1 0-.3.1-.4.1-.1 0-.2.2-.2.3 0 .1 0 .3.2.3.2.1.4.2.6.2-.1.2-.2.4 0 .7.1.2.5.2.6-.1 0-.1 0-.2.1-.3.1.2.3.4.6.5.1.1.3 0 .4-.2.1-.1 0-.3-.1-.4l-.4-.4v-.1h.4c.1 0 .2-.2.2-.3.1-.1.1-.2 0-.3zM108 183.3c-.1-.2-.3-.2-.5-.1-.1.1-.2.1-.4.2 0-.2.1-.4-.1-.6 0 0 0-.1-.1-.1v-.1c-.1-.2-.2-.3-.4-.3s-.4.2-.4.4c0 .1 0 .2.1.2v.1c-.1.2-.1.3-.3.4-.2.2-.4.3-.8.4-.2.1-.3.2-.2.4.1.2.2.3.4.2h.2s.1 0 0 0h.1s.1.1 0 0v.5c-.3.3.2.8.5.5.2-.2.3-.5.3-.8v-.1s0 .1.1.1c.1.2.3.4.5.4.3.1.6-.3.3-.6-.1-.1-.2-.2-.4-.3.1-.1.2-.1.3-.2.1-.1.3-.1.4-.2.5 0 .5-.2.4-.4zM104.8 190c-.1-.1-.3-.1-.4 0 .1 0 0 0 0 0h-.1-.1c-.1 0-.2.1-.3.1v-.1-.1s0-.1 0 0c.3-.3-.2-.8-.5-.5-.1 0-.1.1-.1.2-.1.3-.2.5-.4.7 0 0-.1 0-.1.1h-.1c-.1 0-.1.1-.2.1s-.1 0-.1.1c-.1 0-.2 0-.2.1-.4.1-.3.7.1.7h.5c-.1.2-.2.4-.3.5-.1.1-.1.3.1.4.1.1.3.1.4.1.2-.1.4-.3.5-.5.1-.1.1-.2.1-.3l.2.2c.2.1.3.3.5.4.1.1.3.1.4.1.1-.1.2-.2.2-.4-.1-.3-.3-.4-.5-.6l-.1-.1h-.1l-.1-.1c.3 0 .7-.2.9-.4l.1-.1c-.1-.3-.1-.5-.3-.6zM93.6 23.6c-.3-.3-.6-.5-.9-.8 0 0-.1 0-.1-.1.2 0 .4.1.6 0 .3-.1.3-.6 0-.6-.2 0-.4-.1-.6-.1l-.1-.1s0-.1-.1-.1c.1-.3.1-.7-.2-1-.2-.3-.6 0-.6.3-.1.2 0 .5 0 .7 0 0 0 .1-.1.1-.2.2-.5.2-.7.2h-.3-.1c-.4.1-.3.7.1.7h.5s.1 0 .1.1l.1.1c.1.1.1.2.1.3v.2c-.2.4.3.7.6.3.1-.2.1-.4.1-.7V23c.1.1.2.2.4.3.3.2.6.4.9.5.2.5.6 0 .3-.2zM103.1 23.2c-.1-.1-.1-.1 0 0-.1-.1-.1-.1 0 0l-.1-.1c.2 0 .5 0 .7-.2.2-.1.2-.4.1-.5-.3-.2-.6-.2-.9-.1h-.1c-.1-.2-.1-.4 0-.6.1-.1 0-.4-.1-.5h-.2c-.1-.1-.2-.1-.3-.1-.2.1-.3.2-.2.4.1.3-.1.6-.3.8-.2.2-.5.4-.8.3-.1 0-.3.1-.3.2s0 .3.2.4c.3.2.6.2.9.2 0 .2 0 .5.1.7.1.4.6.3.7-.1 0-.2 0-.4.1-.6.2.4.6.8 1 .9.1.1.3 0 .4-.2.1-.1.1-.3-.1-.4-.4 0-.6-.3-.8-.5zM88.2 28.1c-.3-.2-.5-.4-.8-.5l-.1-.1v-.1c.2 0 .5-.1.6-.3.1-.2.1-.4-.1-.5-.3-.2-.6-.1-.8.1 0 0-.1-.1 0 0l-.1-.1c0-.2 0-.4-.1-.6-.1-.2-.3-.2-.5-.1-.1.1-.2.2-.1.4v.1c0 .1 0 .3.1.4 0 .1-.1.3-.2.4-.3.3-.6.5-1 .6-.3.2-.1.7.3.6.2 0 .3-.1.5-.1v.8c0 .4.7.4.7 0 0-.3 0-.5.1-.8 0-.1 0-.2.1-.4.1.1.2.1.3.2.2.3.6.5.9.7.3.1.6-.4.2-.7zM98.7 26.2c-.1 0-.1 0 0 0h-.1c.1 0 0 0 0 0l-.1-.1c-.1 0 0 0 0 0 .1 0 .2-.1.3-.2.2-.1.1-.4-.1-.5-.3-.2-.6-.1-.8.1h-.1c.2-.3.2-.7 0-1-.1-.2-.3-.2-.5-.1-.1.1-.2.2-.2.4l-.1.1c-.1.2-.1.3 0 .5-.1.1-.2.1-.3.2-.2.1-.3.1-.5.1s-.3.2-.2.4c0 .2.2.3.3.3h.7v.5c0 .2 0 .4.2.4.2.1.4-.1.4-.2v-.2-.1c.3.3.8.4 1.2.2.1-.1.2-.2.2-.4 0-.3-.2-.4-.3-.4zM111.4 21.3c-.4.1-.9-.2-.9-.6v-.1c.1-.3.1-.5 0-.8 0-.2-.2-.3-.4-.2-.2 0-.3.2-.2.4.1.6-.5 1.3-1.1 1.3-.3 0-.4.4-.2.6.2.2.5.3.8.4-.1.2-.2.5-.2.7 0 .3.4.4.6.2.1-.1.2-.3.2-.5.2.1.3.3.5.5.1.1.3.2.5.1.1-.1.2-.3.1-.5s-.3-.3-.4-.5c.3-.1.6-.1.9-.2.4-.3.2-.9-.2-.8zM118.6 24.6c-.1-.1-.3-.2-.4-.1-.1 0-.2.1-.2.1h-.1-.1c-.1 0-.1 0-.2-.1-.1 0-.1-.1-.2-.1.1-.3.1-.7 0-1-.1-.2-.2-.3-.4-.2-.2 0-.3.2-.2.4 0 .1 0 .2.1.2-.2.1-.3.2-.2.4 0 .1 0 .1.1.2v.1c-.1.1-.1.1-.2.1h-.8c-.3 0-.5.5-.2.6.3.1.6.2.9.1 0 .2 0 .4-.1.5v.1c-.1.2.1.3.2.4.2.1.3 0 .4-.1 0 0 0-.1.1-.1.1-.1.1-.3.2-.4.2.2.4.5.6.7.1.1.3.1.4 0 .1-.1.2-.3.1-.4l-.1-.1c-.1-.2-.2-.3-.3-.4.2-.1.4-.2.7-.3h.1c.1 0 .1-.1.2-.1h.1c-.4-.2-.4-.4-.5-.5zM80.4 27.6c-.1-.1-.3-.1-.4 0l-.4.4v-.3c0-.1-.1-.2-.1-.3-.1-.2-.2-.3-.3-.4-.1-.1-.4 0-.5.1-.1.2 0 .3.1.5v.6l-.2.2c-.3 0-.6.1-.9.1-.2 0-.3.2-.2.4 0 .2.2.3.3.3.2 0 .5 0 .7-.1v.3c-.1.2 0 .5.1.7.2.3.6.2.6-.2v-.5c0-.1 0 0 0 0s.1-.1 0 0h.1c.2.2.3.3.6.4.3.1.6-.1.5-.4-.1-.3-.3-.5-.5-.6l.6-.6.1-.1c0-.2-.1-.4-.2-.5zM85.1 31.2c-.2 0-.3 0-.5-.1 0 0 0-.1 0 0V31v-.1-.1l.1-.1h.1c.3-.3-.1-.7-.4-.5l-.1.1h-.1-.1-.1-.1c0-.2 0-.3-.1-.5-.2-.3-.7-.1-.6.2 0 0-.1 0-.1.1-.1.1-.1.3 0 .5l.1.1s0 .1-.1.1c-.2.2-.4.4-.7.6-.2.1-.2.3-.1.5s.3.2.5.1c.1 0 .2-.1.3-.1 0 .3.1.6.2.9.1.2.2.3.4.2.2 0 .3-.2.3-.3 0-.3 0-.7.1-1h.3c.3.2.7.2 1 .1.1-.1.2-.2.2-.4-.2-.1-.3-.2-.5-.2zM99.1 16.4c.3-.1.6-.3.8-.5.3-.2 0-.6-.3-.6-.3.1-.6.2-.9.4 0 0-.1 0-.1-.1v-.1-.1l.1-.1c.1-.2 0-.4-.1-.5-.1-.1-.4 0-.5.1-.3.6-.7 1.1-1.3 1.3-.2.1-.3.2-.2.4 0 .2.2.3.4.2.2 0 .3-.1.5-.1h.4c.1 0 .1.1.2.2 0 .1 0 .1-.1.2-.1.2.1.3.2.4.2.1.3 0 .4-.1v-.1c.1-.1.1-.3.1-.4.3.2.6.3.9.3.1 0 .3-.1.3-.2.1-.1 0-.3-.1-.4-.1.2-.4 0-.7-.2zM107.9 16.3c.2-.2-.1-.6-.4-.5-.3.1-.6.2-.8.3-.2-.1-.2-.4-.1-.6.1-.1 0-.3-.1-.3 0-.2 0-.4-.1-.7-.1-.2-.2-.3-.4-.2-.2 0-.3.2-.2.4.2.6-.3 1.3-1 1.2-.2 0-.3 0-.4.2-.1.1 0 .4.1.4h.1c.3.1.6.2.9.2v.1c-.1.4-.1.8-.2 1.2 0 .2 0 .3.2.4.1.1.3 0 .4-.1v-.1c.2-.4.3-.8.3-1.2 0 0 .1 0 .1.1.1.1.2.3.3.4.1.2.3.4.5.5.2.1.3.1.4-.1.1-.1.1-.3 0-.4l-.4-.4c0-.1-.1-.1-.1-.2.4-.1.7-.3.9-.6zM117.7 18.6c-.1-.2-.2-.2-.4-.2s-.4.1-.5 0c0 0 0-.1 0 0 .1-.1.1-.3 0-.4 0-.1-.1-.2-.1-.3-.3-.3-.7.1-.5.4l-.1.1H114.9c-.4.1-.3.7.1.7h.7c0 .2-.1.3-.1.5l-.2.3c-.1.2 0 .4.1.5.2.1.4 0 .5-.1.1-.1.2-.3.2-.4.1-.1.1-.2.2-.3 0 0 .1 0 .1.1.1.2.3.5.5.6.1.1.3 0 .4-.1.1-.1.1-.3.1-.4-.1-.2-.2-.3-.3-.4.2 0 .4-.1.5-.2h.1c-.1-.1 0-.3-.1-.4zM116.8 18.3zM125.7 27.2c-.3 0-.5 0-.7.1 0 0-.1-.1 0 0l-.1-.1v-.1-.1s0-.1 0 0v-.1c.1-.1 0-.3-.1-.4-.1-.1-.4-.1-.5 0-.4.4-.9.6-1.5.5-.4-.1-.6.4-.3.6h.1c.3.1.5.2.8.2v.1c-.2.3-.1.6 0 .8.2.2.5.1.6-.1 0-.1.1-.2.1-.4h.1c.1.3.2.5.4.7.2.2.7 0 .6-.3-.1-.2-.2-.5-.3-.7h.1c.3.1.7.1 1-.2.1-.1 0-.5-.3-.5zM83.5 19.1c-.2.1-.2.1-.3 0-.1 0-.2-.1-.3-.1l-.2-.2v-.1-.2c.1-.3-.2-.5-.5-.4-.3-.1-.6.4-.3.6l.1.1v.4c0 .1-.1.1-.2.2-.1 0-.1.1-.2.1h-1.3c-.4 0-.5.6-.1.7.4.1.9.2 1.3.1-.3.4-.4 1-.1 1.4.2.2.5.1.6-.1.1-.3.1-.6.2-.9H82.5s.1 0 .1.1c.2.3.3.5.5.8.2.3.7.1.6-.3-.1-.4-.3-.8-.7-1 0-.1-.1-.1-.1-.2.2-.1.4-.2.6-.2h.1c.5-.4.3-1-.1-.8zM91.6 15.6c.1-.1.1-.1.2-.1.2 0 .3-.1.3-.3 0-.2-.1-.3-.2-.4h-.4-.1c-.1-.3-.2-.6-.1-1 0-.2 0-.4-.2-.4h-.3c-.2-.1-.5.1-.5.4.2.6-.4 1.3-1 1.3-.1 0-.3.1-.3.2 0 .2 0 .3.2.4.3.2.6.2.9.1 0 .1 0 .2.1.2-.1.3-.1.7.1 1 .2.3.6.2.6-.2V16c0-.1.1-.1.2-.2.2.3.5.6.8.8.2.1.5-.1.5-.3-.1-.1-.4-.5-.8-.7zM71.9 25.9c-.2-.3-.5-.7-.9-.8 0 0 .1 0 .1-.1.2 0 .4-.1.6-.3.2-.2 0-.7-.3-.6-.1.1-.3.1-.4.2-.1 0-.2 0-.3-.1-.1-.1-.2-.1-.2-.2v-.1-.1-.1c0-.2-.1-.4-.2-.4h-.2c-.1-.1-.3-.1-.4 0-.1.1-.1.3 0 .5.1.1.1.3.1.5-.1 0-.2 0-.2.1-.1 0-.2.1-.4.1h-.7c-.3 0-.5.4-.2.6.3.3.7.2 1 .1.1 0 .3 0 .4-.1v.2c-.3.4-.4.9 0 1.3.2.2.5 0 .6-.2 0-.3.1-.5.1-.8 0 0 .1 0 .1-.1h.3c.2.3.5.6.9.8 0 .2.4-.1.2-.4zM78.8 22.9c-.1-.4-.4-.7-.8-.9l.4-.2h.1c.3-.2.1-.7-.3-.6-.1 0-.1.1-.2.1h-.1c-.1 0-.2-.1-.3-.1-.1 0-.1-.1-.1-.2.1-.3.1-.7 0-1-.1-.2-.2-.3-.4-.2-.2 0-.3.2-.2.4v.2s0 .1-.1.1c-.1.2-.1.3 0 .5-.2.4-.6.7-1 .7s-.4.7 0 .7h.8v.1c-.2.4-.2.8.1 1.1.2.2.6.1.6-.2v-.7s0-.1.1-.1c.2.4.5.6 1 .7.2.1.5-.2.4-.4zM70.7 33.6c.3 0 .5-.2.7-.4.1-.1 0-.4-.1-.5-.3-.1-.6-.1-.9.1 0-.1-.1-.2 0-.3.2-.2 0-.4-.2-.5v-.2c0-.2-.1-.3-.3-.3-.2 0-.4.2-.3.3.1.7-.7 1.4-1.4 1.1-.4-.1-.6.4-.3.6h.1c.4.2.8.3 1.3.3v.2c-.3.4-.4 1-.1 1.5.1.2.6.2.6-.1.1-.4.1-.7.2-1.1l.2-.2h.2c.2.3.6.6 1 .7.2.1.6-.1.5-.4-.4-.3-.8-.7-1.2-.8zM130.4 20c-.2 0-.4 0-.5-.1-.1-.1-.2-.1-.2-.2-.2-.2-.2-.4-.1-.7.1-.2 0-.3-.1-.4v-.3c0-.4-.7-.4-.7 0s-.3.7-.6.9c-.4.2-.8.2-1.1-.1-.1-.1-.3 0-.4.1-.1.1-.1.3 0 .4.2.3.6.4 1 .4v.4c-.2.3-.3.7-.3 1 0 .3.5.5.6.2.2-.3.2-.7.3-1 .3.4.7.7 1 1.1.3.3.8-.2.5-.5-.3-.3-.5-.6-.7-.9.2 0 .3 0 .5.1s.5.1.7.1c.4.1.5-.4.1-.5zM135.9 26.4c-.3-.1-.6-.1-.9-.1-.3-.2-.4-.5-.4-.8.1-.1.2-.2.2-.4.2-.4-.4-.7-.6-.3-.1 0-.1.1-.2.2 0 .1 0 .1-.1.2-.4.4-.9.7-1.5.7-.2 0-.3-.1-.5-.1-.4-.1-.6.5-.2.6.2.1.4.1.6.1.2 0 .3.1.4.2.2.2.3.4.2.7-.2.4.3.7.6.3.1-.1.1-.2.2-.4.1.4.2.8.5 1.1.2.2.6.1.6-.2 0-.4-.2-.8-.5-1.1V27h.3c.3.2.7.2 1.1.1.5-.2.5-.7.2-.7zM123.2 16.2c-.4-.1-.8-.1-1.2 0v-.1-.1c.4 0 .4-.6 0-.7.2-.2.3-.3.4-.6.1-.2 0-.4-.1-.5-.1-.1-.4 0-.5.1-.3.6-.8.9-1.5.9-.2 0-.3.2-.3.3 0 .2.2.3.3.3h.1s.1 0 .1.1c.1.1.1.2.2.3v.3c-.1.2-.2.3-.3.5-.1.1 0 .3.2.4.1.1.3 0 .4-.1.2-.1.3-.3.3-.6.2.2.5.5.6.8 0 0 0 .1.1.1.2.3.7.1.6-.3v-.1l-.3-.6c.3 0 .5-.1.7-.2.1-.1.2-.2.2-.3.2.3.1.2 0 .1z" />
	</g>
	<g>
		<path class="stats_gold_2"
			d="M108.5 126.5c1 2.9 1.9 5.8 2.9 8.6.4 1.2.7 2.8 1.6 3.8.9 1.1 2.5 1.1 3.5.2.9-.8 1.3-2.1 1.6-3.3.4-1.4.7-2.8.8-4.2.4-2.9.3-5.7-.1-8.6-.1-.8-1.1-1.2-1.8-1-.9.2-1.2 1-1 1.8.3 2.2.4 4.4.2 6.6-.1 1.1-.3 2.2-.5 3.3-.2.9-.4 2-.8 2.8l-.2.3s1-.2.7.1c0 0-.4-.9-.4-1-.4-1.1-.8-2.2-1.1-3.3-.8-2.3-1.6-4.6-2.4-7-.8-1.7-3.7-.9-3 .9zM93.8 127.3c.1 1.9.2 3.8.3 5.6.1 1.6.3 3.3 1.3 4.7 1.2 1.6 3.4 2.5 5.1 1.1.7-.6 1-1.3 1.3-2.1.3-.9.6-1.7.8-2.6.6-2 1.1-4.1 1.4-6.1.1-.8-.2-1.6-1-1.8-.7-.2-1.7.2-1.8 1-.4 2-.8 4-1.4 5.9-.3.9-.6 1.9-.9 2.8 0 .1-.2.6-.1.3-.1.1-.1.3-.2.4.1-.1.1-.1 0 0 0-.1.1-.1.2-.1-.2 0-.2 0 0 0-.2 0-.2 0 0 0-.2-.1-.2-.1-.1 0-.1 0-.2-.1-.3-.1-.2-.1-.2-.1-.1 0l-.2-.2c-.2-.2 0 .1-.1-.2-.1-.2-.2-.4-.3-.5.1.2-.1-.3-.1-.4-.1-.2-.1-.4-.1-.6 0-.2-.1-.3-.1-.5v-.4c-.2-2-.3-4.1-.4-6.1 0-.8-.7-1.5-1.5-1.5-.9-.1-1.7.6-1.7 1.4z" />
		<path class="stats_gold_2"
			d="M54.5 77.4c3-7.4 6.2-14.8 10.4-21.6C69 49.1 74 42.7 80.6 38.4c7.3-4.7 15.9-7.1 24.6-7.5 4.7-.2 9.4.1 13.9 1.4 3.9 1.2 7.4 3.3 10.5 5.9 7.5 6.5 11.5 15.9 13.7 25.4.8-.5 1.7-1 2.5-1.5-3.1-3.8-7.2-6.6-11.8-8.2-1-.4-2.3.8-1.8 1.8 4 10.4 4.1 21.7 2.6 32.6-1.3 9.7-3 21.1-10.7 27.9-3.6 3.2-8.2 5.2-12.8 6.5-5.1 1.5-10.8 2.9-16 2-10.6-1.7-17.1-11.5-20.7-20.8C70.1 92 68.7 79 70.3 66.4c.2-1.2-1.4-1.8-2.3-1.3-5.6 3.2-10.8 6.9-15.8 11.1-1.5 1.2.7 3.4 2.1 2.1 4.7-4 9.8-7.5 15.2-10.6-.8-.4-1.5-.9-2.3-1.3-1.6 12-.4 24.4 3.5 35.9 3.5 10.2 9.4 20.6 20.1 24.3 5.5 2 11.5 1.2 17.1-.1 5-1.1 10-2.8 14.4-5.5 4.5-2.8 8-6.8 10.2-11.6 2.3-5 3.4-10.3 4.3-15.7 2.2-12.9 2.9-26.5-1.9-39l-1.8 1.8c4.2 1.4 7.7 4 10.5 7.4 1 1.2 2.8-.1 2.5-1.5-2-9-5.7-17.8-12.2-24.5-3-3.1-6.6-5.8-10.5-7.6-4.4-2-9.1-2.8-13.9-2.9-9.2-.3-18.6 1.5-26.8 5.8-7.6 4-13.6 10.2-18.3 17.3-5.3 8-9.2 16.8-12.8 25.7-.8 2.2 2.1 2.9 2.9 1.2z" />
		<path class="stats_gold_2"
			d="M68.8 97.3c1 4.7-.8 10.3-3 14.4-2.7 5.2-7.1 9.4-9.6 14.8-2.4 5.2-3.1 11-2.2 16.7.8 5 3.3 12.1 8.8 13.5 2.8.7 5.6-.2 7.2-2.7 1.5-2.3 1.6-5.2 1.5-7.8-.8.4-1.5.9-2.3 1.3 1.6 1.2 3.5 2.1 5.6 2.4 1.3.2 2.3-1 1.7-2.2-2.9-5.6-3.5-12.2-1.6-18.2.9-2.7 2.3-5.2 3.3-7.9s1.4-5.4.9-8.2c-.3-1.9-3.2-1.1-2.9.8.5 2.9-.4 5.6-1.5 8.2-1.2 2.8-2.5 5.5-3.2 8.4-1.4 6.2-.5 12.8 2.5 18.5.6-.7 1.1-1.5 1.7-2.2-1.8-.3-3.4-1-4.9-2.1-.9-.7-2.3.3-2.3 1.3 0 2 .1 4.3-.9 6.1-1.2 2-3.7 2.1-5.5.8-2.1-1.4-3.2-4-4-6.3-.9-2.5-1.4-5.1-1.4-7.8-.1-5.3 1.4-10.3 4.3-14.8 2.8-4.3 6.4-8.2 8.4-12.9 2-4.5 3.4-9.9 2.4-14.8-.5-2-3.4-1.2-3 .7zM65 51.1c-1.9-1.5-4-3-5.6-4.7-.5-.6-.5-1 0-1.6.6-.7 1.5-1.1 2.4-1.5 4.1-1.8 8.8-2.4 13.2-1.7.8.1 1.6-.2 1.8-1 .2-.7-.2-1.7-1-1.8-5.5-.9-11.9-.3-16.8 2.6-2.2 1.3-4 3.8-2.4 6.3.8 1.2 2.1 2.2 3.2 3.1 1.2 1 2.5 2 3.8 3 .6.5 1.7.1 2.1-.5.2-1-.1-1.7-.7-2.2zM129.4 35.2c4.3-.9 8.9-.3 12.8 1.8.9.5 1.9 1 2.6 1.7.6.6.4 1.1-.2 1.6-1.8 1.5-4.4 2-6.6 2-1.9 0-1.9 3 0 3 3 0 6.5-.8 8.8-2.9 1.1-1 1.8-2.4 1.4-3.9-.4-1.4-1.5-2.3-2.7-3-4.9-3.3-11.1-4.3-16.9-3.1-1.9.3-1.1 3.2.8 2.8z" />
	</g>
</svg>