<svg xmlns="http://www.w3.org/2000/svg" viewBox="0 0 200 200">
	<style>
		.stats_silver_1 {
			fill: #ccdbed
		}

		.stats_silver_3 {
			fill: #ccc
		}
	</style>
	<path
		d="M145.8 38.1c-.4-2.1-2.6-3.2-4.4-3.9-2.2-1-4.5-1.7-6.9-2.2-2.4-.4-4.8-.6-7.2-.5-2.5.1-5 .7-7.5.2-2.3-.5-4-2.1-6.2-2.9-2.3-.9-4.9-.7-7.3-.3-4.7.7-9.5 1.6-14.1 2.9-2.3.7-4.5 1.5-6.7 2.6-2.2 1-4.1 2.4-6.2 3.6-2 1.2-4.1 1.8-6.5 2-2.2.2-4.4.1-6.7.4-2.1.2-4.3.7-6.1 2-1.9 1.3-1.9 3.5-.4 5.2.8.9 1.9 1.2 2.9 1.7 1 .4 1.9.9 2 2.1.2 2.3-1.6 4.6-2.6 6.5-2.7 5-4.7 10.3-6.1 15.7-.3 1.2 1.3 2.3 2.2 1.3 3.4-4 8.2-6.4 13.4-6.8-.8 2.9-1.2 5.8-1.3 8.8-.1 3.8.6 7.5 1.2 11.3.7 4 .8 7.8.1 11.8-.7 3.7-1.8 7.4-2.9 11.1-.5 1.8-1.1 3.6-2 5.3-.8 1.7-1.9 3.3-2.9 4.9-1.9 3-3.6 6.1-4.7 9.5-2 6.3-1.6 13.6 2.6 19 1.1 1.4 2.4 2.8 4.2 3.3 1.7.5 3.4-.1 4.6-1.2 2.7-2.3 2.5-5.7 1.8-8.9.4.2.8.5 1.1.8.9 1.2 2.6.5 2.4-1-1.2-6.8-.8-13.8 1.2-20.4.5-1.7 1.1-3.4 1.8-5 .3-.7.7-1.5 1-2.2.2-.4.4-.7.6-1.1.1.1.2.2.3.4 1.8 2.2 3.4 4.6 5.5 6.6 2 1.9 4.4 3.3 7.2 3.6.5 0 1.4-.1 1.7.3.2.2.1.8.1 1.1 0 .5.1 1.1.1 1.6.2 1.8.5 3.5.9 5.2.4 1.5 1 3 2.7 3.2 1.3.2 2.7-.6 3.4-1.7 1-1.5.7-3.3.9-4.9.1-1.4.7-2.8 1.7-3.8 1.1-1.1 2.9-1.6 4.4-.9 1.2.6 1.8 1.9 2.2 3.1.8 2.7 1.2 5.6 3.6 7.4.6.4 1.4.1 1.8-.5 1.4-2.2 1.9-4.7 2.2-7.3.2-2.6.2-5.3 1.1-7.8.5-1.3 1.3-1.9 2.6-2.4 1.2-.5 2.2-1.1 3.2-1.9 2-1.7 3.5-4.1 4.9-6.4 5.8-10.2 7.3-22.2 7.1-33.7-.1-6.3-.7-12.6-1.3-18.8 1.5 1.1 3.1 2.1 4.8 2.9.9.4 2.4-.3 1.9-1.5-1.7-4.4-3.5-8.7-5.2-13.1 1.7-.6 3.5-.5 5.1-1.3 1.6-1.2 3.1-3 2.7-5z"
		fill="#666" />
	<path class="stats_silver_1"
		d="M133.2 36.3c2.5.2 4.9 1.1 6.9 2.7.1-.4.1-.8.2-1.2-1.8 1.2-3.9 1.9-6.1 2.1-1 .1-1 1.6 0 1.5 2.5-.1 4.8-.9 6.9-2.3.4-.2.6-.9.2-1.2-2.3-1.8-5-2.9-8-3.1-.4 0-.8.4-.8.8 0 .3.3.6.7.7zM68.7 47.1c-.7-.6-1.2-1.3-1.5-2.1-.1-.2-.3-.7-.2-.9.1-.2.7-.2 1-.3 2-.3 4.1-.1 6 .6.4.1.8-.2.9-.5.1-.4-.1-.8-.5-.9-1.2-.4-2.5-.7-3.8-.8-1.2-.1-2.6 0-3.7.3-2.8.8-.5 4.5.8 5.7.6.6 1.7-.4 1-1.1z" />
	<path class="stats_silver_1"
		d="M64.3 49.8V49c.1-.3.2-.5.4-.8.3-.5.8-.9 1.4-1 .5-.1.3-.8-.2-.7-1.6.4-2.6 2-2.3 3.6 0 .2.3.3.5.3.1-.2.2-.4.2-.6zM61.4 47.4c1.3-.5 2.5-1 3.8-1.5.2-.1.3-.3.3-.5s-.3-.3-.5-.3c-1.3.5-2.5 1-3.8 1.5-.2.1-.3.3-.3.5.1.2.3.3.5.3zM62.4 43.3c1.2.6 2.3 1.2 3.5 1.8.4.2.8-.4.4-.6-1.2-.6-2.3-1.2-3.5-1.8-.5-.3-.9.4-.4.6zM65 41.6c.4.7.8 1.5 1.2 2.2.1.2.3.2.5.1s.2-.3.1-.5c-.4-.7-.8-1.5-1.2-2.2-.1-.2-.3-.2-.5-.1-.1.1-.2.3-.1.5zM67.3 40.6c.1.4.3.9.4 1.3.1.2.1.4.2.6.1.2.1.4.3.5.2.2.4.2.6.2.2-.1.3-.3.3-.5s-.1-.3-.2-.4c-.1-.1-.2-.1-.3-.1-.2 0-.3.1-.4.2-.1.2 0 .4.1.5.2.1.4 0 .5-.1-.1 0-.2.1-.3.1-.1 0-.2 0-.2-.1 0 0 0-.1 0 0 0-.1.1-.1.2-.2h.2v-.1s0 .1 0 0-.1-.2-.1-.4c-.2-.5-.3-1.1-.5-1.6-.1-.2-.3-.3-.5-.3s-.3.1-.3.4zM69.5 40c.1.8.2 1.7.4 2.5 0 .2.3.3.5.3.2-.1.3-.3.3-.5-.1-.8-.2-1.7-.4-2.5 0-.2-.3-.3-.5-.3-.3.1-.4.3-.3.5zM71.3 39.9c.3.8.4 1.5.2 2.3 0 .2.1.4.3.5.2.1.4-.1.5-.3.2-.9.1-1.8-.2-2.7-.1-.2-.3-.3-.5-.3-.2.1-.4.3-.3.5zM72.5 40.4s0 .1.1.1c0-.1 0 0 0 0 0 .1.1.1.1.2s.1.3.1.4c0 0 0 .1 0 0v.8c0 .2.2.4.4.4s.3-.2.4-.4c.1-.7-.1-1.4-.4-2.1-.1-.2-.4-.2-.5-.1-.3.3-.3.5-.2.7z" />
	<path class="stats_silver_1"
		d="M61.2 44.6c1.3.4 2.5.8 3.8 1.2.5.1.7-.6.2-.7-1.3-.4-2.5-.8-3.8-1.2-.5-.2-.7.6-.2.7zM65.8 50.4c.6-.9 1.2-1.7 1.7-2.6.1-.2 0-.4-.1-.5-.2-.1-.4 0-.5.1-.6.9-1.2 1.7-1.7 2.6-.1.2 0 .4.1.5.1.1.3.1.5-.1zM137.5 40.1c.4.7.9 1.4 1.3 2.1.1.2.3.2.5.1s.2-.3.1-.5c-.4-.7-.9-1.4-1.3-2.1-.1-.2-.3-.2-.5-.1-.1.1-.2.3-.1.5zM139.2 38.9c.6.7 1.2 1.5 1.8 2.2.1.2.4.1.5 0 .1-.2.1-.4 0-.5-.6-.7-1.2-1.5-1.8-2.2-.1-.2-.4-.1-.5 0-.2.1-.2.3 0 .5zM140.2 38c1.2.6 2.5 1.2 3.7 1.9.4.2.8-.4.4-.6-1.2-.6-2.5-1.2-3.7-1.9-.5-.2-.9.4-.4.6zM140 37.1c1.4.1 2.8-.2 4-.7.2-.1.2-.4.1-.5-.1-.2-.3-.2-.5-.1-1.1.5-2.4.7-3.6.6-.4-.1-.4.7 0 .7zM138.8 37.1c.7-.6 1.3-1.5 1.6-2.4.1-.2-.1-.4-.3-.5-.2 0-.4.1-.5.3 0 .1-.1.2-.1.3v.1c0 .1 0 0 0 0 0 .1 0 .1-.1.1l-.3.6-.1.1v.1s-.1.1 0 0l-.1.1-.1.1c-.1.2-.3.3-.5.5-.2.1-.1.4 0 .5.1.2.3.2.5.1zM136.9 36.1c.7-.6 1.2-1.5 1.3-2.5 0-.2-.2-.4-.4-.4s-.3.2-.4.4V33.9c0 .1 0 .2-.1.3 0 0 0 .1-.1.1v.1c0 .1 0 0 0 0 0 .1-.1.2-.1.3 0 .1-.1.2-.2.3l-.1.1s0 .1 0 0c-.1.2-.3.3-.4.4-.2.1-.1.4 0 .5.1.3.4.3.5.1zM135.8 35.3c.2-.6.5-1.2.7-1.8.1-.2-.1-.4-.3-.5-.2 0-.4.1-.5.3-.2.6-.5 1.2-.7 1.8-.1.2.1.4.3.5.2 0 .4-.1.5-.3zM133.3 35.7c.4-.5.5-1.3.3-1.9-.1-.2-.3-.3-.5-.3-.2.1-.3.3-.3.5 0 .1 0 .1.1.2v.1c0-.1 0-.1 0 0v.5c0-.1 0-.1 0 0v.4c0-.1 0-.1 0 0v.1c0 .1-.1.1-.1.2-.1.2 0 .4.1.5 0 0 .2-.1.4-.3zM59.4 145.2c3.1 2.1 6.4 3.9 9.8 5.5.4.2.8-.4.4-.6-3.4-1.6-6.7-3.4-9.8-5.5-.4-.3-.8.3-.4.6zM59.4 142.1c3.5 2.3 7.1 4.5 10.8 6.3.4.2.8-.4.4-.6-3.7-1.9-7.4-4-10.8-6.3-.5-.3-.8.4-.4.6zM58.8 138.8c4.2 3.4 8.7 6.4 13.4 9.1.4.2.8-.4.4-.6-4.7-2.6-9.1-5.6-13.3-9-.3-.3-.8.2-.5.5zM58 134.7c3.9 3.7 8.3 6.9 13.1 9.5.4.2.8-.4.4-.6-4.7-2.5-9.1-5.7-13-9.4-.4-.4-.9.2-.5.5zM58.8 132.4c3.2 3.2 6.7 6 10.5 8.4 1.8 1.2 3.8 2.5 5.8 3.3.4.2 1.1.2 1.2-.3.1-.4-.4-.7-.8-.6-.2.1-.3.2-.3.4v.1c-.1.5.7.5.8 0v-.1c-.1.1-.2.2-.3.4.1 0-.5-.5-.6-.6-.2-.1-.4-.2-.5-.3l-1.2-.6c-.7-.4-1.5-.8-2.2-1.2l-4.2-2.7c-2.8-2-5.3-4.2-7.8-6.6-.3-.5-.8 0-.4.4zM59.8 128.8c4.8 5.4 10.3 10 16.4 13.8.4.3.8-.4.4-.6-6.1-3.7-11.5-8.3-16.3-13.7-.3-.4-.9.2-.5.5zM59.9 124.6c4.8 4.7 9.8 9.1 15.1 13.3.3.2.9-.1.6-.5-.3-.4-.6-.8-.9-1.3-.3-.4-.9 0-.6.4.3.4.6.8.9 1.3.2-.2.4-.3.6-.5-5.3-4.2-10.3-8.6-15.1-13.3-.4-.2-.9.3-.6.6zM61.1 122.2c2.8 2.8 5.7 5.6 8.6 8.3.7.7 1.4 1.3 2.2 2 .7.6 1.4 1.4 2.2 2 .3.2.9.4 1.1-.1.2-.4-.2-.8-.6-.7-.5.1-.3.8.2.7h.1c-.1 0-.2-.1-.4-.1v-.4l-.2-.2c-.1-.2-.3-.3-.5-.4-.3-.2-.5-.5-.8-.7-.6-.5-1.1-1-1.7-1.6-1.1-1-2.2-2-3.3-3.1-2.2-2.1-4.3-4.2-6.4-6.3-.3-.3-.8.3-.5.6zM63.7 120.3c3.6 3.8 7.3 7.5 11 11.3.3.3.7 0 .6-.4-.1-.4-.3-.9-.4-1.3-.1-.5-.9-.3-.7.2.1.4.3.9.4 1.3.2-.1.4-.2.6-.4l-11-11.3c-.3-.3-.9.2-.5.6zM65.5 117.5c3.1 3.7 6.3 7.3 9.6 10.7.2.2.5.1.6-.2.2-.7-.1-1.5-.8-1.9-.4-.2-.8.4-.4.6.4.2.6.6.5 1 .2-.1.4-.1.6-.2-3.3-3.4-6.6-7-9.6-10.7-.3-.2-.8.4-.5.7zM67.5 115.6c2.7 3.5 5.7 6.8 8.8 9.9.3.3.8-.1.6-.5-.2-.4-.5-.9-.7-1.3-.2-.4-.9 0-.6.4.2.4.5.9.7 1.3.2-.2.4-.3.6-.5-3.1-3.1-6.1-6.4-8.8-9.9-.4-.3-.9.2-.6.6zM69.1 112.3c2.2 3.9 5.1 7.4 8.6 10.3.3.3.8-.1.6-.5-.2-.3-.5-.7-.7-1-.3-.4-.9 0-.6.4.2.3.5.7.7 1 .2-.2.4-.3.6-.5-3.4-2.8-6.3-6.3-8.5-10.1-.3-.4-1 0-.7.4zM70.2 109.6c1.6 2.5 3.4 4.9 5.3 7.2.5.6 1 1.1 1.5 1.7.4.4.9 1.2 1.4 1.4.4.2.9-.1.8-.6-.1-.4-.6-.6-.8-.3-.3.4.2.9.5.5-.1 0-.2.1-.3.1-.1-.2-.1-.4-.2-.6l-.1-.1-.3-.3-.6-.6c-.4-.4-.7-.8-1-1.2-.7-.8-1.4-1.6-2-2.4-1.3-1.7-2.5-3.4-3.7-5.2-.1-.4-.8 0-.5.4zM71.9 106.7c1.6 3.6 4 6.8 7 9.4.2-.2.3-.4.5-.6-.3-.2-.6-.3-.8-.5-.4-.3-.8.4-.4.6.3.2.6.3.8.5.4.2.8-.3.5-.6-2.9-2.6-5.2-5.7-6.9-9.2-.2-.4-.9 0-.7.4zM72.1 103.8c1 1.6 2.1 3.2 3.3 4.7.6.7 1.2 1.4 1.9 2.1.3.4.7.7 1.1 1 .2.1.3.3.5.4.1.1.9.3.9.3l-.2.2h.1c.4-.2.1-.8-.4-.6-.4.2-.3.7 0 .9.4.2.9-.1.8-.5 0-.6-.6-.6-1-.9-.3-.2-.6-.5-.8-.8l-.7-.7c-1.9-1.9-3.5-4.1-4.9-6.4-.1-.5-.8-.1-.6.3zM72 101c.9 1.3 1.9 2.7 2.8 4 .1.2.3.2.5.1s.3-.3.1-.5c-.9-1.3-1.9-2.7-2.8-4-.1-.2-.3-.2-.5-.1-.2 0-.3.3-.1.5zM82.4 42.7c-.1.4-.2.8.1 1.1.3.4.8.3 1.2 0 .2-.1.3-.3.4-.5.1-.2.1-.4.1-.6 0-.3-.2-.5-.4-.6-.3-.1-.5-.1-.7-.1-.3 0-.5.1-.7.2-.2.2-.3.5-.2.7 0 .2.2.3.4.3s.3-.1.4-.3c.2-.4.2-.9-.1-1.2-.4-.4-.9-.2-1.2.2-.1.2-.2.4-.2.6 0 .2 0 .4.1.6.2.4.7.5 1.1.4.4-.1.8-.4 1-.8.1-.3-.1-.6-.4-.6-.3.1-.6.3-.8.6-.2.4.3.8.6.5.3-.3.5-.7.5-1.2 0-.2 0-.4-.1-.6 0-.1-.1-.1-.1.2h.2c.2.1.3.1.4.2.1 0 0 0 0 0v.1c-.1.1-.2.3-.3.4l-.1.1s-.1 0 0 0c-.1 0-.1 0 0 0 0 .1.1.2.1.4 0 .1 0 0 0 0s-.1 0 0 0c0 0 .1 0 0 0 .1 0-.1 0 0 0h.1s-.1 0 0 0c0 0 .1 0 0 0 .1 0-.1 0 0 0 0 0 0 .1 0 0v.1s0-.1 0 0v.1c0-.1 0 .1 0 0v.1s0 .1 0 0l-.1.1h-.1-.1s-.1 0 0 0h-.1s-.1 0 0 0c0 0-.1 0-.1-.1 0 0-.1 0-.1-.1-.1-.1 0 0 0 0 .1 0-.2 0-.3.1-.2.1-.2.3-.1.5.3.4.8.6 1.2.5.5-.1.8-.5.8-1 0-.4-.3-.9-.7-.9-.5-.1-.9.1-1.1.6 0 .1 0 .3.1.4.4.4 1 .2 1.3-.2.3-.4.6-.8.4-1.3-.2-.4-.7-.5-1.1-.6-.2 0-.5 0-.7.1-.3.2-.3.4-.2.7V42.2c0-.1 0 0 0 0V42.5c0-.1 0 0 0 0 0 .2-.1.3-.2.5.2.2.4.3.6.5.1-.1.2-.2.3-.2-.1-.2-.3-.4-.4-.6 0 .1-.1.1-.1.2l-.1.1h-.1-.1-.1c-.1 0 0 0 0 0h-.1c-.1 0 0 0 0 0s0-.1 0 0c0-.1 0-.2.1-.4v-.1c-.1 0 .1 0 0 0 0-.1 0 0 0 0s0 .1 0 0c0 .1-.1.3-.1.4h.7c0-.1 0 0 0 0 0 .1 0-.1 0 0 0 0 .1 0 0 0H83.8s0-.1 0 0c0 0 0 .1 0 0V43.2c0 .1-.1.1-.1.2l-.1.1s-.1 0 0 0c0 0 0-.1 0 0 0 0 0-.1 0 0v-.1-.1c0 .1 0 0 0 0 0-.1 0-.1.1-.2.1-.2-.1-.4-.3-.5-.8-.2-1-.1-1 .1z" />
	<path class="stats_silver_1"
		d="M82.5 42.2V42 41.9v.1c0-.1.1-.1.1-.2 0 0 0 .1-.1.1 0-.1.1-.1.1-.1s-.1 0-.1.1c.1 0 .1-.1.2-.1h-.1c.1 0 .1 0 .2-.1h-.1.1c.1 0 .1 0 .2.1h.3c.1 0 .2-.1.2-.2v-.3l-.2-.2c-.4-.1-.8-.1-1.1.2-.3.2-.5.6-.4 1 0 .1 0 .2.1.3.1.1.2.1.3.1.1 0 .2 0 .3-.1v-.4z" />
	<path class="stats_silver_1"
		d="M82 42.7c-.1.2-.2.5-.1.7.1.2.2.5.4.6.2.2.5.2.8.1.2-.1.5-.2.7-.3l.2-.2v-.3c-.1-.2-.3-.3-.5-.1-.1.1-.2.1-.3.2 0 0 .1 0 0 0H82.9h.1-.2 0c.1 0 .1 0 0 0l-.1-.1s0-.1 0 0v-.1s0 .1 0 0v-.1-.1 0c0-.1 0 .1 0 0v-.1c.1-.2 0-.4-.1-.5-.3.1-.5.1-.6.3zM83.8 42.4c.1-.1.1-.3.2-.4v-.1-.1s0-.1-.1-.1l-.1-.1H83.5h-.1c-.1 0-.1.1-.1.1-.1.1-.1.3-.2.4v.2s0 .1.1.1l.1.1h.4l.1-.1zM118.3 39.7c-.2-.2-.5-.2-.7-.1-.2.1-.4.3-.5.6-.2.5.3 1 .8.9.5-.1.7-.7.7-1.2 0-.4-.2-1-.7-1l.3.6c.2-.2.5-.4.8-.4.1 0 .2 0 .2.1v.1s0 .1.1.1c0 0 0 .1.1.2V39.9c-.1 0 0 0 0 0h-.1-.1c.1 0 0 0 0 0 .1 0 0 0 0 0l-.1-.1c0-.1 0 0 0 0v-.1c-.2.1-.5.1-.7.2.1.2.2.5.2.7l.3.6c.4.3 1.1.1 1.1-.4 0-.2-.2-.4-.4-.4-.4 0-1.2.2-1.2.7 0 .2.1.5.3.6.2.1.5.1.7.1.4-.1.8-.2.9-.7.1-.4-.2-.9-.6-1.1-.2-.1-.5-.1-.8-.2h-.4c-.1 0-.1 0-.2.1l-.1.1h-.1H118.4l.1.1v.1s0 .1 0 0c0 0 0-.1.1-.2v-.3c0-.2-.2-.3-.3-.4-.2-.1-.3-.1-.5-.1-.1 0-.3.1-.4.1l.4.4c0-.2 0-.3.1-.5 0-.1.1-.2.2-.3h.1s.1 0 0 0h.1c.1 0 .3.1.4.2.2.1.4 0 .5-.1.1-.2 0-.4-.1-.5-.2-.2-.4-.3-.7-.3-.3 0-.5 0-.7.2-.5.3-.5.9-.6 1.4 0 .2.2.4.4.4.1 0 .3 0 .4-.1h.1c.1 0 .1 0 0 0l-.1-.1c0-.1 0-.1 0 0 0 0 0 .1-.1.1 0 .2 0 .4.1.5.1.1.4.2.5.1l.1-.1c-.1 0 0 0 0 0h.4s.2 0 .2.1l.1.1.1.1v.1h-.1-.4s-.1 0 0 0c0 0-.1 0 0 0 0 0 .1 0 .1.1s0 .1-.1.2h.1s.1 0 .1-.1c.1 0 .2-.1.3-.1l-.4-.4c0-.1 0-.1.1-.1s-.1 0 0 0c-.1 0 0 0 0 0s0-.1 0 0c-.1-.3-.2-.6-.3-.8-.1-.2-.3-.3-.5-.3-.2.1-.3.3-.3.5.1.4.4.7.7.8.4.1.8 0 1-.3.3-.4.2-.9 0-1.3s-.6-.7-1-.6c-.5.1-.9.4-1.2.7-.2.2 0 .7.3.6h-.1V40.7s0-.1.1-.1h-.1c-.1-.1-.1-.1-.1 0 .1.2.4.1.5 0 .5-.6.5-.8.3-.9z" />
	<path class="stats_silver_1"
		d="M118 39.6c.1-.1.2-.2.4-.3.1 0 .1-.1.2-.1h.1c-.1 0 0 0 0 0 .1 0 .1 0 .2-.1.1 0-.1 0 0 0h.2c.1 0-.1 0 0 0h.2c-.1 0-.1 0 0 0l.1.1c.1.1 0 0 0 0v.1s0-.1 0 0v.1c0-.1 0-.1 0 0v.1c0-.1 0-.1 0 0v.1s0-.1 0 0h-.1s.1 0 0 0c0 0 .1 0 0 0-.2 0-.3.3-.3.5.1.2.3.3.5.3.6-.1.8-.9.5-1.3-.3-.5-1-.7-1.5-.5-.3.1-.6.3-.9.5-.2.1-.3.3-.1.5.1 0 .4.1.5 0z" />
	<g>
		<path class="stats_silver_1"
			d="M93.9 48.5c.6 1.1 1.2 2.3 1.9 3.3.6.8 1.3 1.6 2.4 1.8 2.4.4 3.7-2.4 4.7-4.1-.4.1-.8.1-1.2.2 1.4 1.4 3.3 4.1 5.6 3.5 2.5-.7 3.2-3.9 4-6 .4-.9-1.1-1.3-1.4-.4-.4.9-.8 1.9-1.2 2.8-.4.8-.9 1.9-1.8 2.1-.8.2-1.6-.5-2.1-1l-2.1-2.1c-.3-.4-.9-.3-1.2.2-.6 1-1.9 3.9-3.4 3.3-.7-.3-1.1-1.1-1.5-1.7l-1.5-2.7c-.4-.8-1.7 0-1.2.8z" />
	</g>
	<g>
		<path class="stats_silver_1"
			d="M119.1 47.6c3.5 1.9 6.7 4.2 9.6 6.9.7.7 1.8-.4 1.1-1.1-3-2.8-6.3-5.2-9.9-7.1-.9-.4-1.6.9-.8 1.3zM118.1 51c2 2.3 4 4.5 6 6.8.3.3.8.3 1.1 0 .3-.3.3-.8 0-1.1-2-2.3-4-4.5-6-6.8-.3-.3-.8-.3-1.1 0-.3.3-.3.8 0 1.1z" />
	</g>
	<g>
		<path class="stats_silver_1"
			d="M85.9 47.7c-3.9 2.2-7.5 4.9-10.7 8l1.1 1.1.3-.3c.7-.7-.4-1.8-1.1-1.1l-.3.3c-.7.7.4 1.7 1.1 1.1 3.2-3 6.7-5.6 10.4-7.7.8-.6.1-1.9-.8-1.4zM87.3 51.3c-1.5 2.1-3.1 4.1-4.6 6.2-.2.3-.1.8.3 1 .4.2.8.1 1-.3 1.5-2.1 3.1-4.1 4.6-6.2.2-.3.1-.8-.3-1-.4-.2-.8 0-1 .3z" />
	</g>
	<g>
		<path class="stats_silver_1"
			d="M80.8 126c.2-.3-.1-.7-.4-.5-.1.1-.3.1-.4.2 0 0-.1 0 0 0-.1 0-.1-.1-.2-.2v-.1-.1c0-.1 0-.2-.1-.3 0-.2-.2-.3-.4-.2-.2 0-.3.2-.2.4v.1l-.1.1s-.1 0-.1.1c-.1.1-.2.1-.4.2-.1 0-.3.1-.4.1-.2 0-.3.4-.1.5.2.2.5.3.9.3v.4c0 .2 0 .4.1.6.1.1.2.2.4.1.1 0 .3-.2.2-.3v-.4c0-.1.1-.1.1-.1h.3l.3.3c.1.1.3.2.4.1.1-.1.2-.2.2-.4v-.1c-.1-.2-.2-.3-.4-.5l-.1-.1c0 .1.2-.1.4-.2zM79.7 132.8h-.8c0-.2-.1-.5-.1-.7 0-.1 0-.1-.1-.1 0-.1 0-.3-.1-.4-.1-.2-.3-.2-.4-.1-.2.1-.2.3-.1.4v.2c0 .1-.1.2-.1.2l-.1.1h-.1-.1-.1-.1-.1c-.2-.1-.4.1-.4.2-.1.2.1.3.2.4 0 0 .1.1 0 0 .1 0 .1.1.1.1v.2c-.1.1-.1.1-.1.2-.2.3-.1.6.1.9.1.1.4.1.5 0 .2-.2.2-.4.3-.7h.1s.1 0 .1.1c.2.2.4.4.5.7.1.2.3.2.4.1.2-.1.2-.3.1-.4-.1-.3-.3-.6-.6-.8.1 0 .2-.1.3-.1h.4c.2 0 .3-.1.3-.3.3-.1.1-.2 0-.2zM84 131.2c0-.2-.2-.3-.3-.3h-.4s-.1 0-.1-.1v-.1c0-.1-.1-.1-.1-.2v-.2c0-.2-.1-.3-.3-.3-.2 0-.3.1-.3.3 0 .2 0 .4-.1.6h-.1c-.2-.1-.5 0-.7.1-.3.1-.2.6.2.6h.5l.1.1c0-.1 0 0 0 0v.1c-.1.1-.2.3-.2.4 0 .1.1.3.2.3s.3 0 .4-.1c.1-.1.2-.3.2-.4.1.2.2.4.5.5.2.1.5 0 .5-.3s-.2-.5-.4-.7H83.9s.1-.1.1-.3zM84.4 138.3c-.1-.2-.3-.2-.4-.1h-.1-.1-.1-.1-.1l-.1-.1s-.1-.1 0 0v-.1s0-.1 0 0v-.1s0-.1 0 0v-.2-.1c0-.2-.1-.4-.3-.5-.1-.1-.3-.1-.5 0-.1.1-.1.3 0 .5.2.2.2.5 0 .7l-.1.1h-.1s-.1 0-.1.1h-.1-.1H81.8c-.4 0-.4.6-.1.6h.1c.2 0 .3 0 .5.1v.1c-.1.2-.2.4-.2.6 0 .2 0 .3.2.4.2.1.3 0 .4-.1.1-.2.2-.3.2-.5.2.1.4.3.6.4.2.2.6.1.6-.2v-.7-.1s.1 0 .1-.1c.3-.4.3-.6.2-.7zM88.8 135.1h-.7c.1-.1 0-.2 0-.3.2-.2.3-.4.3-.6 0-.2-.2-.3-.3-.3-.2 0-.3.1-.3.3h-.1-.1-.1c.1 0 0 0 0 0-.2-.1-.4 0-.4.1-.1.2 0 .3.1.4h.1v.5c-.2.1-.3.4-.3.6 0 .2.3.4.5.3.2-.1.3-.2.3-.4.1.1.1.2.2.4.1.1.2.2.3.2.1 0 .3-.1.3-.2v-.3c.3 0 .5-.2.7-.4-.1 0-.3-.3-.5-.3zM83.7 146.5h-.6v-.4c0-.1-.1-.2-.1-.2 0-.1-.1-.3-.2-.4-.3-.3-.8.2-.5.5.1.1 0 0 0 0 0 .1 0 0 0 0v.2s0 .1-.1.1c-.2.2-.5.2-.8.2-.3 0-.4.4-.2.6.2.1.5.2.7.2v.2c-.1.2-.1.4-.2.6 0 .2 0 .3.2.4.1.1.3 0 .4-.1v-.1c.1-.2.1-.4.2-.5.1.1.3.3.4.5.1.2.3.2.4.1.2-.1.2-.3.1-.4l-.3-.6.5-.1c.5-.3.4-.8.1-.8zM74.7 162.6c.2.3-.1.7-.4.5-.1-.1-.3-.1-.4-.2 0 0-.1 0 0 0-.1 0-.1.1-.2.2v.2c0 .1 0 .2-.1.3 0 .2-.2.3-.4.2-.2 0-.3-.2-.2-.4v-.1l-.1-.1s-.1 0-.1-.1c-.1-.1-.2-.1-.4-.2-.1 0-.3-.1-.4-.1-.2 0-.3-.4-.1-.5.2-.2.5-.3.9-.3v-.4c0-.2 0-.4.1-.6.1-.1.2-.2.4-.1.1 0 .3.2.2.3v.4c0 .1.1.1.1.1h.3l.3-.3c.1-.1.3-.2.4-.1.1.1.2.2.2.4v.1c-.1.2-.2.3-.4.5l-.1.1c0-.1.2 0 .4.2zM77.9 157.4c0 .2-.2.3-.3.3h-.4s-.1 0-.1.1v.1c0 .1-.1.1-.1.2v.2c0 .2-.1.3-.3.3-.2 0-.3-.1-.3-.3 0-.2 0-.4-.1-.6h-.1c-.2.1-.5 0-.7-.1-.3-.1-.2-.6.2-.6h.5l.1-.1c0 .1 0 0 0 0v-.1c-.1-.1-.2-.3-.2-.4 0-.1.1-.3.2-.3s.3 0 .4.1c.1.1.2.3.2.4.1-.2.2-.4.5-.5.2-.1.5 0 .5.3s-.2.5-.4.7H77.8s.1.1.1.3zM78.3 150.3c-.1.2-.3.2-.4.1h-.1-.1-.1-.1-.1l-.1.1s-.1.1 0 0v.1s0 .1 0 0v.1s0 .1 0 0V151c0 .2-.1.4-.3.5-.1.1-.3.1-.5 0-.1-.1-.1-.3 0-.5.2-.2.2-.5 0-.7l-.1-.1h-.1s-.1 0-.1-.1h-.1-.1H75.7c-.4 0-.4-.6-.1-.6h.1c.2 0 .3 0 .5-.1v-.1c-.1-.2-.2-.4-.2-.6 0-.2 0-.3.2-.4.2-.1.3 0 .4.1.1.2.2.3.2.5.2-.1.4-.3.6-.4.2-.2.6-.1.6.2V149.5s.1 0 .1.1c.2.3.3.6.2.7zM82.6 153.5h-.7c.1.1 0 .2 0 .3.2.2.3.4.3.6 0 .2-.2.3-.3.3-.2 0-.3-.1-.3-.3h-.1-.1-.1c.1 0 0 0 0 0-.2.1-.4 0-.4-.1-.1-.2 0-.3.1-.4h.1v-.1-.1-.1-.1-.1c-.2-.1-.3-.4-.3-.6 0-.2.3-.4.5-.3.2.1.3.2.3.4.1-.1.1-.2.2-.4.1-.1.2-.2.3-.2.1 0 .3.1.3.2v.3c.3 0 .5.2.7.4 0 0-.2.3-.5.3zM77.6 142.1H77v.4c0 .1-.1.2-.1.2 0 .1-.1.3-.2.4-.3.3-.8-.2-.5-.5.1-.1 0 0 0 0 0-.1 0 0 0 0v-.1-.1s0-.1-.1-.1c-.2-.2-.5-.2-.8-.2-.3 0-.4-.4-.2-.6.2-.1.5-.2.7-.2v-.2c-.1-.2-.1-.4-.2-.6 0-.2 0-.3.2-.4.1-.1.3 0 .4.1v.1c.1.2.1.4.2.5.1-.1.3-.3.4-.5.1-.2.3-.2.4-.1.2.1.2.3.1.4l-.3.6.5.1c.5.2.4.8.1.8zM73.3 99.2c.6.9 1.2 1.9 1.8 2.8" />
		<path
			d="M72.9 99.4c.6.9 1.2 1.9 1.8 2.8.1.2.3.2.5.1s.2-.3.1-.5c-.6-.9-1.2-1.9-1.8-2.8-.1-.2-.3-.2-.5-.1-.1.1-.2.3-.1.5z"
			fill="#ff6" />
		<path class="stats_silver_1"
			d="M149.1 68.6c.2-.3-.1-.7-.4-.5-.1.1-.3.1-.4.2 0 0-.1 0 0 0-.1 0-.1-.1-.2-.2V68v-.1c0-.1 0-.2-.1-.3 0-.2-.2-.3-.4-.2-.2 0-.3.2-.2.4v.1l-.1.1s-.1 0-.1.1c-.1.1-.2.1-.4.2-.1 0-.3.1-.4.1-.2 0-.3.4-.1.5.2.2.5.3.9.3v.4c0 .2 0 .4.1.6.1.1.2.2.4.1.1 0 .3-.2.2-.3v-.4c0-.1.1-.1.1-.1h.3l.3.3c.1.1.3.2.4.1.1-.1.2-.2.2-.4v-.1c-.1-.2-.2-.3-.4-.5l-.1-.1c0 .1.3 0 .4-.2zM148 75.4h-.8c0-.2-.1-.5-.1-.7 0-.1 0-.1-.1-.1 0-.1 0-.3-.1-.4-.1-.2-.3-.2-.4-.1-.2.1-.2.3-.1.4v.2c0 .1-.1.2-.1.2l-.1.1h-.1-.1-.1-.1-.1c-.2-.1-.4.1-.4.2-.1.2.1.3.2.4 0 0 .1.1 0 0 .1 0 .1.1.1.1v.2c-.1.1-.1.1-.1.2-.2.3-.1.6.1.9.1.1.4.1.5 0 .2-.2.2-.4.3-.7h.1s.1 0 .1.1c.2.2.4.4.5.7.1.2.3.2.4.1.2-.1.2-.3.1-.4-.1-.3-.3-.6-.6-.8.1 0 .2-.1.3-.1h.4c.2 0 .3-.1.3-.3.3 0 .2-.1 0-.2zM152.3 73.9c0-.2-.2-.3-.3-.3h-.4s-.1 0-.1-.1v-.1c0-.1-.1-.1-.1-.2V73c0-.2-.1-.3-.3-.3-.2 0-.3.1-.3.3 0 .2 0 .4-.1.6h-.1c-.2-.1-.5 0-.7.1-.3.1-.2.6.2.6h.5l.1.1c0-.1 0 0 0 0v.1c-.1.1-.2.3-.2.4 0 .1.1.3.2.3s.3 0 .4-.1c.1-.1.2-.3.2-.4.1.2.2.4.5.5.2.1.5 0 .5-.3s-.2-.5-.4-.7H152.2c.1 0 .2-.2.1-.3zM152.8 81c-.1-.2-.3-.2-.4-.1h-.1-.1-.1-.1-.1l-.1-.1s-.1-.1 0 0v-.1s0-.1 0 0v-.1s0-.1 0 0v-.2-.1c0-.2-.1-.4-.3-.5-.1-.1-.3-.1-.5 0-.1.1-.1.3 0 .5.2.2.2.5 0 .7l-.1.1h-.1s-.1 0-.1.1h-.1-.1H150.2c-.4 0-.4.6-.1.6h.1c.2 0 .3 0 .5.1v.1c-.1.2-.2.4-.2.6 0 .2 0 .3.2.4.2.1.3 0 .4-.1.1-.2.2-.3.2-.5.2.1.4.3.6.4.2.2.6.1.6-.2v-.7-.1s.1 0 .1-.1c.2-.4.3-.6.2-.7zM157.1 77.8h-.7c.1-.1 0-.2 0-.3.2-.2.3-.4.3-.6 0-.2-.2-.3-.3-.3-.2 0-.3.1-.3.3h-.1-.1-.1c.1 0 0 0 0 0-.2-.1-.4 0-.4.1-.1.2 0 .3.1.4h.1v.5c-.2.1-.3.4-.3.6 0 .2.3.4.5.3.2-.1.3-.2.3-.4.1.1.1.2.2.4.1.1.2.2.3.2.1 0 .3-.1.3-.2v-.3c.3 0 .5-.2.7-.4-.1 0-.2-.3-.5-.3zM152 89.2h-.6v-.4c0-.1-.1-.2-.1-.2 0-.1-.1-.3-.2-.4-.3-.3-.8.2-.5.5.1.1 0 0 0 0 0 .1 0 0 0 0v.2s0 .1-.1.1c-.2.2-.5.2-.8.2-.3 0-.4.4-.2.6.2.1.5.2.7.2v.2c-.1.2-.1.4-.2.6 0 .2 0 .3.2.4.1.1.3 0 .4-.1V91c.1-.2.1-.4.2-.5.1.1.3.3.4.5.1.2.3.2.4.1.2-.1.2-.3.1-.4l-.3-.6.5-.1c.6-.3.5-.8.1-.8zM53.4 81.7c-.2-.3.1-.7.4-.5.1.1.3.1.4.2 0 0 .1 0 0 0 .1 0 .1-.1.2-.2v-.1-.1c0-.1 0-.2.1-.3 0-.2.2-.3.4-.2.2 0 .3.2.2.4v.1l.1.1s.1 0 .1.1c.1.1.2.1.4.2.1 0 .3.1.4.1.2 0 .3.4.1.5-.2.2-.5.3-.9.3v.4c0 .2 0 .4-.1.6-.1.1-.2.2-.4.1-.1 0-.3-.2-.2-.3v-.4c0-.1-.1-.1-.1-.1h-.3l-.3.3c-.1.1-.3.2-.4.1-.1-.1-.2-.2-.2-.4v-.1c.1-.2.2-.3.4-.5l.1-.1c0 .1-.2 0-.4-.2zM54.5 88.5h.8c0-.2.1-.5.1-.7 0-.1 0-.1.1-.1 0-.1 0-.3.1-.4.1-.2.3-.2.4-.1.2.1.2.3.1.4v.2c0 .1.1.2.1.2l.1.1h.5c.2-.1.4.1.4.2.1.2-.1.3-.2.4 0 0-.1.1 0 0-.1 0-.1.1-.1.1v.2c.1.1.1.1.1.2.2.3.1.6-.1.9-.1.1-.4.1-.5 0-.2-.2-.2-.4-.3-.7H56s-.1 0-.1.1c-.2.2-.4.4-.5.7-.1.2-.3.2-.4.1-.2-.1-.2-.3-.1-.4.1-.3.3-.6.6-.8-.1 0-.2-.1-.3-.1h-.4c-.2 0-.3-.1-.3-.3-.3-.1-.2-.2 0-.2zM50.2 86.9c0-.2.2-.3.3-.3h.4s.1 0 .1-.1v-.1c0-.1.1-.1.1-.2V86c0-.2.1-.3.3-.3.2 0 .3.1.3.3 0 .2 0 .4.1.6h.1c.2-.1.5 0 .7.1.3.1.2.6-.2.6h-.5l-.1.1c0-.1 0 0 0 0v.1c.1.1.2.3.2.4 0 .1-.1.3-.2.3s-.3 0-.4-.1c-.1-.1-.2-.3-.2-.4-.1.2-.2.4-.5.5-.2.1-.5 0-.5-.3s.2-.5.4-.7h-.2-.1s-.1-.1-.1-.3zM49.8 94c.1-.2.3-.2.4-.1h.5l.1-.1s.1-.1 0 0v-.1s0-.1 0 0v-.1s0-.1 0 0v-.2-.1c0-.2.1-.4.3-.5.1-.1.3-.1.5 0 .1.1.1.3 0 .5-.2.2-.2.5 0 .7l.1.1h.1s.1 0 .1.1h.5c.4 0 .4.6.1.6h-.1c-.2 0-.3 0-.5.1v.1c.1.2.2.4.2.6 0 .2 0 .3-.2.4-.2.1-.3 0-.4-.1-.1-.2-.2-.3-.2-.5-.2.1-.4.3-.6.4-.2.2-.6.1-.6-.2v-.7-.1s-.1 0-.1-.1c-.3-.3-.3-.5-.2-.7zM45.4 90.8h.7c-.1-.1 0-.2 0-.3-.2-.2-.3-.4-.3-.6 0-.2.2-.3.3-.3.2 0 .3.1.3.3H46.7c-.1 0 0 0 0 0 .2-.1.4 0 .4.1.1.2 0 .3-.1.4h-.1v.5c.2.1.3.4.3.6 0 .2-.3.4-.5.3-.2-.1-.3-.2-.3-.4-.1.1-.1.2-.2.4-.1.1-.2.2-.3.2-.1 0-.3-.1-.3-.2v-.3c-.3 0-.5-.2-.7-.4.1 0 .3-.3.5-.3zM50.5 102.2h.6v-.4c0-.1.1-.2.1-.2 0-.1.1-.3.2-.4.3-.3.8.2.5.5-.1.1 0 0 0 0 0 .1 0 0 0 0v.2s0 .1.1.1c.2.2.5.2.8.2.3 0 .4.4.2.6-.2.1-.5.2-.7.2v.2c.1.2.1.4.2.6 0 .2 0 .3-.2.4-.1.1-.3 0-.4-.1v-.1c-.1-.2-.1-.4-.2-.5-.1.1-.3.3-.4.5-.1.2-.3.2-.4.1-.2-.1-.2-.3-.1-.4l.3-.6-.5-.1c-.5-.2-.5-.8-.1-.8zM143 105.3c.2.3-.1.7-.4.5-.1-.1-.3-.1-.4-.2 0 0-.1 0 0 0-.1 0-.1.1-.2.2v.2c0 .1 0 .2-.1.3 0 .2-.2.3-.4.2-.2 0-.3-.2-.2-.4v-.1l-.1-.1s-.1 0-.1-.1c-.1-.1-.2-.1-.4-.2-.1 0-.3-.1-.4-.1-.2 0-.3-.4-.1-.5.2-.2.5-.3.9-.3v-.4c0-.2 0-.4.1-.6.1-.1.2-.2.4-.1.1 0 .3.2.2.3v.4c0 .1.1.1.1.1h.3l.3-.3c.1-.1.3-.2.4-.1.1.1.2.2.2.4v.1c-.1.2-.2.3-.4.5l-.1.1c0-.1.2 0 .4.2zM141.9 98.5h-.8c0 .2-.1.5-.1.7 0 .1 0 .1-.1.1 0 .1 0 .3-.1.4-.1.2-.3.2-.4.1-.2-.1-.2-.3-.1-.4v-.1-.1c0-.1-.1-.2-.1-.2l-.1-.1h-.1-.1-.1-.1-.1c-.2.1-.4-.1-.4-.2-.1-.2.1-.3.2-.4 0 0 .1-.1 0 0 .1 0 .1-.1.1-.1v-.1-.1c-.1-.1-.1-.1-.1-.2-.2-.3-.1-.6.1-.9.1-.1.4-.1.5 0 .2.2.2.4.3.7h.1s.1 0 .1-.1c.2-.2.4-.4.5-.7.1-.2.3-.2.4-.1.2.1.2.3.1.4-.1.3-.3.6-.6.8.1 0 .2.1.3.1h.4c.2 0 .3.1.3.3.3.1.1.2 0 .2zM146.2 100.1c0 .2-.2.3-.3.3h-.4s-.1 0-.1.1v.1c0 .1-.1.1-.1.2v.2c0 .2-.1.3-.3.3-.2 0-.3-.1-.3-.3 0-.2 0-.4-.1-.6h-.1c-.2.1-.5 0-.7-.1-.3-.1-.2-.6.2-.6h.5l.1-.1c0 .1 0 0 0 0v-.1c-.1-.1-.2-.3-.2-.4 0-.1.1-.3.2-.3s.3 0 .4.1c.1.1.2.3.2.4.1-.2.2-.4.5-.5.2-.1.5 0 .5.3s-.2.5-.4.7H146.1s.1.1.1.3zM146.6 93c-.1.2-.3.2-.4.1h-.1-.1-.1-.1-.1l-.1.1s-.1.1 0 0v.1s0 .1 0 0v.1s0 .1 0 0V93.7c0 .2-.1.4-.3.5-.1.1-.3.1-.5 0-.1-.1-.1-.3 0-.5.2-.2.2-.5 0-.7l-.1-.1h-.1s-.1 0-.1-.1h-.1-.1H144c-.4 0-.4-.6-.1-.6h.1c.2 0 .3 0 .5-.1V92c-.1-.2-.2-.4-.2-.6 0-.2 0-.3.2-.4.2-.1.3 0 .4.1.1.2.2.3.2.5.2-.1.4-.3.6-.4.2-.2.6-.1.6.2V92.2s.1 0 .1.1c.3.3.3.5.2.7zM151 96.2h-.7c.1.1 0 .2 0 .3.2.2.3.4.3.6 0 .2-.2.3-.3.3-.2 0-.3-.1-.3-.3h-.1-.1-.1c.1 0 0 0 0 0-.2.1-.4 0-.4-.1-.1-.2 0-.3.1-.4h.1v-.1-.1-.1-.1-.1c-.2-.1-.3-.4-.3-.6 0-.2.3-.4.5-.3.2.1.3.2.3.4.1-.1.1-.2.2-.4.1-.1.2-.2.3-.2.1 0 .3.1.3.2v.3c.3 0 .5.2.7.4-.1 0-.3.3-.5.3zM145.9 84.8h-.6v.4c0 .1-.1.2-.1.2 0 .1-.1.3-.2.4-.3.3-.8-.2-.5-.5.1-.1 0 0 0 0 0-.1 0 0 0 0v-.1-.1s0-.1-.1-.1c-.2-.2-.5-.2-.8-.2-.3 0-.4-.4-.2-.6.2-.1.5-.2.7-.2v-.2c-.1-.2-.1-.4-.2-.6 0-.2 0-.3.2-.4.1-.1.3 0 .4.1v.1c.1.2.1.4.2.5.1-.1.3-.3.4-.5.1-.2.3-.2.4-.1.2.1.2.3.1.4l-.3.6.5.1c.5.2.4.8.1.8zM58.6 96.5c.2-.3-.1-.7-.4-.5-.1.1-.3.1-.4.2 0 0-.1 0 0 0-.1 0-.1-.1-.2-.2v-.1-.1c0-.1 0-.2-.1-.3 0-.2-.2-.3-.4-.2-.2 0-.3.2-.2.4v.1l-.1.1s-.1 0-.1.1c-.1.1-.2.1-.4.2-.1 0-.3.1-.4.1-.2 0-.3.4-.1.5.2.2.5.3.9.3v.4c0 .2 0 .4.1.6.1.1.2.2.4.1.1 0 .3-.2.2-.3v-.4c0-.1.1-.1.1-.1h.3l.3.3c.1.1.3.2.4.1.1-.1.2-.2.2-.4v-.1c-.1-.2-.2-.3-.4-.5l-.1-.1c0 .1.2 0 .4-.2zM57.5 103.3h-.8c0-.2-.1-.5-.1-.7 0-.1 0-.1-.1-.1 0-.1 0-.3-.1-.4-.1-.2-.3-.2-.4-.1-.2.1-.2.3-.1.4v.2c0 .1-.1.2-.1.2l-.1.1h-.1-.1-.1-.1-.1c-.2-.1-.4.1-.4.2-.1.2.1.3.2.4 0 0 .1.1 0 0 .1 0 .1.1.1.1v.2c-.1.1-.1.1-.1.2-.2.3-.1.6.1.9.1.1.4.1.5 0 .2-.2.2-.4.3-.7h.1s.1 0 .1.1c.2.2.4.4.5.7.1.2.3.2.4.1.2-.1.2-.3.1-.4-.1-.3-.3-.6-.6-.8.1 0 .2-.1.3-.1h.4c.2 0 .3-.1.3-.3.3-.1.1-.2 0-.2zM61.8 101.7c0-.2-.2-.3-.3-.3h-.4s-.1 0-.1-.1v-.1c0-.1-.1-.1-.1-.2v-.2c0-.2-.1-.3-.3-.3-.2 0-.3.1-.3.3 0 .2 0 .4-.1.6h-.1c-.2-.1-.5 0-.7.1-.3.1-.2.6.2.6h.5l.1.1c0-.1 0 0 0 0v.1c-.1.1-.2.3-.2.4 0 .1.1.3.2.3s.3 0 .4-.1c.1-.1.2-.3.2-.4.1.2.2.4.5.5.2.1.5 0 .5-.3s-.2-.5-.4-.7H61.7s.1-.1.1-.3zM62.2 108.8c-.1-.2-.3-.2-.4-.1h-.1-.1-.1-.1-.1l-.1-.1s-.1-.1 0 0v-.1s0-.1 0 0v-.1s0-.1 0 0v-.2-.1c0-.2-.1-.4-.3-.5-.1-.1-.3-.1-.5 0-.1.1-.1.3 0 .5.2.2.2.5 0 .7l-.1.1h-.1s-.1 0-.1.1H60h-.1H59.6c-.4 0-.4.6-.1.6h.1c.2 0 .3 0 .5.1v.1c-.1.2-.2.4-.2.6 0 .2 0 .3.2.4.2.1.3 0 .4-.1.1-.2.2-.3.2-.5.2.1.4.3.6.4.2.2.6.1.6-.2v-.7-.1s.1 0 .1-.1c.3-.3.3-.5.2-.7zM66.6 105.6h-.7c.1-.1 0-.2 0-.3.2-.2.3-.4.3-.6 0-.2-.2-.3-.3-.3-.2 0-.3.1-.3.3h-.1-.1-.1c.1 0 0 0 0 0-.2-.1-.4 0-.4.1-.1.2 0 .3.1.4h.1v.5c-.2.1-.3.4-.3.6 0 .2.3.4.5.3.2-.1.3-.2.3-.4.1.1.1.2.2.4.1.1.2.2.3.2.1 0 .3-.1.3-.2v-.3c.3 0 .5-.2.7-.4-.1 0-.3-.3-.5-.3zM61.5 117h-.6v-.4c0-.1-.1-.2-.1-.2 0-.1-.1-.3-.2-.4-.3-.3-.8.2-.5.5.1.1 0 0 0 0 0 .1 0 0 0 0v.2s0 .1-.1.1c-.2.2-.5.2-.8.2-.3 0-.4.4-.2.6.2.1.5.2.7.2v.2c-.1.2-.1.4-.2.6 0 .2 0 .3.2.4.1.1.3 0 .4-.1v-.1c.1-.2.1-.4.2-.5.1.1.3.3.4.5.1.2.3.2.4.1.2-.1.2-.3.1-.4l-.3-.6.5-.1c.5-.2.4-.8.1-.8zM135.7 107.6c-.2-.3.1-.7.4-.5.1.1.3.1.4.2 0 0 .1 0 0 0 .1 0 .1-.1.2-.2v-.1-.1c0-.1 0-.2.1-.3 0-.2.2-.3.4-.2.2 0 .3.2.2.4v.1l.1.1s.1 0 .1.1c.1.1.2.1.4.2.1 0 .3.1.4.1.2 0 .3.4.1.5-.2.2-.5.3-.9.3v.4c0 .2 0 .4-.1.6-.1.1-.2.2-.4.1-.1 0-.3-.2-.2-.3v-.4c0-.1-.1-.1-.1-.1h-.3l-.3.3c-.1.1-.3.2-.4.1-.1-.1-.2-.2-.2-.4v-.1c.1-.2.2-.3.4-.5l.1-.1c0 .1-.3 0-.4-.2zM136.8 114.4h.8c0-.2.1-.5.1-.7 0-.1 0-.1.1-.1 0-.1 0-.3.1-.4.1-.2.3-.2.4-.1.2.1.2.3.1.4v.2c0 .1.1.2.1.2l.1.1h.5c.2-.1.4.1.4.2.1.2-.1.3-.2.4 0 0-.1.1 0 0-.1 0-.1.1-.1.1v.2c.1.1.1.1.1.2.2.3.1.6-.1.9-.1.1-.4.1-.5 0-.2-.2-.2-.4-.3-.7h-.1s-.1 0-.1.1c-.2.2-.4.4-.5.7-.1.2-.3.2-.4.1-.2-.1-.2-.3-.1-.4.1-.3.3-.6.6-.8-.1 0-.2-.1-.3-.1h-.4c-.2 0-.3-.1-.3-.3-.3-.1-.2-.2 0-.2zM132.5 112.8c0-.2.2-.3.3-.3h.4s.1 0 .1-.1v-.1c0-.1.1-.1.1-.2v-.2c0-.2.1-.3.3-.3.2 0 .3.1.3.3 0 .2 0 .4.1.6h.1c.2-.1.5 0 .7.1.3.1.2.6-.2.6h-.5l-.1.1c0-.1 0 0 0 0v.1c.1.1.2.3.2.4 0 .1-.1.3-.2.3s-.3 0-.4-.1c-.1-.1-.2-.3-.2-.4-.1.2-.2.4-.5.5-.2.1-.5 0-.5-.3s.2-.5.4-.7h-.2-.1c-.1 0-.2-.1-.1-.3zM132 119.9c.1-.2.3-.2.4-.1h.5l.1-.1s.1-.1 0 0v-.1s0-.1 0 0v-.1s0-.1 0 0v-.2-.1c0-.2.1-.4.3-.5.1-.1.3-.1.5 0 .1.1.1.3 0 .5-.2.2-.2.5 0 .7l.1.1h.1s.1 0 .1.1h.5c.4 0 .4.6.1.6h-.1c-.2 0-.3 0-.5.1v.1c.1.2.2.4.2.6 0 .2 0 .3-.2.4-.2.1-.3 0-.4-.1-.1-.2-.2-.3-.2-.5-.2.1-.4.3-.6.4-.2.2-.6.1-.6-.2v-.7-.1s-.1 0-.1-.1c-.2-.3-.3-.5-.2-.7zM127.7 116.7h.7c-.1-.1 0-.2 0-.3-.2-.2-.3-.4-.3-.6 0-.2.2-.3.3-.3.2 0 .3.1.3.3H129c-.1 0 0 0 0 0 .2-.1.4 0 .4.1.1.2 0 .3-.1.4h-.1v.5c.2.1.3.4.3.6 0 .2-.3.4-.5.3-.2-.1-.3-.2-.3-.4-.1.1-.1.2-.2.4-.1.1-.2.2-.3.2-.1 0-.3-.1-.3-.2v-.3c-.3 0-.5-.2-.7-.4 0 0 .2-.3.5-.3zM132.8 128.1h.6v-.4c0-.1.1-.2.1-.2 0-.1.1-.3.2-.4.3-.3.8.2.5.5-.1.1 0 0 0 0 0 .1 0 0 0 0v.2s0 .1.1.1c.2.2.5.2.8.2.3 0 .4.4.2.6-.2.1-.5.2-.7.2v.2c.1.2.1.4.2.6 0 .2 0 .3-.2.4-.1.1-.3 0-.4-.1v-.1c-.1-.2-.1-.4-.2-.5-.1.1-.3.3-.4.5-.1.2-.3.2-.4.1-.2-.1-.2-.3-.1-.4l.3-.6-.5-.1c-.6-.2-.5-.8-.1-.8zM141.8 144.3c-.2.3.1.7.4.5.1-.1.3-.1.4-.2 0 0 .1 0 0 0 .1 0 .1.1.2.2v.2c0 .1 0 .2.1.3 0 .2.2.3.4.2.2 0 .3-.2.2-.4v-.1l.1-.1s.1 0 .1-.1c.1-.1.2-.1.4-.2.1 0 .3-.1.4-.1.2 0 .3-.4.1-.5-.2-.2-.5-.3-.9-.3v-.4c0-.2 0-.4-.1-.6-.1-.1-.2-.2-.4-.1-.1 0-.3.2-.2.3v.4c0 .1-.1.1-.1.1h-.3l-.3-.3c-.1-.1-.3-.2-.4-.1-.1.1-.2.2-.2.4v.1c.1.2.2.3.4.5l.1.1c0-.1-.2 0-.4.2zM138.6 139c0 .2.2.3.3.3h.4s.1 0 .1.1v.1c0 .1.1.1.1.2v.2c0 .2.1.3.3.3.2 0 .3-.1.3-.3 0-.2 0-.4.1-.6h.1c.2.1.5 0 .7-.1.3-.1.2-.6-.2-.6h-.5l-.1-.1c0 .1 0 0 0 0v-.1c.1-.1.2-.3.2-.4 0-.1-.1-.3-.2-.3s-.3 0-.4.1c-.1.1-.2.3-.2.4-.1-.2-.2-.4-.5-.5-.2-.1-.5 0-.5.3s.2.5.4.7h-.2-.1s-.1.2-.1.3zM138.2 132c.1.2.3.2.4.1h.5l.1.1s.1.1 0 0v.1s0 .1 0 0v.1s0 .1 0 0V132.7c0 .2.1.4.3.5.1.1.3.1.5 0 .1-.1.1-.3 0-.5-.2-.2-.2-.5 0-.7l.1-.1h.1s.1 0 .1-.1h.5c.4 0 .4-.6.1-.6h-.1c-.2 0-.3 0-.5-.1v-.1c.1-.2.2-.4.2-.6 0-.2 0-.3-.2-.4-.2-.1-.3 0-.4.1-.1.2-.2.3-.2.5-.2-.1-.4-.3-.6-.4-.2-.2-.6-.1-.6.2V131.2s-.1 0-.1.1c-.3.3-.3.5-.2.7zM133.8 135.1h.7c-.1.1 0 .2 0 .3-.2.2-.3.4-.3.6 0 .2.2.3.3.3.2 0 .3-.1.3-.3H135.1c-.1 0 0 0 0 0 .2.1.4 0 .4-.1.1-.2 0-.3-.1-.4h-.1v-.1-.1-.1-.1-.1c.2-.1.3-.4.3-.6 0-.2-.3-.4-.5-.3-.2.1-.3.2-.3.4-.1-.1-.1-.2-.2-.4-.1-.1-.2-.2-.3-.2-.1 0-.3.1-.3.2v.3c-.3 0-.5.2-.7.4.1.1.3.4.5.3zM138.9 123.7h.6v.4c0 .1.1.2.1.2 0 .1.1.3.2.4.3.3.8-.2.5-.5-.1-.1 0 0 0 0 0-.1 0 0 0 0v-.1-.1s0-.1.1-.1c.2-.2.5-.2.8-.2.3 0 .4-.4.2-.6-.2-.1-.5-.2-.7-.2v-.2c.1-.2.1-.4.2-.6 0-.2 0-.3-.2-.4-.1-.1-.3 0-.4.1v.1c-.1.2-.1.4-.2.5-.1-.1-.3-.3-.4-.5-.1-.2-.3-.2-.4-.1-.2.1-.2.3-.1.4l.3.6-.5.1c-.6.3-.5.8-.1.8zM101.6 141.4c-.1 0 0 0 0 0h.1c.2 0 .3 0 .5-.1.1-.1.3-.1.3-.3.1-.2 0-.4-.1-.4-.2-.1-.3 0-.4.1 0 0-.1 0-.1.1h-.2-.1c-.2-.1-.2-.2-.2-.4s0-.3-.1-.4h-.1c0-.1-.1-.2-.1-.2-.1-.1-.3-.1-.5 0-.1.1-.1.3 0 .5 0 0 0 .1 0 0v.2c0 .1-.1.2-.2.3-.2.2-.4.2-.6.3h-.2-.1-.1c-.1.1-.2.3-.1.4.1.2.2.2.4.2H100c.1 0 .2.1.2.2v.1c-.1.2-.1.5-.1.8 0 .4.5.4.6.1.1-.2.1-.5.1-.7.1.2.3.4.5.5.1.1.2.1.3.2.2.1.4 0 .4-.1.1-.1 0-.4-.1-.4-.2-.1-.3-.3-.5-.4l-.2-.2-.1-.1v-.1c.3-.1.3-.2.5-.2-.1 0-.1 0 0 0zM96.6 147.4c.2-.3-.2-.6-.4-.4-.1.1-.2.2-.4.3 0 0-.1 0 0 0-.1 0-.1-.1-.2-.2v-.8c0-.4-.6-.4-.6 0v.7c-.4.1-.8.3-1.2.6-.3.3.1.7.4.5h.2s.1 0 0 0c.1 0 .1 0 .2.1 0 0 .1 0 .1.1-.1.3-.1.6-.1.9 0 .2.4.3.5.1.2-.2.2-.4.3-.7.2.3.5.5.8.6.1.1.3 0 .4-.1.1-.1 0-.3-.1-.4-.2-.2-.4-.4-.6-.5.1 0 .1-.1.2-.1.2-.3.4-.5.5-.7zM103.5 150c.1-.1.1-.3 0-.4-.1-.1-.3-.2-.4-.1-.2.1-.3.2-.5.2-.1-.2-.1-.4-.2-.6 0 0 0-.1-.1-.1v-.1c0-.2-.2-.3-.4-.2-.2 0-.3.2-.2.4.1.2.1.5.1.7-.3 0-.7.1-1 .3-.2.1-.2.5.1.6.2 0 .4.1.6 0-.1.2 0 .5.1.7.1.3.5.2.6-.1v-.5h.1c-.1 0 0 0 0 0s.1 0 .1.1c.1.1.2.2.2.4v.1c.1.1.3.1.4 0 .1-.1.2-.3.1-.4-.1-.2-.2-.3-.3-.5 0-.1-.1-.1-.1-.2.4 0 .6-.1.8-.3zM109.9 151.2c-.1-.1-.3-.2-.4-.1-.1 0-.1.1-.2.1s-.3.1-.4 0l-.1-.1v-.1-.1-.6c0-.4-.6-.4-.6 0v.9c-.4 0-.8.1-1.1.3-.3.2-.1.7.3.6.1 0 .3 0 .4-.1-.1.1-.1.3-.1.4 0 .2 0 .3.2.4.1.1.3 0 .4-.1.1-.1.1-.3.2-.4l.5.5c.1.1.3.1.5 0 .1-.1.1-.3 0-.5-.1-.1-.2-.3-.2-.4l.5-.3c.1 0 .1-.1.2-.1 0 0 .1 0 .1-.1h.1c-.2.1-.2-.1-.3-.2zM116.7 152.4c-.2 0-.5.1-.7 0v-.1s0-.1 0 0c.2-.2.1-.4-.1-.5 0-.1 0-.1.1-.2.1-.2-.1-.4-.2-.4-.2 0-.3.1-.4.2-.1.3-.2.7-.4 1l-.1.1c-.1 0-.3 0-.4-.1-.1-.1-.3-.1-.4.1-.1.1-.1.3-.1.4l.1.1c.2.2.5.2.7.2v.2c-.2.2-.3.4-.3.6 0 .1.1.3.2.3s.3 0 .4-.1c.1-.1.1-.2.2-.4h.2c.1.2.1.3.2.5.2.3.6.1.6-.2 0-.2-.1-.5-.2-.7.3 0 .6-.1.9-.3.3-.3 0-.7-.3-.7zM113.1 158.1v-.1-.1c.3 0 .6-.1.7-.3.2-.2.1-.5-.1-.5-.3 0-.6 0-.8.2h-.1s-.1-.1 0-.1c0-.2 0-.3.1-.5 0-.1-.1-.2-.2-.3l-.1-.1c-.2-.1-.3.1-.4.2-.1.3-.2.6-.4.9-.2 0-.4.1-.6.1-.4.1-.2.7.2.6H111.7l.1.1s.1.1 0 0v.5c0 .1.2.2.3.2.2 0 .3-.1.3-.2s.1-.2.1-.3c.1.2.2.4.5.5h.1c.4.1.6-.4.3-.6-.1 0-.2-.1-.2-.2v-.1c-.1.2-.1.2-.1.1 0 .1 0 0 0 0zM120.1 159.4h-.9v-.6-.1-.4c0-.2-.1-.3-.3-.3-.2 0-.3.1-.3.3 0 .1 0 .3-.1.4-.1.2-.1.2-.3.3l-.1.1c-.1 0-.1 0-.2.1h-.5c-.4 0-.4.5-.1.6H117.9c.1 0 .1.1.2.1v.1c-.1.1-.2.3-.3.5v.3c0 .2.2.3.4.2.2 0 .2-.2.2-.4l.1-.1c0-.1.1-.1.1-.2h.1c0 .2.1.3.2.5s.5.2.6-.1c0-.3 0-.5-.2-.7.3-.1.5-.1.8-.2.2 0 .3-.2.2-.4.1.2 0 0-.2 0zM113.8 163.4h-.8v-.1c.1-.1.2-.2.2-.4 0-.1-.1-.1-.1-.2.1-.4-.5-.6-.6-.2-.1.2-.1.4-.2.6h-1.1c-.2 0-.3.1-.3.3 0 .2.1.3.3.3h.5c.1 0 .1 0 .1.1v.2s-.1.1-.1.2c-.1.1-.2.3-.2.5s.1.3.3.3c.2 0 .3-.1.3-.3 0 0 0-.1 0 0 0 0 0-.1.1-.1l.1-.1c.1.2.3.4.4.5.2.2.6.1.6-.2 0-.2-.1-.5-.3-.6.3 0 .6 0 .8-.1.2-.1.3-.2.2-.4.1-.2 0-.3-.2-.3zM112.9 163.3zM109.3 168.2c.3-.2.1-.7-.3-.6-.2 0-.3.1-.5.1-.1 0-.1-.1-.1-.1-.1-.2-.1-.4.1-.5.1-.1.1-.3 0-.5-.1-.1-.2-.1-.2-.1v-.2c-.1-.2-.2-.3-.4-.2-.2 0-.3.2-.2.4.1.3.1.6-.2.8-.2.2-.5.2-.8.1-.1 0-.2 0-.3.1-.2.2-.2.5 0 .6.2.2.4.2.6.1.1 0 .2 0 .2.1 0 0 0 .1-.1.1 0 .1 0 .1-.1.2s-.1.3 0 .5c.1.1.3.1.5 0s.3-.3.3-.5c0 .1.1.1.1.2l.3.6c.2.3.7.1.6-.3-.1-.2-.2-.4-.2-.6.3-.1.5-.2.7-.3zM104 170.6h-.7v-.3c0-.1 0-.2-.1-.3 0-.1 0-.3-.1-.4-.1-.2-.3-.2-.4-.1-.2.1-.2.3-.1.4v.2s0 .1-.1.1l-.1.1c-.2.2-.6.2-.9.2-.4 0-.4.6 0 .6h.6c0 .1 0 .1-.1.2-.1.2-.2.4-.1.6.1.3.5.3.6 0 0-.1 0-.1.1-.2.1.2.3.4.4.5.3.3.7-.1.5-.4-.1-.1-.2-.3-.3-.4.2-.1.5-.2.7-.3.4-.1.4-.5.1-.5zM98.6 167.9c.2 0 .5 0 .7-.2.2-.2.1-.5-.1-.5s-.4 0-.6.1h-.1l-.1-.1v-.1c0-.3-.1-.5-.3-.7-.1-.1-.3-.1-.5 0-.1.1-.1.3 0 .5l.1.1v.4c0 .1-.1.1-.1.1-.1.1-.3.2-.4.2h-.5c-.2 0-.3 0-.4.2 0 .2.1.3.2.4.1 0 .2.1.4.1l.1.1c.1 0 .1.1.1.1s0 .1 0 0c-.1.1-.1.2-.2.3-.1.3.2.6.4.4.2-.1.3-.3.4-.5 0-.1.1-.1.1-.2.1 0 .1.1.2.1.1.3.4.5.7.6.1 0 .3 0 .4-.1.1-.1.1-.3-.1-.4-.2-.1-.3-.3-.5-.4v-.1-.1c0-.2.1-.3.1-.3zM109.1 145.4c-.2-.1-.5-.1-.7 0 0-.1-.1-.2-.1-.3.1-.2.2-.5.1-.8 0-.2-.2-.3-.4-.2-.2 0-.3.2-.2.4 0 .1 0 .2-.1.4l-.3.3c-.3.2-.7.2-1.1.2-.2 0-.4.3-.3.5.1.2.3.3.5.3h.4l.1.1-.3.6c-.1.3.2.5.5.4.3-.2.5-.5.5-.9 0 0 0 .1.1.1.1.2.2.4.4.6.3.2.6-.2.4-.4-.1-.1-.2-.3-.3-.4 0 0 0-.1 0 0 .2-.1.4-.1.6-.2.4-.2.5-.6.2-.7zM98.8 175.2c-.1-.1-.2-.2-.3-.2v-.1-.1-.1c.1-.2.1-.4 0-.6 0-.1.1-.2.1-.3 0-.2-.1-.4-.2-.4-.2 0-.4.1-.4.2 0 .2-.1.4-.3.6-.1-.2-.3-.3-.4-.5-.2-.3-.7.1-.5.4.1.2.3.4.4.6l-.1.1-.1.1h-.3c-.2 0-.3.1-.3.3 0 .2.1.3.3.3h.5c-.1.1-.1.3-.1.5 0 .3.4.5.6.2l.3-.6s.1 0 0 0H98.3c.1.1.2.1.3.2.1.1.3.1.4-.1 0-.2 0-.4-.2-.5zM104.8 177c-.1-.1-.3-.1-.4-.1h-.1l-.1-.1v-.1c0-.1 0-.1-.1-.2 0-.2-.1-.3-.3-.3-.2 0-.3.1-.3.3v.2c0-.1 0 0 0 0s-.1.1 0 0l-.1.1s-.1.1-.1 0h-.1c-.1.1-.2.1-.3.1-.1 0-.3.1-.4.1-.1 0-.2.2-.2.3 0 .1 0 .3.2.3.2.1.4.2.6.2-.1.2-.2.4 0 .7.1.2.5.2.6-.1 0-.1 0-.2.1-.3.1.2.3.4.6.5.1 0 .3 0 .4-.1.1-.1 0-.3-.1-.4-.1-.1-.2-.2-.4-.3v-.1h.4c.1 0 .2-.2.2-.3 0-.2 0-.3-.1-.4zM109.3 179c-.1-.2-.3-.2-.4-.1-.1.1-.2.1-.4.2 0-.2.1-.4 0-.6 0 0 0-.1-.1-.1v-.1c-.1-.2-.2-.3-.4-.3s-.4.2-.4.4c0 .1 0 .2.1.2v.1l-.2.4c-.2.2-.4.3-.7.4-.2.1-.3.2-.2.4 0 .2.2.3.4.2h.2s.1 0 0 0h.1s.1.1 0 0v.5c-.3.3.2.8.5.5.2-.2.3-.5.3-.8v-.1s0 .1.1.1c.1.2.3.3.5.4.3.1.6-.3.3-.5l-.3-.3c.1-.1.2-.1.3-.2.1-.1.3-.1.4-.2-.1-.2 0-.4-.1-.5zM106.2 185.5c-.1-.1-.3-.1-.4 0 .1 0 0 0 0 0h-.1-.1c-.1 0-.2.1-.3.1v-.1s0-.1 0 0c.3-.3-.2-.8-.5-.5-.1 0-.1.1-.1.2-.1.3-.2.5-.4.7 0 0-.1 0-.1.1h-.1c-.1 0-.1.1-.2.1s-.1 0-.1.1c-.1 0-.2 0-.2.1-.4.1-.3.7.1.6h.5c-.1.2-.2.4-.3.5-.1.1-.1.3.1.4.1.1.3.1.4.1.2-.1.4-.3.5-.5.1-.1.1-.2.1-.3l.2.2c.2.1.3.2.5.4.1.1.3.1.4.1.1-.1.2-.2.1-.4-.1-.3-.3-.4-.5-.6l-.1-.1h-.1l-.1-.1c.3 0 .6-.2.9-.4l.1-.1c0-.3-.1-.5-.2-.6zM95.2 23.3c-.3-.3-.6-.5-.9-.7 0 0-.1 0-.1-.1.2 0 .4.1.6 0 .3-.1.3-.6 0-.6-.2 0-.4-.1-.6-.1l-.1-.1-.1-.1c.1-.3.1-.7-.2-.9-.2-.2-.6 0-.5.3-.1.2 0 .5 0 .7 0 0 0 .1-.1.1-.2.2-.5.2-.7.2h-.3-.1c-.3.1-.3.7.1.6h.5s.1 0 .1.1l.1.1c.1.1.1.2.1.3v.2c-.2.4.3.7.6.3.1-.2.1-.4.1-.6v-.1c.1.1.2.2.4.3.3.2.6.4.8.5.2.3.6-.1.3-.4zM104.5 23c-.1-.1-.1-.1 0 0-.1-.1-.1-.1 0 0-.1-.1-.1-.1 0-.1.2 0 .5 0 .7-.2.2-.1.2-.4.1-.5-.3-.2-.6-.2-.9-.1h-.1c-.1-.2-.1-.4 0-.6.1-.1 0-.4-.1-.4h-.2c-.1-.1-.2-.1-.3-.1-.2 0-.3.2-.2.4.1.3-.1.6-.3.8-.2.2-.5.4-.8.3-.1 0-.3.1-.3.2s0 .3.1.4c.3.1.6.2.9.2 0 .2 0 .5.1.7.1.4.6.3.6-.1 0-.2 0-.4.1-.6.2.4.6.7 1 .9.1.1.3 0 .4-.1.1-.1.1-.3-.1-.4l-.7-.7zM90 27.8c-.2-.2-.5-.4-.7-.5l-.1-.1v-.1c.2 0 .4-.1.6-.3.1-.1.1-.4-.1-.5-.3-.2-.6-.1-.8.1 0 0-.1-.1 0 0l-.1-.1c0-.2 0-.4-.1-.6-.1-.2-.3-.2-.4-.1-.3 0-.3.1-.3.2v.1c0 .1 0 .3.1.4 0 .1-.1.3-.2.4-.3.3-.6.4-.9.6-.3.2-.1.7.3.6.2 0 .3-.1.5-.1v.8c0 .4.7.4.6 0 0-.2 0-.5.1-.7 0-.1 0-.2.1-.3.1.1.2.1.3.2.2.3.6.5.9.7.3 0 .5-.5.2-.7zM100.2 25.9c-.1 0-.1 0 0 0h-.1c.1 0 0 0 0 0l-.1-.1c-.1 0 0 0 0 0 .1 0 .2-.1.3-.2.2-.1.1-.4-.1-.5-.3-.2-.6-.1-.8.1h-.1c.2-.3.2-.7 0-1-.1-.1-.3-.2-.4-.1-.1.1-.2.2-.2.3l-.1.1c-.1.2-.1.3 0 .5-.1.1-.2.1-.3.2-.2.1-.3.1-.5.1s-.3.2-.2.4c0 .2.2.3.3.3h.7v.5c0 .2 0 .3.2.4.2 0 .3-.1.4-.2v-.2-.1c.3.3.8.4 1.1.2.1-.1.2-.2.1-.4.1-.2 0-.3-.2-.3zM112.6 21.1c-.4.1-.9-.2-.9-.6v-.1c.1-.2.1-.5 0-.8 0-.2-.2-.3-.4-.2-.2 0-.3.2-.2.4.1.6-.5 1.3-1.1 1.2-.3 0-.4.4-.2.6.2.2.5.3.8.4-.1.2-.2.4-.1.7 0 .3.4.4.6.2.1-.1.2-.3.2-.5.2.1.3.3.5.5.1.1.3.2.4.1.1-.1.2-.3.1-.4-.1-.2-.2-.3-.4-.5.3-.1.6-.1.9-.2.3-.3.2-.9-.2-.8zM119.6 24.3c-.1-.1-.3-.2-.4-.1-.1 0-.2.1-.2.1h-.1-.1c-.1 0-.1 0-.2-.1-.1 0-.1-.1-.2-.1.1-.3.1-.7 0-1-.1-.2-.2-.3-.4-.2-.2 0-.3.2-.2.4 0 .1 0 .1.1.2-.2 0-.3.2-.2.4 0 .1 0 .1.1.2v.1c-.1 0-.1.1-.2.1h-.8c-.3 0-.5.5-.2.6.3.1.6.2.9.1 0 .2 0 .3-.1.5v.1c-.1.1.1.3.2.4.1.1.3 0 .4-.1 0 0 0-.1.1-.1.1-.1.1-.2.2-.4.2.2.4.5.6.6.1.1.3.1.4 0 .1-.1.2-.3.1-.4l-.1-.1c-.1-.1-.2-.3-.3-.4l.6-.3h.1c.1 0 .1-.1.2-.1h.1c-.3-.1-.3-.3-.4-.4zM82.4 27.2c-.1-.1-.3-.1-.4 0-.1.1-.3.2-.4.4v-.3c0-.1-.1-.2-.1-.3-.1-.2-.2-.3-.3-.4-.1-.1-.4 0-.4.1-.1.2 0 .3.1.4v.6l-.2.2c-.3 0-.6.1-.8.1-.2 0-.3.2-.2.4 0 .2.2.3.3.3.2 0 .5 0 .7-.1v.3c0 .2 0 .5.1.7.1.3.6.2.6-.2v-.5c0-.1 0 0 0 0s.1-.1 0 0h.1c.2.2.3.3.5.4.2.1.6-.1.5-.4-.1-.3-.3-.5-.5-.6l.6-.6.1-.1c-.1-.1-.2-.3-.3-.4zM87 30.8c-.2 0-.3 0-.5-.1 0 0 0-.1 0 0v-.1-.1-.1h.2c.3-.2-.1-.7-.4-.5l-.1.1h-.1-.1-.1-.1c0-.1 0-.3-.1-.5-.2-.3-.6-.1-.6.2 0 0-.1 0-.1.1-.1.1-.1.3 0 .5l.1.1s0 .1-.1.1c-.2.2-.4.4-.7.6-.1.1-.2.3-.1.4.1.2.3.2.4.1.1 0 .2-.1.2-.1 0 .3.1.6.2.8.1.2.2.3.4.2.1 0 .3-.2.3-.3 0-.3 0-.7.1-1h.3c.3.2.7.2 1 .1.1-.1.2-.2.1-.4.1-.1-.1-.1-.2-.1zM100.6 16.4c.3-.1.6-.3.8-.5.3-.2 0-.6-.3-.5-.3.1-.6.2-.9.4 0 0-.1 0-.1-.1v-.1-.1l.1-.1c.1-.2 0-.3-.1-.4-.1-.1-.4 0-.4.1-.2.6-.7 1.1-1.3 1.3-.2.1-.3.2-.2.4 0 .2.2.3.4.2.1 0 .3-.1.4-.1h.4c.1 0 .1.1.2.2v.2c-.1.1.1.3.2.4.1.1.3 0 .4-.1v-.1c.1-.1.1-.3.1-.4.3.2.6.3.9.3.1 0 .3-.1.3-.2.1-.1 0-.3-.1-.4-.2-.1-.5-.3-.8-.4zM109.2 16.3c.2-.2-.1-.6-.4-.5-.3.1-.5.2-.8.3-.2-.1-.2-.4-.1-.6 0-.1 0-.3-.1-.3 0-.2 0-.4-.1-.7-.1-.2-.2-.3-.4-.2-.2 0-.3.2-.2.4.2.5-.3 1.3-.9 1.1-.2 0-.3 0-.4.2-.1.1 0 .3.1.4h.1c.3.1.6.2.9.2v.1c-.1.4-.1.8-.2 1.2 0 .2 0 .3.2.4.1.1.3 0 .4-.1v-.1c.2-.4.3-.8.3-1.2 0 0 .1 0 .1.1.1.1.2.3.3.4.1.2.3.4.5.5.1.1.3.1.4-.1.1-.1.1-.3 0-.4l-.4-.4c0-.1-.1-.1-.1-.2.3-.1.6-.2.8-.5zM118.8 18.5c-.1-.2-.2-.2-.4-.2-.1 0-.4.1-.5 0 0 0 0-.1 0 0 .1-.1.1-.3 0-.4 0-.1-.1-.2-.1-.3-.3-.3-.7.1-.5.4l-.1.1H116c-.3.1-.3.6.1.6h.7c0 .2-.1.3-.1.5l-.2.3c-.1.2 0 .4.1.4.2.1.3 0 .4-.1.1-.1.2-.3.2-.4.1-.1.1-.2.2-.3 0 0 .1 0 .1.1.1.2.3.5.5.6.1.1.3 0 .4-.1.1-.1.1-.3.1-.4-.1-.2-.2-.3-.3-.4.2 0 .4-.1.5-.2h.1v-.2zM117.9 18.2zM126.5 26.9c-.2 0-.5 0-.7.1 0 0-.1-.1 0 0l-.1-.1v-.1-.1s0-.1 0 0c0-.1 0-.3-.1-.4-.1-.1-.3-.1-.5 0-.4.4-.9.6-1.5.5-.3-.1-.6.4-.3.6h.1c.3.1.5.2.8.2v.1c-.2.3-.1.5 0 .8.2.2.5.1.5-.1 0-.1.1-.2.1-.4h.1c.1.3.2.5.4.7.2.2.6 0 .5-.3l-.3-.6h.1c.3.1.7.1 1-.2.3-.4.2-.7-.1-.7zM85.4 19c-.2.1-.2.1-.3 0-.1 0-.2-.1-.2-.1l-.2-.2v-.2c.1-.3-.2-.5-.5-.4-.3-.1-.6.4-.3.6l.1.1v.4c0 .1-.1.1-.2.2 0 0-.1.1-.2.1h-1.3c-.4 0-.4.6-.1.6.4.1.9.2 1.3.1-.3.4-.4.9-.1 1.3.2.2.5.1.5-.1.1-.3.1-.6.2-.9H84.4s.1 0 .1.1c.2.3.3.5.5.8.2.3.7.1.6-.3-.1-.4-.3-.7-.6-1 0-.1-.1-.1-.1-.2.2-.1.4-.2.6-.2h.1c.4-.3.2-.9-.2-.7zM93.2 15.6c.1 0 .1 0 0 0 .1-.1.1-.1.2-.1.2 0 .3-.1.3-.3 0-.2-.1-.3-.2-.4h-.4-.1c-.1-.3-.2-.6-.1-.9 0-.2 0-.3-.2-.4h-.3c-.2-.1-.5.1-.4.4.2.6-.3 1.3-1 1.3-.1 0-.3.1-.3.2s0 .3.1.4c.3.2.6.2.9.1 0 .1 0 .2.1.2-.1.3-.1.7.1 1 .2.3.6.2.6-.2v-.7c0-.1.1-.1.2-.2.2.3.5.6.8.8.2.1.5-.1.5-.3-.1-.3-.4-.7-.8-.9zM74.1 25.6c-.2-.3-.5-.6-.9-.8 0 0 .1 0 .1-.1.2 0 .4-.1.6-.3.2-.2 0-.7-.3-.5-.1.1-.3.1-.4.2-.1 0-.2 0-.3-.1-.1-.1-.2-.1-.2-.2v-.1-.1-.1c0-.2 0-.4-.2-.4h-.2c-.1-.1-.3-.1-.4 0-.1.1-.1.3 0 .5.1.1.1.3.1.5-.1 0-.1 0-.2.1-.1 0-.2.1-.3.1h-.7c-.3 0-.5.4-.2.6.3.3.6.2 1 .1.1 0 .3 0 .4-.1v.2c-.3.4-.4.9 0 1.3.2.2.5 0 .6-.2 0-.2.1-.5.1-.7 0 0 .1 0 .1-.1h.3c.2.3.5.6.8.7 0 0 .4-.2.2-.5zM80.8 22.7c-.1-.4-.4-.7-.8-.9l.4-.2h.1c.3-.2.1-.7-.3-.6-.1 0-.1.1-.2.1h-.1c-.1 0-.2-.1-.2-.1-.1 0-.1-.1-.1-.2.1-.3.1-.6 0-1-.1-.2-.2-.3-.4-.2-.2 0-.3.2-.2.4v.2s0 .1-.1.1c-.1.2 0 .3 0 .5-.2.4-.6.7-1 .7s-.4.6 0 .6h.8v.1c-.2.4-.2.8.1 1.1.2.2.6.1.6-.2v-.7s0-.1.1-.1c.2.3.5.6.9.7.2.1.5-.1.4-.3zM72.9 33.1c.3 0 .5-.2.7-.4.1-.1 0-.4-.1-.4-.3-.1-.6-.1-.8.1 0-.1-.1-.2 0-.3.1-.2 0-.4-.2-.5v-.2c0-.2-.1-.3-.3-.3-.2 0-.3.1-.3.3.1.7-.7 1.3-1.3 1.1-.3-.1-.6.4-.3.6h.1c.4.2.8.3 1.2.3v.2c-.3.4-.3 1-.1 1.4.1.2.6.2.6-.1.1-.4.1-.7.2-1.1l.2-.2h.2c.2.3.6.6.9.7.2.1.6-.1.5-.4-.4-.3-.8-.7-1.2-.8zM131.1 19.9c-.2 0-.4 0-.5-.1-.1-.1-.2-.1-.2-.2-.1-.2-.2-.4-.1-.6.1-.1 0-.3-.1-.4v-.3c0-.4-.6-.4-.6 0s-.3.7-.6.9c-.4.2-.8.2-1.1-.1-.1-.1-.3 0-.4.1-.1.1-.1.3 0 .4.2.3.6.4.9.4v.4c-.2.3-.3.7-.2 1 0 .3.5.5.6.2.1-.3.2-.7.3-1l1 1c.3.3.8-.2.5-.5-.3-.3-.5-.6-.6-.9.2 0 .3 0 .5.1s.5.1.7.1c.2.1.2-.5-.1-.5zM136.5 26c-.3-.1-.6-.1-.9-.1-.2-.2-.4-.4-.4-.7.1-.1.2-.2.2-.4.2-.4-.4-.7-.6-.3-.1 0-.1.1-.2.2 0 .1 0 .1-.1.2-.4.4-.9.7-1.5.6-.2 0-.3-.1-.5-.1-.4-.1-.6.5-.2.6.2.1.4.1.6.1.2 0 .3.1.4.2.2.2.3.4.2.7-.2.4.3.7.6.3.1-.1.1-.2.2-.3.1.4.2.8.5 1.1.2.2.6.1.6-.2 0-.4-.2-.8-.4-1.1v-.1h.3c.3.2.7.2 1 .1.5-.2.5-.7.2-.8zM124.1 16.2c-.4-.1-.8-.1-1.1 0v-.1c.4 0 .4-.6 0-.6.1-.2.3-.3.4-.5.1-.2 0-.3-.1-.4-.1-.1-.4 0-.4.1-.3.6-.8.9-1.4.9-.2 0-.3.2-.3.3 0 .2.1.3.3.3h.1s.1 0 .1.1c.1.1.1.2.2.3v.3c-.1.2-.2.3-.3.5 0 .1 0 .3.1.4.1.1.3 0 .4-.1.2-.1.3-.3.3-.5.2.2.4.5.6.8 0 0 0 .1.1.1.2.3.7.1.6-.3v-.1l-.3-.6c.2 0 .5-.1.7-.2.1-.1.2-.2.2-.3 0-.2-.1-.4-.2-.4z" />
	</g>
	<g>
		<path class="stats_silver_3"
			d="M109.7 123.6c.9 2.8 1.9 5.6 2.8 8.4.4 1.2.7 2.7 1.5 3.7.9 1 2.5 1.1 3.5.2.9-.8 1.2-2.1 1.5-3.2.4-1.3.6-2.7.8-4.1.4-2.8.3-5.6-.1-8.4-.1-.8-1.1-1.2-1.8-1-.9.2-1.2 1-1 1.8.3 2.1.4 4.3.2 6.4-.1 1.1-.3 2.1-.5 3.2-.2.9-.4 1.9-.8 2.7l-.2.3s1-.2.7.1l-.3-.9c-.4-1.1-.7-2.2-1.1-3.3-.8-2.3-1.5-4.5-2.3-6.8-.3-.8-1-1.3-1.8-1-.8.3-1.4 1.2-1.1 1.9zM95.4 124.4c.1 1.8.2 3.7.3 5.5.1 1.6.3 3.3 1.3 4.6 1.1 1.6 3.4 2.5 5 1.1.6-.5 1-1.3 1.2-2.1.3-.8.6-1.7.8-2.6.6-2 1-4 1.4-6 .1-.8-.2-1.6-1-1.8-.7-.2-1.7.2-1.8 1-.3 2-.8 3.9-1.3 5.8l-.9 2.7c0 .1-.2.5-.1.3-.1.1-.1.3-.2.4.1-.1.1-.1 0 0 0-.1.1-.1.2-.1-.2 0-.2 0 0 0-.2 0-.2 0 0 0-.2-.1-.2-.1-.1 0-.1 0-.2-.1-.3-.1-.1-.1-.2-.1-.1 0l-.2-.2c-.2-.2 0 .1-.1-.2-.1-.2-.2-.3-.3-.5.1.2-.1-.3-.1-.4-.1-.2-.1-.4-.1-.6 0-.2-.1-.3-.1-.5v-.4c-.2-2-.3-4-.4-6 0-.8-.7-1.5-1.5-1.5-.8.1-1.6.8-1.6 1.6z" />
		<path class="stats_silver_3"
			d="M57.1 75.7c2.9-7.2 6.1-14.4 10.1-21.1 4-6.6 8.9-12.7 15.4-17 7.1-4.6 15.5-6.9 23.8-7.2 4.6-.2 9.3.1 13.8 1.5 3.7 1.2 7.1 3.2 10 5.7 7.3 6.4 11.2 15.4 13.3 24.7.8-.5 1.7-1 2.5-1.5-3-3.7-7-6.4-11.5-8-1-.4-2.3.8-1.8 1.8 3.9 10.1 4 21 2.6 31.6-1.3 9.5-2.9 20.6-10.5 27.3-3.5 3.1-7.9 5-12.3 6.3-5 1.5-10.5 2.8-15.7 2-10.3-1.6-16.7-11.1-20.1-20.2-4.4-11.6-5.8-24.2-4.2-36.5.2-1.2-1.4-1.8-2.3-1.3-5.4 3.1-10.6 6.8-15.4 10.8-1.5 1.2.7 3.4 2.1 2.1 4.6-3.9 9.6-7.3 14.8-10.3-.8-.4-1.5-.9-2.3-1.3-1.5 11.7-.4 23.8 3.4 35 3.4 9.9 9.1 20 19.6 23.7 5.4 1.9 11.2 1.2 16.7-.1 4.9-1.1 9.8-2.7 14.1-5.4 4.4-2.8 7.8-6.7 9.9-11.4 2.2-4.8 3.3-10 4.2-15.2 2.2-12.6 2.8-25.8-1.8-37.9l-1.8 1.8c4 1.4 7.5 3.9 10.2 7.2 1 1.2 2.8-.1 2.5-1.5-2-8.8-5.6-17.4-11.9-24-2.9-3-6.2-5.5-10-7.2-4.3-2-8.9-2.8-13.5-2.9-9.1-.3-18.3 1.4-26.4 5.6C77.1 37 71.3 43.1 66.7 50c-5.2 7.7-9 16.4-12.4 25-.8 1.7 2.1 2.5 2.8.7z" />
		<path class="stats_silver_3"
			d="M71.1 95.2c1 4.6-.8 10-2.9 14-2.6 5-6.8 9-9.2 14.1-2.5 5.2-3.2 11.1-2.3 16.8.8 4.9 3.2 11.3 8.4 13 2.8.9 5.7-.1 7.3-2.6 1.4-2.2 1.5-5.1 1.4-7.6-.8.4-1.5.9-2.3 1.3 1.6 1.2 3.5 2 5.4 2.4 1.3.2 2.3-1 1.7-2.2-2.8-5.4-3.4-11.9-1.6-17.7.8-2.6 2.1-5 3.1-7.5 1-2.7 1.4-5.4.9-8.2-.3-1.9-3.2-1.1-2.9.8.5 2.8-.4 5.4-1.5 7.9-1.2 2.7-2.5 5.3-3.1 8.2-1.3 6.1-.4 12.5 2.4 18 .6-.7 1.1-1.5 1.7-2.2-1.8-.3-3.3-1-4.7-2.1-.9-.7-2.3.3-2.3 1.3 0 1.9.1 4.1-.9 5.8-1.2 2.2-3.9 2.1-5.6.6-1.9-1.5-3-4-3.7-6.2-.8-2.4-1.3-4.9-1.3-7.5-.1-5.3 1.6-10.3 4.5-14.7 2.7-4.1 6-7.7 7.9-12.2 1.9-4.4 3.3-9.6 2.3-14.4-.2-1.8-3.1-1-2.7.9zM67.4 50.1c-1.9-1.4-3.8-2.9-5.4-4.6-.5-.5-.5-.9 0-1.5.6-.7 1.5-1.1 2.3-1.5 4-1.8 8.5-2.3 12.8-1.6.8.1 1.6-.2 1.8-1 .2-.7-.2-1.7-1-1.8-5.4-.9-11.6-.3-16.4 2.6-2.1 1.3-4 3.8-2.4 6.2.8 1.2 2 2.1 3.1 3 1.2 1 2.4 2 3.7 2.9.6.5 1.7.1 2.1-.5.3-.9 0-1.7-.6-2.2zM130.1 34.7c4.2-.9 8.7-.3 12.5 1.7.9.5 1.8 1 2.5 1.6.6.6.4 1-.2 1.5-1.7 1.4-4.3 1.9-6.4 1.9-1.9 0-1.9 3 0 3 2.9 0 6.4-.8 8.6-2.9 1.1-1 1.7-2.4 1.3-3.8-.4-1.3-1.5-2.2-2.6-3-4.8-3.2-10.9-4.2-16.5-3-1.9.5-1.1 3.4.8 3z" />
	</g>
</svg>