<svg xmlns="http://www.w3.org/2000/svg" viewBox="0 0 200 200">
	<style>
		.prefix__st0 {
			fill: #fd1015
		}

		.prefix__st1 {
			fill: #e7f4df
		}

		.prefix__st2 {
			fill: #fff
		}

		.prefix__st3 {
			fill: #10101a
		}

		.prefix__st6 {
			fill: none;
			stroke: #10101a;
			stroke-width: 2;
			stroke-miterlimit: 10
		}
	</style>
	<path class="prefix__st0"
		d="M50.3 131.1c-3.4-.7-5.8-2.6-8-5.3-2.2-2.7-4-5.7-6.7-8-2.6-2.3-5.9-3.7-9.4-4.1-1.8-.2-3.7-.1-5.5.6-3.3 1.4-5.5 5.1-5.4 8.7 0 3.6 2 7.1 4.7 9.4 2.8 2.3 4.5 3.3 8.7 4.6-1.3.7-2.4 3.8-2.3 4.1.2.6 1.6-.2 2.2-.3 3.9-.6 7.8 1.3 11.5 2.6 3.8 1.3 7.1.6 10.9-.5" />
	<path class="prefix__st1"
		d="M50.7 129.6c-5-1-7.5-5.2-10.4-9-3.2-4.1-7.2-7.3-12.4-8.3-4.9-.9-9.8.3-12.5 4.8-2.4 4.1-1.9 9.2.8 13.1 2.9 4.2 7.5 6.7 12.2 8.2-.1-.9-.2-1.8-.4-2.7-1.5.9-3.1 3.4-3.1 5.3 0 1.3 1.2 1.9 2.4 1.7.5-.1 1-.3 1.5-.5.8-.2 1.6-.1 2.4 0 3.5.3 6.5 2.2 9.9 3 3.5.8 7 .1 10.3-.9 1.9-.5 1.1-3.4-.8-2.9-2.1.6-4.3 1.2-6.6 1.1-2.2 0-4.2-.9-6.3-1.6-2-.7-4-1.4-6.2-1.7-1-.1-2-.1-3 0-.4.1-.7.1-1.1.3-.2.1-.4.1-.5.2-.3.1-.3.1 0 0 .3.2.6.5.9.7.2.3-.1 1.1.2.4.1-.3.2-.6.4-.9.3-.6.6-1.3 1.2-1.6 1.1-.7.9-2.3-.4-2.7-3.5-1.2-6.9-2.8-9.4-5.6-2.8-3-3.9-7.6-1.7-11.3 2.4-4.1 7.2-4.2 11.3-2.8 4.5 1.5 7.3 4.9 10 8.5 2.8 3.7 5.8 7.2 10.6 8.2 1.8.3 2.6-2.6.7-3z" />
	<path class="prefix__st1"
		d="M21.7 114.3c-1 3.4-1.5 6.9-1.4 10.5.1 1.7.3 3.4.6 5.1.2.9.3 1.8.6 2.6.2.4.4.7.8.6.5 0 .5-.8 0-.8-.4 0-.9-4.2-1-4.6-.2-1.5-.3-2.9-.3-4.4 0-3 .5-6 1.4-8.9.2-.4-.6-.6-.7-.1zM25.7 113.6c-.7 1.1-.6 2.8-.7 4-.1 2.3.1 4.7.3 7 .2 2.4.5 4.8 1 7.1.2.9.4 1.8.7 2.7.2.5.4 1.5 1 1.7.2.1.3 0 .4-.2.1-.1.1-.3.1-.4 0-.2-.2-.3-.4-.3H28c-.5 0-.5.8 0 .8h.1c-.1-.1-.2-.2-.4-.3v-.1c.1-.1.3-.1.4-.2-.3-.1-.6-1.6-.7-1.9-.3-.9-.5-1.8-.6-2.7-.4-2.2-.7-4.5-.9-6.7-.2-2.1-.3-4.2-.2-6.3 0-1.2-.1-2.8.6-3.8.3-.4-.4-.8-.6-.4z" />
	<path class="prefix__st1"
		d="M23.8 114.2c-1 1.3-.9 3.1-1 4.6-.1 1.9-.1 3.9 0 5.8.1 1.8.3 3.7.7 5.5.2 1 .4 1.9.7 2.9.2.5.2 1.4.7 1.8.1.1.3.1.5.1 0 0 .1 0 .1-.1.1 0 .2-.2.2-.3v-.1c0-.5-.8-.5-.8 0 0-.1.1-.1.1-.2.2 0 .3 0 .5.1-.4-.4-.7-2-.8-2.6-.2-.7-.3-1.5-.5-2.2-.3-1.7-.5-3.5-.6-5.3-.1-1.6-.1-3.2 0-4.9.1-1.6 0-3.5.9-4.8.3-.3-.4-.7-.7-.3zM27.3 113.7c-.8 6.1.2 12.5 1.2 18.6.1.7.2 1.4.4 2.2.1.6.4 1.4.5 1.9 0 .3 0 .7.1 1.1.1.6.4 2.7 1.1 2.9.5.1.7-.6.2-.7.3.1.1 0 0-.4-.1-.3-.2-.5-.2-.8-.2-.6-.3-1.1-.4-1.7-.1-.3-.1.2-.1.1 0 0 .1-.1.1-.2-.1-.4-.2-.9-.2-1.4-.3-1.4-.5-2.9-.8-4.3-.9-5.6-1.7-11.5-1-17.2-.1-.6-.8-.5-.9-.1z" />
	<path class="prefix__st1"
		d="M29.1 115.5c-.6 4.3.4 8.6 1.2 12.8.8 4.5 1.6 8.9 3.3 13.2.1.3.6.4.7 0 0-.1.1-.3.1-.4.1-.5-.6-.7-.7-.2 0 .1-.1.3-.1.4h.7c-1.6-4.1-2.5-8.4-3.2-12.7-.7-4.3-1.8-8.7-1.2-13 0-.5-.7-.5-.8-.1zM31 115.7c.2 5 .8 9.9 1.8 14.8.5 2.4.9 4.7 1.6 7 .3 1 .6 2 1 3 .2.6.4 1.4 1 1.6.2.1.3 0 .4-.2.1-.2.1-.3 0-.5s-.3-.2-.4-.2h-.1c-.5.1-.3.8.2.7h.1c-.1-.1-.3-.1-.4-.2v-.2c.1-.1.3-.1.4-.2-.2-.1-.7-1.5-.7-1.5-.2-.4-.3-.8-.4-1.2l-.9-3c-.5-2.1-1-4.2-1.3-6.3-.8-4.5-1.3-9.1-1.6-13.6 0-.5-.7-.5-.7 0zM33.5 116.8c.1 8.9 2.6 17.6 5.1 26.1.1.3.5.4.7.1.1-.2.2-.3.2-.5.2-.4-.4-.8-.6-.4-.1.2-.2.3-.2.5.2 0 .5.1.7.1-2.5-8.5-4.9-17-5-25.9-.2-.5-.9-.5-.9 0z" />
	<path class="prefix__st1"
		d="M35.5 119.2c.1 4.3 1.2 8.5 2.3 12.7.6 2.1 1.2 4.1 1.7 6.2.5 1.9 1 3.8 2 5.5.2.3.6.2.7-.1.1-.2.1-.3.2-.5.2-.5-.6-.6-.7-.2-.1.2-.1.3-.2.5.2 0 .5-.1.7-.1-1.1-1.8-1.5-3.8-2-5.8-.5-1.9-1.1-3.9-1.6-5.8-1.1-4.1-2.1-8.2-2.3-12.5-.1-.4-.8-.4-.8.1z" />
	<path class="prefix__st1"
		d="M38 121.8c.4 4 .9 8.1 1.7 12.1.4 2 .9 3.9 1.6 5.8.3 1 .7 1.9 1.1 2.9.2.5.3 1 .8 1.2.2.1.3 0 .4-.2.1-.2.1-.3.1-.5-.1-.2-.2-.3-.5-.3h-.1c-.5.1-.3.8.2.7h.1c-.2-.1-.3-.2-.5-.3v-.1c.1-.1.3-.1.4-.2-.2-.1-.5-1.2-.6-1.4-.1-.4-.3-.7-.4-1.1-.3-.9-.6-1.7-.9-2.6-.5-1.7-.9-3.4-1.3-5.1-.7-3.7-1.1-7.4-1.5-11.1.1-.2-.6-.3-.6.2z" />
	<path class="prefix__st1"
		d="M40.5 125c.3 3.6.6 7.3 1.4 10.8.3 1.6.8 3.2 1.5 4.6.4.8.8 1.5 1.2 2.2.3.4.5.9 1 1 .2 0 .3-.1.4-.3.1-.2 0-.3-.1-.5-.1-.1-.3-.1-.5-.1-.4.2 0 .9.4.6-.2 0-.3 0-.5-.1v.1c0-.1-.1-.2-.1-.4v.1c.1-.1.2-.2.4-.3.2.1.1-.1-.2-.4-.1-.2-.2-.3-.3-.5-.2-.3-.4-.7-.6-1-.4-.7-.7-1.4-.9-2.1-.5-1.4-.9-2.8-1.1-4.2-.6-3.2-.9-6.5-1.2-9.7-.1-.3-.8-.3-.8.2z" />
	<path class="prefix__st1"
		d="M42.4 127.3c.6 3 .6 6 1.3 8.9.7 2.6 1.8 5.1 3.3 7.3.3.4.9 0 .6-.4-1.5-2.3-2.6-4.8-3.2-7.4-.7-2.8-.7-5.8-1.3-8.6 0-.5-.8-.3-.7.2z" />
	<path class="prefix__st1"
		d="M44 128.6c.3 2.5.6 5 1 7.4.4 2.3 1.3 4.4 2.5 6.4.3.4.9 0 .6-.4-1.2-1.9-2.1-4-2.5-6.2-.4-2.4-.7-4.8-1-7.2.1-.5-.7-.5-.6 0z" />
	<path class="prefix__st1"
		d="M46.7 130.7c0 2.6 0 5.2.4 7.8.2 1.3.5 2.5.9 3.7.1.3.3.9.7 1 .3.1.6-.2.6-.5 0-.5-.8-.5-.8 0 .3-.1.4-.3.2-.6-.1-.1-.1-.3-.2-.4-.1-.2-.1-.4-.2-.6-.1-.5-.3-1-.4-1.5-.2-1-.3-2-.4-2.9-.2-2-.2-4-.1-6 0-.5-.7-.5-.7 0z" />
	<path class="prefix__st1"
		d="M48.8 131.4c0 2.1-.2 4.2-.2 6.2 0 1 0 2 .2 3 .1.5.2.9.3 1.4.1.3.1.8.4.9.1.1.3.1.5-.1.1-.1.2-.3.1-.4 0-.2-.2-.3-.4-.3-.5 0-.5.7 0 .8-.1-.1-.2-.2-.4-.3v.1c0-.1.1-.2.1-.4.2 0 .3 0 .5-.1 0 0-.1-.5-.1-.6-.1-.2-.1-.5-.1-.7-.1-.4-.1-.9-.2-1.3-.1-.9-.1-1.9-.1-2.8 0-1.8.2-3.7.2-5.5 0-.4-.8-.4-.8.1zM19.9 115c-1.7 4.9-2.4 10.1-1.8 15.3 0 .3.2.4.5.4.2 0 .5-.1.7-.1.5-.1.3-.8-.2-.7-.2 0-.5.1-.7.1.2.1.3.2.5.4-.5-5.1.1-10.2 1.8-15.1.1-.6-.6-.8-.8-.3z" />
	<path class="prefix__st0"
		d="M142.3 96c0-1.1-.5-2.3-1.4-3.1-.9-.8-2.2-.9-3.4-.8-1.8 0-3.5.2-5.3.3v-.2c-1.2-3.9-3.1-7.5-4.9-11.1.4-2.7.8-5.5 1-8.2.2-3.1.6-6.9-1.2-9.6-.7-1.1-1.9-2-3.2-2.3-1.7-.4-3.4.3-4.8 1.1-2.9 1.7-5.7 3.8-8.3 5.9-13.8-5.5-29.7-5.3-43.4.7-1.3-1-2.6-1.8-4-2.6S60.5 64.6 59 64c-1.6-.7-3.5-1.2-5.2-.5-1.1.5-2 1.4-2.3 2.6-.1.6-.1 1.2-.2 1.8-.1 2.3-.2 4.7-.1 7 0 1.8.1 3.6.4 5.4-.1.1-.2.2-.2.3-2.7 4.9-6 9.7-7.5 15.1-.2.1-1.2 0-1.4 0-.6 0-1.3 0-1.9.1-1.3.1-2.7.5-3.9 1-2.4.9-4.6 2.6-4.2 5.5.3 2.5 2.1 4.7 3.6 6.6 1.7 2.1 3.5 4.1 4.7 6.5.1.3.3.5.5.6 0 12.5 1.3 26 9.9 35.8-.1.2-.1.5-.2.7-.3 1.4-.7 2.8-.9 4.2-.1 1.5-.2 3.2.1 4.6.3 1.5 1.5 2.2 2.9 2.4 3 .4 5.8-1 8.2-2.7.8-.5 1.5-1.1 2.2-1.7 14.5 4.8 32.1 7 46-.5.1 0 .2-.1.4-.2.7-.5 1.8-.3 2.6-.1 1.1.2 2.1.8 3.1 1.3 2.4 1.3 5.5 3.1 8.2 1.7 2.5-1.3 3.1-4.6 2.7-7.2-.1-.9-.3-1.7-.5-2.6 1.8-2.5 3.8-4.7 5.4-7.3 1.7-2.9 3-6.3 4.2-9.5 1.9-5.5 3-11.3 2.3-17.1-.3-3.1-1.1-6.2-2.2-9.1 1.4-1.8 2.8-3.6 3.9-5.5 1.3-2.2 2.8-4.7 2.7-7.2z" />
	<path class="prefix__st1"
		d="M63.2 159.3c14.6 4.9 32.6 7.1 46.7-.6 1.7-.9.2-3.5-1.5-2.6-13.4 7.3-30.5 4.9-44.4.3-1.8-.6-2.6 2.3-.8 2.9z" />
	<path class="prefix__st1"
		d="M51.2 148.3c.2.4.1 1.3 0 1.7-.1.7-.2 1.4-.4 2.1-.4 1.5-.8 3-.9 4.6-.1 1.4-.2 3.2.1 4.6.4 1.5 1.7 2.2 3.1 2.4 3 .4 5.8-1 8.2-2.6 2.5-1.8 4.9-3.8 7-6.1 1.3-1.4-.8-3.5-2.1-2.1-1.8 1.9-3.8 3.7-5.9 5.3-1.9 1.4-4.3 2.9-6.7 2.6-.2 0-.4 0-.6-.1 0 0 0 .2-.1-.2 0-.6-.1-1.2-.1-1.9 0-1.3.1-2.6.4-3.9.3-1.3.7-2.6.9-4 .2-1.2.4-2.9-.4-4-1-1.5-3.6 0-2.5 1.6zM109.9 158.8c.5-.4 1.5-.4 2.3-.2 1.2.2 1.9.6 2.9 1.2 2.4 1.3 5.4 3.2 8.3 2.1 3-1.1 3.7-4.6 3.3-7.5-.4-3.1-1.6-6.2-2.5-9.2-.6-1.8-3.5-1.1-2.9.8.4 1.5.9 2.9 1.3 4.4.4 1.3.9 2.7 1.1 4.1.3 1.9 0 5-2.6 4.6-2.5-.4-4.5-2.3-6.9-3.1-1.7-.6-4.4-1-6 .2-.6.5-1 1.3-.5 2.1.5.6 1.6.9 2.2.5z" />
	<path class="prefix__st1"
		d="M126 152.1c2.4-3.5 5.2-6.5 7-10.4 1.8-3.8 3.4-7.8 4.3-11.9 1.7-7.4 1-14.7-1.6-21.8-.7-1.8-3.6-1-2.9.8 2.5 6.7 3.2 13.6 1.5 20.6-1 3.9-2.5 7.6-4.2 11.2-1.7 3.7-4.5 6.6-6.8 9.9-1 1.6 1.6 3.1 2.7 1.6z" />
	<path class="prefix__st1"
		d="M135.4 109.5c1.6-2 3.2-4 4.5-6.3.6-1.1 1.2-2.2 1.7-3.4.5-1.2 1-2.6.9-4-.1-1.3-.6-2.5-1.7-3.2-1.1-.7-2.3-.8-3.6-.7-2.8.1-5.7.4-8.5.7-.8.1-1.2 1.1-1 1.8.2.9 1 1.2 1.8 1 2.3-.3 4.5-.5 6.8-.6.8 0 2-.3 2.7.1.6.3.6 1.2.4 1.8-.4 2-1.5 3.8-2.5 5.5-1.1 1.7-2.4 3.4-3.6 5-.5.6-.6 1.5 0 2.1.5.7 1.6.8 2.1.2zM53.3 149.9c-8.7-9.9-9.4-23.8-9.3-36.3 0-1.9-3-1.9-3 0 0 13.4.9 27.9 10.2 38.4 1.3 1.5 3.4-.7 2.1-2.1z" />
	<path class="prefix__st1"
		d="M43.2 113.9c-1.1-2.1-2.6-4-4.1-5.9-1.4-1.7-3.2-3.6-3.8-5.8-.6-2.4 2.5-3.2 4.2-3.6 1.1-.3 2.3-.3 3.4-.3s2.2-.1 3-.9c1.4-1.4-.8-3.5-2.1-2.1-.2.2-1 0-1.2 0-.6 0-1.3 0-1.9.1-1.4.1-2.7.4-4 .9-2.5 1-4.8 2.7-4.5 5.7.3 2.7 2.2 4.9 3.8 6.9 1.7 2.1 3.4 4.1 4.6 6.5.9 1.8 3.5.3 2.6-1.5z" />
	<path class="prefix__st1"
		d="M45.9 99.7c.6-6.7 4.9-12.2 8-17.9.9-1.7-1.7-3.2-2.6-1.5-3.4 6.3-7.7 12.1-8.4 19.4-.1.8.7 1.5 1.5 1.5.9 0 1.4-.7 1.5-1.5zM132.4 92.2c-1.2-4.1-3.3-7.9-5.1-11.7-.4-.7-1.4-.9-2.1-.5-.7.4-.9 1.3-.5 2.1 1.8 3.6 3.7 7.1 4.8 11 .2.8 1.1 1.3 1.8 1 .8-.2 1.3-1.1 1.1-1.9zM68.5 71.1c13.1-5.7 28.2-5.8 41.4-.5 1.8.7 2.6-2.2.8-2.9-14-5.6-30-5.2-43.7.8-1.7.8-.2 3.4 1.5 2.6z" />
	<path class="prefix__st1"
		d="M55 82c-.6-1.9-.8-3.9-.9-5.8-.1-2.2-.1-4.4 0-6.6 0-.8.1-1.6.1-2.4 0-.2 0-.5.1-.7 0-.2.1-.3 0-.1-.2.4 0 0 0 0 .1 0 .2-.2.3-.3.2-.1.5-.2.7-.3.8-.1 1.6.2 2.3.5 1.4.5 2.7 1.2 4 1.9 2.8 1.5 5.3 3.4 7.7 5.6 1.4 1.3 3.5-.8 2.1-2.1-2.4-2.2-4.9-4.3-7.8-5.8-1.5-.8-3-1.5-4.6-2.2-1.7-.7-3.5-1.2-5.2-.5-1.1.5-2.1 1.4-2.4 2.6-.1.7-.2 1.4-.2 2.1-.2 2.2-.2 4.5-.2 6.8.1 2.7.2 5.5 1.1 8.1.6 1.8 3.5 1 2.9-.8zM127.4 81.7c.4-2.9.9-5.8 1.1-8.8.2-3.1.6-7-1.2-9.7-.8-1.2-2-2.2-3.5-2.5-1.8-.3-3.5.3-5 1.2-3.1 1.8-6.1 4.1-8.9 6.3-1 .8-.2 2.6 1.1 2.6.7 0 1.2-.2 1.7-.7 1.4-1.4-.8-3.5-2.1-2.1h-.1c.3-.1.5-.1.8-.2h-.2c.4.9.7 1.7 1.1 2.6 2.3-1.9 4.7-3.6 7.2-5.2 1.1-.7 2.5-1.7 3.9-1.5 1 .2 1.7 1.1 2 2 .5 1.3.4 2.7.4 4.1 0 1.3-.1 2.6-.1 3.9-.2 2.4-.6 4.8-.9 7.3-.1.8.2 1.6 1 1.8.6.1 1.6-.3 1.7-1.1z" />
	<path class="prefix__st1"
		d="M110.5 70.6c.8 1.4 1.3 3.1 2.8 3.9 2.1 1.1 4.7-.2 5.9-2 .6-1 1.3-2 2-3 .3-.5.7-.9 1.1-1.3.2-.3.7-.8 1.1-.7.9.1.4 2.3.4 2.9v4.1c0 1.5.1 3 .3 4.5.2 1.1.5 2.3 1.4 3 .7.6 1.8-.4 1.1-1.1-.7-.6-.9-1.7-1-2.6-.2-1.3-.2-2.7-.2-4 0-1.3-.1-2.7 0-4 .1-1 .3-2.3-.2-3.2-.5-.9-1.7-1.2-2.6-.7-1 .5-1.7 1.5-2.4 2.4-.7.9-1.3 1.8-1.9 2.8-.7 1.1-1.7 1.9-3.1 2-1.9.1-2.5-2.2-3.2-3.5-.7-1.1-2-.4-1.5.5zM70.1 72.7c-.8.5-1.3 1.2-2 1.7-.9.7-1.9 0-2.8-.5-2-1.3-3.9-2.9-5.9-4.2-1.2-.8-3.2-1.8-4.3-.2-.9 1.3-.5 3.3-.6 4.8-.2 2.7-.9 5.3-1 8-.1 1 1.4 1 1.5 0 .2-2.8.9-5.6 1.1-8.5.1-1-.1-2 .1-3 .2-1.2 1.2-.6 2-.2 2.4 1.4 4.5 3.5 6.9 4.9 1 .5 2.2 1 3.2.5s1.6-1.4 2.5-2c.8-.5.1-1.8-.7-1.3z" />
	<path class="prefix__st1"
		d="M56.6 68.6c-.9-1.1-1.5-2.4-1.8-3.8 0-.2-.3-.3-.5-.3-.2.1-.3.3-.3.5.3 1.5 1 2.9 1.9 4.1.1.2.4.1.5 0 .4-.1.4-.3.2-.5zM58.3 69.6c-.5-1.6-1-3.2-1.5-4.7-.1-.5-.9-.3-.7.2.5 1.6 1 3.2 1.5 4.7.1.4.9.2.7-.2zM60 70.2c-.4-1.3-.7-2.7-.7-4.1 0-.5-.8-.5-.8 0 0 1.5.2 2.9.7 4.3.2.5.9.3.8-.2zM61.6 71.7c-.4-1.6-.6-3.3-.7-5 0-.5-.8-.5-.8 0 .1 1.7.4 3.5.8 5.2.1.5.8.3.7-.2zM63.2 72.9c-.4-1.5-.5-3.2-.3-4.7 0-.2-.2-.4-.4-.4s-.3.2-.4.4c-.2 1.7-.1 3.3.3 4.9.2.5.9.3.8-.2zM64.6 73.9c-.4-1.4-.4-2.9-.1-4.3.1-.5-.6-.7-.7-.2-.3 1.6-.3 3.2.1 4.7.1.4.8.2.7-.2zM66 74.9c-.1-1.4 0-2.7.3-4.1.1-.5-.6-.7-.7-.2-.4 1.4-.5 2.8-.3 4.3 0 .2.2.4.4.4.1 0 .3-.2.3-.4zM67 75c0-1.3.2-2.7.7-3.9.1-.2-.1-.4-.3-.5-.2-.1-.4.1-.5.3-.5 1.3-.7 2.7-.7 4.1.1.4.8.4.8 0zM55.6 70.2c-1-1-2-2.1-3-3.1-.3-.3-.9.2-.5.5 1 1 2 2.1 3 3.1.3.4.8-.1.5-.5zM55.4 72.5c-.8-.6-1.5-1.3-2.2-2.1-.1-.2-.4-.1-.5 0-.1.2-.1.4 0 .5.6.8 1.4 1.5 2.2 2.1.2.1.4.2.5 0 .1-.1.1-.4 0-.5zM55.5 75c-.7-.7-1.4-1.4-2.2-2.1-.1-.1-.4-.2-.5 0-.1.1-.2.4 0 .5.7.7 1.4 1.4 2.2 2.1.1.1.4.2.5 0 .2-.2.2-.4 0-.5zM55 76.7c-1.1-.8-2.2-1.6-3.2-2.5-.4-.3-.9.2-.5.5 1 1 2.2 1.9 3.3 2.6.2.1.4 0 .5-.1.2-.1.1-.4-.1-.5zM123.9 67c.4-1.7.6-3.4.6-5.2 0-.5-.8-.5-.8 0 0 1.7-.2 3.3-.6 5 0 .5.7.7.8.2zM122.9 67.3l-.3-4.5c0-.5-.8-.5-.8 0l.3 4.5c.1.5.8.5.8 0zM121.7 68c0-1.8-.3-3.5-.7-5.2-.1-.5-.8-.3-.7.2.4 1.6.7 3.3.7 5-.1.5.7.5.7 0zM120.5 69.3c-.2-1.7-.4-3.5-.8-5.2-.1-.5-.8-.3-.7.2.4 1.6.6 3.3.8 5 0 .2.2.4.4.4.1 0 .3-.2.3-.4zM119.6 71c-.4-2-.8-4-1.3-5.9-.1-.5-.8-.3-.7.2.5 2 .9 3.9 1.3 5.9 0 .4.8.2.7-.2zM118.7 72.4c-.6-2.2-1.1-4.3-1.7-6.5-.1-.5-.8-.3-.7.2.6 2.2 1.1 4.3 1.7 6.5.1.5.9.3.7-.2zM117.7 72.9c-.5-1.8-1-3.6-1.5-5.3-.1-.5-.9-.3-.7.2.5 1.8 1 3.6 1.5 5.3.1.5.9.3.7-.2zM116.2 73.4c-.7-1.6-1.2-3.3-1.7-5-.1-.5-.8-.3-.7.2.5 1.7 1 3.4 1.7 5 .1.2.2.3.5.3.1-.1.3-.3.2-.5zM114.2 72.7c-.7-.9-1-2-1-3.1 0-.2-.2-.4-.4-.4s-.4.2-.4.4c-.1 1.2.3 2.5 1.1 3.5.1.2.3.2.5.1s.3-.3.2-.5zM125 68.5l.9-2.1c.1-.2.1-.4-.1-.5-.2-.1-.4-.1-.5.1l-.9 2.1c-.1.2-.1.4.1.5.1.1.4.1.5-.1zM125 70.8l.3-.6c.1-.2.3-.4.4-.7.1-.2.3-.4.5-.5.2-.2.4-.4.6-.5.2-.1.1-.4 0-.5-.2-.2-.4-.1-.5 0-.9.7-1.6 1.6-2 2.7-.1.2.1.4.3.5.2-.1.3-.2.4-.4zM125.1 74.2c.2-1.1.8-2.1 1.7-2.8.2-.1.2-.3.1-.5s-.3-.3-.5-.1c-1.1.8-1.9 1.9-2.1 3.2 0 .2.1.4.3.5.2 0 .4-.1.5-.3zM125.3 76.7c.6-1.1 1.2-2.2 2-3.2.1-.2 0-.4-.1-.5-.2-.1-.4 0-.5.1-.8 1-1.4 2.1-2 3.2-.1.2 0 .4.1.5.1.1.4.1.5-.1zM68.2 74.7c.1-.9.4-1.8.7-2.6.1-.2-.1-.4-.3-.5-.2-.1-.4.1-.5.3-.3.9-.6 1.7-.7 2.6 0 .2.1.4.3.5.2 0 .5-.1.5-.3zM101.3 95c-.2-.2-.4-.3-.7-.3-.2.1-.4.3-.5.5-.1.3-.1.6 0 .8.1.2.4.3.6.3.6-.1.8-.6.8-1.1 0-.4-.1-1-.6-1 .1.2.1.5.2.7.2-.1.3-.2.5-.3.1 0 .1-.1.2-.1h.4v.1c0 .1.1.2.1.2v.3s-.1 0 0 0c0 0-.1 0 0 0h-.1s-.1 0-.1-.1l-.1-.1v-.1-.1c-.2 0-.5.1-.7.1.1.2.1.5.2.7.1.2.1.4.3.6.3.3 1 .3 1.1-.3 0-.2-.1-.5-.4-.5-.4 0-1.1.1-1.2.6-.1.3.1.5.3.7.2.1.4.1.7.1.4 0 .9-.2 1-.6.1-.4-.1-.9-.5-1.1-.2-.1-.4-.2-.7-.2-.5.2-.6.2-.8.2l-.1.1-.1.1c-.1.1 0 0 0 0 .1 0 .1 0 .2-.1.1 0 .1.1.2.1 0 0 0 .4.1.2 0 0 0-.1.1-.1V95c0-.2-.1-.3-.3-.4-.1-.1-.3-.1-.4-.1-.2 0-.3.1-.5.1.1.2.2.3.4.5 0-.2.1-.3.1-.5 0-.1.1-.2.2-.3h.4c.1 0 .2.1.3.2.1.1.4.1.5 0 .1-.1.2-.4 0-.5-.2-.2-.4-.3-.6-.4-.3-.1-.6 0-.8.1-.5.3-.6.8-.7 1.3 0 .3.1.4.4.5h.5s-.2-.2-.1-.2l-.1.2c0 .2 0 .3.1.5.1.1.4.2.5.1l.1-.1s-.1 0 0 0 .4.1.5.1c.1 0 .1 0 .1.1 0 0 .1.1 0 0v.1h-.1-.2H101.7s-.1 0 0 0c0 0-.1 0 0 0 0 .1.1 0 0 .2l-.1.1c.1 0 .1 0 .2-.1h.3c-.1-.2-.2-.3-.4-.5l.1-.1s.1 0 0 0c0-.1 0-.1-.1-.1-.1-.3-.1-.6-.2-.9 0-.2-.2-.3-.4-.3s-.3.2-.3.4c.1.5.4 1 1 1s1-.5 1-1-.3-1.1-.8-1.2c-.5-.1-1.1.2-1.5.5-.1.1-.2.3-.2.4 0 .2.2.3.4.3-.1 0-.1 0-.1-.1V95.7l.1-.2c-.1 0-.1 0-.2-.1.1.2.3.2.5.1.3 0 .4-.3.3-.5zM71.9 95.2c-.2.3-.3.8 0 1.1.3.4.8.5 1.2.2.2-.1.3-.3.4-.5.1-.2.2-.4.2-.6 0-.5-.5-.7-1-.8-.3 0-.6 0-.8.2-.2.2-.3.4-.2.7.1.3.5.4.7.1.2-.4.3-.9 0-1.3s-.9-.3-1.2 0l-.3.6c-.1.3-.1.5 0 .7.2.4.6.5 1 .5.5 0 .9-.3 1.1-.7.1-.1.1-.3 0-.4-.1-.1-.2-.2-.4-.1-.3.1-.6.3-.8.5-.1.2 0 .4.1.5.2.1.3.1.5 0 .3-.3.5-.7.5-1.1v-.6-.1c0 .1-.1.2-.1.2h.1c.1 0 .1 0 .2.1.1 0 .1.1.2.1 0 0 .1 0 .1.1 0 0 .1.1.1 0 0 0 .1 0 .1.1-.1-.1.1.1 0 0-.1.1-.2.3-.3.4 0 0-.1 0-.1.1.1 0-.1 0 0 0 0 0-.1 0 0 0-.1 0 0 0 0 0 0 .2 0 .3.1.5 0 0 0-.1 0 0-.1.1 0 0 0 0h.2c-.1 0 0 0 0 0s.1 0 0 0h.1s0 .1 0 0c0 0 0 .1 0 0v.1c0 .1 0 0 0 0v.1s0-.1 0 0v.1s-.1.1 0 0h-.1-.1-.1c-.1 0-.1-.1-.2-.2-.1-.2-.3-.2-.5-.1s-.2.3-.1.5c.2.4.7.7 1.2.6.4-.1.8-.4.8-.9.1-.5-.2-.9-.6-1.1-.4-.1-.9 0-1.1.4-.1.2-.1.3.1.5.4.4.9.2 1.3-.1.4-.3.7-.8.5-1.3-.2-.4-.7-.6-1-.7-.3-.1-.5-.1-.8.1-.1.1-.2.2-.2.3V94.8c0 .1 0-.1 0 0v.1c0 .1 0 .1-.1.2v.1c0 .1 0 0 0 0l-.1.1c.2.2.4.3.6.5.1-.1.2-.2.4-.2-.1-.2-.3-.4-.4-.6 0 .1-.1.2-.2.2h-.1-.1-.1-.1-.1-.1s-.1 0 0 0c0 0-.1-.1-.1 0 0 0 0-.1 0 0v-.1c0-.1.1-.3.1-.3s0-.1.1-.1c0 0 .1 0 0 0h-.1s.1 0 0 0c0 0 0 .1 0 0 0 .1-.1.3-.1.4.2 0 .5.1.7.1v.1s0-.1 0 0h.1c.1 0 .2 0 .4.1h.1c0-.1 0 0 0 0v.1c0 .1 0 .1-.1.1-.1.1-.1.2-.2.2 0 0-.1 0 0 0 0 0-.1 0 0 0v-.1-.1-.1-.1c0-.1 0 0 0 0 .1-.2 0-.4-.1-.5-.8 0-1.1.1-1.2.3z" />
	<path class="prefix__st1"
		d="M72.1 94.7v-.1-.1.1c0-.1.1-.1.1-.2 0 0 0 .1-.1.1 0-.1.1-.1.1-.1s-.1 0-.1.1c.1 0 .1-.1.2-.1h-.1c.1 0 .1 0 .2-.1h-.1.1c.1 0 .1 0 .2.1h-.1c.2.1.4.1.5-.1.1-.2.1-.4-.1-.5-.4-.2-.8-.2-1.2 0-.3.2-.5.6-.5 1 0 .2.2.4.4.4.3-.1.5-.3.5-.5z" />
	<path class="prefix__st1"
		d="M71.5 95.2c-.2.3-.2.7 0 1.1.1.2.3.3.5.4.2.1.4.1.7 0 .2 0 .4-.1.6-.3.2-.1.2-.3.1-.5s-.3-.2-.5-.1c-.1.1-.2.1-.3.1h.1c-.1 0-.2.1-.3.1h.1-.2.1-.2.1s-.1 0-.1-.1c-.1 0 .1.1 0 0 0 0 0-.1 0 0v-.1-.1-.1.1s0-.1.1-.1c.1-.1.1-.2 0-.3 0-.1-.1-.2-.2-.2s-.2-.1-.3 0c-.1 0-.2 0-.3.1zM73.4 95c.1-.1.1-.2.2-.4v-.1-.1s0-.1-.1-.1l-.1-.1H73.1 73c-.1 0-.1.1-.1.1-.1.1-.1.2-.2.4v.2s0 .1.1.1l.1.1h.4l.1-.1zM101 94.9c.1-.1.3-.2.4-.2h.1c.1 0-.1 0 0 0s.1-.1.2-.1h.1c.1 0-.1 0 0 0h.2c.1 0-.1 0 0 0h.2s-.1 0 0 0h.1s.1 0 .1.1 0-.1 0 0v.1c0 .1 0-.1 0 0v.1c0-.1 0-.1 0 0v.1s0-.1 0 0v.1s0-.1 0 0c-.1.1.1 0 0 0h-.1c-.2 0-.3.3-.3.5.1.2.3.3.5.3s.5-.2.6-.5c.1-.3.1-.6 0-.8-.3-.5-.9-.7-1.5-.6-.3.1-.6.3-.9.4-.2.1-.2.3-.1.5 0 0 .2.1.4 0zM76.4 103.4c.5 1.2 1 2.4 1.6 3.5.5.8 1.2 1.7 2.1 1.9 2.4.6 3.9-2.1 5.1-3.7-.4.1-.8.1-1.2.2 1.3 1.6 2.9 4.4 5.3 3.9 2.4-.5 3.4-3.5 4.4-5.4.4-.9-.9-1.6-1.3-.8-.5.9-.9 1.8-1.4 2.7-.4.8-.9 1.7-1.9 2-.9.3-1.6-.5-2.1-1.1-.7-.8-1.3-1.6-1.9-2.4-.3-.4-.9-.2-1.2.2-.7.9-2.3 3.8-3.8 2.8-.6-.4-.9-1.1-1.2-1.8-.4-.9-.8-1.8-1.2-2.8-.4-.9-1.7-.1-1.3.8zM107.8 99.6c3.8-1.1 7.7-1.6 11.6-1.8 1 0 1-1.5 0-1.5-4.1.1-8.1.7-12 1.8-.9.3-.5 1.7.4 1.5zM109.4 102.7c3 .2 6 .4 9 .7 1 .1 1-1.4 0-1.5-3-.2-6-.4-9-.7-1-.1-1 1.4 0 1.5zM66.3 100.3c-4.2-1.4-8.6-2.3-13-2.7v1.5h.4c1 0 1-1.5 0-1.5h-.4c-1 0-.9 1.4 0 1.5 4.3.4 8.5 1.3 12.6 2.6.9.4 1.3-1.1.4-1.4zM64.7 103.7c-2.6.2-5.1.5-7.7.7-.4 0-.8.3-.8.8 0 .4.3.8.8.8 2.6-.2 5.1-.5 7.7-.7.4 0 .8-.3.8-.8-.1-.4-.4-.8-.8-.8z" />
	<path class="prefix__st2"
		d="M185.1 121.7c-3.9-2.4-7.8-4.9-11.8-7.3 1.2-2.4 2.5-4.8 3.9-7.1 1.7-2.7 3.4-5.5 5.1-8.2.9-1.4-1.3-2.7-2.2-1.3-.3.4-.5.9-.8 1.3-.1 0-.2 0-.3.1-2.2 1-4.5 2-6.7 3-1.2.5-2.3 1-3.5 1.5-.6.3-1.2.5-1.7.8-.3.1-.5.2-.8.3-.1.1-.2.1-.4.2h-.1c0-.2-.1-.5-.1-.6l-.3-.8-.6-1.8c-.4-1.2-.8-2.5-1.1-3.7-.8-2.5-1.5-4.9-2.3-7.4-.3-1-1.4-1.1-2-.7-.1-.4-.2-.8-.3-1.3-.2-1.2-2.3-1.3-2.5 0-1.1 6.1-2.2 12.1-3.2 18.2-2.3-1.8-4.5-3.5-6.8-5.3-1.3-1-2.9.5-1.8 1.8.2.2.3.4.5.6-.8 1.7-1.5 3.6-1.9 5.5-.2.9-.3 1.8-.4 2.6 0 .5-.1 1-.1 1.5 0 .2.1.9-.1 1.1-.3.3-2.1-.2-2.6-.2-1-.1-2-.3-3-.4-2.3-.3-4.5-.6-6.8-.9-.9-.1-1.9.5-1.6 1.6.4 1.6.9 3.3 1.3 4.9l.7 2.5c.2.7.5 1.4.6 2.1-1 .3-1.9.7-2.8 1.2-2-.1-4.4-.7-5-.8-1.1-.3-2 .9-1.5 1.9.5.8.5 1.7.3 2.5-3.3.2-10.2 1.7-13.4 2.3-1.6.3 2.8 1.8 4.4 1.4 1.8-.3 3.6-.6 5.4-.8.1.3.4.6.8.6 1.6.3 3.3.6 4.9.9 1.1.2 2-.9 1.5-1.9-.1-.2-.1-.3-.1-.5.6-.3 1.2-.7 1.8-1 2.1-1.3 5-3.2 7.5-2.1 1.3.6 2.5-1.1 1.7-2 .3.1.6.1.8.2 1.3.5 2 1.4 2.7 2.6.7 1.3 1.4 2.7 2 4.1 1.4 2.9 2.6 5.9 3.8 8.9.4 1.2 2.1 1.3 2.5 0 .9-3 2.9-5.6 5.4-7.4.2 2.4.6 4.8 1.3 7.1.2.6.7.9 1.2.9.2 2.2.4 4.4.4 6.6 0 1.2 1.9 1.9 2.4.7 2.1-4.6 5.3-8.6 7-13.3.4-1.2 1.6.1 1.8-.1 0 0 .7.8 1.6 1.5 1.7 1.4 3.3 3 4.8 4.6 0 .1.1.2.1.4.4 1.4 2.5 1.1 2.5-.3 0-2.5.1-5.1.1-7.6 0-.8-.8-1.3-1.5-1.3.1-1.4.3-2.7.9-4 1.3-3.1 4.2-5.6 7.7-5.4 1.4-.1 1.7-1.9.7-2.5z" />
	<path class="prefix__st0"
		d="M144.7 118.7h1.2l.7-3.7h-1.2l.1-.7h3.3l-.1.7h-1.2l-.7 3.7h1.2l-.1.7h-3.3l.1-.7zM155.1 118.4c0-.1 0-.3.1-.4l.7-3.4h-1.2l.1-.7h2l-.8 4.1v.3c0 .3.2.5.5.5.2 0 .4-.1.7-.2l.2.6c-.4.2-.7.2-1.1.2-.7.1-1.2-.3-1.2-1zM158.7 117.8c0-1.4 1-2.3 2.2-2.3 1 0 1.6.7 1.6 1.7 0 1.4-1 2.3-2.2 2.3-1 0-1.6-.7-1.6-1.7zm3-.6c0-.6-.3-1-.9-1-.7 0-1.3.7-1.3 1.6 0 .6.3 1 .9 1 .7 0 1.3-.7 1.3-1.6zM163.6 115.6h.8l.4 2c.1.4.1.8.2 1.1.2-.4.4-.8.6-1.1l1.1-2h.8l-2.2 3.8h-1l-.7-3.8zM168.1 117.8c0-1.4 1-2.3 2.2-2.3 1 0 1.5.6 1.5 1.5 0 .3-.1.6-.1.7h-3l.1-.6h2.4l-.3.1v-.3c0-.5-.3-.8-.8-.8-.6 0-1.3.6-1.3 1.6 0 .7.4 1.1 1 1.1.5 0 .9-.2 1.2-.4l.3.6c-.4.3-1 .5-1.7.5-.8 0-1.5-.6-1.5-1.7zM149.5 126.5c0-1.4 1.1-2.3 2.3-2.3.7 0 1.2.3 1.5.7l-.5.5c-.3-.3-.6-.5-1-.5-.7 0-1.4.7-1.4 1.6 0 .7.5 1.1 1.1 1.1.4 0 .8-.2 1.1-.5l.3.6c-.4.4-.9.6-1.5.6-1.1-.2-1.9-.7-1.9-1.8zM154 126.7c0-1.4.9-2.5 2.1-2.5.5 0 .9.2 1.1.5l.2-.4h.7l-.8 3.8h-.7v-.6c-.4.4-.9.6-1.3.6-.8 0-1.3-.5-1.3-1.4zm2.7.1l.3-1.5c-.2-.3-.5-.5-.8-.5-.7 0-1.3.8-1.3 1.7 0 .6.3.9.7.9.3 0 .8-.2 1.1-.6zM159.7 122.6h.8l-.7 3.5 2.1-1.8h1l-2 1.8-1.3 1.1-.2 1h-.8l1.1-5.6zm1.4 3l1.2 2.4h-.9l-.9-1.9.6-.5zM163.4 126.5c0-1.4 1-2.3 2.2-2.3 1 0 1.5.6 1.5 1.5 0 .3-.1.6-.1.7h-3l.1-.6h2.4l-.3.1v-.3c0-.5-.3-.8-.8-.8-.6 0-1.3.6-1.3 1.6 0 .7.4 1.1 1 1.1.5 0 .9-.2 1.2-.4l.3.6c-.4.3-1 .5-1.7.5-.8-.1-1.5-.6-1.5-1.7z" />
	<path class="prefix__st2"
		d="M160.1 89.6c-.1-.4-.3-.7-.4-1-.2-.6-.5-1.1-.7-1.7v-.2c0-.1-.1-.2-.2-.3v-.1c-.1-.3-.5-.4-.8-.3-.3.1-.4.4-.4.8 0 .2.1.3.1.5 0 1.1 0 2.2-.1 3.2 0 .3.3.7.6.6.3 0 .5-.2.6-.5h.6c.6 0 .8-.4.7-1zM183.5 97.2c-.7.5-1.4 1-2.2 1.5-.4.3-.3.8 0 1.1-.5.7-.9 1.4-1.5 2.1-.7.8-1.5 1.6-2.2 2.4-.6.9-1.2 1.8-1.6 2.8-.3.8.8 1.4 1.1.7.4-.9.9-1.8 1.5-2.7.6-.9 1.4-1.6 2.2-2.4 1.2-1.4 1.9-3.3 3.4-4.4.7-.5-.1-1.5-.7-1.1zM188.1 122.6c-.2 0-.4 0-.5.1-.2-.4-.6-.7-1-.9-.3-.2-.6-.3-1-.4-.5-.3-.7-.7-1-1.2-.5-.9-1.6-1.8-2.6-1.2l-.1-.1c-.2-.3-.5-.4-.8-.3 0 0-.1 0-.1.1l-.3-.3c-.5-.4-.9-.6-1.5-.6-.5-.3-1-.6-1.5-.8-.1 0-.1-.1-.2-.1-.6-.3-1.2-.6-1.9-.7-.8-.2-1.2 1-.3 1.2.6.2 1.2.4 1.8.7.4.2.7.5 1.1.7.1.1.3.1.4.1 2.2 1.3 4.2 2.9 6.5 4.1-.4.1-.8.3-1.2.5-.2.1-.3.3-.3.4-2 .6-3.9 1.2-5.7 2.1-1.4.7-1.6 1.6-1.7 3 0 .5-.1 1.1-.1 1.7-.3.1-.5.2-.4.6l1.2 11.1c-1.2-1.1-2.4-2.2-3.6-3.4-1.3-1.2-2.6-2.7-4.2-3.5-.6-.3-1.3-.6-1.9-.5-.8.1-1.1.8-1.4 1.5v-.1c.2-.8-1-1.1-1.2-.3-.7 1.9-1.3 3.8-2 5.8-.1 0-.2.1-.3.3 0 .1 0 .1-.1.2-.4.9-.7 1.8-1.1 2.7-.2 0-.5.1-.5.5-.1.4-.2.8-.4 1.2-.3-.1-.6.1-.8.4-.2.5-.3.9-.3 1.4-.1.5-.2 1-.4 1.5-.5-.9-1-1.9-1.3-3-.5-1.6-.3-3.2-.4-4.8-.2-2.8-2.2-5.1-2.2-7.9 0-.5-.7-.9-1.1-.5-1.4 1.8-2.7 3.5-4.1 5.3-.7.9-1.5 1.8-2.1 2.8-.3-1.1-.7-2.2-1.1-3.3-.5-2.2-1.3-4.3-2.2-6.3-.2-.4-.7-.4-1-.1-.1-.2-.1-.3-.2-.5-.1-.3-.4-.4-.6-.3-.5-1.3-1.1-2.6-1.6-4-.1-.4-.5-.5-.8-.4.7-.3.4-1.5-.4-1.2-.1 0-.1 0-.2.1-.1 0-.1-.1-.2-.1-.3-.1-.6-.1-.9 0-1.7.1-3.3.9-4.8 1.6-.1-.3-.3-.5-.6-.5-.4 0-.8.1-1.1.2.3-.3.7-.5 1-.8.3-.3.2-.8-.1-1-.9-.4-1.9-.5-2.9-.4-1.2.1-2.4.2-3.5.3-.7.1-.9 1.1-.2 1.3h.1c.1.1.3.3.5.3.6.1 1.3.1 1.9 0 .3 0 .5-.3.6-.5h.2c.5 0 1.1-.1 1.6 0-.5.4-.9.7-1.4 1.1-.3.2-.2.7 0 .9.3.3.8.5 1.2.5-.1.4.3.9.8.8 2-.4 3.8-1.7 5.8-2.2.1.1.3.2.5.2.7 0 1.3-.1 2-.3-.2.1-.4.4-.3.7 1.7 5.3 4 10.4 6.9 15.2.1.3.2.7.2 1 .1.7 1.1.5 1.2 0 .6-1.7 2.1-3.2 3.2-4.7.9-1.2 1.8-2.3 2.7-3.5.5 2.4 2 4.5 2 7 0 1.6 0 3.1.5 4.7.5 1.5 1.3 2.9 2.1 4.3.3.5 1 .4 1.2-.2.2-.7.4-1.3.5-2l.2-.2c.4-.6.7-1.3.9-2l.3-.3c.2-.4.4-.9.5-1.3.2 0 .5-.2.6-.4.2-.7.5-1.4.7-2.1.2 0 .3-.1.4-.3l2.5-4.9c.3-.5.6-1.8 1.2-2 .5-.2 1.9.9 2.2 1.2 2.6 2.2 5 4.7 7.5 7 .4.3 1.2.1 1.1-.5-.3-3.1-.7-6.2-1-9.3.1-.7.1-1.3 0-2 0-.8 0-1.7.1-2.5 0-.7-.1-1.8.2-2.4.3-.7 1.6-1 2.2-1.3 2.8-1.1 5.7-1.9 8.7-2.4.6-.4.4-1.7-.3-1.6zM127.3 132.3c-.2-.4-.4-.7-.6-1.1l-.3-.9c-.2-.7-1.2-.5-1.3.1l-.1-.1c-.6-.6-1.5.3-.9.9-.7 0-1.3.1-2 .2-1.5.2-3.1-.8-4.6.1-.7.4-.1 1.5.7 1.1.6-.3 1.3-.2 2 0 .8.1 1.5.2 2.2.1.7-.1 1.5-.3 2.2 0 .7.2 1.3.6 2 .6.6 0 1-.6.7-1zM146.2 104c-.2-.5-.8-.6-1.1-.2-.3 0-.6.2-.7.5-.5 1.2-.8 2.5 0 3.5-.1.6-.3 1.2-.4 1.8-.3 1.6-.6 3.4-1.6 4.7-.3.3-.3.8.1 1 1 .6 1.8-.2 2.1-1.1.2-.4 0-.7-.3-.9.4-1.1.7-2.2.9-3.4.1-.5.2-1.1.3-1.6.2-.2.3-.5.2-.8 0-.1 0-.2.1-.3.3-1.1.8-2.1.4-3.2z" />
	<g>
		<path class="prefix__st1"
			d="M103.7 133.1c4.8-.9 9.6-1.7 14.4-2.6 1.5-.3 4-.2 5-1.6.4-.5.5-1.1.4-1.7-.1-.7-.8-1.8-.5-2.5-.2.1-.4.2-.6.4l10.1.3c.5 0 .9-.5.7-.9-1.2-4.2-2.7-8.2-4.6-12.1-.3.4-.6.7-.8 1.1 4.7.8 9.4 1.6 14.1 2.3.4.1.8-.1.9-.5 1.2-4.7 2.1-9.5 2.8-14.4-.4.1-.7.3-1.1.4 3 1.7 5.8 3.7 8.4 6 .5.5 1.2.1 1.3-.5.9-7.6 2.5-15.1 4.6-22.4-.5.1-.9.1-1.4.2 3 6.7 5.4 13.7 7.1 20.8.1.5.7.7 1.1.4 6.6-3.7 13.6-6.8 20.9-9.1-.2-.4-.5-.8-.7-1.3-4.8 5.7-9.1 11.9-12.7 18.4-.2.3-.1.9.3 1 5.8 2.6 11.2 5.8 16.2 9.7.2-.4.4-.9.5-1.3-4.2.4-8.4 1.2-12.5 2.2-.3.1-.5.4-.6.7-.4 6.4-.1 12.9.7 19.3.4-.2.8-.4 1.1-.6-4.1-3-7.9-6.4-11.3-10.2-.4-.5-1.1-.2-1.3.3-2.5 5.9-5.4 11.7-8.8 17.2.5.1.9.1 1.4.2-1.8-5.5-3.3-11.1-4.3-16.8-.1-.7-1-.6-1.4-.2-2.3 3.1-4.7 6.1-7 9.2h1.3c-2.8-5.9-5.6-11.7-8.4-17.6-.1-.3-.5-.4-.8-.3-3.8.8-7.5 1.7-11.3 2.5-.3.1-.5.4-.6.7-.1 1.4.2 2.6.9 3.8.2-.4.4-.8.6-1.1-8.1 0-16.1-1-24.2-1-1 0-1 1.5 0 1.5 8.1 0 16.1 1 24.2 1 .6 0 .9-.6.6-1.1-.6-1-.8-1.9-.7-3-.2.2-.4.5-.6.7 3.8-.8 7.5-1.7 11.3-2.5-.3-.1-.6-.2-.8-.3 2.8 5.9 5.6 11.7 8.4 17.6.3.6 1 .4 1.3 0 2.3-3.1 4.7-6.1 7-9.2-.5-.1-.9-.1-1.4-.2 1 5.7 2.4 11.3 4.3 16.8.2.6 1 .7 1.4.2 3.4-5.6 6.4-11.5 8.9-17.5-.4.1-.8.2-1.3.3 3.5 3.9 7.4 7.3 11.6 10.4.4.3 1.2-.1 1.1-.6-.9-6.4-1.1-12.8-.7-19.3-.2.2-.4.5-.6.7 4-1 8-1.8 12.1-2.2.6-.1 1.1-.8.5-1.3-5.1-4-10.6-7.3-16.5-10 .1.3.2.7.3 1 3.6-6.4 7.7-12.5 12.5-18.1.4-.5 0-1.5-.7-1.3-7.4 2.4-14.5 5.5-21.2 9.3.4.1.7.3 1.1.4-1.7-7.3-4.2-14.4-7.3-21.2-.3-.6-1.2-.4-1.4.2-2.2 7.5-3.7 15.1-4.7 22.8.4-.2.9-.4 1.3-.5-2.7-2.4-5.6-4.5-8.7-6.3-.4-.2-1 0-1.1.4-.7 4.8-1.6 9.6-2.8 14.4.3-.2.6-.3.9-.5-4.7-.8-9.4-1.6-14.1-2.3-.7-.1-1.1.5-.8 1.1 1.8 3.8 3.3 7.7 4.5 11.8.2-.3.5-.6.7-.9l-10.1-.3c-.2 0-.5.1-.6.4-.3.6-.3 1.1-.2 1.7.1.6.8 1.7.4 2.3-.4.7-1.8.7-2.4.8-1.1.2-2.2.4-3.4.6-4.3.8-8.6 1.5-13 2.3-.6.2-.2 1.7.8 1.5z" />
	</g>
	<g>
		<path class="prefix__st3"
			d="M109 74.3c-1.1-2.5-1.5-5.3-1.7-8-.2-2.9-.2-5.8-.3-8.7-.1-3.1-.2-6.1-.3-9.2-.1-1.5-.1-3.1-.2-4.6 0-1.2 0-2.5-.2-3.7-.3-2.1-1.1-4.5-3.4-5h-.3l-.1-.1c-.9-.5-1.8-.2-2.4.6-.6.8-.6 1.9-.6 2.9 0 1.4-.1 2.8-.1 4.2-.1 5.6-.3 11.2-.4 16.7l-.2 9.5c0 .3.2.6.5.7 3.4.7 6.5 2.6 8.5 5.4.6.7 1.6.1 1.2-.7z" />
		<path class="prefix__st1"
			d="M97.5 70.6c4.8 1.6 9 4.7 11.9 8.8 1.1 1.6 3.5.2 2.6-1.5-2.5-4.9-3-10.4-3.2-15.8-.2-5.9-.3-11.8-.7-17.6l-.3-4.5c-.1-1.3 0-2.9-.5-4.1-.5-1.2-1.5-1.6-2.6-1.8-1.4-.3-3-.9-4.5-1-3.1-.2-2.6 3.4-2.5 5.5.1 3.1.2 6.2.2 9.3 0 6.9-.3 13.8-.9 20.6-.2 1.9 2.8 1.9 3 0 .5-5.5.8-11.1.9-16.7v-8.1c0-1.4-.1-2.8-.1-4.2 0-.7-.1-1.3-.1-2v-1-.5c.1-.4 0-.4-.2-.2-.7.2.3.3.5.3.3.1.6.1.9.2.6.1 1.2.3 1.9.4.3.1.6.1.9.2.4.1 0-.3.1 0 .1.7.1 1.4.2 2.1.2 2.8.4 5.6.5 8.4.3 5.3.3 10.6.5 16 .3 5.5 1.1 10.9 3.6 15.8.9-.5 1.7-1 2.6-1.5-3.4-4.8-8.1-8.3-13.7-10.2-2-.4-2.8 2.4-1 3.1z" />
		<path class="prefix__st3"
			d="M103.2 38.8c0-.1-.1-.2-.1-.2-.1-.1-.1-.1-.2-.1s-.2-.1-.3-.1h-.2c-.1 0-.2.1-.3.2l-.1.1c-.1.1-.1.2-.1.4v.3c0 .1 0 .2.1.3 0 .1.1.2.1.2.1.1.1.1.2.1s.2.1.3.1h.2c.1 0 .2-.1.3-.2l.1-.1c.1-.1.1-.2.1-.4V39c-.1-.1-.1-.2-.1-.2z" />
		<path class="prefix__st1"
			d="M98.5 66.9c3-.5 6-.7 9-.6 1 0 1-1.5 0-1.5-3.1-.1-6.3.1-9.4.6-.4.1-.6.6-.5.9.1.5.5.6.9.6z" />
	</g>
	<g stroke="#10101a" stroke-miterlimit="10">
		<path fill="#10101a" d="M99.8 115.5h5.2v5h-5.2z" />
		<ellipse cx="102.4" cy="115.2" rx="2.4" ry="2.5" fill="none" />
	</g>
	<circle class="prefix__st6" cx="71.4" cy="117.7" r="2.5" />
	<path class="prefix__st6" d="M71.2 113.6l.1 4.4" />
	<g>
		<path class="prefix__st3" d="M73.7 134.9c1.9 0 1.9-3 0-3s-1.9 3 0 3z" />
	</g>
	<g>
		<path class="prefix__st3"
			d="M73.6 140.3h.2c.2 0 .4 0 .6-.1.2-.1.3-.2.5-.3.1-.1.2-.3.3-.5.1-.2.1-.4.1-.6 0-.1 0-.3-.1-.4-.1-.3-.2-.5-.4-.7-.1-.1-.2-.2-.3-.2-.2-.1-.5-.2-.8-.2h-.2c-.2 0-.4 0-.6.1-.2.1-.3.2-.5.3-.1.1-.2.3-.3.5-.1.2-.1.4-.1.6 0 .1 0 .3.1.4.1.3.2.5.4.7.1.1.2.2.3.2.2.1.5.2.8.2z" />
	</g>
	<g>
		<path class="prefix__st3"
			d="M69.2 138.1h.2c.2 0 .4 0 .6-.1.2-.1.3-.2.5-.3.1-.1.2-.3.3-.5.1-.2.1-.4.1-.6 0-.1 0-.3-.1-.4-.1-.3-.2-.5-.4-.7-.1-.1-.2-.2-.3-.2-.2-.1-.5-.2-.8-.2h-.2c-.2 0-.4 0-.6.1-.2.1-.3.2-.5.3-.1.1-.2.3-.3.5-.1.2-.1.4-.1.6 0 .1 0 .3.1.4.1.3.2.5.4.7.1.1.2.2.3.2.3.1.5.2.8.2z" />
	</g>
	<g>
		<path class="prefix__st3"
			d="M72.8 129.4l.2.2c.1.1.3.2.5.3.2.1.4.1.6.1.2 0 .4 0 .6-.1.2-.1.3-.2.5-.3.1-.1.2-.2.2-.3.1-.2.2-.5.2-.8 0-.1 0-.3-.1-.4-.1-.3-.2-.5-.4-.7l-.2-.2c-.1-.1-.3-.2-.5-.3-.2-.1-.4-.1-.6-.1-.2 0-.4 0-.6.1-.2.1-.3.2-.5.3-.1.1-.2.2-.2.3-.1.2-.2.5-.2.8 0 .1 0 .3.1.4.1.3.2.5.4.7z" />
	</g>
	<g>
		<path class="prefix__st3"
			d="M72.6 144.2c0 .1-.1.3-.1.4v.4c.1.3.2.5.4.7l.2.1c-.1-.1.1.1.2.1.1.1.2.1.4.2l.4.1h.2.2c.1 0 .2-.1.2-.1s.1 0 .2-.1l.3-.2c0-.1.1-.1.1-.2s.1-.1.1-.2.1-.1.1-.2c-.1.1.1-.1.1-.2v-.2-.2-.2-.2c0-.2-.1-.4-.3-.5-.1-.2-.2-.3-.4-.4-.2-.1-.4-.2-.6-.2h-.6c-.1.1-.2.1-.4.2s-.4.3-.5.5c-.1.1-.1.2-.2.4-.1.3-.1.5 0 .8 0-.1 0-.3-.1-.4 0-.1 0-.3.1-.4.1-.1.1-.2.2-.4.1-.1.2-.2.2-.3.1-.1.2-.2.3-.2.1-.1.2-.1.4-.2.1 0 .3 0 .4-.1.1 0 .3 0 .4.1.1.1.2.1.4.2.1.1.2.2.3.2.1.1.2.2.2.3.1.1.1.2.2.4 0 .1 0 .3.1.4 0 .1 0 .3-.1.4.1-.2.1-.4 0-.6 0-.2-.1-.4-.2-.6-.1-.2-.2-.3-.4-.4-.1-.1-.3-.2-.5-.3-.1 0-.3 0-.4-.1-.3 0-.5.1-.8.2-.1.1-.2.2-.3.2l-.4.8z" />
	</g>
	<g>
		<path class="prefix__st3"
			d="M76.4 126l.2.2c.1.1.3.2.5.3.2.1.4.1.6.1.2 0 .4 0 .6-.1.2-.1.3-.2.5-.3.1-.1.2-.2.2-.3.1-.2.2-.5.2-.8 0-.1 0-.3-.1-.4-.1-.3-.2-.5-.4-.7l-.2-.2c-.1-.1-.3-.2-.5-.3-.2-.1-.4-.1-.6-.1-.2 0-.4 0-.6.1-.2.1-.3.2-.5.3-.1.1-.2.2-.2.3-.1.2-.2.5-.2.8 0 .1 0 .3.1.4.1.3.2.5.4.7z" />
	</g>
	<g>
		<path class="prefix__st3"
			d="M77.9 133.1h.2c.2 0 .4 0 .6-.1.2-.1.3-.2.5-.3.1-.1.2-.3.3-.5.1-.2.1-.4.1-.6 0-.1 0-.3-.1-.4-.1-.3-.2-.5-.4-.7-.1-.1-.2-.2-.3-.2-.2-.1-.5-.2-.8-.2h-.2c-.2 0-.4 0-.6.1-.2.1-.3.2-.5.3-.1.1-.2.3-.3.5-.1.2-.1.4-.1.6 0 .1 0 .3.1.4.1.3.2.5.4.7.1.1.2.2.3.2.3.1.5.2.8.2z" />
	</g>
	<g>
		<path class="prefix__st3"
			d="M78.2 138.5h.2c.2 0 .4 0 .6-.1.2-.1.3-.2.5-.3.1-.1.2-.3.3-.5.1-.2.1-.4.1-.6 0-.1 0-.3-.1-.4-.1-.3-.2-.5-.4-.7-.1-.1-.2-.2-.3-.2-.2-.1-.5-.2-.8-.2h-.2c-.2 0-.4 0-.6.1-.2.1-.3.2-.5.3-.1.1-.2.3-.3.5-.1.2-.1.4-.1.6 0 .1 0 .3.1.4.1.3.2.5.4.7.1.1.2.2.3.2.3.2.5.2.8.2z" />
	</g>
	<g>
		<path class="prefix__st3"
			d="M77 142.7l.2.2c.1.1.3.2.5.3.2.1.4.1.6.1.2 0 .4 0 .6-.1.2-.1.3-.2.5-.3.1-.1.2-.2.2-.3.1-.2.2-.5.2-.8 0-.1 0-.3-.1-.4-.1-.3-.2-.5-.4-.7l-.2-.2c-.1-.1-.3-.2-.5-.3-.2-.1-.4-.1-.6-.1-.2 0-.4 0-.6.1-.2.1-.3.2-.5.3-.1.1-.2.2-.2.3-.1.2-.2.5-.2.8 0 .1 0 .3.1.4.1.3.2.5.4.7z" />
	</g>
	<g>
		<path class="prefix__st3"
			d="M77.6 149.6l.2.2c.1.1.3.2.5.3.2.1.4.1.6.1.2 0 .4 0 .6-.1.2-.1.3-.2.5-.3.1-.1.2-.2.2-.3.1-.2.2-.5.2-.8 0-.1 0-.3-.1-.4-.1-.3-.2-.5-.4-.7l-.2-.2c-.1-.1-.3-.2-.5-.3-.2-.1-.4-.1-.6-.1-.2 0-.4 0-.6.1-.2.1-.3.2-.5.3-.1.1-.2.2-.2.3-.1.2-.2.5-.2.8 0 .1 0 .3.1.4.1.3.2.5.4.7z" />
	</g>
	<g>
		<path class="prefix__st3"
			d="M81.2 146l.2.2c.1.1.3.2.5.3.2.1.4.1.6.1.2 0 .4 0 .6-.1.2-.1.3-.2.5-.3.1-.1.2-.2.2-.3.1-.2.2-.5.2-.8 0-.1 0-.3-.1-.4-.1-.3-.2-.5-.4-.7l-.2-.2c-.1-.1-.3-.2-.5-.3-.2-.1-.4-.1-.6-.1-.2 0-.4 0-.6.1-.2.1-.3.2-.5.3-.1.1-.2.2-.2.3-.1.2-.2.5-.2.8 0 .1 0 .3.1.4.1.3.2.5.4.7z" />
	</g>
	<g>
		<path class="prefix__st3"
			d="M81.3 140.4l.2.2c.1.1.3.2.5.3.2.1.4.1.6.1.2 0 .4 0 .6-.1.2-.1.3-.2.5-.3.1-.1.2-.2.2-.3.1-.2.2-.5.2-.8 0-.1 0-.3-.1-.4-.1-.3-.2-.5-.4-.7l-.2-.2c-.1-.1-.3-.2-.5-.3-.2-.1-.4-.1-.6-.1-.2 0-.4 0-.6.1-.2.1-.3.2-.5.3-.1.1-.2.2-.2.3-.1.2-.2.5-.2.8 0 .1 0 .3.1.4.1.3.3.5.4.7z" />
	</g>
	<g>
		<path class="prefix__st3"
			d="M82.9 134.9c.1-.1.2-.1.3-.2.2-.1.3-.2.4-.4.1-.1.2-.3.3-.5.1-.2.1-.4 0-.6 0-.2-.1-.4-.2-.6-.1-.1-.2-.2-.2-.3-.2-.2-.4-.3-.7-.4-.1 0-.3 0-.4-.1-.3 0-.5.1-.8.2-.1.1-.2.1-.3.2-.2.1-.3.2-.4.4-.1.1-.2.3-.3.5-.1.2-.1.4 0 .6 0 .2.1.4.2.6.1.1.2.2.2.3.2.2.4.3.7.4.1 0 .3 0 .4.1.3 0 .5 0 .8-.2z" />
	</g>
	<g>
		<path class="prefix__st3"
			d="M81.9 129.4h.2c.2 0 .4 0 .6-.1.2-.1.3-.2.5-.3.1-.1.2-.3.3-.5.1-.2.1-.4.1-.6 0-.1 0-.3-.1-.4-.1-.3-.2-.5-.4-.7-.1-.1-.2-.2-.3-.2-.2-.1-.5-.2-.8-.2h-.2c-.2 0-.4 0-.6.1-.2.1-.3.2-.5.3-.1.1-.2.3-.3.5-.1.2-.1.4-.1.6 0 .1 0 .3.1.4.1.3.2.5.4.7.1.1.2.2.3.2.3.1.6.2.8.2z" />
	</g>
	<g>
		<path class="prefix__st3"
			d="M81.5 123.9h.2c.2 0 .4 0 .6-.1.2-.1.3-.2.5-.3.1-.1.2-.3.3-.5.1-.2.1-.4.1-.6 0-.1 0-.3-.1-.4-.1-.3-.2-.5-.4-.7-.1-.1-.2-.2-.3-.2-.2-.1-.5-.2-.8-.2h-.2c-.2 0-.4 0-.6.1-.2.1-.3.2-.5.3-.1.1-.2.3-.3.5-.1.2-.1.4-.1.6 0 .1 0 .3.1.4.1.3.2.5.4.7.1.1.2.2.3.2.2.2.5.2.8.2z" />
	</g>
	<g>
		<path class="prefix__st3"
			d="M82.6 152.6h.3c.2 0 .4 0 .6-.1.2-.1.3-.2.5-.3.1-.1.2-.3.3-.5.1-.2.1-.4.1-.6 0-.1 0-.3-.1-.4-.1-.3-.2-.5-.4-.7-.1-.1-.2-.2-.3-.2-.2-.1-.5-.2-.8-.2h-.3c-.2 0-.4 0-.6.1-.2.1-.3.2-.5.3-.1.1-.2.3-.3.5-.1.2-.1.4-.1.6 0 .1 0 .3.1.4.1.3.2.5.4.7.1.1.2.2.3.2.2.2.5.2.8.2z" />
	</g>
	<g>
		<path class="prefix__st3"
			d="M84.7 124.2c0 .1-.1.3-.1.4v.4c.1.3.2.5.4.7l.2.1c-.1-.1.1.1.2.1.1.1.2.1.4.2l.4.1h.2.2c.1 0 .2-.1.2-.1s.1 0 .2-.1l.3-.2c0-.1.1-.1.1-.2s.1-.1.1-.2.1-.1.1-.2c-.1.1.1-.1.1-.2v-.2-.2-.2-.2c0-.2-.1-.4-.3-.5-.1-.2-.2-.3-.4-.4-.2-.1-.4-.2-.6-.2h-.6c-.1.1-.2.1-.4.2s-.4.3-.5.5c-.1.1-.1.2-.2.4-.1.3-.1.5 0 .8 0-.1 0-.3-.1-.4 0-.1 0-.3.1-.4.1-.1.1-.2.2-.4.1-.1.2-.2.2-.3.1-.1.2-.2.3-.2.1-.1.2-.1.4-.2.1 0 .3 0 .4-.1.1 0 .3 0 .4.1.1.1.2.1.4.2.1.1.2.2.3.2.1.1.2.2.2.3.1.1.1.2.2.4 0 .1 0 .3.1.4 0 .1 0 .3-.1.4.1-.2.1-.4 0-.6 0-.2-.1-.4-.2-.6-.1-.2-.2-.3-.4-.4-.1-.1-.3-.2-.5-.3-.1 0-.3 0-.4-.1-.3 0-.5.1-.8.2-.1.1-.2.2-.3.2-.2.3-.3.6-.4.8z" />
	</g>
	<g>
		<path class="prefix__st3"
			d="M86.7 132.2h.2c.2 0 .4 0 .6-.1.2-.1.3-.2.5-.3.1-.1.2-.3.3-.5.1-.2.1-.4.1-.6 0-.1 0-.3-.1-.4-.1-.3-.2-.5-.4-.7-.1-.1-.2-.2-.3-.2-.2-.1-.5-.2-.8-.2h-.2c-.2 0-.4 0-.6.1-.2.1-.3.2-.5.3-.1.1-.2.3-.3.5-.1.2-.1.4-.1.6 0 .1 0 .3.1.4.1.3.2.5.4.7.1.1.2.2.3.2.3.1.6.2.8.2z" />
	</g>
	<g>
		<path class="prefix__st3"
			d="M87.1 137.9h.2c.2 0 .4 0 .6-.1.2-.1.3-.2.5-.3.1-.1.2-.3.3-.5.1-.2.1-.4.1-.6 0-.1 0-.3-.1-.4-.1-.3-.2-.5-.4-.7-.1-.1-.2-.2-.3-.2-.2-.1-.5-.2-.8-.2H87c-.2 0-.4 0-.6.1-.2.1-.3.2-.5.3-.1.1-.2.3-.3.5-.1.2-.1.4-.1.6 0 .1 0 .3.1.4.1.3.2.5.4.7.1.1.2.2.3.2.2.1.5.2.8.2z" />
	</g>
	<g>
		<path class="prefix__st3"
			d="M86.2 143.2l.2.2c.1.1.3.2.5.3.2.1.4.1.6.1.2 0 .4 0 .6-.1.2-.1.3-.2.5-.3.1-.1.2-.2.2-.3.1-.2.2-.5.2-.8 0-.1 0-.3-.1-.4-.1-.3-.2-.5-.4-.7l-.2-.2c-.1-.1-.3-.2-.5-.3-.2-.1-.4-.1-.6-.1-.2 0-.4 0-.6.1-.2.1-.3.2-.5.3-.1.1-.2.2-.2.3-.1.2-.2.5-.2.8 0 .1 0 .3.1.4 0 .3.2.5.4.7z" />
	</g>
	<g>
		<path class="prefix__st3" d="M87.5 149.1c1.9 0 1.9-3 0-3s-1.9 3 0 3z" />
	</g>
	<g>
		<path class="prefix__st3"
			d="M89.4 122c0 .1-.1.3-.1.4v.4c.1.3.2.5.4.7l.2.1c-.1-.1.1.1.2.1.1.1.2.1.4.2l.4.1h.2.2c.1 0 .2-.1.2-.1s.1 0 .2-.1l.3-.2c0-.1.1-.1.1-.2s.1-.1.1-.2.1-.1.1-.2c-.1.1.1-.1.1-.2v-.2-.2-.2-.2c0-.2-.1-.4-.3-.5-.1-.2-.2-.3-.4-.4-.2-.1-.4-.2-.6-.2h-.6c-.1.1-.2.1-.4.2s-.4.3-.5.5c-.1.1-.1.2-.2.4-.1.3-.1.5 0 .8 0-.1 0-.3-.1-.4 0-.1 0-.3.1-.4.1-.1.1-.2.2-.4.1-.1.2-.2.2-.3.1-.1.2-.2.3-.2.1-.1.2-.1.4-.2.1 0 .3 0 .4-.1.1 0 .3 0 .4.1.1.1.2.1.4.2.1.1.2.2.3.2.1.1.2.2.2.3.1.1.1.2.2.4 0 .1 0 .3.1.4 0 .1 0 .3-.1.4.1-.2.1-.4 0-.6 0-.2-.1-.4-.2-.6-.1-.2-.2-.3-.4-.4-.1-.1-.3-.2-.5-.3-.1 0-.3 0-.4-.1-.3 0-.5.1-.8.2-.1.1-.2.2-.3.2-.2.4-.4.6-.4.8z" />
	</g>
	<g>
		<path class="prefix__st3"
			d="M89.6 127.6v.2c0 .2 0 .4.1.6.1.2.2.3.3.5.1.1.3.2.5.3.2.1.4.1.6.1.1 0 .3 0 .4-.1.3-.1.5-.2.7-.4.1-.1.2-.2.2-.3.1-.2.2-.5.2-.8v-.2c0-.2 0-.4-.1-.6-.1-.2-.2-.3-.3-.5-.1-.1-.3-.2-.5-.3-.2-.1-.4-.1-.6-.1-.1 0-.3 0-.4.1-.3.1-.5.2-.7.4-.1.1-.2.2-.2.3-.1.2-.2.5-.2.8z" />
	</g>
	<g>
		<path class="prefix__st3"
			d="M89.9 134.2l.2.2c.1.1.3.2.5.3.2.1.4.1.6.1.2 0 .4 0 .6-.1.2-.1.3-.2.5-.3.1-.1.2-.2.2-.3.1-.2.2-.5.2-.8 0-.1 0-.3-.1-.4-.1-.3-.2-.5-.4-.7l-.2-.2c-.1-.1-.3-.2-.5-.3-.2-.1-.4-.1-.6-.1-.2 0-.4 0-.6.1-.2.1-.3.2-.5.3-.1.1-.2.2-.2.3-.1.2-.2.5-.2.8 0 .1 0 .3.1.4.1.3.2.5.4.7z" />
	</g>
	<g>
		<path class="prefix__st3"
			d="M90 140.1l.2.2c.1.1.3.2.5.3.2.1.4.1.6.1.2 0 .4 0 .6-.1.2-.1.3-.2.5-.3.1-.1.2-.2.2-.3.1-.2.2-.5.2-.8 0-.1 0-.3-.1-.4-.1-.3-.2-.5-.4-.7l-.2-.2c-.1-.1-.3-.2-.5-.3-.2-.1-.4-.1-.6-.1-.2 0-.4 0-.6.1-.2.1-.3.2-.5.3-.1.1-.2.2-.2.3-.1.2-.2.5-.2.8 0 .1 0 .3.1.4.1.3.2.5.4.7z" />
	</g>
	<g>
		<path class="prefix__st3"
			d="M90.8 146.3h.2c.2 0 .4 0 .6-.1.2-.1.3-.2.5-.3.1-.1.2-.3.3-.5.1-.2.1-.4.1-.6 0-.1 0-.3-.1-.4-.1-.3-.2-.5-.4-.7-.1-.1-.2-.2-.3-.2-.2-.1-.5-.2-.8-.2h-.2c-.2 0-.4 0-.6.1-.2.1-.3.2-.5.3-.1.1-.2.3-.3.5-.1.2-.1.4-.1.6 0 .1 0 .3.1.4.1.3.2.5.4.7.1.1.2.2.3.2.3.1.5.2.8.2z" />
	</g>
	<g>
		<path class="prefix__st3"
			d="M90.3 152.2l.2.2c.1.1.3.2.5.3.2.1.4.1.6.1.2 0 .4 0 .6-.1.2-.1.3-.2.5-.3.1-.1.2-.2.2-.3.1-.2.2-.5.2-.8 0-.1 0-.3-.1-.4-.1-.3-.2-.5-.4-.7l-.2-.2c-.1-.1-.3-.2-.5-.3-.2-.1-.4-.1-.6-.1-.2 0-.4 0-.6.1-.2.1-.3.2-.5.3-.1.1-.2.2-.2.3-.1.2-.2.5-.2.8 0 .1 0 .3.1.4.1.3.3.5.4.7z" />
	</g>
	<g>
		<path class="prefix__st3"
			d="M95.3 126.1h.2c.2 0 .4 0 .6-.1.2-.1.3-.2.5-.3.1-.1.2-.3.3-.5.1-.2.1-.4.1-.6 0-.1 0-.3-.1-.4-.1-.3-.2-.5-.4-.7-.1-.1-.2-.2-.3-.2-.2-.1-.5-.2-.8-.2h-.2c-.2 0-.4 0-.6.1-.2.1-.3.2-.5.3-.1.1-.2.3-.3.5-.1.2-.1.4-.1.6 0 .1 0 .3.1.4.1.3.2.5.4.7.1.1.2.2.3.2.3.1.5.2.8.2z" />
	</g>
	<g>
		<path class="prefix__st3"
			d="M94.3 129.8c0 .1-.1.3-.1.4v.4c.1.3.2.5.4.7l.2.1c-.1-.1.1.1.2.1.1.1.2.1.4.2l.4.1h.2.2c.1 0 .2-.1.2-.1s.1 0 .2-.1l.3-.2c0-.1.1-.1.1-.2s.1-.1.1-.2.1-.1.1-.2c-.1.1.1-.1.1-.2v-.2-.2-.2-.2c0-.2-.1-.4-.3-.5-.1-.2-.2-.3-.4-.4-.2-.1-.4-.2-.6-.2h-.6c-.1.1-.2.1-.4.2s-.4.3-.5.5c-.1.1-.1.2-.2.4-.1.3-.1.5 0 .8 0-.1 0-.3-.1-.4 0-.1 0-.3.1-.4.1-.1.1-.2.2-.4.1-.1.2-.2.2-.3.1-.1.2-.2.3-.2.1-.1.2-.1.4-.2.1 0 .3 0 .4-.1.1 0 .3 0 .4.1.1.1.2.1.4.2.1.1.2.2.3.2.1.1.2.2.2.3.1.1.1.2.2.4 0 .1 0 .3.1.4 0 .1 0 .3-.1.4.1-.2.1-.4 0-.6 0-.2-.1-.4-.2-.6-.1-.2-.2-.3-.4-.4-.1-.1-.3-.2-.5-.3-.1 0-.3 0-.4-.1-.3 0-.5.1-.8.2-.1.1-.2.2-.3.2-.2.3-.3.5-.4.8z" />
	</g>
	<g>
		<path class="prefix__st3"
			d="M95.9 137.3h.2c.2 0 .4 0 .6-.1.2-.1.3-.2.5-.3.1-.1.2-.3.3-.5.1-.2.1-.4.1-.6 0-.1 0-.3-.1-.4-.1-.3-.2-.5-.4-.7-.1-.1-.2-.2-.3-.2-.2-.1-.5-.2-.8-.2h-.2c-.2 0-.4 0-.6.1-.2.1-.3.2-.5.3-.1.1-.2.3-.3.5-.1.2-.1.4-.1.6 0 .1 0 .3.1.4.1.3.2.5.4.7.1.1.2.2.3.2.3.1.5.2.8.2z" />
	</g>
	<g>
		<path class="prefix__st3"
			d="M95.6 143h.2c.2 0 .4 0 .6-.1.2-.1.3-.2.5-.3.1-.1.2-.3.3-.5.1-.2.1-.4.1-.6 0-.1 0-.3-.1-.4-.1-.3-.2-.5-.4-.7-.1-.1-.2-.2-.3-.2-.2-.1-.5-.2-.8-.2h-.2c-.2 0-.4 0-.6.1-.2.1-.3.2-.5.3-.1.1-.2.3-.3.5-.1.2-.1.4-.1.6 0 .1 0 .3.1.4.1.3.2.5.4.7.1.1.2.2.3.2.3.2.5.2.8.2z" />
	</g>
	<g>
		<path class="prefix__st3"
			d="M95.9 149.1h.2c.2 0 .4 0 .6-.1.2-.1.3-.2.5-.3.1-.1.2-.3.3-.5.1-.2.1-.4.1-.6 0-.1 0-.3-.1-.4-.1-.3-.2-.5-.4-.7-.1-.1-.2-.2-.3-.2-.2-.1-.5-.2-.8-.2h-.2c-.2 0-.4 0-.6.1-.2.1-.3.2-.5.3-.1.1-.2.3-.3.5-.1.2-.1.4-.1.6 0 .1 0 .3.1.4.1.3.2.5.4.7.1.1.2.2.3.2.3.1.5.2.8.2z" />
	</g>
	<g>
		<path class="prefix__st3" d="M100.1 129.1c1.9 0 1.9-3 0-3s-1.9 3 0 3z" />
	</g>
	<g>
		<path class="prefix__st3"
			d="M99.2 134l.2.2c.1.1.3.2.5.3.2.1.4.1.6.1.2 0 .4 0 .6-.1.2-.1.3-.2.5-.3.1-.1.2-.2.2-.3.1-.2.2-.5.2-.8 0-.1 0-.3-.1-.4-.1-.3-.2-.5-.4-.7l-.2-.2c-.1-.1-.3-.2-.5-.3-.2-.1-.4-.1-.6-.1-.2 0-.4 0-.6.1-.2.1-.3.2-.5.3-.1.1-.2.2-.2.3-.1.2-.2.5-.2.8 0 .1 0 .3.1.4.1.3.2.6.4.7z" />
	</g>
	<g>
		<path class="prefix__st3"
			d="M99 139.6l.2.2c.1.1.3.2.5.3.2.1.4.1.6.1.2 0 .4 0 .6-.1.2-.1.3-.2.5-.3.1-.1.2-.2.2-.3.1-.2.2-.5.2-.8 0-.1 0-.3-.1-.4-.1-.3-.2-.5-.4-.7l-.2-.2c-.1-.1-.3-.2-.5-.3-.2-.1-.4-.1-.6-.1-.2 0-.4 0-.6.1-.2.1-.3.2-.5.3-.1.1-.2.2-.2.3-.1.2-.2.5-.2.8 0 .1 0 .3.1.4.1.3.2.5.4.7z" />
	</g>
	<g>
		<path class="prefix__st3"
			d="M99.2 145.4c.1 0 .1.1.2.1.1.1.3.2.5.3.2.1.4.1.6.1.2 0 .4 0 .6-.1.2-.1.3-.2.5-.3.1-.1.2-.2.2-.3.1-.2.2-.5.2-.8 0-.1 0-.3-.1-.4-.1-.3-.2-.5-.4-.7-.1 0-.1-.1-.2-.1-.1-.1-.3-.2-.5-.3-.2-.1-.4-.1-.6-.1-.2 0-.4 0-.6.1-.2.1-.3.2-.5.3-.1.1-.2.2-.2.3-.1.2-.2.5-.2.8 0 .1 0 .3.1.4.1.3.2.5.4.7z" />
	</g>
	<g>
		<path class="prefix__st3"
			d="M104.3 137h.2c.2 0 .4 0 .6-.1.2-.1.3-.2.5-.3.1-.1.2-.3.3-.5.1-.2.1-.4.1-.6 0-.1 0-.3-.1-.4-.1-.3-.2-.5-.4-.7-.1-.1-.2-.2-.3-.2-.2-.1-.5-.2-.8-.2h-.2c-.2 0-.4 0-.6.1-.2.1-.3.2-.5.3-.1.1-.2.3-.3.5-.1.2-.1.4-.1.6 0 .1 0 .3.1.4.1.3.2.5.4.7.1.1.2.2.3.2.3.1.5.2.8.2z" />
	</g>
	<path class="prefix__st3"
		d="M54.3 114.6c.1-.8.2-1.6.2-2.5 0-.1.1-.2.1-.3.5-2.8 0-5.6-1.5-8.1-.3-.6-1.2-.9-1.8-.5-.2.1-.4.3-.6.4-.3.2-.5.4-.6.7-1 1.2-1.1 2.8-.4 4.2 0 .1.1.2.2.2-.1.7-.2 1.4-.1 2.1-.7 1.9-.7 4.1.2 6-.1.9-.1 1.7.2 2.6 0 .5 0 1 .1 1.5-.3 1-.3 2-.1 3-.3 1.1-.2 2.3.2 3.4-.4 1.1-.4 2.2-.1 3.3.1.3.2.6.4.8-.1.2-.1.4-.2.6-.4 1.3-.6 2.8-.1 4.1-.2.9-.1 1.8.4 2.7.4.7 1.5.9 2 .3.8-.9 1.2-2 1.3-3.2.1-.5.2-1.1.2-1.5 0-.4 0-.8-.1-1.2v-.6c.2-1 .2-2 .1-3 .1-.8.1-1.7.1-2.4 0-.8-.2-1.5-.3-2.3v-.5c.3-1.3.4-2.7.3-4 .1-1.4-.1-2.8-.4-4.2v-1c.1-.1.2-.3.3-.6z" />
	<g>
		<path class="prefix__st1"
			d="M51.5 100.8c-3.1 0-4.1 3-4.2 5.6 0 3.2.1 6.5.1 9.7.1 6.7 0 13.3.3 20 .1 2.2.6 4.8 2.9 5.6 2.5.9 4.9-1.1 5.6-3.4.4-1.3.4-2.8.4-4.1 0-1.6 0-3.3-.1-4.9-.1-3.5-.1-6.9-.2-10.4-.1-3.8-.3-7.6-.5-11.4-.1-1.5.2-3.6-.5-4.9-.6-1.2-2.1-1.5-3.4-1.4-1.9.1-1.9 3.1 0 3 .2 0 .9.1.7-.1.2.2.1 1.6.1 2 .1 1.3.1 2.6.2 3.9.1 2.6.2 5.1.3 7.7.2 5.2.3 10.4.3 15.6 0 1.4.5 5.4-1.6 5.7-1.6.3-1.4-3-1.4-3.8-.1-5.2-.1-10.3-.2-15.5 0-2.9-.1-5.9-.1-8.8 0-1.4 0-2.7-.1-4.1 0-.8-.1-2.8 1.2-2.8 2.2-.2 2.2-3.2.2-3.2z" />
	</g>
	<g>
		<path class="prefix__st1"
			d="M49.7 128.3h3.9c.4 0 .8-.3.8-.7 0-.4-.3-.8-.8-.8h-3.9c-.4 0-.8.3-.8.8 0 .4.3.7.8.7z" />
	</g>
	<g>
		<path class="prefix__st1"
			d="M49.8 117.7c1.1.1 2.2.1 3.3.1.4 0 .8-.3.8-.8 0-.4-.3-.8-.8-.8-1.1.1-2.2 0-3.3-.1-.4 0-.8.4-.8.8.1.5.4.7.8.8z" />
	</g>
</svg>