<svg xmlns="http://www.w3.org/2000/svg" version="1.1" xmlns:xlink="http://www.w3.org/1999/xlink" width="512"
    height="512" x="0" y="0" viewBox="0 0 850.39 850.39" style="enable-background:new 0 0 512 512" xml:space="preserve"
    class="">
    <g>
        <path fill="#9e9e9e"
            d="M109.68 401.24v47.92c0 14.68 3.8 29.36 11.39 42.52l57.62 99.8 57.62 99.8a85.037 85.037 0 0 0 73.65 42.52h230.48a85.05 85.05 0 0 0 73.65-42.52l115.24-199.6c7.59-13.15 11.39-27.83 11.39-42.52V401.24z"
            opacity="1" data-original="#9e9e9e"></path>
        <path fill="#e0e0e0"
            d="M625.06 224.73c9.21 0 18.35.31 27.41.88l-38.39-66.48a85.037 85.037 0 0 0-73.65-42.52H309.96a85.05 85.05 0 0 0-73.65 42.52l-115.24 199.6a85.045 85.045 0 0 0 0 85.04l57.62 99.8 15.97 27.66c43.11-198.12 219.37-346.5 430.4-346.5z"
            opacity="1" data-original="#e0e0e0" class=""></path>
        <path fill="#b5b5b5"
            d="M309.96 685.88h230.48a85.05 85.05 0 0 0 73.65-42.52l115.24-199.6a85.045 85.045 0 0 0 0-85.04l-57.62-99.8-19.23-33.31c-9.06-.57-18.2-.88-27.41-.88-211.03 0-387.29 148.39-430.39 346.49l41.65 72.14c15.17 26.31 43.25 42.52 73.63 42.52z"
            opacity="1" data-original="#b5b5b5"></path>
        <path fill="#9e9e9e"
            d="M309.96 629.19c-10.09 0-19.5-5.43-24.55-14.17l-115.24-199.6c-5.05-8.74-5.05-19.6 0-28.35l115.24-199.6c5.05-8.74 14.45-14.17 24.55-14.17h230.48c10.09 0 19.5 5.43 24.55 14.17l115.24 199.6c5.05 8.74 5.05 19.6 0 28.35l-115.24 199.6c-5.05 8.74-14.45 14.17-24.55 14.17z"
            opacity="1" data-original="#9e9e9e"></path>
        <path fill="#e0e0e0"
            d="M321.43 444.56c-7.65 0-15.17-3.66-19.81-10.46a23.82 23.82 0 0 1-4.16-13.48c0-7.65 3.66-15.17 10.46-19.8l103.78-70.75a23.915 23.915 0 0 1 20.9-2.99c2.32.75 4.53 1.86 6.55 3.3l103.32 70.43c10.93 7.45 13.75 22.35 6.3 33.28s-22.35 13.75-33.28 6.3l-71.17-48.52a33.955 33.955 0 0 0-38.24 0L334.9 440.4a23.843 23.843 0 0 1-13.47 4.16z"
            opacity="1" data-original="#e0e0e0" class=""></path>
        <path fill="#e0e0e0"
            d="M316.89 524.48c-7.99 0-15.84-3.82-20.68-10.92a24.905 24.905 0 0 1-4.35-14.07c0-7.99 3.82-15.83 10.92-20.67l108.33-73.85a24.91 24.91 0 0 1 17.1-4.16 24.948 24.948 0 0 1 11.55 4.49l107.84 73.52c11.41 7.78 14.35 23.33 6.58 34.74-7.78 11.41-23.33 14.35-34.74 6.58l-74.29-50.64a35.43 35.43 0 0 0-39.92 0l-74.29 50.64c-4.3 2.94-9.2 4.34-14.05 4.34z"
            opacity="1" data-original="#e0e0e0" class=""></path>
        <path fill="#ffffff"
            d="M544.46 233.97c4.93 4.93 20.95 12.54 28.42 15.94 1.5.68 1.5 2.8 0 3.48-7.47 3.4-23.48 11-28.42 15.94-4.93 4.93-12.54 20.95-15.94 28.42-.68 1.5-2.8 1.5-3.48 0-3.4-7.47-11-23.48-15.94-28.42-4.93-4.93-20.95-12.54-28.42-15.94-1.5-.68-1.5-2.8 0-3.48 7.47-3.4 23.48-11 28.42-15.94 4.93-4.93 12.54-20.95 15.94-28.42.68-1.5 2.8-1.5 3.48 0 3.4 7.47 11 23.49 15.94 28.42z"
            opacity="1" data-original="#ffffff"></path>
    </g>
</svg>