<svg xmlns="http://www.w3.org/2000/svg" width="512" height="512" viewBox="0 0 850.39 850.39">
    <path fill="#4d5195"
        d="M109.68 401.24v47.92c0 14.68 3.8 29.36 11.39 42.52l57.62 99.8 57.62 99.8a85.037 85.037 0 0073.65 42.52h230.48a85.05 85.05 0 0073.65-42.52l115.24-199.6a85.001 85.001 0 0011.39-42.52v-47.92z"
        data-original="#4d5195" />
    <path fill="#b9b0d0"
        d="M625.06 224.73c9.21 0 18.35.31 27.41.88l-38.39-66.48a85.037 85.037 0 00-73.65-42.52H309.96a85.05 85.05 0 00-73.65 42.52l-115.24 199.6a85.045 85.045 0 000 85.04l57.62 99.8 15.97 27.66c43.11-198.12 219.37-346.5 430.4-346.5z"
        data-original="#b9b0d0" />
    <path fill="#7a73b2"
        d="M309.96 685.88h230.48a85.05 85.05 0 0073.65-42.52l115.24-199.6a85.045 85.045 0 000-85.04l-57.62-99.8-19.23-33.31c-9.06-.57-18.2-.88-27.41-.88-211.03 0-387.29 148.39-430.39 346.49l41.65 72.14c15.17 26.31 43.25 42.52 73.63 42.52z"
        data-original="#7a73b2" />
    <path fill="#4d5195"
        d="M309.96 629.19c-10.09 0-19.5-5.43-24.55-14.17l-115.24-199.6c-5.05-8.74-5.05-19.6 0-28.35l115.24-199.6c5.05-8.74 14.45-14.17 24.55-14.17h230.48c10.09 0 19.5 5.43 24.55 14.17l115.24 199.6c5.05 8.74 5.05 19.6 0 28.35l-115.24 199.6c-5.05 8.74-14.45 14.17-24.55 14.17z"
        data-original="#4d5195" />
    <path fill="#fff"
        d="M544.46 233.97c4.93 4.93 20.95 12.54 28.42 15.94 1.5.68 1.5 2.8 0 3.48-7.47 3.4-23.48 11-28.42 15.94-4.93 4.93-12.54 20.95-15.94 28.42-.68 1.5-2.8 1.5-3.48 0-3.4-7.47-11-23.48-15.94-28.42-4.93-4.93-20.95-12.54-28.42-15.94-1.5-.68-1.5-2.8 0-3.48 7.47-3.4 23.48-11 28.42-15.94 4.93-4.93 12.54-20.95 15.94-28.42.68-1.5 2.8-1.5 3.48 0 3.4 7.47 11 23.49 15.94 28.42z"
        data-original="#ffffff" />
    <path fill="#7a73b2"
        d="M450.17 281.06c6.97 6.97 29.6 17.72 40.15 22.51 2.11.96 2.11 3.96 0 4.92-10.55 4.8-33.18 15.54-40.15 22.51s-17.72 29.6-22.51 40.15c-.96 2.11-3.96 2.11-4.92 0-4.8-10.55-15.54-33.18-22.51-40.15s-29.6-17.72-40.15-22.51c-2.11-.96-2.11-3.96 0-4.92 10.55-4.8 33.18-15.54 40.15-22.51s17.72-29.6 22.51-40.15c.96-2.11 3.96-2.11 4.92 0 4.79 10.56 15.54 33.18 22.51 40.15z"
        data-original="#7a73b2" />
    <path fill="#b9b0d0"
        d="M425.2 239.33c-.99 0-1.98.53-2.46 1.59-4.8 10.55-15.54 33.18-22.51 40.15s-29.6 17.72-40.15 22.51c-2.11.96-2.11 3.96 0 4.92 10.55 4.8 33.18 15.54 40.15 22.51s17.72 29.6 22.51 40.15a2.666 2.666 0 002.46 1.59z"
        data-original="#b9b0d0" />
    <path fill="#7a73b2"
        d="M450.17 471.48c6.97 6.97 29.6 17.72 40.15 22.51 2.11.96 2.11 3.96 0 4.92-10.55 4.8-33.18 15.54-40.15 22.51s-17.72 29.6-22.51 40.15c-.96 2.11-3.96 2.11-4.92 0-4.8-10.55-15.54-33.18-22.51-40.15s-29.6-17.72-40.15-22.51c-2.11-.96-2.11-3.96 0-4.92 10.55-4.8 33.18-15.54 40.15-22.51s17.72-29.6 22.51-40.15c.96-2.11 3.96-2.11 4.92 0 4.79 10.55 15.54 33.17 22.51 40.15z"
        data-original="#7a73b2" />
    <path fill="#b9b0d0"
        d="M425.2 429.74c-.99 0-1.98.53-2.46 1.59-4.8 10.55-15.54 33.18-22.51 40.15s-29.6 17.72-40.15 22.51c-2.11.96-2.11 3.96 0 4.92 10.55 4.8 33.18 15.54 40.15 22.51s17.72 29.6 22.51 40.15a2.666 2.666 0 002.46 1.59z"
        data-original="#b9b0d0" />
</svg>