<svg xmlns="http://www.w3.org/2000/svg" width="512" height="512" viewBox="0 0 850.39 850.39">
    <path fill="#c3371e"
        d="M109.68 401.24v47.92c0 14.68 3.8 29.36 11.39 42.52l57.62 99.8 57.62 99.8a85.037 85.037 0 0073.65 42.52h230.48a85.05 85.05 0 0073.65-42.52l115.24-199.6a85.001 85.001 0 0011.39-42.52v-47.92z"
        data-original="#c3371e" />
    <path fill="#f6d555"
        d="M625.06 224.73c9.21 0 18.35.31 27.41.88l-38.39-66.48a85.037 85.037 0 00-73.65-42.52H309.96a85.05 85.05 0 00-73.65 42.52l-115.24 199.6a85.045 85.045 0 000 85.04l57.62 99.8 15.97 27.66c43.11-198.12 219.37-346.5 430.4-346.5z"
        data-original="#f6d555" />
    <path fill="#efb217"
        d="M309.96 685.88h230.48a85.05 85.05 0 0073.65-42.52l115.24-199.6a85.045 85.045 0 000-85.04l-57.62-99.8-19.23-33.31c-9.06-.57-18.2-.88-27.41-.88-211.03 0-387.29 148.39-430.39 346.49l41.65 72.14c15.17 26.31 43.25 42.52 73.63 42.52z"
        data-original="#efb217" />
    <path fill="#c3371e"
        d="M309.96 629.19c-10.09 0-19.5-5.43-24.55-14.17l-115.24-199.6c-5.05-8.74-5.05-19.6 0-28.35l115.24-199.6c5.05-8.74 14.45-14.17 24.55-14.17h230.48c10.09 0 19.5 5.43 24.55 14.17l115.24 199.6c5.05 8.74 5.05 19.6 0 28.35l-115.24 199.6c-5.05 8.74-14.45 14.17-24.55 14.17z"
        data-original="#c3371e" />
    <path fill="#fff"
        d="M544.46 233.97c4.93 4.93 20.95 12.54 28.42 15.94 1.5.68 1.5 2.8 0 3.48-7.47 3.4-23.48 11-28.42 15.94-4.93 4.93-12.54 20.95-15.94 28.42-.68 1.5-2.8 1.5-3.48 0-3.4-7.47-11-23.48-15.94-28.42-4.93-4.93-20.95-12.54-28.42-15.94-1.5-.68-1.5-2.8 0-3.48 7.47-3.4 23.48-11 28.42-15.94 4.93-4.93 12.54-20.95 15.94-28.42.68-1.5 2.8-1.5 3.48 0 3.4 7.47 11 23.49 15.94 28.42z"
        data-original="#ffffff" />
    <path fill="#efb217"
        d="M495.26 400.67c0 19.57 16.67 66.4 24.75 87.94 1.62 4.32-2.59 8.52-6.9 6.9-21.54-8.08-68.37-24.75-87.94-24.75s-66.4 16.67-87.94 24.75c-4.32 1.62-8.52-2.59-6.9-6.9 8.08-21.54 24.75-68.37 24.75-87.94s-16.67-66.4-24.75-87.94c-1.62-4.32 2.59-8.52 6.9-6.9 21.54 8.08 68.37 24.75 87.94 24.75s66.4-16.67 87.94-24.75c4.32-1.62 8.52 2.59 6.9 6.9-8.08 21.54-24.75 68.37-24.75 87.94z"
        data-original="#efb217" />
    <path fill="#f6d555"
        d="M518.78 307.05c-1.39-1.39-3.52-2.04-5.68-1.23-21.54 8.08-68.37 24.75-87.94 24.75s-66.4-16.67-87.94-24.75c-4.32-1.62-8.52 2.59-6.9 6.9 8.08 21.54 24.75 68.37 24.75 87.94s-16.67 66.4-24.75 87.94c-.81 2.16-.16 4.29 1.23 5.68z"
        data-original="#f6d555" />
    <path fill="#efb217"
        d="M474.73 351.1c13.84 13.84 58.74 35.16 79.68 44.68 4.2 1.91 4.2 7.85 0 9.76-20.94 9.52-65.85 30.85-79.68 44.68-13.84 13.84-35.16 58.74-44.68 79.68-1.91 4.2-7.85 4.2-9.76 0-9.52-20.94-30.85-65.85-44.68-79.68-13.84-13.84-58.74-35.16-79.68-44.68-4.2-1.91-4.2-7.85 0-9.76 20.94-9.52 65.85-30.85 79.68-44.68 13.84-13.84 35.16-58.74 44.68-79.68 1.91-4.2 7.85-4.2 9.76 0 9.51 20.94 30.84 65.85 44.68 79.68z"
        data-original="#efb217" />
    <path fill="#f6d555"
        d="M425.16 268.27c-1.96 0-3.93 1.05-4.88 3.15-9.52 20.94-30.85 65.85-44.68 79.68-13.84 13.84-58.74 35.16-79.68 44.68-4.2 1.91-4.2 7.85 0 9.76 20.94 9.52 65.85 30.85 79.68 44.68 13.84 13.84 35.16 58.74 44.68 79.68.95 2.1 2.92 3.15 4.88 3.15z"
        data-original="#f6d555" />
</svg>